<?xml version="1.0" encoding="UTF-8" standalone="no"?>
<!DOCTYPE svg PUBLIC "-//W3C//DTD SVG 1.1//EN"
 "http://www.w3.org/Graphics/SVG/1.1/DTD/svg11.dtd">
<!-- Generated by graphviz version 2.44.0 ()
 -->
<!-- Title: src/Scripts/Heroes/AirstrikeAbilityBehaviour.hpp Pages: 1 -->
<svg width="296pt" height="106pt"
 viewBox="0.00 0.00 295.50 106.00" xmlns="http://www.w3.org/2000/svg" xmlns:xlink="http://www.w3.org/1999/xlink">
<g id="graph0" class="graph" transform="scale(1 1) rotate(0) translate(4 102)">
<title>src/Scripts/Heroes/AirstrikeAbilityBehaviour.hpp</title>
<!-- Node1 -->
<g id="node1" class="node">
<title>Node1</title>
<g id="a_node1"><a xlink:title=" ">
<polygon fill="#bfbfbf" stroke="black" points="67.5,-67.5 67.5,-97.5 210.5,-97.5 210.5,-67.5 67.5,-67.5"/>
<text text-anchor="start" x="75.5" y="-85.5" font-family="Helvetica,sans-Serif" font-size="10.00">src/Scripts/Heroes</text>
<text text-anchor="middle" x="139" y="-74.5" font-family="Helvetica,sans-Serif" font-size="10.00">/AirstrikeAbilityBehaviour.hpp</text>
</a>
</g>
</g>
<!-- Node2 -->
<g id="node2" class="node">
<title>Node2</title>
<g id="a_node2"><a xlink:href="HeroPrefabFactory_8cpp.html" target="_top" xlink:title=" ">
<polygon fill="none" stroke="black" points="0,-0.5 0,-30.5 126,-30.5 126,-0.5 0,-0.5"/>
<text text-anchor="start" x="8" y="-18.5" font-family="Helvetica,sans-Serif" font-size="10.00">src/Factories/HeroPrefab</text>
<text text-anchor="middle" x="63" y="-7.5" font-family="Helvetica,sans-Serif" font-size="10.00">Factory.cpp</text>
</a>
</g>
</g>
<!-- Node1&#45;&gt;Node2 -->
<g id="edge1" class="edge">
<title>Node1&#45;&gt;Node2</title>
<path fill="none" stroke="midnightblue" d="M114.89,-60.88C103.34,-51.01 89.81,-39.43 79.46,-30.58"/>
<polygon fill="midnightblue" stroke="midnightblue" points="112.63,-63.56 122.51,-67.4 117.18,-58.24 112.63,-63.56"/>
</g>
<!-- Node3 -->
<g id="node3" class="node">
<title>Node3</title>
<g id="a_node3"><a xlink:href="AirstrikeAbilityBehaviour_8cpp.html" target="_top" xlink:title=" ">
<polygon fill="none" stroke="black" points="144.5,-0.5 144.5,-30.5 287.5,-30.5 287.5,-0.5 144.5,-0.5"/>
<text text-anchor="start" x="152.5" y="-18.5" font-family="Helvetica,sans-Serif" font-size="10.00">src/Scripts/Heroes</text>
<text text-anchor="middle" x="216" y="-7.5" font-family="Helvetica,sans-Serif" font-size="10.00">/AirstrikeAbilityBehaviour.cpp</text>
</a>
</g>
</g>
<!-- Node1&#45;&gt;Node3 -->
<g id="edge2" class="edge">
<title>Node1&#45;&gt;Node3</title>
<path fill="none" stroke="midnightblue" d="M163.42,-60.88C175.12,-51.01 188.84,-39.43 199.32,-30.58"/>
<polygon fill="midnightblue" stroke="midnightblue" points="161.09,-58.27 155.71,-67.4 165.61,-63.62 161.09,-58.27"/>
</g>
</g>
</svg>
