<?xml version="1.0" encoding="UTF-8" standalone="no"?>
<!DOCTYPE svg PUBLIC "-//W3C//DTD SVG 1.1//EN"
 "http://www.w3.org/Graphics/SVG/1.1/DTD/svg11.dtd">
<!-- Generated by graphviz version 2.44.0 ()
 -->
<!-- Title: libs/spic&#45;engine/includes/spic&#45;api&#45;headers/Animator.hpp Pages: 1 -->
<!--zoomable 307 -->
<svg id="main" version="1.1" xmlns="http://www.w3.org/2000/svg" xmlns:xlink="http://www.w3.org/1999/xlink" xml:space="preserve" onload="init(evt)">
<style type="text/css"><![CDATA[
.edge:hover path { stroke: red; }
.edge:hover polygon { stroke: red; fill: red; }
]]></style>
<script type="text/javascript"><![CDATA[
var edges = document.getElementsByTagName('g');
if (edges && edges.length) {
  for (var i=0;i<edges.length;i++) {
    if (edges[i].id.substr(0,4)=='edge') {
      edges[i].setAttribute('class','edge');
    }
  }
}
]]></script>
        <defs>
                <circle id="rim" cx="0" cy="0" r="7"/>
                <circle id="rim2" cx="0" cy="0" r="3.5"/>
                <g id="zoomPlus">
                        <use xlink:href="#rim" fill="#404040">
                                <set attributeName="fill" to="#808080" begin="zoomplus.mouseover" end="zoomplus.mouseout"/>
                        </use>
                        <path d="M-4,0h8M0,-4v8" fill="none" stroke="white" stroke-width="1.5" pointer-events="none"/>
                </g>
                <g id="zoomMin">
                        <use xlink:href="#rim" fill="#404040">
                                <set attributeName="fill" to="#808080" begin="zoomminus.mouseover" end="zoomminus.mouseout"/>
                        </use>
                        <path d="M-4,0h8" fill="none" stroke="white" stroke-width="1.5" pointer-events="none"/>
                </g>
                <g id="dirArrow">
                        <path fill="none" stroke="white" stroke-width="1.5" d="M0,-3.0v7 M-2.5,-0.5L0,-3.0L2.5,-0.5"/>
                </g>
               <g id="resetDef">
                       <use xlink:href="#rim2" fill="#404040">
                               <set attributeName="fill" to="#808080" begin="reset.mouseover" end="reset.mouseout"/>
                       </use>
               </g>
        </defs>

<script type="text/javascript">
var viewWidth = 2158;
var viewHeight = 307;
var sectionId = 'dynsection-1';
</script>
<script xlink:href="svgpan.js"/>
<svg id="graph" class="graph">
<g id="viewport">
<title>libs/spic&#45;engine/includes/spic&#45;api&#45;headers/Animator.hpp</title>
<!-- Node1 -->
<g id="node1" class="node">
<title>Node1</title>
<g id="a_node1"><a xlink:title=" ">
<polygon fill="#bfbfbf" stroke="black" points="1231.34,-268.5 1231.34,-298.5 1382.34,-298.5 1382.34,-268.5 1231.34,-268.5"/>
<text text-anchor="start" x="1239.34" y="-286.5" font-family="Helvetica,sans-Serif" font-size="10.00">libs/spic&#45;engine/includes</text>
<text text-anchor="middle" x="1306.84" y="-275.5" font-family="Helvetica,sans-Serif" font-size="10.00">/spic&#45;api&#45;headers/Animator.hpp</text>
</a>
</g>
</g>
<!-- Node2 -->
<g id="node2" class="node">
<title>Node2</title>
<g id="a_node2"><a xlink:href="EnemyPrefabFactory_8cpp.html" target="_top" xlink:title=" ">
<polygon fill="none" stroke="black" points="113.84,-67.5 113.84,-97.5 247.84,-97.5 247.84,-67.5 113.84,-67.5"/>
<text text-anchor="start" x="121.84" y="-85.5" font-family="Helvetica,sans-Serif" font-size="10.00">src/Factories/EnemyPrefab</text>
<text text-anchor="middle" x="180.84" y="-74.5" font-family="Helvetica,sans-Serif" font-size="10.00">Factory.cpp</text>
</a>
</g>
</g>
<!-- Node1&#45;&gt;Node2 -->
<g id="edge1" class="edge">
<title>Node1&#45;&gt;Node2</title>
<path fill="none" stroke="midnightblue" d="M1220.92,-282.88C989.82,-283.25 358.78,-279.71 156.84,-232 85.78,-215.21 46.57,-226.26 6.84,-165 -22.25,-120.15 53.26,-99.52 113.82,-90.35"/>
<polygon fill="midnightblue" stroke="midnightblue" points="1220.97,-286.38 1230.96,-282.86 1220.95,-279.38 1220.97,-286.38"/>
</g>
<!-- Node3 -->
<g id="node3" class="node">
<title>Node3</title>
<g id="a_node3"><a xlink:href="HeroPrefabFactory_8cpp.html" target="_top" xlink:title=" ">
<polygon fill="none" stroke="black" points="1453.84,-67.5 1453.84,-97.5 1579.84,-97.5 1579.84,-67.5 1453.84,-67.5"/>
<text text-anchor="start" x="1461.84" y="-85.5" font-family="Helvetica,sans-Serif" font-size="10.00">src/Factories/HeroPrefab</text>
<text text-anchor="middle" x="1516.84" y="-74.5" font-family="Helvetica,sans-Serif" font-size="10.00">Factory.cpp</text>
</a>
</g>
</g>
<!-- Node1&#45;&gt;Node3 -->
<g id="edge2" class="edge">
<title>Node1&#45;&gt;Node3</title>
<path fill="none" stroke="midnightblue" d="M1392.83,-276.17C1466.46,-265.67 1568.35,-237.96 1618.84,-165 1626.68,-153.67 1626.11,-145.71 1618.84,-134 1608.1,-116.71 1589.5,-105.16 1571.09,-97.52"/>
<polygon fill="midnightblue" stroke="midnightblue" points="1392.08,-272.74 1382.63,-277.54 1393.01,-279.68 1392.08,-272.74"/>
</g>
<!-- Node4 -->
<g id="node4" class="node">
<title>Node4</title>
<g id="a_node4"><a xlink:href="TowerPrefabFactory_8cpp.html" target="_top" xlink:title=" ">
<polygon fill="none" stroke="black" points="265.84,-67.5 265.84,-97.5 397.84,-97.5 397.84,-67.5 265.84,-67.5"/>
<text text-anchor="start" x="273.84" y="-85.5" font-family="Helvetica,sans-Serif" font-size="10.00">src/Factories/TowerPrefab</text>
<text text-anchor="middle" x="331.84" y="-74.5" font-family="Helvetica,sans-Serif" font-size="10.00">Factory.cpp</text>
</a>
</g>
</g>
<!-- Node1&#45;&gt;Node4 -->
<g id="edge3" class="edge">
<title>Node1&#45;&gt;Node4</title>
<path fill="none" stroke="midnightblue" d="M1220.67,-281.13C998.47,-277.16 417.8,-263.83 336.84,-232 284.51,-211.43 230.42,-183.63 256.84,-134 265.47,-117.79 281.88,-105.85 297.15,-97.66"/>
<polygon fill="midnightblue" stroke="midnightblue" points="1220.91,-284.63 1230.97,-281.31 1221.04,-277.64 1220.91,-284.63"/>
</g>
<!-- Node5 -->
<g id="node5" class="node">
<title>Node5</title>
<g id="a_node5"><a xlink:href="AttackBehaviour_8hpp.html" target="_top" xlink:title=" ">
<polygon fill="none" stroke="black" points="345.84,-201.5 345.84,-231.5 455.84,-231.5 455.84,-201.5 345.84,-201.5"/>
<text text-anchor="start" x="353.84" y="-219.5" font-family="Helvetica,sans-Serif" font-size="10.00">src/Scripts/Common</text>
<text text-anchor="middle" x="400.84" y="-208.5" font-family="Helvetica,sans-Serif" font-size="10.00">/AttackBehaviour.hpp</text>
</a>
</g>
</g>
<!-- Node1&#45;&gt;Node5 -->
<g id="edge4" class="edge">
<title>Node1&#45;&gt;Node5</title>
<path fill="none" stroke="midnightblue" d="M1220.98,-276.34C1036.87,-263.13 608.52,-232.4 455.99,-221.46"/>
<polygon fill="midnightblue" stroke="midnightblue" points="1220.93,-279.85 1231.15,-277.07 1221.43,-272.86 1220.93,-279.85"/>
</g>
<!-- Node9 -->
<g id="node9" class="node">
<title>Node9</title>
<g id="a_node9"><a xlink:href="HealthBehaviour_8hpp.html" target="_top" xlink:title=" ">
<polygon fill="none" stroke="black" points="1022.84,-201.5 1022.84,-231.5 1132.84,-231.5 1132.84,-201.5 1022.84,-201.5"/>
<text text-anchor="start" x="1030.84" y="-219.5" font-family="Helvetica,sans-Serif" font-size="10.00">src/Scripts/Common</text>
<text text-anchor="middle" x="1077.84" y="-208.5" font-family="Helvetica,sans-Serif" font-size="10.00">/HealthBehaviour.hpp</text>
</a>
</g>
</g>
<!-- Node1&#45;&gt;Node9 -->
<g id="edge10" class="edge">
<title>Node1&#45;&gt;Node9</title>
<path fill="none" stroke="midnightblue" d="M1247.7,-265.71C1210.44,-255.14 1162.87,-241.63 1127.55,-231.61"/>
<polygon fill="midnightblue" stroke="midnightblue" points="1246.86,-269.11 1257.43,-268.48 1248.77,-262.38 1246.86,-269.11"/>
</g>
<!-- Node20 -->
<g id="node20" class="node">
<title>Node20</title>
<g id="a_node20"><a xlink:href="EnemyMovementBehaviour_8hpp.html" target="_top" xlink:title=" ">
<polygon fill="none" stroke="black" points="15.84,-134.5 15.84,-164.5 171.84,-164.5 171.84,-134.5 15.84,-134.5"/>
<text text-anchor="start" x="23.84" y="-152.5" font-family="Helvetica,sans-Serif" font-size="10.00">src/Scripts/Enemies</text>
<text text-anchor="middle" x="93.84" y="-141.5" font-family="Helvetica,sans-Serif" font-size="10.00">/EnemyMovementBehaviour.hpp</text>
</a>
</g>
</g>
<!-- Node1&#45;&gt;Node20 -->
<g id="edge54" class="edge">
<title>Node1&#45;&gt;Node20</title>
<path fill="none" stroke="midnightblue" d="M1221.06,-281C981.69,-276.48 317.81,-261.41 223.84,-232 178.59,-217.84 133.41,-183.97 110.09,-164.64"/>
<polygon fill="midnightblue" stroke="midnightblue" points="1221.05,-284.5 1231.11,-281.19 1221.18,-277.51 1221.05,-284.5"/>
</g>
<!-- Node25 -->
<g id="node25" class="node">
<title>Node25</title>
<g id="a_node25"><a xlink:href="UserMovementBehaviour_8hpp.html" target="_top" xlink:title=" ">
<polygon fill="none" stroke="black" points="1461.84,-134.5 1461.84,-164.5 1609.84,-164.5 1609.84,-134.5 1461.84,-134.5"/>
<text text-anchor="start" x="1469.84" y="-152.5" font-family="Helvetica,sans-Serif" font-size="10.00">src/Scripts/Heroes</text>
<text text-anchor="middle" x="1535.84" y="-141.5" font-family="Helvetica,sans-Serif" font-size="10.00">/UserMovementBehaviour.hpp</text>
</a>
</g>
</g>
<!-- Node1&#45;&gt;Node25 -->
<g id="edge55" class="edge">
<title>Node1&#45;&gt;Node25</title>
<path fill="none" stroke="midnightblue" d="M1340.15,-263.3C1386.75,-236.44 1470.31,-188.27 1511.51,-164.52"/>
<polygon fill="midnightblue" stroke="midnightblue" points="1338.26,-260.35 1331.35,-268.37 1341.76,-266.41 1338.26,-260.35"/>
</g>
<!-- Node36 -->
<g id="node36" class="node">
<title>Node36</title>
<g id="a_node36"><a xlink:href="Animator_8cpp.html" target="_top" xlink:title=" ">
<polygon fill="none" stroke="black" points="1848.34,-201.5 1848.34,-231.5 1949.34,-231.5 1949.34,-201.5 1848.34,-201.5"/>
<text text-anchor="start" x="1856.34" y="-219.5" font-family="Helvetica,sans-Serif" font-size="10.00">libs/spic&#45;engine/src</text>
<text text-anchor="middle" x="1898.84" y="-208.5" font-family="Helvetica,sans-Serif" font-size="10.00">/Api/Animator.cpp</text>
</a>
</g>
</g>
<!-- Node1&#45;&gt;Node36 -->
<g id="edge56" class="edge">
<title>Node1&#45;&gt;Node36</title>
<path fill="none" stroke="midnightblue" d="M1392.89,-278.11C1498.49,-271.86 1682.76,-258.13 1838.84,-232 1841.9,-231.49 1845.04,-230.9 1848.2,-230.27"/>
<polygon fill="midnightblue" stroke="midnightblue" points="1392.38,-274.64 1382.61,-278.71 1392.79,-281.62 1392.38,-274.64"/>
</g>
<!-- Node37 -->
<g id="node37" class="node">
<title>Node37</title>
<g id="a_node37"><a xlink:href="AnimatorSubsystem_8cpp.html" target="_top" xlink:title=" ">
<polygon fill="none" stroke="black" points="1967.84,-201.5 1967.84,-231.5 2149.84,-231.5 2149.84,-201.5 1967.84,-201.5"/>
<text text-anchor="start" x="1975.84" y="-219.5" font-family="Helvetica,sans-Serif" font-size="10.00">libs/spic&#45;engine/src</text>
<text text-anchor="middle" x="2058.84" y="-208.5" font-family="Helvetica,sans-Serif" font-size="10.00">/Subsystems/AnimatorSubsystem.cpp</text>
</a>
</g>
</g>
<!-- Node1&#45;&gt;Node37 -->
<g id="edge57" class="edge">
<title>Node1&#45;&gt;Node37</title>
<path fill="none" stroke="midnightblue" d="M1393.05,-277.66C1518,-270.23 1756.62,-254.47 1958.84,-232 1961.72,-231.68 1964.64,-231.34 1967.59,-230.99"/>
<polygon fill="midnightblue" stroke="midnightblue" points="1392.56,-274.18 1382.78,-278.27 1392.97,-281.17 1392.56,-274.18"/>
</g>
<!-- Node38 -->
<g id="node38" class="node">
<title>Node38</title>
<g id="a_node38"><a xlink:href="Api_8hpp.html" target="_top" xlink:title=" ">
<polygon fill="none" stroke="black" points="1703.84,-201.5 1703.84,-231.5 1829.84,-231.5 1829.84,-201.5 1703.84,-201.5"/>
<text text-anchor="start" x="1711.84" y="-219.5" font-family="Helvetica,sans-Serif" font-size="10.00">libs/spic&#45;engine/includes</text>
<text text-anchor="middle" x="1766.84" y="-208.5" font-family="Helvetica,sans-Serif" font-size="10.00">/spic&#45;api&#45;headers/Api.hpp</text>
</a>
</g>
</g>
<!-- Node1&#45;&gt;Node38 -->
<g id="edge58" class="edge">
<title>Node1&#45;&gt;Node38</title>
<path fill="none" stroke="midnightblue" d="M1392.82,-272.54C1470.57,-263.2 1588.11,-248.27 1689.84,-232 1694.27,-231.29 1698.84,-230.52 1703.44,-229.73"/>
<polygon fill="midnightblue" stroke="midnightblue" points="1392.11,-269.1 1382.59,-273.76 1392.94,-276.05 1392.11,-269.1"/>
</g>
<!-- Node5&#45;&gt;Node2 -->
<g id="edge5" class="edge">
<title>Node5&#45;&gt;Node2</title>
<path fill="none" stroke="midnightblue" d="M335.93,-200.02C310.02,-192.03 280.73,-180.61 256.84,-165 228.66,-146.59 203.68,-115.55 190.56,-97.56"/>
<polygon fill="midnightblue" stroke="midnightblue" points="335.09,-203.42 345.67,-202.91 337.08,-196.71 335.09,-203.42"/>
</g>
<!-- Node6 -->
<g id="node6" class="node">
<title>Node6</title>
<g id="a_node6"><a xlink:href="TowerPrefabFactory_8hpp.html" target="_top" xlink:title=" ">
<polygon fill="none" stroke="black" points="265.84,-134.5 265.84,-164.5 397.84,-164.5 397.84,-134.5 265.84,-134.5"/>
<text text-anchor="start" x="273.84" y="-152.5" font-family="Helvetica,sans-Serif" font-size="10.00">src/Factories/TowerPrefab</text>
<text text-anchor="middle" x="331.84" y="-141.5" font-family="Helvetica,sans-Serif" font-size="10.00">Factory.hpp</text>
</a>
</g>
</g>
<!-- Node5&#45;&gt;Node6 -->
<g id="edge6" class="edge">
<title>Node5&#45;&gt;Node6</title>
<path fill="none" stroke="midnightblue" d="M378.35,-194.31C368,-184.56 356,-173.26 346.78,-164.58"/>
<polygon fill="midnightblue" stroke="midnightblue" points="376.19,-197.09 385.87,-201.4 380.99,-191.99 376.19,-197.09"/>
</g>
<!-- Node8 -->
<g id="node8" class="node">
<title>Node8</title>
<g id="a_node8"><a xlink:href="AttackBehaviour_8cpp.html" target="_top" xlink:title=" ">
<polygon fill="none" stroke="black" points="415.84,-134.5 415.84,-164.5 525.84,-164.5 525.84,-134.5 415.84,-134.5"/>
<text text-anchor="start" x="423.84" y="-152.5" font-family="Helvetica,sans-Serif" font-size="10.00">src/Scripts/Common</text>
<text text-anchor="middle" x="470.84" y="-141.5" font-family="Helvetica,sans-Serif" font-size="10.00">/AttackBehaviour.cpp</text>
</a>
</g>
</g>
<!-- Node5&#45;&gt;Node8 -->
<g id="edge9" class="edge">
<title>Node5&#45;&gt;Node8</title>
<path fill="none" stroke="midnightblue" d="M423.66,-194.31C434.16,-184.56 446.33,-173.26 455.68,-164.58"/>
<polygon fill="midnightblue" stroke="midnightblue" points="420.97,-192.03 416.03,-201.4 425.74,-197.16 420.97,-192.03"/>
</g>
<!-- Node6&#45;&gt;Node4 -->
<g id="edge8" class="edge">
<title>Node6&#45;&gt;Node4</title>
<path fill="none" stroke="midnightblue" d="M331.84,-124.11C331.84,-115.15 331.84,-105.32 331.84,-97.58"/>
<polygon fill="midnightblue" stroke="midnightblue" points="328.34,-124.4 331.84,-134.4 335.34,-124.4 328.34,-124.4"/>
</g>
<!-- Node7 -->
<g id="node7" class="node">
<title>Node7</title>
<g id="a_node7"><a xlink:href="LevelController_8cpp.html" target="_top" xlink:title=" ">
<polygon fill="none" stroke="black" points="792.84,-6 792.84,-25 958.84,-25 958.84,-6 792.84,-6"/>
<text text-anchor="middle" x="875.84" y="-13" font-family="Helvetica,sans-Serif" font-size="10.00">src/Controllers/LevelController.cpp</text>
</a>
</g>
</g>
<!-- Node6&#45;&gt;Node7 -->
<g id="edge7" class="edge">
<title>Node6&#45;&gt;Node7</title>
<path fill="none" stroke="midnightblue" d="M408.41,-133.91C571.24,-112.39 625.12,-158.43 773.84,-98 774.51,-97.73 838.88,-46.14 865.01,-25.19"/>
<polygon fill="midnightblue" stroke="midnightblue" points="407.46,-130.51 398.04,-135.36 408.42,-137.44 407.46,-130.51"/>
</g>
<!-- Node9&#45;&gt;Node2 -->
<g id="edge11" class="edge">
<title>Node9&#45;&gt;Node2</title>
<path fill="none" stroke="midnightblue" d="M1012.17,-213.62C894.02,-209.46 650.7,-197.18 572.84,-165 552.7,-156.67 554.86,-142.62 534.84,-134 420.41,-84.73 379.86,-117.68 256.84,-98 253.92,-97.53 250.94,-97.04 247.94,-96.53"/>
<polygon fill="midnightblue" stroke="midnightblue" points="1012.4,-217.13 1022.51,-213.97 1012.64,-210.13 1012.4,-217.13"/>
</g>
<!-- Node9&#45;&gt;Node8 -->
<g id="edge15" class="edge">
<title>Node9&#45;&gt;Node8</title>
<path fill="none" stroke="midnightblue" d="M1012.5,-211.77C910.96,-205.43 709.32,-190.68 539.84,-165 535.36,-164.32 530.74,-163.54 526.1,-162.69"/>
<polygon fill="midnightblue" stroke="midnightblue" points="1012.4,-215.27 1022.6,-212.39 1012.83,-208.28 1012.4,-215.27"/>
</g>
<!-- Node10 -->
<g id="node10" class="node">
<title>Node10</title>
<g id="a_node10"><a xlink:href="LevelScene_8hpp.html" target="_top" xlink:title=" ">
<polygon fill="none" stroke="black" points="1008.34,-140 1008.34,-159 1147.34,-159 1147.34,-140 1008.34,-140"/>
<text text-anchor="middle" x="1077.84" y="-147" font-family="Helvetica,sans-Serif" font-size="10.00">src/Scenes/LevelScene.hpp</text>
</a>
</g>
</g>
<!-- Node9&#45;&gt;Node10 -->
<g id="edge12" class="edge">
<title>Node9&#45;&gt;Node10</title>
<path fill="none" stroke="midnightblue" d="M1077.84,-191.25C1077.84,-180.02 1077.84,-167.38 1077.84,-159.19"/>
<polygon fill="midnightblue" stroke="midnightblue" points="1074.34,-191.4 1077.84,-201.4 1081.34,-191.4 1074.34,-191.4"/>
</g>
<!-- Node13 -->
<g id="node13" class="node">
<title>Node13</title>
<g id="a_node13"><a xlink:href="DamageBehaviour_8cpp.html" target="_top" xlink:title=" ">
<polygon fill="none" stroke="black" points="1764.34,-67.5 1764.34,-97.5 1881.34,-97.5 1881.34,-67.5 1764.34,-67.5"/>
<text text-anchor="start" x="1772.34" y="-85.5" font-family="Helvetica,sans-Serif" font-size="10.00">src/Scripts/Common</text>
<text text-anchor="middle" x="1822.84" y="-74.5" font-family="Helvetica,sans-Serif" font-size="10.00">/DamageBehaviour.cpp</text>
</a>
</g>
</g>
<!-- Node9&#45;&gt;Node13 -->
<g id="edge16" class="edge">
<title>Node9&#45;&gt;Node13</title>
<path fill="none" stroke="midnightblue" d="M1143.43,-215.4C1246.21,-213.9 1450.83,-205.51 1618.84,-165 1684.28,-149.22 1756.45,-116.46 1794.97,-97.63"/>
<polygon fill="midnightblue" stroke="midnightblue" points="1143.17,-211.9 1133.21,-215.53 1143.26,-218.9 1143.17,-211.9"/>
</g>
<!-- Node14 -->
<g id="node14" class="node">
<title>Node14</title>
<g id="a_node14"><a xlink:href="DamageBehaviour_8hpp.html" target="_top" xlink:title=" ">
<polygon fill="none" stroke="black" points="1764.34,-134.5 1764.34,-164.5 1881.34,-164.5 1881.34,-134.5 1764.34,-134.5"/>
<text text-anchor="start" x="1772.34" y="-152.5" font-family="Helvetica,sans-Serif" font-size="10.00">src/Scripts/Common</text>
<text text-anchor="middle" x="1822.84" y="-141.5" font-family="Helvetica,sans-Serif" font-size="10.00">/DamageBehaviour.hpp</text>
</a>
</g>
</g>
<!-- Node9&#45;&gt;Node14 -->
<g id="edge17" class="edge">
<title>Node9&#45;&gt;Node14</title>
<path fill="none" stroke="midnightblue" d="M1142.89,-209.82C1286.16,-197.32 1627.06,-167.58 1764.2,-155.62"/>
<polygon fill="midnightblue" stroke="midnightblue" points="1142.58,-206.34 1132.92,-210.69 1143.19,-213.31 1142.58,-206.34"/>
</g>
<!-- Node19 -->
<g id="node19" class="node">
<title>Node19</title>
<g id="a_node19"><a xlink:href="HealthBehaviour_8cpp.html" target="_top" xlink:title=" ">
<polygon fill="none" stroke="black" points="581.84,-134.5 581.84,-164.5 691.84,-164.5 691.84,-134.5 581.84,-134.5"/>
<text text-anchor="start" x="589.84" y="-152.5" font-family="Helvetica,sans-Serif" font-size="10.00">src/Scripts/Common</text>
<text text-anchor="middle" x="636.84" y="-141.5" font-family="Helvetica,sans-Serif" font-size="10.00">/HealthBehaviour.cpp</text>
</a>
</g>
</g>
<!-- Node9&#45;&gt;Node19 -->
<g id="edge23" class="edge">
<title>Node9&#45;&gt;Node19</title>
<path fill="none" stroke="midnightblue" d="M1012.37,-208.53C936.95,-200.09 809.47,-184.54 700.84,-165 697.92,-164.48 694.94,-163.91 691.93,-163.31"/>
<polygon fill="midnightblue" stroke="midnightblue" points="1012.33,-212.05 1022.66,-209.68 1013.1,-205.09 1012.33,-212.05"/>
</g>
<!-- Node9&#45;&gt;Node20 -->
<g id="edge24" class="edge">
<title>Node9&#45;&gt;Node20</title>
<path fill="none" stroke="midnightblue" d="M1012.48,-212.09C873.39,-204.69 537.82,-186.13 256.84,-165 229.22,-162.92 198.99,-160.32 172.15,-157.9"/>
<polygon fill="midnightblue" stroke="midnightblue" points="1012.38,-215.59 1022.55,-212.62 1012.75,-208.6 1012.38,-215.59"/>
</g>
<!-- Node22 -->
<g id="node22" class="node">
<title>Node22</title>
<g id="a_node22"><a xlink:href="HealAbilityBehaviour_8hpp.html" target="_top" xlink:title=" ">
<polygon fill="none" stroke="black" points="1165.84,-134.5 1165.84,-164.5 1293.84,-164.5 1293.84,-134.5 1165.84,-134.5"/>
<text text-anchor="start" x="1173.84" y="-152.5" font-family="Helvetica,sans-Serif" font-size="10.00">src/Scripts/Heroes</text>
<text text-anchor="middle" x="1229.84" y="-141.5" font-family="Helvetica,sans-Serif" font-size="10.00">/HealAbilityBehaviour.hpp</text>
</a>
</g>
</g>
<!-- Node9&#45;&gt;Node22 -->
<g id="edge27" class="edge">
<title>Node9&#45;&gt;Node22</title>
<path fill="none" stroke="midnightblue" d="M1120.15,-197.41C1144.42,-187.03 1174.43,-174.2 1196.92,-164.58"/>
<polygon fill="midnightblue" stroke="midnightblue" points="1118.64,-194.25 1110.82,-201.4 1121.39,-200.68 1118.64,-194.25"/>
</g>
<!-- Node24 -->
<g id="node24" class="node">
<title>Node24</title>
<g id="a_node24"><a xlink:href="UserAttackBehaviour_8hpp.html" target="_top" xlink:title=" ">
<polygon fill="none" stroke="black" points="1312.34,-134.5 1312.34,-164.5 1443.34,-164.5 1443.34,-134.5 1312.34,-134.5"/>
<text text-anchor="start" x="1320.34" y="-152.5" font-family="Helvetica,sans-Serif" font-size="10.00">src/Scripts/Heroes</text>
<text text-anchor="middle" x="1377.84" y="-141.5" font-family="Helvetica,sans-Serif" font-size="10.00">/UserAttackBehaviour.hpp</text>
</a>
</g>
</g>
<!-- Node9&#45;&gt;Node24 -->
<g id="edge30" class="edge">
<title>Node9&#45;&gt;Node24</title>
<path fill="none" stroke="midnightblue" d="M1142.67,-201.45C1193.05,-190.54 1262.6,-175.47 1312.99,-164.55"/>
<polygon fill="midnightblue" stroke="midnightblue" points="1141.9,-198.04 1132.86,-203.58 1143.38,-204.88 1141.9,-198.04"/>
</g>
<!-- Node9&#45;&gt;Node25 -->
<g id="edge34" class="edge">
<title>Node9&#45;&gt;Node25</title>
<path fill="none" stroke="midnightblue" d="M1143.26,-207.41C1218,-197.99 1343.91,-181.6 1451.84,-165 1455.06,-164.51 1458.34,-163.99 1461.66,-163.46"/>
<polygon fill="midnightblue" stroke="midnightblue" points="1142.55,-203.97 1133.06,-208.69 1143.42,-210.91 1142.55,-203.97"/>
</g>
<!-- Node27 -->
<g id="node27" class="node">
<title>Node27</title>
<g id="a_node27"><a xlink:href="LevelData_8hpp.html" target="_top" xlink:title=" ">
<polygon fill="none" stroke="black" points="859.84,-140 859.84,-159 989.84,-159 989.84,-140 859.84,-140"/>
<text text-anchor="middle" x="924.84" y="-147" font-family="Helvetica,sans-Serif" font-size="10.00">src/Structs/LevelData.hpp</text>
</a>
</g>
</g>
<!-- Node9&#45;&gt;Node27 -->
<g id="edge38" class="edge">
<title>Node9&#45;&gt;Node27</title>
<path fill="none" stroke="midnightblue" d="M1035.37,-197.46C1005.81,-184.9 967.74,-168.72 944.86,-159.01"/>
<polygon fill="midnightblue" stroke="midnightblue" points="1034.07,-200.71 1044.64,-201.4 1036.8,-194.26 1034.07,-200.71"/>
</g>
<!-- Node35 -->
<g id="node35" class="node">
<title>Node35</title>
<g id="a_node35"><a xlink:href="WaveData_8cpp.html" target="_top" xlink:title=" ">
<polygon fill="none" stroke="black" points="710.34,-140 710.34,-159 841.34,-159 841.34,-140 710.34,-140"/>
<text text-anchor="middle" x="775.84" y="-147" font-family="Helvetica,sans-Serif" font-size="10.00">src/Structs/WaveData.cpp</text>
</a>
</g>
</g>
<!-- Node9&#45;&gt;Node35 -->
<g id="edge53" class="edge">
<title>Node9&#45;&gt;Node35</title>
<path fill="none" stroke="midnightblue" d="M1012.68,-201.48C952.72,-188.57 865.74,-169.85 815.57,-159.05"/>
<polygon fill="midnightblue" stroke="midnightblue" points="1012.29,-204.97 1022.8,-203.65 1013.76,-198.13 1012.29,-204.97"/>
</g>
<!-- Node11 -->
<g id="node11" class="node">
<title>Node11</title>
<g id="a_node11"><a xlink:href="LevelScene_8cpp.html" target="_top" xlink:title=" ">
<polygon fill="none" stroke="black" points="365.34,-6 365.34,-25 504.34,-25 504.34,-6 365.34,-6"/>
<text text-anchor="middle" x="434.84" y="-13" font-family="Helvetica,sans-Serif" font-size="10.00">src/Scenes/LevelScene.cpp</text>
</a>
</g>
</g>
<!-- Node10&#45;&gt;Node11 -->
<g id="edge13" class="edge">
<title>Node10&#45;&gt;Node11</title>
<path fill="none" stroke="midnightblue" d="M1024.86,-138.14C1016.18,-136.63 1007.28,-135.18 998.84,-134 835.22,-111.07 781.61,-160.91 628.84,-98 608.69,-89.7 609.98,-77.42 590.84,-67 553.71,-46.78 507.17,-33.03 474.62,-25.04"/>
<polygon fill="midnightblue" stroke="midnightblue" points="1024.43,-141.62 1034.9,-139.94 1025.67,-134.73 1024.43,-141.62"/>
</g>
<!-- Node12 -->
<g id="node12" class="node">
<title>Node12</title>
<g id="a_node12"><a xlink:href="MainScene_8cpp.html" target="_top" xlink:title=" ">
<polygon fill="none" stroke="black" points="1299.84,-73 1299.84,-92 1435.84,-92 1435.84,-73 1299.84,-73"/>
<text text-anchor="middle" x="1367.84" y="-80" font-family="Helvetica,sans-Serif" font-size="10.00">src/Scenes/MainScene.cpp</text>
</a>
</g>
</g>
<!-- Node10&#45;&gt;Node12 -->
<g id="edge14" class="edge">
<title>Node10&#45;&gt;Node12</title>
<path fill="none" stroke="midnightblue" d="M1125.92,-137.72C1183.02,-124.92 1277.12,-103.83 1329.54,-92.08"/>
<polygon fill="midnightblue" stroke="midnightblue" points="1125.04,-134.33 1116.05,-139.94 1126.57,-141.16 1125.04,-134.33"/>
</g>
<!-- Node14&#45;&gt;Node13 -->
<g id="edge22" class="edge">
<title>Node14&#45;&gt;Node13</title>
<path fill="none" stroke="midnightblue" d="M1822.84,-124.11C1822.84,-115.15 1822.84,-105.32 1822.84,-97.58"/>
<polygon fill="midnightblue" stroke="midnightblue" points="1819.34,-124.4 1822.84,-134.4 1826.34,-124.4 1819.34,-124.4"/>
</g>
<!-- Node15 -->
<g id="node15" class="node">
<title>Node15</title>
<g id="a_node15"><a xlink:href="BulletBehaviour_8hpp.html" target="_top" xlink:title=" ">
<polygon fill="none" stroke="black" points="1937.84,-67.5 1937.84,-97.5 2043.84,-97.5 2043.84,-67.5 1937.84,-67.5"/>
<text text-anchor="start" x="1945.84" y="-85.5" font-family="Helvetica,sans-Serif" font-size="10.00">src/Scripts/Common</text>
<text text-anchor="middle" x="1990.84" y="-74.5" font-family="Helvetica,sans-Serif" font-size="10.00">/BulletBehaviour.hpp</text>
</a>
</g>
</g>
<!-- Node14&#45;&gt;Node15 -->
<g id="edge18" class="edge">
<title>Node14&#45;&gt;Node15</title>
<path fill="none" stroke="midnightblue" d="M1868.89,-130.68C1895.84,-120.26 1929.38,-107.28 1954.46,-97.58"/>
<polygon fill="midnightblue" stroke="midnightblue" points="1867.36,-127.52 1859.29,-134.4 1869.88,-134.05 1867.36,-127.52"/>
</g>
<!-- Node16 -->
<g id="node16" class="node">
<title>Node16</title>
<g id="a_node16"><a xlink:href="BulletFactory_8cpp.html" target="_top" xlink:title=" ">
<polygon fill="none" stroke="black" points="1987.84,-6 1987.84,-25 2139.84,-25 2139.84,-6 1987.84,-6"/>
<text text-anchor="middle" x="2063.84" y="-13" font-family="Helvetica,sans-Serif" font-size="10.00">src/Factories/BulletFactory.cpp</text>
</a>
</g>
</g>
<!-- Node15&#45;&gt;Node16 -->
<g id="edge19" class="edge">
<title>Node15&#45;&gt;Node16</title>
<path fill="none" stroke="midnightblue" d="M2014.23,-60.67C2027.71,-48.67 2043.94,-34.22 2054.07,-25.19"/>
<polygon fill="midnightblue" stroke="midnightblue" points="2011.82,-58.13 2006.68,-67.4 2016.47,-63.36 2011.82,-58.13"/>
</g>
<!-- Node17 -->
<g id="node17" class="node">
<title>Node17</title>
<g id="a_node17"><a xlink:href="BulletBehaviour_8cpp.html" target="_top" xlink:title=" ">
<polygon fill="none" stroke="black" points="1863.84,-0.5 1863.84,-30.5 1969.84,-30.5 1969.84,-0.5 1863.84,-0.5"/>
<text text-anchor="start" x="1871.84" y="-18.5" font-family="Helvetica,sans-Serif" font-size="10.00">src/Scripts/Common</text>
<text text-anchor="middle" x="1916.84" y="-7.5" font-family="Helvetica,sans-Serif" font-size="10.00">/BulletBehaviour.cpp</text>
</a>
</g>
</g>
<!-- Node15&#45;&gt;Node17 -->
<g id="edge20" class="edge">
<title>Node15&#45;&gt;Node17</title>
<path fill="none" stroke="midnightblue" d="M1967.04,-60.6C1955.87,-50.78 1942.85,-39.34 1932.86,-30.58"/>
<polygon fill="midnightblue" stroke="midnightblue" points="1964.96,-63.43 1974.78,-67.4 1969.58,-58.17 1964.96,-63.43"/>
</g>
<!-- Node18 -->
<g id="node18" class="node">
<title>Node18</title>
<g id="a_node18"><a xlink:href="UserAttackBehaviour_8cpp.html" target="_top" xlink:title=" ">
<polygon fill="none" stroke="black" points="1460.34,-0.5 1460.34,-30.5 1591.34,-30.5 1591.34,-0.5 1460.34,-0.5"/>
<text text-anchor="start" x="1468.34" y="-18.5" font-family="Helvetica,sans-Serif" font-size="10.00">src/Scripts/Heroes</text>
<text text-anchor="middle" x="1525.84" y="-7.5" font-family="Helvetica,sans-Serif" font-size="10.00">/UserAttackBehaviour.cpp</text>
</a>
</g>
</g>
<!-- Node15&#45;&gt;Node18 -->
<g id="edge21" class="edge">
<title>Node15&#45;&gt;Node18</title>
<path fill="none" stroke="midnightblue" d="M1927.63,-67.67C1926.36,-67.44 1925.09,-67.21 1923.84,-67 1807.48,-47.06 1670.72,-31.39 1591.6,-23.07"/>
<polygon fill="midnightblue" stroke="midnightblue" points="1927.05,-71.12 1937.53,-69.52 1928.35,-64.24 1927.05,-71.12"/>
</g>
<!-- Node20&#45;&gt;Node2 -->
<g id="edge25" class="edge">
<title>Node20&#45;&gt;Node2</title>
<path fill="none" stroke="midnightblue" d="M121.05,-128.17C134.36,-118.23 150.04,-106.51 162,-97.58"/>
<polygon fill="midnightblue" stroke="midnightblue" points="118.63,-125.61 112.72,-134.4 122.82,-131.21 118.63,-125.61"/>
</g>
<!-- Node21 -->
<g id="node21" class="node">
<title>Node21</title>
<g id="a_node21"><a xlink:href="EnemyMovementBehaviour_8cpp.html" target="_top" xlink:title=" ">
<polygon fill="none" stroke="black" points="103.84,-0.5 103.84,-30.5 259.84,-30.5 259.84,-0.5 103.84,-0.5"/>
<text text-anchor="start" x="111.84" y="-18.5" font-family="Helvetica,sans-Serif" font-size="10.00">src/Scripts/Enemies</text>
<text text-anchor="middle" x="181.84" y="-7.5" font-family="Helvetica,sans-Serif" font-size="10.00">/EnemyMovementBehaviour.cpp</text>
</a>
</g>
</g>
<!-- Node20&#45;&gt;Node21 -->
<g id="edge26" class="edge">
<title>Node20&#45;&gt;Node21</title>
<path fill="none" stroke="midnightblue" d="M92.01,-123.98C91.88,-106.79 94.16,-83.94 104.84,-67 114.98,-50.9 132.33,-38.86 148,-30.58"/>
<polygon fill="midnightblue" stroke="midnightblue" points="88.52,-124.47 92.37,-134.34 95.52,-124.23 88.52,-124.47"/>
</g>
<!-- Node22&#45;&gt;Node3 -->
<g id="edge28" class="edge">
<title>Node22&#45;&gt;Node3</title>
<path fill="none" stroke="midnightblue" d="M1301.58,-132.25C1348.62,-121.6 1409.52,-107.81 1454.53,-97.61"/>
<polygon fill="midnightblue" stroke="midnightblue" points="1300.74,-128.85 1291.76,-134.48 1302.29,-135.68 1300.74,-128.85"/>
</g>
<!-- Node23 -->
<g id="node23" class="node">
<title>Node23</title>
<g id="a_node23"><a xlink:href="HealAbilityBehaviour_8cpp.html" target="_top" xlink:title=" ">
<polygon fill="none" stroke="black" points="1115.84,-67.5 1115.84,-97.5 1243.84,-97.5 1243.84,-67.5 1115.84,-67.5"/>
<text text-anchor="start" x="1123.84" y="-85.5" font-family="Helvetica,sans-Serif" font-size="10.00">src/Scripts/Heroes</text>
<text text-anchor="middle" x="1179.84" y="-74.5" font-family="Helvetica,sans-Serif" font-size="10.00">/HealAbilityBehaviour.cpp</text>
</a>
</g>
</g>
<!-- Node22&#45;&gt;Node23 -->
<g id="edge29" class="edge">
<title>Node22&#45;&gt;Node23</title>
<path fill="none" stroke="midnightblue" d="M1212.88,-126.45C1205.53,-116.9 1197.15,-106 1190.67,-97.58"/>
<polygon fill="midnightblue" stroke="midnightblue" points="1210.12,-128.6 1218.99,-134.4 1215.67,-124.34 1210.12,-128.6"/>
</g>
<!-- Node24&#45;&gt;Node3 -->
<g id="edge31" class="edge">
<title>Node24&#45;&gt;Node3</title>
<path fill="none" stroke="midnightblue" d="M1417.12,-130.13C1439.21,-119.8 1466.35,-107.11 1486.74,-97.58"/>
<polygon fill="midnightblue" stroke="midnightblue" points="1415.58,-126.99 1408,-134.4 1418.54,-133.33 1415.58,-126.99"/>
</g>
<!-- Node24&#45;&gt;Node12 -->
<g id="edge32" class="edge">
<title>Node24&#45;&gt;Node12</title>
<path fill="none" stroke="midnightblue" d="M1374.11,-124.25C1372.38,-113.02 1370.44,-100.38 1369.18,-92.19"/>
<polygon fill="midnightblue" stroke="midnightblue" points="1370.69,-125.04 1375.67,-134.4 1377.61,-123.98 1370.69,-125.04"/>
</g>
<!-- Node24&#45;&gt;Node18 -->
<g id="edge33" class="edge">
<title>Node24&#45;&gt;Node18</title>
<path fill="none" stroke="midnightblue" d="M1325.91,-129.78C1312.07,-122.15 1298.77,-111.78 1290.84,-98 1283.96,-86.06 1282.18,-77.72 1290.84,-67 1311.82,-41.03 1398.37,-27.8 1460.33,-21.52"/>
<polygon fill="midnightblue" stroke="midnightblue" points="1324.53,-133.01 1335.03,-134.42 1327.7,-126.77 1324.53,-133.01"/>
</g>
<!-- Node25&#45;&gt;Node3 -->
<g id="edge35" class="edge">
<title>Node25&#45;&gt;Node3</title>
<path fill="none" stroke="midnightblue" d="M1528.88,-124.7C1526.22,-115.59 1523.27,-105.49 1520.95,-97.58"/>
<polygon fill="midnightblue" stroke="midnightblue" points="1525.55,-125.78 1531.72,-134.4 1532.27,-123.82 1525.55,-125.78"/>
</g>
<!-- Node25&#45;&gt;Node12 -->
<g id="edge36" class="edge">
<title>Node25&#45;&gt;Node12</title>
<path fill="none" stroke="midnightblue" d="M1490.05,-130.78C1457.48,-118.18 1415.16,-101.81 1389.83,-92.01"/>
<polygon fill="midnightblue" stroke="midnightblue" points="1488.8,-134.05 1499.39,-134.4 1491.32,-127.52 1488.8,-134.05"/>
</g>
<!-- Node26 -->
<g id="node26" class="node">
<title>Node26</title>
<g id="a_node26"><a xlink:href="UserMovementBehaviour_8cpp.html" target="_top" xlink:title=" ">
<polygon fill="none" stroke="black" points="1597.84,-67.5 1597.84,-97.5 1745.84,-97.5 1745.84,-67.5 1597.84,-67.5"/>
<text text-anchor="start" x="1605.84" y="-85.5" font-family="Helvetica,sans-Serif" font-size="10.00">src/Scripts/Heroes</text>
<text text-anchor="middle" x="1671.84" y="-74.5" font-family="Helvetica,sans-Serif" font-size="10.00">/UserMovementBehaviour.cpp</text>
</a>
</g>
</g>
<!-- Node25&#45;&gt;Node26 -->
<g id="edge37" class="edge">
<title>Node25&#45;&gt;Node26</title>
<path fill="none" stroke="midnightblue" d="M1574.56,-129.99C1596.12,-119.69 1622.53,-107.07 1642.39,-97.58"/>
<polygon fill="midnightblue" stroke="midnightblue" points="1572.86,-126.93 1565.35,-134.4 1575.88,-133.24 1572.86,-126.93"/>
</g>
<!-- Node28 -->
<g id="node28" class="node">
<title>Node28</title>
<g id="a_node28"><a xlink:href="LevelController_8hpp.html" target="_top" xlink:title=" ">
<polygon fill="none" stroke="black" points="415.84,-73 415.84,-92 581.84,-92 581.84,-73 415.84,-73"/>
<text text-anchor="middle" x="498.84" y="-80" font-family="Helvetica,sans-Serif" font-size="10.00">src/Controllers/LevelController.hpp</text>
</a>
</g>
</g>
<!-- Node27&#45;&gt;Node28 -->
<g id="edge39" class="edge">
<title>Node27&#45;&gt;Node28</title>
<path fill="none" stroke="midnightblue" d="M872.86,-138.1C865.15,-136.66 857.3,-135.25 849.84,-134 737.39,-115.17 708.67,-114.43 595.84,-98 582.7,-96.09 568.56,-93.99 555.25,-92.01"/>
<polygon fill="midnightblue" stroke="midnightblue" points="872.38,-141.57 882.86,-140 873.69,-134.7 872.38,-141.57"/>
</g>
<!-- Node30 -->
<g id="node30" class="node">
<title>Node30</title>
<g id="a_node30"><a xlink:href="GameLostBehaviour_8hpp.html" target="_top" xlink:title=" ">
<polygon fill="none" stroke="black" points="822.34,-67.5 822.34,-97.5 949.34,-97.5 949.34,-67.5 822.34,-67.5"/>
<text text-anchor="start" x="830.34" y="-85.5" font-family="Helvetica,sans-Serif" font-size="10.00">src/Scripts/Common</text>
<text text-anchor="middle" x="885.84" y="-74.5" font-family="Helvetica,sans-Serif" font-size="10.00">/GameLostBehaviour.hpp</text>
</a>
</g>
</g>
<!-- Node27&#45;&gt;Node30 -->
<g id="edge44" class="edge">
<title>Node27&#45;&gt;Node30</title>
<path fill="none" stroke="midnightblue" d="M914.36,-131.03C908.07,-120.56 900.18,-107.4 894.29,-97.59"/>
<polygon fill="midnightblue" stroke="midnightblue" points="911.43,-132.96 919.58,-139.73 917.44,-129.36 911.43,-132.96"/>
</g>
<!-- Node32 -->
<g id="node32" class="node">
<title>Node32</title>
<g id="a_node32"><a xlink:href="GameWonBehaviour_8hpp.html" target="_top" xlink:title=" ">
<polygon fill="none" stroke="black" points="638.34,-67.5 638.34,-97.5 765.34,-97.5 765.34,-67.5 638.34,-67.5"/>
<text text-anchor="start" x="646.34" y="-85.5" font-family="Helvetica,sans-Serif" font-size="10.00">src/Scripts/Common</text>
<text text-anchor="middle" x="701.84" y="-74.5" font-family="Helvetica,sans-Serif" font-size="10.00">/GameWonBehaviour.hpp</text>
</a>
</g>
</g>
<!-- Node27&#45;&gt;Node32 -->
<g id="edge48" class="edge">
<title>Node27&#45;&gt;Node32</title>
<path fill="none" stroke="midnightblue" d="M885.58,-137.06C847.77,-126.04 790.5,-109.34 749.97,-97.53"/>
<polygon fill="midnightblue" stroke="midnightblue" points="884.65,-140.43 895.23,-139.87 886.61,-133.71 884.65,-140.43"/>
</g>
<!-- Node34 -->
<g id="node34" class="node">
<title>Node34</title>
<g id="a_node34"><a xlink:href="LevelData_8cpp.html" target="_top" xlink:title=" ">
<polygon fill="none" stroke="black" points="967.84,-73 967.84,-92 1097.84,-92 1097.84,-73 967.84,-73"/>
<text text-anchor="middle" x="1032.84" y="-80" font-family="Helvetica,sans-Serif" font-size="10.00">src/Structs/LevelData.cpp</text>
</a>
</g>
</g>
<!-- Node27&#45;&gt;Node34 -->
<g id="edge52" class="edge">
<title>Node27&#45;&gt;Node34</title>
<path fill="none" stroke="midnightblue" d="M948.2,-134.44C969.58,-121.57 1000.56,-102.93 1018.5,-92.13"/>
<polygon fill="midnightblue" stroke="midnightblue" points="946.17,-131.58 939.4,-139.73 949.78,-137.58 946.17,-131.58"/>
</g>
<!-- Node28&#45;&gt;Node7 -->
<g id="edge40" class="edge">
<title>Node28&#45;&gt;Node7</title>
<path fill="none" stroke="midnightblue" d="M558.61,-71.19C632.65,-58.43 757.42,-36.92 826.35,-25.03"/>
<polygon fill="midnightblue" stroke="midnightblue" points="557.77,-67.79 548.51,-72.94 558.96,-74.69 557.77,-67.79"/>
</g>
<!-- Node28&#45;&gt;Node11 -->
<g id="edge41" class="edge">
<title>Node28&#45;&gt;Node11</title>
<path fill="none" stroke="midnightblue" d="M483.08,-65.5C470.53,-52.75 453.44,-35.39 443.33,-25.13"/>
<polygon fill="midnightblue" stroke="midnightblue" points="480.7,-68.06 490.21,-72.73 485.69,-63.15 480.7,-68.06"/>
</g>
<!-- Node28&#45;&gt;Node21 -->
<g id="edge43" class="edge">
<title>Node28&#45;&gt;Node21</title>
<path fill="none" stroke="midnightblue" d="M447.1,-70.89C393.51,-59.9 309.5,-42.68 250.4,-30.56"/>
<polygon fill="midnightblue" stroke="midnightblue" points="446.57,-74.36 457.07,-72.94 447.98,-67.5 446.57,-74.36"/>
</g>
<!-- Node29 -->
<g id="node29" class="node">
<title>Node29</title>
<g id="a_node29"><a xlink:href="CheatManager_8cpp.html" target="_top" xlink:title=" ">
<polygon fill="none" stroke="black" points="522.84,-0.5 522.84,-30.5 628.84,-30.5 628.84,-0.5 522.84,-0.5"/>
<text text-anchor="start" x="530.84" y="-18.5" font-family="Helvetica,sans-Serif" font-size="10.00">src/Scripts/Common</text>
<text text-anchor="middle" x="575.84" y="-7.5" font-family="Helvetica,sans-Serif" font-size="10.00">/CheatManager.cpp</text>
</a>
</g>
</g>
<!-- Node28&#45;&gt;Node29 -->
<g id="edge42" class="edge">
<title>Node28&#45;&gt;Node29</title>
<path fill="none" stroke="midnightblue" d="M516.92,-66.24C529.7,-55.45 546.69,-41.1 559.15,-30.59"/>
<polygon fill="midnightblue" stroke="midnightblue" points="514.61,-63.61 509.22,-72.73 519.12,-68.96 514.61,-63.61"/>
</g>
<!-- Node30&#45;&gt;Node7 -->
<g id="edge45" class="edge">
<title>Node30&#45;&gt;Node7</title>
<path fill="none" stroke="midnightblue" d="M882.11,-57.25C880.38,-46.02 878.44,-33.38 877.18,-25.19"/>
<polygon fill="midnightblue" stroke="midnightblue" points="878.69,-58.04 883.67,-67.4 885.61,-56.98 878.69,-58.04"/>
</g>
<!-- Node30&#45;&gt;Node29 -->
<g id="edge46" class="edge">
<title>Node30&#45;&gt;Node29</title>
<path fill="none" stroke="midnightblue" d="M812.32,-67.11C762.91,-57.29 696.37,-43.8 637.84,-31 634.92,-30.36 631.93,-29.7 628.92,-29.02"/>
<polygon fill="midnightblue" stroke="midnightblue" points="811.79,-70.57 822.28,-69.08 813.15,-63.7 811.79,-70.57"/>
</g>
<!-- Node31 -->
<g id="node31" class="node">
<title>Node31</title>
<g id="a_node31"><a xlink:href="GameLostBehaviour_8cpp.html" target="_top" xlink:title=" ">
<polygon fill="none" stroke="black" points="977.34,-0.5 977.34,-30.5 1104.34,-30.5 1104.34,-0.5 977.34,-0.5"/>
<text text-anchor="start" x="985.34" y="-18.5" font-family="Helvetica,sans-Serif" font-size="10.00">src/Scripts/Common</text>
<text text-anchor="middle" x="1040.84" y="-7.5" font-family="Helvetica,sans-Serif" font-size="10.00">/GameLostBehaviour.cpp</text>
</a>
</g>
</g>
<!-- Node30&#45;&gt;Node31 -->
<g id="edge47" class="edge">
<title>Node30&#45;&gt;Node31</title>
<path fill="none" stroke="midnightblue" d="M928.98,-63.41C953.73,-53.03 984.33,-40.2 1007.27,-30.58"/>
<polygon fill="midnightblue" stroke="midnightblue" points="927.34,-60.3 919.47,-67.4 930.05,-66.76 927.34,-60.3"/>
</g>
<!-- Node32&#45;&gt;Node7 -->
<g id="edge49" class="edge">
<title>Node32&#45;&gt;Node7</title>
<path fill="none" stroke="midnightblue" d="M749.26,-63.78C783,-51.18 826.83,-34.81 853.07,-25.01"/>
<polygon fill="midnightblue" stroke="midnightblue" points="747.74,-60.62 739.59,-67.4 750.19,-67.18 747.74,-60.62"/>
</g>
<!-- Node32&#45;&gt;Node29 -->
<g id="edge50" class="edge">
<title>Node32&#45;&gt;Node29</title>
<path fill="none" stroke="midnightblue" d="M665.42,-62.71C645.55,-52.46 621.36,-39.98 603.13,-30.58"/>
<polygon fill="midnightblue" stroke="midnightblue" points="664.01,-65.92 674.5,-67.4 667.22,-59.7 664.01,-65.92"/>
</g>
<!-- Node33 -->
<g id="node33" class="node">
<title>Node33</title>
<g id="a_node33"><a xlink:href="GameWonBehaviour_8cpp.html" target="_top" xlink:title=" ">
<polygon fill="none" stroke="black" points="647.34,-0.5 647.34,-30.5 774.34,-30.5 774.34,-0.5 647.34,-0.5"/>
<text text-anchor="start" x="655.34" y="-18.5" font-family="Helvetica,sans-Serif" font-size="10.00">src/Scripts/Common</text>
<text text-anchor="middle" x="710.84" y="-7.5" font-family="Helvetica,sans-Serif" font-size="10.00">/GameWonBehaviour.cpp</text>
</a>
</g>
</g>
<!-- Node32&#45;&gt;Node33 -->
<g id="edge51" class="edge">
<title>Node32&#45;&gt;Node33</title>
<path fill="none" stroke="midnightblue" d="M705.18,-57.4C706.43,-48.37 707.81,-38.41 708.89,-30.58"/>
<polygon fill="midnightblue" stroke="midnightblue" points="701.7,-57.01 703.79,-67.4 708.63,-57.97 701.7,-57.01"/>
</g>
<!-- Node38&#45;&gt;Node7 -->
<g id="edge59" class="edge">
<title>Node38&#45;&gt;Node7</title>
<path fill="none" stroke="midnightblue" d="M1826.32,-198.27C1854.14,-188.9 1882.89,-176.82 1890.84,-165 1915.14,-128.86 1921.03,-98.39 1890.84,-67 1855.27,-30.01 1018.91,-36 967.84,-31 953.19,-29.57 937.34,-27.32 922.98,-25.02"/>
<polygon fill="midnightblue" stroke="midnightblue" points="1824.96,-195.03 1816.55,-201.47 1827.14,-201.69 1824.96,-195.03"/>
</g>
<!-- Node39 -->
<g id="node39" class="node">
<title>Node39</title>
<g id="a_node39"><a xlink:href="main_8cpp.html" target="_top" xlink:title=" ">
<polygon fill="none" stroke="black" points="1937.84,-140 1937.84,-159 2009.84,-159 2009.84,-140 1937.84,-140"/>
<text text-anchor="middle" x="1973.84" y="-147" font-family="Helvetica,sans-Serif" font-size="10.00">src/main.cpp</text>
</a>
</g>
</g>
<!-- Node38&#45;&gt;Node39 -->
<g id="edge60" class="edge">
<title>Node38&#45;&gt;Node39</title>
<path fill="none" stroke="midnightblue" d="M1821.2,-198.43C1861.57,-185.75 1914.92,-169 1946.68,-159.03"/>
<polygon fill="midnightblue" stroke="midnightblue" points="1819.99,-195.14 1811.5,-201.48 1822.09,-201.82 1819.99,-195.14"/>
</g>
</g>
</svg>
        <g id="navigator" transform="translate(0 0)" fill="#404254">
                <rect fill="#f2f5e9" fill-opacity="0.5" stroke="#606060" stroke-width=".5" x="0" y="0" width="60" height="60"/>
                <use id="zoomplus" xlink:href="#zoomPlus" x="17" y="9" onmousedown="handleZoom(evt,'in')"/>
                <use id="zoomminus" xlink:href="#zoomMin" x="42" y="9" onmousedown="handleZoom(evt,'out')"/>
                <use id="reset" xlink:href="#resetDef" x="30" y="36" onmousedown="handleReset()"/>
                <g id="arrowUp" xlink:href="#dirArrow" transform="translate(30 24)" onmousedown="handlePan(0,-1)">
                  <use xlink:href="#rim" fill="#404040">
                        <set attributeName="fill" to="#808080" begin="arrowUp.mouseover" end="arrowUp.mouseout"/>
                  </use>
                  <path fill="none" stroke="white" stroke-width="1.5" d="M0,-3.0v7 M-2.5,-0.5L0,-3.0L2.5,-0.5"/>
                </g>
                <g id="arrowRight" xlink:href="#dirArrow" transform="rotate(90) translate(36 -43)" onmousedown="handlePan(1,0)">
                  <use xlink:href="#rim" fill="#404040">
                        <set attributeName="fill" to="#808080" begin="arrowRight.mouseover" end="arrowRight.mouseout"/>
                  </use>
                  <path fill="none" stroke="white" stroke-width="1.5" d="M0,-3.0v7 M-2.5,-0.5L0,-3.0L2.5,-0.5"/>
                </g>
                <g id="arrowDown" xlink:href="#dirArrow" transform="rotate(180) translate(-30 -48)" onmousedown="handlePan(0,1)">
                  <use xlink:href="#rim" fill="#404040">
                        <set attributeName="fill" to="#808080" begin="arrowDown.mouseover" end="arrowDown.mouseout"/>
                  </use>
                  <path fill="none" stroke="white" stroke-width="1.5" d="M0,-3.0v7 M-2.5,-0.5L0,-3.0L2.5,-0.5"/>
                </g>
                <g id="arrowLeft" xlink:href="#dirArrow" transform="rotate(270) translate(-36 17)" onmousedown="handlePan(-1,0)">
                  <use xlink:href="#rim" fill="#404040">
                        <set attributeName="fill" to="#808080" begin="arrowLeft.mouseover" end="arrowLeft.mouseout"/>
                  </use>
                  <path fill="none" stroke="white" stroke-width="1.5" d="M0,-3.0v7 M-2.5,-0.5L0,-3.0L2.5,-0.5"/>
                </g>
        </g>
        <svg viewBox="0 0 15 15" width="100%" height="30px" preserveAspectRatio="xMaxYMin meet">
         <g id="arrow_out" transform="scale(0.3 0.3)">
          <a xlink:href="Animator_8hpp__dep__incl_org.svg" target="_base">
           <rect id="button" ry="5" rx="5" y="6" x="6" height="38" width="38"
                fill="#f2f5e9" fill-opacity="0.5" stroke="#606060" stroke-width="1.0"/>
           <path id="arrow"
             d="M 11.500037,31.436501 C 11.940474,20.09759 22.043105,11.32322 32.158766,21.979434 L 37.068811,17.246167 C 37.068811,17.246167 37.088388,32 37.088388,32 L 22.160133,31.978069 C 22.160133,31.978069 26.997745,27.140456 26.997745,27.140456 C 18.528582,18.264221 13.291696,25.230495 11.500037,31.436501 z"
             style="fill:#404040;"/>
          </a>
         </g>
        </svg>
</svg>
