<?xml version="1.0" encoding="UTF-8" standalone="no"?>
<!DOCTYPE svg PUBLIC "-//W3C//DTD SVG 1.1//EN"
 "http://www.w3.org/Graphics/SVG/1.1/DTD/svg11.dtd">
<!-- Generated by graphviz version 2.44.0 ()
 -->
<!-- Title: libs/spic&#45;engine/src/Subsystems/AnimatorSubsystem.cpp Pages: 1 -->
<svg width="566pt" height="263pt"
 viewBox="0.00 0.00 566.00 263.00" xmlns="http://www.w3.org/2000/svg" xmlns:xlink="http://www.w3.org/1999/xlink">
<g id="graph0" class="graph" transform="scale(1 1) rotate(0) translate(4 259)">
<title>libs/spic&#45;engine/src/Subsystems/AnimatorSubsystem.cpp</title>
<!-- Node1 -->
<g id="node1" class="node">
<title>Node1</title>
<g id="a_node1"><a xlink:title=" ">
<polygon fill="#bfbfbf" stroke="black" points="158,-224.5 158,-254.5 340,-254.5 340,-224.5 158,-224.5"/>
<text text-anchor="start" x="166" y="-242.5" font-family="Helvetica,sans-Serif" font-size="10.00">libs/spic&#45;engine/src</text>
<text text-anchor="middle" x="249" y="-231.5" font-family="Helvetica,sans-Serif" font-size="10.00">/Subsystems/AnimatorSubsystem.cpp</text>
</a>
</g>
</g>
<!-- Node2 -->
<g id="node2" class="node">
<title>Node2</title>
<g id="a_node2"><a xlink:href="AnimatorSubsystem_8hpp.html" target="_top" xlink:title=" ">
<polygon fill="none" stroke="black" points="28,-168.5 28,-187.5 150,-187.5 150,-168.5 28,-168.5"/>
<text text-anchor="middle" x="89" y="-175.5" font-family="Helvetica,sans-Serif" font-size="10.00">AnimatorSubsystem.hpp</text>
</a>
</g>
</g>
<!-- Node1&#45;&gt;Node2 -->
<g id="edge1" class="edge">
<title>Node1&#45;&gt;Node2</title>
<path fill="none" stroke="midnightblue" d="M211.08,-224.4C183.88,-214.28 147.6,-200.79 121.67,-191.15"/>
<polygon fill="midnightblue" stroke="midnightblue" points="122.87,-187.86 112.28,-187.66 120.43,-194.42 122.87,-187.86"/>
</g>
<!-- Node4 -->
<g id="node4" class="node">
<title>Node4</title>
<g id="a_node4"><a xlink:href="Animator_8hpp.html" target="_top" xlink:title=" ">
<polygon fill="none" stroke="black" points="180,-168.5 180,-187.5 254,-187.5 254,-168.5 180,-168.5"/>
<text text-anchor="middle" x="217" y="-175.5" font-family="Helvetica,sans-Serif" font-size="10.00">Animator.hpp</text>
</a>
</g>
</g>
<!-- Node1&#45;&gt;Node4 -->
<g id="edge3" class="edge">
<title>Node1&#45;&gt;Node4</title>
<path fill="none" stroke="midnightblue" d="M241.42,-224.4C236.96,-216.11 231.28,-205.55 226.52,-196.71"/>
<polygon fill="midnightblue" stroke="midnightblue" points="229.48,-194.81 221.66,-187.66 223.31,-198.12 229.48,-194.81"/>
</g>
<!-- Node11 -->
<g id="node11" class="node">
<title>Node11</title>
<g id="a_node11"><a xlink:href="GameObject_8hpp.html" target="_top" xlink:title=" ">
<polygon fill="none" stroke="black" points="309.5,-112.5 309.5,-131.5 398.5,-131.5 398.5,-112.5 309.5,-112.5"/>
<text text-anchor="middle" x="354" y="-119.5" font-family="Helvetica,sans-Serif" font-size="10.00">GameObject.hpp</text>
</a>
</g>
</g>
<!-- Node1&#45;&gt;Node11 -->
<g id="edge12" class="edge">
<title>Node1&#45;&gt;Node11</title>
<path fill="none" stroke="midnightblue" d="M258.08,-224.25C267.83,-209.46 284.18,-186.01 301,-168 311.17,-157.11 323.85,-146.26 334.26,-137.94"/>
<polygon fill="midnightblue" stroke="midnightblue" points="336.65,-140.52 342.37,-131.61 332.33,-135.01 336.65,-140.52"/>
</g>
<!-- Node14 -->
<g id="node14" class="node">
<title>Node14</title>
<g id="a_node14"><a xlink:href="Time_8hpp.html" target="_top" xlink:title=" ">
<polygon fill="none" stroke="black" points="310,-168.5 310,-187.5 366,-187.5 366,-168.5 310,-168.5"/>
<text text-anchor="middle" x="338" y="-175.5" font-family="Helvetica,sans-Serif" font-size="10.00">Time.hpp</text>
</a>
</g>
</g>
<!-- Node1&#45;&gt;Node14 -->
<g id="edge19" class="edge">
<title>Node1&#45;&gt;Node14</title>
<path fill="none" stroke="midnightblue" d="M270.09,-224.4C284.09,-215.04 302.41,-202.79 316.49,-193.38"/>
<polygon fill="midnightblue" stroke="midnightblue" points="318.68,-196.13 325.05,-187.66 314.79,-190.31 318.68,-196.13"/>
</g>
<!-- Node3 -->
<g id="node3" class="node">
<title>Node3</title>
<g id="a_node3"><a xlink:href="ISubsystem_8hpp.html" target="_top" xlink:title=" ">
<polygon fill="none" stroke="black" points="0,-112.5 0,-131.5 86,-131.5 86,-112.5 0,-112.5"/>
<text text-anchor="middle" x="43" y="-119.5" font-family="Helvetica,sans-Serif" font-size="10.00">ISubsystem.hpp</text>
</a>
</g>
</g>
<!-- Node2&#45;&gt;Node3 -->
<g id="edge2" class="edge">
<title>Node2&#45;&gt;Node3</title>
<path fill="none" stroke="midnightblue" d="M81.4,-168.08C74.77,-160.3 64.98,-148.8 56.94,-139.37"/>
<polygon fill="midnightblue" stroke="midnightblue" points="59.6,-137.09 50.45,-131.75 54.27,-141.63 59.6,-137.09"/>
</g>
<!-- Node5 -->
<g id="node5" class="node">
<title>Node5</title>
<g id="a_node5"><a xlink:href="Component_8hpp.html" target="_top" xlink:title=" ">
<polygon fill="none" stroke="black" points="142,-56.5 142,-75.5 226,-75.5 226,-56.5 142,-56.5"/>
<text text-anchor="middle" x="184" y="-63.5" font-family="Helvetica,sans-Serif" font-size="10.00">Component.hpp</text>
</a>
</g>
</g>
<!-- Node4&#45;&gt;Node5 -->
<g id="edge4" class="edge">
<title>Node4&#45;&gt;Node5</title>
<path fill="none" stroke="midnightblue" d="M214.41,-168.37C209.06,-150.54 196.69,-109.3 189.48,-85.27"/>
<polygon fill="midnightblue" stroke="midnightblue" points="192.8,-84.16 186.58,-75.59 186.1,-86.18 192.8,-84.16"/>
</g>
<!-- Node6 -->
<g id="node6" class="node">
<title>Node6</title>
<g id="a_node6"><a xlink:title=" ">
<polygon fill="none" stroke="#bfbfbf" points="158.5,-0.5 158.5,-19.5 209.5,-19.5 209.5,-0.5 158.5,-0.5"/>
<text text-anchor="middle" x="184" y="-7.5" font-family="Helvetica,sans-Serif" font-size="10.00">memory</text>
</a>
</g>
</g>
<!-- Node4&#45;&gt;Node6 -->
<g id="edge11" class="edge">
<title>Node4&#45;&gt;Node6</title>
<path fill="none" stroke="midnightblue" d="M206.07,-168.45C186.87,-152.65 147.73,-116.75 133,-76 129.98,-67.64 129.34,-64.1 133,-56 138.62,-43.56 149.56,-33.17 159.88,-25.53"/>
<polygon fill="midnightblue" stroke="midnightblue" points="162.01,-28.31 168.27,-19.76 158.04,-22.54 162.01,-28.31"/>
</g>
<!-- Node7 -->
<g id="node7" class="node">
<title>Node7</title>
<g id="a_node7"><a xlink:href="Sprite_8hpp.html" target="_top" xlink:title=" ">
<polygon fill="none" stroke="black" points="229,-112.5 229,-131.5 289,-131.5 289,-112.5 229,-112.5"/>
<text text-anchor="middle" x="259" y="-119.5" font-family="Helvetica,sans-Serif" font-size="10.00">Sprite.hpp</text>
</a>
</g>
</g>
<!-- Node4&#45;&gt;Node7 -->
<g id="edge6" class="edge">
<title>Node4&#45;&gt;Node7</title>
<path fill="none" stroke="midnightblue" d="M223.94,-168.08C229.93,-160.38 238.75,-149.03 246.05,-139.65"/>
<polygon fill="midnightblue" stroke="midnightblue" points="248.82,-141.79 252.19,-131.75 243.29,-137.5 248.82,-141.79"/>
</g>
<!-- Node10 -->
<g id="node10" class="node">
<title>Node10</title>
<g id="a_node10"><a xlink:title=" ">
<polygon fill="none" stroke="#bfbfbf" points="514,-56.5 514,-75.5 558,-75.5 558,-56.5 514,-56.5"/>
<text text-anchor="middle" x="536" y="-63.5" font-family="Helvetica,sans-Serif" font-size="10.00">vector</text>
</a>
</g>
</g>
<!-- Node4&#45;&gt;Node10 -->
<g id="edge10" class="edge">
<title>Node4&#45;&gt;Node10</title>
<path fill="none" stroke="midnightblue" d="M254.02,-170.99C293.06,-164.02 356.01,-151.02 408,-132 446.4,-117.96 488.14,-95.22 513.18,-80.7"/>
<polygon fill="midnightblue" stroke="midnightblue" points="515.06,-83.65 521.92,-75.57 511.52,-77.62 515.06,-83.65"/>
</g>
<!-- Node5&#45;&gt;Node6 -->
<g id="edge5" class="edge">
<title>Node5&#45;&gt;Node6</title>
<path fill="none" stroke="midnightblue" d="M184,-56.08C184,-49.01 184,-38.86 184,-29.99"/>
<polygon fill="midnightblue" stroke="midnightblue" points="187.5,-29.75 184,-19.75 180.5,-29.75 187.5,-29.75"/>
</g>
<!-- Node7&#45;&gt;Node5 -->
<g id="edge7" class="edge">
<title>Node7&#45;&gt;Node5</title>
<path fill="none" stroke="midnightblue" d="M246.95,-112.32C235.54,-104.11 218.17,-91.6 204.57,-81.81"/>
<polygon fill="midnightblue" stroke="midnightblue" points="206.43,-78.84 196.27,-75.83 202.34,-84.52 206.43,-78.84"/>
</g>
<!-- Node8 -->
<g id="node8" class="node">
<title>Node8</title>
<g id="a_node8"><a xlink:href="Color_8hpp.html" target="_top" xlink:title=" ">
<polygon fill="none" stroke="black" points="244.5,-56.5 244.5,-75.5 301.5,-75.5 301.5,-56.5 244.5,-56.5"/>
<text text-anchor="middle" x="273" y="-63.5" font-family="Helvetica,sans-Serif" font-size="10.00">Color.hpp</text>
</a>
</g>
</g>
<!-- Node7&#45;&gt;Node8 -->
<g id="edge8" class="edge">
<title>Node7&#45;&gt;Node8</title>
<path fill="none" stroke="midnightblue" d="M261.31,-112.08C263.17,-104.93 265.84,-94.64 268.15,-85.69"/>
<polygon fill="midnightblue" stroke="midnightblue" points="271.61,-86.31 270.73,-75.75 264.83,-84.55 271.61,-86.31"/>
</g>
<!-- Node9 -->
<g id="node9" class="node">
<title>Node9</title>
<g id="a_node9"><a xlink:title=" ">
<polygon fill="none" stroke="#bfbfbf" points="319.5,-56.5 319.5,-75.5 360.5,-75.5 360.5,-56.5 319.5,-56.5"/>
<text text-anchor="middle" x="340" y="-63.5" font-family="Helvetica,sans-Serif" font-size="10.00">string</text>
</a>
</g>
</g>
<!-- Node7&#45;&gt;Node9 -->
<g id="edge9" class="edge">
<title>Node7&#45;&gt;Node9</title>
<path fill="none" stroke="midnightblue" d="M272.01,-112.32C284.53,-103.98 303.68,-91.21 318.47,-81.35"/>
<polygon fill="midnightblue" stroke="midnightblue" points="320.64,-84.11 327.02,-75.65 316.76,-78.29 320.64,-84.11"/>
</g>
<!-- Node11&#45;&gt;Node5 -->
<g id="edge13" class="edge">
<title>Node11&#45;&gt;Node5</title>
<path fill="none" stroke="midnightblue" d="M327.06,-112.44C298.34,-103.32 252.67,-88.81 220.68,-78.65"/>
<polygon fill="midnightblue" stroke="midnightblue" points="221.4,-75.21 210.81,-75.52 219.28,-81.88 221.4,-75.21"/>
</g>
<!-- Node11&#45;&gt;Node6 -->
<g id="edge18" class="edge">
<title>Node11&#45;&gt;Node6</title>
<path fill="none" stroke="midnightblue" d="M360.22,-112.46C369.17,-99.03 383.22,-72.8 370,-56 351.67,-32.71 268.55,-20.03 219.85,-14.48"/>
<polygon fill="midnightblue" stroke="midnightblue" points="220.05,-10.98 209.73,-13.37 219.29,-17.94 220.05,-10.98"/>
</g>
<!-- Node11&#45;&gt;Node9 -->
<g id="edge16" class="edge">
<title>Node11&#45;&gt;Node9</title>
<path fill="none" stroke="midnightblue" d="M351.69,-112.08C349.83,-104.93 347.16,-94.64 344.85,-85.69"/>
<polygon fill="midnightblue" stroke="midnightblue" points="348.17,-84.55 342.27,-75.75 341.39,-86.31 348.17,-84.55"/>
</g>
<!-- Node11&#45;&gt;Node10 -->
<g id="edge17" class="edge">
<title>Node11&#45;&gt;Node10</title>
<path fill="none" stroke="midnightblue" d="M382.87,-112.49C411.48,-104.04 456.81,-90.64 503.96,-76.6"/>
<polygon fill="midnightblue" stroke="midnightblue" points="505.14,-79.9 513.72,-73.69 503.14,-73.19 505.14,-79.9"/>
</g>
<!-- Node12 -->
<g id="node12" class="node">
<title>Node12</title>
<g id="a_node12"><a xlink:href="Transform_8hpp.html" target="_top" xlink:title=" ">
<polygon fill="none" stroke="black" points="417.5,-56.5 417.5,-75.5 496.5,-75.5 496.5,-56.5 417.5,-56.5"/>
<text text-anchor="middle" x="457" y="-63.5" font-family="Helvetica,sans-Serif" font-size="10.00">Transform.hpp</text>
</a>
</g>
</g>
<!-- Node11&#45;&gt;Node12 -->
<g id="edge14" class="edge">
<title>Node11&#45;&gt;Node12</title>
<path fill="none" stroke="midnightblue" d="M370.55,-112.32C386.99,-103.7 412.43,-90.36 431.47,-80.39"/>
<polygon fill="midnightblue" stroke="midnightblue" points="433.26,-83.4 440.49,-75.65 430.01,-77.2 433.26,-83.4"/>
</g>
<!-- Node13 -->
<g id="node13" class="node">
<title>Node13</title>
<g id="a_node13"><a xlink:href="Point_8hpp.html" target="_top" xlink:title=" ">
<polygon fill="none" stroke="black" points="428.5,-0.5 428.5,-19.5 485.5,-19.5 485.5,-0.5 428.5,-0.5"/>
<text text-anchor="middle" x="457" y="-7.5" font-family="Helvetica,sans-Serif" font-size="10.00">Point.hpp</text>
</a>
</g>
</g>
<!-- Node12&#45;&gt;Node13 -->
<g id="edge15" class="edge">
<title>Node12&#45;&gt;Node13</title>
<path fill="none" stroke="midnightblue" d="M457,-56.08C457,-49.01 457,-38.86 457,-29.99"/>
<polygon fill="midnightblue" stroke="midnightblue" points="460.5,-29.75 457,-19.75 453.5,-29.75 460.5,-29.75"/>
</g>
</g>
</svg>
