<?xml version="1.0" encoding="UTF-8" standalone="no"?>
<!DOCTYPE svg PUBLIC "-//W3C//DTD SVG 1.1//EN"
 "http://www.w3.org/Graphics/SVG/1.1/DTD/svg11.dtd">
<!-- Generated by graphviz version 2.44.0 ()
 -->
<!-- Title: libs/spic&#45;engine/includes/spic&#45;api&#45;headers/Animator.hpp Pages: 1 -->
<svg width="2371pt" height="307pt"
 viewBox="0.00 0.00 2370.50 307.00" xmlns="http://www.w3.org/2000/svg" xmlns:xlink="http://www.w3.org/1999/xlink">
<g id="graph0" class="graph" transform="scale(1 1) rotate(0) translate(4 303)">
<title>libs/spic&#45;engine/includes/spic&#45;api&#45;headers/Animator.hpp</title>
<!-- Node1 -->
<g id="node1" class="node">
<title>Node1</title>
<g id="a_node1"><a xlink:title=" ">
<polygon fill="#bfbfbf" stroke="black" points="1438.5,-268.5 1438.5,-298.5 1589.5,-298.5 1589.5,-268.5 1438.5,-268.5"/>
<text text-anchor="start" x="1446.5" y="-286.5" font-family="Helvetica,sans-Serif" font-size="10.00">libs/spic&#45;engine/includes</text>
<text text-anchor="middle" x="1514" y="-275.5" font-family="Helvetica,sans-Serif" font-size="10.00">/spic&#45;api&#45;headers/Animator.hpp</text>
</a>
</g>
</g>
<!-- Node2 -->
<g id="node2" class="node">
<title>Node2</title>
<g id="a_node2"><a xlink:href="EnemyPrefabFactory_8cpp.html" target="_top" xlink:title=" ">
<polygon fill="none" stroke="black" points="871,-67.5 871,-97.5 1005,-97.5 1005,-67.5 871,-67.5"/>
<text text-anchor="start" x="879" y="-85.5" font-family="Helvetica,sans-Serif" font-size="10.00">src/Factories/EnemyPrefab</text>
<text text-anchor="middle" x="938" y="-74.5" font-family="Helvetica,sans-Serif" font-size="10.00">Factory.cpp</text>
</a>
</g>
</g>
<!-- Node1&#45;&gt;Node2 -->
<g id="edge1" class="edge">
<title>Node1&#45;&gt;Node2</title>
<path fill="none" stroke="midnightblue" d="M1427.97,-282.65C1247.21,-280.95 837.46,-265.79 751,-165 742.03,-154.54 742.62,-144.94 751,-134 758.59,-124.09 820.3,-108.68 870.79,-97.49"/>
<polygon fill="midnightblue" stroke="midnightblue" points="1428.21,-286.15 1438.24,-282.74 1428.27,-279.15 1428.21,-286.15"/>
</g>
<!-- Node3 -->
<g id="node3" class="node">
<title>Node3</title>
<g id="a_node3"><a xlink:href="HeroPrefabFactory_8cpp.html" target="_top" xlink:title=" ">
<polygon fill="none" stroke="black" points="1812,-67.5 1812,-97.5 1938,-97.5 1938,-67.5 1812,-67.5"/>
<text text-anchor="start" x="1820" y="-85.5" font-family="Helvetica,sans-Serif" font-size="10.00">src/Factories/HeroPrefab</text>
<text text-anchor="middle" x="1875" y="-74.5" font-family="Helvetica,sans-Serif" font-size="10.00">Factory.cpp</text>
</a>
</g>
</g>
<!-- Node1&#45;&gt;Node3 -->
<g id="edge2" class="edge">
<title>Node1&#45;&gt;Node3</title>
<path fill="none" stroke="midnightblue" d="M1573.99,-265.71C1667.85,-238.92 1840.77,-187.25 1860,-165 1876.27,-146.17 1877.4,-115.57 1876.42,-97.71"/>
<polygon fill="midnightblue" stroke="midnightblue" points="1572.99,-262.36 1564.33,-268.46 1574.91,-269.09 1572.99,-262.36"/>
</g>
<!-- Node4 -->
<g id="node4" class="node">
<title>Node4</title>
<g id="a_node4"><a xlink:href="TowerPrefabFactory_8cpp.html" target="_top" xlink:title=" ">
<polygon fill="none" stroke="black" points="0,-67.5 0,-97.5 132,-97.5 132,-67.5 0,-67.5"/>
<text text-anchor="start" x="8" y="-85.5" font-family="Helvetica,sans-Serif" font-size="10.00">src/Factories/TowerPrefab</text>
<text text-anchor="middle" x="66" y="-74.5" font-family="Helvetica,sans-Serif" font-size="10.00">Factory.cpp</text>
</a>
</g>
</g>
<!-- Node1&#45;&gt;Node4 -->
<g id="edge3" class="edge">
<title>Node1&#45;&gt;Node4</title>
<path fill="none" stroke="midnightblue" d="M1427.98,-282.39C1181.33,-281.54 474.85,-275.3 248,-232 159.64,-215.13 109.03,-238.39 57,-165 42.84,-145.03 51.77,-115.1 59.15,-97.61"/>
<polygon fill="midnightblue" stroke="midnightblue" points="1428.31,-285.89 1438.32,-282.42 1428.33,-278.89 1428.31,-285.89"/>
</g>
<!-- Node5 -->
<g id="node5" class="node">
<title>Node5</title>
<g id="a_node5"><a xlink:href="AttackBehaviour_8hpp.html" target="_top" xlink:title=" ">
<polygon fill="none" stroke="black" points="482,-201.5 482,-231.5 592,-231.5 592,-201.5 482,-201.5"/>
<text text-anchor="start" x="490" y="-219.5" font-family="Helvetica,sans-Serif" font-size="10.00">src/Scripts/Common</text>
<text text-anchor="middle" x="537" y="-208.5" font-family="Helvetica,sans-Serif" font-size="10.00">/AttackBehaviour.hpp</text>
</a>
</g>
</g>
<!-- Node1&#45;&gt;Node5 -->
<g id="edge4" class="edge">
<title>Node1&#45;&gt;Node5</title>
<path fill="none" stroke="midnightblue" d="M1428.01,-277.51C1282,-268.94 976.29,-250.54 718,-232 675.71,-228.96 627.89,-225.12 592.03,-222.15"/>
<polygon fill="midnightblue" stroke="midnightblue" points="1428.05,-281.02 1438.24,-278.11 1428.46,-274.03 1428.05,-281.02"/>
</g>
<!-- Node9 -->
<g id="node9" class="node">
<title>Node9</title>
<g id="a_node9"><a xlink:href="HealthBehaviour_8hpp.html" target="_top" xlink:title=" ">
<polygon fill="none" stroke="black" points="1309,-201.5 1309,-231.5 1419,-231.5 1419,-201.5 1309,-201.5"/>
<text text-anchor="start" x="1317" y="-219.5" font-family="Helvetica,sans-Serif" font-size="10.00">src/Scripts/Common</text>
<text text-anchor="middle" x="1364" y="-208.5" font-family="Helvetica,sans-Serif" font-size="10.00">/HealthBehaviour.hpp</text>
</a>
</g>
</g>
<!-- Node1&#45;&gt;Node9 -->
<g id="edge10" class="edge">
<title>Node1&#45;&gt;Node9</title>
<path fill="none" stroke="midnightblue" d="M1472.25,-264.41C1448.3,-254.03 1418.68,-241.2 1396.48,-231.58"/>
<polygon fill="midnightblue" stroke="midnightblue" points="1470.89,-267.63 1481.45,-268.4 1473.67,-261.21 1470.89,-267.63"/>
</g>
<!-- Node22 -->
<g id="node22" class="node">
<title>Node22</title>
<g id="a_node22"><a xlink:href="EnemyMovementBehaviour_8hpp.html" target="_top" xlink:title=" ">
<polygon fill="none" stroke="black" points="1549,-134.5 1549,-164.5 1705,-164.5 1705,-134.5 1549,-134.5"/>
<text text-anchor="start" x="1557" y="-152.5" font-family="Helvetica,sans-Serif" font-size="10.00">src/Scripts/Enemies</text>
<text text-anchor="middle" x="1627" y="-141.5" font-family="Helvetica,sans-Serif" font-size="10.00">/EnemyMovementBehaviour.hpp</text>
</a>
</g>
</g>
<!-- Node1&#45;&gt;Node22 -->
<g id="edge60" class="edge">
<title>Node1&#45;&gt;Node22</title>
<path fill="none" stroke="midnightblue" d="M1532.8,-260.54C1556.16,-233.25 1595.34,-187.48 1614.99,-164.52"/>
<polygon fill="midnightblue" stroke="midnightblue" points="1529.94,-258.5 1526.09,-268.37 1535.26,-263.05 1529.94,-258.5"/>
</g>
<!-- Node27 -->
<g id="node27" class="node">
<title>Node27</title>
<g id="a_node27"><a xlink:href="UserMovementBehaviour_8hpp.html" target="_top" xlink:title=" ">
<polygon fill="none" stroke="black" points="2057,-134.5 2057,-164.5 2205,-164.5 2205,-134.5 2057,-134.5"/>
<text text-anchor="start" x="2065" y="-152.5" font-family="Helvetica,sans-Serif" font-size="10.00">src/Scripts/Heroes</text>
<text text-anchor="middle" x="2131" y="-141.5" font-family="Helvetica,sans-Serif" font-size="10.00">/UserMovementBehaviour.hpp</text>
</a>
</g>
</g>
<!-- Node1&#45;&gt;Node27 -->
<g id="edge61" class="edge">
<title>Node1&#45;&gt;Node27</title>
<path fill="none" stroke="midnightblue" d="M1599.67,-280.76C1755.79,-276.8 2074.12,-264.76 2112,-232 2131.34,-215.27 2133.07,-183.02 2132.26,-164.5"/>
<polygon fill="midnightblue" stroke="midnightblue" points="1599.53,-277.26 1589.62,-281.01 1599.71,-284.26 1599.53,-277.26"/>
</g>
<!-- Node40 -->
<g id="node40" class="node">
<title>Node40</title>
<g id="a_node40"><a xlink:href="Animator_8cpp.html" target="_top" xlink:title=" ">
<polygon fill="none" stroke="black" points="1801.5,-201.5 1801.5,-231.5 1902.5,-231.5 1902.5,-201.5 1801.5,-201.5"/>
<text text-anchor="start" x="1809.5" y="-219.5" font-family="Helvetica,sans-Serif" font-size="10.00">libs/spic&#45;engine/src</text>
<text text-anchor="middle" x="1852" y="-208.5" font-family="Helvetica,sans-Serif" font-size="10.00">/Api/Animator.cpp</text>
</a>
</g>
</g>
<!-- Node1&#45;&gt;Node40 -->
<g id="edge62" class="edge">
<title>Node1&#45;&gt;Node40</title>
<path fill="none" stroke="midnightblue" d="M1599.61,-267.49C1653.49,-257.84 1724.42,-244.76 1787,-232 1791.64,-231.05 1796.47,-230.04 1801.3,-229"/>
<polygon fill="midnightblue" stroke="midnightblue" points="1598.98,-264.05 1589.76,-269.25 1600.21,-270.94 1598.98,-264.05"/>
</g>
<!-- Node41 -->
<g id="node41" class="node">
<title>Node41</title>
<g id="a_node41"><a xlink:href="AnimatorSubsystem_8cpp.html" target="_top" xlink:title=" ">
<polygon fill="none" stroke="black" points="1921,-201.5 1921,-231.5 2103,-231.5 2103,-201.5 1921,-201.5"/>
<text text-anchor="start" x="1929" y="-219.5" font-family="Helvetica,sans-Serif" font-size="10.00">libs/spic&#45;engine/src</text>
<text text-anchor="middle" x="2012" y="-208.5" font-family="Helvetica,sans-Serif" font-size="10.00">/Subsystems/AnimatorSubsystem.cpp</text>
</a>
</g>
</g>
<!-- Node1&#45;&gt;Node41 -->
<g id="edge63" class="edge">
<title>Node1&#45;&gt;Node41</title>
<path fill="none" stroke="midnightblue" d="M1599.72,-272.07C1680.36,-262.15 1804.45,-246.62 1912,-232 1914.96,-231.6 1917.96,-231.19 1920.99,-230.77"/>
<polygon fill="midnightblue" stroke="midnightblue" points="1599.11,-268.62 1589.61,-273.31 1599.96,-275.57 1599.11,-268.62"/>
</g>
<!-- Node42 -->
<g id="node42" class="node">
<title>Node42</title>
<g id="a_node42"><a xlink:href="Api_8hpp.html" target="_top" xlink:title=" ">
<polygon fill="none" stroke="black" points="257,-201.5 257,-231.5 383,-231.5 383,-201.5 257,-201.5"/>
<text text-anchor="start" x="265" y="-219.5" font-family="Helvetica,sans-Serif" font-size="10.00">libs/spic&#45;engine/includes</text>
<text text-anchor="middle" x="320" y="-208.5" font-family="Helvetica,sans-Serif" font-size="10.00">/spic&#45;api&#45;headers/Api.hpp</text>
</a>
</g>
</g>
<!-- Node1&#45;&gt;Node42 -->
<g id="edge64" class="edge">
<title>Node1&#45;&gt;Node42</title>
<path fill="none" stroke="midnightblue" d="M1428.4,-279.68C1250.38,-273.53 827.31,-257.37 473,-232 443.46,-229.88 410.77,-226.88 383.22,-224.15"/>
<polygon fill="midnightblue" stroke="midnightblue" points="1428.38,-283.18 1438.49,-280.03 1428.62,-276.19 1428.38,-283.18"/>
</g>
<!-- Node5&#45;&gt;Node2 -->
<g id="edge5" class="edge">
<title>Node5&#45;&gt;Node2</title>
<path fill="none" stroke="midnightblue" d="M595.13,-198.18C620.36,-189.66 649.83,-178.35 675,-165 695.81,-153.96 696.54,-143.72 718,-134 731.99,-127.67 811.33,-110.16 870.75,-97.53"/>
<polygon fill="midnightblue" stroke="midnightblue" points="593.72,-194.95 585.33,-201.42 595.92,-201.6 593.72,-194.95"/>
</g>
<!-- Node6 -->
<g id="node6" class="node">
<title>Node6</title>
<g id="a_node6"><a xlink:href="TowerPrefabFactory_8hpp.html" target="_top" xlink:title=" ">
<polygon fill="none" stroke="black" points="66,-134.5 66,-164.5 198,-164.5 198,-134.5 66,-134.5"/>
<text text-anchor="start" x="74" y="-152.5" font-family="Helvetica,sans-Serif" font-size="10.00">src/Factories/TowerPrefab</text>
<text text-anchor="middle" x="132" y="-141.5" font-family="Helvetica,sans-Serif" font-size="10.00">Factory.hpp</text>
</a>
</g>
</g>
<!-- Node5&#45;&gt;Node6 -->
<g id="edge6" class="edge">
<title>Node5&#45;&gt;Node6</title>
<path fill="none" stroke="midnightblue" d="M471.67,-205.01C396.43,-192.94 273.53,-173.21 198.01,-161.09"/>
<polygon fill="midnightblue" stroke="midnightblue" points="471.53,-208.54 481.96,-206.67 472.64,-201.63 471.53,-208.54"/>
</g>
<!-- Node8 -->
<g id="node8" class="node">
<title>Node8</title>
<g id="a_node8"><a xlink:href="AttackBehaviour_8cpp.html" target="_top" xlink:title=" ">
<polygon fill="none" stroke="black" points="408,-134.5 408,-164.5 518,-164.5 518,-134.5 408,-134.5"/>
<text text-anchor="start" x="416" y="-152.5" font-family="Helvetica,sans-Serif" font-size="10.00">src/Scripts/Common</text>
<text text-anchor="middle" x="463" y="-141.5" font-family="Helvetica,sans-Serif" font-size="10.00">/AttackBehaviour.cpp</text>
</a>
</g>
</g>
<!-- Node5&#45;&gt;Node8 -->
<g id="edge9" class="edge">
<title>Node5&#45;&gt;Node8</title>
<path fill="none" stroke="midnightblue" d="M513.2,-194.6C502.03,-184.78 489.01,-173.34 479.03,-164.58"/>
<polygon fill="midnightblue" stroke="midnightblue" points="511.12,-197.43 520.94,-201.4 515.74,-192.17 511.12,-197.43"/>
</g>
<!-- Node6&#45;&gt;Node4 -->
<g id="edge8" class="edge">
<title>Node6&#45;&gt;Node4</title>
<path fill="none" stroke="midnightblue" d="M110.49,-127.31C100.59,-117.56 89.11,-106.26 80.29,-97.58"/>
<polygon fill="midnightblue" stroke="midnightblue" points="108.1,-129.87 117.68,-134.4 113.01,-124.89 108.1,-129.87"/>
</g>
<!-- Node7 -->
<g id="node7" class="node">
<title>Node7</title>
<g id="a_node7"><a xlink:href="LevelController_8cpp.html" target="_top" xlink:title=" ">
<polygon fill="none" stroke="black" points="298,-6 298,-25 464,-25 464,-6 298,-6"/>
<text text-anchor="middle" x="381" y="-13" font-family="Helvetica,sans-Serif" font-size="10.00">src/Controllers/LevelController.cpp</text>
</a>
</g>
</g>
<!-- Node6&#45;&gt;Node7 -->
<g id="edge7" class="edge">
<title>Node6&#45;&gt;Node7</title>
<path fill="none" stroke="midnightblue" d="M146.66,-126.08C159.84,-107.64 180.79,-82.17 205,-67 240.28,-44.88 285.54,-32.18 321.33,-25.04"/>
<polygon fill="midnightblue" stroke="midnightblue" points="143.66,-124.27 140.84,-134.49 149.41,-128.26 143.66,-124.27"/>
</g>
<!-- Node9&#45;&gt;Node8 -->
<g id="edge18" class="edge">
<title>Node9&#45;&gt;Node8</title>
<path fill="none" stroke="midnightblue" d="M1298.61,-215.16C1157.15,-213.64 812.42,-205.67 527,-165 524.07,-164.58 521.07,-164.1 518.05,-163.57"/>
<polygon fill="midnightblue" stroke="midnightblue" points="1298.81,-218.66 1308.85,-215.26 1298.88,-211.66 1298.81,-218.66"/>
</g>
<!-- Node10 -->
<g id="node10" class="node">
<title>Node10</title>
<g id="a_node10"><a xlink:href="HealthBarFactory_8hpp.html" target="_top" xlink:title=" ">
<polygon fill="none" stroke="black" points="1083,-140 1083,-159 1253,-159 1253,-140 1083,-140"/>
<text text-anchor="middle" x="1168" y="-147" font-family="Helvetica,sans-Serif" font-size="10.00">src/Factories/HealthBarFactory.hpp</text>
</a>
</g>
</g>
<!-- Node9&#45;&gt;Node10 -->
<g id="edge11" class="edge">
<title>Node9&#45;&gt;Node10</title>
<path fill="none" stroke="midnightblue" d="M1311.56,-198.11C1273.42,-185.46 1223.46,-168.89 1193.65,-159.01"/>
<polygon fill="midnightblue" stroke="midnightblue" points="1310.88,-201.57 1321.47,-201.4 1313.08,-194.93 1310.88,-201.57"/>
</g>
<!-- Node12 -->
<g id="node12" class="node">
<title>Node12</title>
<g id="a_node12"><a xlink:href="LevelScene_8hpp.html" target="_top" xlink:title=" ">
<polygon fill="none" stroke="black" points="2223.5,-140 2223.5,-159 2362.5,-159 2362.5,-140 2223.5,-140"/>
<text text-anchor="middle" x="2293" y="-147" font-family="Helvetica,sans-Serif" font-size="10.00">src/Scenes/LevelScene.hpp</text>
</a>
</g>
</g>
<!-- Node9&#45;&gt;Node12 -->
<g id="edge15" class="edge">
<title>Node9&#45;&gt;Node12</title>
<path fill="none" stroke="midnightblue" d="M1429.49,-214.33C1572.41,-211.19 1922.82,-200.24 2214,-165 2226.32,-163.51 2239.62,-161.3 2251.74,-159.06"/>
<polygon fill="midnightblue" stroke="midnightblue" points="1429.07,-210.84 1419.15,-214.55 1429.22,-217.84 1429.07,-210.84"/>
</g>
<!-- Node15 -->
<g id="node15" class="node">
<title>Node15</title>
<g id="a_node15"><a xlink:href="DamageBehaviour_8cpp.html" target="_top" xlink:title=" ">
<polygon fill="none" stroke="black" points="1023.5,-67.5 1023.5,-97.5 1140.5,-97.5 1140.5,-67.5 1023.5,-67.5"/>
<text text-anchor="start" x="1031.5" y="-85.5" font-family="Helvetica,sans-Serif" font-size="10.00">src/Scripts/Common</text>
<text text-anchor="middle" x="1082" y="-74.5" font-family="Helvetica,sans-Serif" font-size="10.00">/DamageBehaviour.cpp</text>
</a>
</g>
</g>
<!-- Node9&#45;&gt;Node15 -->
<g id="edge19" class="edge">
<title>Node9&#45;&gt;Node15</title>
<path fill="none" stroke="midnightblue" d="M1298.46,-214.6C1155.11,-211.96 823.78,-201.89 790,-165 677.95,-42.66 506.2,-192.88 1014,-98 1017.09,-97.42 1020.24,-96.81 1023.43,-96.19"/>
<polygon fill="midnightblue" stroke="midnightblue" points="1298.8,-218.11 1308.86,-214.79 1298.92,-211.11 1298.8,-218.11"/>
</g>
<!-- Node16 -->
<g id="node16" class="node">
<title>Node16</title>
<g id="a_node16"><a xlink:href="DamageBehaviour_8hpp.html" target="_top" xlink:title=" ">
<polygon fill="none" stroke="black" points="947.5,-134.5 947.5,-164.5 1064.5,-164.5 1064.5,-134.5 947.5,-134.5"/>
<text text-anchor="start" x="955.5" y="-152.5" font-family="Helvetica,sans-Serif" font-size="10.00">src/Scripts/Common</text>
<text text-anchor="middle" x="1006" y="-141.5" font-family="Helvetica,sans-Serif" font-size="10.00">/DamageBehaviour.hpp</text>
</a>
</g>
</g>
<!-- Node9&#45;&gt;Node16 -->
<g id="edge20" class="edge">
<title>Node9&#45;&gt;Node16</title>
<path fill="none" stroke="midnightblue" d="M1298.93,-204.89C1240.07,-195.12 1151.07,-179.92 1074,-165 1070.92,-164.4 1067.76,-163.78 1064.58,-163.14"/>
<polygon fill="midnightblue" stroke="midnightblue" points="1298.39,-208.35 1308.83,-206.53 1299.54,-201.44 1298.39,-208.35"/>
</g>
<!-- Node21 -->
<g id="node21" class="node">
<title>Node21</title>
<g id="a_node21"><a xlink:href="HealthBehaviour_8cpp.html" target="_top" xlink:title=" ">
<polygon fill="none" stroke="black" points="1271,-134.5 1271,-164.5 1381,-164.5 1381,-134.5 1271,-134.5"/>
<text text-anchor="start" x="1279" y="-152.5" font-family="Helvetica,sans-Serif" font-size="10.00">src/Scripts/Common</text>
<text text-anchor="middle" x="1326" y="-141.5" font-family="Helvetica,sans-Serif" font-size="10.00">/HealthBehaviour.cpp</text>
</a>
</g>
</g>
<!-- Node9&#45;&gt;Node21 -->
<g id="edge26" class="edge">
<title>Node9&#45;&gt;Node21</title>
<path fill="none" stroke="midnightblue" d="M1350.6,-192.58C1345.14,-183.24 1339.01,-172.75 1334.23,-164.58"/>
<polygon fill="midnightblue" stroke="midnightblue" points="1347.69,-194.53 1355.75,-201.4 1353.73,-191 1347.69,-194.53"/>
</g>
<!-- Node9&#45;&gt;Node22 -->
<g id="edge27" class="edge">
<title>Node9&#45;&gt;Node22</title>
<path fill="none" stroke="midnightblue" d="M1429,-199.44C1472.28,-188.74 1528.62,-174.82 1570.12,-164.56"/>
<polygon fill="midnightblue" stroke="midnightblue" points="1428,-196.08 1419.13,-201.87 1429.68,-202.87 1428,-196.08"/>
</g>
<!-- Node24 -->
<g id="node24" class="node">
<title>Node24</title>
<g id="a_node24"><a xlink:href="HealAbilityBehaviour_8hpp.html" target="_top" xlink:title=" ">
<polygon fill="none" stroke="black" points="1723,-134.5 1723,-164.5 1851,-164.5 1851,-134.5 1723,-134.5"/>
<text text-anchor="start" x="1731" y="-152.5" font-family="Helvetica,sans-Serif" font-size="10.00">src/Scripts/Heroes</text>
<text text-anchor="middle" x="1787" y="-141.5" font-family="Helvetica,sans-Serif" font-size="10.00">/HealAbilityBehaviour.hpp</text>
</a>
</g>
</g>
<!-- Node9&#45;&gt;Node24 -->
<g id="edge30" class="edge">
<title>Node9&#45;&gt;Node24</title>
<path fill="none" stroke="midnightblue" d="M1429.06,-207.16C1499.46,-197.89 1614.94,-181.97 1714,-165 1716.93,-164.5 1719.92,-163.97 1722.94,-163.42"/>
<polygon fill="midnightblue" stroke="midnightblue" points="1428.46,-203.71 1419,-208.48 1429.37,-210.65 1428.46,-203.71"/>
</g>
<!-- Node26 -->
<g id="node26" class="node">
<title>Node26</title>
<g id="a_node26"><a xlink:href="UserAttackBehaviour_8hpp.html" target="_top" xlink:title=" ">
<polygon fill="none" stroke="black" points="1907.5,-134.5 1907.5,-164.5 2038.5,-164.5 2038.5,-134.5 1907.5,-134.5"/>
<text text-anchor="start" x="1915.5" y="-152.5" font-family="Helvetica,sans-Serif" font-size="10.00">src/Scripts/Heroes</text>
<text text-anchor="middle" x="1973" y="-141.5" font-family="Helvetica,sans-Serif" font-size="10.00">/UserAttackBehaviour.hpp</text>
</a>
</g>
</g>
<!-- Node9&#45;&gt;Node26 -->
<g id="edge33" class="edge">
<title>Node9&#45;&gt;Node26</title>
<path fill="none" stroke="midnightblue" d="M1429.12,-209.42C1523.98,-200.43 1705.68,-182.75 1860,-165 1875.33,-163.24 1891.8,-161.2 1907.31,-159.22"/>
<polygon fill="midnightblue" stroke="midnightblue" points="1428.73,-205.94 1419.1,-210.36 1429.38,-212.91 1428.73,-205.94"/>
</g>
<!-- Node9&#45;&gt;Node27 -->
<g id="edge37" class="edge">
<title>Node9&#45;&gt;Node27</title>
<path fill="none" stroke="midnightblue" d="M1429.44,-212.83C1551.44,-207.38 1821.8,-193.04 2048,-165 2050.9,-164.64 2053.86,-164.25 2056.84,-163.83"/>
<polygon fill="midnightblue" stroke="midnightblue" points="1428.99,-209.35 1419.15,-213.29 1429.3,-216.34 1428.99,-209.35"/>
</g>
<!-- Node29 -->
<g id="node29" class="node">
<title>Node29</title>
<g id="a_node29"><a xlink:href="HealthBarBehaviour_8hpp.html" target="_top" xlink:title=" ">
<polygon fill="none" stroke="black" points="1399.5,-134.5 1399.5,-164.5 1530.5,-164.5 1530.5,-134.5 1399.5,-134.5"/>
<text text-anchor="start" x="1407.5" y="-152.5" font-family="Helvetica,sans-Serif" font-size="10.00">src/Scripts/Hud/HealthBar</text>
<text text-anchor="middle" x="1465" y="-141.5" font-family="Helvetica,sans-Serif" font-size="10.00">Behaviour.hpp</text>
</a>
</g>
</g>
<!-- Node9&#45;&gt;Node29 -->
<g id="edge41" class="edge">
<title>Node9&#45;&gt;Node29</title>
<path fill="none" stroke="midnightblue" d="M1394.71,-195.73C1410.34,-185.68 1428.97,-173.68 1443.13,-164.58"/>
<polygon fill="midnightblue" stroke="midnightblue" points="1392.43,-193.04 1385.92,-201.4 1396.22,-198.93 1392.43,-193.04"/>
</g>
<!-- Node31 -->
<g id="node31" class="node">
<title>Node31</title>
<g id="a_node31"><a xlink:href="LevelData_8hpp.html" target="_top" xlink:title=" ">
<polygon fill="none" stroke="black" points="536,-140 536,-159 666,-159 666,-140 536,-140"/>
<text text-anchor="middle" x="601" y="-147" font-family="Helvetica,sans-Serif" font-size="10.00">src/Structs/LevelData.hpp</text>
</a>
</g>
</g>
<!-- Node9&#45;&gt;Node31 -->
<g id="edge44" class="edge">
<title>Node9&#45;&gt;Node31</title>
<path fill="none" stroke="midnightblue" d="M1298.58,-210.29C1187.17,-201.37 953.47,-182.44 756,-165 726.52,-162.4 693.9,-159.37 666.22,-156.75"/>
<polygon fill="midnightblue" stroke="midnightblue" points="1298.41,-213.79 1308.65,-211.1 1298.97,-206.81 1298.41,-213.79"/>
</g>
<!-- Node39 -->
<g id="node39" class="node">
<title>Node39</title>
<g id="a_node39"><a xlink:href="WaveData_8cpp.html" target="_top" xlink:title=" ">
<polygon fill="none" stroke="black" points="798.5,-140 798.5,-159 929.5,-159 929.5,-140 798.5,-140"/>
<text text-anchor="middle" x="864" y="-147" font-family="Helvetica,sans-Serif" font-size="10.00">src/Structs/WaveData.cpp</text>
</a>
</g>
</g>
<!-- Node9&#45;&gt;Node39 -->
<g id="edge59" class="edge">
<title>Node9&#45;&gt;Node39</title>
<path fill="none" stroke="midnightblue" d="M1298.7,-209.23C1215.09,-200.86 1065.86,-184.77 939,-165 927.99,-163.28 916.13,-161.13 905.17,-159.02"/>
<polygon fill="midnightblue" stroke="midnightblue" points="1298.51,-212.73 1308.81,-210.24 1299.21,-205.76 1298.51,-212.73"/>
</g>
<!-- Node10&#45;&gt;Node2 -->
<g id="edge12" class="edge">
<title>Node10&#45;&gt;Node2</title>
<path fill="none" stroke="midnightblue" d="M1127.51,-137.06C1088.52,-126.04 1029.45,-109.34 987.64,-97.53"/>
<polygon fill="midnightblue" stroke="midnightblue" points="1126.88,-140.52 1137.46,-139.87 1128.79,-133.78 1126.88,-140.52"/>
</g>
<!-- Node10&#45;&gt;Node3 -->
<g id="edge14" class="edge">
<title>Node10&#45;&gt;Node3</title>
<path fill="none" stroke="midnightblue" d="M1228.27,-138.41C1239.46,-136.76 1251.07,-135.2 1262,-134 1501.53,-107.61 1564.14,-129.86 1803,-98 1805.91,-97.61 1808.87,-97.18 1811.86,-96.71"/>
<polygon fill="midnightblue" stroke="midnightblue" points="1227.51,-134.99 1218.14,-139.94 1228.55,-141.91 1227.51,-134.99"/>
</g>
<!-- Node11 -->
<g id="node11" class="node">
<title>Node11</title>
<g id="a_node11"><a xlink:href="HealthBarFactory_8cpp.html" target="_top" xlink:title=" ">
<polygon fill="none" stroke="black" points="1283,-73 1283,-92 1453,-92 1453,-73 1283,-73"/>
<text text-anchor="middle" x="1368" y="-80" font-family="Helvetica,sans-Serif" font-size="10.00">src/Factories/HealthBarFactory.cpp</text>
</a>
</g>
</g>
<!-- Node10&#45;&gt;Node11 -->
<g id="edge13" class="edge">
<title>Node10&#45;&gt;Node11</title>
<path fill="none" stroke="midnightblue" d="M1204.11,-136.77C1243.73,-123.89 1306.4,-103.52 1341.65,-92.06"/>
<polygon fill="midnightblue" stroke="midnightblue" points="1202.99,-133.45 1194.56,-139.87 1205.15,-140.11 1202.99,-133.45"/>
</g>
<!-- Node13 -->
<g id="node13" class="node">
<title>Node13</title>
<g id="a_node13"><a xlink:href="LevelScene_8cpp.html" target="_top" xlink:title=" ">
<polygon fill="none" stroke="black" points="1685.5,-6 1685.5,-25 1824.5,-25 1824.5,-6 1685.5,-6"/>
<text text-anchor="middle" x="1755" y="-13" font-family="Helvetica,sans-Serif" font-size="10.00">src/Scenes/LevelScene.cpp</text>
</a>
</g>
</g>
<!-- Node12&#45;&gt;Node13 -->
<g id="edge16" class="edge">
<title>Node12&#45;&gt;Node13</title>
<path fill="none" stroke="midnightblue" d="M2302.88,-130.78C2311.62,-112.45 2320.77,-84.13 2305,-67 2272.15,-31.32 1918.24,-36.03 1870,-31 1853.29,-29.26 1835.24,-27.11 1818.51,-25"/>
<polygon fill="midnightblue" stroke="midnightblue" points="2299.69,-129.32 2298.22,-139.81 2305.92,-132.53 2299.69,-129.32"/>
</g>
<!-- Node14 -->
<g id="node14" class="node">
<title>Node14</title>
<g id="a_node14"><a xlink:href="MainScene_8cpp.html" target="_top" xlink:title=" ">
<polygon fill="none" stroke="black" points="2160,-73 2160,-92 2296,-92 2296,-73 2160,-73"/>
<text text-anchor="middle" x="2228" y="-80" font-family="Helvetica,sans-Serif" font-size="10.00">src/Scenes/MainScene.cpp</text>
</a>
</g>
</g>
<!-- Node12&#45;&gt;Node14 -->
<g id="edge17" class="edge">
<title>Node12&#45;&gt;Node14</title>
<path fill="none" stroke="midnightblue" d="M2277,-132.5C2264.25,-119.75 2246.89,-102.39 2236.63,-92.13"/>
<polygon fill="midnightblue" stroke="midnightblue" points="2274.69,-135.14 2284.23,-139.73 2279.64,-130.19 2274.69,-135.14"/>
</g>
<!-- Node16&#45;&gt;Node15 -->
<g id="edge25" class="edge">
<title>Node16&#45;&gt;Node15</title>
<path fill="none" stroke="midnightblue" d="M1030.11,-127.88C1041.66,-118.01 1055.19,-106.43 1065.54,-97.58"/>
<polygon fill="midnightblue" stroke="midnightblue" points="1027.82,-125.24 1022.49,-134.4 1032.37,-130.56 1027.82,-125.24"/>
</g>
<!-- Node17 -->
<g id="node17" class="node">
<title>Node17</title>
<g id="a_node17"><a xlink:href="BulletBehaviour_8hpp.html" target="_top" xlink:title=" ">
<polygon fill="none" stroke="black" points="1159,-67.5 1159,-97.5 1265,-97.5 1265,-67.5 1159,-67.5"/>
<text text-anchor="start" x="1167" y="-85.5" font-family="Helvetica,sans-Serif" font-size="10.00">src/Scripts/Common</text>
<text text-anchor="middle" x="1212" y="-74.5" font-family="Helvetica,sans-Serif" font-size="10.00">/BulletBehaviour.hpp</text>
</a>
</g>
</g>
<!-- Node16&#45;&gt;Node17 -->
<g id="edge21" class="edge">
<title>Node16&#45;&gt;Node17</title>
<path fill="none" stroke="midnightblue" d="M1060.05,-131.44C1093.45,-120.91 1135.78,-107.55 1167.28,-97.61"/>
<polygon fill="midnightblue" stroke="midnightblue" points="1058.93,-128.13 1050.45,-134.48 1061.04,-134.8 1058.93,-128.13"/>
</g>
<!-- Node18 -->
<g id="node18" class="node">
<title>Node18</title>
<g id="a_node18"><a xlink:href="BulletFactory_8cpp.html" target="_top" xlink:title=" ">
<polygon fill="none" stroke="black" points="1010,-6 1010,-25 1162,-25 1162,-6 1010,-6"/>
<text text-anchor="middle" x="1086" y="-13" font-family="Helvetica,sans-Serif" font-size="10.00">src/Factories/BulletFactory.cpp</text>
</a>
</g>
</g>
<!-- Node17&#45;&gt;Node18 -->
<g id="edge22" class="edge">
<title>Node17&#45;&gt;Node18</title>
<path fill="none" stroke="midnightblue" d="M1175.76,-62.8C1151.6,-50.34 1121,-34.56 1102.49,-25.01"/>
<polygon fill="midnightblue" stroke="midnightblue" points="1174.17,-65.92 1184.66,-67.4 1177.38,-59.7 1174.17,-65.92"/>
</g>
<!-- Node19 -->
<g id="node19" class="node">
<title>Node19</title>
<g id="a_node19"><a xlink:href="BulletBehaviour_8cpp.html" target="_top" xlink:title=" ">
<polygon fill="none" stroke="black" points="1180,-0.5 1180,-30.5 1286,-30.5 1286,-0.5 1180,-0.5"/>
<text text-anchor="start" x="1188" y="-18.5" font-family="Helvetica,sans-Serif" font-size="10.00">src/Scripts/Common</text>
<text text-anchor="middle" x="1233" y="-7.5" font-family="Helvetica,sans-Serif" font-size="10.00">/BulletBehaviour.cpp</text>
</a>
</g>
</g>
<!-- Node17&#45;&gt;Node19 -->
<g id="edge23" class="edge">
<title>Node17&#45;&gt;Node19</title>
<path fill="none" stroke="midnightblue" d="M1219.69,-57.7C1222.63,-48.59 1225.89,-38.49 1228.45,-30.58"/>
<polygon fill="midnightblue" stroke="midnightblue" points="1216.3,-56.8 1216.56,-67.4 1222.96,-58.96 1216.3,-56.8"/>
</g>
<!-- Node20 -->
<g id="node20" class="node">
<title>Node20</title>
<g id="a_node20"><a xlink:href="UserAttackBehaviour_8cpp.html" target="_top" xlink:title=" ">
<polygon fill="none" stroke="black" points="1878.5,-0.5 1878.5,-30.5 2009.5,-30.5 2009.5,-0.5 1878.5,-0.5"/>
<text text-anchor="start" x="1886.5" y="-18.5" font-family="Helvetica,sans-Serif" font-size="10.00">src/Scripts/Heroes</text>
<text text-anchor="middle" x="1944" y="-7.5" font-family="Helvetica,sans-Serif" font-size="10.00">/UserAttackBehaviour.cpp</text>
</a>
</g>
</g>
<!-- Node17&#45;&gt;Node20 -->
<g id="edge24" class="edge">
<title>Node17&#45;&gt;Node20</title>
<path fill="none" stroke="midnightblue" d="M1275.33,-66.97C1522.46,-31.12 1589.06,-54.99 1834,-31 1848.38,-29.59 1863.77,-27.76 1878.35,-25.88"/>
<polygon fill="midnightblue" stroke="midnightblue" points="1274.71,-63.52 1265.33,-68.44 1275.73,-70.45 1274.71,-63.52"/>
</g>
<!-- Node22&#45;&gt;Node2 -->
<g id="edge28" class="edge">
<title>Node22&#45;&gt;Node2</title>
<path fill="none" stroke="midnightblue" d="M1538.66,-133.92C1305.96,-107.33 1243.7,-127.27 1015,-98 1011.76,-97.59 1008.45,-97.12 1005.12,-96.62"/>
<polygon fill="midnightblue" stroke="midnightblue" points="1538.46,-137.42 1548.8,-135.1 1539.27,-130.47 1538.46,-137.42"/>
</g>
<!-- Node23 -->
<g id="node23" class="node">
<title>Node23</title>
<g id="a_node23"><a xlink:href="EnemyMovementBehaviour_8cpp.html" target="_top" xlink:title=" ">
<polygon fill="none" stroke="black" points="1439,-0.5 1439,-30.5 1595,-30.5 1595,-0.5 1439,-0.5"/>
<text text-anchor="start" x="1447" y="-18.5" font-family="Helvetica,sans-Serif" font-size="10.00">src/Scripts/Enemies</text>
<text text-anchor="middle" x="1517" y="-7.5" font-family="Helvetica,sans-Serif" font-size="10.00">/EnemyMovementBehaviour.cpp</text>
</a>
</g>
</g>
<!-- Node22&#45;&gt;Node23 -->
<g id="edge29" class="edge">
<title>Node22&#45;&gt;Node23</title>
<path fill="none" stroke="midnightblue" d="M1627.91,-124.38C1627.39,-106.9 1624.11,-83.53 1612,-67 1599.75,-50.27 1580.26,-38.56 1562.12,-30.65"/>
<polygon fill="midnightblue" stroke="midnightblue" points="1624.41,-124.39 1627.94,-134.38 1631.41,-124.37 1624.41,-124.39"/>
</g>
<!-- Node24&#45;&gt;Node3 -->
<g id="edge31" class="edge">
<title>Node24&#45;&gt;Node3</title>
<path fill="none" stroke="midnightblue" d="M1814.14,-128.45C1827.68,-118.45 1843.73,-106.6 1855.94,-97.58"/>
<polygon fill="midnightblue" stroke="midnightblue" points="1812.06,-125.64 1806.09,-134.4 1816.22,-131.27 1812.06,-125.64"/>
</g>
<!-- Node25 -->
<g id="node25" class="node">
<title>Node25</title>
<g id="a_node25"><a xlink:href="HealAbilityBehaviour_8cpp.html" target="_top" xlink:title=" ">
<polygon fill="none" stroke="black" points="1666,-67.5 1666,-97.5 1794,-97.5 1794,-67.5 1666,-67.5"/>
<text text-anchor="start" x="1674" y="-85.5" font-family="Helvetica,sans-Serif" font-size="10.00">src/Scripts/Heroes</text>
<text text-anchor="middle" x="1730" y="-74.5" font-family="Helvetica,sans-Serif" font-size="10.00">/HealAbilityBehaviour.cpp</text>
</a>
</g>
</g>
<!-- Node24&#45;&gt;Node25 -->
<g id="edge32" class="edge">
<title>Node24&#45;&gt;Node25</title>
<path fill="none" stroke="midnightblue" d="M1767.91,-126.74C1759.48,-117.12 1749.81,-106.09 1742.34,-97.58"/>
<polygon fill="midnightblue" stroke="midnightblue" points="1765.41,-129.18 1774.63,-134.4 1770.67,-124.57 1765.41,-129.18"/>
</g>
<!-- Node26&#45;&gt;Node3 -->
<g id="edge34" class="edge">
<title>Node26&#45;&gt;Node3</title>
<path fill="none" stroke="midnightblue" d="M1943.2,-128.73C1928.03,-118.68 1909.96,-106.68 1896.22,-97.58"/>
<polygon fill="midnightblue" stroke="midnightblue" points="1941.47,-131.79 1951.74,-134.4 1945.34,-125.95 1941.47,-131.79"/>
</g>
<!-- Node26&#45;&gt;Node14 -->
<g id="edge35" class="edge">
<title>Node26&#45;&gt;Node14</title>
<path fill="none" stroke="midnightblue" d="M2037.77,-131.99C2087.74,-119.25 2154.84,-102.15 2194.54,-92.03"/>
<polygon fill="midnightblue" stroke="midnightblue" points="2036.84,-128.61 2028.02,-134.48 2038.57,-135.4 2036.84,-128.61"/>
</g>
<!-- Node26&#45;&gt;Node20 -->
<g id="edge36" class="edge">
<title>Node26&#45;&gt;Node20</title>
<path fill="none" stroke="midnightblue" d="M1967.7,-124.39C1961.66,-96.9 1951.99,-52.89 1947.08,-30.52"/>
<polygon fill="midnightblue" stroke="midnightblue" points="1964.33,-125.36 1969.9,-134.37 1971.17,-123.86 1964.33,-125.36"/>
</g>
<!-- Node27&#45;&gt;Node3 -->
<g id="edge38" class="edge">
<title>Node27&#45;&gt;Node3</title>
<path fill="none" stroke="midnightblue" d="M2065.95,-131.98C2024.14,-121.37 1970.39,-107.72 1930.58,-97.61"/>
<polygon fill="midnightblue" stroke="midnightblue" points="2065.21,-135.41 2075.77,-134.48 2066.94,-128.62 2065.21,-135.41"/>
</g>
<!-- Node27&#45;&gt;Node14 -->
<g id="edge39" class="edge">
<title>Node27&#45;&gt;Node14</title>
<path fill="none" stroke="midnightblue" d="M2160.64,-128.64C2178.94,-116.37 2201.49,-101.26 2215.3,-92.01"/>
<polygon fill="midnightblue" stroke="midnightblue" points="2158.41,-125.92 2152.05,-134.4 2162.3,-131.74 2158.41,-125.92"/>
</g>
<!-- Node28 -->
<g id="node28" class="node">
<title>Node28</title>
<g id="a_node28"><a xlink:href="UserMovementBehaviour_8cpp.html" target="_top" xlink:title=" ">
<polygon fill="none" stroke="black" points="1994,-67.5 1994,-97.5 2142,-97.5 2142,-67.5 1994,-67.5"/>
<text text-anchor="start" x="2002" y="-85.5" font-family="Helvetica,sans-Serif" font-size="10.00">src/Scripts/Heroes</text>
<text text-anchor="middle" x="2068" y="-74.5" font-family="Helvetica,sans-Serif" font-size="10.00">/UserMovementBehaviour.cpp</text>
</a>
</g>
</g>
<!-- Node27&#45;&gt;Node28 -->
<g id="edge40" class="edge">
<title>Node27&#45;&gt;Node28</title>
<path fill="none" stroke="midnightblue" d="M2110.19,-127.02C2100.8,-117.34 2089.98,-106.17 2081.64,-97.58"/>
<polygon fill="midnightblue" stroke="midnightblue" points="2107.86,-129.65 2117.33,-134.4 2112.88,-124.78 2107.86,-129.65"/>
</g>
<!-- Node29&#45;&gt;Node11 -->
<g id="edge42" class="edge">
<title>Node29&#45;&gt;Node11</title>
<path fill="none" stroke="midnightblue" d="M1435.36,-128.64C1417.06,-116.37 1394.51,-101.26 1380.7,-92.01"/>
<polygon fill="midnightblue" stroke="midnightblue" points="1433.7,-131.74 1443.95,-134.4 1437.59,-125.92 1433.7,-131.74"/>
</g>
<!-- Node30 -->
<g id="node30" class="node">
<title>Node30</title>
<g id="a_node30"><a xlink:href="HealthBarBehaviour_8cpp.html" target="_top" xlink:title=" ">
<polygon fill="none" stroke="black" points="1471.5,-67.5 1471.5,-97.5 1602.5,-97.5 1602.5,-67.5 1471.5,-67.5"/>
<text text-anchor="start" x="1479.5" y="-85.5" font-family="Helvetica,sans-Serif" font-size="10.00">src/Scripts/Hud/HealthBar</text>
<text text-anchor="middle" x="1537" y="-74.5" font-family="Helvetica,sans-Serif" font-size="10.00">Behaviour.cpp</text>
</a>
</g>
</g>
<!-- Node29&#45;&gt;Node30 -->
<g id="edge43" class="edge">
<title>Node29&#45;&gt;Node30</title>
<path fill="none" stroke="midnightblue" d="M1488.15,-127.6C1499.02,-117.78 1511.7,-106.34 1521.41,-97.58"/>
<polygon fill="midnightblue" stroke="midnightblue" points="1485.7,-125.1 1480.62,-134.4 1490.39,-130.29 1485.7,-125.1"/>
</g>
<!-- Node32 -->
<g id="node32" class="node">
<title>Node32</title>
<g id="a_node32"><a xlink:href="LevelController_8hpp.html" target="_top" xlink:title=" ">
<polygon fill="none" stroke="black" points="687,-73 687,-92 853,-92 853,-73 687,-73"/>
<text text-anchor="middle" x="770" y="-80" font-family="Helvetica,sans-Serif" font-size="10.00">src/Controllers/LevelController.hpp</text>
</a>
</g>
</g>
<!-- Node31&#45;&gt;Node32 -->
<g id="edge45" class="edge">
<title>Node31&#45;&gt;Node32</title>
<path fill="none" stroke="midnightblue" d="M632.8,-136.27C666.34,-123.37 718.32,-103.38 747.73,-92.06"/>
<polygon fill="midnightblue" stroke="midnightblue" points="631.52,-133.01 623.44,-139.87 634.03,-139.55 631.52,-133.01"/>
</g>
<!-- Node34 -->
<g id="node34" class="node">
<title>Node34</title>
<g id="a_node34"><a xlink:href="GameLostBehaviour_8hpp.html" target="_top" xlink:title=" ">
<polygon fill="none" stroke="black" points="541.5,-67.5 541.5,-97.5 668.5,-97.5 668.5,-67.5 541.5,-67.5"/>
<text text-anchor="start" x="549.5" y="-85.5" font-family="Helvetica,sans-Serif" font-size="10.00">src/Scripts/Common</text>
<text text-anchor="middle" x="605" y="-74.5" font-family="Helvetica,sans-Serif" font-size="10.00">/GameLostBehaviour.hpp</text>
</a>
</g>
</g>
<!-- Node31&#45;&gt;Node34 -->
<g id="edge50" class="edge">
<title>Node31&#45;&gt;Node34</title>
<path fill="none" stroke="midnightblue" d="M602.15,-129.74C602.79,-119.49 603.55,-107 604.13,-97.59"/>
<polygon fill="midnightblue" stroke="midnightblue" points="598.66,-129.54 601.54,-139.73 605.65,-129.97 598.66,-129.54"/>
</g>
<!-- Node36 -->
<g id="node36" class="node">
<title>Node36</title>
<g id="a_node36"><a xlink:href="GameWonBehaviour_8hpp.html" target="_top" xlink:title=" ">
<polygon fill="none" stroke="black" points="247.5,-67.5 247.5,-97.5 374.5,-97.5 374.5,-67.5 247.5,-67.5"/>
<text text-anchor="start" x="255.5" y="-85.5" font-family="Helvetica,sans-Serif" font-size="10.00">src/Scripts/Common</text>
<text text-anchor="middle" x="311" y="-74.5" font-family="Helvetica,sans-Serif" font-size="10.00">/GameWonBehaviour.hpp</text>
</a>
</g>
</g>
<!-- Node31&#45;&gt;Node36 -->
<g id="edge54" class="edge">
<title>Node31&#45;&gt;Node36</title>
<path fill="none" stroke="midnightblue" d="M552.75,-137.69C503.69,-126.69 427.45,-109.6 373.73,-97.56"/>
<polygon fill="midnightblue" stroke="midnightblue" points="552.27,-141.16 562.79,-139.94 553.8,-134.33 552.27,-141.16"/>
</g>
<!-- Node38 -->
<g id="node38" class="node">
<title>Node38</title>
<g id="a_node38"><a xlink:href="LevelData_8cpp.html" target="_top" xlink:title=" ">
<polygon fill="none" stroke="black" points="393,-73 393,-92 523,-92 523,-73 393,-73"/>
<text text-anchor="middle" x="458" y="-80" font-family="Helvetica,sans-Serif" font-size="10.00">src/Structs/LevelData.cpp</text>
</a>
</g>
</g>
<!-- Node31&#45;&gt;Node38 -->
<g id="edge58" class="edge">
<title>Node31&#45;&gt;Node38</title>
<path fill="none" stroke="midnightblue" d="M572.65,-135.61C544.33,-122.74 501.57,-103.31 477.07,-92.17"/>
<polygon fill="midnightblue" stroke="midnightblue" points="571.46,-138.92 582.01,-139.87 574.36,-132.54 571.46,-138.92"/>
</g>
<!-- Node32&#45;&gt;Node7 -->
<g id="edge46" class="edge">
<title>Node32&#45;&gt;Node7</title>
<path fill="none" stroke="midnightblue" d="M708.79,-71.27C632.45,-58.52 503.33,-36.94 432.06,-25.03"/>
<polygon fill="midnightblue" stroke="midnightblue" points="708.3,-74.74 718.75,-72.94 709.46,-67.84 708.3,-74.74"/>
</g>
<!-- Node32&#45;&gt;Node13 -->
<g id="edge47" class="edge">
<title>Node32&#45;&gt;Node13</title>
<path fill="none" stroke="midnightblue" d="M827.83,-71.41C839.13,-69.72 850.92,-68.14 862,-67 1190.44,-33.25 1274.69,-54.79 1604,-31 1630.53,-29.08 1659.63,-26.42 1685.14,-23.9"/>
<polygon fill="midnightblue" stroke="midnightblue" points="826.97,-68 817.62,-72.99 828.04,-74.92 826.97,-68"/>
</g>
<!-- Node32&#45;&gt;Node23 -->
<g id="edge49" class="edge">
<title>Node32&#45;&gt;Node23</title>
<path fill="none" stroke="midnightblue" d="M829.7,-71.38C840.43,-69.77 851.53,-68.23 862,-67 971.67,-54.15 1290.14,-31.85 1438.83,-21.74"/>
<polygon fill="midnightblue" stroke="midnightblue" points="828.91,-67.97 819.56,-72.95 829.97,-74.88 828.91,-67.97"/>
</g>
<!-- Node33 -->
<g id="node33" class="node">
<title>Node33</title>
<g id="a_node33"><a xlink:href="CheatManager_8cpp.html" target="_top" xlink:title=" ">
<polygon fill="none" stroke="black" points="484,-0.5 484,-30.5 590,-30.5 590,-0.5 484,-0.5"/>
<text text-anchor="start" x="492" y="-18.5" font-family="Helvetica,sans-Serif" font-size="10.00">src/Scripts/Common</text>
<text text-anchor="middle" x="537" y="-7.5" font-family="Helvetica,sans-Serif" font-size="10.00">/CheatManager.cpp</text>
</a>
</g>
</g>
<!-- Node32&#45;&gt;Node33 -->
<g id="edge48" class="edge">
<title>Node32&#45;&gt;Node33</title>
<path fill="none" stroke="midnightblue" d="M729.23,-70.13C689.73,-59.11 629.73,-42.37 587.29,-30.53"/>
<polygon fill="midnightblue" stroke="midnightblue" points="728.49,-73.55 739.06,-72.87 730.37,-66.81 728.49,-73.55"/>
</g>
<!-- Node34&#45;&gt;Node7 -->
<g id="edge51" class="edge">
<title>Node34&#45;&gt;Node7</title>
<path fill="none" stroke="midnightblue" d="M547,-64.67C503.22,-51.97 444.97,-35.06 410.39,-25.03"/>
<polygon fill="midnightblue" stroke="midnightblue" points="546.09,-68.05 556.67,-67.48 548.04,-61.33 546.09,-68.05"/>
</g>
<!-- Node34&#45;&gt;Node33 -->
<g id="edge52" class="edge">
<title>Node34&#45;&gt;Node33</title>
<path fill="none" stroke="midnightblue" d="M582.83,-60.31C572.63,-50.56 560.81,-39.26 551.73,-30.58"/>
<polygon fill="midnightblue" stroke="midnightblue" points="580.6,-63.02 590.25,-67.4 585.43,-57.96 580.6,-63.02"/>
</g>
<!-- Node35 -->
<g id="node35" class="node">
<title>Node35</title>
<g id="a_node35"><a xlink:href="GameLostBehaviour_8cpp.html" target="_top" xlink:title=" ">
<polygon fill="none" stroke="black" points="608.5,-0.5 608.5,-30.5 735.5,-30.5 735.5,-0.5 608.5,-0.5"/>
<text text-anchor="start" x="616.5" y="-18.5" font-family="Helvetica,sans-Serif" font-size="10.00">src/Scripts/Common</text>
<text text-anchor="middle" x="672" y="-7.5" font-family="Helvetica,sans-Serif" font-size="10.00">/GameLostBehaviour.cpp</text>
</a>
</g>
</g>
<!-- Node34&#45;&gt;Node35 -->
<g id="edge53" class="edge">
<title>Node34&#45;&gt;Node35</title>
<path fill="none" stroke="midnightblue" d="M626.84,-60.31C636.89,-50.56 648.54,-39.26 657.49,-30.58"/>
<polygon fill="midnightblue" stroke="midnightblue" points="624.28,-57.92 619.54,-67.4 629.15,-62.94 624.28,-57.92"/>
</g>
<!-- Node36&#45;&gt;Node7 -->
<g id="edge55" class="edge">
<title>Node36&#45;&gt;Node7</title>
<path fill="none" stroke="midnightblue" d="M333.79,-60.34C346.65,-48.4 362.01,-34.14 371.64,-25.19"/>
<polygon fill="midnightblue" stroke="midnightblue" points="331.14,-58.03 326.19,-67.4 335.9,-63.16 331.14,-58.03"/>
</g>
<!-- Node36&#45;&gt;Node33 -->
<g id="edge56" class="edge">
<title>Node36&#45;&gt;Node33</title>
<path fill="none" stroke="midnightblue" d="M369.83,-64.58C406.54,-54.02 453.23,-40.59 487.94,-30.61"/>
<polygon fill="midnightblue" stroke="midnightblue" points="368.4,-61.35 359.76,-67.48 370.34,-68.08 368.4,-61.35"/>
</g>
<!-- Node37 -->
<g id="node37" class="node">
<title>Node37</title>
<g id="a_node37"><a xlink:href="GameWonBehaviour_8cpp.html" target="_top" xlink:title=" ">
<polygon fill="none" stroke="black" points="152.5,-0.5 152.5,-30.5 279.5,-30.5 279.5,-0.5 152.5,-0.5"/>
<text text-anchor="start" x="160.5" y="-18.5" font-family="Helvetica,sans-Serif" font-size="10.00">src/Scripts/Common</text>
<text text-anchor="middle" x="216" y="-7.5" font-family="Helvetica,sans-Serif" font-size="10.00">/GameWonBehaviour.cpp</text>
</a>
</g>
</g>
<!-- Node36&#45;&gt;Node37 -->
<g id="edge57" class="edge">
<title>Node36&#45;&gt;Node37</title>
<path fill="none" stroke="midnightblue" d="M282.11,-61.73C267.41,-51.68 249.89,-39.68 236.57,-30.58"/>
<polygon fill="midnightblue" stroke="midnightblue" points="280.16,-64.64 290.39,-67.4 284.11,-58.86 280.16,-64.64"/>
</g>
<!-- Node42&#45;&gt;Node7 -->
<g id="edge65" class="edge">
<title>Node42&#45;&gt;Node7</title>
<path fill="none" stroke="midnightblue" d="M293.76,-194.8C259.59,-165.29 207.61,-109.96 238,-67 253.89,-44.54 280.63,-32 306.73,-25.03"/>
<polygon fill="midnightblue" stroke="midnightblue" points="291.68,-197.62 301.58,-201.38 296.18,-192.26 291.68,-197.62"/>
</g>
<!-- Node43 -->
<g id="node43" class="node">
<title>Node43</title>
<g id="a_node43"><a xlink:href="main_8cpp.html" target="_top" xlink:title=" ">
<polygon fill="none" stroke="black" points="284,-140 284,-159 356,-159 356,-140 284,-140"/>
<text text-anchor="middle" x="320" y="-147" font-family="Helvetica,sans-Serif" font-size="10.00">src/main.cpp</text>
</a>
</g>
</g>
<!-- Node42&#45;&gt;Node43 -->
<g id="edge66" class="edge">
<title>Node42&#45;&gt;Node43</title>
<path fill="none" stroke="midnightblue" d="M320,-191.25C320,-180.02 320,-167.38 320,-159.19"/>
<polygon fill="midnightblue" stroke="midnightblue" points="316.5,-191.4 320,-201.4 323.5,-191.4 316.5,-191.4"/>
</g>
</g>
</svg>
