<?xml version="1.0" encoding="UTF-8" standalone="no"?>
<!DOCTYPE svg PUBLIC "-//W3C//DTD SVG 1.1//EN"
 "http://www.w3.org/Graphics/SVG/1.1/DTD/svg11.dtd">
<!-- Generated by graphviz version 2.44.0 ()
 -->
<!-- Title: libs/spic&#45;engine/includes/spic&#45;api&#45;headers/Utils/AnimatorUtil.hpp Pages: 1 -->
<svg width="1161pt" height="184pt"
 viewBox="0.00 0.00 1161.00 184.00" xmlns="http://www.w3.org/2000/svg" xmlns:xlink="http://www.w3.org/1999/xlink">
<g id="graph0" class="graph" transform="scale(1 1) rotate(0) translate(4 180)">
<title>libs/spic&#45;engine/includes/spic&#45;api&#45;headers/Utils/AnimatorUtil.hpp</title>
<!-- Node1 -->
<g id="node1" class="node">
<title>Node1</title>
<g id="a_node1"><a xlink:title=" ">
<polygon fill="#bfbfbf" stroke="black" points="633.5,-134.5 633.5,-175.5 756.5,-175.5 756.5,-134.5 633.5,-134.5"/>
<text text-anchor="start" x="641.5" y="-163.5" font-family="Helvetica,sans-Serif" font-size="10.00">libs/spic&#45;engine/includes</text>
<text text-anchor="start" x="641.5" y="-152.5" font-family="Helvetica,sans-Serif" font-size="10.00">/spic&#45;api&#45;headers/Utils</text>
<text text-anchor="middle" x="695" y="-141.5" font-family="Helvetica,sans-Serif" font-size="10.00">/AnimatorUtil.hpp</text>
</a>
</g>
</g>
<!-- Node2 -->
<g id="node2" class="node">
<title>Node2</title>
<g id="a_node2"><a xlink:href="EnemyPrefabFactory_8hpp.html" target="_top" xlink:title=" ">
<polygon fill="none" stroke="black" points="256,-67.5 256,-97.5 390,-97.5 390,-67.5 256,-67.5"/>
<text text-anchor="start" x="264" y="-85.5" font-family="Helvetica,sans-Serif" font-size="10.00">src/Factories/EnemyPrefab</text>
<text text-anchor="middle" x="323" y="-74.5" font-family="Helvetica,sans-Serif" font-size="10.00">Factory.hpp</text>
</a>
</g>
</g>
<!-- Node1&#45;&gt;Node2 -->
<g id="edge1" class="edge">
<title>Node1&#45;&gt;Node2</title>
<path fill="none" stroke="midnightblue" d="M623.37,-140.48C563.42,-129.16 475.62,-112.56 399,-98 396.1,-97.45 393.13,-96.88 390.14,-96.31"/>
<polygon fill="midnightblue" stroke="midnightblue" points="623.01,-143.97 633.48,-142.39 624.31,-137.1 623.01,-143.97"/>
</g>
<!-- Node7 -->
<g id="node7" class="node">
<title>Node7</title>
<g id="a_node7"><a xlink:href="HeroPrefabFactory_8cpp.html" target="_top" xlink:title=" ">
<polygon fill="none" stroke="black" points="408,-67.5 408,-97.5 534,-97.5 534,-67.5 408,-67.5"/>
<text text-anchor="start" x="416" y="-85.5" font-family="Helvetica,sans-Serif" font-size="10.00">src/Factories/HeroPrefab</text>
<text text-anchor="middle" x="471" y="-74.5" font-family="Helvetica,sans-Serif" font-size="10.00">Factory.cpp</text>
</a>
</g>
</g>
<!-- Node1&#45;&gt;Node7 -->
<g id="edge6" class="edge">
<title>Node1&#45;&gt;Node7</title>
<path fill="none" stroke="midnightblue" d="M623.68,-131.55C588.25,-120.4 546.54,-107.27 515.67,-97.56"/>
<polygon fill="midnightblue" stroke="midnightblue" points="622.91,-134.98 633.49,-134.64 625.01,-128.3 622.91,-134.98"/>
</g>
<!-- Node8 -->
<g id="node8" class="node">
<title>Node8</title>
<g id="a_node8"><a xlink:href="TowerPrefabFactory_8hpp.html" target="_top" xlink:title=" ">
<polygon fill="none" stroke="black" points="552,-67.5 552,-97.5 684,-97.5 684,-67.5 552,-67.5"/>
<text text-anchor="start" x="560" y="-85.5" font-family="Helvetica,sans-Serif" font-size="10.00">src/Factories/TowerPrefab</text>
<text text-anchor="middle" x="618" y="-74.5" font-family="Helvetica,sans-Serif" font-size="10.00">Factory.hpp</text>
</a>
</g>
</g>
<!-- Node1&#45;&gt;Node8 -->
<g id="edge7" class="edge">
<title>Node1&#45;&gt;Node8</title>
<path fill="none" stroke="midnightblue" d="M666.17,-127.6C655.17,-117.53 643.05,-106.44 633.72,-97.89"/>
<polygon fill="midnightblue" stroke="midnightblue" points="663.81,-130.19 673.55,-134.36 668.54,-125.03 663.81,-130.19"/>
</g>
<!-- Node10 -->
<g id="node10" class="node">
<title>Node10</title>
<g id="a_node10"><a xlink:href="LevelScene_8cpp.html" target="_top" xlink:title=" ">
<polygon fill="none" stroke="black" points="702.5,-73 702.5,-92 841.5,-92 841.5,-73 702.5,-73"/>
<text text-anchor="middle" x="772" y="-80" font-family="Helvetica,sans-Serif" font-size="10.00">src/Scenes/LevelScene.cpp</text>
</a>
</g>
</g>
<!-- Node1&#45;&gt;Node10 -->
<g id="edge10" class="edge">
<title>Node1&#45;&gt;Node10</title>
<path fill="none" stroke="midnightblue" d="M724.2,-127.27C737.77,-114.84 752.98,-100.91 762.53,-92.17"/>
<polygon fill="midnightblue" stroke="midnightblue" points="721.46,-125.03 716.45,-134.36 726.19,-130.19 721.46,-125.03"/>
</g>
<!-- Node11 -->
<g id="node11" class="node">
<title>Node11</title>
<g id="a_node11"><a xlink:href="AirstrikeAbilityBehaviour_8cpp.html" target="_top" xlink:title=" ">
<polygon fill="none" stroke="black" points="859.5,-67.5 859.5,-97.5 1002.5,-97.5 1002.5,-67.5 859.5,-67.5"/>
<text text-anchor="start" x="867.5" y="-85.5" font-family="Helvetica,sans-Serif" font-size="10.00">src/Scripts/Heroes</text>
<text text-anchor="middle" x="931" y="-74.5" font-family="Helvetica,sans-Serif" font-size="10.00">/AirstrikeAbilityBehaviour.cpp</text>
</a>
</g>
</g>
<!-- Node1&#45;&gt;Node11 -->
<g id="edge11" class="edge">
<title>Node1&#45;&gt;Node11</title>
<path fill="none" stroke="midnightblue" d="M766.69,-132.58C804.69,-121.23 850.31,-107.61 883.82,-97.59"/>
<polygon fill="midnightblue" stroke="midnightblue" points="765.28,-129.35 756.7,-135.57 767.28,-136.06 765.28,-129.35"/>
</g>
<!-- Node12 -->
<g id="node12" class="node">
<title>Node12</title>
<g id="a_node12"><a xlink:href="AnimatorUtil_8cpp.html" target="_top" xlink:title=" ">
<polygon fill="none" stroke="black" points="1021,-67.5 1021,-97.5 1153,-97.5 1153,-67.5 1021,-67.5"/>
<text text-anchor="start" x="1029" y="-85.5" font-family="Helvetica,sans-Serif" font-size="10.00">libs/spic&#45;engine/src</text>
<text text-anchor="middle" x="1087" y="-74.5" font-family="Helvetica,sans-Serif" font-size="10.00">/Api/Utils/AnimatorUtil.cpp</text>
</a>
</g>
</g>
<!-- Node1&#45;&gt;Node12 -->
<g id="edge12" class="edge">
<title>Node1&#45;&gt;Node12</title>
<path fill="none" stroke="midnightblue" d="M766.74,-141.67C831.03,-130.53 927.89,-113.56 1012,-98 1014.87,-97.47 1017.8,-96.92 1020.76,-96.37"/>
<polygon fill="midnightblue" stroke="midnightblue" points="765.97,-138.25 756.71,-143.4 767.16,-145.15 765.97,-138.25"/>
</g>
<!-- Node3 -->
<g id="node3" class="node">
<title>Node3</title>
<g id="a_node3"><a xlink:href="LevelController_8cpp.html" target="_top" xlink:title=" ">
<polygon fill="none" stroke="black" points="478,-6 478,-25 644,-25 644,-6 478,-6"/>
<text text-anchor="middle" x="561" y="-13" font-family="Helvetica,sans-Serif" font-size="10.00">src/Controllers/LevelController.cpp</text>
</a>
</g>
</g>
<!-- Node2&#45;&gt;Node3 -->
<g id="edge2" class="edge">
<title>Node2&#45;&gt;Node3</title>
<path fill="none" stroke="midnightblue" d="M384.04,-64.83C430.62,-52.11 492.87,-35.11 529.77,-25.03"/>
<polygon fill="midnightblue" stroke="midnightblue" points="383.07,-61.46 374.35,-67.48 384.92,-68.22 383.07,-61.46"/>
</g>
<!-- Node4 -->
<g id="node4" class="node">
<title>Node4</title>
<g id="a_node4"><a xlink:href="EnemyPrefabFactory_8cpp.html" target="_top" xlink:title=" ">
<polygon fill="none" stroke="black" points="0,-0.5 0,-30.5 134,-30.5 134,-0.5 0,-0.5"/>
<text text-anchor="start" x="8" y="-18.5" font-family="Helvetica,sans-Serif" font-size="10.00">src/Factories/EnemyPrefab</text>
<text text-anchor="middle" x="67" y="-7.5" font-family="Helvetica,sans-Serif" font-size="10.00">Factory.cpp</text>
</a>
</g>
</g>
<!-- Node2&#45;&gt;Node4 -->
<g id="edge3" class="edge">
<title>Node2&#45;&gt;Node4</title>
<path fill="none" stroke="midnightblue" d="M257.95,-64.98C216.14,-54.37 162.39,-40.72 122.58,-30.61"/>
<polygon fill="midnightblue" stroke="midnightblue" points="257.21,-68.41 267.77,-67.48 258.94,-61.62 257.21,-68.41"/>
</g>
<!-- Node5 -->
<g id="node5" class="node">
<title>Node5</title>
<g id="a_node5"><a xlink:href="WavePrefabFactory_8cpp.html" target="_top" xlink:title=" ">
<polygon fill="none" stroke="black" points="152,-0.5 152,-30.5 282,-30.5 282,-0.5 152,-0.5"/>
<text text-anchor="start" x="160" y="-18.5" font-family="Helvetica,sans-Serif" font-size="10.00">src/Factories/WavePrefab</text>
<text text-anchor="middle" x="217" y="-7.5" font-family="Helvetica,sans-Serif" font-size="10.00">Factory.cpp</text>
</a>
</g>
</g>
<!-- Node2&#45;&gt;Node5 -->
<g id="edge4" class="edge">
<title>Node2&#45;&gt;Node5</title>
<path fill="none" stroke="midnightblue" d="M291.22,-62.02C274.73,-51.9 254.95,-39.77 239.96,-30.58"/>
<polygon fill="midnightblue" stroke="midnightblue" points="289.65,-65.15 300,-67.4 293.3,-59.18 289.65,-65.15"/>
</g>
<!-- Node6 -->
<g id="node6" class="node">
<title>Node6</title>
<g id="a_node6"><a xlink:href="EnemyTroopTruckBehaviour_8cpp.html" target="_top" xlink:title=" ">
<polygon fill="none" stroke="black" points="300,-0.5 300,-30.5 460,-30.5 460,-0.5 300,-0.5"/>
<text text-anchor="start" x="308" y="-18.5" font-family="Helvetica,sans-Serif" font-size="10.00">src/Scripts/Enemies</text>
<text text-anchor="middle" x="380" y="-7.5" font-family="Helvetica,sans-Serif" font-size="10.00">/EnemyTroopTruckBehaviour.cpp</text>
</a>
</g>
</g>
<!-- Node2&#45;&gt;Node6 -->
<g id="edge5" class="edge">
<title>Node2&#45;&gt;Node6</title>
<path fill="none" stroke="midnightblue" d="M342.09,-59.74C350.52,-50.12 360.19,-39.09 367.66,-30.58"/>
<polygon fill="midnightblue" stroke="midnightblue" points="339.33,-57.57 335.37,-67.4 344.59,-62.18 339.33,-57.57"/>
</g>
<!-- Node8&#45;&gt;Node3 -->
<g id="edge8" class="edge">
<title>Node8&#45;&gt;Node3</title>
<path fill="none" stroke="midnightblue" d="M598.85,-59.66C588.5,-47.86 576.32,-33.97 568.62,-25.19"/>
<polygon fill="midnightblue" stroke="midnightblue" points="596.41,-62.18 605.63,-67.4 601.67,-57.57 596.41,-62.18"/>
</g>
<!-- Node9 -->
<g id="node9" class="node">
<title>Node9</title>
<g id="a_node9"><a xlink:href="TowerPrefabFactory_8cpp.html" target="_top" xlink:title=" ">
<polygon fill="none" stroke="black" points="662,-0.5 662,-30.5 794,-30.5 794,-0.5 662,-0.5"/>
<text text-anchor="start" x="670" y="-18.5" font-family="Helvetica,sans-Serif" font-size="10.00">src/Factories/TowerPrefab</text>
<text text-anchor="middle" x="728" y="-7.5" font-family="Helvetica,sans-Serif" font-size="10.00">Factory.cpp</text>
</a>
</g>
</g>
<!-- Node8&#45;&gt;Node9 -->
<g id="edge9" class="edge">
<title>Node8&#45;&gt;Node9</title>
<path fill="none" stroke="midnightblue" d="M650.5,-62.3C667.71,-52.12 688.48,-39.85 704.18,-30.58"/>
<polygon fill="midnightblue" stroke="midnightblue" points="648.7,-59.3 641.87,-67.4 652.26,-65.32 648.7,-59.3"/>
</g>
</g>
</svg>
