<?xml version="1.0" encoding="UTF-8" standalone="no"?>
<!DOCTYPE svg PUBLIC "-//W3C//DTD SVG 1.1//EN"
 "http://www.w3.org/Graphics/SVG/1.1/DTD/svg11.dtd">
<!-- Generated by graphviz version 2.44.0 ()
 -->
<!-- Title: libs/spic&#45;engine/src/Subsystems/AnimatorSubsystem.hpp Pages: 1 -->
<svg width="358pt" height="173pt"
 viewBox="0.00 0.00 357.50 173.00" xmlns="http://www.w3.org/2000/svg" xmlns:xlink="http://www.w3.org/1999/xlink">
<g id="graph0" class="graph" transform="scale(1 1) rotate(0) translate(4 169)">
<title>libs/spic&#45;engine/src/Subsystems/AnimatorSubsystem.hpp</title>
<!-- Node1 -->
<g id="node1" class="node">
<title>Node1</title>
<g id="a_node1"><a xlink:title=" ">
<polygon fill="#bfbfbf" stroke="black" points="92,-134.5 92,-164.5 274,-164.5 274,-134.5 92,-134.5"/>
<text text-anchor="start" x="100" y="-152.5" font-family="Helvetica,sans-Serif" font-size="10.00">libs/spic&#45;engine/src</text>
<text text-anchor="middle" x="183" y="-141.5" font-family="Helvetica,sans-Serif" font-size="10.00">/Subsystems/AnimatorSubsystem.hpp</text>
</a>
</g>
</g>
<!-- Node2 -->
<g id="node2" class="node">
<title>Node2</title>
<g id="a_node2"><a xlink:href="AnimatorSubsystem_8cpp.html" target="_top" xlink:title=" ">
<polygon fill="none" stroke="black" points="0,-67.5 0,-97.5 182,-97.5 182,-67.5 0,-67.5"/>
<text text-anchor="start" x="8" y="-85.5" font-family="Helvetica,sans-Serif" font-size="10.00">libs/spic&#45;engine/src</text>
<text text-anchor="middle" x="91" y="-74.5" font-family="Helvetica,sans-Serif" font-size="10.00">/Subsystems/AnimatorSubsystem.cpp</text>
</a>
</g>
</g>
<!-- Node1&#45;&gt;Node2 -->
<g id="edge1" class="edge">
<title>Node1&#45;&gt;Node2</title>
<path fill="none" stroke="midnightblue" d="M154.62,-128.45C140.47,-118.45 123.69,-106.6 110.92,-97.58"/>
<polygon fill="midnightblue" stroke="midnightblue" points="152.85,-131.48 163.04,-134.4 156.89,-125.77 152.85,-131.48"/>
</g>
<!-- Node3 -->
<g id="node3" class="node">
<title>Node3</title>
<g id="a_node3"><a xlink:href="Subsystems_8hpp.html" target="_top" xlink:title=" ">
<polygon fill="none" stroke="black" points="200.5,-67.5 200.5,-97.5 349.5,-97.5 349.5,-67.5 200.5,-67.5"/>
<text text-anchor="start" x="208.5" y="-85.5" font-family="Helvetica,sans-Serif" font-size="10.00">libs/spic&#45;engine/src</text>
<text text-anchor="middle" x="275" y="-74.5" font-family="Helvetica,sans-Serif" font-size="10.00">/Subsystems/Subsystems.hpp</text>
</a>
</g>
</g>
<!-- Node1&#45;&gt;Node3 -->
<g id="edge2" class="edge">
<title>Node1&#45;&gt;Node3</title>
<path fill="none" stroke="midnightblue" d="M211.38,-128.45C225.53,-118.45 242.31,-106.6 255.08,-97.58"/>
<polygon fill="midnightblue" stroke="midnightblue" points="209.11,-125.77 202.96,-134.4 213.15,-131.48 209.11,-125.77"/>
</g>
<!-- Node4 -->
<g id="node4" class="node">
<title>Node4</title>
<g id="a_node4"><a xlink:href="Engine_8cpp.html" target="_top" xlink:title=" ">
<polygon fill="none" stroke="black" points="224.5,-0.5 224.5,-30.5 325.5,-30.5 325.5,-0.5 224.5,-0.5"/>
<text text-anchor="start" x="232.5" y="-18.5" font-family="Helvetica,sans-Serif" font-size="10.00">libs/spic&#45;engine/src</text>
<text text-anchor="middle" x="275" y="-7.5" font-family="Helvetica,sans-Serif" font-size="10.00">/Api/Engine.cpp</text>
</a>
</g>
</g>
<!-- Node3&#45;&gt;Node4 -->
<g id="edge3" class="edge">
<title>Node3&#45;&gt;Node4</title>
<path fill="none" stroke="midnightblue" d="M275,-57.11C275,-48.15 275,-38.32 275,-30.58"/>
<polygon fill="midnightblue" stroke="midnightblue" points="271.5,-57.4 275,-67.4 278.5,-57.4 271.5,-57.4"/>
</g>
</g>
</svg>
