<?xml version="1.0" encoding="UTF-8" standalone="no"?>
<!DOCTYPE svg PUBLIC "-//W3C//DTD SVG 1.1//EN"
 "http://www.w3.org/Graphics/SVG/1.1/DTD/svg11.dtd">
<!-- Generated by graphviz version 2.44.0 ()
 -->
<!-- Title: libs/spic&#45;engine/includes/spic&#45;api&#45;headers/Animator.hpp Pages: 1 -->
<svg width="245pt" height="207pt"
 viewBox="0.00 0.00 245.00 207.00" xmlns="http://www.w3.org/2000/svg" xmlns:xlink="http://www.w3.org/1999/xlink">
<g id="graph0" class="graph" transform="scale(1 1) rotate(0) translate(4 203)">
<title>libs/spic&#45;engine/includes/spic&#45;api&#45;headers/Animator.hpp</title>
<!-- Node1 -->
<g id="node1" class="node">
<title>Node1</title>
<g id="a_node1"><a xlink:title=" ">
<polygon fill="#bfbfbf" stroke="black" points="14,-168.5 14,-198.5 165,-198.5 165,-168.5 14,-168.5"/>
<text text-anchor="start" x="22" y="-186.5" font-family="Helvetica,sans-Serif" font-size="10.00">libs/spic&#45;engine/includes</text>
<text text-anchor="middle" x="89.5" y="-175.5" font-family="Helvetica,sans-Serif" font-size="10.00">/spic&#45;api&#45;headers/Animator.hpp</text>
</a>
</g>
</g>
<!-- Node2 -->
<g id="node2" class="node">
<title>Node2</title>
<g id="a_node2"><a xlink:href="Component_8hpp.html" target="_top" xlink:title=" ">
<polygon fill="none" stroke="black" points="18.5,-56.5 18.5,-75.5 102.5,-75.5 102.5,-56.5 18.5,-56.5"/>
<text text-anchor="middle" x="60.5" y="-63.5" font-family="Helvetica,sans-Serif" font-size="10.00">Component.hpp</text>
</a>
</g>
</g>
<!-- Node1&#45;&gt;Node2 -->
<g id="edge1" class="edge">
<title>Node1&#45;&gt;Node2</title>
<path fill="none" stroke="midnightblue" d="M85.94,-168.34C80.72,-147.53 70.96,-108.66 65.17,-85.58"/>
<polygon fill="midnightblue" stroke="midnightblue" points="68.51,-84.52 62.68,-75.67 61.72,-86.22 68.51,-84.52"/>
</g>
<!-- Node3 -->
<g id="node3" class="node">
<title>Node3</title>
<g id="a_node3"><a xlink:title=" ">
<polygon fill="none" stroke="#bfbfbf" points="0,-0.5 0,-19.5 51,-19.5 51,-0.5 0,-0.5"/>
<text text-anchor="middle" x="25.5" y="-7.5" font-family="Helvetica,sans-Serif" font-size="10.00">memory</text>
</a>
</g>
</g>
<!-- Node1&#45;&gt;Node3 -->
<g id="edge8" class="edge">
<title>Node1&#45;&gt;Node3</title>
<path fill="none" stroke="midnightblue" d="M74.06,-168.47C54.62,-149.65 22.24,-114.17 9.5,-76 4.27,-60.34 9.77,-42.05 15.7,-28.87"/>
<polygon fill="midnightblue" stroke="midnightblue" points="19.03,-30.05 20.36,-19.54 12.76,-26.93 19.03,-30.05"/>
</g>
<!-- Node4 -->
<g id="node4" class="node">
<title>Node4</title>
<g id="a_node4"><a xlink:href="Sprite_8hpp.html" target="_top" xlink:title=" ">
<polygon fill="none" stroke="black" points="88.5,-112.5 88.5,-131.5 148.5,-131.5 148.5,-112.5 88.5,-112.5"/>
<text text-anchor="middle" x="118.5" y="-119.5" font-family="Helvetica,sans-Serif" font-size="10.00">Sprite.hpp</text>
</a>
</g>
</g>
<!-- Node1&#45;&gt;Node4 -->
<g id="edge3" class="edge">
<title>Node1&#45;&gt;Node4</title>
<path fill="none" stroke="midnightblue" d="M96.37,-168.4C100.41,-160.11 105.56,-149.55 109.87,-140.71"/>
<polygon fill="midnightblue" stroke="midnightblue" points="113.05,-142.18 114.28,-131.66 106.75,-139.11 113.05,-142.18"/>
</g>
<!-- Node7 -->
<g id="node7" class="node">
<title>Node7</title>
<g id="a_node7"><a xlink:title=" ">
<polygon fill="none" stroke="#bfbfbf" points="166.5,-112.5 166.5,-131.5 210.5,-131.5 210.5,-112.5 166.5,-112.5"/>
<text text-anchor="middle" x="188.5" y="-119.5" font-family="Helvetica,sans-Serif" font-size="10.00">vector</text>
</a>
</g>
</g>
<!-- Node1&#45;&gt;Node7 -->
<g id="edge7" class="edge">
<title>Node1&#45;&gt;Node7</title>
<path fill="none" stroke="midnightblue" d="M112.96,-168.4C128.83,-158.86 149.69,-146.32 165.47,-136.84"/>
<polygon fill="midnightblue" stroke="midnightblue" points="167.33,-139.81 174.09,-131.66 163.72,-133.81 167.33,-139.81"/>
</g>
<!-- Node2&#45;&gt;Node3 -->
<g id="edge2" class="edge">
<title>Node2&#45;&gt;Node3</title>
<path fill="none" stroke="midnightblue" d="M54.72,-56.08C49.83,-48.53 42.67,-37.49 36.67,-28.23"/>
<polygon fill="midnightblue" stroke="midnightblue" points="39.55,-26.24 31.17,-19.75 33.67,-30.05 39.55,-26.24"/>
</g>
<!-- Node4&#45;&gt;Node2 -->
<g id="edge4" class="edge">
<title>Node4&#45;&gt;Node2</title>
<path fill="none" stroke="midnightblue" d="M109.18,-112.32C100.61,-104.34 87.69,-92.31 77.31,-82.65"/>
<polygon fill="midnightblue" stroke="midnightblue" points="79.69,-80.09 69.99,-75.83 74.92,-85.21 79.69,-80.09"/>
</g>
<!-- Node5 -->
<g id="node5" class="node">
<title>Node5</title>
<g id="a_node5"><a xlink:href="Color_8hpp.html" target="_top" xlink:title=" ">
<polygon fill="none" stroke="black" points="121,-56.5 121,-75.5 178,-75.5 178,-56.5 121,-56.5"/>
<text text-anchor="middle" x="149.5" y="-63.5" font-family="Helvetica,sans-Serif" font-size="10.00">Color.hpp</text>
</a>
</g>
</g>
<!-- Node4&#45;&gt;Node5 -->
<g id="edge5" class="edge">
<title>Node4&#45;&gt;Node5</title>
<path fill="none" stroke="midnightblue" d="M123.62,-112.08C127.91,-104.61 134.16,-93.72 139.44,-84.52"/>
<polygon fill="midnightblue" stroke="midnightblue" points="142.53,-86.17 144.48,-75.75 136.46,-82.68 142.53,-86.17"/>
</g>
<!-- Node6 -->
<g id="node6" class="node">
<title>Node6</title>
<g id="a_node6"><a xlink:title=" ">
<polygon fill="none" stroke="#bfbfbf" points="196,-56.5 196,-75.5 237,-75.5 237,-56.5 196,-56.5"/>
<text text-anchor="middle" x="216.5" y="-63.5" font-family="Helvetica,sans-Serif" font-size="10.00">string</text>
</a>
</g>
</g>
<!-- Node4&#45;&gt;Node6 -->
<g id="edge6" class="edge">
<title>Node4&#45;&gt;Node6</title>
<path fill="none" stroke="midnightblue" d="M134.25,-112.32C149.82,-103.74 173.88,-90.49 191.96,-80.52"/>
<polygon fill="midnightblue" stroke="midnightblue" points="193.72,-83.55 200.79,-75.65 190.35,-77.42 193.72,-83.55"/>
</g>
</g>
</svg>
