<?xml version="1.0" encoding="UTF-8" standalone="no"?>
<!DOCTYPE svg PUBLIC "-//W3C//DTD SVG 1.1//EN"
 "http://www.w3.org/Graphics/SVG/1.1/DTD/svg11.dtd">
<!-- Generated by graphviz version 2.44.0 ()
 -->
<!-- Title: libs/spic&#45;engine/includes/spic&#45;api&#45;headers/Api.hpp Pages: 1 -->
<!--zoomable 319 -->
<svg id="main" version="1.1" xmlns="http://www.w3.org/2000/svg" xmlns:xlink="http://www.w3.org/1999/xlink" xml:space="preserve" onload="init(evt)">
<style type="text/css"><![CDATA[
.edge:hover path { stroke: red; }
.edge:hover polygon { stroke: red; fill: red; }
]]></style>
<script type="text/javascript"><![CDATA[
var edges = document.getElementsByTagName('g');
if (edges && edges.length) {
  for (var i=0;i<edges.length;i++) {
    if (edges[i].id.substr(0,4)=='edge') {
      edges[i].setAttribute('class','edge');
    }
  }
}
]]></script>
        <defs>
                <circle id="rim" cx="0" cy="0" r="7"/>
                <circle id="rim2" cx="0" cy="0" r="3.5"/>
                <g id="zoomPlus">
                        <use xlink:href="#rim" fill="#404040">
                                <set attributeName="fill" to="#808080" begin="zoomplus.mouseover" end="zoomplus.mouseout"/>
                        </use>
                        <path d="M-4,0h8M0,-4v8" fill="none" stroke="white" stroke-width="1.5" pointer-events="none"/>
                </g>
                <g id="zoomMin">
                        <use xlink:href="#rim" fill="#404040">
                                <set attributeName="fill" to="#808080" begin="zoomminus.mouseover" end="zoomminus.mouseout"/>
                        </use>
                        <path d="M-4,0h8" fill="none" stroke="white" stroke-width="1.5" pointer-events="none"/>
                </g>
                <g id="dirArrow">
                        <path fill="none" stroke="white" stroke-width="1.5" d="M0,-3.0v7 M-2.5,-0.5L0,-3.0L2.5,-0.5"/>
                </g>
               <g id="resetDef">
                       <use xlink:href="#rim2" fill="#404040">
                               <set attributeName="fill" to="#808080" begin="reset.mouseover" end="reset.mouseout"/>
                       </use>
               </g>
        </defs>

<script type="text/javascript">
var viewWidth = 1605;
var viewHeight = 319;
var sectionId = 'dynsection-0';
</script>
<script xlink:href="svgpan.js"/>
<svg id="graph" class="graph">
<g id="viewport">
<title>libs/spic&#45;engine/includes/spic&#45;api&#45;headers/Api.hpp</title>
<!-- Node1 -->
<g id="node1" class="node">
<title>Node1</title>
<g id="a_node1"><a xlink:title=" ">
<polygon fill="#bfbfbf" stroke="black" points="748,-280.5 748,-310.5 874,-310.5 874,-280.5 748,-280.5"/>
<text text-anchor="start" x="756" y="-298.5" font-family="Helvetica,sans-Serif" font-size="10.00">libs/spic&#45;engine/includes</text>
<text text-anchor="middle" x="811" y="-287.5" font-family="Helvetica,sans-Serif" font-size="10.00">/spic&#45;api&#45;headers/Api.hpp</text>
</a>
</g>
</g>
<!-- Node2 -->
<g id="node2" class="node">
<title>Node2</title>
<g id="a_node2"><a xlink:href="Animator_8hpp.html" target="_top" xlink:title=" ">
<polygon fill="none" stroke="black" points="356,-168.5 356,-187.5 430,-187.5 430,-168.5 356,-168.5"/>
<text text-anchor="middle" x="393" y="-175.5" font-family="Helvetica,sans-Serif" font-size="10.00">Animator.hpp</text>
</a>
</g>
</g>
<!-- Node1&#45;&gt;Node2 -->
<g id="edge1" class="edge">
<title>Node1&#45;&gt;Node2</title>
<path fill="none" stroke="midnightblue" d="M747.96,-291.5C657.04,-286.22 494.48,-272.98 444,-244 425.02,-233.1 410.55,-212.11 401.95,-196.92"/>
<polygon fill="midnightblue" stroke="midnightblue" points="404.96,-195.12 397.16,-187.94 398.78,-198.41 404.96,-195.12"/>
</g>
<!-- Node3 -->
<g id="node3" class="node">
<title>Node3</title>
<g id="a_node3"><a xlink:href="Component_8hpp.html" target="_top" xlink:title=" ">
<polygon fill="none" stroke="black" points="380,-56.5 380,-75.5 464,-75.5 464,-56.5 380,-56.5"/>
<text text-anchor="middle" x="422" y="-63.5" font-family="Helvetica,sans-Serif" font-size="10.00">Component.hpp</text>
</a>
</g>
</g>
<!-- Node1&#45;&gt;Node3 -->
<g id="edge36" class="edge">
<title>Node1&#45;&gt;Node3</title>
<path fill="none" stroke="midnightblue" d="M747.72,-290.56C651.95,-283.9 475.17,-268.67 417,-244 374.72,-226.07 339.16,-213.25 347,-168 351.51,-141.96 351.77,-133.6 367,-112 375.53,-99.91 388.14,-89.27 399.13,-81.37"/>
<polygon fill="midnightblue" stroke="midnightblue" points="401.21,-84.19 407.49,-75.66 397.26,-78.41 401.21,-84.19"/>
</g>
<!-- Node5 -->
<g id="node5" class="node">
<title>Node5</title>
<g id="a_node5"><a xlink:href="Sprite_8hpp.html" target="_top" xlink:title=" ">
<polygon fill="none" stroke="black" points="625,-112.5 625,-131.5 685,-131.5 685,-112.5 625,-112.5"/>
<text text-anchor="middle" x="655" y="-119.5" font-family="Helvetica,sans-Serif" font-size="10.00">Sprite.hpp</text>
</a>
</g>
</g>
<!-- Node1&#45;&gt;Node5 -->
<g id="edge62" class="edge">
<title>Node1&#45;&gt;Node5</title>
<path fill="none" stroke="midnightblue" d="M747.81,-291.72C709.54,-286.76 662.42,-274.32 632,-244 607.55,-219.63 603.94,-200.34 616,-168 620.17,-156.81 628.52,-146.56 636.42,-138.68"/>
<polygon fill="midnightblue" stroke="midnightblue" points="639.06,-141 644.01,-131.63 634.3,-135.87 639.06,-141"/>
</g>
<!-- Node6 -->
<g id="node6" class="node">
<title>Node6</title>
<g id="a_node6"><a xlink:href="Color_8hpp.html" target="_top" xlink:title=" ">
<polygon fill="none" stroke="black" points="1099.5,-56.5 1099.5,-75.5 1156.5,-75.5 1156.5,-56.5 1099.5,-56.5"/>
<text text-anchor="middle" x="1128" y="-63.5" font-family="Helvetica,sans-Serif" font-size="10.00">Color.hpp</text>
</a>
</g>
</g>
<!-- Node1&#45;&gt;Node6 -->
<g id="edge35" class="edge">
<title>Node1&#45;&gt;Node6</title>
<path fill="none" stroke="midnightblue" d="M874.16,-291.92C951.67,-287.42 1076.92,-275.39 1110,-244 1153.65,-202.57 1141.28,-121.67 1132.88,-85.38"/>
<polygon fill="midnightblue" stroke="midnightblue" points="1136.27,-84.51 1130.47,-75.65 1129.48,-86.2 1136.27,-84.51"/>
</g>
<!-- Node9 -->
<g id="node9" class="node">
<title>Node9</title>
<g id="a_node9"><a xlink:href="AudioSource_8hpp.html" target="_top" xlink:title=" ">
<polygon fill="none" stroke="black" points="517,-112.5 517,-131.5 607,-131.5 607,-112.5 517,-112.5"/>
<text text-anchor="middle" x="562" y="-119.5" font-family="Helvetica,sans-Serif" font-size="10.00">AudioSource.hpp</text>
</a>
</g>
</g>
<!-- Node1&#45;&gt;Node9 -->
<g id="edge10" class="edge">
<title>Node1&#45;&gt;Node9</title>
<path fill="none" stroke="midnightblue" d="M747.84,-293.03C704.67,-288.86 648.67,-276.82 611,-244 580.2,-217.17 568.48,-168.13 564.24,-141.46"/>
<polygon fill="midnightblue" stroke="midnightblue" points="567.7,-140.95 562.85,-131.53 560.77,-141.92 567.7,-140.95"/>
</g>
<!-- Node10 -->
<g id="node10" class="node">
<title>Node10</title>
<g id="a_node10"><a xlink:href="BehaviourScript_8hpp.html" target="_top" xlink:title=" ">
<polygon fill="none" stroke="black" points="0,-224.5 0,-243.5 104,-243.5 104,-224.5 0,-224.5"/>
<text text-anchor="middle" x="52" y="-231.5" font-family="Helvetica,sans-Serif" font-size="10.00">BehaviourScript.hpp</text>
</a>
</g>
</g>
<!-- Node1&#45;&gt;Node10 -->
<g id="edge13" class="edge">
<title>Node1&#45;&gt;Node10</title>
<path fill="none" stroke="midnightblue" d="M747.82,-291.23C625.85,-284.61 349.56,-268.2 118,-244 116.74,-243.87 115.46,-243.73 114.18,-243.59"/>
<polygon fill="midnightblue" stroke="midnightblue" points="114.54,-240.11 104.2,-242.43 113.73,-247.06 114.54,-240.11"/>
</g>
<!-- Node11 -->
<g id="node11" class="node">
<title>Node11</title>
<g id="a_node11"><a xlink:href="Collider_8hpp.html" target="_top" xlink:title=" ">
<polygon fill="none" stroke="black" points="168.5,-168.5 168.5,-187.5 235.5,-187.5 235.5,-168.5 168.5,-168.5"/>
<text text-anchor="middle" x="202" y="-175.5" font-family="Helvetica,sans-Serif" font-size="10.00">Collider.hpp</text>
</a>
</g>
</g>
<!-- Node1&#45;&gt;Node11 -->
<g id="edge34" class="edge">
<title>Node1&#45;&gt;Node11</title>
<path fill="none" stroke="midnightblue" d="M747.91,-294.43C590.66,-293.61 191.05,-287.23 151,-244 135.63,-227.41 158.54,-206.6 178.4,-193.06"/>
<polygon fill="midnightblue" stroke="midnightblue" points="180.4,-195.94 186.89,-187.56 176.59,-190.06 180.4,-195.94"/>
</g>
<!-- Node12 -->
<g id="node12" class="node">
<title>Node12</title>
<g id="a_node12"><a xlink:href="BoxCollider_8hpp.html" target="_top" xlink:title=" ">
<polygon fill="none" stroke="black" points="160.5,-224.5 160.5,-243.5 243.5,-243.5 243.5,-224.5 160.5,-224.5"/>
<text text-anchor="middle" x="202" y="-231.5" font-family="Helvetica,sans-Serif" font-size="10.00">BoxCollider.hpp</text>
</a>
</g>
</g>
<!-- Node1&#45;&gt;Node12 -->
<g id="edge17" class="edge">
<title>Node1&#45;&gt;Node12</title>
<path fill="none" stroke="midnightblue" d="M747.63,-290.51C645.74,-283.72 439.05,-268.35 253.64,-243.97"/>
<polygon fill="midnightblue" stroke="midnightblue" points="254.08,-240.5 243.7,-242.66 253.16,-247.44 254.08,-240.5"/>
</g>
<!-- Node13 -->
<g id="node13" class="node">
<title>Node13</title>
<g id="a_node13"><a xlink:href="Button_8hpp.html" target="_top" xlink:title=" ">
<polygon fill="none" stroke="black" points="689.5,-224.5 689.5,-243.5 752.5,-243.5 752.5,-224.5 689.5,-224.5"/>
<text text-anchor="middle" x="721" y="-231.5" font-family="Helvetica,sans-Serif" font-size="10.00">Button.hpp</text>
</a>
</g>
</g>
<!-- Node1&#45;&gt;Node13 -->
<g id="edge19" class="edge">
<title>Node1&#45;&gt;Node13</title>
<path fill="none" stroke="midnightblue" d="M789.67,-280.4C775.51,-271.04 756.99,-258.79 742.75,-249.38"/>
<polygon fill="midnightblue" stroke="midnightblue" points="744.37,-246.25 734.1,-243.66 740.51,-252.09 744.37,-246.25"/>
</g>
<!-- Node14 -->
<g id="node14" class="node">
<title>Node14</title>
<g id="a_node14"><a xlink:href="UIObject_8hpp.html" target="_top" xlink:title=" ">
<polygon fill="none" stroke="black" points="754,-168.5 754,-187.5 828,-187.5 828,-168.5 754,-168.5"/>
<text text-anchor="middle" x="791" y="-175.5" font-family="Helvetica,sans-Serif" font-size="10.00">UIObject.hpp</text>
</a>
</g>
</g>
<!-- Node1&#45;&gt;Node14 -->
<g id="edge69" class="edge">
<title>Node1&#45;&gt;Node14</title>
<path fill="none" stroke="midnightblue" d="M807.63,-280.41C805.28,-270.31 802.2,-256.37 800,-244 797.25,-228.56 794.86,-210.93 793.23,-197.93"/>
<polygon fill="midnightblue" stroke="midnightblue" points="796.69,-197.37 792.01,-187.87 789.74,-198.21 796.69,-197.37"/>
</g>
<!-- Node15 -->
<g id="node15" class="node">
<title>Node15</title>
<g id="a_node15"><a xlink:href="GameObject_8hpp.html" target="_top" xlink:title=" ">
<polygon fill="none" stroke="black" points="782.5,-112.5 782.5,-131.5 871.5,-131.5 871.5,-112.5 782.5,-112.5"/>
<text text-anchor="middle" x="827" y="-119.5" font-family="Helvetica,sans-Serif" font-size="10.00">GameObject.hpp</text>
</a>
</g>
</g>
<!-- Node1&#45;&gt;Node15 -->
<g id="edge49" class="edge">
<title>Node1&#45;&gt;Node15</title>
<path fill="none" stroke="midnightblue" d="M756.12,-280.45C688.69,-260.54 588.05,-220.61 630,-168 634.55,-162.29 716.52,-144.97 773.27,-133.56"/>
<polygon fill="midnightblue" stroke="midnightblue" points="774.08,-136.97 783.2,-131.57 772.71,-130.1 774.08,-136.97"/>
</g>
<!-- Node16 -->
<g id="node16" class="node">
<title>Node16</title>
<g id="a_node16"><a xlink:href="Transform_8hpp.html" target="_top" xlink:title=" ">
<polygon fill="none" stroke="black" points="1175.5,-56.5 1175.5,-75.5 1254.5,-75.5 1254.5,-56.5 1175.5,-56.5"/>
<text text-anchor="middle" x="1215" y="-63.5" font-family="Helvetica,sans-Serif" font-size="10.00">Transform.hpp</text>
</a>
</g>
</g>
<!-- Node1&#45;&gt;Node16 -->
<g id="edge68" class="edge">
<title>Node1&#45;&gt;Node16</title>
<path fill="none" stroke="midnightblue" d="M874,-293.12C970.64,-289.9 1149.8,-279.21 1202,-244 1255.89,-207.65 1291.45,-171.38 1265,-112 1259.43,-99.5 1248.48,-89.01 1238.25,-81.32"/>
<polygon fill="midnightblue" stroke="midnightblue" points="1240.16,-78.38 1229.95,-75.53 1236.15,-84.12 1240.16,-78.38"/>
</g>
<!-- Node17 -->
<g id="node17" class="node">
<title>Node17</title>
<g id="a_node17"><a xlink:href="Point_8hpp.html" target="_top" xlink:title=" ">
<polygon fill="none" stroke="black" points="1254.5,-0.5 1254.5,-19.5 1311.5,-19.5 1311.5,-0.5 1254.5,-0.5"/>
<text text-anchor="middle" x="1283" y="-7.5" font-family="Helvetica,sans-Serif" font-size="10.00">Point.hpp</text>
</a>
</g>
</g>
<!-- Node1&#45;&gt;Node17 -->
<g id="edge57" class="edge">
<title>Node1&#45;&gt;Node17</title>
<path fill="none" stroke="midnightblue" d="M874.08,-292.16C975.22,-287.54 1168.43,-274.87 1229,-244 1259.26,-228.58 1268.3,-219.5 1281,-188 1302.79,-133.95 1293.39,-62.85 1287.06,-29.62"/>
<polygon fill="midnightblue" stroke="midnightblue" points="1290.43,-28.63 1285,-19.53 1283.57,-30.03 1290.43,-28.63"/>
</g>
<!-- Node19 -->
<g id="node19" class="node">
<title>Node19</title>
<g id="a_node19"><a xlink:href="Camera_8hpp.html" target="_top" xlink:title=" ">
<polygon fill="none" stroke="black" points="994,-168.5 994,-187.5 1062,-187.5 1062,-168.5 994,-168.5"/>
<text text-anchor="middle" x="1028" y="-175.5" font-family="Helvetica,sans-Serif" font-size="10.00">Camera.hpp</text>
</a>
</g>
</g>
<!-- Node1&#45;&gt;Node19 -->
<g id="edge29" class="edge">
<title>Node1&#45;&gt;Node19</title>
<path fill="none" stroke="midnightblue" d="M874.27,-285.57C907.98,-278.46 948.81,-265.92 980,-244 997.35,-231.81 1010.94,-211.36 1019.17,-196.65"/>
<polygon fill="midnightblue" stroke="midnightblue" points="1022.4,-198.03 1023.98,-187.56 1016.21,-194.75 1022.4,-198.03"/>
</g>
<!-- Node20 -->
<g id="node20" class="node">
<title>Node20</title>
<g id="a_node20"><a xlink:href="CircleCollider_8hpp.html" target="_top" xlink:title=" ">
<polygon fill="none" stroke="black" points="262,-224.5 262,-243.5 354,-243.5 354,-224.5 262,-224.5"/>
<text text-anchor="middle" x="308" y="-231.5" font-family="Helvetica,sans-Serif" font-size="10.00">CircleCollider.hpp</text>
</a>
</g>
</g>
<!-- Node1&#45;&gt;Node20 -->
<g id="edge32" class="edge">
<title>Node1&#45;&gt;Node20</title>
<path fill="none" stroke="midnightblue" d="M747.82,-288.01C661.8,-279.01 503.07,-261.82 368,-244 366.74,-243.83 365.46,-243.66 364.17,-243.49"/>
<polygon fill="midnightblue" stroke="midnightblue" points="364.55,-240.01 354.16,-242.09 363.59,-246.94 364.55,-240.01"/>
</g>
<!-- Node21 -->
<g id="node21" class="node">
<title>Node21</title>
<g id="a_node21"><a xlink:href="Debug_8hpp.html" target="_top" xlink:title=" ">
<polygon fill="none" stroke="black" points="1194,-112.5 1194,-131.5 1256,-131.5 1256,-112.5 1194,-112.5"/>
<text text-anchor="middle" x="1225" y="-119.5" font-family="Helvetica,sans-Serif" font-size="10.00">Debug.hpp</text>
</a>
</g>
</g>
<!-- Node1&#45;&gt;Node21 -->
<g id="edge37" class="edge">
<title>Node1&#45;&gt;Node21</title>
<path fill="none" stroke="midnightblue" d="M874.16,-293.5C966.95,-290.79 1134.08,-280.79 1180,-244 1211.53,-218.74 1220.97,-169.07 1223.79,-141.88"/>
<polygon fill="midnightblue" stroke="midnightblue" points="1227.3,-142 1224.64,-131.74 1220.32,-141.41 1227.3,-142"/>
</g>
<!-- Node22 -->
<g id="node22" class="node">
<title>Node22</title>
<g id="a_node22"><a xlink:href="Engine_8hpp.html" target="_top" xlink:title=" ">
<polygon fill="none" stroke="black" points="809,-224.5 809,-243.5 873,-243.5 873,-224.5 809,-224.5"/>
<text text-anchor="middle" x="841" y="-231.5" font-family="Helvetica,sans-Serif" font-size="10.00">Engine.hpp</text>
</a>
</g>
</g>
<!-- Node1&#45;&gt;Node22 -->
<g id="edge41" class="edge">
<title>Node1&#45;&gt;Node22</title>
<path fill="none" stroke="midnightblue" d="M818.11,-280.4C822.29,-272.11 827.61,-261.55 832.07,-252.71"/>
<polygon fill="midnightblue" stroke="midnightblue" points="835.26,-254.16 836.63,-243.66 829.01,-251.01 835.26,-254.16"/>
</g>
<!-- Node23 -->
<g id="node23" class="node">
<title>Node23</title>
<g id="a_node23"><a xlink:href="EngineConfig_8hpp.html" target="_top" xlink:title=" ">
<polygon fill="none" stroke="black" points="846.5,-168.5 846.5,-187.5 937.5,-187.5 937.5,-168.5 846.5,-168.5"/>
<text text-anchor="middle" x="892" y="-175.5" font-family="Helvetica,sans-Serif" font-size="10.00">EngineConfig.hpp</text>
</a>
</g>
</g>
<!-- Node1&#45;&gt;Node23 -->
<g id="edge48" class="edge">
<title>Node1&#45;&gt;Node23</title>
<path fill="none" stroke="midnightblue" d="M841.03,-280.39C855.73,-271.91 872.31,-259.71 882,-244 890.52,-230.18 892.66,-211.66 892.88,-197.93"/>
<polygon fill="midnightblue" stroke="midnightblue" points="896.38,-197.66 892.71,-187.72 889.38,-197.78 896.38,-197.66"/>
</g>
<!-- Node24 -->
<g id="node24" class="node">
<title>Node24</title>
<g id="a_node24"><a xlink:href="WindowConfig_8hpp.html" target="_top" xlink:title=" ">
<polygon fill="none" stroke="black" points="890,-112.5 890,-131.5 986,-131.5 986,-112.5 890,-112.5"/>
<text text-anchor="middle" x="938" y="-119.5" font-family="Helvetica,sans-Serif" font-size="10.00">WindowConfig.hpp</text>
</a>
</g>
</g>
<!-- Node1&#45;&gt;Node24 -->
<g id="edge70" class="edge">
<title>Node1&#45;&gt;Node24</title>
<path fill="none" stroke="midnightblue" d="M845.73,-280.4C880.16,-264.11 930.14,-233.56 947,-188 952.61,-172.82 949.23,-154.48 945.1,-141.15"/>
<polygon fill="midnightblue" stroke="midnightblue" points="948.4,-139.98 941.79,-131.7 941.79,-142.29 948.4,-139.98"/>
</g>
<!-- Node25 -->
<g id="node25" class="node">
<title>Node25</title>
<g id="a_node25"><a xlink:href="Scene_8hpp.html" target="_top" xlink:title=" ">
<polygon fill="none" stroke="black" points="703,-112.5 703,-131.5 765,-131.5 765,-112.5 703,-112.5"/>
<text text-anchor="middle" x="734" y="-119.5" font-family="Helvetica,sans-Serif" font-size="10.00">Scene.hpp</text>
</a>
</g>
</g>
<!-- Node1&#45;&gt;Node25 -->
<g id="edge61" class="edge">
<title>Node1&#45;&gt;Node25</title>
<path fill="none" stroke="midnightblue" d="M747.81,-291.72C709.54,-286.76 662.42,-274.32 632,-244 607.55,-219.63 596.42,-196.43 616,-168 625.14,-154.74 662.64,-141.88 692.95,-133.33"/>
<polygon fill="midnightblue" stroke="midnightblue" points="694.18,-136.62 702.9,-130.6 692.33,-129.87 694.18,-136.62"/>
</g>
<!-- Node26 -->
<g id="node26" class="node">
<title>Node26</title>
<g id="a_node26"><a xlink:href="IKeyListener_8hpp.html" target="_top" xlink:title=" ">
<polygon fill="none" stroke="black" points="1388.5,-168.5 1388.5,-187.5 1477.5,-187.5 1477.5,-168.5 1388.5,-168.5"/>
<text text-anchor="middle" x="1433" y="-175.5" font-family="Helvetica,sans-Serif" font-size="10.00">IKeyListener.hpp</text>
</a>
</g>
</g>
<!-- Node1&#45;&gt;Node26 -->
<g id="edge50" class="edge">
<title>Node1&#45;&gt;Node26</title>
<path fill="none" stroke="midnightblue" d="M874.14,-293.2C1020.36,-289.63 1372.86,-277.61 1414,-244 1427.5,-232.98 1431.73,-212.93 1432.91,-198"/>
<polygon fill="midnightblue" stroke="midnightblue" points="1436.41,-197.95 1433.31,-187.82 1429.42,-197.67 1436.41,-197.95"/>
</g>
<!-- Node27 -->
<g id="node27" class="node">
<title>Node27</title>
<g id="a_node27"><a xlink:href="IMouseListener_8hpp.html" target="_top" xlink:title=" ">
<polygon fill="none" stroke="black" points="1495,-168.5 1495,-187.5 1597,-187.5 1597,-168.5 1495,-168.5"/>
<text text-anchor="middle" x="1546" y="-175.5" font-family="Helvetica,sans-Serif" font-size="10.00">IMouseListener.hpp</text>
</a>
</g>
</g>
<!-- Node1&#45;&gt;Node27 -->
<g id="edge51" class="edge">
<title>Node1&#45;&gt;Node27</title>
<path fill="none" stroke="midnightblue" d="M874.06,-292.92C1010.86,-288.91 1330.83,-276.3 1434,-244 1469.29,-232.95 1505.48,-209.26 1526.83,-193.74"/>
<polygon fill="midnightblue" stroke="midnightblue" points="1529.09,-196.42 1535.03,-187.65 1524.91,-190.8 1529.09,-196.42"/>
</g>
<!-- Node28 -->
<g id="node28" class="node">
<title>Node28</title>
<g id="a_node28"><a xlink:href="Input_8hpp.html" target="_top" xlink:title=" ">
<polygon fill="none" stroke="black" points="1349,-224.5 1349,-243.5 1405,-243.5 1405,-224.5 1349,-224.5"/>
<text text-anchor="middle" x="1377" y="-231.5" font-family="Helvetica,sans-Serif" font-size="10.00">Input.hpp</text>
</a>
</g>
</g>
<!-- Node1&#45;&gt;Node28 -->
<g id="edge52" class="edge">
<title>Node1&#45;&gt;Node28</title>
<path fill="none" stroke="midnightblue" d="M874.21,-290.76C972.97,-284.4 1169.72,-269.59 1335,-244 1336.24,-243.81 1337.51,-243.6 1338.78,-243.38"/>
<polygon fill="midnightblue" stroke="midnightblue" points="1339.43,-246.82 1348.62,-241.54 1338.14,-239.94 1339.43,-246.82"/>
</g>
<!-- Node29 -->
<g id="node29" class="node">
<title>Node29</title>
<g id="a_node29"><a xlink:href="RigidBody_8hpp.html" target="_top" xlink:title=" ">
<polygon fill="none" stroke="black" points="383,-112.5 383,-131.5 461,-131.5 461,-112.5 383,-112.5"/>
<text text-anchor="middle" x="422" y="-119.5" font-family="Helvetica,sans-Serif" font-size="10.00">RigidBody.hpp</text>
</a>
</g>
</g>
<!-- Node1&#45;&gt;Node29 -->
<g id="edge58" class="edge">
<title>Node1&#45;&gt;Node29</title>
<path fill="none" stroke="midnightblue" d="M747.92,-283.84C707.92,-275.79 655.68,-262.87 612,-244 544.73,-214.94 474.14,-163.59 441.13,-138.16"/>
<polygon fill="midnightblue" stroke="midnightblue" points="442.9,-135.09 432.86,-131.71 438.59,-140.61 442.9,-135.09"/>
</g>
<!-- Node30 -->
<g id="node30" class="node">
<title>Node30</title>
<g id="a_node30"><a xlink:href="Text_8hpp.html" target="_top" xlink:title=" ">
<polygon fill="none" stroke="black" points="1047.5,-224.5 1047.5,-243.5 1100.5,-243.5 1100.5,-224.5 1047.5,-224.5"/>
<text text-anchor="middle" x="1074" y="-231.5" font-family="Helvetica,sans-Serif" font-size="10.00">Text.hpp</text>
</a>
</g>
</g>
<!-- Node1&#45;&gt;Node30 -->
<g id="edge63" class="edge">
<title>Node1&#45;&gt;Node30</title>
<path fill="none" stroke="midnightblue" d="M872.99,-280.47C924.06,-268.92 994.76,-252.93 1037.27,-243.31"/>
<polygon fill="midnightblue" stroke="midnightblue" points="1038.2,-246.69 1047.18,-241.07 1036.65,-239.86 1038.2,-246.69"/>
</g>
<!-- Node31 -->
<g id="node31" class="node">
<title>Node31</title>
<g id="a_node31"><a xlink:href="Time_8hpp.html" target="_top" xlink:title=" ">
<polygon fill="none" stroke="black" points="1499,-224.5 1499,-243.5 1555,-243.5 1555,-224.5 1499,-224.5"/>
<text text-anchor="middle" x="1527" y="-231.5" font-family="Helvetica,sans-Serif" font-size="10.00">Time.hpp</text>
</a>
</g>
</g>
<!-- Node1&#45;&gt;Node31 -->
<g id="edge67" class="edge">
<title>Node1&#45;&gt;Node31</title>
<path fill="none" stroke="midnightblue" d="M874.03,-292.64C993.68,-288.49 1261.71,-276.14 1485,-244 1486.25,-243.82 1487.51,-243.63 1488.78,-243.42"/>
<polygon fill="midnightblue" stroke="midnightblue" points="1489.42,-246.86 1498.63,-241.63 1488.16,-239.97 1489.42,-246.86"/>
</g>
<!-- Node2&#45;&gt;Node3 -->
<g id="edge2" class="edge">
<title>Node2&#45;&gt;Node3</title>
<path fill="none" stroke="midnightblue" d="M386.75,-168.35C378.4,-155.66 365.59,-131.42 374,-112 379.27,-99.84 389.62,-89.46 399.36,-81.74"/>
<polygon fill="midnightblue" stroke="midnightblue" points="401.64,-84.41 407.63,-75.67 397.5,-78.77 401.64,-84.41"/>
</g>
<!-- Node4 -->
<g id="node4" class="node">
<title>Node4</title>
<g id="a_node4"><a xlink:title=" ">
<polygon fill="none" stroke="#bfbfbf" points="451.5,-0.5 451.5,-19.5 502.5,-19.5 502.5,-0.5 451.5,-0.5"/>
<text text-anchor="middle" x="477" y="-7.5" font-family="Helvetica,sans-Serif" font-size="10.00">memory</text>
</a>
</g>
</g>
<!-- Node2&#45;&gt;Node4 -->
<g id="edge9" class="edge">
<title>Node2&#45;&gt;Node4</title>
<path fill="none" stroke="midnightblue" d="M386.11,-168.32C379.73,-159.68 370.69,-145.77 367,-132 362.16,-113.94 363.37,-66.67 371,-56 387.27,-33.23 417.45,-21.9 441.45,-16.32"/>
<polygon fill="midnightblue" stroke="midnightblue" points="442.23,-19.73 451.31,-14.26 440.8,-12.88 442.23,-19.73"/>
</g>
<!-- Node2&#45;&gt;Node5 -->
<g id="edge4" class="edge">
<title>Node2&#45;&gt;Node5</title>
<path fill="none" stroke="midnightblue" d="M430.16,-169.83C472.48,-161.59 543.97,-147.45 614.8,-132.22"/>
<polygon fill="midnightblue" stroke="midnightblue" points="615.75,-135.59 624.78,-130.06 614.27,-128.75 615.75,-135.59"/>
</g>
<!-- Node8 -->
<g id="node8" class="node">
<title>Node8</title>
<g id="a_node8"><a xlink:title=" ">
<polygon fill="none" stroke="#bfbfbf" points="712,-56.5 712,-75.5 756,-75.5 756,-56.5 712,-56.5"/>
<text text-anchor="middle" x="734" y="-63.5" font-family="Helvetica,sans-Serif" font-size="10.00">vector</text>
</a>
</g>
</g>
<!-- Node2&#45;&gt;Node8 -->
<g id="edge8" class="edge">
<title>Node2&#45;&gt;Node8</title>
<path fill="none" stroke="midnightblue" d="M407.69,-168.35C436.28,-151.57 497.52,-115.89 508,-112 574.49,-87.31 657.28,-75.24 701.9,-70.15"/>
<polygon fill="midnightblue" stroke="midnightblue" points="702.31,-73.62 711.87,-69.05 701.55,-66.66 702.31,-73.62"/>
</g>
<!-- Node3&#45;&gt;Node4 -->
<g id="edge3" class="edge">
<title>Node3&#45;&gt;Node4</title>
<path fill="none" stroke="midnightblue" d="M431.08,-56.08C439.17,-48.14 451.2,-36.34 460.91,-26.8"/>
<polygon fill="midnightblue" stroke="midnightblue" points="463.4,-29.25 468.09,-19.75 458.5,-24.26 463.4,-29.25"/>
</g>
<!-- Node5&#45;&gt;Node3 -->
<g id="edge5" class="edge">
<title>Node5&#45;&gt;Node3</title>
<path fill="none" stroke="midnightblue" d="M624.54,-113.94C584.89,-104.75 515.2,-88.6 468.82,-77.85"/>
<polygon fill="midnightblue" stroke="midnightblue" points="469.54,-74.42 459,-75.58 467.96,-81.24 469.54,-74.42"/>
</g>
<!-- Node5&#45;&gt;Node6 -->
<g id="edge6" class="edge">
<title>Node5&#45;&gt;Node6</title>
<path fill="none" stroke="midnightblue" d="M685.16,-113.65C688.14,-113.04 691.12,-112.48 694,-112 838.87,-87.87 1013.24,-74.48 1089.33,-69.4"/>
<polygon fill="midnightblue" stroke="midnightblue" points="1089.65,-72.89 1099.4,-68.74 1089.19,-65.9 1089.65,-72.89"/>
</g>
<!-- Node7 -->
<g id="node7" class="node">
<title>Node7</title>
<g id="a_node7"><a xlink:title=" ">
<polygon fill="none" stroke="#bfbfbf" points="917.5,-56.5 917.5,-75.5 958.5,-75.5 958.5,-56.5 917.5,-56.5"/>
<text text-anchor="middle" x="938" y="-63.5" font-family="Helvetica,sans-Serif" font-size="10.00">string</text>
</a>
</g>
</g>
<!-- Node5&#45;&gt;Node7 -->
<g id="edge7" class="edge">
<title>Node5&#45;&gt;Node7</title>
<path fill="none" stroke="midnightblue" d="M685.2,-113.89C688.17,-113.23 691.14,-112.59 694,-112 770.5,-96.13 861.08,-80.16 907.39,-72.2"/>
<polygon fill="midnightblue" stroke="midnightblue" points="908.11,-75.62 917.37,-70.49 906.93,-68.72 908.11,-75.62"/>
</g>
<!-- Node9&#45;&gt;Node3 -->
<g id="edge11" class="edge">
<title>Node9&#45;&gt;Node3</title>
<path fill="none" stroke="midnightblue" d="M539.82,-112.44C516.57,-103.48 479.85,-89.31 453.58,-79.18"/>
<polygon fill="midnightblue" stroke="midnightblue" points="454.67,-75.85 444.08,-75.52 452.15,-82.38 454.67,-75.85"/>
</g>
<!-- Node9&#45;&gt;Node7 -->
<g id="edge12" class="edge">
<title>Node9&#45;&gt;Node7</title>
<path fill="none" stroke="midnightblue" d="M607.07,-113.4C610.09,-112.92 613.09,-112.45 616,-112 722.67,-95.66 849.6,-78.63 907.04,-71.05"/>
<polygon fill="midnightblue" stroke="midnightblue" points="907.8,-74.48 917.25,-69.71 906.88,-67.54 907.8,-74.48"/>
</g>
<!-- Node10&#45;&gt;Node3 -->
<g id="edge14" class="edge">
<title>Node10&#45;&gt;Node3</title>
<path fill="none" stroke="midnightblue" d="M65.7,-224.34C85.92,-211.64 125.01,-187.37 159,-168 204.95,-141.82 214.96,-131.8 264,-112 299.8,-97.55 341.91,-85.8 373.65,-77.93"/>
<polygon fill="midnightblue" stroke="midnightblue" points="374.68,-81.29 383.57,-75.52 373.03,-74.48 374.68,-81.29"/>
</g>
<!-- Node10&#45;&gt;Node11 -->
<g id="edge15" class="edge">
<title>Node10&#45;&gt;Node11</title>
<path fill="none" stroke="midnightblue" d="M75.77,-224.44C100.89,-215.4 140.71,-201.06 168.9,-190.92"/>
<polygon fill="midnightblue" stroke="midnightblue" points="170.12,-194.2 178.34,-187.52 167.75,-187.61 170.12,-194.2"/>
</g>
<!-- Node11&#45;&gt;Node3 -->
<g id="edge16" class="edge">
<title>Node11&#45;&gt;Node3</title>
<path fill="none" stroke="midnightblue" d="M213.64,-168.35C231.95,-155.01 268.92,-129.17 303,-112 329.41,-98.7 360.74,-87 384.62,-78.87"/>
<polygon fill="midnightblue" stroke="midnightblue" points="385.99,-82.1 394.37,-75.61 383.77,-75.46 385.99,-82.1"/>
</g>
<!-- Node12&#45;&gt;Node11 -->
<g id="edge18" class="edge">
<title>Node12&#45;&gt;Node11</title>
<path fill="none" stroke="midnightblue" d="M202,-224.08C202,-217.01 202,-206.86 202,-197.99"/>
<polygon fill="midnightblue" stroke="midnightblue" points="205.5,-197.75 202,-187.75 198.5,-197.75 205.5,-197.75"/>
</g>
<!-- Node13&#45;&gt;Node14 -->
<g id="edge20" class="edge">
<title>Node13&#45;&gt;Node14</title>
<path fill="none" stroke="midnightblue" d="M732.25,-224.32C742.8,-216.18 758.8,-203.84 771.44,-194.09"/>
<polygon fill="midnightblue" stroke="midnightblue" points="773.77,-196.71 779.55,-187.83 769.49,-191.17 773.77,-196.71"/>
</g>
<!-- Node18 -->
<g id="node18" class="node">
<title>Node18</title>
<g id="a_node18"><a xlink:title=" ">
<polygon fill="none" stroke="#bfbfbf" points="638.5,-168.5 638.5,-187.5 697.5,-187.5 697.5,-168.5 638.5,-168.5"/>
<text text-anchor="middle" x="668" y="-175.5" font-family="Helvetica,sans-Serif" font-size="10.00">functional</text>
</a>
</g>
</g>
<!-- Node13&#45;&gt;Node18 -->
<g id="edge28" class="edge">
<title>Node13&#45;&gt;Node18</title>
<path fill="none" stroke="midnightblue" d="M712.25,-224.08C704.53,-216.22 693.1,-204.57 683.78,-195.08"/>
<polygon fill="midnightblue" stroke="midnightblue" points="686.09,-192.44 676.59,-187.75 681.1,-197.34 686.09,-192.44"/>
</g>
<!-- Node14&#45;&gt;Node15 -->
<g id="edge21" class="edge">
<title>Node14&#45;&gt;Node15</title>
<path fill="none" stroke="midnightblue" d="M796.94,-168.08C801.98,-160.53 809.34,-149.49 815.51,-140.23"/>
<polygon fill="midnightblue" stroke="midnightblue" points="818.53,-142.01 821.17,-131.75 812.71,-138.13 818.53,-142.01"/>
</g>
<!-- Node15&#45;&gt;Node3 -->
<g id="edge22" class="edge">
<title>Node15&#45;&gt;Node3</title>
<path fill="none" stroke="midnightblue" d="M782.49,-113.31C779.62,-112.85 776.77,-112.41 774,-112 667.78,-96.2 543.03,-81.05 474.21,-73"/>
<polygon fill="midnightblue" stroke="midnightblue" points="474.41,-69.5 464.07,-71.81 473.6,-76.45 474.41,-69.5"/>
</g>
<!-- Node15&#45;&gt;Node4 -->
<g id="edge27" class="edge">
<title>Node15&#45;&gt;Node4</title>
<path fill="none" stroke="midnightblue" d="M821.39,-112.09C811.79,-97.67 790.7,-69.45 765,-56 721.69,-33.34 579.77,-19.26 512.71,-13.71"/>
<polygon fill="midnightblue" stroke="midnightblue" points="512.86,-10.21 502.61,-12.89 512.3,-17.19 512.86,-10.21"/>
</g>
<!-- Node15&#45;&gt;Node7 -->
<g id="edge25" class="edge">
<title>Node15&#45;&gt;Node7</title>
<path fill="none" stroke="midnightblue" d="M844.83,-112.32C862.72,-103.62 890.48,-90.12 911.05,-80.11"/>
<polygon fill="midnightblue" stroke="midnightblue" points="912.75,-83.18 920.21,-75.65 909.69,-76.88 912.75,-83.18"/>
</g>
<!-- Node15&#45;&gt;Node8 -->
<g id="edge26" class="edge">
<title>Node15&#45;&gt;Node8</title>
<path fill="none" stroke="midnightblue" d="M812.06,-112.32C797.41,-103.82 774.87,-90.73 757.76,-80.8"/>
<polygon fill="midnightblue" stroke="midnightblue" points="759.31,-77.65 748.9,-75.65 755.8,-83.7 759.31,-77.65"/>
</g>
<!-- Node15&#45;&gt;Node16 -->
<g id="edge23" class="edge">
<title>Node15&#45;&gt;Node16</title>
<path fill="none" stroke="midnightblue" d="M871.77,-113.4C874.89,-112.91 877.99,-112.44 881,-112 1004.12,-93.97 1038.12,-95.45 1165.32,-76.02"/>
<polygon fill="midnightblue" stroke="midnightblue" points="1166.1,-79.44 1175.45,-74.46 1165.04,-72.52 1166.1,-79.44"/>
</g>
<!-- Node16&#45;&gt;Node17 -->
<g id="edge24" class="edge">
<title>Node16&#45;&gt;Node17</title>
<path fill="none" stroke="midnightblue" d="M1225.93,-56.32C1236.17,-48.18 1251.72,-35.84 1264,-26.09"/>
<polygon fill="midnightblue" stroke="midnightblue" points="1266.22,-28.79 1271.88,-19.83 1261.87,-23.31 1266.22,-28.79"/>
</g>
<!-- Node19&#45;&gt;Node6 -->
<g id="edge31" class="edge">
<title>Node19&#45;&gt;Node6</title>
<path fill="none" stroke="midnightblue" d="M1035.85,-168.37C1052.57,-149.97 1091.94,-106.67 1113.41,-83.05"/>
<polygon fill="midnightblue" stroke="midnightblue" points="1116.05,-85.35 1120.19,-75.59 1110.87,-80.64 1116.05,-85.35"/>
</g>
<!-- Node19&#45;&gt;Node15 -->
<g id="edge30" class="edge">
<title>Node19&#45;&gt;Node15</title>
<path fill="none" stroke="midnightblue" d="M996.15,-168.44C961.6,-159.16 906.32,-144.31 868.42,-134.13"/>
<polygon fill="midnightblue" stroke="midnightblue" points="869.27,-130.73 858.7,-131.52 867.45,-137.49 869.27,-130.73"/>
</g>
<!-- Node20&#45;&gt;Node11 -->
<g id="edge33" class="edge">
<title>Node20&#45;&gt;Node11</title>
<path fill="none" stroke="midnightblue" d="M290.97,-224.32C273.97,-215.66 247.62,-202.24 228.01,-192.25"/>
<polygon fill="midnightblue" stroke="midnightblue" points="229.49,-189.08 218.99,-187.65 226.31,-195.31 229.49,-189.08"/>
</g>
<!-- Node21&#45;&gt;Node6 -->
<g id="edge39" class="edge">
<title>Node21&#45;&gt;Node6</title>
<path fill="none" stroke="midnightblue" d="M1209.42,-112.32C1194,-103.74 1170.19,-90.49 1152.29,-80.52"/>
<polygon fill="midnightblue" stroke="midnightblue" points="1153.99,-77.46 1143.55,-75.65 1150.58,-83.58 1153.99,-77.46"/>
</g>
<!-- Node21&#45;&gt;Node7 -->
<g id="edge40" class="edge">
<title>Node21&#45;&gt;Node7</title>
<path fill="none" stroke="midnightblue" d="M1193.74,-115.12C1138.33,-104.69 1023.55,-83.1 968.61,-72.76"/>
<polygon fill="midnightblue" stroke="midnightblue" points="969.24,-69.32 958.76,-70.91 967.94,-76.2 969.24,-69.32"/>
</g>
<!-- Node21&#45;&gt;Node17 -->
<g id="edge38" class="edge">
<title>Node21&#45;&gt;Node17</title>
<path fill="none" stroke="midnightblue" d="M1234.67,-112.25C1243.49,-103.77 1256.28,-90.16 1264,-76 1271.92,-61.48 1276.87,-43.3 1279.72,-29.86"/>
<polygon fill="midnightblue" stroke="midnightblue" points="1283.19,-30.35 1281.65,-19.87 1276.32,-29.03 1283.19,-30.35"/>
</g>
<!-- Node22&#45;&gt;Node23 -->
<g id="edge42" class="edge">
<title>Node22&#45;&gt;Node23</title>
<path fill="none" stroke="midnightblue" d="M849.42,-224.08C856.85,-216.22 867.85,-204.57 876.81,-195.08"/>
<polygon fill="midnightblue" stroke="midnightblue" points="879.41,-197.42 883.74,-187.75 874.32,-192.62 879.41,-197.42"/>
</g>
<!-- Node22&#45;&gt;Node25 -->
<g id="edge45" class="edge">
<title>Node22&#45;&gt;Node25</title>
<path fill="none" stroke="midnightblue" d="M808.88,-226.16C787.46,-219.88 760.49,-208.37 745,-188 734.94,-174.77 732.76,-155.64 732.75,-141.56"/>
<polygon fill="midnightblue" stroke="midnightblue" points="736.24,-141.67 733.1,-131.55 729.25,-141.43 736.24,-141.67"/>
</g>
<!-- Node23&#45;&gt;Node24 -->
<g id="edge43" class="edge">
<title>Node23&#45;&gt;Node24</title>
<path fill="none" stroke="midnightblue" d="M899.6,-168.08C906.23,-160.3 916.02,-148.8 924.06,-139.37"/>
<polygon fill="midnightblue" stroke="midnightblue" points="926.73,-141.63 930.55,-131.75 921.4,-137.09 926.73,-141.63"/>
</g>
<!-- Node24&#45;&gt;Node7 -->
<g id="edge44" class="edge">
<title>Node24&#45;&gt;Node7</title>
<path fill="none" stroke="midnightblue" d="M938,-112.08C938,-105.01 938,-94.86 938,-85.99"/>
<polygon fill="midnightblue" stroke="midnightblue" points="941.5,-85.75 938,-75.75 934.5,-85.75 941.5,-85.75"/>
</g>
<!-- Node25&#45;&gt;Node4 -->
<g id="edge47" class="edge">
<title>Node25&#45;&gt;Node4</title>
<path fill="none" stroke="midnightblue" d="M713.83,-112.37C668.7,-93.05 559.38,-46.26 506.55,-23.65"/>
<polygon fill="midnightblue" stroke="midnightblue" points="507.64,-20.31 497.07,-19.59 504.89,-26.74 507.64,-20.31"/>
</g>
<!-- Node25&#45;&gt;Node8 -->
<g id="edge46" class="edge">
<title>Node25&#45;&gt;Node8</title>
<path fill="none" stroke="midnightblue" d="M734,-112.08C734,-105.01 734,-94.86 734,-85.99"/>
<polygon fill="midnightblue" stroke="midnightblue" points="737.5,-85.75 734,-75.75 730.5,-85.75 737.5,-85.75"/>
</g>
<!-- Node28&#45;&gt;Node7 -->
<g id="edge56" class="edge">
<title>Node28&#45;&gt;Node7</title>
<path fill="none" stroke="midnightblue" d="M1354.32,-224.42C1281.17,-196.76 1051.41,-109.88 968.34,-78.47"/>
<polygon fill="midnightblue" stroke="midnightblue" points="969.33,-75.1 958.74,-74.84 966.85,-81.65 969.33,-75.1"/>
</g>
<!-- Node28&#45;&gt;Node17 -->
<g id="edge53" class="edge">
<title>Node28&#45;&gt;Node17</title>
<path fill="none" stroke="midnightblue" d="M1376.87,-224.17C1376.08,-197.01 1370.79,-113.11 1336,-56 1328.64,-43.92 1316.91,-33.47 1306.36,-25.69"/>
<polygon fill="midnightblue" stroke="midnightblue" points="1308.1,-22.64 1297.89,-19.8 1304.1,-28.38 1308.1,-22.64"/>
</g>
<!-- Node28&#45;&gt;Node26 -->
<g id="edge54" class="edge">
<title>Node28&#45;&gt;Node26</title>
<path fill="none" stroke="midnightblue" d="M1386,-224.32C1394.19,-216.42 1406.51,-204.55 1416.47,-194.94"/>
<polygon fill="midnightblue" stroke="midnightblue" points="1419.07,-197.29 1423.84,-187.83 1414.21,-192.26 1419.07,-197.29"/>
</g>
<!-- Node28&#45;&gt;Node27 -->
<g id="edge55" class="edge">
<title>Node28&#45;&gt;Node27</title>
<path fill="none" stroke="midnightblue" d="M1403.78,-224.44C1432.33,-215.32 1477.73,-200.81 1509.54,-190.65"/>
<polygon fill="midnightblue" stroke="midnightblue" points="1510.89,-193.89 1519.35,-187.52 1508.76,-187.23 1510.89,-193.89"/>
</g>
<!-- Node29&#45;&gt;Node3 -->
<g id="edge59" class="edge">
<title>Node29&#45;&gt;Node3</title>
<path fill="none" stroke="midnightblue" d="M422,-112.08C422,-105.01 422,-94.86 422,-85.99"/>
<polygon fill="midnightblue" stroke="midnightblue" points="425.5,-85.75 422,-75.75 418.5,-85.75 425.5,-85.75"/>
</g>
<!-- Node29&#45;&gt;Node17 -->
<g id="edge60" class="edge">
<title>Node29&#45;&gt;Node17</title>
<path fill="none" stroke="midnightblue" d="M452.07,-112.48C503.17,-98.34 610.45,-70.21 703,-56 905.34,-24.93 1150.86,-14.85 1244.34,-12"/>
<polygon fill="midnightblue" stroke="midnightblue" points="1244.57,-15.49 1254.46,-11.7 1244.36,-8.5 1244.57,-15.49"/>
</g>
<!-- Node30&#45;&gt;Node6 -->
<g id="edge65" class="edge">
<title>Node30&#45;&gt;Node6</title>
<path fill="none" stroke="midnightblue" d="M1081.33,-224.29C1088.23,-215.64 1098.33,-201.71 1104,-188 1118.26,-153.49 1124.23,-109.85 1126.59,-85.53"/>
<polygon fill="midnightblue" stroke="midnightblue" points="1130.08,-85.81 1127.45,-75.54 1123.1,-85.2 1130.08,-85.81"/>
</g>
<!-- Node30&#45;&gt;Node7 -->
<g id="edge66" class="edge">
<title>Node30&#45;&gt;Node7</title>
<path fill="none" stroke="midnightblue" d="M1075.79,-224.41C1078.04,-211.38 1080.56,-186.2 1071,-168 1058.62,-144.44 995.59,-102.73 960.93,-81.01"/>
<polygon fill="midnightblue" stroke="midnightblue" points="962.71,-78 952.37,-75.7 959.02,-83.95 962.71,-78"/>
</g>
<!-- Node30&#45;&gt;Node14 -->
<g id="edge64" class="edge">
<title>Node30&#45;&gt;Node14</title>
<path fill="none" stroke="midnightblue" d="M1047.45,-227.95C1005.48,-219.95 920.94,-203.84 838.27,-188.05"/>
<polygon fill="midnightblue" stroke="midnightblue" points="838.68,-184.57 828.2,-186.13 837.37,-191.44 838.68,-184.57"/>
</g>
</g>
</svg>
        <g id="navigator" transform="translate(0 0)" fill="#404254">
                <rect fill="#f2f5e9" fill-opacity="0.5" stroke="#606060" stroke-width=".5" x="0" y="0" width="60" height="60"/>
                <use id="zoomplus" xlink:href="#zoomPlus" x="17" y="9" onmousedown="handleZoom(evt,'in')"/>
                <use id="zoomminus" xlink:href="#zoomMin" x="42" y="9" onmousedown="handleZoom(evt,'out')"/>
                <use id="reset" xlink:href="#resetDef" x="30" y="36" onmousedown="handleReset()"/>
                <g id="arrowUp" xlink:href="#dirArrow" transform="translate(30 24)" onmousedown="handlePan(0,-1)">
                  <use xlink:href="#rim" fill="#404040">
                        <set attributeName="fill" to="#808080" begin="arrowUp.mouseover" end="arrowUp.mouseout"/>
                  </use>
                  <path fill="none" stroke="white" stroke-width="1.5" d="M0,-3.0v7 M-2.5,-0.5L0,-3.0L2.5,-0.5"/>
                </g>
                <g id="arrowRight" xlink:href="#dirArrow" transform="rotate(90) translate(36 -43)" onmousedown="handlePan(1,0)">
                  <use xlink:href="#rim" fill="#404040">
                        <set attributeName="fill" to="#808080" begin="arrowRight.mouseover" end="arrowRight.mouseout"/>
                  </use>
                  <path fill="none" stroke="white" stroke-width="1.5" d="M0,-3.0v7 M-2.5,-0.5L0,-3.0L2.5,-0.5"/>
                </g>
                <g id="arrowDown" xlink:href="#dirArrow" transform="rotate(180) translate(-30 -48)" onmousedown="handlePan(0,1)">
                  <use xlink:href="#rim" fill="#404040">
                        <set attributeName="fill" to="#808080" begin="arrowDown.mouseover" end="arrowDown.mouseout"/>
                  </use>
                  <path fill="none" stroke="white" stroke-width="1.5" d="M0,-3.0v7 M-2.5,-0.5L0,-3.0L2.5,-0.5"/>
                </g>
                <g id="arrowLeft" xlink:href="#dirArrow" transform="rotate(270) translate(-36 17)" onmousedown="handlePan(-1,0)">
                  <use xlink:href="#rim" fill="#404040">
                        <set attributeName="fill" to="#808080" begin="arrowLeft.mouseover" end="arrowLeft.mouseout"/>
                  </use>
                  <path fill="none" stroke="white" stroke-width="1.5" d="M0,-3.0v7 M-2.5,-0.5L0,-3.0L2.5,-0.5"/>
                </g>
        </g>
        <svg viewBox="0 0 15 15" width="100%" height="30px" preserveAspectRatio="xMaxYMin meet">
         <g id="arrow_out" transform="scale(0.3 0.3)">
          <a xlink:href="Api_8hpp__incl_org.svg" target="_base">
           <rect id="button" ry="5" rx="5" y="6" x="6" height="38" width="38"
                fill="#f2f5e9" fill-opacity="0.5" stroke="#606060" stroke-width="1.0"/>
           <path id="arrow"
             d="M 11.500037,31.436501 C 11.940474,20.09759 22.043105,11.32322 32.158766,21.979434 L 37.068811,17.246167 C 37.068811,17.246167 37.088388,32 37.088388,32 L 22.160133,31.978069 C 22.160133,31.978069 26.997745,27.140456 26.997745,27.140456 C 18.528582,18.264221 13.291696,25.230495 11.500037,31.436501 z"
             style="fill:#404040;"/>
          </a>
         </g>
        </svg>
</svg>
