<?xml version="1.0" encoding="UTF-8" standalone="no"?>
<!DOCTYPE svg PUBLIC "-//W3C//DTD SVG 1.1//EN"
 "http://www.w3.org/Graphics/SVG/1.1/DTD/svg11.dtd">
<!-- Generated by graphviz version 2.44.0 ()
 -->
<!-- Title: src/Scripts/Common/AttackBehaviour.cpp Pages: 1 -->
<svg width="1100pt" height="375pt"
 viewBox="0.00 0.00 1099.93 375.00" xmlns="http://www.w3.org/2000/svg" xmlns:xlink="http://www.w3.org/1999/xlink">
<g id="graph0" class="graph" transform="scale(1 1) rotate(0) translate(4 371)">
<title>src/Scripts/Common/AttackBehaviour.cpp</title>
<!-- Node1 -->
<g id="node1" class="node">
<title>Node1</title>
<g id="a_node1"><a xlink:title=" ">
<polygon fill="#bfbfbf" stroke="black" points="685,-336.5 685,-366.5 795,-366.5 795,-336.5 685,-336.5"/>
<text text-anchor="start" x="693" y="-354.5" font-family="Helvetica,sans-Serif" font-size="10.00">src/Scripts/Common</text>
<text text-anchor="middle" x="740" y="-343.5" font-family="Helvetica,sans-Serif" font-size="10.00">/AttackBehaviour.cpp</text>
</a>
</g>
</g>
<!-- Node2 -->
<g id="node2" class="node">
<title>Node2</title>
<g id="a_node2"><a xlink:href="AttackBehaviour_8hpp.html" target="_top" xlink:title=" ">
<polygon fill="none" stroke="black" points="257.5,-280.5 257.5,-299.5 364.5,-299.5 364.5,-280.5 257.5,-280.5"/>
<text text-anchor="middle" x="311" y="-287.5" font-family="Helvetica,sans-Serif" font-size="10.00">AttackBehaviour.hpp</text>
</a>
</g>
</g>
<!-- Node1&#45;&gt;Node2 -->
<g id="edge1" class="edge">
<title>Node1&#45;&gt;Node2</title>
<path fill="none" stroke="midnightblue" d="M684.79,-342.84C605.2,-331.8 458.58,-311.47 374.57,-299.82"/>
<polygon fill="midnightblue" stroke="midnightblue" points="375.03,-296.35 364.64,-298.44 374.07,-303.28 375.03,-296.35"/>
</g>
<!-- Node10 -->
<g id="node10" class="node">
<title>Node10</title>
<g id="a_node10"><a xlink:href="Sprite_8hpp.html" target="_top" xlink:title=" ">
<polygon fill="none" stroke="black" points="323,-112.5 323,-131.5 383,-131.5 383,-112.5 323,-112.5"/>
<text text-anchor="middle" x="353" y="-119.5" font-family="Helvetica,sans-Serif" font-size="10.00">Sprite.hpp</text>
</a>
</g>
</g>
<!-- Node1&#45;&gt;Node10 -->
<g id="edge47" class="edge">
<title>Node1&#45;&gt;Node10</title>
<path fill="none" stroke="midnightblue" d="M697.43,-336.45C631.3,-313.17 502.15,-261.72 412,-188 394.39,-173.6 377.25,-153.88 366.03,-139.96"/>
<polygon fill="midnightblue" stroke="midnightblue" points="368.5,-137.44 359.56,-131.75 363,-141.77 368.5,-137.44"/>
</g>
<!-- Node16 -->
<g id="node16" class="node">
<title>Node16</title>
<g id="a_node16"><a xlink:href="BulletFactory_8hpp.html" target="_top" xlink:title=" ">
<polygon fill="none" stroke="black" points="692,-224.5 692,-243.5 842,-243.5 842,-224.5 692,-224.5"/>
<text text-anchor="middle" x="767" y="-231.5" font-family="Helvetica,sans-Serif" font-size="10.00">../../Factories/BulletFactory.hpp</text>
</a>
</g>
</g>
<!-- Node1&#45;&gt;Node16 -->
<g id="edge24" class="edge">
<title>Node1&#45;&gt;Node16</title>
<path fill="none" stroke="midnightblue" d="M739.43,-336.46C739.21,-322.04 739.87,-299.08 745,-280 747.57,-270.45 752.2,-260.5 756.55,-252.39"/>
<polygon fill="midnightblue" stroke="midnightblue" points="759.67,-253.99 761.56,-243.57 753.58,-250.54 759.67,-253.99"/>
</g>
<!-- Node19 -->
<g id="node19" class="node">
<title>Node19</title>
<g id="a_node19"><a xlink:href="GameObjectUtil_8hpp.html" target="_top" xlink:title=" ">
<polygon fill="none" stroke="black" points="926.5,-224.5 926.5,-243.5 1069.5,-243.5 1069.5,-224.5 926.5,-224.5"/>
<text text-anchor="middle" x="998" y="-231.5" font-family="Helvetica,sans-Serif" font-size="10.00">../../Utils/GameObjectUtil.hpp</text>
</a>
</g>
</g>
<!-- Node1&#45;&gt;Node19 -->
<g id="edge35" class="edge">
<title>Node1&#45;&gt;Node19</title>
<path fill="none" stroke="midnightblue" d="M743.65,-336.46C748.62,-320.25 759.14,-294.02 778,-280 799.83,-263.78 863.2,-251.87 916.35,-244.4"/>
<polygon fill="midnightblue" stroke="midnightblue" points="917.06,-247.83 926.49,-243.01 916.11,-240.9 917.06,-247.83"/>
</g>
<!-- Node20 -->
<g id="node20" class="node">
<title>Node20</title>
<g id="a_node20"><a xlink:href="PointUtil_8hpp.html" target="_top" xlink:title=" ">
<polygon fill="none" stroke="black" points="787,-280.5 787,-299.5 897,-299.5 897,-280.5 787,-280.5"/>
<text text-anchor="middle" x="842" y="-287.5" font-family="Helvetica,sans-Serif" font-size="10.00">../../Utils/PointUtil.hpp</text>
</a>
</g>
</g>
<!-- Node1&#45;&gt;Node20 -->
<g id="edge38" class="edge">
<title>Node1&#45;&gt;Node20</title>
<path fill="none" stroke="midnightblue" d="M764.17,-336.4C780.52,-326.86 802.01,-314.32 818.27,-304.84"/>
<polygon fill="midnightblue" stroke="midnightblue" points="820.28,-307.72 827.16,-299.66 816.76,-301.67 820.28,-307.72"/>
</g>
<!-- Node21 -->
<g id="node21" class="node">
<title>Node21</title>
<g id="a_node21"><a xlink:href="Engine_8hpp.html" target="_top" xlink:title=" ">
<polygon fill="none" stroke="black" points="515,-224.5 515,-243.5 579,-243.5 579,-224.5 515,-224.5"/>
<text text-anchor="middle" x="547" y="-231.5" font-family="Helvetica,sans-Serif" font-size="10.00">Engine.hpp</text>
</a>
</g>
</g>
<!-- Node1&#45;&gt;Node21 -->
<g id="edge40" class="edge">
<title>Node1&#45;&gt;Node21</title>
<path fill="none" stroke="midnightblue" d="M716.33,-336.34C679.03,-314.01 607.01,-270.91 570.08,-248.81"/>
<polygon fill="midnightblue" stroke="midnightblue" points="571.86,-245.8 561.49,-243.67 568.27,-251.81 571.86,-245.8"/>
</g>
<!-- Node25 -->
<g id="node25" class="node">
<title>Node25</title>
<g id="a_node25"><a xlink:title=" ">
<polygon fill="none" stroke="#bfbfbf" points="915,-280.5 915,-299.5 971,-299.5 971,-280.5 915,-280.5"/>
<text text-anchor="middle" x="943" y="-287.5" font-family="Helvetica,sans-Serif" font-size="10.00">algorithm</text>
</a>
</g>
</g>
<!-- Node1&#45;&gt;Node25 -->
<g id="edge48" class="edge">
<title>Node1&#45;&gt;Node25</title>
<path fill="none" stroke="midnightblue" d="M787.85,-336.47C823.65,-325.98 871.94,-311.83 905.09,-302.11"/>
<polygon fill="midnightblue" stroke="midnightblue" points="906.25,-305.42 914.86,-299.25 904.28,-298.7 906.25,-305.42"/>
</g>
<!-- Node26 -->
<g id="node26" class="node">
<title>Node26</title>
<g id="a_node26"><a xlink:title=" ">
<polygon fill="none" stroke="#bfbfbf" points="989.5,-280.5 989.5,-299.5 1024.5,-299.5 1024.5,-280.5 989.5,-280.5"/>
<text text-anchor="middle" x="1007" y="-287.5" font-family="Helvetica,sans-Serif" font-size="10.00">map</text>
</a>
</g>
</g>
<!-- Node1&#45;&gt;Node26 -->
<g id="edge49" class="edge">
<title>Node1&#45;&gt;Node26</title>
<path fill="none" stroke="midnightblue" d="M795.23,-340.74C841.96,-332.06 910.8,-318.29 979.66,-299.83"/>
<polygon fill="midnightblue" stroke="midnightblue" points="980.63,-303.19 989.37,-297.2 978.8,-296.44 980.63,-303.19"/>
</g>
<!-- Node3 -->
<g id="node3" class="node">
<title>Node3</title>
<g id="a_node3"><a xlink:href="BehaviourScript_8hpp.html" target="_top" xlink:title=" ">
<polygon fill="none" stroke="black" points="45,-168.5 45,-187.5 149,-187.5 149,-168.5 45,-168.5"/>
<text text-anchor="middle" x="97" y="-175.5" font-family="Helvetica,sans-Serif" font-size="10.00">BehaviourScript.hpp</text>
</a>
</g>
</g>
<!-- Node2&#45;&gt;Node3 -->
<g id="edge2" class="edge">
<title>Node2&#45;&gt;Node3</title>
<path fill="none" stroke="midnightblue" d="M269.01,-280.48C239.93,-273.44 201.03,-261.69 170,-244 147.33,-231.07 125.55,-210.21 111.77,-195.62"/>
<polygon fill="midnightblue" stroke="midnightblue" points="113.98,-192.86 104.64,-187.86 108.83,-197.59 113.98,-192.86"/>
</g>
<!-- Node7 -->
<g id="node7" class="node">
<title>Node7</title>
<g id="a_node7"><a xlink:href="CoolDownBehaviour_8hpp.html" target="_top" xlink:title=" ">
<polygon fill="none" stroke="black" points="0,-224.5 0,-243.5 122,-243.5 122,-224.5 0,-224.5"/>
<text text-anchor="middle" x="61" y="-231.5" font-family="Helvetica,sans-Serif" font-size="10.00">CoolDownBehaviour.hpp</text>
</a>
</g>
</g>
<!-- Node2&#45;&gt;Node7 -->
<g id="edge7" class="edge">
<title>Node2&#45;&gt;Node7</title>
<path fill="none" stroke="midnightblue" d="M271.39,-280.44C227.77,-271.02 157.6,-255.87 110.42,-245.68"/>
<polygon fill="midnightblue" stroke="midnightblue" points="110.94,-242.21 100.43,-243.52 109.46,-249.05 110.94,-242.21"/>
</g>
<!-- Node8 -->
<g id="node8" class="node">
<title>Node8</title>
<g id="a_node8"><a xlink:href="HealthBehaviour_8hpp.html" target="_top" xlink:title=" ">
<polygon fill="none" stroke="black" points="178.5,-224.5 178.5,-243.5 285.5,-243.5 285.5,-224.5 178.5,-224.5"/>
<text text-anchor="middle" x="232" y="-231.5" font-family="Helvetica,sans-Serif" font-size="10.00">HealthBehaviour.hpp</text>
</a>
</g>
</g>
<!-- Node2&#45;&gt;Node8 -->
<g id="edge9" class="edge">
<title>Node2&#45;&gt;Node8</title>
<path fill="none" stroke="midnightblue" d="M298.31,-280.32C286.1,-271.98 267.42,-259.21 253,-249.35"/>
<polygon fill="midnightblue" stroke="midnightblue" points="254.89,-246.41 244.66,-243.65 250.94,-252.19 254.89,-246.41"/>
</g>
<!-- Node9 -->
<g id="node9" class="node">
<title>Node9</title>
<g id="a_node9"><a xlink:href="Animator_8hpp.html" target="_top" xlink:title=" ">
<polygon fill="none" stroke="black" points="253,-168.5 253,-187.5 327,-187.5 327,-168.5 253,-168.5"/>
<text text-anchor="middle" x="290" y="-175.5" font-family="Helvetica,sans-Serif" font-size="10.00">Animator.hpp</text>
</a>
</g>
</g>
<!-- Node2&#45;&gt;Node9 -->
<g id="edge21" class="edge">
<title>Node2&#45;&gt;Node9</title>
<path fill="none" stroke="midnightblue" d="M309.35,-280.37C305.96,-262.62 298.15,-221.67 293.55,-197.6"/>
<polygon fill="midnightblue" stroke="midnightblue" points="296.95,-196.76 291.64,-187.59 290.08,-198.07 296.95,-196.76"/>
</g>
<!-- Node12 -->
<g id="node12" class="node">
<title>Node12</title>
<g id="a_node12"><a xlink:title=" ">
<polygon fill="none" stroke="#bfbfbf" points="566.5,-56.5 566.5,-75.5 607.5,-75.5 607.5,-56.5 566.5,-56.5"/>
<text text-anchor="middle" x="587" y="-63.5" font-family="Helvetica,sans-Serif" font-size="10.00">string</text>
</a>
</g>
</g>
<!-- Node2&#45;&gt;Node12 -->
<g id="edge23" class="edge">
<title>Node2&#45;&gt;Node12</title>
<path fill="none" stroke="midnightblue" d="M316.33,-280.12C334.06,-251.33 394.16,-159.69 468,-112 495.72,-94.09 531.62,-81.76 556.71,-74.59"/>
<polygon fill="midnightblue" stroke="midnightblue" points="557.7,-77.95 566.41,-71.93 555.84,-71.2 557.7,-77.95"/>
</g>
<!-- Node14 -->
<g id="node14" class="node">
<title>Node14</title>
<g id="a_node14"><a xlink:href="BulletType_8hpp.html" target="_top" xlink:title=" ">
<polygon fill="none" stroke="black" points="611,-168.5 611,-187.5 739,-187.5 739,-168.5 611,-168.5"/>
<text text-anchor="middle" x="675" y="-175.5" font-family="Helvetica,sans-Serif" font-size="10.00">../../Enums/BulletType.hpp</text>
</a>
</g>
</g>
<!-- Node2&#45;&gt;Node14 -->
<g id="edge20" class="edge">
<title>Node2&#45;&gt;Node14</title>
<path fill="none" stroke="midnightblue" d="M364.64,-287.81C422.02,-284.84 514.67,-275.12 588,-244 615.49,-232.33 642.27,-210.22 658.69,-195.05"/>
<polygon fill="midnightblue" stroke="midnightblue" points="661.44,-197.27 666.28,-187.85 656.62,-192.19 661.44,-197.27"/>
</g>
<!-- Node15 -->
<g id="node15" class="node">
<title>Node15</title>
<g id="a_node15"><a xlink:href="Point_8hpp.html" target="_top" xlink:title=" ">
<polygon fill="none" stroke="black" points="932.5,-56.5 932.5,-75.5 989.5,-75.5 989.5,-56.5 932.5,-56.5"/>
<text text-anchor="middle" x="961" y="-63.5" font-family="Helvetica,sans-Serif" font-size="10.00">Point.hpp</text>
</a>
</g>
</g>
<!-- Node2&#45;&gt;Node15 -->
<g id="edge22" class="edge">
<title>Node2&#45;&gt;Node15</title>
<path fill="none" stroke="midnightblue" d="M364.82,-288.85C483.64,-287.83 764.68,-281.4 851,-244 916.71,-215.53 946.57,-125.28 956.73,-85.8"/>
<polygon fill="midnightblue" stroke="midnightblue" points="960.18,-86.44 959.13,-75.9 953.37,-84.79 960.18,-86.44"/>
</g>
<!-- Node4 -->
<g id="node4" class="node">
<title>Node4</title>
<g id="a_node4"><a xlink:href="Component_8hpp.html" target="_top" xlink:title=" ">
<polygon fill="none" stroke="black" points="183,-56.5 183,-75.5 267,-75.5 267,-56.5 183,-56.5"/>
<text text-anchor="middle" x="225" y="-63.5" font-family="Helvetica,sans-Serif" font-size="10.00">Component.hpp</text>
</a>
</g>
</g>
<!-- Node3&#45;&gt;Node4 -->
<g id="edge3" class="edge">
<title>Node3&#45;&gt;Node4</title>
<path fill="none" stroke="midnightblue" d="M103.18,-168.27C112.8,-155.06 132.43,-129.65 153,-112 167.22,-99.8 185.08,-88.61 199.45,-80.45"/>
<polygon fill="midnightblue" stroke="midnightblue" points="201.27,-83.45 208.32,-75.54 197.88,-77.32 201.27,-83.45"/>
</g>
<!-- Node6 -->
<g id="node6" class="node">
<title>Node6</title>
<g id="a_node6"><a xlink:href="Collider_8hpp.html" target="_top" xlink:title=" ">
<polygon fill="none" stroke="black" points="161.5,-112.5 161.5,-131.5 228.5,-131.5 228.5,-112.5 161.5,-112.5"/>
<text text-anchor="middle" x="195" y="-119.5" font-family="Helvetica,sans-Serif" font-size="10.00">Collider.hpp</text>
</a>
</g>
</g>
<!-- Node3&#45;&gt;Node6 -->
<g id="edge5" class="edge">
<title>Node3&#45;&gt;Node6</title>
<path fill="none" stroke="midnightblue" d="M112.75,-168.32C128.32,-159.74 152.38,-146.49 170.46,-136.52"/>
<polygon fill="midnightblue" stroke="midnightblue" points="172.22,-139.55 179.29,-131.65 168.85,-133.42 172.22,-139.55"/>
</g>
<!-- Node5 -->
<g id="node5" class="node">
<title>Node5</title>
<g id="a_node5"><a xlink:title=" ">
<polygon fill="none" stroke="#bfbfbf" points="385.5,-0.5 385.5,-19.5 436.5,-19.5 436.5,-0.5 385.5,-0.5"/>
<text text-anchor="middle" x="411" y="-7.5" font-family="Helvetica,sans-Serif" font-size="10.00">memory</text>
</a>
</g>
</g>
<!-- Node4&#45;&gt;Node5 -->
<g id="edge4" class="edge">
<title>Node4&#45;&gt;Node5</title>
<path fill="none" stroke="midnightblue" d="M254.47,-56.44C287.29,-46.92 340.32,-31.52 375.43,-21.33"/>
<polygon fill="midnightblue" stroke="midnightblue" points="376.63,-24.62 385.26,-18.47 374.68,-17.9 376.63,-24.62"/>
</g>
<!-- Node6&#45;&gt;Node4 -->
<g id="edge6" class="edge">
<title>Node6&#45;&gt;Node4</title>
<path fill="none" stroke="midnightblue" d="M199.95,-112.08C204.1,-104.61 210.15,-93.72 215.27,-84.52"/>
<polygon fill="midnightblue" stroke="midnightblue" points="218.34,-86.19 220.14,-75.75 212.22,-82.79 218.34,-86.19"/>
</g>
<!-- Node7&#45;&gt;Node3 -->
<g id="edge8" class="edge">
<title>Node7&#45;&gt;Node3</title>
<path fill="none" stroke="midnightblue" d="M66.94,-224.08C71.98,-216.53 79.34,-205.49 85.51,-196.23"/>
<polygon fill="midnightblue" stroke="midnightblue" points="88.53,-198.01 91.17,-187.75 82.71,-194.13 88.53,-198.01"/>
</g>
<!-- Node8&#45;&gt;Node3 -->
<g id="edge10" class="edge">
<title>Node8&#45;&gt;Node3</title>
<path fill="none" stroke="midnightblue" d="M210.61,-224.44C188.29,-215.52 153.1,-201.44 127.79,-191.32"/>
<polygon fill="midnightblue" stroke="midnightblue" points="128.88,-187.98 118.29,-187.52 126.28,-194.48 128.88,-187.98"/>
</g>
<!-- Node8&#45;&gt;Node5 -->
<g id="edge11" class="edge">
<title>Node8&#45;&gt;Node5</title>
<path fill="none" stroke="midnightblue" d="M221.7,-224.3C203.62,-208.25 166.78,-171.99 153,-132 141.58,-98.87 147.19,-78.57 174,-56 203.93,-30.8 316.45,-18.41 375.03,-13.56"/>
<polygon fill="midnightblue" stroke="midnightblue" points="375.62,-17.02 385.31,-12.74 375.07,-10.04 375.62,-17.02"/>
</g>
<!-- Node8&#45;&gt;Node9 -->
<g id="edge12" class="edge">
<title>Node8&#45;&gt;Node9</title>
<path fill="none" stroke="midnightblue" d="M241.32,-224.32C249.89,-216.34 262.81,-204.31 273.19,-194.65"/>
<polygon fill="midnightblue" stroke="midnightblue" points="275.58,-197.21 280.51,-187.83 270.81,-192.09 275.58,-197.21"/>
</g>
<!-- Node9&#45;&gt;Node4 -->
<g id="edge13" class="edge">
<title>Node9&#45;&gt;Node4</title>
<path fill="none" stroke="midnightblue" d="M284.9,-168.37C274.22,-150.3 249.33,-108.18 235.23,-84.31"/>
<polygon fill="midnightblue" stroke="midnightblue" points="238.18,-82.42 230.08,-75.59 232.15,-85.98 238.18,-82.42"/>
</g>
<!-- Node9&#45;&gt;Node5 -->
<g id="edge19" class="edge">
<title>Node9&#45;&gt;Node5</title>
<path fill="none" stroke="midnightblue" d="M289.41,-168.3C288.43,-146.79 288.78,-90.36 316,-56 330.8,-37.32 355.23,-25.98 375.61,-19.36"/>
<polygon fill="midnightblue" stroke="midnightblue" points="376.66,-22.7 385.23,-16.48 374.65,-16 376.66,-22.7"/>
</g>
<!-- Node9&#45;&gt;Node10 -->
<g id="edge14" class="edge">
<title>Node9&#45;&gt;Node10</title>
<path fill="none" stroke="midnightblue" d="M300.12,-168.32C309.53,-160.26 323.74,-148.08 335.07,-138.37"/>
<polygon fill="midnightblue" stroke="midnightblue" points="337.38,-141 342.69,-131.83 332.82,-135.68 337.38,-141"/>
</g>
<!-- Node13 -->
<g id="node13" class="node">
<title>Node13</title>
<g id="a_node13"><a xlink:title=" ">
<polygon fill="none" stroke="#bfbfbf" points="477,-112.5 477,-131.5 521,-131.5 521,-112.5 477,-112.5"/>
<text text-anchor="middle" x="499" y="-119.5" font-family="Helvetica,sans-Serif" font-size="10.00">vector</text>
</a>
</g>
</g>
<!-- Node9&#45;&gt;Node13 -->
<g id="edge18" class="edge">
<title>Node9&#45;&gt;Node13</title>
<path fill="none" stroke="midnightblue" d="M323.12,-168.44C362.63,-158.23 428.24,-141.28 467.18,-131.22"/>
<polygon fill="midnightblue" stroke="midnightblue" points="468.13,-134.59 476.94,-128.7 466.38,-127.81 468.13,-134.59"/>
</g>
<!-- Node10&#45;&gt;Node4 -->
<g id="edge15" class="edge">
<title>Node10&#45;&gt;Node4</title>
<path fill="none" stroke="midnightblue" d="M332.72,-112.44C311.65,-103.56 278.48,-89.56 254.51,-79.45"/>
<polygon fill="midnightblue" stroke="midnightblue" points="255.76,-76.18 245.19,-75.52 253.04,-82.63 255.76,-76.18"/>
</g>
<!-- Node11 -->
<g id="node11" class="node">
<title>Node11</title>
<g id="a_node11"><a xlink:href="Color_8hpp.html" target="_top" xlink:title=" ">
<polygon fill="none" stroke="black" points="324.5,-56.5 324.5,-75.5 381.5,-75.5 381.5,-56.5 324.5,-56.5"/>
<text text-anchor="middle" x="353" y="-63.5" font-family="Helvetica,sans-Serif" font-size="10.00">Color.hpp</text>
</a>
</g>
</g>
<!-- Node10&#45;&gt;Node11 -->
<g id="edge16" class="edge">
<title>Node10&#45;&gt;Node11</title>
<path fill="none" stroke="midnightblue" d="M353,-112.08C353,-105.01 353,-94.86 353,-85.99"/>
<polygon fill="midnightblue" stroke="midnightblue" points="356.5,-85.75 353,-75.75 349.5,-85.75 356.5,-85.75"/>
</g>
<!-- Node10&#45;&gt;Node12 -->
<g id="edge17" class="edge">
<title>Node10&#45;&gt;Node12</title>
<path fill="none" stroke="midnightblue" d="M383.11,-114.05C427.89,-103.72 511.56,-84.41 556.54,-74.03"/>
<polygon fill="midnightblue" stroke="midnightblue" points="557.35,-77.43 566.31,-71.78 555.78,-70.61 557.35,-77.43"/>
</g>
<!-- Node16&#45;&gt;Node5 -->
<g id="edge33" class="edge">
<title>Node16&#45;&gt;Node5</title>
<path fill="none" stroke="midnightblue" d="M836.3,-224.42C858.39,-218.04 880.57,-207.01 894,-188 913.49,-160.41 914.92,-138.52 894,-112 838.27,-41.36 548.78,-18.64 446.69,-12.77"/>
<polygon fill="midnightblue" stroke="midnightblue" points="446.75,-9.26 436.57,-12.2 446.36,-16.25 446.75,-9.26"/>
</g>
<!-- Node16&#45;&gt;Node12 -->
<g id="edge34" class="edge">
<title>Node16&#45;&gt;Node12</title>
<path fill="none" stroke="midnightblue" d="M766.39,-224.12C765.06,-210.72 760.91,-185.07 748,-168 729.58,-143.63 653.58,-101.68 612.93,-80.33"/>
<polygon fill="midnightblue" stroke="midnightblue" points="614.37,-77.13 603.88,-75.61 611.13,-83.33 614.37,-77.13"/>
</g>
<!-- Node16&#45;&gt;Node14 -->
<g id="edge32" class="edge">
<title>Node16&#45;&gt;Node14</title>
<path fill="none" stroke="midnightblue" d="M752.22,-224.32C737.73,-215.82 715.43,-202.73 698.51,-192.8"/>
<polygon fill="midnightblue" stroke="midnightblue" points="700.14,-189.7 689.74,-187.65 696.6,-195.74 700.14,-189.7"/>
</g>
<!-- Node17 -->
<g id="node17" class="node">
<title>Node17</title>
<g id="a_node17"><a xlink:href="GameObject_8hpp.html" target="_top" xlink:title=" ">
<polygon fill="none" stroke="black" points="795.5,-168.5 795.5,-187.5 884.5,-187.5 884.5,-168.5 795.5,-168.5"/>
<text text-anchor="middle" x="840" y="-175.5" font-family="Helvetica,sans-Serif" font-size="10.00">GameObject.hpp</text>
</a>
</g>
</g>
<!-- Node16&#45;&gt;Node17 -->
<g id="edge25" class="edge">
<title>Node16&#45;&gt;Node17</title>
<path fill="none" stroke="midnightblue" d="M778.73,-224.32C789.84,-216.11 806.74,-203.6 819.98,-193.81"/>
<polygon fill="midnightblue" stroke="midnightblue" points="822.1,-196.59 828.06,-187.83 817.94,-190.97 822.1,-196.59"/>
</g>
<!-- Node17&#45;&gt;Node4 -->
<g id="edge26" class="edge">
<title>Node17&#45;&gt;Node4</title>
<path fill="none" stroke="midnightblue" d="M816.37,-168.46C772.04,-152.55 677.81,-119.33 644,-112 626.32,-108.16 385.66,-83.37 277.27,-72.31"/>
<polygon fill="midnightblue" stroke="midnightblue" points="277.51,-68.82 267.21,-71.29 276.8,-75.78 277.51,-68.82"/>
</g>
<!-- Node17&#45;&gt;Node5 -->
<g id="edge31" class="edge">
<title>Node17&#45;&gt;Node5</title>
<path fill="none" stroke="midnightblue" d="M829.72,-168.37C813.53,-155.07 780.75,-129.28 750,-112 694.09,-80.58 678.14,-75.37 617,-56 558.45,-37.45 488.16,-23.89 446.67,-16.74"/>
<polygon fill="midnightblue" stroke="midnightblue" points="447.21,-13.28 436.77,-15.06 446.04,-20.18 447.21,-13.28"/>
</g>
<!-- Node17&#45;&gt;Node12 -->
<g id="edge29" class="edge">
<title>Node17&#45;&gt;Node12</title>
<path fill="none" stroke="midnightblue" d="M825.32,-168.5C802.3,-155.36 756.07,-129.79 715,-112 682.37,-97.86 643.71,-84.75 617.48,-76.37"/>
<polygon fill="midnightblue" stroke="midnightblue" points="618.33,-72.97 607.74,-73.29 616.22,-79.64 618.33,-72.97"/>
</g>
<!-- Node17&#45;&gt;Node13 -->
<g id="edge30" class="edge">
<title>Node17&#45;&gt;Node13</title>
<path fill="none" stroke="midnightblue" d="M795.25,-172.47C736.62,-166.11 630.53,-153.11 531.16,-132"/>
<polygon fill="midnightblue" stroke="midnightblue" points="531.77,-128.55 521.26,-129.86 530.29,-135.39 531.77,-128.55"/>
</g>
<!-- Node18 -->
<g id="node18" class="node">
<title>Node18</title>
<g id="a_node18"><a xlink:href="Transform_8hpp.html" target="_top" xlink:title=" ">
<polygon fill="none" stroke="black" points="805.5,-112.5 805.5,-131.5 884.5,-131.5 884.5,-112.5 805.5,-112.5"/>
<text text-anchor="middle" x="845" y="-119.5" font-family="Helvetica,sans-Serif" font-size="10.00">Transform.hpp</text>
</a>
</g>
</g>
<!-- Node17&#45;&gt;Node18 -->
<g id="edge27" class="edge">
<title>Node17&#45;&gt;Node18</title>
<path fill="none" stroke="midnightblue" d="M840.83,-168.08C841.48,-161.01 842.42,-150.86 843.24,-141.99"/>
<polygon fill="midnightblue" stroke="midnightblue" points="846.75,-142.03 844.19,-131.75 839.78,-141.39 846.75,-142.03"/>
</g>
<!-- Node18&#45;&gt;Node15 -->
<g id="edge28" class="edge">
<title>Node18&#45;&gt;Node15</title>
<path fill="none" stroke="midnightblue" d="M863.38,-112.44C882.22,-103.68 911.73,-89.94 933.38,-79.86"/>
<polygon fill="midnightblue" stroke="midnightblue" points="935.12,-82.91 942.71,-75.52 932.16,-76.56 935.12,-82.91"/>
</g>
<!-- Node19&#45;&gt;Node5 -->
<g id="edge36" class="edge">
<title>Node19&#45;&gt;Node5</title>
<path fill="none" stroke="midnightblue" d="M1001.68,-224.17C1012.97,-195.52 1043.69,-104.24 999,-56 961.43,-15.45 568.72,-11.29 446.86,-10.98"/>
<polygon fill="midnightblue" stroke="midnightblue" points="446.59,-7.48 436.58,-10.96 446.58,-14.48 446.59,-7.48"/>
</g>
<!-- Node19&#45;&gt;Node17 -->
<g id="edge37" class="edge">
<title>Node19&#45;&gt;Node17</title>
<path fill="none" stroke="midnightblue" d="M972.96,-224.44C946.38,-215.36 904.19,-200.94 874.48,-190.78"/>
<polygon fill="midnightblue" stroke="midnightblue" points="875.51,-187.44 864.92,-187.52 873.25,-194.06 875.51,-187.44"/>
</g>
<!-- Node20&#45;&gt;Node15 -->
<g id="edge39" class="edge">
<title>Node20&#45;&gt;Node15</title>
<path fill="none" stroke="midnightblue" d="M896.41,-280.45C964.55,-269.49 1073.16,-251.06 1079,-244 1125.81,-187.46 1028.81,-112.03 983.09,-81.11"/>
<polygon fill="midnightblue" stroke="midnightblue" points="984.95,-78.15 974.68,-75.54 981.09,-83.99 984.95,-78.15"/>
</g>
<!-- Node22 -->
<g id="node22" class="node">
<title>Node22</title>
<g id="a_node22"><a xlink:href="EngineConfig_8hpp.html" target="_top" xlink:title=" ">
<polygon fill="none" stroke="black" points="501.5,-168.5 501.5,-187.5 592.5,-187.5 592.5,-168.5 501.5,-168.5"/>
<text text-anchor="middle" x="547" y="-175.5" font-family="Helvetica,sans-Serif" font-size="10.00">EngineConfig.hpp</text>
</a>
</g>
</g>
<!-- Node21&#45;&gt;Node22 -->
<g id="edge41" class="edge">
<title>Node21&#45;&gt;Node22</title>
<path fill="none" stroke="midnightblue" d="M547,-224.08C547,-217.01 547,-206.86 547,-197.99"/>
<polygon fill="midnightblue" stroke="midnightblue" points="550.5,-197.75 547,-187.75 543.5,-197.75 550.5,-197.75"/>
</g>
<!-- Node24 -->
<g id="node24" class="node">
<title>Node24</title>
<g id="a_node24"><a xlink:href="Scene_8hpp.html" target="_top" xlink:title=" ">
<polygon fill="none" stroke="black" points="421,-168.5 421,-187.5 483,-187.5 483,-168.5 421,-168.5"/>
<text text-anchor="middle" x="452" y="-175.5" font-family="Helvetica,sans-Serif" font-size="10.00">Scene.hpp</text>
</a>
</g>
</g>
<!-- Node21&#45;&gt;Node24 -->
<g id="edge44" class="edge">
<title>Node21&#45;&gt;Node24</title>
<path fill="none" stroke="midnightblue" d="M531.74,-224.32C516.78,-215.82 493.75,-202.73 476.27,-192.8"/>
<polygon fill="midnightblue" stroke="midnightblue" points="477.65,-189.55 467.23,-187.65 474.19,-195.64 477.65,-189.55"/>
</g>
<!-- Node23 -->
<g id="node23" class="node">
<title>Node23</title>
<g id="a_node23"><a xlink:href="WindowConfig_8hpp.html" target="_top" xlink:title=" ">
<polygon fill="none" stroke="black" points="539,-112.5 539,-131.5 635,-131.5 635,-112.5 539,-112.5"/>
<text text-anchor="middle" x="587" y="-119.5" font-family="Helvetica,sans-Serif" font-size="10.00">WindowConfig.hpp</text>
</a>
</g>
</g>
<!-- Node22&#45;&gt;Node23 -->
<g id="edge42" class="edge">
<title>Node22&#45;&gt;Node23</title>
<path fill="none" stroke="midnightblue" d="M553.61,-168.08C559.26,-160.46 567.54,-149.26 574.45,-139.94"/>
<polygon fill="midnightblue" stroke="midnightblue" points="577.38,-141.87 580.52,-131.75 571.75,-137.7 577.38,-141.87"/>
</g>
<!-- Node23&#45;&gt;Node12 -->
<g id="edge43" class="edge">
<title>Node23&#45;&gt;Node12</title>
<path fill="none" stroke="midnightblue" d="M587,-112.08C587,-105.01 587,-94.86 587,-85.99"/>
<polygon fill="midnightblue" stroke="midnightblue" points="590.5,-85.75 587,-75.75 583.5,-85.75 590.5,-85.75"/>
</g>
<!-- Node24&#45;&gt;Node5 -->
<g id="edge46" class="edge">
<title>Node24&#45;&gt;Node5</title>
<path fill="none" stroke="midnightblue" d="M449.8,-168.08C443.34,-141.95 424.39,-65.21 415.59,-29.58"/>
<polygon fill="midnightblue" stroke="midnightblue" points="418.91,-28.44 413.12,-19.57 412.12,-30.12 418.91,-28.44"/>
</g>
<!-- Node24&#45;&gt;Node13 -->
<g id="edge45" class="edge">
<title>Node24&#45;&gt;Node13</title>
<path fill="none" stroke="midnightblue" d="M459.76,-168.08C466.54,-160.3 476.54,-148.8 484.76,-139.37"/>
<polygon fill="midnightblue" stroke="midnightblue" points="487.46,-141.59 491.38,-131.75 482.18,-137 487.46,-141.59"/>
</g>
</g>
</svg>
