<?xml version="1.0" encoding="UTF-8" standalone="no"?>
<!DOCTYPE svg PUBLIC "-//W3C//DTD SVG 1.1//EN"
 "http://www.w3.org/Graphics/SVG/1.1/DTD/svg11.dtd">
<!-- Generated by graphviz version 2.44.0 ()
 -->
<!-- Title: src/Factories/AudioSourcePrefabFactory.hpp Pages: 1 -->
<svg width="394pt" height="207pt"
 viewBox="0.00 0.00 393.65 207.00" xmlns="http://www.w3.org/2000/svg" xmlns:xlink="http://www.w3.org/1999/xlink">
<g id="graph0" class="graph" transform="scale(1 1) rotate(0) translate(4 203)">
<title>src/Factories/AudioSourcePrefabFactory.hpp</title>
<!-- Node1 -->
<g id="node1" class="node">
<title>Node1</title>
<g id="a_node1"><a xlink:title=" ">
<polygon fill="#bfbfbf" stroke="black" points="60.15,-168.5 60.15,-198.5 192.15,-198.5 192.15,-168.5 60.15,-168.5"/>
<text text-anchor="start" x="68.15" y="-186.5" font-family="Helvetica,sans-Serif" font-size="10.00">src/Factories/AudioSource</text>
<text text-anchor="middle" x="126.15" y="-175.5" font-family="Helvetica,sans-Serif" font-size="10.00">PrefabFactory.hpp</text>
</a>
</g>
</g>
<!-- Node2 -->
<g id="node2" class="node">
<title>Node2</title>
<g id="a_node2"><a xlink:title=" ">
<polygon fill="none" stroke="#bfbfbf" points="34.65,-0.5 34.65,-19.5 85.65,-19.5 85.65,-0.5 34.65,-0.5"/>
<text text-anchor="middle" x="60.15" y="-7.5" font-family="Helvetica,sans-Serif" font-size="10.00">memory</text>
</a>
</g>
</g>
<!-- Node1&#45;&gt;Node2 -->
<g id="edge1" class="edge">
<title>Node1&#45;&gt;Node2</title>
<path fill="none" stroke="midnightblue" d="M70.85,-168.41C51.37,-160.74 31.11,-149.18 18.15,-132 -2.34,-104.85 -4.84,-87 9.15,-56 14.76,-43.56 25.71,-33.17 36.03,-25.53"/>
<polygon fill="midnightblue" stroke="midnightblue" points="38.15,-28.31 44.41,-19.76 34.19,-22.54 38.15,-28.31"/>
</g>
<!-- Node3 -->
<g id="node3" class="node">
<title>Node3</title>
<g id="a_node3"><a xlink:href="GameObject_8hpp.html" target="_top" xlink:title=" ">
<polygon fill="none" stroke="black" points="135.65,-112.5 135.65,-131.5 224.65,-131.5 224.65,-112.5 135.65,-112.5"/>
<text text-anchor="middle" x="180.15" y="-119.5" font-family="Helvetica,sans-Serif" font-size="10.00">GameObject.hpp</text>
</a>
</g>
</g>
<!-- Node1&#45;&gt;Node3 -->
<g id="edge2" class="edge">
<title>Node1&#45;&gt;Node3</title>
<path fill="none" stroke="midnightblue" d="M138.95,-168.4C146.87,-159.66 157.08,-148.41 165.36,-139.3"/>
<polygon fill="midnightblue" stroke="midnightblue" points="168.16,-141.42 172.29,-131.66 162.98,-136.71 168.16,-141.42"/>
</g>
<!-- Node9 -->
<g id="node9" class="node">
<title>Node9</title>
<g id="a_node9"><a xlink:href="AudioSource_8hpp.html" target="_top" xlink:title=" ">
<polygon fill="none" stroke="black" points="27.15,-112.5 27.15,-131.5 117.15,-131.5 117.15,-112.5 27.15,-112.5"/>
<text text-anchor="middle" x="72.15" y="-119.5" font-family="Helvetica,sans-Serif" font-size="10.00">AudioSource.hpp</text>
</a>
</g>
</g>
<!-- Node1&#45;&gt;Node9 -->
<g id="edge10" class="edge">
<title>Node1&#45;&gt;Node9</title>
<path fill="none" stroke="midnightblue" d="M113.35,-168.4C105.42,-159.66 95.21,-148.41 86.94,-139.3"/>
<polygon fill="midnightblue" stroke="midnightblue" points="89.32,-136.71 80.01,-131.66 84.13,-141.42 89.32,-136.71"/>
</g>
<!-- Node10 -->
<g id="node10" class="node">
<title>Node10</title>
<g id="a_node10"><a xlink:href="AudioClipName_8hpp.html" target="_top" xlink:title=" ">
<polygon fill="none" stroke="black" points="242.65,-112.5 242.65,-131.5 385.65,-131.5 385.65,-112.5 242.65,-112.5"/>
<text text-anchor="middle" x="314.15" y="-119.5" font-family="Helvetica,sans-Serif" font-size="10.00">../Enums/AudioClipName.hpp</text>
</a>
</g>
</g>
<!-- Node1&#45;&gt;Node10 -->
<g id="edge13" class="edge">
<title>Node1&#45;&gt;Node10</title>
<path fill="none" stroke="midnightblue" d="M170.7,-168.4C203.19,-158.12 246.69,-144.35 277.24,-134.68"/>
<polygon fill="midnightblue" stroke="midnightblue" points="278.59,-137.93 287.07,-131.57 276.48,-131.25 278.59,-137.93"/>
</g>
<!-- Node3&#45;&gt;Node2 -->
<g id="edge9" class="edge">
<title>Node3&#45;&gt;Node2</title>
<path fill="none" stroke="midnightblue" d="M181.31,-112.38C182.63,-98.86 183.15,-72.5 170.15,-56 152.15,-33.17 120.65,-21.84 95.96,-16.27"/>
<polygon fill="midnightblue" stroke="midnightblue" points="96.35,-12.77 85.85,-14.21 94.96,-19.63 96.35,-12.77"/>
</g>
<!-- Node4 -->
<g id="node4" class="node">
<title>Node4</title>
<g id="a_node4"><a xlink:href="Component_8hpp.html" target="_top" xlink:title=" ">
<polygon fill="none" stroke="black" points="18.15,-56.5 18.15,-75.5 102.15,-75.5 102.15,-56.5 18.15,-56.5"/>
<text text-anchor="middle" x="60.15" y="-63.5" font-family="Helvetica,sans-Serif" font-size="10.00">Component.hpp</text>
</a>
</g>
</g>
<!-- Node3&#45;&gt;Node4 -->
<g id="edge3" class="edge">
<title>Node3&#45;&gt;Node4</title>
<path fill="none" stroke="midnightblue" d="M161.13,-112.44C141.56,-103.64 110.84,-89.81 88.42,-79.72"/>
<polygon fill="midnightblue" stroke="midnightblue" points="89.63,-76.43 79.07,-75.52 86.76,-82.81 89.63,-76.43"/>
</g>
<!-- Node5 -->
<g id="node5" class="node">
<title>Node5</title>
<g id="a_node5"><a xlink:href="Transform_8hpp.html" target="_top" xlink:title=" ">
<polygon fill="none" stroke="black" points="218.65,-56.5 218.65,-75.5 297.65,-75.5 297.65,-56.5 218.65,-56.5"/>
<text text-anchor="middle" x="258.15" y="-63.5" font-family="Helvetica,sans-Serif" font-size="10.00">Transform.hpp</text>
</a>
</g>
</g>
<!-- Node3&#45;&gt;Node5 -->
<g id="edge5" class="edge">
<title>Node3&#45;&gt;Node5</title>
<path fill="none" stroke="midnightblue" d="M192.68,-112.32C204.73,-103.98 223.17,-91.21 237.42,-81.35"/>
<polygon fill="midnightblue" stroke="midnightblue" points="239.42,-84.22 245.65,-75.65 235.43,-78.47 239.42,-84.22"/>
</g>
<!-- Node7 -->
<g id="node7" class="node">
<title>Node7</title>
<g id="a_node7"><a xlink:title=" ">
<polygon fill="none" stroke="#bfbfbf" points="120.65,-56.5 120.65,-75.5 161.65,-75.5 161.65,-56.5 120.65,-56.5"/>
<text text-anchor="middle" x="141.15" y="-63.5" font-family="Helvetica,sans-Serif" font-size="10.00">string</text>
</a>
</g>
</g>
<!-- Node3&#45;&gt;Node7 -->
<g id="edge7" class="edge">
<title>Node3&#45;&gt;Node7</title>
<path fill="none" stroke="midnightblue" d="M173.71,-112.08C168.2,-104.46 160.12,-93.26 153.38,-83.94"/>
<polygon fill="midnightblue" stroke="midnightblue" points="156.16,-81.81 147.47,-75.75 150.49,-85.91 156.16,-81.81"/>
</g>
<!-- Node8 -->
<g id="node8" class="node">
<title>Node8</title>
<g id="a_node8"><a xlink:title=" ">
<polygon fill="none" stroke="#bfbfbf" points="315.15,-56.5 315.15,-75.5 359.15,-75.5 359.15,-56.5 315.15,-56.5"/>
<text text-anchor="middle" x="337.15" y="-63.5" font-family="Helvetica,sans-Serif" font-size="10.00">vector</text>
</a>
</g>
</g>
<!-- Node3&#45;&gt;Node8 -->
<g id="edge8" class="edge">
<title>Node3&#45;&gt;Node8</title>
<path fill="none" stroke="midnightblue" d="M205.03,-112.44C232.21,-103.09 275.84,-88.09 305.46,-77.9"/>
<polygon fill="midnightblue" stroke="midnightblue" points="306.61,-81.21 314.93,-74.64 304.33,-74.59 306.61,-81.21"/>
</g>
<!-- Node4&#45;&gt;Node2 -->
<g id="edge4" class="edge">
<title>Node4&#45;&gt;Node2</title>
<path fill="none" stroke="midnightblue" d="M60.15,-56.08C60.15,-49.01 60.15,-38.86 60.15,-29.99"/>
<polygon fill="midnightblue" stroke="midnightblue" points="63.65,-29.75 60.15,-19.75 56.65,-29.75 63.65,-29.75"/>
</g>
<!-- Node6 -->
<g id="node6" class="node">
<title>Node6</title>
<g id="a_node6"><a xlink:href="Point_8hpp.html" target="_top" xlink:title=" ">
<polygon fill="none" stroke="black" points="229.65,-0.5 229.65,-19.5 286.65,-19.5 286.65,-0.5 229.65,-0.5"/>
<text text-anchor="middle" x="258.15" y="-7.5" font-family="Helvetica,sans-Serif" font-size="10.00">Point.hpp</text>
</a>
</g>
</g>
<!-- Node5&#45;&gt;Node6 -->
<g id="edge6" class="edge">
<title>Node5&#45;&gt;Node6</title>
<path fill="none" stroke="midnightblue" d="M258.15,-56.08C258.15,-49.01 258.15,-38.86 258.15,-29.99"/>
<polygon fill="midnightblue" stroke="midnightblue" points="261.65,-29.75 258.15,-19.75 254.65,-29.75 261.65,-29.75"/>
</g>
<!-- Node9&#45;&gt;Node4 -->
<g id="edge11" class="edge">
<title>Node9&#45;&gt;Node4</title>
<path fill="none" stroke="midnightblue" d="M70.17,-112.08C68.58,-104.93 66.29,-94.64 64.3,-85.69"/>
<polygon fill="midnightblue" stroke="midnightblue" points="67.68,-84.75 62.09,-75.75 60.85,-86.27 67.68,-84.75"/>
</g>
<!-- Node9&#45;&gt;Node7 -->
<g id="edge12" class="edge">
<title>Node9&#45;&gt;Node7</title>
<path fill="none" stroke="midnightblue" d="M83.23,-112.32C93.63,-104.18 109.41,-91.84 121.87,-82.09"/>
<polygon fill="midnightblue" stroke="midnightblue" points="124.14,-84.75 129.86,-75.83 119.83,-79.24 124.14,-84.75"/>
</g>
</g>
</svg>
