<?xml version="1.0" encoding="UTF-8" standalone="no"?>
<!DOCTYPE svg PUBLIC "-//W3C//DTD SVG 1.1//EN"
 "http://www.w3.org/Graphics/SVG/1.1/DTD/svg11.dtd">
<!-- Generated by graphviz version 2.44.0 ()
 -->
<!-- Title: src/Factories/AudioSourcePrefabFactory.cpp Pages: 1 -->
<!--zoomable 263 -->
<svg id="main" version="1.1" xmlns="http://www.w3.org/2000/svg" xmlns:xlink="http://www.w3.org/1999/xlink" xml:space="preserve" onload="init(evt)">
<style type="text/css"><![CDATA[
.edge:hover path { stroke: red; }
.edge:hover polygon { stroke: red; fill: red; }
]]></style>
<script type="text/javascript"><![CDATA[
var edges = document.getElementsByTagName('g');
if (edges && edges.length) {
  for (var i=0;i<edges.length;i++) {
    if (edges[i].id.substr(0,4)=='edge') {
      edges[i].setAttribute('class','edge');
    }
  }
}
]]></script>
        <defs>
                <circle id="rim" cx="0" cy="0" r="7"/>
                <circle id="rim2" cx="0" cy="0" r="3.5"/>
                <g id="zoomPlus">
                        <use xlink:href="#rim" fill="#404040">
                                <set attributeName="fill" to="#808080" begin="zoomplus.mouseover" end="zoomplus.mouseout"/>
                        </use>
                        <path d="M-4,0h8M0,-4v8" fill="none" stroke="white" stroke-width="1.5" pointer-events="none"/>
                </g>
                <g id="zoomMin">
                        <use xlink:href="#rim" fill="#404040">
                                <set attributeName="fill" to="#808080" begin="zoomminus.mouseover" end="zoomminus.mouseout"/>
                        </use>
                        <path d="M-4,0h8" fill="none" stroke="white" stroke-width="1.5" pointer-events="none"/>
                </g>
                <g id="dirArrow">
                        <path fill="none" stroke="white" stroke-width="1.5" d="M0,-3.0v7 M-2.5,-0.5L0,-3.0L2.5,-0.5"/>
                </g>
               <g id="resetDef">
                       <use xlink:href="#rim2" fill="#404040">
                               <set attributeName="fill" to="#808080" begin="reset.mouseover" end="reset.mouseout"/>
                       </use>
               </g>
        </defs>

<script type="text/javascript">
var viewWidth = 749;
var viewHeight = 263;
var sectionId = 'dynsection-0';
</script>
<script xlink:href="svgpan.js"/>
<svg id="graph" class="graph">
<g id="viewport">
<title>src/Factories/AudioSourcePrefabFactory.cpp</title>
<!-- Node1 -->
<g id="node1" class="node">
<title>Node1</title>
<g id="a_node1"><a xlink:title=" ">
<polygon fill="#bfbfbf" stroke="black" points="421.29,-224.5 421.29,-254.5 553.29,-254.5 553.29,-224.5 421.29,-224.5"/>
<text text-anchor="start" x="429.29" y="-242.5" font-family="Helvetica,sans-Serif" font-size="10.00">src/Factories/AudioSource</text>
<text text-anchor="middle" x="487.29" y="-231.5" font-family="Helvetica,sans-Serif" font-size="10.00">PrefabFactory.cpp</text>
</a>
</g>
</g>
<!-- Node2 -->
<g id="node2" class="node">
<title>Node2</title>
<g id="a_node2"><a xlink:href="AudioSourcePrefabFactory_8hpp.html" target="_top" xlink:title=" ">
<polygon fill="none" stroke="black" points="121.79,-168.5 121.79,-187.5 272.79,-187.5 272.79,-168.5 121.79,-168.5"/>
<text text-anchor="middle" x="197.29" y="-175.5" font-family="Helvetica,sans-Serif" font-size="10.00">AudioSourcePrefabFactory.hpp</text>
</a>
</g>
</g>
<!-- Node1&#45;&gt;Node2 -->
<g id="edge1" class="edge">
<title>Node1&#45;&gt;Node2</title>
<path fill="none" stroke="midnightblue" d="M421.12,-224.92C368.84,-214.2 296.91,-199.44 248.84,-189.58"/>
<polygon fill="midnightblue" stroke="midnightblue" points="249.47,-186.13 238.97,-187.55 248.06,-192.99 249.47,-186.13"/>
</g>
<!-- Node12 -->
<g id="node12" class="node">
<title>Node12</title>
<g id="a_node12"><a xlink:href="Layer_8hpp.html" target="_top" xlink:title=" ">
<polygon fill="none" stroke="black" points="437.79,-168.5 437.79,-187.5 536.79,-187.5 536.79,-168.5 437.79,-168.5"/>
<text text-anchor="middle" x="487.29" y="-175.5" font-family="Helvetica,sans-Serif" font-size="10.00">../Enums/Layer.hpp</text>
</a>
</g>
</g>
<!-- Node1&#45;&gt;Node12 -->
<g id="edge15" class="edge">
<title>Node1&#45;&gt;Node12</title>
<path fill="none" stroke="midnightblue" d="M487.29,-224.4C487.29,-216.47 487.29,-206.46 487.29,-197.86"/>
<polygon fill="midnightblue" stroke="midnightblue" points="490.79,-197.66 487.29,-187.66 483.79,-197.66 490.79,-197.66"/>
</g>
<!-- Node13 -->
<g id="node13" class="node">
<title>Node13</title>
<g id="a_node13"><a xlink:href="GameObjectUtil_8hpp.html" target="_top" xlink:title=" ">
<polygon fill="none" stroke="black" points="291.29,-168.5 291.29,-187.5 419.29,-187.5 419.29,-168.5 291.29,-168.5"/>
<text text-anchor="middle" x="355.29" y="-175.5" font-family="Helvetica,sans-Serif" font-size="10.00">Utils/GameObjectUtil.hpp</text>
</a>
</g>
</g>
<!-- Node1&#45;&gt;Node13 -->
<g id="edge16" class="edge">
<title>Node1&#45;&gt;Node13</title>
<path fill="none" stroke="midnightblue" d="M456.01,-224.4C434.06,-214.51 404.95,-201.38 383.67,-191.79"/>
<polygon fill="midnightblue" stroke="midnightblue" points="385.05,-188.58 374.5,-187.66 382.17,-194.96 385.05,-188.58"/>
</g>
<!-- Node14 -->
<g id="node14" class="node">
<title>Node14</title>
<g id="a_node14"><a xlink:href="RandomUtil_8hpp.html" target="_top" xlink:title=" ">
<polygon fill="none" stroke="black" points="554.79,-168.5 554.79,-187.5 663.79,-187.5 663.79,-168.5 554.79,-168.5"/>
<text text-anchor="middle" x="609.29" y="-175.5" font-family="Helvetica,sans-Serif" font-size="10.00">Utils/RandomUtil.hpp</text>
</a>
</g>
</g>
<!-- Node1&#45;&gt;Node14 -->
<g id="edge19" class="edge">
<title>Node1&#45;&gt;Node14</title>
<path fill="none" stroke="midnightblue" d="M516.2,-224.4C536.3,-214.59 562.91,-201.62 582.53,-192.05"/>
<polygon fill="midnightblue" stroke="midnightblue" points="584.08,-195.19 591.54,-187.66 581.01,-188.9 584.08,-195.19"/>
</g>
<!-- Node16 -->
<g id="node16" class="node">
<title>Node16</title>
<g id="a_node16"><a xlink:title=" ">
<polygon fill="none" stroke="#bfbfbf" points="681.79,-168.5 681.79,-187.5 740.79,-187.5 740.79,-168.5 681.79,-168.5"/>
<text text-anchor="middle" x="711.29" y="-175.5" font-family="Helvetica,sans-Serif" font-size="10.00">stdexcept</text>
</a>
</g>
</g>
<!-- Node1&#45;&gt;Node16 -->
<g id="edge21" class="edge">
<title>Node1&#45;&gt;Node16</title>
<path fill="none" stroke="midnightblue" d="M540.09,-224.47C580.41,-213.77 635.08,-199.24 671.69,-189.52"/>
<polygon fill="midnightblue" stroke="midnightblue" points="672.75,-192.86 681.51,-186.91 670.95,-186.09 672.75,-192.86"/>
</g>
<!-- Node3 -->
<g id="node3" class="node">
<title>Node3</title>
<g id="a_node3"><a xlink:title=" ">
<polygon fill="none" stroke="#bfbfbf" points="231.79,-0.5 231.79,-19.5 282.79,-19.5 282.79,-0.5 231.79,-0.5"/>
<text text-anchor="middle" x="257.29" y="-7.5" font-family="Helvetica,sans-Serif" font-size="10.00">memory</text>
</a>
</g>
</g>
<!-- Node2&#45;&gt;Node3 -->
<g id="edge2" class="edge">
<title>Node2&#45;&gt;Node3</title>
<path fill="none" stroke="midnightblue" d="M121.61,-176.55C56.74,-173.01 -22.1,-159.31 6.29,-112 51.22,-37.11 163.28,-17.73 221.27,-12.73"/>
<polygon fill="midnightblue" stroke="midnightblue" points="221.73,-16.2 231.43,-11.95 221.2,-9.22 221.73,-16.2"/>
</g>
<!-- Node4 -->
<g id="node4" class="node">
<title>Node4</title>
<g id="a_node4"><a xlink:href="GameObject_8hpp.html" target="_top" xlink:title=" ">
<polygon fill="none" stroke="black" points="285.79,-112.5 285.79,-131.5 374.79,-131.5 374.79,-112.5 285.79,-112.5"/>
<text text-anchor="middle" x="330.29" y="-119.5" font-family="Helvetica,sans-Serif" font-size="10.00">GameObject.hpp</text>
</a>
</g>
</g>
<!-- Node2&#45;&gt;Node4 -->
<g id="edge3" class="edge">
<title>Node2&#45;&gt;Node4</title>
<path fill="none" stroke="midnightblue" d="M218.36,-168.44C240.35,-159.52 275.02,-145.44 299.95,-135.32"/>
<polygon fill="midnightblue" stroke="midnightblue" points="301.36,-138.52 309.31,-131.52 298.73,-132.04 301.36,-138.52"/>
</g>
<!-- Node10 -->
<g id="node10" class="node">
<title>Node10</title>
<g id="a_node10"><a xlink:href="AudioSource_8hpp.html" target="_top" xlink:title=" ">
<polygon fill="none" stroke="black" points="177.29,-112.5 177.29,-131.5 267.29,-131.5 267.29,-112.5 177.29,-112.5"/>
<text text-anchor="middle" x="222.29" y="-119.5" font-family="Helvetica,sans-Serif" font-size="10.00">AudioSource.hpp</text>
</a>
</g>
</g>
<!-- Node2&#45;&gt;Node10 -->
<g id="edge11" class="edge">
<title>Node2&#45;&gt;Node10</title>
<path fill="none" stroke="midnightblue" d="M201.42,-168.08C204.8,-160.77 209.7,-150.18 213.91,-141.1"/>
<polygon fill="midnightblue" stroke="midnightblue" points="217.21,-142.3 218.24,-131.75 210.86,-139.36 217.21,-142.3"/>
</g>
<!-- Node11 -->
<g id="node11" class="node">
<title>Node11</title>
<g id="a_node11"><a xlink:href="AudioClipName_8hpp.html" target="_top" xlink:title=" ">
<polygon fill="none" stroke="black" points="15.79,-112.5 15.79,-131.5 158.79,-131.5 158.79,-112.5 15.79,-112.5"/>
<text text-anchor="middle" x="87.29" y="-119.5" font-family="Helvetica,sans-Serif" font-size="10.00">../Enums/AudioClipName.hpp</text>
</a>
</g>
</g>
<!-- Node2&#45;&gt;Node11 -->
<g id="edge14" class="edge">
<title>Node2&#45;&gt;Node11</title>
<path fill="none" stroke="midnightblue" d="M179.62,-168.32C161.89,-159.62 134.39,-146.12 114,-136.11"/>
<polygon fill="midnightblue" stroke="midnightblue" points="115.44,-132.92 104.92,-131.65 112.35,-139.2 115.44,-132.92"/>
</g>
<!-- Node4&#45;&gt;Node3 -->
<g id="edge10" class="edge">
<title>Node4&#45;&gt;Node3</title>
<path fill="none" stroke="midnightblue" d="M324.56,-112.37C312.51,-94.22 284.37,-51.8 268.56,-27.99"/>
<polygon fill="midnightblue" stroke="midnightblue" points="271.44,-25.99 262.99,-19.59 265.6,-29.86 271.44,-25.99"/>
</g>
<!-- Node5 -->
<g id="node5" class="node">
<title>Node5</title>
<g id="a_node5"><a xlink:href="Component_8hpp.html" target="_top" xlink:title=" ">
<polygon fill="none" stroke="black" points="180.29,-56.5 180.29,-75.5 264.29,-75.5 264.29,-56.5 180.29,-56.5"/>
<text text-anchor="middle" x="222.29" y="-63.5" font-family="Helvetica,sans-Serif" font-size="10.00">Component.hpp</text>
</a>
</g>
</g>
<!-- Node4&#45;&gt;Node5 -->
<g id="edge4" class="edge">
<title>Node4&#45;&gt;Node5</title>
<path fill="none" stroke="midnightblue" d="M312.94,-112.32C295.62,-103.66 268.77,-90.24 248.79,-80.25"/>
<polygon fill="midnightblue" stroke="midnightblue" points="250.11,-77 239.6,-75.65 246.98,-83.26 250.11,-77"/>
</g>
<!-- Node6 -->
<g id="node6" class="node">
<title>Node6</title>
<g id="a_node6"><a xlink:href="Transform_8hpp.html" target="_top" xlink:title=" ">
<polygon fill="none" stroke="black" points="381.79,-56.5 381.79,-75.5 460.79,-75.5 460.79,-56.5 381.79,-56.5"/>
<text text-anchor="middle" x="421.29" y="-63.5" font-family="Helvetica,sans-Serif" font-size="10.00">Transform.hpp</text>
</a>
</g>
</g>
<!-- Node4&#45;&gt;Node6 -->
<g id="edge6" class="edge">
<title>Node4&#45;&gt;Node6</title>
<path fill="none" stroke="midnightblue" d="M344.91,-112.32C359.24,-103.82 381.3,-90.73 398.04,-80.8"/>
<polygon fill="midnightblue" stroke="midnightblue" points="399.89,-83.77 406.7,-75.65 396.32,-77.75 399.89,-83.77"/>
</g>
<!-- Node8 -->
<g id="node8" class="node">
<title>Node8</title>
<g id="a_node8"><a xlink:title=" ">
<polygon fill="none" stroke="#bfbfbf" points="120.79,-56.5 120.79,-75.5 161.79,-75.5 161.79,-56.5 120.79,-56.5"/>
<text text-anchor="middle" x="141.29" y="-63.5" font-family="Helvetica,sans-Serif" font-size="10.00">string</text>
</a>
</g>
</g>
<!-- Node4&#45;&gt;Node8 -->
<g id="edge8" class="edge">
<title>Node4&#45;&gt;Node8</title>
<path fill="none" stroke="midnightblue" d="M299.47,-112.43C269.35,-104.02 221.95,-90.7 171.68,-76.08"/>
<polygon fill="midnightblue" stroke="midnightblue" points="172.51,-72.68 161.93,-73.24 170.55,-79.4 172.51,-72.68"/>
</g>
<!-- Node9 -->
<g id="node9" class="node">
<title>Node9</title>
<g id="a_node9"><a xlink:title=" ">
<polygon fill="none" stroke="#bfbfbf" points="320.29,-56.5 320.29,-75.5 364.29,-75.5 364.29,-56.5 320.29,-56.5"/>
<text text-anchor="middle" x="342.29" y="-63.5" font-family="Helvetica,sans-Serif" font-size="10.00">vector</text>
</a>
</g>
</g>
<!-- Node4&#45;&gt;Node9 -->
<g id="edge9" class="edge">
<title>Node4&#45;&gt;Node9</title>
<path fill="none" stroke="midnightblue" d="M332.27,-112.08C333.86,-104.93 336.15,-94.64 338.13,-85.69"/>
<polygon fill="midnightblue" stroke="midnightblue" points="341.59,-86.27 340.34,-75.75 334.76,-84.75 341.59,-86.27"/>
</g>
<!-- Node5&#45;&gt;Node3 -->
<g id="edge5" class="edge">
<title>Node5&#45;&gt;Node3</title>
<path fill="none" stroke="midnightblue" d="M228.07,-56.08C232.96,-48.53 240.12,-37.49 246.12,-28.23"/>
<polygon fill="midnightblue" stroke="midnightblue" points="249.11,-30.05 251.62,-19.75 243.24,-26.24 249.11,-30.05"/>
</g>
<!-- Node7 -->
<g id="node7" class="node">
<title>Node7</title>
<g id="a_node7"><a xlink:href="Point_8hpp.html" target="_top" xlink:title=" ">
<polygon fill="none" stroke="black" points="392.79,-0.5 392.79,-19.5 449.79,-19.5 449.79,-0.5 392.79,-0.5"/>
<text text-anchor="middle" x="421.29" y="-7.5" font-family="Helvetica,sans-Serif" font-size="10.00">Point.hpp</text>
</a>
</g>
</g>
<!-- Node6&#45;&gt;Node7 -->
<g id="edge7" class="edge">
<title>Node6&#45;&gt;Node7</title>
<path fill="none" stroke="midnightblue" d="M421.29,-56.08C421.29,-49.01 421.29,-38.86 421.29,-29.99"/>
<polygon fill="midnightblue" stroke="midnightblue" points="424.79,-29.75 421.29,-19.75 417.79,-29.75 424.79,-29.75"/>
</g>
<!-- Node10&#45;&gt;Node5 -->
<g id="edge12" class="edge">
<title>Node10&#45;&gt;Node5</title>
<path fill="none" stroke="midnightblue" d="M222.29,-112.08C222.29,-105.01 222.29,-94.86 222.29,-85.99"/>
<polygon fill="midnightblue" stroke="midnightblue" points="225.79,-85.75 222.29,-75.75 218.79,-85.75 225.79,-85.75"/>
</g>
<!-- Node10&#45;&gt;Node8 -->
<g id="edge13" class="edge">
<title>Node10&#45;&gt;Node8</title>
<path fill="none" stroke="midnightblue" d="M209.27,-112.32C196.76,-103.98 177.61,-91.21 162.82,-81.35"/>
<polygon fill="midnightblue" stroke="midnightblue" points="164.53,-78.29 154.27,-75.65 160.65,-84.11 164.53,-78.29"/>
</g>
<!-- Node13&#45;&gt;Node3 -->
<g id="edge17" class="edge">
<title>Node13&#45;&gt;Node3</title>
<path fill="none" stroke="midnightblue" d="M374.94,-168.48C416.52,-149.31 506.7,-100.91 470.29,-56 448.37,-28.97 347.79,-17.54 293.04,-13.26"/>
<polygon fill="midnightblue" stroke="midnightblue" points="293.29,-9.77 283.06,-12.52 292.77,-16.75 293.29,-9.77"/>
</g>
<!-- Node13&#45;&gt;Node4 -->
<g id="edge18" class="edge">
<title>Node13&#45;&gt;Node4</title>
<path fill="none" stroke="midnightblue" d="M351.16,-168.08C347.77,-160.77 342.87,-150.18 338.67,-141.1"/>
<polygon fill="midnightblue" stroke="midnightblue" points="341.72,-139.36 334.34,-131.75 335.37,-142.3 341.72,-139.36"/>
</g>
<!-- Node15 -->
<g id="node15" class="node">
<title>Node15</title>
<g id="a_node15"><a xlink:title=" ">
<polygon fill="none" stroke="#bfbfbf" points="584.79,-112.5 584.79,-131.5 633.79,-131.5 633.79,-112.5 584.79,-112.5"/>
<text text-anchor="middle" x="609.29" y="-119.5" font-family="Helvetica,sans-Serif" font-size="10.00">random</text>
</a>
</g>
</g>
<!-- Node14&#45;&gt;Node15 -->
<g id="edge20" class="edge">
<title>Node14&#45;&gt;Node15</title>
<path fill="none" stroke="midnightblue" d="M609.29,-168.08C609.29,-161.01 609.29,-150.86 609.29,-141.99"/>
<polygon fill="midnightblue" stroke="midnightblue" points="612.79,-141.75 609.29,-131.75 605.79,-141.75 612.79,-141.75"/>
</g>
</g>
</svg>
        <g id="navigator" transform="translate(0 0)" fill="#404254">
                <rect fill="#f2f5e9" fill-opacity="0.5" stroke="#606060" stroke-width=".5" x="0" y="0" width="60" height="60"/>
                <use id="zoomplus" xlink:href="#zoomPlus" x="17" y="9" onmousedown="handleZoom(evt,'in')"/>
                <use id="zoomminus" xlink:href="#zoomMin" x="42" y="9" onmousedown="handleZoom(evt,'out')"/>
                <use id="reset" xlink:href="#resetDef" x="30" y="36" onmousedown="handleReset()"/>
                <g id="arrowUp" xlink:href="#dirArrow" transform="translate(30 24)" onmousedown="handlePan(0,-1)">
                  <use xlink:href="#rim" fill="#404040">
                        <set attributeName="fill" to="#808080" begin="arrowUp.mouseover" end="arrowUp.mouseout"/>
                  </use>
                  <path fill="none" stroke="white" stroke-width="1.5" d="M0,-3.0v7 M-2.5,-0.5L0,-3.0L2.5,-0.5"/>
                </g>
                <g id="arrowRight" xlink:href="#dirArrow" transform="rotate(90) translate(36 -43)" onmousedown="handlePan(1,0)">
                  <use xlink:href="#rim" fill="#404040">
                        <set attributeName="fill" to="#808080" begin="arrowRight.mouseover" end="arrowRight.mouseout"/>
                  </use>
                  <path fill="none" stroke="white" stroke-width="1.5" d="M0,-3.0v7 M-2.5,-0.5L0,-3.0L2.5,-0.5"/>
                </g>
                <g id="arrowDown" xlink:href="#dirArrow" transform="rotate(180) translate(-30 -48)" onmousedown="handlePan(0,1)">
                  <use xlink:href="#rim" fill="#404040">
                        <set attributeName="fill" to="#808080" begin="arrowDown.mouseover" end="arrowDown.mouseout"/>
                  </use>
                  <path fill="none" stroke="white" stroke-width="1.5" d="M0,-3.0v7 M-2.5,-0.5L0,-3.0L2.5,-0.5"/>
                </g>
                <g id="arrowLeft" xlink:href="#dirArrow" transform="rotate(270) translate(-36 17)" onmousedown="handlePan(-1,0)">
                  <use xlink:href="#rim" fill="#404040">
                        <set attributeName="fill" to="#808080" begin="arrowLeft.mouseover" end="arrowLeft.mouseout"/>
                  </use>
                  <path fill="none" stroke="white" stroke-width="1.5" d="M0,-3.0v7 M-2.5,-0.5L0,-3.0L2.5,-0.5"/>
                </g>
        </g>
        <svg viewBox="0 0 15 15" width="100%" height="30px" preserveAspectRatio="xMaxYMin meet">
         <g id="arrow_out" transform="scale(0.3 0.3)">
          <a xlink:href="AudioSourcePrefabFactory_8cpp__incl_org.svg" target="_base">
           <rect id="button" ry="5" rx="5" y="6" x="6" height="38" width="38"
                fill="#f2f5e9" fill-opacity="0.5" stroke="#606060" stroke-width="1.0"/>
           <path id="arrow"
             d="M 11.500037,31.436501 C 11.940474,20.09759 22.043105,11.32322 32.158766,21.979434 L 37.068811,17.246167 C 37.068811,17.246167 37.088388,32 37.088388,32 L 22.160133,31.978069 C 22.160133,31.978069 26.997745,27.140456 26.997745,27.140456 C 18.528582,18.264221 13.291696,25.230495 11.500037,31.436501 z"
             style="fill:#404040;"/>
          </a>
         </g>
        </svg>
</svg>
