<?xml version="1.0" encoding="UTF-8" standalone="no"?>
<!DOCTYPE svg PUBLIC "-//W3C//DTD SVG 1.1//EN"
 "http://www.w3.org/Graphics/SVG/1.1/DTD/svg11.dtd">
<!-- Generated by graphviz version 2.44.0 ()
 -->
<!-- Title: src/Enums/AudioClipName.hpp Pages: 1 -->
<svg width="963pt" height="162pt"
 viewBox="0.00 0.00 962.50 162.00" xmlns="http://www.w3.org/2000/svg" xmlns:xlink="http://www.w3.org/1999/xlink">
<g id="graph0" class="graph" transform="scale(1 1) rotate(0) translate(4 158)">
<title>src/Enums/AudioClipName.hpp</title>
<!-- Node1 -->
<g id="node1" class="node">
<title>Node1</title>
<g id="a_node1"><a xlink:title=" ">
<polygon fill="#bfbfbf" stroke="black" points="405,-134.5 405,-153.5 557,-153.5 557,-134.5 405,-134.5"/>
<text text-anchor="middle" x="481" y="-141.5" font-family="Helvetica,sans-Serif" font-size="10.00">src/Enums/AudioClipName.hpp</text>
</a>
</g>
</g>
<!-- Node2 -->
<g id="node2" class="node">
<title>Node2</title>
<g id="a_node2"><a xlink:href="AudioSourcePrefabFactory_8hpp.html" target="_top" xlink:title=" ">
<polygon fill="none" stroke="black" points="415,-67.5 415,-97.5 547,-97.5 547,-67.5 415,-67.5"/>
<text text-anchor="start" x="423" y="-85.5" font-family="Helvetica,sans-Serif" font-size="10.00">src/Factories/AudioSource</text>
<text text-anchor="middle" x="481" y="-74.5" font-family="Helvetica,sans-Serif" font-size="10.00">PrefabFactory.hpp</text>
</a>
</g>
</g>
<!-- Node1&#45;&gt;Node2 -->
<g id="edge1" class="edge">
<title>Node1&#45;&gt;Node2</title>
<path fill="none" stroke="midnightblue" d="M481,-124.23C481,-115.59 481,-105.5 481,-97.52"/>
<polygon fill="midnightblue" stroke="midnightblue" points="477.5,-124.48 481,-134.48 484.5,-124.48 477.5,-124.48"/>
</g>
<!-- Node3 -->
<g id="node3" class="node">
<title>Node3</title>
<g id="a_node3"><a xlink:href="AudioSourcePrefabFactory_8cpp.html" target="_top" xlink:title=" ">
<polygon fill="none" stroke="black" points="0,-0.5 0,-30.5 132,-30.5 132,-0.5 0,-0.5"/>
<text text-anchor="start" x="8" y="-18.5" font-family="Helvetica,sans-Serif" font-size="10.00">src/Factories/AudioSource</text>
<text text-anchor="middle" x="66" y="-7.5" font-family="Helvetica,sans-Serif" font-size="10.00">PrefabFactory.cpp</text>
</a>
</g>
</g>
<!-- Node2&#45;&gt;Node3 -->
<g id="edge2" class="edge">
<title>Node2&#45;&gt;Node3</title>
<path fill="none" stroke="midnightblue" d="M404.81,-71.15C335.81,-61.55 231.41,-46.45 141,-31 138.12,-30.51 135.19,-29.99 132.22,-29.47"/>
<polygon fill="midnightblue" stroke="midnightblue" points="404.34,-74.62 414.73,-72.53 405.31,-67.69 404.34,-74.62"/>
</g>
<!-- Node4 -->
<g id="node4" class="node">
<title>Node4</title>
<g id="a_node4"><a xlink:href="GameOverScene_8cpp.html" target="_top" xlink:title=" ">
<polygon fill="none" stroke="black" points="150,-6 150,-25 312,-25 312,-6 150,-6"/>
<text text-anchor="middle" x="231" y="-13" font-family="Helvetica,sans-Serif" font-size="10.00">src/Scenes/GameOverScene.cpp</text>
</a>
</g>
</g>
<!-- Node2&#45;&gt;Node4 -->
<g id="edge3" class="edge">
<title>Node2&#45;&gt;Node4</title>
<path fill="none" stroke="midnightblue" d="M417.19,-64.91C368.23,-52.18 302.64,-35.13 263.8,-25.03"/>
<polygon fill="midnightblue" stroke="midnightblue" points="416.5,-68.35 427.06,-67.48 418.26,-61.57 416.5,-68.35"/>
</g>
<!-- Node5 -->
<g id="node5" class="node">
<title>Node5</title>
<g id="a_node5"><a xlink:href="LevelScene_8cpp.html" target="_top" xlink:title=" ">
<polygon fill="none" stroke="black" points="330.5,-6 330.5,-25 469.5,-25 469.5,-6 330.5,-6"/>
<text text-anchor="middle" x="400" y="-13" font-family="Helvetica,sans-Serif" font-size="10.00">src/Scenes/LevelScene.cpp</text>
</a>
</g>
</g>
<!-- Node2&#45;&gt;Node5 -->
<g id="edge4" class="edge">
<title>Node2&#45;&gt;Node5</title>
<path fill="none" stroke="midnightblue" d="M455.46,-61.01C440.43,-48.94 422.19,-34.3 410.83,-25.19"/>
<polygon fill="midnightblue" stroke="midnightblue" points="453.43,-63.87 463.42,-67.4 457.82,-58.41 453.43,-63.87"/>
</g>
<!-- Node6 -->
<g id="node6" class="node">
<title>Node6</title>
<g id="a_node6"><a xlink:href="LoadingScene_8cpp.html" target="_top" xlink:title=" ">
<polygon fill="none" stroke="black" points="487.5,-6 487.5,-25 636.5,-25 636.5,-6 487.5,-6"/>
<text text-anchor="middle" x="562" y="-13" font-family="Helvetica,sans-Serif" font-size="10.00">src/Scenes/LoadingScene.cpp</text>
</a>
</g>
</g>
<!-- Node2&#45;&gt;Node6 -->
<g id="edge5" class="edge">
<title>Node2&#45;&gt;Node6</title>
<path fill="none" stroke="midnightblue" d="M506.54,-61.01C521.57,-48.94 539.81,-34.3 551.17,-25.19"/>
<polygon fill="midnightblue" stroke="midnightblue" points="504.18,-58.41 498.58,-67.4 508.57,-63.87 504.18,-58.41"/>
</g>
<!-- Node7 -->
<g id="node7" class="node">
<title>Node7</title>
<g id="a_node7"><a xlink:href="MainScene_8cpp.html" target="_top" xlink:title=" ">
<polygon fill="none" stroke="black" points="655,-6 655,-25 791,-25 791,-6 655,-6"/>
<text text-anchor="middle" x="723" y="-13" font-family="Helvetica,sans-Serif" font-size="10.00">src/Scenes/MainScene.cpp</text>
</a>
</g>
</g>
<!-- Node2&#45;&gt;Node7 -->
<g id="edge6" class="edge">
<title>Node2&#45;&gt;Node7</title>
<path fill="none" stroke="midnightblue" d="M543.06,-64.83C590.42,-52.11 653.73,-35.11 691.25,-25.03"/>
<polygon fill="midnightblue" stroke="midnightblue" points="541.96,-61.5 533.21,-67.48 543.78,-68.26 541.96,-61.5"/>
</g>
<!-- Node8 -->
<g id="node8" class="node">
<title>Node8</title>
<g id="a_node8"><a xlink:href="VictoryScene_8cpp.html" target="_top" xlink:title=" ">
<polygon fill="none" stroke="black" points="809.5,-6 809.5,-25 954.5,-25 954.5,-6 809.5,-6"/>
<text text-anchor="middle" x="882" y="-13" font-family="Helvetica,sans-Serif" font-size="10.00">src/Scenes/VictoryScene.cpp</text>
</a>
</g>
</g>
<!-- Node2&#45;&gt;Node8 -->
<g id="edge7" class="edge">
<title>Node2&#45;&gt;Node8</title>
<path fill="none" stroke="midnightblue" d="M557.15,-69.84C621.82,-59.84 717.06,-44.9 800,-31 811.26,-29.11 823.38,-27.01 834.76,-25"/>
<polygon fill="midnightblue" stroke="midnightblue" points="556.39,-66.42 547.04,-71.4 557.46,-73.33 556.39,-66.42"/>
</g>
</g>
</svg>
