<?xml version="1.0" encoding="UTF-8" standalone="no"?>
<!DOCTYPE svg PUBLIC "-//W3C//DTD SVG 1.1//EN"
 "http://www.w3.org/Graphics/SVG/1.1/DTD/svg11.dtd">
<!-- Generated by graphviz version 2.44.0 ()
 -->
<!-- Title: src/Factories/AudioSourcePrefabFactory.hpp Pages: 1 -->
<svg width="1937pt" height="117pt"
 viewBox="0.00 0.00 1937.00 117.00" xmlns="http://www.w3.org/2000/svg" xmlns:xlink="http://www.w3.org/1999/xlink">
<g id="graph0" class="graph" transform="scale(1 1) rotate(0) translate(4 113)">
<title>src/Factories/AudioSourcePrefabFactory.hpp</title>
<!-- Node1 -->
<g id="node1" class="node">
<title>Node1</title>
<g id="a_node1"><a xlink:title=" ">
<polygon fill="#bfbfbf" stroke="black" points="891,-78.5 891,-108.5 1023,-108.5 1023,-78.5 891,-78.5"/>
<text text-anchor="start" x="899" y="-96.5" font-family="Helvetica,sans-Serif" font-size="10.00">src/Factories/AudioSource</text>
<text text-anchor="middle" x="957" y="-85.5" font-family="Helvetica,sans-Serif" font-size="10.00">PrefabFactory.hpp</text>
</a>
</g>
</g>
<!-- Node2 -->
<g id="node2" class="node">
<title>Node2</title>
<g id="a_node2"><a xlink:href="AudioSourcePrefabFactory_8cpp.html" target="_top" xlink:title=" ">
<polygon fill="none" stroke="black" points="0,-6 0,-36 132,-36 132,-6 0,-6"/>
<text text-anchor="start" x="8" y="-24" font-family="Helvetica,sans-Serif" font-size="10.00">src/Factories/AudioSource</text>
<text text-anchor="middle" x="66" y="-13" font-family="Helvetica,sans-Serif" font-size="10.00">PrefabFactory.cpp</text>
</a>
</g>
</g>
<!-- Node1&#45;&gt;Node2 -->
<g id="edge1" class="edge">
<title>Node1&#45;&gt;Node2</title>
<path fill="none" stroke="midnightblue" d="M880.8,-92.81C735.79,-92.3 410.52,-85.83 141,-42 131.82,-40.51 122.14,-38.37 112.9,-36.04"/>
<polygon fill="midnightblue" stroke="midnightblue" points="880.92,-96.31 890.93,-92.84 880.94,-89.31 880.92,-96.31"/>
</g>
<!-- Node3 -->
<g id="node3" class="node">
<title>Node3</title>
<g id="a_node3"><a xlink:href="GameOverScene_8cpp.html" target="_top" xlink:title=" ">
<polygon fill="none" stroke="black" points="150,-11.5 150,-30.5 312,-30.5 312,-11.5 150,-11.5"/>
<text text-anchor="middle" x="231" y="-18.5" font-family="Helvetica,sans-Serif" font-size="10.00">src/Scenes/GameOverScene.cpp</text>
</a>
</g>
</g>
<!-- Node1&#45;&gt;Node3 -->
<g id="edge2" class="edge">
<title>Node1&#45;&gt;Node3</title>
<path fill="none" stroke="midnightblue" d="M880.56,-89.87C760.74,-84.98 521.63,-72.11 321,-42 302.01,-39.15 281.04,-34.58 264.13,-30.52"/>
<polygon fill="midnightblue" stroke="midnightblue" points="880.6,-93.38 890.73,-90.28 880.88,-86.38 880.6,-93.38"/>
</g>
<!-- Node4 -->
<g id="node4" class="node">
<title>Node4</title>
<g id="a_node4"><a xlink:href="LevelScene_8cpp.html" target="_top" xlink:title=" ">
<polygon fill="none" stroke="black" points="330.5,-11.5 330.5,-30.5 469.5,-30.5 469.5,-11.5 330.5,-11.5"/>
<text text-anchor="middle" x="400" y="-18.5" font-family="Helvetica,sans-Serif" font-size="10.00">src/Scenes/LevelScene.cpp</text>
</a>
</g>
</g>
<!-- Node1&#45;&gt;Node4 -->
<g id="edge3" class="edge">
<title>Node1&#45;&gt;Node4</title>
<path fill="none" stroke="midnightblue" d="M880.62,-87.9C785.68,-81.39 618.95,-67.36 478,-42 461.63,-39.05 443.62,-34.53 429.04,-30.52"/>
<polygon fill="midnightblue" stroke="midnightblue" points="880.5,-91.4 890.71,-88.58 880.97,-84.41 880.5,-91.4"/>
</g>
<!-- Node5 -->
<g id="node5" class="node">
<title>Node5</title>
<g id="a_node5"><a xlink:href="LoadingScene_8cpp.html" target="_top" xlink:title=" ">
<polygon fill="none" stroke="black" points="487.5,-11.5 487.5,-30.5 636.5,-30.5 636.5,-11.5 487.5,-11.5"/>
<text text-anchor="middle" x="562" y="-18.5" font-family="Helvetica,sans-Serif" font-size="10.00">src/Scenes/LoadingScene.cpp</text>
</a>
</g>
</g>
<!-- Node1&#45;&gt;Node5 -->
<g id="edge4" class="edge">
<title>Node1&#45;&gt;Node5</title>
<path fill="none" stroke="midnightblue" d="M880.79,-81.82C817.44,-72.54 725.04,-58.1 645,-42 628.43,-38.67 610.16,-34.34 594.99,-30.56"/>
<polygon fill="midnightblue" stroke="midnightblue" points="880.3,-85.28 890.7,-83.26 881.31,-78.36 880.3,-85.28"/>
</g>
<!-- Node6 -->
<g id="node6" class="node">
<title>Node6</title>
<g id="a_node6"><a xlink:href="VictoryScene_8cpp.html" target="_top" xlink:title=" ">
<polygon fill="none" stroke="black" points="654.5,-11.5 654.5,-30.5 799.5,-30.5 799.5,-11.5 654.5,-11.5"/>
<text text-anchor="middle" x="727" y="-18.5" font-family="Helvetica,sans-Serif" font-size="10.00">src/Scenes/VictoryScene.cpp</text>
</a>
</g>
</g>
<!-- Node1&#45;&gt;Node6 -->
<g id="edge5" class="edge">
<title>Node1&#45;&gt;Node6</title>
<path fill="none" stroke="midnightblue" d="M901.69,-75.55C855.37,-61.35 791.19,-41.68 754.91,-30.55"/>
<polygon fill="midnightblue" stroke="midnightblue" points="900.7,-78.9 911.28,-78.49 902.75,-72.21 900.7,-78.9"/>
</g>
<!-- Node7 -->
<g id="node7" class="node">
<title>Node7</title>
<g id="a_node7"><a xlink:href="GameLostBehaviour_8cpp.html" target="_top" xlink:title=" ">
<polygon fill="none" stroke="black" points="817.5,-6 817.5,-36 944.5,-36 944.5,-6 817.5,-6"/>
<text text-anchor="start" x="825.5" y="-24" font-family="Helvetica,sans-Serif" font-size="10.00">src/Scripts/Common</text>
<text text-anchor="middle" x="881" y="-13" font-family="Helvetica,sans-Serif" font-size="10.00">/GameLostBehaviour.cpp</text>
</a>
</g>
</g>
<!-- Node1&#45;&gt;Node7 -->
<g id="edge6" class="edge">
<title>Node1&#45;&gt;Node7</title>
<path fill="none" stroke="midnightblue" d="M933.97,-71.14C921.69,-59.74 906.92,-46.04 896.1,-36"/>
<polygon fill="midnightblue" stroke="midnightblue" points="931.91,-74 941.62,-78.23 936.67,-68.87 931.91,-74"/>
</g>
<!-- Node8 -->
<g id="node8" class="node">
<title>Node8</title>
<g id="a_node8"><a xlink:href="AirstrikeAbilityBehaviour_8cpp.html" target="_top" xlink:title=" ">
<polygon fill="none" stroke="black" points="962.5,-6 962.5,-36 1105.5,-36 1105.5,-6 962.5,-6"/>
<text text-anchor="start" x="970.5" y="-24" font-family="Helvetica,sans-Serif" font-size="10.00">src/Scripts/Heroes</text>
<text text-anchor="middle" x="1034" y="-13" font-family="Helvetica,sans-Serif" font-size="10.00">/AirstrikeAbilityBehaviour.cpp</text>
</a>
</g>
</g>
<!-- Node1&#45;&gt;Node8 -->
<g id="edge7" class="edge">
<title>Node1&#45;&gt;Node8</title>
<path fill="none" stroke="midnightblue" d="M979.98,-71.46C992.49,-60 1007.64,-46.14 1018.7,-36"/>
<polygon fill="midnightblue" stroke="midnightblue" points="977.59,-68.9 972.58,-78.23 982.32,-74.06 977.59,-68.9"/>
</g>
<!-- Node9 -->
<g id="node9" class="node">
<title>Node9</title>
<g id="a_node9"><a xlink:href="EnemySuicideAbilityBehaviour_8cpp.html" target="_top" xlink:title=" ">
<polygon fill="none" stroke="black" points="1123.5,-6 1123.5,-36 1292.5,-36 1292.5,-6 1123.5,-6"/>
<text text-anchor="start" x="1131.5" y="-24" font-family="Helvetica,sans-Serif" font-size="10.00">src/Scripts/Heroes</text>
<text text-anchor="middle" x="1208" y="-13" font-family="Helvetica,sans-Serif" font-size="10.00">/EnemySuicideAbilityBehaviour.cpp</text>
</a>
</g>
</g>
<!-- Node1&#45;&gt;Node9 -->
<g id="edge8" class="edge">
<title>Node1&#45;&gt;Node9</title>
<path fill="none" stroke="midnightblue" d="M1016.67,-75.74C1059.68,-63.66 1117.1,-47.53 1157.78,-36.11"/>
<polygon fill="midnightblue" stroke="midnightblue" points="1015.57,-72.41 1006.89,-78.49 1017.46,-79.15 1015.57,-72.41"/>
</g>
<!-- Node10 -->
<g id="node10" class="node">
<title>Node10</title>
<g id="a_node10"><a xlink:href="HealAbilityBehaviour_8cpp.html" target="_top" xlink:title=" ">
<polygon fill="none" stroke="black" points="1311,-6 1311,-36 1439,-36 1439,-6 1311,-6"/>
<text text-anchor="start" x="1319" y="-24" font-family="Helvetica,sans-Serif" font-size="10.00">src/Scripts/Heroes</text>
<text text-anchor="middle" x="1375" y="-13" font-family="Helvetica,sans-Serif" font-size="10.00">/HealAbilityBehaviour.cpp</text>
</a>
</g>
</g>
<!-- Node1&#45;&gt;Node10 -->
<g id="edge9" class="edge">
<title>Node1&#45;&gt;Node10</title>
<path fill="none" stroke="midnightblue" d="M1033.33,-84.04C1103.55,-75.62 1210.37,-61.18 1302,-42 1310.1,-40.3 1318.64,-38.23 1326.9,-36.07"/>
<polygon fill="midnightblue" stroke="midnightblue" points="1032.76,-80.58 1023.24,-85.24 1033.58,-87.54 1032.76,-80.58"/>
</g>
<!-- Node11 -->
<g id="node11" class="node">
<title>Node11</title>
<g id="a_node11"><a xlink:href="IncreaseTowerFireRateAbilityBehaviour_8cpp.html" target="_top" xlink:title=" ">
<polygon fill="none" stroke="black" points="1457.5,-0.5 1457.5,-41.5 1604.5,-41.5 1604.5,-0.5 1457.5,-0.5"/>
<text text-anchor="start" x="1465.5" y="-29.5" font-family="Helvetica,sans-Serif" font-size="10.00">src/Scripts/Heroes</text>
<text text-anchor="start" x="1465.5" y="-18.5" font-family="Helvetica,sans-Serif" font-size="10.00">/IncreaseTowerFireRateAbility</text>
<text text-anchor="middle" x="1531" y="-7.5" font-family="Helvetica,sans-Serif" font-size="10.00">Behaviour.cpp</text>
</a>
</g>
</g>
<!-- Node1&#45;&gt;Node11 -->
<g id="edge10" class="edge">
<title>Node1&#45;&gt;Node11</title>
<path fill="none" stroke="midnightblue" d="M1033.3,-87.83C1130.22,-81.18 1302.38,-66.92 1448,-42 1451.07,-41.48 1454.19,-40.9 1457.34,-40.29"/>
<polygon fill="midnightblue" stroke="midnightblue" points="1033.04,-84.34 1023.3,-88.51 1033.51,-91.33 1033.04,-84.34"/>
</g>
<!-- Node12 -->
<g id="node12" class="node">
<title>Node12</title>
<g id="a_node12"><a xlink:href="IncreaseTowerRangeAbilityBehaviour_8cpp.html" target="_top" xlink:title=" ">
<polygon fill="none" stroke="black" points="1623,-0.5 1623,-41.5 1761,-41.5 1761,-0.5 1623,-0.5"/>
<text text-anchor="start" x="1631" y="-29.5" font-family="Helvetica,sans-Serif" font-size="10.00">src/Scripts/Heroes</text>
<text text-anchor="start" x="1631" y="-18.5" font-family="Helvetica,sans-Serif" font-size="10.00">/IncreaseTowerRangeAbility</text>
<text text-anchor="middle" x="1692" y="-7.5" font-family="Helvetica,sans-Serif" font-size="10.00">Behaviour.cpp</text>
</a>
</g>
</g>
<!-- Node1&#45;&gt;Node12 -->
<g id="edge11" class="edge">
<title>Node1&#45;&gt;Node12</title>
<path fill="none" stroke="midnightblue" d="M1033.27,-90.94C1156.26,-87.47 1405.69,-76.44 1614,-42 1616.9,-41.52 1619.84,-40.99 1622.81,-40.41"/>
<polygon fill="midnightblue" stroke="midnightblue" points="1033.1,-87.45 1023.2,-91.22 1033.29,-94.44 1033.1,-87.45"/>
</g>
<!-- Node13 -->
<g id="node13" class="node">
<title>Node13</title>
<g id="a_node13"><a xlink:href="InvisibilityAbilityBehaviour_8cpp.html" target="_top" xlink:title=" ">
<polygon fill="none" stroke="black" points="1779,-6 1779,-36 1929,-36 1929,-6 1779,-6"/>
<text text-anchor="start" x="1787" y="-24" font-family="Helvetica,sans-Serif" font-size="10.00">src/Scripts/Heroes</text>
<text text-anchor="middle" x="1854" y="-13" font-family="Helvetica,sans-Serif" font-size="10.00">/InvisibilityAbilityBehaviour.cpp</text>
</a>
</g>
</g>
<!-- Node1&#45;&gt;Node13 -->
<g id="edge12" class="edge">
<title>Node1&#45;&gt;Node13</title>
<path fill="none" stroke="midnightblue" d="M1033.09,-92.12C1177.53,-90.43 1501.08,-82.06 1770,-42 1780.08,-40.5 1790.74,-38.38 1800.94,-36.09"/>
<polygon fill="midnightblue" stroke="midnightblue" points="1032.96,-88.62 1023,-92.23 1033.04,-95.62 1032.96,-88.62"/>
</g>
</g>
</svg>
