<?xml version="1.0" encoding="UTF-8" standalone="no"?>
<!DOCTYPE svg PUBLIC "-//W3C//DTD SVG 1.1//EN"
 "http://www.w3.org/Graphics/SVG/1.1/DTD/svg11.dtd">
<!-- Generated by graphviz version 2.44.0 ()
 -->
<!-- Title: src/Factories/AudioSourcePrefabFactory.cpp Pages: 1 -->
<svg width="761pt" height="263pt"
 viewBox="0.00 0.00 760.74 263.00" xmlns="http://www.w3.org/2000/svg" xmlns:xlink="http://www.w3.org/1999/xlink">
<g id="graph0" class="graph" transform="scale(1 1) rotate(0) translate(4 259)">
<title>src/Factories/AudioSourcePrefabFactory.cpp</title>
<!-- Node1 -->
<g id="node1" class="node">
<title>Node1</title>
<g id="a_node1"><a xlink:title=" ">
<polygon fill="#bfbfbf" stroke="black" points="425.24,-224.5 425.24,-254.5 557.24,-254.5 557.24,-224.5 425.24,-224.5"/>
<text text-anchor="start" x="433.24" y="-242.5" font-family="Helvetica,sans-Serif" font-size="10.00">src/Factories/AudioSource</text>
<text text-anchor="middle" x="491.24" y="-231.5" font-family="Helvetica,sans-Serif" font-size="10.00">PrefabFactory.cpp</text>
</a>
</g>
</g>
<!-- Node2 -->
<g id="node2" class="node">
<title>Node2</title>
<g id="a_node2"><a xlink:href="AudioSourcePrefabFactory_8hpp.html" target="_top" xlink:title=" ">
<polygon fill="none" stroke="black" points="119.74,-168.5 119.74,-187.5 270.74,-187.5 270.74,-168.5 119.74,-168.5"/>
<text text-anchor="middle" x="195.24" y="-175.5" font-family="Helvetica,sans-Serif" font-size="10.00">AudioSourcePrefabFactory.hpp</text>
</a>
</g>
</g>
<!-- Node1&#45;&gt;Node2 -->
<g id="edge1" class="edge">
<title>Node1&#45;&gt;Node2</title>
<path fill="none" stroke="midnightblue" d="M425.18,-225.22C371.62,-214.45 297.15,-199.49 247.64,-189.53"/>
<polygon fill="midnightblue" stroke="midnightblue" points="248.27,-186.09 237.78,-187.55 246.89,-192.95 248.27,-186.09"/>
</g>
<!-- Node12 -->
<g id="node12" class="node">
<title>Node12</title>
<g id="a_node12"><a xlink:href="Layer_8hpp.html" target="_top" xlink:title=" ">
<polygon fill="none" stroke="black" points="441.74,-168.5 441.74,-187.5 540.74,-187.5 540.74,-168.5 441.74,-168.5"/>
<text text-anchor="middle" x="491.24" y="-175.5" font-family="Helvetica,sans-Serif" font-size="10.00">../Enums/Layer.hpp</text>
</a>
</g>
</g>
<!-- Node1&#45;&gt;Node12 -->
<g id="edge15" class="edge">
<title>Node1&#45;&gt;Node12</title>
<path fill="none" stroke="midnightblue" d="M491.24,-224.4C491.24,-216.47 491.24,-206.46 491.24,-197.86"/>
<polygon fill="midnightblue" stroke="midnightblue" points="494.74,-197.66 491.24,-187.66 487.74,-197.66 494.74,-197.66"/>
</g>
<!-- Node13 -->
<g id="node13" class="node">
<title>Node13</title>
<g id="a_node13"><a xlink:href="GameObjectUtil_8hpp.html" target="_top" xlink:title=" ">
<polygon fill="none" stroke="black" points="288.74,-168.5 288.74,-187.5 423.74,-187.5 423.74,-168.5 288.74,-168.5"/>
<text text-anchor="middle" x="356.24" y="-175.5" font-family="Helvetica,sans-Serif" font-size="10.00">../Utils/GameObjectUtil.hpp</text>
</a>
</g>
</g>
<!-- Node1&#45;&gt;Node13 -->
<g id="edge16" class="edge">
<title>Node1&#45;&gt;Node13</title>
<path fill="none" stroke="midnightblue" d="M459.25,-224.4C436.8,-214.51 407.02,-201.38 385.26,-191.79"/>
<polygon fill="midnightblue" stroke="midnightblue" points="386.44,-188.49 375.88,-187.66 383.62,-194.89 386.44,-188.49"/>
</g>
<!-- Node14 -->
<g id="node14" class="node">
<title>Node14</title>
<g id="a_node14"><a xlink:href="RandomUtil_8hpp.html" target="_top" xlink:title=" ">
<polygon fill="none" stroke="black" points="559.24,-168.5 559.24,-187.5 675.24,-187.5 675.24,-168.5 559.24,-168.5"/>
<text text-anchor="middle" x="617.24" y="-175.5" font-family="Helvetica,sans-Serif" font-size="10.00">../Utils/RandomUtil.hpp</text>
</a>
</g>
</g>
<!-- Node1&#45;&gt;Node14 -->
<g id="edge19" class="edge">
<title>Node1&#45;&gt;Node14</title>
<path fill="none" stroke="midnightblue" d="M521.1,-224.4C541.86,-214.59 569.34,-201.62 589.6,-192.05"/>
<polygon fill="midnightblue" stroke="midnightblue" points="591.36,-195.09 598.9,-187.66 588.37,-188.76 591.36,-195.09"/>
</g>
<!-- Node16 -->
<g id="node16" class="node">
<title>Node16</title>
<g id="a_node16"><a xlink:title=" ">
<polygon fill="none" stroke="#bfbfbf" points="693.74,-168.5 693.74,-187.5 752.74,-187.5 752.74,-168.5 693.74,-168.5"/>
<text text-anchor="middle" x="723.24" y="-175.5" font-family="Helvetica,sans-Serif" font-size="10.00">stdexcept</text>
</a>
</g>
</g>
<!-- Node1&#45;&gt;Node16 -->
<g id="edge21" class="edge">
<title>Node1&#45;&gt;Node16</title>
<path fill="none" stroke="midnightblue" d="M545.93,-224.47C588.17,-213.64 645.64,-198.9 683.56,-189.18"/>
<polygon fill="midnightblue" stroke="midnightblue" points="684.89,-192.45 693.7,-186.57 683.15,-185.67 684.89,-192.45"/>
</g>
<!-- Node3 -->
<g id="node3" class="node">
<title>Node3</title>
<g id="a_node3"><a xlink:title=" ">
<polygon fill="none" stroke="#bfbfbf" points="231.74,-0.5 231.74,-19.5 282.74,-19.5 282.74,-0.5 231.74,-0.5"/>
<text text-anchor="middle" x="257.24" y="-7.5" font-family="Helvetica,sans-Serif" font-size="10.00">memory</text>
</a>
</g>
</g>
<!-- Node2&#45;&gt;Node3 -->
<g id="edge2" class="edge">
<title>Node2&#45;&gt;Node3</title>
<path fill="none" stroke="midnightblue" d="M119.73,-176.31C55.65,-172.58 -21.79,-158.71 6.24,-112 51.17,-37.11 163.24,-17.73 221.22,-12.73"/>
<polygon fill="midnightblue" stroke="midnightblue" points="221.68,-16.2 231.39,-11.95 221.15,-9.22 221.68,-16.2"/>
</g>
<!-- Node4 -->
<g id="node4" class="node">
<title>Node4</title>
<g id="a_node4"><a xlink:href="GameObject_8hpp.html" target="_top" xlink:title=" ">
<polygon fill="none" stroke="black" points="285.74,-112.5 285.74,-131.5 374.74,-131.5 374.74,-112.5 285.74,-112.5"/>
<text text-anchor="middle" x="330.24" y="-119.5" font-family="Helvetica,sans-Serif" font-size="10.00">GameObject.hpp</text>
</a>
</g>
</g>
<!-- Node2&#45;&gt;Node4 -->
<g id="edge3" class="edge">
<title>Node2&#45;&gt;Node4</title>
<path fill="none" stroke="midnightblue" d="M216.63,-168.44C238.95,-159.52 274.14,-145.44 299.45,-135.32"/>
<polygon fill="midnightblue" stroke="midnightblue" points="300.96,-138.48 308.95,-131.52 298.36,-131.98 300.96,-138.48"/>
</g>
<!-- Node10 -->
<g id="node10" class="node">
<title>Node10</title>
<g id="a_node10"><a xlink:href="AudioSource_8hpp.html" target="_top" xlink:title=" ">
<polygon fill="none" stroke="black" points="177.24,-112.5 177.24,-131.5 267.24,-131.5 267.24,-112.5 177.24,-112.5"/>
<text text-anchor="middle" x="222.24" y="-119.5" font-family="Helvetica,sans-Serif" font-size="10.00">AudioSource.hpp</text>
</a>
</g>
</g>
<!-- Node2&#45;&gt;Node10 -->
<g id="edge11" class="edge">
<title>Node2&#45;&gt;Node10</title>
<path fill="none" stroke="midnightblue" d="M199.7,-168.08C203.39,-160.69 208.76,-149.95 213.33,-140.81"/>
<polygon fill="midnightblue" stroke="midnightblue" points="216.52,-142.26 217.86,-131.75 210.26,-139.13 216.52,-142.26"/>
</g>
<!-- Node11 -->
<g id="node11" class="node">
<title>Node11</title>
<g id="a_node11"><a xlink:href="AudioClipName_8hpp.html" target="_top" xlink:title=" ">
<polygon fill="none" stroke="black" points="15.74,-112.5 15.74,-131.5 158.74,-131.5 158.74,-112.5 15.74,-112.5"/>
<text text-anchor="middle" x="87.24" y="-119.5" font-family="Helvetica,sans-Serif" font-size="10.00">../Enums/AudioClipName.hpp</text>
</a>
</g>
</g>
<!-- Node2&#45;&gt;Node11 -->
<g id="edge14" class="edge">
<title>Node2&#45;&gt;Node11</title>
<path fill="none" stroke="midnightblue" d="M177.89,-168.32C160.57,-159.66 133.72,-146.24 113.74,-136.25"/>
<polygon fill="midnightblue" stroke="midnightblue" points="115.06,-133 104.55,-131.65 111.93,-139.26 115.06,-133"/>
</g>
<!-- Node4&#45;&gt;Node3 -->
<g id="edge10" class="edge">
<title>Node4&#45;&gt;Node3</title>
<path fill="none" stroke="midnightblue" d="M324.51,-112.37C312.46,-94.22 284.32,-51.8 268.51,-27.99"/>
<polygon fill="midnightblue" stroke="midnightblue" points="271.39,-25.99 262.94,-19.59 265.55,-29.86 271.39,-25.99"/>
</g>
<!-- Node5 -->
<g id="node5" class="node">
<title>Node5</title>
<g id="a_node5"><a xlink:href="Component_8hpp.html" target="_top" xlink:title=" ">
<polygon fill="none" stroke="black" points="180.24,-56.5 180.24,-75.5 264.24,-75.5 264.24,-56.5 180.24,-56.5"/>
<text text-anchor="middle" x="222.24" y="-63.5" font-family="Helvetica,sans-Serif" font-size="10.00">Component.hpp</text>
</a>
</g>
</g>
<!-- Node4&#45;&gt;Node5 -->
<g id="edge4" class="edge">
<title>Node4&#45;&gt;Node5</title>
<path fill="none" stroke="midnightblue" d="M312.89,-112.32C295.57,-103.66 268.72,-90.24 248.74,-80.25"/>
<polygon fill="midnightblue" stroke="midnightblue" points="250.06,-77 239.55,-75.65 246.93,-83.26 250.06,-77"/>
</g>
<!-- Node6 -->
<g id="node6" class="node">
<title>Node6</title>
<g id="a_node6"><a xlink:href="Transform_8hpp.html" target="_top" xlink:title=" ">
<polygon fill="none" stroke="black" points="381.74,-56.5 381.74,-75.5 460.74,-75.5 460.74,-56.5 381.74,-56.5"/>
<text text-anchor="middle" x="421.24" y="-63.5" font-family="Helvetica,sans-Serif" font-size="10.00">Transform.hpp</text>
</a>
</g>
</g>
<!-- Node4&#45;&gt;Node6 -->
<g id="edge6" class="edge">
<title>Node4&#45;&gt;Node6</title>
<path fill="none" stroke="midnightblue" d="M344.86,-112.32C359.19,-103.82 381.25,-90.73 397.99,-80.8"/>
<polygon fill="midnightblue" stroke="midnightblue" points="399.84,-83.77 406.65,-75.65 396.27,-77.75 399.84,-83.77"/>
</g>
<!-- Node8 -->
<g id="node8" class="node">
<title>Node8</title>
<g id="a_node8"><a xlink:title=" ">
<polygon fill="none" stroke="#bfbfbf" points="120.74,-56.5 120.74,-75.5 161.74,-75.5 161.74,-56.5 120.74,-56.5"/>
<text text-anchor="middle" x="141.24" y="-63.5" font-family="Helvetica,sans-Serif" font-size="10.00">string</text>
</a>
</g>
</g>
<!-- Node4&#45;&gt;Node8 -->
<g id="edge8" class="edge">
<title>Node4&#45;&gt;Node8</title>
<path fill="none" stroke="midnightblue" d="M299.42,-112.43C269.3,-104.02 221.9,-90.7 171.63,-76.08"/>
<polygon fill="midnightblue" stroke="midnightblue" points="172.46,-72.68 161.88,-73.24 170.5,-79.4 172.46,-72.68"/>
</g>
<!-- Node9 -->
<g id="node9" class="node">
<title>Node9</title>
<g id="a_node9"><a xlink:title=" ">
<polygon fill="none" stroke="#bfbfbf" points="320.24,-56.5 320.24,-75.5 364.24,-75.5 364.24,-56.5 320.24,-56.5"/>
<text text-anchor="middle" x="342.24" y="-63.5" font-family="Helvetica,sans-Serif" font-size="10.00">vector</text>
</a>
</g>
</g>
<!-- Node4&#45;&gt;Node9 -->
<g id="edge9" class="edge">
<title>Node4&#45;&gt;Node9</title>
<path fill="none" stroke="midnightblue" d="M332.22,-112.08C333.81,-104.93 336.1,-94.64 338.09,-85.69"/>
<polygon fill="midnightblue" stroke="midnightblue" points="341.54,-86.27 340.29,-75.75 334.71,-84.75 341.54,-86.27"/>
</g>
<!-- Node5&#45;&gt;Node3 -->
<g id="edge5" class="edge">
<title>Node5&#45;&gt;Node3</title>
<path fill="none" stroke="midnightblue" d="M228.02,-56.08C232.91,-48.53 240.07,-37.49 246.07,-28.23"/>
<polygon fill="midnightblue" stroke="midnightblue" points="249.06,-30.05 251.57,-19.75 243.19,-26.24 249.06,-30.05"/>
</g>
<!-- Node7 -->
<g id="node7" class="node">
<title>Node7</title>
<g id="a_node7"><a xlink:href="Point_8hpp.html" target="_top" xlink:title=" ">
<polygon fill="none" stroke="black" points="392.74,-0.5 392.74,-19.5 449.74,-19.5 449.74,-0.5 392.74,-0.5"/>
<text text-anchor="middle" x="421.24" y="-7.5" font-family="Helvetica,sans-Serif" font-size="10.00">Point.hpp</text>
</a>
</g>
</g>
<!-- Node6&#45;&gt;Node7 -->
<g id="edge7" class="edge">
<title>Node6&#45;&gt;Node7</title>
<path fill="none" stroke="midnightblue" d="M421.24,-56.08C421.24,-49.01 421.24,-38.86 421.24,-29.99"/>
<polygon fill="midnightblue" stroke="midnightblue" points="424.74,-29.75 421.24,-19.75 417.74,-29.75 424.74,-29.75"/>
</g>
<!-- Node10&#45;&gt;Node5 -->
<g id="edge12" class="edge">
<title>Node10&#45;&gt;Node5</title>
<path fill="none" stroke="midnightblue" d="M222.24,-112.08C222.24,-105.01 222.24,-94.86 222.24,-85.99"/>
<polygon fill="midnightblue" stroke="midnightblue" points="225.74,-85.75 222.24,-75.75 218.74,-85.75 225.74,-85.75"/>
</g>
<!-- Node10&#45;&gt;Node8 -->
<g id="edge13" class="edge">
<title>Node10&#45;&gt;Node8</title>
<path fill="none" stroke="midnightblue" d="M209.22,-112.32C196.71,-103.98 177.56,-91.21 162.77,-81.35"/>
<polygon fill="midnightblue" stroke="midnightblue" points="164.48,-78.29 154.22,-75.65 160.6,-84.11 164.48,-78.29"/>
</g>
<!-- Node13&#45;&gt;Node3 -->
<g id="edge17" class="edge">
<title>Node13&#45;&gt;Node3</title>
<path fill="none" stroke="midnightblue" d="M375.75,-168.46C417.01,-149.23 506.5,-100.73 470.24,-56 448.32,-28.97 347.74,-17.54 292.99,-13.26"/>
<polygon fill="midnightblue" stroke="midnightblue" points="293.24,-9.77 283.01,-12.52 292.72,-16.75 293.24,-9.77"/>
</g>
<!-- Node13&#45;&gt;Node4 -->
<g id="edge18" class="edge">
<title>Node13&#45;&gt;Node4</title>
<path fill="none" stroke="midnightblue" d="M351.95,-168.08C348.39,-160.69 343.22,-149.95 338.81,-140.81"/>
<polygon fill="midnightblue" stroke="midnightblue" points="341.94,-139.24 334.45,-131.75 335.64,-142.28 341.94,-139.24"/>
</g>
<!-- Node15 -->
<g id="node15" class="node">
<title>Node15</title>
<g id="a_node15"><a xlink:title=" ">
<polygon fill="none" stroke="#bfbfbf" points="592.74,-112.5 592.74,-131.5 641.74,-131.5 641.74,-112.5 592.74,-112.5"/>
<text text-anchor="middle" x="617.24" y="-119.5" font-family="Helvetica,sans-Serif" font-size="10.00">random</text>
</a>
</g>
</g>
<!-- Node14&#45;&gt;Node15 -->
<g id="edge20" class="edge">
<title>Node14&#45;&gt;Node15</title>
<path fill="none" stroke="midnightblue" d="M617.24,-168.08C617.24,-161.01 617.24,-150.86 617.24,-141.99"/>
<polygon fill="midnightblue" stroke="midnightblue" points="620.74,-141.75 617.24,-131.75 613.74,-141.75 620.74,-141.75"/>
</g>
</g>
</svg>
