<?xml version="1.0" encoding="UTF-8" standalone="no"?>
<!DOCTYPE svg PUBLIC "-//W3C//DTD SVG 1.1//EN"
 "http://www.w3.org/Graphics/SVG/1.1/DTD/svg11.dtd">
<!-- Generated by graphviz version 2.44.0 ()
 -->
<!-- Title: src/Enums/AudioClipName.hpp Pages: 1 -->
<svg width="1108pt" height="162pt"
 viewBox="0.00 0.00 1107.50 162.00" xmlns="http://www.w3.org/2000/svg" xmlns:xlink="http://www.w3.org/1999/xlink">
<g id="graph0" class="graph" transform="scale(1 1) rotate(0) translate(4 158)">
<title>src/Enums/AudioClipName.hpp</title>
<!-- Node1 -->
<g id="node1" class="node">
<title>Node1</title>
<g id="a_node1"><a xlink:title=" ">
<polygon fill="#bfbfbf" stroke="black" points="613,-134.5 613,-153.5 765,-153.5 765,-134.5 613,-134.5"/>
<text text-anchor="middle" x="689" y="-141.5" font-family="Helvetica,sans-Serif" font-size="10.00">src/Enums/AudioClipName.hpp</text>
</a>
</g>
</g>
<!-- Node2 -->
<g id="node2" class="node">
<title>Node2</title>
<g id="a_node2"><a xlink:href="AudioSourcePrefabFactory_8hpp.html" target="_top" xlink:title=" ">
<polygon fill="none" stroke="black" points="576,-67.5 576,-97.5 708,-97.5 708,-67.5 576,-67.5"/>
<text text-anchor="start" x="584" y="-85.5" font-family="Helvetica,sans-Serif" font-size="10.00">src/Factories/AudioSource</text>
<text text-anchor="middle" x="642" y="-74.5" font-family="Helvetica,sans-Serif" font-size="10.00">PrefabFactory.hpp</text>
</a>
</g>
</g>
<!-- Node1&#45;&gt;Node2 -->
<g id="edge1" class="edge">
<title>Node1&#45;&gt;Node2</title>
<path fill="none" stroke="midnightblue" d="M675.99,-126.53C668.79,-117.42 659.94,-106.21 653.08,-97.52"/>
<polygon fill="midnightblue" stroke="midnightblue" points="673.32,-128.8 682.27,-134.48 678.81,-124.46 673.32,-128.8"/>
</g>
<!-- Node9 -->
<g id="node9" class="node">
<title>Node9</title>
<g id="a_node9"><a xlink:href="GameLostBehaviour_8cpp.html" target="_top" xlink:title=" ">
<polygon fill="none" stroke="black" points="972.5,-0.5 972.5,-30.5 1099.5,-30.5 1099.5,-0.5 972.5,-0.5"/>
<text text-anchor="start" x="980.5" y="-18.5" font-family="Helvetica,sans-Serif" font-size="10.00">src/Scripts/Common</text>
<text text-anchor="middle" x="1036" y="-7.5" font-family="Helvetica,sans-Serif" font-size="10.00">/GameLostBehaviour.cpp</text>
</a>
</g>
</g>
<!-- Node1&#45;&gt;Node9 -->
<g id="edge9" class="edge">
<title>Node1&#45;&gt;Node9</title>
<path fill="none" stroke="midnightblue" d="M722.26,-130.87C786.88,-107.32 929.05,-55.49 997.58,-30.51"/>
<polygon fill="midnightblue" stroke="midnightblue" points="720.77,-127.69 712.58,-134.4 723.17,-134.27 720.77,-127.69"/>
</g>
<!-- Node3 -->
<g id="node3" class="node">
<title>Node3</title>
<g id="a_node3"><a xlink:href="AudioSourcePrefabFactory_8cpp.html" target="_top" xlink:title=" ">
<polygon fill="none" stroke="black" points="0,-0.5 0,-30.5 132,-30.5 132,-0.5 0,-0.5"/>
<text text-anchor="start" x="8" y="-18.5" font-family="Helvetica,sans-Serif" font-size="10.00">src/Factories/AudioSource</text>
<text text-anchor="middle" x="66" y="-7.5" font-family="Helvetica,sans-Serif" font-size="10.00">PrefabFactory.cpp</text>
</a>
</g>
</g>
<!-- Node2&#45;&gt;Node3 -->
<g id="edge2" class="edge">
<title>Node2&#45;&gt;Node3</title>
<path fill="none" stroke="midnightblue" d="M565.56,-75.96C467.08,-68.32 290.74,-52.98 141,-31 138.11,-30.58 135.17,-30.12 132.2,-29.64"/>
<polygon fill="midnightblue" stroke="midnightblue" points="565.47,-79.46 575.71,-76.74 566.01,-72.48 565.47,-79.46"/>
</g>
<!-- Node4 -->
<g id="node4" class="node">
<title>Node4</title>
<g id="a_node4"><a xlink:href="GameOverScene_8cpp.html" target="_top" xlink:title=" ">
<polygon fill="none" stroke="black" points="150,-6 150,-25 312,-25 312,-6 150,-6"/>
<text text-anchor="middle" x="231" y="-13" font-family="Helvetica,sans-Serif" font-size="10.00">src/Scenes/GameOverScene.cpp</text>
</a>
</g>
</g>
<!-- Node2&#45;&gt;Node4 -->
<g id="edge3" class="edge">
<title>Node2&#45;&gt;Node4</title>
<path fill="none" stroke="midnightblue" d="M565.73,-69.58C500.69,-59.4 404.69,-44.32 321,-31 308.97,-29.08 296.03,-27.01 283.82,-25.04"/>
<polygon fill="midnightblue" stroke="midnightblue" points="565.48,-73.09 575.9,-71.17 566.56,-66.17 565.48,-73.09"/>
</g>
<!-- Node5 -->
<g id="node5" class="node">
<title>Node5</title>
<g id="a_node5"><a xlink:href="LevelScene_8cpp.html" target="_top" xlink:title=" ">
<polygon fill="none" stroke="black" points="330.5,-6 330.5,-25 469.5,-25 469.5,-6 330.5,-6"/>
<text text-anchor="middle" x="400" y="-13" font-family="Helvetica,sans-Serif" font-size="10.00">src/Scenes/LevelScene.cpp</text>
</a>
</g>
</g>
<!-- Node2&#45;&gt;Node5 -->
<g id="edge4" class="edge">
<title>Node2&#45;&gt;Node5</title>
<path fill="none" stroke="midnightblue" d="M579.94,-64.83C532.58,-52.11 469.27,-35.11 431.75,-25.03"/>
<polygon fill="midnightblue" stroke="midnightblue" points="579.22,-68.26 589.79,-67.48 581.04,-61.5 579.22,-68.26"/>
</g>
<!-- Node6 -->
<g id="node6" class="node">
<title>Node6</title>
<g id="a_node6"><a xlink:href="LoadingScene_8cpp.html" target="_top" xlink:title=" ">
<polygon fill="none" stroke="black" points="487.5,-6 487.5,-25 636.5,-25 636.5,-6 487.5,-6"/>
<text text-anchor="middle" x="562" y="-13" font-family="Helvetica,sans-Serif" font-size="10.00">src/Scenes/LoadingScene.cpp</text>
</a>
</g>
</g>
<!-- Node2&#45;&gt;Node6 -->
<g id="edge5" class="edge">
<title>Node2&#45;&gt;Node6</title>
<path fill="none" stroke="midnightblue" d="M616.78,-61.01C601.93,-48.94 583.91,-34.3 572.7,-25.19"/>
<polygon fill="midnightblue" stroke="midnightblue" points="614.67,-63.81 624.64,-67.4 619.09,-58.37 614.67,-63.81"/>
</g>
<!-- Node7 -->
<g id="node7" class="node">
<title>Node7</title>
<g id="a_node7"><a xlink:href="MainScene_8cpp.html" target="_top" xlink:title=" ">
<polygon fill="none" stroke="black" points="655,-6 655,-25 791,-25 791,-6 655,-6"/>
<text text-anchor="middle" x="723" y="-13" font-family="Helvetica,sans-Serif" font-size="10.00">src/Scenes/MainScene.cpp</text>
</a>
</g>
</g>
<!-- Node2&#45;&gt;Node7 -->
<g id="edge6" class="edge">
<title>Node2&#45;&gt;Node7</title>
<path fill="none" stroke="midnightblue" d="M667.54,-61.01C682.57,-48.94 700.81,-34.3 712.17,-25.19"/>
<polygon fill="midnightblue" stroke="midnightblue" points="665.18,-58.41 659.58,-67.4 669.57,-63.87 665.18,-58.41"/>
</g>
<!-- Node8 -->
<g id="node8" class="node">
<title>Node8</title>
<g id="a_node8"><a xlink:href="VictoryScene_8cpp.html" target="_top" xlink:title=" ">
<polygon fill="none" stroke="black" points="809.5,-6 809.5,-25 954.5,-25 954.5,-6 809.5,-6"/>
<text text-anchor="middle" x="882" y="-13" font-family="Helvetica,sans-Serif" font-size="10.00">src/Scenes/VictoryScene.cpp</text>
</a>
</g>
</g>
<!-- Node2&#45;&gt;Node8 -->
<g id="edge7" class="edge">
<title>Node2&#45;&gt;Node8</title>
<path fill="none" stroke="midnightblue" d="M703.55,-64.83C750.52,-52.11 813.3,-35.11 850.51,-25.03"/>
<polygon fill="midnightblue" stroke="midnightblue" points="702.52,-61.48 693.78,-67.48 704.35,-68.24 702.52,-61.48"/>
</g>
<!-- Node2&#45;&gt;Node9 -->
<g id="edge8" class="edge">
<title>Node2&#45;&gt;Node9</title>
<path fill="none" stroke="midnightblue" d="M718.34,-70.48C783.68,-60.81 880.2,-46 964,-31 966.76,-30.51 969.58,-29.99 972.43,-29.46"/>
<polygon fill="midnightblue" stroke="midnightblue" points="717.51,-67.06 708.13,-71.98 718.53,-73.99 717.51,-67.06"/>
</g>
</g>
</svg>
