<?xml version="1.0" encoding="UTF-8" standalone="no"?>
<!DOCTYPE svg PUBLIC "-//W3C//DTD SVG 1.1//EN"
 "http://www.w3.org/Graphics/SVG/1.1/DTD/svg11.dtd">
<!-- Generated by graphviz version 2.44.0 ()
 -->
<!-- Title: libs/spic&#45;engine/src/Subsystems/AudioSubsystem.cpp Pages: 1 -->
<svg width="1172pt" height="263pt"
 viewBox="0.00 0.00 1172.00 263.00" xmlns="http://www.w3.org/2000/svg" xmlns:xlink="http://www.w3.org/1999/xlink">
<g id="graph0" class="graph" transform="scale(1 1) rotate(0) translate(4 259)">
<title>libs/spic&#45;engine/src/Subsystems/AudioSubsystem.cpp</title>
<!-- Node1 -->
<g id="node1" class="node">
<title>Node1</title>
<g id="a_node1"><a xlink:title=" ">
<polygon fill="#bfbfbf" stroke="black" points="435.5,-224.5 435.5,-254.5 603.5,-254.5 603.5,-224.5 435.5,-224.5"/>
<text text-anchor="start" x="443.5" y="-242.5" font-family="Helvetica,sans-Serif" font-size="10.00">libs/spic&#45;engine/src</text>
<text text-anchor="middle" x="519.5" y="-231.5" font-family="Helvetica,sans-Serif" font-size="10.00">/Subsystems/AudioSubsystem.cpp</text>
</a>
</g>
</g>
<!-- Node2 -->
<g id="node2" class="node">
<title>Node2</title>
<g id="a_node2"><a xlink:href="AudioSubsystem_8hpp.html" target="_top" xlink:title=" ">
<polygon fill="none" stroke="black" points="215.5,-168.5 215.5,-187.5 323.5,-187.5 323.5,-168.5 215.5,-168.5"/>
<text text-anchor="middle" x="269.5" y="-175.5" font-family="Helvetica,sans-Serif" font-size="10.00">AudioSubsystem.hpp</text>
</a>
</g>
</g>
<!-- Node1&#45;&gt;Node2 -->
<g id="edge1" class="edge">
<title>Node1&#45;&gt;Node2</title>
<path fill="none" stroke="midnightblue" d="M460.57,-224.47C416.12,-213.9 356.03,-199.59 315.19,-189.87"/>
<polygon fill="midnightblue" stroke="midnightblue" points="315.78,-186.42 305.24,-187.51 314.16,-193.23 315.78,-186.42"/>
</g>
<!-- Node7 -->
<g id="node7" class="node">
<title>Node7</title>
<g id="a_node7"><a xlink:href="AudioSource_8hpp.html" target="_top" xlink:title=" ">
<polygon fill="none" stroke="black" points="366.5,-168.5 366.5,-187.5 456.5,-187.5 456.5,-168.5 366.5,-168.5"/>
<text text-anchor="middle" x="411.5" y="-175.5" font-family="Helvetica,sans-Serif" font-size="10.00">AudioSource.hpp</text>
</a>
</g>
</g>
<!-- Node1&#45;&gt;Node7 -->
<g id="edge7" class="edge">
<title>Node1&#45;&gt;Node7</title>
<path fill="none" stroke="midnightblue" d="M493.91,-224.4C476.43,-214.77 453.41,-202.09 436.14,-192.58"/>
<polygon fill="midnightblue" stroke="midnightblue" points="437.66,-189.42 427.21,-187.66 434.28,-195.55 437.66,-189.42"/>
</g>
<!-- Node10 -->
<g id="node10" class="node">
<title>Node10</title>
<g id="a_node10"><a xlink:href="GameObject_8hpp.html" target="_top" xlink:title=" ">
<polygon fill="none" stroke="black" points="475,-168.5 475,-187.5 564,-187.5 564,-168.5 475,-168.5"/>
<text text-anchor="middle" x="519.5" y="-175.5" font-family="Helvetica,sans-Serif" font-size="10.00">GameObject.hpp</text>
</a>
</g>
</g>
<!-- Node1&#45;&gt;Node10 -->
<g id="edge11" class="edge">
<title>Node1&#45;&gt;Node10</title>
<path fill="none" stroke="midnightblue" d="M519.5,-224.4C519.5,-216.47 519.5,-206.46 519.5,-197.86"/>
<polygon fill="midnightblue" stroke="midnightblue" points="523,-197.66 519.5,-187.66 516,-197.66 523,-197.66"/>
</g>
<!-- Node13 -->
<g id="node13" class="node">
<title>Node13</title>
<g id="a_node13"><a xlink:href="SDLMixerException_8hpp.html" target="_top" xlink:title=" ">
<polygon fill="none" stroke="black" points="987,-168.5 987,-187.5 1164,-187.5 1164,-168.5 987,-168.5"/>
<text text-anchor="middle" x="1075.5" y="-175.5" font-family="Helvetica,sans-Serif" font-size="10.00">../Exceptions/SDLMixerException.hpp</text>
</a>
</g>
</g>
<!-- Node1&#45;&gt;Node13 -->
<g id="edge18" class="edge">
<title>Node1&#45;&gt;Node13</title>
<path fill="none" stroke="midnightblue" d="M603.64,-229.5C706.72,-218.46 880.61,-199.86 986.05,-188.57"/>
<polygon fill="midnightblue" stroke="midnightblue" points="986.46,-192.05 996.03,-187.5 985.72,-185.09 986.46,-192.05"/>
</g>
<!-- Node16 -->
<g id="node16" class="node">
<title>Node16</title>
<g id="a_node16"><a xlink:href="AudioManager_8hpp.html" target="_top" xlink:title=" ">
<polygon fill="none" stroke="black" points="705.5,-168.5 705.5,-187.5 855.5,-187.5 855.5,-168.5 705.5,-168.5"/>
<text text-anchor="middle" x="780.5" y="-175.5" font-family="Helvetica,sans-Serif" font-size="10.00">../Managers/AudioManager.hpp</text>
</a>
</g>
</g>
<!-- Node1&#45;&gt;Node16 -->
<g id="edge22" class="edge">
<title>Node1&#45;&gt;Node16</title>
<path fill="none" stroke="midnightblue" d="M581.02,-224.47C627.62,-213.85 690.69,-199.47 733.34,-189.75"/>
<polygon fill="midnightblue" stroke="midnightblue" points="734.21,-193.14 743.19,-187.51 732.66,-186.32 734.21,-193.14"/>
</g>
<!-- Node19 -->
<g id="node19" class="node">
<title>Node19</title>
<g id="a_node19"><a xlink:title=" ">
<polygon fill="none" stroke="#bfbfbf" points="782.5,-56.5 782.5,-75.5 854.5,-75.5 854.5,-56.5 782.5,-56.5"/>
<text text-anchor="middle" x="818.5" y="-63.5" font-family="Helvetica,sans-Serif" font-size="10.00">SDL_mixer.h</text>
</a>
</g>
</g>
<!-- Node1&#45;&gt;Node19 -->
<g id="edge29" class="edge">
<title>Node1&#45;&gt;Node19</title>
<path fill="none" stroke="midnightblue" d="M603.65,-233.92C691.49,-227.8 822.25,-214.49 864.5,-188 896.5,-167.94 921.9,-144.4 902.5,-112 893.35,-96.72 877.04,-86.33 861.21,-79.43"/>
<polygon fill="midnightblue" stroke="midnightblue" points="862.07,-76 851.49,-75.56 859.49,-82.51 862.07,-76"/>
</g>
<!-- Node20 -->
<g id="node20" class="node">
<title>Node20</title>
<g id="a_node20"><a xlink:href="Engine_8hpp.html" target="_top" xlink:title=" ">
<polygon fill="none" stroke="black" points="108.5,-168.5 108.5,-187.5 172.5,-187.5 172.5,-168.5 108.5,-168.5"/>
<text text-anchor="middle" x="140.5" y="-175.5" font-family="Helvetica,sans-Serif" font-size="10.00">Engine.hpp</text>
</a>
</g>
</g>
<!-- Node1&#45;&gt;Node20 -->
<g id="edge30" class="edge">
<title>Node1&#45;&gt;Node20</title>
<path fill="none" stroke="midnightblue" d="M435.39,-225.3C357.05,-213 243.48,-195.17 182.68,-185.62"/>
<polygon fill="midnightblue" stroke="midnightblue" points="183.09,-182.14 172.67,-184.05 182.01,-189.06 183.09,-182.14"/>
</g>
<!-- Node3 -->
<g id="node3" class="node">
<title>Node3</title>
<g id="a_node3"><a xlink:title=" ">
<polygon fill="none" stroke="#bfbfbf" points="438,-56.5 438,-75.5 489,-75.5 489,-56.5 438,-56.5"/>
<text text-anchor="middle" x="463.5" y="-63.5" font-family="Helvetica,sans-Serif" font-size="10.00">memory</text>
</a>
</g>
</g>
<!-- Node2&#45;&gt;Node3 -->
<g id="edge2" class="edge">
<title>Node2&#45;&gt;Node3</title>
<path fill="none" stroke="midnightblue" d="M279.94,-168.44C296.37,-155.21 329.6,-129.53 360.5,-112 383.21,-99.11 410.32,-87.41 431.03,-79.16"/>
<polygon fill="midnightblue" stroke="midnightblue" points="432.3,-82.42 440.34,-75.52 429.75,-75.9 432.3,-82.42"/>
</g>
<!-- Node4 -->
<g id="node4" class="node">
<title>Node4</title>
<g id="a_node4"><a xlink:href="Scene_8hpp.html" target="_top" xlink:title=" ">
<polygon fill="none" stroke="black" points="109.5,-112.5 109.5,-131.5 171.5,-131.5 171.5,-112.5 109.5,-112.5"/>
<text text-anchor="middle" x="140.5" y="-119.5" font-family="Helvetica,sans-Serif" font-size="10.00">Scene.hpp</text>
</a>
</g>
</g>
<!-- Node2&#45;&gt;Node4 -->
<g id="edge3" class="edge">
<title>Node2&#45;&gt;Node4</title>
<path fill="none" stroke="midnightblue" d="M249.06,-168.44C227.83,-159.56 194.4,-145.56 170.25,-135.45"/>
<polygon fill="midnightblue" stroke="midnightblue" points="171.42,-132.15 160.84,-131.52 168.72,-138.61 171.42,-132.15"/>
</g>
<!-- Node6 -->
<g id="node6" class="node">
<title>Node6</title>
<g id="a_node6"><a xlink:href="ISubsystem_8hpp.html" target="_top" xlink:title=" ">
<polygon fill="none" stroke="black" points="189.5,-112.5 189.5,-131.5 275.5,-131.5 275.5,-112.5 189.5,-112.5"/>
<text text-anchor="middle" x="232.5" y="-119.5" font-family="Helvetica,sans-Serif" font-size="10.00">ISubsystem.hpp</text>
</a>
</g>
</g>
<!-- Node2&#45;&gt;Node6 -->
<g id="edge6" class="edge">
<title>Node2&#45;&gt;Node6</title>
<path fill="none" stroke="midnightblue" d="M263.39,-168.08C258.22,-160.53 250.65,-149.49 244.31,-140.23"/>
<polygon fill="midnightblue" stroke="midnightblue" points="247.04,-138.02 238.5,-131.75 241.26,-141.98 247.04,-138.02"/>
</g>
<!-- Node4&#45;&gt;Node3 -->
<g id="edge5" class="edge">
<title>Node4&#45;&gt;Node3</title>
<path fill="none" stroke="midnightblue" d="M171.9,-113.74C174.8,-113.12 177.7,-112.54 180.5,-112 268.9,-95.04 373.71,-79.58 427.58,-71.96"/>
<polygon fill="midnightblue" stroke="midnightblue" points="428.24,-75.41 437.65,-70.55 427.26,-68.47 428.24,-75.41"/>
</g>
<!-- Node5 -->
<g id="node5" class="node">
<title>Node5</title>
<g id="a_node5"><a xlink:title=" ">
<polygon fill="none" stroke="#bfbfbf" points="201.5,-56.5 201.5,-75.5 245.5,-75.5 245.5,-56.5 201.5,-56.5"/>
<text text-anchor="middle" x="223.5" y="-63.5" font-family="Helvetica,sans-Serif" font-size="10.00">vector</text>
</a>
</g>
</g>
<!-- Node4&#45;&gt;Node5 -->
<g id="edge4" class="edge">
<title>Node4&#45;&gt;Node5</title>
<path fill="none" stroke="midnightblue" d="M153.84,-112.32C166.66,-103.98 186.28,-91.21 201.44,-81.35"/>
<polygon fill="midnightblue" stroke="midnightblue" points="203.72,-84.04 210.2,-75.65 199.91,-78.17 203.72,-84.04"/>
</g>
<!-- Node8 -->
<g id="node8" class="node">
<title>Node8</title>
<g id="a_node8"><a xlink:href="Component_8hpp.html" target="_top" xlink:title=" ">
<polygon fill="none" stroke="black" points="369.5,-112.5 369.5,-131.5 453.5,-131.5 453.5,-112.5 369.5,-112.5"/>
<text text-anchor="middle" x="411.5" y="-119.5" font-family="Helvetica,sans-Serif" font-size="10.00">Component.hpp</text>
</a>
</g>
</g>
<!-- Node7&#45;&gt;Node8 -->
<g id="edge8" class="edge">
<title>Node7&#45;&gt;Node8</title>
<path fill="none" stroke="midnightblue" d="M411.5,-168.08C411.5,-161.01 411.5,-150.86 411.5,-141.99"/>
<polygon fill="midnightblue" stroke="midnightblue" points="415,-141.75 411.5,-131.75 408,-141.75 415,-141.75"/>
</g>
<!-- Node9 -->
<g id="node9" class="node">
<title>Node9</title>
<g id="a_node9"><a xlink:title=" ">
<polygon fill="none" stroke="#bfbfbf" points="673,-0.5 673,-19.5 714,-19.5 714,-0.5 673,-0.5"/>
<text text-anchor="middle" x="693.5" y="-7.5" font-family="Helvetica,sans-Serif" font-size="10.00">string</text>
</a>
</g>
</g>
<!-- Node7&#45;&gt;Node9 -->
<g id="edge10" class="edge">
<title>Node7&#45;&gt;Node9</title>
<path fill="none" stroke="midnightblue" d="M396.17,-168.4C377.5,-156.72 349.71,-134.66 360.5,-112 377.48,-76.34 393.52,-72.3 429.5,-56 508.22,-20.35 611.79,-12.74 662.64,-11.25"/>
<polygon fill="midnightblue" stroke="midnightblue" points="663.03,-14.75 672.94,-11.02 662.87,-7.75 663.03,-14.75"/>
</g>
<!-- Node8&#45;&gt;Node3 -->
<g id="edge9" class="edge">
<title>Node8&#45;&gt;Node3</title>
<path fill="none" stroke="midnightblue" d="M420.09,-112.08C427.66,-104.22 438.88,-92.57 448.01,-83.08"/>
<polygon fill="midnightblue" stroke="midnightblue" points="450.66,-85.38 455.07,-75.75 445.62,-80.53 450.66,-85.38"/>
</g>
<!-- Node10&#45;&gt;Node3 -->
<g id="edge17" class="edge">
<title>Node10&#45;&gt;Node3</title>
<path fill="none" stroke="midnightblue" d="M517.08,-168.28C513.37,-155.5 505.61,-131.15 495.5,-112 490.24,-102.04 483.07,-91.74 476.85,-83.52"/>
<polygon fill="midnightblue" stroke="midnightblue" points="479.51,-81.25 470.6,-75.52 474,-85.55 479.51,-81.25"/>
</g>
<!-- Node10&#45;&gt;Node5 -->
<g id="edge16" class="edge">
<title>Node10&#45;&gt;Node5</title>
<path fill="none" stroke="midnightblue" d="M514.48,-168.18C505.85,-153.88 486.75,-125.83 462.5,-112 396.02,-74.07 303.84,-67.29 255.7,-66.57"/>
<polygon fill="midnightblue" stroke="midnightblue" points="255.59,-63.07 245.56,-66.5 255.54,-70.07 255.59,-63.07"/>
</g>
<!-- Node10&#45;&gt;Node8 -->
<g id="edge12" class="edge">
<title>Node10&#45;&gt;Node8</title>
<path fill="none" stroke="midnightblue" d="M502.15,-168.32C484.83,-159.66 457.98,-146.24 438,-136.25"/>
<polygon fill="midnightblue" stroke="midnightblue" points="439.32,-133 428.81,-131.65 436.19,-139.26 439.32,-133"/>
</g>
<!-- Node10&#45;&gt;Node9 -->
<g id="edge15" class="edge">
<title>Node10&#45;&gt;Node9</title>
<path fill="none" stroke="midnightblue" d="M563.55,-168.49C587.53,-161.95 616.34,-150.74 636.5,-132 667.01,-103.64 682.75,-55.62 689.44,-29.41"/>
<polygon fill="midnightblue" stroke="midnightblue" points="692.85,-30.17 691.77,-19.63 686.04,-28.55 692.85,-30.17"/>
</g>
<!-- Node11 -->
<g id="node11" class="node">
<title>Node11</title>
<g id="a_node11"><a xlink:href="Transform_8hpp.html" target="_top" xlink:title=" ">
<polygon fill="none" stroke="black" points="548,-112.5 548,-131.5 627,-131.5 627,-112.5 548,-112.5"/>
<text text-anchor="middle" x="587.5" y="-119.5" font-family="Helvetica,sans-Serif" font-size="10.00">Transform.hpp</text>
</a>
</g>
</g>
<!-- Node10&#45;&gt;Node11 -->
<g id="edge13" class="edge">
<title>Node10&#45;&gt;Node11</title>
<path fill="none" stroke="midnightblue" d="M530.43,-168.32C540.67,-160.18 556.22,-147.84 568.5,-138.09"/>
<polygon fill="midnightblue" stroke="midnightblue" points="570.72,-140.79 576.38,-131.83 566.37,-135.31 570.72,-140.79"/>
</g>
<!-- Node12 -->
<g id="node12" class="node">
<title>Node12</title>
<g id="a_node12"><a xlink:href="Point_8hpp.html" target="_top" xlink:title=" ">
<polygon fill="none" stroke="black" points="559,-56.5 559,-75.5 616,-75.5 616,-56.5 559,-56.5"/>
<text text-anchor="middle" x="587.5" y="-63.5" font-family="Helvetica,sans-Serif" font-size="10.00">Point.hpp</text>
</a>
</g>
</g>
<!-- Node11&#45;&gt;Node12 -->
<g id="edge14" class="edge">
<title>Node11&#45;&gt;Node12</title>
<path fill="none" stroke="midnightblue" d="M587.5,-112.08C587.5,-105.01 587.5,-94.86 587.5,-85.99"/>
<polygon fill="midnightblue" stroke="midnightblue" points="591,-85.75 587.5,-75.75 584,-85.75 591,-85.75"/>
</g>
<!-- Node14 -->
<g id="node14" class="node">
<title>Node14</title>
<g id="a_node14"><a xlink:href="EngineException_8hpp.html" target="_top" xlink:title=" ">
<polygon fill="none" stroke="black" points="1007.5,-112.5 1007.5,-131.5 1113.5,-131.5 1113.5,-112.5 1007.5,-112.5"/>
<text text-anchor="middle" x="1060.5" y="-119.5" font-family="Helvetica,sans-Serif" font-size="10.00">EngineException.hpp</text>
</a>
</g>
</g>
<!-- Node13&#45;&gt;Node14 -->
<g id="edge19" class="edge">
<title>Node13&#45;&gt;Node14</title>
<path fill="none" stroke="midnightblue" d="M1073.02,-168.08C1071.01,-160.85 1068.11,-150.41 1065.61,-141.4"/>
<polygon fill="midnightblue" stroke="midnightblue" points="1068.98,-140.45 1062.93,-131.75 1062.24,-142.32 1068.98,-140.45"/>
</g>
<!-- Node14&#45;&gt;Node9 -->
<g id="edge21" class="edge">
<title>Node14&#45;&gt;Node9</title>
<path fill="none" stroke="midnightblue" d="M1047.22,-112.4C1025.01,-98.42 978.52,-70.82 935.5,-56 862.03,-30.7 770.84,-18.64 724.16,-13.77"/>
<polygon fill="midnightblue" stroke="midnightblue" points="724.4,-10.28 714.1,-12.76 723.7,-17.24 724.4,-10.28"/>
</g>
<!-- Node15 -->
<g id="node15" class="node">
<title>Node15</title>
<g id="a_node15"><a xlink:title=" ">
<polygon fill="none" stroke="#bfbfbf" points="1031.5,-56.5 1031.5,-75.5 1089.5,-75.5 1089.5,-56.5 1031.5,-56.5"/>
<text text-anchor="middle" x="1060.5" y="-63.5" font-family="Helvetica,sans-Serif" font-size="10.00">exception</text>
</a>
</g>
</g>
<!-- Node14&#45;&gt;Node15 -->
<g id="edge20" class="edge">
<title>Node14&#45;&gt;Node15</title>
<path fill="none" stroke="midnightblue" d="M1060.5,-112.08C1060.5,-105.01 1060.5,-94.86 1060.5,-85.99"/>
<polygon fill="midnightblue" stroke="midnightblue" points="1064,-85.75 1060.5,-75.75 1057,-85.75 1064,-85.75"/>
</g>
<!-- Node16&#45;&gt;Node3 -->
<g id="edge25" class="edge">
<title>Node16&#45;&gt;Node3</title>
<path fill="none" stroke="midnightblue" d="M764.03,-168.45C737.66,-155.03 684.09,-128.79 636.5,-112 589.89,-95.55 534.31,-82.15 498.96,-74.37"/>
<polygon fill="midnightblue" stroke="midnightblue" points="499.63,-70.94 489.12,-72.24 498.15,-77.78 499.63,-70.94"/>
</g>
<!-- Node16&#45;&gt;Node9 -->
<g id="edge23" class="edge">
<title>Node16&#45;&gt;Node9</title>
<path fill="none" stroke="midnightblue" d="M844.9,-168.43C866.86,-162.09 889.2,-151.08 902.5,-132 907.58,-124.71 905.16,-120.48 902.5,-112 893.42,-83.06 888.35,-73.39 863.5,-56 821.16,-26.37 760.47,-16.25 724.22,-12.79"/>
<polygon fill="midnightblue" stroke="midnightblue" points="724.5,-9.3 714.24,-11.95 723.92,-16.28 724.5,-9.3"/>
</g>
<!-- Node17 -->
<g id="node17" class="node">
<title>Node17</title>
<g id="a_node17"><a xlink:title=" ">
<polygon fill="none" stroke="#bfbfbf" points="858,-112.5 858,-131.5 893,-131.5 893,-112.5 858,-112.5"/>
<text text-anchor="middle" x="875.5" y="-119.5" font-family="Helvetica,sans-Serif" font-size="10.00">map</text>
</a>
</g>
</g>
<!-- Node16&#45;&gt;Node17 -->
<g id="edge24" class="edge">
<title>Node16&#45;&gt;Node17</title>
<path fill="none" stroke="midnightblue" d="M795.76,-168.32C810.72,-159.82 833.75,-146.73 851.23,-136.8"/>
<polygon fill="midnightblue" stroke="midnightblue" points="853.31,-139.64 860.27,-131.65 849.85,-133.55 853.31,-139.64"/>
</g>
<!-- Node18 -->
<g id="node18" class="node">
<title>Node18</title>
<g id="a_node18"><a xlink:href="AudioClip_8hpp.html" target="_top" xlink:title=" ">
<polygon fill="none" stroke="black" points="721.5,-112.5 721.5,-131.5 839.5,-131.5 839.5,-112.5 721.5,-112.5"/>
<text text-anchor="middle" x="780.5" y="-119.5" font-family="Helvetica,sans-Serif" font-size="10.00">../Models/AudioClip.hpp</text>
</a>
</g>
</g>
<!-- Node16&#45;&gt;Node18 -->
<g id="edge26" class="edge">
<title>Node16&#45;&gt;Node18</title>
<path fill="none" stroke="midnightblue" d="M780.5,-168.08C780.5,-161.01 780.5,-150.86 780.5,-141.99"/>
<polygon fill="midnightblue" stroke="midnightblue" points="784,-141.75 780.5,-131.75 777,-141.75 784,-141.75"/>
</g>
<!-- Node18&#45;&gt;Node3 -->
<g id="edge27" class="edge">
<title>Node18&#45;&gt;Node3</title>
<path fill="none" stroke="midnightblue" d="M730.27,-112.44C665.84,-101.47 555.7,-82.71 499.22,-73.08"/>
<polygon fill="midnightblue" stroke="midnightblue" points="499.76,-69.63 489.32,-71.4 498.59,-76.53 499.76,-69.63"/>
</g>
<!-- Node18&#45;&gt;Node19 -->
<g id="edge28" class="edge">
<title>Node18&#45;&gt;Node19</title>
<path fill="none" stroke="midnightblue" d="M786.77,-112.08C792.14,-104.46 800.02,-93.26 806.58,-83.94"/>
<polygon fill="midnightblue" stroke="midnightblue" points="809.45,-85.94 812.34,-75.75 803.72,-81.91 809.45,-85.94"/>
</g>
<!-- Node20&#45;&gt;Node4 -->
<g id="edge34" class="edge">
<title>Node20&#45;&gt;Node4</title>
<path fill="none" stroke="midnightblue" d="M140.5,-168.08C140.5,-161.01 140.5,-150.86 140.5,-141.99"/>
<polygon fill="midnightblue" stroke="midnightblue" points="144,-141.75 140.5,-131.75 137,-141.75 144,-141.75"/>
</g>
<!-- Node21 -->
<g id="node21" class="node">
<title>Node21</title>
<g id="a_node21"><a xlink:href="EngineConfig_8hpp.html" target="_top" xlink:title=" ">
<polygon fill="none" stroke="black" points="0,-112.5 0,-131.5 91,-131.5 91,-112.5 0,-112.5"/>
<text text-anchor="middle" x="45.5" y="-119.5" font-family="Helvetica,sans-Serif" font-size="10.00">EngineConfig.hpp</text>
</a>
</g>
</g>
<!-- Node20&#45;&gt;Node21 -->
<g id="edge31" class="edge">
<title>Node20&#45;&gt;Node21</title>
<path fill="none" stroke="midnightblue" d="M125.24,-168.32C110.28,-159.82 87.25,-146.73 69.77,-136.8"/>
<polygon fill="midnightblue" stroke="midnightblue" points="71.15,-133.55 60.73,-131.65 67.69,-139.64 71.15,-133.55"/>
</g>
<!-- Node22 -->
<g id="node22" class="node">
<title>Node22</title>
<g id="a_node22"><a xlink:href="WindowConfig_8hpp.html" target="_top" xlink:title=" ">
<polygon fill="none" stroke="black" points="27.5,-56.5 27.5,-75.5 123.5,-75.5 123.5,-56.5 27.5,-56.5"/>
<text text-anchor="middle" x="75.5" y="-63.5" font-family="Helvetica,sans-Serif" font-size="10.00">WindowConfig.hpp</text>
</a>
</g>
</g>
<!-- Node21&#45;&gt;Node22 -->
<g id="edge32" class="edge">
<title>Node21&#45;&gt;Node22</title>
<path fill="none" stroke="midnightblue" d="M50.45,-112.08C54.6,-104.61 60.65,-93.72 65.77,-84.52"/>
<polygon fill="midnightblue" stroke="midnightblue" points="68.84,-86.19 70.64,-75.75 62.72,-82.79 68.84,-86.19"/>
</g>
<!-- Node22&#45;&gt;Node9 -->
<g id="edge33" class="edge">
<title>Node22&#45;&gt;Node9</title>
<path fill="none" stroke="midnightblue" d="M123.74,-60.79C245.57,-50.14 563.07,-22.4 662.95,-13.67"/>
<polygon fill="midnightblue" stroke="midnightblue" points="663.33,-17.15 672.99,-12.79 662.72,-10.18 663.33,-17.15"/>
</g>
</g>
</svg>
