<?xml version="1.0" encoding="UTF-8" standalone="no"?>
<!DOCTYPE svg PUBLIC "-//W3C//DTD SVG 1.1//EN"
 "http://www.w3.org/Graphics/SVG/1.1/DTD/svg11.dtd">
<!-- Generated by graphviz version 2.44.0 ()
 -->
<!-- Title: src/Enums/BackgroundName.hpp Pages: 1 -->
<!--zoomable 229 -->
<svg id="main" version="1.1" xmlns="http://www.w3.org/2000/svg" xmlns:xlink="http://www.w3.org/1999/xlink" xml:space="preserve" onload="init(evt)">
<style type="text/css"><![CDATA[
.edge:hover path { stroke: red; }
.edge:hover polygon { stroke: red; fill: red; }
]]></style>
<script type="text/javascript"><![CDATA[
var edges = document.getElementsByTagName('g');
if (edges && edges.length) {
  for (var i=0;i<edges.length;i++) {
    if (edges[i].id.substr(0,4)=='edge') {
      edges[i].setAttribute('class','edge');
    }
  }
}
]]></script>
        <defs>
                <circle id="rim" cx="0" cy="0" r="7"/>
                <circle id="rim2" cx="0" cy="0" r="3.5"/>
                <g id="zoomPlus">
                        <use xlink:href="#rim" fill="#404040">
                                <set attributeName="fill" to="#808080" begin="zoomplus.mouseover" end="zoomplus.mouseout"/>
                        </use>
                        <path d="M-4,0h8M0,-4v8" fill="none" stroke="white" stroke-width="1.5" pointer-events="none"/>
                </g>
                <g id="zoomMin">
                        <use xlink:href="#rim" fill="#404040">
                                <set attributeName="fill" to="#808080" begin="zoomminus.mouseover" end="zoomminus.mouseout"/>
                        </use>
                        <path d="M-4,0h8" fill="none" stroke="white" stroke-width="1.5" pointer-events="none"/>
                </g>
                <g id="dirArrow">
                        <path fill="none" stroke="white" stroke-width="1.5" d="M0,-3.0v7 M-2.5,-0.5L0,-3.0L2.5,-0.5"/>
                </g>
               <g id="resetDef">
                       <use xlink:href="#rim2" fill="#404040">
                               <set attributeName="fill" to="#808080" begin="reset.mouseover" end="reset.mouseout"/>
                       </use>
               </g>
        </defs>

<script type="text/javascript">
var viewWidth = 2495;
var viewHeight = 229;
var sectionId = 'dynsection-0';
</script>
<script xlink:href="svgpan.js"/>
<svg id="graph" class="graph">
<g id="viewport">
<title>src/Enums/BackgroundName.hpp</title>
<!-- Node1 -->
<g id="node1" class="node">
<title>Node1</title>
<g id="a_node1"><a xlink:title=" ">
<polygon fill="#bfbfbf" stroke="black" points="624.5,-201.5 624.5,-220.5 786.5,-220.5 786.5,-201.5 624.5,-201.5"/>
<text text-anchor="middle" x="705.5" y="-208.5" font-family="Helvetica,sans-Serif" font-size="10.00">src/Enums/BackgroundName.hpp</text>
</a>
</g>
</g>
<!-- Node2 -->
<g id="node2" class="node">
<title>Node2</title>
<g id="a_node2"><a xlink:href="BackgroundPrefabFactory_8hpp.html" target="_top" xlink:title=" ">
<polygon fill="none" stroke="black" points="298.5,-134.5 298.5,-164.5 426.5,-164.5 426.5,-134.5 298.5,-134.5"/>
<text text-anchor="start" x="306.5" y="-152.5" font-family="Helvetica,sans-Serif" font-size="10.00">src/Factories/Background</text>
<text text-anchor="middle" x="362.5" y="-141.5" font-family="Helvetica,sans-Serif" font-size="10.00">PrefabFactory.hpp</text>
</a>
</g>
</g>
<!-- Node1&#45;&gt;Node2 -->
<g id="edge1" class="edge">
<title>Node1&#45;&gt;Node2</title>
<path fill="none" stroke="midnightblue" d="M646.46,-199.76C585.25,-189.14 489.84,-172.59 426.76,-161.65"/>
<polygon fill="midnightblue" stroke="midnightblue" points="645.91,-203.21 656.36,-201.48 647.1,-196.32 645.91,-203.21"/>
</g>
<!-- Node8 -->
<g id="node8" class="node">
<title>Node8</title>
<g id="a_node8"><a xlink:href="MenuScene_8hpp.html" target="_top" xlink:title=" ">
<polygon fill="none" stroke="black" points="1106,-140 1106,-159 1245,-159 1245,-140 1106,-140"/>
<text text-anchor="middle" x="1175.5" y="-147" font-family="Helvetica,sans-Serif" font-size="10.00">src/Scenes/MenuScene.hpp</text>
</a>
</g>
</g>
<!-- Node1&#45;&gt;Node8 -->
<g id="edge7" class="edge">
<title>Node1&#45;&gt;Node8</title>
<path fill="none" stroke="midnightblue" d="M782.78,-200.22C873.43,-188.74 1022.23,-169.9 1108.29,-159.01"/>
<polygon fill="midnightblue" stroke="midnightblue" points="782.32,-196.75 772.84,-201.48 783.2,-203.69 782.32,-196.75"/>
</g>
<!-- Node3 -->
<g id="node3" class="node">
<title>Node3</title>
<g id="a_node3"><a xlink:href="BackgroundPrefabFactory_8cpp.html" target="_top" xlink:title=" ">
<polygon fill="none" stroke="black" points="157.5,-67.5 157.5,-97.5 285.5,-97.5 285.5,-67.5 157.5,-67.5"/>
<text text-anchor="start" x="165.5" y="-85.5" font-family="Helvetica,sans-Serif" font-size="10.00">src/Factories/Background</text>
<text text-anchor="middle" x="221.5" y="-74.5" font-family="Helvetica,sans-Serif" font-size="10.00">PrefabFactory.cpp</text>
</a>
</g>
</g>
<!-- Node2&#45;&gt;Node3 -->
<g id="edge2" class="edge">
<title>Node2&#45;&gt;Node3</title>
<path fill="none" stroke="midnightblue" d="M322.65,-130.13C300.25,-119.8 272.72,-107.11 252.04,-97.58"/>
<polygon fill="midnightblue" stroke="midnightblue" points="321.36,-133.39 331.91,-134.4 324.29,-127.03 321.36,-133.39"/>
</g>
<!-- Node4 -->
<g id="node4" class="node">
<title>Node4</title>
<g id="a_node4"><a xlink:href="CreditScene_8cpp.html" target="_top" xlink:title=" ">
<polygon fill="none" stroke="black" points="716.5,-6 716.5,-25 856.5,-25 856.5,-6 716.5,-6"/>
<text text-anchor="middle" x="786.5" y="-13" font-family="Helvetica,sans-Serif" font-size="10.00">src/Scenes/CreditScene.cpp</text>
</a>
</g>
</g>
<!-- Node2&#45;&gt;Node4 -->
<g id="edge3" class="edge">
<title>Node2&#45;&gt;Node4</title>
<path fill="none" stroke="midnightblue" d="M436.68,-147.01C501.06,-143.28 595.47,-131.81 670.5,-98 690.37,-89.04 690.88,-79.83 708.5,-67 730.02,-51.33 756.2,-34.88 772.1,-25.17"/>
<polygon fill="midnightblue" stroke="midnightblue" points="436.41,-143.52 426.61,-147.55 436.78,-150.51 436.41,-143.52"/>
</g>
<!-- Node5 -->
<g id="node5" class="node">
<title>Node5</title>
<g id="a_node5"><a xlink:href="HelpScene_8cpp.html" target="_top" xlink:title=" ">
<polygon fill="none" stroke="black" points="563,-6 563,-25 698,-25 698,-6 563,-6"/>
<text text-anchor="middle" x="630.5" y="-13" font-family="Helvetica,sans-Serif" font-size="10.00">src/Scenes/HelpScene.cpp</text>
</a>
</g>
</g>
<!-- Node2&#45;&gt;Node5 -->
<g id="edge4" class="edge">
<title>Node2&#45;&gt;Node5</title>
<path fill="none" stroke="midnightblue" d="M343.22,-126.23C330.3,-108.52 318.06,-83.98 332.5,-67 364.73,-29.09 504.49,-39.6 553.5,-31 564.08,-29.14 575.47,-27.05 586.15,-25.04"/>
<polygon fill="midnightblue" stroke="midnightblue" points="340.6,-128.57 349.5,-134.32 346.13,-124.27 340.6,-128.57"/>
</g>
<!-- Node6 -->
<g id="node6" class="node">
<title>Node6</title>
<g id="a_node6"><a xlink:href="LevelScene_8cpp.html" target="_top" xlink:title=" ">
<polygon fill="none" stroke="black" points="0,-73 0,-92 139,-92 139,-73 0,-73"/>
<text text-anchor="middle" x="69.5" y="-80" font-family="Helvetica,sans-Serif" font-size="10.00">src/Scenes/LevelScene.cpp</text>
</a>
</g>
</g>
<!-- Node2&#45;&gt;Node6 -->
<g id="edge5" class="edge">
<title>Node2&#45;&gt;Node6</title>
<path fill="none" stroke="midnightblue" d="M289.51,-132.31C231.94,-119.54 153.94,-102.23 107.94,-92.03"/>
<polygon fill="midnightblue" stroke="midnightblue" points="288.76,-135.73 299.28,-134.48 290.28,-128.89 288.76,-135.73"/>
</g>
<!-- Node7 -->
<g id="node7" class="node">
<title>Node7</title>
<g id="a_node7"><a xlink:href="MenuScene_8cpp.html" target="_top" xlink:title=" ">
<polygon fill="none" stroke="black" points="342,-73 342,-92 481,-92 481,-73 342,-73"/>
<text text-anchor="middle" x="411.5" y="-80" font-family="Helvetica,sans-Serif" font-size="10.00">src/Scenes/MenuScene.cpp</text>
</a>
</g>
</g>
<!-- Node2&#45;&gt;Node7 -->
<g id="edge6" class="edge">
<title>Node2&#45;&gt;Node7</title>
<path fill="none" stroke="midnightblue" d="M379.22,-126.32C388.06,-114.6 398.4,-100.88 404.95,-92.19"/>
<polygon fill="midnightblue" stroke="midnightblue" points="376.36,-124.3 373.13,-134.4 381.95,-128.52 376.36,-124.3"/>
</g>
<!-- Node8&#45;&gt;Node7 -->
<g id="edge27" class="edge">
<title>Node8&#45;&gt;Node7</title>
<path fill="none" stroke="midnightblue" d="M1095.61,-145.41C967.52,-139.83 708.44,-125.95 490.5,-98 478.33,-96.44 465.19,-94.24 453.19,-92.02"/>
<polygon fill="midnightblue" stroke="midnightblue" points="1095.59,-148.91 1105.73,-145.85 1095.89,-141.92 1095.59,-148.91"/>
</g>
<!-- Node9 -->
<g id="node9" class="node">
<title>Node9</title>
<g id="a_node9"><a xlink:href="CreditScene_8hpp.html" target="_top" xlink:title=" ">
<polygon fill="none" stroke="black" points="871.5,-73 871.5,-92 1011.5,-92 1011.5,-73 871.5,-73"/>
<text text-anchor="middle" x="941.5" y="-80" font-family="Helvetica,sans-Serif" font-size="10.00">src/Scenes/CreditScene.hpp</text>
</a>
</g>
</g>
<!-- Node8&#45;&gt;Node9 -->
<g id="edge8" class="edge">
<title>Node8&#45;&gt;Node9</title>
<path fill="none" stroke="midnightblue" d="M1134.72,-137.17C1088.45,-124.32 1014.01,-103.64 972.33,-92.06"/>
<polygon fill="midnightblue" stroke="midnightblue" points="1133.85,-140.56 1144.43,-139.87 1135.73,-133.82 1133.85,-140.56"/>
</g>
<!-- Node11 -->
<g id="node11" class="node">
<title>Node11</title>
<g id="a_node11"><a xlink:href="GameOverScene_8hpp.html" target="_top" xlink:title=" ">
<polygon fill="none" stroke="black" points="499.5,-73 499.5,-92 661.5,-92 661.5,-73 499.5,-73"/>
<text text-anchor="middle" x="580.5" y="-80" font-family="Helvetica,sans-Serif" font-size="10.00">src/Scenes/GameOverScene.hpp</text>
</a>
</g>
</g>
<!-- Node8&#45;&gt;Node11 -->
<g id="edge11" class="edge">
<title>Node8&#45;&gt;Node11</title>
<path fill="none" stroke="midnightblue" d="M1095.68,-139.99C1002.7,-130.05 844.44,-113.05 708.5,-98 691.27,-96.09 672.75,-94.01 655.28,-92.04"/>
<polygon fill="midnightblue" stroke="midnightblue" points="1095.55,-143.5 1105.86,-141.08 1096.29,-136.54 1095.55,-143.5"/>
</g>
<!-- Node14 -->
<g id="node14" class="node">
<title>Node14</title>
<g id="a_node14"><a xlink:href="HelpScene_8hpp.html" target="_top" xlink:title=" ">
<polygon fill="none" stroke="black" points="718,-73 718,-92 853,-92 853,-73 718,-73"/>
<text text-anchor="middle" x="785.5" y="-80" font-family="Helvetica,sans-Serif" font-size="10.00">src/Scenes/HelpScene.hpp</text>
</a>
</g>
</g>
<!-- Node8&#45;&gt;Node14 -->
<g id="edge14" class="edge">
<title>Node8&#45;&gt;Node14</title>
<path fill="none" stroke="midnightblue" d="M1109.77,-138.41C1046.37,-128.55 947.76,-112.9 862.5,-98 851.91,-96.15 840.53,-94.06 829.85,-92.06"/>
<polygon fill="midnightblue" stroke="midnightblue" points="1109.6,-141.92 1120.02,-140 1110.67,-135.01 1109.6,-141.92"/>
</g>
<!-- Node16 -->
<g id="node16" class="node">
<title>Node16</title>
<g id="a_node16"><a xlink:href="LevelSelectionScene_8hpp.html" target="_top" xlink:title=" ">
<polygon fill="none" stroke="black" points="1185.5,-67.5 1185.5,-97.5 1319.5,-97.5 1319.5,-67.5 1185.5,-67.5"/>
<text text-anchor="start" x="1193.5" y="-85.5" font-family="Helvetica,sans-Serif" font-size="10.00">src/Scenes/LevelSelection</text>
<text text-anchor="middle" x="1252.5" y="-74.5" font-family="Helvetica,sans-Serif" font-size="10.00">Scene.hpp</text>
</a>
</g>
</g>
<!-- Node8&#45;&gt;Node16 -->
<g id="edge17" class="edge">
<title>Node8&#45;&gt;Node16</title>
<path fill="none" stroke="midnightblue" d="M1193.58,-133.24C1206.36,-122.45 1223.36,-108.1 1235.81,-97.59"/>
<polygon fill="midnightblue" stroke="midnightblue" points="1191.27,-130.61 1185.88,-139.73 1195.78,-135.96 1191.27,-130.61"/>
</g>
<!-- Node19 -->
<g id="node19" class="node">
<title>Node19</title>
<g id="a_node19"><a xlink:href="LoadingScene_8hpp.html" target="_top" xlink:title=" ">
<polygon fill="none" stroke="black" points="1642,-73 1642,-92 1791,-92 1791,-73 1642,-73"/>
<text text-anchor="middle" x="1716.5" y="-80" font-family="Helvetica,sans-Serif" font-size="10.00">src/Scenes/LoadingScene.hpp</text>
</a>
</g>
</g>
<!-- Node8&#45;&gt;Node19 -->
<g id="edge21" class="edge">
<title>Node8&#45;&gt;Node19</title>
<path fill="none" stroke="midnightblue" d="M1255.35,-141.16C1346.71,-132.42 1500.71,-116.64 1632.5,-98 1644.66,-96.28 1657.77,-94.15 1669.93,-92.06"/>
<polygon fill="midnightblue" stroke="midnightblue" points="1254.97,-137.68 1245.35,-142.12 1255.63,-144.65 1254.97,-137.68"/>
</g>
<!-- Node21 -->
<g id="node21" class="node">
<title>Node21</title>
<g id="a_node21"><a xlink:href="MainScene_8hpp.html" target="_top" xlink:title=" ">
<polygon fill="none" stroke="black" points="1337.5,-73 1337.5,-92 1473.5,-92 1473.5,-73 1337.5,-73"/>
<text text-anchor="middle" x="1405.5" y="-80" font-family="Helvetica,sans-Serif" font-size="10.00">src/Scenes/MainScene.hpp</text>
</a>
</g>
</g>
<!-- Node8&#45;&gt;Node21 -->
<g id="edge24" class="edge">
<title>Node8&#45;&gt;Node21</title>
<path fill="none" stroke="midnightblue" d="M1215.87,-137.09C1261.37,-124.23 1334.31,-103.62 1375.2,-92.06"/>
<polygon fill="midnightblue" stroke="midnightblue" points="1214.71,-133.78 1206.04,-139.87 1216.62,-140.52 1214.71,-133.78"/>
</g>
<!-- Node23 -->
<g id="node23" class="node">
<title>Node23</title>
<g id="a_node23"><a xlink:href="PauseScene_8hpp.html" target="_top" xlink:title=" ">
<polygon fill="none" stroke="black" points="1869,-73 1869,-92 2012,-92 2012,-73 1869,-73"/>
<text text-anchor="middle" x="1940.5" y="-80" font-family="Helvetica,sans-Serif" font-size="10.00">src/Scenes/PauseScene.hpp</text>
</a>
</g>
</g>
<!-- Node8&#45;&gt;Node23 -->
<g id="edge28" class="edge">
<title>Node8&#45;&gt;Node23</title>
<path fill="none" stroke="midnightblue" d="M1255.36,-142.6C1374.08,-133.69 1604.15,-115.95 1799.5,-98 1822.04,-95.93 1846.6,-93.47 1868.8,-91.18"/>
<polygon fill="midnightblue" stroke="midnightblue" points="1254.97,-139.11 1245.26,-143.35 1255.5,-146.09 1254.97,-139.11"/>
</g>
<!-- Node26 -->
<g id="node26" class="node">
<title>Node26</title>
<g id="a_node26"><a xlink:href="SaveSelectionScene_8hpp.html" target="_top" xlink:title=" ">
<polygon fill="none" stroke="black" points="1491.5,-67.5 1491.5,-97.5 1623.5,-97.5 1623.5,-67.5 1491.5,-67.5"/>
<text text-anchor="start" x="1499.5" y="-85.5" font-family="Helvetica,sans-Serif" font-size="10.00">src/Scenes/SaveSelection</text>
<text text-anchor="middle" x="1557.5" y="-74.5" font-family="Helvetica,sans-Serif" font-size="10.00">Scene.hpp</text>
</a>
</g>
</g>
<!-- Node8&#45;&gt;Node26 -->
<g id="edge31" class="edge">
<title>Node8&#45;&gt;Node26</title>
<path fill="none" stroke="midnightblue" d="M1240.26,-138.39C1302.46,-128.54 1399.02,-112.93 1482.5,-98 1485.37,-97.49 1488.3,-96.95 1491.27,-96.41"/>
<polygon fill="midnightblue" stroke="midnightblue" points="1239.53,-134.96 1230.2,-139.97 1240.63,-141.87 1239.53,-134.96"/>
</g>
<!-- Node27 -->
<g id="node27" class="node">
<title>Node27</title>
<g id="a_node27"><a xlink:href="StatsScene_8hpp.html" target="_top" xlink:title=" ">
<polygon fill="none" stroke="black" points="1029.5,-73 1029.5,-92 1167.5,-92 1167.5,-73 1029.5,-73"/>
<text text-anchor="middle" x="1098.5" y="-80" font-family="Helvetica,sans-Serif" font-size="10.00">src/Scenes/StatsScene.hpp</text>
</a>
</g>
</g>
<!-- Node8&#45;&gt;Node27 -->
<g id="edge34" class="edge">
<title>Node8&#45;&gt;Node27</title>
<path fill="none" stroke="midnightblue" d="M1157.39,-133.21C1142.22,-120.41 1121.11,-102.59 1108.72,-92.13"/>
<polygon fill="midnightblue" stroke="midnightblue" points="1155.22,-135.96 1165.12,-139.73 1159.73,-130.61 1155.22,-135.96"/>
</g>
<!-- Node29 -->
<g id="node29" class="node">
<title>Node29</title>
<g id="a_node29"><a xlink:href="VictoryScene_8hpp.html" target="_top" xlink:title=" ">
<polygon fill="none" stroke="black" points="2188,-73 2188,-92 2333,-92 2333,-73 2188,-73"/>
<text text-anchor="middle" x="2260.5" y="-80" font-family="Helvetica,sans-Serif" font-size="10.00">src/Scenes/VictoryScene.hpp</text>
</a>
</g>
</g>
<!-- Node8&#45;&gt;Node29 -->
<g id="edge37" class="edge">
<title>Node8&#45;&gt;Node29</title>
<path fill="none" stroke="midnightblue" d="M1255.09,-143.76C1404.91,-134.84 1739.07,-114.91 2020.5,-98 2076.65,-94.63 2140.18,-90.79 2187.77,-87.91"/>
<polygon fill="midnightblue" stroke="midnightblue" points="1254.83,-140.27 1245.06,-144.36 1255.25,-147.26 1254.83,-140.27"/>
</g>
<!-- Node9&#45;&gt;Node4 -->
<g id="edge9" class="edge">
<title>Node9&#45;&gt;Node4</title>
<path fill="none" stroke="midnightblue" d="M911.57,-68.95C880.88,-56.08 833.96,-36.4 807.17,-25.17"/>
<polygon fill="midnightblue" stroke="midnightblue" points="910.34,-72.23 920.92,-72.87 913.05,-65.77 910.34,-72.23"/>
</g>
<!-- Node10 -->
<g id="node10" class="node">
<title>Node10</title>
<g id="a_node10"><a xlink:href="LoadingScene_8cpp.html" target="_top" xlink:title=" ">
<polygon fill="none" stroke="black" points="1611,-6 1611,-25 1760,-25 1760,-6 1611,-6"/>
<text text-anchor="middle" x="1685.5" y="-13" font-family="Helvetica,sans-Serif" font-size="10.00">src/Scenes/LoadingScene.cpp</text>
</a>
</g>
</g>
<!-- Node9&#45;&gt;Node10 -->
<g id="edge10" class="edge">
<title>Node9&#45;&gt;Node10</title>
<path fill="none" stroke="midnightblue" d="M992.63,-71.19C1001.88,-69.59 1011.45,-68.11 1020.5,-67 1277.3,-35.59 1344.53,-61.05 1601.5,-31 1614.58,-29.47 1628.72,-27.25 1641.6,-25.01"/>
<polygon fill="midnightblue" stroke="midnightblue" points="991.99,-67.75 982.77,-72.96 993.23,-74.64 991.99,-67.75"/>
</g>
<!-- Node12 -->
<g id="node12" class="node">
<title>Node12</title>
<g id="a_node12"><a xlink:href="GameOverScene_8cpp.html" target="_top" xlink:title=" ">
<polygon fill="none" stroke="black" points="382.5,-6 382.5,-25 544.5,-25 544.5,-6 382.5,-6"/>
<text text-anchor="middle" x="463.5" y="-13" font-family="Helvetica,sans-Serif" font-size="10.00">src/Scenes/GameOverScene.cpp</text>
</a>
</g>
</g>
<!-- Node11&#45;&gt;Node12 -->
<g id="edge12" class="edge">
<title>Node11&#45;&gt;Node12</title>
<path fill="none" stroke="midnightblue" d="M555.82,-67.79C532.63,-54.9 498.64,-36.02 479.03,-25.13"/>
<polygon fill="midnightblue" stroke="midnightblue" points="554.28,-70.94 564.72,-72.73 557.68,-64.82 554.28,-70.94"/>
</g>
<!-- Node13 -->
<g id="node13" class="node">
<title>Node13</title>
<g id="a_node13"><a xlink:href="GameLostBehaviour_8cpp.html" target="_top" xlink:title=" ">
<polygon fill="none" stroke="black" points="237,-0.5 237,-30.5 364,-30.5 364,-0.5 237,-0.5"/>
<text text-anchor="start" x="245" y="-18.5" font-family="Helvetica,sans-Serif" font-size="10.00">src/Scripts/Common</text>
<text text-anchor="middle" x="300.5" y="-7.5" font-family="Helvetica,sans-Serif" font-size="10.00">/GameLostBehaviour.cpp</text>
</a>
</g>
</g>
<!-- Node11&#45;&gt;Node13 -->
<g id="edge13" class="edge">
<title>Node11&#45;&gt;Node13</title>
<path fill="none" stroke="midnightblue" d="M533.62,-70.62C486.24,-59.62 412.82,-42.58 361.06,-30.56"/>
<polygon fill="midnightblue" stroke="midnightblue" points="533.07,-74.08 543.61,-72.94 534.66,-67.26 533.07,-74.08"/>
</g>
<!-- Node14&#45;&gt;Node5 -->
<g id="edge15" class="edge">
<title>Node14&#45;&gt;Node5</title>
<path fill="none" stroke="midnightblue" d="M755.57,-68.95C724.88,-56.08 677.96,-36.4 651.17,-25.17"/>
<polygon fill="midnightblue" stroke="midnightblue" points="754.34,-72.23 764.92,-72.87 757.05,-65.77 754.34,-72.23"/>
</g>
<!-- Node15 -->
<g id="node15" class="node">
<title>Node15</title>
<g id="a_node15"><a xlink:href="MainScene_8cpp.html" target="_top" xlink:title=" ">
<polygon fill="none" stroke="black" points="1030.5,-6 1030.5,-25 1166.5,-25 1166.5,-6 1030.5,-6"/>
<text text-anchor="middle" x="1098.5" y="-13" font-family="Helvetica,sans-Serif" font-size="10.00">src/Scenes/MainScene.cpp</text>
</a>
</g>
</g>
<!-- Node14&#45;&gt;Node15 -->
<g id="edge16" class="edge">
<title>Node14&#45;&gt;Node15</title>
<path fill="none" stroke="midnightblue" d="M836.63,-70.88C898.18,-58.1 1000.35,-36.88 1057.17,-25.08"/>
<polygon fill="midnightblue" stroke="midnightblue" points="835.82,-67.48 826.74,-72.94 837.24,-74.33 835.82,-67.48"/>
</g>
<!-- Node16&#45;&gt;Node15 -->
<g id="edge19" class="edge">
<title>Node16&#45;&gt;Node15</title>
<path fill="none" stroke="midnightblue" d="M1209.76,-63.46C1180,-50.9 1141.68,-34.72 1118.66,-25.01"/>
<polygon fill="midnightblue" stroke="midnightblue" points="1208.51,-66.73 1219.08,-67.4 1211.23,-60.28 1208.51,-66.73"/>
</g>
<!-- Node17 -->
<g id="node17" class="node">
<title>Node17</title>
<g id="a_node17"><a xlink:href="LevelSelectionScene_8cpp.html" target="_top" xlink:title=" ">
<polygon fill="none" stroke="black" points="1308.5,-0.5 1308.5,-30.5 1442.5,-30.5 1442.5,-0.5 1308.5,-0.5"/>
<text text-anchor="start" x="1316.5" y="-18.5" font-family="Helvetica,sans-Serif" font-size="10.00">src/Scenes/LevelSelection</text>
<text text-anchor="middle" x="1375.5" y="-7.5" font-family="Helvetica,sans-Serif" font-size="10.00">Scene.cpp</text>
</a>
</g>
</g>
<!-- Node16&#45;&gt;Node17 -->
<g id="edge18" class="edge">
<title>Node16&#45;&gt;Node17</title>
<path fill="none" stroke="midnightblue" d="M1288.05,-62.71C1307.45,-52.46 1331.06,-39.98 1348.86,-30.58"/>
<polygon fill="midnightblue" stroke="midnightblue" points="1286.4,-59.63 1279.19,-67.4 1289.67,-65.82 1286.4,-59.63"/>
</g>
<!-- Node18 -->
<g id="node18" class="node">
<title>Node18</title>
<g id="a_node18"><a xlink:href="CheatManager_8cpp.html" target="_top" xlink:title=" ">
<polygon fill="none" stroke="black" points="1184.5,-0.5 1184.5,-30.5 1290.5,-30.5 1290.5,-0.5 1184.5,-0.5"/>
<text text-anchor="start" x="1192.5" y="-18.5" font-family="Helvetica,sans-Serif" font-size="10.00">src/Scripts/Common</text>
<text text-anchor="middle" x="1237.5" y="-7.5" font-family="Helvetica,sans-Serif" font-size="10.00">/CheatManager.cpp</text>
</a>
</g>
</g>
<!-- Node16&#45;&gt;Node18 -->
<g id="edge20" class="edge">
<title>Node16&#45;&gt;Node18</title>
<path fill="none" stroke="midnightblue" d="M1246.94,-57.4C1244.85,-48.37 1242.56,-38.41 1240.75,-30.58"/>
<polygon fill="midnightblue" stroke="midnightblue" points="1243.59,-58.44 1249.25,-67.4 1250.41,-56.87 1243.59,-58.44"/>
</g>
<!-- Node19&#45;&gt;Node10 -->
<g id="edge23" class="edge">
<title>Node19&#45;&gt;Node10</title>
<path fill="none" stroke="midnightblue" d="M1707.99,-63.66C1702.01,-51.13 1694.28,-34.91 1689.61,-25.13"/>
<polygon fill="midnightblue" stroke="midnightblue" points="1704.86,-65.21 1712.32,-72.73 1711.17,-62.2 1704.86,-65.21"/>
</g>
<!-- Node20 -->
<g id="node20" class="node">
<title>Node20</title>
<g id="a_node20"><a xlink:href="main_8cpp.html" target="_top" xlink:title=" ">
<polygon fill="none" stroke="black" points="1778.5,-6 1778.5,-25 1850.5,-25 1850.5,-6 1778.5,-6"/>
<text text-anchor="middle" x="1814.5" y="-13" font-family="Helvetica,sans-Serif" font-size="10.00">src/main.cpp</text>
</a>
</g>
</g>
<!-- Node19&#45;&gt;Node20 -->
<g id="edge22" class="edge">
<title>Node19&#45;&gt;Node20</title>
<path fill="none" stroke="midnightblue" d="M1738.22,-67.09C1757.61,-54.24 1785.36,-35.83 1801.49,-25.13"/>
<polygon fill="midnightblue" stroke="midnightblue" points="1736.12,-64.29 1729.72,-72.73 1739.98,-70.12 1736.12,-64.29"/>
</g>
<!-- Node21&#45;&gt;Node15 -->
<g id="edge25" class="edge">
<title>Node21&#45;&gt;Node15</title>
<path fill="none" stroke="midnightblue" d="M1354.98,-70.8C1294.56,-58.01 1194.65,-36.86 1139.04,-25.08"/>
<polygon fill="midnightblue" stroke="midnightblue" points="1354.54,-74.29 1365.05,-72.94 1355.99,-67.44 1354.54,-74.29"/>
</g>
<!-- Node22 -->
<g id="node22" class="node">
<title>Node22</title>
<g id="a_node22"><a xlink:href="SaveSelectionScene_8cpp.html" target="_top" xlink:title=" ">
<polygon fill="none" stroke="black" points="1460.5,-0.5 1460.5,-30.5 1592.5,-30.5 1592.5,-0.5 1460.5,-0.5"/>
<text text-anchor="start" x="1468.5" y="-18.5" font-family="Helvetica,sans-Serif" font-size="10.00">src/Scenes/SaveSelection</text>
<text text-anchor="middle" x="1526.5" y="-7.5" font-family="Helvetica,sans-Serif" font-size="10.00">Scene.cpp</text>
</a>
</g>
</g>
<!-- Node21&#45;&gt;Node22 -->
<g id="edge26" class="edge">
<title>Node21&#45;&gt;Node22</title>
<path fill="none" stroke="midnightblue" d="M1430.81,-67.9C1451.17,-56.97 1479.68,-41.65 1500.27,-30.59"/>
<polygon fill="midnightblue" stroke="midnightblue" points="1428.97,-64.92 1421.82,-72.73 1432.28,-71.08 1428.97,-64.92"/>
</g>
<!-- Node24 -->
<g id="node24" class="node">
<title>Node24</title>
<g id="a_node24"><a xlink:href="PauseScene_8cpp.html" target="_top" xlink:title=" ">
<polygon fill="none" stroke="black" points="1869,-6 1869,-25 2012,-25 2012,-6 1869,-6"/>
<text text-anchor="middle" x="1940.5" y="-13" font-family="Helvetica,sans-Serif" font-size="10.00">src/Scenes/PauseScene.cpp</text>
</a>
</g>
</g>
<!-- Node23&#45;&gt;Node24 -->
<g id="edge29" class="edge">
<title>Node23&#45;&gt;Node24</title>
<path fill="none" stroke="midnightblue" d="M1940.5,-62.54C1940.5,-50.17 1940.5,-34.62 1940.5,-25.13"/>
<polygon fill="midnightblue" stroke="midnightblue" points="1937,-62.73 1940.5,-72.73 1944,-62.73 1937,-62.73"/>
</g>
<!-- Node25 -->
<g id="node25" class="node">
<title>Node25</title>
<g id="a_node25"><a xlink:href="PauseSceneBehaviour_8cpp.html" target="_top" xlink:title=" ">
<polygon fill="none" stroke="black" points="2030,-0.5 2030,-30.5 2179,-30.5 2179,-0.5 2030,-0.5"/>
<text text-anchor="start" x="2038" y="-18.5" font-family="Helvetica,sans-Serif" font-size="10.00">src/Scripts/Menu/PauseScene</text>
<text text-anchor="middle" x="2104.5" y="-7.5" font-family="Helvetica,sans-Serif" font-size="10.00">Behaviour.cpp</text>
</a>
</g>
</g>
<!-- Node23&#45;&gt;Node25 -->
<g id="edge30" class="edge">
<title>Node23&#45;&gt;Node25</title>
<path fill="none" stroke="midnightblue" d="M1971.89,-69.06C1999.67,-58.05 2040.18,-41.99 2069.11,-30.53"/>
<polygon fill="midnightblue" stroke="midnightblue" points="1970.28,-65.93 1962.28,-72.87 1972.86,-72.44 1970.28,-65.93"/>
</g>
<!-- Node26&#45;&gt;Node10 -->
<g id="edge32" class="edge">
<title>Node26&#45;&gt;Node10</title>
<path fill="none" stroke="midnightblue" d="M1594.32,-62.8C1618.86,-50.34 1649.94,-34.56 1668.75,-25.01"/>
<polygon fill="midnightblue" stroke="midnightblue" points="1592.61,-59.75 1585.27,-67.4 1595.78,-65.99 1592.61,-59.75"/>
</g>
<!-- Node26&#45;&gt;Node22 -->
<g id="edge33" class="edge">
<title>Node26&#45;&gt;Node22</title>
<path fill="none" stroke="midnightblue" d="M1546.43,-58.28C1542.01,-49.02 1537.07,-38.66 1533.21,-30.58"/>
<polygon fill="midnightblue" stroke="midnightblue" points="1543.31,-59.88 1550.77,-67.4 1549.63,-56.86 1543.31,-59.88"/>
</g>
<!-- Node27&#45;&gt;Node15 -->
<g id="edge35" class="edge">
<title>Node27&#45;&gt;Node15</title>
<path fill="none" stroke="midnightblue" d="M1098.5,-62.54C1098.5,-50.17 1098.5,-34.62 1098.5,-25.13"/>
<polygon fill="midnightblue" stroke="midnightblue" points="1095,-62.73 1098.5,-72.73 1102,-62.73 1095,-62.73"/>
</g>
<!-- Node28 -->
<g id="node28" class="node">
<title>Node28</title>
<g id="a_node28"><a xlink:href="StatsScene_8cpp.html" target="_top" xlink:title=" ">
<polygon fill="none" stroke="black" points="874.5,-6 874.5,-25 1012.5,-25 1012.5,-6 874.5,-6"/>
<text text-anchor="middle" x="943.5" y="-13" font-family="Helvetica,sans-Serif" font-size="10.00">src/Scenes/StatsScene.cpp</text>
</a>
</g>
</g>
<!-- Node27&#45;&gt;Node28 -->
<g id="edge36" class="edge">
<title>Node27&#45;&gt;Node28</title>
<path fill="none" stroke="midnightblue" d="M1068.57,-68.95C1037.88,-56.08 990.96,-36.4 964.17,-25.17"/>
<polygon fill="midnightblue" stroke="midnightblue" points="1067.34,-72.23 1077.92,-72.87 1070.05,-65.77 1067.34,-72.23"/>
</g>
<!-- Node30 -->
<g id="node30" class="node">
<title>Node30</title>
<g id="a_node30"><a xlink:href="VictoryScene_8cpp.html" target="_top" xlink:title=" ">
<polygon fill="none" stroke="black" points="2342,-6 2342,-25 2487,-25 2487,-6 2342,-6"/>
<text text-anchor="middle" x="2414.5" y="-13" font-family="Helvetica,sans-Serif" font-size="10.00">src/Scenes/VictoryScene.cpp</text>
</a>
</g>
</g>
<!-- Node29&#45;&gt;Node30 -->
<g id="edge38" class="edge">
<title>Node29&#45;&gt;Node30</title>
<path fill="none" stroke="midnightblue" d="M2290.24,-68.95C2320.73,-56.08 2367.34,-36.4 2393.97,-25.17"/>
<polygon fill="midnightblue" stroke="midnightblue" points="2288.8,-65.76 2280.95,-72.87 2291.52,-72.2 2288.8,-65.76"/>
</g>
<!-- Node31 -->
<g id="node31" class="node">
<title>Node31</title>
<g id="a_node31"><a xlink:href="GameWonBehaviour_8cpp.html" target="_top" xlink:title=" ">
<polygon fill="none" stroke="black" points="2197,-0.5 2197,-30.5 2324,-30.5 2324,-0.5 2197,-0.5"/>
<text text-anchor="start" x="2205" y="-18.5" font-family="Helvetica,sans-Serif" font-size="10.00">src/Scripts/Common</text>
<text text-anchor="middle" x="2260.5" y="-7.5" font-family="Helvetica,sans-Serif" font-size="10.00">/GameWonBehaviour.cpp</text>
</a>
</g>
</g>
<!-- Node29&#45;&gt;Node31 -->
<g id="edge39" class="edge">
<title>Node29&#45;&gt;Node31</title>
<path fill="none" stroke="midnightblue" d="M2260.5,-62.41C2260.5,-52.22 2260.5,-39.9 2260.5,-30.59"/>
<polygon fill="midnightblue" stroke="midnightblue" points="2257,-62.73 2260.5,-72.73 2264,-62.73 2257,-62.73"/>
</g>
</g>
</svg>
        <g id="navigator" transform="translate(0 0)" fill="#404254">
                <rect fill="#f2f5e9" fill-opacity="0.5" stroke="#606060" stroke-width=".5" x="0" y="0" width="60" height="60"/>
                <use id="zoomplus" xlink:href="#zoomPlus" x="17" y="9" onmousedown="handleZoom(evt,'in')"/>
                <use id="zoomminus" xlink:href="#zoomMin" x="42" y="9" onmousedown="handleZoom(evt,'out')"/>
                <use id="reset" xlink:href="#resetDef" x="30" y="36" onmousedown="handleReset()"/>
                <g id="arrowUp" xlink:href="#dirArrow" transform="translate(30 24)" onmousedown="handlePan(0,-1)">
                  <use xlink:href="#rim" fill="#404040">
                        <set attributeName="fill" to="#808080" begin="arrowUp.mouseover" end="arrowUp.mouseout"/>
                  </use>
                  <path fill="none" stroke="white" stroke-width="1.5" d="M0,-3.0v7 M-2.5,-0.5L0,-3.0L2.5,-0.5"/>
                </g>
                <g id="arrowRight" xlink:href="#dirArrow" transform="rotate(90) translate(36 -43)" onmousedown="handlePan(1,0)">
                  <use xlink:href="#rim" fill="#404040">
                        <set attributeName="fill" to="#808080" begin="arrowRight.mouseover" end="arrowRight.mouseout"/>
                  </use>
                  <path fill="none" stroke="white" stroke-width="1.5" d="M0,-3.0v7 M-2.5,-0.5L0,-3.0L2.5,-0.5"/>
                </g>
                <g id="arrowDown" xlink:href="#dirArrow" transform="rotate(180) translate(-30 -48)" onmousedown="handlePan(0,1)">
                  <use xlink:href="#rim" fill="#404040">
                        <set attributeName="fill" to="#808080" begin="arrowDown.mouseover" end="arrowDown.mouseout"/>
                  </use>
                  <path fill="none" stroke="white" stroke-width="1.5" d="M0,-3.0v7 M-2.5,-0.5L0,-3.0L2.5,-0.5"/>
                </g>
                <g id="arrowLeft" xlink:href="#dirArrow" transform="rotate(270) translate(-36 17)" onmousedown="handlePan(-1,0)">
                  <use xlink:href="#rim" fill="#404040">
                        <set attributeName="fill" to="#808080" begin="arrowLeft.mouseover" end="arrowLeft.mouseout"/>
                  </use>
                  <path fill="none" stroke="white" stroke-width="1.5" d="M0,-3.0v7 M-2.5,-0.5L0,-3.0L2.5,-0.5"/>
                </g>
        </g>
        <svg viewBox="0 0 15 15" width="100%" height="30px" preserveAspectRatio="xMaxYMin meet">
         <g id="arrow_out" transform="scale(0.3 0.3)">
          <a xlink:href="BackgroundName_8hpp__dep__incl_org.svg" target="_base">
           <rect id="button" ry="5" rx="5" y="6" x="6" height="38" width="38"
                fill="#f2f5e9" fill-opacity="0.5" stroke="#606060" stroke-width="1.0"/>
           <path id="arrow"
             d="M 11.500037,31.436501 C 11.940474,20.09759 22.043105,11.32322 32.158766,21.979434 L 37.068811,17.246167 C 37.068811,17.246167 37.088388,32 37.088388,32 L 22.160133,31.978069 C 22.160133,31.978069 26.997745,27.140456 26.997745,27.140456 C 18.528582,18.264221 13.291696,25.230495 11.500037,31.436501 z"
             style="fill:#404040;"/>
          </a>
         </g>
        </svg>
</svg>
