<?xml version="1.0" encoding="UTF-8" standalone="no"?>
<!DOCTYPE svg PUBLIC "-//W3C//DTD SVG 1.1//EN"
 "http://www.w3.org/Graphics/SVG/1.1/DTD/svg11.dtd">
<!-- Generated by graphviz version 2.44.0 ()
 -->
<!-- Title: src/Enums/BackgroundName.hpp Pages: 1 -->
<!--zoomable 229 -->
<svg id="main" version="1.1" xmlns="http://www.w3.org/2000/svg" xmlns:xlink="http://www.w3.org/1999/xlink" xml:space="preserve" onload="init(evt)">
<style type="text/css"><![CDATA[
.edge:hover path { stroke: red; }
.edge:hover polygon { stroke: red; fill: red; }
]]></style>
<script type="text/javascript"><![CDATA[
var edges = document.getElementsByTagName('g');
if (edges && edges.length) {
  for (var i=0;i<edges.length;i++) {
    if (edges[i].id.substr(0,4)=='edge') {
      edges[i].setAttribute('class','edge');
    }
  }
}
]]></script>
        <defs>
                <circle id="rim" cx="0" cy="0" r="7"/>
                <circle id="rim2" cx="0" cy="0" r="3.5"/>
                <g id="zoomPlus">
                        <use xlink:href="#rim" fill="#404040">
                                <set attributeName="fill" to="#808080" begin="zoomplus.mouseover" end="zoomplus.mouseout"/>
                        </use>
                        <path d="M-4,0h8M0,-4v8" fill="none" stroke="white" stroke-width="1.5" pointer-events="none"/>
                </g>
                <g id="zoomMin">
                        <use xlink:href="#rim" fill="#404040">
                                <set attributeName="fill" to="#808080" begin="zoomminus.mouseover" end="zoomminus.mouseout"/>
                        </use>
                        <path d="M-4,0h8" fill="none" stroke="white" stroke-width="1.5" pointer-events="none"/>
                </g>
                <g id="dirArrow">
                        <path fill="none" stroke="white" stroke-width="1.5" d="M0,-3.0v7 M-2.5,-0.5L0,-3.0L2.5,-0.5"/>
                </g>
               <g id="resetDef">
                       <use xlink:href="#rim2" fill="#404040">
                               <set attributeName="fill" to="#808080" begin="reset.mouseover" end="reset.mouseout"/>
                       </use>
               </g>
        </defs>

<script type="text/javascript">
var viewWidth = 2217;
var viewHeight = 229;
var sectionId = 'dynsection-0';
</script>
<script xlink:href="svgpan.js"/>
<svg id="graph" class="graph">
<g id="viewport">
<title>src/Enums/BackgroundName.hpp</title>
<!-- Node1 -->
<g id="node1" class="node">
<title>Node1</title>
<g id="a_node1"><a xlink:title=" ">
<polygon fill="#bfbfbf" stroke="black" points="695.5,-201.5 695.5,-220.5 857.5,-220.5 857.5,-201.5 695.5,-201.5"/>
<text text-anchor="middle" x="776.5" y="-208.5" font-family="Helvetica,sans-Serif" font-size="10.00">src/Enums/BackgroundName.hpp</text>
</a>
</g>
</g>
<!-- Node2 -->
<g id="node2" class="node">
<title>Node2</title>
<g id="a_node2"><a xlink:href="BackgroundPrefabFactory_8hpp.html" target="_top" xlink:title=" ">
<polygon fill="none" stroke="black" points="430.5,-134.5 430.5,-164.5 558.5,-164.5 558.5,-134.5 430.5,-134.5"/>
<text text-anchor="start" x="438.5" y="-152.5" font-family="Helvetica,sans-Serif" font-size="10.00">src/Factories/Background</text>
<text text-anchor="middle" x="494.5" y="-141.5" font-family="Helvetica,sans-Serif" font-size="10.00">PrefabFactory.hpp</text>
</a>
</g>
</g>
<!-- Node1&#45;&gt;Node2 -->
<g id="edge1" class="edge">
<title>Node1&#45;&gt;Node2</title>
<path fill="none" stroke="midnightblue" d="M726.18,-199.38C679.34,-189.5 609.33,-174.73 558.53,-164.01"/>
<polygon fill="midnightblue" stroke="midnightblue" points="725.59,-202.84 736.1,-201.48 727.03,-195.99 725.59,-202.84"/>
</g>
<!-- Node8 -->
<g id="node8" class="node">
<title>Node8</title>
<g id="a_node8"><a xlink:href="MenuScene_8hpp.html" target="_top" xlink:title=" ">
<polygon fill="none" stroke="black" points="1008,-140 1008,-159 1147,-159 1147,-140 1008,-140"/>
<text text-anchor="middle" x="1077.5" y="-147" font-family="Helvetica,sans-Serif" font-size="10.00">src/Scenes/MenuScene.hpp</text>
</a>
</g>
</g>
<!-- Node1&#45;&gt;Node8 -->
<g id="edge7" class="edge">
<title>Node1&#45;&gt;Node8</title>
<path fill="none" stroke="midnightblue" d="M829.75,-199.47C888.08,-187.94 980.51,-169.67 1034.45,-159.01"/>
<polygon fill="midnightblue" stroke="midnightblue" points="828.76,-196.1 819.63,-201.48 830.11,-202.97 828.76,-196.1"/>
</g>
<!-- Node3 -->
<g id="node3" class="node">
<title>Node3</title>
<g id="a_node3"><a xlink:href="BackgroundPrefabFactory_8cpp.html" target="_top" xlink:title=" ">
<polygon fill="none" stroke="black" points="157.5,-67.5 157.5,-97.5 285.5,-97.5 285.5,-67.5 157.5,-67.5"/>
<text text-anchor="start" x="165.5" y="-85.5" font-family="Helvetica,sans-Serif" font-size="10.00">src/Factories/Background</text>
<text text-anchor="middle" x="221.5" y="-74.5" font-family="Helvetica,sans-Serif" font-size="10.00">PrefabFactory.cpp</text>
</a>
</g>
</g>
<!-- Node2&#45;&gt;Node3 -->
<g id="edge2" class="edge">
<title>Node2&#45;&gt;Node3</title>
<path fill="none" stroke="midnightblue" d="M425.7,-132.12C381.03,-121.48 323.4,-107.76 280.77,-97.61"/>
<polygon fill="midnightblue" stroke="midnightblue" points="425.06,-135.56 435.6,-134.48 426.68,-128.75 425.06,-135.56"/>
</g>
<!-- Node4 -->
<g id="node4" class="node">
<title>Node4</title>
<g id="a_node4"><a xlink:href="CreditScene_8cpp.html" target="_top" xlink:title=" ">
<polygon fill="none" stroke="black" points="678.5,-6 678.5,-25 818.5,-25 818.5,-6 678.5,-6"/>
<text text-anchor="middle" x="748.5" y="-13" font-family="Helvetica,sans-Serif" font-size="10.00">src/Scenes/CreditScene.cpp</text>
</a>
</g>
</g>
<!-- Node2&#45;&gt;Node4 -->
<g id="edge3" class="edge">
<title>Node2&#45;&gt;Node4</title>
<path fill="none" stroke="midnightblue" d="M499.61,-124.61C504.8,-106.18 514.69,-81.46 532.5,-67 555.74,-48.12 630.45,-33.55 685.52,-25.01"/>
<polygon fill="midnightblue" stroke="midnightblue" points="496.21,-123.8 497.14,-134.36 502.99,-125.53 496.21,-123.8"/>
</g>
<!-- Node5 -->
<g id="node5" class="node">
<title>Node5</title>
<g id="a_node5"><a xlink:href="HelpScene_8cpp.html" target="_top" xlink:title=" ">
<polygon fill="none" stroke="black" points="488,-6 488,-25 623,-25 623,-6 488,-6"/>
<text text-anchor="middle" x="555.5" y="-13" font-family="Helvetica,sans-Serif" font-size="10.00">src/Scenes/HelpScene.cpp</text>
</a>
</g>
</g>
<!-- Node2&#45;&gt;Node5 -->
<g id="edge4" class="edge">
<title>Node2&#45;&gt;Node5</title>
<path fill="none" stroke="midnightblue" d="M491.33,-124.28C490.2,-107.4 490.92,-84.81 499.5,-67 508.42,-48.48 527.46,-33.69 540.86,-25.01"/>
<polygon fill="midnightblue" stroke="midnightblue" points="487.86,-124.8 492.27,-134.44 494.83,-124.16 487.86,-124.8"/>
</g>
<!-- Node6 -->
<g id="node6" class="node">
<title>Node6</title>
<g id="a_node6"><a xlink:href="LevelScene_8cpp.html" target="_top" xlink:title=" ">
<polygon fill="none" stroke="black" points="0,-73 0,-92 139,-92 139,-73 0,-73"/>
<text text-anchor="middle" x="69.5" y="-80" font-family="Helvetica,sans-Serif" font-size="10.00">src/Scenes/LevelScene.cpp</text>
</a>
</g>
</g>
<!-- Node2&#45;&gt;Node6 -->
<g id="edge5" class="edge">
<title>Node2&#45;&gt;Node6</title>
<path fill="none" stroke="midnightblue" d="M420.23,-138.46C350.09,-128.79 241.99,-113.4 148.5,-98 137.49,-96.19 125.65,-94.09 114.57,-92.07"/>
<polygon fill="midnightblue" stroke="midnightblue" points="419.92,-141.95 430.3,-139.85 420.87,-135.02 419.92,-141.95"/>
</g>
<!-- Node7 -->
<g id="node7" class="node">
<title>Node7</title>
<g id="a_node7"><a xlink:href="MenuScene_8cpp.html" target="_top" xlink:title=" ">
<polygon fill="none" stroke="black" points="542,-73 542,-92 681,-92 681,-73 542,-73"/>
<text text-anchor="middle" x="611.5" y="-80" font-family="Helvetica,sans-Serif" font-size="10.00">src/Scenes/MenuScene.cpp</text>
</a>
</g>
</g>
<!-- Node2&#45;&gt;Node7 -->
<g id="edge6" class="edge">
<title>Node2&#45;&gt;Node7</title>
<path fill="none" stroke="midnightblue" d="M528.75,-129.47C551.08,-117.06 579.15,-101.47 596.19,-92.01"/>
<polygon fill="midnightblue" stroke="midnightblue" points="526.93,-126.48 519.89,-134.4 530.33,-132.6 526.93,-126.48"/>
</g>
<!-- Node8&#45;&gt;Node7 -->
<g id="edge26" class="edge">
<title>Node8&#45;&gt;Node7</title>
<path fill="none" stroke="midnightblue" d="M997.64,-139.39C919.07,-130.13 795.78,-114.78 689.5,-98 678.34,-96.24 666.33,-94.12 655.16,-92.05"/>
<polygon fill="midnightblue" stroke="midnightblue" points="997.61,-142.91 1007.95,-140.6 998.43,-135.96 997.61,-142.91"/>
</g>
<!-- Node9 -->
<g id="node9" class="node">
<title>Node9</title>
<g id="a_node9"><a xlink:href="CreditScene_8hpp.html" target="_top" xlink:title=" ">
<polygon fill="none" stroke="black" points="852.5,-73 852.5,-92 992.5,-92 992.5,-73 852.5,-73"/>
<text text-anchor="middle" x="922.5" y="-80" font-family="Helvetica,sans-Serif" font-size="10.00">src/Scenes/CreditScene.hpp</text>
</a>
</g>
</g>
<!-- Node8&#45;&gt;Node9 -->
<g id="edge8" class="edge">
<title>Node8&#45;&gt;Node9</title>
<path fill="none" stroke="midnightblue" d="M1047.57,-135.95C1016.88,-123.08 969.96,-103.4 943.17,-92.17"/>
<polygon fill="midnightblue" stroke="midnightblue" points="1046.34,-139.23 1056.92,-139.87 1049.05,-132.77 1046.34,-139.23"/>
</g>
<!-- Node11 -->
<g id="node11" class="node">
<title>Node11</title>
<g id="a_node11"><a xlink:href="GameOverScene_8hpp.html" target="_top" xlink:title=" ">
<polygon fill="none" stroke="black" points="1883.5,-73 1883.5,-92 2045.5,-92 2045.5,-73 1883.5,-73"/>
<text text-anchor="middle" x="1964.5" y="-80" font-family="Helvetica,sans-Serif" font-size="10.00">src/Scenes/GameOverScene.hpp</text>
</a>
</g>
</g>
<!-- Node8&#45;&gt;Node11 -->
<g id="edge11" class="edge">
<title>Node8&#45;&gt;Node11</title>
<path fill="none" stroke="midnightblue" d="M1157.15,-143.14C1288.64,-134.22 1559.42,-115.57 1788.5,-98 1819.53,-95.62 1853.62,-92.85 1883.47,-90.37"/>
<polygon fill="midnightblue" stroke="midnightblue" points="1156.9,-139.65 1147.15,-143.81 1157.37,-146.63 1156.9,-139.65"/>
</g>
<!-- Node14 -->
<g id="node14" class="node">
<title>Node14</title>
<g id="a_node14"><a xlink:href="HelpScene_8hpp.html" target="_top" xlink:title=" ">
<polygon fill="none" stroke="black" points="699,-73 699,-92 834,-92 834,-73 699,-73"/>
<text text-anchor="middle" x="766.5" y="-80" font-family="Helvetica,sans-Serif" font-size="10.00">src/Scenes/HelpScene.hpp</text>
</a>
</g>
</g>
<!-- Node8&#45;&gt;Node14 -->
<g id="edge14" class="edge">
<title>Node8&#45;&gt;Node14</title>
<path fill="none" stroke="midnightblue" d="M1026.7,-137.88C965.54,-125.1 864.02,-103.88 807.57,-92.08"/>
<polygon fill="midnightblue" stroke="midnightblue" points="1026.02,-141.32 1036.52,-139.94 1027.45,-134.46 1026.02,-141.32"/>
</g>
<!-- Node15 -->
<g id="node15" class="node">
<title>Node15</title>
<g id="a_node15"><a xlink:href="LevelSelectionScene_8hpp.html" target="_top" xlink:title=" ">
<polygon fill="none" stroke="black" points="1010.5,-67.5 1010.5,-97.5 1144.5,-97.5 1144.5,-67.5 1010.5,-67.5"/>
<text text-anchor="start" x="1018.5" y="-85.5" font-family="Helvetica,sans-Serif" font-size="10.00">src/Scenes/LevelSelection</text>
<text text-anchor="middle" x="1077.5" y="-74.5" font-family="Helvetica,sans-Serif" font-size="10.00">Scene.hpp</text>
</a>
</g>
</g>
<!-- Node8&#45;&gt;Node15 -->
<g id="edge17" class="edge">
<title>Node8&#45;&gt;Node15</title>
<path fill="none" stroke="midnightblue" d="M1077.5,-129.41C1077.5,-119.22 1077.5,-106.9 1077.5,-97.59"/>
<polygon fill="midnightblue" stroke="midnightblue" points="1074,-129.73 1077.5,-139.73 1081,-129.73 1074,-129.73"/>
</g>
<!-- Node17 -->
<g id="node17" class="node">
<title>Node17</title>
<g id="a_node17"><a xlink:href="LoadingScene_8hpp.html" target="_top" xlink:title=" ">
<polygon fill="none" stroke="black" points="1467,-73 1467,-92 1616,-92 1616,-73 1467,-73"/>
<text text-anchor="middle" x="1541.5" y="-80" font-family="Helvetica,sans-Serif" font-size="10.00">src/Scenes/LoadingScene.hpp</text>
</a>
</g>
</g>
<!-- Node8&#45;&gt;Node17 -->
<g id="edge20" class="edge">
<title>Node8&#45;&gt;Node17</title>
<path fill="none" stroke="midnightblue" d="M1157.41,-138.8C1234.4,-129.23 1354.08,-113.79 1457.5,-98 1469.35,-96.19 1482.11,-94.07 1494.02,-92.03"/>
<polygon fill="midnightblue" stroke="midnightblue" points="1156.8,-135.34 1147.3,-140.05 1157.66,-142.29 1156.8,-135.34"/>
</g>
<!-- Node20 -->
<g id="node20" class="node">
<title>Node20</title>
<g id="a_node20"><a xlink:href="MainScene_8hpp.html" target="_top" xlink:title=" ">
<polygon fill="none" stroke="black" points="1162.5,-73 1162.5,-92 1298.5,-92 1298.5,-73 1162.5,-73"/>
<text text-anchor="middle" x="1230.5" y="-80" font-family="Helvetica,sans-Serif" font-size="10.00">src/Scenes/MainScene.hpp</text>
</a>
</g>
</g>
<!-- Node8&#45;&gt;Node20 -->
<g id="edge23" class="edge">
<title>Node8&#45;&gt;Node20</title>
<path fill="none" stroke="midnightblue" d="M1107.04,-135.95C1137.34,-123.08 1183.65,-103.4 1210.1,-92.17"/>
<polygon fill="midnightblue" stroke="midnightblue" points="1105.65,-132.74 1097.82,-139.87 1108.39,-139.18 1105.65,-132.74"/>
</g>
<!-- Node22 -->
<g id="node22" class="node">
<title>Node22</title>
<g id="a_node22"><a xlink:href="PauseScene_8hpp.html" target="_top" xlink:title=" ">
<polygon fill="none" stroke="black" points="304,-73 304,-92 447,-92 447,-73 304,-73"/>
<text text-anchor="middle" x="375.5" y="-80" font-family="Helvetica,sans-Serif" font-size="10.00">src/Scenes/PauseScene.hpp</text>
</a>
</g>
</g>
<!-- Node8&#45;&gt;Node22 -->
<g id="edge27" class="edge">
<title>Node8&#45;&gt;Node22</title>
<path fill="none" stroke="midnightblue" d="M997.87,-141.13C860.01,-128.36 579,-102.34 447,-90.12"/>
<polygon fill="midnightblue" stroke="midnightblue" points="997.67,-144.62 1007.95,-142.06 998.31,-137.65 997.67,-144.62"/>
</g>
<!-- Node25 -->
<g id="node25" class="node">
<title>Node25</title>
<g id="a_node25"><a xlink:href="SaveSelectionScene_8hpp.html" target="_top" xlink:title=" ">
<polygon fill="none" stroke="black" points="1316.5,-67.5 1316.5,-97.5 1448.5,-97.5 1448.5,-67.5 1316.5,-67.5"/>
<text text-anchor="start" x="1324.5" y="-85.5" font-family="Helvetica,sans-Serif" font-size="10.00">src/Scenes/SaveSelection</text>
<text text-anchor="middle" x="1382.5" y="-74.5" font-family="Helvetica,sans-Serif" font-size="10.00">Scene.hpp</text>
</a>
</g>
</g>
<!-- Node8&#45;&gt;Node25 -->
<g id="edge30" class="edge">
<title>Node8&#45;&gt;Node25</title>
<path fill="none" stroke="midnightblue" d="M1127.6,-137.82C1179.17,-126.83 1259.79,-109.65 1316.53,-97.56"/>
<polygon fill="midnightblue" stroke="midnightblue" points="1126.74,-134.43 1117.69,-139.94 1128.2,-141.27 1126.74,-134.43"/>
</g>
<!-- Node26 -->
<g id="node26" class="node">
<title>Node26</title>
<g id="a_node26"><a xlink:href="VictoryScene_8hpp.html" target="_top" xlink:title=" ">
<polygon fill="none" stroke="black" points="1634,-73 1634,-92 1779,-92 1779,-73 1634,-73"/>
<text text-anchor="middle" x="1706.5" y="-80" font-family="Helvetica,sans-Serif" font-size="10.00">src/Scenes/VictoryScene.hpp</text>
</a>
</g>
</g>
<!-- Node8&#45;&gt;Node26 -->
<g id="edge33" class="edge">
<title>Node8&#45;&gt;Node26</title>
<path fill="none" stroke="midnightblue" d="M1157.27,-143.22C1263.99,-135.68 1458.99,-120.23 1624.5,-98 1636.82,-96.34 1650.12,-94.17 1662.35,-92"/>
<polygon fill="midnightblue" stroke="midnightblue" points="1156.95,-139.73 1147.22,-143.92 1157.44,-146.72 1156.95,-139.73"/>
</g>
<!-- Node9&#45;&gt;Node4 -->
<g id="edge9" class="edge">
<title>Node9&#45;&gt;Node4</title>
<path fill="none" stroke="midnightblue" d="M889.76,-69.27C855.23,-56.37 801.71,-36.38 771.42,-25.06"/>
<polygon fill="midnightblue" stroke="midnightblue" points="888.8,-72.65 899.39,-72.87 891.25,-66.09 888.8,-72.65"/>
</g>
<!-- Node10 -->
<g id="node10" class="node">
<title>Node10</title>
<g id="a_node10"><a xlink:href="MainScene_8cpp.html" target="_top" xlink:title=" ">
<polygon fill="none" stroke="black" points="855.5,-6 855.5,-25 991.5,-25 991.5,-6 855.5,-6"/>
<text text-anchor="middle" x="923.5" y="-13" font-family="Helvetica,sans-Serif" font-size="10.00">src/Scenes/MainScene.cpp</text>
</a>
</g>
</g>
<!-- Node9&#45;&gt;Node10 -->
<g id="edge10" class="edge">
<title>Node9&#45;&gt;Node10</title>
<path fill="none" stroke="midnightblue" d="M922.79,-62.54C922.98,-50.17 923.22,-34.62 923.37,-25.13"/>
<polygon fill="midnightblue" stroke="midnightblue" points="919.29,-62.68 922.63,-72.73 926.29,-62.79 919.29,-62.68"/>
</g>
<!-- Node12 -->
<g id="node12" class="node">
<title>Node12</title>
<g id="a_node12"><a xlink:href="GameOverScene_8cpp.html" target="_top" xlink:title=" ">
<polygon fill="none" stroke="black" points="2046.5,-6 2046.5,-25 2208.5,-25 2208.5,-6 2046.5,-6"/>
<text text-anchor="middle" x="2127.5" y="-13" font-family="Helvetica,sans-Serif" font-size="10.00">src/Scenes/GameOverScene.cpp</text>
</a>
</g>
</g>
<!-- Node11&#45;&gt;Node12 -->
<g id="edge12" class="edge">
<title>Node11&#45;&gt;Node12</title>
<path fill="none" stroke="midnightblue" d="M1995.58,-69.1C2027.95,-56.2 2077.78,-36.33 2106.02,-25.06"/>
<polygon fill="midnightblue" stroke="midnightblue" points="1994.14,-65.91 1986.15,-72.87 1996.73,-72.42 1994.14,-65.91"/>
</g>
<!-- Node13 -->
<g id="node13" class="node">
<title>Node13</title>
<g id="a_node13"><a xlink:href="GameLostBehaviour_8cpp.html" target="_top" xlink:title=" ">
<polygon fill="none" stroke="black" points="1901,-0.5 1901,-30.5 2028,-30.5 2028,-0.5 1901,-0.5"/>
<text text-anchor="start" x="1909" y="-18.5" font-family="Helvetica,sans-Serif" font-size="10.00">src/Scripts/Common</text>
<text text-anchor="middle" x="1964.5" y="-7.5" font-family="Helvetica,sans-Serif" font-size="10.00">/GameLostBehaviour.cpp</text>
</a>
</g>
</g>
<!-- Node11&#45;&gt;Node13 -->
<g id="edge13" class="edge">
<title>Node11&#45;&gt;Node13</title>
<path fill="none" stroke="midnightblue" d="M1964.5,-62.41C1964.5,-52.22 1964.5,-39.9 1964.5,-30.59"/>
<polygon fill="midnightblue" stroke="midnightblue" points="1961,-62.73 1964.5,-72.73 1968,-62.73 1961,-62.73"/>
</g>
<!-- Node14&#45;&gt;Node5 -->
<g id="edge15" class="edge">
<title>Node14&#45;&gt;Node5</title>
<path fill="none" stroke="midnightblue" d="M728.67,-69.85C686.88,-56.97 620.57,-36.55 583.3,-25.06"/>
<polygon fill="midnightblue" stroke="midnightblue" points="727.89,-73.27 738.48,-72.87 729.95,-66.58 727.89,-73.27"/>
</g>
<!-- Node14&#45;&gt;Node10 -->
<g id="edge16" class="edge">
<title>Node14&#45;&gt;Node10</title>
<path fill="none" stroke="midnightblue" d="M796.82,-68.95C827.9,-56.08 875.43,-36.4 902.57,-25.17"/>
<polygon fill="midnightblue" stroke="midnightblue" points="795.25,-65.81 787.35,-72.87 797.93,-72.28 795.25,-65.81"/>
</g>
<!-- Node15&#45;&gt;Node10 -->
<g id="edge19" class="edge">
<title>Node15&#45;&gt;Node10</title>
<path fill="none" stroke="midnightblue" d="M1034.76,-63.46C1005,-50.9 966.68,-34.72 943.66,-25.01"/>
<polygon fill="midnightblue" stroke="midnightblue" points="1033.51,-66.73 1044.08,-67.4 1036.23,-60.28 1033.51,-66.73"/>
</g>
<!-- Node16 -->
<g id="node16" class="node">
<title>Node16</title>
<g id="a_node16"><a xlink:href="LevelSelectionScene_8cpp.html" target="_top" xlink:title=" ">
<polygon fill="none" stroke="black" points="1010.5,-0.5 1010.5,-30.5 1144.5,-30.5 1144.5,-0.5 1010.5,-0.5"/>
<text text-anchor="start" x="1018.5" y="-18.5" font-family="Helvetica,sans-Serif" font-size="10.00">src/Scenes/LevelSelection</text>
<text text-anchor="middle" x="1077.5" y="-7.5" font-family="Helvetica,sans-Serif" font-size="10.00">Scene.cpp</text>
</a>
</g>
</g>
<!-- Node15&#45;&gt;Node16 -->
<g id="edge18" class="edge">
<title>Node15&#45;&gt;Node16</title>
<path fill="none" stroke="midnightblue" d="M1077.5,-57.11C1077.5,-48.15 1077.5,-38.32 1077.5,-30.58"/>
<polygon fill="midnightblue" stroke="midnightblue" points="1074,-57.4 1077.5,-67.4 1081,-57.4 1074,-57.4"/>
</g>
<!-- Node18 -->
<g id="node18" class="node">
<title>Node18</title>
<g id="a_node18"><a xlink:href="main_8cpp.html" target="_top" xlink:title=" ">
<polygon fill="none" stroke="black" points="1502.5,-6 1502.5,-25 1574.5,-25 1574.5,-6 1502.5,-6"/>
<text text-anchor="middle" x="1538.5" y="-13" font-family="Helvetica,sans-Serif" font-size="10.00">src/main.cpp</text>
</a>
</g>
</g>
<!-- Node17&#45;&gt;Node18 -->
<g id="edge21" class="edge">
<title>Node17&#45;&gt;Node18</title>
<path fill="none" stroke="midnightblue" d="M1540.62,-62.54C1540.05,-50.17 1539.34,-34.62 1538.9,-25.13"/>
<polygon fill="midnightblue" stroke="midnightblue" points="1537.14,-62.91 1541.1,-72.73 1544.13,-62.58 1537.14,-62.91"/>
</g>
<!-- Node19 -->
<g id="node19" class="node">
<title>Node19</title>
<g id="a_node19"><a xlink:href="LoadingScene_8cpp.html" target="_top" xlink:title=" ">
<polygon fill="none" stroke="black" points="1329,-6 1329,-25 1478,-25 1478,-6 1329,-6"/>
<text text-anchor="middle" x="1403.5" y="-13" font-family="Helvetica,sans-Serif" font-size="10.00">src/Scenes/LoadingScene.cpp</text>
</a>
</g>
</g>
<!-- Node17&#45;&gt;Node19 -->
<g id="edge22" class="edge">
<title>Node17&#45;&gt;Node19</title>
<path fill="none" stroke="midnightblue" d="M1513.78,-68.44C1486.45,-55.57 1445.45,-36.26 1421.9,-25.17"/>
<polygon fill="midnightblue" stroke="midnightblue" points="1512.64,-71.77 1523.17,-72.87 1515.62,-65.44 1512.64,-71.77"/>
</g>
<!-- Node20&#45;&gt;Node10 -->
<g id="edge24" class="edge">
<title>Node20&#45;&gt;Node10</title>
<path fill="none" stroke="midnightblue" d="M1179.98,-70.8C1119.56,-58.01 1019.65,-36.86 964.04,-25.08"/>
<polygon fill="midnightblue" stroke="midnightblue" points="1179.54,-74.29 1190.05,-72.94 1180.99,-67.44 1179.54,-74.29"/>
</g>
<!-- Node21 -->
<g id="node21" class="node">
<title>Node21</title>
<g id="a_node21"><a xlink:href="SaveSelectionScene_8cpp.html" target="_top" xlink:title=" ">
<polygon fill="none" stroke="black" points="1167.5,-0.5 1167.5,-30.5 1299.5,-30.5 1299.5,-0.5 1167.5,-0.5"/>
<text text-anchor="start" x="1175.5" y="-18.5" font-family="Helvetica,sans-Serif" font-size="10.00">src/Scenes/SaveSelection</text>
<text text-anchor="middle" x="1233.5" y="-7.5" font-family="Helvetica,sans-Serif" font-size="10.00">Scene.cpp</text>
</a>
</g>
</g>
<!-- Node20&#45;&gt;Node21 -->
<g id="edge25" class="edge">
<title>Node20&#45;&gt;Node21</title>
<path fill="none" stroke="midnightblue" d="M1231.37,-62.74C1231.84,-52.49 1232.42,-40 1232.85,-30.59"/>
<polygon fill="midnightblue" stroke="midnightblue" points="1227.87,-62.58 1230.9,-72.73 1234.86,-62.91 1227.87,-62.58"/>
</g>
<!-- Node23 -->
<g id="node23" class="node">
<title>Node23</title>
<g id="a_node23"><a xlink:href="PauseScene_8cpp.html" target="_top" xlink:title=" ">
<polygon fill="none" stroke="black" points="150,-6 150,-25 293,-25 293,-6 150,-6"/>
<text text-anchor="middle" x="221.5" y="-13" font-family="Helvetica,sans-Serif" font-size="10.00">src/Scenes/PauseScene.cpp</text>
</a>
</g>
</g>
<!-- Node22&#45;&gt;Node23 -->
<g id="edge28" class="edge">
<title>Node22&#45;&gt;Node23</title>
<path fill="none" stroke="midnightblue" d="M345.76,-68.95C315.27,-56.08 268.66,-36.4 242.03,-25.17"/>
<polygon fill="midnightblue" stroke="midnightblue" points="344.48,-72.2 355.05,-72.87 347.2,-65.76 344.48,-72.2"/>
</g>
<!-- Node24 -->
<g id="node24" class="node">
<title>Node24</title>
<g id="a_node24"><a xlink:href="PauseSceneBehaviour_8cpp.html" target="_top" xlink:title=" ">
<polygon fill="none" stroke="black" points="311,-0.5 311,-30.5 460,-30.5 460,-0.5 311,-0.5"/>
<text text-anchor="start" x="319" y="-18.5" font-family="Helvetica,sans-Serif" font-size="10.00">src/Scripts/Menu/PauseScene</text>
<text text-anchor="middle" x="385.5" y="-7.5" font-family="Helvetica,sans-Serif" font-size="10.00">Behaviour.cpp</text>
</a>
</g>
</g>
<!-- Node22&#45;&gt;Node24 -->
<g id="edge29" class="edge">
<title>Node22&#45;&gt;Node24</title>
<path fill="none" stroke="midnightblue" d="M378.39,-62.74C379.96,-52.49 381.88,-40 383.33,-30.59"/>
<polygon fill="midnightblue" stroke="midnightblue" points="374.91,-62.32 376.85,-72.73 381.83,-63.38 374.91,-62.32"/>
</g>
<!-- Node25&#45;&gt;Node19 -->
<g id="edge31" class="edge">
<title>Node25&#45;&gt;Node19</title>
<path fill="none" stroke="midnightblue" d="M1390.22,-57.6C1393.88,-46.28 1398.02,-33.46 1400.69,-25.19"/>
<polygon fill="midnightblue" stroke="midnightblue" points="1386.8,-56.8 1387.06,-67.4 1393.46,-58.96 1386.8,-56.8"/>
</g>
<!-- Node25&#45;&gt;Node21 -->
<g id="edge32" class="edge">
<title>Node25&#45;&gt;Node21</title>
<path fill="none" stroke="midnightblue" d="M1340.71,-63.27C1316.98,-52.92 1287.72,-40.15 1265.77,-30.58"/>
<polygon fill="midnightblue" stroke="midnightblue" points="1339.6,-66.61 1350.17,-67.4 1342.4,-60.19 1339.6,-66.61"/>
</g>
<!-- Node27 -->
<g id="node27" class="node">
<title>Node27</title>
<g id="a_node27"><a xlink:href="VictoryScene_8cpp.html" target="_top" xlink:title=" ">
<polygon fill="none" stroke="black" points="1593,-6 1593,-25 1738,-25 1738,-6 1593,-6"/>
<text text-anchor="middle" x="1665.5" y="-13" font-family="Helvetica,sans-Serif" font-size="10.00">src/Scenes/VictoryScene.cpp</text>
</a>
</g>
</g>
<!-- Node26&#45;&gt;Node27 -->
<g id="edge34" class="edge">
<title>Node26&#45;&gt;Node27</title>
<path fill="none" stroke="midnightblue" d="M1695.48,-64.03C1687.55,-51.45 1677.17,-35.01 1670.94,-25.13"/>
<polygon fill="midnightblue" stroke="midnightblue" points="1692.68,-66.14 1700.97,-72.73 1698.6,-62.41 1692.68,-66.14"/>
</g>
<!-- Node28 -->
<g id="node28" class="node">
<title>Node28</title>
<g id="a_node28"><a xlink:href="GameWonBehaviour_8cpp.html" target="_top" xlink:title=" ">
<polygon fill="none" stroke="black" points="1756,-0.5 1756,-30.5 1883,-30.5 1883,-0.5 1756,-0.5"/>
<text text-anchor="start" x="1764" y="-18.5" font-family="Helvetica,sans-Serif" font-size="10.00">src/Scripts/Common</text>
<text text-anchor="middle" x="1819.5" y="-7.5" font-family="Helvetica,sans-Serif" font-size="10.00">/GameWonBehaviour.cpp</text>
</a>
</g>
</g>
<!-- Node26&#45;&gt;Node28 -->
<g id="edge35" class="edge">
<title>Node26&#45;&gt;Node28</title>
<path fill="none" stroke="midnightblue" d="M1730.66,-67.6C1749.63,-56.69 1775.95,-41.55 1795.01,-30.59"/>
<polygon fill="midnightblue" stroke="midnightblue" points="1728.66,-64.71 1721.74,-72.73 1732.15,-70.78 1728.66,-64.71"/>
</g>
</g>
</svg>
        <g id="navigator" transform="translate(0 0)" fill="#404254">
                <rect fill="#f2f5e9" fill-opacity="0.5" stroke="#606060" stroke-width=".5" x="0" y="0" width="60" height="60"/>
                <use id="zoomplus" xlink:href="#zoomPlus" x="17" y="9" onmousedown="handleZoom(evt,'in')"/>
                <use id="zoomminus" xlink:href="#zoomMin" x="42" y="9" onmousedown="handleZoom(evt,'out')"/>
                <use id="reset" xlink:href="#resetDef" x="30" y="36" onmousedown="handleReset()"/>
                <g id="arrowUp" xlink:href="#dirArrow" transform="translate(30 24)" onmousedown="handlePan(0,-1)">
                  <use xlink:href="#rim" fill="#404040">
                        <set attributeName="fill" to="#808080" begin="arrowUp.mouseover" end="arrowUp.mouseout"/>
                  </use>
                  <path fill="none" stroke="white" stroke-width="1.5" d="M0,-3.0v7 M-2.5,-0.5L0,-3.0L2.5,-0.5"/>
                </g>
                <g id="arrowRight" xlink:href="#dirArrow" transform="rotate(90) translate(36 -43)" onmousedown="handlePan(1,0)">
                  <use xlink:href="#rim" fill="#404040">
                        <set attributeName="fill" to="#808080" begin="arrowRight.mouseover" end="arrowRight.mouseout"/>
                  </use>
                  <path fill="none" stroke="white" stroke-width="1.5" d="M0,-3.0v7 M-2.5,-0.5L0,-3.0L2.5,-0.5"/>
                </g>
                <g id="arrowDown" xlink:href="#dirArrow" transform="rotate(180) translate(-30 -48)" onmousedown="handlePan(0,1)">
                  <use xlink:href="#rim" fill="#404040">
                        <set attributeName="fill" to="#808080" begin="arrowDown.mouseover" end="arrowDown.mouseout"/>
                  </use>
                  <path fill="none" stroke="white" stroke-width="1.5" d="M0,-3.0v7 M-2.5,-0.5L0,-3.0L2.5,-0.5"/>
                </g>
                <g id="arrowLeft" xlink:href="#dirArrow" transform="rotate(270) translate(-36 17)" onmousedown="handlePan(-1,0)">
                  <use xlink:href="#rim" fill="#404040">
                        <set attributeName="fill" to="#808080" begin="arrowLeft.mouseover" end="arrowLeft.mouseout"/>
                  </use>
                  <path fill="none" stroke="white" stroke-width="1.5" d="M0,-3.0v7 M-2.5,-0.5L0,-3.0L2.5,-0.5"/>
                </g>
        </g>
        <svg viewBox="0 0 15 15" width="100%" height="30px" preserveAspectRatio="xMaxYMin meet">
         <g id="arrow_out" transform="scale(0.3 0.3)">
          <a xlink:href="BackgroundName_8hpp__dep__incl_org.svg" target="_base">
           <rect id="button" ry="5" rx="5" y="6" x="6" height="38" width="38"
                fill="#f2f5e9" fill-opacity="0.5" stroke="#606060" stroke-width="1.0"/>
           <path id="arrow"
             d="M 11.500037,31.436501 C 11.940474,20.09759 22.043105,11.32322 32.158766,21.979434 L 37.068811,17.246167 C 37.068811,17.246167 37.088388,32 37.088388,32 L 22.160133,31.978069 C 22.160133,31.978069 26.997745,27.140456 26.997745,27.140456 C 18.528582,18.264221 13.291696,25.230495 11.500037,31.436501 z"
             style="fill:#404040;"/>
          </a>
         </g>
        </svg>
</svg>
