<?xml version="1.0" encoding="UTF-8" standalone="no"?>
<!DOCTYPE svg PUBLIC "-//W3C//DTD SVG 1.1//EN"
 "http://www.w3.org/Graphics/SVG/1.1/DTD/svg11.dtd">
<!-- Generated by graphviz version 2.44.0 ()
 -->
<!-- Title: src/Enums/BackgroundName.hpp Pages: 1 -->
<!--zoomable 229 -->
<svg id="main" version="1.1" xmlns="http://www.w3.org/2000/svg" xmlns:xlink="http://www.w3.org/1999/xlink" xml:space="preserve" onload="init(evt)">
<style type="text/css"><![CDATA[
.edge:hover path { stroke: red; }
.edge:hover polygon { stroke: red; fill: red; }
]]></style>
<script type="text/javascript"><![CDATA[
var edges = document.getElementsByTagName('g');
if (edges && edges.length) {
  for (var i=0;i<edges.length;i++) {
    if (edges[i].id.substr(0,4)=='edge') {
      edges[i].setAttribute('class','edge');
    }
  }
}
]]></script>
        <defs>
                <circle id="rim" cx="0" cy="0" r="7"/>
                <circle id="rim2" cx="0" cy="0" r="3.5"/>
                <g id="zoomPlus">
                        <use xlink:href="#rim" fill="#404040">
                                <set attributeName="fill" to="#808080" begin="zoomplus.mouseover" end="zoomplus.mouseout"/>
                        </use>
                        <path d="M-4,0h8M0,-4v8" fill="none" stroke="white" stroke-width="1.5" pointer-events="none"/>
                </g>
                <g id="zoomMin">
                        <use xlink:href="#rim" fill="#404040">
                                <set attributeName="fill" to="#808080" begin="zoomminus.mouseover" end="zoomminus.mouseout"/>
                        </use>
                        <path d="M-4,0h8" fill="none" stroke="white" stroke-width="1.5" pointer-events="none"/>
                </g>
                <g id="dirArrow">
                        <path fill="none" stroke="white" stroke-width="1.5" d="M0,-3.0v7 M-2.5,-0.5L0,-3.0L2.5,-0.5"/>
                </g>
               <g id="resetDef">
                       <use xlink:href="#rim2" fill="#404040">
                               <set attributeName="fill" to="#808080" begin="reset.mouseover" end="reset.mouseout"/>
                       </use>
               </g>
        </defs>

<script type="text/javascript">
var viewWidth = 2393;
var viewHeight = 229;
var sectionId = 'dynsection-0';
</script>
<script xlink:href="svgpan.js"/>
<svg id="graph" class="graph">
<g id="viewport">
<title>src/Enums/BackgroundName.hpp</title>
<!-- Node1 -->
<g id="node1" class="node">
<title>Node1</title>
<g id="a_node1"><a xlink:title=" ">
<polygon fill="#bfbfbf" stroke="black" points="570.32,-201.5 570.32,-220.5 732.32,-220.5 732.32,-201.5 570.32,-201.5"/>
<text text-anchor="middle" x="651.32" y="-208.5" font-family="Helvetica,sans-Serif" font-size="10.00">src/Enums/BackgroundName.hpp</text>
</a>
</g>
</g>
<!-- Node2 -->
<g id="node2" class="node">
<title>Node2</title>
<g id="a_node2"><a xlink:href="BackgroundPrefabFactory_8hpp.html" target="_top" xlink:title=" ">
<polygon fill="none" stroke="black" points="248.32,-134.5 248.32,-164.5 376.32,-164.5 376.32,-134.5 248.32,-134.5"/>
<text text-anchor="start" x="256.32" y="-152.5" font-family="Helvetica,sans-Serif" font-size="10.00">src/Factories/Background</text>
<text text-anchor="middle" x="312.32" y="-141.5" font-family="Helvetica,sans-Serif" font-size="10.00">PrefabFactory.hpp</text>
</a>
</g>
</g>
<!-- Node1&#45;&gt;Node2 -->
<g id="edge1" class="edge">
<title>Node1&#45;&gt;Node2</title>
<path fill="none" stroke="midnightblue" d="M592.62,-199.7C532.3,-189.11 438.66,-172.68 376.43,-161.75"/>
<polygon fill="midnightblue" stroke="midnightblue" points="592.29,-203.19 602.75,-201.48 593.5,-196.3 592.29,-203.19"/>
</g>
<!-- Node8 -->
<g id="node8" class="node">
<title>Node8</title>
<g id="a_node8"><a xlink:href="MenuScene_8hpp.html" target="_top" xlink:title=" ">
<polygon fill="none" stroke="black" points="1075.82,-140 1075.82,-159 1214.82,-159 1214.82,-140 1075.82,-140"/>
<text text-anchor="middle" x="1145.32" y="-147" font-family="Helvetica,sans-Serif" font-size="10.00">src/Scenes/MenuScene.hpp</text>
</a>
</g>
</g>
<!-- Node1&#45;&gt;Node8 -->
<g id="edge7" class="edge">
<title>Node1&#45;&gt;Node8</title>
<path fill="none" stroke="midnightblue" d="M732.28,-200.25C827.82,-188.74 985.06,-169.8 1075.47,-158.91"/>
<polygon fill="midnightblue" stroke="midnightblue" points="731.6,-196.8 722.09,-201.48 732.44,-203.75 731.6,-196.8"/>
</g>
<!-- Node3 -->
<g id="node3" class="node">
<title>Node3</title>
<g id="a_node3"><a xlink:href="BackgroundPrefabFactory_8cpp.html" target="_top" xlink:title=" ">
<polygon fill="none" stroke="black" points="17.32,-67.5 17.32,-97.5 145.32,-97.5 145.32,-67.5 17.32,-67.5"/>
<text text-anchor="start" x="25.32" y="-85.5" font-family="Helvetica,sans-Serif" font-size="10.00">src/Factories/Background</text>
<text text-anchor="middle" x="81.32" y="-74.5" font-family="Helvetica,sans-Serif" font-size="10.00">PrefabFactory.cpp</text>
</a>
</g>
</g>
<!-- Node2&#45;&gt;Node3 -->
<g id="edge2" class="edge">
<title>Node2&#45;&gt;Node3</title>
<path fill="none" stroke="midnightblue" d="M252.66,-131.71C215.07,-121.14 167.09,-107.63 131.46,-97.61"/>
<polygon fill="midnightblue" stroke="midnightblue" points="251.9,-135.14 262.48,-134.48 253.8,-128.4 251.9,-135.14"/>
</g>
<!-- Node4 -->
<g id="node4" class="node">
<title>Node4</title>
<g id="a_node4"><a xlink:href="CreditScene_8cpp.html" target="_top" xlink:title=" ">
<polygon fill="none" stroke="black" points="90.32,-6 90.32,-25 230.32,-25 230.32,-6 90.32,-6"/>
<text text-anchor="middle" x="160.32" y="-13" font-family="Helvetica,sans-Serif" font-size="10.00">src/Scenes/CreditScene.cpp</text>
</a>
</g>
</g>
<!-- Node2&#45;&gt;Node4 -->
<g id="edge3" class="edge">
<title>Node2&#45;&gt;Node4</title>
<path fill="none" stroke="midnightblue" d="M237.91,-146.78C157.57,-143.17 37.18,-132.05 8.32,-98 -24.31,-59.51 51.87,-36.38 107.75,-25.07"/>
<polygon fill="midnightblue" stroke="midnightblue" points="237.85,-150.28 247.99,-147.2 238.15,-143.29 237.85,-150.28"/>
</g>
<!-- Node5 -->
<g id="node5" class="node">
<title>Node5</title>
<g id="a_node5"><a xlink:href="HelpScene_8cpp.html" target="_top" xlink:title=" ">
<polygon fill="none" stroke="black" points="1003.82,-6 1003.82,-25 1138.82,-25 1138.82,-6 1003.82,-6"/>
<text text-anchor="middle" x="1071.32" y="-13" font-family="Helvetica,sans-Serif" font-size="10.00">src/Scenes/HelpScene.cpp</text>
</a>
</g>
</g>
<!-- Node2&#45;&gt;Node5 -->
<g id="edge4" class="edge">
<title>Node2&#45;&gt;Node5</title>
<path fill="none" stroke="midnightblue" d="M386.71,-148.08C533.2,-146.37 853.63,-138.03 955.32,-98 975.92,-89.89 976.37,-79.97 994.32,-67 1015.82,-51.45 1041.81,-34.83 1057.43,-25.07"/>
<polygon fill="midnightblue" stroke="midnightblue" points="386.43,-144.58 376.47,-148.19 386.5,-151.58 386.43,-144.58"/>
</g>
<!-- Node6 -->
<g id="node6" class="node">
<title>Node6</title>
<g id="a_node6"><a xlink:href="LevelScene_8cpp.html" target="_top" xlink:title=" ">
<polygon fill="none" stroke="black" points="163.82,-73 163.82,-92 302.82,-92 302.82,-73 163.82,-73"/>
<text text-anchor="middle" x="233.32" y="-80" font-family="Helvetica,sans-Serif" font-size="10.00">src/Scenes/LevelScene.cpp</text>
</a>
</g>
</g>
<!-- Node2&#45;&gt;Node6 -->
<g id="edge5" class="edge">
<title>Node2&#45;&gt;Node6</title>
<path fill="none" stroke="midnightblue" d="M287.41,-128.01C272.74,-115.94 254.96,-101.3 243.88,-92.19"/>
<polygon fill="midnightblue" stroke="midnightblue" points="285.23,-130.75 295.17,-134.4 289.68,-125.34 285.23,-130.75"/>
</g>
<!-- Node7 -->
<g id="node7" class="node">
<title>Node7</title>
<g id="a_node7"><a xlink:href="MenuScene_8cpp.html" target="_top" xlink:title=" ">
<polygon fill="none" stroke="black" points="320.82,-73 320.82,-92 459.82,-92 459.82,-73 320.82,-73"/>
<text text-anchor="middle" x="390.32" y="-80" font-family="Helvetica,sans-Serif" font-size="10.00">src/Scenes/MenuScene.cpp</text>
</a>
</g>
</g>
<!-- Node2&#45;&gt;Node7 -->
<g id="edge6" class="edge">
<title>Node2&#45;&gt;Node7</title>
<path fill="none" stroke="midnightblue" d="M337.31,-127.67C351.71,-115.67 369.05,-101.22 379.88,-92.19"/>
<polygon fill="midnightblue" stroke="midnightblue" points="334.68,-125.31 329.24,-134.4 339.16,-130.68 334.68,-125.31"/>
</g>
<!-- Node8&#45;&gt;Node7 -->
<g id="edge26" class="edge">
<title>Node8&#45;&gt;Node7</title>
<path fill="none" stroke="midnightblue" d="M1065.47,-145.3C938.72,-139.61 683.82,-125.62 469.32,-98 457.15,-96.43 444.01,-94.23 432,-92.01"/>
<polygon fill="midnightblue" stroke="midnightblue" points="1065.34,-148.8 1075.49,-145.75 1065.65,-141.81 1065.34,-148.8"/>
</g>
<!-- Node9 -->
<g id="node9" class="node">
<title>Node9</title>
<g id="a_node9"><a xlink:href="CreditScene_8hpp.html" target="_top" xlink:title=" ">
<polygon fill="none" stroke="black" points="478.32,-73 478.32,-92 618.32,-92 618.32,-73 478.32,-73"/>
<text text-anchor="middle" x="548.32" y="-80" font-family="Helvetica,sans-Serif" font-size="10.00">src/Scenes/CreditScene.hpp</text>
</a>
</g>
</g>
<!-- Node8&#45;&gt;Node9 -->
<g id="edge8" class="edge">
<title>Node8&#45;&gt;Node9</title>
<path fill="none" stroke="midnightblue" d="M1065.33,-142.81C963.36,-135.07 781.74,-119.66 627.32,-98 615.58,-96.35 602.93,-94.2 591.26,-92.06"/>
<polygon fill="midnightblue" stroke="midnightblue" points="1065.32,-146.32 1075.55,-143.58 1065.84,-139.34 1065.32,-146.32"/>
</g>
<!-- Node11 -->
<g id="node11" class="node">
<title>Node11</title>
<g id="a_node11"><a xlink:href="GameOverScene_8hpp.html" target="_top" xlink:title=" ">
<polygon fill="none" stroke="black" points="2060.32,-73 2060.32,-92 2222.32,-92 2222.32,-73 2060.32,-73"/>
<text text-anchor="middle" x="2141.32" y="-80" font-family="Helvetica,sans-Serif" font-size="10.00">src/Scenes/GameOverScene.hpp</text>
</a>
</g>
</g>
<!-- Node8&#45;&gt;Node11 -->
<g id="edge11" class="edge">
<title>Node8&#45;&gt;Node11</title>
<path fill="none" stroke="midnightblue" d="M1225.17,-143.38C1366.26,-134.31 1668.86,-114.81 1924.32,-98 1969.24,-95.04 2019.4,-91.69 2060.17,-88.96"/>
<polygon fill="midnightblue" stroke="midnightblue" points="1224.64,-139.9 1214.88,-144.04 1225.09,-146.89 1224.64,-139.9"/>
</g>
<!-- Node14 -->
<g id="node14" class="node">
<title>Node14</title>
<g id="a_node14"><a xlink:href="HelpScene_8hpp.html" target="_top" xlink:title=" ">
<polygon fill="none" stroke="black" points="1153.82,-73 1153.82,-92 1288.82,-92 1288.82,-73 1153.82,-73"/>
<text text-anchor="middle" x="1221.32" y="-80" font-family="Helvetica,sans-Serif" font-size="10.00">src/Scenes/HelpScene.hpp</text>
</a>
</g>
</g>
<!-- Node8&#45;&gt;Node14 -->
<g id="edge14" class="edge">
<title>Node8&#45;&gt;Node14</title>
<path fill="none" stroke="midnightblue" d="M1163.19,-133.21C1178.16,-120.41 1199,-102.59 1211.23,-92.13"/>
<polygon fill="midnightblue" stroke="midnightblue" points="1160.89,-130.57 1155.57,-139.73 1165.44,-135.89 1160.89,-130.57"/>
</g>
<!-- Node16 -->
<g id="node16" class="node">
<title>Node16</title>
<g id="a_node16"><a xlink:href="LevelSelectionScene_8hpp.html" target="_top" xlink:title=" ">
<polygon fill="none" stroke="black" points="1617.32,-67.5 1617.32,-97.5 1751.32,-97.5 1751.32,-67.5 1617.32,-67.5"/>
<text text-anchor="start" x="1625.32" y="-85.5" font-family="Helvetica,sans-Serif" font-size="10.00">src/Scenes/LevelSelection</text>
<text text-anchor="middle" x="1684.32" y="-74.5" font-family="Helvetica,sans-Serif" font-size="10.00">Scene.hpp</text>
</a>
</g>
</g>
<!-- Node8&#45;&gt;Node16 -->
<g id="edge17" class="edge">
<title>Node8&#45;&gt;Node16</title>
<path fill="none" stroke="midnightblue" d="M1225.08,-141.75C1317.54,-133.48 1474.39,-118.05 1608.32,-98 1611.24,-97.56 1614.22,-97.09 1617.23,-96.6"/>
<polygon fill="midnightblue" stroke="midnightblue" points="1224.61,-138.28 1214.96,-142.65 1225.23,-145.25 1224.61,-138.28"/>
</g>
<!-- Node18 -->
<g id="node18" class="node">
<title>Node18</title>
<g id="a_node18"><a xlink:href="LoadingScene_8hpp.html" target="_top" xlink:title=" ">
<polygon fill="none" stroke="black" points="636.82,-73 636.82,-92 785.82,-92 785.82,-73 636.82,-73"/>
<text text-anchor="middle" x="711.32" y="-80" font-family="Helvetica,sans-Serif" font-size="10.00">src/Scenes/LoadingScene.hpp</text>
</a>
</g>
</g>
<!-- Node8&#45;&gt;Node18 -->
<g id="edge20" class="edge">
<title>Node8&#45;&gt;Node18</title>
<path fill="none" stroke="midnightblue" d="M1071.95,-138.6C1000.87,-128.85 890.08,-113.25 794.32,-98 782.76,-96.16 770.32,-94.05 758.68,-92.03"/>
<polygon fill="midnightblue" stroke="midnightblue" points="1071.76,-142.1 1082.14,-139.99 1072.71,-135.17 1071.76,-142.1"/>
</g>
<!-- Node20 -->
<g id="node20" class="node">
<title>Node20</title>
<g id="a_node20"><a xlink:href="MainScene_8hpp.html" target="_top" xlink:title=" ">
<polygon fill="none" stroke="black" points="1307.32,-73 1307.32,-92 1443.32,-92 1443.32,-73 1307.32,-73"/>
<text text-anchor="middle" x="1375.32" y="-80" font-family="Helvetica,sans-Serif" font-size="10.00">src/Scenes/MainScene.hpp</text>
</a>
</g>
</g>
<!-- Node8&#45;&gt;Node20 -->
<g id="edge23" class="edge">
<title>Node8&#45;&gt;Node20</title>
<path fill="none" stroke="midnightblue" d="M1185.69,-137.09C1231.19,-124.23 1304.13,-103.62 1345.01,-92.06"/>
<polygon fill="midnightblue" stroke="midnightblue" points="1184.53,-133.78 1175.86,-139.87 1186.43,-140.52 1184.53,-133.78"/>
</g>
<!-- Node22 -->
<g id="node22" class="node">
<title>Node22</title>
<g id="a_node22"><a xlink:href="PauseScene_8hpp.html" target="_top" xlink:title=" ">
<polygon fill="none" stroke="black" points="803.82,-73 803.82,-92 946.82,-92 946.82,-73 803.82,-73"/>
<text text-anchor="middle" x="875.32" y="-80" font-family="Helvetica,sans-Serif" font-size="10.00">src/Scenes/PauseScene.hpp</text>
</a>
</g>
</g>
<!-- Node8&#45;&gt;Node22 -->
<g id="edge27" class="edge">
<title>Node8&#45;&gt;Node22</title>
<path fill="none" stroke="midnightblue" d="M1099.89,-137.56C1046.66,-124.75 959.58,-103.78 910.97,-92.08"/>
<polygon fill="midnightblue" stroke="midnightblue" points="1099.2,-141 1109.74,-139.94 1100.84,-134.19 1099.2,-141"/>
</g>
<!-- Node25 -->
<g id="node25" class="node">
<title>Node25</title>
<g id="a_node25"><a xlink:href="SaveSelectionScene_8hpp.html" target="_top" xlink:title=" ">
<polygon fill="none" stroke="black" points="1003.32,-67.5 1003.32,-97.5 1135.32,-97.5 1135.32,-67.5 1003.32,-67.5"/>
<text text-anchor="start" x="1011.32" y="-85.5" font-family="Helvetica,sans-Serif" font-size="10.00">src/Scenes/SaveSelection</text>
<text text-anchor="middle" x="1069.32" y="-74.5" font-family="Helvetica,sans-Serif" font-size="10.00">Scene.hpp</text>
</a>
</g>
</g>
<!-- Node8&#45;&gt;Node25 -->
<g id="edge30" class="edge">
<title>Node8&#45;&gt;Node25</title>
<path fill="none" stroke="midnightblue" d="M1127.11,-132.93C1114.54,-122.18 1097.96,-108 1085.79,-97.59"/>
<polygon fill="midnightblue" stroke="midnightblue" points="1125.19,-135.89 1135.07,-139.73 1129.74,-130.57 1125.19,-135.89"/>
</g>
<!-- Node26 -->
<g id="node26" class="node">
<title>Node26</title>
<g id="a_node26"><a xlink:href="StatsScene_8hpp.html" target="_top" xlink:title=" ">
<polygon fill="none" stroke="black" points="1461.32,-73 1461.32,-92 1599.32,-92 1599.32,-73 1461.32,-73"/>
<text text-anchor="middle" x="1530.32" y="-80" font-family="Helvetica,sans-Serif" font-size="10.00">src/Scenes/StatsScene.hpp</text>
</a>
</g>
</g>
<!-- Node8&#45;&gt;Node26 -->
<g id="edge33" class="edge">
<title>Node8&#45;&gt;Node26</title>
<path fill="none" stroke="midnightblue" d="M1209.21,-138.39C1271.36,-128.46 1368.4,-112.7 1452.32,-98 1463.03,-96.12 1474.56,-94.02 1485.39,-92.02"/>
<polygon fill="midnightblue" stroke="midnightblue" points="1208.49,-134.96 1199.17,-139.99 1209.59,-141.87 1208.49,-134.96"/>
</g>
<!-- Node28 -->
<g id="node28" class="node">
<title>Node28</title>
<g id="a_node28"><a xlink:href="VictoryScene_8hpp.html" target="_top" xlink:title=" ">
<polygon fill="none" stroke="black" points="1769.82,-73 1769.82,-92 1914.82,-92 1914.82,-73 1769.82,-73"/>
<text text-anchor="middle" x="1842.32" y="-80" font-family="Helvetica,sans-Serif" font-size="10.00">src/Scenes/VictoryScene.hpp</text>
</a>
</g>
</g>
<!-- Node8&#45;&gt;Node28 -->
<g id="edge36" class="edge">
<title>Node8&#45;&gt;Node28</title>
<path fill="none" stroke="midnightblue" d="M1225.17,-144.32C1342.71,-137.64 1569.07,-122.71 1760.32,-98 1772.79,-96.39 1786.26,-94.2 1798.6,-92.01"/>
<polygon fill="midnightblue" stroke="midnightblue" points="1224.96,-140.83 1215.17,-144.89 1225.35,-147.82 1224.96,-140.83"/>
</g>
<!-- Node9&#45;&gt;Node4 -->
<g id="edge9" class="edge">
<title>Node9&#45;&gt;Node4</title>
<path fill="none" stroke="midnightblue" d="M491.89,-71.15C483.98,-69.73 475.94,-68.32 468.32,-67 379.28,-51.63 275.55,-34.86 214.05,-25.03"/>
<polygon fill="midnightblue" stroke="midnightblue" points="491.34,-74.61 501.81,-72.93 492.58,-67.72 491.34,-74.61"/>
</g>
<!-- Node10 -->
<g id="node10" class="node">
<title>Node10</title>
<g id="a_node10"><a xlink:href="LoadingScene_8cpp.html" target="_top" xlink:title=" ">
<polygon fill="none" stroke="black" points="508.82,-6 508.82,-25 657.82,-25 657.82,-6 508.82,-6"/>
<text text-anchor="middle" x="583.32" y="-13" font-family="Helvetica,sans-Serif" font-size="10.00">src/Scenes/LoadingScene.cpp</text>
</a>
</g>
</g>
<!-- Node9&#45;&gt;Node10 -->
<g id="edge10" class="edge">
<title>Node9&#45;&gt;Node10</title>
<path fill="none" stroke="midnightblue" d="M557.92,-63.66C564.67,-51.13 573.4,-34.91 578.67,-25.13"/>
<polygon fill="midnightblue" stroke="midnightblue" points="554.7,-62.27 553.04,-72.73 560.86,-65.59 554.7,-62.27"/>
</g>
<!-- Node12 -->
<g id="node12" class="node">
<title>Node12</title>
<g id="a_node12"><a xlink:href="GameOverScene_8cpp.html" target="_top" xlink:title=" ">
<polygon fill="none" stroke="black" points="2223.32,-6 2223.32,-25 2385.32,-25 2385.32,-6 2223.32,-6"/>
<text text-anchor="middle" x="2304.32" y="-13" font-family="Helvetica,sans-Serif" font-size="10.00">src/Scenes/GameOverScene.cpp</text>
</a>
</g>
</g>
<!-- Node11&#45;&gt;Node12 -->
<g id="edge12" class="edge">
<title>Node11&#45;&gt;Node12</title>
<path fill="none" stroke="midnightblue" d="M2172.4,-69.1C2204.76,-56.2 2254.6,-36.33 2282.84,-25.06"/>
<polygon fill="midnightblue" stroke="midnightblue" points="2170.95,-65.91 2162.96,-72.87 2173.55,-72.42 2170.95,-65.91"/>
</g>
<!-- Node13 -->
<g id="node13" class="node">
<title>Node13</title>
<g id="a_node13"><a xlink:href="GameLostBehaviour_8cpp.html" target="_top" xlink:title=" ">
<polygon fill="none" stroke="black" points="2077.82,-0.5 2077.82,-30.5 2204.82,-30.5 2204.82,-0.5 2077.82,-0.5"/>
<text text-anchor="start" x="2085.82" y="-18.5" font-family="Helvetica,sans-Serif" font-size="10.00">src/Scripts/Common</text>
<text text-anchor="middle" x="2141.32" y="-7.5" font-family="Helvetica,sans-Serif" font-size="10.00">/GameLostBehaviour.cpp</text>
</a>
</g>
</g>
<!-- Node11&#45;&gt;Node13 -->
<g id="edge13" class="edge">
<title>Node11&#45;&gt;Node13</title>
<path fill="none" stroke="midnightblue" d="M2141.32,-62.41C2141.32,-52.22 2141.32,-39.9 2141.32,-30.59"/>
<polygon fill="midnightblue" stroke="midnightblue" points="2137.82,-62.73 2141.32,-72.73 2144.82,-62.73 2137.82,-62.73"/>
</g>
<!-- Node14&#45;&gt;Node5 -->
<g id="edge15" class="edge">
<title>Node14&#45;&gt;Node5</title>
<path fill="none" stroke="midnightblue" d="M1191.96,-68.78C1162.26,-55.91 1117.13,-36.35 1091.32,-25.17"/>
<polygon fill="midnightblue" stroke="midnightblue" points="1190.83,-72.1 1201.4,-72.87 1193.61,-65.68 1190.83,-72.1"/>
</g>
<!-- Node15 -->
<g id="node15" class="node">
<title>Node15</title>
<g id="a_node15"><a xlink:href="MainScene_8cpp.html" target="_top" xlink:title=" ">
<polygon fill="none" stroke="black" points="1307.32,-6 1307.32,-25 1443.32,-25 1443.32,-6 1307.32,-6"/>
<text text-anchor="middle" x="1375.32" y="-13" font-family="Helvetica,sans-Serif" font-size="10.00">src/Scenes/MainScene.cpp</text>
</a>
</g>
</g>
<!-- Node14&#45;&gt;Node15 -->
<g id="edge16" class="edge">
<title>Node14&#45;&gt;Node15</title>
<path fill="none" stroke="midnightblue" d="M1251.05,-68.95C1281.54,-56.08 1328.16,-36.4 1354.78,-25.17"/>
<polygon fill="midnightblue" stroke="midnightblue" points="1249.62,-65.76 1241.77,-72.87 1252.34,-72.2 1249.62,-65.76"/>
</g>
<!-- Node16&#45;&gt;Node15 -->
<g id="edge19" class="edge">
<title>Node16&#45;&gt;Node15</title>
<path fill="none" stroke="midnightblue" d="M1607.71,-65.39C1546.97,-52.61 1464.47,-35.25 1415.86,-25.03"/>
<polygon fill="midnightblue" stroke="midnightblue" points="1607.14,-68.84 1617.65,-67.48 1608.58,-61.99 1607.14,-68.84"/>
</g>
<!-- Node17 -->
<g id="node17" class="node">
<title>Node17</title>
<g id="a_node17"><a xlink:href="LevelSelectionScene_8cpp.html" target="_top" xlink:title=" ">
<polygon fill="none" stroke="black" points="1617.32,-0.5 1617.32,-30.5 1751.32,-30.5 1751.32,-0.5 1617.32,-0.5"/>
<text text-anchor="start" x="1625.32" y="-18.5" font-family="Helvetica,sans-Serif" font-size="10.00">src/Scenes/LevelSelection</text>
<text text-anchor="middle" x="1684.32" y="-7.5" font-family="Helvetica,sans-Serif" font-size="10.00">Scene.cpp</text>
</a>
</g>
</g>
<!-- Node16&#45;&gt;Node17 -->
<g id="edge18" class="edge">
<title>Node16&#45;&gt;Node17</title>
<path fill="none" stroke="midnightblue" d="M1684.32,-57.11C1684.32,-48.15 1684.32,-38.32 1684.32,-30.58"/>
<polygon fill="midnightblue" stroke="midnightblue" points="1680.82,-57.4 1684.32,-67.4 1687.82,-57.4 1680.82,-57.4"/>
</g>
<!-- Node18&#45;&gt;Node10 -->
<g id="edge22" class="edge">
<title>Node18&#45;&gt;Node10</title>
<path fill="none" stroke="midnightblue" d="M685.27,-68.27C659.92,-55.4 622.13,-36.21 600.38,-25.17"/>
<polygon fill="midnightblue" stroke="midnightblue" points="683.82,-71.46 694.32,-72.87 686.99,-65.22 683.82,-71.46"/>
</g>
<!-- Node19 -->
<g id="node19" class="node">
<title>Node19</title>
<g id="a_node19"><a xlink:href="main_8cpp.html" target="_top" xlink:title=" ">
<polygon fill="none" stroke="black" points="418.32,-6 418.32,-25 490.32,-25 490.32,-6 418.32,-6"/>
<text text-anchor="middle" x="454.32" y="-13" font-family="Helvetica,sans-Serif" font-size="10.00">src/main.cpp</text>
</a>
</g>
</g>
<!-- Node18&#45;&gt;Node19 -->
<g id="edge21" class="edge">
<title>Node18&#45;&gt;Node19</title>
<path fill="none" stroke="midnightblue" d="M661.26,-70.73C618.12,-61.18 554.3,-46.38 499.32,-31 492.99,-29.23 486.23,-27.15 479.91,-25.13"/>
<polygon fill="midnightblue" stroke="midnightblue" points="660.7,-74.19 671.22,-72.93 662.21,-67.36 660.7,-74.19"/>
</g>
<!-- Node20&#45;&gt;Node15 -->
<g id="edge24" class="edge">
<title>Node20&#45;&gt;Node15</title>
<path fill="none" stroke="midnightblue" d="M1375.32,-62.54C1375.32,-50.17 1375.32,-34.62 1375.32,-25.13"/>
<polygon fill="midnightblue" stroke="midnightblue" points="1371.82,-62.73 1375.32,-72.73 1378.82,-62.73 1371.82,-62.73"/>
</g>
<!-- Node21 -->
<g id="node21" class="node">
<title>Node21</title>
<g id="a_node21"><a xlink:href="SaveSelectionScene_8cpp.html" target="_top" xlink:title=" ">
<polygon fill="none" stroke="black" points="1157.32,-0.5 1157.32,-30.5 1289.32,-30.5 1289.32,-0.5 1157.32,-0.5"/>
<text text-anchor="start" x="1165.32" y="-18.5" font-family="Helvetica,sans-Serif" font-size="10.00">src/Scenes/SaveSelection</text>
<text text-anchor="middle" x="1223.32" y="-7.5" font-family="Helvetica,sans-Serif" font-size="10.00">Scene.cpp</text>
</a>
</g>
</g>
<!-- Node20&#45;&gt;Node21 -->
<g id="edge25" class="edge">
<title>Node20&#45;&gt;Node21</title>
<path fill="none" stroke="midnightblue" d="M1345.88,-68.91C1320.14,-57.91 1282.81,-41.94 1256.12,-30.53"/>
<polygon fill="midnightblue" stroke="midnightblue" points="1344.56,-72.15 1355.13,-72.87 1347.31,-65.72 1344.56,-72.15"/>
</g>
<!-- Node23 -->
<g id="node23" class="node">
<title>Node23</title>
<g id="a_node23"><a xlink:href="PauseScene_8cpp.html" target="_top" xlink:title=" ">
<polygon fill="none" stroke="black" points="842.82,-6 842.82,-25 985.82,-25 985.82,-6 842.82,-6"/>
<text text-anchor="middle" x="914.32" y="-13" font-family="Helvetica,sans-Serif" font-size="10.00">src/Scenes/PauseScene.cpp</text>
</a>
</g>
</g>
<!-- Node22&#45;&gt;Node23 -->
<g id="edge28" class="edge">
<title>Node22&#45;&gt;Node23</title>
<path fill="none" stroke="midnightblue" d="M885.79,-64.03C893.35,-51.45 903.21,-35.01 909.14,-25.13"/>
<polygon fill="midnightblue" stroke="midnightblue" points="882.72,-62.36 880.58,-72.73 888.72,-65.96 882.72,-62.36"/>
</g>
<!-- Node24 -->
<g id="node24" class="node">
<title>Node24</title>
<g id="a_node24"><a xlink:href="PauseSceneBehaviour_8cpp.html" target="_top" xlink:title=" ">
<polygon fill="none" stroke="black" points="675.82,-0.5 675.82,-30.5 824.82,-30.5 824.82,-0.5 675.82,-0.5"/>
<text text-anchor="start" x="683.82" y="-18.5" font-family="Helvetica,sans-Serif" font-size="10.00">src/Scripts/Menu/PauseScene</text>
<text text-anchor="middle" x="750.32" y="-7.5" font-family="Helvetica,sans-Serif" font-size="10.00">Behaviour.cpp</text>
</a>
</g>
</g>
<!-- Node22&#45;&gt;Node24 -->
<g id="edge29" class="edge">
<title>Node22&#45;&gt;Node24</title>
<path fill="none" stroke="midnightblue" d="M849.73,-68.19C828.7,-57.26 798.99,-41.81 777.53,-30.65"/>
<polygon fill="midnightblue" stroke="midnightblue" points="848.23,-71.36 858.72,-72.87 851.46,-65.15 848.23,-71.36"/>
</g>
<!-- Node25&#45;&gt;Node10 -->
<g id="edge31" class="edge">
<title>Node25&#45;&gt;Node10</title>
<path fill="none" stroke="midnightblue" d="M993.25,-71.8C980.58,-70.19 967.58,-68.54 955.32,-67 826.89,-50.83 794.33,-50.14 666.32,-31 654.45,-29.23 641.67,-27.1 629.78,-25.03"/>
<polygon fill="midnightblue" stroke="midnightblue" points="992.95,-75.29 1003.31,-73.08 993.83,-68.34 992.95,-75.29"/>
</g>
<!-- Node25&#45;&gt;Node21 -->
<g id="edge32" class="edge">
<title>Node25&#45;&gt;Node21</title>
<path fill="none" stroke="midnightblue" d="M1112.18,-63.41C1136.77,-53.03 1167.18,-40.2 1189.97,-30.58"/>
<polygon fill="midnightblue" stroke="midnightblue" points="1110.58,-60.28 1102.73,-67.4 1113.31,-66.73 1110.58,-60.28"/>
</g>
<!-- Node26&#45;&gt;Node15 -->
<g id="edge34" class="edge">
<title>Node26&#45;&gt;Node15</title>
<path fill="none" stroke="midnightblue" d="M1500.39,-68.95C1469.7,-56.08 1422.78,-36.4 1395.98,-25.17"/>
<polygon fill="midnightblue" stroke="midnightblue" points="1499.16,-72.23 1509.73,-72.87 1501.86,-65.77 1499.16,-72.23"/>
</g>
<!-- Node27 -->
<g id="node27" class="node">
<title>Node27</title>
<g id="a_node27"><a xlink:href="StatsScene_8cpp.html" target="_top" xlink:title=" ">
<polygon fill="none" stroke="black" points="1461.32,-6 1461.32,-25 1599.32,-25 1599.32,-6 1461.32,-6"/>
<text text-anchor="middle" x="1530.32" y="-13" font-family="Helvetica,sans-Serif" font-size="10.00">src/Scenes/StatsScene.cpp</text>
</a>
</g>
</g>
<!-- Node26&#45;&gt;Node27 -->
<g id="edge35" class="edge">
<title>Node26&#45;&gt;Node27</title>
<path fill="none" stroke="midnightblue" d="M1530.32,-62.54C1530.32,-50.17 1530.32,-34.62 1530.32,-25.13"/>
<polygon fill="midnightblue" stroke="midnightblue" points="1526.82,-62.73 1530.32,-72.73 1533.82,-62.73 1526.82,-62.73"/>
</g>
<!-- Node29 -->
<g id="node29" class="node">
<title>Node29</title>
<g id="a_node29"><a xlink:href="VictoryScene_8cpp.html" target="_top" xlink:title=" ">
<polygon fill="none" stroke="black" points="1769.82,-6 1769.82,-25 1914.82,-25 1914.82,-6 1769.82,-6"/>
<text text-anchor="middle" x="1842.32" y="-13" font-family="Helvetica,sans-Serif" font-size="10.00">src/Scenes/VictoryScene.cpp</text>
</a>
</g>
</g>
<!-- Node28&#45;&gt;Node29 -->
<g id="edge37" class="edge">
<title>Node28&#45;&gt;Node29</title>
<path fill="none" stroke="midnightblue" d="M1842.32,-62.54C1842.32,-50.17 1842.32,-34.62 1842.32,-25.13"/>
<polygon fill="midnightblue" stroke="midnightblue" points="1838.82,-62.73 1842.32,-72.73 1845.82,-62.73 1838.82,-62.73"/>
</g>
<!-- Node30 -->
<g id="node30" class="node">
<title>Node30</title>
<g id="a_node30"><a xlink:href="GameWonBehaviour_8cpp.html" target="_top" xlink:title=" ">
<polygon fill="none" stroke="black" points="1932.82,-0.5 1932.82,-30.5 2059.82,-30.5 2059.82,-0.5 1932.82,-0.5"/>
<text text-anchor="start" x="1940.82" y="-18.5" font-family="Helvetica,sans-Serif" font-size="10.00">src/Scripts/Common</text>
<text text-anchor="middle" x="1996.32" y="-7.5" font-family="Helvetica,sans-Serif" font-size="10.00">/GameWonBehaviour.cpp</text>
</a>
</g>
</g>
<!-- Node28&#45;&gt;Node30 -->
<g id="edge38" class="edge">
<title>Node28&#45;&gt;Node30</title>
<path fill="none" stroke="midnightblue" d="M1872.14,-68.91C1898.21,-57.91 1936.04,-41.94 1963.08,-30.53"/>
<polygon fill="midnightblue" stroke="midnightblue" points="1870.62,-65.76 1862.77,-72.87 1873.34,-72.2 1870.62,-65.76"/>
</g>
</g>
</svg>
        <g id="navigator" transform="translate(0 0)" fill="#404254">
                <rect fill="#f2f5e9" fill-opacity="0.5" stroke="#606060" stroke-width=".5" x="0" y="0" width="60" height="60"/>
                <use id="zoomplus" xlink:href="#zoomPlus" x="17" y="9" onmousedown="handleZoom(evt,'in')"/>
                <use id="zoomminus" xlink:href="#zoomMin" x="42" y="9" onmousedown="handleZoom(evt,'out')"/>
                <use id="reset" xlink:href="#resetDef" x="30" y="36" onmousedown="handleReset()"/>
                <g id="arrowUp" xlink:href="#dirArrow" transform="translate(30 24)" onmousedown="handlePan(0,-1)">
                  <use xlink:href="#rim" fill="#404040">
                        <set attributeName="fill" to="#808080" begin="arrowUp.mouseover" end="arrowUp.mouseout"/>
                  </use>
                  <path fill="none" stroke="white" stroke-width="1.5" d="M0,-3.0v7 M-2.5,-0.5L0,-3.0L2.5,-0.5"/>
                </g>
                <g id="arrowRight" xlink:href="#dirArrow" transform="rotate(90) translate(36 -43)" onmousedown="handlePan(1,0)">
                  <use xlink:href="#rim" fill="#404040">
                        <set attributeName="fill" to="#808080" begin="arrowRight.mouseover" end="arrowRight.mouseout"/>
                  </use>
                  <path fill="none" stroke="white" stroke-width="1.5" d="M0,-3.0v7 M-2.5,-0.5L0,-3.0L2.5,-0.5"/>
                </g>
                <g id="arrowDown" xlink:href="#dirArrow" transform="rotate(180) translate(-30 -48)" onmousedown="handlePan(0,1)">
                  <use xlink:href="#rim" fill="#404040">
                        <set attributeName="fill" to="#808080" begin="arrowDown.mouseover" end="arrowDown.mouseout"/>
                  </use>
                  <path fill="none" stroke="white" stroke-width="1.5" d="M0,-3.0v7 M-2.5,-0.5L0,-3.0L2.5,-0.5"/>
                </g>
                <g id="arrowLeft" xlink:href="#dirArrow" transform="rotate(270) translate(-36 17)" onmousedown="handlePan(-1,0)">
                  <use xlink:href="#rim" fill="#404040">
                        <set attributeName="fill" to="#808080" begin="arrowLeft.mouseover" end="arrowLeft.mouseout"/>
                  </use>
                  <path fill="none" stroke="white" stroke-width="1.5" d="M0,-3.0v7 M-2.5,-0.5L0,-3.0L2.5,-0.5"/>
                </g>
        </g>
        <svg viewBox="0 0 15 15" width="100%" height="30px" preserveAspectRatio="xMaxYMin meet">
         <g id="arrow_out" transform="scale(0.3 0.3)">
          <a xlink:href="BackgroundName_8hpp__dep__incl_org.svg" target="_base">
           <rect id="button" ry="5" rx="5" y="6" x="6" height="38" width="38"
                fill="#f2f5e9" fill-opacity="0.5" stroke="#606060" stroke-width="1.0"/>
           <path id="arrow"
             d="M 11.500037,31.436501 C 11.940474,20.09759 22.043105,11.32322 32.158766,21.979434 L 37.068811,17.246167 C 37.068811,17.246167 37.088388,32 37.088388,32 L 22.160133,31.978069 C 22.160133,31.978069 26.997745,27.140456 26.997745,27.140456 C 18.528582,18.264221 13.291696,25.230495 11.500037,31.436501 z"
             style="fill:#404040;"/>
          </a>
         </g>
        </svg>
</svg>
