<?xml version="1.0" encoding="UTF-8" standalone="no"?>
<!DOCTYPE svg PUBLIC "-//W3C//DTD SVG 1.1//EN"
 "http://www.w3.org/Graphics/SVG/1.1/DTD/svg11.dtd">
<!-- Generated by graphviz version 2.44.0 ()
 -->
<!-- Title: src/Scripts/Common/BulletBehaviour.cpp Pages: 1 -->
<svg width="956pt" height="431pt"
 viewBox="0.00 0.00 955.97 431.00" xmlns="http://www.w3.org/2000/svg" xmlns:xlink="http://www.w3.org/1999/xlink">
<g id="graph0" class="graph" transform="scale(1 1) rotate(0) translate(4 427)">
<title>src/Scripts/Common/BulletBehaviour.cpp</title>
<!-- Node1 -->
<g id="node1" class="node">
<title>Node1</title>
<g id="a_node1"><a xlink:title=" ">
<polygon fill="#bfbfbf" stroke="black" points="733.47,-392.5 733.47,-422.5 839.47,-422.5 839.47,-392.5 733.47,-392.5"/>
<text text-anchor="start" x="741.47" y="-410.5" font-family="Helvetica,sans-Serif" font-size="10.00">src/Scripts/Common</text>
<text text-anchor="middle" x="786.47" y="-399.5" font-family="Helvetica,sans-Serif" font-size="10.00">/BulletBehaviour.cpp</text>
</a>
</g>
</g>
<!-- Node2 -->
<g id="node2" class="node">
<title>Node2</title>
<g id="a_node2"><a xlink:href="BulletBehaviour_8hpp.html" target="_top" xlink:title=" ">
<polygon fill="none" stroke="black" points="417.97,-336.5 417.97,-355.5 520.97,-355.5 520.97,-336.5 417.97,-336.5"/>
<text text-anchor="middle" x="469.47" y="-343.5" font-family="Helvetica,sans-Serif" font-size="10.00">BulletBehaviour.hpp</text>
</a>
</g>
</g>
<!-- Node1&#45;&gt;Node2 -->
<g id="edge1" class="edge">
<title>Node1&#45;&gt;Node2</title>
<path fill="none" stroke="midnightblue" d="M733.41,-396.54C675.6,-385.69 583.53,-368.41 524.82,-357.39"/>
<polygon fill="midnightblue" stroke="midnightblue" points="525.46,-353.95 514.98,-355.54 524.17,-360.83 525.46,-353.95"/>
</g>
<!-- Node19 -->
<g id="node19" class="node">
<title>Node19</title>
<g id="a_node19"><a xlink:href="GameObjectUtil_8hpp.html" target="_top" xlink:title=" ">
<polygon fill="none" stroke="black" points="684.47,-224.5 684.47,-243.5 812.47,-243.5 812.47,-224.5 684.47,-224.5"/>
<text text-anchor="middle" x="748.47" y="-231.5" font-family="Helvetica,sans-Serif" font-size="10.00">Utils/GameObjectUtil.hpp</text>
</a>
</g>
</g>
<!-- Node1&#45;&gt;Node19 -->
<g id="edge33" class="edge">
<title>Node1&#45;&gt;Node19</title>
<path fill="none" stroke="midnightblue" d="M783.36,-392.47C776.55,-361.7 760.29,-288.33 752.62,-253.7"/>
<polygon fill="midnightblue" stroke="midnightblue" points="755.95,-252.57 750.37,-243.56 749.11,-254.08 755.95,-252.57"/>
</g>
<!-- Node20 -->
<g id="node20" class="node">
<title>Node20</title>
<g id="a_node20"><a xlink:href="PointUtil_8hpp.html" target="_top" xlink:title=" ">
<polygon fill="none" stroke="black" points="784.97,-280.5 784.97,-299.5 879.97,-299.5 879.97,-280.5 784.97,-280.5"/>
<text text-anchor="middle" x="832.47" y="-287.5" font-family="Helvetica,sans-Serif" font-size="10.00">Utils/PointUtil.hpp</text>
</a>
</g>
</g>
<!-- Node1&#45;&gt;Node20 -->
<g id="edge36" class="edge">
<title>Node1&#45;&gt;Node20</title>
<path fill="none" stroke="midnightblue" d="M789.08,-392.34C792.03,-377.83 797.49,-354.78 805.47,-336 809.57,-326.36 815.43,-316.3 820.65,-308.14"/>
<polygon fill="midnightblue" stroke="midnightblue" points="823.72,-309.85 826.33,-299.58 817.89,-305.97 823.72,-309.85"/>
</g>
<!-- Node21 -->
<g id="node21" class="node">
<title>Node21</title>
<g id="a_node21"><a xlink:href="Time_8hpp.html" target="_top" xlink:title=" ">
<polygon fill="none" stroke="black" points="814.47,-336.5 814.47,-355.5 870.47,-355.5 870.47,-336.5 814.47,-336.5"/>
<text text-anchor="middle" x="842.47" y="-343.5" font-family="Helvetica,sans-Serif" font-size="10.00">Time.hpp</text>
</a>
</g>
</g>
<!-- Node1&#45;&gt;Node21 -->
<g id="edge38" class="edge">
<title>Node1&#45;&gt;Node21</title>
<path fill="none" stroke="midnightblue" d="M799.74,-392.4C808.05,-383.58 818.77,-372.18 827.4,-363.02"/>
<polygon fill="midnightblue" stroke="midnightblue" points="830.02,-365.34 834.32,-355.66 824.92,-360.54 830.02,-365.34"/>
</g>
<!-- Node22 -->
<g id="node22" class="node">
<title>Node22</title>
<g id="a_node22"><a xlink:title=" ">
<polygon fill="none" stroke="#bfbfbf" points="888.97,-336.5 888.97,-355.5 947.97,-355.5 947.97,-336.5 888.97,-336.5"/>
<text text-anchor="middle" x="918.47" y="-343.5" font-family="Helvetica,sans-Serif" font-size="10.00">stdexcept</text>
</a>
</g>
</g>
<!-- Node1&#45;&gt;Node22 -->
<g id="edge39" class="edge">
<title>Node1&#45;&gt;Node22</title>
<path fill="none" stroke="midnightblue" d="M817.75,-392.4C839.7,-382.51 868.81,-369.38 890.09,-359.79"/>
<polygon fill="midnightblue" stroke="midnightblue" points="891.59,-362.96 899.26,-355.66 888.71,-356.58 891.59,-362.96"/>
</g>
<!-- Node3 -->
<g id="node3" class="node">
<title>Node3</title>
<g id="a_node3"><a xlink:href="BehaviourScript_8hpp.html" target="_top" xlink:title=" ">
<polygon fill="none" stroke="black" points="60.47,-168.5 60.47,-187.5 164.47,-187.5 164.47,-168.5 60.47,-168.5"/>
<text text-anchor="middle" x="112.47" y="-175.5" font-family="Helvetica,sans-Serif" font-size="10.00">BehaviourScript.hpp</text>
</a>
</g>
</g>
<!-- Node2&#45;&gt;Node3 -->
<g id="edge2" class="edge">
<title>Node2&#45;&gt;Node3</title>
<path fill="none" stroke="midnightblue" d="M417.9,-343.1C342.48,-339.38 206.9,-328.79 168.47,-300 135.08,-274.99 120.95,-225.21 115.51,-197.94"/>
<polygon fill="midnightblue" stroke="midnightblue" points="118.89,-197 113.68,-187.77 112,-198.23 118.89,-197"/>
</g>
<!-- Node7 -->
<g id="node7" class="node">
<title>Node7</title>
<g id="a_node7"><a xlink:href="Point_8hpp.html" target="_top" xlink:title=" ">
<polygon fill="none" stroke="black" points="637.97,-56.5 637.97,-75.5 694.97,-75.5 694.97,-56.5 637.97,-56.5"/>
<text text-anchor="middle" x="666.47" y="-63.5" font-family="Helvetica,sans-Serif" font-size="10.00">Point.hpp</text>
</a>
</g>
</g>
<!-- Node2&#45;&gt;Node7 -->
<g id="edge7" class="edge">
<title>Node2&#45;&gt;Node7</title>
<path fill="none" stroke="midnightblue" d="M484.75,-336.48C527.43,-311.67 647.69,-234.69 691.47,-132 698.33,-115.92 689.46,-97.26 680.44,-84.07"/>
<polygon fill="midnightblue" stroke="midnightblue" points="683.15,-81.84 674.37,-75.91 677.53,-86.02 683.15,-81.84"/>
</g>
<!-- Node8 -->
<g id="node8" class="node">
<title>Node8</title>
<g id="a_node8"><a xlink:href="RigidBody_8hpp.html" target="_top" xlink:title=" ">
<polygon fill="none" stroke="black" points="430.47,-112.5 430.47,-131.5 508.47,-131.5 508.47,-112.5 430.47,-112.5"/>
<text text-anchor="middle" x="469.47" y="-119.5" font-family="Helvetica,sans-Serif" font-size="10.00">RigidBody.hpp</text>
</a>
</g>
</g>
<!-- Node2&#45;&gt;Node8 -->
<g id="edge8" class="edge">
<title>Node2&#45;&gt;Node8</title>
<path fill="none" stroke="midnightblue" d="M469.47,-336.3C469.47,-303.63 469.47,-187.87 469.47,-141.96"/>
<polygon fill="midnightblue" stroke="midnightblue" points="472.97,-141.88 469.47,-131.88 465.97,-141.88 472.97,-141.88"/>
</g>
<!-- Node9 -->
<g id="node9" class="node">
<title>Node9</title>
<g id="a_node9"><a xlink:href="GameObject_8hpp.html" target="_top" xlink:title=" ">
<polygon fill="none" stroke="black" points="497.97,-168.5 497.97,-187.5 586.97,-187.5 586.97,-168.5 497.97,-168.5"/>
<text text-anchor="middle" x="542.47" y="-175.5" font-family="Helvetica,sans-Serif" font-size="10.00">GameObject.hpp</text>
</a>
</g>
</g>
<!-- Node2&#45;&gt;Node9 -->
<g id="edge11" class="edge">
<title>Node2&#45;&gt;Node9</title>
<path fill="none" stroke="midnightblue" d="M473.4,-336.08C484.94,-309.83 518.92,-232.55 534.5,-197.12"/>
<polygon fill="midnightblue" stroke="midnightblue" points="537.88,-198.13 538.7,-187.57 531.47,-195.31 537.88,-198.13"/>
</g>
<!-- Node13 -->
<g id="node13" class="node">
<title>Node13</title>
<g id="a_node13"><a xlink:href="BulletType_8hpp.html" target="_top" xlink:title=" ">
<polygon fill="none" stroke="black" points="313.47,-280.5 313.47,-299.5 441.47,-299.5 441.47,-280.5 313.47,-280.5"/>
<text text-anchor="middle" x="377.47" y="-287.5" font-family="Helvetica,sans-Serif" font-size="10.00">../../Enums/BulletType.hpp</text>
</a>
</g>
</g>
<!-- Node2&#45;&gt;Node13 -->
<g id="edge18" class="edge">
<title>Node2&#45;&gt;Node13</title>
<path fill="none" stroke="midnightblue" d="M454.69,-336.32C440.2,-327.82 417.9,-314.73 400.98,-304.8"/>
<polygon fill="midnightblue" stroke="midnightblue" points="402.61,-301.7 392.22,-299.65 399.07,-307.74 402.61,-301.7"/>
</g>
<!-- Node14 -->
<g id="node14" class="node">
<title>Node14</title>
<g id="a_node14"><a xlink:href="DamageBehaviour_8hpp.html" target="_top" xlink:title=" ">
<polygon fill="none" stroke="black" points="177.47,-280.5 177.47,-299.5 291.47,-299.5 291.47,-280.5 177.47,-280.5"/>
<text text-anchor="middle" x="234.47" y="-287.5" font-family="Helvetica,sans-Serif" font-size="10.00">DamageBehaviour.hpp</text>
</a>
</g>
</g>
<!-- Node2&#45;&gt;Node14 -->
<g id="edge19" class="edge">
<title>Node2&#45;&gt;Node14</title>
<path fill="none" stroke="midnightblue" d="M432.24,-336.44C391.41,-327.06 325.83,-311.99 281.49,-301.8"/>
<polygon fill="midnightblue" stroke="midnightblue" points="282.06,-298.34 271.53,-299.52 280.5,-305.17 282.06,-298.34"/>
</g>
<!-- Node4 -->
<g id="node4" class="node">
<title>Node4</title>
<g id="a_node4"><a xlink:href="Component_8hpp.html" target="_top" xlink:title=" ">
<polygon fill="none" stroke="black" points="76.47,-56.5 76.47,-75.5 160.47,-75.5 160.47,-56.5 76.47,-56.5"/>
<text text-anchor="middle" x="118.47" y="-63.5" font-family="Helvetica,sans-Serif" font-size="10.00">Component.hpp</text>
</a>
</g>
</g>
<!-- Node3&#45;&gt;Node4 -->
<g id="edge3" class="edge">
<title>Node3&#45;&gt;Node4</title>
<path fill="none" stroke="midnightblue" d="M112.94,-168.37C113.91,-150.62 116.14,-109.67 117.46,-85.6"/>
<polygon fill="midnightblue" stroke="midnightblue" points="120.95,-85.77 118,-75.59 113.96,-85.39 120.95,-85.77"/>
</g>
<!-- Node6 -->
<g id="node6" class="node">
<title>Node6</title>
<g id="a_node6"><a xlink:href="Collider_8hpp.html" target="_top" xlink:title=" ">
<polygon fill="none" stroke="black" points="14.97,-112.5 14.97,-131.5 81.97,-131.5 81.97,-112.5 14.97,-112.5"/>
<text text-anchor="middle" x="48.47" y="-119.5" font-family="Helvetica,sans-Serif" font-size="10.00">Collider.hpp</text>
</a>
</g>
</g>
<!-- Node3&#45;&gt;Node6 -->
<g id="edge5" class="edge">
<title>Node3&#45;&gt;Node6</title>
<path fill="none" stroke="midnightblue" d="M102.19,-168.32C92.64,-160.26 78.19,-148.08 66.69,-138.37"/>
<polygon fill="midnightblue" stroke="midnightblue" points="68.84,-135.61 58.94,-131.83 64.33,-140.96 68.84,-135.61"/>
</g>
<!-- Node5 -->
<g id="node5" class="node">
<title>Node5</title>
<g id="a_node5"><a xlink:title=" ">
<polygon fill="none" stroke="#bfbfbf" points="238.97,-0.5 238.97,-19.5 289.97,-19.5 289.97,-0.5 238.97,-0.5"/>
<text text-anchor="middle" x="264.47" y="-7.5" font-family="Helvetica,sans-Serif" font-size="10.00">memory</text>
</a>
</g>
</g>
<!-- Node4&#45;&gt;Node5 -->
<g id="edge4" class="edge">
<title>Node4&#45;&gt;Node5</title>
<path fill="none" stroke="midnightblue" d="M141.61,-56.44C165.95,-47.44 204.48,-33.19 231.89,-23.05"/>
<polygon fill="midnightblue" stroke="midnightblue" points="233.28,-26.27 241.45,-19.52 230.85,-19.7 233.28,-26.27"/>
</g>
<!-- Node6&#45;&gt;Node4 -->
<g id="edge6" class="edge">
<title>Node6&#45;&gt;Node4</title>
<path fill="none" stroke="midnightblue" d="M59.72,-112.32C70.27,-104.18 86.27,-91.84 98.91,-82.09"/>
<polygon fill="midnightblue" stroke="midnightblue" points="101.24,-84.71 107.02,-75.83 96.96,-79.17 101.24,-84.71"/>
</g>
<!-- Node8&#45;&gt;Node4 -->
<g id="edge9" class="edge">
<title>Node8&#45;&gt;Node4</title>
<path fill="none" stroke="midnightblue" d="M430.41,-114.26C425.72,-113.48 420.99,-112.71 416.47,-112 310.1,-95.22 280.7,-93.72 170.67,-76.15"/>
<polygon fill="midnightblue" stroke="midnightblue" points="170.91,-72.65 160.48,-74.52 169.8,-79.56 170.91,-72.65"/>
</g>
<!-- Node8&#45;&gt;Node7 -->
<g id="edge10" class="edge">
<title>Node8&#45;&gt;Node7</title>
<path fill="none" stroke="midnightblue" d="M500.69,-112.44C535.2,-102.98 590.82,-87.74 628,-77.55"/>
<polygon fill="midnightblue" stroke="midnightblue" points="629.24,-80.83 637.96,-74.82 627.39,-74.08 629.24,-80.83"/>
</g>
<!-- Node9&#45;&gt;Node4 -->
<g id="edge12" class="edge">
<title>Node9&#45;&gt;Node4</title>
<path fill="none" stroke="midnightblue" d="M519.7,-168.47C483.29,-155.06 409.56,-128.86 345.47,-112 313.19,-103.51 227.19,-87.08 170.79,-76.6"/>
<polygon fill="midnightblue" stroke="midnightblue" points="171.1,-73.1 160.63,-74.71 169.82,-79.98 171.1,-73.1"/>
</g>
<!-- Node9&#45;&gt;Node5 -->
<g id="edge17" class="edge">
<title>Node9&#45;&gt;Node5</title>
<path fill="none" stroke="midnightblue" d="M544.45,-168.44C547.03,-154.99 549.88,-128.72 537.47,-112 480.94,-35.81 360.51,-17.05 300.3,-12.46"/>
<polygon fill="midnightblue" stroke="midnightblue" points="300.35,-8.96 290.14,-11.78 299.88,-15.94 300.35,-8.96"/>
</g>
<!-- Node10 -->
<g id="node10" class="node">
<title>Node10</title>
<g id="a_node10"><a xlink:href="Transform_8hpp.html" target="_top" xlink:title=" ">
<polygon fill="none" stroke="black" points="602.97,-112.5 602.97,-131.5 681.97,-131.5 681.97,-112.5 602.97,-112.5"/>
<text text-anchor="middle" x="642.47" y="-119.5" font-family="Helvetica,sans-Serif" font-size="10.00">Transform.hpp</text>
</a>
</g>
</g>
<!-- Node9&#45;&gt;Node10 -->
<g id="edge13" class="edge">
<title>Node9&#45;&gt;Node10</title>
<path fill="none" stroke="midnightblue" d="M558.54,-168.32C574.43,-159.74 598.98,-146.49 617.43,-136.52"/>
<polygon fill="midnightblue" stroke="midnightblue" points="619.31,-139.49 626.44,-131.65 615.98,-133.33 619.31,-139.49"/>
</g>
<!-- Node11 -->
<g id="node11" class="node">
<title>Node11</title>
<g id="a_node11"><a xlink:title=" ">
<polygon fill="none" stroke="#bfbfbf" points="343.97,-56.5 343.97,-75.5 384.97,-75.5 384.97,-56.5 343.97,-56.5"/>
<text text-anchor="middle" x="364.47" y="-63.5" font-family="Helvetica,sans-Serif" font-size="10.00">string</text>
</a>
</g>
</g>
<!-- Node9&#45;&gt;Node11 -->
<g id="edge15" class="edge">
<title>Node9&#45;&gt;Node11</title>
<path fill="none" stroke="midnightblue" d="M541.59,-168.5C539.71,-154.65 534.01,-127.24 517.47,-112 483.67,-80.84 429.36,-71.17 395.36,-68.22"/>
<polygon fill="midnightblue" stroke="midnightblue" points="395.31,-64.71 385.08,-67.48 394.81,-71.69 395.31,-64.71"/>
</g>
<!-- Node12 -->
<g id="node12" class="node">
<title>Node12</title>
<g id="a_node12"><a xlink:title=" ">
<polygon fill="none" stroke="#bfbfbf" points="292.47,-112.5 292.47,-131.5 336.47,-131.5 336.47,-112.5 292.47,-112.5"/>
<text text-anchor="middle" x="314.47" y="-119.5" font-family="Helvetica,sans-Serif" font-size="10.00">vector</text>
</a>
</g>
</g>
<!-- Node9&#45;&gt;Node12 -->
<g id="edge16" class="edge">
<title>Node9&#45;&gt;Node12</title>
<path fill="none" stroke="midnightblue" d="M506.34,-168.44C462.36,-158.03 388.74,-140.59 346.63,-130.62"/>
<polygon fill="midnightblue" stroke="midnightblue" points="347.18,-127.15 336.64,-128.25 345.57,-133.96 347.18,-127.15"/>
</g>
<!-- Node10&#45;&gt;Node7 -->
<g id="edge14" class="edge">
<title>Node10&#45;&gt;Node7</title>
<path fill="none" stroke="midnightblue" d="M646.43,-112.08C649.68,-104.77 654.39,-94.18 658.43,-85.1"/>
<polygon fill="midnightblue" stroke="midnightblue" points="661.72,-86.31 662.58,-75.75 655.32,-83.47 661.72,-86.31"/>
</g>
<!-- Node14&#45;&gt;Node3 -->
<g id="edge20" class="edge">
<title>Node14&#45;&gt;Node3</title>
<path fill="none" stroke="midnightblue" d="M220.04,-280.45C206.36,-272.02 185.55,-258.34 169.47,-244 152.75,-229.09 136.14,-209.46 125.21,-195.69"/>
<polygon fill="midnightblue" stroke="midnightblue" points="127.81,-193.33 118.9,-187.6 122.28,-197.63 127.81,-193.33"/>
</g>
<!-- Node14&#45;&gt;Node11 -->
<g id="edge32" class="edge">
<title>Node14&#45;&gt;Node11</title>
<path fill="none" stroke="midnightblue" d="M249.99,-280.39C263.24,-272.4 282.07,-259.42 294.47,-244 334.1,-194.72 353.6,-120.21 360.92,-85.73"/>
<polygon fill="midnightblue" stroke="midnightblue" points="364.4,-86.16 362.94,-75.66 357.54,-84.77 364.4,-86.16"/>
</g>
<!-- Node15 -->
<g id="node15" class="node">
<title>Node15</title>
<g id="a_node15"><a xlink:href="HealthBehaviour_8hpp.html" target="_top" xlink:title=" ">
<polygon fill="none" stroke="black" points="178.97,-224.5 178.97,-243.5 285.97,-243.5 285.97,-224.5 178.97,-224.5"/>
<text text-anchor="middle" x="232.47" y="-231.5" font-family="Helvetica,sans-Serif" font-size="10.00">HealthBehaviour.hpp</text>
</a>
</g>
</g>
<!-- Node14&#45;&gt;Node15 -->
<g id="edge21" class="edge">
<title>Node14&#45;&gt;Node15</title>
<path fill="none" stroke="midnightblue" d="M234.14,-280.08C233.88,-273.01 233.5,-262.86 233.17,-253.99"/>
<polygon fill="midnightblue" stroke="midnightblue" points="236.66,-253.61 232.8,-243.75 229.67,-253.87 236.66,-253.61"/>
</g>
<!-- Node15&#45;&gt;Node3 -->
<g id="edge22" class="edge">
<title>Node15&#45;&gt;Node3</title>
<path fill="none" stroke="midnightblue" d="M213.46,-224.44C193.88,-215.64 163.16,-201.81 140.74,-191.72"/>
<polygon fill="midnightblue" stroke="midnightblue" points="141.95,-188.43 131.4,-187.52 139.08,-194.81 141.95,-188.43"/>
</g>
<!-- Node15&#45;&gt;Node5 -->
<g id="edge23" class="edge">
<title>Node15&#45;&gt;Node5</title>
<path fill="none" stroke="midnightblue" d="M178.9,-227.22C101.83,-216.26 -27.62,-186.48 5.47,-112 42.61,-28.4 166.73,-13.23 228.67,-10.98"/>
<polygon fill="midnightblue" stroke="midnightblue" points="228.87,-14.48 238.77,-10.71 228.68,-7.48 228.87,-14.48"/>
</g>
<!-- Node16 -->
<g id="node16" class="node">
<title>Node16</title>
<g id="a_node16"><a xlink:href="Animator_8hpp.html" target="_top" xlink:title=" ">
<polygon fill="none" stroke="black" points="195.47,-168.5 195.47,-187.5 269.47,-187.5 269.47,-168.5 195.47,-168.5"/>
<text text-anchor="middle" x="232.47" y="-175.5" font-family="Helvetica,sans-Serif" font-size="10.00">Animator.hpp</text>
</a>
</g>
</g>
<!-- Node15&#45;&gt;Node16 -->
<g id="edge24" class="edge">
<title>Node15&#45;&gt;Node16</title>
<path fill="none" stroke="midnightblue" d="M232.47,-224.08C232.47,-217.01 232.47,-206.86 232.47,-197.99"/>
<polygon fill="midnightblue" stroke="midnightblue" points="235.97,-197.75 232.47,-187.75 228.97,-197.75 235.97,-197.75"/>
</g>
<!-- Node16&#45;&gt;Node4 -->
<g id="edge25" class="edge">
<title>Node16&#45;&gt;Node4</title>
<path fill="none" stroke="midnightblue" d="M217.27,-168.39C203.41,-160.12 182.82,-146.74 167.47,-132 152.4,-117.52 138.39,-98.08 129.24,-84.24"/>
<polygon fill="midnightblue" stroke="midnightblue" points="132.09,-82.2 123.74,-75.69 126.21,-85.99 132.09,-82.2"/>
</g>
<!-- Node16&#45;&gt;Node5 -->
<g id="edge31" class="edge">
<title>Node16&#45;&gt;Node5</title>
<path fill="none" stroke="midnightblue" d="M235.29,-168.46C238.17,-159.46 242.62,-144.86 245.47,-132 253.43,-96.14 259.3,-53.59 262.28,-29.7"/>
<polygon fill="midnightblue" stroke="midnightblue" points="265.77,-29.93 263.5,-19.58 258.82,-29.08 265.77,-29.93"/>
</g>
<!-- Node16&#45;&gt;Node12 -->
<g id="edge30" class="edge">
<title>Node16&#45;&gt;Node12</title>
<path fill="none" stroke="midnightblue" d="M245.65,-168.32C258.32,-159.98 277.7,-147.21 292.68,-137.35"/>
<polygon fill="midnightblue" stroke="midnightblue" points="294.9,-140.08 301.33,-131.65 291.05,-134.23 294.9,-140.08"/>
</g>
<!-- Node17 -->
<g id="node17" class="node">
<title>Node17</title>
<g id="a_node17"><a xlink:href="Sprite_8hpp.html" target="_top" xlink:title=" ">
<polygon fill="none" stroke="black" points="176.47,-112.5 176.47,-131.5 236.47,-131.5 236.47,-112.5 176.47,-112.5"/>
<text text-anchor="middle" x="206.47" y="-119.5" font-family="Helvetica,sans-Serif" font-size="10.00">Sprite.hpp</text>
</a>
</g>
</g>
<!-- Node16&#45;&gt;Node17 -->
<g id="edge26" class="edge">
<title>Node16&#45;&gt;Node17</title>
<path fill="none" stroke="midnightblue" d="M228.18,-168.08C224.62,-160.69 219.45,-149.95 215.05,-140.81"/>
<polygon fill="midnightblue" stroke="midnightblue" points="218.18,-139.24 210.69,-131.75 211.87,-142.28 218.18,-139.24"/>
</g>
<!-- Node17&#45;&gt;Node4 -->
<g id="edge27" class="edge">
<title>Node17&#45;&gt;Node4</title>
<path fill="none" stroke="midnightblue" d="M192.33,-112.32C178.61,-103.9 157.54,-90.97 141.41,-81.07"/>
<polygon fill="midnightblue" stroke="midnightblue" points="142.93,-77.9 132.58,-75.65 139.27,-83.87 142.93,-77.9"/>
</g>
<!-- Node17&#45;&gt;Node11 -->
<g id="edge29" class="edge">
<title>Node17&#45;&gt;Node11</title>
<path fill="none" stroke="midnightblue" d="M231.51,-112.44C259.34,-102.93 304.29,-87.57 334.1,-77.38"/>
<polygon fill="midnightblue" stroke="midnightblue" points="335.26,-80.68 343.59,-74.14 333,-74.06 335.26,-80.68"/>
</g>
<!-- Node18 -->
<g id="node18" class="node">
<title>Node18</title>
<g id="a_node18"><a xlink:href="Color_8hpp.html" target="_top" xlink:title=" ">
<polygon fill="none" stroke="black" points="178.97,-56.5 178.97,-75.5 235.97,-75.5 235.97,-56.5 178.97,-56.5"/>
<text text-anchor="middle" x="207.47" y="-63.5" font-family="Helvetica,sans-Serif" font-size="10.00">Color.hpp</text>
</a>
</g>
</g>
<!-- Node17&#45;&gt;Node18 -->
<g id="edge28" class="edge">
<title>Node17&#45;&gt;Node18</title>
<path fill="none" stroke="midnightblue" d="M206.64,-112.08C206.77,-105.01 206.96,-94.86 207.12,-85.99"/>
<polygon fill="midnightblue" stroke="midnightblue" points="210.62,-85.81 207.31,-75.75 203.62,-85.68 210.62,-85.81"/>
</g>
<!-- Node19&#45;&gt;Node5 -->
<g id="edge34" class="edge">
<title>Node19&#45;&gt;Node5</title>
<path fill="none" stroke="midnightblue" d="M749.53,-224.48C752.62,-195.19 758.3,-98.2 704.47,-56 672.88,-31.23 399.27,-16.9 300.14,-12.48"/>
<polygon fill="midnightblue" stroke="midnightblue" points="300.16,-8.98 290.02,-12.04 299.86,-15.97 300.16,-8.98"/>
</g>
<!-- Node19&#45;&gt;Node9 -->
<g id="edge35" class="edge">
<title>Node19&#45;&gt;Node9</title>
<path fill="none" stroke="midnightblue" d="M715.83,-224.44C680.42,-215.16 623.76,-200.31 584.92,-190.13"/>
<polygon fill="midnightblue" stroke="midnightblue" points="585.52,-186.67 574.96,-187.52 583.75,-193.44 585.52,-186.67"/>
</g>
<!-- Node20&#45;&gt;Node7 -->
<g id="edge37" class="edge">
<title>Node20&#45;&gt;Node7</title>
<path fill="none" stroke="midnightblue" d="M832.46,-280.14C832.13,-267.2 830.26,-242.63 821.47,-224 791.17,-159.76 723.45,-106.21 688.41,-81.57"/>
<polygon fill="midnightblue" stroke="midnightblue" points="690.07,-78.46 679.85,-75.67 686.09,-84.23 690.07,-78.46"/>
</g>
</g>
</svg>
