<?xml version="1.0" encoding="UTF-8" standalone="no"?>
<!DOCTYPE svg PUBLIC "-//W3C//DTD SVG 1.1//EN"
 "http://www.w3.org/Graphics/SVG/1.1/DTD/svg11.dtd">
<!-- Generated by graphviz version 2.44.0 ()
 -->
<!-- Title: libs/spic&#45;engine/includes/spic&#45;api&#45;headers/Button.hpp Pages: 1 -->
<svg width="3109pt" height="173pt"
 viewBox="0.00 0.00 3109.00 173.00" xmlns="http://www.w3.org/2000/svg" xmlns:xlink="http://www.w3.org/1999/xlink">
<g id="graph0" class="graph" transform="scale(1 1) rotate(0) translate(4 169)">
<title>libs/spic&#45;engine/includes/spic&#45;api&#45;headers/Button.hpp</title>
<!-- Node1 -->
<g id="node1" class="node">
<title>Node1</title>
<g id="a_node1"><a xlink:title=" ">
<polygon fill="#bfbfbf" stroke="black" points="2083,-134.5 2083,-164.5 2223,-164.5 2223,-134.5 2083,-134.5"/>
<text text-anchor="start" x="2091" y="-152.5" font-family="Helvetica,sans-Serif" font-size="10.00">libs/spic&#45;engine/includes</text>
<text text-anchor="middle" x="2153" y="-141.5" font-family="Helvetica,sans-Serif" font-size="10.00">/spic&#45;api&#45;headers/Button.hpp</text>
</a>
</g>
</g>
<!-- Node2 -->
<g id="node2" class="node">
<title>Node2</title>
<g id="a_node2"><a xlink:href="LevelController_8hpp.html" target="_top" xlink:title=" ">
<polygon fill="none" stroke="black" points="2152,-73 2152,-92 2318,-92 2318,-73 2152,-73"/>
<text text-anchor="middle" x="2235" y="-80" font-family="Helvetica,sans-Serif" font-size="10.00">src/Controllers/LevelController.hpp</text>
</a>
</g>
</g>
<!-- Node1&#45;&gt;Node2 -->
<g id="edge1" class="edge">
<title>Node1&#45;&gt;Node2</title>
<path fill="none" stroke="midnightblue" d="M2178.85,-128.01C2194.07,-115.94 2212.54,-101.3 2224.03,-92.19"/>
<polygon fill="midnightblue" stroke="midnightblue" points="2176.46,-125.44 2170.79,-134.4 2180.8,-130.93 2176.46,-125.44"/>
</g>
<!-- Node9 -->
<g id="node9" class="node">
<title>Node9</title>
<g id="a_node9"><a xlink:href="ButtonPrefabFactory_8hpp.html" target="_top" xlink:title=" ">
<polygon fill="none" stroke="black" points="968,-67.5 968,-97.5 1102,-97.5 1102,-67.5 968,-67.5"/>
<text text-anchor="start" x="976" y="-85.5" font-family="Helvetica,sans-Serif" font-size="10.00">src/Factories/ButtonPrefab</text>
<text text-anchor="middle" x="1035" y="-74.5" font-family="Helvetica,sans-Serif" font-size="10.00">Factory.hpp</text>
</a>
</g>
</g>
<!-- Node1&#45;&gt;Node9 -->
<g id="edge8" class="edge">
<title>Node1&#45;&gt;Node9</title>
<path fill="none" stroke="midnightblue" d="M2072.58,-143.82C1862.02,-131.58 1297.37,-98.75 1102.35,-87.42"/>
<polygon fill="midnightblue" stroke="midnightblue" points="2072.45,-147.32 2082.64,-144.41 2072.86,-140.33 2072.45,-147.32"/>
</g>
<!-- Node21 -->
<g id="node21" class="node">
<title>Node21</title>
<g id="a_node21"><a xlink:href="LevelScene_8hpp.html" target="_top" xlink:title=" ">
<polygon fill="none" stroke="black" points="1776.5,-73 1776.5,-92 1915.5,-92 1915.5,-73 1776.5,-73"/>
<text text-anchor="middle" x="1846" y="-80" font-family="Helvetica,sans-Serif" font-size="10.00">src/Scenes/LevelScene.hpp</text>
</a>
</g>
</g>
<!-- Node1&#45;&gt;Node21 -->
<g id="edge21" class="edge">
<title>Node1&#45;&gt;Node21</title>
<path fill="none" stroke="midnightblue" d="M2076.89,-132.39C2016.54,-119.61 1934.58,-102.25 1886.28,-92.03"/>
<polygon fill="midnightblue" stroke="midnightblue" points="2076.26,-135.83 2086.76,-134.48 2077.71,-128.98 2076.26,-135.83"/>
</g>
<!-- Node22 -->
<g id="node22" class="node">
<title>Node22</title>
<g id="a_node22"><a xlink:href="Button_8cpp.html" target="_top" xlink:title=" ">
<polygon fill="none" stroke="black" points="2807.5,-0.5 2807.5,-30.5 2908.5,-30.5 2908.5,-0.5 2807.5,-0.5"/>
<text text-anchor="start" x="2815.5" y="-18.5" font-family="Helvetica,sans-Serif" font-size="10.00">libs/spic&#45;engine/src</text>
<text text-anchor="middle" x="2858" y="-7.5" font-family="Helvetica,sans-Serif" font-size="10.00">/Api/Button.cpp</text>
</a>
</g>
</g>
<!-- Node1&#45;&gt;Node22 -->
<g id="edge24" class="edge">
<title>Node1&#45;&gt;Node22</title>
<path fill="none" stroke="midnightblue" d="M2233.44,-135.36C2355.77,-115.03 2595.73,-73.83 2798,-31 2801.04,-30.36 2804.16,-29.67 2807.31,-28.97"/>
<polygon fill="midnightblue" stroke="midnightblue" points="2232.7,-131.93 2223.41,-137.02 2233.85,-138.84 2232.7,-131.93"/>
</g>
<!-- Node23 -->
<g id="node23" class="node">
<title>Node23</title>
<g id="a_node23"><a xlink:href="ButtonMouseListener_8hpp.html" target="_top" xlink:title=" ">
<polygon fill="none" stroke="black" points="2771,-67.5 2771,-97.5 2945,-97.5 2945,-67.5 2771,-67.5"/>
<text text-anchor="start" x="2779" y="-85.5" font-family="Helvetica,sans-Serif" font-size="10.00">libs/spic&#45;engine/src</text>
<text text-anchor="middle" x="2858" y="-74.5" font-family="Helvetica,sans-Serif" font-size="10.00">/Listeners/ButtonMouseListener.hpp</text>
</a>
</g>
</g>
<!-- Node1&#45;&gt;Node23 -->
<g id="edge25" class="edge">
<title>Node1&#45;&gt;Node23</title>
<path fill="none" stroke="midnightblue" d="M2233.33,-141.09C2366.79,-128.79 2633.11,-104.23 2770.91,-91.53"/>
<polygon fill="midnightblue" stroke="midnightblue" points="2232.81,-137.63 2223.18,-142.03 2233.45,-144.6 2232.81,-137.63"/>
</g>
<!-- Node25 -->
<g id="node25" class="node">
<title>Node25</title>
<g id="a_node25"><a xlink:href="Api_8hpp.html" target="_top" xlink:title=" ">
<polygon fill="none" stroke="black" points="1934,-67.5 1934,-97.5 2060,-97.5 2060,-67.5 1934,-67.5"/>
<text text-anchor="start" x="1942" y="-85.5" font-family="Helvetica,sans-Serif" font-size="10.00">libs/spic&#45;engine/includes</text>
<text text-anchor="middle" x="1997" y="-74.5" font-family="Helvetica,sans-Serif" font-size="10.00">/spic&#45;api&#45;headers/Api.hpp</text>
</a>
</g>
</g>
<!-- Node1&#45;&gt;Node25 -->
<g id="edge28" class="edge">
<title>Node1&#45;&gt;Node25</title>
<path fill="none" stroke="midnightblue" d="M2109.91,-130.54C2084.94,-120.14 2053.97,-107.24 2030.78,-97.58"/>
<polygon fill="midnightblue" stroke="midnightblue" points="2108.57,-133.78 2119.15,-134.4 2111.27,-127.32 2108.57,-133.78"/>
</g>
<!-- Node3 -->
<g id="node3" class="node">
<title>Node3</title>
<g id="a_node3"><a xlink:href="LevelController_8cpp.html" target="_top" xlink:title=" ">
<polygon fill="none" stroke="black" points="1840,-6 1840,-25 2006,-25 2006,-6 1840,-6"/>
<text text-anchor="middle" x="1923" y="-13" font-family="Helvetica,sans-Serif" font-size="10.00">src/Controllers/LevelController.cpp</text>
</a>
</g>
</g>
<!-- Node2&#45;&gt;Node3 -->
<g id="edge2" class="edge">
<title>Node2&#45;&gt;Node3</title>
<path fill="none" stroke="midnightblue" d="M2184.03,-70.88C2122.68,-58.1 2020.83,-36.88 1964.2,-25.08"/>
<polygon fill="midnightblue" stroke="midnightblue" points="2183.39,-74.32 2193.89,-72.94 2184.81,-67.47 2183.39,-74.32"/>
</g>
<!-- Node4 -->
<g id="node4" class="node">
<title>Node4</title>
<g id="a_node4"><a xlink:href="LevelScene_8cpp.html" target="_top" xlink:title=" ">
<polygon fill="none" stroke="black" points="2024.5,-6 2024.5,-25 2163.5,-25 2163.5,-6 2024.5,-6"/>
<text text-anchor="middle" x="2094" y="-13" font-family="Helvetica,sans-Serif" font-size="10.00">src/Scenes/LevelScene.cpp</text>
</a>
</g>
</g>
<!-- Node2&#45;&gt;Node4 -->
<g id="edge3" class="edge">
<title>Node2&#45;&gt;Node4</title>
<path fill="none" stroke="midnightblue" d="M2207.04,-68.61C2179.12,-55.74 2136.96,-36.31 2112.8,-25.17"/>
<polygon fill="midnightblue" stroke="midnightblue" points="2205.73,-71.86 2216.28,-72.87 2208.66,-65.5 2205.73,-71.86"/>
</g>
<!-- Node5 -->
<g id="node5" class="node">
<title>Node5</title>
<g id="a_node5"><a xlink:href="CheatManager_8cpp.html" target="_top" xlink:title=" ">
<polygon fill="none" stroke="black" points="2182,-0.5 2182,-30.5 2288,-30.5 2288,-0.5 2182,-0.5"/>
<text text-anchor="start" x="2190" y="-18.5" font-family="Helvetica,sans-Serif" font-size="10.00">src/Scripts/Common</text>
<text text-anchor="middle" x="2235" y="-7.5" font-family="Helvetica,sans-Serif" font-size="10.00">/CheatManager.cpp</text>
</a>
</g>
</g>
<!-- Node2&#45;&gt;Node5 -->
<g id="edge4" class="edge">
<title>Node2&#45;&gt;Node5</title>
<path fill="none" stroke="midnightblue" d="M2235,-62.41C2235,-52.22 2235,-39.9 2235,-30.59"/>
<polygon fill="midnightblue" stroke="midnightblue" points="2231.5,-62.73 2235,-72.73 2238.5,-62.73 2231.5,-62.73"/>
</g>
<!-- Node6 -->
<g id="node6" class="node">
<title>Node6</title>
<g id="a_node6"><a xlink:href="EnemyMovementBehaviour_8cpp.html" target="_top" xlink:title=" ">
<polygon fill="none" stroke="black" points="2306,-0.5 2306,-30.5 2462,-30.5 2462,-0.5 2306,-0.5"/>
<text text-anchor="start" x="2314" y="-18.5" font-family="Helvetica,sans-Serif" font-size="10.00">src/Scripts/Enemies</text>
<text text-anchor="middle" x="2384" y="-7.5" font-family="Helvetica,sans-Serif" font-size="10.00">/EnemyMovementBehaviour.cpp</text>
</a>
</g>
</g>
<!-- Node2&#45;&gt;Node6 -->
<g id="edge5" class="edge">
<title>Node2&#45;&gt;Node6</title>
<path fill="none" stroke="midnightblue" d="M2264.19,-68.77C2289.41,-57.77 2325.79,-41.89 2351.84,-30.53"/>
<polygon fill="midnightblue" stroke="midnightblue" points="2262.55,-65.66 2254.79,-72.87 2265.35,-72.08 2262.55,-65.66"/>
</g>
<!-- Node7 -->
<g id="node7" class="node">
<title>Node7</title>
<g id="a_node7"><a xlink:href="EnemyTroopTruckBehaviour_8cpp.html" target="_top" xlink:title=" ">
<polygon fill="none" stroke="black" points="2480,-0.5 2480,-30.5 2640,-30.5 2640,-0.5 2480,-0.5"/>
<text text-anchor="start" x="2488" y="-18.5" font-family="Helvetica,sans-Serif" font-size="10.00">src/Scripts/Enemies</text>
<text text-anchor="middle" x="2560" y="-7.5" font-family="Helvetica,sans-Serif" font-size="10.00">/EnemyTroopTruckBehaviour.cpp</text>
</a>
</g>
</g>
<!-- Node2&#45;&gt;Node7 -->
<g id="edge6" class="edge">
<title>Node2&#45;&gt;Node7</title>
<path fill="none" stroke="midnightblue" d="M2287.7,-70.96C2342.62,-59.98 2429,-42.7 2489.7,-30.56"/>
<polygon fill="midnightblue" stroke="midnightblue" points="2286.94,-67.54 2277.82,-72.94 2288.31,-74.41 2286.94,-67.54"/>
</g>
<!-- Node8 -->
<g id="node8" class="node">
<title>Node8</title>
<g id="a_node8"><a xlink:href="UserAttackBehaviour_8cpp.html" target="_top" xlink:title=" ">
<polygon fill="none" stroke="black" points="2658.5,-0.5 2658.5,-30.5 2789.5,-30.5 2789.5,-0.5 2658.5,-0.5"/>
<text text-anchor="start" x="2666.5" y="-18.5" font-family="Helvetica,sans-Serif" font-size="10.00">src/Scripts/Heroes</text>
<text text-anchor="middle" x="2724" y="-7.5" font-family="Helvetica,sans-Serif" font-size="10.00">/UserAttackBehaviour.cpp</text>
</a>
</g>
</g>
<!-- Node2&#45;&gt;Node8 -->
<g id="edge7" class="edge">
<title>Node2&#45;&gt;Node8</title>
<path fill="none" stroke="midnightblue" d="M2328.14,-72.01C2412.22,-63 2539.2,-48.29 2649,-31 2652.01,-30.53 2655.09,-30.02 2658.2,-29.49"/>
<polygon fill="midnightblue" stroke="midnightblue" points="2327.68,-68.54 2318.1,-73.08 2328.42,-75.5 2327.68,-68.54"/>
</g>
<!-- Node9&#45;&gt;Node3 -->
<g id="edge9" class="edge">
<title>Node9&#45;&gt;Node3</title>
<path fill="none" stroke="midnightblue" d="M1112.39,-78.98C1254.9,-73.81 1568.32,-59.97 1831,-31 1845.14,-29.44 1860.43,-27.24 1874.41,-25.02"/>
<polygon fill="midnightblue" stroke="midnightblue" points="1111.88,-75.5 1102.01,-79.35 1112.13,-82.49 1111.88,-75.5"/>
</g>
<!-- Node10 -->
<g id="node10" class="node">
<title>Node10</title>
<g id="a_node10"><a xlink:href="ButtonPrefabFactory_8cpp.html" target="_top" xlink:title=" ">
<polygon fill="none" stroke="black" points="0,-0.5 0,-30.5 134,-30.5 134,-0.5 0,-0.5"/>
<text text-anchor="start" x="8" y="-18.5" font-family="Helvetica,sans-Serif" font-size="10.00">src/Factories/ButtonPrefab</text>
<text text-anchor="middle" x="67" y="-7.5" font-family="Helvetica,sans-Serif" font-size="10.00">Factory.cpp</text>
</a>
</g>
</g>
<!-- Node9&#45;&gt;Node10 -->
<g id="edge10" class="edge">
<title>Node9&#45;&gt;Node10</title>
<path fill="none" stroke="midnightblue" d="M957.5,-80.55C802.33,-77.88 442.66,-67.9 143,-31 140.07,-30.64 137.08,-30.23 134.06,-29.79"/>
<polygon fill="midnightblue" stroke="midnightblue" points="957.81,-84.05 967.87,-80.72 957.93,-77.05 957.81,-84.05"/>
</g>
<!-- Node11 -->
<g id="node11" class="node">
<title>Node11</title>
<g id="a_node11"><a xlink:href="CreditScene_8cpp.html" target="_top" xlink:title=" ">
<polygon fill="none" stroke="black" points="152,-6 152,-25 292,-25 292,-6 152,-6"/>
<text text-anchor="middle" x="222" y="-13" font-family="Helvetica,sans-Serif" font-size="10.00">src/Scenes/CreditScene.cpp</text>
</a>
</g>
</g>
<!-- Node9&#45;&gt;Node11 -->
<g id="edge11" class="edge">
<title>Node9&#45;&gt;Node11</title>
<path fill="none" stroke="midnightblue" d="M957.79,-79.05C823.73,-74.17 539.39,-60.98 301,-31 288.82,-29.47 275.69,-27.28 263.68,-25.06"/>
<polygon fill="midnightblue" stroke="midnightblue" points="957.84,-82.56 967.96,-79.42 958.09,-75.56 957.84,-82.56"/>
</g>
<!-- Node12 -->
<g id="node12" class="node">
<title>Node12</title>
<g id="a_node12"><a xlink:href="GameOverScene_8cpp.html" target="_top" xlink:title=" ">
<polygon fill="none" stroke="black" points="310,-6 310,-25 472,-25 472,-6 310,-6"/>
<text text-anchor="middle" x="391" y="-13" font-family="Helvetica,sans-Serif" font-size="10.00">src/Scenes/GameOverScene.cpp</text>
</a>
</g>
</g>
<!-- Node9&#45;&gt;Node12 -->
<g id="edge12" class="edge">
<title>Node9&#45;&gt;Node12</title>
<path fill="none" stroke="midnightblue" d="M957.81,-76.15C850.6,-68.34 650.64,-52.37 481,-31 467.65,-29.32 453.25,-27.16 439.96,-25.02"/>
<polygon fill="midnightblue" stroke="midnightblue" points="957.67,-79.65 967.9,-76.88 958.18,-72.67 957.67,-79.65"/>
</g>
<!-- Node13 -->
<g id="node13" class="node">
<title>Node13</title>
<g id="a_node13"><a xlink:href="HelpScene_8cpp.html" target="_top" xlink:title=" ">
<polygon fill="none" stroke="black" points="490.5,-6 490.5,-25 625.5,-25 625.5,-6 490.5,-6"/>
<text text-anchor="middle" x="558" y="-13" font-family="Helvetica,sans-Serif" font-size="10.00">src/Scenes/HelpScene.cpp</text>
</a>
</g>
</g>
<!-- Node9&#45;&gt;Node13 -->
<g id="edge13" class="edge">
<title>Node9&#45;&gt;Node13</title>
<path fill="none" stroke="midnightblue" d="M957.66,-73.23C876.76,-64.23 746.16,-48.74 634,-31 622.99,-29.26 611.13,-27.12 600.13,-25.03"/>
<polygon fill="midnightblue" stroke="midnightblue" points="957.44,-76.73 967.77,-74.35 958.21,-69.77 957.44,-76.73"/>
</g>
<!-- Node14 -->
<g id="node14" class="node">
<title>Node14</title>
<g id="a_node14"><a xlink:href="LevelSelectionScene_8cpp.html" target="_top" xlink:title=" ">
<polygon fill="none" stroke="black" points="1598,-0.5 1598,-30.5 1732,-30.5 1732,-0.5 1598,-0.5"/>
<text text-anchor="start" x="1606" y="-18.5" font-family="Helvetica,sans-Serif" font-size="10.00">src/Scenes/LevelSelection</text>
<text text-anchor="middle" x="1665" y="-7.5" font-family="Helvetica,sans-Serif" font-size="10.00">Scene.cpp</text>
</a>
</g>
</g>
<!-- Node9&#45;&gt;Node14 -->
<g id="edge14" class="edge">
<title>Node9&#45;&gt;Node14</title>
<path fill="none" stroke="midnightblue" d="M1112.13,-76.78C1219.25,-69.7 1418.96,-54.58 1588,-31 1591.23,-30.55 1594.54,-30.06 1597.87,-29.53"/>
<polygon fill="midnightblue" stroke="midnightblue" points="1111.81,-73.29 1102.06,-77.44 1112.27,-80.28 1111.81,-73.29"/>
</g>
<!-- Node15 -->
<g id="node15" class="node">
<title>Node15</title>
<g id="a_node15"><a xlink:href="LoadingScene_8cpp.html" target="_top" xlink:title=" ">
<polygon fill="none" stroke="black" points="643.5,-6 643.5,-25 792.5,-25 792.5,-6 643.5,-6"/>
<text text-anchor="middle" x="718" y="-13" font-family="Helvetica,sans-Serif" font-size="10.00">src/Scenes/LoadingScene.cpp</text>
</a>
</g>
</g>
<!-- Node9&#45;&gt;Node15 -->
<g id="edge15" class="edge">
<title>Node9&#45;&gt;Node15</title>
<path fill="none" stroke="midnightblue" d="M957.59,-65.63C895.3,-52.85 810.13,-35.39 759.91,-25.09"/>
<polygon fill="midnightblue" stroke="midnightblue" points="957.27,-69.14 967.77,-67.72 958.68,-62.28 957.27,-69.14"/>
</g>
<!-- Node16 -->
<g id="node16" class="node">
<title>Node16</title>
<g id="a_node16"><a xlink:href="MainScene_8cpp.html" target="_top" xlink:title=" ">
<polygon fill="none" stroke="black" points="811,-6 811,-25 947,-25 947,-6 811,-6"/>
<text text-anchor="middle" x="879" y="-13" font-family="Helvetica,sans-Serif" font-size="10.00">src/Scenes/MainScene.cpp</text>
</a>
</g>
</g>
<!-- Node9&#45;&gt;Node16 -->
<g id="edge16" class="edge">
<title>Node9&#45;&gt;Node16</title>
<path fill="none" stroke="midnightblue" d="M991.7,-63.46C961.56,-50.9 922.74,-34.72 899.42,-25.01"/>
<polygon fill="midnightblue" stroke="midnightblue" points="990.57,-66.78 1001.15,-67.4 993.27,-60.32 990.57,-66.78"/>
</g>
<!-- Node17 -->
<g id="node17" class="node">
<title>Node17</title>
<g id="a_node17"><a xlink:href="MenuScene_8cpp.html" target="_top" xlink:title=" ">
<polygon fill="none" stroke="black" points="965.5,-6 965.5,-25 1104.5,-25 1104.5,-6 965.5,-6"/>
<text text-anchor="middle" x="1035" y="-13" font-family="Helvetica,sans-Serif" font-size="10.00">src/Scenes/MenuScene.cpp</text>
</a>
</g>
</g>
<!-- Node9&#45;&gt;Node17 -->
<g id="edge17" class="edge">
<title>Node9&#45;&gt;Node17</title>
<path fill="none" stroke="midnightblue" d="M1035,-57.25C1035,-46.02 1035,-33.38 1035,-25.19"/>
<polygon fill="midnightblue" stroke="midnightblue" points="1031.5,-57.4 1035,-67.4 1038.5,-57.4 1031.5,-57.4"/>
</g>
<!-- Node18 -->
<g id="node18" class="node">
<title>Node18</title>
<g id="a_node18"><a xlink:href="PauseScene_8cpp.html" target="_top" xlink:title=" ">
<polygon fill="none" stroke="black" points="1122.5,-6 1122.5,-25 1265.5,-25 1265.5,-6 1122.5,-6"/>
<text text-anchor="middle" x="1194" y="-13" font-family="Helvetica,sans-Serif" font-size="10.00">src/Scenes/PauseScene.cpp</text>
</a>
</g>
</g>
<!-- Node9&#45;&gt;Node18 -->
<g id="edge18" class="edge">
<title>Node9&#45;&gt;Node18</title>
<path fill="none" stroke="midnightblue" d="M1079.13,-63.46C1109.85,-50.9 1149.42,-34.72 1173.19,-25.01"/>
<polygon fill="midnightblue" stroke="midnightblue" points="1077.43,-60.37 1069.5,-67.4 1080.08,-66.85 1077.43,-60.37"/>
</g>
<!-- Node19 -->
<g id="node19" class="node">
<title>Node19</title>
<g id="a_node19"><a xlink:href="SaveSelectionScene_8cpp.html" target="_top" xlink:title=" ">
<polygon fill="none" stroke="black" points="1284,-0.5 1284,-30.5 1416,-30.5 1416,-0.5 1284,-0.5"/>
<text text-anchor="start" x="1292" y="-18.5" font-family="Helvetica,sans-Serif" font-size="10.00">src/Scenes/SaveSelection</text>
<text text-anchor="middle" x="1350" y="-7.5" font-family="Helvetica,sans-Serif" font-size="10.00">Scene.cpp</text>
</a>
</g>
</g>
<!-- Node9&#45;&gt;Node19 -->
<g id="edge19" class="edge">
<title>Node9&#45;&gt;Node19</title>
<path fill="none" stroke="midnightblue" d="M1112.16,-65.58C1164.83,-54.71 1233.87,-40.46 1283.99,-30.12"/>
<polygon fill="midnightblue" stroke="midnightblue" points="1111.28,-62.19 1102.19,-67.64 1112.69,-69.04 1111.28,-62.19"/>
</g>
<!-- Node20 -->
<g id="node20" class="node">
<title>Node20</title>
<g id="a_node20"><a xlink:href="VictoryScene_8cpp.html" target="_top" xlink:title=" ">
<polygon fill="none" stroke="black" points="1434.5,-6 1434.5,-25 1579.5,-25 1579.5,-6 1434.5,-6"/>
<text text-anchor="middle" x="1507" y="-13" font-family="Helvetica,sans-Serif" font-size="10.00">src/Scenes/VictoryScene.cpp</text>
</a>
</g>
</g>
<!-- Node9&#45;&gt;Node20 -->
<g id="edge20" class="edge">
<title>Node9&#45;&gt;Node20</title>
<path fill="none" stroke="midnightblue" d="M1112.4,-72.55C1191.2,-63.18 1316.82,-47.56 1425,-31 1436.72,-29.21 1449.34,-27.07 1461.09,-25"/>
<polygon fill="midnightblue" stroke="midnightblue" points="1111.59,-69.12 1102.07,-73.77 1112.41,-76.07 1111.59,-69.12"/>
</g>
<!-- Node21&#45;&gt;Node4 -->
<g id="edge22" class="edge">
<title>Node21&#45;&gt;Node4</title>
<path fill="none" stroke="midnightblue" d="M1888.64,-70.32C1937.61,-57.49 2016.88,-36.71 2061.25,-25.08"/>
<polygon fill="midnightblue" stroke="midnightblue" points="1887.46,-67.01 1878.68,-72.94 1889.24,-73.79 1887.46,-67.01"/>
</g>
<!-- Node21&#45;&gt;Node14 -->
<g id="edge23" class="edge">
<title>Node21&#45;&gt;Node14</title>
<path fill="none" stroke="midnightblue" d="M1812.16,-69.35C1781.48,-58.33 1736.27,-42.09 1704.06,-30.53"/>
<polygon fill="midnightblue" stroke="midnightblue" points="1811.37,-72.78 1821.96,-72.87 1813.74,-66.19 1811.37,-72.78"/>
</g>
<!-- Node23&#45;&gt;Node22 -->
<g id="edge26" class="edge">
<title>Node23&#45;&gt;Node22</title>
<path fill="none" stroke="midnightblue" d="M2858,-57.11C2858,-48.15 2858,-38.32 2858,-30.58"/>
<polygon fill="midnightblue" stroke="midnightblue" points="2854.5,-57.4 2858,-67.4 2861.5,-57.4 2854.5,-57.4"/>
</g>
<!-- Node24 -->
<g id="node24" class="node">
<title>Node24</title>
<g id="a_node24"><a xlink:href="ButtonMouseListener_8cpp.html" target="_top" xlink:title=" ">
<polygon fill="none" stroke="black" points="2927,-0.5 2927,-30.5 3101,-30.5 3101,-0.5 2927,-0.5"/>
<text text-anchor="start" x="2935" y="-18.5" font-family="Helvetica,sans-Serif" font-size="10.00">libs/spic&#45;engine/src</text>
<text text-anchor="middle" x="3014" y="-7.5" font-family="Helvetica,sans-Serif" font-size="10.00">/Listeners/ButtonMouseListener.cpp</text>
</a>
</g>
</g>
<!-- Node23&#45;&gt;Node24 -->
<g id="edge27" class="edge">
<title>Node23&#45;&gt;Node24</title>
<path fill="none" stroke="midnightblue" d="M2901.09,-63.54C2926.06,-53.14 2957.03,-40.24 2980.22,-30.58"/>
<polygon fill="midnightblue" stroke="midnightblue" points="2899.73,-60.32 2891.85,-67.4 2902.43,-66.78 2899.73,-60.32"/>
</g>
<!-- Node25&#45;&gt;Node3 -->
<g id="edge29" class="edge">
<title>Node25&#45;&gt;Node3</title>
<path fill="none" stroke="midnightblue" d="M1973.29,-60.67C1959.63,-48.67 1943.17,-34.22 1932.9,-25.19"/>
<polygon fill="midnightblue" stroke="midnightblue" points="1971.12,-63.43 1980.94,-67.4 1975.74,-58.17 1971.12,-63.43"/>
</g>
<!-- Node26 -->
<g id="node26" class="node">
<title>Node26</title>
<g id="a_node26"><a xlink:href="main_8cpp.html" target="_top" xlink:title=" ">
<polygon fill="none" stroke="black" points="1750,-6 1750,-25 1822,-25 1822,-6 1750,-6"/>
<text text-anchor="middle" x="1786" y="-13" font-family="Helvetica,sans-Serif" font-size="10.00">src/main.cpp</text>
</a>
</g>
</g>
<!-- Node25&#45;&gt;Node26 -->
<g id="edge30" class="edge">
<title>Node25&#45;&gt;Node26</title>
<path fill="none" stroke="midnightblue" d="M1940.4,-64.53C1908.27,-54.84 1867.34,-42.38 1831,-31 1824.89,-29.09 1818.33,-26.99 1812.15,-25.01"/>
<polygon fill="midnightblue" stroke="midnightblue" points="1939.49,-67.91 1950.07,-67.45 1941.51,-61.21 1939.49,-67.91"/>
</g>
</g>
</svg>
