<?xml version="1.0" encoding="UTF-8" standalone="no"?>
<!DOCTYPE svg PUBLIC "-//W3C//DTD SVG 1.1//EN"
 "http://www.w3.org/Graphics/SVG/1.1/DTD/svg11.dtd">
<!-- Generated by graphviz version 2.44.0 ()
 -->
<!-- Title: src/Factories/ButtonPrefabFactory.hpp Pages: 1 -->
<svg width="406pt" height="319pt"
 viewBox="0.00 0.00 405.50 319.00" xmlns="http://www.w3.org/2000/svg" xmlns:xlink="http://www.w3.org/1999/xlink">
<g id="graph0" class="graph" transform="scale(1 1) rotate(0) translate(4 315)">
<title>src/Factories/ButtonPrefabFactory.hpp</title>
<!-- Node1 -->
<g id="node1" class="node">
<title>Node1</title>
<g id="a_node1"><a xlink:title=" ">
<polygon fill="#bfbfbf" stroke="black" points="263.5,-280.5 263.5,-310.5 397.5,-310.5 397.5,-280.5 263.5,-280.5"/>
<text text-anchor="start" x="271.5" y="-298.5" font-family="Helvetica,sans-Serif" font-size="10.00">src/Factories/ButtonPrefab</text>
<text text-anchor="middle" x="330.5" y="-287.5" font-family="Helvetica,sans-Serif" font-size="10.00">Factory.hpp</text>
</a>
</g>
</g>
<!-- Node2 -->
<g id="node2" class="node">
<title>Node2</title>
<g id="a_node2"><a xlink:href="Button_8hpp.html" target="_top" xlink:title=" ">
<polygon fill="none" stroke="black" points="239,-224.5 239,-243.5 302,-243.5 302,-224.5 239,-224.5"/>
<text text-anchor="middle" x="270.5" y="-231.5" font-family="Helvetica,sans-Serif" font-size="10.00">Button.hpp</text>
</a>
</g>
</g>
<!-- Node1&#45;&gt;Node2 -->
<g id="edge1" class="edge">
<title>Node1&#45;&gt;Node2</title>
<path fill="none" stroke="midnightblue" d="M316.28,-280.4C307.29,-271.49 295.66,-259.95 286.37,-250.74"/>
<polygon fill="midnightblue" stroke="midnightblue" points="288.8,-248.21 279.23,-243.66 283.87,-253.18 288.8,-248.21"/>
</g>
<!-- Node6 -->
<g id="node6" class="node">
<title>Node6</title>
<g id="a_node6"><a xlink:title=" ">
<polygon fill="none" stroke="#bfbfbf" points="245,-0.5 245,-19.5 296,-19.5 296,-0.5 245,-0.5"/>
<text text-anchor="middle" x="270.5" y="-7.5" font-family="Helvetica,sans-Serif" font-size="10.00">memory</text>
</a>
</g>
</g>
<!-- Node1&#45;&gt;Node6 -->
<g id="edge12" class="edge">
<title>Node1&#45;&gt;Node6</title>
<path fill="none" stroke="midnightblue" d="M338.37,-280.41C349.5,-259.13 368.5,-217.21 368.5,-179 368.5,-179 368.5,-179 368.5,-121 368.5,-90.9 368.16,-79.62 349.5,-56 338.07,-41.54 320.64,-30.91 305.05,-23.62"/>
<polygon fill="midnightblue" stroke="midnightblue" points="306.21,-20.31 295.65,-19.51 303.41,-26.73 306.21,-20.31"/>
</g>
<!-- Node9 -->
<g id="node9" class="node">
<title>Node9</title>
<g id="a_node9"><a xlink:title=" ">
<polygon fill="none" stroke="#bfbfbf" points="299,-56.5 299,-75.5 340,-75.5 340,-56.5 299,-56.5"/>
<text text-anchor="middle" x="319.5" y="-63.5" font-family="Helvetica,sans-Serif" font-size="10.00">string</text>
</a>
</g>
</g>
<!-- Node1&#45;&gt;Node9 -->
<g id="edge13" class="edge">
<title>Node1&#45;&gt;Node9</title>
<path fill="none" stroke="midnightblue" d="M329.81,-280.27C327.91,-240.89 322.57,-130.49 320.42,-85.97"/>
<polygon fill="midnightblue" stroke="midnightblue" points="323.91,-85.75 319.93,-75.93 316.92,-86.08 323.91,-85.75"/>
</g>
<!-- Node3 -->
<g id="node3" class="node">
<title>Node3</title>
<g id="a_node3"><a xlink:href="UIObject_8hpp.html" target="_top" xlink:title=" ">
<polygon fill="none" stroke="black" points="150.5,-168.5 150.5,-187.5 224.5,-187.5 224.5,-168.5 150.5,-168.5"/>
<text text-anchor="middle" x="187.5" y="-175.5" font-family="Helvetica,sans-Serif" font-size="10.00">UIObject.hpp</text>
</a>
</g>
</g>
<!-- Node2&#45;&gt;Node3 -->
<g id="edge2" class="edge">
<title>Node2&#45;&gt;Node3</title>
<path fill="none" stroke="midnightblue" d="M257.16,-224.32C244.34,-215.98 224.72,-203.21 209.56,-193.35"/>
<polygon fill="midnightblue" stroke="midnightblue" points="211.09,-190.17 200.8,-187.65 207.28,-196.04 211.09,-190.17"/>
</g>
<!-- Node11 -->
<g id="node11" class="node">
<title>Node11</title>
<g id="a_node11"><a xlink:title=" ">
<polygon fill="none" stroke="#bfbfbf" points="243,-168.5 243,-187.5 302,-187.5 302,-168.5 243,-168.5"/>
<text text-anchor="middle" x="272.5" y="-175.5" font-family="Helvetica,sans-Serif" font-size="10.00">functional</text>
</a>
</g>
</g>
<!-- Node2&#45;&gt;Node11 -->
<g id="edge11" class="edge">
<title>Node2&#45;&gt;Node11</title>
<path fill="none" stroke="midnightblue" d="M270.83,-224.08C271.09,-217.01 271.47,-206.86 271.8,-197.99"/>
<polygon fill="midnightblue" stroke="midnightblue" points="275.3,-197.87 272.18,-187.75 268.31,-197.61 275.3,-197.87"/>
</g>
<!-- Node4 -->
<g id="node4" class="node">
<title>Node4</title>
<g id="a_node4"><a xlink:href="GameObject_8hpp.html" target="_top" xlink:title=" ">
<polygon fill="none" stroke="black" points="149,-112.5 149,-131.5 238,-131.5 238,-112.5 149,-112.5"/>
<text text-anchor="middle" x="193.5" y="-119.5" font-family="Helvetica,sans-Serif" font-size="10.00">GameObject.hpp</text>
</a>
</g>
</g>
<!-- Node3&#45;&gt;Node4 -->
<g id="edge3" class="edge">
<title>Node3&#45;&gt;Node4</title>
<path fill="none" stroke="midnightblue" d="M188.49,-168.08C189.29,-160.93 190.43,-150.64 191.42,-141.69"/>
<polygon fill="midnightblue" stroke="midnightblue" points="194.9,-142.08 192.53,-131.75 187.94,-141.3 194.9,-142.08"/>
</g>
<!-- Node5 -->
<g id="node5" class="node">
<title>Node5</title>
<g id="a_node5"><a xlink:href="Component_8hpp.html" target="_top" xlink:title=" ">
<polygon fill="none" stroke="black" points="158.5,-56.5 158.5,-75.5 242.5,-75.5 242.5,-56.5 158.5,-56.5"/>
<text text-anchor="middle" x="200.5" y="-63.5" font-family="Helvetica,sans-Serif" font-size="10.00">Component.hpp</text>
</a>
</g>
</g>
<!-- Node4&#45;&gt;Node5 -->
<g id="edge4" class="edge">
<title>Node4&#45;&gt;Node5</title>
<path fill="none" stroke="midnightblue" d="M194.66,-112.08C195.58,-104.93 196.92,-94.64 198.08,-85.69"/>
<polygon fill="midnightblue" stroke="midnightblue" points="201.55,-86.12 199.37,-75.75 194.61,-85.22 201.55,-86.12"/>
</g>
<!-- Node4&#45;&gt;Node6 -->
<g id="edge10" class="edge">
<title>Node4&#45;&gt;Node6</title>
<path fill="none" stroke="midnightblue" d="M209.56,-112.37C222.68,-104.54 240.74,-91.8 251.5,-76 260.91,-62.18 265.73,-43.66 268.15,-29.92"/>
<polygon fill="midnightblue" stroke="midnightblue" points="271.66,-30.13 269.67,-19.72 264.74,-29.09 271.66,-30.13"/>
</g>
<!-- Node7 -->
<g id="node7" class="node">
<title>Node7</title>
<g id="a_node7"><a xlink:href="Transform_8hpp.html" target="_top" xlink:title=" ">
<polygon fill="none" stroke="black" points="0,-56.5 0,-75.5 79,-75.5 79,-56.5 0,-56.5"/>
<text text-anchor="middle" x="39.5" y="-63.5" font-family="Helvetica,sans-Serif" font-size="10.00">Transform.hpp</text>
</a>
</g>
</g>
<!-- Node4&#45;&gt;Node7 -->
<g id="edge6" class="edge">
<title>Node4&#45;&gt;Node7</title>
<path fill="none" stroke="midnightblue" d="M169.1,-112.44C143.3,-103.4 102.42,-89.06 73.48,-78.92"/>
<polygon fill="midnightblue" stroke="midnightblue" points="74.38,-75.52 63.79,-75.52 72.07,-82.13 74.38,-75.52"/>
</g>
<!-- Node4&#45;&gt;Node9 -->
<g id="edge8" class="edge">
<title>Node4&#45;&gt;Node9</title>
<path fill="none" stroke="midnightblue" d="M213.47,-112.44C234.11,-103.6 266.56,-89.69 290.13,-79.59"/>
<polygon fill="midnightblue" stroke="midnightblue" points="291.82,-82.67 299.63,-75.52 289.06,-76.24 291.82,-82.67"/>
</g>
<!-- Node10 -->
<g id="node10" class="node">
<title>Node10</title>
<g id="a_node10"><a xlink:title=" ">
<polygon fill="none" stroke="#bfbfbf" points="96.5,-56.5 96.5,-75.5 140.5,-75.5 140.5,-56.5 96.5,-56.5"/>
<text text-anchor="middle" x="118.5" y="-63.5" font-family="Helvetica,sans-Serif" font-size="10.00">vector</text>
</a>
</g>
</g>
<!-- Node4&#45;&gt;Node10 -->
<g id="edge9" class="edge">
<title>Node4&#45;&gt;Node10</title>
<path fill="none" stroke="midnightblue" d="M181.45,-112.32C170.04,-104.11 152.67,-91.6 139.07,-81.81"/>
<polygon fill="midnightblue" stroke="midnightblue" points="140.93,-78.84 130.77,-75.83 136.84,-84.52 140.93,-78.84"/>
</g>
<!-- Node5&#45;&gt;Node6 -->
<g id="edge5" class="edge">
<title>Node5&#45;&gt;Node6</title>
<path fill="none" stroke="midnightblue" d="M211.75,-56.32C222.3,-48.18 238.3,-35.84 250.94,-26.09"/>
<polygon fill="midnightblue" stroke="midnightblue" points="253.27,-28.71 259.05,-19.83 248.99,-23.17 253.27,-28.71"/>
</g>
<!-- Node8 -->
<g id="node8" class="node">
<title>Node8</title>
<g id="a_node8"><a xlink:href="Point_8hpp.html" target="_top" xlink:title=" ">
<polygon fill="none" stroke="black" points="11,-0.5 11,-19.5 68,-19.5 68,-0.5 11,-0.5"/>
<text text-anchor="middle" x="39.5" y="-7.5" font-family="Helvetica,sans-Serif" font-size="10.00">Point.hpp</text>
</a>
</g>
</g>
<!-- Node7&#45;&gt;Node8 -->
<g id="edge7" class="edge">
<title>Node7&#45;&gt;Node8</title>
<path fill="none" stroke="midnightblue" d="M39.5,-56.08C39.5,-49.01 39.5,-38.86 39.5,-29.99"/>
<polygon fill="midnightblue" stroke="midnightblue" points="43,-29.75 39.5,-19.75 36,-29.75 43,-29.75"/>
</g>
</g>
</svg>
