<?xml version="1.0" encoding="UTF-8" standalone="no"?>
<!DOCTYPE svg PUBLIC "-//W3C//DTD SVG 1.1//EN"
 "http://www.w3.org/Graphics/SVG/1.1/DTD/svg11.dtd">
<!-- Generated by graphviz version 2.44.0 ()
 -->
<!-- Title: libs/spic&#45;engine/src/Listeners/ButtonMouseListener.cpp Pages: 1 -->
<svg width="587pt" height="375pt"
 viewBox="0.00 0.00 587.00 375.00" xmlns="http://www.w3.org/2000/svg" xmlns:xlink="http://www.w3.org/1999/xlink">
<g id="graph0" class="graph" transform="scale(1 1) rotate(0) translate(4 371)">
<title>libs/spic&#45;engine/src/Listeners/ButtonMouseListener.cpp</title>
<!-- Node1 -->
<g id="node1" class="node">
<title>Node1</title>
<g id="a_node1"><a xlink:title=" ">
<polygon fill="#bfbfbf" stroke="black" points="366,-336.5 366,-366.5 540,-366.5 540,-336.5 366,-336.5"/>
<text text-anchor="start" x="374" y="-354.5" font-family="Helvetica,sans-Serif" font-size="10.00">libs/spic&#45;engine/src</text>
<text text-anchor="middle" x="453" y="-343.5" font-family="Helvetica,sans-Serif" font-size="10.00">/Listeners/ButtonMouseListener.cpp</text>
</a>
</g>
</g>
<!-- Node2 -->
<g id="node2" class="node">
<title>Node2</title>
<g id="a_node2"><a xlink:href="ButtonMouseListener_8hpp.html" target="_top" xlink:title=" ">
<polygon fill="none" stroke="black" points="126,-280.5 126,-299.5 254,-299.5 254,-280.5 126,-280.5"/>
<text text-anchor="middle" x="190" y="-287.5" font-family="Helvetica,sans-Serif" font-size="10.00">ButtonMouseListener.hpp</text>
</a>
</g>
</g>
<!-- Node1&#45;&gt;Node2 -->
<g id="edge1" class="edge">
<title>Node1&#45;&gt;Node2</title>
<path fill="none" stroke="midnightblue" d="M391.01,-336.47C344.05,-325.85 280.5,-311.47 237.52,-301.75"/>
<polygon fill="midnightblue" stroke="midnightblue" points="238.13,-298.3 227.6,-299.51 236.58,-305.13 238.13,-298.3"/>
</g>
<!-- Node14 -->
<g id="node14" class="node">
<title>Node14</title>
<g id="a_node14"><a xlink:href="Input_8hpp.html" target="_top" xlink:title=" ">
<polygon fill="none" stroke="black" points="279,-280.5 279,-299.5 335,-299.5 335,-280.5 279,-280.5"/>
<text text-anchor="middle" x="307" y="-287.5" font-family="Helvetica,sans-Serif" font-size="10.00">Input.hpp</text>
</a>
</g>
</g>
<!-- Node1&#45;&gt;Node14 -->
<g id="edge14" class="edge">
<title>Node1&#45;&gt;Node14</title>
<path fill="none" stroke="midnightblue" d="M418.4,-336.4C393.9,-326.42 361.34,-313.15 337.75,-303.53"/>
<polygon fill="midnightblue" stroke="midnightblue" points="338.83,-300.19 328.24,-299.66 336.18,-306.67 338.83,-300.19"/>
</g>
<!-- Node16 -->
<g id="node16" class="node">
<title>Node16</title>
<g id="a_node16"><a xlink:href="RectangleUtil_8hpp.html" target="_top" xlink:title=" ">
<polygon fill="none" stroke="black" points="335,-112.5 335,-131.5 459,-131.5 459,-112.5 335,-112.5"/>
<text text-anchor="middle" x="397" y="-119.5" font-family="Helvetica,sans-Serif" font-size="10.00">../Utils/RectangleUtil.hpp</text>
</a>
</g>
</g>
<!-- Node1&#45;&gt;Node16 -->
<g id="edge19" class="edge">
<title>Node1&#45;&gt;Node16</title>
<path fill="none" stroke="midnightblue" d="M451.62,-336.29C449.14,-312.69 443.22,-264.07 433,-224 425.44,-194.34 412.74,-161.11 404.62,-141.13"/>
<polygon fill="midnightblue" stroke="midnightblue" points="407.79,-139.65 400.74,-131.75 401.32,-142.32 407.79,-139.65"/>
</g>
<!-- Node17 -->
<g id="node17" class="node">
<title>Node17</title>
<g id="a_node17"><a xlink:href="ZoneUtil_8hpp.html" target="_top" xlink:title=" ">
<polygon fill="none" stroke="black" points="477,-112.5 477,-131.5 579,-131.5 579,-112.5 477,-112.5"/>
<text text-anchor="middle" x="528" y="-119.5" font-family="Helvetica,sans-Serif" font-size="10.00">../Utils/ZoneUtil.hpp</text>
</a>
</g>
</g>
<!-- Node1&#45;&gt;Node17 -->
<g id="edge22" class="edge">
<title>Node1&#45;&gt;Node17</title>
<path fill="none" stroke="midnightblue" d="M457.69,-336.27C470.7,-296.81 507.23,-186.02 521.84,-141.68"/>
<polygon fill="midnightblue" stroke="midnightblue" points="525.25,-142.52 525.06,-131.93 518.6,-140.33 525.25,-142.52"/>
</g>
<!-- Node18 -->
<g id="node18" class="node">
<title>Node18</title>
<g id="a_node18"><a xlink:title=" ">
<polygon fill="none" stroke="#bfbfbf" points="519,-280.5 519,-299.5 563,-299.5 563,-280.5 519,-280.5"/>
<text text-anchor="middle" x="541" y="-287.5" font-family="Helvetica,sans-Serif" font-size="10.00">cmath</text>
</a>
</g>
</g>
<!-- Node1&#45;&gt;Node18 -->
<g id="edge25" class="edge">
<title>Node1&#45;&gt;Node18</title>
<path fill="none" stroke="midnightblue" d="M473.85,-336.4C487.7,-327.04 505.81,-314.79 519.74,-305.38"/>
<polygon fill="midnightblue" stroke="midnightblue" points="521.87,-308.16 528.2,-299.66 517.95,-302.36 521.87,-308.16"/>
</g>
<!-- Node3 -->
<g id="node3" class="node">
<title>Node3</title>
<g id="a_node3"><a xlink:href="Button_8hpp.html" target="_top" xlink:title=" ">
<polygon fill="none" stroke="black" points="57.5,-224.5 57.5,-243.5 120.5,-243.5 120.5,-224.5 57.5,-224.5"/>
<text text-anchor="middle" x="89" y="-231.5" font-family="Helvetica,sans-Serif" font-size="10.00">Button.hpp</text>
</a>
</g>
</g>
<!-- Node2&#45;&gt;Node3 -->
<g id="edge2" class="edge">
<title>Node2&#45;&gt;Node3</title>
<path fill="none" stroke="midnightblue" d="M173.77,-280.32C157.65,-271.7 132.7,-258.36 114.04,-248.39"/>
<polygon fill="midnightblue" stroke="midnightblue" points="115.66,-245.28 105.19,-243.65 112.36,-251.46 115.66,-245.28"/>
</g>
<!-- Node13 -->
<g id="node13" class="node">
<title>Node13</title>
<g id="a_node13"><a xlink:href="IMouseListener_8hpp.html" target="_top" xlink:title=" ">
<polygon fill="none" stroke="black" points="139,-224.5 139,-243.5 241,-243.5 241,-224.5 139,-224.5"/>
<text text-anchor="middle" x="190" y="-231.5" font-family="Helvetica,sans-Serif" font-size="10.00">IMouseListener.hpp</text>
</a>
</g>
</g>
<!-- Node2&#45;&gt;Node13 -->
<g id="edge13" class="edge">
<title>Node2&#45;&gt;Node13</title>
<path fill="none" stroke="midnightblue" d="M190,-280.08C190,-273.01 190,-262.86 190,-253.99"/>
<polygon fill="midnightblue" stroke="midnightblue" points="193.5,-253.75 190,-243.75 186.5,-253.75 193.5,-253.75"/>
</g>
<!-- Node4 -->
<g id="node4" class="node">
<title>Node4</title>
<g id="a_node4"><a xlink:href="UIObject_8hpp.html" target="_top" xlink:title=" ">
<polygon fill="none" stroke="black" points="52,-168.5 52,-187.5 126,-187.5 126,-168.5 52,-168.5"/>
<text text-anchor="middle" x="89" y="-175.5" font-family="Helvetica,sans-Serif" font-size="10.00">UIObject.hpp</text>
</a>
</g>
</g>
<!-- Node3&#45;&gt;Node4 -->
<g id="edge3" class="edge">
<title>Node3&#45;&gt;Node4</title>
<path fill="none" stroke="midnightblue" d="M89,-224.08C89,-217.01 89,-206.86 89,-197.99"/>
<polygon fill="midnightblue" stroke="midnightblue" points="92.5,-197.75 89,-187.75 85.5,-197.75 92.5,-197.75"/>
</g>
<!-- Node12 -->
<g id="node12" class="node">
<title>Node12</title>
<g id="a_node12"><a xlink:title=" ">
<polygon fill="none" stroke="#bfbfbf" points="144.5,-168.5 144.5,-187.5 203.5,-187.5 203.5,-168.5 144.5,-168.5"/>
<text text-anchor="middle" x="174" y="-175.5" font-family="Helvetica,sans-Serif" font-size="10.00">functional</text>
</a>
</g>
</g>
<!-- Node3&#45;&gt;Node12 -->
<g id="edge12" class="edge">
<title>Node3&#45;&gt;Node12</title>
<path fill="none" stroke="midnightblue" d="M102.66,-224.32C115.92,-215.9 136.27,-202.97 151.85,-193.07"/>
<polygon fill="midnightblue" stroke="midnightblue" points="153.81,-195.97 160.38,-187.65 150.06,-190.06 153.81,-195.97"/>
</g>
<!-- Node5 -->
<g id="node5" class="node">
<title>Node5</title>
<g id="a_node5"><a xlink:href="GameObject_8hpp.html" target="_top" xlink:title=" ">
<polygon fill="none" stroke="black" points="101.5,-112.5 101.5,-131.5 190.5,-131.5 190.5,-112.5 101.5,-112.5"/>
<text text-anchor="middle" x="146" y="-119.5" font-family="Helvetica,sans-Serif" font-size="10.00">GameObject.hpp</text>
</a>
</g>
</g>
<!-- Node4&#45;&gt;Node5 -->
<g id="edge4" class="edge">
<title>Node4&#45;&gt;Node5</title>
<path fill="none" stroke="midnightblue" d="M98.16,-168.32C106.5,-160.42 119.03,-148.55 129.18,-138.94"/>
<polygon fill="midnightblue" stroke="midnightblue" points="131.82,-141.25 136.68,-131.83 127.01,-136.17 131.82,-141.25"/>
</g>
<!-- Node6 -->
<g id="node6" class="node">
<title>Node6</title>
<g id="a_node6"><a xlink:href="Component_8hpp.html" target="_top" xlink:title=" ">
<polygon fill="none" stroke="black" points="0,-56.5 0,-75.5 84,-75.5 84,-56.5 0,-56.5"/>
<text text-anchor="middle" x="42" y="-63.5" font-family="Helvetica,sans-Serif" font-size="10.00">Component.hpp</text>
</a>
</g>
</g>
<!-- Node5&#45;&gt;Node6 -->
<g id="edge5" class="edge">
<title>Node5&#45;&gt;Node6</title>
<path fill="none" stroke="midnightblue" d="M129.29,-112.32C112.69,-103.7 87,-90.36 67.78,-80.39"/>
<polygon fill="midnightblue" stroke="midnightblue" points="69.16,-77.16 58.67,-75.65 65.93,-83.37 69.16,-77.16"/>
</g>
<!-- Node7 -->
<g id="node7" class="node">
<title>Node7</title>
<g id="a_node7"><a xlink:title=" ">
<polygon fill="none" stroke="#bfbfbf" points="51.5,-0.5 51.5,-19.5 102.5,-19.5 102.5,-0.5 51.5,-0.5"/>
<text text-anchor="middle" x="77" y="-7.5" font-family="Helvetica,sans-Serif" font-size="10.00">memory</text>
</a>
</g>
</g>
<!-- Node5&#45;&gt;Node7 -->
<g id="edge11" class="edge">
<title>Node5&#45;&gt;Node7</title>
<path fill="none" stroke="midnightblue" d="M140.59,-112.37C129.25,-94.3 102.83,-52.18 87.86,-28.31"/>
<polygon fill="midnightblue" stroke="midnightblue" points="90.67,-26.2 82.39,-19.59 84.74,-29.92 90.67,-26.2"/>
</g>
<!-- Node8 -->
<g id="node8" class="node">
<title>Node8</title>
<g id="a_node8"><a xlink:href="Transform_8hpp.html" target="_top" xlink:title=" ">
<polygon fill="none" stroke="black" points="140.5,-56.5 140.5,-75.5 219.5,-75.5 219.5,-56.5 140.5,-56.5"/>
<text text-anchor="middle" x="180" y="-63.5" font-family="Helvetica,sans-Serif" font-size="10.00">Transform.hpp</text>
</a>
</g>
</g>
<!-- Node5&#45;&gt;Node8 -->
<g id="edge7" class="edge">
<title>Node5&#45;&gt;Node8</title>
<path fill="none" stroke="midnightblue" d="M151.61,-112.08C156.37,-104.53 163.32,-93.49 169.15,-84.23"/>
<polygon fill="midnightblue" stroke="midnightblue" points="172.12,-86.08 174.49,-75.75 166.2,-82.35 172.12,-86.08"/>
</g>
<!-- Node10 -->
<g id="node10" class="node">
<title>Node10</title>
<g id="a_node10"><a xlink:title=" ">
<polygon fill="none" stroke="#bfbfbf" points="237.5,-56.5 237.5,-75.5 278.5,-75.5 278.5,-56.5 237.5,-56.5"/>
<text text-anchor="middle" x="258" y="-63.5" font-family="Helvetica,sans-Serif" font-size="10.00">string</text>
</a>
</g>
</g>
<!-- Node5&#45;&gt;Node10 -->
<g id="edge9" class="edge">
<title>Node5&#45;&gt;Node10</title>
<path fill="none" stroke="midnightblue" d="M163.99,-112.32C182.04,-103.62 210.05,-90.12 230.8,-80.11"/>
<polygon fill="midnightblue" stroke="midnightblue" points="232.56,-83.15 240.05,-75.65 229.52,-76.84 232.56,-83.15"/>
</g>
<!-- Node11 -->
<g id="node11" class="node">
<title>Node11</title>
<g id="a_node11"><a xlink:title=" ">
<polygon fill="none" stroke="#bfbfbf" points="335,-56.5 335,-75.5 379,-75.5 379,-56.5 335,-56.5"/>
<text text-anchor="middle" x="357" y="-63.5" font-family="Helvetica,sans-Serif" font-size="10.00">vector</text>
</a>
</g>
</g>
<!-- Node5&#45;&gt;Node11 -->
<g id="edge10" class="edge">
<title>Node5&#45;&gt;Node11</title>
<path fill="none" stroke="midnightblue" d="M179.43,-112.44C219.33,-102.23 285.56,-85.28 324.87,-75.22"/>
<polygon fill="midnightblue" stroke="midnightblue" points="325.91,-78.57 334.73,-72.7 324.17,-71.79 325.91,-78.57"/>
</g>
<!-- Node6&#45;&gt;Node7 -->
<g id="edge6" class="edge">
<title>Node6&#45;&gt;Node7</title>
<path fill="none" stroke="midnightblue" d="M47.78,-56.08C52.67,-48.53 59.83,-37.49 65.83,-28.23"/>
<polygon fill="midnightblue" stroke="midnightblue" points="68.83,-30.05 71.33,-19.75 62.95,-26.24 68.83,-30.05"/>
</g>
<!-- Node9 -->
<g id="node9" class="node">
<title>Node9</title>
<g id="a_node9"><a xlink:href="Point_8hpp.html" target="_top" xlink:title=" ">
<polygon fill="none" stroke="black" points="328.5,-0.5 328.5,-19.5 385.5,-19.5 385.5,-0.5 328.5,-0.5"/>
<text text-anchor="middle" x="357" y="-7.5" font-family="Helvetica,sans-Serif" font-size="10.00">Point.hpp</text>
</a>
</g>
</g>
<!-- Node8&#45;&gt;Node9 -->
<g id="edge8" class="edge">
<title>Node8&#45;&gt;Node9</title>
<path fill="none" stroke="midnightblue" d="M208.05,-56.44C238.08,-47.28 285.91,-32.69 319.24,-22.52"/>
<polygon fill="midnightblue" stroke="midnightblue" points="320.54,-25.78 329.09,-19.52 318.5,-19.09 320.54,-25.78"/>
</g>
<!-- Node14&#45;&gt;Node9 -->
<g id="edge15" class="edge">
<title>Node14&#45;&gt;Node9</title>
<path fill="none" stroke="midnightblue" d="M307,-280.44C307,-261.94 307,-216.81 307,-179 307,-179 307,-179 307,-121 307,-90.9 313.08,-83.18 326,-56 330.73,-46.06 337.54,-35.88 343.57,-27.73"/>
<polygon fill="midnightblue" stroke="midnightblue" points="346.36,-29.85 349.68,-19.78 340.81,-25.58 346.36,-29.85"/>
</g>
<!-- Node14&#45;&gt;Node10 -->
<g id="edge18" class="edge">
<title>Node14&#45;&gt;Node10</title>
<path fill="none" stroke="midnightblue" d="M304.04,-280.45C301,-271.46 296.26,-256.85 293,-244 278.53,-186.94 266.44,-118.28 261.04,-85.79"/>
<polygon fill="midnightblue" stroke="midnightblue" points="264.43,-84.85 259.36,-75.55 257.52,-85.98 264.43,-84.85"/>
</g>
<!-- Node14&#45;&gt;Node13 -->
<g id="edge17" class="edge">
<title>Node14&#45;&gt;Node13</title>
<path fill="none" stroke="midnightblue" d="M288.46,-280.44C269.38,-271.64 239.43,-257.81 217.56,-247.72"/>
<polygon fill="midnightblue" stroke="midnightblue" points="219,-244.53 208.45,-243.52 216.07,-250.88 219,-244.53"/>
</g>
<!-- Node15 -->
<g id="node15" class="node">
<title>Node15</title>
<g id="a_node15"><a xlink:href="IKeyListener_8hpp.html" target="_top" xlink:title=" ">
<polygon fill="none" stroke="black" points="335.5,-224.5 335.5,-243.5 424.5,-243.5 424.5,-224.5 335.5,-224.5"/>
<text text-anchor="middle" x="380" y="-231.5" font-family="Helvetica,sans-Serif" font-size="10.00">IKeyListener.hpp</text>
</a>
</g>
</g>
<!-- Node14&#45;&gt;Node15 -->
<g id="edge16" class="edge">
<title>Node14&#45;&gt;Node15</title>
<path fill="none" stroke="midnightblue" d="M318.73,-280.32C329.84,-272.11 346.74,-259.6 359.98,-249.81"/>
<polygon fill="midnightblue" stroke="midnightblue" points="362.1,-252.59 368.06,-243.83 357.94,-246.97 362.1,-252.59"/>
</g>
<!-- Node16&#45;&gt;Node9 -->
<g id="edge20" class="edge">
<title>Node16&#45;&gt;Node9</title>
<path fill="none" stroke="midnightblue" d="M397.05,-112.27C396.86,-99.48 395.42,-75.12 388,-56 384.02,-45.74 377.27,-35.53 371.09,-27.44"/>
<polygon fill="midnightblue" stroke="midnightblue" points="373.77,-25.18 364.77,-19.59 368.32,-29.57 373.77,-25.18"/>
</g>
<!-- Node16&#45;&gt;Node11 -->
<g id="edge21" class="edge">
<title>Node16&#45;&gt;Node11</title>
<path fill="none" stroke="midnightblue" d="M390.39,-112.08C384.74,-104.46 376.46,-93.26 369.55,-83.94"/>
<polygon fill="midnightblue" stroke="midnightblue" points="372.25,-81.7 363.48,-75.75 366.62,-85.87 372.25,-81.7"/>
</g>
<!-- Node17&#45;&gt;Node9 -->
<g id="edge23" class="edge">
<title>Node17&#45;&gt;Node9</title>
<path fill="none" stroke="midnightblue" d="M514.58,-112.37C485.24,-93.49 415.12,-48.38 379.13,-25.24"/>
<polygon fill="midnightblue" stroke="midnightblue" points="380.66,-22.06 370.36,-19.59 376.87,-27.95 380.66,-22.06"/>
</g>
<!-- Node17&#45;&gt;Node11 -->
<g id="edge24" class="edge">
<title>Node17&#45;&gt;Node11</title>
<path fill="none" stroke="midnightblue" d="M500.9,-112.44C470.48,-102.84 421.16,-87.26 388.9,-77.07"/>
<polygon fill="midnightblue" stroke="midnightblue" points="389.66,-73.64 379.07,-73.97 387.56,-80.32 389.66,-73.64"/>
</g>
</g>
</svg>
