<?xml version="1.0" encoding="UTF-8" standalone="no"?>
<!DOCTYPE svg PUBLIC "-//W3C//DTD SVG 1.1//EN"
 "http://www.w3.org/Graphics/SVG/1.1/DTD/svg11.dtd">
<!-- Generated by graphviz version 2.44.0 ()
 -->
<!-- Title: libs/spic&#45;engine/includes/spic&#45;api&#45;headers/Button.hpp Pages: 1 -->
<svg width="3031pt" height="307pt"
 viewBox="0.00 0.00 3031.00 307.00" xmlns="http://www.w3.org/2000/svg" xmlns:xlink="http://www.w3.org/1999/xlink">
<g id="graph0" class="graph" transform="scale(1 1) rotate(0) translate(4 303)">
<title>libs/spic&#45;engine/includes/spic&#45;api&#45;headers/Button.hpp</title>
<!-- Node1 -->
<g id="node1" class="node">
<title>Node1</title>
<g id="a_node1"><a xlink:title=" ">
<polygon fill="#bfbfbf" stroke="black" points="1187,-268.5 1187,-298.5 1327,-298.5 1327,-268.5 1187,-268.5"/>
<text text-anchor="start" x="1195" y="-286.5" font-family="Helvetica,sans-Serif" font-size="10.00">libs/spic&#45;engine/includes</text>
<text text-anchor="middle" x="1257" y="-275.5" font-family="Helvetica,sans-Serif" font-size="10.00">/spic&#45;api&#45;headers/Button.hpp</text>
</a>
</g>
</g>
<!-- Node2 -->
<g id="node2" class="node">
<title>Node2</title>
<g id="a_node2"><a xlink:href="HUDController_8hpp.html" target="_top" xlink:title=" ">
<polygon fill="none" stroke="black" points="920,-140 920,-159 1084,-159 1084,-140 920,-140"/>
<text text-anchor="middle" x="1002" y="-147" font-family="Helvetica,sans-Serif" font-size="10.00">src/Controllers/HUDController.hpp</text>
</a>
</g>
</g>
<!-- Node1&#45;&gt;Node2 -->
<g id="edge1" class="edge">
<title>Node1&#45;&gt;Node2</title>
<path fill="none" stroke="midnightblue" d="M1211.96,-264.62C1189.96,-255.49 1163.28,-243.84 1140,-232 1092.88,-208.04 1039.69,-174.75 1015.39,-159.18"/>
<polygon fill="midnightblue" stroke="midnightblue" points="1210.82,-267.93 1221.4,-268.5 1213.48,-261.46 1210.82,-267.93"/>
</g>
<!-- Node4 -->
<g id="node4" class="node">
<title>Node4</title>
<g id="a_node4"><a xlink:href="LevelController_8hpp.html" target="_top" xlink:title=" ">
<polygon fill="none" stroke="black" points="765,-73 765,-92 931,-92 931,-73 765,-73"/>
<text text-anchor="middle" x="848" y="-80" font-family="Helvetica,sans-Serif" font-size="10.00">src/Controllers/LevelController.hpp</text>
</a>
</g>
</g>
<!-- Node1&#45;&gt;Node4 -->
<g id="edge13" class="edge">
<title>Node1&#45;&gt;Node4</title>
<path fill="none" stroke="midnightblue" d="M1176.5,-276.84C1093.75,-269.84 971.45,-255.82 931,-232 877.05,-200.23 855.53,-119.24 849.73,-92.34"/>
<polygon fill="midnightblue" stroke="midnightblue" points="1176.38,-280.35 1186.64,-277.68 1176.96,-273.37 1176.38,-280.35"/>
</g>
<!-- Node13 -->
<g id="node13" class="node">
<title>Node13</title>
<g id="a_node13"><a xlink:href="ButtonPrefabFactory_8hpp.html" target="_top" xlink:title=" ">
<polygon fill="none" stroke="black" points="1791,-67.5 1791,-97.5 1925,-97.5 1925,-67.5 1791,-67.5"/>
<text text-anchor="start" x="1799" y="-85.5" font-family="Helvetica,sans-Serif" font-size="10.00">src/Factories/ButtonPrefab</text>
<text text-anchor="middle" x="1858" y="-74.5" font-family="Helvetica,sans-Serif" font-size="10.00">Factory.hpp</text>
</a>
</g>
</g>
<!-- Node1&#45;&gt;Node13 -->
<g id="edge14" class="edge">
<title>Node1&#45;&gt;Node13</title>
<path fill="none" stroke="midnightblue" d="M1269.98,-259.13C1274.56,-250.66 1279.64,-240.97 1284,-232 1304.78,-189.22 1288.46,-161.87 1327,-134 1363.84,-107.36 1656.62,-91.88 1791,-86.11"/>
<polygon fill="midnightblue" stroke="midnightblue" points="1266.82,-257.61 1265.1,-268.07 1272.96,-260.97 1266.82,-257.61"/>
</g>
<!-- Node24 -->
<g id="node24" class="node">
<title>Node24</title>
<g id="a_node24"><a xlink:href="LevelScene_8hpp.html" target="_top" xlink:title=" ">
<polygon fill="none" stroke="black" points="2573.5,-73 2573.5,-92 2712.5,-92 2712.5,-73 2573.5,-73"/>
<text text-anchor="middle" x="2643" y="-80" font-family="Helvetica,sans-Serif" font-size="10.00">src/Scenes/LevelScene.hpp</text>
</a>
</g>
</g>
<!-- Node1&#45;&gt;Node24 -->
<g id="edge27" class="edge">
<title>Node1&#45;&gt;Node24</title>
<path fill="none" stroke="midnightblue" d="M1279.19,-260.87C1287.46,-252.27 1296.61,-242.05 1304,-232 1333.73,-191.59 1317.12,-160.03 1360,-134 1386.13,-118.14 2309.63,-92.38 2573.34,-85.33"/>
<polygon fill="midnightblue" stroke="midnightblue" points="1276.45,-258.68 1271.94,-268.26 1281.44,-263.58 1276.45,-258.68"/>
</g>
<!-- Node25 -->
<g id="node25" class="node">
<title>Node25</title>
<g id="a_node25"><a xlink:href="HudData_8hpp.html" target="_top" xlink:title=" ">
<polygon fill="none" stroke="black" points="940,-207 940,-226 1064,-226 1064,-207 940,-207"/>
<text text-anchor="middle" x="1002" y="-214" font-family="Helvetica,sans-Serif" font-size="10.00">src/Structs/HudData.hpp</text>
</a>
</g>
</g>
<!-- Node1&#45;&gt;Node25 -->
<g id="edge30" class="edge">
<title>Node1&#45;&gt;Node25</title>
<path fill="none" stroke="midnightblue" d="M1192.23,-265.99C1142.26,-253.25 1075.16,-236.15 1035.46,-226.03"/>
<polygon fill="midnightblue" stroke="midnightblue" points="1191.43,-269.4 1201.98,-268.48 1193.16,-262.61 1191.43,-269.4"/>
</g>
<!-- Node26 -->
<g id="node26" class="node">
<title>Node26</title>
<g id="a_node26"><a xlink:href="Button_8cpp.html" target="_top" xlink:title=" ">
<polygon fill="none" stroke="black" points="1369.5,-134.5 1369.5,-164.5 1470.5,-164.5 1470.5,-134.5 1369.5,-134.5"/>
<text text-anchor="start" x="1377.5" y="-152.5" font-family="Helvetica,sans-Serif" font-size="10.00">libs/spic&#45;engine/src</text>
<text text-anchor="middle" x="1420" y="-141.5" font-family="Helvetica,sans-Serif" font-size="10.00">/Api/Button.cpp</text>
</a>
</g>
</g>
<!-- Node1&#45;&gt;Node26 -->
<g id="edge33" class="edge">
<title>Node1&#45;&gt;Node26</title>
<path fill="none" stroke="midnightblue" d="M1302.19,-264.13C1319.7,-255.8 1339.26,-244.9 1355,-232 1379.07,-212.26 1400.14,-182.26 1411.37,-164.69"/>
<polygon fill="midnightblue" stroke="midnightblue" points="1300.34,-261.13 1292.72,-268.49 1303.27,-267.48 1300.34,-261.13"/>
</g>
<!-- Node27 -->
<g id="node27" class="node">
<title>Node27</title>
<g id="a_node27"><a xlink:href="ButtonMouseListener_8hpp.html" target="_top" xlink:title=" ">
<polygon fill="none" stroke="black" points="1407,-201.5 1407,-231.5 1581,-231.5 1581,-201.5 1407,-201.5"/>
<text text-anchor="start" x="1415" y="-219.5" font-family="Helvetica,sans-Serif" font-size="10.00">libs/spic&#45;engine/src</text>
<text text-anchor="middle" x="1494" y="-208.5" font-family="Helvetica,sans-Serif" font-size="10.00">/Listeners/ButtonMouseListener.hpp</text>
</a>
</g>
</g>
<!-- Node1&#45;&gt;Node27 -->
<g id="edge34" class="edge">
<title>Node1&#45;&gt;Node27</title>
<path fill="none" stroke="midnightblue" d="M1318.2,-265.71C1356.77,-255.14 1406,-241.63 1442.55,-231.61"/>
<polygon fill="midnightblue" stroke="midnightblue" points="1316.85,-262.46 1308.13,-268.48 1318.7,-269.21 1316.85,-262.46"/>
</g>
<!-- Node29 -->
<g id="node29" class="node">
<title>Node29</title>
<g id="a_node29"><a xlink:href="Api_8hpp.html" target="_top" xlink:title=" ">
<polygon fill="none" stroke="black" points="1149,-201.5 1149,-231.5 1275,-231.5 1275,-201.5 1149,-201.5"/>
<text text-anchor="start" x="1157" y="-219.5" font-family="Helvetica,sans-Serif" font-size="10.00">libs/spic&#45;engine/includes</text>
<text text-anchor="middle" x="1212" y="-208.5" font-family="Helvetica,sans-Serif" font-size="10.00">/spic&#45;api&#45;headers/Api.hpp</text>
</a>
</g>
</g>
<!-- Node1&#45;&gt;Node29 -->
<g id="edge37" class="edge">
<title>Node1&#45;&gt;Node29</title>
<path fill="none" stroke="midnightblue" d="M1241.53,-260.16C1234.97,-250.68 1227.52,-239.92 1221.75,-231.58"/>
<polygon fill="midnightblue" stroke="midnightblue" points="1238.67,-262.17 1247.24,-268.4 1244.42,-258.18 1238.67,-262.17"/>
</g>
<!-- Node3 -->
<g id="node3" class="node">
<title>Node3</title>
<g id="a_node3"><a xlink:href="HUDController_8cpp.html" target="_top" xlink:title=" ">
<polygon fill="none" stroke="black" points="920,-6 920,-25 1084,-25 1084,-6 920,-6"/>
<text text-anchor="middle" x="1002" y="-13" font-family="Helvetica,sans-Serif" font-size="10.00">src/Controllers/HUDController.cpp</text>
</a>
</g>
</g>
<!-- Node2&#45;&gt;Node3 -->
<g id="edge2" class="edge">
<title>Node2&#45;&gt;Node3</title>
<path fill="none" stroke="midnightblue" d="M1002,-129.78C1002,-100.75 1002,-46.04 1002,-25.02"/>
<polygon fill="midnightblue" stroke="midnightblue" points="998.5,-129.84 1002,-139.84 1005.5,-129.84 998.5,-129.84"/>
</g>
<!-- Node2&#45;&gt;Node4 -->
<g id="edge3" class="edge">
<title>Node2&#45;&gt;Node4</title>
<path fill="none" stroke="midnightblue" d="M972.26,-135.95C941.77,-123.08 895.16,-103.4 868.53,-92.17"/>
<polygon fill="midnightblue" stroke="midnightblue" points="970.98,-139.2 981.55,-139.87 973.7,-132.76 970.98,-139.2"/>
</g>
<!-- Node4&#45;&gt;Node3 -->
<g id="edge4" class="edge">
<title>Node4&#45;&gt;Node3</title>
<path fill="none" stroke="midnightblue" d="M877.74,-68.95C908.23,-56.08 954.84,-36.4 981.47,-25.17"/>
<polygon fill="midnightblue" stroke="midnightblue" points="876.3,-65.76 868.45,-72.87 879.02,-72.2 876.3,-65.76"/>
</g>
<!-- Node5 -->
<g id="node5" class="node">
<title>Node5</title>
<g id="a_node5"><a xlink:href="LevelController_8cpp.html" target="_top" xlink:title=" ">
<polygon fill="none" stroke="black" points="1102,-6 1102,-25 1268,-25 1268,-6 1102,-6"/>
<text text-anchor="middle" x="1185" y="-13" font-family="Helvetica,sans-Serif" font-size="10.00">src/Controllers/LevelController.cpp</text>
</a>
</g>
</g>
<!-- Node4&#45;&gt;Node5 -->
<g id="edge5" class="edge">
<title>Node4&#45;&gt;Node5</title>
<path fill="none" stroke="midnightblue" d="M902.25,-71.04C968.53,-58.25 1079.4,-36.87 1140.77,-25.03"/>
<polygon fill="midnightblue" stroke="midnightblue" points="901.56,-67.6 892.4,-72.94 902.89,-74.48 901.56,-67.6"/>
</g>
<!-- Node6 -->
<g id="node6" class="node">
<title>Node6</title>
<g id="a_node6"><a xlink:href="LevelScene_8cpp.html" target="_top" xlink:title=" ">
<polygon fill="none" stroke="black" points="2573.5,-6 2573.5,-25 2712.5,-25 2712.5,-6 2573.5,-6"/>
<text text-anchor="middle" x="2643" y="-13" font-family="Helvetica,sans-Serif" font-size="10.00">src/Scenes/LevelScene.cpp</text>
</a>
</g>
</g>
<!-- Node4&#45;&gt;Node6 -->
<g id="edge6" class="edge">
<title>Node4&#45;&gt;Node6</title>
<path fill="none" stroke="midnightblue" d="M941.45,-80.62C1251.62,-77.42 2245.39,-64.73 2564,-31 2576.76,-29.65 2590.55,-27.4 2602.98,-25.07"/>
<polygon fill="midnightblue" stroke="midnightblue" points="941.11,-77.13 931.15,-80.73 941.18,-84.13 941.11,-77.13"/>
</g>
<!-- Node7 -->
<g id="node7" class="node">
<title>Node7</title>
<g id="a_node7"><a xlink:href="CheatManager_8cpp.html" target="_top" xlink:title=" ">
<polygon fill="none" stroke="black" points="668,-0.5 668,-30.5 774,-30.5 774,-0.5 668,-0.5"/>
<text text-anchor="start" x="676" y="-18.5" font-family="Helvetica,sans-Serif" font-size="10.00">src/Scripts/Common</text>
<text text-anchor="middle" x="721" y="-7.5" font-family="Helvetica,sans-Serif" font-size="10.00">/CheatManager.cpp</text>
</a>
</g>
</g>
<!-- Node4&#45;&gt;Node7 -->
<g id="edge7" class="edge">
<title>Node4&#45;&gt;Node7</title>
<path fill="none" stroke="midnightblue" d="M822,-68.19C800.64,-57.26 770.45,-41.81 748.65,-30.65"/>
<polygon fill="midnightblue" stroke="midnightblue" points="820.64,-71.43 831.14,-72.87 823.83,-65.2 820.64,-71.43"/>
</g>
<!-- Node8 -->
<g id="node8" class="node">
<title>Node8</title>
<g id="a_node8"><a xlink:href="HealthBehaviour_8cpp.html" target="_top" xlink:title=" ">
<polygon fill="none" stroke="black" points="792,-0.5 792,-30.5 902,-30.5 902,-0.5 792,-0.5"/>
<text text-anchor="start" x="800" y="-18.5" font-family="Helvetica,sans-Serif" font-size="10.00">src/Scripts/Common</text>
<text text-anchor="middle" x="847" y="-7.5" font-family="Helvetica,sans-Serif" font-size="10.00">/HealthBehaviour.cpp</text>
</a>
</g>
</g>
<!-- Node4&#45;&gt;Node8 -->
<g id="edge8" class="edge">
<title>Node4&#45;&gt;Node8</title>
<path fill="none" stroke="midnightblue" d="M847.71,-62.41C847.55,-52.22 847.36,-39.9 847.22,-30.59"/>
<polygon fill="midnightblue" stroke="midnightblue" points="844.21,-62.79 847.87,-72.73 851.21,-62.68 844.21,-62.79"/>
</g>
<!-- Node9 -->
<g id="node9" class="node">
<title>Node9</title>
<g id="a_node9"><a xlink:href="EnemyMovementBehaviour_8cpp.html" target="_top" xlink:title=" ">
<polygon fill="none" stroke="black" points="0,-0.5 0,-30.5 156,-30.5 156,-0.5 0,-0.5"/>
<text text-anchor="start" x="8" y="-18.5" font-family="Helvetica,sans-Serif" font-size="10.00">src/Scripts/Enemies</text>
<text text-anchor="middle" x="78" y="-7.5" font-family="Helvetica,sans-Serif" font-size="10.00">/EnemyMovementBehaviour.cpp</text>
</a>
</g>
</g>
<!-- Node4&#45;&gt;Node9 -->
<g id="edge9" class="edge">
<title>Node4&#45;&gt;Node9</title>
<path fill="none" stroke="midnightblue" d="M754.92,-77.32C623.22,-70.78 375.12,-56.22 165,-31 162.11,-30.65 159.17,-30.28 156.21,-29.88"/>
<polygon fill="midnightblue" stroke="midnightblue" points="754.81,-80.82 764.97,-77.81 755.15,-73.82 754.81,-80.82"/>
</g>
<!-- Node10 -->
<g id="node10" class="node">
<title>Node10</title>
<g id="a_node10"><a xlink:href="EnemyTroopTruckBehaviour_8cpp.html" target="_top" xlink:title=" ">
<polygon fill="none" stroke="black" points="174,-0.5 174,-30.5 334,-30.5 334,-0.5 174,-0.5"/>
<text text-anchor="start" x="182" y="-18.5" font-family="Helvetica,sans-Serif" font-size="10.00">src/Scripts/Enemies</text>
<text text-anchor="middle" x="254" y="-7.5" font-family="Helvetica,sans-Serif" font-size="10.00">/EnemyTroopTruckBehaviour.cpp</text>
</a>
</g>
</g>
<!-- Node4&#45;&gt;Node10 -->
<g id="edge10" class="edge">
<title>Node4&#45;&gt;Node10</title>
<path fill="none" stroke="midnightblue" d="M754.49,-73.89C652.97,-65.23 486.16,-49.8 343,-31 340.05,-30.61 337.05,-30.2 334.02,-29.78"/>
<polygon fill="midnightblue" stroke="midnightblue" points="754.45,-77.4 764.71,-74.76 755.05,-70.43 754.45,-77.4"/>
</g>
<!-- Node11 -->
<g id="node11" class="node">
<title>Node11</title>
<g id="a_node11"><a xlink:href="UserAttackBehaviour_8cpp.html" target="_top" xlink:title=" ">
<polygon fill="none" stroke="black" points="352.5,-0.5 352.5,-30.5 483.5,-30.5 483.5,-0.5 352.5,-0.5"/>
<text text-anchor="start" x="360.5" y="-18.5" font-family="Helvetica,sans-Serif" font-size="10.00">src/Scripts/Heroes</text>
<text text-anchor="middle" x="418" y="-7.5" font-family="Helvetica,sans-Serif" font-size="10.00">/UserAttackBehaviour.cpp</text>
</a>
</g>
</g>
<!-- Node4&#45;&gt;Node11 -->
<g id="edge11" class="edge">
<title>Node4&#45;&gt;Node11</title>
<path fill="none" stroke="midnightblue" d="M770.77,-71.64C698.74,-62.17 588.38,-46.99 493,-31 489.99,-30.5 486.92,-29.96 483.82,-29.42"/>
<polygon fill="midnightblue" stroke="midnightblue" points="770.74,-75.16 781.11,-72.99 771.65,-68.22 770.74,-75.16"/>
</g>
<!-- Node12 -->
<g id="node12" class="node">
<title>Node12</title>
<g id="a_node12"><a xlink:href="UserMovementBehaviour_8cpp.html" target="_top" xlink:title=" ">
<polygon fill="none" stroke="black" points="502,-0.5 502,-30.5 650,-30.5 650,-0.5 502,-0.5"/>
<text text-anchor="start" x="510" y="-18.5" font-family="Helvetica,sans-Serif" font-size="10.00">src/Scripts/Heroes</text>
<text text-anchor="middle" x="576" y="-7.5" font-family="Helvetica,sans-Serif" font-size="10.00">/UserMovementBehaviour.cpp</text>
</a>
</g>
</g>
<!-- Node4&#45;&gt;Node12 -->
<g id="edge12" class="edge">
<title>Node4&#45;&gt;Node12</title>
<path fill="none" stroke="midnightblue" d="M802.17,-70.55C756.13,-59.55 685.01,-42.55 634.83,-30.56"/>
<polygon fill="midnightblue" stroke="midnightblue" points="801.62,-74.02 812.16,-72.94 803.25,-67.21 801.62,-74.02"/>
</g>
<!-- Node13&#45;&gt;Node3 -->
<g id="edge15" class="edge">
<title>Node13&#45;&gt;Node3</title>
<path fill="none" stroke="midnightblue" d="M1780.71,-78.75C1642.42,-73.31 1343.66,-59.18 1093,-31 1079.01,-29.43 1063.89,-27.22 1050.06,-25.01"/>
<polygon fill="midnightblue" stroke="midnightblue" points="1780.66,-82.25 1790.79,-79.15 1780.93,-75.26 1780.66,-82.25"/>
</g>
<!-- Node13&#45;&gt;Node5 -->
<g id="edge16" class="edge">
<title>Node13&#45;&gt;Node5</title>
<path fill="none" stroke="midnightblue" d="M1780.6,-76.49C1669.07,-68.89 1456.81,-52.96 1277,-31 1263.36,-29.33 1248.63,-27.18 1235.05,-25.04"/>
<polygon fill="midnightblue" stroke="midnightblue" points="1780.53,-80 1790.74,-77.18 1781,-73.01 1780.53,-80"/>
</g>
<!-- Node14 -->
<g id="node14" class="node">
<title>Node14</title>
<g id="a_node14"><a xlink:href="ButtonPrefabFactory_8cpp.html" target="_top" xlink:title=" ">
<polygon fill="none" stroke="black" points="2421,-0.5 2421,-30.5 2555,-30.5 2555,-0.5 2421,-0.5"/>
<text text-anchor="start" x="2429" y="-18.5" font-family="Helvetica,sans-Serif" font-size="10.00">src/Factories/ButtonPrefab</text>
<text text-anchor="middle" x="2488" y="-7.5" font-family="Helvetica,sans-Serif" font-size="10.00">Factory.cpp</text>
</a>
</g>
</g>
<!-- Node13&#45;&gt;Node14 -->
<g id="edge17" class="edge">
<title>Node13&#45;&gt;Node14</title>
<path fill="none" stroke="midnightblue" d="M1935.28,-76.85C2042.6,-69.84 2242.68,-54.81 2412,-31 2414.93,-30.59 2417.91,-30.14 2420.92,-29.67"/>
<polygon fill="midnightblue" stroke="midnightblue" points="1934.94,-73.36 1925.19,-77.5 1935.39,-80.35 1934.94,-73.36"/>
</g>
<!-- Node15 -->
<g id="node15" class="node">
<title>Node15</title>
<g id="a_node15"><a xlink:href="CreditScene_8cpp.html" target="_top" xlink:title=" ">
<polygon fill="none" stroke="black" points="2731,-6 2731,-25 2871,-25 2871,-6 2731,-6"/>
<text text-anchor="middle" x="2801" y="-13" font-family="Helvetica,sans-Serif" font-size="10.00">src/Scenes/CreditScene.cpp</text>
</a>
</g>
</g>
<!-- Node13&#45;&gt;Node15 -->
<g id="edge18" class="edge">
<title>Node13&#45;&gt;Node15</title>
<path fill="none" stroke="midnightblue" d="M1935.32,-80.17C2086.81,-76.86 2433.08,-65.82 2722,-31 2734.32,-29.51 2747.62,-27.31 2759.74,-25.06"/>
<polygon fill="midnightblue" stroke="midnightblue" points="1935.12,-76.67 1925.19,-80.39 1935.26,-83.67 1935.12,-76.67"/>
</g>
<!-- Node16 -->
<g id="node16" class="node">
<title>Node16</title>
<g id="a_node16"><a xlink:href="GameOverScene_8cpp.html" target="_top" xlink:title=" ">
<polygon fill="none" stroke="black" points="1286,-6 1286,-25 1448,-25 1448,-6 1286,-6"/>
<text text-anchor="middle" x="1367" y="-13" font-family="Helvetica,sans-Serif" font-size="10.00">src/Scenes/GameOverScene.cpp</text>
</a>
</g>
</g>
<!-- Node13&#45;&gt;Node16 -->
<g id="edge19" class="edge">
<title>Node13&#45;&gt;Node16</title>
<path fill="none" stroke="midnightblue" d="M1780.6,-72.48C1699.96,-62.91 1569.97,-46.98 1458,-31 1445.33,-29.19 1431.69,-27.1 1418.93,-25.07"/>
<polygon fill="midnightblue" stroke="midnightblue" points="1780.33,-75.98 1790.68,-73.68 1781.16,-69.02 1780.33,-75.98"/>
</g>
<!-- Node17 -->
<g id="node17" class="node">
<title>Node17</title>
<g id="a_node17"><a xlink:href="LevelSelectionScene_8cpp.html" target="_top" xlink:title=" ">
<polygon fill="none" stroke="black" points="2889,-0.5 2889,-30.5 3023,-30.5 3023,-0.5 2889,-0.5"/>
<text text-anchor="start" x="2897" y="-18.5" font-family="Helvetica,sans-Serif" font-size="10.00">src/Scenes/LevelSelection</text>
<text text-anchor="middle" x="2956" y="-7.5" font-family="Helvetica,sans-Serif" font-size="10.00">Scene.cpp</text>
</a>
</g>
</g>
<!-- Node13&#45;&gt;Node17 -->
<g id="edge20" class="edge">
<title>Node13&#45;&gt;Node17</title>
<path fill="none" stroke="midnightblue" d="M1935.4,-81.34C2106.4,-80.19 2529.09,-72.94 2880,-31 2882.93,-30.65 2885.93,-30.25 2888.94,-29.82"/>
<polygon fill="midnightblue" stroke="midnightblue" points="1935.21,-77.84 1925.23,-81.41 1935.25,-84.84 1935.21,-77.84"/>
</g>
<!-- Node18 -->
<g id="node18" class="node">
<title>Node18</title>
<g id="a_node18"><a xlink:href="LoadingScene_8cpp.html" target="_top" xlink:title=" ">
<polygon fill="none" stroke="black" points="1466.5,-6 1466.5,-25 1615.5,-25 1615.5,-6 1466.5,-6"/>
<text text-anchor="middle" x="1541" y="-13" font-family="Helvetica,sans-Serif" font-size="10.00">src/Scenes/LoadingScene.cpp</text>
</a>
</g>
</g>
<!-- Node13&#45;&gt;Node18 -->
<g id="edge21" class="edge">
<title>Node13&#45;&gt;Node18</title>
<path fill="none" stroke="midnightblue" d="M1780.59,-65.63C1718.3,-52.85 1633.13,-35.39 1582.91,-25.09"/>
<polygon fill="midnightblue" stroke="midnightblue" points="1780.27,-69.14 1790.77,-67.72 1781.68,-62.28 1780.27,-69.14"/>
</g>
<!-- Node19 -->
<g id="node19" class="node">
<title>Node19</title>
<g id="a_node19"><a xlink:href="MainScene_8cpp.html" target="_top" xlink:title=" ">
<polygon fill="none" stroke="black" points="1634,-6 1634,-25 1770,-25 1770,-6 1634,-6"/>
<text text-anchor="middle" x="1702" y="-13" font-family="Helvetica,sans-Serif" font-size="10.00">src/Scenes/MainScene.cpp</text>
</a>
</g>
</g>
<!-- Node13&#45;&gt;Node19 -->
<g id="edge22" class="edge">
<title>Node13&#45;&gt;Node19</title>
<path fill="none" stroke="midnightblue" d="M1814.7,-63.46C1784.56,-50.9 1745.74,-34.72 1722.42,-25.01"/>
<polygon fill="midnightblue" stroke="midnightblue" points="1813.57,-66.78 1824.15,-67.4 1816.27,-60.32 1813.57,-66.78"/>
</g>
<!-- Node20 -->
<g id="node20" class="node">
<title>Node20</title>
<g id="a_node20"><a xlink:href="MenuScene_8cpp.html" target="_top" xlink:title=" ">
<polygon fill="none" stroke="black" points="1788.5,-6 1788.5,-25 1927.5,-25 1927.5,-6 1788.5,-6"/>
<text text-anchor="middle" x="1858" y="-13" font-family="Helvetica,sans-Serif" font-size="10.00">src/Scenes/MenuScene.cpp</text>
</a>
</g>
</g>
<!-- Node13&#45;&gt;Node20 -->
<g id="edge23" class="edge">
<title>Node13&#45;&gt;Node20</title>
<path fill="none" stroke="midnightblue" d="M1858,-57.25C1858,-46.02 1858,-33.38 1858,-25.19"/>
<polygon fill="midnightblue" stroke="midnightblue" points="1854.5,-57.4 1858,-67.4 1861.5,-57.4 1854.5,-57.4"/>
</g>
<!-- Node21 -->
<g id="node21" class="node">
<title>Node21</title>
<g id="a_node21"><a xlink:href="PauseScene_8cpp.html" target="_top" xlink:title=" ">
<polygon fill="none" stroke="black" points="1945.5,-6 1945.5,-25 2088.5,-25 2088.5,-6 1945.5,-6"/>
<text text-anchor="middle" x="2017" y="-13" font-family="Helvetica,sans-Serif" font-size="10.00">src/Scenes/PauseScene.cpp</text>
</a>
</g>
</g>
<!-- Node13&#45;&gt;Node21 -->
<g id="edge24" class="edge">
<title>Node13&#45;&gt;Node21</title>
<path fill="none" stroke="midnightblue" d="M1902.13,-63.46C1932.85,-50.9 1972.42,-34.72 1996.19,-25.01"/>
<polygon fill="midnightblue" stroke="midnightblue" points="1900.43,-60.37 1892.5,-67.4 1903.08,-66.85 1900.43,-60.37"/>
</g>
<!-- Node22 -->
<g id="node22" class="node">
<title>Node22</title>
<g id="a_node22"><a xlink:href="SaveSelectionScene_8cpp.html" target="_top" xlink:title=" ">
<polygon fill="none" stroke="black" points="2107,-0.5 2107,-30.5 2239,-30.5 2239,-0.5 2107,-0.5"/>
<text text-anchor="start" x="2115" y="-18.5" font-family="Helvetica,sans-Serif" font-size="10.00">src/Scenes/SaveSelection</text>
<text text-anchor="middle" x="2173" y="-7.5" font-family="Helvetica,sans-Serif" font-size="10.00">Scene.cpp</text>
</a>
</g>
</g>
<!-- Node13&#45;&gt;Node22 -->
<g id="edge25" class="edge">
<title>Node13&#45;&gt;Node22</title>
<path fill="none" stroke="midnightblue" d="M1935.16,-65.58C1987.83,-54.71 2056.87,-40.46 2106.99,-30.12"/>
<polygon fill="midnightblue" stroke="midnightblue" points="1934.28,-62.19 1925.19,-67.64 1935.69,-69.04 1934.28,-62.19"/>
</g>
<!-- Node23 -->
<g id="node23" class="node">
<title>Node23</title>
<g id="a_node23"><a xlink:href="VictoryScene_8cpp.html" target="_top" xlink:title=" ">
<polygon fill="none" stroke="black" points="2257.5,-6 2257.5,-25 2402.5,-25 2402.5,-6 2257.5,-6"/>
<text text-anchor="middle" x="2330" y="-13" font-family="Helvetica,sans-Serif" font-size="10.00">src/Scenes/VictoryScene.cpp</text>
</a>
</g>
</g>
<!-- Node13&#45;&gt;Node23 -->
<g id="edge26" class="edge">
<title>Node13&#45;&gt;Node23</title>
<path fill="none" stroke="midnightblue" d="M1935.4,-72.55C2014.2,-63.18 2139.82,-47.56 2248,-31 2259.72,-29.21 2272.34,-27.07 2284.09,-25"/>
<polygon fill="midnightblue" stroke="midnightblue" points="1934.59,-69.12 1925.07,-73.77 1935.41,-76.07 1934.59,-69.12"/>
</g>
<!-- Node24&#45;&gt;Node6 -->
<g id="edge28" class="edge">
<title>Node24&#45;&gt;Node6</title>
<path fill="none" stroke="midnightblue" d="M2643,-62.54C2643,-50.17 2643,-34.62 2643,-25.13"/>
<polygon fill="midnightblue" stroke="midnightblue" points="2639.5,-62.73 2643,-72.73 2646.5,-62.73 2639.5,-62.73"/>
</g>
<!-- Node24&#45;&gt;Node17 -->
<g id="edge29" class="edge">
<title>Node24&#45;&gt;Node17</title>
<path fill="none" stroke="midnightblue" d="M2694.12,-70.89C2747.21,-59.86 2830.53,-42.56 2888.89,-30.44"/>
<polygon fill="midnightblue" stroke="midnightblue" points="2693.32,-67.48 2684.24,-72.94 2694.74,-74.33 2693.32,-67.48"/>
</g>
<!-- Node25&#45;&gt;Node2 -->
<g id="edge31" class="edge">
<title>Node25&#45;&gt;Node2</title>
<path fill="none" stroke="midnightblue" d="M1002,-196.54C1002,-184.17 1002,-168.62 1002,-159.13"/>
<polygon fill="midnightblue" stroke="midnightblue" points="998.5,-196.73 1002,-206.73 1005.5,-196.73 998.5,-196.73"/>
</g>
<!-- Node25&#45;&gt;Node4 -->
<g id="edge32" class="edge">
<title>Node25&#45;&gt;Node4</title>
<path fill="none" stroke="midnightblue" d="M972.08,-202.71C953.33,-193.81 929.32,-180.74 911,-165 884.95,-142.63 862.54,-107.97 852.96,-92.04"/>
<polygon fill="midnightblue" stroke="midnightblue" points="970.81,-205.98 981.35,-206.98 973.73,-199.62 970.81,-205.98"/>
</g>
<!-- Node27&#45;&gt;Node26 -->
<g id="edge35" class="edge">
<title>Node27&#45;&gt;Node26</title>
<path fill="none" stroke="midnightblue" d="M1470.2,-194.6C1459.03,-184.78 1446.01,-173.34 1436.03,-164.58"/>
<polygon fill="midnightblue" stroke="midnightblue" points="1468.12,-197.43 1477.94,-201.4 1472.74,-192.17 1468.12,-197.43"/>
</g>
<!-- Node28 -->
<g id="node28" class="node">
<title>Node28</title>
<g id="a_node28"><a xlink:href="ButtonMouseListener_8cpp.html" target="_top" xlink:title=" ">
<polygon fill="none" stroke="black" points="1489,-134.5 1489,-164.5 1663,-164.5 1663,-134.5 1489,-134.5"/>
<text text-anchor="start" x="1497" y="-152.5" font-family="Helvetica,sans-Serif" font-size="10.00">libs/spic&#45;engine/src</text>
<text text-anchor="middle" x="1576" y="-141.5" font-family="Helvetica,sans-Serif" font-size="10.00">/Listeners/ButtonMouseListener.cpp</text>
</a>
</g>
</g>
<!-- Node27&#45;&gt;Node28 -->
<g id="edge36" class="edge">
<title>Node27&#45;&gt;Node28</title>
<path fill="none" stroke="midnightblue" d="M1519.65,-195.17C1532.19,-185.23 1546.97,-173.51 1558.24,-164.58"/>
<polygon fill="midnightblue" stroke="midnightblue" points="1517.46,-192.44 1511.79,-201.4 1521.8,-197.93 1517.46,-192.44"/>
</g>
<!-- Node29&#45;&gt;Node5 -->
<g id="edge38" class="edge">
<title>Node29&#45;&gt;Node5</title>
<path fill="none" stroke="midnightblue" d="M1201.99,-191.78C1198.9,-183.45 1195.83,-173.95 1194,-165 1183.35,-112.87 1184.01,-48.48 1184.68,-25.32"/>
<polygon fill="midnightblue" stroke="midnightblue" points="1198.78,-193.19 1205.69,-201.22 1205.3,-190.64 1198.78,-193.19"/>
</g>
<!-- Node30 -->
<g id="node30" class="node">
<title>Node30</title>
<g id="a_node30"><a xlink:href="main_8cpp.html" target="_top" xlink:title=" ">
<polygon fill="none" stroke="black" points="1203,-140 1203,-159 1275,-159 1275,-140 1203,-140"/>
<text text-anchor="middle" x="1239" y="-147" font-family="Helvetica,sans-Serif" font-size="10.00">src/main.cpp</text>
</a>
</g>
</g>
<!-- Node29&#45;&gt;Node30 -->
<g id="edge39" class="edge">
<title>Node29&#45;&gt;Node30</title>
<path fill="none" stroke="midnightblue" d="M1221.79,-191.94C1226.52,-180.54 1231.92,-167.55 1235.39,-159.19"/>
<polygon fill="midnightblue" stroke="midnightblue" points="1218.46,-190.82 1217.86,-201.4 1224.93,-193.5 1218.46,-190.82"/>
</g>
</g>
</svg>
