<?xml version="1.0" encoding="UTF-8" standalone="no"?>
<!DOCTYPE svg PUBLIC "-//W3C//DTD SVG 1.1//EN"
 "http://www.w3.org/Graphics/SVG/1.1/DTD/svg11.dtd">
<!-- Generated by graphviz version 2.44.0 ()
 -->
<!-- Title: src/Factories/CameraPrefabFactory.hpp Pages: 1 -->
<svg width="370pt" height="263pt"
 viewBox="0.00 0.00 370.00 263.00" xmlns="http://www.w3.org/2000/svg" xmlns:xlink="http://www.w3.org/1999/xlink">
<g id="graph0" class="graph" transform="scale(1 1) rotate(0) translate(4 259)">
<title>src/Factories/CameraPrefabFactory.hpp</title>
<!-- Node1 -->
<g id="node1" class="node">
<title>Node1</title>
<g id="a_node1"><a xlink:title=" ">
<polygon fill="#bfbfbf" stroke="black" points="223,-224.5 223,-254.5 362,-254.5 362,-224.5 223,-224.5"/>
<text text-anchor="start" x="231" y="-242.5" font-family="Helvetica,sans-Serif" font-size="10.00">src/Factories/CameraPrefab</text>
<text text-anchor="middle" x="292.5" y="-231.5" font-family="Helvetica,sans-Serif" font-size="10.00">Factory.hpp</text>
</a>
</g>
</g>
<!-- Node2 -->
<g id="node2" class="node">
<title>Node2</title>
<g id="a_node2"><a xlink:href="Camera_8hpp.html" target="_top" xlink:title=" ">
<polygon fill="none" stroke="black" points="152.5,-168.5 152.5,-187.5 220.5,-187.5 220.5,-168.5 152.5,-168.5"/>
<text text-anchor="middle" x="186.5" y="-175.5" font-family="Helvetica,sans-Serif" font-size="10.00">Camera.hpp</text>
</a>
</g>
</g>
<!-- Node1&#45;&gt;Node2 -->
<g id="edge1" class="edge">
<title>Node1&#45;&gt;Node2</title>
<path fill="none" stroke="midnightblue" d="M267.38,-224.4C250.23,-214.77 227.64,-202.09 210.69,-192.58"/>
<polygon fill="midnightblue" stroke="midnightblue" points="212.36,-189.5 201.92,-187.66 208.93,-195.6 212.36,-189.5"/>
</g>
<!-- Node5 -->
<g id="node5" class="node">
<title>Node5</title>
<g id="a_node5"><a xlink:title=" ">
<polygon fill="none" stroke="#bfbfbf" points="274,-0.5 274,-19.5 325,-19.5 325,-0.5 274,-0.5"/>
<text text-anchor="middle" x="299.5" y="-7.5" font-family="Helvetica,sans-Serif" font-size="10.00">memory</text>
</a>
</g>
</g>
<!-- Node1&#45;&gt;Node5 -->
<g id="edge11" class="edge">
<title>Node1&#45;&gt;Node5</title>
<path fill="none" stroke="midnightblue" d="M299.52,-224.17C312.68,-196.4 340.64,-132.97 350.5,-76 352.02,-67.24 354.16,-64.1 350.5,-56 344.88,-43.56 333.94,-33.17 323.62,-25.53"/>
<polygon fill="midnightblue" stroke="midnightblue" points="325.46,-22.54 315.23,-19.76 321.49,-28.31 325.46,-22.54"/>
</g>
<!-- Node3 -->
<g id="node3" class="node">
<title>Node3</title>
<g id="a_node3"><a xlink:href="GameObject_8hpp.html" target="_top" xlink:title=" ">
<polygon fill="none" stroke="black" points="142,-112.5 142,-131.5 231,-131.5 231,-112.5 142,-112.5"/>
<text text-anchor="middle" x="186.5" y="-119.5" font-family="Helvetica,sans-Serif" font-size="10.00">GameObject.hpp</text>
</a>
</g>
</g>
<!-- Node2&#45;&gt;Node3 -->
<g id="edge2" class="edge">
<title>Node2&#45;&gt;Node3</title>
<path fill="none" stroke="midnightblue" d="M186.5,-168.08C186.5,-161.01 186.5,-150.86 186.5,-141.99"/>
<polygon fill="midnightblue" stroke="midnightblue" points="190,-141.75 186.5,-131.75 183,-141.75 190,-141.75"/>
</g>
<!-- Node10 -->
<g id="node10" class="node">
<title>Node10</title>
<g id="a_node10"><a xlink:href="Color_8hpp.html" target="_top" xlink:title=" ">
<polygon fill="none" stroke="black" points="67,-112.5 67,-131.5 124,-131.5 124,-112.5 67,-112.5"/>
<text text-anchor="middle" x="95.5" y="-119.5" font-family="Helvetica,sans-Serif" font-size="10.00">Color.hpp</text>
</a>
</g>
</g>
<!-- Node2&#45;&gt;Node10 -->
<g id="edge10" class="edge">
<title>Node2&#45;&gt;Node10</title>
<path fill="none" stroke="midnightblue" d="M171.88,-168.32C157.55,-159.82 135.49,-146.73 118.75,-136.8"/>
<polygon fill="midnightblue" stroke="midnightblue" points="120.47,-133.75 110.08,-131.65 116.9,-139.77 120.47,-133.75"/>
</g>
<!-- Node4 -->
<g id="node4" class="node">
<title>Node4</title>
<g id="a_node4"><a xlink:href="Component_8hpp.html" target="_top" xlink:title=" ">
<polygon fill="none" stroke="black" points="257.5,-56.5 257.5,-75.5 341.5,-75.5 341.5,-56.5 257.5,-56.5"/>
<text text-anchor="middle" x="299.5" y="-63.5" font-family="Helvetica,sans-Serif" font-size="10.00">Component.hpp</text>
</a>
</g>
</g>
<!-- Node3&#45;&gt;Node4 -->
<g id="edge3" class="edge">
<title>Node3&#45;&gt;Node4</title>
<path fill="none" stroke="midnightblue" d="M204.41,-112.44C222.75,-103.68 251.51,-89.94 272.59,-79.86"/>
<polygon fill="midnightblue" stroke="midnightblue" points="274.17,-82.99 281.68,-75.52 271.15,-76.67 274.17,-82.99"/>
</g>
<!-- Node3&#45;&gt;Node5 -->
<g id="edge9" class="edge">
<title>Node3&#45;&gt;Node5</title>
<path fill="none" stroke="midnightblue" d="M168.4,-112.35C145.53,-100.25 111.02,-77.35 127.5,-56 144.04,-34.58 218.61,-21.39 263.96,-15.21"/>
<polygon fill="midnightblue" stroke="midnightblue" points="264.53,-18.66 273.99,-13.89 263.61,-11.72 264.53,-18.66"/>
</g>
<!-- Node6 -->
<g id="node6" class="node">
<title>Node6</title>
<g id="a_node6"><a xlink:href="Transform_8hpp.html" target="_top" xlink:title=" ">
<polygon fill="none" stroke="black" points="0,-56.5 0,-75.5 79,-75.5 79,-56.5 0,-56.5"/>
<text text-anchor="middle" x="39.5" y="-63.5" font-family="Helvetica,sans-Serif" font-size="10.00">Transform.hpp</text>
</a>
</g>
</g>
<!-- Node3&#45;&gt;Node6 -->
<g id="edge5" class="edge">
<title>Node3&#45;&gt;Node6</title>
<path fill="none" stroke="midnightblue" d="M163.21,-112.44C138.69,-103.44 99.9,-89.19 72.3,-79.05"/>
<polygon fill="midnightblue" stroke="midnightblue" points="73.28,-75.68 62.68,-75.52 70.86,-82.25 73.28,-75.68"/>
</g>
<!-- Node8 -->
<g id="node8" class="node">
<title>Node8</title>
<g id="a_node8"><a xlink:title=" ">
<polygon fill="none" stroke="#bfbfbf" points="136,-56.5 136,-75.5 177,-75.5 177,-56.5 136,-56.5"/>
<text text-anchor="middle" x="156.5" y="-63.5" font-family="Helvetica,sans-Serif" font-size="10.00">string</text>
</a>
</g>
</g>
<!-- Node3&#45;&gt;Node8 -->
<g id="edge7" class="edge">
<title>Node3&#45;&gt;Node8</title>
<path fill="none" stroke="midnightblue" d="M181.55,-112.08C177.4,-104.61 171.35,-93.72 166.23,-84.52"/>
<polygon fill="midnightblue" stroke="midnightblue" points="169.28,-82.79 161.36,-75.75 163.16,-86.19 169.28,-82.79"/>
</g>
<!-- Node9 -->
<g id="node9" class="node">
<title>Node9</title>
<g id="a_node9"><a xlink:title=" ">
<polygon fill="none" stroke="#bfbfbf" points="195.5,-56.5 195.5,-75.5 239.5,-75.5 239.5,-56.5 195.5,-56.5"/>
<text text-anchor="middle" x="217.5" y="-63.5" font-family="Helvetica,sans-Serif" font-size="10.00">vector</text>
</a>
</g>
</g>
<!-- Node3&#45;&gt;Node9 -->
<g id="edge8" class="edge">
<title>Node3&#45;&gt;Node9</title>
<path fill="none" stroke="midnightblue" d="M191.62,-112.08C195.91,-104.61 202.16,-93.72 207.44,-84.52"/>
<polygon fill="midnightblue" stroke="midnightblue" points="210.53,-86.17 212.48,-75.75 204.46,-82.68 210.53,-86.17"/>
</g>
<!-- Node4&#45;&gt;Node5 -->
<g id="edge4" class="edge">
<title>Node4&#45;&gt;Node5</title>
<path fill="none" stroke="midnightblue" d="M299.5,-56.08C299.5,-49.01 299.5,-38.86 299.5,-29.99"/>
<polygon fill="midnightblue" stroke="midnightblue" points="303,-29.75 299.5,-19.75 296,-29.75 303,-29.75"/>
</g>
<!-- Node7 -->
<g id="node7" class="node">
<title>Node7</title>
<g id="a_node7"><a xlink:href="Point_8hpp.html" target="_top" xlink:title=" ">
<polygon fill="none" stroke="black" points="11,-0.5 11,-19.5 68,-19.5 68,-0.5 11,-0.5"/>
<text text-anchor="middle" x="39.5" y="-7.5" font-family="Helvetica,sans-Serif" font-size="10.00">Point.hpp</text>
</a>
</g>
</g>
<!-- Node6&#45;&gt;Node7 -->
<g id="edge6" class="edge">
<title>Node6&#45;&gt;Node7</title>
<path fill="none" stroke="midnightblue" d="M39.5,-56.08C39.5,-49.01 39.5,-38.86 39.5,-29.99"/>
<polygon fill="midnightblue" stroke="midnightblue" points="43,-29.75 39.5,-19.75 36,-29.75 43,-29.75"/>
</g>
</g>
</svg>
