<?xml version="1.0" encoding="UTF-8" standalone="no"?>
<!DOCTYPE svg PUBLIC "-//W3C//DTD SVG 1.1//EN"
 "http://www.w3.org/Graphics/SVG/1.1/DTD/svg11.dtd">
<!-- Generated by graphviz version 2.44.0 ()
 -->
<!-- Title: src/Scripts/Common/CheatManager.cpp Pages: 1 -->
<svg width="1702pt" height="498pt"
 viewBox="0.00 0.00 1702.47 498.00" xmlns="http://www.w3.org/2000/svg" xmlns:xlink="http://www.w3.org/1999/xlink">
<g id="graph0" class="graph" transform="scale(1 1) rotate(0) translate(4 494)">
<title>src/Scripts/Common/CheatManager.cpp</title>
<!-- Node1 -->
<g id="node1" class="node">
<title>Node1</title>
<g id="a_node1"><a xlink:title=" ">
<polygon fill="#bfbfbf" stroke="black" points="582.47,-459.5 582.47,-489.5 688.47,-489.5 688.47,-459.5 582.47,-459.5"/>
<text text-anchor="start" x="590.47" y="-477.5" font-family="Helvetica,sans-Serif" font-size="10.00">src/Scripts/Common</text>
<text text-anchor="middle" x="635.47" y="-466.5" font-family="Helvetica,sans-Serif" font-size="10.00">/CheatManager.cpp</text>
</a>
</g>
</g>
<!-- Node2 -->
<g id="node2" class="node">
<title>Node2</title>
<g id="a_node2"><a xlink:href="CheatManager_8hpp.html" target="_top" xlink:title=" ">
<polygon fill="none" stroke="black" points="317.47,-230 317.47,-249 415.47,-249 415.47,-230 317.47,-230"/>
<text text-anchor="middle" x="366.47" y="-237" font-family="Helvetica,sans-Serif" font-size="10.00">CheatManager.hpp</text>
</a>
</g>
</g>
<!-- Node1&#45;&gt;Node2 -->
<g id="edge1" class="edge">
<title>Node1&#45;&gt;Node2</title>
<path fill="none" stroke="midnightblue" d="M582.4,-470.43C515.4,-465.36 405.68,-452.66 379.47,-423 338.5,-376.62 352.37,-295.12 361.33,-258.83"/>
<polygon fill="midnightblue" stroke="midnightblue" points="364.73,-259.67 363.89,-249.11 357.96,-257.89 364.73,-259.67"/>
</g>
<!-- Node7 -->
<g id="node7" class="node">
<title>Node7</title>
<g id="a_node7"><a xlink:href="Input_8hpp.html" target="_top" xlink:title=" ">
<polygon fill="none" stroke="black" points="147.47,-168.5 147.47,-187.5 203.47,-187.5 203.47,-168.5 147.47,-168.5"/>
<text text-anchor="middle" x="175.47" y="-175.5" font-family="Helvetica,sans-Serif" font-size="10.00">Input.hpp</text>
</a>
</g>
</g>
<!-- Node1&#45;&gt;Node7 -->
<g id="edge26" class="edge">
<title>Node1&#45;&gt;Node7</title>
<path fill="none" stroke="midnightblue" d="M582.16,-474.09C479.14,-474.15 257.73,-468.8 199.47,-423 175.26,-403.97 175.47,-388.8 175.47,-358 175.47,-358 175.47,-358 175.47,-300 175.47,-263.71 175.47,-221.31 175.47,-197.56"/>
<polygon fill="midnightblue" stroke="midnightblue" points="178.97,-197.51 175.47,-187.51 171.97,-197.51 178.97,-197.51"/>
</g>
<!-- Node14 -->
<g id="node14" class="node">
<title>Node14</title>
<g id="a_node14"><a xlink:href="Debug_8hpp.html" target="_top" xlink:title=" ">
<polygon fill="none" stroke="black" points="404.47,-112.5 404.47,-131.5 466.47,-131.5 466.47,-112.5 404.47,-112.5"/>
<text text-anchor="middle" x="435.47" y="-119.5" font-family="Helvetica,sans-Serif" font-size="10.00">Debug.hpp</text>
</a>
</g>
</g>
<!-- Node1&#45;&gt;Node14 -->
<g id="edge15" class="edge">
<title>Node1&#45;&gt;Node14</title>
<path fill="none" stroke="midnightblue" d="M582.45,-470.15C469.11,-461.52 213.47,-433.67 213.47,-358 213.47,-358 213.47,-358 213.47,-300 213.47,-208.06 331.32,-156.13 395.29,-134.72"/>
<polygon fill="midnightblue" stroke="midnightblue" points="396.64,-137.96 405.07,-131.54 394.48,-131.3 396.64,-137.96"/>
</g>
<!-- Node16 -->
<g id="node16" class="node">
<title>Node16</title>
<g id="a_node16"><a xlink:href="GameObject_8hpp.html" target="_top" xlink:title=" ">
<polygon fill="none" stroke="black" points="638.97,-168.5 638.97,-187.5 727.97,-187.5 727.97,-168.5 638.97,-168.5"/>
<text text-anchor="middle" x="683.47" y="-175.5" font-family="Helvetica,sans-Serif" font-size="10.00">GameObject.hpp</text>
</a>
</g>
</g>
<!-- Node1&#45;&gt;Node16 -->
<g id="edge19" class="edge">
<title>Node1&#45;&gt;Node16</title>
<path fill="none" stroke="midnightblue" d="M592.86,-459.47C526.41,-434.74 407.74,-377.67 428.47,-291 436.24,-258.52 435.91,-244.24 462.47,-224 469.14,-218.93 565.61,-200.53 628.87,-188.89"/>
<polygon fill="midnightblue" stroke="midnightblue" points="629.51,-192.33 638.72,-187.08 628.25,-185.45 629.51,-192.33"/>
</g>
<!-- Node19 -->
<g id="node19" class="node">
<title>Node19</title>
<g id="a_node19"><a xlink:href="GameLostBehaviour_8hpp.html" target="_top" xlink:title=" ">
<polygon fill="none" stroke="black" points="573.47,-347.5 573.47,-366.5 697.47,-366.5 697.47,-347.5 573.47,-347.5"/>
<text text-anchor="middle" x="635.47" y="-354.5" font-family="Helvetica,sans-Serif" font-size="10.00">GameLostBehaviour.hpp</text>
</a>
</g>
</g>
<!-- Node1&#45;&gt;Node19 -->
<g id="edge27" class="edge">
<title>Node1&#45;&gt;Node19</title>
<path fill="none" stroke="midnightblue" d="M635.47,-459.34C635.47,-438.62 635.47,-400.02 635.47,-376.9"/>
<polygon fill="midnightblue" stroke="midnightblue" points="638.97,-376.67 635.47,-366.67 631.97,-376.67 638.97,-376.67"/>
</g>
<!-- Node28 -->
<g id="node28" class="node">
<title>Node28</title>
<g id="a_node28"><a xlink:href="GameWonBehaviour_8hpp.html" target="_top" xlink:title=" ">
<polygon fill="none" stroke="black" points="916.47,-347.5 916.47,-366.5 1040.47,-366.5 1040.47,-347.5 916.47,-347.5"/>
<text text-anchor="middle" x="978.47" y="-354.5" font-family="Helvetica,sans-Serif" font-size="10.00">GameWonBehaviour.hpp</text>
</a>
</g>
</g>
<!-- Node1&#45;&gt;Node28 -->
<g id="edge52" class="edge">
<title>Node1&#45;&gt;Node28</title>
<path fill="none" stroke="midnightblue" d="M688.57,-468.6C739.62,-462.52 818.13,-449.51 881.47,-423 911.5,-410.43 942.02,-388.06 960.6,-373.12"/>
<polygon fill="midnightblue" stroke="midnightblue" points="962.97,-375.71 968.48,-366.66 958.53,-370.29 962.97,-375.71"/>
</g>
<!-- Node29 -->
<g id="node29" class="node">
<title>Node29</title>
<g id="a_node29"><a xlink:href="LevelController_8hpp.html" target="_top" xlink:title=" ">
<polygon fill="none" stroke="black" points="708.47,-403.5 708.47,-422.5 872.47,-422.5 872.47,-403.5 708.47,-403.5"/>
<text text-anchor="middle" x="790.47" y="-410.5" font-family="Helvetica,sans-Serif" font-size="10.00">../../Controllers/LevelController.hpp</text>
</a>
</g>
</g>
<!-- Node1&#45;&gt;Node29 -->
<g id="edge55" class="edge">
<title>Node1&#45;&gt;Node29</title>
<path fill="none" stroke="midnightblue" d="M672.21,-459.4C698.45,-449.33 733.4,-435.91 758.49,-426.28"/>
<polygon fill="midnightblue" stroke="midnightblue" points="759.84,-429.51 767.92,-422.66 757.33,-422.97 759.84,-429.51"/>
</g>
<!-- Node39 -->
<g id="node39" class="node">
<title>Node39</title>
<g id="a_node39"><a xlink:href="PlayerData_8hpp.html" target="_top" xlink:title=" ">
<polygon fill="none" stroke="black" points="1535.97,-168.5 1535.97,-187.5 1666.97,-187.5 1666.97,-168.5 1535.97,-168.5"/>
<text text-anchor="middle" x="1601.47" y="-175.5" font-family="Helvetica,sans-Serif" font-size="10.00">../../Structs/PlayerData.hpp</text>
</a>
</g>
</g>
<!-- Node1&#45;&gt;Node39 -->
<g id="edge82" class="edge">
<title>Node1&#45;&gt;Node39</title>
<path fill="none" stroke="midnightblue" d="M688.79,-472.78C891.3,-469.34 1601.47,-450.69 1601.47,-358 1601.47,-358 1601.47,-358 1601.47,-300 1601.47,-263.71 1601.47,-221.31 1601.47,-197.56"/>
<polygon fill="midnightblue" stroke="midnightblue" points="1604.97,-197.51 1601.47,-187.51 1597.97,-197.51 1604.97,-197.51"/>
</g>
<!-- Node41 -->
<g id="node41" class="node">
<title>Node41</title>
<g id="a_node41"><a xlink:href="SaveGameManager_8hpp.html" target="_top" xlink:title=" ">
<polygon fill="none" stroke="black" points="1437.97,-224.5 1437.97,-254.5 1572.97,-254.5 1572.97,-224.5 1437.97,-224.5"/>
<text text-anchor="start" x="1445.97" y="-242.5" font-family="Helvetica,sans-Serif" font-size="10.00">../../Persistence/SaveGame</text>
<text text-anchor="middle" x="1505.47" y="-231.5" font-family="Helvetica,sans-Serif" font-size="10.00">Manager.hpp</text>
</a>
</g>
</g>
<!-- Node1&#45;&gt;Node41 -->
<g id="edge85" class="edge">
<title>Node1&#45;&gt;Node41</title>
<path fill="none" stroke="midnightblue" d="M688.83,-471.42C802.52,-465.56 1075.71,-443.97 1289.47,-367 1362.84,-340.58 1439.47,-289.05 1478.75,-260.59"/>
<polygon fill="midnightblue" stroke="midnightblue" points="1481,-263.28 1487.01,-254.55 1476.87,-257.63 1481,-263.28"/>
</g>
<!-- Node3 -->
<g id="node3" class="node">
<title>Node3</title>
<g id="a_node3"><a xlink:href="BehaviourScript_8hpp.html" target="_top" xlink:title=" ">
<polygon fill="none" stroke="black" points="516.47,-168.5 516.47,-187.5 620.47,-187.5 620.47,-168.5 516.47,-168.5"/>
<text text-anchor="middle" x="568.47" y="-175.5" font-family="Helvetica,sans-Serif" font-size="10.00">BehaviourScript.hpp</text>
</a>
</g>
</g>
<!-- Node2&#45;&gt;Node3 -->
<g id="edge2" class="edge">
<title>Node2&#45;&gt;Node3</title>
<path fill="none" stroke="midnightblue" d="M395.42,-229.98C430.74,-219.57 490.6,-201.94 529.84,-190.38"/>
<polygon fill="midnightblue" stroke="midnightblue" points="530.98,-193.69 539.59,-187.51 529,-186.98 530.98,-193.69"/>
</g>
<!-- Node6 -->
<g id="node6" class="node">
<title>Node6</title>
<g id="a_node6"><a xlink:href="Collider_8hpp.html" target="_top" xlink:title=" ">
<polygon fill="none" stroke="black" points="484.97,-112.5 484.97,-131.5 551.97,-131.5 551.97,-112.5 484.97,-112.5"/>
<text text-anchor="middle" x="518.47" y="-119.5" font-family="Helvetica,sans-Serif" font-size="10.00">Collider.hpp</text>
</a>
</g>
</g>
<!-- Node2&#45;&gt;Node6 -->
<g id="edge7" class="edge">
<title>Node2&#45;&gt;Node6</title>
<path fill="none" stroke="midnightblue" d="M377.9,-229.82C403.65,-210.25 466.47,-162.52 498.69,-138.03"/>
<polygon fill="midnightblue" stroke="midnightblue" points="501.07,-140.62 506.92,-131.78 496.84,-135.05 501.07,-140.62"/>
</g>
<!-- Node2&#45;&gt;Node7 -->
<g id="edge8" class="edge">
<title>Node2&#45;&gt;Node7</title>
<path fill="none" stroke="midnightblue" d="M339.11,-229.98C305.92,-219.64 249.82,-202.16 212.72,-190.6"/>
<polygon fill="midnightblue" stroke="midnightblue" points="213.38,-187.14 202.79,-187.51 211.3,-193.82 213.38,-187.14"/>
</g>
<!-- Node12 -->
<g id="node12" class="node">
<title>Node12</title>
<g id="a_node12"><a xlink:title=" ">
<polygon fill="none" stroke="#bfbfbf" points="1258.97,-168.5 1258.97,-187.5 1293.97,-187.5 1293.97,-168.5 1258.97,-168.5"/>
<text text-anchor="middle" x="1276.47" y="-175.5" font-family="Helvetica,sans-Serif" font-size="10.00">map</text>
</a>
</g>
</g>
<!-- Node2&#45;&gt;Node12 -->
<g id="edge13" class="edge">
<title>Node2&#45;&gt;Node12</title>
<path fill="none" stroke="midnightblue" d="M415.69,-230.15C430.67,-227.86 447.22,-225.57 462.47,-224 769.82,-192.37 1144.89,-181.96 1248.7,-179.58"/>
<polygon fill="midnightblue" stroke="midnightblue" points="1249.04,-183.08 1258.96,-179.35 1248.88,-176.08 1249.04,-183.08"/>
</g>
<!-- Node13 -->
<g id="node13" class="node">
<title>Node13</title>
<g id="a_node13"><a xlink:title=" ">
<polygon fill="none" stroke="#bfbfbf" points="327.97,-168.5 327.97,-187.5 386.97,-187.5 386.97,-168.5 327.97,-168.5"/>
<text text-anchor="middle" x="357.47" y="-175.5" font-family="Helvetica,sans-Serif" font-size="10.00">functional</text>
</a>
</g>
</g>
<!-- Node2&#45;&gt;Node13 -->
<g id="edge14" class="edge">
<title>Node2&#45;&gt;Node13</title>
<path fill="none" stroke="midnightblue" d="M365.18,-229.98C363.91,-221.58 361.93,-208.48 360.3,-197.66"/>
<polygon fill="midnightblue" stroke="midnightblue" points="363.72,-196.87 358.76,-187.51 356.8,-197.92 363.72,-196.87"/>
</g>
<!-- Node4 -->
<g id="node4" class="node">
<title>Node4</title>
<g id="a_node4"><a xlink:href="Component_8hpp.html" target="_top" xlink:title=" ">
<polygon fill="none" stroke="black" points="659.47,-56.5 659.47,-75.5 743.47,-75.5 743.47,-56.5 659.47,-56.5"/>
<text text-anchor="middle" x="701.47" y="-63.5" font-family="Helvetica,sans-Serif" font-size="10.00">Component.hpp</text>
</a>
</g>
</g>
<!-- Node3&#45;&gt;Node4 -->
<g id="edge3" class="edge">
<title>Node3&#45;&gt;Node4</title>
<path fill="none" stroke="midnightblue" d="M578.91,-168.37C601.44,-149.73 654.88,-105.53 683.18,-82.13"/>
<polygon fill="midnightblue" stroke="midnightblue" points="685.61,-84.66 691.09,-75.59 681.15,-79.27 685.61,-84.66"/>
</g>
<!-- Node3&#45;&gt;Node6 -->
<g id="edge5" class="edge">
<title>Node3&#45;&gt;Node6</title>
<path fill="none" stroke="midnightblue" d="M560.22,-168.08C553.01,-160.3 542.36,-148.8 533.63,-139.37"/>
<polygon fill="midnightblue" stroke="midnightblue" points="535.94,-136.71 526.58,-131.75 530.8,-141.47 535.94,-136.71"/>
</g>
<!-- Node5 -->
<g id="node5" class="node">
<title>Node5</title>
<g id="a_node5"><a xlink:title=" ">
<polygon fill="none" stroke="#bfbfbf" points="784.97,-0.5 784.97,-19.5 835.97,-19.5 835.97,-0.5 784.97,-0.5"/>
<text text-anchor="middle" x="810.47" y="-7.5" font-family="Helvetica,sans-Serif" font-size="10.00">memory</text>
</a>
</g>
</g>
<!-- Node4&#45;&gt;Node5 -->
<g id="edge4" class="edge">
<title>Node4&#45;&gt;Node5</title>
<path fill="none" stroke="midnightblue" d="M718.99,-56.32C736.55,-47.62 763.81,-34.12 784.01,-24.11"/>
<polygon fill="midnightblue" stroke="midnightblue" points="785.6,-27.23 793,-19.65 782.49,-20.96 785.6,-27.23"/>
</g>
<!-- Node6&#45;&gt;Node4 -->
<g id="edge6" class="edge">
<title>Node6&#45;&gt;Node4</title>
<path fill="none" stroke="midnightblue" d="M547.47,-112.44C578.66,-103.24 628.4,-88.56 662.88,-78.39"/>
<polygon fill="midnightblue" stroke="midnightblue" points="664.01,-81.7 672.61,-75.52 662.03,-74.99 664.01,-81.7"/>
</g>
<!-- Node8 -->
<g id="node8" class="node">
<title>Node8</title>
<g id="a_node8"><a xlink:href="Point_8hpp.html" target="_top" xlink:title=" ">
<polygon fill="none" stroke="black" points="318.97,-56.5 318.97,-75.5 375.97,-75.5 375.97,-56.5 318.97,-56.5"/>
<text text-anchor="middle" x="347.47" y="-63.5" font-family="Helvetica,sans-Serif" font-size="10.00">Point.hpp</text>
</a>
</g>
</g>
<!-- Node7&#45;&gt;Node8 -->
<g id="edge9" class="edge">
<title>Node7&#45;&gt;Node8</title>
<path fill="none" stroke="midnightblue" d="M147.39,-175.64C89.98,-171.88 -32.12,-158.34 8.47,-112 28.05,-89.65 224.24,-74.74 308.91,-69.3"/>
<polygon fill="midnightblue" stroke="midnightblue" points="309.14,-72.79 318.9,-68.67 308.7,-65.81 309.14,-72.79"/>
</g>
<!-- Node9 -->
<g id="node9" class="node">
<title>Node9</title>
<g id="a_node9"><a xlink:href="IKeyListener_8hpp.html" target="_top" xlink:title=" ">
<polygon fill="none" stroke="black" points="17.97,-112.5 17.97,-131.5 106.97,-131.5 106.97,-112.5 17.97,-112.5"/>
<text text-anchor="middle" x="62.47" y="-119.5" font-family="Helvetica,sans-Serif" font-size="10.00">IKeyListener.hpp</text>
</a>
</g>
</g>
<!-- Node7&#45;&gt;Node9 -->
<g id="edge10" class="edge">
<title>Node7&#45;&gt;Node9</title>
<path fill="none" stroke="midnightblue" d="M157.57,-168.44C139.22,-159.68 110.47,-145.94 89.38,-135.86"/>
<polygon fill="midnightblue" stroke="midnightblue" points="90.83,-132.67 80.3,-131.52 87.81,-138.99 90.83,-132.67"/>
</g>
<!-- Node10 -->
<g id="node10" class="node">
<title>Node10</title>
<g id="a_node10"><a xlink:href="IMouseListener_8hpp.html" target="_top" xlink:title=" ">
<polygon fill="none" stroke="black" points="124.47,-112.5 124.47,-131.5 226.47,-131.5 226.47,-112.5 124.47,-112.5"/>
<text text-anchor="middle" x="175.47" y="-119.5" font-family="Helvetica,sans-Serif" font-size="10.00">IMouseListener.hpp</text>
</a>
</g>
</g>
<!-- Node7&#45;&gt;Node10 -->
<g id="edge11" class="edge">
<title>Node7&#45;&gt;Node10</title>
<path fill="none" stroke="midnightblue" d="M175.47,-168.08C175.47,-161.01 175.47,-150.86 175.47,-141.99"/>
<polygon fill="midnightblue" stroke="midnightblue" points="178.97,-141.75 175.47,-131.75 171.97,-141.75 178.97,-141.75"/>
</g>
<!-- Node11 -->
<g id="node11" class="node">
<title>Node11</title>
<g id="a_node11"><a xlink:title=" ">
<polygon fill="none" stroke="#bfbfbf" points="1171.97,-56.5 1171.97,-75.5 1212.97,-75.5 1212.97,-56.5 1171.97,-56.5"/>
<text text-anchor="middle" x="1192.47" y="-63.5" font-family="Helvetica,sans-Serif" font-size="10.00">string</text>
</a>
</g>
</g>
<!-- Node7&#45;&gt;Node11 -->
<g id="edge12" class="edge">
<title>Node7&#45;&gt;Node11</title>
<path fill="none" stroke="midnightblue" d="M203.73,-175.06C304.32,-168.12 644.83,-144.26 753.47,-132 833.58,-122.96 1076.08,-85.26 1161.94,-71.8"/>
<polygon fill="midnightblue" stroke="midnightblue" points="1162.51,-75.26 1171.84,-70.25 1161.42,-68.34 1162.51,-75.26"/>
</g>
<!-- Node14&#45;&gt;Node8 -->
<g id="edge16" class="edge">
<title>Node14&#45;&gt;Node8</title>
<path fill="none" stroke="midnightblue" d="M421.34,-112.32C407.61,-103.9 386.54,-90.97 370.41,-81.07"/>
<polygon fill="midnightblue" stroke="midnightblue" points="371.93,-77.9 361.58,-75.65 368.27,-83.87 371.93,-77.9"/>
</g>
<!-- Node14&#45;&gt;Node11 -->
<g id="edge18" class="edge">
<title>Node14&#45;&gt;Node11</title>
<path fill="none" stroke="midnightblue" d="M466.72,-113.62C470,-113 473.3,-112.45 476.47,-112 739.81,-75.05 1061.9,-68.43 1161.59,-67.25"/>
<polygon fill="midnightblue" stroke="midnightblue" points="1161.89,-70.75 1171.85,-67.14 1161.82,-63.75 1161.89,-70.75"/>
</g>
<!-- Node15 -->
<g id="node15" class="node">
<title>Node15</title>
<g id="a_node15"><a xlink:href="Color_8hpp.html" target="_top" xlink:title=" ">
<polygon fill="none" stroke="black" points="469.97,-56.5 469.97,-75.5 526.97,-75.5 526.97,-56.5 469.97,-56.5"/>
<text text-anchor="middle" x="498.47" y="-63.5" font-family="Helvetica,sans-Serif" font-size="10.00">Color.hpp</text>
</a>
</g>
</g>
<!-- Node14&#45;&gt;Node15 -->
<g id="edge17" class="edge">
<title>Node14&#45;&gt;Node15</title>
<path fill="none" stroke="midnightblue" d="M445.6,-112.32C455,-104.26 469.22,-92.08 480.54,-82.37"/>
<polygon fill="midnightblue" stroke="midnightblue" points="482.85,-85 488.17,-75.83 478.3,-79.68 482.85,-85"/>
</g>
<!-- Node16&#45;&gt;Node4 -->
<g id="edge20" class="edge">
<title>Node16&#45;&gt;Node4</title>
<path fill="none" stroke="midnightblue" d="M680.38,-168.44C676.28,-155.87 670.17,-131.77 675.47,-112 678.13,-102.1 683.54,-92.13 688.75,-84.1"/>
<polygon fill="midnightblue" stroke="midnightblue" points="691.76,-85.89 694.58,-75.68 686.01,-81.91 691.76,-85.89"/>
</g>
<!-- Node16&#45;&gt;Node5 -->
<g id="edge25" class="edge">
<title>Node16&#45;&gt;Node5</title>
<path fill="none" stroke="midnightblue" d="M676.62,-168.43C660.53,-147.22 623.65,-91.41 650.47,-56 665.44,-36.24 732.4,-22.73 774.81,-15.99"/>
<polygon fill="midnightblue" stroke="midnightblue" points="775.41,-19.44 784.76,-14.46 774.35,-12.52 775.41,-19.44"/>
</g>
<!-- Node16&#45;&gt;Node11 -->
<g id="edge23" class="edge">
<title>Node16&#45;&gt;Node11</title>
<path fill="none" stroke="midnightblue" d="M725.52,-168.47C769.26,-159.55 839.72,-145.06 900.47,-132 996.15,-111.43 1109.19,-85.92 1162.19,-73.89"/>
<polygon fill="midnightblue" stroke="midnightblue" points="1162.99,-77.3 1171.96,-71.67 1161.44,-70.48 1162.99,-77.3"/>
</g>
<!-- Node17 -->
<g id="node17" class="node">
<title>Node17</title>
<g id="a_node17"><a xlink:href="Transform_8hpp.html" target="_top" xlink:title=" ">
<polygon fill="none" stroke="black" points="307.97,-112.5 307.97,-131.5 386.97,-131.5 386.97,-112.5 307.97,-112.5"/>
<text text-anchor="middle" x="347.47" y="-119.5" font-family="Helvetica,sans-Serif" font-size="10.00">Transform.hpp</text>
</a>
</g>
</g>
<!-- Node16&#45;&gt;Node17 -->
<g id="edge21" class="edge">
<title>Node16&#45;&gt;Node17</title>
<path fill="none" stroke="midnightblue" d="M638.69,-169.49C635.57,-168.98 632.48,-168.48 629.47,-168 528.72,-151.85 500.87,-149.81 396.97,-132.21"/>
<polygon fill="midnightblue" stroke="midnightblue" points="397.45,-128.75 387.01,-130.52 396.28,-135.65 397.45,-128.75"/>
</g>
<!-- Node18 -->
<g id="node18" class="node">
<title>Node18</title>
<g id="a_node18"><a xlink:title=" ">
<polygon fill="none" stroke="#bfbfbf" points="1030.47,-112.5 1030.47,-131.5 1074.47,-131.5 1074.47,-112.5 1030.47,-112.5"/>
<text text-anchor="middle" x="1052.47" y="-119.5" font-family="Helvetica,sans-Serif" font-size="10.00">vector</text>
</a>
</g>
</g>
<!-- Node16&#45;&gt;Node18 -->
<g id="edge24" class="edge">
<title>Node16&#45;&gt;Node18</title>
<path fill="none" stroke="midnightblue" d="M728.25,-169.45C731.37,-168.95 734.47,-168.47 737.47,-168 840.56,-152.05 962.96,-135.15 1020.09,-127.37"/>
<polygon fill="midnightblue" stroke="midnightblue" points="1020.86,-130.8 1030.3,-125.99 1019.92,-123.86 1020.86,-130.8"/>
</g>
<!-- Node17&#45;&gt;Node8 -->
<g id="edge22" class="edge">
<title>Node17&#45;&gt;Node8</title>
<path fill="none" stroke="midnightblue" d="M347.47,-112.08C347.47,-105.01 347.47,-94.86 347.47,-85.99"/>
<polygon fill="midnightblue" stroke="midnightblue" points="350.97,-85.75 347.47,-75.75 343.97,-85.75 350.97,-85.75"/>
</g>
<!-- Node19&#45;&gt;Node3 -->
<g id="edge28" class="edge">
<title>Node19&#45;&gt;Node3</title>
<path fill="none" stroke="midnightblue" d="M632.48,-347.29C625.15,-326.08 605.57,-270.08 587.47,-224 583.94,-215.01 579.79,-205.11 576.27,-196.89"/>
<polygon fill="midnightblue" stroke="midnightblue" points="579.43,-195.36 572.25,-187.57 573,-198.14 579.43,-195.36"/>
</g>
<!-- Node20 -->
<g id="node20" class="node">
<title>Node20</title>
<g id="a_node20"><a xlink:href="LevelData_8hpp.html" target="_top" xlink:title=" ">
<polygon fill="none" stroke="black" points="906.47,-291.5 906.47,-310.5 1034.47,-310.5 1034.47,-291.5 906.47,-291.5"/>
<text text-anchor="middle" x="970.47" y="-298.5" font-family="Helvetica,sans-Serif" font-size="10.00">../../Structs/LevelData.hpp</text>
</a>
</g>
</g>
<!-- Node19&#45;&gt;Node20 -->
<g id="edge29" class="edge">
<title>Node19&#45;&gt;Node20</title>
<path fill="none" stroke="midnightblue" d="M688.56,-347.44C747.98,-337.87 844.19,-322.36 907.4,-312.17"/>
<polygon fill="midnightblue" stroke="midnightblue" points="908.32,-315.56 917.64,-310.52 907.21,-308.65 908.32,-315.56"/>
</g>
<!-- Node21 -->
<g id="node21" class="node">
<title>Node21</title>
<g id="a_node21"><a xlink:href="WaveData_8hpp.html" target="_top" xlink:title=" ">
<polygon fill="none" stroke="black" points="862.47,-230 862.47,-249 942.47,-249 942.47,-230 862.47,-230"/>
<text text-anchor="middle" x="902.47" y="-237" font-family="Helvetica,sans-Serif" font-size="10.00">WaveData.hpp</text>
</a>
</g>
</g>
<!-- Node20&#45;&gt;Node21 -->
<g id="edge30" class="edge">
<title>Node20&#45;&gt;Node21</title>
<path fill="none" stroke="midnightblue" d="M960.73,-291.48C950.13,-282.2 932.95,-267.17 920,-255.83"/>
<polygon fill="midnightblue" stroke="midnightblue" points="922.03,-252.96 912.2,-249.01 917.42,-258.23 922.03,-252.96"/>
</g>
<!-- Node22 -->
<g id="node22" class="node">
<title>Node22</title>
<g id="a_node22"><a xlink:title=" ">
<polygon fill="none" stroke="#bfbfbf" points="930.97,-168.5 930.97,-187.5 973.97,-187.5 973.97,-168.5 930.97,-168.5"/>
<text text-anchor="middle" x="952.47" y="-175.5" font-family="Helvetica,sans-Serif" font-size="10.00">queue</text>
</a>
</g>
</g>
<!-- Node20&#45;&gt;Node22 -->
<g id="edge51" class="edge">
<title>Node20&#45;&gt;Node22</title>
<path fill="none" stroke="midnightblue" d="M969.18,-291.3C966.27,-271.76 959.18,-224.06 955.23,-197.55"/>
<polygon fill="midnightblue" stroke="midnightblue" points="958.69,-197 953.76,-187.62 951.77,-198.03 958.69,-197"/>
</g>
<!-- Node23 -->
<g id="node23" class="node">
<title>Node23</title>
<g id="a_node23"><a xlink:href="MapNode_8hpp.html" target="_top" xlink:title=" ">
<polygon fill="none" stroke="black" points="998.97,-230 998.97,-249 1075.97,-249 1075.97,-230 998.97,-230"/>
<text text-anchor="middle" x="1037.47" y="-237" font-family="Helvetica,sans-Serif" font-size="10.00">MapNode.hpp</text>
</a>
</g>
</g>
<!-- Node20&#45;&gt;Node23 -->
<g id="edge35" class="edge">
<title>Node20&#45;&gt;Node23</title>
<path fill="none" stroke="midnightblue" d="M980.07,-291.48C990.52,-282.2 1007.44,-267.17 1020.21,-255.83"/>
<polygon fill="midnightblue" stroke="midnightblue" points="1022.74,-258.27 1027.89,-249.01 1018.09,-253.03 1022.74,-258.27"/>
</g>
<!-- Node25 -->
<g id="node25" class="node">
<title>Node25</title>
<g id="a_node25"><a xlink:href="HealthBehaviour_8hpp.html" target="_top" xlink:title=" ">
<polygon fill="none" stroke="black" points="716.47,-224.5 716.47,-254.5 844.47,-254.5 844.47,-224.5 716.47,-224.5"/>
<text text-anchor="start" x="724.47" y="-242.5" font-family="Helvetica,sans-Serif" font-size="10.00">../Scripts/Common/Health</text>
<text text-anchor="middle" x="780.47" y="-231.5" font-family="Helvetica,sans-Serif" font-size="10.00">Behaviour.hpp</text>
</a>
</g>
</g>
<!-- Node20&#45;&gt;Node25 -->
<g id="edge40" class="edge">
<title>Node20&#45;&gt;Node25</title>
<path fill="none" stroke="midnightblue" d="M943.25,-291.48C915.11,-282.66 870.42,-268.67 834.98,-257.57"/>
<polygon fill="midnightblue" stroke="midnightblue" points="835.84,-254.17 825.25,-254.52 833.75,-260.85 835.84,-254.17"/>
</g>
<!-- Node21&#45;&gt;Node5 -->
<g id="edge32" class="edge">
<title>Node21&#45;&gt;Node5</title>
<path fill="none" stroke="midnightblue" d="M900.59,-229.77C894.58,-202.85 874.36,-119.11 842.47,-56 837.46,-46.07 830.41,-35.9 824.21,-27.74"/>
<polygon fill="midnightblue" stroke="midnightblue" points="826.89,-25.48 817.95,-19.79 821.39,-29.81 826.89,-25.48"/>
</g>
<!-- Node21&#45;&gt;Node12 -->
<g id="edge31" class="edge">
<title>Node21&#45;&gt;Node12</title>
<path fill="none" stroke="midnightblue" d="M942.77,-231.8C957.74,-229.32 974.88,-226.51 990.47,-224 1085.22,-208.74 1197.71,-191.21 1248.79,-183.29"/>
<polygon fill="midnightblue" stroke="midnightblue" points="1249.38,-186.74 1258.73,-181.75 1248.31,-179.82 1249.38,-186.74"/>
</g>
<!-- Node21&#45;&gt;Node16 -->
<g id="edge34" class="edge">
<title>Node21&#45;&gt;Node16</title>
<path fill="none" stroke="midnightblue" d="M874.01,-229.93C867.29,-227.94 860.14,-225.87 853.47,-224 810.4,-211.93 760.93,-198.93 726.51,-190.02"/>
<polygon fill="midnightblue" stroke="midnightblue" points="727.33,-186.62 716.78,-187.51 725.58,-193.4 727.33,-186.62"/>
</g>
<!-- Node21&#45;&gt;Node22 -->
<g id="edge33" class="edge">
<title>Node21&#45;&gt;Node22</title>
<path fill="none" stroke="midnightblue" d="M909.64,-229.98C917.21,-220.96 929.34,-206.52 938.77,-195.31"/>
<polygon fill="midnightblue" stroke="midnightblue" points="941.57,-197.42 945.32,-187.51 936.21,-192.91 941.57,-197.42"/>
</g>
<!-- Node23&#45;&gt;Node5 -->
<g id="edge37" class="edge">
<title>Node23&#45;&gt;Node5</title>
<path fill="none" stroke="midnightblue" d="M1031.62,-229.86C1022.16,-216.17 1002.66,-188.89 983.47,-168 933.46,-113.55 915.28,-105.62 860.47,-56 849.63,-46.18 837.42,-35.19 827.78,-26.53"/>
<polygon fill="midnightblue" stroke="midnightblue" points="829.85,-23.69 820.07,-19.61 825.18,-28.9 829.85,-23.69"/>
</g>
<!-- Node23&#45;&gt;Node16 -->
<g id="edge38" class="edge">
<title>Node23&#45;&gt;Node16</title>
<path fill="none" stroke="midnightblue" d="M998.95,-232C984.11,-229.5 967,-226.61 951.47,-224 877.61,-211.57 792.28,-197.25 738.12,-188.16"/>
<polygon fill="midnightblue" stroke="midnightblue" points="738.49,-184.68 728.05,-186.48 737.33,-191.58 738.49,-184.68"/>
</g>
<!-- Node23&#45;&gt;Node18 -->
<g id="edge36" class="edge">
<title>Node23&#45;&gt;Node18</title>
<path fill="none" stroke="midnightblue" d="M1038.6,-229.82C1041.01,-211.26 1046.72,-167.34 1050.01,-141.97"/>
<polygon fill="midnightblue" stroke="midnightblue" points="1053.52,-142.15 1051.33,-131.78 1046.57,-141.25 1053.52,-142.15"/>
</g>
<!-- Node24 -->
<g id="node24" class="node">
<title>Node24</title>
<g id="a_node24"><a xlink:href="TileType_8hpp.html" target="_top" xlink:title=" ">
<polygon fill="none" stroke="black" points="1229.47,-112.5 1229.47,-131.5 1341.47,-131.5 1341.47,-112.5 1229.47,-112.5"/>
<text text-anchor="middle" x="1285.47" y="-119.5" font-family="Helvetica,sans-Serif" font-size="10.00">../Enums/TileType.hpp</text>
</a>
</g>
</g>
<!-- Node23&#45;&gt;Node24 -->
<g id="edge39" class="edge">
<title>Node23&#45;&gt;Node24</title>
<path fill="none" stroke="midnightblue" d="M1056.11,-229.82C1099.4,-209.66 1206.89,-159.6 1257.84,-135.87"/>
<polygon fill="midnightblue" stroke="midnightblue" points="1259.37,-139.02 1266.96,-131.62 1256.41,-132.67 1259.37,-139.02"/>
</g>
<!-- Node25&#45;&gt;Node3 -->
<g id="edge41" class="edge">
<title>Node25&#45;&gt;Node3</title>
<path fill="none" stroke="midnightblue" d="M730.5,-224.47C693.29,-214.03 643.15,-199.96 608.55,-190.25"/>
<polygon fill="midnightblue" stroke="midnightblue" points="609.36,-186.84 598.78,-187.51 607.46,-193.58 609.36,-186.84"/>
</g>
<!-- Node25&#45;&gt;Node5 -->
<g id="edge42" class="edge">
<title>Node25&#45;&gt;Node5</title>
<path fill="none" stroke="midnightblue" d="M800.32,-224.33C811.16,-215.31 823.55,-202.6 829.47,-188 851.59,-133.45 830.28,-62.09 817.92,-29.13"/>
<polygon fill="midnightblue" stroke="midnightblue" points="821.05,-27.54 814.15,-19.51 814.54,-30.1 821.05,-27.54"/>
</g>
<!-- Node26 -->
<g id="node26" class="node">
<title>Node26</title>
<g id="a_node26"><a xlink:href="Animator_8hpp.html" target="_top" xlink:title=" ">
<polygon fill="none" stroke="black" points="746.47,-168.5 746.47,-187.5 820.47,-187.5 820.47,-168.5 746.47,-168.5"/>
<text text-anchor="middle" x="783.47" y="-175.5" font-family="Helvetica,sans-Serif" font-size="10.00">Animator.hpp</text>
</a>
</g>
</g>
<!-- Node25&#45;&gt;Node26 -->
<g id="edge43" class="edge">
<title>Node25&#45;&gt;Node26</title>
<path fill="none" stroke="midnightblue" d="M781.18,-224.4C781.58,-216.47 782.09,-206.46 782.52,-197.86"/>
<polygon fill="midnightblue" stroke="midnightblue" points="786.03,-197.82 783.04,-187.66 779.04,-197.47 786.03,-197.82"/>
</g>
<!-- Node26&#45;&gt;Node4 -->
<g id="edge44" class="edge">
<title>Node26&#45;&gt;Node4</title>
<path fill="none" stroke="midnightblue" d="M780.81,-168.38C776.5,-155.3 767.07,-130.08 753.47,-112 744.84,-100.52 732.84,-89.89 722.54,-81.85"/>
<polygon fill="midnightblue" stroke="midnightblue" points="724.5,-78.95 714.4,-75.74 720.29,-84.54 724.5,-78.95"/>
</g>
<!-- Node26&#45;&gt;Node5 -->
<g id="edge50" class="edge">
<title>Node26&#45;&gt;Node5</title>
<path fill="none" stroke="midnightblue" d="M784.93,-168.08C789.18,-141.95 801.66,-65.21 807.45,-29.58"/>
<polygon fill="midnightblue" stroke="midnightblue" points="810.93,-30 809.08,-19.57 804.02,-28.88 810.93,-30"/>
</g>
<!-- Node26&#45;&gt;Node18 -->
<g id="edge49" class="edge">
<title>Node26&#45;&gt;Node18</title>
<path fill="none" stroke="midnightblue" d="M820.59,-169.55C873.61,-158.91 970.13,-139.53 1020.28,-129.46"/>
<polygon fill="midnightblue" stroke="midnightblue" points="1021.13,-132.86 1030.25,-127.46 1019.76,-126 1021.13,-132.86"/>
</g>
<!-- Node27 -->
<g id="node27" class="node">
<title>Node27</title>
<g id="a_node27"><a xlink:href="Sprite_8hpp.html" target="_top" xlink:title=" ">
<polygon fill="none" stroke="black" points="684.47,-112.5 684.47,-131.5 744.47,-131.5 744.47,-112.5 684.47,-112.5"/>
<text text-anchor="middle" x="714.47" y="-119.5" font-family="Helvetica,sans-Serif" font-size="10.00">Sprite.hpp</text>
</a>
</g>
</g>
<!-- Node26&#45;&gt;Node27 -->
<g id="edge45" class="edge">
<title>Node26&#45;&gt;Node27</title>
<path fill="none" stroke="midnightblue" d="M772.39,-168.32C761.99,-160.18 746.21,-147.84 733.75,-138.09"/>
<polygon fill="midnightblue" stroke="midnightblue" points="735.79,-135.24 725.76,-131.83 731.48,-140.75 735.79,-135.24"/>
</g>
<!-- Node27&#45;&gt;Node4 -->
<g id="edge46" class="edge">
<title>Node27&#45;&gt;Node4</title>
<path fill="none" stroke="midnightblue" d="M712.33,-112.08C710.6,-104.93 708.13,-94.64 705.97,-85.69"/>
<polygon fill="midnightblue" stroke="midnightblue" points="709.32,-84.65 703.58,-75.75 702.52,-86.29 709.32,-84.65"/>
</g>
<!-- Node27&#45;&gt;Node11 -->
<g id="edge48" class="edge">
<title>Node27&#45;&gt;Node11</title>
<path fill="none" stroke="midnightblue" d="M744.74,-117.58C830.63,-107.88 1075.3,-80.24 1161.75,-70.47"/>
<polygon fill="midnightblue" stroke="midnightblue" points="1162.18,-73.94 1171.72,-69.34 1161.39,-66.99 1162.18,-73.94"/>
</g>
<!-- Node27&#45;&gt;Node15 -->
<g id="edge47" class="edge">
<title>Node27&#45;&gt;Node15</title>
<path fill="none" stroke="midnightblue" d="M684.44,-113.49C645.99,-103.88 579.33,-87.21 537.13,-76.66"/>
<polygon fill="midnightblue" stroke="midnightblue" points="537.77,-73.22 527.22,-74.19 536.07,-80.01 537.77,-73.22"/>
</g>
<!-- Node28&#45;&gt;Node3 -->
<g id="edge53" class="edge">
<title>Node28&#45;&gt;Node3</title>
<path fill="none" stroke="midnightblue" d="M951.8,-347.48C902.62,-331.46 794.7,-294.85 707.47,-255 665.4,-235.78 618.62,-209.01 591.47,-192.91"/>
<polygon fill="midnightblue" stroke="midnightblue" points="593.11,-189.81 582.73,-187.69 589.52,-195.82 593.11,-189.81"/>
</g>
<!-- Node28&#45;&gt;Node20 -->
<g id="edge54" class="edge">
<title>Node28&#45;&gt;Node20</title>
<path fill="none" stroke="midnightblue" d="M977.15,-347.08C976.09,-339.93 974.57,-329.64 973.24,-320.69"/>
<polygon fill="midnightblue" stroke="midnightblue" points="976.7,-320.13 971.77,-310.75 969.77,-321.16 976.7,-320.13"/>
</g>
<!-- Node29&#45;&gt;Node3 -->
<g id="edge62" class="edge">
<title>Node29&#45;&gt;Node3</title>
<path fill="none" stroke="midnightblue" d="M708.45,-406.42C651.49,-400.64 582.68,-389.19 564.47,-367 543.66,-341.63 558,-240.17 565.12,-197.77"/>
<polygon fill="midnightblue" stroke="midnightblue" points="568.57,-198.36 566.83,-187.91 561.67,-197.17 568.57,-198.36"/>
</g>
<!-- Node29&#45;&gt;Node5 -->
<g id="edge58" class="edge">
<title>Node29&#45;&gt;Node5</title>
<path fill="none" stroke="midnightblue" d="M708.26,-409.85C643.07,-405.9 550.58,-395.25 474.47,-367 387.9,-334.87 344.13,-335.82 299.47,-255 268.74,-199.37 292.32,-175.26 298.47,-112 300.93,-86.75 290.63,-72.98 309.47,-56 343.89,-25 665.44,-14.47 774.49,-11.78"/>
<polygon fill="midnightblue" stroke="midnightblue" points="774.75,-15.27 784.66,-11.54 774.58,-8.28 774.75,-15.27"/>
</g>
<!-- Node29&#45;&gt;Node11 -->
<g id="edge59" class="edge">
<title>Node29&#45;&gt;Node11</title>
<path fill="none" stroke="midnightblue" d="M872.57,-408.57C948.48,-403.83 1054.28,-392.7 1086.47,-367 1176.97,-294.76 1190.34,-139.68 1192.21,-85.86"/>
<polygon fill="midnightblue" stroke="midnightblue" points="1195.71,-85.81 1192.46,-75.72 1188.71,-85.63 1195.71,-85.81"/>
</g>
<!-- Node29&#45;&gt;Node12 -->
<g id="edge56" class="edge">
<title>Node29&#45;&gt;Node12</title>
<path fill="none" stroke="midnightblue" d="M872.68,-410.11C987.76,-406.44 1190.36,-395.97 1257.47,-367 1292.18,-352.02 1305.86,-345.42 1321.47,-311 1339.73,-270.77 1309.09,-220.82 1289.99,-195.45"/>
<polygon fill="midnightblue" stroke="midnightblue" points="1292.74,-193.28 1283.82,-187.56 1287.22,-197.59 1292.74,-193.28"/>
</g>
<!-- Node29&#45;&gt;Node16 -->
<g id="edge67" class="edge">
<title>Node29&#45;&gt;Node16</title>
<path fill="none" stroke="midnightblue" d="M708.45,-406.42C651.49,-400.64 582.68,-389.19 564.47,-367 515.43,-307.23 615.82,-226 661.96,-193.4"/>
<polygon fill="midnightblue" stroke="midnightblue" points="664.17,-196.12 670.4,-187.55 660.19,-190.37 664.17,-196.12"/>
</g>
<!-- Node29&#45;&gt;Node18 -->
<g id="edge57" class="edge">
<title>Node29&#45;&gt;Node18</title>
<path fill="none" stroke="midnightblue" d="M872.64,-408.8C943.59,-404.26 1038.77,-393.32 1065.47,-367 1127.42,-305.95 1081.8,-186.18 1061.18,-140.91"/>
<polygon fill="midnightblue" stroke="midnightblue" points="1064.3,-139.31 1056.88,-131.75 1057.96,-142.28 1064.3,-139.31"/>
</g>
<!-- Node29&#45;&gt;Node19 -->
<g id="edge81" class="edge">
<title>Node29&#45;&gt;Node19</title>
<path fill="none" stroke="midnightblue" d="M765.91,-403.44C739.95,-394.4 698.81,-380.06 669.68,-369.92"/>
<polygon fill="midnightblue" stroke="midnightblue" points="670.51,-366.5 659.92,-366.52 668.21,-373.11 670.51,-366.5"/>
</g>
<!-- Node29&#45;&gt;Node20 -->
<g id="edge79" class="edge">
<title>Node29&#45;&gt;Node20</title>
<path fill="none" stroke="midnightblue" d="M872.59,-408.92C939.74,-404.47 1027.11,-393.59 1049.47,-367 1067.3,-345.81 1034.12,-326.33 1005.45,-314.33"/>
<polygon fill="midnightblue" stroke="midnightblue" points="1006.57,-311 995.98,-310.55 1003.97,-317.51 1006.57,-311"/>
</g>
<!-- Node30 -->
<g id="node30" class="node">
<title>Node30</title>
<g id="a_node30"><a xlink:title=" ">
<polygon fill="none" stroke="#bfbfbf" points="1210.47,-347.5 1210.47,-366.5 1248.47,-366.5 1248.47,-347.5 1210.47,-347.5"/>
<text text-anchor="middle" x="1229.47" y="-354.5" font-family="Helvetica,sans-Serif" font-size="10.00">tuple</text>
</a>
</g>
</g>
<!-- Node29&#45;&gt;Node30 -->
<g id="edge60" class="edge">
<title>Node29&#45;&gt;Node30</title>
<path fill="none" stroke="midnightblue" d="M872.69,-406.66C955.1,-400.43 1085.36,-388.18 1196.47,-367 1197.75,-366.76 1199.06,-366.49 1200.37,-366.2"/>
<polygon fill="midnightblue" stroke="midnightblue" points="1201.52,-369.52 1210.4,-363.74 1199.85,-362.72 1201.52,-369.52"/>
</g>
<!-- Node31 -->
<g id="node31" class="node">
<title>Node31</title>
<g id="a_node31"><a xlink:title=" ">
<polygon fill="none" stroke="#bfbfbf" points="715.97,-347.5 715.97,-366.5 756.97,-366.5 756.97,-347.5 715.97,-347.5"/>
<text text-anchor="middle" x="736.47" y="-354.5" font-family="Helvetica,sans-Serif" font-size="10.00">stack</text>
</a>
</g>
</g>
<!-- Node29&#45;&gt;Node31 -->
<g id="edge61" class="edge">
<title>Node29&#45;&gt;Node31</title>
<path fill="none" stroke="midnightblue" d="M781.56,-403.08C773.69,-395.22 762.04,-383.57 752.56,-374.08"/>
<polygon fill="midnightblue" stroke="midnightblue" points="754.77,-371.35 745.22,-366.75 749.82,-376.3 754.77,-371.35"/>
</g>
<!-- Node32 -->
<g id="node32" class="node">
<title>Node32</title>
<g id="a_node32"><a xlink:href="Button_8hpp.html" target="_top" xlink:title=" ">
<polygon fill="none" stroke="black" points="437.97,-291.5 437.97,-310.5 500.97,-310.5 500.97,-291.5 437.97,-291.5"/>
<text text-anchor="middle" x="469.47" y="-298.5" font-family="Helvetica,sans-Serif" font-size="10.00">Button.hpp</text>
</a>
</g>
</g>
<!-- Node29&#45;&gt;Node32 -->
<g id="edge63" class="edge">
<title>Node29&#45;&gt;Node32</title>
<path fill="none" stroke="midnightblue" d="M708.35,-408.77C632.06,-404.17 525.56,-393.15 493.47,-367 479.65,-355.74 473.79,-335.73 471.3,-320.87"/>
<polygon fill="midnightblue" stroke="midnightblue" points="474.75,-320.22 469.99,-310.75 467.81,-321.12 474.75,-320.22"/>
</g>
<!-- Node34 -->
<g id="node34" class="node">
<title>Node34</title>
<g id="a_node34"><a xlink:href="LevelWithTiles_8hpp.html" target="_top" xlink:title=" ">
<polygon fill="none" stroke="black" points="1170.97,-291.5 1170.97,-310.5 1311.97,-310.5 1311.97,-291.5 1170.97,-291.5"/>
<text text-anchor="middle" x="1241.47" y="-298.5" font-family="Helvetica,sans-Serif" font-size="10.00">../Structs/LevelWithTiles.hpp</text>
</a>
</g>
</g>
<!-- Node29&#45;&gt;Node34 -->
<g id="edge68" class="edge">
<title>Node29&#45;&gt;Node34</title>
<path fill="none" stroke="midnightblue" d="M872.5,-407.1C964.8,-400.69 1108.38,-387.77 1158.47,-367 1185.54,-355.78 1211.21,-333.17 1226.65,-317.81"/>
<polygon fill="midnightblue" stroke="midnightblue" points="1229.27,-320.14 1233.74,-310.53 1224.26,-315.25 1229.27,-320.14"/>
</g>
<!-- Node38 -->
<g id="node38" class="node">
<title>Node38</title>
<g id="a_node38"><a xlink:href="LevelMode_8hpp.html" target="_top" xlink:title=" ">
<polygon fill="none" stroke="black" points="774.97,-347.5 774.97,-366.5 897.97,-366.5 897.97,-347.5 774.97,-347.5"/>
<text text-anchor="middle" x="836.47" y="-354.5" font-family="Helvetica,sans-Serif" font-size="10.00">../Enums/LevelMode.hpp</text>
</a>
</g>
</g>
<!-- Node29&#45;&gt;Node38 -->
<g id="edge80" class="edge">
<title>Node29&#45;&gt;Node38</title>
<path fill="none" stroke="midnightblue" d="M798.07,-403.08C804.7,-395.3 814.49,-383.8 822.53,-374.37"/>
<polygon fill="midnightblue" stroke="midnightblue" points="825.2,-376.63 829.02,-366.75 819.87,-372.09 825.2,-376.63"/>
</g>
<!-- Node32&#45;&gt;Node13 -->
<g id="edge66" class="edge">
<title>Node32&#45;&gt;Node13</title>
<path fill="none" stroke="midnightblue" d="M437.73,-295.69C395.42,-289.22 324.04,-275.52 308.47,-255 300.15,-244.02 302.93,-236.61 308.47,-224 313.86,-211.73 324.43,-201.34 334.38,-193.65"/>
<polygon fill="midnightblue" stroke="midnightblue" points="336.73,-196.27 342.81,-187.6 332.65,-190.58 336.73,-196.27"/>
</g>
<!-- Node33 -->
<g id="node33" class="node">
<title>Node33</title>
<g id="a_node33"><a xlink:href="UIObject_8hpp.html" target="_top" xlink:title=" ">
<polygon fill="none" stroke="black" points="471.47,-230 471.47,-249 545.47,-249 545.47,-230 471.47,-230"/>
<text text-anchor="middle" x="508.47" y="-237" font-family="Helvetica,sans-Serif" font-size="10.00">UIObject.hpp</text>
</a>
</g>
</g>
<!-- Node32&#45;&gt;Node33 -->
<g id="edge64" class="edge">
<title>Node32&#45;&gt;Node33</title>
<path fill="none" stroke="midnightblue" d="M475.06,-291.48C480.85,-282.64 490.06,-268.59 497.35,-257.48"/>
<polygon fill="midnightblue" stroke="midnightblue" points="500.34,-259.29 502.9,-249.01 494.49,-255.45 500.34,-259.29"/>
</g>
<!-- Node33&#45;&gt;Node16 -->
<g id="edge65" class="edge">
<title>Node33&#45;&gt;Node16</title>
<path fill="none" stroke="midnightblue" d="M533.55,-229.98C563.83,-219.68 614.91,-202.31 648.91,-190.75"/>
<polygon fill="midnightblue" stroke="midnightblue" points="650.11,-194.04 658.45,-187.51 647.85,-187.41 650.11,-194.04"/>
</g>
<!-- Node34&#45;&gt;Node18 -->
<g id="edge78" class="edge">
<title>Node34&#45;&gt;Node18</title>
<path fill="none" stroke="midnightblue" d="M1232.36,-291.46C1202.62,-263.61 1108.11,-175.11 1069.33,-138.79"/>
<polygon fill="midnightblue" stroke="midnightblue" points="1071.63,-136.15 1061.94,-131.87 1066.85,-141.26 1071.63,-136.15"/>
</g>
<!-- Node35 -->
<g id="node35" class="node">
<title>Node35</title>
<g id="a_node35"><a xlink:href="Level_8hpp.html" target="_top" xlink:title=" ">
<polygon fill="none" stroke="black" points="1360.97,-230 1360.97,-249 1419.97,-249 1419.97,-230 1360.97,-230"/>
<text text-anchor="middle" x="1390.47" y="-237" font-family="Helvetica,sans-Serif" font-size="10.00">Level.hpp</text>
</a>
</g>
</g>
<!-- Node34&#45;&gt;Node35 -->
<g id="edge69" class="edge">
<title>Node34&#45;&gt;Node35</title>
<path fill="none" stroke="midnightblue" d="M1262.82,-291.48C1288.16,-281.36 1330.61,-264.4 1359.55,-252.85"/>
<polygon fill="midnightblue" stroke="midnightblue" points="1361.18,-255.97 1369.17,-249.01 1358.58,-249.47 1361.18,-255.97"/>
</g>
<!-- Node37 -->
<g id="node37" class="node">
<title>Node37</title>
<g id="a_node37"><a xlink:href="Tile_8hpp.html" target="_top" xlink:title=" ">
<polygon fill="none" stroke="black" points="1212.47,-230 1212.47,-249 1262.47,-249 1262.47,-230 1212.47,-230"/>
<text text-anchor="middle" x="1237.47" y="-237" font-family="Helvetica,sans-Serif" font-size="10.00">Tile.hpp</text>
</a>
</g>
</g>
<!-- Node34&#45;&gt;Node37 -->
<g id="edge76" class="edge">
<title>Node34&#45;&gt;Node37</title>
<path fill="none" stroke="midnightblue" d="M1240.9,-291.48C1240.34,-283.08 1239.46,-269.98 1238.73,-259.16"/>
<polygon fill="midnightblue" stroke="midnightblue" points="1242.21,-258.75 1238.05,-249.01 1235.22,-259.22 1242.21,-258.75"/>
</g>
<!-- Node35&#45;&gt;Node11 -->
<g id="edge70" class="edge">
<title>Node35&#45;&gt;Node11</title>
<path fill="none" stroke="midnightblue" d="M1407.14,-229.92C1428.76,-217.54 1462.29,-193.36 1449.47,-168 1407.65,-85.22 1282.27,-69.88 1223.51,-67.32"/>
<polygon fill="midnightblue" stroke="midnightblue" points="1223.46,-63.81 1213.34,-66.98 1223.22,-70.81 1223.46,-63.81"/>
</g>
<!-- Node35&#45;&gt;Node12 -->
<g id="edge71" class="edge">
<title>Node35&#45;&gt;Node12</title>
<path fill="none" stroke="midnightblue" d="M1374.14,-229.98C1355.26,-220.12 1323.97,-203.79 1301.9,-192.27"/>
<polygon fill="midnightblue" stroke="midnightblue" points="1303.26,-189.03 1292.78,-187.51 1300.02,-195.24 1303.26,-189.03"/>
</g>
<!-- Node35&#45;&gt;Node24 -->
<g id="edge72" class="edge">
<title>Node35&#45;&gt;Node24</title>
<path fill="none" stroke="midnightblue" d="M1381.87,-229.66C1372.18,-219.66 1356.01,-202.83 1342.47,-188 1327.53,-171.63 1310.86,-152.52 1299.43,-139.28"/>
<polygon fill="midnightblue" stroke="midnightblue" points="1301.92,-136.81 1292.75,-131.51 1296.62,-141.37 1301.92,-136.81"/>
</g>
<!-- Node36 -->
<g id="node36" class="node">
<title>Node36</title>
<g id="a_node36"><a xlink:href="TilesAmount_8hpp.html" target="_top" xlink:title=" ">
<polygon fill="none" stroke="black" points="1350.97,-168.5 1350.97,-187.5 1439.97,-187.5 1439.97,-168.5 1350.97,-168.5"/>
<text text-anchor="middle" x="1395.47" y="-175.5" font-family="Helvetica,sans-Serif" font-size="10.00">TilesAmount.hpp</text>
</a>
</g>
</g>
<!-- Node35&#45;&gt;Node36 -->
<g id="edge73" class="edge">
<title>Node35&#45;&gt;Node36</title>
<path fill="none" stroke="midnightblue" d="M1391.19,-229.98C1391.9,-221.58 1393,-208.48 1393.91,-197.66"/>
<polygon fill="midnightblue" stroke="midnightblue" points="1397.41,-197.77 1394.76,-187.51 1390.43,-197.18 1397.41,-197.77"/>
</g>
<!-- Node36&#45;&gt;Node11 -->
<g id="edge74" class="edge">
<title>Node36&#45;&gt;Node11</title>
<path fill="none" stroke="midnightblue" d="M1391.88,-168.41C1385.58,-154.44 1371.23,-126.86 1350.47,-112 1312.08,-84.51 1257.25,-73.75 1223.31,-69.59"/>
<polygon fill="midnightblue" stroke="midnightblue" points="1223.4,-66.08 1213.07,-68.45 1222.63,-73.03 1223.4,-66.08"/>
</g>
<!-- Node36&#45;&gt;Node24 -->
<g id="edge75" class="edge">
<title>Node36&#45;&gt;Node24</title>
<path fill="none" stroke="midnightblue" d="M1377.8,-168.32C1360.08,-159.62 1332.57,-146.12 1312.19,-136.11"/>
<polygon fill="midnightblue" stroke="midnightblue" points="1313.62,-132.92 1303.1,-131.65 1310.54,-139.2 1313.62,-132.92"/>
</g>
<!-- Node37&#45;&gt;Node24 -->
<g id="edge77" class="edge">
<title>Node37&#45;&gt;Node24</title>
<path fill="none" stroke="midnightblue" d="M1237.76,-229.87C1238.49,-216.17 1241.1,-188.89 1250.47,-168 1255.16,-157.54 1262.77,-147.34 1269.7,-139.3"/>
<polygon fill="midnightblue" stroke="midnightblue" points="1272.39,-141.54 1276.52,-131.79 1267.21,-136.84 1272.39,-141.54"/>
</g>
<!-- Node39&#45;&gt;Node11 -->
<g id="edge83" class="edge">
<title>Node39&#45;&gt;Node11</title>
<path fill="none" stroke="midnightblue" d="M1593.53,-168.05C1580.08,-153.56 1551.28,-125.25 1520.47,-112 1467.24,-89.1 1294.36,-74.35 1223.35,-69.13"/>
<polygon fill="midnightblue" stroke="midnightblue" points="1223.48,-65.63 1213.25,-68.4 1222.97,-72.61 1223.48,-65.63"/>
</g>
<!-- Node40 -->
<g id="node40" class="node">
<title>Node40</title>
<g id="a_node40"><a xlink:href="HeroName_8hpp.html" target="_top" xlink:title=" ">
<polygon fill="none" stroke="black" points="1572.47,-112.5 1572.47,-131.5 1694.47,-131.5 1694.47,-112.5 1572.47,-112.5"/>
<text text-anchor="middle" x="1633.47" y="-119.5" font-family="Helvetica,sans-Serif" font-size="10.00">../Enums/HeroName.hpp</text>
</a>
</g>
</g>
<!-- Node39&#45;&gt;Node40 -->
<g id="edge84" class="edge">
<title>Node39&#45;&gt;Node40</title>
<path fill="none" stroke="midnightblue" d="M1606.76,-168.08C1611.18,-160.61 1617.64,-149.72 1623.09,-140.52"/>
<polygon fill="midnightblue" stroke="midnightblue" points="1626.2,-142.14 1628.29,-131.75 1620.18,-138.57 1626.2,-142.14"/>
</g>
<!-- Node41&#45;&gt;Node11 -->
<g id="edge87" class="edge">
<title>Node41&#45;&gt;Node11</title>
<path fill="none" stroke="midnightblue" d="M1500.67,-224.18C1490.79,-197.16 1465.42,-138.94 1422.47,-112 1359.64,-72.58 1269.66,-66.49 1223.06,-66.24"/>
<polygon fill="midnightblue" stroke="midnightblue" points="1222.98,-62.74 1213,-66.28 1223.01,-69.74 1222.98,-62.74"/>
</g>
<!-- Node41&#45;&gt;Node12 -->
<g id="edge88" class="edge">
<title>Node41&#45;&gt;Node12</title>
<path fill="none" stroke="midnightblue" d="M1451.49,-224.47C1405.16,-212.44 1340.27,-195.58 1303.92,-186.13"/>
<polygon fill="midnightblue" stroke="midnightblue" points="1304.6,-182.69 1294.04,-183.56 1302.84,-189.47 1304.6,-182.69"/>
</g>
<!-- Node41&#45;&gt;Node39 -->
<g id="edge86" class="edge">
<title>Node41&#45;&gt;Node39</title>
<path fill="none" stroke="midnightblue" d="M1528.22,-224.4C1543.47,-214.95 1563.46,-202.56 1578.71,-193.11"/>
<polygon fill="midnightblue" stroke="midnightblue" points="1580.85,-195.9 1587.51,-187.66 1577.16,-189.95 1580.85,-195.9"/>
</g>
</g>
</svg>
