<?xml version="1.0" encoding="UTF-8" standalone="no"?>
<!DOCTYPE svg PUBLIC "-//W3C//DTD SVG 1.1//EN"
 "http://www.w3.org/Graphics/SVG/1.1/DTD/svg11.dtd">
<!-- Generated by graphviz version 2.44.0 ()
 -->
<!-- Title: spic::Collider Pages: 1 -->
<svg width="294pt" height="474pt"
 viewBox="0.00 0.00 293.50 474.00" xmlns="http://www.w3.org/2000/svg" xmlns:xlink="http://www.w3.org/1999/xlink">
<g id="graph0" class="graph" transform="scale(1 1) rotate(0) translate(4 470)">
<title>spic::Collider</title>
<!-- Node1 -->
<g id="node1" class="node">
<title>Node1</title>
<g id="a_node1"><a xlink:title="The base class for all colliders. @spicapi.">
<polygon fill="#bfbfbf" stroke="black" points="92.5,-171.5 92.5,-261.5 208.5,-261.5 208.5,-171.5 92.5,-171.5"/>
<text text-anchor="middle" x="150.5" y="-249.5" font-family="Helvetica,sans-Serif" font-size="10.00">spic::Collider</text>
<polyline fill="none" stroke="black" points="92.5,-242.5 208.5,-242.5 "/>
<text text-anchor="middle" x="150.5" y="-230.5" font-family="Helvetica,sans-Serif" font-size="10.00"> </text>
<polyline fill="none" stroke="black" points="92.5,-223.5 208.5,-223.5 "/>
<text text-anchor="start" x="100.5" y="-211.5" font-family="Helvetica,sans-Serif" font-size="10.00">+ Collider()</text>
<text text-anchor="start" x="100.5" y="-200.5" font-family="Helvetica,sans-Serif" font-size="10.00">+ bool IsTrigger() const</text>
<text text-anchor="start" x="100.5" y="-189.5" font-family="Helvetica,sans-Serif" font-size="10.00">+ void IsTrigger(bool</text>
<text text-anchor="start" x="100.5" y="-178.5" font-family="Helvetica,sans-Serif" font-size="10.00"> newIsTrigger)</text>
</a>
</g>
</g>
<!-- Node3 -->
<g id="node3" class="node">
<title>Node3</title>
<g id="a_node3"><a xlink:href="classspic_1_1BoxCollider.html" target="_top" xlink:title="A collider which represents a rectangular collision area. @spicapi.">
<polygon fill="none" stroke="black" points="0,-0.5 0,-134.5 149,-134.5 149,-0.5 0,-0.5"/>
<text text-anchor="middle" x="74.5" y="-122.5" font-family="Helvetica,sans-Serif" font-size="10.00">spic::BoxCollider</text>
<polyline fill="none" stroke="black" points="0,-115.5 149,-115.5 "/>
<text text-anchor="middle" x="74.5" y="-103.5" font-family="Helvetica,sans-Serif" font-size="10.00"> </text>
<polyline fill="none" stroke="black" points="0,-96.5 149,-96.5 "/>
<text text-anchor="start" x="8" y="-84.5" font-family="Helvetica,sans-Serif" font-size="10.00">+ BoxCollider()</text>
<text text-anchor="start" x="8" y="-73.5" font-family="Helvetica,sans-Serif" font-size="10.00">+ BoxCollider(double</text>
<text text-anchor="start" x="8" y="-62.5" font-family="Helvetica,sans-Serif" font-size="10.00"> width, double height)</text>
<text text-anchor="start" x="8" y="-51.5" font-family="Helvetica,sans-Serif" font-size="10.00">+ double Width() const</text>
<text text-anchor="start" x="8" y="-40.5" font-family="Helvetica,sans-Serif" font-size="10.00">+ void Width(double newWidth)</text>
<text text-anchor="start" x="8" y="-29.5" font-family="Helvetica,sans-Serif" font-size="10.00">+ double Height() const</text>
<text text-anchor="start" x="8" y="-18.5" font-family="Helvetica,sans-Serif" font-size="10.00">+ void Height(double</text>
<text text-anchor="start" x="8" y="-7.5" font-family="Helvetica,sans-Serif" font-size="10.00"> newHeight)</text>
</a>
</g>
</g>
<!-- Node1&#45;&gt;Node3 -->
<g id="edge2" class="edge">
<title>Node1&#45;&gt;Node3</title>
<path fill="none" stroke="midnightblue" d="M123.1,-162.51C118.42,-153.45 113.5,-143.94 108.67,-134.59"/>
<polygon fill="none" stroke="midnightblue" points="120,-164.12 127.7,-171.4 126.21,-160.9 120,-164.12"/>
</g>
<!-- Node4 -->
<g id="node4" class="node">
<title>Node4</title>
<g id="a_node4"><a xlink:href="classspic_1_1CircleCollider.html" target="_top" xlink:title="A collider which represents a circular collision area. @spicapi.">
<polygon fill="none" stroke="black" points="167.5,-11.5 167.5,-123.5 285.5,-123.5 285.5,-11.5 167.5,-11.5"/>
<text text-anchor="middle" x="226.5" y="-111.5" font-family="Helvetica,sans-Serif" font-size="10.00">spic::CircleCollider</text>
<polyline fill="none" stroke="black" points="167.5,-104.5 285.5,-104.5 "/>
<text text-anchor="middle" x="226.5" y="-92.5" font-family="Helvetica,sans-Serif" font-size="10.00"> </text>
<polyline fill="none" stroke="black" points="167.5,-85.5 285.5,-85.5 "/>
<text text-anchor="start" x="175.5" y="-73.5" font-family="Helvetica,sans-Serif" font-size="10.00">+ CircleCollider()</text>
<text text-anchor="start" x="175.5" y="-62.5" font-family="Helvetica,sans-Serif" font-size="10.00">+ CircleCollider(double</text>
<text text-anchor="start" x="175.5" y="-51.5" font-family="Helvetica,sans-Serif" font-size="10.00"> radius)</text>
<text text-anchor="start" x="175.5" y="-40.5" font-family="Helvetica,sans-Serif" font-size="10.00">+ double Radius() const</text>
<text text-anchor="start" x="175.5" y="-29.5" font-family="Helvetica,sans-Serif" font-size="10.00">+ void Radius(double</text>
<text text-anchor="start" x="175.5" y="-18.5" font-family="Helvetica,sans-Serif" font-size="10.00"> newRadius)</text>
</a>
</g>
</g>
<!-- Node1&#45;&gt;Node4 -->
<g id="edge3" class="edge">
<title>Node1&#45;&gt;Node4</title>
<path fill="none" stroke="midnightblue" d="M177.97,-162.37C184.5,-149.74 191.48,-136.23 198.06,-123.52"/>
<polygon fill="none" stroke="midnightblue" points="174.79,-160.9 173.3,-171.4 181,-164.12 174.79,-160.9"/>
</g>
<!-- Node2 -->
<g id="node2" class="node">
<title>Node2</title>
<g id="a_node2"><a xlink:href="classspic_1_1Component.html" target="_top" xlink:title="Base class for all components. @spicapi.">
<polygon fill="none" stroke="black" points="77.5,-298.5 77.5,-465.5 223.5,-465.5 223.5,-298.5 77.5,-298.5"/>
<text text-anchor="middle" x="150.5" y="-453.5" font-family="Helvetica,sans-Serif" font-size="10.00">spic::Component</text>
<polyline fill="none" stroke="black" points="77.5,-446.5 223.5,-446.5 "/>
<text text-anchor="middle" x="150.5" y="-434.5" font-family="Helvetica,sans-Serif" font-size="10.00"> </text>
<polyline fill="none" stroke="black" points="77.5,-427.5 223.5,-427.5 "/>
<text text-anchor="start" x="85.5" y="-415.5" font-family="Helvetica,sans-Serif" font-size="10.00">+ Component()</text>
<text text-anchor="start" x="85.5" y="-404.5" font-family="Helvetica,sans-Serif" font-size="10.00">+ virtual ~Component</text>
<text text-anchor="start" x="85.5" y="-393.5" font-family="Helvetica,sans-Serif" font-size="10.00">()=default</text>
<text text-anchor="start" x="85.5" y="-382.5" font-family="Helvetica,sans-Serif" font-size="10.00">+ bool Active() const</text>
<text text-anchor="start" x="85.5" y="-371.5" font-family="Helvetica,sans-Serif" font-size="10.00">+ void Active(bool flag)</text>
<text text-anchor="start" x="85.5" y="-360.5" font-family="Helvetica,sans-Serif" font-size="10.00">+ std::weak_ptr&lt; spic</text>
<text text-anchor="start" x="85.5" y="-349.5" font-family="Helvetica,sans-Serif" font-size="10.00">::GameObject &gt; GameObject</text>
<text text-anchor="start" x="85.5" y="-338.5" font-family="Helvetica,sans-Serif" font-size="10.00">() const</text>
<text text-anchor="start" x="85.5" y="-327.5" font-family="Helvetica,sans-Serif" font-size="10.00">+ void GameObject(std</text>
<text text-anchor="start" x="85.5" y="-316.5" font-family="Helvetica,sans-Serif" font-size="10.00">::weak_ptr&lt; spic::GameObject</text>
<text text-anchor="start" x="85.5" y="-305.5" font-family="Helvetica,sans-Serif" font-size="10.00"> &gt; gameObject)</text>
</a>
</g>
</g>
<!-- Node2&#45;&gt;Node1 -->
<g id="edge1" class="edge">
<title>Node2&#45;&gt;Node1</title>
<path fill="none" stroke="midnightblue" d="M150.5,-288.22C150.5,-278.99 150.5,-269.95 150.5,-261.58"/>
<polygon fill="none" stroke="midnightblue" points="147,-288.29 150.5,-298.29 154,-288.29 147,-288.29"/>
</g>
</g>
</svg>
