<?xml version="1.0" encoding="UTF-8" standalone="no"?>
<!DOCTYPE svg PUBLIC "-//W3C//DTD SVG 1.1//EN"
 "http://www.w3.org/Graphics/SVG/1.1/DTD/svg11.dtd">
<!-- Generated by graphviz version 2.44.0 ()
 -->
<!-- Title: spic::Scene Pages: 1 -->
<!--zoomable 353 -->
<svg id="main" version="1.1" xmlns="http://www.w3.org/2000/svg" xmlns:xlink="http://www.w3.org/1999/xlink" xml:space="preserve" onload="init(evt)">
<style type="text/css"><![CDATA[
.edge:hover path { stroke: red; }
.edge:hover polygon { stroke: red; fill: red; }
]]></style>
<script type="text/javascript"><![CDATA[
var edges = document.getElementsByTagName('g');
if (edges && edges.length) {
  for (var i=0;i<edges.length;i++) {
    if (edges[i].id.substr(0,4)=='edge') {
      edges[i].setAttribute('class','edge');
    }
  }
}
]]></script>
        <defs>
                <circle id="rim" cx="0" cy="0" r="7"/>
                <circle id="rim2" cx="0" cy="0" r="3.5"/>
                <g id="zoomPlus">
                        <use xlink:href="#rim" fill="#404040">
                                <set attributeName="fill" to="#808080" begin="zoomplus.mouseover" end="zoomplus.mouseout"/>
                        </use>
                        <path d="M-4,0h8M0,-4v8" fill="none" stroke="white" stroke-width="1.5" pointer-events="none"/>
                </g>
                <g id="zoomMin">
                        <use xlink:href="#rim" fill="#404040">
                                <set attributeName="fill" to="#808080" begin="zoomminus.mouseover" end="zoomminus.mouseout"/>
                        </use>
                        <path d="M-4,0h8" fill="none" stroke="white" stroke-width="1.5" pointer-events="none"/>
                </g>
                <g id="dirArrow">
                        <path fill="none" stroke="white" stroke-width="1.5" d="M0,-3.0v7 M-2.5,-0.5L0,-3.0L2.5,-0.5"/>
                </g>
               <g id="resetDef">
                       <use xlink:href="#rim2" fill="#404040">
                               <set attributeName="fill" to="#808080" begin="reset.mouseover" end="reset.mouseout"/>
                       </use>
               </g>
        </defs>

<script type="text/javascript">
var viewWidth = 1301;
var viewHeight = 353;
var sectionId = 'dynsection-0';
</script>
<script xlink:href="svgpan.js"/>
<svg id="graph" class="graph">
<g id="viewport">
<title>spic::Scene</title>
<!-- Node1 -->
<g id="node1" class="node">
<title>Node1</title>
<g id="a_node1"><a xlink:title="Class representing a scene which can be rendered by the Camera. @spicapi.">
<polygon fill="#bfbfbf" stroke="black" points="503,-243.5 503,-344.5 628,-344.5 628,-243.5 503,-243.5"/>
<text text-anchor="middle" x="565.5" y="-332.5" font-family="Helvetica,sans-Serif" font-size="10.00">spic::Scene</text>
<polyline fill="none" stroke="black" points="503,-325.5 628,-325.5 "/>
<text text-anchor="middle" x="565.5" y="-313.5" font-family="Helvetica,sans-Serif" font-size="10.00"> </text>
<polyline fill="none" stroke="black" points="503,-306.5 628,-306.5 "/>
<text text-anchor="start" x="511" y="-294.5" font-family="Helvetica,sans-Serif" font-size="10.00">+ Scene()</text>
<text text-anchor="start" x="511" y="-283.5" font-family="Helvetica,sans-Serif" font-size="10.00">+ void RenderScene()</text>
<text text-anchor="start" x="511" y="-272.5" font-family="Helvetica,sans-Serif" font-size="10.00">+ std::vector&lt; std::shared</text>
<text text-anchor="start" x="511" y="-261.5" font-family="Helvetica,sans-Serif" font-size="10.00">_ptr&lt; GameObject &gt; &gt; &amp;</text>
<text text-anchor="start" x="511" y="-250.5" font-family="Helvetica,sans-Serif" font-size="10.00"> Contents()</text>
</a>
</g>
</g>
<!-- Node2 -->
<g id="node2" class="node">
<title>Node2</title>
<g id="a_node2"><a xlink:href="classgame_1_1LevelScene.html" target="_top" xlink:title="A scene that contains a level to play.">
<polygon fill="none" stroke="black" points="395.5,-127.5 395.5,-195.5 539.5,-195.5 539.5,-127.5 395.5,-127.5"/>
<text text-anchor="middle" x="467.5" y="-183.5" font-family="Helvetica,sans-Serif" font-size="10.00">game::LevelScene</text>
<polyline fill="none" stroke="black" points="395.5,-176.5 539.5,-176.5 "/>
<text text-anchor="middle" x="467.5" y="-164.5" font-family="Helvetica,sans-Serif" font-size="10.00"> </text>
<polyline fill="none" stroke="black" points="395.5,-157.5 539.5,-157.5 "/>
<text text-anchor="start" x="403.5" y="-145.5" font-family="Helvetica,sans-Serif" font-size="10.00">+ LevelScene(LevelWithTiles</text>
<text text-anchor="start" x="403.5" y="-134.5" font-family="Helvetica,sans-Serif" font-size="10.00"> &amp;level)</text>
</a>
</g>
</g>
<!-- Node1&#45;&gt;Node2 -->
<g id="edge1" class="edge">
<title>Node1&#45;&gt;Node2</title>
<path fill="none" stroke="midnightblue" d="M521.91,-234.95C511.76,-221.43 501.29,-207.5 492.29,-195.51"/>
<polygon fill="none" stroke="midnightblue" points="519.37,-237.4 528.17,-243.29 524.96,-233.19 519.37,-237.4"/>
</g>
<!-- Node3 -->
<g id="node3" class="node">
<title>Node3</title>
<g id="a_node3"><a xlink:href="classgame_1_1MenuScene.html" target="_top" xlink:title="A abstract scene to use for the scene that require menu functionality.">
<polygon fill="none" stroke="black" points="558,-116.5 558,-206.5 769,-206.5 769,-116.5 558,-116.5"/>
<text text-anchor="middle" x="663.5" y="-194.5" font-family="Helvetica,sans-Serif" font-size="10.00">game::MenuScene</text>
<polyline fill="none" stroke="black" points="558,-187.5 769,-187.5 "/>
<text text-anchor="middle" x="663.5" y="-175.5" font-family="Helvetica,sans-Serif" font-size="10.00"> </text>
<polyline fill="none" stroke="black" points="558,-168.5 769,-168.5 "/>
<text text-anchor="start" x="566" y="-156.5" font-family="Helvetica,sans-Serif" font-size="10.00">+ MenuScene(const std</text>
<text text-anchor="start" x="566" y="-145.5" font-family="Helvetica,sans-Serif" font-size="10.00">::string &amp;title, bool</text>
<text text-anchor="start" x="566" y="-134.5" font-family="Helvetica,sans-Serif" font-size="10.00"> hasBackButton, BackgroundName</text>
<text text-anchor="start" x="566" y="-123.5" font-family="Helvetica,sans-Serif" font-size="10.00"> backgroundName=BackgroundName::Menu)</text>
</a>
</g>
</g>
<!-- Node1&#45;&gt;Node3 -->
<g id="edge2" class="edge">
<title>Node1&#45;&gt;Node3</title>
<path fill="none" stroke="midnightblue" d="M608.86,-235.26C616.1,-225.61 623.51,-215.75 630.45,-206.52"/>
<polygon fill="none" stroke="midnightblue" points="606.04,-233.19 602.83,-243.29 611.63,-237.4 606.04,-233.19"/>
</g>
<!-- Node4 -->
<g id="node4" class="node">
<title>Node4</title>
<g id="a_node4"><a xlink:href="classgame_1_1CreditScene.html" target="_top" xlink:title="A scene that contains credits to the developers.">
<polygon fill="none" stroke="black" points="0,-0.5 0,-79.5 119,-79.5 119,-0.5 0,-0.5"/>
<text text-anchor="middle" x="59.5" y="-67.5" font-family="Helvetica,sans-Serif" font-size="10.00">game::CreditScene</text>
<polyline fill="none" stroke="black" points="0,-60.5 119,-60.5 "/>
<text text-anchor="middle" x="59.5" y="-48.5" font-family="Helvetica,sans-Serif" font-size="10.00"> </text>
<polyline fill="none" stroke="black" points="0,-41.5 119,-41.5 "/>
<text text-anchor="start" x="8" y="-29.5" font-family="Helvetica,sans-Serif" font-size="10.00">+ CreditScene(const</text>
<text text-anchor="start" x="8" y="-18.5" font-family="Helvetica,sans-Serif" font-size="10.00"> std::shared_ptr&lt; spic</text>
<text text-anchor="start" x="8" y="-7.5" font-family="Helvetica,sans-Serif" font-size="10.00">::GameObject &gt; &amp;audio)</text>
</a>
</g>
</g>
<!-- Node3&#45;&gt;Node4 -->
<g id="edge3" class="edge">
<title>Node3&#45;&gt;Node4</title>
<path fill="none" stroke="midnightblue" d="M547.95,-116.11C363.88,-75.9 304.34,-134.39 128.5,-80 125.35,-79.02 122.18,-77.89 119.02,-76.63"/>
<polygon fill="none" stroke="midnightblue" points="547.43,-119.58 557.96,-118.36 548.97,-112.75 547.43,-119.58"/>
</g>
<!-- Node5 -->
<g id="node5" class="node">
<title>Node5</title>
<g id="a_node5"><a xlink:href="classgame_1_1GameOverScene.html" target="_top" xlink:title="A scene that contains a game over screen.">
<polygon fill="none" stroke="black" points="137.5,-11.5 137.5,-68.5 257.5,-68.5 257.5,-11.5 137.5,-11.5"/>
<text text-anchor="middle" x="197.5" y="-56.5" font-family="Helvetica,sans-Serif" font-size="10.00">game::GameOverScene</text>
<polyline fill="none" stroke="black" points="137.5,-49.5 257.5,-49.5 "/>
<text text-anchor="middle" x="197.5" y="-37.5" font-family="Helvetica,sans-Serif" font-size="10.00"> </text>
<polyline fill="none" stroke="black" points="137.5,-30.5 257.5,-30.5 "/>
<text text-anchor="start" x="145.5" y="-18.5" font-family="Helvetica,sans-Serif" font-size="10.00">+ GameOverScene()</text>
</a>
</g>
</g>
<!-- Node3&#45;&gt;Node5 -->
<g id="edge4" class="edge">
<title>Node3&#45;&gt;Node5</title>
<path fill="none" stroke="midnightblue" d="M548.04,-116.11C423.95,-86.7 383.36,-118.82 266.5,-80 257.75,-77.09 248.85,-73.04 240.49,-68.63"/>
<polygon fill="none" stroke="midnightblue" points="547.37,-119.55 557.91,-118.54 549.04,-112.75 547.37,-119.55"/>
</g>
<!-- Node6 -->
<g id="node6" class="node">
<title>Node6</title>
<g id="a_node6"><a xlink:href="classgame_1_1HelpScene.html" target="_top" xlink:title="A scene that contains help for the user.">
<polygon fill="none" stroke="black" points="275.5,-0.5 275.5,-79.5 427.5,-79.5 427.5,-0.5 275.5,-0.5"/>
<text text-anchor="middle" x="351.5" y="-67.5" font-family="Helvetica,sans-Serif" font-size="10.00">game::HelpScene</text>
<polyline fill="none" stroke="black" points="275.5,-60.5 427.5,-60.5 "/>
<text text-anchor="middle" x="351.5" y="-48.5" font-family="Helvetica,sans-Serif" font-size="10.00"> </text>
<polyline fill="none" stroke="black" points="275.5,-41.5 427.5,-41.5 "/>
<text text-anchor="start" x="283.5" y="-29.5" font-family="Helvetica,sans-Serif" font-size="10.00">+ HelpScene(const std</text>
<text text-anchor="start" x="283.5" y="-18.5" font-family="Helvetica,sans-Serif" font-size="10.00">::shared_ptr&lt; spic::GameObject</text>
<text text-anchor="start" x="283.5" y="-7.5" font-family="Helvetica,sans-Serif" font-size="10.00"> &gt; &amp;audio)</text>
</a>
</g>
</g>
<!-- Node3&#45;&gt;Node6 -->
<g id="edge5" class="edge">
<title>Node3&#45;&gt;Node6</title>
<path fill="none" stroke="midnightblue" d="M548.79,-116.1C548.7,-116.07 548.6,-116.03 548.5,-116 499.21,-98.56 485.24,-98.94 436.5,-80 433.62,-78.88 430.71,-77.72 427.77,-76.51"/>
<polygon fill="none" stroke="midnightblue" points="547.4,-119.32 558,-119.4 549.76,-112.73 547.4,-119.32"/>
</g>
<!-- Node7 -->
<g id="node7" class="node">
<title>Node7</title>
<g id="a_node7"><a xlink:href="classgame_1_1LevelSelectionScene.html" target="_top" xlink:title="A scene that contains all the levels.">
<polygon fill="none" stroke="black" points="445.5,-0.5 445.5,-79.5 591.5,-79.5 591.5,-0.5 445.5,-0.5"/>
<text text-anchor="middle" x="518.5" y="-67.5" font-family="Helvetica,sans-Serif" font-size="10.00">game::LevelSelectionScene</text>
<polyline fill="none" stroke="black" points="445.5,-60.5 591.5,-60.5 "/>
<text text-anchor="middle" x="518.5" y="-48.5" font-family="Helvetica,sans-Serif" font-size="10.00"> </text>
<polyline fill="none" stroke="black" points="445.5,-41.5 591.5,-41.5 "/>
<text text-anchor="start" x="453.5" y="-29.5" font-family="Helvetica,sans-Serif" font-size="10.00">+ LevelSelectionScene</text>
<text text-anchor="start" x="453.5" y="-18.5" font-family="Helvetica,sans-Serif" font-size="10.00">(const std::shared_ptr</text>
<text text-anchor="start" x="453.5" y="-7.5" font-family="Helvetica,sans-Serif" font-size="10.00">&lt; spic::GameObject &gt; &amp;audio)</text>
</a>
</g>
</g>
<!-- Node3&#45;&gt;Node7 -->
<g id="edge6" class="edge">
<title>Node3&#45;&gt;Node7</title>
<path fill="none" stroke="midnightblue" d="M602,-109.82C589.84,-99.79 577.25,-89.42 565.65,-79.86"/>
<polygon fill="none" stroke="midnightblue" points="599.98,-112.68 609.92,-116.34 604.43,-107.28 599.98,-112.68"/>
</g>
<!-- Node8 -->
<g id="node8" class="node">
<title>Node8</title>
<g id="a_node8"><a xlink:href="classgame_1_1LoadingScene.html" target="_top" xlink:title="Scene for the loading screen of the game.">
<polygon fill="none" stroke="black" points="610,-11.5 610,-68.5 717,-68.5 717,-11.5 610,-11.5"/>
<text text-anchor="middle" x="663.5" y="-56.5" font-family="Helvetica,sans-Serif" font-size="10.00">game::LoadingScene</text>
<polyline fill="none" stroke="black" points="610,-49.5 717,-49.5 "/>
<text text-anchor="middle" x="663.5" y="-37.5" font-family="Helvetica,sans-Serif" font-size="10.00"> </text>
<polyline fill="none" stroke="black" points="610,-30.5 717,-30.5 "/>
<text text-anchor="start" x="618" y="-18.5" font-family="Helvetica,sans-Serif" font-size="10.00">+ LoadingScene()</text>
</a>
</g>
</g>
<!-- Node3&#45;&gt;Node8 -->
<g id="edge7" class="edge">
<title>Node3&#45;&gt;Node8</title>
<path fill="none" stroke="midnightblue" d="M663.5,-106.08C663.5,-93.13 663.5,-79.85 663.5,-68.69"/>
<polygon fill="none" stroke="midnightblue" points="660,-106.34 663.5,-116.34 667,-106.34 660,-106.34"/>
</g>
<!-- Node9 -->
<g id="node9" class="node">
<title>Node9</title>
<g id="a_node9"><a xlink:href="classgame_1_1MainScene.html" target="_top" xlink:title="A scene that show the title of the game and some information.">
<polygon fill="none" stroke="black" points="735.5,-0.5 735.5,-79.5 887.5,-79.5 887.5,-0.5 735.5,-0.5"/>
<text text-anchor="middle" x="811.5" y="-67.5" font-family="Helvetica,sans-Serif" font-size="10.00">game::MainScene</text>
<polyline fill="none" stroke="black" points="735.5,-60.5 887.5,-60.5 "/>
<text text-anchor="middle" x="811.5" y="-48.5" font-family="Helvetica,sans-Serif" font-size="10.00"> </text>
<polyline fill="none" stroke="black" points="735.5,-41.5 887.5,-41.5 "/>
<text text-anchor="start" x="743.5" y="-29.5" font-family="Helvetica,sans-Serif" font-size="10.00">+ MainScene(const std</text>
<text text-anchor="start" x="743.5" y="-18.5" font-family="Helvetica,sans-Serif" font-size="10.00">::shared_ptr&lt; spic::GameObject</text>
<text text-anchor="start" x="743.5" y="-7.5" font-family="Helvetica,sans-Serif" font-size="10.00"> &gt; &amp;audio)</text>
</a>
</g>
</g>
<!-- Node3&#45;&gt;Node9 -->
<g id="edge8" class="edge">
<title>Node3&#45;&gt;Node9</title>
<path fill="none" stroke="midnightblue" d="M726.27,-109.82C738.69,-99.79 751.54,-89.42 763.38,-79.86"/>
<polygon fill="none" stroke="midnightblue" points="723.77,-107.34 718.19,-116.34 728.17,-112.78 723.77,-107.34"/>
</g>
<!-- Node10 -->
<g id="node10" class="node">
<title>Node10</title>
<g id="a_node10"><a xlink:href="classgame_1_1PauseScene.html" target="_top" xlink:title="A scene that contains functionality for pausing the game.">
<polygon fill="none" stroke="black" points="906,-11.5 906,-68.5 1007,-68.5 1007,-11.5 906,-11.5"/>
<text text-anchor="middle" x="956.5" y="-56.5" font-family="Helvetica,sans-Serif" font-size="10.00">game::PauseScene</text>
<polyline fill="none" stroke="black" points="906,-49.5 1007,-49.5 "/>
<text text-anchor="middle" x="956.5" y="-37.5" font-family="Helvetica,sans-Serif" font-size="10.00"> </text>
<polyline fill="none" stroke="black" points="906,-30.5 1007,-30.5 "/>
<text text-anchor="start" x="914" y="-18.5" font-family="Helvetica,sans-Serif" font-size="10.00">+ PauseScene()</text>
</a>
</g>
</g>
<!-- Node3&#45;&gt;Node10 -->
<g id="edge9" class="edge">
<title>Node3&#45;&gt;Node10</title>
<path fill="none" stroke="midnightblue" d="M778.84,-126.83C817.1,-114.05 859.37,-98.14 896.5,-80 903.31,-76.67 910.28,-72.72 916.95,-68.62"/>
<polygon fill="none" stroke="midnightblue" points="777.61,-123.56 769.21,-130.01 779.81,-130.2 777.61,-123.56"/>
</g>
<!-- Node11 -->
<g id="node11" class="node">
<title>Node11</title>
<g id="a_node11"><a xlink:href="classgame_1_1SaveSelectionScene.html" target="_top" xlink:title="Scene for selection which save the user wants to play.">
<polygon fill="none" stroke="black" points="1025.5,-0.5 1025.5,-79.5 1171.5,-79.5 1171.5,-0.5 1025.5,-0.5"/>
<text text-anchor="middle" x="1098.5" y="-67.5" font-family="Helvetica,sans-Serif" font-size="10.00">game::SaveSelectionScene</text>
<polyline fill="none" stroke="black" points="1025.5,-60.5 1171.5,-60.5 "/>
<text text-anchor="middle" x="1098.5" y="-48.5" font-family="Helvetica,sans-Serif" font-size="10.00"> </text>
<polyline fill="none" stroke="black" points="1025.5,-41.5 1171.5,-41.5 "/>
<text text-anchor="start" x="1033.5" y="-29.5" font-family="Helvetica,sans-Serif" font-size="10.00">+ SaveSelectionScene</text>
<text text-anchor="start" x="1033.5" y="-18.5" font-family="Helvetica,sans-Serif" font-size="10.00">(const std::shared_ptr</text>
<text text-anchor="start" x="1033.5" y="-7.5" font-family="Helvetica,sans-Serif" font-size="10.00">&lt; spic::GameObject &gt; &amp;audio)</text>
</a>
</g>
</g>
<!-- Node3&#45;&gt;Node11 -->
<g id="edge10" class="edge">
<title>Node3&#45;&gt;Node11</title>
<path fill="none" stroke="midnightblue" d="M779.21,-140.77C849.01,-127.24 939.1,-106.86 1016.5,-80 1019.33,-79.02 1022.19,-77.97 1025.06,-76.86"/>
<polygon fill="none" stroke="midnightblue" points="778.23,-137.4 769.07,-142.72 779.55,-144.27 778.23,-137.4"/>
</g>
<!-- Node12 -->
<g id="node12" class="node">
<title>Node12</title>
<g id="a_node12"><a xlink:href="classgame_1_1VictoryScene.html" target="_top" xlink:title="A scene that contains a victory screen.">
<polygon fill="none" stroke="black" points="1190,-11.5 1190,-68.5 1293,-68.5 1293,-11.5 1190,-11.5"/>
<text text-anchor="middle" x="1241.5" y="-56.5" font-family="Helvetica,sans-Serif" font-size="10.00">game::VictoryScene</text>
<polyline fill="none" stroke="black" points="1190,-49.5 1293,-49.5 "/>
<text text-anchor="middle" x="1241.5" y="-37.5" font-family="Helvetica,sans-Serif" font-size="10.00"> </text>
<polyline fill="none" stroke="black" points="1190,-30.5 1293,-30.5 "/>
<text text-anchor="start" x="1198" y="-18.5" font-family="Helvetica,sans-Serif" font-size="10.00">+ VictoryScene()</text>
</a>
</g>
</g>
<!-- Node3&#45;&gt;Node12 -->
<g id="edge11" class="edge">
<title>Node3&#45;&gt;Node12</title>
<path fill="none" stroke="midnightblue" d="M779.42,-156.09C886.55,-148.88 1048.6,-129.9 1180.5,-80 1188.38,-77.02 1196.31,-72.93 1203.73,-68.51"/>
<polygon fill="none" stroke="midnightblue" points="778.98,-152.61 769.23,-156.76 779.44,-159.6 778.98,-152.61"/>
</g>
</g>
</svg>
        <g id="navigator" transform="translate(0 0)" fill="#404254">
                <rect fill="#f2f5e9" fill-opacity="0.5" stroke="#606060" stroke-width=".5" x="0" y="0" width="60" height="60"/>
                <use id="zoomplus" xlink:href="#zoomPlus" x="17" y="9" onmousedown="handleZoom(evt,'in')"/>
                <use id="zoomminus" xlink:href="#zoomMin" x="42" y="9" onmousedown="handleZoom(evt,'out')"/>
                <use id="reset" xlink:href="#resetDef" x="30" y="36" onmousedown="handleReset()"/>
                <g id="arrowUp" xlink:href="#dirArrow" transform="translate(30 24)" onmousedown="handlePan(0,-1)">
                  <use xlink:href="#rim" fill="#404040">
                        <set attributeName="fill" to="#808080" begin="arrowUp.mouseover" end="arrowUp.mouseout"/>
                  </use>
                  <path fill="none" stroke="white" stroke-width="1.5" d="M0,-3.0v7 M-2.5,-0.5L0,-3.0L2.5,-0.5"/>
                </g>
                <g id="arrowRight" xlink:href="#dirArrow" transform="rotate(90) translate(36 -43)" onmousedown="handlePan(1,0)">
                  <use xlink:href="#rim" fill="#404040">
                        <set attributeName="fill" to="#808080" begin="arrowRight.mouseover" end="arrowRight.mouseout"/>
                  </use>
                  <path fill="none" stroke="white" stroke-width="1.5" d="M0,-3.0v7 M-2.5,-0.5L0,-3.0L2.5,-0.5"/>
                </g>
                <g id="arrowDown" xlink:href="#dirArrow" transform="rotate(180) translate(-30 -48)" onmousedown="handlePan(0,1)">
                  <use xlink:href="#rim" fill="#404040">
                        <set attributeName="fill" to="#808080" begin="arrowDown.mouseover" end="arrowDown.mouseout"/>
                  </use>
                  <path fill="none" stroke="white" stroke-width="1.5" d="M0,-3.0v7 M-2.5,-0.5L0,-3.0L2.5,-0.5"/>
                </g>
                <g id="arrowLeft" xlink:href="#dirArrow" transform="rotate(270) translate(-36 17)" onmousedown="handlePan(-1,0)">
                  <use xlink:href="#rim" fill="#404040">
                        <set attributeName="fill" to="#808080" begin="arrowLeft.mouseover" end="arrowLeft.mouseout"/>
                  </use>
                  <path fill="none" stroke="white" stroke-width="1.5" d="M0,-3.0v7 M-2.5,-0.5L0,-3.0L2.5,-0.5"/>
                </g>
        </g>
        <svg viewBox="0 0 15 15" width="100%" height="30px" preserveAspectRatio="xMaxYMin meet">
         <g id="arrow_out" transform="scale(0.3 0.3)">
          <a xlink:href="classspic_1_1Scene__inherit__graph_org.svg" target="_base">
           <rect id="button" ry="5" rx="5" y="6" x="6" height="38" width="38"
                fill="#f2f5e9" fill-opacity="0.5" stroke="#606060" stroke-width="1.0"/>
           <path id="arrow"
             d="M 11.500037,31.436501 C 11.940474,20.09759 22.043105,11.32322 32.158766,21.979434 L 37.068811,17.246167 C 37.068811,17.246167 37.088388,32 37.088388,32 L 22.160133,31.978069 C 22.160133,31.978069 26.997745,27.140456 26.997745,27.140456 C 18.528582,18.264221 13.291696,25.230495 11.500037,31.436501 z"
             style="fill:#404040;"/>
          </a>
         </g>
        </svg>
</svg>
