<?xml version="1.0" encoding="UTF-8" standalone="no"?>
<!DOCTYPE svg PUBLIC "-//W3C//DTD SVG 1.1//EN"
 "http://www.w3.org/Graphics/SVG/1.1/DTD/svg11.dtd">
<!-- Generated by graphviz version 2.44.0 ()
 -->
<!-- Title: game::GameOverScene Pages: 1 -->
<svg width="219pt" height="342pt"
 viewBox="0.00 0.00 219.00 342.00" xmlns="http://www.w3.org/2000/svg" xmlns:xlink="http://www.w3.org/1999/xlink">
<g id="graph0" class="graph" transform="scale(1 1) rotate(0) translate(4 338)">
<title>game::GameOverScene</title>
<!-- Node1 -->
<g id="node1" class="node">
<title>Node1</title>
<g id="a_node1"><a xlink:title="A scene that contains a game over screen.">
<polygon fill="#bfbfbf" stroke="black" points="45.5,-0.5 45.5,-57.5 165.5,-57.5 165.5,-0.5 45.5,-0.5"/>
<text text-anchor="middle" x="105.5" y="-45.5" font-family="Helvetica,sans-Serif" font-size="10.00">game::GameOverScene</text>
<polyline fill="none" stroke="black" points="45.5,-38.5 165.5,-38.5 "/>
<text text-anchor="middle" x="105.5" y="-26.5" font-family="Helvetica,sans-Serif" font-size="10.00"> </text>
<polyline fill="none" stroke="black" points="45.5,-19.5 165.5,-19.5 "/>
<text text-anchor="start" x="53.5" y="-7.5" font-family="Helvetica,sans-Serif" font-size="10.00">+ GameOverScene()</text>
</a>
</g>
</g>
<!-- Node2 -->
<g id="node2" class="node">
<title>Node2</title>
<g id="a_node2"><a xlink:href="classgame_1_1MenuScene.html" target="_top" xlink:title="A abstract scene to use for the scene that require menu functionality.">
<polygon fill="none" stroke="black" points="0,-94.5 0,-184.5 211,-184.5 211,-94.5 0,-94.5"/>
<text text-anchor="middle" x="105.5" y="-172.5" font-family="Helvetica,sans-Serif" font-size="10.00">game::MenuScene</text>
<polyline fill="none" stroke="black" points="0,-165.5 211,-165.5 "/>
<text text-anchor="middle" x="105.5" y="-153.5" font-family="Helvetica,sans-Serif" font-size="10.00"> </text>
<polyline fill="none" stroke="black" points="0,-146.5 211,-146.5 "/>
<text text-anchor="start" x="8" y="-134.5" font-family="Helvetica,sans-Serif" font-size="10.00">+ MenuScene(const std</text>
<text text-anchor="start" x="8" y="-123.5" font-family="Helvetica,sans-Serif" font-size="10.00">::string &amp;title, bool</text>
<text text-anchor="start" x="8" y="-112.5" font-family="Helvetica,sans-Serif" font-size="10.00"> hasBackButton, BackgroundName</text>
<text text-anchor="start" x="8" y="-101.5" font-family="Helvetica,sans-Serif" font-size="10.00"> backgroundName=BackgroundName::Menu)</text>
</a>
</g>
</g>
<!-- Node2&#45;&gt;Node1 -->
<g id="edge1" class="edge">
<title>Node2&#45;&gt;Node1</title>
<path fill="none" stroke="midnightblue" d="M105.5,-84.35C105.5,-75.07 105.5,-65.79 105.5,-57.59"/>
<polygon fill="none" stroke="midnightblue" points="102,-84.37 105.5,-94.37 109,-84.37 102,-84.37"/>
</g>
<!-- Node3 -->
<g id="node3" class="node">
<title>Node3</title>
<g id="a_node3"><a xlink:href="classspic_1_1Scene.html" target="_top" xlink:title="Class representing a scene which can be rendered by the Camera. @spicapi.">
<polygon fill="none" stroke="black" points="41.5,-221.5 41.5,-333.5 169.5,-333.5 169.5,-221.5 41.5,-221.5"/>
<text text-anchor="middle" x="105.5" y="-321.5" font-family="Helvetica,sans-Serif" font-size="10.00">spic::Scene</text>
<polyline fill="none" stroke="black" points="41.5,-314.5 169.5,-314.5 "/>
<text text-anchor="middle" x="105.5" y="-302.5" font-family="Helvetica,sans-Serif" font-size="10.00"> </text>
<polyline fill="none" stroke="black" points="41.5,-295.5 169.5,-295.5 "/>
<text text-anchor="start" x="49.5" y="-283.5" font-family="Helvetica,sans-Serif" font-size="10.00">+ Scene()</text>
<text text-anchor="start" x="49.5" y="-272.5" font-family="Helvetica,sans-Serif" font-size="10.00">+ virtual ~Scene()=default</text>
<text text-anchor="start" x="49.5" y="-261.5" font-family="Helvetica,sans-Serif" font-size="10.00">+ void RenderScene()</text>
<text text-anchor="start" x="49.5" y="-250.5" font-family="Helvetica,sans-Serif" font-size="10.00">+ std::vector&lt; std::shared</text>
<text text-anchor="start" x="49.5" y="-239.5" font-family="Helvetica,sans-Serif" font-size="10.00">_ptr&lt; GameObject &gt; &gt; &amp;</text>
<text text-anchor="start" x="49.5" y="-228.5" font-family="Helvetica,sans-Serif" font-size="10.00"> Contents()</text>
</a>
</g>
</g>
<!-- Node3&#45;&gt;Node2 -->
<g id="edge2" class="edge">
<title>Node3&#45;&gt;Node2</title>
<path fill="none" stroke="midnightblue" d="M105.5,-211.08C105.5,-202.07 105.5,-193.01 105.5,-184.51"/>
<polygon fill="none" stroke="midnightblue" points="102,-211.18 105.5,-221.18 109,-211.18 102,-211.18"/>
</g>
</g>
</svg>
