<?xml version="1.0" encoding="UTF-8" standalone="no"?>
<!DOCTYPE svg PUBLIC "-//W3C//DTD SVG 1.1//EN"
 "http://www.w3.org/Graphics/SVG/1.1/DTD/svg11.dtd">
<!-- Generated by graphviz version 2.44.0 ()
 -->
<!-- Title: engine::PhysicsSubsystem Pages: 1 -->
<svg width="141pt" height="171pt"
 viewBox="0.00 0.00 141.00 171.00" xmlns="http://www.w3.org/2000/svg" xmlns:xlink="http://www.w3.org/1999/xlink">
<g id="graph0" class="graph" transform="scale(1 1) rotate(0) translate(4 167)">
<title>engine::PhysicsSubsystem</title>
<!-- Node1 -->
<g id="node1" class="node">
<title>Node1</title>
<g id="a_node1"><a xlink:title="Subsystem to handle RigidBody and Collider components.">
<polygon fill="#bfbfbf" stroke="black" points="0,-0.5 0,-68.5 133,-68.5 133,-0.5 0,-0.5"/>
<text text-anchor="middle" x="66.5" y="-56.5" font-family="Helvetica,sans-Serif" font-size="10.00">engine::PhysicsSubsystem</text>
<polyline fill="none" stroke="black" points="0,-49.5 133,-49.5 "/>
<text text-anchor="middle" x="66.5" y="-37.5" font-family="Helvetica,sans-Serif" font-size="10.00"> </text>
<polyline fill="none" stroke="black" points="0,-30.5 133,-30.5 "/>
<text text-anchor="start" x="8" y="-18.5" font-family="Helvetica,sans-Serif" font-size="10.00">+ void Update() override</text>
<text text-anchor="start" x="8" y="-7.5" font-family="Helvetica,sans-Serif" font-size="10.00">+ PhysicsSubsystem()</text>
</a>
</g>
</g>
<!-- Node2 -->
<g id="node2" class="node">
<title>Node2</title>
<g id="a_node2"><a xlink:href="classengine_1_1ISubsystem.html" target="_top" xlink:title="Interface for subsystems.">
<polygon fill="none" stroke="black" points="5.5,-105.5 5.5,-162.5 127.5,-162.5 127.5,-105.5 5.5,-105.5"/>
<text text-anchor="middle" x="66.5" y="-150.5" font-family="Helvetica,sans-Serif" font-size="10.00">engine::ISubsystem</text>
<polyline fill="none" stroke="black" points="5.5,-143.5 127.5,-143.5 "/>
<text text-anchor="middle" x="66.5" y="-131.5" font-family="Helvetica,sans-Serif" font-size="10.00"> </text>
<polyline fill="none" stroke="black" points="5.5,-124.5 127.5,-124.5 "/>
<text text-anchor="start" x="13.5" y="-112.5" font-family="Helvetica,sans-Serif" font-size="10.00">+ virtual void Update()=0</text>
</a>
</g>
</g>
<!-- Node2&#45;&gt;Node1 -->
<g id="edge1" class="edge">
<title>Node2&#45;&gt;Node1</title>
<path fill="none" stroke="midnightblue" d="M66.5,-95.06C66.5,-86.39 66.5,-77.24 66.5,-68.79"/>
<polygon fill="none" stroke="midnightblue" points="63,-95.32 66.5,-105.32 70,-95.32 63,-95.32"/>
</g>
</g>
</svg>
