<?xml version="1.0" encoding="UTF-8" standalone="no"?>
<!DOCTYPE svg PUBLIC "-//W3C//DTD SVG 1.1//EN"
 "http://www.w3.org/Graphics/SVG/1.1/DTD/svg11.dtd">
<!-- Generated by graphviz version 2.44.0 ()
 -->
<!-- Title: spic::Scene Pages: 1 -->
<svg width="1143pt" height="331pt"
 viewBox="0.00 0.00 1142.50 331.00" xmlns="http://www.w3.org/2000/svg" xmlns:xlink="http://www.w3.org/1999/xlink">
<g id="graph0" class="graph" transform="scale(1 1) rotate(0) translate(4 327)">
<title>spic::Scene</title>
<!-- Node1 -->
<g id="node1" class="node">
<title>Node1</title>
<g id="a_node1"><a xlink:title="Class representing a scene which can be rendered by the Camera. @spicapi.">
<polygon fill="#bfbfbf" stroke="black" points="412.5,-221.5 412.5,-322.5 537.5,-322.5 537.5,-221.5 412.5,-221.5"/>
<text text-anchor="middle" x="475" y="-310.5" font-family="Helvetica,sans-Serif" font-size="10.00">spic::Scene</text>
<polyline fill="none" stroke="black" points="412.5,-303.5 537.5,-303.5 "/>
<text text-anchor="middle" x="475" y="-291.5" font-family="Helvetica,sans-Serif" font-size="10.00"> </text>
<polyline fill="none" stroke="black" points="412.5,-284.5 537.5,-284.5 "/>
<text text-anchor="start" x="420.5" y="-272.5" font-family="Helvetica,sans-Serif" font-size="10.00">+ Scene()</text>
<text text-anchor="start" x="420.5" y="-261.5" font-family="Helvetica,sans-Serif" font-size="10.00">+ void RenderScene()</text>
<text text-anchor="start" x="420.5" y="-250.5" font-family="Helvetica,sans-Serif" font-size="10.00">+ std::vector&lt; std::shared</text>
<text text-anchor="start" x="420.5" y="-239.5" font-family="Helvetica,sans-Serif" font-size="10.00">_ptr&lt; GameObject &gt; &gt; &amp;</text>
<text text-anchor="start" x="420.5" y="-228.5" font-family="Helvetica,sans-Serif" font-size="10.00"> Contents()</text>
</a>
</g>
</g>
<!-- Node2 -->
<g id="node2" class="node">
<title>Node2</title>
<g id="a_node2"><a xlink:href="classgame_1_1LevelScene.html" target="_top" xlink:title="A scene that contains a level to play.">
<polygon fill="none" stroke="black" points="305,-105.5 305,-173.5 449,-173.5 449,-105.5 305,-105.5"/>
<text text-anchor="middle" x="377" y="-161.5" font-family="Helvetica,sans-Serif" font-size="10.00">game::LevelScene</text>
<polyline fill="none" stroke="black" points="305,-154.5 449,-154.5 "/>
<text text-anchor="middle" x="377" y="-142.5" font-family="Helvetica,sans-Serif" font-size="10.00"> </text>
<polyline fill="none" stroke="black" points="305,-135.5 449,-135.5 "/>
<text text-anchor="start" x="313" y="-123.5" font-family="Helvetica,sans-Serif" font-size="10.00">+ LevelScene(LevelWithTiles</text>
<text text-anchor="start" x="313" y="-112.5" font-family="Helvetica,sans-Serif" font-size="10.00"> &amp;level)</text>
</a>
</g>
</g>
<!-- Node1&#45;&gt;Node2 -->
<g id="edge1" class="edge">
<title>Node1&#45;&gt;Node2</title>
<path fill="none" stroke="midnightblue" d="M431.41,-212.95C421.26,-199.43 410.79,-185.5 401.79,-173.51"/>
<polygon fill="none" stroke="midnightblue" points="428.87,-215.4 437.67,-221.29 434.46,-211.19 428.87,-215.4"/>
</g>
<!-- Node3 -->
<g id="node3" class="node">
<title>Node3</title>
<g id="a_node3"><a xlink:href="classgame_1_1MenuScene.html" target="_top" xlink:title="A abstract scene to use for the scene that require menu functionality.">
<polygon fill="none" stroke="black" points="467.5,-94.5 467.5,-184.5 678.5,-184.5 678.5,-94.5 467.5,-94.5"/>
<text text-anchor="middle" x="573" y="-172.5" font-family="Helvetica,sans-Serif" font-size="10.00">game::MenuScene</text>
<polyline fill="none" stroke="black" points="467.5,-165.5 678.5,-165.5 "/>
<text text-anchor="middle" x="573" y="-153.5" font-family="Helvetica,sans-Serif" font-size="10.00"> </text>
<polyline fill="none" stroke="black" points="467.5,-146.5 678.5,-146.5 "/>
<text text-anchor="start" x="475.5" y="-134.5" font-family="Helvetica,sans-Serif" font-size="10.00">+ MenuScene(const std</text>
<text text-anchor="start" x="475.5" y="-123.5" font-family="Helvetica,sans-Serif" font-size="10.00">::string &amp;title, bool</text>
<text text-anchor="start" x="475.5" y="-112.5" font-family="Helvetica,sans-Serif" font-size="10.00"> hasBackButton, BackgroundName</text>
<text text-anchor="start" x="475.5" y="-101.5" font-family="Helvetica,sans-Serif" font-size="10.00"> backgroundName=BackgroundName::Menu)</text>
</a>
</g>
</g>
<!-- Node1&#45;&gt;Node3 -->
<g id="edge2" class="edge">
<title>Node1&#45;&gt;Node3</title>
<path fill="none" stroke="midnightblue" d="M518.36,-213.26C525.6,-203.61 533.01,-193.75 539.95,-184.52"/>
<polygon fill="none" stroke="midnightblue" points="515.54,-211.19 512.33,-221.29 521.13,-215.4 515.54,-211.19"/>
</g>
<!-- Node4 -->
<g id="node4" class="node">
<title>Node4</title>
<g id="a_node4"><a xlink:href="classgame_1_1CreditScene.html" target="_top" xlink:title="A scene that contains credits to the developers.">
<polygon fill="none" stroke="black" points="0,-0.5 0,-57.5 98,-57.5 98,-0.5 0,-0.5"/>
<text text-anchor="middle" x="49" y="-45.5" font-family="Helvetica,sans-Serif" font-size="10.00">game::CreditScene</text>
<polyline fill="none" stroke="black" points="0,-38.5 98,-38.5 "/>
<text text-anchor="middle" x="49" y="-26.5" font-family="Helvetica,sans-Serif" font-size="10.00"> </text>
<polyline fill="none" stroke="black" points="0,-19.5 98,-19.5 "/>
<text text-anchor="start" x="8" y="-7.5" font-family="Helvetica,sans-Serif" font-size="10.00">+ CreditScene()</text>
</a>
</g>
</g>
<!-- Node3&#45;&gt;Node4 -->
<g id="edge3" class="edge">
<title>Node3&#45;&gt;Node4</title>
<path fill="none" stroke="midnightblue" d="M457.62,-94.13C303.52,-59.12 254.79,-99.86 107,-58 104.1,-57.18 101.16,-56.22 98.23,-55.16"/>
<polygon fill="none" stroke="midnightblue" points="456.91,-97.56 467.44,-96.43 458.5,-90.75 456.91,-97.56"/>
</g>
<!-- Node5 -->
<g id="node5" class="node">
<title>Node5</title>
<g id="a_node5"><a xlink:href="classgame_1_1GameOverScene.html" target="_top" xlink:title="A scene that contains a game over screen.">
<polygon fill="none" stroke="black" points="116,-0.5 116,-57.5 236,-57.5 236,-0.5 116,-0.5"/>
<text text-anchor="middle" x="176" y="-45.5" font-family="Helvetica,sans-Serif" font-size="10.00">game::GameOverScene</text>
<polyline fill="none" stroke="black" points="116,-38.5 236,-38.5 "/>
<text text-anchor="middle" x="176" y="-26.5" font-family="Helvetica,sans-Serif" font-size="10.00"> </text>
<polyline fill="none" stroke="black" points="116,-19.5 236,-19.5 "/>
<text text-anchor="start" x="124" y="-7.5" font-family="Helvetica,sans-Serif" font-size="10.00">+ GameOverScene()</text>
</a>
</g>
</g>
<!-- Node3&#45;&gt;Node5 -->
<g id="edge4" class="edge">
<title>Node3&#45;&gt;Node5</title>
<path fill="none" stroke="midnightblue" d="M457.7,-94.11C363.11,-69.46 333.74,-83.67 244,-58 241.42,-57.26 238.81,-56.46 236.19,-55.6"/>
<polygon fill="none" stroke="midnightblue" points="456.81,-97.49 467.37,-96.7 458.62,-90.73 456.81,-97.49"/>
</g>
<!-- Node6 -->
<g id="node6" class="node">
<title>Node6</title>
<g id="a_node6"><a xlink:href="classgame_1_1HelpScene.html" target="_top" xlink:title="A scene that contains help for the user.">
<polygon fill="none" stroke="black" points="253.5,-0.5 253.5,-57.5 346.5,-57.5 346.5,-0.5 253.5,-0.5"/>
<text text-anchor="middle" x="300" y="-45.5" font-family="Helvetica,sans-Serif" font-size="10.00">game::HelpScene</text>
<polyline fill="none" stroke="black" points="253.5,-38.5 346.5,-38.5 "/>
<text text-anchor="middle" x="300" y="-26.5" font-family="Helvetica,sans-Serif" font-size="10.00"> </text>
<polyline fill="none" stroke="black" points="253.5,-19.5 346.5,-19.5 "/>
<text text-anchor="start" x="261.5" y="-7.5" font-family="Helvetica,sans-Serif" font-size="10.00">+ HelpScene()</text>
</a>
</g>
</g>
<!-- Node3&#45;&gt;Node6 -->
<g id="edge5" class="edge">
<title>Node3&#45;&gt;Node6</title>
<path fill="none" stroke="midnightblue" d="M458.29,-94.11C458.19,-94.07 458.1,-94.04 458,-94 412.49,-77.25 399.6,-77.04 355,-58 352.24,-56.82 349.43,-55.57 346.6,-54.26"/>
<polygon fill="none" stroke="midnightblue" points="456.87,-97.31 467.46,-97.5 459.3,-90.75 456.87,-97.31"/>
</g>
<!-- Node7 -->
<g id="node7" class="node">
<title>Node7</title>
<g id="a_node7"><a xlink:href="classgame_1_1LevelSelectionScene.html" target="_top" xlink:title="A scene that contains all the levels.">
<polygon fill="none" stroke="black" points="364.5,-0.5 364.5,-57.5 501.5,-57.5 501.5,-0.5 364.5,-0.5"/>
<text text-anchor="middle" x="433" y="-45.5" font-family="Helvetica,sans-Serif" font-size="10.00">game::LevelSelectionScene</text>
<polyline fill="none" stroke="black" points="364.5,-38.5 501.5,-38.5 "/>
<text text-anchor="middle" x="433" y="-26.5" font-family="Helvetica,sans-Serif" font-size="10.00"> </text>
<polyline fill="none" stroke="black" points="364.5,-19.5 501.5,-19.5 "/>
<text text-anchor="start" x="372.5" y="-7.5" font-family="Helvetica,sans-Serif" font-size="10.00">+ LevelSelectionScene()</text>
</a>
</g>
</g>
<!-- Node3&#45;&gt;Node7 -->
<g id="edge6" class="edge">
<title>Node3&#45;&gt;Node7</title>
<path fill="none" stroke="midnightblue" d="M508.1,-88.2C494.5,-77.66 480.65,-66.93 468.6,-57.59"/>
<polygon fill="none" stroke="midnightblue" points="506.01,-91.01 516.06,-94.37 510.3,-85.48 506.01,-91.01"/>
</g>
<!-- Node8 -->
<g id="node8" class="node">
<title>Node8</title>
<g id="a_node8"><a xlink:href="classgame_1_1LoadingScene.html" target="_top" xlink:title="Scene for the loading screen of the game.">
<polygon fill="none" stroke="black" points="519.5,-0.5 519.5,-57.5 626.5,-57.5 626.5,-0.5 519.5,-0.5"/>
<text text-anchor="middle" x="573" y="-45.5" font-family="Helvetica,sans-Serif" font-size="10.00">game::LoadingScene</text>
<polyline fill="none" stroke="black" points="519.5,-38.5 626.5,-38.5 "/>
<text text-anchor="middle" x="573" y="-26.5" font-family="Helvetica,sans-Serif" font-size="10.00"> </text>
<polyline fill="none" stroke="black" points="519.5,-19.5 626.5,-19.5 "/>
<text text-anchor="start" x="527.5" y="-7.5" font-family="Helvetica,sans-Serif" font-size="10.00">+ LoadingScene()</text>
</a>
</g>
</g>
<!-- Node3&#45;&gt;Node8 -->
<g id="edge7" class="edge">
<title>Node3&#45;&gt;Node8</title>
<path fill="none" stroke="midnightblue" d="M573,-84.35C573,-75.07 573,-65.79 573,-57.59"/>
<polygon fill="none" stroke="midnightblue" points="569.5,-84.37 573,-94.37 576.5,-84.37 569.5,-84.37"/>
</g>
<!-- Node9 -->
<g id="node9" class="node">
<title>Node9</title>
<g id="a_node9"><a xlink:href="classgame_1_1MainScene.html" target="_top" xlink:title="A scene that show the title of the game and some information.">
<polygon fill="none" stroke="black" points="645,-0.5 645,-57.5 739,-57.5 739,-0.5 645,-0.5"/>
<text text-anchor="middle" x="692" y="-45.5" font-family="Helvetica,sans-Serif" font-size="10.00">game::MainScene</text>
<polyline fill="none" stroke="black" points="645,-38.5 739,-38.5 "/>
<text text-anchor="middle" x="692" y="-26.5" font-family="Helvetica,sans-Serif" font-size="10.00"> </text>
<polyline fill="none" stroke="black" points="645,-19.5 739,-19.5 "/>
<text text-anchor="start" x="653" y="-7.5" font-family="Helvetica,sans-Serif" font-size="10.00">+ MainScene()</text>
</a>
</g>
</g>
<!-- Node3&#45;&gt;Node9 -->
<g id="edge8" class="edge">
<title>Node3&#45;&gt;Node9</title>
<path fill="none" stroke="midnightblue" d="M628.82,-87.61C640.16,-77.26 651.69,-66.75 661.74,-57.59"/>
<polygon fill="none" stroke="midnightblue" points="626.43,-85.04 621.4,-94.37 631.15,-90.22 626.43,-85.04"/>
</g>
<!-- Node10 -->
<g id="node10" class="node">
<title>Node10</title>
<g id="a_node10"><a xlink:href="classgame_1_1PauseScene.html" target="_top" xlink:title="A scene that contains functionality for pausing the game.">
<polygon fill="none" stroke="black" points="757.5,-0.5 757.5,-57.5 858.5,-57.5 858.5,-0.5 757.5,-0.5"/>
<text text-anchor="middle" x="808" y="-45.5" font-family="Helvetica,sans-Serif" font-size="10.00">game::PauseScene</text>
<polyline fill="none" stroke="black" points="757.5,-38.5 858.5,-38.5 "/>
<text text-anchor="middle" x="808" y="-26.5" font-family="Helvetica,sans-Serif" font-size="10.00"> </text>
<polyline fill="none" stroke="black" points="757.5,-19.5 858.5,-19.5 "/>
<text text-anchor="start" x="765.5" y="-7.5" font-family="Helvetica,sans-Serif" font-size="10.00">+ PauseScene()</text>
</a>
</g>
</g>
<!-- Node3&#45;&gt;Node10 -->
<g id="edge9" class="edge">
<title>Node3&#45;&gt;Node10</title>
<path fill="none" stroke="midnightblue" d="M678.7,-89.99C701.56,-79.47 725.6,-68.38 748,-58 751.02,-56.6 754.13,-55.16 757.27,-53.7"/>
<polygon fill="none" stroke="midnightblue" points="676.94,-86.95 669.32,-94.31 679.87,-93.31 676.94,-86.95"/>
</g>
<!-- Node11 -->
<g id="node11" class="node">
<title>Node11</title>
<g id="a_node11"><a xlink:href="classgame_1_1SaveSelectionScene.html" target="_top" xlink:title="Scene for selection which save the user wants to play.">
<polygon fill="none" stroke="black" points="877,-0.5 877,-57.5 1013,-57.5 1013,-0.5 877,-0.5"/>
<text text-anchor="middle" x="945" y="-45.5" font-family="Helvetica,sans-Serif" font-size="10.00">game::SaveSelectionScene</text>
<polyline fill="none" stroke="black" points="877,-38.5 1013,-38.5 "/>
<text text-anchor="middle" x="945" y="-26.5" font-family="Helvetica,sans-Serif" font-size="10.00"> </text>
<polyline fill="none" stroke="black" points="877,-19.5 1013,-19.5 "/>
<text text-anchor="start" x="885" y="-7.5" font-family="Helvetica,sans-Serif" font-size="10.00">+ SaveSelectionScene()</text>
</a>
</g>
</g>
<!-- Node3&#45;&gt;Node11 -->
<g id="edge10" class="edge">
<title>Node3&#45;&gt;Node11</title>
<path fill="none" stroke="midnightblue" d="M688.48,-109.35C743.2,-94.93 809.29,-76.65 868,-58 870.85,-57.1 873.74,-56.15 876.67,-55.18"/>
<polygon fill="none" stroke="midnightblue" points="687.53,-105.98 678.75,-111.9 689.31,-112.75 687.53,-105.98"/>
</g>
<!-- Node12 -->
<g id="node12" class="node">
<title>Node12</title>
<g id="a_node12"><a xlink:href="classgame_1_1VictoryScene.html" target="_top" xlink:title="A scene that contains a victory screen.">
<polygon fill="none" stroke="black" points="1031.5,-0.5 1031.5,-57.5 1134.5,-57.5 1134.5,-0.5 1031.5,-0.5"/>
<text text-anchor="middle" x="1083" y="-45.5" font-family="Helvetica,sans-Serif" font-size="10.00">game::VictoryScene</text>
<polyline fill="none" stroke="black" points="1031.5,-38.5 1134.5,-38.5 "/>
<text text-anchor="middle" x="1083" y="-26.5" font-family="Helvetica,sans-Serif" font-size="10.00"> </text>
<polyline fill="none" stroke="black" points="1031.5,-19.5 1134.5,-19.5 "/>
<text text-anchor="start" x="1039.5" y="-7.5" font-family="Helvetica,sans-Serif" font-size="10.00">+ VictoryScene()</text>
</a>
</g>
</g>
<!-- Node3&#45;&gt;Node12 -->
<g id="edge11" class="edge">
<title>Node3&#45;&gt;Node12</title>
<path fill="none" stroke="midnightblue" d="M688.84,-125.91C780.67,-113.99 911.47,-92.66 1022,-58 1025.11,-57.02 1028.28,-55.93 1031.44,-54.75"/>
<polygon fill="none" stroke="midnightblue" points="688.16,-122.47 678.68,-127.21 689.05,-129.41 688.16,-122.47"/>
</g>
</g>
</svg>
