<?xml version="1.0" encoding="UTF-8" standalone="no"?>
<!DOCTYPE svg PUBLIC "-//W3C//DTD SVG 1.1//EN"
 "http://www.w3.org/Graphics/SVG/1.1/DTD/svg11.dtd">
<!-- Generated by graphviz version 2.44.0 ()
 -->
<!-- Title: spic::Scene Pages: 1 -->
<!--zoomable 386 -->
<svg id="main" version="1.1" xmlns="http://www.w3.org/2000/svg" xmlns:xlink="http://www.w3.org/1999/xlink" xml:space="preserve" onload="init(evt)">
<style type="text/css"><![CDATA[
.edge:hover path { stroke: red; }
.edge:hover polygon { stroke: red; fill: red; }
]]></style>
<script type="text/javascript"><![CDATA[
var edges = document.getElementsByTagName('g');
if (edges && edges.length) {
  for (var i=0;i<edges.length;i++) {
    if (edges[i].id.substr(0,4)=='edge') {
      edges[i].setAttribute('class','edge');
    }
  }
}
]]></script>
        <defs>
                <circle id="rim" cx="0" cy="0" r="7"/>
                <circle id="rim2" cx="0" cy="0" r="3.5"/>
                <g id="zoomPlus">
                        <use xlink:href="#rim" fill="#404040">
                                <set attributeName="fill" to="#808080" begin="zoomplus.mouseover" end="zoomplus.mouseout"/>
                        </use>
                        <path d="M-4,0h8M0,-4v8" fill="none" stroke="white" stroke-width="1.5" pointer-events="none"/>
                </g>
                <g id="zoomMin">
                        <use xlink:href="#rim" fill="#404040">
                                <set attributeName="fill" to="#808080" begin="zoomminus.mouseover" end="zoomminus.mouseout"/>
                        </use>
                        <path d="M-4,0h8" fill="none" stroke="white" stroke-width="1.5" pointer-events="none"/>
                </g>
                <g id="dirArrow">
                        <path fill="none" stroke="white" stroke-width="1.5" d="M0,-3.0v7 M-2.5,-0.5L0,-3.0L2.5,-0.5"/>
                </g>
               <g id="resetDef">
                       <use xlink:href="#rim2" fill="#404040">
                               <set attributeName="fill" to="#808080" begin="reset.mouseover" end="reset.mouseout"/>
                       </use>
               </g>
        </defs>

<script type="text/javascript">
var viewWidth = 1471;
var viewHeight = 386;
var sectionId = 'dynsection-0';
</script>
<script xlink:href="svgpan.js"/>
<svg id="graph" class="graph">
<g id="viewport">
<title>spic::Scene</title>
<!-- Node1 -->
<g id="node1" class="node">
<title>Node1</title>
<g id="a_node1"><a xlink:title="Class representing a scene which can be rendered by the Camera. @spicapi.">
<polygon fill="#bfbfbf" stroke="black" points="568.5,-265.5 568.5,-377.5 696.5,-377.5 696.5,-265.5 568.5,-265.5"/>
<text text-anchor="middle" x="632.5" y="-365.5" font-family="Helvetica,sans-Serif" font-size="10.00">spic::Scene</text>
<polyline fill="none" stroke="black" points="568.5,-358.5 696.5,-358.5 "/>
<text text-anchor="middle" x="632.5" y="-346.5" font-family="Helvetica,sans-Serif" font-size="10.00"> </text>
<polyline fill="none" stroke="black" points="568.5,-339.5 696.5,-339.5 "/>
<text text-anchor="start" x="576.5" y="-327.5" font-family="Helvetica,sans-Serif" font-size="10.00">+ Scene()</text>
<text text-anchor="start" x="576.5" y="-316.5" font-family="Helvetica,sans-Serif" font-size="10.00">+ virtual ~Scene()=default</text>
<text text-anchor="start" x="576.5" y="-305.5" font-family="Helvetica,sans-Serif" font-size="10.00">+ void RenderScene()</text>
<text text-anchor="start" x="576.5" y="-294.5" font-family="Helvetica,sans-Serif" font-size="10.00">+ std::vector&lt; std::shared</text>
<text text-anchor="start" x="576.5" y="-283.5" font-family="Helvetica,sans-Serif" font-size="10.00">_ptr&lt; GameObject &gt; &gt; &amp;</text>
<text text-anchor="start" x="576.5" y="-272.5" font-family="Helvetica,sans-Serif" font-size="10.00"> Contents()</text>
</a>
</g>
</g>
<!-- Node2 -->
<g id="node2" class="node">
<title>Node2</title>
<g id="a_node2"><a xlink:href="classgame_1_1LevelScene.html" target="_top" xlink:title="A scene that contains a level to play.">
<polygon fill="none" stroke="black" points="456.5,-149.5 456.5,-217.5 600.5,-217.5 600.5,-149.5 456.5,-149.5"/>
<text text-anchor="middle" x="528.5" y="-205.5" font-family="Helvetica,sans-Serif" font-size="10.00">game::LevelScene</text>
<polyline fill="none" stroke="black" points="456.5,-198.5 600.5,-198.5 "/>
<text text-anchor="middle" x="528.5" y="-186.5" font-family="Helvetica,sans-Serif" font-size="10.00"> </text>
<polyline fill="none" stroke="black" points="456.5,-179.5 600.5,-179.5 "/>
<text text-anchor="start" x="464.5" y="-167.5" font-family="Helvetica,sans-Serif" font-size="10.00">+ LevelScene(LevelWithTiles</text>
<text text-anchor="start" x="464.5" y="-156.5" font-family="Helvetica,sans-Serif" font-size="10.00"> &amp;level)</text>
</a>
</g>
</g>
<!-- Node1&#45;&gt;Node2 -->
<g id="edge1" class="edge">
<title>Node1&#45;&gt;Node2</title>
<path fill="none" stroke="midnightblue" d="M584.06,-257.16C573.58,-243.45 562.9,-229.48 553.74,-217.51"/>
<polygon fill="none" stroke="midnightblue" points="581.34,-259.37 590.2,-265.18 586.9,-255.11 581.34,-259.37"/>
</g>
<!-- Node3 -->
<g id="node3" class="node">
<title>Node3</title>
<g id="a_node3"><a xlink:href="classgame_1_1MenuScene.html" target="_top" xlink:title="A abstract scene to use for the scene that require menu functionality.">
<polygon fill="none" stroke="black" points="619,-138.5 619,-228.5 856,-228.5 856,-138.5 619,-138.5"/>
<text text-anchor="middle" x="737.5" y="-216.5" font-family="Helvetica,sans-Serif" font-size="10.00">game::MenuScene</text>
<polyline fill="none" stroke="black" points="619,-209.5 856,-209.5 "/>
<text text-anchor="middle" x="737.5" y="-197.5" font-family="Helvetica,sans-Serif" font-size="10.00"> </text>
<polyline fill="none" stroke="black" points="619,-190.5 856,-190.5 "/>
<text text-anchor="start" x="627" y="-178.5" font-family="Helvetica,sans-Serif" font-size="10.00">+ MenuScene(const std</text>
<text text-anchor="start" x="627" y="-167.5" font-family="Helvetica,sans-Serif" font-size="10.00">::string &amp;title, int</text>
<text text-anchor="start" x="627" y="-156.5" font-family="Helvetica,sans-Serif" font-size="10.00"> backButtonAmount=0, Background</text>
<text text-anchor="start" x="627" y="-145.5" font-family="Helvetica,sans-Serif" font-size="10.00">Name backgroundName=BackgroundName::Menu)</text>
</a>
</g>
</g>
<!-- Node1&#45;&gt;Node3 -->
<g id="edge2" class="edge">
<title>Node1&#45;&gt;Node3</title>
<path fill="none" stroke="midnightblue" d="M681.44,-257.11C688.91,-247.44 696.47,-237.65 703.52,-228.51"/>
<polygon fill="none" stroke="midnightblue" points="678.55,-255.13 675.21,-265.18 684.09,-259.41 678.55,-255.13"/>
</g>
<!-- Node4 -->
<g id="node4" class="node">
<title>Node4</title>
<g id="a_node4"><a xlink:href="classgame_1_1CreditScene.html" target="_top" xlink:title="A scene that contains credits to the developers.">
<polygon fill="none" stroke="black" points="0,-11.5 0,-90.5 119,-90.5 119,-11.5 0,-11.5"/>
<text text-anchor="middle" x="59.5" y="-78.5" font-family="Helvetica,sans-Serif" font-size="10.00">game::CreditScene</text>
<polyline fill="none" stroke="black" points="0,-71.5 119,-71.5 "/>
<text text-anchor="middle" x="59.5" y="-59.5" font-family="Helvetica,sans-Serif" font-size="10.00"> </text>
<polyline fill="none" stroke="black" points="0,-52.5 119,-52.5 "/>
<text text-anchor="start" x="8" y="-40.5" font-family="Helvetica,sans-Serif" font-size="10.00">+ CreditScene(const</text>
<text text-anchor="start" x="8" y="-29.5" font-family="Helvetica,sans-Serif" font-size="10.00"> std::shared_ptr&lt; spic</text>
<text text-anchor="start" x="8" y="-18.5" font-family="Helvetica,sans-Serif" font-size="10.00">::GameObject &gt; &amp;audio)</text>
</a>
</g>
</g>
<!-- Node3&#45;&gt;Node4 -->
<g id="edge3" class="edge">
<title>Node3&#45;&gt;Node4</title>
<path fill="none" stroke="midnightblue" d="M609.05,-138.11C397.45,-96.86 326.77,-174.57 128.5,-102 120.72,-99.15 113.04,-95.16 105.79,-90.65"/>
<polygon fill="none" stroke="midnightblue" points="608.41,-141.55 618.9,-140.1 609.79,-134.69 608.41,-141.55"/>
</g>
<!-- Node5 -->
<g id="node5" class="node">
<title>Node5</title>
<g id="a_node5"><a xlink:href="classgame_1_1GameOverScene.html" target="_top" xlink:title="A scene that contains a game over screen.">
<polygon fill="none" stroke="black" points="137.5,-22.5 137.5,-79.5 257.5,-79.5 257.5,-22.5 137.5,-22.5"/>
<text text-anchor="middle" x="197.5" y="-67.5" font-family="Helvetica,sans-Serif" font-size="10.00">game::GameOverScene</text>
<polyline fill="none" stroke="black" points="137.5,-60.5 257.5,-60.5 "/>
<text text-anchor="middle" x="197.5" y="-48.5" font-family="Helvetica,sans-Serif" font-size="10.00"> </text>
<polyline fill="none" stroke="black" points="137.5,-41.5 257.5,-41.5 "/>
<text text-anchor="start" x="145.5" y="-29.5" font-family="Helvetica,sans-Serif" font-size="10.00">+ GameOverScene()</text>
</a>
</g>
</g>
<!-- Node3&#45;&gt;Node5 -->
<g id="edge4" class="edge">
<title>Node3&#45;&gt;Node5</title>
<path fill="none" stroke="midnightblue" d="M608.78,-138.05C457.7,-106.81 406.56,-155.65 266.5,-102 252.96,-96.81 239.68,-88.27 228.44,-79.7"/>
<polygon fill="none" stroke="midnightblue" points="608.36,-141.54 618.87,-140.22 609.84,-134.69 608.36,-141.54"/>
</g>
<!-- Node6 -->
<g id="node6" class="node">
<title>Node6</title>
<g id="a_node6"><a xlink:href="classgame_1_1HelpScene.html" target="_top" xlink:title="A scene that contains help for the user.">
<polygon fill="none" stroke="black" points="275.5,-11.5 275.5,-90.5 427.5,-90.5 427.5,-11.5 275.5,-11.5"/>
<text text-anchor="middle" x="351.5" y="-78.5" font-family="Helvetica,sans-Serif" font-size="10.00">game::HelpScene</text>
<polyline fill="none" stroke="black" points="275.5,-71.5 427.5,-71.5 "/>
<text text-anchor="middle" x="351.5" y="-59.5" font-family="Helvetica,sans-Serif" font-size="10.00"> </text>
<polyline fill="none" stroke="black" points="275.5,-52.5 427.5,-52.5 "/>
<text text-anchor="start" x="283.5" y="-40.5" font-family="Helvetica,sans-Serif" font-size="10.00">+ HelpScene(const std</text>
<text text-anchor="start" x="283.5" y="-29.5" font-family="Helvetica,sans-Serif" font-size="10.00">::shared_ptr&lt; spic::GameObject</text>
<text text-anchor="start" x="283.5" y="-18.5" font-family="Helvetica,sans-Serif" font-size="10.00"> &gt; &amp;audio)</text>
</a>
</g>
</g>
<!-- Node3&#45;&gt;Node6 -->
<g id="edge5" class="edge">
<title>Node3&#45;&gt;Node6</title>
<path fill="none" stroke="midnightblue" d="M609.09,-138.04C531.85,-118.03 506.9,-129.18 436.5,-102 428.19,-98.79 419.76,-94.83 411.58,-90.54"/>
<polygon fill="none" stroke="midnightblue" points="608.21,-141.43 618.77,-140.64 610.02,-134.67 608.21,-141.43"/>
</g>
<!-- Node7 -->
<g id="node7" class="node">
<title>Node7</title>
<g id="a_node7"><a xlink:href="classgame_1_1LevelSelectionScene.html" target="_top" xlink:title="A scene that contains all the levels.">
<polygon fill="none" stroke="black" points="445.5,-0.5 445.5,-101.5 591.5,-101.5 591.5,-0.5 445.5,-0.5"/>
<text text-anchor="middle" x="518.5" y="-89.5" font-family="Helvetica,sans-Serif" font-size="10.00">game::LevelSelectionScene</text>
<polyline fill="none" stroke="black" points="445.5,-82.5 591.5,-82.5 "/>
<text text-anchor="middle" x="518.5" y="-70.5" font-family="Helvetica,sans-Serif" font-size="10.00"> </text>
<polyline fill="none" stroke="black" points="445.5,-63.5 591.5,-63.5 "/>
<text text-anchor="start" x="453.5" y="-51.5" font-family="Helvetica,sans-Serif" font-size="10.00">+ LevelSelectionScene</text>
<text text-anchor="start" x="453.5" y="-40.5" font-family="Helvetica,sans-Serif" font-size="10.00">(const std::shared_ptr</text>
<text text-anchor="start" x="453.5" y="-29.5" font-family="Helvetica,sans-Serif" font-size="10.00">&lt; spic::GameObject &gt; &amp;audio)</text>
<text text-anchor="start" x="453.5" y="-18.5" font-family="Helvetica,sans-Serif" font-size="10.00">+ void LoadLevels(bool</text>
<text text-anchor="start" x="453.5" y="-7.5" font-family="Helvetica,sans-Serif" font-size="10.00"> reload)</text>
</a>
</g>
</g>
<!-- Node3&#45;&gt;Node7 -->
<g id="edge6" class="edge">
<title>Node3&#45;&gt;Node7</title>
<path fill="none" stroke="midnightblue" d="M652.99,-133.13C635.6,-122.89 617.43,-112.14 600.5,-102 597.64,-100.29 594.72,-98.54 591.78,-96.77"/>
<polygon fill="none" stroke="midnightblue" points="651.6,-136.38 662,-138.43 655.15,-130.34 651.6,-136.38"/>
</g>
<!-- Node8 -->
<g id="node8" class="node">
<title>Node8</title>
<g id="a_node8"><a xlink:href="classgame_1_1LoadingScene.html" target="_top" xlink:title="Scene for the loading screen of the game.">
<polygon fill="none" stroke="black" points="610,-22.5 610,-79.5 717,-79.5 717,-22.5 610,-22.5"/>
<text text-anchor="middle" x="663.5" y="-67.5" font-family="Helvetica,sans-Serif" font-size="10.00">game::LoadingScene</text>
<polyline fill="none" stroke="black" points="610,-60.5 717,-60.5 "/>
<text text-anchor="middle" x="663.5" y="-48.5" font-family="Helvetica,sans-Serif" font-size="10.00"> </text>
<polyline fill="none" stroke="black" points="610,-41.5 717,-41.5 "/>
<text text-anchor="start" x="618" y="-29.5" font-family="Helvetica,sans-Serif" font-size="10.00">+ LoadingScene()</text>
</a>
</g>
</g>
<!-- Node3&#45;&gt;Node8 -->
<g id="edge7" class="edge">
<title>Node3&#45;&gt;Node8</title>
<path fill="none" stroke="midnightblue" d="M707.47,-129.53C697.8,-112.48 687.47,-94.27 679.26,-79.79"/>
<polygon fill="none" stroke="midnightblue" points="704.47,-131.35 712.45,-138.32 710.56,-127.89 704.47,-131.35"/>
</g>
<!-- Node9 -->
<g id="node9" class="node">
<title>Node9</title>
<g id="a_node9"><a xlink:href="classgame_1_1MainScene.html" target="_top" xlink:title="A scene that show the title of the game and some information.">
<polygon fill="none" stroke="black" points="735.5,-11.5 735.5,-90.5 887.5,-90.5 887.5,-11.5 735.5,-11.5"/>
<text text-anchor="middle" x="811.5" y="-78.5" font-family="Helvetica,sans-Serif" font-size="10.00">game::MainScene</text>
<polyline fill="none" stroke="black" points="735.5,-71.5 887.5,-71.5 "/>
<text text-anchor="middle" x="811.5" y="-59.5" font-family="Helvetica,sans-Serif" font-size="10.00"> </text>
<polyline fill="none" stroke="black" points="735.5,-52.5 887.5,-52.5 "/>
<text text-anchor="start" x="743.5" y="-40.5" font-family="Helvetica,sans-Serif" font-size="10.00">+ MainScene(const std</text>
<text text-anchor="start" x="743.5" y="-29.5" font-family="Helvetica,sans-Serif" font-size="10.00">::shared_ptr&lt; spic::GameObject</text>
<text text-anchor="start" x="743.5" y="-18.5" font-family="Helvetica,sans-Serif" font-size="10.00"> &gt; &amp;audio)</text>
</a>
</g>
</g>
<!-- Node3&#45;&gt;Node9 -->
<g id="edge8" class="edge">
<title>Node3&#45;&gt;Node9</title>
<path fill="none" stroke="midnightblue" d="M767.55,-129.51C774.87,-116.59 782.57,-103.01 789.45,-90.89"/>
<polygon fill="none" stroke="midnightblue" points="764.44,-127.89 762.55,-138.32 770.53,-131.35 764.44,-127.89"/>
</g>
<!-- Node10 -->
<g id="node10" class="node">
<title>Node10</title>
<g id="a_node10"><a xlink:href="classgame_1_1PauseScene.html" target="_top" xlink:title="A scene that contains functionality for pausing the game.">
<polygon fill="none" stroke="black" points="906,-22.5 906,-79.5 1007,-79.5 1007,-22.5 906,-22.5"/>
<text text-anchor="middle" x="956.5" y="-67.5" font-family="Helvetica,sans-Serif" font-size="10.00">game::PauseScene</text>
<polyline fill="none" stroke="black" points="906,-60.5 1007,-60.5 "/>
<text text-anchor="middle" x="956.5" y="-48.5" font-family="Helvetica,sans-Serif" font-size="10.00"> </text>
<polyline fill="none" stroke="black" points="906,-41.5 1007,-41.5 "/>
<text text-anchor="start" x="914" y="-29.5" font-family="Helvetica,sans-Serif" font-size="10.00">+ PauseScene()</text>
</a>
</g>
</g>
<!-- Node3&#45;&gt;Node10 -->
<g id="edge9" class="edge">
<title>Node3&#45;&gt;Node10</title>
<path fill="none" stroke="midnightblue" d="M842.27,-133.72C860.75,-123.92 879.5,-113.18 896.5,-102 906.58,-95.37 916.91,-87.31 926.09,-79.61"/>
<polygon fill="none" stroke="midnightblue" points="840.46,-130.71 833.22,-138.45 843.7,-136.92 840.46,-130.71"/>
</g>
<!-- Node11 -->
<g id="node11" class="node">
<title>Node11</title>
<g id="a_node11"><a xlink:href="classgame_1_1SaveSelectionScene.html" target="_top" xlink:title="Scene for selection which save the user wants to play.">
<polygon fill="none" stroke="black" points="1025.5,-11.5 1025.5,-90.5 1171.5,-90.5 1171.5,-11.5 1025.5,-11.5"/>
<text text-anchor="middle" x="1098.5" y="-78.5" font-family="Helvetica,sans-Serif" font-size="10.00">game::SaveSelectionScene</text>
<polyline fill="none" stroke="black" points="1025.5,-71.5 1171.5,-71.5 "/>
<text text-anchor="middle" x="1098.5" y="-59.5" font-family="Helvetica,sans-Serif" font-size="10.00"> </text>
<polyline fill="none" stroke="black" points="1025.5,-52.5 1171.5,-52.5 "/>
<text text-anchor="start" x="1033.5" y="-40.5" font-family="Helvetica,sans-Serif" font-size="10.00">+ SaveSelectionScene</text>
<text text-anchor="start" x="1033.5" y="-29.5" font-family="Helvetica,sans-Serif" font-size="10.00">(const std::shared_ptr</text>
<text text-anchor="start" x="1033.5" y="-18.5" font-family="Helvetica,sans-Serif" font-size="10.00">&lt; spic::GameObject &gt; &amp;audio)</text>
</a>
</g>
</g>
<!-- Node3&#45;&gt;Node11 -->
<g id="edge10" class="edge">
<title>Node3&#45;&gt;Node11</title>
<path fill="none" stroke="midnightblue" d="M865.88,-153.15C914.12,-140.14 968.79,-122.98 1016.5,-102 1024.13,-98.64 1031.91,-94.69 1039.49,-90.5"/>
<polygon fill="none" stroke="midnightblue" points="864.77,-149.82 856.01,-155.78 866.57,-156.58 864.77,-149.82"/>
</g>
<!-- Node12 -->
<g id="node12" class="node">
<title>Node12</title>
<g id="a_node12"><a xlink:href="classgame_1_1StatsScene.html" target="_top" xlink:title="A scene that contains a stats of the player.">
<polygon fill="none" stroke="black" points="1189.5,-11.5 1189.5,-90.5 1341.5,-90.5 1341.5,-11.5 1189.5,-11.5"/>
<text text-anchor="middle" x="1265.5" y="-78.5" font-family="Helvetica,sans-Serif" font-size="10.00">game::StatsScene</text>
<polyline fill="none" stroke="black" points="1189.5,-71.5 1341.5,-71.5 "/>
<text text-anchor="middle" x="1265.5" y="-59.5" font-family="Helvetica,sans-Serif" font-size="10.00"> </text>
<polyline fill="none" stroke="black" points="1189.5,-52.5 1341.5,-52.5 "/>
<text text-anchor="start" x="1197.5" y="-40.5" font-family="Helvetica,sans-Serif" font-size="10.00">+ StatsScene(const std</text>
<text text-anchor="start" x="1197.5" y="-29.5" font-family="Helvetica,sans-Serif" font-size="10.00">::shared_ptr&lt; spic::GameObject</text>
<text text-anchor="start" x="1197.5" y="-18.5" font-family="Helvetica,sans-Serif" font-size="10.00"> &gt; &amp;audio)</text>
</a>
</g>
</g>
<!-- Node3&#45;&gt;Node12 -->
<g id="edge11" class="edge">
<title>Node3&#45;&gt;Node12</title>
<path fill="none" stroke="midnightblue" d="M866.15,-171.2C956.31,-160.41 1078.44,-139.92 1180.5,-102 1188.85,-98.9 1197.31,-95 1205.49,-90.74"/>
<polygon fill="none" stroke="midnightblue" points="865.67,-167.74 856.15,-172.38 866.49,-174.69 865.67,-167.74"/>
</g>
<!-- Node13 -->
<g id="node13" class="node">
<title>Node13</title>
<g id="a_node13"><a xlink:href="classgame_1_1VictoryScene.html" target="_top" xlink:title="A scene that contains a victory screen.">
<polygon fill="none" stroke="black" points="1360,-22.5 1360,-79.5 1463,-79.5 1463,-22.5 1360,-22.5"/>
<text text-anchor="middle" x="1411.5" y="-67.5" font-family="Helvetica,sans-Serif" font-size="10.00">game::VictoryScene</text>
<polyline fill="none" stroke="black" points="1360,-60.5 1463,-60.5 "/>
<text text-anchor="middle" x="1411.5" y="-48.5" font-family="Helvetica,sans-Serif" font-size="10.00"> </text>
<polyline fill="none" stroke="black" points="1360,-41.5 1463,-41.5 "/>
<text text-anchor="start" x="1368" y="-29.5" font-family="Helvetica,sans-Serif" font-size="10.00">+ VictoryScene()</text>
</a>
</g>
</g>
<!-- Node3&#45;&gt;Node13 -->
<g id="edge12" class="edge">
<title>Node3&#45;&gt;Node13</title>
<path fill="none" stroke="midnightblue" d="M866.66,-173.89C1020.16,-162.22 1266.13,-138.53 1350.5,-102 1362.81,-96.67 1374.64,-88.09 1384.55,-79.54"/>
<polygon fill="none" stroke="midnightblue" points="865.94,-170.44 856.23,-174.68 866.47,-177.42 865.94,-170.44"/>
</g>
</g>
</svg>
        <g id="navigator" transform="translate(0 0)" fill="#404254">
                <rect fill="#f2f5e9" fill-opacity="0.5" stroke="#606060" stroke-width=".5" x="0" y="0" width="60" height="60"/>
                <use id="zoomplus" xlink:href="#zoomPlus" x="17" y="9" onmousedown="handleZoom(evt,'in')"/>
                <use id="zoomminus" xlink:href="#zoomMin" x="42" y="9" onmousedown="handleZoom(evt,'out')"/>
                <use id="reset" xlink:href="#resetDef" x="30" y="36" onmousedown="handleReset()"/>
                <g id="arrowUp" xlink:href="#dirArrow" transform="translate(30 24)" onmousedown="handlePan(0,-1)">
                  <use xlink:href="#rim" fill="#404040">
                        <set attributeName="fill" to="#808080" begin="arrowUp.mouseover" end="arrowUp.mouseout"/>
                  </use>
                  <path fill="none" stroke="white" stroke-width="1.5" d="M0,-3.0v7 M-2.5,-0.5L0,-3.0L2.5,-0.5"/>
                </g>
                <g id="arrowRight" xlink:href="#dirArrow" transform="rotate(90) translate(36 -43)" onmousedown="handlePan(1,0)">
                  <use xlink:href="#rim" fill="#404040">
                        <set attributeName="fill" to="#808080" begin="arrowRight.mouseover" end="arrowRight.mouseout"/>
                  </use>
                  <path fill="none" stroke="white" stroke-width="1.5" d="M0,-3.0v7 M-2.5,-0.5L0,-3.0L2.5,-0.5"/>
                </g>
                <g id="arrowDown" xlink:href="#dirArrow" transform="rotate(180) translate(-30 -48)" onmousedown="handlePan(0,1)">
                  <use xlink:href="#rim" fill="#404040">
                        <set attributeName="fill" to="#808080" begin="arrowDown.mouseover" end="arrowDown.mouseout"/>
                  </use>
                  <path fill="none" stroke="white" stroke-width="1.5" d="M0,-3.0v7 M-2.5,-0.5L0,-3.0L2.5,-0.5"/>
                </g>
                <g id="arrowLeft" xlink:href="#dirArrow" transform="rotate(270) translate(-36 17)" onmousedown="handlePan(-1,0)">
                  <use xlink:href="#rim" fill="#404040">
                        <set attributeName="fill" to="#808080" begin="arrowLeft.mouseover" end="arrowLeft.mouseout"/>
                  </use>
                  <path fill="none" stroke="white" stroke-width="1.5" d="M0,-3.0v7 M-2.5,-0.5L0,-3.0L2.5,-0.5"/>
                </g>
        </g>
        <svg viewBox="0 0 15 15" width="100%" height="30px" preserveAspectRatio="xMaxYMin meet">
         <g id="arrow_out" transform="scale(0.3 0.3)">
          <a xlink:href="classspic_1_1Scene__inherit__graph_org.svg" target="_base">
           <rect id="button" ry="5" rx="5" y="6" x="6" height="38" width="38"
                fill="#f2f5e9" fill-opacity="0.5" stroke="#606060" stroke-width="1.0"/>
           <path id="arrow"
             d="M 11.500037,31.436501 C 11.940474,20.09759 22.043105,11.32322 32.158766,21.979434 L 37.068811,17.246167 C 37.068811,17.246167 37.088388,32 37.088388,32 L 22.160133,31.978069 C 22.160133,31.978069 26.997745,27.140456 26.997745,27.140456 C 18.528582,18.264221 13.291696,25.230495 11.500037,31.436501 z"
             style="fill:#404040;"/>
          </a>
         </g>
        </svg>
</svg>
