<?xml version="1.0" encoding="UTF-8" standalone="no"?>
<!DOCTYPE svg PUBLIC "-//W3C//DTD SVG 1.1//EN"
 "http://www.w3.org/Graphics/SVG/1.1/DTD/svg11.dtd">
<!-- Generated by graphviz version 2.44.0 ()
 -->
<!-- Title: game::LevelSelectionScene Pages: 1 -->
<svg width="219pt" height="386pt"
 viewBox="0.00 0.00 219.00 386.00" xmlns="http://www.w3.org/2000/svg" xmlns:xlink="http://www.w3.org/1999/xlink">
<g id="graph0" class="graph" transform="scale(1 1) rotate(0) translate(4 382)">
<title>game::LevelSelectionScene</title>
<!-- Node1 -->
<g id="node1" class="node">
<title>Node1</title>
<g id="a_node1"><a xlink:title="A scene that contains all the levels.">
<polygon fill="#bfbfbf" stroke="black" points="32.5,-0.5 32.5,-101.5 178.5,-101.5 178.5,-0.5 32.5,-0.5"/>
<text text-anchor="middle" x="105.5" y="-89.5" font-family="Helvetica,sans-Serif" font-size="10.00">game::LevelSelectionScene</text>
<polyline fill="none" stroke="black" points="32.5,-82.5 178.5,-82.5 "/>
<text text-anchor="middle" x="105.5" y="-70.5" font-family="Helvetica,sans-Serif" font-size="10.00"> </text>
<polyline fill="none" stroke="black" points="32.5,-63.5 178.5,-63.5 "/>
<text text-anchor="start" x="40.5" y="-51.5" font-family="Helvetica,sans-Serif" font-size="10.00">+ LevelSelectionScene</text>
<text text-anchor="start" x="40.5" y="-40.5" font-family="Helvetica,sans-Serif" font-size="10.00">(const std::shared_ptr</text>
<text text-anchor="start" x="40.5" y="-29.5" font-family="Helvetica,sans-Serif" font-size="10.00">&lt; spic::GameObject &gt; &amp;audio)</text>
<text text-anchor="start" x="40.5" y="-18.5" font-family="Helvetica,sans-Serif" font-size="10.00">+ void LoadLevels(bool</text>
<text text-anchor="start" x="40.5" y="-7.5" font-family="Helvetica,sans-Serif" font-size="10.00"> reload)</text>
</a>
</g>
</g>
<!-- Node2 -->
<g id="node2" class="node">
<title>Node2</title>
<g id="a_node2"><a xlink:href="classgame_1_1MenuScene.html" target="_top" xlink:title="A abstract scene to use for the scene that require menu functionality.">
<polygon fill="none" stroke="black" points="0,-138.5 0,-228.5 211,-228.5 211,-138.5 0,-138.5"/>
<text text-anchor="middle" x="105.5" y="-216.5" font-family="Helvetica,sans-Serif" font-size="10.00">game::MenuScene</text>
<polyline fill="none" stroke="black" points="0,-209.5 211,-209.5 "/>
<text text-anchor="middle" x="105.5" y="-197.5" font-family="Helvetica,sans-Serif" font-size="10.00"> </text>
<polyline fill="none" stroke="black" points="0,-190.5 211,-190.5 "/>
<text text-anchor="start" x="8" y="-178.5" font-family="Helvetica,sans-Serif" font-size="10.00">+ MenuScene(const std</text>
<text text-anchor="start" x="8" y="-167.5" font-family="Helvetica,sans-Serif" font-size="10.00">::string &amp;title, bool</text>
<text text-anchor="start" x="8" y="-156.5" font-family="Helvetica,sans-Serif" font-size="10.00"> hasBackButton, BackgroundName</text>
<text text-anchor="start" x="8" y="-145.5" font-family="Helvetica,sans-Serif" font-size="10.00"> backgroundName=BackgroundName::Menu)</text>
</a>
</g>
</g>
<!-- Node2&#45;&gt;Node1 -->
<g id="edge1" class="edge">
<title>Node2&#45;&gt;Node1</title>
<path fill="none" stroke="midnightblue" d="M105.5,-128.13C105.5,-119.31 105.5,-110.22 105.5,-101.52"/>
<polygon fill="none" stroke="midnightblue" points="102,-128.32 105.5,-138.32 109,-128.32 102,-128.32"/>
</g>
<!-- Node3 -->
<g id="node3" class="node">
<title>Node3</title>
<g id="a_node3"><a xlink:href="classspic_1_1Scene.html" target="_top" xlink:title="Class representing a scene which can be rendered by the Camera. @spicapi.">
<polygon fill="none" stroke="black" points="41.5,-265.5 41.5,-377.5 169.5,-377.5 169.5,-265.5 41.5,-265.5"/>
<text text-anchor="middle" x="105.5" y="-365.5" font-family="Helvetica,sans-Serif" font-size="10.00">spic::Scene</text>
<polyline fill="none" stroke="black" points="41.5,-358.5 169.5,-358.5 "/>
<text text-anchor="middle" x="105.5" y="-346.5" font-family="Helvetica,sans-Serif" font-size="10.00"> </text>
<polyline fill="none" stroke="black" points="41.5,-339.5 169.5,-339.5 "/>
<text text-anchor="start" x="49.5" y="-327.5" font-family="Helvetica,sans-Serif" font-size="10.00">+ Scene()</text>
<text text-anchor="start" x="49.5" y="-316.5" font-family="Helvetica,sans-Serif" font-size="10.00">+ virtual ~Scene()=default</text>
<text text-anchor="start" x="49.5" y="-305.5" font-family="Helvetica,sans-Serif" font-size="10.00">+ void RenderScene()</text>
<text text-anchor="start" x="49.5" y="-294.5" font-family="Helvetica,sans-Serif" font-size="10.00">+ std::vector&lt; std::shared</text>
<text text-anchor="start" x="49.5" y="-283.5" font-family="Helvetica,sans-Serif" font-size="10.00">_ptr&lt; GameObject &gt; &gt; &amp;</text>
<text text-anchor="start" x="49.5" y="-272.5" font-family="Helvetica,sans-Serif" font-size="10.00"> Contents()</text>
</a>
</g>
</g>
<!-- Node3&#45;&gt;Node2 -->
<g id="edge2" class="edge">
<title>Node3&#45;&gt;Node2</title>
<path fill="none" stroke="midnightblue" d="M105.5,-255.08C105.5,-246.07 105.5,-237.01 105.5,-228.51"/>
<polygon fill="none" stroke="midnightblue" points="102,-255.18 105.5,-265.18 109,-255.18 102,-255.18"/>
</g>
</g>
</svg>
