<?xml version="1.0" encoding="UTF-8" standalone="no"?>
<!DOCTYPE svg PUBLIC "-//W3C//DTD SVG 1.1//EN"
 "http://www.w3.org/Graphics/SVG/1.1/DTD/svg11.dtd">
<!-- Generated by graphviz version 2.44.0 ()
 -->
<!-- Title: engine::UpdateBehaviourScriptSubsystem Pages: 1 -->
<svg width="175pt" height="342pt"
 viewBox="0.00 0.00 175.00 342.00" xmlns="http://www.w3.org/2000/svg" xmlns:xlink="http://www.w3.org/1999/xlink">
<g id="graph0" class="graph" transform="scale(1 1) rotate(0) translate(4 338)">
<title>engine::UpdateBehaviourScriptSubsystem</title>
<!-- Node1 -->
<g id="node1" class="node">
<title>Node1</title>
<g id="a_node1"><a xlink:title=" ">
<polygon fill="#bfbfbf" stroke="black" points="8.5,-0.5 8.5,-101.5 158.5,-101.5 158.5,-0.5 8.5,-0.5"/>
<text text-anchor="start" x="16.5" y="-89.5" font-family="Helvetica,sans-Serif" font-size="10.00">engine::UpdateBehaviourScript</text>
<text text-anchor="middle" x="83.5" y="-78.5" font-family="Helvetica,sans-Serif" font-size="10.00">Subsystem</text>
<polyline fill="none" stroke="black" points="8.5,-71.5 158.5,-71.5 "/>
<text text-anchor="middle" x="83.5" y="-59.5" font-family="Helvetica,sans-Serif" font-size="10.00"> </text>
<polyline fill="none" stroke="black" points="8.5,-52.5 158.5,-52.5 "/>
<text text-anchor="start" x="16.5" y="-40.5" font-family="Helvetica,sans-Serif" font-size="10.00"># void Handle(const std</text>
<text text-anchor="start" x="16.5" y="-29.5" font-family="Helvetica,sans-Serif" font-size="10.00">::shared_ptr&lt; spic::Behaviour</text>
<text text-anchor="start" x="16.5" y="-18.5" font-family="Helvetica,sans-Serif" font-size="10.00">Script &gt; &amp;behaviourScript)</text>
<text text-anchor="start" x="16.5" y="-7.5" font-family="Helvetica,sans-Serif" font-size="10.00"> override</text>
</a>
</g>
</g>
<!-- Node2 -->
<g id="node2" class="node">
<title>Node2</title>
<g id="a_node2"><a xlink:href="classengine_1_1BehaviourScriptSubsystem.html" target="_top" xlink:title="Subsystem to handle BehaviourScript components.">
<polygon fill="none" stroke="black" points="0,-138.5 0,-239.5 167,-239.5 167,-138.5 0,-138.5"/>
<text text-anchor="middle" x="83.5" y="-227.5" font-family="Helvetica,sans-Serif" font-size="10.00">engine::BehaviourScriptSubsystem</text>
<polyline fill="none" stroke="black" points="0,-220.5 167,-220.5 "/>
<text text-anchor="middle" x="83.5" y="-208.5" font-family="Helvetica,sans-Serif" font-size="10.00"> </text>
<polyline fill="none" stroke="black" points="0,-201.5 167,-201.5 "/>
<text text-anchor="start" x="8" y="-189.5" font-family="Helvetica,sans-Serif" font-size="10.00">+ void Update() override</text>
<text text-anchor="start" x="8" y="-178.5" font-family="Helvetica,sans-Serif" font-size="10.00"># virtual void Handle</text>
<text text-anchor="start" x="8" y="-167.5" font-family="Helvetica,sans-Serif" font-size="10.00">(const std::shared_ptr</text>
<text text-anchor="start" x="8" y="-156.5" font-family="Helvetica,sans-Serif" font-size="10.00">&lt; spic::BehaviourScript</text>
<text text-anchor="start" x="8" y="-145.5" font-family="Helvetica,sans-Serif" font-size="10.00"> &gt; &amp;behaviourScript)=0</text>
</a>
</g>
</g>
<!-- Node2&#45;&gt;Node1 -->
<g id="edge1" class="edge">
<title>Node2&#45;&gt;Node1</title>
<path fill="none" stroke="midnightblue" d="M83.5,-128C83.5,-119.27 83.5,-110.36 83.5,-101.86"/>
<polygon fill="none" stroke="midnightblue" points="80,-128.13 83.5,-138.13 87,-128.13 80,-128.13"/>
</g>
<!-- Node3 -->
<g id="node3" class="node">
<title>Node3</title>
<g id="a_node3"><a xlink:href="classengine_1_1ISubsystem.html" target="_top" xlink:title="Interface for subsystems.">
<polygon fill="none" stroke="black" points="22.5,-276.5 22.5,-333.5 144.5,-333.5 144.5,-276.5 22.5,-276.5"/>
<text text-anchor="middle" x="83.5" y="-321.5" font-family="Helvetica,sans-Serif" font-size="10.00">engine::ISubsystem</text>
<polyline fill="none" stroke="black" points="22.5,-314.5 144.5,-314.5 "/>
<text text-anchor="middle" x="83.5" y="-302.5" font-family="Helvetica,sans-Serif" font-size="10.00"> </text>
<polyline fill="none" stroke="black" points="22.5,-295.5 144.5,-295.5 "/>
<text text-anchor="start" x="30.5" y="-283.5" font-family="Helvetica,sans-Serif" font-size="10.00">+ virtual void Update()=0</text>
</a>
</g>
</g>
<!-- Node3&#45;&gt;Node2 -->
<g id="edge2" class="edge">
<title>Node3&#45;&gt;Node2</title>
<path fill="none" stroke="midnightblue" d="M83.5,-266.35C83.5,-257.8 83.5,-248.58 83.5,-239.61"/>
<polygon fill="none" stroke="midnightblue" points="80,-266.4 83.5,-276.4 87,-266.4 80,-266.4"/>
</g>
</g>
</svg>
