<?xml version="1.0" encoding="UTF-8" standalone="no"?>
<!DOCTYPE svg PUBLIC "-//W3C//DTD SVG 1.1//EN"
 "http://www.w3.org/Graphics/SVG/1.1/DTD/svg11.dtd">
<!-- Generated by graphviz version 2.44.0 ()
 -->
<!-- Title: game::LevelScene Pages: 1 -->
<svg width="152pt" height="215pt"
 viewBox="0.00 0.00 152.00 215.00" xmlns="http://www.w3.org/2000/svg" xmlns:xlink="http://www.w3.org/1999/xlink">
<g id="graph0" class="graph" transform="scale(1 1) rotate(0) translate(4 211)">
<title>game::LevelScene</title>
<!-- Node1 -->
<g id="node1" class="node">
<title>Node1</title>
<g id="a_node1"><a xlink:title="A scene that contains a level to play.">
<polygon fill="#bfbfbf" stroke="black" points="0,-0.5 0,-68.5 144,-68.5 144,-0.5 0,-0.5"/>
<text text-anchor="middle" x="72" y="-56.5" font-family="Helvetica,sans-Serif" font-size="10.00">game::LevelScene</text>
<polyline fill="none" stroke="black" points="0,-49.5 144,-49.5 "/>
<text text-anchor="middle" x="72" y="-37.5" font-family="Helvetica,sans-Serif" font-size="10.00"> </text>
<polyline fill="none" stroke="black" points="0,-30.5 144,-30.5 "/>
<text text-anchor="start" x="8" y="-18.5" font-family="Helvetica,sans-Serif" font-size="10.00">+ LevelScene(LevelWithTiles</text>
<text text-anchor="start" x="8" y="-7.5" font-family="Helvetica,sans-Serif" font-size="10.00"> &amp;level)</text>
</a>
</g>
</g>
<!-- Node2 -->
<g id="node2" class="node">
<title>Node2</title>
<g id="a_node2"><a xlink:href="classspic_1_1Scene.html" target="_top" xlink:title="Class representing a scene which can be rendered by the Camera. @spicapi.">
<polygon fill="none" stroke="black" points="9.5,-105.5 9.5,-206.5 134.5,-206.5 134.5,-105.5 9.5,-105.5"/>
<text text-anchor="middle" x="72" y="-194.5" font-family="Helvetica,sans-Serif" font-size="10.00">spic::Scene</text>
<polyline fill="none" stroke="black" points="9.5,-187.5 134.5,-187.5 "/>
<text text-anchor="middle" x="72" y="-175.5" font-family="Helvetica,sans-Serif" font-size="10.00"> </text>
<polyline fill="none" stroke="black" points="9.5,-168.5 134.5,-168.5 "/>
<text text-anchor="start" x="17.5" y="-156.5" font-family="Helvetica,sans-Serif" font-size="10.00">+ Scene()</text>
<text text-anchor="start" x="17.5" y="-145.5" font-family="Helvetica,sans-Serif" font-size="10.00">+ void RenderScene()</text>
<text text-anchor="start" x="17.5" y="-134.5" font-family="Helvetica,sans-Serif" font-size="10.00">+ std::vector&lt; std::shared</text>
<text text-anchor="start" x="17.5" y="-123.5" font-family="Helvetica,sans-Serif" font-size="10.00">_ptr&lt; GameObject &gt; &gt; &amp;</text>
<text text-anchor="start" x="17.5" y="-112.5" font-family="Helvetica,sans-Serif" font-size="10.00"> Contents()</text>
</a>
</g>
</g>
<!-- Node2&#45;&gt;Node1 -->
<g id="edge1" class="edge">
<title>Node2&#45;&gt;Node1</title>
<path fill="none" stroke="midnightblue" d="M72,-95.17C72,-86.11 72,-77.05 72,-68.83"/>
<polygon fill="none" stroke="midnightblue" points="68.5,-95.36 72,-105.36 75.5,-95.36 68.5,-95.36"/>
</g>
</g>
</svg>
