<?xml version="1.0" encoding="UTF-8" standalone="no"?>
<!DOCTYPE svg PUBLIC "-//W3C//DTD SVG 1.1//EN"
 "http://www.w3.org/Graphics/SVG/1.1/DTD/svg11.dtd">
<!-- Generated by graphviz version 2.44.0 ()
 -->
<!-- Title: game::HelpScene Pages: 1 -->
<svg width="245pt" height="364pt"
 viewBox="0.00 0.00 245.00 364.00" xmlns="http://www.w3.org/2000/svg" xmlns:xlink="http://www.w3.org/1999/xlink">
<g id="graph0" class="graph" transform="scale(1 1) rotate(0) translate(4 360)">
<title>game::HelpScene</title>
<!-- Node1 -->
<g id="node1" class="node">
<title>Node1</title>
<g id="a_node1"><a xlink:title="A scene that contains help for the user.">
<polygon fill="#bfbfbf" stroke="black" points="42.5,-0.5 42.5,-79.5 194.5,-79.5 194.5,-0.5 42.5,-0.5"/>
<text text-anchor="middle" x="118.5" y="-67.5" font-family="Helvetica,sans-Serif" font-size="10.00">game::HelpScene</text>
<polyline fill="none" stroke="black" points="42.5,-60.5 194.5,-60.5 "/>
<text text-anchor="middle" x="118.5" y="-48.5" font-family="Helvetica,sans-Serif" font-size="10.00"> </text>
<polyline fill="none" stroke="black" points="42.5,-41.5 194.5,-41.5 "/>
<text text-anchor="start" x="50.5" y="-29.5" font-family="Helvetica,sans-Serif" font-size="10.00">+ HelpScene(const std</text>
<text text-anchor="start" x="50.5" y="-18.5" font-family="Helvetica,sans-Serif" font-size="10.00">::shared_ptr&lt; spic::GameObject</text>
<text text-anchor="start" x="50.5" y="-7.5" font-family="Helvetica,sans-Serif" font-size="10.00"> &gt; &amp;audio)</text>
</a>
</g>
</g>
<!-- Node2 -->
<g id="node2" class="node">
<title>Node2</title>
<g id="a_node2"><a xlink:href="classgame_1_1MenuScene.html" target="_top" xlink:title="A abstract scene to use for the scene that require menu functionality.">
<polygon fill="none" stroke="black" points="0,-116.5 0,-206.5 237,-206.5 237,-116.5 0,-116.5"/>
<text text-anchor="middle" x="118.5" y="-194.5" font-family="Helvetica,sans-Serif" font-size="10.00">game::MenuScene</text>
<polyline fill="none" stroke="black" points="0,-187.5 237,-187.5 "/>
<text text-anchor="middle" x="118.5" y="-175.5" font-family="Helvetica,sans-Serif" font-size="10.00"> </text>
<polyline fill="none" stroke="black" points="0,-168.5 237,-168.5 "/>
<text text-anchor="start" x="8" y="-156.5" font-family="Helvetica,sans-Serif" font-size="10.00">+ MenuScene(const std</text>
<text text-anchor="start" x="8" y="-145.5" font-family="Helvetica,sans-Serif" font-size="10.00">::string &amp;title, int</text>
<text text-anchor="start" x="8" y="-134.5" font-family="Helvetica,sans-Serif" font-size="10.00"> backButtonAmount=0, Background</text>
<text text-anchor="start" x="8" y="-123.5" font-family="Helvetica,sans-Serif" font-size="10.00">Name backgroundName=BackgroundName::Menu)</text>
</a>
</g>
</g>
<!-- Node2&#45;&gt;Node1 -->
<g id="edge1" class="edge">
<title>Node2&#45;&gt;Node1</title>
<path fill="none" stroke="midnightblue" d="M118.5,-106.08C118.5,-97.23 118.5,-88.23 118.5,-79.86"/>
<polygon fill="none" stroke="midnightblue" points="115,-106.34 118.5,-116.34 122,-106.34 115,-106.34"/>
</g>
<!-- Node3 -->
<g id="node3" class="node">
<title>Node3</title>
<g id="a_node3"><a xlink:href="classspic_1_1Scene.html" target="_top" xlink:title="Class representing a scene which can be rendered by the Camera. @spicapi.">
<polygon fill="none" stroke="black" points="54.5,-243.5 54.5,-355.5 182.5,-355.5 182.5,-243.5 54.5,-243.5"/>
<text text-anchor="middle" x="118.5" y="-343.5" font-family="Helvetica,sans-Serif" font-size="10.00">spic::Scene</text>
<polyline fill="none" stroke="black" points="54.5,-336.5 182.5,-336.5 "/>
<text text-anchor="middle" x="118.5" y="-324.5" font-family="Helvetica,sans-Serif" font-size="10.00"> </text>
<polyline fill="none" stroke="black" points="54.5,-317.5 182.5,-317.5 "/>
<text text-anchor="start" x="62.5" y="-305.5" font-family="Helvetica,sans-Serif" font-size="10.00">+ Scene()</text>
<text text-anchor="start" x="62.5" y="-294.5" font-family="Helvetica,sans-Serif" font-size="10.00">+ virtual ~Scene()=default</text>
<text text-anchor="start" x="62.5" y="-283.5" font-family="Helvetica,sans-Serif" font-size="10.00">+ void RenderScene()</text>
<text text-anchor="start" x="62.5" y="-272.5" font-family="Helvetica,sans-Serif" font-size="10.00">+ std::vector&lt; std::shared</text>
<text text-anchor="start" x="62.5" y="-261.5" font-family="Helvetica,sans-Serif" font-size="10.00">_ptr&lt; GameObject &gt; &gt; &amp;</text>
<text text-anchor="start" x="62.5" y="-250.5" font-family="Helvetica,sans-Serif" font-size="10.00"> Contents()</text>
</a>
</g>
</g>
<!-- Node3&#45;&gt;Node2 -->
<g id="edge2" class="edge">
<title>Node3&#45;&gt;Node2</title>
<path fill="none" stroke="midnightblue" d="M118.5,-233.08C118.5,-224.07 118.5,-215.01 118.5,-206.51"/>
<polygon fill="none" stroke="midnightblue" points="115,-233.18 118.5,-243.18 122,-233.18 115,-233.18"/>
</g>
</g>
</svg>
