<?xml version="1.0" encoding="UTF-8" standalone="no"?>
<!DOCTYPE svg PUBLIC "-//W3C//DTD SVG 1.1//EN"
 "http://www.w3.org/Graphics/SVG/1.1/DTD/svg11.dtd">
<!-- Generated by graphviz version 2.44.0 ()
 -->
<!-- Title: engine::ISubsystem Pages: 1 -->
<!--zoomable 386 -->
<svg id="main" version="1.1" xmlns="http://www.w3.org/2000/svg" xmlns:xlink="http://www.w3.org/1999/xlink" xml:space="preserve" onload="init(evt)">
<style type="text/css"><![CDATA[
.edge:hover path { stroke: red; }
.edge:hover polygon { stroke: red; fill: red; }
]]></style>
<script type="text/javascript"><![CDATA[
var edges = document.getElementsByTagName('g');
if (edges && edges.length) {
  for (var i=0;i<edges.length;i++) {
    if (edges[i].id.substr(0,4)=='edge') {
      edges[i].setAttribute('class','edge');
    }
  }
}
]]></script>
        <defs>
                <circle id="rim" cx="0" cy="0" r="7"/>
                <circle id="rim2" cx="0" cy="0" r="3.5"/>
                <g id="zoomPlus">
                        <use xlink:href="#rim" fill="#404040">
                                <set attributeName="fill" to="#808080" begin="zoomplus.mouseover" end="zoomplus.mouseout"/>
                        </use>
                        <path d="M-4,0h8M0,-4v8" fill="none" stroke="white" stroke-width="1.5" pointer-events="none"/>
                </g>
                <g id="zoomMin">
                        <use xlink:href="#rim" fill="#404040">
                                <set attributeName="fill" to="#808080" begin="zoomminus.mouseover" end="zoomminus.mouseout"/>
                        </use>
                        <path d="M-4,0h8" fill="none" stroke="white" stroke-width="1.5" pointer-events="none"/>
                </g>
                <g id="dirArrow">
                        <path fill="none" stroke="white" stroke-width="1.5" d="M0,-3.0v7 M-2.5,-0.5L0,-3.0L2.5,-0.5"/>
                </g>
               <g id="resetDef">
                       <use xlink:href="#rim2" fill="#404040">
                               <set attributeName="fill" to="#808080" begin="reset.mouseover" end="reset.mouseout"/>
                       </use>
               </g>
        </defs>

<script type="text/javascript">
var viewWidth = 1281;
var viewHeight = 386;
var sectionId = 'dynsection-0';
</script>
<script xlink:href="svgpan.js"/>
<svg id="graph" class="graph">
<g id="viewport">
<title>engine::ISubsystem</title>
<!-- Node1 -->
<g id="node1" class="node">
<title>Node1</title>
<g id="a_node1"><a xlink:title="Interface for subsystems.">
<polygon fill="#bfbfbf" stroke="black" points="600.5,-320.5 600.5,-377.5 722.5,-377.5 722.5,-320.5 600.5,-320.5"/>
<text text-anchor="middle" x="661.5" y="-365.5" font-family="Helvetica,sans-Serif" font-size="10.00">engine::ISubsystem</text>
<polyline fill="none" stroke="black" points="600.5,-358.5 722.5,-358.5 "/>
<text text-anchor="middle" x="661.5" y="-346.5" font-family="Helvetica,sans-Serif" font-size="10.00"> </text>
<polyline fill="none" stroke="black" points="600.5,-339.5 722.5,-339.5 "/>
<text text-anchor="start" x="608.5" y="-327.5" font-family="Helvetica,sans-Serif" font-size="10.00">+ virtual void Update()=0</text>
</a>
</g>
</g>
<!-- Node2 -->
<g id="node2" class="node">
<title>Node2</title>
<g id="a_node2"><a xlink:href="classengine_1_1AnimatorSubsystem.html" target="_top" xlink:title="Subsystem to handle Animator components.">
<polygon fill="none" stroke="black" points="0,-182.5 0,-239.5 137,-239.5 137,-182.5 0,-182.5"/>
<text text-anchor="middle" x="68.5" y="-227.5" font-family="Helvetica,sans-Serif" font-size="10.00">engine::AnimatorSubsystem</text>
<polyline fill="none" stroke="black" points="0,-220.5 137,-220.5 "/>
<text text-anchor="middle" x="68.5" y="-208.5" font-family="Helvetica,sans-Serif" font-size="10.00"> </text>
<polyline fill="none" stroke="black" points="0,-201.5 137,-201.5 "/>
<text text-anchor="start" x="8" y="-189.5" font-family="Helvetica,sans-Serif" font-size="10.00">+ void Update() override</text>
</a>
</g>
</g>
<!-- Node1&#45;&gt;Node2 -->
<g id="edge1" class="edge">
<title>Node1&#45;&gt;Node2</title>
<path fill="none" stroke="midnightblue" d="M590.36,-344.53C468.1,-337.68 223.8,-319.88 146.5,-284 124.77,-273.91 104.99,-255.5 90.79,-239.83"/>
<polygon fill="none" stroke="midnightblue" points="590.2,-348.02 600.38,-345.08 590.58,-341.04 590.2,-348.02"/>
</g>
<!-- Node3 -->
<g id="node3" class="node">
<title>Node3</title>
<g id="a_node3"><a xlink:href="classengine_1_1AudioSubsystem.html" target="_top" xlink:title="Subsystem to handle AudioSource components.">
<polygon fill="none" stroke="black" points="155.5,-138.5 155.5,-283.5 299.5,-283.5 299.5,-138.5 155.5,-138.5"/>
<text text-anchor="middle" x="227.5" y="-271.5" font-family="Helvetica,sans-Serif" font-size="10.00">engine::AudioSubsystem</text>
<polyline fill="none" stroke="black" points="155.5,-264.5 299.5,-264.5 "/>
<text text-anchor="middle" x="227.5" y="-252.5" font-family="Helvetica,sans-Serif" font-size="10.00"> </text>
<polyline fill="none" stroke="black" points="155.5,-245.5 299.5,-245.5 "/>
<text text-anchor="start" x="163.5" y="-233.5" font-family="Helvetica,sans-Serif" font-size="10.00">+ AudioSubsystem()</text>
<text text-anchor="start" x="163.5" y="-222.5" font-family="Helvetica,sans-Serif" font-size="10.00">+ void Update() override</text>
<text text-anchor="start" x="163.5" y="-211.5" font-family="Helvetica,sans-Serif" font-size="10.00">+ static void PauseAllAudio</text>
<text text-anchor="start" x="163.5" y="-200.5" font-family="Helvetica,sans-Serif" font-size="10.00">Playback()</text>
<text text-anchor="start" x="163.5" y="-189.5" font-family="Helvetica,sans-Serif" font-size="10.00">+ static void StopAllAudio</text>
<text text-anchor="start" x="163.5" y="-178.5" font-family="Helvetica,sans-Serif" font-size="10.00">Playback(const std::shared</text>
<text text-anchor="start" x="163.5" y="-167.5" font-family="Helvetica,sans-Serif" font-size="10.00">_ptr&lt; spic::Scene &gt; &amp;scene,</text>
<text text-anchor="start" x="163.5" y="-156.5" font-family="Helvetica,sans-Serif" font-size="10.00"> const std::shared_ptr&lt; spic</text>
<text text-anchor="start" x="163.5" y="-145.5" font-family="Helvetica,sans-Serif" font-size="10.00">::Scene &gt; &amp;destinationScene)</text>
</a>
</g>
</g>
<!-- Node1&#45;&gt;Node3 -->
<g id="edge2" class="edge">
<title>Node1&#45;&gt;Node3</title>
<path fill="none" stroke="midnightblue" d="M590.14,-346.13C516.48,-341.72 399.9,-327.69 309.5,-284 306.17,-282.39 302.88,-280.61 299.63,-278.69"/>
<polygon fill="none" stroke="midnightblue" points="590.06,-349.63 600.24,-346.69 590.45,-342.64 590.06,-349.63"/>
</g>
<!-- Node4 -->
<g id="node4" class="node">
<title>Node4</title>
<g id="a_node4"><a xlink:href="classengine_1_1BehaviourScriptSubsystem.html" target="_top" xlink:title="Subsystem to handle BehaviourScript components.">
<polygon fill="none" stroke="black" points="318,-160.5 318,-261.5 485,-261.5 485,-160.5 318,-160.5"/>
<text text-anchor="middle" x="401.5" y="-249.5" font-family="Helvetica,sans-Serif" font-size="10.00">engine::BehaviourScriptSubsystem</text>
<polyline fill="none" stroke="black" points="318,-242.5 485,-242.5 "/>
<text text-anchor="middle" x="401.5" y="-230.5" font-family="Helvetica,sans-Serif" font-size="10.00"> </text>
<polyline fill="none" stroke="black" points="318,-223.5 485,-223.5 "/>
<text text-anchor="start" x="326" y="-211.5" font-family="Helvetica,sans-Serif" font-size="10.00">+ void Update() override</text>
<text text-anchor="start" x="326" y="-200.5" font-family="Helvetica,sans-Serif" font-size="10.00"># virtual void Handle</text>
<text text-anchor="start" x="326" y="-189.5" font-family="Helvetica,sans-Serif" font-size="10.00">(const std::shared_ptr</text>
<text text-anchor="start" x="326" y="-178.5" font-family="Helvetica,sans-Serif" font-size="10.00">&lt; spic::BehaviourScript</text>
<text text-anchor="start" x="326" y="-167.5" font-family="Helvetica,sans-Serif" font-size="10.00"> &gt; &amp;behaviourScript)=0</text>
</a>
</g>
</g>
<!-- Node1&#45;&gt;Node4 -->
<g id="edge3" class="edge">
<title>Node1&#45;&gt;Node4</title>
<path fill="none" stroke="midnightblue" d="M590.74,-326.05C560.2,-315.29 524.66,-300.96 494.5,-284 482.93,-277.49 471.24,-269.65 460.24,-261.57"/>
<polygon fill="none" stroke="midnightblue" points="589.86,-329.45 600.46,-329.42 592.16,-322.84 589.86,-329.45"/>
</g>
<!-- Node7 -->
<g id="node7" class="node">
<title>Node7</title>
<g id="a_node7"><a xlink:href="classengine_1_1FpsCounterSubsystem.html" target="_top" xlink:title="Subsystem to handle show the FPS counter in the top right corner.">
<polygon fill="none" stroke="black" points="503,-171.5 503,-250.5 652,-250.5 652,-171.5 503,-171.5"/>
<text text-anchor="middle" x="577.5" y="-238.5" font-family="Helvetica,sans-Serif" font-size="10.00">engine::FpsCounterSubsystem</text>
<polyline fill="none" stroke="black" points="503,-231.5 652,-231.5 "/>
<text text-anchor="middle" x="577.5" y="-219.5" font-family="Helvetica,sans-Serif" font-size="10.00"> </text>
<polyline fill="none" stroke="black" points="503,-212.5 652,-212.5 "/>
<text text-anchor="start" x="511" y="-200.5" font-family="Helvetica,sans-Serif" font-size="10.00">+ FpsCounterSubsystem</text>
<text text-anchor="start" x="511" y="-189.5" font-family="Helvetica,sans-Serif" font-size="10.00">(Window *window)</text>
<text text-anchor="start" x="511" y="-178.5" font-family="Helvetica,sans-Serif" font-size="10.00">+ void Update() override</text>
</a>
</g>
</g>
<!-- Node1&#45;&gt;Node7 -->
<g id="edge6" class="edge">
<title>Node1&#45;&gt;Node7</title>
<path fill="none" stroke="midnightblue" d="M639.17,-311.85C627.5,-292.95 613.2,-269.8 601.32,-250.56"/>
<polygon fill="none" stroke="midnightblue" points="636.27,-313.81 644.5,-320.48 642.22,-310.13 636.27,-313.81"/>
</g>
<!-- Node8 -->
<g id="node8" class="node">
<title>Node8</title>
<g id="a_node8"><a xlink:href="classengine_1_1GameSpeedSubsystem.html" target="_top" xlink:title="Subsystem to handle game speed changes.">
<polygon fill="none" stroke="black" points="670.5,-182.5 670.5,-239.5 822.5,-239.5 822.5,-182.5 670.5,-182.5"/>
<text text-anchor="middle" x="746.5" y="-227.5" font-family="Helvetica,sans-Serif" font-size="10.00">engine::GameSpeedSubsystem</text>
<polyline fill="none" stroke="black" points="670.5,-220.5 822.5,-220.5 "/>
<text text-anchor="middle" x="746.5" y="-208.5" font-family="Helvetica,sans-Serif" font-size="10.00"> </text>
<polyline fill="none" stroke="black" points="670.5,-201.5 822.5,-201.5 "/>
<text text-anchor="start" x="678.5" y="-189.5" font-family="Helvetica,sans-Serif" font-size="10.00">+ void Update() override</text>
</a>
</g>
</g>
<!-- Node1&#45;&gt;Node8 -->
<g id="edge7" class="edge">
<title>Node1&#45;&gt;Node8</title>
<path fill="none" stroke="midnightblue" d="M684.09,-311.85C698.18,-289.32 716.03,-260.75 729.03,-239.95"/>
<polygon fill="none" stroke="midnightblue" points="681.03,-310.14 678.7,-320.48 686.97,-313.85 681.03,-310.14"/>
</g>
<!-- Node9 -->
<g id="node9" class="node">
<title>Node9</title>
<g id="a_node9"><a xlink:href="classengine_1_1InputSubsystem.html" target="_top" xlink:title="Subsystem to handle Input from the mouse and keyboard.">
<polygon fill="none" stroke="black" points="840.5,-182.5 840.5,-239.5 960.5,-239.5 960.5,-182.5 840.5,-182.5"/>
<text text-anchor="middle" x="900.5" y="-227.5" font-family="Helvetica,sans-Serif" font-size="10.00">engine::InputSubsystem</text>
<polyline fill="none" stroke="black" points="840.5,-220.5 960.5,-220.5 "/>
<text text-anchor="middle" x="900.5" y="-208.5" font-family="Helvetica,sans-Serif" font-size="10.00"> </text>
<polyline fill="none" stroke="black" points="840.5,-201.5 960.5,-201.5 "/>
<text text-anchor="start" x="848.5" y="-189.5" font-family="Helvetica,sans-Serif" font-size="10.00">+ void Update() override</text>
</a>
</g>
</g>
<!-- Node1&#45;&gt;Node9 -->
<g id="edge8" class="edge">
<title>Node1&#45;&gt;Node9</title>
<path fill="none" stroke="midnightblue" d="M732.54,-329.1C764.38,-318.71 801.45,-303.84 831.5,-284 849.71,-271.98 866.71,-254.35 879.28,-239.55"/>
<polygon fill="none" stroke="midnightblue" points="731.31,-325.82 722.84,-332.18 733.43,-332.49 731.31,-325.82"/>
</g>
<!-- Node10 -->
<g id="node10" class="node">
<title>Node10</title>
<g id="a_node10"><a xlink:href="classengine_1_1PhysicsSubsystem.html" target="_top" xlink:title="Subsystem to handle RigidBody and Collider components.">
<polygon fill="none" stroke="black" points="979,-177 979,-245 1112,-245 1112,-177 979,-177"/>
<text text-anchor="middle" x="1045.5" y="-233" font-family="Helvetica,sans-Serif" font-size="10.00">engine::PhysicsSubsystem</text>
<polyline fill="none" stroke="black" points="979,-226 1112,-226 "/>
<text text-anchor="middle" x="1045.5" y="-214" font-family="Helvetica,sans-Serif" font-size="10.00"> </text>
<polyline fill="none" stroke="black" points="979,-207 1112,-207 "/>
<text text-anchor="start" x="987" y="-195" font-family="Helvetica,sans-Serif" font-size="10.00">+ void Update() override</text>
<text text-anchor="start" x="987" y="-184" font-family="Helvetica,sans-Serif" font-size="10.00">+ PhysicsSubsystem()</text>
</a>
</g>
</g>
<!-- Node1&#45;&gt;Node10 -->
<g id="edge9" class="edge">
<title>Node1&#45;&gt;Node10</title>
<path fill="none" stroke="midnightblue" d="M732.81,-344.25C797.74,-338.35 894.61,-323.14 969.5,-284 987.86,-274.4 1004.94,-259.07 1018.24,-245.02"/>
<polygon fill="none" stroke="midnightblue" points="732.34,-340.78 722.67,-345.12 732.94,-347.76 732.34,-340.78"/>
</g>
<!-- Node11 -->
<g id="node11" class="node">
<title>Node11</title>
<g id="a_node11"><a xlink:href="classengine_1_1RenderSubsystem.html" target="_top" xlink:title="Subsystem to handle Sprite components and Text objects.">
<polygon fill="none" stroke="black" points="1130.5,-171.5 1130.5,-250.5 1272.5,-250.5 1272.5,-171.5 1130.5,-171.5"/>
<text text-anchor="middle" x="1201.5" y="-238.5" font-family="Helvetica,sans-Serif" font-size="10.00">engine::RenderSubsystem</text>
<polyline fill="none" stroke="black" points="1130.5,-231.5 1272.5,-231.5 "/>
<text text-anchor="middle" x="1201.5" y="-219.5" font-family="Helvetica,sans-Serif" font-size="10.00"> </text>
<polyline fill="none" stroke="black" points="1130.5,-212.5 1272.5,-212.5 "/>
<text text-anchor="start" x="1138.5" y="-200.5" font-family="Helvetica,sans-Serif" font-size="10.00">+ RenderSubsystem(Window</text>
<text text-anchor="start" x="1138.5" y="-189.5" font-family="Helvetica,sans-Serif" font-size="10.00"> *window)</text>
<text text-anchor="start" x="1138.5" y="-178.5" font-family="Helvetica,sans-Serif" font-size="10.00">+ void Update() override</text>
</a>
</g>
</g>
<!-- Node1&#45;&gt;Node11 -->
<g id="edge10" class="edge">
<title>Node1&#45;&gt;Node11</title>
<path fill="none" stroke="midnightblue" d="M732.9,-343.19C844.37,-334.82 1053.98,-315.42 1121.5,-284 1138.44,-276.12 1154.35,-263.41 1167.46,-250.84"/>
<polygon fill="none" stroke="midnightblue" points="732.47,-339.71 722.76,-343.94 732.99,-346.69 732.47,-339.71"/>
</g>
<!-- Node5 -->
<g id="node5" class="node">
<title>Node5</title>
<g id="a_node5"><a xlink:href="classengine_1_1LateUpdateBehaviourScriptSubsystem.html" target="_top" xlink:title="Handles late updates for the behaviour script components.">
<polygon fill="none" stroke="black" points="246.5,-0.5 246.5,-101.5 390.5,-101.5 390.5,-0.5 246.5,-0.5"/>
<text text-anchor="start" x="254.5" y="-89.5" font-family="Helvetica,sans-Serif" font-size="10.00">engine::LateUpdateBehaviour</text>
<text text-anchor="middle" x="318.5" y="-78.5" font-family="Helvetica,sans-Serif" font-size="10.00">ScriptSubsystem</text>
<polyline fill="none" stroke="black" points="246.5,-71.5 390.5,-71.5 "/>
<text text-anchor="middle" x="318.5" y="-59.5" font-family="Helvetica,sans-Serif" font-size="10.00"> </text>
<polyline fill="none" stroke="black" points="246.5,-52.5 390.5,-52.5 "/>
<text text-anchor="start" x="254.5" y="-40.5" font-family="Helvetica,sans-Serif" font-size="10.00"># void Handle(const std</text>
<text text-anchor="start" x="254.5" y="-29.5" font-family="Helvetica,sans-Serif" font-size="10.00">::shared_ptr&lt; spic::Behaviour</text>
<text text-anchor="start" x="254.5" y="-18.5" font-family="Helvetica,sans-Serif" font-size="10.00">Script &gt; &amp;behaviourScript)</text>
<text text-anchor="start" x="254.5" y="-7.5" font-family="Helvetica,sans-Serif" font-size="10.00"> override</text>
</a>
</g>
</g>
<!-- Node4&#45;&gt;Node5 -->
<g id="edge4" class="edge">
<title>Node4&#45;&gt;Node5</title>
<path fill="none" stroke="midnightblue" d="M370.76,-151.49C362.16,-135.11 352.89,-117.47 344.58,-101.65"/>
<polygon fill="none" stroke="midnightblue" points="367.72,-153.22 375.47,-160.44 373.91,-149.96 367.72,-153.22"/>
</g>
<!-- Node6 -->
<g id="node6" class="node">
<title>Node6</title>
<g id="a_node6"><a xlink:href="classengine_1_1UpdateBehaviourScriptSubsystem.html" target="_top" xlink:title="Handles updates for the behaviour script components.">
<polygon fill="none" stroke="black" points="408.5,-0.5 408.5,-101.5 558.5,-101.5 558.5,-0.5 408.5,-0.5"/>
<text text-anchor="start" x="416.5" y="-89.5" font-family="Helvetica,sans-Serif" font-size="10.00">engine::UpdateBehaviourScript</text>
<text text-anchor="middle" x="483.5" y="-78.5" font-family="Helvetica,sans-Serif" font-size="10.00">Subsystem</text>
<polyline fill="none" stroke="black" points="408.5,-71.5 558.5,-71.5 "/>
<text text-anchor="middle" x="483.5" y="-59.5" font-family="Helvetica,sans-Serif" font-size="10.00"> </text>
<polyline fill="none" stroke="black" points="408.5,-52.5 558.5,-52.5 "/>
<text text-anchor="start" x="416.5" y="-40.5" font-family="Helvetica,sans-Serif" font-size="10.00"># void Handle(const std</text>
<text text-anchor="start" x="416.5" y="-29.5" font-family="Helvetica,sans-Serif" font-size="10.00">::shared_ptr&lt; spic::Behaviour</text>
<text text-anchor="start" x="416.5" y="-18.5" font-family="Helvetica,sans-Serif" font-size="10.00">Script &gt; &amp;behaviourScript)</text>
<text text-anchor="start" x="416.5" y="-7.5" font-family="Helvetica,sans-Serif" font-size="10.00"> override</text>
</a>
</g>
</g>
<!-- Node4&#45;&gt;Node6 -->
<g id="edge5" class="edge">
<title>Node4&#45;&gt;Node6</title>
<path fill="none" stroke="midnightblue" d="M431.87,-151.49C440.37,-135.11 449.52,-117.47 457.73,-101.65"/>
<polygon fill="none" stroke="midnightblue" points="428.72,-149.95 427.22,-160.44 434.93,-153.18 428.72,-149.95"/>
</g>
</g>
</svg>
        <g id="navigator" transform="translate(0 0)" fill="#404254">
                <rect fill="#f2f5e9" fill-opacity="0.5" stroke="#606060" stroke-width=".5" x="0" y="0" width="60" height="60"/>
                <use id="zoomplus" xlink:href="#zoomPlus" x="17" y="9" onmousedown="handleZoom(evt,'in')"/>
                <use id="zoomminus" xlink:href="#zoomMin" x="42" y="9" onmousedown="handleZoom(evt,'out')"/>
                <use id="reset" xlink:href="#resetDef" x="30" y="36" onmousedown="handleReset()"/>
                <g id="arrowUp" xlink:href="#dirArrow" transform="translate(30 24)" onmousedown="handlePan(0,-1)">
                  <use xlink:href="#rim" fill="#404040">
                        <set attributeName="fill" to="#808080" begin="arrowUp.mouseover" end="arrowUp.mouseout"/>
                  </use>
                  <path fill="none" stroke="white" stroke-width="1.5" d="M0,-3.0v7 M-2.5,-0.5L0,-3.0L2.5,-0.5"/>
                </g>
                <g id="arrowRight" xlink:href="#dirArrow" transform="rotate(90) translate(36 -43)" onmousedown="handlePan(1,0)">
                  <use xlink:href="#rim" fill="#404040">
                        <set attributeName="fill" to="#808080" begin="arrowRight.mouseover" end="arrowRight.mouseout"/>
                  </use>
                  <path fill="none" stroke="white" stroke-width="1.5" d="M0,-3.0v7 M-2.5,-0.5L0,-3.0L2.5,-0.5"/>
                </g>
                <g id="arrowDown" xlink:href="#dirArrow" transform="rotate(180) translate(-30 -48)" onmousedown="handlePan(0,1)">
                  <use xlink:href="#rim" fill="#404040">
                        <set attributeName="fill" to="#808080" begin="arrowDown.mouseover" end="arrowDown.mouseout"/>
                  </use>
                  <path fill="none" stroke="white" stroke-width="1.5" d="M0,-3.0v7 M-2.5,-0.5L0,-3.0L2.5,-0.5"/>
                </g>
                <g id="arrowLeft" xlink:href="#dirArrow" transform="rotate(270) translate(-36 17)" onmousedown="handlePan(-1,0)">
                  <use xlink:href="#rim" fill="#404040">
                        <set attributeName="fill" to="#808080" begin="arrowLeft.mouseover" end="arrowLeft.mouseout"/>
                  </use>
                  <path fill="none" stroke="white" stroke-width="1.5" d="M0,-3.0v7 M-2.5,-0.5L0,-3.0L2.5,-0.5"/>
                </g>
        </g>
        <svg viewBox="0 0 15 15" width="100%" height="30px" preserveAspectRatio="xMaxYMin meet">
         <g id="arrow_out" transform="scale(0.3 0.3)">
          <a xlink:href="classengine_1_1ISubsystem__inherit__graph_org.svg" target="_base">
           <rect id="button" ry="5" rx="5" y="6" x="6" height="38" width="38"
                fill="#f2f5e9" fill-opacity="0.5" stroke="#606060" stroke-width="1.0"/>
           <path id="arrow"
             d="M 11.500037,31.436501 C 11.940474,20.09759 22.043105,11.32322 32.158766,21.979434 L 37.068811,17.246167 C 37.068811,17.246167 37.088388,32 37.088388,32 L 22.160133,31.978069 C 22.160133,31.978069 26.997745,27.140456 26.997745,27.140456 C 18.528582,18.264221 13.291696,25.230495 11.500037,31.436501 z"
             style="fill:#404040;"/>
          </a>
         </g>
        </svg>
</svg>
