<?xml version="1.0" encoding="UTF-8" standalone="no"?>
<!DOCTYPE svg PUBLIC "-//W3C//DTD SVG 1.1//EN"
 "http://www.w3.org/Graphics/SVG/1.1/DTD/svg11.dtd">
<!-- Generated by graphviz version 2.44.0 ()
 -->
<!-- Title: game::MenuScene Pages: 1 -->
<svg width="708pt" height="331pt"
 viewBox="0.00 0.00 707.50 331.00" xmlns="http://www.w3.org/2000/svg" xmlns:xlink="http://www.w3.org/1999/xlink">
<g id="graph0" class="graph" transform="scale(1 1) rotate(0) translate(4 327)">
<title>game::MenuScene</title>
<!-- Node1 -->
<g id="node1" class="node">
<title>Node1</title>
<g id="a_node1"><a xlink:title="A abstract scene to use for the scene that require menu functionality.">
<polygon fill="#bfbfbf" stroke="black" points="250.5,-94.5 250.5,-184.5 461.5,-184.5 461.5,-94.5 250.5,-94.5"/>
<text text-anchor="middle" x="356" y="-172.5" font-family="Helvetica,sans-Serif" font-size="10.00">game::MenuScene</text>
<polyline fill="none" stroke="black" points="250.5,-165.5 461.5,-165.5 "/>
<text text-anchor="middle" x="356" y="-153.5" font-family="Helvetica,sans-Serif" font-size="10.00"> </text>
<polyline fill="none" stroke="black" points="250.5,-146.5 461.5,-146.5 "/>
<text text-anchor="start" x="258.5" y="-134.5" font-family="Helvetica,sans-Serif" font-size="10.00">+ MenuScene(const std</text>
<text text-anchor="start" x="258.5" y="-123.5" font-family="Helvetica,sans-Serif" font-size="10.00">::string &amp;title, bool</text>
<text text-anchor="start" x="258.5" y="-112.5" font-family="Helvetica,sans-Serif" font-size="10.00"> hasBackButton, BackgroundName</text>
<text text-anchor="start" x="258.5" y="-101.5" font-family="Helvetica,sans-Serif" font-size="10.00"> backgroundName=BackgroundName::Menu)</text>
</a>
</g>
</g>
<!-- Node3 -->
<g id="node3" class="node">
<title>Node3</title>
<g id="a_node3"><a xlink:href="classgame_1_1CreditScene.html" target="_top" xlink:title="A scene that contains credits to the developers.">
<polygon fill="none" stroke="black" points="0,-0.5 0,-57.5 98,-57.5 98,-0.5 0,-0.5"/>
<text text-anchor="middle" x="49" y="-45.5" font-family="Helvetica,sans-Serif" font-size="10.00">game::CreditScene</text>
<polyline fill="none" stroke="black" points="0,-38.5 98,-38.5 "/>
<text text-anchor="middle" x="49" y="-26.5" font-family="Helvetica,sans-Serif" font-size="10.00"> </text>
<polyline fill="none" stroke="black" points="0,-19.5 98,-19.5 "/>
<text text-anchor="start" x="8" y="-7.5" font-family="Helvetica,sans-Serif" font-size="10.00">+ CreditScene()</text>
</a>
</g>
</g>
<!-- Node1&#45;&gt;Node3 -->
<g id="edge2" class="edge">
<title>Node1&#45;&gt;Node3</title>
<path fill="none" stroke="midnightblue" d="M240.56,-104.8C198.11,-91.47 149.94,-75.21 107,-58 104.09,-56.84 101.13,-55.59 98.15,-54.3"/>
<polygon fill="none" stroke="midnightblue" points="239.78,-108.23 250.37,-107.86 241.87,-101.54 239.78,-108.23"/>
</g>
<!-- Node4 -->
<g id="node4" class="node">
<title>Node4</title>
<g id="a_node4"><a xlink:href="classgame_1_1GameOverScene.html" target="_top" xlink:title="A scene that contains a game over screen.">
<polygon fill="none" stroke="black" points="116,-0.5 116,-57.5 236,-57.5 236,-0.5 116,-0.5"/>
<text text-anchor="middle" x="176" y="-45.5" font-family="Helvetica,sans-Serif" font-size="10.00">game::GameOverScene</text>
<polyline fill="none" stroke="black" points="116,-38.5 236,-38.5 "/>
<text text-anchor="middle" x="176" y="-26.5" font-family="Helvetica,sans-Serif" font-size="10.00"> </text>
<polyline fill="none" stroke="black" points="116,-19.5 236,-19.5 "/>
<text text-anchor="start" x="124" y="-7.5" font-family="Helvetica,sans-Serif" font-size="10.00">+ GameOverScene()</text>
</a>
</g>
</g>
<!-- Node1&#45;&gt;Node4 -->
<g id="edge3" class="edge">
<title>Node1&#45;&gt;Node4</title>
<path fill="none" stroke="midnightblue" d="M274.02,-89.09C256.07,-78.27 237.69,-67.19 221.77,-57.59"/>
<polygon fill="none" stroke="midnightblue" points="272.42,-92.2 282.79,-94.37 276.03,-86.21 272.42,-92.2"/>
</g>
<!-- Node5 -->
<g id="node5" class="node">
<title>Node5</title>
<g id="a_node5"><a xlink:href="classgame_1_1HelpScene.html" target="_top" xlink:title="A scene that contains help for the user.">
<polygon fill="none" stroke="black" points="253.5,-0.5 253.5,-57.5 346.5,-57.5 346.5,-0.5 253.5,-0.5"/>
<text text-anchor="middle" x="300" y="-45.5" font-family="Helvetica,sans-Serif" font-size="10.00">game::HelpScene</text>
<polyline fill="none" stroke="black" points="253.5,-38.5 346.5,-38.5 "/>
<text text-anchor="middle" x="300" y="-26.5" font-family="Helvetica,sans-Serif" font-size="10.00"> </text>
<polyline fill="none" stroke="black" points="253.5,-19.5 346.5,-19.5 "/>
<text text-anchor="start" x="261.5" y="-7.5" font-family="Helvetica,sans-Serif" font-size="10.00">+ HelpScene()</text>
</a>
</g>
</g>
<!-- Node1&#45;&gt;Node5 -->
<g id="edge4" class="edge">
<title>Node1&#45;&gt;Node5</title>
<path fill="none" stroke="midnightblue" d="M328.51,-85.24C323.57,-75.67 318.61,-66.05 314.24,-57.59"/>
<polygon fill="none" stroke="midnightblue" points="325.53,-87.09 333.22,-94.37 331.75,-83.88 325.53,-87.09"/>
</g>
<!-- Node6 -->
<g id="node6" class="node">
<title>Node6</title>
<g id="a_node6"><a xlink:href="classgame_1_1MainScene.html" target="_top" xlink:title="A scene that show the title of the game and some information.">
<polygon fill="none" stroke="black" points="365,-0.5 365,-57.5 459,-57.5 459,-0.5 365,-0.5"/>
<text text-anchor="middle" x="412" y="-45.5" font-family="Helvetica,sans-Serif" font-size="10.00">game::MainScene</text>
<polyline fill="none" stroke="black" points="365,-38.5 459,-38.5 "/>
<text text-anchor="middle" x="412" y="-26.5" font-family="Helvetica,sans-Serif" font-size="10.00"> </text>
<polyline fill="none" stroke="black" points="365,-19.5 459,-19.5 "/>
<text text-anchor="start" x="373" y="-7.5" font-family="Helvetica,sans-Serif" font-size="10.00">+ MainScene()</text>
</a>
</g>
</g>
<!-- Node1&#45;&gt;Node6 -->
<g id="edge5" class="edge">
<title>Node1&#45;&gt;Node6</title>
<path fill="none" stroke="midnightblue" d="M383.49,-85.24C388.43,-75.67 393.39,-66.05 397.76,-57.59"/>
<polygon fill="none" stroke="midnightblue" points="380.25,-83.88 378.78,-94.37 386.47,-87.09 380.25,-83.88"/>
</g>
<!-- Node7 -->
<g id="node7" class="node">
<title>Node7</title>
<g id="a_node7"><a xlink:href="classgame_1_1PauseScene.html" target="_top" xlink:title="A scene that contains functionality for pausing the game.">
<polygon fill="none" stroke="black" points="477.5,-0.5 477.5,-57.5 578.5,-57.5 578.5,-0.5 477.5,-0.5"/>
<text text-anchor="middle" x="528" y="-45.5" font-family="Helvetica,sans-Serif" font-size="10.00">game::PauseScene</text>
<polyline fill="none" stroke="black" points="477.5,-38.5 578.5,-38.5 "/>
<text text-anchor="middle" x="528" y="-26.5" font-family="Helvetica,sans-Serif" font-size="10.00"> </text>
<polyline fill="none" stroke="black" points="477.5,-19.5 578.5,-19.5 "/>
<text text-anchor="start" x="485.5" y="-7.5" font-family="Helvetica,sans-Serif" font-size="10.00">+ PauseScene()</text>
</a>
</g>
</g>
<!-- Node1&#45;&gt;Node7 -->
<g id="edge6" class="edge">
<title>Node1&#45;&gt;Node7</title>
<path fill="none" stroke="midnightblue" d="M434.8,-88.79C451.81,-78.06 469.19,-67.1 484.26,-57.59"/>
<polygon fill="none" stroke="midnightblue" points="432.55,-86.07 425.96,-94.37 436.28,-91.99 432.55,-86.07"/>
</g>
<!-- Node8 -->
<g id="node8" class="node">
<title>Node8</title>
<g id="a_node8"><a xlink:href="classgame_1_1VictoryScene.html" target="_top" xlink:title="A scene that contains a victory screen.">
<polygon fill="none" stroke="black" points="596.5,-0.5 596.5,-57.5 699.5,-57.5 699.5,-0.5 596.5,-0.5"/>
<text text-anchor="middle" x="648" y="-45.5" font-family="Helvetica,sans-Serif" font-size="10.00">game::VictoryScene</text>
<polyline fill="none" stroke="black" points="596.5,-38.5 699.5,-38.5 "/>
<text text-anchor="middle" x="648" y="-26.5" font-family="Helvetica,sans-Serif" font-size="10.00"> </text>
<polyline fill="none" stroke="black" points="596.5,-19.5 699.5,-19.5 "/>
<text text-anchor="start" x="604.5" y="-7.5" font-family="Helvetica,sans-Serif" font-size="10.00">+ VictoryScene()</text>
</a>
</g>
</g>
<!-- Node1&#45;&gt;Node8 -->
<g id="edge7" class="edge">
<title>Node1&#45;&gt;Node8</title>
<path fill="none" stroke="midnightblue" d="M471.59,-101C509.03,-88.16 550.55,-73.19 588,-58 590.77,-56.88 593.6,-55.69 596.44,-54.47"/>
<polygon fill="none" stroke="midnightblue" points="469.99,-97.85 461.66,-104.39 472.25,-104.48 469.99,-97.85"/>
</g>
<!-- Node2 -->
<g id="node2" class="node">
<title>Node2</title>
<g id="a_node2"><a xlink:href="classspic_1_1Scene.html" target="_top" xlink:title="Class representing a scene which can be rendered by the Camera. @spicapi.">
<polygon fill="none" stroke="black" points="293.5,-221.5 293.5,-322.5 418.5,-322.5 418.5,-221.5 293.5,-221.5"/>
<text text-anchor="middle" x="356" y="-310.5" font-family="Helvetica,sans-Serif" font-size="10.00">spic::Scene</text>
<polyline fill="none" stroke="black" points="293.5,-303.5 418.5,-303.5 "/>
<text text-anchor="middle" x="356" y="-291.5" font-family="Helvetica,sans-Serif" font-size="10.00"> </text>
<polyline fill="none" stroke="black" points="293.5,-284.5 418.5,-284.5 "/>
<text text-anchor="start" x="301.5" y="-272.5" font-family="Helvetica,sans-Serif" font-size="10.00">+ Scene()</text>
<text text-anchor="start" x="301.5" y="-261.5" font-family="Helvetica,sans-Serif" font-size="10.00">+ void RenderScene()</text>
<text text-anchor="start" x="301.5" y="-250.5" font-family="Helvetica,sans-Serif" font-size="10.00">+ std::vector&lt; std::shared</text>
<text text-anchor="start" x="301.5" y="-239.5" font-family="Helvetica,sans-Serif" font-size="10.00">_ptr&lt; GameObject &gt; &gt; &amp;</text>
<text text-anchor="start" x="301.5" y="-228.5" font-family="Helvetica,sans-Serif" font-size="10.00"> Contents()</text>
</a>
</g>
</g>
<!-- Node2&#45;&gt;Node1 -->
<g id="edge1" class="edge">
<title>Node2&#45;&gt;Node1</title>
<path fill="none" stroke="midnightblue" d="M356,-211.23C356,-202.24 356,-193.1 356,-184.52"/>
<polygon fill="none" stroke="midnightblue" points="352.5,-211.29 356,-221.29 359.5,-211.29 352.5,-211.29"/>
</g>
</g>
</svg>
