<?xml version="1.0" encoding="UTF-8" standalone="no"?>
<!DOCTYPE svg PUBLIC "-//W3C//DTD SVG 1.1//EN"
 "http://www.w3.org/Graphics/SVG/1.1/DTD/svg11.dtd">
<!-- Generated by graphviz version 2.44.0 ()
 -->
<!-- Title: src/Scripts/Menu/ConfettiBehaviour.cpp Pages: 1 -->
<svg width="449pt" height="319pt"
 viewBox="0.00 0.00 449.00 319.00" xmlns="http://www.w3.org/2000/svg" xmlns:xlink="http://www.w3.org/1999/xlink">
<g id="graph0" class="graph" transform="scale(1 1) rotate(0) translate(4 315)">
<title>src/Scripts/Menu/ConfettiBehaviour.cpp</title>
<!-- Node1 -->
<g id="node1" class="node">
<title>Node1</title>
<g id="a_node1"><a xlink:title=" ">
<polygon fill="#bfbfbf" stroke="black" points="150,-280.5 150,-310.5 278,-310.5 278,-280.5 150,-280.5"/>
<text text-anchor="start" x="158" y="-298.5" font-family="Helvetica,sans-Serif" font-size="10.00">src/Scripts/Menu/Confetti</text>
<text text-anchor="middle" x="214" y="-287.5" font-family="Helvetica,sans-Serif" font-size="10.00">Behaviour.cpp</text>
</a>
</g>
</g>
<!-- Node2 -->
<g id="node2" class="node">
<title>Node2</title>
<g id="a_node2"><a xlink:href="ConfettiBehaviour_8hpp.html" target="_top" xlink:title=" ">
<polygon fill="none" stroke="black" points="34,-224.5 34,-243.5 146,-243.5 146,-224.5 34,-224.5"/>
<text text-anchor="middle" x="90" y="-231.5" font-family="Helvetica,sans-Serif" font-size="10.00">ConfettiBehaviour.hpp</text>
</a>
</g>
</g>
<!-- Node1&#45;&gt;Node2 -->
<g id="edge1" class="edge">
<title>Node1&#45;&gt;Node2</title>
<path fill="none" stroke="midnightblue" d="M184.61,-280.4C164.18,-270.59 137.14,-257.62 117.2,-248.05"/>
<polygon fill="midnightblue" stroke="midnightblue" points="118.57,-244.83 108.04,-243.66 115.54,-251.14 118.57,-244.83"/>
</g>
<!-- Node7 -->
<g id="node7" class="node">
<title>Node7</title>
<g id="a_node7"><a xlink:href="GameObject_8hpp.html" target="_top" xlink:title=" ">
<polygon fill="none" stroke="black" points="135.5,-112.5 135.5,-131.5 224.5,-131.5 224.5,-112.5 135.5,-112.5"/>
<text text-anchor="middle" x="180" y="-119.5" font-family="Helvetica,sans-Serif" font-size="10.00">GameObject.hpp</text>
</a>
</g>
</g>
<!-- Node1&#45;&gt;Node7 -->
<g id="edge7" class="edge">
<title>Node1&#45;&gt;Node7</title>
<path fill="none" stroke="midnightblue" d="M207.97,-280.16C204.01,-270.18 199.01,-256.49 196,-244 187.41,-208.42 183.13,-165.77 181.25,-141.78"/>
<polygon fill="midnightblue" stroke="midnightblue" points="184.73,-141.34 180.51,-131.62 177.75,-141.85 184.73,-141.34"/>
</g>
<!-- Node12 -->
<g id="node12" class="node">
<title>Node12</title>
<g id="a_node12"><a xlink:href="Constants_8hpp.html" target="_top" xlink:title=" ">
<polygon fill="none" stroke="black" points="205,-224.5 205,-243.5 299,-243.5 299,-224.5 205,-224.5"/>
<text text-anchor="middle" x="252" y="-231.5" font-family="Helvetica,sans-Serif" font-size="10.00">../../Constants.hpp</text>
</a>
</g>
</g>
<!-- Node1&#45;&gt;Node12 -->
<g id="edge14" class="edge">
<title>Node1&#45;&gt;Node12</title>
<path fill="none" stroke="midnightblue" d="M223.01,-280.4C228.41,-271.93 235.33,-261.1 241.05,-252.14"/>
<polygon fill="midnightblue" stroke="midnightblue" points="244.04,-253.97 246.47,-243.66 238.14,-250.2 244.04,-253.97"/>
</g>
<!-- Node14 -->
<g id="node14" class="node">
<title>Node14</title>
<g id="a_node14"><a xlink:href="RandomUtil_8hpp.html" target="_top" xlink:title=" ">
<polygon fill="none" stroke="black" points="317,-224.5 317,-243.5 441,-243.5 441,-224.5 317,-224.5"/>
<text text-anchor="middle" x="379" y="-231.5" font-family="Helvetica,sans-Serif" font-size="10.00">../../Utils/RandomUtil.hpp</text>
</a>
</g>
</g>
<!-- Node1&#45;&gt;Node14 -->
<g id="edge16" class="edge">
<title>Node1&#45;&gt;Node14</title>
<path fill="none" stroke="midnightblue" d="M253.1,-280.4C281.16,-270.28 318.57,-256.79 345.31,-247.15"/>
<polygon fill="midnightblue" stroke="midnightblue" points="346.77,-250.34 354.99,-243.66 344.4,-243.76 346.77,-250.34"/>
</g>
<!-- Node3 -->
<g id="node3" class="node">
<title>Node3</title>
<g id="a_node3"><a xlink:href="BehaviourScript_8hpp.html" target="_top" xlink:title=" ">
<polygon fill="none" stroke="black" points="32,-168.5 32,-187.5 136,-187.5 136,-168.5 32,-168.5"/>
<text text-anchor="middle" x="84" y="-175.5" font-family="Helvetica,sans-Serif" font-size="10.00">BehaviourScript.hpp</text>
</a>
</g>
</g>
<!-- Node2&#45;&gt;Node3 -->
<g id="edge2" class="edge">
<title>Node2&#45;&gt;Node3</title>
<path fill="none" stroke="midnightblue" d="M89.01,-224.08C88.21,-216.93 87.07,-206.64 86.08,-197.69"/>
<polygon fill="midnightblue" stroke="midnightblue" points="89.56,-197.3 84.97,-187.75 82.6,-198.08 89.56,-197.3"/>
</g>
<!-- Node4 -->
<g id="node4" class="node">
<title>Node4</title>
<g id="a_node4"><a xlink:href="Component_8hpp.html" target="_top" xlink:title=" ">
<polygon fill="none" stroke="black" points="0,-56.5 0,-75.5 84,-75.5 84,-56.5 0,-56.5"/>
<text text-anchor="middle" x="42" y="-63.5" font-family="Helvetica,sans-Serif" font-size="10.00">Component.hpp</text>
</a>
</g>
</g>
<!-- Node3&#45;&gt;Node4 -->
<g id="edge3" class="edge">
<title>Node3&#45;&gt;Node4</title>
<path fill="none" stroke="midnightblue" d="M71.5,-168.3C61.13,-160.25 47.11,-147.24 41,-132 35.09,-117.27 35.98,-99.11 37.97,-85.73"/>
<polygon fill="midnightblue" stroke="midnightblue" points="41.43,-86.27 39.79,-75.8 34.55,-85.01 41.43,-86.27"/>
</g>
<!-- Node6 -->
<g id="node6" class="node">
<title>Node6</title>
<g id="a_node6"><a xlink:href="Collider_8hpp.html" target="_top" xlink:title=" ">
<polygon fill="none" stroke="black" points="50.5,-112.5 50.5,-131.5 117.5,-131.5 117.5,-112.5 50.5,-112.5"/>
<text text-anchor="middle" x="84" y="-119.5" font-family="Helvetica,sans-Serif" font-size="10.00">Collider.hpp</text>
</a>
</g>
</g>
<!-- Node3&#45;&gt;Node6 -->
<g id="edge5" class="edge">
<title>Node3&#45;&gt;Node6</title>
<path fill="none" stroke="midnightblue" d="M84,-168.08C84,-161.01 84,-150.86 84,-141.99"/>
<polygon fill="midnightblue" stroke="midnightblue" points="87.5,-141.75 84,-131.75 80.5,-141.75 87.5,-141.75"/>
</g>
<!-- Node5 -->
<g id="node5" class="node">
<title>Node5</title>
<g id="a_node5"><a xlink:title=" ">
<polygon fill="none" stroke="#bfbfbf" points="49.5,-0.5 49.5,-19.5 100.5,-19.5 100.5,-0.5 49.5,-0.5"/>
<text text-anchor="middle" x="75" y="-7.5" font-family="Helvetica,sans-Serif" font-size="10.00">memory</text>
</a>
</g>
</g>
<!-- Node4&#45;&gt;Node5 -->
<g id="edge4" class="edge">
<title>Node4&#45;&gt;Node5</title>
<path fill="none" stroke="midnightblue" d="M47.45,-56.08C52.01,-48.61 58.67,-37.72 64.29,-28.52"/>
<polygon fill="midnightblue" stroke="midnightblue" points="67.42,-30.11 69.65,-19.75 61.45,-26.46 67.42,-30.11"/>
</g>
<!-- Node6&#45;&gt;Node4 -->
<g id="edge6" class="edge">
<title>Node6&#45;&gt;Node4</title>
<path fill="none" stroke="midnightblue" d="M77.06,-112.08C71.07,-104.38 62.25,-93.03 54.95,-83.65"/>
<polygon fill="midnightblue" stroke="midnightblue" points="57.71,-81.5 48.81,-75.75 52.18,-85.79 57.71,-81.5"/>
</g>
<!-- Node7&#45;&gt;Node4 -->
<g id="edge8" class="edge">
<title>Node7&#45;&gt;Node4</title>
<path fill="none" stroke="midnightblue" d="M158.13,-112.44C135.22,-103.48 99.02,-89.31 73.13,-79.18"/>
<polygon fill="midnightblue" stroke="midnightblue" points="74.35,-75.9 63.76,-75.52 71.8,-82.42 74.35,-75.9"/>
</g>
<!-- Node7&#45;&gt;Node5 -->
<g id="edge13" class="edge">
<title>Node7&#45;&gt;Node5</title>
<path fill="none" stroke="midnightblue" d="M169.92,-112.36C159.78,-103.53 143.86,-89.27 131,-76 115.7,-60.2 99.42,-41.01 88.38,-27.58"/>
<polygon fill="midnightblue" stroke="midnightblue" points="90.98,-25.23 81.94,-19.69 85.55,-29.66 90.98,-25.23"/>
</g>
<!-- Node8 -->
<g id="node8" class="node">
<title>Node8</title>
<g id="a_node8"><a xlink:href="Transform_8hpp.html" target="_top" xlink:title=" ">
<polygon fill="none" stroke="black" points="140.5,-56.5 140.5,-75.5 219.5,-75.5 219.5,-56.5 140.5,-56.5"/>
<text text-anchor="middle" x="180" y="-63.5" font-family="Helvetica,sans-Serif" font-size="10.00">Transform.hpp</text>
</a>
</g>
</g>
<!-- Node7&#45;&gt;Node8 -->
<g id="edge9" class="edge">
<title>Node7&#45;&gt;Node8</title>
<path fill="none" stroke="midnightblue" d="M180,-112.08C180,-105.01 180,-94.86 180,-85.99"/>
<polygon fill="midnightblue" stroke="midnightblue" points="183.5,-85.75 180,-75.75 176.5,-85.75 183.5,-85.75"/>
</g>
<!-- Node10 -->
<g id="node10" class="node">
<title>Node10</title>
<g id="a_node10"><a xlink:title=" ">
<polygon fill="none" stroke="#bfbfbf" points="237.5,-56.5 237.5,-75.5 278.5,-75.5 278.5,-56.5 237.5,-56.5"/>
<text text-anchor="middle" x="258" y="-63.5" font-family="Helvetica,sans-Serif" font-size="10.00">string</text>
</a>
</g>
</g>
<!-- Node7&#45;&gt;Node10 -->
<g id="edge11" class="edge">
<title>Node7&#45;&gt;Node10</title>
<path fill="none" stroke="midnightblue" d="M192.53,-112.32C204.59,-103.98 223.03,-91.21 237.27,-81.35"/>
<polygon fill="midnightblue" stroke="midnightblue" points="239.27,-84.22 245.5,-75.65 235.28,-78.47 239.27,-84.22"/>
</g>
<!-- Node11 -->
<g id="node11" class="node">
<title>Node11</title>
<g id="a_node11"><a xlink:title=" ">
<polygon fill="none" stroke="#bfbfbf" points="297,-56.5 297,-75.5 341,-75.5 341,-56.5 297,-56.5"/>
<text text-anchor="middle" x="319" y="-63.5" font-family="Helvetica,sans-Serif" font-size="10.00">vector</text>
</a>
</g>
</g>
<!-- Node7&#45;&gt;Node11 -->
<g id="edge12" class="edge">
<title>Node7&#45;&gt;Node11</title>
<path fill="none" stroke="midnightblue" d="M202.02,-112.44C225.1,-103.48 261.56,-89.31 287.64,-79.18"/>
<polygon fill="midnightblue" stroke="midnightblue" points="289.02,-82.4 297.08,-75.52 286.49,-75.88 289.02,-82.4"/>
</g>
<!-- Node9 -->
<g id="node9" class="node">
<title>Node9</title>
<g id="a_node9"><a xlink:href="Point_8hpp.html" target="_top" xlink:title=" ">
<polygon fill="none" stroke="black" points="151.5,-0.5 151.5,-19.5 208.5,-19.5 208.5,-0.5 151.5,-0.5"/>
<text text-anchor="middle" x="180" y="-7.5" font-family="Helvetica,sans-Serif" font-size="10.00">Point.hpp</text>
</a>
</g>
</g>
<!-- Node8&#45;&gt;Node9 -->
<g id="edge10" class="edge">
<title>Node8&#45;&gt;Node9</title>
<path fill="none" stroke="midnightblue" d="M180,-56.08C180,-49.01 180,-38.86 180,-29.99"/>
<polygon fill="midnightblue" stroke="midnightblue" points="183.5,-29.75 180,-19.75 176.5,-29.75 183.5,-29.75"/>
</g>
<!-- Node13 -->
<g id="node13" class="node">
<title>Node13</title>
<g id="a_node13"><a xlink:href="Color_8hpp.html" target="_top" xlink:title=" ">
<polygon fill="none" stroke="black" points="223.5,-168.5 223.5,-187.5 280.5,-187.5 280.5,-168.5 223.5,-168.5"/>
<text text-anchor="middle" x="252" y="-175.5" font-family="Helvetica,sans-Serif" font-size="10.00">Color.hpp</text>
</a>
</g>
</g>
<!-- Node12&#45;&gt;Node13 -->
<g id="edge15" class="edge">
<title>Node12&#45;&gt;Node13</title>
<path fill="none" stroke="midnightblue" d="M252,-224.08C252,-217.01 252,-206.86 252,-197.99"/>
<polygon fill="midnightblue" stroke="midnightblue" points="255.5,-197.75 252,-187.75 248.5,-197.75 255.5,-197.75"/>
</g>
<!-- Node15 -->
<g id="node15" class="node">
<title>Node15</title>
<g id="a_node15"><a xlink:title=" ">
<polygon fill="none" stroke="#bfbfbf" points="354.5,-168.5 354.5,-187.5 403.5,-187.5 403.5,-168.5 354.5,-168.5"/>
<text text-anchor="middle" x="379" y="-175.5" font-family="Helvetica,sans-Serif" font-size="10.00">random</text>
</a>
</g>
</g>
<!-- Node14&#45;&gt;Node15 -->
<g id="edge17" class="edge">
<title>Node14&#45;&gt;Node15</title>
<path fill="none" stroke="midnightblue" d="M379,-224.08C379,-217.01 379,-206.86 379,-197.99"/>
<polygon fill="midnightblue" stroke="midnightblue" points="382.5,-197.75 379,-187.75 375.5,-197.75 382.5,-197.75"/>
</g>
</g>
</svg>
