<?xml version="1.0" encoding="UTF-8" standalone="no"?>
<!DOCTYPE svg PUBLIC "-//W3C//DTD SVG 1.1//EN"
 "http://www.w3.org/Graphics/SVG/1.1/DTD/svg11.dtd">
<!-- Generated by graphviz version 2.44.0 ()
 -->
<!-- Title: src/Constants.hpp Pages: 1 -->
<svg width="2396pt" height="95pt"
 viewBox="0.00 0.00 2396.00 95.00" xmlns="http://www.w3.org/2000/svg" xmlns:xlink="http://www.w3.org/1999/xlink">
<g id="graph0" class="graph" transform="scale(1 1) rotate(0) translate(4 91)">
<title>src/Constants.hpp</title>
<!-- Node1 -->
<g id="node1" class="node">
<title>Node1</title>
<g id="a_node1"><a xlink:title=" ">
<polygon fill="#bfbfbf" stroke="black" points="1155.5,-67.5 1155.5,-86.5 1250.5,-86.5 1250.5,-67.5 1155.5,-67.5"/>
<text text-anchor="middle" x="1203" y="-74.5" font-family="Helvetica,sans-Serif" font-size="10.00">src/Constants.hpp</text>
</a>
</g>
</g>
<!-- Node2 -->
<g id="node2" class="node">
<title>Node2</title>
<g id="a_node2"><a xlink:href="LevelController_8cpp.html" target="_top" xlink:title=" ">
<polygon fill="none" stroke="black" points="0,-6 0,-25 166,-25 166,-6 0,-6"/>
<text text-anchor="middle" x="83" y="-13" font-family="Helvetica,sans-Serif" font-size="10.00">src/Controllers/LevelController.cpp</text>
</a>
</g>
</g>
<!-- Node1&#45;&gt;Node2 -->
<g id="edge1" class="edge">
<title>Node1&#45;&gt;Node2</title>
<path fill="none" stroke="midnightblue" d="M1145.13,-75.75C988.48,-74.57 543.15,-67.95 175,-31 160.52,-29.55 144.85,-27.32 130.62,-25.05"/>
<polygon fill="midnightblue" stroke="midnightblue" points="1145.45,-79.25 1155.47,-75.82 1145.5,-72.25 1145.45,-79.25"/>
</g>
<!-- Node3 -->
<g id="node3" class="node">
<title>Node3</title>
<g id="a_node3"><a xlink:href="EnemyPrefabFactory_8cpp.html" target="_top" xlink:title=" ">
<polygon fill="none" stroke="black" points="184,-0.5 184,-30.5 318,-30.5 318,-0.5 184,-0.5"/>
<text text-anchor="start" x="192" y="-18.5" font-family="Helvetica,sans-Serif" font-size="10.00">src/Factories/EnemyPrefab</text>
<text text-anchor="middle" x="251" y="-7.5" font-family="Helvetica,sans-Serif" font-size="10.00">Factory.cpp</text>
</a>
</g>
</g>
<!-- Node1&#45;&gt;Node3 -->
<g id="edge2" class="edge">
<title>Node1&#45;&gt;Node3</title>
<path fill="none" stroke="midnightblue" d="M1145.21,-75.77C1004.63,-74.6 633.8,-67.97 327,-31 324.07,-30.65 321.08,-30.25 318.06,-29.81"/>
<polygon fill="midnightblue" stroke="midnightblue" points="1145.3,-79.27 1155.33,-75.84 1145.35,-72.27 1145.3,-79.27"/>
</g>
<!-- Node4 -->
<g id="node4" class="node">
<title>Node4</title>
<g id="a_node4"><a xlink:href="HealthBarFactory_8cpp.html" target="_top" xlink:title=" ">
<polygon fill="none" stroke="black" points="336,-6 336,-25 506,-25 506,-6 336,-6"/>
<text text-anchor="middle" x="421" y="-13" font-family="Helvetica,sans-Serif" font-size="10.00">src/Factories/HealthBarFactory.cpp</text>
</a>
</g>
</g>
<!-- Node1&#45;&gt;Node4 -->
<g id="edge3" class="edge">
<title>Node1&#45;&gt;Node4</title>
<path fill="none" stroke="midnightblue" d="M1145.04,-73.93C1026.46,-69.31 747.73,-56.51 515,-31 500.72,-29.43 485.29,-27.26 471.14,-25.07"/>
<polygon fill="midnightblue" stroke="midnightblue" points="1145.2,-77.44 1155.33,-74.32 1145.47,-70.44 1145.2,-77.44"/>
</g>
<!-- Node5 -->
<g id="node5" class="node">
<title>Node5</title>
<g id="a_node5"><a xlink:href="HeroPrefabFactory_8cpp.html" target="_top" xlink:title=" ">
<polygon fill="none" stroke="black" points="524,-0.5 524,-30.5 650,-30.5 650,-0.5 524,-0.5"/>
<text text-anchor="start" x="532" y="-18.5" font-family="Helvetica,sans-Serif" font-size="10.00">src/Factories/HeroPrefab</text>
<text text-anchor="middle" x="587" y="-7.5" font-family="Helvetica,sans-Serif" font-size="10.00">Factory.cpp</text>
</a>
</g>
</g>
<!-- Node1&#45;&gt;Node5 -->
<g id="edge4" class="edge">
<title>Node1&#45;&gt;Node5</title>
<path fill="none" stroke="midnightblue" d="M1145.35,-73.44C1045.77,-68.52 835.26,-55.95 659,-31 656.1,-30.59 653.13,-30.13 650.14,-29.65"/>
<polygon fill="midnightblue" stroke="midnightblue" points="1145.34,-76.94 1155.5,-73.93 1145.68,-69.95 1145.34,-76.94"/>
</g>
<!-- Node6 -->
<g id="node6" class="node">
<title>Node6</title>
<g id="a_node6"><a xlink:href="TowerPrefabFactory_8cpp.html" target="_top" xlink:title=" ">
<polygon fill="none" stroke="black" points="668,-0.5 668,-30.5 800,-30.5 800,-0.5 668,-0.5"/>
<text text-anchor="start" x="676" y="-18.5" font-family="Helvetica,sans-Serif" font-size="10.00">src/Factories/TowerPrefab</text>
<text text-anchor="middle" x="734" y="-7.5" font-family="Helvetica,sans-Serif" font-size="10.00">Factory.cpp</text>
</a>
</g>
</g>
<!-- Node1&#45;&gt;Node6 -->
<g id="edge5" class="edge">
<title>Node1&#45;&gt;Node6</title>
<path fill="none" stroke="midnightblue" d="M1145.26,-70.81C1068.31,-63.58 928.02,-49.27 809,-31 806.12,-30.56 803.17,-30.08 800.21,-29.59"/>
<polygon fill="midnightblue" stroke="midnightblue" points="1144.95,-74.3 1155.23,-71.75 1145.6,-67.33 1144.95,-74.3"/>
</g>
<!-- Node7 -->
<g id="node7" class="node">
<title>Node7</title>
<g id="a_node7"><a xlink:href="LevelScene_8cpp.html" target="_top" xlink:title=" ">
<polygon fill="none" stroke="black" points="818.5,-6 818.5,-25 957.5,-25 957.5,-6 818.5,-6"/>
<text text-anchor="middle" x="888" y="-13" font-family="Helvetica,sans-Serif" font-size="10.00">src/Scenes/LevelScene.cpp</text>
</a>
</g>
</g>
<!-- Node1&#45;&gt;Node7 -->
<g id="edge6" class="edge">
<title>Node1&#45;&gt;Node7</title>
<path fill="none" stroke="midnightblue" d="M1148.03,-65.62C1087.03,-54.09 989.73,-35.72 933.05,-25.01"/>
<polygon fill="midnightblue" stroke="midnightblue" points="1147.39,-69.06 1157.87,-67.48 1148.69,-62.18 1147.39,-69.06"/>
</g>
<!-- Node8 -->
<g id="node8" class="node">
<title>Node8</title>
<g id="a_node8"><a xlink:href="MainScene_8cpp.html" target="_top" xlink:title=" ">
<polygon fill="none" stroke="black" points="976,-6 976,-25 1112,-25 1112,-6 976,-6"/>
<text text-anchor="middle" x="1044" y="-13" font-family="Helvetica,sans-Serif" font-size="10.00">src/Scenes/MainScene.cpp</text>
</a>
</g>
</g>
<!-- Node1&#45;&gt;Node8 -->
<g id="edge7" class="edge">
<title>Node1&#45;&gt;Node8</title>
<path fill="none" stroke="midnightblue" d="M1170.75,-63.93C1139.85,-52.37 1093.99,-35.21 1066.74,-25.01"/>
<polygon fill="midnightblue" stroke="midnightblue" points="1169.63,-67.25 1180.22,-67.48 1172.08,-60.69 1169.63,-67.25"/>
</g>
<!-- Node9 -->
<g id="node9" class="node">
<title>Node9</title>
<g id="a_node9"><a xlink:href="VictoryScene_8cpp.html" target="_top" xlink:title=" ">
<polygon fill="none" stroke="black" points="1130.5,-6 1130.5,-25 1275.5,-25 1275.5,-6 1130.5,-6"/>
<text text-anchor="middle" x="1203" y="-13" font-family="Helvetica,sans-Serif" font-size="10.00">src/Scenes/VictoryScene.cpp</text>
</a>
</g>
</g>
<!-- Node1&#45;&gt;Node9 -->
<g id="edge8" class="edge">
<title>Node1&#45;&gt;Node9</title>
<path fill="none" stroke="midnightblue" d="M1203,-57.32C1203,-46.5 1203,-33.4 1203,-25.01"/>
<polygon fill="midnightblue" stroke="midnightblue" points="1199.5,-57.48 1203,-67.48 1206.5,-57.48 1199.5,-57.48"/>
</g>
<!-- Node10 -->
<g id="node10" class="node">
<title>Node10</title>
<g id="a_node10"><a xlink:href="EnemyMovementBehaviour_8cpp.html" target="_top" xlink:title=" ">
<polygon fill="none" stroke="black" points="1294,-0.5 1294,-30.5 1450,-30.5 1450,-0.5 1294,-0.5"/>
<text text-anchor="start" x="1302" y="-18.5" font-family="Helvetica,sans-Serif" font-size="10.00">src/Scripts/Enemies</text>
<text text-anchor="middle" x="1372" y="-7.5" font-family="Helvetica,sans-Serif" font-size="10.00">/EnemyMovementBehaviour.cpp</text>
</a>
</g>
</g>
<!-- Node1&#45;&gt;Node10 -->
<g id="edge9" class="edge">
<title>Node1&#45;&gt;Node10</title>
<path fill="none" stroke="midnightblue" d="M1236.79,-64.1C1264.29,-54.42 1303.16,-40.74 1332.17,-30.52"/>
<polygon fill="midnightblue" stroke="midnightblue" points="1235.48,-60.85 1227.21,-67.48 1237.81,-67.46 1235.48,-60.85"/>
</g>
<!-- Node11 -->
<g id="node11" class="node">
<title>Node11</title>
<g id="a_node11"><a xlink:href="EnemyTroopTruckBehaviour_8cpp.html" target="_top" xlink:title=" ">
<polygon fill="none" stroke="black" points="1468,-0.5 1468,-30.5 1628,-30.5 1628,-0.5 1468,-0.5"/>
<text text-anchor="start" x="1476" y="-18.5" font-family="Helvetica,sans-Serif" font-size="10.00">src/Scripts/Enemies</text>
<text text-anchor="middle" x="1548" y="-7.5" font-family="Helvetica,sans-Serif" font-size="10.00">/EnemyTroopTruckBehaviour.cpp</text>
</a>
</g>
</g>
<!-- Node1&#45;&gt;Node11 -->
<g id="edge10" class="edge">
<title>Node1&#45;&gt;Node11</title>
<path fill="none" stroke="midnightblue" d="M1260.48,-66.09C1317.17,-56.31 1404.3,-41.28 1467.79,-30.33"/>
<polygon fill="midnightblue" stroke="midnightblue" points="1259.87,-62.64 1250.61,-67.79 1261.06,-69.54 1259.87,-62.64"/>
</g>
<!-- Node12 -->
<g id="node12" class="node">
<title>Node12</title>
<g id="a_node12"><a xlink:href="HealAbilityBehaviour_8cpp.html" target="_top" xlink:title=" ">
<polygon fill="none" stroke="black" points="1646,-0.5 1646,-30.5 1774,-30.5 1774,-0.5 1646,-0.5"/>
<text text-anchor="start" x="1654" y="-18.5" font-family="Helvetica,sans-Serif" font-size="10.00">src/Scripts/Heroes</text>
<text text-anchor="middle" x="1710" y="-7.5" font-family="Helvetica,sans-Serif" font-size="10.00">/HealAbilityBehaviour.cpp</text>
</a>
</g>
</g>
<!-- Node1&#45;&gt;Node12 -->
<g id="edge11" class="edge">
<title>Node1&#45;&gt;Node12</title>
<path fill="none" stroke="midnightblue" d="M1260.74,-71.73C1344.1,-65.17 1502.9,-51.23 1637,-31 1639.94,-30.56 1642.94,-30.08 1645.96,-29.57"/>
<polygon fill="midnightblue" stroke="midnightblue" points="1260.4,-68.24 1250.71,-72.51 1260.95,-75.22 1260.4,-68.24"/>
</g>
<!-- Node13 -->
<g id="node13" class="node">
<title>Node13</title>
<g id="a_node13"><a xlink:href="UserAttackBehaviour_8cpp.html" target="_top" xlink:title=" ">
<polygon fill="none" stroke="black" points="1792.5,-0.5 1792.5,-30.5 1923.5,-30.5 1923.5,-0.5 1792.5,-0.5"/>
<text text-anchor="start" x="1800.5" y="-18.5" font-family="Helvetica,sans-Serif" font-size="10.00">src/Scripts/Heroes</text>
<text text-anchor="middle" x="1858" y="-7.5" font-family="Helvetica,sans-Serif" font-size="10.00">/UserAttackBehaviour.cpp</text>
</a>
</g>
</g>
<!-- Node1&#45;&gt;Node13 -->
<g id="edge12" class="edge">
<title>Node1&#45;&gt;Node13</title>
<path fill="none" stroke="midnightblue" d="M1260.58,-73.7C1365.05,-69.05 1592.66,-56.7 1783,-31 1786.02,-30.59 1789.11,-30.14 1792.22,-29.66"/>
<polygon fill="midnightblue" stroke="midnightblue" points="1260.39,-70.21 1250.56,-74.14 1260.7,-77.2 1260.39,-70.21"/>
</g>
<!-- Node14 -->
<g id="node14" class="node">
<title>Node14</title>
<g id="a_node14"><a xlink:href="UserMovementBehaviour_8cpp.html" target="_top" xlink:title=" ">
<polygon fill="none" stroke="black" points="1942,-0.5 1942,-30.5 2090,-30.5 2090,-0.5 1942,-0.5"/>
<text text-anchor="start" x="1950" y="-18.5" font-family="Helvetica,sans-Serif" font-size="10.00">src/Scripts/Heroes</text>
<text text-anchor="middle" x="2016" y="-7.5" font-family="Helvetica,sans-Serif" font-size="10.00">/UserMovementBehaviour.cpp</text>
</a>
</g>
</g>
<!-- Node1&#45;&gt;Node14 -->
<g id="edge13" class="edge">
<title>Node1&#45;&gt;Node14</title>
<path fill="none" stroke="midnightblue" d="M1260.56,-74.63C1384.1,-71.21 1683.7,-60.37 1933,-31 1935.91,-30.66 1938.86,-30.28 1941.85,-29.88"/>
<polygon fill="midnightblue" stroke="midnightblue" points="1260.47,-71.13 1250.56,-74.9 1260.65,-78.13 1260.47,-71.13"/>
</g>
<!-- Node15 -->
<g id="node15" class="node">
<title>Node15</title>
<g id="a_node15"><a xlink:href="HealthBarBehaviour_8cpp.html" target="_top" xlink:title=" ">
<polygon fill="none" stroke="black" points="2108.5,-0.5 2108.5,-30.5 2239.5,-30.5 2239.5,-0.5 2108.5,-0.5"/>
<text text-anchor="start" x="2116.5" y="-18.5" font-family="Helvetica,sans-Serif" font-size="10.00">src/Scripts/Hud/HealthBar</text>
<text text-anchor="middle" x="2174" y="-7.5" font-family="Helvetica,sans-Serif" font-size="10.00">Behaviour.cpp</text>
</a>
</g>
</g>
<!-- Node1&#45;&gt;Node15 -->
<g id="edge14" class="edge">
<title>Node1&#45;&gt;Node15</title>
<path fill="none" stroke="midnightblue" d="M1261.08,-75.91C1404.1,-75.07 1784.49,-69.11 2099,-31 2102.03,-30.63 2105.12,-30.22 2108.23,-29.76"/>
<polygon fill="midnightblue" stroke="midnightblue" points="1260.78,-72.41 1250.8,-75.96 1260.82,-79.41 1260.78,-72.41"/>
</g>
<!-- Node16 -->
<g id="node16" class="node">
<title>Node16</title>
<g id="a_node16"><a xlink:href="LevelData_8cpp.html" target="_top" xlink:title=" ">
<polygon fill="none" stroke="black" points="2258,-6 2258,-25 2388,-25 2388,-6 2258,-6"/>
<text text-anchor="middle" x="2323" y="-13" font-family="Helvetica,sans-Serif" font-size="10.00">src/Structs/LevelData.cpp</text>
</a>
</g>
</g>
<!-- Node1&#45;&gt;Node16 -->
<g id="edge15" class="edge">
<title>Node1&#45;&gt;Node16</title>
<path fill="none" stroke="midnightblue" d="M1260.64,-76.56C1419.05,-77.43 1874.13,-75.53 2249,-31 2260.83,-29.59 2273.6,-27.36 2285.15,-25.05"/>
<polygon fill="midnightblue" stroke="midnightblue" points="1260.66,-73.06 1250.64,-76.49 1260.62,-80.06 1260.66,-73.06"/>
</g>
</g>
</svg>
