<?xml version="1.0" encoding="UTF-8" standalone="no"?>
<!DOCTYPE svg PUBLIC "-//W3C//DTD SVG 1.1//EN"
 "http://www.w3.org/Graphics/SVG/1.1/DTD/svg11.dtd">
<!-- Generated by graphviz version 2.44.0 ()
 -->
<!-- Title: src/Constants.hpp Pages: 1 -->
<!--zoomable 106 -->
<svg id="main" version="1.1" xmlns="http://www.w3.org/2000/svg" xmlns:xlink="http://www.w3.org/1999/xlink" xml:space="preserve" onload="init(evt)">
<style type="text/css"><![CDATA[
.edge:hover path { stroke: red; }
.edge:hover polygon { stroke: red; fill: red; }
]]></style>
<script type="text/javascript"><![CDATA[
var edges = document.getElementsByTagName('g');
if (edges && edges.length) {
  for (var i=0;i<edges.length;i++) {
    if (edges[i].id.substr(0,4)=='edge') {
      edges[i].setAttribute('class','edge');
    }
  }
}
]]></script>
        <defs>
                <circle id="rim" cx="0" cy="0" r="7"/>
                <circle id="rim2" cx="0" cy="0" r="3.5"/>
                <g id="zoomPlus">
                        <use xlink:href="#rim" fill="#404040">
                                <set attributeName="fill" to="#808080" begin="zoomplus.mouseover" end="zoomplus.mouseout"/>
                        </use>
                        <path d="M-4,0h8M0,-4v8" fill="none" stroke="white" stroke-width="1.5" pointer-events="none"/>
                </g>
                <g id="zoomMin">
                        <use xlink:href="#rim" fill="#404040">
                                <set attributeName="fill" to="#808080" begin="zoomminus.mouseover" end="zoomminus.mouseout"/>
                        </use>
                        <path d="M-4,0h8" fill="none" stroke="white" stroke-width="1.5" pointer-events="none"/>
                </g>
                <g id="dirArrow">
                        <path fill="none" stroke="white" stroke-width="1.5" d="M0,-3.0v7 M-2.5,-0.5L0,-3.0L2.5,-0.5"/>
                </g>
               <g id="resetDef">
                       <use xlink:href="#rim2" fill="#404040">
                               <set attributeName="fill" to="#808080" begin="reset.mouseover" end="reset.mouseout"/>
                       </use>
               </g>
        </defs>

<script type="text/javascript">
var viewWidth = 3235;
var viewHeight = 106;
var sectionId = 'dynsection-1';
</script>
<script xlink:href="svgpan.js"/>
<svg id="graph" class="graph">
<g id="viewport">
<title>src/Constants.hpp</title>
<!-- Node1 -->
<g id="node1" class="node">
<title>Node1</title>
<g id="a_node1"><a xlink:title=" ">
<polygon fill="#bfbfbf" stroke="black" points="1585.5,-78.5 1585.5,-97.5 1680.5,-97.5 1680.5,-78.5 1585.5,-78.5"/>
<text text-anchor="middle" x="1633" y="-85.5" font-family="Helvetica,sans-Serif" font-size="10.00">src/Constants.hpp</text>
</a>
</g>
</g>
<!-- Node2 -->
<g id="node2" class="node">
<title>Node2</title>
<g id="a_node2"><a xlink:href="LevelController_8cpp.html" target="_top" xlink:title=" ">
<polygon fill="none" stroke="black" points="0,-11.5 0,-30.5 166,-30.5 166,-11.5 0,-11.5"/>
<text text-anchor="middle" x="83" y="-18.5" font-family="Helvetica,sans-Serif" font-size="10.00">src/Controllers/LevelController.cpp</text>
</a>
</g>
</g>
<!-- Node1&#45;&gt;Node2 -->
<g id="edge1" class="edge">
<title>Node1&#45;&gt;Node2</title>
<path fill="none" stroke="midnightblue" d="M1575.34,-86.63C1340.21,-84.91 453.16,-76.23 175,-42 155.05,-39.54 133.03,-34.83 115.54,-30.6"/>
<polygon fill="midnightblue" stroke="midnightblue" points="1575.36,-90.13 1585.39,-86.7 1575.41,-83.13 1575.36,-90.13"/>
</g>
<!-- Node3 -->
<g id="node3" class="node">
<title>Node3</title>
<g id="a_node3"><a xlink:href="EnemyPrefabFactory_8cpp.html" target="_top" xlink:title=" ">
<polygon fill="none" stroke="black" points="184,-6 184,-36 318,-36 318,-6 184,-6"/>
<text text-anchor="start" x="192" y="-24" font-family="Helvetica,sans-Serif" font-size="10.00">src/Factories/EnemyPrefab</text>
<text text-anchor="middle" x="251" y="-13" font-family="Helvetica,sans-Serif" font-size="10.00">Factory.cpp</text>
</a>
</g>
</g>
<!-- Node1&#45;&gt;Node3 -->
<g id="edge2" class="edge">
<title>Node1&#45;&gt;Node3</title>
<path fill="none" stroke="midnightblue" d="M1575.26,-86.72C1355.74,-85.39 573.09,-78.16 327,-42 317.42,-40.59 307.3,-38.43 297.69,-36.03"/>
<polygon fill="midnightblue" stroke="midnightblue" points="1575.26,-90.22 1585.28,-86.78 1575.3,-83.22 1575.26,-90.22"/>
</g>
<!-- Node4 -->
<g id="node4" class="node">
<title>Node4</title>
<g id="a_node4"><a xlink:href="HealthBarFactory_8cpp.html" target="_top" xlink:title=" ">
<polygon fill="none" stroke="black" points="336,-11.5 336,-30.5 506,-30.5 506,-11.5 336,-11.5"/>
<text text-anchor="middle" x="421" y="-18.5" font-family="Helvetica,sans-Serif" font-size="10.00">src/Factories/HealthBarFactory.cpp</text>
</a>
</g>
</g>
<!-- Node1&#45;&gt;Node4 -->
<g id="edge3" class="edge">
<title>Node1&#45;&gt;Node4</title>
<path fill="none" stroke="midnightblue" d="M1575.26,-85.97C1376.77,-82.22 723.29,-68.16 515,-42 494.64,-39.44 472.14,-34.73 454.26,-30.51"/>
<polygon fill="midnightblue" stroke="midnightblue" points="1575.41,-89.47 1585.47,-86.16 1575.54,-82.47 1575.41,-89.47"/>
</g>
<!-- Node5 -->
<g id="node5" class="node">
<title>Node5</title>
<g id="a_node5"><a xlink:href="HeroPrefabFactory_8cpp.html" target="_top" xlink:title=" ">
<polygon fill="none" stroke="black" points="524,-6 524,-36 650,-36 650,-6 524,-6"/>
<text text-anchor="start" x="532" y="-24" font-family="Helvetica,sans-Serif" font-size="10.00">src/Factories/HeroPrefab</text>
<text text-anchor="middle" x="587" y="-13" font-family="Helvetica,sans-Serif" font-size="10.00">Factory.cpp</text>
</a>
</g>
</g>
<!-- Node1&#45;&gt;Node5 -->
<g id="edge4" class="edge">
<title>Node1&#45;&gt;Node5</title>
<path fill="none" stroke="midnightblue" d="M1575.15,-86.03C1393.67,-82.73 837.11,-70.48 659,-42 650.03,-40.57 640.59,-38.42 631.59,-36.06"/>
<polygon fill="midnightblue" stroke="midnightblue" points="1575.23,-89.53 1585.29,-86.21 1575.35,-82.54 1575.23,-89.53"/>
</g>
<!-- Node6 -->
<g id="node6" class="node">
<title>Node6</title>
<g id="a_node6"><a xlink:href="TowerPrefabFactory_8cpp.html" target="_top" xlink:title=" ">
<polygon fill="none" stroke="black" points="668,-6 668,-36 800,-36 800,-6 668,-6"/>
<text text-anchor="start" x="676" y="-24" font-family="Helvetica,sans-Serif" font-size="10.00">src/Factories/TowerPrefab</text>
<text text-anchor="middle" x="734" y="-13" font-family="Helvetica,sans-Serif" font-size="10.00">Factory.cpp</text>
</a>
</g>
</g>
<!-- Node1&#45;&gt;Node6 -->
<g id="edge5" class="edge">
<title>Node1&#45;&gt;Node6</title>
<path fill="none" stroke="midnightblue" d="M1575.19,-85.39C1413.19,-80.64 956.97,-65.51 809,-42 799.82,-40.54 790.14,-38.42 780.89,-36.09"/>
<polygon fill="midnightblue" stroke="midnightblue" points="1575.34,-88.9 1585.43,-85.69 1575.54,-81.9 1575.34,-88.9"/>
</g>
<!-- Node7 -->
<g id="node7" class="node">
<title>Node7</title>
<g id="a_node7"><a xlink:href="LevelScene_8cpp.html" target="_top" xlink:title=" ">
<polygon fill="none" stroke="black" points="818.5,-11.5 818.5,-30.5 957.5,-30.5 957.5,-11.5 818.5,-11.5"/>
<text text-anchor="middle" x="888" y="-18.5" font-family="Helvetica,sans-Serif" font-size="10.00">src/Scenes/LevelScene.cpp</text>
</a>
</g>
</g>
<!-- Node1&#45;&gt;Node7 -->
<g id="edge6" class="edge">
<title>Node1&#45;&gt;Node7</title>
<path fill="none" stroke="midnightblue" d="M1575.36,-86.59C1459.42,-85.01 1190.03,-77.47 967,-42 950.09,-39.31 931.52,-34.7 916.63,-30.58"/>
<polygon fill="midnightblue" stroke="midnightblue" points="1575.39,-90.1 1585.43,-86.72 1575.48,-83.1 1575.39,-90.1"/>
</g>
<!-- Node8 -->
<g id="node8" class="node">
<title>Node8</title>
<g id="a_node8"><a xlink:href="MainScene_8cpp.html" target="_top" xlink:title=" ">
<polygon fill="none" stroke="black" points="976,-11.5 976,-30.5 1112,-30.5 1112,-11.5 976,-11.5"/>
<text text-anchor="middle" x="1044" y="-18.5" font-family="Helvetica,sans-Serif" font-size="10.00">src/Scenes/MainScene.cpp</text>
</a>
</g>
</g>
<!-- Node1&#45;&gt;Node8 -->
<g id="edge7" class="edge">
<title>Node1&#45;&gt;Node8</title>
<path fill="none" stroke="midnightblue" d="M1575.37,-85.06C1480.16,-81.16 1284.32,-70.19 1121,-42 1104.67,-39.18 1086.73,-34.61 1072.28,-30.55"/>
<polygon fill="midnightblue" stroke="midnightblue" points="1575.23,-88.56 1585.37,-85.46 1575.51,-81.56 1575.23,-88.56"/>
</g>
<!-- Node9 -->
<g id="node9" class="node">
<title>Node9</title>
<g id="a_node9"><a xlink:href="VictoryScene_8cpp.html" target="_top" xlink:title=" ">
<polygon fill="none" stroke="black" points="1130.5,-11.5 1130.5,-30.5 1275.5,-30.5 1275.5,-11.5 1130.5,-11.5"/>
<text text-anchor="middle" x="1203" y="-18.5" font-family="Helvetica,sans-Serif" font-size="10.00">src/Scenes/VictoryScene.cpp</text>
</a>
</g>
</g>
<!-- Node1&#45;&gt;Node9 -->
<g id="edge8" class="edge">
<title>Node1&#45;&gt;Node9</title>
<path fill="none" stroke="midnightblue" d="M1575.19,-81.5C1505.89,-74.46 1386.4,-60.86 1285,-42 1268.14,-38.86 1249.57,-34.42 1234.36,-30.51"/>
<polygon fill="midnightblue" stroke="midnightblue" points="1575.16,-85.02 1585.46,-82.54 1575.86,-78.05 1575.16,-85.02"/>
</g>
<!-- Node10 -->
<g id="node10" class="node">
<title>Node10</title>
<g id="a_node10"><a xlink:href="EnemyMovementBehaviour_8cpp.html" target="_top" xlink:title=" ">
<polygon fill="none" stroke="black" points="1294,-6 1294,-36 1450,-36 1450,-6 1294,-6"/>
<text text-anchor="start" x="1302" y="-24" font-family="Helvetica,sans-Serif" font-size="10.00">src/Scripts/Enemies</text>
<text text-anchor="middle" x="1372" y="-13" font-family="Helvetica,sans-Serif" font-size="10.00">/EnemyMovementBehaviour.cpp</text>
</a>
</g>
</g>
<!-- Node1&#45;&gt;Node10 -->
<g id="edge9" class="edge">
<title>Node1&#45;&gt;Node10</title>
<path fill="none" stroke="midnightblue" d="M1588.74,-75.98C1544.56,-64.97 1476.5,-48.02 1428.45,-36.06"/>
<polygon fill="midnightblue" stroke="midnightblue" points="1588.06,-79.42 1598.61,-78.44 1589.75,-72.62 1588.06,-79.42"/>
</g>
<!-- Node11 -->
<g id="node11" class="node">
<title>Node11</title>
<g id="a_node11"><a xlink:href="EnemyTroopTruckBehaviour_8cpp.html" target="_top" xlink:title=" ">
<polygon fill="none" stroke="black" points="1468,-6 1468,-36 1628,-36 1628,-6 1468,-6"/>
<text text-anchor="start" x="1476" y="-24" font-family="Helvetica,sans-Serif" font-size="10.00">src/Scripts/Enemies</text>
<text text-anchor="middle" x="1548" y="-13" font-family="Helvetica,sans-Serif" font-size="10.00">/EnemyTroopTruckBehaviour.cpp</text>
</a>
</g>
</g>
<!-- Node1&#45;&gt;Node11 -->
<g id="edge10" class="edge">
<title>Node1&#45;&gt;Node11</title>
<path fill="none" stroke="midnightblue" d="M1613.44,-72.04C1599.29,-61.23 1580.3,-46.7 1566.42,-36.09"/>
<polygon fill="midnightblue" stroke="midnightblue" points="1611.47,-74.94 1621.54,-78.23 1615.72,-69.38 1611.47,-74.94"/>
</g>
<!-- Node12 -->
<g id="node12" class="node">
<title>Node12</title>
<g id="a_node12"><a xlink:href="AirstrikeAbilityBehaviour_8cpp.html" target="_top" xlink:title=" ">
<polygon fill="none" stroke="black" points="1646.5,-6 1646.5,-36 1789.5,-36 1789.5,-6 1646.5,-6"/>
<text text-anchor="start" x="1654.5" y="-24" font-family="Helvetica,sans-Serif" font-size="10.00">src/Scripts/Heroes</text>
<text text-anchor="middle" x="1718" y="-13" font-family="Helvetica,sans-Serif" font-size="10.00">/AirstrikeAbilityBehaviour.cpp</text>
</a>
</g>
</g>
<!-- Node1&#45;&gt;Node12 -->
<g id="edge11" class="edge">
<title>Node1&#45;&gt;Node12</title>
<path fill="none" stroke="midnightblue" d="M1652.56,-72.04C1666.71,-61.23 1685.7,-46.7 1699.58,-36.09"/>
<polygon fill="midnightblue" stroke="midnightblue" points="1650.28,-69.38 1644.46,-78.23 1654.53,-74.94 1650.28,-69.38"/>
</g>
<!-- Node13 -->
<g id="node13" class="node">
<title>Node13</title>
<g id="a_node13"><a xlink:href="EnemySuicideAbilityBehaviour_8cpp.html" target="_top" xlink:title=" ">
<polygon fill="none" stroke="black" points="1807.5,-6 1807.5,-36 1976.5,-36 1976.5,-6 1807.5,-6"/>
<text text-anchor="start" x="1815.5" y="-24" font-family="Helvetica,sans-Serif" font-size="10.00">src/Scripts/Heroes</text>
<text text-anchor="middle" x="1892" y="-13" font-family="Helvetica,sans-Serif" font-size="10.00">/EnemySuicideAbilityBehaviour.cpp</text>
</a>
</g>
</g>
<!-- Node1&#45;&gt;Node13 -->
<g id="edge12" class="edge">
<title>Node1&#45;&gt;Node13</title>
<path fill="none" stroke="midnightblue" d="M1676.92,-75.98C1720.76,-64.97 1788.3,-48.02 1835.98,-36.06"/>
<polygon fill="midnightblue" stroke="midnightblue" points="1675.97,-72.61 1667.13,-78.44 1677.68,-79.4 1675.97,-72.61"/>
</g>
<!-- Node14 -->
<g id="node14" class="node">
<title>Node14</title>
<g id="a_node14"><a xlink:href="HealAbilityBehaviour_8cpp.html" target="_top" xlink:title=" ">
<polygon fill="none" stroke="black" points="1995,-6 1995,-36 2123,-36 2123,-6 1995,-6"/>
<text text-anchor="start" x="2003" y="-24" font-family="Helvetica,sans-Serif" font-size="10.00">src/Scripts/Heroes</text>
<text text-anchor="middle" x="2059" y="-13" font-family="Helvetica,sans-Serif" font-size="10.00">/HealAbilityBehaviour.cpp</text>
</a>
</g>
</g>
<!-- Node1&#45;&gt;Node14 -->
<g id="edge13" class="edge">
<title>Node1&#45;&gt;Node14</title>
<path fill="none" stroke="midnightblue" d="M1690.71,-82.16C1760.95,-75.68 1882.93,-62.58 1986,-42 1994.25,-40.35 2002.93,-38.28 2011.32,-36.1"/>
<polygon fill="midnightblue" stroke="midnightblue" points="1690.38,-78.67 1680.73,-83.06 1691.01,-85.64 1690.38,-78.67"/>
</g>
<!-- Node15 -->
<g id="node15" class="node">
<title>Node15</title>
<g id="a_node15"><a xlink:href="IncreaseTowerFireRateAbilityBehaviour_8cpp.html" target="_top" xlink:title=" ">
<polygon fill="none" stroke="black" points="2141.5,-0.5 2141.5,-41.5 2288.5,-41.5 2288.5,-0.5 2141.5,-0.5"/>
<text text-anchor="start" x="2149.5" y="-29.5" font-family="Helvetica,sans-Serif" font-size="10.00">src/Scripts/Heroes</text>
<text text-anchor="start" x="2149.5" y="-18.5" font-family="Helvetica,sans-Serif" font-size="10.00">/IncreaseTowerFireRateAbility</text>
<text text-anchor="middle" x="2215" y="-7.5" font-family="Helvetica,sans-Serif" font-size="10.00">Behaviour.cpp</text>
</a>
</g>
</g>
<!-- Node1&#45;&gt;Node15 -->
<g id="edge14" class="edge">
<title>Node1&#45;&gt;Node15</title>
<path fill="none" stroke="midnightblue" d="M1690.85,-84.54C1784.19,-79.95 1973.58,-68.09 2132,-42 2135.07,-41.49 2138.2,-40.94 2141.35,-40.34"/>
<polygon fill="midnightblue" stroke="midnightblue" points="1690.59,-81.05 1680.77,-85.02 1690.92,-88.04 1690.59,-81.05"/>
</g>
<!-- Node16 -->
<g id="node16" class="node">
<title>Node16</title>
<g id="a_node16"><a xlink:href="IncreaseTowerRangeAbilityBehaviour_8cpp.html" target="_top" xlink:title=" ">
<polygon fill="none" stroke="black" points="2307,-0.5 2307,-41.5 2445,-41.5 2445,-0.5 2307,-0.5"/>
<text text-anchor="start" x="2315" y="-29.5" font-family="Helvetica,sans-Serif" font-size="10.00">src/Scripts/Heroes</text>
<text text-anchor="start" x="2315" y="-18.5" font-family="Helvetica,sans-Serif" font-size="10.00">/IncreaseTowerRangeAbility</text>
<text text-anchor="middle" x="2376" y="-7.5" font-family="Helvetica,sans-Serif" font-size="10.00">Behaviour.cpp</text>
</a>
</g>
</g>
<!-- Node1&#45;&gt;Node16 -->
<g id="edge15" class="edge">
<title>Node1&#45;&gt;Node16</title>
<path fill="none" stroke="midnightblue" d="M1690.56,-86.65C1806.35,-85.16 2075.36,-77.77 2298,-42 2300.9,-41.53 2303.85,-41.01 2306.82,-40.44"/>
<polygon fill="midnightblue" stroke="midnightblue" points="1690.46,-83.15 1680.5,-86.77 1690.55,-90.15 1690.46,-83.15"/>
</g>
<!-- Node17 -->
<g id="node17" class="node">
<title>Node17</title>
<g id="a_node17"><a xlink:href="InvisibilityAbilityBehaviour_8cpp.html" target="_top" xlink:title=" ">
<polygon fill="none" stroke="black" points="2463,-6 2463,-36 2613,-36 2613,-6 2463,-6"/>
<text text-anchor="start" x="2471" y="-24" font-family="Helvetica,sans-Serif" font-size="10.00">src/Scripts/Heroes</text>
<text text-anchor="middle" x="2538" y="-13" font-family="Helvetica,sans-Serif" font-size="10.00">/InvisibilityAbilityBehaviour.cpp</text>
</a>
</g>
</g>
<!-- Node1&#45;&gt;Node17 -->
<g id="edge16" class="edge">
<title>Node1&#45;&gt;Node17</title>
<path fill="none" stroke="midnightblue" d="M1691.06,-87.37C1825.83,-87.46 2170.04,-83.25 2454,-42 2464.24,-40.51 2475.06,-38.37 2485.4,-36.04"/>
<polygon fill="midnightblue" stroke="midnightblue" points="1690.96,-83.87 1680.96,-87.36 1690.95,-90.87 1690.96,-83.87"/>
</g>
<!-- Node18 -->
<g id="node18" class="node">
<title>Node18</title>
<g id="a_node18"><a xlink:href="UserAttackBehaviour_8cpp.html" target="_top" xlink:title=" ">
<polygon fill="none" stroke="black" points="2631.5,-6 2631.5,-36 2762.5,-36 2762.5,-6 2631.5,-6"/>
<text text-anchor="start" x="2639.5" y="-24" font-family="Helvetica,sans-Serif" font-size="10.00">src/Scripts/Heroes</text>
<text text-anchor="middle" x="2697" y="-13" font-family="Helvetica,sans-Serif" font-size="10.00">/UserAttackBehaviour.cpp</text>
</a>
</g>
</g>
<!-- Node1&#45;&gt;Node18 -->
<g id="edge17" class="edge">
<title>Node1&#45;&gt;Node18</title>
<path fill="none" stroke="midnightblue" d="M1690.78,-86C1874.01,-82.58 2440.68,-69.97 2622,-42 2631.32,-40.56 2641.15,-38.42 2650.52,-36.05"/>
<polygon fill="midnightblue" stroke="midnightblue" points="1690.48,-82.51 1680.55,-86.19 1690.61,-89.51 1690.48,-82.51"/>
</g>
<!-- Node19 -->
<g id="node19" class="node">
<title>Node19</title>
<g id="a_node19"><a xlink:href="UserMovementBehaviour_8cpp.html" target="_top" xlink:title=" ">
<polygon fill="none" stroke="black" points="2781,-6 2781,-36 2929,-36 2929,-6 2781,-6"/>
<text text-anchor="start" x="2789" y="-24" font-family="Helvetica,sans-Serif" font-size="10.00">src/Scripts/Heroes</text>
<text text-anchor="middle" x="2855" y="-13" font-family="Helvetica,sans-Serif" font-size="10.00">/UserMovementBehaviour.cpp</text>
</a>
</g>
</g>
<!-- Node1&#45;&gt;Node19 -->
<g id="edge18" class="edge">
<title>Node1&#45;&gt;Node19</title>
<path fill="none" stroke="midnightblue" d="M1690.87,-86.22C1891.98,-83.28 2559.83,-71.46 2772,-42 2782.28,-40.57 2793.14,-38.43 2803.5,-36.07"/>
<polygon fill="midnightblue" stroke="midnightblue" points="1690.75,-82.72 1680.8,-86.37 1690.85,-89.72 1690.75,-82.72"/>
</g>
<!-- Node20 -->
<g id="node20" class="node">
<title>Node20</title>
<g id="a_node20"><a xlink:href="HealthBarBehaviour_8cpp.html" target="_top" xlink:title=" ">
<polygon fill="none" stroke="black" points="2947.5,-6 2947.5,-36 3078.5,-36 3078.5,-6 2947.5,-6"/>
<text text-anchor="start" x="2955.5" y="-24" font-family="Helvetica,sans-Serif" font-size="10.00">src/Scripts/Hud/HealthBar</text>
<text text-anchor="middle" x="3013" y="-13" font-family="Helvetica,sans-Serif" font-size="10.00">Behaviour.cpp</text>
</a>
</g>
</g>
<!-- Node1&#45;&gt;Node20 -->
<g id="edge19" class="edge">
<title>Node1&#45;&gt;Node20</title>
<path fill="none" stroke="midnightblue" d="M1690.7,-86.74C1910.07,-85.5 2692.16,-78.54 2938,-42 2947.46,-40.59 2957.45,-38.43 2966.93,-36.03"/>
<polygon fill="midnightblue" stroke="midnightblue" points="1690.67,-83.24 1680.69,-86.8 1690.71,-90.24 1690.67,-83.24"/>
</g>
<!-- Node21 -->
<g id="node21" class="node">
<title>Node21</title>
<g id="a_node21"><a xlink:href="LevelData_8cpp.html" target="_top" xlink:title=" ">
<polygon fill="none" stroke="black" points="3097,-11.5 3097,-30.5 3227,-30.5 3227,-11.5 3097,-11.5"/>
<text text-anchor="middle" x="3162" y="-18.5" font-family="Helvetica,sans-Serif" font-size="10.00">src/Structs/LevelData.cpp</text>
</a>
</g>
</g>
<!-- Node1&#45;&gt;Node21 -->
<g id="edge20" class="edge">
<title>Node1&#45;&gt;Node21</title>
<path fill="none" stroke="midnightblue" d="M1690.59,-87.01C1925.45,-86.77 2811.35,-83.09 3088,-42 3104.32,-39.58 3122.2,-34.81 3136.29,-30.53"/>
<polygon fill="midnightblue" stroke="midnightblue" points="1690.55,-83.51 1680.56,-87.02 1690.56,-90.51 1690.55,-83.51"/>
</g>
</g>
</svg>
        <g id="navigator" transform="translate(0 0)" fill="#404254">
                <rect fill="#f2f5e9" fill-opacity="0.5" stroke="#606060" stroke-width=".5" x="0" y="0" width="60" height="60"/>
                <use id="zoomplus" xlink:href="#zoomPlus" x="17" y="9" onmousedown="handleZoom(evt,'in')"/>
                <use id="zoomminus" xlink:href="#zoomMin" x="42" y="9" onmousedown="handleZoom(evt,'out')"/>
                <use id="reset" xlink:href="#resetDef" x="30" y="36" onmousedown="handleReset()"/>
                <g id="arrowUp" xlink:href="#dirArrow" transform="translate(30 24)" onmousedown="handlePan(0,-1)">
                  <use xlink:href="#rim" fill="#404040">
                        <set attributeName="fill" to="#808080" begin="arrowUp.mouseover" end="arrowUp.mouseout"/>
                  </use>
                  <path fill="none" stroke="white" stroke-width="1.5" d="M0,-3.0v7 M-2.5,-0.5L0,-3.0L2.5,-0.5"/>
                </g>
                <g id="arrowRight" xlink:href="#dirArrow" transform="rotate(90) translate(36 -43)" onmousedown="handlePan(1,0)">
                  <use xlink:href="#rim" fill="#404040">
                        <set attributeName="fill" to="#808080" begin="arrowRight.mouseover" end="arrowRight.mouseout"/>
                  </use>
                  <path fill="none" stroke="white" stroke-width="1.5" d="M0,-3.0v7 M-2.5,-0.5L0,-3.0L2.5,-0.5"/>
                </g>
                <g id="arrowDown" xlink:href="#dirArrow" transform="rotate(180) translate(-30 -48)" onmousedown="handlePan(0,1)">
                  <use xlink:href="#rim" fill="#404040">
                        <set attributeName="fill" to="#808080" begin="arrowDown.mouseover" end="arrowDown.mouseout"/>
                  </use>
                  <path fill="none" stroke="white" stroke-width="1.5" d="M0,-3.0v7 M-2.5,-0.5L0,-3.0L2.5,-0.5"/>
                </g>
                <g id="arrowLeft" xlink:href="#dirArrow" transform="rotate(270) translate(-36 17)" onmousedown="handlePan(-1,0)">
                  <use xlink:href="#rim" fill="#404040">
                        <set attributeName="fill" to="#808080" begin="arrowLeft.mouseover" end="arrowLeft.mouseout"/>
                  </use>
                  <path fill="none" stroke="white" stroke-width="1.5" d="M0,-3.0v7 M-2.5,-0.5L0,-3.0L2.5,-0.5"/>
                </g>
        </g>
        <svg viewBox="0 0 15 15" width="100%" height="30px" preserveAspectRatio="xMaxYMin meet">
         <g id="arrow_out" transform="scale(0.3 0.3)">
          <a xlink:href="Constants_8hpp__dep__incl_org.svg" target="_base">
           <rect id="button" ry="5" rx="5" y="6" x="6" height="38" width="38"
                fill="#f2f5e9" fill-opacity="0.5" stroke="#606060" stroke-width="1.0"/>
           <path id="arrow"
             d="M 11.500037,31.436501 C 11.940474,20.09759 22.043105,11.32322 32.158766,21.979434 L 37.068811,17.246167 C 37.068811,17.246167 37.088388,32 37.088388,32 L 22.160133,31.978069 C 22.160133,31.978069 26.997745,27.140456 26.997745,27.140456 C 18.528582,18.264221 13.291696,25.230495 11.500037,31.436501 z"
             style="fill:#404040;"/>
          </a>
         </g>
        </svg>
</svg>
