<?xml version="1.0" encoding="UTF-8" standalone="no"?>
<!DOCTYPE svg PUBLIC "-//W3C//DTD SVG 1.1//EN"
 "http://www.w3.org/Graphics/SVG/1.1/DTD/svg11.dtd">
<!-- Generated by graphviz version 2.44.0 ()
 -->
<!-- Title: src/Constants.hpp Pages: 1 -->
<svg width="2229pt" height="95pt"
 viewBox="0.00 0.00 2229.00 95.00" xmlns="http://www.w3.org/2000/svg" xmlns:xlink="http://www.w3.org/1999/xlink">
<g id="graph0" class="graph" transform="scale(1 1) rotate(0) translate(4 91)">
<title>src/Constants.hpp</title>
<!-- Node1 -->
<g id="node1" class="node">
<title>Node1</title>
<g id="a_node1"><a xlink:title=" ">
<polygon fill="#bfbfbf" stroke="black" points="1075.5,-67.5 1075.5,-86.5 1170.5,-86.5 1170.5,-67.5 1075.5,-67.5"/>
<text text-anchor="middle" x="1123" y="-74.5" font-family="Helvetica,sans-Serif" font-size="10.00">src/Constants.hpp</text>
</a>
</g>
</g>
<!-- Node2 -->
<g id="node2" class="node">
<title>Node2</title>
<g id="a_node2"><a xlink:href="LevelController_8cpp.html" target="_top" xlink:title=" ">
<polygon fill="none" stroke="black" points="0,-6 0,-25 166,-25 166,-6 0,-6"/>
<text text-anchor="middle" x="83" y="-13" font-family="Helvetica,sans-Serif" font-size="10.00">src/Controllers/LevelController.cpp</text>
</a>
</g>
</g>
<!-- Node1&#45;&gt;Node2 -->
<g id="edge1" class="edge">
<title>Node1&#45;&gt;Node2</title>
<path fill="none" stroke="midnightblue" d="M1064.77,-75.44C916.13,-73.53 510.75,-65.32 175,-31 160.52,-29.52 144.85,-27.29 130.62,-25.02"/>
<polygon fill="midnightblue" stroke="midnightblue" points="1064.98,-78.94 1075.02,-75.57 1065.06,-71.94 1064.98,-78.94"/>
</g>
<!-- Node3 -->
<g id="node3" class="node">
<title>Node3</title>
<g id="a_node3"><a xlink:href="EnemyPrefabFactory_8cpp.html" target="_top" xlink:title=" ">
<polygon fill="none" stroke="black" points="184,-0.5 184,-30.5 318,-30.5 318,-0.5 184,-0.5"/>
<text text-anchor="start" x="192" y="-18.5" font-family="Helvetica,sans-Serif" font-size="10.00">src/Factories/EnemyPrefab</text>
<text text-anchor="middle" x="251" y="-7.5" font-family="Helvetica,sans-Serif" font-size="10.00">Factory.cpp</text>
</a>
</g>
</g>
<!-- Node1&#45;&gt;Node3 -->
<g id="edge2" class="edge">
<title>Node1&#45;&gt;Node3</title>
<path fill="none" stroke="midnightblue" d="M1065,-75.34C933.32,-73.27 601.87,-64.84 327,-31 324.07,-30.64 321.08,-30.23 318.06,-29.79"/>
<polygon fill="midnightblue" stroke="midnightblue" points="1065.2,-78.84 1075.25,-75.5 1065.31,-71.84 1065.2,-78.84"/>
</g>
<!-- Node4 -->
<g id="node4" class="node">
<title>Node4</title>
<g id="a_node4"><a xlink:href="HealthBarFactory_8cpp.html" target="_top" xlink:title=" ">
<polygon fill="none" stroke="black" points="336,-6 336,-25 506,-25 506,-6 336,-6"/>
<text text-anchor="middle" x="421" y="-13" font-family="Helvetica,sans-Serif" font-size="10.00">src/Factories/HealthBarFactory.cpp</text>
</a>
</g>
</g>
<!-- Node1&#45;&gt;Node4 -->
<g id="edge3" class="edge">
<title>Node1&#45;&gt;Node4</title>
<path fill="none" stroke="midnightblue" d="M1065.13,-73.25C956.88,-67.76 716.46,-53.96 515,-31 500.89,-29.39 485.65,-27.23 471.64,-25.06"/>
<polygon fill="midnightblue" stroke="midnightblue" points="1065.03,-76.75 1075.19,-73.75 1065.38,-69.75 1065.03,-76.75"/>
</g>
<!-- Node5 -->
<g id="node5" class="node">
<title>Node5</title>
<g id="a_node5"><a xlink:href="HeroPrefabFactory_8cpp.html" target="_top" xlink:title=" ">
<polygon fill="none" stroke="black" points="524,-0.5 524,-30.5 650,-30.5 650,-0.5 524,-0.5"/>
<text text-anchor="start" x="532" y="-18.5" font-family="Helvetica,sans-Serif" font-size="10.00">src/Factories/HeroPrefab</text>
<text text-anchor="middle" x="587" y="-7.5" font-family="Helvetica,sans-Serif" font-size="10.00">Factory.cpp</text>
</a>
</g>
</g>
<!-- Node1&#45;&gt;Node5 -->
<g id="edge4" class="edge">
<title>Node1&#45;&gt;Node5</title>
<path fill="none" stroke="midnightblue" d="M1065.34,-72.31C977.37,-66.25 804.54,-52.65 659,-31 656.1,-30.57 653.14,-30.1 650.15,-29.6"/>
<polygon fill="midnightblue" stroke="midnightblue" points="1065.16,-75.8 1075.38,-72.99 1065.64,-68.82 1065.16,-75.8"/>
</g>
<!-- Node6 -->
<g id="node6" class="node">
<title>Node6</title>
<g id="a_node6"><a xlink:href="TowerPrefabFactory_8cpp.html" target="_top" xlink:title=" ">
<polygon fill="none" stroke="black" points="668,-0.5 668,-30.5 800,-30.5 800,-0.5 668,-0.5"/>
<text text-anchor="start" x="676" y="-18.5" font-family="Helvetica,sans-Serif" font-size="10.00">src/Factories/TowerPrefab</text>
<text text-anchor="middle" x="734" y="-7.5" font-family="Helvetica,sans-Serif" font-size="10.00">Factory.cpp</text>
</a>
</g>
</g>
<!-- Node1&#45;&gt;Node6 -->
<g id="edge5" class="edge">
<title>Node1&#45;&gt;Node6</title>
<path fill="none" stroke="midnightblue" d="M1065.13,-68.56C1002.03,-60.26 898.13,-45.99 809,-31 806.12,-30.52 803.19,-30.01 800.22,-29.48"/>
<polygon fill="midnightblue" stroke="midnightblue" points="1064.91,-72.07 1075.28,-69.9 1065.82,-65.12 1064.91,-72.07"/>
</g>
<!-- Node7 -->
<g id="node7" class="node">
<title>Node7</title>
<g id="a_node7"><a xlink:href="LevelScene_8cpp.html" target="_top" xlink:title=" ">
<polygon fill="none" stroke="black" points="818.5,-6 818.5,-25 957.5,-25 957.5,-6 818.5,-6"/>
<text text-anchor="middle" x="888" y="-13" font-family="Helvetica,sans-Serif" font-size="10.00">src/Scenes/LevelScene.cpp</text>
</a>
</g>
</g>
<!-- Node1&#45;&gt;Node7 -->
<g id="edge6" class="edge">
<title>Node1&#45;&gt;Node7</title>
<path fill="none" stroke="midnightblue" d="M1079.43,-64.97C1033.8,-53.41 963.11,-35.52 921.61,-25.01"/>
<polygon fill="midnightblue" stroke="midnightblue" points="1078.78,-68.41 1089.33,-67.48 1080.5,-61.63 1078.78,-68.41"/>
</g>
<!-- Node8 -->
<g id="node8" class="node">
<title>Node8</title>
<g id="a_node8"><a xlink:href="MainScene_8cpp.html" target="_top" xlink:title=" ">
<polygon fill="none" stroke="black" points="976,-6 976,-25 1112,-25 1112,-6 976,-6"/>
<text text-anchor="middle" x="1044" y="-13" font-family="Helvetica,sans-Serif" font-size="10.00">src/Scenes/MainScene.cpp</text>
</a>
</g>
</g>
<!-- Node1&#45;&gt;Node8 -->
<g id="edge7" class="edge">
<title>Node1&#45;&gt;Node8</title>
<path fill="none" stroke="midnightblue" d="M1103.47,-61.29C1088.32,-49.88 1067.84,-34.46 1055.3,-25.01"/>
<polygon fill="midnightblue" stroke="midnightblue" points="1101.59,-64.25 1111.68,-67.48 1105.8,-58.66 1101.59,-64.25"/>
</g>
<!-- Node9 -->
<g id="node9" class="node">
<title>Node9</title>
<g id="a_node9"><a xlink:href="VictoryScene_8cpp.html" target="_top" xlink:title=" ">
<polygon fill="none" stroke="black" points="1130.5,-6 1130.5,-25 1275.5,-25 1275.5,-6 1130.5,-6"/>
<text text-anchor="middle" x="1203" y="-13" font-family="Helvetica,sans-Serif" font-size="10.00">src/Scenes/VictoryScene.cpp</text>
</a>
</g>
</g>
<!-- Node1&#45;&gt;Node9 -->
<g id="edge8" class="edge">
<title>Node1&#45;&gt;Node9</title>
<path fill="none" stroke="midnightblue" d="M1142.77,-61.29C1158.12,-49.88 1178.86,-34.46 1191.56,-25.01"/>
<polygon fill="midnightblue" stroke="midnightblue" points="1140.4,-58.7 1134.46,-67.48 1144.57,-64.32 1140.4,-58.7"/>
</g>
<!-- Node10 -->
<g id="node10" class="node">
<title>Node10</title>
<g id="a_node10"><a xlink:href="EnemyMovementBehaviour_8cpp.html" target="_top" xlink:title=" ">
<polygon fill="none" stroke="black" points="1294,-0.5 1294,-30.5 1450,-30.5 1450,-0.5 1294,-0.5"/>
<text text-anchor="start" x="1302" y="-18.5" font-family="Helvetica,sans-Serif" font-size="10.00">src/Scripts/Enemies</text>
<text text-anchor="middle" x="1372" y="-7.5" font-family="Helvetica,sans-Serif" font-size="10.00">/EnemyMovementBehaviour.cpp</text>
</a>
</g>
</g>
<!-- Node1&#45;&gt;Node10 -->
<g id="edge9" class="edge">
<title>Node1&#45;&gt;Node10</title>
<path fill="none" stroke="midnightblue" d="M1168.59,-65.11C1209.27,-55.39 1269.07,-41.1 1313.32,-30.52"/>
<polygon fill="midnightblue" stroke="midnightblue" points="1167.59,-61.75 1158.68,-67.48 1169.22,-68.56 1167.59,-61.75"/>
</g>
<!-- Node11 -->
<g id="node11" class="node">
<title>Node11</title>
<g id="a_node11"><a xlink:href="EnemyTroopTruckBehaviour_8cpp.html" target="_top" xlink:title=" ">
<polygon fill="none" stroke="black" points="1468,-0.5 1468,-30.5 1628,-30.5 1628,-0.5 1468,-0.5"/>
<text text-anchor="start" x="1476" y="-18.5" font-family="Helvetica,sans-Serif" font-size="10.00">src/Scripts/Enemies</text>
<text text-anchor="middle" x="1548" y="-7.5" font-family="Helvetica,sans-Serif" font-size="10.00">/EnemyTroopTruckBehaviour.cpp</text>
</a>
</g>
</g>
<!-- Node1&#45;&gt;Node11 -->
<g id="edge10" class="edge">
<title>Node1&#45;&gt;Node11</title>
<path fill="none" stroke="midnightblue" d="M1180.57,-68.79C1247.54,-60.3 1361.4,-45.48 1459,-31 1461.94,-30.56 1464.94,-30.11 1467.96,-29.65"/>
<polygon fill="midnightblue" stroke="midnightblue" points="1180.12,-65.32 1170.63,-70.05 1180.99,-72.27 1180.12,-65.32"/>
</g>
<!-- Node12 -->
<g id="node12" class="node">
<title>Node12</title>
<g id="a_node12"><a xlink:href="HealAbilityBehaviour_8cpp.html" target="_top" xlink:title=" ">
<polygon fill="none" stroke="black" points="1646,-0.5 1646,-30.5 1774,-30.5 1774,-0.5 1646,-0.5"/>
<text text-anchor="start" x="1654" y="-18.5" font-family="Helvetica,sans-Serif" font-size="10.00">src/Scripts/Heroes</text>
<text text-anchor="middle" x="1710" y="-7.5" font-family="Helvetica,sans-Serif" font-size="10.00">/HealAbilityBehaviour.cpp</text>
</a>
</g>
</g>
<!-- Node1&#45;&gt;Node12 -->
<g id="edge11" class="edge">
<title>Node1&#45;&gt;Node12</title>
<path fill="none" stroke="midnightblue" d="M1180.69,-73C1276.02,-67.59 1472.29,-54.5 1637,-31 1639.94,-30.58 1642.94,-30.12 1645.97,-29.63"/>
<polygon fill="midnightblue" stroke="midnightblue" points="1180.46,-69.51 1170.68,-73.56 1180.86,-76.5 1180.46,-69.51"/>
</g>
<!-- Node13 -->
<g id="node13" class="node">
<title>Node13</title>
<g id="a_node13"><a xlink:href="UserAttackBehaviour_8cpp.html" target="_top" xlink:title=" ">
<polygon fill="none" stroke="black" points="1792.5,-0.5 1792.5,-30.5 1923.5,-30.5 1923.5,-0.5 1792.5,-0.5"/>
<text text-anchor="start" x="1800.5" y="-18.5" font-family="Helvetica,sans-Serif" font-size="10.00">src/Scripts/Heroes</text>
<text text-anchor="middle" x="1858" y="-7.5" font-family="Helvetica,sans-Serif" font-size="10.00">/UserAttackBehaviour.cpp</text>
</a>
</g>
</g>
<!-- Node1&#45;&gt;Node13 -->
<g id="edge12" class="edge">
<title>Node1&#45;&gt;Node13</title>
<path fill="none" stroke="midnightblue" d="M1180.82,-74.45C1295.91,-70.83 1561.62,-59.84 1783,-31 1786.02,-30.61 1789.11,-30.17 1792.22,-29.69"/>
<polygon fill="midnightblue" stroke="midnightblue" points="1180.71,-70.95 1170.82,-74.75 1180.92,-77.94 1180.71,-70.95"/>
</g>
<!-- Node14 -->
<g id="node14" class="node">
<title>Node14</title>
<g id="a_node14"><a xlink:href="HealthBarBehaviour_8cpp.html" target="_top" xlink:title=" ">
<polygon fill="none" stroke="black" points="1941.5,-0.5 1941.5,-30.5 2072.5,-30.5 2072.5,-0.5 1941.5,-0.5"/>
<text text-anchor="start" x="1949.5" y="-18.5" font-family="Helvetica,sans-Serif" font-size="10.00">src/Scripts/Hud/HealthBar</text>
<text text-anchor="middle" x="2007" y="-7.5" font-family="Helvetica,sans-Serif" font-size="10.00">Behaviour.cpp</text>
</a>
</g>
</g>
<!-- Node1&#45;&gt;Node14 -->
<g id="edge13" class="edge">
<title>Node1&#45;&gt;Node14</title>
<path fill="none" stroke="midnightblue" d="M1181.06,-75.52C1314.42,-73.81 1652.7,-66.08 1933,-31 1935.73,-30.66 1938.51,-30.28 1941.31,-29.86"/>
<polygon fill="midnightblue" stroke="midnightblue" points="1180.64,-72.02 1170.68,-75.64 1180.72,-79.02 1180.64,-72.02"/>
</g>
<!-- Node15 -->
<g id="node15" class="node">
<title>Node15</title>
<g id="a_node15"><a xlink:href="LevelData_8cpp.html" target="_top" xlink:title=" ">
<polygon fill="none" stroke="black" points="2091,-6 2091,-25 2221,-25 2221,-6 2091,-6"/>
<text text-anchor="middle" x="2156" y="-13" font-family="Helvetica,sans-Serif" font-size="10.00">src/Structs/LevelData.cpp</text>
</a>
</g>
</g>
<!-- Node1&#45;&gt;Node15 -->
<g id="edge14" class="edge">
<title>Node1&#45;&gt;Node15</title>
<path fill="none" stroke="midnightblue" d="M1180.92,-76.23C1330.59,-76.19 1742.25,-72.03 2082,-31 2093.83,-29.57 2106.6,-27.33 2118.14,-25.03"/>
<polygon fill="midnightblue" stroke="midnightblue" points="1180.6,-72.73 1170.6,-76.23 1180.6,-79.73 1180.6,-72.73"/>
</g>
</g>
</svg>
