<?xml version="1.0" encoding="UTF-8" standalone="no"?>
<!DOCTYPE svg PUBLIC "-//W3C//DTD SVG 1.1//EN"
 "http://www.w3.org/Graphics/SVG/1.1/DTD/svg11.dtd">
<!-- Generated by graphviz version 2.44.0 ()
 -->
<!-- Title: src/Constants.hpp Pages: 1 -->
<svg width="1661pt" height="95pt"
 viewBox="0.00 0.00 1661.00 95.00" xmlns="http://www.w3.org/2000/svg" xmlns:xlink="http://www.w3.org/1999/xlink">
<g id="graph0" class="graph" transform="scale(1 1) rotate(0) translate(4 91)">
<title>src/Constants.hpp</title>
<!-- Node1 -->
<g id="node1" class="node">
<title>Node1</title>
<g id="a_node1"><a xlink:title=" ">
<polygon fill="#bfbfbf" stroke="black" points="811.5,-67.5 811.5,-86.5 906.5,-86.5 906.5,-67.5 811.5,-67.5"/>
<text text-anchor="middle" x="859" y="-74.5" font-family="Helvetica,sans-Serif" font-size="10.00">src/Constants.hpp</text>
</a>
</g>
</g>
<!-- Node2 -->
<g id="node2" class="node">
<title>Node2</title>
<g id="a_node2"><a xlink:href="LevelController_8cpp.html" target="_top" xlink:title=" ">
<polygon fill="none" stroke="black" points="0,-6 0,-25 166,-25 166,-6 0,-6"/>
<text text-anchor="middle" x="83" y="-13" font-family="Helvetica,sans-Serif" font-size="10.00">src/Controllers/LevelController.cpp</text>
</a>
</g>
</g>
<!-- Node1&#45;&gt;Node2 -->
<g id="edge1" class="edge">
<title>Node1&#45;&gt;Node2</title>
<path fill="none" stroke="midnightblue" d="M800.93,-73.96C682.78,-69.41 406.05,-56.75 175,-31 160.86,-29.42 145.57,-27.22 131.59,-25"/>
<polygon fill="midnightblue" stroke="midnightblue" points="801.06,-77.46 811.19,-74.35 801.33,-70.47 801.06,-77.46"/>
</g>
<!-- Node3 -->
<g id="node3" class="node">
<title>Node3</title>
<g id="a_node3"><a xlink:href="HealthBarFactory_8cpp.html" target="_top" xlink:title=" ">
<polygon fill="none" stroke="black" points="184,-6 184,-25 354,-25 354,-6 184,-6"/>
<text text-anchor="middle" x="269" y="-13" font-family="Helvetica,sans-Serif" font-size="10.00">src/Factories/HealthBarFactory.cpp</text>
</a>
</g>
</g>
<!-- Node1&#45;&gt;Node3 -->
<g id="edge2" class="edge">
<title>Node1&#45;&gt;Node3</title>
<path fill="none" stroke="midnightblue" d="M801.35,-71.95C708.75,-65.17 521.21,-50.36 363,-31 349.23,-29.32 334.38,-27.17 320.63,-25.06"/>
<polygon fill="midnightblue" stroke="midnightblue" points="801.13,-75.44 811.36,-72.67 801.64,-68.46 801.13,-75.44"/>
</g>
<!-- Node4 -->
<g id="node4" class="node">
<title>Node4</title>
<g id="a_node4"><a xlink:href="LevelScene_8cpp.html" target="_top" xlink:title=" ">
<polygon fill="none" stroke="black" points="372.5,-6 372.5,-25 511.5,-25 511.5,-6 372.5,-6"/>
<text text-anchor="middle" x="442" y="-13" font-family="Helvetica,sans-Serif" font-size="10.00">src/Scenes/LevelScene.cpp</text>
</a>
</g>
</g>
<!-- Node1&#45;&gt;Node4 -->
<g id="edge3" class="edge">
<title>Node1&#45;&gt;Node4</title>
<path fill="none" stroke="midnightblue" d="M801.43,-69.28C733.88,-61.18 618.57,-46.69 520,-31 508.85,-29.22 496.83,-27.1 485.66,-25.03"/>
<polygon fill="midnightblue" stroke="midnightblue" points="801.1,-72.77 811.45,-70.48 801.93,-65.82 801.1,-72.77"/>
</g>
<!-- Node5 -->
<g id="node5" class="node">
<title>Node5</title>
<g id="a_node5"><a xlink:href="VictoryScene_8cpp.html" target="_top" xlink:title=" ">
<polygon fill="none" stroke="black" points="529.5,-6 529.5,-25 674.5,-25 674.5,-6 529.5,-6"/>
<text text-anchor="middle" x="602" y="-13" font-family="Helvetica,sans-Serif" font-size="10.00">src/Scenes/VictoryScene.cpp</text>
</a>
</g>
</g>
<!-- Node1&#45;&gt;Node5 -->
<g id="edge4" class="edge">
<title>Node1&#45;&gt;Node5</title>
<path fill="none" stroke="midnightblue" d="M812.29,-65.19C762.42,-53.64 684.43,-35.58 638.75,-25.01"/>
<polygon fill="midnightblue" stroke="midnightblue" points="811.65,-68.63 822.18,-67.48 813.23,-61.81 811.65,-68.63"/>
</g>
<!-- Node6 -->
<g id="node6" class="node">
<title>Node6</title>
<g id="a_node6"><a xlink:href="EnemyMovementBehaviour_8cpp.html" target="_top" xlink:title=" ">
<polygon fill="none" stroke="black" points="693,-0.5 693,-30.5 849,-30.5 849,-0.5 693,-0.5"/>
<text text-anchor="start" x="701" y="-18.5" font-family="Helvetica,sans-Serif" font-size="10.00">src/Scripts/Enemies</text>
<text text-anchor="middle" x="771" y="-7.5" font-family="Helvetica,sans-Serif" font-size="10.00">/EnemyMovementBehaviour.cpp</text>
</a>
</g>
</g>
<!-- Node1&#45;&gt;Node6 -->
<g id="edge5" class="edge">
<title>Node1&#45;&gt;Node6</title>
<path fill="none" stroke="midnightblue" d="M837.91,-61.74C823.92,-52.28 805.65,-39.93 791.74,-30.52"/>
<polygon fill="midnightblue" stroke="midnightblue" points="836.15,-64.77 846.39,-67.48 840.07,-58.97 836.15,-64.77"/>
</g>
<!-- Node7 -->
<g id="node7" class="node">
<title>Node7</title>
<g id="a_node7"><a xlink:href="EnemyTroopTruckBehaviour_8cpp.html" target="_top" xlink:title=" ">
<polygon fill="none" stroke="black" points="867,-0.5 867,-30.5 1027,-30.5 1027,-0.5 867,-0.5"/>
<text text-anchor="start" x="875" y="-18.5" font-family="Helvetica,sans-Serif" font-size="10.00">src/Scripts/Enemies</text>
<text text-anchor="middle" x="947" y="-7.5" font-family="Helvetica,sans-Serif" font-size="10.00">/EnemyTroopTruckBehaviour.cpp</text>
</a>
</g>
</g>
<!-- Node1&#45;&gt;Node7 -->
<g id="edge6" class="edge">
<title>Node1&#45;&gt;Node7</title>
<path fill="none" stroke="midnightblue" d="M880.09,-61.74C894.08,-52.28 912.35,-39.93 926.26,-30.52"/>
<polygon fill="midnightblue" stroke="midnightblue" points="877.93,-58.97 871.61,-67.48 881.85,-64.77 877.93,-58.97"/>
</g>
<!-- Node8 -->
<g id="node8" class="node">
<title>Node8</title>
<g id="a_node8"><a xlink:href="AirstrikeAbilityBehaviour_8cpp.html" target="_top" xlink:title=" ">
<polygon fill="none" stroke="black" points="1045.5,-0.5 1045.5,-30.5 1188.5,-30.5 1188.5,-0.5 1045.5,-0.5"/>
<text text-anchor="start" x="1053.5" y="-18.5" font-family="Helvetica,sans-Serif" font-size="10.00">src/Scripts/Heroes</text>
<text text-anchor="middle" x="1117" y="-7.5" font-family="Helvetica,sans-Serif" font-size="10.00">/AirstrikeAbilityBehaviour.cpp</text>
</a>
</g>
</g>
<!-- Node1&#45;&gt;Node8 -->
<g id="edge7" class="edge">
<title>Node1&#45;&gt;Node8</title>
<path fill="none" stroke="midnightblue" d="M905.97,-65.17C948.12,-55.45 1010.26,-41.12 1056.19,-30.52"/>
<polygon fill="midnightblue" stroke="midnightblue" points="904.92,-61.82 895.97,-67.48 906.5,-68.64 904.92,-61.82"/>
</g>
<!-- Node9 -->
<g id="node9" class="node">
<title>Node9</title>
<g id="a_node9"><a xlink:href="UserMovementBehaviour_8cpp.html" target="_top" xlink:title=" ">
<polygon fill="none" stroke="black" points="1207,-0.5 1207,-30.5 1355,-30.5 1355,-0.5 1207,-0.5"/>
<text text-anchor="start" x="1215" y="-18.5" font-family="Helvetica,sans-Serif" font-size="10.00">src/Scripts/Heroes</text>
<text text-anchor="middle" x="1281" y="-7.5" font-family="Helvetica,sans-Serif" font-size="10.00">/UserMovementBehaviour.cpp</text>
</a>
</g>
</g>
<!-- Node1&#45;&gt;Node9 -->
<g id="edge8" class="edge">
<title>Node1&#45;&gt;Node9</title>
<path fill="none" stroke="midnightblue" d="M916.54,-69.09C984.06,-60.82 1099.34,-46.16 1198,-31 1200.89,-30.56 1203.84,-30.09 1206.81,-29.62"/>
<polygon fill="midnightblue" stroke="midnightblue" points="916.03,-65.63 906.53,-70.31 916.88,-72.58 916.03,-65.63"/>
</g>
<!-- Node10 -->
<g id="node10" class="node">
<title>Node10</title>
<g id="a_node10"><a xlink:href="HealthBarBehaviour_8cpp.html" target="_top" xlink:title=" ">
<polygon fill="none" stroke="black" points="1373.5,-0.5 1373.5,-30.5 1504.5,-30.5 1504.5,-0.5 1373.5,-0.5"/>
<text text-anchor="start" x="1381.5" y="-18.5" font-family="Helvetica,sans-Serif" font-size="10.00">src/Scripts/Hud/HealthBar</text>
<text text-anchor="middle" x="1439" y="-7.5" font-family="Helvetica,sans-Serif" font-size="10.00">Behaviour.cpp</text>
</a>
</g>
</g>
<!-- Node1&#45;&gt;Node10 -->
<g id="edge9" class="edge">
<title>Node1&#45;&gt;Node10</title>
<path fill="none" stroke="midnightblue" d="M916.68,-72.78C1010.7,-67.11 1202.7,-53.72 1364,-31 1367.02,-30.57 1370.1,-30.11 1373.21,-29.61"/>
<polygon fill="midnightblue" stroke="midnightblue" points="916.3,-69.3 906.53,-73.39 916.72,-76.29 916.3,-69.3"/>
</g>
<!-- Node11 -->
<g id="node11" class="node">
<title>Node11</title>
<g id="a_node11"><a xlink:href="LevelData_8cpp.html" target="_top" xlink:title=" ">
<polygon fill="none" stroke="black" points="1523,-6 1523,-25 1653,-25 1653,-6 1523,-6"/>
<text text-anchor="middle" x="1588" y="-13" font-family="Helvetica,sans-Serif" font-size="10.00">src/Structs/LevelData.cpp</text>
</a>
</g>
</g>
<!-- Node1&#45;&gt;Node11 -->
<g id="edge10" class="edge">
<title>Node1&#45;&gt;Node11</title>
<path fill="none" stroke="midnightblue" d="M917.17,-74.44C1031.8,-70.83 1294.83,-59.89 1514,-31 1525.55,-29.48 1538.02,-27.26 1549.36,-25.02"/>
<polygon fill="midnightblue" stroke="midnightblue" points="916.76,-70.95 906.87,-74.76 916.97,-77.95 916.76,-70.95"/>
</g>
</g>
</svg>
