<?xml version="1.0" encoding="UTF-8" standalone="no"?>
<!DOCTYPE svg PUBLIC "-//W3C//DTD SVG 1.1//EN"
 "http://www.w3.org/Graphics/SVG/1.1/DTD/svg11.dtd">
<!-- Generated by graphviz version 2.44.0 ()
 -->
<!-- Title: src/Scripts/Common/CoolDownBehaviour.hpp Pages: 1 -->
<svg width="1968pt" height="240pt"
 viewBox="0.00 0.00 1967.50 240.00" xmlns="http://www.w3.org/2000/svg" xmlns:xlink="http://www.w3.org/1999/xlink">
<g id="graph0" class="graph" transform="scale(1 1) rotate(0) translate(4 236)">
<title>src/Scripts/Common/CoolDownBehaviour.hpp</title>
<!-- Node1 -->
<g id="node1" class="node">
<title>Node1</title>
<g id="a_node1"><a xlink:title=" ">
<polygon fill="#bfbfbf" stroke="black" points="784.5,-201.5 784.5,-231.5 909.5,-231.5 909.5,-201.5 784.5,-201.5"/>
<text text-anchor="start" x="792.5" y="-219.5" font-family="Helvetica,sans-Serif" font-size="10.00">src/Scripts/Common</text>
<text text-anchor="middle" x="847" y="-208.5" font-family="Helvetica,sans-Serif" font-size="10.00">/CoolDownBehaviour.hpp</text>
</a>
</g>
</g>
<!-- Node2 -->
<g id="node2" class="node">
<title>Node2</title>
<g id="a_node2"><a xlink:href="AttackBehaviour_8hpp.html" target="_top" xlink:title=" ">
<polygon fill="none" stroke="black" points="254,-134.5 254,-164.5 364,-164.5 364,-134.5 254,-134.5"/>
<text text-anchor="start" x="262" y="-152.5" font-family="Helvetica,sans-Serif" font-size="10.00">src/Scripts/Common</text>
<text text-anchor="middle" x="309" y="-141.5" font-family="Helvetica,sans-Serif" font-size="10.00">/AttackBehaviour.hpp</text>
</a>
</g>
</g>
<!-- Node1&#45;&gt;Node2 -->
<g id="edge1" class="edge">
<title>Node1&#45;&gt;Node2</title>
<path fill="none" stroke="midnightblue" d="M774.28,-210.03C681.65,-202.52 516.82,-187.36 377,-165 372.83,-164.33 368.53,-163.58 364.21,-162.77"/>
<polygon fill="midnightblue" stroke="midnightblue" points="774.14,-213.53 784.39,-210.84 774.7,-206.55 774.14,-213.53"/>
</g>
<!-- Node8 -->
<g id="node8" class="node">
<title>Node8</title>
<g id="a_node8"><a xlink:href="CoolDownBehaviour_8cpp.html" target="_top" xlink:title=" ">
<polygon fill="none" stroke="black" points="386.5,-134.5 386.5,-164.5 511.5,-164.5 511.5,-134.5 386.5,-134.5"/>
<text text-anchor="start" x="394.5" y="-152.5" font-family="Helvetica,sans-Serif" font-size="10.00">src/Scripts/Common</text>
<text text-anchor="middle" x="449" y="-141.5" font-family="Helvetica,sans-Serif" font-size="10.00">/CoolDownBehaviour.cpp</text>
</a>
</g>
</g>
<!-- Node1&#45;&gt;Node8 -->
<g id="edge7" class="edge">
<title>Node1&#45;&gt;Node8</title>
<path fill="none" stroke="midnightblue" d="M774.45,-205.22C708.28,-195.61 607.88,-180.47 521,-165 517.99,-164.46 514.91,-163.9 511.8,-163.32"/>
<polygon fill="midnightblue" stroke="midnightblue" points="773.97,-208.68 784.36,-206.65 774.97,-201.76 773.97,-208.68"/>
</g>
<!-- Node9 -->
<g id="node9" class="node">
<title>Node9</title>
<g id="a_node9"><a xlink:href="EnemyInvisibleBehaviour_8hpp.html" target="_top" xlink:title=" ">
<polygon fill="none" stroke="black" points="530,-134.5 530,-164.5 676,-164.5 676,-134.5 530,-134.5"/>
<text text-anchor="start" x="538" y="-152.5" font-family="Helvetica,sans-Serif" font-size="10.00">src/Scripts/Enemies</text>
<text text-anchor="middle" x="603" y="-141.5" font-family="Helvetica,sans-Serif" font-size="10.00">/EnemyInvisibleBehaviour.hpp</text>
</a>
</g>
</g>
<!-- Node1&#45;&gt;Node9 -->
<g id="edge8" class="edge">
<title>Node1&#45;&gt;Node9</title>
<path fill="none" stroke="midnightblue" d="M784.5,-198.85C744.72,-188.25 693.76,-174.68 655.97,-164.61"/>
<polygon fill="midnightblue" stroke="midnightblue" points="783.79,-202.28 794.36,-201.48 785.59,-195.52 783.79,-202.28"/>
</g>
<!-- Node11 -->
<g id="node11" class="node">
<title>Node11</title>
<g id="a_node11"><a xlink:href="EnemyMedicBehaviour_8hpp.html" target="_top" xlink:title=" ">
<polygon fill="none" stroke="black" points="694.5,-134.5 694.5,-164.5 831.5,-164.5 831.5,-134.5 694.5,-134.5"/>
<text text-anchor="start" x="702.5" y="-152.5" font-family="Helvetica,sans-Serif" font-size="10.00">src/Scripts/Enemies</text>
<text text-anchor="middle" x="763" y="-141.5" font-family="Helvetica,sans-Serif" font-size="10.00">/EnemyMedicBehaviour.hpp</text>
</a>
</g>
</g>
<!-- Node1&#45;&gt;Node11 -->
<g id="edge11" class="edge">
<title>Node1&#45;&gt;Node11</title>
<path fill="none" stroke="midnightblue" d="M820.72,-195.17C807.88,-185.23 792.74,-173.51 781.19,-164.58"/>
<polygon fill="midnightblue" stroke="midnightblue" points="818.72,-198.04 828.77,-201.4 823.01,-192.51 818.72,-198.04"/>
</g>
<!-- Node13 -->
<g id="node13" class="node">
<title>Node13</title>
<g id="a_node13"><a xlink:href="EnemyMovementBehaviour_8hpp.html" target="_top" xlink:title=" ">
<polygon fill="none" stroke="black" points="1032,-134.5 1032,-164.5 1188,-164.5 1188,-134.5 1032,-134.5"/>
<text text-anchor="start" x="1040" y="-152.5" font-family="Helvetica,sans-Serif" font-size="10.00">src/Scripts/Enemies</text>
<text text-anchor="middle" x="1110" y="-141.5" font-family="Helvetica,sans-Serif" font-size="10.00">/EnemyMovementBehaviour.hpp</text>
</a>
</g>
</g>
<!-- Node1&#45;&gt;Node13 -->
<g id="edge14" class="edge">
<title>Node1&#45;&gt;Node13</title>
<path fill="none" stroke="midnightblue" d="M913.55,-199.05C956.55,-188.43 1011.92,-174.74 1052.91,-164.61"/>
<polygon fill="midnightblue" stroke="midnightblue" points="912.61,-195.68 903.74,-201.48 914.29,-202.47 912.61,-195.68"/>
</g>
<!-- Node17 -->
<g id="node17" class="node">
<title>Node17</title>
<g id="a_node17"><a xlink:href="EnemySpeedBoostBehaviour_8hpp.html" target="_top" xlink:title=" ">
<polygon fill="none" stroke="black" points="850,-134.5 850,-164.5 1014,-164.5 1014,-134.5 850,-134.5"/>
<text text-anchor="start" x="858" y="-152.5" font-family="Helvetica,sans-Serif" font-size="10.00">src/Scripts/Enemies</text>
<text text-anchor="middle" x="932" y="-141.5" font-family="Helvetica,sans-Serif" font-size="10.00">/EnemySpeedBoostBehaviour.hpp</text>
</a>
</g>
</g>
<!-- Node1&#45;&gt;Node17 -->
<g id="edge19" class="edge">
<title>Node1&#45;&gt;Node17</title>
<path fill="none" stroke="midnightblue" d="M873.59,-195.17C886.59,-185.23 901.9,-173.51 913.59,-164.58"/>
<polygon fill="midnightblue" stroke="midnightblue" points="871.26,-192.54 865.44,-201.4 875.51,-198.1 871.26,-192.54"/>
</g>
<!-- Node18 -->
<g id="node18" class="node">
<title>Node18</title>
<g id="a_node18"><a xlink:href="HealAbilityBehaviour_8hpp.html" target="_top" xlink:title=" ">
<polygon fill="none" stroke="black" points="1384,-134.5 1384,-164.5 1512,-164.5 1512,-134.5 1384,-134.5"/>
<text text-anchor="start" x="1392" y="-152.5" font-family="Helvetica,sans-Serif" font-size="10.00">src/Scripts/Heroes</text>
<text text-anchor="middle" x="1448" y="-141.5" font-family="Helvetica,sans-Serif" font-size="10.00">/HealAbilityBehaviour.hpp</text>
</a>
</g>
</g>
<!-- Node1&#45;&gt;Node18 -->
<g id="edge22" class="edge">
<title>Node1&#45;&gt;Node18</title>
<path fill="none" stroke="midnightblue" d="M919.68,-207.64C1038.13,-194.83 1270.92,-169.65 1383.71,-157.45"/>
<polygon fill="midnightblue" stroke="midnightblue" points="919.18,-204.17 909.62,-208.73 919.94,-211.13 919.18,-204.17"/>
</g>
<!-- Node21 -->
<g id="node21" class="node">
<title>Node21</title>
<g id="a_node21"><a xlink:href="UserAttackBehaviour_8hpp.html" target="_top" xlink:title=" ">
<polygon fill="none" stroke="black" points="1603.5,-134.5 1603.5,-164.5 1734.5,-164.5 1734.5,-134.5 1603.5,-134.5"/>
<text text-anchor="start" x="1611.5" y="-152.5" font-family="Helvetica,sans-Serif" font-size="10.00">src/Scripts/Heroes</text>
<text text-anchor="middle" x="1669" y="-141.5" font-family="Helvetica,sans-Serif" font-size="10.00">/UserAttackBehaviour.hpp</text>
</a>
</g>
</g>
<!-- Node1&#45;&gt;Node21 -->
<g id="edge25" class="edge">
<title>Node1&#45;&gt;Node21</title>
<path fill="none" stroke="midnightblue" d="M919.87,-210.59C1043.54,-202.13 1302.39,-183.9 1521,-165 1548.01,-162.67 1577.76,-159.81 1603.46,-157.25"/>
<polygon fill="midnightblue" stroke="midnightblue" points="919.5,-207.11 909.76,-211.28 919.98,-214.09 919.5,-207.11"/>
</g>
<!-- Node3 -->
<g id="node3" class="node">
<title>Node3</title>
<g id="a_node3"><a xlink:href="EnemyPrefabFactory_8cpp.html" target="_top" xlink:title=" ">
<polygon fill="none" stroke="black" points="542,-67.5 542,-97.5 676,-97.5 676,-67.5 542,-67.5"/>
<text text-anchor="start" x="550" y="-85.5" font-family="Helvetica,sans-Serif" font-size="10.00">src/Factories/EnemyPrefab</text>
<text text-anchor="middle" x="609" y="-74.5" font-family="Helvetica,sans-Serif" font-size="10.00">Factory.cpp</text>
</a>
</g>
</g>
<!-- Node2&#45;&gt;Node3 -->
<g id="edge2" class="edge">
<title>Node2&#45;&gt;Node3</title>
<path fill="none" stroke="midnightblue" d="M373.83,-134.45C424.21,-123.54 493.77,-108.47 544.15,-97.55"/>
<polygon fill="midnightblue" stroke="midnightblue" points="373.06,-131.04 364.02,-136.58 374.54,-137.88 373.06,-131.04"/>
</g>
<!-- Node4 -->
<g id="node4" class="node">
<title>Node4</title>
<g id="a_node4"><a xlink:href="TowerPrefabFactory_8hpp.html" target="_top" xlink:title=" ">
<polygon fill="none" stroke="black" points="100,-67.5 100,-97.5 232,-97.5 232,-67.5 100,-67.5"/>
<text text-anchor="start" x="108" y="-85.5" font-family="Helvetica,sans-Serif" font-size="10.00">src/Factories/TowerPrefab</text>
<text text-anchor="middle" x="166" y="-74.5" font-family="Helvetica,sans-Serif" font-size="10.00">Factory.hpp</text>
</a>
</g>
</g>
<!-- Node2&#45;&gt;Node4 -->
<g id="edge3" class="edge">
<title>Node2&#45;&gt;Node4</title>
<path fill="none" stroke="midnightblue" d="M268.59,-130.13C245.87,-119.8 217.94,-107.11 196.97,-97.58"/>
<polygon fill="midnightblue" stroke="midnightblue" points="267.42,-133.44 277.97,-134.4 270.32,-127.07 267.42,-133.44"/>
</g>
<!-- Node7 -->
<g id="node7" class="node">
<title>Node7</title>
<g id="a_node7"><a xlink:href="AttackBehaviour_8cpp.html" target="_top" xlink:title=" ">
<polygon fill="none" stroke="black" points="250,-67.5 250,-97.5 360,-97.5 360,-67.5 250,-67.5"/>
<text text-anchor="start" x="258" y="-85.5" font-family="Helvetica,sans-Serif" font-size="10.00">src/Scripts/Common</text>
<text text-anchor="middle" x="305" y="-74.5" font-family="Helvetica,sans-Serif" font-size="10.00">/AttackBehaviour.cpp</text>
</a>
</g>
</g>
<!-- Node2&#45;&gt;Node7 -->
<g id="edge6" class="edge">
<title>Node2&#45;&gt;Node7</title>
<path fill="none" stroke="midnightblue" d="M307.52,-124.4C306.96,-115.37 306.35,-105.41 305.87,-97.58"/>
<polygon fill="midnightblue" stroke="midnightblue" points="304.02,-124.63 308.13,-134.4 311.01,-124.2 304.02,-124.63"/>
</g>
<!-- Node5 -->
<g id="node5" class="node">
<title>Node5</title>
<g id="a_node5"><a xlink:href="LevelController_8cpp.html" target="_top" xlink:title=" ">
<polygon fill="none" stroke="black" points="0,-6 0,-25 166,-25 166,-6 0,-6"/>
<text text-anchor="middle" x="83" y="-13" font-family="Helvetica,sans-Serif" font-size="10.00">src/Controllers/LevelController.cpp</text>
</a>
</g>
</g>
<!-- Node4&#45;&gt;Node5 -->
<g id="edge4" class="edge">
<title>Node4&#45;&gt;Node5</title>
<path fill="none" stroke="midnightblue" d="M139.83,-61.01C124.42,-48.94 105.74,-34.3 94.1,-25.19"/>
<polygon fill="midnightblue" stroke="midnightblue" points="137.96,-63.99 147.99,-67.4 142.28,-58.47 137.96,-63.99"/>
</g>
<!-- Node6 -->
<g id="node6" class="node">
<title>Node6</title>
<g id="a_node6"><a xlink:href="TowerPrefabFactory_8cpp.html" target="_top" xlink:title=" ">
<polygon fill="none" stroke="black" points="184,-0.5 184,-30.5 316,-30.5 316,-0.5 184,-0.5"/>
<text text-anchor="start" x="192" y="-18.5" font-family="Helvetica,sans-Serif" font-size="10.00">src/Factories/TowerPrefab</text>
<text text-anchor="middle" x="250" y="-7.5" font-family="Helvetica,sans-Serif" font-size="10.00">Factory.cpp</text>
</a>
</g>
</g>
<!-- Node4&#45;&gt;Node6 -->
<g id="edge5" class="edge">
<title>Node4&#45;&gt;Node6</title>
<path fill="none" stroke="midnightblue" d="M192.28,-61.17C205.12,-51.23 220.26,-39.51 231.81,-30.58"/>
<polygon fill="midnightblue" stroke="midnightblue" points="189.99,-58.51 184.23,-67.4 194.28,-64.04 189.99,-58.51"/>
</g>
<!-- Node9&#45;&gt;Node3 -->
<g id="edge9" class="edge">
<title>Node9&#45;&gt;Node3</title>
<path fill="none" stroke="midnightblue" d="M605.22,-124.4C606.06,-115.37 606.98,-105.41 607.7,-97.58"/>
<polygon fill="midnightblue" stroke="midnightblue" points="601.74,-124.12 604.3,-134.4 608.71,-124.76 601.74,-124.12"/>
</g>
<!-- Node10 -->
<g id="node10" class="node">
<title>Node10</title>
<g id="a_node10"><a xlink:href="EnemyInvisibleBehaviour_8cpp.html" target="_top" xlink:title=" ">
<polygon fill="none" stroke="black" points="378,-67.5 378,-97.5 524,-97.5 524,-67.5 378,-67.5"/>
<text text-anchor="start" x="386" y="-85.5" font-family="Helvetica,sans-Serif" font-size="10.00">src/Scripts/Enemies</text>
<text text-anchor="middle" x="451" y="-74.5" font-family="Helvetica,sans-Serif" font-size="10.00">/EnemyInvisibleBehaviour.cpp</text>
</a>
</g>
</g>
<!-- Node9&#45;&gt;Node10 -->
<g id="edge10" class="edge">
<title>Node9&#45;&gt;Node10</title>
<path fill="none" stroke="midnightblue" d="M560.69,-130.41C536.42,-120.03 506.41,-107.2 483.92,-97.58"/>
<polygon fill="midnightblue" stroke="midnightblue" points="559.45,-133.68 570.02,-134.4 562.2,-127.25 559.45,-133.68"/>
</g>
<!-- Node11&#45;&gt;Node3 -->
<g id="edge12" class="edge">
<title>Node11&#45;&gt;Node3</title>
<path fill="none" stroke="midnightblue" d="M720.13,-130.41C695.55,-120.03 665.14,-107.2 642.35,-97.58"/>
<polygon fill="midnightblue" stroke="midnightblue" points="719.01,-133.73 729.58,-134.4 721.73,-127.28 719.01,-133.73"/>
</g>
<!-- Node12 -->
<g id="node12" class="node">
<title>Node12</title>
<g id="a_node12"><a xlink:href="EnemyMedicBehaviour_8cpp.html" target="_top" xlink:title=" ">
<polygon fill="none" stroke="black" points="694.5,-67.5 694.5,-97.5 831.5,-97.5 831.5,-67.5 694.5,-67.5"/>
<text text-anchor="start" x="702.5" y="-85.5" font-family="Helvetica,sans-Serif" font-size="10.00">src/Scripts/Enemies</text>
<text text-anchor="middle" x="763" y="-74.5" font-family="Helvetica,sans-Serif" font-size="10.00">/EnemyMedicBehaviour.cpp</text>
</a>
</g>
</g>
<!-- Node11&#45;&gt;Node12 -->
<g id="edge13" class="edge">
<title>Node11&#45;&gt;Node12</title>
<path fill="none" stroke="midnightblue" d="M763,-124.11C763,-115.15 763,-105.32 763,-97.58"/>
<polygon fill="midnightblue" stroke="midnightblue" points="759.5,-124.4 763,-134.4 766.5,-124.4 759.5,-124.4"/>
</g>
<!-- Node13&#45;&gt;Node3 -->
<g id="edge15" class="edge">
<title>Node13&#45;&gt;Node3</title>
<path fill="none" stroke="midnightblue" d="M1021.73,-133.88C871.59,-113.84 831.23,-119.7 685,-98 682.08,-97.57 679.09,-97.1 676.09,-96.61"/>
<polygon fill="midnightblue" stroke="midnightblue" points="1021.4,-137.37 1031.78,-135.24 1022.34,-130.43 1021.4,-137.37"/>
</g>
<!-- Node14 -->
<g id="node14" class="node">
<title>Node14</title>
<g id="a_node14"><a xlink:href="EnemyMovementBehaviour_8cpp.html" target="_top" xlink:title=" ">
<polygon fill="none" stroke="black" points="1032,-67.5 1032,-97.5 1188,-97.5 1188,-67.5 1032,-67.5"/>
<text text-anchor="start" x="1040" y="-85.5" font-family="Helvetica,sans-Serif" font-size="10.00">src/Scripts/Enemies</text>
<text text-anchor="middle" x="1110" y="-74.5" font-family="Helvetica,sans-Serif" font-size="10.00">/EnemyMovementBehaviour.cpp</text>
</a>
</g>
</g>
<!-- Node13&#45;&gt;Node14 -->
<g id="edge16" class="edge">
<title>Node13&#45;&gt;Node14</title>
<path fill="none" stroke="midnightblue" d="M1110,-124.11C1110,-115.15 1110,-105.32 1110,-97.58"/>
<polygon fill="midnightblue" stroke="midnightblue" points="1106.5,-124.4 1110,-134.4 1113.5,-124.4 1106.5,-124.4"/>
</g>
<!-- Node15 -->
<g id="node15" class="node">
<title>Node15</title>
<g id="a_node15"><a xlink:href="EnemySpeedBoostBehaviour_8cpp.html" target="_top" xlink:title=" ">
<polygon fill="none" stroke="black" points="850,-67.5 850,-97.5 1014,-97.5 1014,-67.5 850,-67.5"/>
<text text-anchor="start" x="858" y="-85.5" font-family="Helvetica,sans-Serif" font-size="10.00">src/Scripts/Enemies</text>
<text text-anchor="middle" x="932" y="-74.5" font-family="Helvetica,sans-Serif" font-size="10.00">/EnemySpeedBoostBehaviour.cpp</text>
</a>
</g>
</g>
<!-- Node13&#45;&gt;Node15 -->
<g id="edge17" class="edge">
<title>Node13&#45;&gt;Node15</title>
<path fill="none" stroke="midnightblue" d="M1061.95,-130.96C1033.28,-120.48 997.36,-107.37 970.55,-97.58"/>
<polygon fill="midnightblue" stroke="midnightblue" points="1060.78,-134.25 1071.38,-134.4 1063.18,-127.68 1060.78,-134.25"/>
</g>
<!-- Node16 -->
<g id="node16" class="node">
<title>Node16</title>
<g id="a_node16"><a xlink:href="EnemyTroopTruckBehaviour_8cpp.html" target="_top" xlink:title=" ">
<polygon fill="none" stroke="black" points="1206,-67.5 1206,-97.5 1366,-97.5 1366,-67.5 1206,-67.5"/>
<text text-anchor="start" x="1214" y="-85.5" font-family="Helvetica,sans-Serif" font-size="10.00">src/Scripts/Enemies</text>
<text text-anchor="middle" x="1286" y="-74.5" font-family="Helvetica,sans-Serif" font-size="10.00">/EnemyTroopTruckBehaviour.cpp</text>
</a>
</g>
</g>
<!-- Node13&#45;&gt;Node16 -->
<g id="edge18" class="edge">
<title>Node13&#45;&gt;Node16</title>
<path fill="none" stroke="midnightblue" d="M1157.88,-130.82C1186.17,-120.37 1221.49,-107.32 1247.89,-97.58"/>
<polygon fill="midnightblue" stroke="midnightblue" points="1156.36,-127.65 1148.19,-134.4 1158.78,-134.21 1156.36,-127.65"/>
</g>
<!-- Node17&#45;&gt;Node3 -->
<g id="edge20" class="edge">
<title>Node17&#45;&gt;Node3</title>
<path fill="none" stroke="midnightblue" d="M852.4,-132.48C798.24,-121.58 727.37,-107.32 676.08,-97"/>
<polygon fill="midnightblue" stroke="midnightblue" points="851.82,-135.93 862.31,-134.48 853.2,-129.07 851.82,-135.93"/>
</g>
<!-- Node17&#45;&gt;Node15 -->
<g id="edge21" class="edge">
<title>Node17&#45;&gt;Node15</title>
<path fill="none" stroke="midnightblue" d="M932,-124.11C932,-115.15 932,-105.32 932,-97.58"/>
<polygon fill="midnightblue" stroke="midnightblue" points="928.5,-124.4 932,-134.4 935.5,-124.4 928.5,-124.4"/>
</g>
<!-- Node19 -->
<g id="node19" class="node">
<title>Node19</title>
<g id="a_node19"><a xlink:href="HeroPrefabFactory_8cpp.html" target="_top" xlink:title=" ">
<polygon fill="none" stroke="black" points="1530,-67.5 1530,-97.5 1656,-97.5 1656,-67.5 1530,-67.5"/>
<text text-anchor="start" x="1538" y="-85.5" font-family="Helvetica,sans-Serif" font-size="10.00">src/Factories/HeroPrefab</text>
<text text-anchor="middle" x="1593" y="-74.5" font-family="Helvetica,sans-Serif" font-size="10.00">Factory.cpp</text>
</a>
</g>
</g>
<!-- Node18&#45;&gt;Node19 -->
<g id="edge23" class="edge">
<title>Node18&#45;&gt;Node19</title>
<path fill="none" stroke="midnightblue" d="M1488.67,-130.27C1511.76,-119.92 1540.24,-107.15 1561.6,-97.58"/>
<polygon fill="midnightblue" stroke="midnightblue" points="1487.16,-127.11 1479.46,-134.4 1490.02,-133.5 1487.16,-127.11"/>
</g>
<!-- Node20 -->
<g id="node20" class="node">
<title>Node20</title>
<g id="a_node20"><a xlink:href="HealAbilityBehaviour_8cpp.html" target="_top" xlink:title=" ">
<polygon fill="none" stroke="black" points="1384,-67.5 1384,-97.5 1512,-97.5 1512,-67.5 1384,-67.5"/>
<text text-anchor="start" x="1392" y="-85.5" font-family="Helvetica,sans-Serif" font-size="10.00">src/Scripts/Heroes</text>
<text text-anchor="middle" x="1448" y="-74.5" font-family="Helvetica,sans-Serif" font-size="10.00">/HealAbilityBehaviour.cpp</text>
</a>
</g>
</g>
<!-- Node18&#45;&gt;Node20 -->
<g id="edge24" class="edge">
<title>Node18&#45;&gt;Node20</title>
<path fill="none" stroke="midnightblue" d="M1448,-124.11C1448,-115.15 1448,-105.32 1448,-97.58"/>
<polygon fill="midnightblue" stroke="midnightblue" points="1444.5,-124.4 1448,-134.4 1451.5,-124.4 1444.5,-124.4"/>
</g>
<!-- Node21&#45;&gt;Node19 -->
<g id="edge26" class="edge">
<title>Node21&#45;&gt;Node19</title>
<path fill="none" stroke="midnightblue" d="M1644.89,-127.88C1633.34,-118.01 1619.81,-106.43 1609.46,-97.58"/>
<polygon fill="midnightblue" stroke="midnightblue" points="1642.63,-130.56 1652.51,-134.4 1647.18,-125.24 1642.63,-130.56"/>
</g>
<!-- Node22 -->
<g id="node22" class="node">
<title>Node22</title>
<g id="a_node22"><a xlink:href="MainScene_8cpp.html" target="_top" xlink:title=" ">
<polygon fill="none" stroke="black" points="1674,-73 1674,-92 1810,-92 1810,-73 1674,-73"/>
<text text-anchor="middle" x="1742" y="-80" font-family="Helvetica,sans-Serif" font-size="10.00">src/Scenes/MainScene.cpp</text>
</a>
</g>
</g>
<!-- Node21&#45;&gt;Node22 -->
<g id="edge27" class="edge">
<title>Node21&#45;&gt;Node22</title>
<path fill="none" stroke="midnightblue" d="M1692.39,-127.67C1705.87,-115.67 1722.1,-101.22 1732.24,-92.19"/>
<polygon fill="midnightblue" stroke="midnightblue" points="1689.98,-125.13 1684.84,-134.4 1694.64,-130.36 1689.98,-125.13"/>
</g>
<!-- Node23 -->
<g id="node23" class="node">
<title>Node23</title>
<g id="a_node23"><a xlink:href="UserAttackBehaviour_8cpp.html" target="_top" xlink:title=" ">
<polygon fill="none" stroke="black" points="1828.5,-67.5 1828.5,-97.5 1959.5,-97.5 1959.5,-67.5 1828.5,-67.5"/>
<text text-anchor="start" x="1836.5" y="-85.5" font-family="Helvetica,sans-Serif" font-size="10.00">src/Scripts/Heroes</text>
<text text-anchor="middle" x="1894" y="-74.5" font-family="Helvetica,sans-Serif" font-size="10.00">/UserAttackBehaviour.cpp</text>
</a>
</g>
</g>
<!-- Node21&#45;&gt;Node23 -->
<g id="edge28" class="edge">
<title>Node21&#45;&gt;Node23</title>
<path fill="none" stroke="midnightblue" d="M1727.57,-131.58C1764.11,-121.02 1810.6,-107.59 1845.15,-97.61"/>
<polygon fill="midnightblue" stroke="midnightblue" points="1726.18,-128.34 1717.54,-134.48 1728.12,-135.06 1726.18,-128.34"/>
</g>
</g>
</svg>
