<?xml version="1.0" encoding="UTF-8" standalone="no"?>
<!DOCTYPE svg PUBLIC "-//W3C//DTD SVG 1.1//EN"
 "http://www.w3.org/Graphics/SVG/1.1/DTD/svg11.dtd">
<!-- Generated by graphviz version 2.44.0 ()
 -->
<!-- Title: src/Scenes/CreditScene.cpp Pages: 1 -->
<svg width="648pt" height="386pt"
 viewBox="0.00 0.00 647.50 386.00" xmlns="http://www.w3.org/2000/svg" xmlns:xlink="http://www.w3.org/1999/xlink">
<g id="graph0" class="graph" transform="scale(1 1) rotate(0) translate(4 382)">
<title>src/Scenes/CreditScene.cpp</title>
<!-- Node1 -->
<g id="node1" class="node">
<title>Node1</title>
<g id="a_node1"><a xlink:title=" ">
<polygon fill="#bfbfbf" stroke="black" points="354.5,-358.5 354.5,-377.5 494.5,-377.5 494.5,-358.5 354.5,-358.5"/>
<text text-anchor="middle" x="424.5" y="-365.5" font-family="Helvetica,sans-Serif" font-size="10.00">src/Scenes/CreditScene.cpp</text>
</a>
</g>
</g>
<!-- Node2 -->
<g id="node2" class="node">
<title>Node2</title>
<g id="a_node2"><a xlink:href="CreditScene_8hpp.html" target="_top" xlink:title=" ">
<polygon fill="none" stroke="black" points="344.5,-297 344.5,-316 432.5,-316 432.5,-297 344.5,-297"/>
<text text-anchor="middle" x="388.5" y="-304" font-family="Helvetica,sans-Serif" font-size="10.00">CreditScene.hpp</text>
</a>
</g>
</g>
<!-- Node1&#45;&gt;Node2 -->
<g id="edge1" class="edge">
<title>Node1&#45;&gt;Node2</title>
<path fill="none" stroke="midnightblue" d="M419.34,-358.48C414.05,-349.73 405.66,-335.87 398.97,-324.81"/>
<polygon fill="midnightblue" stroke="midnightblue" points="401.82,-322.75 393.65,-316.01 395.83,-326.38 401.82,-322.75"/>
</g>
<!-- Node6 -->
<g id="node6" class="node">
<title>Node6</title>
<g id="a_node6"><a xlink:title=" ">
<polygon fill="none" stroke="#bfbfbf" points="505,-0.5 505,-19.5 556,-19.5 556,-0.5 505,-0.5"/>
<text text-anchor="middle" x="530.5" y="-7.5" font-family="Helvetica,sans-Serif" font-size="10.00">memory</text>
</a>
</g>
</g>
<!-- Node1&#45;&gt;Node6 -->
<g id="edge31" class="edge">
<title>Node1&#45;&gt;Node6</title>
<path fill="none" stroke="midnightblue" d="M494.62,-361.66C528.57,-356.06 568.21,-344.74 597.5,-322 627.98,-298.33 639.5,-284.59 639.5,-246 639.5,-246 639.5,-246 639.5,-121 639.5,-75.12 591.06,-41.53 558.77,-24.23"/>
<polygon fill="midnightblue" stroke="midnightblue" points="560.23,-21.04 549.74,-19.58 557.03,-27.27 560.23,-21.04"/>
</g>
<!-- Node9 -->
<g id="node9" class="node">
<title>Node9</title>
<g id="a_node9"><a xlink:href="ButtonPrefabFactory_8hpp.html" target="_top" xlink:title=" ">
<polygon fill="none" stroke="black" points="202,-291.5 202,-321.5 327,-321.5 327,-291.5 202,-291.5"/>
<text text-anchor="start" x="210" y="-309.5" font-family="Helvetica,sans-Serif" font-size="10.00">../Factories/ButtonPrefab</text>
<text text-anchor="middle" x="264.5" y="-298.5" font-family="Helvetica,sans-Serif" font-size="10.00">Factory.hpp</text>
</a>
</g>
</g>
<!-- Node1&#45;&gt;Node9 -->
<g id="edge8" class="edge">
<title>Node1&#45;&gt;Node9</title>
<path fill="none" stroke="midnightblue" d="M401.58,-358.48C378.29,-349.81 341.53,-336.15 311.94,-325.14"/>
<polygon fill="midnightblue" stroke="midnightblue" points="312.8,-321.73 302.21,-321.52 310.36,-328.29 312.8,-321.73"/>
</g>
<!-- Node17 -->
<g id="node17" class="node">
<title>Node17</title>
<g id="a_node17"><a xlink:href="BackgroundPrefabFactory_8hpp.html" target="_top" xlink:title=" ">
<polygon fill="none" stroke="black" points="425.5,-168.5 425.5,-198.5 573.5,-198.5 573.5,-168.5 425.5,-168.5"/>
<text text-anchor="start" x="433.5" y="-186.5" font-family="Helvetica,sans-Serif" font-size="10.00">../Factories/BackgroundPrefab</text>
<text text-anchor="middle" x="499.5" y="-175.5" font-family="Helvetica,sans-Serif" font-size="10.00">Factory.hpp</text>
</a>
</g>
</g>
<!-- Node1&#45;&gt;Node17 -->
<g id="edge22" class="edge">
<title>Node1&#45;&gt;Node17</title>
<path fill="none" stroke="midnightblue" d="M428.12,-358.2C439.2,-331.22 472.97,-249.05 489.78,-208.15"/>
<polygon fill="midnightblue" stroke="midnightblue" points="493.1,-209.27 493.67,-198.69 486.63,-206.61 493.1,-209.27"/>
</g>
<!-- Node18 -->
<g id="node18" class="node">
<title>Node18</title>
<g id="a_node18"><a xlink:href="Layer_8hpp.html" target="_top" xlink:title=" ">
<polygon fill="none" stroke="black" points="489,-297 489,-316 588,-316 588,-297 489,-297"/>
<text text-anchor="middle" x="538.5" y="-304" font-family="Helvetica,sans-Serif" font-size="10.00">../Enums/Layer.hpp</text>
</a>
</g>
</g>
<!-- Node1&#45;&gt;Node18 -->
<g id="edge26" class="edge">
<title>Node1&#45;&gt;Node18</title>
<path fill="none" stroke="midnightblue" d="M440.83,-358.48C459.71,-348.62 491.01,-332.29 513.08,-320.77"/>
<polygon fill="midnightblue" stroke="midnightblue" points="514.95,-323.74 522.2,-316.01 511.71,-317.53 514.95,-323.74"/>
</g>
<!-- Node19 -->
<g id="node19" class="node">
<title>Node19</title>
<g id="a_node19"><a xlink:href="Text_8hpp.html" target="_top" xlink:title=" ">
<polygon fill="none" stroke="black" points="42,-235.5 42,-254.5 95,-254.5 95,-235.5 42,-235.5"/>
<text text-anchor="middle" x="68.5" y="-242.5" font-family="Helvetica,sans-Serif" font-size="10.00">Text.hpp</text>
</a>
</g>
</g>
<!-- Node1&#45;&gt;Node19 -->
<g id="edge27" class="edge">
<title>Node1&#45;&gt;Node19</title>
<path fill="none" stroke="midnightblue" d="M354.42,-360.04C307.42,-353.78 244.79,-342.33 192.5,-322 152.43,-306.43 110.82,-277.95 87.43,-260.63"/>
<polygon fill="midnightblue" stroke="midnightblue" points="89.5,-257.8 79.4,-254.58 85.29,-263.39 89.5,-257.8"/>
</g>
<!-- Node3 -->
<g id="node3" class="node">
<title>Node3</title>
<g id="a_node3"><a xlink:href="MenuScene_8hpp.html" target="_top" xlink:title=" ">
<polygon fill="none" stroke="black" points="321.5,-174 321.5,-193 407.5,-193 407.5,-174 321.5,-174"/>
<text text-anchor="middle" x="364.5" y="-181" font-family="Helvetica,sans-Serif" font-size="10.00">MenuScene.hpp</text>
</a>
</g>
</g>
<!-- Node2&#45;&gt;Node3 -->
<g id="edge2" class="edge">
<title>Node2&#45;&gt;Node3</title>
<path fill="none" stroke="midnightblue" d="M386.77,-296.8C382.9,-277.26 373.44,-229.56 368.18,-203.05"/>
<polygon fill="midnightblue" stroke="midnightblue" points="371.59,-202.25 366.21,-193.12 364.72,-203.61 371.59,-202.25"/>
</g>
<!-- Node4 -->
<g id="node4" class="node">
<title>Node4</title>
<g id="a_node4"><a xlink:href="Scene_8hpp.html" target="_top" xlink:title=" ">
<polygon fill="none" stroke="black" points="301.5,-112.5 301.5,-131.5 363.5,-131.5 363.5,-112.5 301.5,-112.5"/>
<text text-anchor="middle" x="332.5" y="-119.5" font-family="Helvetica,sans-Serif" font-size="10.00">Scene.hpp</text>
</a>
</g>
</g>
<!-- Node3&#45;&gt;Node4 -->
<g id="edge3" class="edge">
<title>Node3&#45;&gt;Node4</title>
<path fill="none" stroke="midnightblue" d="M359.92,-173.98C355.26,-165.32 347.91,-151.65 341.99,-140.65"/>
<polygon fill="midnightblue" stroke="midnightblue" points="344.9,-138.66 337.08,-131.51 338.73,-141.97 344.9,-138.66"/>
</g>
<!-- Node7 -->
<g id="node7" class="node">
<title>Node7</title>
<g id="a_node7"><a xlink:href="BackgroundName_8hpp.html" target="_top" xlink:title=" ">
<polygon fill="none" stroke="black" points="382,-112.5 382,-131.5 535,-131.5 535,-112.5 382,-112.5"/>
<text text-anchor="middle" x="458.5" y="-119.5" font-family="Helvetica,sans-Serif" font-size="10.00">../Enums/BackgroundName.hpp</text>
</a>
</g>
</g>
<!-- Node3&#45;&gt;Node7 -->
<g id="edge6" class="edge">
<title>Node3&#45;&gt;Node7</title>
<path fill="none" stroke="midnightblue" d="M377.97,-173.98C393.18,-164.34 418.19,-148.52 436.3,-137.05"/>
<polygon fill="midnightblue" stroke="midnightblue" points="438.48,-139.81 445.06,-131.51 434.74,-133.9 438.48,-139.81"/>
</g>
<!-- Node8 -->
<g id="node8" class="node">
<title>Node8</title>
<g id="a_node8"><a xlink:title=" ">
<polygon fill="none" stroke="#bfbfbf" points="103,-56.5 103,-75.5 144,-75.5 144,-56.5 103,-56.5"/>
<text text-anchor="middle" x="123.5" y="-63.5" font-family="Helvetica,sans-Serif" font-size="10.00">string</text>
</a>
</g>
</g>
<!-- Node3&#45;&gt;Node8 -->
<g id="edge7" class="edge">
<title>Node3&#45;&gt;Node8</title>
<path fill="none" stroke="midnightblue" d="M333.2,-173.9C282.75,-160 188.73,-133.95 185.5,-132 164.92,-119.61 146.66,-98.6 135.38,-83.82"/>
<polygon fill="midnightblue" stroke="midnightblue" points="138.05,-81.54 129.3,-75.57 132.41,-85.69 138.05,-81.54"/>
</g>
<!-- Node5 -->
<g id="node5" class="node">
<title>Node5</title>
<g id="a_node5"><a xlink:title=" ">
<polygon fill="none" stroke="#bfbfbf" points="398.5,-56.5 398.5,-75.5 442.5,-75.5 442.5,-56.5 398.5,-56.5"/>
<text text-anchor="middle" x="420.5" y="-63.5" font-family="Helvetica,sans-Serif" font-size="10.00">vector</text>
</a>
</g>
</g>
<!-- Node4&#45;&gt;Node5 -->
<g id="edge4" class="edge">
<title>Node4&#45;&gt;Node5</title>
<path fill="none" stroke="midnightblue" d="M346.64,-112.32C360.37,-103.9 381.44,-90.97 397.56,-81.07"/>
<polygon fill="midnightblue" stroke="midnightblue" points="399.7,-83.87 406.4,-75.65 396.04,-77.9 399.7,-83.87"/>
</g>
<!-- Node4&#45;&gt;Node6 -->
<g id="edge5" class="edge">
<title>Node4&#45;&gt;Node6</title>
<path fill="none" stroke="midnightblue" d="M363.06,-112.48C387.86,-104.86 423.21,-92.38 451.5,-76 475.36,-62.18 499.34,-41.22 514.51,-26.86"/>
<polygon fill="midnightblue" stroke="midnightblue" points="517.22,-29.11 521.98,-19.65 512.35,-24.07 517.22,-29.11"/>
</g>
<!-- Node9&#45;&gt;Node6 -->
<g id="edge20" class="edge">
<title>Node9&#45;&gt;Node6</title>
<path fill="none" stroke="midnightblue" d="M320.15,-291.41C415.87,-266.38 601.5,-214.03 601.5,-184.5 601.5,-184.5 601.5,-184.5 601.5,-121 601.5,-82.1 569.77,-46.05 548.73,-26.43"/>
<polygon fill="midnightblue" stroke="midnightblue" points="551.06,-23.81 541.28,-19.74 546.39,-29.02 551.06,-23.81"/>
</g>
<!-- Node9&#45;&gt;Node8 -->
<g id="edge21" class="edge">
<title>Node9&#45;&gt;Node8</title>
<path fill="none" stroke="midnightblue" d="M239.67,-291.42C211.1,-273.79 165.2,-240.74 142.5,-199 122.75,-162.68 121.31,-112.8 122.24,-85.95"/>
<polygon fill="midnightblue" stroke="midnightblue" points="125.75,-85.83 122.76,-75.66 118.76,-85.48 125.75,-85.83"/>
</g>
<!-- Node10 -->
<g id="node10" class="node">
<title>Node10</title>
<g id="a_node10"><a xlink:href="Button_8hpp.html" target="_top" xlink:title=" ">
<polygon fill="none" stroke="black" points="233,-235.5 233,-254.5 296,-254.5 296,-235.5 233,-235.5"/>
<text text-anchor="middle" x="264.5" y="-242.5" font-family="Helvetica,sans-Serif" font-size="10.00">Button.hpp</text>
</a>
</g>
</g>
<!-- Node9&#45;&gt;Node10 -->
<g id="edge9" class="edge">
<title>Node9&#45;&gt;Node10</title>
<path fill="none" stroke="midnightblue" d="M264.5,-291.4C264.5,-283.47 264.5,-273.46 264.5,-264.86"/>
<polygon fill="midnightblue" stroke="midnightblue" points="268,-264.66 264.5,-254.66 261,-264.66 268,-264.66"/>
</g>
<!-- Node11 -->
<g id="node11" class="node">
<title>Node11</title>
<g id="a_node11"><a xlink:href="UIObject_8hpp.html" target="_top" xlink:title=" ">
<polygon fill="none" stroke="black" points="151.5,-174 151.5,-193 225.5,-193 225.5,-174 151.5,-174"/>
<text text-anchor="middle" x="188.5" y="-181" font-family="Helvetica,sans-Serif" font-size="10.00">UIObject.hpp</text>
</a>
</g>
</g>
<!-- Node10&#45;&gt;Node11 -->
<g id="edge10" class="edge">
<title>Node10&#45;&gt;Node11</title>
<path fill="none" stroke="midnightblue" d="M253.61,-235.48C241.53,-226.02 221.83,-210.6 207.26,-199.19"/>
<polygon fill="midnightblue" stroke="midnightblue" points="209.4,-196.42 199.37,-193.01 205.09,-201.93 209.4,-196.42"/>
</g>
<!-- Node16 -->
<g id="node16" class="node">
<title>Node16</title>
<g id="a_node16"><a xlink:title=" ">
<polygon fill="none" stroke="#bfbfbf" points="244,-174 244,-193 303,-193 303,-174 244,-174"/>
<text text-anchor="middle" x="273.5" y="-181" font-family="Helvetica,sans-Serif" font-size="10.00">functional</text>
</a>
</g>
</g>
<!-- Node10&#45;&gt;Node16 -->
<g id="edge19" class="edge">
<title>Node10&#45;&gt;Node16</title>
<path fill="none" stroke="midnightblue" d="M265.79,-235.48C267.06,-227.08 269.04,-213.98 270.68,-203.16"/>
<polygon fill="midnightblue" stroke="midnightblue" points="274.18,-203.42 272.21,-193.01 267.26,-202.37 274.18,-203.42"/>
</g>
<!-- Node12 -->
<g id="node12" class="node">
<title>Node12</title>
<g id="a_node12"><a xlink:href="GameObject_8hpp.html" target="_top" xlink:title=" ">
<polygon fill="none" stroke="black" points="195,-112.5 195,-131.5 284,-131.5 284,-112.5 195,-112.5"/>
<text text-anchor="middle" x="239.5" y="-119.5" font-family="Helvetica,sans-Serif" font-size="10.00">GameObject.hpp</text>
</a>
</g>
</g>
<!-- Node11&#45;&gt;Node12 -->
<g id="edge11" class="edge">
<title>Node11&#45;&gt;Node12</title>
<path fill="none" stroke="midnightblue" d="M195.81,-173.98C203.53,-164.96 215.91,-150.52 225.52,-139.31"/>
<polygon fill="midnightblue" stroke="midnightblue" points="228.36,-141.38 232.21,-131.51 223.04,-136.82 228.36,-141.38"/>
</g>
<!-- Node12&#45;&gt;Node5 -->
<g id="edge17" class="edge">
<title>Node12&#45;&gt;Node5</title>
<path fill="none" stroke="midnightblue" d="M268.18,-112.44C300.88,-102.69 354.21,-86.78 388.31,-76.6"/>
<polygon fill="midnightblue" stroke="midnightblue" points="389.65,-79.86 398.23,-73.64 387.65,-73.15 389.65,-79.86"/>
</g>
<!-- Node12&#45;&gt;Node6 -->
<g id="edge18" class="edge">
<title>Node12&#45;&gt;Node6</title>
<path fill="none" stroke="midnightblue" d="M262.96,-112.38C285.83,-103.78 321.45,-89.9 351.5,-76 368.82,-67.99 371.9,-63.37 389.5,-56 424.59,-41.3 466.25,-28.55 495.14,-20.42"/>
<polygon fill="midnightblue" stroke="midnightblue" points="496.1,-23.78 504.8,-17.73 494.23,-17.04 496.1,-23.78"/>
</g>
<!-- Node12&#45;&gt;Node8 -->
<g id="edge16" class="edge">
<title>Node12&#45;&gt;Node8</title>
<path fill="none" stroke="midnightblue" d="M221.12,-112.44C202.28,-103.68 172.77,-89.94 151.12,-79.86"/>
<polygon fill="midnightblue" stroke="midnightblue" points="152.34,-76.56 141.79,-75.52 149.38,-82.91 152.34,-76.56"/>
</g>
<!-- Node13 -->
<g id="node13" class="node">
<title>Node13</title>
<g id="a_node13"><a xlink:href="Component_8hpp.html" target="_top" xlink:title=" ">
<polygon fill="none" stroke="black" points="258.5,-56.5 258.5,-75.5 342.5,-75.5 342.5,-56.5 258.5,-56.5"/>
<text text-anchor="middle" x="300.5" y="-63.5" font-family="Helvetica,sans-Serif" font-size="10.00">Component.hpp</text>
</a>
</g>
</g>
<!-- Node12&#45;&gt;Node13 -->
<g id="edge12" class="edge">
<title>Node12&#45;&gt;Node13</title>
<path fill="none" stroke="midnightblue" d="M249.3,-112.32C258.32,-104.34 271.91,-92.31 282.82,-82.65"/>
<polygon fill="midnightblue" stroke="midnightblue" points="285.35,-85.08 290.52,-75.83 280.71,-79.84 285.35,-85.08"/>
</g>
<!-- Node14 -->
<g id="node14" class="node">
<title>Node14</title>
<g id="a_node14"><a xlink:href="Transform_8hpp.html" target="_top" xlink:title=" ">
<polygon fill="none" stroke="black" points="162,-56.5 162,-75.5 241,-75.5 241,-56.5 162,-56.5"/>
<text text-anchor="middle" x="201.5" y="-63.5" font-family="Helvetica,sans-Serif" font-size="10.00">Transform.hpp</text>
</a>
</g>
</g>
<!-- Node12&#45;&gt;Node14 -->
<g id="edge14" class="edge">
<title>Node12&#45;&gt;Node14</title>
<path fill="none" stroke="midnightblue" d="M233.23,-112.08C227.86,-104.46 219.98,-93.26 213.42,-83.94"/>
<polygon fill="midnightblue" stroke="midnightblue" points="216.28,-81.91 207.66,-75.75 210.55,-85.94 216.28,-81.91"/>
</g>
<!-- Node13&#45;&gt;Node6 -->
<g id="edge13" class="edge">
<title>Node13&#45;&gt;Node6</title>
<path fill="none" stroke="midnightblue" d="M336.94,-56.44C380.24,-46.28 452,-29.43 494.91,-19.36"/>
<polygon fill="midnightblue" stroke="midnightblue" points="495.97,-22.7 504.91,-17.01 494.37,-15.89 495.97,-22.7"/>
</g>
<!-- Node15 -->
<g id="node15" class="node">
<title>Node15</title>
<g id="a_node15"><a xlink:href="Point_8hpp.html" target="_top" xlink:title=" ">
<polygon fill="none" stroke="black" points="173,-0.5 173,-19.5 230,-19.5 230,-0.5 173,-0.5"/>
<text text-anchor="middle" x="201.5" y="-7.5" font-family="Helvetica,sans-Serif" font-size="10.00">Point.hpp</text>
</a>
</g>
</g>
<!-- Node14&#45;&gt;Node15 -->
<g id="edge15" class="edge">
<title>Node14&#45;&gt;Node15</title>
<path fill="none" stroke="midnightblue" d="M201.5,-56.08C201.5,-49.01 201.5,-38.86 201.5,-29.99"/>
<polygon fill="midnightblue" stroke="midnightblue" points="205,-29.75 201.5,-19.75 198,-29.75 205,-29.75"/>
</g>
<!-- Node17&#45;&gt;Node6 -->
<g id="edge25" class="edge">
<title>Node17&#45;&gt;Node6</title>
<path fill="none" stroke="midnightblue" d="M517.52,-168.21C527.55,-159.07 539.07,-146.27 544.5,-132 557.69,-97.38 546.27,-53.49 537.75,-29.22"/>
<polygon fill="midnightblue" stroke="midnightblue" points="540.92,-27.69 534.14,-19.55 534.36,-30.14 540.92,-27.69"/>
</g>
<!-- Node17&#45;&gt;Node7 -->
<g id="edge23" class="edge">
<title>Node17&#45;&gt;Node7</title>
<path fill="none" stroke="midnightblue" d="M489.78,-168.4C483.95,-159.93 476.48,-149.1 470.31,-140.14"/>
<polygon fill="midnightblue" stroke="midnightblue" points="473.02,-137.91 464.47,-131.66 467.26,-141.88 473.02,-137.91"/>
</g>
<!-- Node17&#45;&gt;Node12 -->
<g id="edge24" class="edge">
<title>Node17&#45;&gt;Node12</title>
<path fill="none" stroke="midnightblue" d="M438.21,-168.47C391.79,-157.85 328.96,-143.47 286.48,-133.75"/>
<polygon fill="midnightblue" stroke="midnightblue" points="287.2,-130.33 276.67,-131.51 285.64,-137.15 287.2,-130.33"/>
</g>
<!-- Node19&#45;&gt;Node8 -->
<g id="edge30" class="edge">
<title>Node19&#45;&gt;Node8</title>
<path fill="none" stroke="midnightblue" d="M71.18,-235.35C77.73,-214.26 95.04,-158.52 109.5,-112 112.24,-103.2 115.27,-93.43 117.82,-85.25"/>
<polygon fill="midnightblue" stroke="midnightblue" points="121.19,-86.21 120.81,-75.63 114.5,-84.13 121.19,-86.21"/>
</g>
<!-- Node19&#45;&gt;Node11 -->
<g id="edge28" class="edge">
<title>Node19&#45;&gt;Node11</title>
<path fill="none" stroke="midnightblue" d="M85.69,-235.48C105.74,-225.53 139.1,-208.99 162.36,-197.46"/>
<polygon fill="midnightblue" stroke="midnightblue" points="163.93,-200.59 171.34,-193.01 160.82,-194.32 163.93,-200.59"/>
</g>
<!-- Node20 -->
<g id="node20" class="node">
<title>Node20</title>
<g id="a_node20"><a xlink:href="Color_8hpp.html" target="_top" xlink:title=" ">
<polygon fill="none" stroke="black" points="0,-174 0,-193 57,-193 57,-174 0,-174"/>
<text text-anchor="middle" x="28.5" y="-181" font-family="Helvetica,sans-Serif" font-size="10.00">Color.hpp</text>
</a>
</g>
</g>
<!-- Node19&#45;&gt;Node20 -->
<g id="edge29" class="edge">
<title>Node19&#45;&gt;Node20</title>
<path fill="none" stroke="midnightblue" d="M62.77,-235.48C56.83,-226.64 47.38,-212.59 39.91,-201.48"/>
<polygon fill="midnightblue" stroke="midnightblue" points="42.7,-199.36 34.22,-193.01 36.89,-203.26 42.7,-199.36"/>
</g>
</g>
</svg>
