<?xml version="1.0" encoding="UTF-8" standalone="no"?>
<!DOCTYPE svg PUBLIC "-//W3C//DTD SVG 1.1//EN"
 "http://www.w3.org/Graphics/SVG/1.1/DTD/svg11.dtd">
<!-- Generated by graphviz version 2.44.0 ()
 -->
<!-- Title: src/Scripts/Common/DamageBehaviour.cpp Pages: 1 -->
<!--zoomable 375 -->
<svg id="main" version="1.1" xmlns="http://www.w3.org/2000/svg" xmlns:xlink="http://www.w3.org/1999/xlink" xml:space="preserve" onload="init(evt)">
<style type="text/css"><![CDATA[
.edge:hover path { stroke: red; }
.edge:hover polygon { stroke: red; fill: red; }
]]></style>
<script type="text/javascript"><![CDATA[
var edges = document.getElementsByTagName('g');
if (edges && edges.length) {
  for (var i=0;i<edges.length;i++) {
    if (edges[i].id.substr(0,4)=='edge') {
      edges[i].setAttribute('class','edge');
    }
  }
}
]]></script>
        <defs>
                <circle id="rim" cx="0" cy="0" r="7"/>
                <circle id="rim2" cx="0" cy="0" r="3.5"/>
                <g id="zoomPlus">
                        <use xlink:href="#rim" fill="#404040">
                                <set attributeName="fill" to="#808080" begin="zoomplus.mouseover" end="zoomplus.mouseout"/>
                        </use>
                        <path d="M-4,0h8M0,-4v8" fill="none" stroke="white" stroke-width="1.5" pointer-events="none"/>
                </g>
                <g id="zoomMin">
                        <use xlink:href="#rim" fill="#404040">
                                <set attributeName="fill" to="#808080" begin="zoomminus.mouseover" end="zoomminus.mouseout"/>
                        </use>
                        <path d="M-4,0h8" fill="none" stroke="white" stroke-width="1.5" pointer-events="none"/>
                </g>
                <g id="dirArrow">
                        <path fill="none" stroke="white" stroke-width="1.5" d="M0,-3.0v7 M-2.5,-0.5L0,-3.0L2.5,-0.5"/>
                </g>
               <g id="resetDef">
                       <use xlink:href="#rim2" fill="#404040">
                               <set attributeName="fill" to="#808080" begin="reset.mouseover" end="reset.mouseout"/>
                       </use>
               </g>
        </defs>

<script type="text/javascript">
var viewWidth = 692;
var viewHeight = 375;
var sectionId = 'dynsection-0';
</script>
<script xlink:href="svgpan.js"/>
<svg id="graph" class="graph">
<g id="viewport">
<title>src/Scripts/Common/DamageBehaviour.cpp</title>
<!-- Node1 -->
<g id="node1" class="node">
<title>Node1</title>
<g id="a_node1"><a xlink:title=" ">
<polygon fill="#bfbfbf" stroke="black" points="414.12,-336.5 414.12,-366.5 531.12,-366.5 531.12,-336.5 414.12,-336.5"/>
<text text-anchor="start" x="422.12" y="-354.5" font-family="Helvetica,sans-Serif" font-size="10.00">src/Scripts/Common</text>
<text text-anchor="middle" x="472.62" y="-343.5" font-family="Helvetica,sans-Serif" font-size="10.00">/DamageBehaviour.cpp</text>
</a>
</g>
</g>
<!-- Node2 -->
<g id="node2" class="node">
<title>Node2</title>
<g id="a_node2"><a xlink:href="DamageBehaviour_8hpp.html" target="_top" xlink:title=" ">
<polygon fill="none" stroke="black" points="281.62,-280.5 281.62,-299.5 395.62,-299.5 395.62,-280.5 281.62,-280.5"/>
<text text-anchor="middle" x="338.62" y="-287.5" font-family="Helvetica,sans-Serif" font-size="10.00">DamageBehaviour.hpp</text>
</a>
</g>
</g>
<!-- Node1&#45;&gt;Node2 -->
<g id="edge1" class="edge">
<title>Node1&#45;&gt;Node2</title>
<path fill="none" stroke="midnightblue" d="M440.87,-336.4C418.58,-326.51 389.03,-313.38 367.43,-303.79"/>
<polygon fill="midnightblue" stroke="midnightblue" points="368.68,-300.52 358.12,-299.66 365.84,-306.91 368.68,-300.52"/>
</g>
<!-- Node7 -->
<g id="node7" class="node">
<title>Node7</title>
<g id="a_node7"><a xlink:href="HealthBehaviour_8hpp.html" target="_top" xlink:title=" ">
<polygon fill="none" stroke="black" points="136.12,-224.5 136.12,-243.5 243.12,-243.5 243.12,-224.5 136.12,-224.5"/>
<text text-anchor="middle" x="189.62" y="-231.5" font-family="Helvetica,sans-Serif" font-size="10.00">HealthBehaviour.hpp</text>
</a>
</g>
</g>
<!-- Node1&#45;&gt;Node7 -->
<g id="edge26" class="edge">
<title>Node1&#45;&gt;Node7</title>
<path fill="none" stroke="midnightblue" d="M413.93,-342.31C372.84,-335.01 317.48,-321.99 272.62,-300 246.59,-287.24 221,-265.39 205.27,-250.58"/>
<polygon fill="midnightblue" stroke="midnightblue" points="207.62,-247.98 197.99,-243.56 202.76,-253.02 207.62,-247.98"/>
</g>
<!-- Node13 -->
<g id="node13" class="node">
<title>Node13</title>
<g id="a_node13"><a xlink:href="GameObject_8hpp.html" target="_top" xlink:title=" ">
<polygon fill="none" stroke="black" points="380.12,-168.5 380.12,-187.5 469.12,-187.5 469.12,-168.5 380.12,-168.5"/>
<text text-anchor="middle" x="424.62" y="-175.5" font-family="Helvetica,sans-Serif" font-size="10.00">GameObject.hpp</text>
</a>
</g>
</g>
<!-- Node1&#45;&gt;Node13 -->
<g id="edge19" class="edge">
<title>Node1&#45;&gt;Node13</title>
<path fill="none" stroke="midnightblue" d="M468.69,-336.47C460.05,-305.57 439.37,-231.69 429.73,-197.25"/>
<polygon fill="midnightblue" stroke="midnightblue" points="433.08,-196.25 427.02,-187.56 426.34,-198.13 433.08,-196.25"/>
</g>
<!-- Node16 -->
<g id="node16" class="node">
<title>Node16</title>
<g id="a_node16"><a xlink:href="PointUtil_8hpp.html" target="_top" xlink:title=" ">
<polygon fill="none" stroke="black" points="573.62,-224.5 573.62,-243.5 683.62,-243.5 683.62,-224.5 573.62,-224.5"/>
<text text-anchor="middle" x="628.62" y="-231.5" font-family="Helvetica,sans-Serif" font-size="10.00">../../Utils/PointUtil.hpp</text>
</a>
</g>
</g>
<!-- Node1&#45;&gt;Node16 -->
<g id="edge27" class="edge">
<title>Node1&#45;&gt;Node16</title>
<path fill="none" stroke="midnightblue" d="M528.55,-336.45C551.1,-328.62 576.1,-316.94 594.62,-300 608.4,-287.4 617.55,-267.91 622.85,-253.56"/>
<polygon fill="midnightblue" stroke="midnightblue" points="626.27,-254.37 626.17,-243.78 619.64,-252.13 626.27,-254.37"/>
</g>
<!-- Node17 -->
<g id="node17" class="node">
<title>Node17</title>
<g id="a_node17"><a xlink:title=" ">
<polygon fill="none" stroke="#bfbfbf" points="526.12,-280.5 526.12,-299.5 585.12,-299.5 585.12,-280.5 526.12,-280.5"/>
<text text-anchor="middle" x="555.62" y="-287.5" font-family="Helvetica,sans-Serif" font-size="10.00">stdexcept</text>
</a>
</g>
</g>
<!-- Node1&#45;&gt;Node17 -->
<g id="edge29" class="edge">
<title>Node1&#45;&gt;Node17</title>
<path fill="none" stroke="midnightblue" d="M492.29,-336.4C505.22,-327.13 522.11,-315.03 535.19,-305.65"/>
<polygon fill="midnightblue" stroke="midnightblue" points="537.46,-308.33 543.54,-299.66 533.38,-302.64 537.46,-308.33"/>
</g>
<!-- Node18 -->
<g id="node18" class="node">
<title>Node18</title>
<g id="a_node18"><a xlink:href="Debug_8hpp.html" target="_top" xlink:title=" ">
<polygon fill="none" stroke="black" points="461.62,-112.5 461.62,-131.5 523.62,-131.5 523.62,-112.5 461.62,-112.5"/>
<text text-anchor="middle" x="492.62" y="-119.5" font-family="Helvetica,sans-Serif" font-size="10.00">Debug.hpp</text>
</a>
</g>
</g>
<!-- Node1&#45;&gt;Node18 -->
<g id="edge30" class="edge">
<title>Node1&#45;&gt;Node18</title>
<path fill="none" stroke="midnightblue" d="M473.87,-336.27C477.33,-296.89 487.04,-186.49 490.95,-141.97"/>
<polygon fill="midnightblue" stroke="midnightblue" points="494.45,-142.2 491.84,-131.93 487.47,-141.58 494.45,-142.2"/>
</g>
<!-- Node3 -->
<g id="node3" class="node">
<title>Node3</title>
<g id="a_node3"><a xlink:href="BehaviourScript_8hpp.html" target="_top" xlink:title=" ">
<polygon fill="none" stroke="black" points="28.62,-168.5 28.62,-187.5 132.62,-187.5 132.62,-168.5 28.62,-168.5"/>
<text text-anchor="middle" x="80.62" y="-175.5" font-family="Helvetica,sans-Serif" font-size="10.00">BehaviourScript.hpp</text>
</a>
</g>
</g>
<!-- Node2&#45;&gt;Node3 -->
<g id="edge2" class="edge">
<title>Node2&#45;&gt;Node3</title>
<path fill="none" stroke="midnightblue" d="M329.87,-280.49C315.15,-266.62 283.94,-239.19 252.62,-224 218.14,-207.28 176.65,-196.19 143.06,-189.21"/>
<polygon fill="midnightblue" stroke="midnightblue" points="143.39,-185.71 132.9,-187.17 142.02,-192.57 143.39,-185.71"/>
</g>
<!-- Node2&#45;&gt;Node7 -->
<g id="edge7" class="edge">
<title>Node2&#45;&gt;Node7</title>
<path fill="none" stroke="midnightblue" d="M315.01,-280.44C290.16,-271.44 250.85,-257.19 222.87,-247.05"/>
<polygon fill="midnightblue" stroke="midnightblue" points="223.71,-243.63 213.12,-243.52 221.33,-250.21 223.71,-243.63"/>
</g>
<!-- Node11 -->
<g id="node11" class="node">
<title>Node11</title>
<g id="a_node11"><a xlink:title=" ">
<polygon fill="none" stroke="#bfbfbf" points="350.12,-56.5 350.12,-75.5 391.12,-75.5 391.12,-56.5 350.12,-56.5"/>
<text text-anchor="middle" x="370.62" y="-63.5" font-family="Helvetica,sans-Serif" font-size="10.00">string</text>
</a>
</g>
</g>
<!-- Node2&#45;&gt;Node11 -->
<g id="edge18" class="edge">
<title>Node2&#45;&gt;Node11</title>
<path fill="none" stroke="midnightblue" d="M339.88,-280.3C344.58,-247.63 361.27,-131.87 367.89,-85.96"/>
<polygon fill="midnightblue" stroke="midnightblue" points="371.38,-86.28 369.34,-75.88 364.45,-85.28 371.38,-86.28"/>
</g>
<!-- Node4 -->
<g id="node4" class="node">
<title>Node4</title>
<g id="a_node4"><a xlink:href="Component_8hpp.html" target="_top" xlink:title=" ">
<polygon fill="none" stroke="black" points="68.62,-56.5 68.62,-75.5 152.62,-75.5 152.62,-56.5 68.62,-56.5"/>
<text text-anchor="middle" x="110.62" y="-63.5" font-family="Helvetica,sans-Serif" font-size="10.00">Component.hpp</text>
</a>
</g>
</g>
<!-- Node3&#45;&gt;Node4 -->
<g id="edge3" class="edge">
<title>Node3&#45;&gt;Node4</title>
<path fill="none" stroke="midnightblue" d="M67.81,-168.43C51.26,-156.24 25.88,-133.03 37.62,-112 45.78,-97.39 60.84,-86.94 75.18,-79.8"/>
<polygon fill="midnightblue" stroke="midnightblue" points="76.77,-82.92 84.41,-75.59 73.86,-76.56 76.77,-82.92"/>
</g>
<!-- Node6 -->
<g id="node6" class="node">
<title>Node6</title>
<g id="a_node6"><a xlink:href="Collider_8hpp.html" target="_top" xlink:title=" ">
<polygon fill="none" stroke="black" points="46.12,-112.5 46.12,-131.5 113.12,-131.5 113.12,-112.5 46.12,-112.5"/>
<text text-anchor="middle" x="79.62" y="-119.5" font-family="Helvetica,sans-Serif" font-size="10.00">Collider.hpp</text>
</a>
</g>
</g>
<!-- Node3&#45;&gt;Node6 -->
<g id="edge5" class="edge">
<title>Node3&#45;&gt;Node6</title>
<path fill="none" stroke="midnightblue" d="M80.46,-168.08C80.33,-161.01 80.14,-150.86 79.97,-141.99"/>
<polygon fill="midnightblue" stroke="midnightblue" points="83.47,-141.68 79.78,-131.75 76.47,-141.81 83.47,-141.68"/>
</g>
<!-- Node5 -->
<g id="node5" class="node">
<title>Node5</title>
<g id="a_node5"><a xlink:title=" ">
<polygon fill="none" stroke="#bfbfbf" points="4.12,-0.5 4.12,-19.5 55.12,-19.5 55.12,-0.5 4.12,-0.5"/>
<text text-anchor="middle" x="29.62" y="-7.5" font-family="Helvetica,sans-Serif" font-size="10.00">memory</text>
</a>
</g>
</g>
<!-- Node4&#45;&gt;Node5 -->
<g id="edge4" class="edge">
<title>Node4&#45;&gt;Node5</title>
<path fill="none" stroke="midnightblue" d="M97.61,-56.32C85.09,-47.98 65.94,-35.21 51.15,-25.35"/>
<polygon fill="midnightblue" stroke="midnightblue" points="52.87,-22.29 42.6,-19.65 48.98,-28.11 52.87,-22.29"/>
</g>
<!-- Node6&#45;&gt;Node4 -->
<g id="edge6" class="edge">
<title>Node6&#45;&gt;Node4</title>
<path fill="none" stroke="midnightblue" d="M84.74,-112.08C89.03,-104.61 95.28,-93.72 100.56,-84.52"/>
<polygon fill="midnightblue" stroke="midnightblue" points="103.65,-86.17 105.6,-75.75 97.58,-82.68 103.65,-86.17"/>
</g>
<!-- Node7&#45;&gt;Node3 -->
<g id="edge8" class="edge">
<title>Node7&#45;&gt;Node3</title>
<path fill="none" stroke="midnightblue" d="M172.11,-224.32C154.55,-215.62 127.29,-202.12 107.09,-192.11"/>
<polygon fill="midnightblue" stroke="midnightblue" points="108.6,-188.96 98.09,-187.65 105.5,-195.23 108.6,-188.96"/>
</g>
<!-- Node7&#45;&gt;Node5 -->
<g id="edge9" class="edge">
<title>Node7&#45;&gt;Node5</title>
<path fill="none" stroke="midnightblue" d="M135.85,-225.8C91.69,-218.68 34.15,-206.19 19.62,-188 -17.63,-141.36 7.3,-63.8 21.58,-28.94"/>
<polygon fill="midnightblue" stroke="midnightblue" points="24.87,-30.14 25.58,-19.57 18.43,-27.39 24.87,-30.14"/>
</g>
<!-- Node8 -->
<g id="node8" class="node">
<title>Node8</title>
<g id="a_node8"><a xlink:href="Animator_8hpp.html" target="_top" xlink:title=" ">
<polygon fill="none" stroke="black" points="152.62,-168.5 152.62,-187.5 226.62,-187.5 226.62,-168.5 152.62,-168.5"/>
<text text-anchor="middle" x="189.62" y="-175.5" font-family="Helvetica,sans-Serif" font-size="10.00">Animator.hpp</text>
</a>
</g>
</g>
<!-- Node7&#45;&gt;Node8 -->
<g id="edge10" class="edge">
<title>Node7&#45;&gt;Node8</title>
<path fill="none" stroke="midnightblue" d="M189.62,-224.08C189.62,-217.01 189.62,-206.86 189.62,-197.99"/>
<polygon fill="midnightblue" stroke="midnightblue" points="193.12,-197.75 189.62,-187.75 186.12,-197.75 193.12,-197.75"/>
</g>
<!-- Node8&#45;&gt;Node4 -->
<g id="edge11" class="edge">
<title>Node8&#45;&gt;Node4</title>
<path fill="none" stroke="midnightblue" d="M183.42,-168.37C170.39,-150.22 139.92,-107.8 122.82,-83.99"/>
<polygon fill="midnightblue" stroke="midnightblue" points="125.47,-81.67 116.79,-75.59 119.78,-85.76 125.47,-81.67"/>
</g>
<!-- Node8&#45;&gt;Node5 -->
<g id="edge17" class="edge">
<title>Node8&#45;&gt;Node5</title>
<path fill="none" stroke="midnightblue" d="M152.91,-168.45C110.32,-158.18 44.97,-141.19 37.62,-132 14.26,-102.78 19.48,-55.82 24.85,-29.83"/>
<polygon fill="midnightblue" stroke="midnightblue" points="28.33,-30.33 27.16,-19.8 21.51,-28.76 28.33,-30.33"/>
</g>
<!-- Node9 -->
<g id="node9" class="node">
<title>Node9</title>
<g id="a_node9"><a xlink:href="Sprite_8hpp.html" target="_top" xlink:title=" ">
<polygon fill="none" stroke="black" points="269.62,-112.5 269.62,-131.5 329.62,-131.5 329.62,-112.5 269.62,-112.5"/>
<text text-anchor="middle" x="299.62" y="-119.5" font-family="Helvetica,sans-Serif" font-size="10.00">Sprite.hpp</text>
</a>
</g>
</g>
<!-- Node8&#45;&gt;Node9 -->
<g id="edge12" class="edge">
<title>Node8&#45;&gt;Node9</title>
<path fill="none" stroke="midnightblue" d="M207.29,-168.32C225.02,-159.62 252.52,-146.12 272.91,-136.11"/>
<polygon fill="midnightblue" stroke="midnightblue" points="274.56,-139.2 281.99,-131.65 271.47,-132.92 274.56,-139.2"/>
</g>
<!-- Node12 -->
<g id="node12" class="node">
<title>Node12</title>
<g id="a_node12"><a xlink:title=" ">
<polygon fill="none" stroke="#bfbfbf" points="169.62,-112.5 169.62,-131.5 213.62,-131.5 213.62,-112.5 169.62,-112.5"/>
<text text-anchor="middle" x="191.62" y="-119.5" font-family="Helvetica,sans-Serif" font-size="10.00">vector</text>
</a>
</g>
</g>
<!-- Node8&#45;&gt;Node12 -->
<g id="edge16" class="edge">
<title>Node8&#45;&gt;Node12</title>
<path fill="none" stroke="midnightblue" d="M189.95,-168.08C190.21,-161.01 190.59,-150.86 190.92,-141.99"/>
<polygon fill="midnightblue" stroke="midnightblue" points="194.42,-141.87 191.3,-131.75 187.43,-141.61 194.42,-141.87"/>
</g>
<!-- Node9&#45;&gt;Node4 -->
<g id="edge13" class="edge">
<title>Node9&#45;&gt;Node4</title>
<path fill="none" stroke="midnightblue" d="M269.67,-112.44C237.46,-103.24 186.09,-88.56 150.48,-78.39"/>
<polygon fill="midnightblue" stroke="midnightblue" points="151.01,-74.9 140.43,-75.52 149.08,-81.63 151.01,-74.9"/>
</g>
<!-- Node10 -->
<g id="node10" class="node">
<title>Node10</title>
<g id="a_node10"><a xlink:href="Color_8hpp.html" target="_top" xlink:title=" ">
<polygon fill="none" stroke="black" points="463.12,-56.5 463.12,-75.5 520.12,-75.5 520.12,-56.5 463.12,-56.5"/>
<text text-anchor="middle" x="491.62" y="-63.5" font-family="Helvetica,sans-Serif" font-size="10.00">Color.hpp</text>
</a>
</g>
</g>
<!-- Node9&#45;&gt;Node10 -->
<g id="edge14" class="edge">
<title>Node9&#45;&gt;Node10</title>
<path fill="none" stroke="midnightblue" d="M330.04,-112.44C363.39,-103.07 416.95,-88 453.18,-77.81"/>
<polygon fill="midnightblue" stroke="midnightblue" points="454.23,-81.15 462.91,-75.08 452.33,-74.41 454.23,-81.15"/>
</g>
<!-- Node9&#45;&gt;Node11 -->
<g id="edge15" class="edge">
<title>Node9&#45;&gt;Node11</title>
<path fill="none" stroke="midnightblue" d="M311.03,-112.32C321.73,-104.18 337.96,-91.84 350.78,-82.09"/>
<polygon fill="midnightblue" stroke="midnightblue" points="353.17,-84.67 359.01,-75.83 348.93,-79.1 353.17,-84.67"/>
</g>
<!-- Node13&#45;&gt;Node4 -->
<g id="edge20" class="edge">
<title>Node13&#45;&gt;Node4</title>
<path fill="none" stroke="midnightblue" d="M384.06,-168.46C350.38,-160.75 301.54,-148.16 260.62,-132 242.87,-124.99 239.94,-120.01 222.62,-112 196.44,-99.89 166.04,-87.8 143.52,-79.2"/>
<polygon fill="midnightblue" stroke="midnightblue" points="144.67,-75.89 134.08,-75.62 142.2,-82.44 144.67,-75.89"/>
</g>
<!-- Node13&#45;&gt;Node5 -->
<g id="edge25" class="edge">
<title>Node13&#45;&gt;Node5</title>
<path fill="none" stroke="midnightblue" d="M425.93,-168.39C428.8,-146.07 432.97,-86 400.62,-56 352.49,-11.36 148.66,-9.17 65.34,-10.22"/>
<polygon fill="midnightblue" stroke="midnightblue" points="65.28,-6.72 55.33,-10.37 65.38,-13.72 65.28,-6.72"/>
</g>
<!-- Node13&#45;&gt;Node11 -->
<g id="edge23" class="edge">
<title>Node13&#45;&gt;Node11</title>
<path fill="none" stroke="midnightblue" d="M420.38,-168.37C411.55,-150.38 391.02,-108.55 379.27,-84.63"/>
<polygon fill="midnightblue" stroke="midnightblue" points="382.39,-83.03 374.84,-75.59 376.1,-86.11 382.39,-83.03"/>
</g>
<!-- Node13&#45;&gt;Node12 -->
<g id="edge24" class="edge">
<title>Node13&#45;&gt;Node12</title>
<path fill="none" stroke="midnightblue" d="M386.06,-168.44C346.31,-159.55 282.55,-145.14 227.62,-132 226.35,-131.7 225.06,-131.38 223.75,-131.07"/>
<polygon fill="midnightblue" stroke="midnightblue" points="224.24,-127.58 213.69,-128.59 222.56,-134.38 224.24,-127.58"/>
</g>
<!-- Node14 -->
<g id="node14" class="node">
<title>Node14</title>
<g id="a_node14"><a xlink:href="Transform_8hpp.html" target="_top" xlink:title=" ">
<polygon fill="none" stroke="black" points="541.12,-112.5 541.12,-131.5 620.12,-131.5 620.12,-112.5 541.12,-112.5"/>
<text text-anchor="middle" x="580.62" y="-119.5" font-family="Helvetica,sans-Serif" font-size="10.00">Transform.hpp</text>
</a>
</g>
</g>
<!-- Node13&#45;&gt;Node14 -->
<g id="edge21" class="edge">
<title>Node13&#45;&gt;Node14</title>
<path fill="none" stroke="midnightblue" d="M449.34,-168.44C475.47,-159.4 516.88,-145.06 546.2,-134.92"/>
<polygon fill="midnightblue" stroke="midnightblue" points="547.71,-138.1 556.02,-131.52 545.42,-131.48 547.71,-138.1"/>
</g>
<!-- Node15 -->
<g id="node15" class="node">
<title>Node15</title>
<g id="a_node15"><a xlink:href="Point_8hpp.html" target="_top" xlink:title=" ">
<polygon fill="none" stroke="black" points="552.12,-56.5 552.12,-75.5 609.12,-75.5 609.12,-56.5 552.12,-56.5"/>
<text text-anchor="middle" x="580.62" y="-63.5" font-family="Helvetica,sans-Serif" font-size="10.00">Point.hpp</text>
</a>
</g>
</g>
<!-- Node14&#45;&gt;Node15 -->
<g id="edge22" class="edge">
<title>Node14&#45;&gt;Node15</title>
<path fill="none" stroke="midnightblue" d="M580.62,-112.08C580.62,-105.01 580.62,-94.86 580.62,-85.99"/>
<polygon fill="midnightblue" stroke="midnightblue" points="584.12,-85.75 580.62,-75.75 577.12,-85.75 584.12,-85.75"/>
</g>
<!-- Node16&#45;&gt;Node15 -->
<g id="edge28" class="edge">
<title>Node16&#45;&gt;Node15</title>
<path fill="none" stroke="midnightblue" d="M631.01,-224.31C636.2,-203.73 646.69,-150.85 629.62,-112 624.23,-99.73 613.66,-89.34 603.72,-81.65"/>
<polygon fill="midnightblue" stroke="midnightblue" points="605.45,-78.58 595.28,-75.6 601.37,-84.27 605.45,-78.58"/>
</g>
<!-- Node18&#45;&gt;Node10 -->
<g id="edge32" class="edge">
<title>Node18&#45;&gt;Node10</title>
<path fill="none" stroke="midnightblue" d="M492.46,-112.08C492.33,-105.01 492.14,-94.86 491.97,-85.99"/>
<polygon fill="midnightblue" stroke="midnightblue" points="495.47,-85.68 491.78,-75.75 488.47,-85.81 495.47,-85.68"/>
</g>
<!-- Node18&#45;&gt;Node11 -->
<g id="edge33" class="edge">
<title>Node18&#45;&gt;Node11</title>
<path fill="none" stroke="midnightblue" d="M473.29,-112.44C453.3,-103.6 421.88,-89.69 399.06,-79.59"/>
<polygon fill="midnightblue" stroke="midnightblue" points="400.42,-76.36 389.86,-75.52 397.59,-82.76 400.42,-76.36"/>
</g>
<!-- Node18&#45;&gt;Node15 -->
<g id="edge31" class="edge">
<title>Node18&#45;&gt;Node15</title>
<path fill="none" stroke="midnightblue" d="M506.76,-112.32C520.49,-103.9 541.56,-90.97 557.69,-81.07"/>
<polygon fill="midnightblue" stroke="midnightblue" points="559.82,-83.87 566.52,-75.65 556.16,-77.9 559.82,-83.87"/>
</g>
</g>
</svg>
        <g id="navigator" transform="translate(0 0)" fill="#404254">
                <rect fill="#f2f5e9" fill-opacity="0.5" stroke="#606060" stroke-width=".5" x="0" y="0" width="60" height="60"/>
                <use id="zoomplus" xlink:href="#zoomPlus" x="17" y="9" onmousedown="handleZoom(evt,'in')"/>
                <use id="zoomminus" xlink:href="#zoomMin" x="42" y="9" onmousedown="handleZoom(evt,'out')"/>
                <use id="reset" xlink:href="#resetDef" x="30" y="36" onmousedown="handleReset()"/>
                <g id="arrowUp" xlink:href="#dirArrow" transform="translate(30 24)" onmousedown="handlePan(0,-1)">
                  <use xlink:href="#rim" fill="#404040">
                        <set attributeName="fill" to="#808080" begin="arrowUp.mouseover" end="arrowUp.mouseout"/>
                  </use>
                  <path fill="none" stroke="white" stroke-width="1.5" d="M0,-3.0v7 M-2.5,-0.5L0,-3.0L2.5,-0.5"/>
                </g>
                <g id="arrowRight" xlink:href="#dirArrow" transform="rotate(90) translate(36 -43)" onmousedown="handlePan(1,0)">
                  <use xlink:href="#rim" fill="#404040">
                        <set attributeName="fill" to="#808080" begin="arrowRight.mouseover" end="arrowRight.mouseout"/>
                  </use>
                  <path fill="none" stroke="white" stroke-width="1.5" d="M0,-3.0v7 M-2.5,-0.5L0,-3.0L2.5,-0.5"/>
                </g>
                <g id="arrowDown" xlink:href="#dirArrow" transform="rotate(180) translate(-30 -48)" onmousedown="handlePan(0,1)">
                  <use xlink:href="#rim" fill="#404040">
                        <set attributeName="fill" to="#808080" begin="arrowDown.mouseover" end="arrowDown.mouseout"/>
                  </use>
                  <path fill="none" stroke="white" stroke-width="1.5" d="M0,-3.0v7 M-2.5,-0.5L0,-3.0L2.5,-0.5"/>
                </g>
                <g id="arrowLeft" xlink:href="#dirArrow" transform="rotate(270) translate(-36 17)" onmousedown="handlePan(-1,0)">
                  <use xlink:href="#rim" fill="#404040">
                        <set attributeName="fill" to="#808080" begin="arrowLeft.mouseover" end="arrowLeft.mouseout"/>
                  </use>
                  <path fill="none" stroke="white" stroke-width="1.5" d="M0,-3.0v7 M-2.5,-0.5L0,-3.0L2.5,-0.5"/>
                </g>
        </g>
        <svg viewBox="0 0 15 15" width="100%" height="30px" preserveAspectRatio="xMaxYMin meet">
         <g id="arrow_out" transform="scale(0.3 0.3)">
          <a xlink:href="DamageBehaviour_8cpp__incl_org.svg" target="_base">
           <rect id="button" ry="5" rx="5" y="6" x="6" height="38" width="38"
                fill="#f2f5e9" fill-opacity="0.5" stroke="#606060" stroke-width="1.0"/>
           <path id="arrow"
             d="M 11.500037,31.436501 C 11.940474,20.09759 22.043105,11.32322 32.158766,21.979434 L 37.068811,17.246167 C 37.068811,17.246167 37.088388,32 37.088388,32 L 22.160133,31.978069 C 22.160133,31.978069 26.997745,27.140456 26.997745,27.140456 C 18.528582,18.264221 13.291696,25.230495 11.500037,31.436501 z"
             style="fill:#404040;"/>
          </a>
         </g>
        </svg>
</svg>
