<?xml version="1.0" encoding="UTF-8" standalone="no"?>
<!DOCTYPE svg PUBLIC "-//W3C//DTD SVG 1.1//EN"
 "http://www.w3.org/Graphics/SVG/1.1/DTD/svg11.dtd">
<!-- Generated by graphviz version 2.44.0 ()
 -->
<!-- Title: src/Scripts/Common/DamageBehaviour.hpp Pages: 1 -->
<svg width="434pt" height="173pt"
 viewBox="0.00 0.00 433.50 173.00" xmlns="http://www.w3.org/2000/svg" xmlns:xlink="http://www.w3.org/1999/xlink">
<g id="graph0" class="graph" transform="scale(1 1) rotate(0) translate(4 169)">
<title>src/Scripts/Common/DamageBehaviour.hpp</title>
<!-- Node1 -->
<g id="node1" class="node">
<title>Node1</title>
<g id="a_node1"><a xlink:title=" ">
<polygon fill="#bfbfbf" stroke="black" points="229.5,-134.5 229.5,-164.5 346.5,-164.5 346.5,-134.5 229.5,-134.5"/>
<text text-anchor="start" x="237.5" y="-152.5" font-family="Helvetica,sans-Serif" font-size="10.00">src/Scripts/Common</text>
<text text-anchor="middle" x="288" y="-141.5" font-family="Helvetica,sans-Serif" font-size="10.00">/DamageBehaviour.hpp</text>
</a>
</g>
</g>
<!-- Node2 -->
<g id="node2" class="node">
<title>Node2</title>
<g id="a_node2"><a xlink:href="BulletBehaviour_8hpp.html" target="_top" xlink:title=" ">
<polygon fill="none" stroke="black" points="170,-67.5 170,-97.5 276,-97.5 276,-67.5 170,-67.5"/>
<text text-anchor="start" x="178" y="-85.5" font-family="Helvetica,sans-Serif" font-size="10.00">src/Scripts/Common</text>
<text text-anchor="middle" x="223" y="-74.5" font-family="Helvetica,sans-Serif" font-size="10.00">/BulletBehaviour.hpp</text>
</a>
</g>
</g>
<!-- Node1&#45;&gt;Node2 -->
<g id="edge1" class="edge">
<title>Node1&#45;&gt;Node2</title>
<path fill="none" stroke="midnightblue" d="M266.81,-127.31C257.06,-117.56 245.76,-106.26 237.08,-97.58"/>
<polygon fill="midnightblue" stroke="midnightblue" points="264.35,-129.8 273.9,-134.4 269.3,-124.85 264.35,-129.8"/>
</g>
<!-- Node6 -->
<g id="node6" class="node">
<title>Node6</title>
<g id="a_node6"><a xlink:href="DamageBehaviour_8cpp.html" target="_top" xlink:title=" ">
<polygon fill="none" stroke="black" points="294.5,-67.5 294.5,-97.5 411.5,-97.5 411.5,-67.5 294.5,-67.5"/>
<text text-anchor="start" x="302.5" y="-85.5" font-family="Helvetica,sans-Serif" font-size="10.00">src/Scripts/Common</text>
<text text-anchor="middle" x="353" y="-74.5" font-family="Helvetica,sans-Serif" font-size="10.00">/DamageBehaviour.cpp</text>
</a>
</g>
</g>
<!-- Node1&#45;&gt;Node6 -->
<g id="edge5" class="edge">
<title>Node1&#45;&gt;Node6</title>
<path fill="none" stroke="midnightblue" d="M309.19,-127.31C318.94,-117.56 330.24,-106.26 338.92,-97.58"/>
<polygon fill="midnightblue" stroke="midnightblue" points="306.7,-124.85 302.1,-134.4 311.65,-129.8 306.7,-124.85"/>
</g>
<!-- Node3 -->
<g id="node3" class="node">
<title>Node3</title>
<g id="a_node3"><a xlink:href="BulletFactory_8cpp.html" target="_top" xlink:title=" ">
<polygon fill="none" stroke="black" points="0,-6 0,-25 152,-25 152,-6 0,-6"/>
<text text-anchor="middle" x="76" y="-13" font-family="Helvetica,sans-Serif" font-size="10.00">src/Factories/BulletFactory.cpp</text>
</a>
</g>
</g>
<!-- Node2&#45;&gt;Node3 -->
<g id="edge2" class="edge">
<title>Node2&#45;&gt;Node3</title>
<path fill="none" stroke="midnightblue" d="M181.83,-63.3C153.48,-50.76 117.12,-34.68 95.24,-25.01"/>
<polygon fill="midnightblue" stroke="midnightblue" points="180.54,-66.55 191.1,-67.4 183.37,-60.15 180.54,-66.55"/>
</g>
<!-- Node4 -->
<g id="node4" class="node">
<title>Node4</title>
<g id="a_node4"><a xlink:href="BulletBehaviour_8cpp.html" target="_top" xlink:title=" ">
<polygon fill="none" stroke="black" points="170,-0.5 170,-30.5 276,-30.5 276,-0.5 170,-0.5"/>
<text text-anchor="start" x="178" y="-18.5" font-family="Helvetica,sans-Serif" font-size="10.00">src/Scripts/Common</text>
<text text-anchor="middle" x="223" y="-7.5" font-family="Helvetica,sans-Serif" font-size="10.00">/BulletBehaviour.cpp</text>
</a>
</g>
</g>
<!-- Node2&#45;&gt;Node4 -->
<g id="edge3" class="edge">
<title>Node2&#45;&gt;Node4</title>
<path fill="none" stroke="midnightblue" d="M223,-57.11C223,-48.15 223,-38.32 223,-30.58"/>
<polygon fill="midnightblue" stroke="midnightblue" points="219.5,-57.4 223,-67.4 226.5,-57.4 219.5,-57.4"/>
</g>
<!-- Node5 -->
<g id="node5" class="node">
<title>Node5</title>
<g id="a_node5"><a xlink:href="UserAttackBehaviour_8cpp.html" target="_top" xlink:title=" ">
<polygon fill="none" stroke="black" points="294.5,-0.5 294.5,-30.5 425.5,-30.5 425.5,-0.5 294.5,-0.5"/>
<text text-anchor="start" x="302.5" y="-18.5" font-family="Helvetica,sans-Serif" font-size="10.00">src/Scripts/Heroes</text>
<text text-anchor="middle" x="360" y="-7.5" font-family="Helvetica,sans-Serif" font-size="10.00">/UserAttackBehaviour.cpp</text>
</a>
</g>
</g>
<!-- Node2&#45;&gt;Node5 -->
<g id="edge4" class="edge">
<title>Node2&#45;&gt;Node5</title>
<path fill="none" stroke="midnightblue" d="M262.01,-62.99C283.72,-52.69 310.33,-40.07 330.33,-30.58"/>
<polygon fill="midnightblue" stroke="midnightblue" points="260.26,-59.95 252.73,-67.4 263.26,-66.27 260.26,-59.95"/>
</g>
</g>
</svg>
