<?xml version="1.0" encoding="UTF-8" standalone="no"?>
<!DOCTYPE svg PUBLIC "-//W3C//DTD SVG 1.1//EN"
 "http://www.w3.org/Graphics/SVG/1.1/DTD/svg11.dtd">
<!-- Generated by graphviz version 2.44.0 ()
 -->
<!-- Title: src/Scripts/Common/DamageBehaviour.cpp Pages: 1 -->
<svg width="644pt" height="375pt"
 viewBox="0.00 0.00 644.00 375.00" xmlns="http://www.w3.org/2000/svg" xmlns:xlink="http://www.w3.org/1999/xlink">
<g id="graph0" class="graph" transform="scale(1 1) rotate(0) translate(4 371)">
<title>src/Scripts/Common/DamageBehaviour.cpp</title>
<!-- Node1 -->
<g id="node1" class="node">
<title>Node1</title>
<g id="a_node1"><a xlink:title=" ">
<polygon fill="#bfbfbf" stroke="black" points="384.5,-336.5 384.5,-366.5 501.5,-366.5 501.5,-336.5 384.5,-336.5"/>
<text text-anchor="start" x="392.5" y="-354.5" font-family="Helvetica,sans-Serif" font-size="10.00">src/Scripts/Common</text>
<text text-anchor="middle" x="443" y="-343.5" font-family="Helvetica,sans-Serif" font-size="10.00">/DamageBehaviour.cpp</text>
</a>
</g>
</g>
<!-- Node2 -->
<g id="node2" class="node">
<title>Node2</title>
<g id="a_node2"><a xlink:href="DamageBehaviour_8hpp.html" target="_top" xlink:title=" ">
<polygon fill="none" stroke="black" points="194,-280.5 194,-299.5 308,-299.5 308,-280.5 194,-280.5"/>
<text text-anchor="middle" x="251" y="-287.5" font-family="Helvetica,sans-Serif" font-size="10.00">DamageBehaviour.hpp</text>
</a>
</g>
</g>
<!-- Node1&#45;&gt;Node2 -->
<g id="edge1" class="edge">
<title>Node1&#45;&gt;Node2</title>
<path fill="none" stroke="midnightblue" d="M397.5,-336.4C364.18,-326.07 319.51,-312.23 288.29,-302.56"/>
<polygon fill="midnightblue" stroke="midnightblue" points="289.25,-299.19 278.66,-299.57 287.17,-305.87 289.25,-299.19"/>
</g>
<!-- Node7 -->
<g id="node7" class="node">
<title>Node7</title>
<g id="a_node7"><a xlink:href="HealthBehaviour_8hpp.html" target="_top" xlink:title=" ">
<polygon fill="none" stroke="black" points="175.5,-224.5 175.5,-243.5 282.5,-243.5 282.5,-224.5 175.5,-224.5"/>
<text text-anchor="middle" x="229" y="-231.5" font-family="Helvetica,sans-Serif" font-size="10.00">HealthBehaviour.hpp</text>
</a>
</g>
</g>
<!-- Node1&#45;&gt;Node7 -->
<g id="edge26" class="edge">
<title>Node1&#45;&gt;Node7</title>
<path fill="none" stroke="midnightblue" d="M418.52,-336.45C393.24,-322.02 352.58,-299.04 317,-280 296.45,-269 272.93,-257 255.38,-248.16"/>
<polygon fill="midnightblue" stroke="midnightblue" points="256.81,-244.97 246.3,-243.61 253.66,-251.22 256.81,-244.97"/>
</g>
<!-- Node13 -->
<g id="node13" class="node">
<title>Node13</title>
<g id="a_node13"><a xlink:href="GameObject_8hpp.html" target="_top" xlink:title=" ">
<polygon fill="none" stroke="black" points="416.5,-168.5 416.5,-187.5 505.5,-187.5 505.5,-168.5 416.5,-168.5"/>
<text text-anchor="middle" x="461" y="-175.5" font-family="Helvetica,sans-Serif" font-size="10.00">GameObject.hpp</text>
</a>
</g>
</g>
<!-- Node1&#45;&gt;Node13 -->
<g id="edge19" class="edge">
<title>Node1&#45;&gt;Node13</title>
<path fill="none" stroke="midnightblue" d="M444.47,-336.47C447.7,-305.7 455.4,-232.33 459.04,-197.7"/>
<polygon fill="midnightblue" stroke="midnightblue" points="462.54,-197.87 460.1,-187.56 455.58,-197.14 462.54,-197.87"/>
</g>
<!-- Node16 -->
<g id="node16" class="node">
<title>Node16</title>
<g id="a_node16"><a xlink:href="PointUtil_8hpp.html" target="_top" xlink:title=" ">
<polygon fill="none" stroke="black" points="526,-224.5 526,-243.5 636,-243.5 636,-224.5 526,-224.5"/>
<text text-anchor="middle" x="581" y="-231.5" font-family="Helvetica,sans-Serif" font-size="10.00">../../Utils/PointUtil.hpp</text>
</a>
</g>
</g>
<!-- Node1&#45;&gt;Node16 -->
<g id="edge27" class="edge">
<title>Node1&#45;&gt;Node16</title>
<path fill="none" stroke="midnightblue" d="M452.18,-336.47C462.65,-321.23 480.95,-296.79 501,-280 516.38,-267.12 535.97,-256.02 551.92,-248.08"/>
<polygon fill="midnightblue" stroke="midnightblue" points="553.83,-251.04 561.31,-243.54 550.78,-244.74 553.83,-251.04"/>
</g>
<!-- Node17 -->
<g id="node17" class="node">
<title>Node17</title>
<g id="a_node17"><a xlink:title=" ">
<polygon fill="none" stroke="#bfbfbf" points="509.5,-280.5 509.5,-299.5 568.5,-299.5 568.5,-280.5 509.5,-280.5"/>
<text text-anchor="middle" x="539" y="-287.5" font-family="Helvetica,sans-Serif" font-size="10.00">stdexcept</text>
</a>
</g>
</g>
<!-- Node1&#45;&gt;Node17 -->
<g id="edge29" class="edge">
<title>Node1&#45;&gt;Node17</title>
<path fill="none" stroke="midnightblue" d="M465.75,-336.4C480.99,-326.95 500.99,-314.56 516.24,-305.11"/>
<polygon fill="midnightblue" stroke="midnightblue" points="518.38,-307.9 525.03,-299.66 514.69,-301.95 518.38,-307.9"/>
</g>
<!-- Node3 -->
<g id="node3" class="node">
<title>Node3</title>
<g id="a_node3"><a xlink:href="BehaviourScript_8hpp.html" target="_top" xlink:title=" ">
<polygon fill="none" stroke="black" points="0,-168.5 0,-187.5 104,-187.5 104,-168.5 0,-168.5"/>
<text text-anchor="middle" x="52" y="-175.5" font-family="Helvetica,sans-Serif" font-size="10.00">BehaviourScript.hpp</text>
</a>
</g>
</g>
<!-- Node2&#45;&gt;Node3 -->
<g id="edge2" class="edge">
<title>Node2&#45;&gt;Node3</title>
<path fill="none" stroke="midnightblue" d="M234.84,-280.48C217.88,-271.51 190.48,-256.92 167,-244 135.21,-226.51 98.8,-205.81 75.61,-192.55"/>
<polygon fill="midnightblue" stroke="midnightblue" points="77.24,-189.45 66.83,-187.52 73.77,-195.53 77.24,-189.45"/>
</g>
<!-- Node2&#45;&gt;Node7 -->
<g id="edge7" class="edge">
<title>Node2&#45;&gt;Node7</title>
<path fill="none" stroke="midnightblue" d="M247.37,-280.08C244.39,-272.77 240.07,-262.18 236.38,-253.1"/>
<polygon fill="midnightblue" stroke="midnightblue" points="239.58,-251.69 232.57,-243.75 233.1,-254.33 239.58,-251.69"/>
</g>
<!-- Node11 -->
<g id="node11" class="node">
<title>Node11</title>
<g id="a_node11"><a xlink:title=" ">
<polygon fill="none" stroke="#bfbfbf" points="365.5,-56.5 365.5,-75.5 406.5,-75.5 406.5,-56.5 365.5,-56.5"/>
<text text-anchor="middle" x="386" y="-63.5" font-family="Helvetica,sans-Serif" font-size="10.00">string</text>
</a>
</g>
</g>
<!-- Node2&#45;&gt;Node11 -->
<g id="edge18" class="edge">
<title>Node2&#45;&gt;Node11</title>
<path fill="none" stroke="midnightblue" d="M259.57,-280.38C268.16,-271.56 281.57,-257.31 292,-244 328.94,-196.84 341.63,-186.27 367,-132 374,-117.02 379.04,-98.89 382.17,-85.58"/>
<polygon fill="midnightblue" stroke="midnightblue" points="385.61,-86.23 384.34,-75.72 378.77,-84.73 385.61,-86.23"/>
</g>
<!-- Node4 -->
<g id="node4" class="node">
<title>Node4</title>
<g id="a_node4"><a xlink:href="Component_8hpp.html" target="_top" xlink:title=" ">
<polygon fill="none" stroke="black" points="128,-56.5 128,-75.5 212,-75.5 212,-56.5 128,-56.5"/>
<text text-anchor="middle" x="170" y="-63.5" font-family="Helvetica,sans-Serif" font-size="10.00">Component.hpp</text>
</a>
</g>
</g>
<!-- Node3&#45;&gt;Node4 -->
<g id="edge3" class="edge">
<title>Node3&#45;&gt;Node4</title>
<path fill="none" stroke="midnightblue" d="M43.68,-168.29C32.11,-155.11 13.98,-129.74 27,-112 47.7,-83.79 86.1,-72.8 117.9,-68.72"/>
<polygon fill="midnightblue" stroke="midnightblue" points="118.4,-72.19 127.96,-67.63 117.64,-65.23 118.4,-72.19"/>
</g>
<!-- Node6 -->
<g id="node6" class="node">
<title>Node6</title>
<g id="a_node6"><a xlink:href="Collider_8hpp.html" target="_top" xlink:title=" ">
<polygon fill="none" stroke="black" points="36.5,-112.5 36.5,-131.5 103.5,-131.5 103.5,-112.5 36.5,-112.5"/>
<text text-anchor="middle" x="70" y="-119.5" font-family="Helvetica,sans-Serif" font-size="10.00">Collider.hpp</text>
</a>
</g>
</g>
<!-- Node3&#45;&gt;Node6 -->
<g id="edge5" class="edge">
<title>Node3&#45;&gt;Node6</title>
<path fill="none" stroke="midnightblue" d="M54.97,-168.08C57.38,-160.85 60.86,-150.41 63.87,-141.4"/>
<polygon fill="midnightblue" stroke="midnightblue" points="67.24,-142.34 67.08,-131.75 60.6,-140.13 67.24,-142.34"/>
</g>
<!-- Node5 -->
<g id="node5" class="node">
<title>Node5</title>
<g id="a_node5"><a xlink:title=" ">
<polygon fill="none" stroke="#bfbfbf" points="179.5,-0.5 179.5,-19.5 230.5,-19.5 230.5,-0.5 179.5,-0.5"/>
<text text-anchor="middle" x="205" y="-7.5" font-family="Helvetica,sans-Serif" font-size="10.00">memory</text>
</a>
</g>
</g>
<!-- Node4&#45;&gt;Node5 -->
<g id="edge4" class="edge">
<title>Node4&#45;&gt;Node5</title>
<path fill="none" stroke="midnightblue" d="M175.78,-56.08C180.67,-48.53 187.83,-37.49 193.83,-28.23"/>
<polygon fill="midnightblue" stroke="midnightblue" points="196.83,-30.05 199.33,-19.75 190.95,-26.24 196.83,-30.05"/>
</g>
<!-- Node6&#45;&gt;Node4 -->
<g id="edge6" class="edge">
<title>Node6&#45;&gt;Node4</title>
<path fill="none" stroke="midnightblue" d="M86.07,-112.32C101.96,-103.74 126.51,-90.49 144.96,-80.52"/>
<polygon fill="midnightblue" stroke="midnightblue" points="146.84,-83.49 153.97,-75.65 143.51,-77.33 146.84,-83.49"/>
</g>
<!-- Node7&#45;&gt;Node3 -->
<g id="edge8" class="edge">
<title>Node7&#45;&gt;Node3</title>
<path fill="none" stroke="midnightblue" d="M200.95,-224.44C170.92,-215.28 123.09,-200.69 89.76,-190.52"/>
<polygon fill="midnightblue" stroke="midnightblue" points="90.5,-187.09 79.91,-187.52 88.46,-193.78 90.5,-187.09"/>
</g>
<!-- Node7&#45;&gt;Node5 -->
<g id="edge9" class="edge">
<title>Node7&#45;&gt;Node5</title>
<path fill="none" stroke="midnightblue" d="M218.68,-224.41C208.78,-215.84 193.79,-201.97 183,-188 147.95,-142.63 133.72,-131.41 119,-76 116.72,-67.41 114.4,-63.6 119,-56 130.02,-37.79 151.1,-26.6 169.63,-19.93"/>
<polygon fill="midnightblue" stroke="midnightblue" points="170.89,-23.2 179.3,-16.76 168.71,-16.55 170.89,-23.2"/>
</g>
<!-- Node8 -->
<g id="node8" class="node">
<title>Node8</title>
<g id="a_node8"><a xlink:href="Animator_8hpp.html" target="_top" xlink:title=" ">
<polygon fill="none" stroke="black" points="192,-168.5 192,-187.5 266,-187.5 266,-168.5 192,-168.5"/>
<text text-anchor="middle" x="229" y="-175.5" font-family="Helvetica,sans-Serif" font-size="10.00">Animator.hpp</text>
</a>
</g>
</g>
<!-- Node7&#45;&gt;Node8 -->
<g id="edge10" class="edge">
<title>Node7&#45;&gt;Node8</title>
<path fill="none" stroke="midnightblue" d="M229,-224.08C229,-217.01 229,-206.86 229,-197.99"/>
<polygon fill="midnightblue" stroke="midnightblue" points="232.5,-197.75 229,-187.75 225.5,-197.75 232.5,-197.75"/>
</g>
<!-- Node8&#45;&gt;Node4 -->
<g id="edge11" class="edge">
<title>Node8&#45;&gt;Node4</title>
<path fill="none" stroke="midnightblue" d="M220.88,-168.27C213.15,-159.61 201.6,-145.67 194,-132 185.78,-117.21 179.35,-99.06 175.22,-85.7"/>
<polygon fill="midnightblue" stroke="midnightblue" points="178.49,-84.39 172.31,-75.78 171.77,-86.36 178.49,-84.39"/>
</g>
<!-- Node8&#45;&gt;Node5 -->
<g id="edge17" class="edge">
<title>Node8&#45;&gt;Node5</title>
<path fill="none" stroke="midnightblue" d="M228.57,-168.47C227.26,-142.74 223.26,-66.93 221,-56 219.13,-46.97 215.87,-37.29 212.77,-29.23"/>
<polygon fill="midnightblue" stroke="midnightblue" points="215.93,-27.71 208.93,-19.76 209.44,-30.34 215.93,-27.71"/>
</g>
<!-- Node9 -->
<g id="node9" class="node">
<title>Node9</title>
<g id="a_node9"><a xlink:href="Sprite_8hpp.html" target="_top" xlink:title=" ">
<polygon fill="none" stroke="black" points="236,-112.5 236,-131.5 296,-131.5 296,-112.5 236,-112.5"/>
<text text-anchor="middle" x="266" y="-119.5" font-family="Helvetica,sans-Serif" font-size="10.00">Sprite.hpp</text>
</a>
</g>
</g>
<!-- Node8&#45;&gt;Node9 -->
<g id="edge12" class="edge">
<title>Node8&#45;&gt;Node9</title>
<path fill="none" stroke="midnightblue" d="M235.11,-168.08C240.28,-160.53 247.85,-149.49 254.19,-140.23"/>
<polygon fill="midnightblue" stroke="midnightblue" points="257.24,-141.98 260,-131.75 251.46,-138.02 257.24,-141.98"/>
</g>
<!-- Node12 -->
<g id="node12" class="node">
<title>Node12</title>
<g id="a_node12"><a xlink:title=" ">
<polygon fill="none" stroke="#bfbfbf" points="314,-112.5 314,-131.5 358,-131.5 358,-112.5 314,-112.5"/>
<text text-anchor="middle" x="336" y="-119.5" font-family="Helvetica,sans-Serif" font-size="10.00">vector</text>
</a>
</g>
</g>
<!-- Node8&#45;&gt;Node12 -->
<g id="edge16" class="edge">
<title>Node8&#45;&gt;Node12</title>
<path fill="none" stroke="midnightblue" d="M246.19,-168.32C263.35,-159.66 289.95,-146.24 309.75,-136.25"/>
<polygon fill="midnightblue" stroke="midnightblue" points="311.5,-139.28 318.85,-131.65 308.35,-133.04 311.5,-139.28"/>
</g>
<!-- Node9&#45;&gt;Node4 -->
<g id="edge13" class="edge">
<title>Node9&#45;&gt;Node4</title>
<path fill="none" stroke="midnightblue" d="M250.58,-112.32C235.46,-103.82 212.18,-90.73 194.53,-80.8"/>
<polygon fill="midnightblue" stroke="midnightblue" points="195.82,-77.51 185.39,-75.65 192.39,-83.61 195.82,-77.51"/>
</g>
<!-- Node10 -->
<g id="node10" class="node">
<title>Node10</title>
<g id="a_node10"><a xlink:href="Color_8hpp.html" target="_top" xlink:title=" ">
<polygon fill="none" stroke="black" points="268.5,-56.5 268.5,-75.5 325.5,-75.5 325.5,-56.5 268.5,-56.5"/>
<text text-anchor="middle" x="297" y="-63.5" font-family="Helvetica,sans-Serif" font-size="10.00">Color.hpp</text>
</a>
</g>
</g>
<!-- Node9&#45;&gt;Node10 -->
<g id="edge14" class="edge">
<title>Node9&#45;&gt;Node10</title>
<path fill="none" stroke="midnightblue" d="M271.12,-112.08C275.41,-104.61 281.66,-93.72 286.94,-84.52"/>
<polygon fill="midnightblue" stroke="midnightblue" points="290.03,-86.17 291.98,-75.75 283.96,-82.68 290.03,-86.17"/>
</g>
<!-- Node9&#45;&gt;Node11 -->
<g id="edge15" class="edge">
<title>Node9&#45;&gt;Node11</title>
<path fill="none" stroke="midnightblue" d="M285.01,-112.44C304.59,-103.64 335.31,-89.81 357.73,-79.72"/>
<polygon fill="midnightblue" stroke="midnightblue" points="359.39,-82.81 367.07,-75.52 356.52,-76.43 359.39,-82.81"/>
</g>
<!-- Node13&#45;&gt;Node4 -->
<g id="edge20" class="edge">
<title>Node13&#45;&gt;Node4</title>
<path fill="none" stroke="midnightblue" d="M451.33,-168.41C435.09,-154.45 400.78,-126.87 367,-112 320.23,-91.41 262.91,-79.68 222.18,-73.4"/>
<polygon fill="midnightblue" stroke="midnightblue" points="222.61,-69.92 212.2,-71.91 221.58,-76.85 222.61,-69.92"/>
</g>
<!-- Node13&#45;&gt;Node5 -->
<g id="edge25" class="edge">
<title>Node13&#45;&gt;Node5</title>
<path fill="none" stroke="midnightblue" d="M461.98,-168.28C463.08,-155.5 463.92,-131.14 457,-112 446.52,-82.99 441.89,-72.76 416,-56 361.86,-20.95 285.09,-12.69 240.62,-11.04"/>
<polygon fill="midnightblue" stroke="midnightblue" points="240.68,-7.54 230.58,-10.76 240.48,-14.54 240.68,-7.54"/>
</g>
<!-- Node13&#45;&gt;Node11 -->
<g id="edge23" class="edge">
<title>Node13&#45;&gt;Node11</title>
<path fill="none" stroke="midnightblue" d="M459.42,-168.36C456.72,-155.26 450.28,-130 438,-112 429.9,-100.13 417.93,-89.48 407.52,-81.52"/>
<polygon fill="midnightblue" stroke="midnightblue" points="409.4,-78.56 399.25,-75.51 405.27,-84.22 409.4,-78.56"/>
</g>
<!-- Node13&#45;&gt;Node12 -->
<g id="edge24" class="edge">
<title>Node13&#45;&gt;Node12</title>
<path fill="none" stroke="midnightblue" d="M441.19,-168.44C420.71,-159.6 388.52,-145.69 365.14,-135.59"/>
<polygon fill="midnightblue" stroke="midnightblue" points="366.28,-132.27 355.71,-131.52 363.51,-138.7 366.28,-132.27"/>
</g>
<!-- Node14 -->
<g id="node14" class="node">
<title>Node14</title>
<g id="a_node14"><a xlink:href="Transform_8hpp.html" target="_top" xlink:title=" ">
<polygon fill="none" stroke="black" points="528.5,-112.5 528.5,-131.5 607.5,-131.5 607.5,-112.5 528.5,-112.5"/>
<text text-anchor="middle" x="568" y="-119.5" font-family="Helvetica,sans-Serif" font-size="10.00">Transform.hpp</text>
</a>
</g>
</g>
<!-- Node13&#45;&gt;Node14 -->
<g id="edge21" class="edge">
<title>Node13&#45;&gt;Node14</title>
<path fill="none" stroke="midnightblue" d="M478.19,-168.32C495.35,-159.66 521.95,-146.24 541.75,-136.25"/>
<polygon fill="midnightblue" stroke="midnightblue" points="543.5,-139.28 550.85,-131.65 540.35,-133.04 543.5,-139.28"/>
</g>
<!-- Node15 -->
<g id="node15" class="node">
<title>Node15</title>
<g id="a_node15"><a xlink:href="Point_8hpp.html" target="_top" xlink:title=" ">
<polygon fill="none" stroke="black" points="573.5,-56.5 573.5,-75.5 630.5,-75.5 630.5,-56.5 573.5,-56.5"/>
<text text-anchor="middle" x="602" y="-63.5" font-family="Helvetica,sans-Serif" font-size="10.00">Point.hpp</text>
</a>
</g>
</g>
<!-- Node14&#45;&gt;Node15 -->
<g id="edge22" class="edge">
<title>Node14&#45;&gt;Node15</title>
<path fill="none" stroke="midnightblue" d="M573.61,-112.08C578.37,-104.53 585.32,-93.49 591.15,-84.23"/>
<polygon fill="midnightblue" stroke="midnightblue" points="594.12,-86.08 596.49,-75.75 588.2,-82.35 594.12,-86.08"/>
</g>
<!-- Node16&#45;&gt;Node15 -->
<g id="edge28" class="edge">
<title>Node16&#45;&gt;Node15</title>
<path fill="none" stroke="midnightblue" d="M585.23,-224.36C593.35,-207.24 610.85,-167.59 617,-132 619.74,-116.13 615.08,-98.32 610.25,-85.36"/>
<polygon fill="midnightblue" stroke="midnightblue" points="613.34,-83.69 606.31,-75.77 606.87,-86.35 613.34,-83.69"/>
</g>
</g>
</svg>
