<?xml version="1.0" encoding="UTF-8" standalone="no"?>
<!DOCTYPE svg PUBLIC "-//W3C//DTD SVG 1.1//EN"
 "http://www.w3.org/Graphics/SVG/1.1/DTD/svg11.dtd">
<!-- Generated by graphviz version 2.44.0 ()
 -->
<!-- Title: libs/spic&#45;engine/includes/spic&#45;api&#45;headers/Debug.hpp Pages: 1 -->
<svg width="1809pt" height="173pt"
 viewBox="0.00 0.00 1809.00 173.00" xmlns="http://www.w3.org/2000/svg" xmlns:xlink="http://www.w3.org/1999/xlink">
<g id="graph0" class="graph" transform="scale(1 1) rotate(0) translate(4 169)">
<title>libs/spic&#45;engine/includes/spic&#45;api&#45;headers/Debug.hpp</title>
<!-- Node1 -->
<g id="node1" class="node">
<title>Node1</title>
<g id="a_node1"><a xlink:title=" ">
<polygon fill="#bfbfbf" stroke="black" points="738,-134.5 738,-164.5 878,-164.5 878,-134.5 738,-134.5"/>
<text text-anchor="start" x="746" y="-152.5" font-family="Helvetica,sans-Serif" font-size="10.00">libs/spic&#45;engine/includes</text>
<text text-anchor="middle" x="808" y="-141.5" font-family="Helvetica,sans-Serif" font-size="10.00">/spic&#45;api&#45;headers/Debug.hpp</text>
</a>
</g>
</g>
<!-- Node2 -->
<g id="node2" class="node">
<title>Node2</title>
<g id="a_node2"><a xlink:href="CheatManager_8cpp.html" target="_top" xlink:title=" ">
<polygon fill="none" stroke="black" points="0,-62 0,-92 106,-92 106,-62 0,-62"/>
<text text-anchor="start" x="8" y="-80" font-family="Helvetica,sans-Serif" font-size="10.00">src/Scripts/Common</text>
<text text-anchor="middle" x="53" y="-69" font-family="Helvetica,sans-Serif" font-size="10.00">/CheatManager.cpp</text>
</a>
</g>
</g>
<!-- Node1&#45;&gt;Node2 -->
<g id="edge1" class="edge">
<title>Node1&#45;&gt;Node2</title>
<path fill="none" stroke="midnightblue" d="M727.67,-148.84C597.69,-148.02 333.75,-140.61 115,-98 107.34,-96.51 99.31,-94.37 91.65,-92.04"/>
<polygon fill="midnightblue" stroke="midnightblue" points="727.91,-152.35 737.93,-148.9 727.95,-145.35 727.91,-152.35"/>
</g>
<!-- Node3 -->
<g id="node3" class="node">
<title>Node3</title>
<g id="a_node3"><a xlink:href="CoolDownBehaviour_8cpp.html" target="_top" xlink:title=" ">
<polygon fill="none" stroke="black" points="124.5,-62 124.5,-92 249.5,-92 249.5,-62 124.5,-62"/>
<text text-anchor="start" x="132.5" y="-80" font-family="Helvetica,sans-Serif" font-size="10.00">src/Scripts/Common</text>
<text text-anchor="middle" x="187" y="-69" font-family="Helvetica,sans-Serif" font-size="10.00">/CoolDownBehaviour.cpp</text>
</a>
</g>
</g>
<!-- Node1&#45;&gt;Node3 -->
<g id="edge2" class="edge">
<title>Node1&#45;&gt;Node3</title>
<path fill="none" stroke="midnightblue" d="M727.85,-145.74C620.2,-140.98 423.32,-128.61 258,-98 249.56,-96.44 240.68,-94.32 232.16,-92.05"/>
<polygon fill="midnightblue" stroke="midnightblue" points="727.84,-149.24 737.98,-146.17 728.14,-142.24 727.84,-149.24"/>
</g>
<!-- Node4 -->
<g id="node4" class="node">
<title>Node4</title>
<g id="a_node4"><a xlink:href="GameLostBehaviour_8cpp.html" target="_top" xlink:title=" ">
<polygon fill="none" stroke="black" points="267.5,-62 267.5,-92 394.5,-92 394.5,-62 267.5,-62"/>
<text text-anchor="start" x="275.5" y="-80" font-family="Helvetica,sans-Serif" font-size="10.00">src/Scripts/Common</text>
<text text-anchor="middle" x="331" y="-69" font-family="Helvetica,sans-Serif" font-size="10.00">/GameLostBehaviour.cpp</text>
</a>
</g>
</g>
<!-- Node1&#45;&gt;Node4 -->
<g id="edge3" class="edge">
<title>Node1&#45;&gt;Node4</title>
<path fill="none" stroke="midnightblue" d="M727.97,-142.02C645.87,-134.55 514.72,-120.36 403,-98 394.73,-96.35 386.02,-94.24 377.62,-92.02"/>
<polygon fill="midnightblue" stroke="midnightblue" points="727.71,-145.51 737.99,-142.92 728.34,-138.54 727.71,-145.51"/>
</g>
<!-- Node5 -->
<g id="node5" class="node">
<title>Node5</title>
<g id="a_node5"><a xlink:href="GameWonBehaviour_8cpp.html" target="_top" xlink:title=" ">
<polygon fill="none" stroke="black" points="412.5,-62 412.5,-92 539.5,-92 539.5,-62 412.5,-62"/>
<text text-anchor="start" x="420.5" y="-80" font-family="Helvetica,sans-Serif" font-size="10.00">src/Scripts/Common</text>
<text text-anchor="middle" x="476" y="-69" font-family="Helvetica,sans-Serif" font-size="10.00">/GameWonBehaviour.cpp</text>
</a>
</g>
</g>
<!-- Node1&#45;&gt;Node5 -->
<g id="edge4" class="edge">
<title>Node1&#45;&gt;Node5</title>
<path fill="none" stroke="midnightblue" d="M727.86,-134.47C676.52,-125.09 608.59,-111.95 549,-98 541.32,-96.2 533.23,-94.15 525.35,-92.06"/>
<polygon fill="midnightblue" stroke="midnightblue" points="727.43,-137.95 737.89,-136.3 728.68,-131.07 727.43,-137.95"/>
</g>
<!-- Node6 -->
<g id="node6" class="node">
<title>Node6</title>
<g id="a_node6"><a xlink:href="HealthBehaviour_8cpp.html" target="_top" xlink:title=" ">
<polygon fill="none" stroke="black" points="558,-62 558,-92 668,-92 668,-62 558,-62"/>
<text text-anchor="start" x="566" y="-80" font-family="Helvetica,sans-Serif" font-size="10.00">src/Scripts/Common</text>
<text text-anchor="middle" x="613" y="-69" font-family="Helvetica,sans-Serif" font-size="10.00">/HealthBehaviour.cpp</text>
</a>
</g>
</g>
<!-- Node1&#45;&gt;Node6 -->
<g id="edge5" class="edge">
<title>Node1&#45;&gt;Node6</title>
<path fill="none" stroke="midnightblue" d="M759.5,-130.96C726.3,-118.96 682.86,-103.26 651.92,-92.07"/>
<polygon fill="midnightblue" stroke="midnightblue" points="758.41,-134.29 769.01,-134.4 760.79,-127.71 758.41,-134.29"/>
</g>
<!-- Node7 -->
<g id="node7" class="node">
<title>Node7</title>
<g id="a_node7"><a xlink:href="Debug_8cpp.html" target="_top" xlink:title=" ">
<polygon fill="none" stroke="black" points="686.5,-62 686.5,-92 787.5,-92 787.5,-62 686.5,-62"/>
<text text-anchor="start" x="694.5" y="-80" font-family="Helvetica,sans-Serif" font-size="10.00">libs/spic&#45;engine/src</text>
<text text-anchor="middle" x="737" y="-69" font-family="Helvetica,sans-Serif" font-size="10.00">/Api/Debug.cpp</text>
</a>
</g>
</g>
<!-- Node1&#45;&gt;Node7 -->
<g id="edge6" class="edge">
<title>Node1&#45;&gt;Node7</title>
<path fill="none" stroke="midnightblue" d="M786.21,-126.86C774.88,-115.61 761.35,-102.18 751.35,-92.25"/>
<polygon fill="midnightblue" stroke="midnightblue" points="784.07,-129.67 793.63,-134.23 789,-124.7 784.07,-129.67"/>
</g>
<!-- Node8 -->
<g id="node8" class="node">
<title>Node8</title>
<g id="a_node8"><a xlink:href="AudioManager_8cpp.html" target="_top" xlink:title=" ">
<polygon fill="none" stroke="black" points="806,-62 806,-92 952,-92 952,-62 806,-62"/>
<text text-anchor="start" x="814" y="-80" font-family="Helvetica,sans-Serif" font-size="10.00">libs/spic&#45;engine/src</text>
<text text-anchor="middle" x="879" y="-69" font-family="Helvetica,sans-Serif" font-size="10.00">/Managers/AudioManager.cpp</text>
</a>
</g>
</g>
<!-- Node1&#45;&gt;Node8 -->
<g id="edge7" class="edge">
<title>Node1&#45;&gt;Node8</title>
<path fill="none" stroke="midnightblue" d="M829.79,-126.86C841.12,-115.61 854.65,-102.18 864.65,-92.25"/>
<polygon fill="midnightblue" stroke="midnightblue" points="827,-124.7 822.37,-134.23 831.93,-129.67 827,-124.7"/>
</g>
<!-- Node9 -->
<g id="node9" class="node">
<title>Node9</title>
<g id="a_node9"><a xlink:href="TimeManager_8cpp.html" target="_top" xlink:title=" ">
<polygon fill="none" stroke="black" points="970.5,-62 970.5,-92 1113.5,-92 1113.5,-62 970.5,-62"/>
<text text-anchor="start" x="978.5" y="-80" font-family="Helvetica,sans-Serif" font-size="10.00">libs/spic&#45;engine/src</text>
<text text-anchor="middle" x="1042" y="-69" font-family="Helvetica,sans-Serif" font-size="10.00">/Managers/TimeManager.cpp</text>
</a>
</g>
</g>
<!-- Node1&#45;&gt;Node9 -->
<g id="edge8" class="edge">
<title>Node1&#45;&gt;Node9</title>
<path fill="none" stroke="midnightblue" d="M864.13,-131.59C904.18,-119.52 957.41,-103.48 995.18,-92.11"/>
<polygon fill="midnightblue" stroke="midnightblue" points="863.08,-128.25 854.51,-134.49 865.1,-134.95 863.08,-128.25"/>
</g>
<!-- Node10 -->
<g id="node10" class="node">
<title>Node10</title>
<g id="a_node10"><a xlink:href="Texture_8cpp.html" target="_top" xlink:title=" ">
<polygon fill="none" stroke="black" points="1132,-62 1132,-92 1236,-92 1236,-62 1132,-62"/>
<text text-anchor="start" x="1140" y="-80" font-family="Helvetica,sans-Serif" font-size="10.00">libs/spic&#45;engine/src</text>
<text text-anchor="middle" x="1184" y="-69" font-family="Helvetica,sans-Serif" font-size="10.00">/Models/Texture.cpp</text>
</a>
</g>
</g>
<!-- Node1&#45;&gt;Node10 -->
<g id="edge9" class="edge">
<title>Node1&#45;&gt;Node10</title>
<path fill="none" stroke="midnightblue" d="M888.14,-139.04C951.99,-130.69 1043.39,-116.88 1122,-98 1129.04,-96.31 1136.43,-94.21 1143.56,-92.02"/>
<polygon fill="midnightblue" stroke="midnightblue" points="887.6,-135.58 878.13,-140.34 888.5,-142.52 887.6,-135.58"/>
</g>
<!-- Node11 -->
<g id="node11" class="node">
<title>Node11</title>
<g id="a_node11"><a xlink:href="BehaviourScriptSubsystem_8cpp.html" target="_top" xlink:title=" ">
<polygon fill="none" stroke="black" points="1254,-56.5 1254,-97.5 1400,-97.5 1400,-56.5 1254,-56.5"/>
<text text-anchor="start" x="1262" y="-85.5" font-family="Helvetica,sans-Serif" font-size="10.00">libs/spic&#45;engine/src</text>
<text text-anchor="start" x="1262" y="-74.5" font-family="Helvetica,sans-Serif" font-size="10.00">/Subsystems/BehaviourScript</text>
<text text-anchor="middle" x="1327" y="-63.5" font-family="Helvetica,sans-Serif" font-size="10.00">Subsystem.cpp</text>
</a>
</g>
</g>
<!-- Node1&#45;&gt;Node11 -->
<g id="edge10" class="edge">
<title>Node1&#45;&gt;Node11</title>
<path fill="none" stroke="midnightblue" d="M888.2,-142.24C976.18,-134.68 1121.34,-120.14 1245,-98 1247.88,-97.48 1250.82,-96.93 1253.78,-96.34"/>
<polygon fill="midnightblue" stroke="midnightblue" points="887.69,-138.77 878.02,-143.11 888.28,-145.75 887.69,-138.77"/>
</g>
<!-- Node12 -->
<g id="node12" class="node">
<title>Node12</title>
<g id="a_node12"><a xlink:href="GameSpeedSubsystem_8cpp.html" target="_top" xlink:title=" ">
<polygon fill="none" stroke="black" points="1418.5,-62 1418.5,-92 1615.5,-92 1615.5,-62 1418.5,-62"/>
<text text-anchor="start" x="1426.5" y="-80" font-family="Helvetica,sans-Serif" font-size="10.00">libs/spic&#45;engine/src</text>
<text text-anchor="middle" x="1517" y="-69" font-family="Helvetica,sans-Serif" font-size="10.00">/Subsystems/GameSpeedSubsystem.cpp</text>
</a>
</g>
</g>
<!-- Node1&#45;&gt;Node12 -->
<g id="edge11" class="edge">
<title>Node1&#45;&gt;Node12</title>
<path fill="none" stroke="midnightblue" d="M888.28,-144.3C1003.78,-137.67 1223.39,-122.92 1409,-98 1421.28,-96.35 1434.29,-94.25 1446.87,-92.03"/>
<polygon fill="midnightblue" stroke="midnightblue" points="887.89,-140.81 878.11,-144.87 888.29,-147.8 887.89,-140.81"/>
</g>
<!-- Node13 -->
<g id="node13" class="node">
<title>Node13</title>
<g id="a_node13"><a xlink:href="Api_8hpp.html" target="_top" xlink:title=" ">
<polygon fill="none" stroke="black" points="1634,-62 1634,-92 1760,-92 1760,-62 1634,-62"/>
<text text-anchor="start" x="1642" y="-80" font-family="Helvetica,sans-Serif" font-size="10.00">libs/spic&#45;engine/includes</text>
<text text-anchor="middle" x="1697" y="-69" font-family="Helvetica,sans-Serif" font-size="10.00">/spic&#45;api&#45;headers/Api.hpp</text>
</a>
</g>
</g>
<!-- Node1&#45;&gt;Node13 -->
<g id="edge12" class="edge">
<title>Node1&#45;&gt;Node13</title>
<path fill="none" stroke="midnightblue" d="M888.53,-149.08C1035.79,-148.9 1357.94,-142.84 1625,-98 1633.83,-96.52 1643.13,-94.38 1652,-92.05"/>
<polygon fill="midnightblue" stroke="midnightblue" points="888.23,-145.58 878.23,-149.08 888.23,-152.58 888.23,-145.58"/>
</g>
<!-- Node14 -->
<g id="node14" class="node">
<title>Node14</title>
<g id="a_node14"><a xlink:href="LevelController_8cpp.html" target="_top" xlink:title=" ">
<polygon fill="none" stroke="black" points="1545,-0.5 1545,-19.5 1711,-19.5 1711,-0.5 1545,-0.5"/>
<text text-anchor="middle" x="1628" y="-7.5" font-family="Helvetica,sans-Serif" font-size="10.00">src/Controllers/LevelController.cpp</text>
</a>
</g>
</g>
<!-- Node13&#45;&gt;Node14 -->
<g id="edge13" class="edge">
<title>Node13&#45;&gt;Node14</title>
<path fill="none" stroke="midnightblue" d="M1674.53,-54.84C1661.86,-42.9 1646.72,-28.64 1637.23,-19.69"/>
<polygon fill="midnightblue" stroke="midnightblue" points="1672.35,-57.59 1682.03,-61.9 1677.15,-52.49 1672.35,-57.59"/>
</g>
<!-- Node15 -->
<g id="node15" class="node">
<title>Node15</title>
<g id="a_node15"><a xlink:href="main_8cpp.html" target="_top" xlink:title=" ">
<polygon fill="none" stroke="black" points="1729,-0.5 1729,-19.5 1801,-19.5 1801,-0.5 1729,-0.5"/>
<text text-anchor="middle" x="1765" y="-7.5" font-family="Helvetica,sans-Serif" font-size="10.00">src/main.cpp</text>
</a>
</g>
</g>
<!-- Node13&#45;&gt;Node15 -->
<g id="edge14" class="edge">
<title>Node13&#45;&gt;Node15</title>
<path fill="none" stroke="midnightblue" d="M1719.14,-54.84C1731.63,-42.9 1746.55,-28.64 1755.9,-19.69"/>
<polygon fill="midnightblue" stroke="midnightblue" points="1716.57,-52.46 1711.75,-61.9 1721.4,-57.52 1716.57,-52.46"/>
</g>
</g>
</svg>
