<?xml version="1.0" encoding="UTF-8" standalone="no"?>
<!DOCTYPE svg PUBLIC "-//W3C//DTD SVG 1.1//EN"
 "http://www.w3.org/Graphics/SVG/1.1/DTD/svg11.dtd">
<!-- Generated by graphviz version 2.44.0 ()
 -->
<!-- Title: libs/spic&#45;engine/src/Managers Pages: 1 -->
<svg width="174pt" height="239pt"
 viewBox="0.00 0.00 174.00 239.00" xmlns="http://www.w3.org/2000/svg" xmlns:xlink="http://www.w3.org/1999/xlink">
<g id="graph0" class="graph" transform="scale(1 1) rotate(0) translate(4 235)">
<title>libs/spic&#45;engine/src/Managers</title>
<g id="clust1" class="cluster">
<title>clusterdir_285e79e1df58a5eef125f3ef662e94c8</title>
<g id="a_clust1"><a xlink:href="dir_285e79e1df58a5eef125f3ef662e94c8.html" target="_top" xlink:title="src">
<polygon fill="#ddddee" stroke="black" points="8,-8 8,-223 104,-223 104,-8 8,-8"/>
<text text-anchor="middle" x="56" y="-211" font-family="Helvetica,sans-Serif" font-size="10.00">src</text>
</a>
</g>
</g>
<!-- dir_44982e0575ee586d59cceea88d45baea -->
<g id="node1" class="node">
<title>dir_44982e0575ee586d59cceea88d45baea</title>
<g id="a_node1"><a xlink:href="dir_44982e0575ee586d59cceea88d45baea.html" target="_top" xlink:title="Exceptions">
<polygon fill="none" stroke="black" points="87,-52 23,-52 23,-16 87,-16 87,-52"/>
<text text-anchor="middle" x="55" y="-31.5" font-family="Helvetica,sans-Serif" font-size="10.00">Exceptions</text>
</a>
</g>
</g>
<!-- dir_86e52f062f78877d44b40fa7f7b75938 -->
<g id="node2" class="node">
<title>dir_86e52f062f78877d44b40fa7f7b75938</title>
<g id="a_node2"><a xlink:href="dir_86e52f062f78877d44b40fa7f7b75938.html" target="_top" xlink:title="Models">
<polygon fill="none" stroke="black" points="93,-196 39,-196 39,-160 93,-160 93,-196"/>
<text text-anchor="middle" x="66" y="-175.5" font-family="Helvetica,sans-Serif" font-size="10.00">Models</text>
</a>
</g>
</g>
<!-- dir_86e52f062f78877d44b40fa7f7b75938&#45;&gt;dir_44982e0575ee586d59cceea88d45baea -->
<g id="edge4" class="edge">
<title>dir_86e52f062f78877d44b40fa7f7b75938&#45;&gt;dir_44982e0575ee586d59cceea88d45baea</title>
<path fill="none" stroke="black" d="M49.11,-159.99C40.71,-150.31 31.42,-137.46 27,-124 22.01,-108.8 23.15,-103.53 27,-88 29.29,-78.75 33.53,-69.34 38.02,-61.07"/>
<polygon fill="black" stroke="black" points="41.13,-62.68 43.11,-52.28 35.07,-59.17 41.13,-62.68"/>
<g id="a_edge4&#45;headlabel"><a xlink:href="dir_000010_000007.html" target="_top" xlink:title="1">
<text text-anchor="middle" x="41.78" y="-64.72" font-family="Helvetica,sans-Serif" font-size="10.00">1</text>
</a>
</g>
</g>
<!-- dir_944338dd7c8807faeb58957658de8a3c -->
<g id="node3" class="node">
<title>dir_944338dd7c8807faeb58957658de8a3c</title>
<g id="a_node3"><a xlink:href="dir_944338dd7c8807faeb58957658de8a3c.html" target="_top" xlink:title="Managers">
<polygon fill="#eeeeff" stroke="black" points="95.5,-124 36.5,-124 36.5,-88 95.5,-88 95.5,-124"/>
<text text-anchor="middle" x="66" y="-103.5" font-family="Helvetica,sans-Serif" font-size="10.00">Managers</text>
</a>
</g>
</g>
<!-- dir_86e52f062f78877d44b40fa7f7b75938&#45;&gt;dir_944338dd7c8807faeb58957658de8a3c -->
<g id="edge6" class="edge">
<title>dir_86e52f062f78877d44b40fa7f7b75938&#45;&gt;dir_944338dd7c8807faeb58957658de8a3c</title>
<path fill="none" stroke="black" d="M60.08,-159.7C59.29,-151.98 59.06,-142.71 59.4,-134.11"/>
<polygon fill="black" stroke="black" points="62.9,-134.32 60.1,-124.1 55.92,-133.84 62.9,-134.32"/>
<g id="a_edge6&#45;headlabel"><a xlink:href="dir_000010_000009.html" target="_top" xlink:title="2">
<text text-anchor="middle" x="65.48" y="-135.61" font-family="Helvetica,sans-Serif" font-size="10.00">2</text>
</a>
</g>
</g>
<!-- dir_4f186f038b17a7ee674550d24e4eff05 -->
<g id="node4" class="node">
<title>dir_4f186f038b17a7ee674550d24e4eff05</title>
<g id="a_node4"><a xlink:href="dir_4f186f038b17a7ee674550d24e4eff05.html" target="_top" xlink:title="includes">
<polygon fill="none" stroke="red" points="166,-52 112,-52 112,-16 166,-16 166,-52"/>
<text text-anchor="middle" x="139" y="-31.5" font-family="Helvetica,sans-Serif" font-size="10.00">includes</text>
</a>
</g>
</g>
<!-- dir_86e52f062f78877d44b40fa7f7b75938&#45;&gt;dir_4f186f038b17a7ee674550d24e4eff05 -->
<g id="edge5" class="edge">
<title>dir_86e52f062f78877d44b40fa7f7b75938&#45;&gt;dir_4f186f038b17a7ee674550d24e4eff05</title>
<path fill="none" stroke="black" d="M80.17,-159.57C87.87,-149.57 97.18,-136.53 104,-124 114.86,-104.04 124.12,-79.97 130.38,-61.9"/>
<polygon fill="black" stroke="black" points="133.74,-62.89 133.62,-52.29 127.11,-60.65 133.74,-62.89"/>
<g id="a_edge5&#45;headlabel"><a xlink:href="dir_000010_000002.html" target="_top" xlink:title="4">
<text text-anchor="middle" x="135.28" y="-64.7" font-family="Helvetica,sans-Serif" font-size="10.00">4</text>
</a>
</g>
</g>
<!-- dir_944338dd7c8807faeb58957658de8a3c&#45;&gt;dir_44982e0575ee586d59cceea88d45baea -->
<g id="edge1" class="edge">
<title>dir_944338dd7c8807faeb58957658de8a3c&#45;&gt;dir_44982e0575ee586d59cceea88d45baea</title>
<path fill="none" stroke="black" d="M63.28,-87.7C62.07,-79.98 60.61,-70.71 59.26,-62.11"/>
<polygon fill="black" stroke="black" points="62.7,-61.44 57.69,-52.1 55.78,-62.53 62.7,-61.44"/>
<g id="a_edge1&#45;headlabel"><a xlink:href="dir_000009_000007.html" target="_top" xlink:title="3">
<text text-anchor="middle" x="66.06" y="-62.05" font-family="Helvetica,sans-Serif" font-size="10.00">3</text>
</a>
</g>
</g>
<!-- dir_944338dd7c8807faeb58957658de8a3c&#45;&gt;dir_86e52f062f78877d44b40fa7f7b75938 -->
<g id="edge3" class="edge">
<title>dir_944338dd7c8807faeb58957658de8a3c&#45;&gt;dir_86e52f062f78877d44b40fa7f7b75938</title>
<path fill="none" stroke="black" d="M71.9,-124.1C72.7,-131.79 72.94,-141.05 72.6,-149.67"/>
<polygon fill="black" stroke="black" points="69.11,-149.48 71.92,-159.7 76.09,-149.96 69.11,-149.48"/>
<g id="a_edge3&#45;headlabel"><a xlink:href="dir_000009_000010.html" target="_top" xlink:title="4">
<text text-anchor="middle" x="66.52" y="-143.2" font-family="Helvetica,sans-Serif" font-size="10.00">4</text>
</a>
</g>
</g>
<!-- dir_944338dd7c8807faeb58957658de8a3c&#45;&gt;dir_4f186f038b17a7ee674550d24e4eff05 -->
<g id="edge2" class="edge">
<title>dir_944338dd7c8807faeb58957658de8a3c&#45;&gt;dir_4f186f038b17a7ee674550d24e4eff05</title>
<path fill="none" stroke="black" d="M84.04,-87.7C93.06,-79.05 104.12,-68.45 113.94,-59.03"/>
<polygon fill="black" stroke="black" points="116.37,-61.55 121.16,-52.1 111.52,-56.5 116.37,-61.55"/>
<g id="a_edge2&#45;headlabel"><a xlink:href="dir_000009_000002.html" target="_top" xlink:title="7">
<text text-anchor="middle" x="115.74" y="-63.59" font-family="Helvetica,sans-Serif" font-size="10.00">7</text>
</a>
</g>
</g>
</g>
</svg>
