<?xml version="1.0" encoding="UTF-8" standalone="no"?>
<!DOCTYPE svg PUBLIC "-//W3C//DTD SVG 1.1//EN"
 "http://www.w3.org/Graphics/SVG/1.1/DTD/svg11.dtd">
<!-- Generated by graphviz version 2.44.0 ()
 -->
<!-- Title: src Pages: 1 -->
<svg width="466pt" height="508pt"
 viewBox="0.00 0.00 466.00 508.00" xmlns="http://www.w3.org/2000/svg" xmlns:xlink="http://www.w3.org/1999/xlink">
<g id="graph0" class="graph" transform="scale(1 1) rotate(0) translate(4 504)">
<title>src</title>
<g id="clust1" class="cluster">
<title>clusterdir_68267d1309a1af8e8297ef4c3efbcdba</title>
<g id="a_clust1"><a xlink:href="dir_68267d1309a1af8e8297ef4c3efbcdba.html" target="_top">
<polygon fill="#eeeeff" stroke="black" points="8,-8 8,-492 324,-492 324,-8 8,-8"/>
</a>
</g>
</g>
<!-- dir_68267d1309a1af8e8297ef4c3efbcdba -->
<g id="node1" class="node">
<title>dir_68267d1309a1af8e8297ef4c3efbcdba</title>
<text text-anchor="middle" x="277" y="-463.5" font-family="Helvetica,sans-Serif" font-size="10.00">src</text>
</g>
<!-- dir_efbf91dec8e0e89146a72eada515bf52 -->
<g id="node2" class="node">
<title>dir_efbf91dec8e0e89146a72eada515bf52</title>
<g id="a_node2"><a xlink:href="dir_efbf91dec8e0e89146a72eada515bf52.html" target="_top" xlink:title="Controllers">
<polygon fill="white" stroke="black" points="212.5,-484 149.5,-484 149.5,-448 212.5,-448 212.5,-484"/>
<text text-anchor="middle" x="181" y="-463.5" font-family="Helvetica,sans-Serif" font-size="10.00">Controllers</text>
</a>
</g>
</g>
<!-- dir_804e9c8a6f85b64a196ad58c4618e191 -->
<g id="node3" class="node">
<title>dir_804e9c8a6f85b64a196ad58c4618e191</title>
<g id="a_node3"><a xlink:href="dir_804e9c8a6f85b64a196ad58c4618e191.html" target="_top" xlink:title="Enums">
<polygon fill="white" stroke="black" points="111,-52 57,-52 57,-16 111,-16 111,-52"/>
<text text-anchor="middle" x="84" y="-31.5" font-family="Helvetica,sans-Serif" font-size="10.00">Enums</text>
</a>
</g>
</g>
<!-- dir_efbf91dec8e0e89146a72eada515bf52&#45;&gt;dir_804e9c8a6f85b64a196ad58c4618e191 -->
<g id="edge8" class="edge">
<title>dir_efbf91dec8e0e89146a72eada515bf52&#45;&gt;dir_804e9c8a6f85b64a196ad58c4618e191</title>
<path fill="none" stroke="black" d="M149.38,-454.07C101.72,-435.34 17,-392.3 17,-323 17,-323 17,-323 17,-177 17,-135.91 23.32,-124.59 42,-88 46.96,-78.28 53.86,-68.62 60.64,-60.27"/>
<polygon fill="black" stroke="black" points="63.51,-62.3 67.3,-52.4 58.17,-57.78 63.51,-62.3"/>
<g id="a_edge8&#45;headlabel"><a xlink:href="dir_000019_000020.html" target="_top" xlink:title="4">
<text text-anchor="middle" x="63.36" y="-64.37" font-family="Helvetica,sans-Serif" font-size="10.00">4</text>
</a>
</g>
</g>
<!-- dir_3dbe57e65c50a7a17fba27939d267647 -->
<g id="node4" class="node">
<title>dir_3dbe57e65c50a7a17fba27939d267647</title>
<g id="a_node4"><a xlink:href="dir_3dbe57e65c50a7a17fba27939d267647.html" target="_top" xlink:title="Factories">
<polygon fill="white" stroke="black" points="161.5,-412 104.5,-412 104.5,-376 161.5,-376 161.5,-412"/>
<text text-anchor="middle" x="133" y="-391.5" font-family="Helvetica,sans-Serif" font-size="10.00">Factories</text>
</a>
</g>
</g>
<!-- dir_efbf91dec8e0e89146a72eada515bf52&#45;&gt;dir_3dbe57e65c50a7a17fba27939d267647 -->
<g id="edge6" class="edge">
<title>dir_efbf91dec8e0e89146a72eada515bf52&#45;&gt;dir_3dbe57e65c50a7a17fba27939d267647</title>
<path fill="none" stroke="black" d="M169.13,-447.7C163.5,-439.47 156.65,-429.48 150.43,-420.42"/>
<polygon fill="black" stroke="black" points="153.27,-418.37 144.73,-412.1 147.5,-422.33 153.27,-418.37"/>
<g id="a_edge6&#45;headlabel"><a xlink:href="dir_000019_000021.html" target="_top" xlink:title="5">
<text text-anchor="middle" x="157.65" y="-417.23" font-family="Helvetica,sans-Serif" font-size="10.00">5</text>
</a>
</g>
</g>
<!-- dir_c04391f011249a815ab0ebd9bc734b9b -->
<g id="node5" class="node">
<title>dir_c04391f011249a815ab0ebd9bc734b9b</title>
<g id="a_node5"><a xlink:href="dir_c04391f011249a815ab0ebd9bc734b9b.html" target="_top" xlink:title="Persistence">
<polygon fill="white" stroke="black" points="244,-196 176,-196 176,-160 244,-160 244,-196"/>
<text text-anchor="middle" x="210" y="-175.5" font-family="Helvetica,sans-Serif" font-size="10.00">Persistence</text>
</a>
</g>
</g>
<!-- dir_efbf91dec8e0e89146a72eada515bf52&#45;&gt;dir_c04391f011249a815ab0ebd9bc734b9b -->
<g id="edge10" class="edge">
<title>dir_efbf91dec8e0e89146a72eada515bf52&#45;&gt;dir_c04391f011249a815ab0ebd9bc734b9b</title>
<path fill="none" stroke="black" d="M189.17,-447.71C193.65,-437.53 198.9,-424.28 202,-412 221.68,-334.09 225.75,-312.07 219,-232 218.28,-223.5 216.93,-214.31 215.49,-206.01"/>
<polygon fill="black" stroke="black" points="218.91,-205.29 213.65,-196.09 212.03,-206.56 218.91,-205.29"/>
<g id="a_edge10&#45;headlabel"><a xlink:href="dir_000019_000022.html" target="_top" xlink:title="1">
<text text-anchor="middle" x="222.36" y="-205.81" font-family="Helvetica,sans-Serif" font-size="10.00">1</text>
</a>
</g>
</g>
<!-- dir_3ac9928fc2e7e2cbc53db7c1a11acda2 -->
<g id="node7" class="node">
<title>dir_3ac9928fc2e7e2cbc53db7c1a11acda2</title>
<g id="a_node7"><a xlink:href="dir_3ac9928fc2e7e2cbc53db7c1a11acda2.html" target="_top" xlink:title="Scripts">
<polygon fill="white" stroke="red" points="190,-340 136,-340 136,-304 190,-304 190,-340"/>
<text text-anchor="middle" x="163" y="-319.5" font-family="Helvetica,sans-Serif" font-size="10.00">Scripts</text>
</a>
</g>
</g>
<!-- dir_efbf91dec8e0e89146a72eada515bf52&#45;&gt;dir_3ac9928fc2e7e2cbc53db7c1a11acda2 -->
<g id="edge5" class="edge">
<title>dir_efbf91dec8e0e89146a72eada515bf52&#45;&gt;dir_3ac9928fc2e7e2cbc53db7c1a11acda2</title>
<path fill="none" stroke="black" d="M172.21,-447.93C167.75,-430.01 164.2,-401.02 161,-376 159.94,-367.68 158.75,-358.63 158.06,-350.4"/>
<polygon fill="black" stroke="black" points="161.54,-349.97 157.48,-340.18 154.55,-350.36 161.54,-349.97"/>
<g id="a_edge5&#45;headlabel"><a xlink:href="dir_000019_000024.html" target="_top" xlink:title="6">
<text text-anchor="middle" x="164.58" y="-350.9" font-family="Helvetica,sans-Serif" font-size="10.00">6</text>
</a>
</g>
</g>
<!-- dir_146efcb14c269303f155f454755144b3 -->
<g id="node8" class="node">
<title>dir_146efcb14c269303f155f454755144b3</title>
<g id="a_node8"><a xlink:href="dir_146efcb14c269303f155f454755144b3.html" target="_top" xlink:title="Structs">
<polygon fill="white" stroke="black" points="138,-124 84,-124 84,-88 138,-88 138,-124"/>
<text text-anchor="middle" x="111" y="-103.5" font-family="Helvetica,sans-Serif" font-size="10.00">Structs</text>
</a>
</g>
</g>
<!-- dir_efbf91dec8e0e89146a72eada515bf52&#45;&gt;dir_146efcb14c269303f155f454755144b3 -->
<g id="edge4" class="edge">
<title>dir_efbf91dec8e0e89146a72eada515bf52&#45;&gt;dir_146efcb14c269303f155f454755144b3</title>
<path fill="none" stroke="black" d="M149.34,-453.11C130.69,-444.49 108.24,-430.99 95,-412 71.91,-378.9 77,-363.36 77,-323 77,-323 77,-323 77,-249 77,-207.91 90.63,-161.92 100.63,-133.72"/>
<polygon fill="black" stroke="black" points="103.97,-134.76 104.12,-124.17 97.4,-132.36 103.97,-134.76"/>
<g id="a_edge4&#45;headlabel"><a xlink:href="dir_000019_000030.html" target="_top" xlink:title="11">
<text text-anchor="middle" x="105.41" y="-136.62" font-family="Helvetica,sans-Serif" font-size="10.00">11</text>
</a>
</g>
</g>
<!-- dir_a7363e98f9e0bdd87618633653859815 -->
<g id="node9" class="node">
<title>dir_a7363e98f9e0bdd87618633653859815</title>
<g id="a_node9"><a xlink:href="dir_a7363e98f9e0bdd87618633653859815.html" target="_top" xlink:title="Utils">
<polygon fill="white" stroke="black" points="316,-196 262,-196 262,-160 316,-160 316,-196"/>
<text text-anchor="middle" x="289" y="-175.5" font-family="Helvetica,sans-Serif" font-size="10.00">Utils</text>
</a>
</g>
</g>
<!-- dir_efbf91dec8e0e89146a72eada515bf52&#45;&gt;dir_a7363e98f9e0bdd87618633653859815 -->
<g id="edge9" class="edge">
<title>dir_efbf91dec8e0e89146a72eada515bf52&#45;&gt;dir_a7363e98f9e0bdd87618633653859815</title>
<path fill="none" stroke="black" d="M192.29,-447.83C198.63,-437.69 206.38,-424.44 212,-412 244.55,-339.93 270.38,-249.88 282.12,-205.81"/>
<polygon fill="black" stroke="black" points="285.51,-206.69 284.67,-196.13 278.74,-204.91 285.51,-206.69"/>
<g id="a_edge9&#45;headlabel"><a xlink:href="dir_000019_000032.html" target="_top" xlink:title="2">
<text text-anchor="middle" x="287.34" y="-208.39" font-family="Helvetica,sans-Serif" font-size="10.00">2</text>
</a>
</g>
</g>
<!-- dir_6719ab1f1f7655efc2fa43f7eb574fd1 -->
<g id="node10" class="node">
<title>dir_6719ab1f1f7655efc2fa43f7eb574fd1</title>
<g id="a_node10"><a xlink:href="dir_6719ab1f1f7655efc2fa43f7eb574fd1.html" target="_top" xlink:title="libs">
<polygon fill="none" stroke="red" points="386,-52 332,-52 332,-16 386,-16 386,-52"/>
<text text-anchor="middle" x="359" y="-31.5" font-family="Helvetica,sans-Serif" font-size="10.00">libs</text>
</a>
</g>
</g>
<!-- dir_efbf91dec8e0e89146a72eada515bf52&#45;&gt;dir_6719ab1f1f7655efc2fa43f7eb574fd1 -->
<g id="edge7" class="edge">
<title>dir_efbf91dec8e0e89146a72eada515bf52&#45;&gt;dir_6719ab1f1f7655efc2fa43f7eb574fd1</title>
<path fill="none" stroke="black" d="M212.51,-456.08C285.11,-434.58 458,-377.65 458,-323 458,-323 458,-323 458,-177 458,-128.38 418.46,-84.5 389.35,-58.78"/>
<polygon fill="black" stroke="black" points="391.34,-55.87 381.46,-52.03 386.78,-61.19 391.34,-55.87"/>
<g id="a_edge7&#45;headlabel"><a xlink:href="dir_000019_000000.html" target="_top" xlink:title="17">
<text text-anchor="middle" x="395.91" y="-53.56" font-family="Helvetica,sans-Serif" font-size="10.00">17</text>
</a>
</g>
</g>
<!-- dir_3dbe57e65c50a7a17fba27939d267647&#45;&gt;dir_804e9c8a6f85b64a196ad58c4618e191 -->
<g id="edge27" class="edge">
<title>dir_3dbe57e65c50a7a17fba27939d267647&#45;&gt;dir_804e9c8a6f85b64a196ad58c4618e191</title>
<path fill="none" stroke="black" d="M111.22,-375.83C82.89,-351.39 37,-303.67 37,-251 37,-251 37,-251 37,-177 37,-134.96 55.8,-89.29 69.62,-61.41"/>
<polygon fill="black" stroke="black" points="72.83,-62.82 74.26,-52.32 66.6,-59.63 72.83,-62.82"/>
<g id="a_edge27&#45;headlabel"><a xlink:href="dir_000021_000020.html" target="_top" xlink:title="20">
<text text-anchor="middle" x="73.72" y="-64.81" font-family="Helvetica,sans-Serif" font-size="10.00">20</text>
</a>
</g>
</g>
<!-- dir_3dbe57e65c50a7a17fba27939d267647&#45;&gt;dir_3ac9928fc2e7e2cbc53db7c1a11acda2 -->
<g id="edge25" class="edge">
<title>dir_3dbe57e65c50a7a17fba27939d267647&#45;&gt;dir_3ac9928fc2e7e2cbc53db7c1a11acda2</title>
<path fill="none" stroke="black" d="M134.5,-375.7C137.09,-367.73 141.01,-358.1 145.18,-349.26"/>
<polygon fill="black" stroke="black" points="148.42,-350.61 149.77,-340.1 142.17,-347.48 148.42,-350.61"/>
<g id="a_edge25&#45;headlabel"><a xlink:href="dir_000021_000024.html" target="_top" xlink:title="19">
<text text-anchor="middle" x="149.35" y="-352.6" font-family="Helvetica,sans-Serif" font-size="10.00">19</text>
</a>
</g>
</g>
<!-- dir_3dbe57e65c50a7a17fba27939d267647&#45;&gt;dir_146efcb14c269303f155f454755144b3 -->
<g id="edge24" class="edge">
<title>dir_3dbe57e65c50a7a17fba27939d267647&#45;&gt;dir_146efcb14c269303f155f454755144b3</title>
<path fill="none" stroke="black" d="M126.92,-375.57C123.64,-365.34 119.89,-352.09 118,-340 106.46,-266.28 107.91,-177.89 109.63,-134.2"/>
<polygon fill="black" stroke="black" points="113.13,-134.23 110.06,-124.09 106.14,-133.93 113.13,-134.23"/>
<g id="a_edge24&#45;headlabel"><a xlink:href="dir_000021_000030.html" target="_top" xlink:title="1">
<text text-anchor="middle" x="115.81" y="-135.44" font-family="Helvetica,sans-Serif" font-size="10.00">1</text>
</a>
</g>
</g>
<!-- dir_3dbe57e65c50a7a17fba27939d267647&#45;&gt;dir_6719ab1f1f7655efc2fa43f7eb574fd1 -->
<g id="edge26" class="edge">
<title>dir_3dbe57e65c50a7a17fba27939d267647&#45;&gt;dir_6719ab1f1f7655efc2fa43f7eb574fd1</title>
<path fill="none" stroke="black" d="M161.57,-391.97C234.16,-387.68 420,-365.52 420,-251 420,-251 420,-251 420,-177 420,-133.61 395.66,-88.37 377.73,-60.94"/>
<polygon fill="black" stroke="black" points="380.43,-58.68 371.94,-52.34 374.62,-62.59 380.43,-58.68"/>
<g id="a_edge26&#45;headlabel"><a xlink:href="dir_000021_000000.html" target="_top" xlink:title="40">
<text text-anchor="middle" x="384.79" y="-57.58" font-family="Helvetica,sans-Serif" font-size="10.00">40</text>
</a>
</g>
</g>
<!-- dir_c04391f011249a815ab0ebd9bc734b9b&#45;&gt;dir_146efcb14c269303f155f454755144b3 -->
<g id="edge22" class="edge">
<title>dir_c04391f011249a815ab0ebd9bc734b9b&#45;&gt;dir_146efcb14c269303f155f454755144b3</title>
<path fill="none" stroke="black" d="M185.78,-159.88C173.08,-150.89 157.34,-139.76 143.58,-130.03"/>
<polygon fill="black" stroke="black" points="145.5,-127.11 135.31,-124.19 141.46,-132.82 145.5,-127.11"/>
<g id="a_edge22&#45;headlabel"><a xlink:href="dir_000022_000030.html" target="_top" xlink:title="3">
<text text-anchor="middle" x="150.07" y="-124.36" font-family="Helvetica,sans-Serif" font-size="10.00">3</text>
</a>
</g>
</g>
<!-- dir_c04391f011249a815ab0ebd9bc734b9b&#45;&gt;dir_6719ab1f1f7655efc2fa43f7eb574fd1 -->
<g id="edge23" class="edge">
<title>dir_c04391f011249a815ab0ebd9bc734b9b&#45;&gt;dir_6719ab1f1f7655efc2fa43f7eb574fd1</title>
<path fill="none" stroke="black" d="M227.97,-159.87C254.26,-134.82 303.33,-88.05 333.39,-59.41"/>
<polygon fill="black" stroke="black" points="336.14,-61.62 340.96,-52.19 331.31,-56.55 336.14,-61.62"/>
<g id="a_edge23&#45;headlabel"><a xlink:href="dir_000022_000000.html" target="_top" xlink:title="5">
<text text-anchor="middle" x="335.5" y="-63.66" font-family="Helvetica,sans-Serif" font-size="10.00">5</text>
</a>
</g>
</g>
<!-- dir_d665af80335f773f8bfcf2f56b3f3e8a -->
<g id="node6" class="node">
<title>dir_d665af80335f773f8bfcf2f56b3f3e8a</title>
<g id="a_node6"><a xlink:href="dir_d665af80335f773f8bfcf2f56b3f3e8a.html" target="_top" xlink:title="Scenes">
<polygon fill="white" stroke="black" points="210,-268 156,-268 156,-232 210,-232 210,-268"/>
<text text-anchor="middle" x="183" y="-247.5" font-family="Helvetica,sans-Serif" font-size="10.00">Scenes</text>
</a>
</g>
</g>
<!-- dir_d665af80335f773f8bfcf2f56b3f3e8a&#45;&gt;dir_efbf91dec8e0e89146a72eada515bf52 -->
<g id="edge21" class="edge">
<title>dir_d665af80335f773f8bfcf2f56b3f3e8a&#45;&gt;dir_efbf91dec8e0e89146a72eada515bf52</title>
<path fill="none" stroke="black" d="M189.65,-268.37C193.2,-278.58 197.2,-291.83 199,-304 205.9,-350.75 195.99,-405.48 188.36,-437.58"/>
<polygon fill="black" stroke="black" points="184.9,-437.01 185.89,-447.56 191.69,-438.69 184.9,-437.01"/>
<g id="a_edge21&#45;headlabel"><a xlink:href="dir_000023_000019.html" target="_top" xlink:title="3">
<text text-anchor="middle" x="183.01" y="-430.34" font-family="Helvetica,sans-Serif" font-size="10.00">3</text>
</a>
</g>
</g>
<!-- dir_d665af80335f773f8bfcf2f56b3f3e8a&#45;&gt;dir_804e9c8a6f85b64a196ad58c4618e191 -->
<g id="edge18" class="edge">
<title>dir_d665af80335f773f8bfcf2f56b3f3e8a&#45;&gt;dir_804e9c8a6f85b64a196ad58c4618e191</title>
<path fill="none" stroke="black" d="M177.33,-231.95C174.03,-221.62 169.95,-208.14 167,-196 155.48,-148.56 171.56,-130.19 147,-88 140.19,-76.3 129.8,-66.01 119.41,-57.68"/>
<polygon fill="black" stroke="black" points="121.23,-54.67 111.14,-51.43 117.01,-60.25 121.23,-54.67"/>
<g id="a_edge18&#45;headlabel"><a xlink:href="dir_000023_000020.html" target="_top" xlink:title="18">
<text text-anchor="middle" x="125.81" y="-52.07" font-family="Helvetica,sans-Serif" font-size="10.00">18</text>
</a>
</g>
</g>
<!-- dir_d665af80335f773f8bfcf2f56b3f3e8a&#45;&gt;dir_3dbe57e65c50a7a17fba27939d267647 -->
<g id="edge16" class="edge">
<title>dir_d665af80335f773f8bfcf2f56b3f3e8a&#45;&gt;dir_3dbe57e65c50a7a17fba27939d267647</title>
<path fill="none" stroke="black" d="M156.88,-268.18C145.42,-277.31 133.19,-289.61 127,-304 118.61,-323.5 120.92,-347.64 124.89,-365.86"/>
<polygon fill="black" stroke="black" points="121.55,-366.95 127.34,-375.82 128.35,-365.27 121.55,-366.95"/>
<g id="a_edge16&#45;headlabel"><a xlink:href="dir_000023_000021.html" target="_top" xlink:title="23">
<text text-anchor="middle" x="117.93" y="-361.63" font-family="Helvetica,sans-Serif" font-size="10.00">23</text>
</a>
</g>
</g>
<!-- dir_d665af80335f773f8bfcf2f56b3f3e8a&#45;&gt;dir_c04391f011249a815ab0ebd9bc734b9b -->
<g id="edge20" class="edge">
<title>dir_d665af80335f773f8bfcf2f56b3f3e8a&#45;&gt;dir_c04391f011249a815ab0ebd9bc734b9b</title>
<path fill="none" stroke="black" d="M189.67,-231.7C192.71,-223.81 196.38,-214.3 199.76,-205.55"/>
<polygon fill="black" stroke="black" points="203.07,-206.69 203.4,-196.1 196.54,-204.17 203.07,-206.69"/>
<g id="a_edge20&#45;headlabel"><a xlink:href="dir_000023_000022.html" target="_top" xlink:title="1">
<text text-anchor="middle" x="204.42" y="-208.57" font-family="Helvetica,sans-Serif" font-size="10.00">1</text>
</a>
</g>
</g>
<!-- dir_d665af80335f773f8bfcf2f56b3f3e8a&#45;&gt;dir_3ac9928fc2e7e2cbc53db7c1a11acda2 -->
<g id="edge15" class="edge">
<title>dir_d665af80335f773f8bfcf2f56b3f3e8a&#45;&gt;dir_3ac9928fc2e7e2cbc53db7c1a11acda2</title>
<path fill="none" stroke="black" d="M184.01,-268.1C182.59,-275.96 180.1,-285.46 177.23,-294.23"/>
<polygon fill="black" stroke="black" points="173.92,-293.1 173.86,-303.7 180.51,-295.45 173.92,-293.1"/>
<g id="a_edge15&#45;headlabel"><a xlink:href="dir_000023_000024.html" target="_top" xlink:title="9">
<text text-anchor="middle" x="172.45" y="-286.26" font-family="Helvetica,sans-Serif" font-size="10.00">9</text>
</a>
</g>
</g>
<!-- dir_d665af80335f773f8bfcf2f56b3f3e8a&#45;&gt;dir_146efcb14c269303f155f454755144b3 -->
<g id="edge14" class="edge">
<title>dir_d665af80335f773f8bfcf2f56b3f3e8a&#45;&gt;dir_146efcb14c269303f155f454755144b3</title>
<path fill="none" stroke="black" d="M172.23,-231.57C166.06,-221.35 158.31,-208.1 152,-196 141.25,-175.38 130.29,-151.41 122.41,-133.54"/>
<polygon fill="black" stroke="black" points="125.59,-132.06 118.37,-124.3 119.17,-134.87 125.59,-132.06"/>
<g id="a_edge14&#45;headlabel"><a xlink:href="dir_000023_000030.html" target="_top" xlink:title="6">
<text text-anchor="middle" x="129.63" y="-131.72" font-family="Helvetica,sans-Serif" font-size="10.00">6</text>
</a>
</g>
</g>
<!-- dir_d665af80335f773f8bfcf2f56b3f3e8a&#45;&gt;dir_a7363e98f9e0bdd87618633653859815 -->
<g id="edge19" class="edge">
<title>dir_d665af80335f773f8bfcf2f56b3f3e8a&#45;&gt;dir_a7363e98f9e0bdd87618633653859815</title>
<path fill="none" stroke="black" d="M208.93,-231.88C222.66,-222.81 239.71,-211.55 254.54,-201.76"/>
<polygon fill="black" stroke="black" points="256.55,-204.62 262.97,-196.19 252.7,-198.78 256.55,-204.62"/>
<g id="a_edge19&#45;headlabel"><a xlink:href="dir_000023_000032.html" target="_top" xlink:title="1">
<text text-anchor="middle" x="255.12" y="-206.47" font-family="Helvetica,sans-Serif" font-size="10.00">1</text>
</a>
</g>
</g>
<!-- dir_d665af80335f773f8bfcf2f56b3f3e8a&#45;&gt;dir_6719ab1f1f7655efc2fa43f7eb574fd1 -->
<g id="edge17" class="edge">
<title>dir_d665af80335f773f8bfcf2f56b3f3e8a&#45;&gt;dir_6719ab1f1f7655efc2fa43f7eb574fd1</title>
<path fill="none" stroke="black" d="M210.14,-246.59C242.46,-242.22 295.73,-230 325,-196 357.43,-158.33 361.48,-97.49 360.75,-62.38"/>
<polygon fill="black" stroke="black" points="364.25,-62.23 360.4,-52.36 357.25,-62.48 364.25,-62.23"/>
<g id="a_edge17&#45;headlabel"><a xlink:href="dir_000023_000000.html" target="_top" xlink:title="32">
<text text-anchor="middle" x="367.21" y="-63.22" font-family="Helvetica,sans-Serif" font-size="10.00">32</text>
</a>
</g>
</g>
<!-- dir_3ac9928fc2e7e2cbc53db7c1a11acda2&#45;&gt;dir_efbf91dec8e0e89146a72eada515bf52 -->
<g id="edge34" class="edge">
<title>dir_3ac9928fc2e7e2cbc53db7c1a11acda2&#45;&gt;dir_efbf91dec8e0e89146a72eada515bf52</title>
<path fill="none" stroke="black" d="M173.13,-340.18C175.69,-350.55 177.47,-364.03 179,-376 181.65,-396.72 184.54,-420.16 185.4,-437.79"/>
<polygon fill="black" stroke="black" points="181.91,-438.02 185.65,-447.93 188.9,-437.85 181.91,-438.02"/>
<g id="a_edge34&#45;headlabel"><a xlink:href="dir_000024_000019.html" target="_top" xlink:title="6">
<text text-anchor="middle" x="178.98" y="-432" font-family="Helvetica,sans-Serif" font-size="10.00">6</text>
</a>
</g>
</g>
<!-- dir_3ac9928fc2e7e2cbc53db7c1a11acda2&#45;&gt;dir_804e9c8a6f85b64a196ad58c4618e191 -->
<g id="edge31" class="edge">
<title>dir_3ac9928fc2e7e2cbc53db7c1a11acda2&#45;&gt;dir_804e9c8a6f85b64a196ad58c4618e191</title>
<path fill="none" stroke="black" d="M149.07,-303.61C141.53,-293.61 132.47,-280.57 126,-268 94.95,-207.62 86.5,-190.91 75,-124 71.47,-103.47 74.11,-80.01 77.43,-62.34"/>
<polygon fill="black" stroke="black" points="80.93,-62.66 79.53,-52.16 74.08,-61.24 80.93,-62.66"/>
<g id="a_edge31&#45;headlabel"><a xlink:href="dir_000024_000020.html" target="_top" xlink:title="11">
<text text-anchor="middle" x="82.99" y="-64.25" font-family="Helvetica,sans-Serif" font-size="10.00">11</text>
</a>
</g>
</g>
<!-- dir_3ac9928fc2e7e2cbc53db7c1a11acda2&#45;&gt;dir_3dbe57e65c50a7a17fba27939d267647 -->
<g id="edge29" class="edge">
<title>dir_3ac9928fc2e7e2cbc53db7c1a11acda2&#45;&gt;dir_3dbe57e65c50a7a17fba27939d267647</title>
<path fill="none" stroke="black" d="M161.56,-340.1C158.99,-348.04 155.09,-357.67 150.92,-366.51"/>
<polygon fill="black" stroke="black" points="147.67,-365.19 146.33,-375.7 153.93,-368.32 147.67,-365.19"/>
<g id="a_edge29&#45;headlabel"><a xlink:href="dir_000024_000021.html" target="_top" xlink:title="9">
<text text-anchor="middle" x="146.74" y="-358.2" font-family="Helvetica,sans-Serif" font-size="10.00">9</text>
</a>
</g>
</g>
<!-- dir_3ac9928fc2e7e2cbc53db7c1a11acda2&#45;&gt;dir_c04391f011249a815ab0ebd9bc734b9b -->
<g id="edge32" class="edge">
<title>dir_3ac9928fc2e7e2cbc53db7c1a11acda2&#45;&gt;dir_c04391f011249a815ab0ebd9bc734b9b</title>
<path fill="none" stroke="black" d="M154.08,-303.82C145.76,-285.3 136.13,-255.34 147,-232 152.43,-220.34 161.82,-210.34 171.72,-202.26"/>
<polygon fill="black" stroke="black" points="173.85,-205.03 179.7,-196.2 169.62,-199.45 173.85,-205.03"/>
<g id="a_edge32&#45;headlabel"><a xlink:href="dir_000024_000022.html" target="_top" xlink:title="2">
<text text-anchor="middle" x="172.71" y="-206.96" font-family="Helvetica,sans-Serif" font-size="10.00">2</text>
</a>
</g>
</g>
<!-- dir_3ac9928fc2e7e2cbc53db7c1a11acda2&#45;&gt;dir_d665af80335f773f8bfcf2f56b3f3e8a -->
<g id="edge33" class="edge">
<title>dir_3ac9928fc2e7e2cbc53db7c1a11acda2&#45;&gt;dir_d665af80335f773f8bfcf2f56b3f3e8a</title>
<path fill="none" stroke="black" d="M162.03,-303.7C163.47,-295.81 165.97,-286.3 168.84,-277.55"/>
<polygon fill="black" stroke="black" points="172.15,-278.7 172.22,-268.1 165.56,-276.34 172.15,-278.7"/>
<g id="a_edge33&#45;headlabel"><a xlink:href="dir_000024_000023.html" target="_top" xlink:title="4">
<text text-anchor="middle" x="173.61" y="-280.54" font-family="Helvetica,sans-Serif" font-size="10.00">4</text>
</a>
</g>
</g>
<!-- dir_3ac9928fc2e7e2cbc53db7c1a11acda2&#45;&gt;dir_146efcb14c269303f155f454755144b3 -->
<g id="edge28" class="edge">
<title>dir_3ac9928fc2e7e2cbc53db7c1a11acda2&#45;&gt;dir_146efcb14c269303f155f454755144b3</title>
<path fill="none" stroke="black" d="M145.98,-303.77C139.8,-293.61 133.8,-280.36 130,-268 115.9,-222.2 108.22,-166.75 107.21,-134.32"/>
<polygon fill="black" stroke="black" points="110.71,-134.22 107.12,-124.25 103.71,-134.28 110.71,-134.22"/>
<g id="a_edge28&#45;headlabel"><a xlink:href="dir_000024_000030.html" target="_top" xlink:title="7">
<text text-anchor="middle" x="113.58" y="-135.29" font-family="Helvetica,sans-Serif" font-size="10.00">7</text>
</a>
</g>
</g>
<!-- dir_3ac9928fc2e7e2cbc53db7c1a11acda2&#45;&gt;dir_6719ab1f1f7655efc2fa43f7eb574fd1 -->
<g id="edge30" class="edge">
<title>dir_3ac9928fc2e7e2cbc53db7c1a11acda2&#45;&gt;dir_6719ab1f1f7655efc2fa43f7eb574fd1</title>
<path fill="none" stroke="black" d="M190.01,-310.31C230.83,-292.74 307.83,-253.85 349,-196 377.18,-156.4 371.75,-96.5 365.33,-62.02"/>
<polygon fill="black" stroke="black" points="368.75,-61.3 363.34,-52.19 361.89,-62.69 368.75,-61.3"/>
<g id="a_edge30&#45;headlabel"><a xlink:href="dir_000024_000000.html" target="_top" xlink:title="130">
<text text-anchor="middle" x="372.25" y="-61.76" font-family="Helvetica,sans-Serif" font-size="10.00">130</text>
</a>
</g>
</g>
<!-- dir_146efcb14c269303f155f454755144b3&#45;&gt;dir_804e9c8a6f85b64a196ad58c4618e191 -->
<g id="edge13" class="edge">
<title>dir_146efcb14c269303f155f454755144b3&#45;&gt;dir_804e9c8a6f85b64a196ad58c4618e191</title>
<path fill="none" stroke="black" d="M104.33,-87.7C101.29,-79.81 97.62,-70.3 94.24,-61.55"/>
<polygon fill="black" stroke="black" points="97.46,-60.17 90.6,-52.1 90.93,-62.69 97.46,-60.17"/>
<g id="a_edge13&#45;headlabel"><a xlink:href="dir_000030_000020.html" target="_top" xlink:title="6">
<text text-anchor="middle" x="101.4" y="-60.01" font-family="Helvetica,sans-Serif" font-size="10.00">6</text>
</a>
</g>
</g>
<!-- dir_146efcb14c269303f155f454755144b3&#45;&gt;dir_3ac9928fc2e7e2cbc53db7c1a11acda2 -->
<g id="edge11" class="edge">
<title>dir_146efcb14c269303f155f454755144b3&#45;&gt;dir_3ac9928fc2e7e2cbc53db7c1a11acda2</title>
<path fill="none" stroke="black" d="M117.99,-124.25C124.56,-154.09 132.3,-217.02 148,-268 150.7,-276.78 154.52,-286.02 157.91,-294.28"/>
<polygon fill="black" stroke="black" points="154.75,-295.8 161.73,-303.77 161.24,-293.18 154.75,-295.8"/>
<g id="a_edge11&#45;headlabel"><a xlink:href="dir_000030_000024.html" target="_top" xlink:title="4">
<text text-anchor="middle" x="150.77" y="-291.02" font-family="Helvetica,sans-Serif" font-size="10.00">4</text>
</a>
</g>
</g>
<!-- dir_146efcb14c269303f155f454755144b3&#45;&gt;dir_6719ab1f1f7655efc2fa43f7eb574fd1 -->
<g id="edge12" class="edge">
<title>dir_146efcb14c269303f155f454755144b3&#45;&gt;dir_6719ab1f1f7655efc2fa43f7eb574fd1</title>
<path fill="none" stroke="black" d="M138.08,-100.74C177.96,-93.97 254.73,-79.05 322.33,-54.02"/>
<polygon fill="black" stroke="black" points="323.7,-57.24 331.8,-50.42 321.21,-50.7 323.7,-57.24"/>
<g id="a_edge12&#45;headlabel"><a xlink:href="dir_000030_000000.html" target="_top" xlink:title="3">
<text text-anchor="middle" x="321.35" y="-58.67" font-family="Helvetica,sans-Serif" font-size="10.00">3</text>
</a>
</g>
</g>
<!-- dir_a7363e98f9e0bdd87618633653859815&#45;&gt;dir_804e9c8a6f85b64a196ad58c4618e191 -->
<g id="edge3" class="edge">
<title>dir_a7363e98f9e0bdd87618633653859815&#45;&gt;dir_804e9c8a6f85b64a196ad58c4618e191</title>
<path fill="none" stroke="black" d="M264.73,-159.83C239.22,-141.83 197.9,-112.77 162,-88 147.63,-78.08 131.7,-67.23 118,-57.95"/>
<polygon fill="black" stroke="black" points="119.6,-54.8 109.36,-52.09 115.67,-60.6 119.6,-54.8"/>
<g id="a_edge3&#45;headlabel"><a xlink:href="dir_000032_000020.html" target="_top" xlink:title="2">
<text text-anchor="middle" x="124.17" y="-51.97" font-family="Helvetica,sans-Serif" font-size="10.00">2</text>
</a>
</g>
</g>
<!-- dir_a7363e98f9e0bdd87618633653859815&#45;&gt;dir_3ac9928fc2e7e2cbc53db7c1a11acda2 -->
<g id="edge1" class="edge">
<title>dir_a7363e98f9e0bdd87618633653859815&#45;&gt;dir_3ac9928fc2e7e2cbc53db7c1a11acda2</title>
<path fill="none" stroke="black" d="M276.55,-196.33C263.07,-214.72 240.6,-244.33 219,-268 209.89,-277.99 199.25,-288.34 189.71,-297.22"/>
<polygon fill="black" stroke="black" points="187.33,-294.65 182.34,-303.99 192.07,-299.8 187.33,-294.65"/>
<g id="a_edge1&#45;headlabel"><a xlink:href="dir_000032_000024.html" target="_top" xlink:title="6">
<text text-anchor="middle" x="188.06" y="-287.63" font-family="Helvetica,sans-Serif" font-size="10.00">6</text>
</a>
</g>
</g>
<!-- dir_a7363e98f9e0bdd87618633653859815&#45;&gt;dir_6719ab1f1f7655efc2fa43f7eb574fd1 -->
<g id="edge2" class="edge">
<title>dir_a7363e98f9e0bdd87618633653859815&#45;&gt;dir_6719ab1f1f7655efc2fa43f7eb574fd1</title>
<path fill="none" stroke="black" d="M296.51,-159.77C304.48,-141.72 317.61,-112.62 330,-88 334.5,-79.06 339.68,-69.41 344.4,-60.83"/>
<polygon fill="black" stroke="black" points="347.5,-62.47 349.29,-52.03 341.38,-59.07 347.5,-62.47"/>
<g id="a_edge2&#45;headlabel"><a xlink:href="dir_000032_000000.html" target="_top" xlink:title="2">
<text text-anchor="middle" x="348.23" y="-64.49" font-family="Helvetica,sans-Serif" font-size="10.00">2</text>
</a>
</g>
</g>
</g>
</svg>
