<?xml version="1.0" encoding="UTF-8" standalone="no"?>
<!DOCTYPE svg PUBLIC "-//W3C//DTD SVG 1.1//EN"
 "http://www.w3.org/Graphics/SVG/1.1/DTD/svg11.dtd">
<!-- Generated by graphviz version 2.44.0 ()
 -->
<!-- Title: src/Scenes Pages: 1 -->
<svg width="450pt" height="527pt"
 viewBox="0.00 0.00 450.00 527.00" xmlns="http://www.w3.org/2000/svg" xmlns:xlink="http://www.w3.org/1999/xlink">
<g id="graph0" class="graph" transform="scale(1 1) rotate(0) translate(4 523)">
<title>src/Scenes</title>
<g id="clust1" class="cluster">
<title>clusterdir_68267d1309a1af8e8297ef4c3efbcdba</title>
<g id="a_clust1"><a xlink:href="dir_68267d1309a1af8e8297ef4c3efbcdba.html" target="_top" xlink:title="src">
<polygon fill="#ddddee" stroke="black" points="8,-8 8,-511 308,-511 308,-8 8,-8"/>
<text text-anchor="middle" x="158" y="-499" font-family="Helvetica,sans-Serif" font-size="10.00">src</text>
</a>
</g>
</g>
<!-- dir_146efcb14c269303f155f454755144b3 -->
<g id="node1" class="node">
<title>dir_146efcb14c269303f155f454755144b3</title>
<g id="a_node1"><a xlink:href="dir_146efcb14c269303f155f454755144b3.html" target="_top" xlink:title="Structs">
<polygon fill="none" stroke="black" points="230,-412 176,-412 176,-376 230,-376 230,-412"/>
<text text-anchor="middle" x="203" y="-391.5" font-family="Helvetica,sans-Serif" font-size="10.00">Structs</text>
</a>
</g>
</g>
<!-- dir_3ac9928fc2e7e2cbc53db7c1a11acda2 -->
<g id="node2" class="node">
<title>dir_3ac9928fc2e7e2cbc53db7c1a11acda2</title>
<g id="a_node2"><a xlink:href="dir_3ac9928fc2e7e2cbc53db7c1a11acda2.html" target="_top" xlink:title="Scripts">
<polygon fill="none" stroke="red" points="240,-340 186,-340 186,-304 240,-304 240,-340"/>
<text text-anchor="middle" x="213" y="-319.5" font-family="Helvetica,sans-Serif" font-size="10.00">Scripts</text>
</a>
</g>
</g>
<!-- dir_146efcb14c269303f155f454755144b3&#45;&gt;dir_3ac9928fc2e7e2cbc53db7c1a11acda2 -->
<g id="edge11" class="edge">
<title>dir_146efcb14c269303f155f454755144b3&#45;&gt;dir_3ac9928fc2e7e2cbc53db7c1a11acda2</title>
<path fill="none" stroke="black" d="M199.56,-375.7C199.86,-367.98 200.96,-358.71 202.53,-350.11"/>
<polygon fill="black" stroke="black" points="206,-350.61 204.66,-340.1 199.16,-349.16 206,-350.61"/>
<g id="a_edge11&#45;headlabel"><a xlink:href="dir_000026_000020.html" target="_top" xlink:title="4">
<text text-anchor="middle" x="208.03" y="-352.22" font-family="Helvetica,sans-Serif" font-size="10.00">4</text>
</a>
</g>
</g>
<!-- dir_804e9c8a6f85b64a196ad58c4618e191 -->
<g id="node4" class="node">
<title>dir_804e9c8a6f85b64a196ad58c4618e191</title>
<g id="a_node4"><a xlink:href="dir_804e9c8a6f85b64a196ad58c4618e191.html" target="_top" xlink:title="Enums">
<polygon fill="none" stroke="black" points="108,-52 54,-52 54,-16 108,-16 108,-52"/>
<text text-anchor="middle" x="81" y="-31.5" font-family="Helvetica,sans-Serif" font-size="10.00">Enums</text>
</a>
</g>
</g>
<!-- dir_146efcb14c269303f155f454755144b3&#45;&gt;dir_804e9c8a6f85b64a196ad58c4618e191 -->
<g id="edge13" class="edge">
<title>dir_146efcb14c269303f155f454755144b3&#45;&gt;dir_804e9c8a6f85b64a196ad58c4618e191</title>
<path fill="none" stroke="black" d="M175.78,-378.72C159.28,-369.21 138.5,-355.6 123,-340 96.07,-312.89 91.29,-303.02 76,-268 43.85,-194.36 42.75,-166.7 59,-88 60.85,-79.02 64.22,-69.65 67.76,-61.33"/>
<polygon fill="black" stroke="black" points="70.99,-62.69 71.93,-52.13 64.62,-59.8 70.99,-62.69"/>
<g id="a_edge13&#45;headlabel"><a xlink:href="dir_000026_000016.html" target="_top" xlink:title="6">
<text text-anchor="middle" x="72.1" y="-64.63" font-family="Helvetica,sans-Serif" font-size="10.00">6</text>
</a>
</g>
</g>
<!-- dir_6719ab1f1f7655efc2fa43f7eb574fd1 -->
<g id="node9" class="node">
<title>dir_6719ab1f1f7655efc2fa43f7eb574fd1</title>
<g id="a_node9"><a xlink:href="dir_6719ab1f1f7655efc2fa43f7eb574fd1.html" target="_top" xlink:title="libs">
<polygon fill="none" stroke="red" points="370,-52 316,-52 316,-16 370,-16 370,-52"/>
<text text-anchor="middle" x="343" y="-31.5" font-family="Helvetica,sans-Serif" font-size="10.00">libs</text>
</a>
</g>
</g>
<!-- dir_146efcb14c269303f155f454755144b3&#45;&gt;dir_6719ab1f1f7655efc2fa43f7eb574fd1 -->
<g id="edge12" class="edge">
<title>dir_146efcb14c269303f155f454755144b3&#45;&gt;dir_6719ab1f1f7655efc2fa43f7eb574fd1</title>
<path fill="none" stroke="black" d="M230.11,-387.26C284.97,-373.89 404,-335.17 404,-251 404,-251 404,-251 404,-177 404,-133.61 379.66,-88.37 361.73,-60.94"/>
<polygon fill="black" stroke="black" points="364.43,-58.68 355.94,-52.34 358.62,-62.59 364.43,-58.68"/>
<g id="a_edge12&#45;headlabel"><a xlink:href="dir_000026_000000.html" target="_top" xlink:title="3">
<text text-anchor="middle" x="368.79" y="-57.58" font-family="Helvetica,sans-Serif" font-size="10.00">3</text>
</a>
</g>
</g>
<!-- dir_3ac9928fc2e7e2cbc53db7c1a11acda2&#45;&gt;dir_146efcb14c269303f155f454755144b3 -->
<g id="edge30" class="edge">
<title>dir_3ac9928fc2e7e2cbc53db7c1a11acda2&#45;&gt;dir_146efcb14c269303f155f454755144b3</title>
<path fill="none" stroke="black" d="M216.45,-340.1C216.16,-347.79 215.07,-357.05 213.51,-365.67"/>
<polygon fill="black" stroke="black" points="210.03,-365.19 211.39,-375.7 216.88,-366.64 210.03,-365.19"/>
<g id="a_edge30&#45;headlabel"><a xlink:href="dir_000020_000026.html" target="_top" xlink:title="6">
<text text-anchor="middle" x="208" y="-358.58" font-family="Helvetica,sans-Serif" font-size="10.00">6</text>
</a>
</g>
</g>
<!-- dir_3dbe57e65c50a7a17fba27939d267647 -->
<g id="node3" class="node">
<title>dir_3dbe57e65c50a7a17fba27939d267647</title>
<g id="a_node3"><a xlink:href="dir_3dbe57e65c50a7a17fba27939d267647.html" target="_top" xlink:title="Factories">
<polygon fill="none" stroke="black" points="133.5,-196 76.5,-196 76.5,-160 133.5,-160 133.5,-196"/>
<text text-anchor="middle" x="105" y="-175.5" font-family="Helvetica,sans-Serif" font-size="10.00">Factories</text>
</a>
</g>
</g>
<!-- dir_3ac9928fc2e7e2cbc53db7c1a11acda2&#45;&gt;dir_3dbe57e65c50a7a17fba27939d267647 -->
<g id="edge31" class="edge">
<title>dir_3ac9928fc2e7e2cbc53db7c1a11acda2&#45;&gt;dir_3dbe57e65c50a7a17fba27939d267647</title>
<path fill="none" stroke="black" d="M185.96,-313.79C164,-305.7 134.54,-290.67 118,-268 104.84,-249.97 99.5,-224.98 98.84,-206.07"/>
<polygon fill="black" stroke="black" points="102.34,-206.04 98.95,-196.01 95.34,-205.97 102.34,-206.04"/>
<g id="a_edge31&#45;headlabel"><a xlink:href="dir_000020_000017.html" target="_top" xlink:title="10">
<text text-anchor="middle" x="105.14" y="-207.17" font-family="Helvetica,sans-Serif" font-size="10.00">10</text>
</a>
</g>
</g>
<!-- dir_3ac9928fc2e7e2cbc53db7c1a11acda2&#45;&gt;dir_804e9c8a6f85b64a196ad58c4618e191 -->
<g id="edge33" class="edge">
<title>dir_3ac9928fc2e7e2cbc53db7c1a11acda2&#45;&gt;dir_804e9c8a6f85b64a196ad58c4618e191</title>
<path fill="none" stroke="black" d="M185.77,-312.29C162.86,-303.87 130.34,-289.25 108,-268 81.32,-242.62 76.43,-231.6 67,-196 54.87,-150.19 64.84,-94.74 73.03,-62.32"/>
<polygon fill="black" stroke="black" points="76.52,-62.81 75.7,-52.25 69.75,-61.02 76.52,-62.81"/>
<g id="a_edge33&#45;headlabel"><a xlink:href="dir_000020_000016.html" target="_top" xlink:title="12">
<text text-anchor="middle" x="78.34" y="-64.52" font-family="Helvetica,sans-Serif" font-size="10.00">12</text>
</a>
</g>
</g>
<!-- dir_a7363e98f9e0bdd87618633653859815 -->
<g id="node5" class="node">
<title>dir_a7363e98f9e0bdd87618633653859815</title>
<g id="a_node5"><a xlink:href="dir_a7363e98f9e0bdd87618633653859815.html" target="_top" xlink:title="Utils">
<polygon fill="none" stroke="black" points="224,-124 170,-124 170,-88 224,-88 224,-124"/>
<text text-anchor="middle" x="197" y="-103.5" font-family="Helvetica,sans-Serif" font-size="10.00">Utils</text>
</a>
</g>
</g>
<!-- dir_3ac9928fc2e7e2cbc53db7c1a11acda2&#45;&gt;dir_a7363e98f9e0bdd87618633653859815 -->
<g id="edge34" class="edge">
<title>dir_3ac9928fc2e7e2cbc53db7c1a11acda2&#45;&gt;dir_a7363e98f9e0bdd87618633653859815</title>
<path fill="none" stroke="black" d="M205.74,-303.91C202.79,-285.96 201.43,-256.95 199,-232 197.43,-215.92 195.66,-212.07 194,-196 191.87,-175.33 190.33,-151.89 190.63,-134.25"/>
<polygon fill="black" stroke="black" points="194.14,-134.23 191.07,-124.09 187.14,-133.93 194.14,-134.23"/>
<g id="a_edge34&#45;headlabel"><a xlink:href="dir_000020_000027.html" target="_top" xlink:title="25">
<text text-anchor="middle" x="196.82" y="-135.45" font-family="Helvetica,sans-Serif" font-size="10.00">25</text>
</a>
</g>
</g>
<!-- dir_c04391f011249a815ab0ebd9bc734b9b -->
<g id="node6" class="node">
<title>dir_c04391f011249a815ab0ebd9bc734b9b</title>
<g id="a_node6"><a xlink:href="dir_c04391f011249a815ab0ebd9bc734b9b.html" target="_top" xlink:title="Persistence">
<polygon fill="none" stroke="black" points="280,-196 212,-196 212,-160 280,-160 280,-196"/>
<text text-anchor="middle" x="246" y="-175.5" font-family="Helvetica,sans-Serif" font-size="10.00">Persistence</text>
</a>
</g>
</g>
<!-- dir_3ac9928fc2e7e2cbc53db7c1a11acda2&#45;&gt;dir_c04391f011249a815ab0ebd9bc734b9b -->
<g id="edge35" class="edge">
<title>dir_3ac9928fc2e7e2cbc53db7c1a11acda2&#45;&gt;dir_c04391f011249a815ab0ebd9bc734b9b</title>
<path fill="none" stroke="black" d="M216.98,-303.87C222.63,-279.56 233.03,-234.82 239.72,-206.01"/>
<polygon fill="black" stroke="black" points="243.15,-206.72 242.01,-196.19 236.33,-205.14 243.15,-206.72"/>
<g id="a_edge35&#45;headlabel"><a xlink:href="dir_000020_000018.html" target="_top" xlink:title="2">
<text text-anchor="middle" x="245.1" y="-208.37" font-family="Helvetica,sans-Serif" font-size="10.00">2</text>
</a>
</g>
</g>
<!-- dir_efbf91dec8e0e89146a72eada515bf52 -->
<g id="node7" class="node">
<title>dir_efbf91dec8e0e89146a72eada515bf52</title>
<g id="a_node7"><a xlink:href="dir_efbf91dec8e0e89146a72eada515bf52.html" target="_top" xlink:title="Controllers">
<polygon fill="none" stroke="black" points="199.5,-268 136.5,-268 136.5,-232 199.5,-232 199.5,-268"/>
<text text-anchor="middle" x="168" y="-247.5" font-family="Helvetica,sans-Serif" font-size="10.00">Controllers</text>
</a>
</g>
</g>
<!-- dir_3ac9928fc2e7e2cbc53db7c1a11acda2&#45;&gt;dir_efbf91dec8e0e89146a72eada515bf52 -->
<g id="edge36" class="edge">
<title>dir_3ac9928fc2e7e2cbc53db7c1a11acda2&#45;&gt;dir_efbf91dec8e0e89146a72eada515bf52</title>
<path fill="none" stroke="black" d="M195.96,-303.7C189.95,-295.64 183.48,-285.89 178.16,-276.98"/>
<polygon fill="black" stroke="black" points="181.09,-275.06 173.1,-268.1 175.01,-278.53 181.09,-275.06"/>
<g id="a_edge36&#45;headlabel"><a xlink:href="dir_000020_000015.html" target="_top" xlink:title="5">
<text text-anchor="middle" x="185.34" y="-274.28" font-family="Helvetica,sans-Serif" font-size="10.00">5</text>
</a>
</g>
</g>
<!-- dir_3ac9928fc2e7e2cbc53db7c1a11acda2&#45;&gt;dir_6719ab1f1f7655efc2fa43f7eb574fd1 -->
<g id="edge32" class="edge">
<title>dir_3ac9928fc2e7e2cbc53db7c1a11acda2&#45;&gt;dir_6719ab1f1f7655efc2fa43f7eb574fd1</title>
<path fill="none" stroke="black" d="M231.72,-303.76C264.35,-272.06 329.72,-200.7 346,-124 350.33,-103.62 349.26,-80.02 347.29,-62.25"/>
<polygon fill="black" stroke="black" points="350.76,-61.75 346.02,-52.28 343.81,-62.64 350.76,-61.75"/>
<g id="a_edge32&#45;headlabel"><a xlink:href="dir_000020_000000.html" target="_top" xlink:title="100">
<text text-anchor="middle" x="354.03" y="-62.46" font-family="Helvetica,sans-Serif" font-size="10.00">100</text>
</a>
</g>
</g>
<!-- dir_3dbe57e65c50a7a17fba27939d267647&#45;&gt;dir_146efcb14c269303f155f454755144b3 -->
<g id="edge25" class="edge">
<title>dir_3dbe57e65c50a7a17fba27939d267647&#45;&gt;dir_146efcb14c269303f155f454755144b3</title>
<path fill="none" stroke="black" d="M102.56,-196.3C100.65,-214.67 99.55,-244.26 108,-268 122.18,-307.86 154.08,-345.33 177.01,-368.66"/>
<polygon fill="black" stroke="black" points="174.55,-371.15 184.1,-375.72 179.49,-366.19 174.55,-371.15"/>
<g id="a_edge25&#45;headlabel"><a xlink:href="dir_000017_000026.html" target="_top" xlink:title="1">
<text text-anchor="middle" x="170" y="-368.13" font-family="Helvetica,sans-Serif" font-size="10.00">1</text>
</a>
</g>
</g>
<!-- dir_3dbe57e65c50a7a17fba27939d267647&#45;&gt;dir_3ac9928fc2e7e2cbc53db7c1a11acda2 -->
<g id="edge26" class="edge">
<title>dir_3dbe57e65c50a7a17fba27939d267647&#45;&gt;dir_3ac9928fc2e7e2cbc53db7c1a11acda2</title>
<path fill="none" stroke="black" d="M111.95,-196.01C115.74,-215.2 120.33,-246.53 136,-268 146.53,-282.43 162.3,-293.77 176.9,-302.19"/>
<polygon fill="black" stroke="black" points="175.33,-305.32 185.78,-307.06 178.69,-299.18 175.33,-305.32"/>
<g id="a_edge26&#45;headlabel"><a xlink:href="dir_000017_000020.html" target="_top" xlink:title="20">
<text text-anchor="middle" x="170.81" y="-303.58" font-family="Helvetica,sans-Serif" font-size="10.00">20</text>
</a>
</g>
</g>
<!-- dir_3dbe57e65c50a7a17fba27939d267647&#45;&gt;dir_804e9c8a6f85b64a196ad58c4618e191 -->
<g id="edge28" class="edge">
<title>dir_3dbe57e65c50a7a17fba27939d267647&#45;&gt;dir_804e9c8a6f85b64a196ad58c4618e191</title>
<path fill="none" stroke="black" d="M102.11,-159.87C98.01,-135.67 90.5,-91.21 85.63,-62.39"/>
<polygon fill="black" stroke="black" points="89.02,-61.47 83.91,-52.19 82.12,-62.63 89.02,-61.47"/>
<g id="a_edge28&#45;headlabel"><a xlink:href="dir_000017_000016.html" target="_top" xlink:title="20">
<text text-anchor="middle" x="92.42" y="-62.04" font-family="Helvetica,sans-Serif" font-size="10.00">20</text>
</a>
</g>
</g>
<!-- dir_3dbe57e65c50a7a17fba27939d267647&#45;&gt;dir_a7363e98f9e0bdd87618633653859815 -->
<g id="edge29" class="edge">
<title>dir_3dbe57e65c50a7a17fba27939d267647&#45;&gt;dir_a7363e98f9e0bdd87618633653859815</title>
<path fill="none" stroke="black" d="M127.74,-159.7C139.44,-150.8 153.86,-139.82 166.51,-130.2"/>
<polygon fill="black" stroke="black" points="168.68,-132.94 174.52,-124.1 164.44,-127.37 168.68,-132.94"/>
<g id="a_edge29&#45;headlabel"><a xlink:href="dir_000017_000027.html" target="_top" xlink:title="12">
<text text-anchor="middle" x="167.54" y="-134.88" font-family="Helvetica,sans-Serif" font-size="10.00">12</text>
</a>
</g>
</g>
<!-- dir_3dbe57e65c50a7a17fba27939d267647&#45;&gt;dir_6719ab1f1f7655efc2fa43f7eb574fd1 -->
<g id="edge27" class="edge">
<title>dir_3dbe57e65c50a7a17fba27939d267647&#45;&gt;dir_6719ab1f1f7655efc2fa43f7eb574fd1</title>
<path fill="none" stroke="black" d="M133.57,-167.83C160.27,-158.66 200.75,-143.18 233,-124 235.22,-122.68 282.15,-84.56 313.98,-58.65"/>
<polygon fill="black" stroke="black" points="316.57,-61.05 322.11,-52.02 312.15,-55.63 316.57,-61.05"/>
<g id="a_edge27&#45;headlabel"><a xlink:href="dir_000017_000000.html" target="_top" xlink:title="26">
<text text-anchor="middle" x="315.57" y="-63.02" font-family="Helvetica,sans-Serif" font-size="10.00">26</text>
</a>
</g>
</g>
<!-- dir_a7363e98f9e0bdd87618633653859815&#45;&gt;dir_3ac9928fc2e7e2cbc53db7c1a11acda2 -->
<g id="edge1" class="edge">
<title>dir_a7363e98f9e0bdd87618633653859815&#45;&gt;dir_3ac9928fc2e7e2cbc53db7c1a11acda2</title>
<path fill="none" stroke="black" d="M204.51,-124.09C207.71,-142.03 209.43,-171.04 212,-196 213.66,-212.07 215.43,-215.92 217,-232 219.01,-252.66 220.29,-276.11 219.75,-293.75"/>
<polygon fill="black" stroke="black" points="216.25,-293.72 219.17,-303.91 223.24,-294.12 216.25,-293.72"/>
<g id="a_edge1&#45;headlabel"><a xlink:href="dir_000027_000020.html" target="_top" xlink:title="6">
<text text-anchor="middle" x="213.62" y="-287.47" font-family="Helvetica,sans-Serif" font-size="10.00">6</text>
</a>
</g>
</g>
<!-- dir_a7363e98f9e0bdd87618633653859815&#45;&gt;dir_804e9c8a6f85b64a196ad58c4618e191 -->
<g id="edge3" class="edge">
<title>dir_a7363e98f9e0bdd87618633653859815&#45;&gt;dir_804e9c8a6f85b64a196ad58c4618e191</title>
<path fill="none" stroke="black" d="M169.8,-88.59C153.95,-79.02 133.77,-66.85 116.66,-56.52"/>
<polygon fill="black" stroke="black" points="118.4,-53.48 108.03,-51.31 114.78,-59.47 118.4,-53.48"/>
<g id="a_edge3&#45;headlabel"><a xlink:href="dir_000027_000016.html" target="_top" xlink:title="2">
<text text-anchor="middle" x="122.94" y="-50.41" font-family="Helvetica,sans-Serif" font-size="10.00">2</text>
</a>
</g>
</g>
<!-- dir_a7363e98f9e0bdd87618633653859815&#45;&gt;dir_6719ab1f1f7655efc2fa43f7eb574fd1 -->
<g id="edge2" class="edge">
<title>dir_a7363e98f9e0bdd87618633653859815&#45;&gt;dir_6719ab1f1f7655efc2fa43f7eb574fd1</title>
<path fill="none" stroke="black" d="M224.21,-93.1C245.56,-83.63 276.21,-69.72 306.67,-54.63"/>
<polygon fill="black" stroke="black" points="308.29,-57.73 315.67,-50.12 305.16,-51.47 308.29,-57.73"/>
<g id="a_edge2&#45;headlabel"><a xlink:href="dir_000027_000000.html" target="_top" xlink:title="5">
<text text-anchor="middle" x="306.35" y="-59.37" font-family="Helvetica,sans-Serif" font-size="10.00">5</text>
</a>
</g>
</g>
<!-- dir_c04391f011249a815ab0ebd9bc734b9b&#45;&gt;dir_146efcb14c269303f155f454755144b3 -->
<g id="edge22" class="edge">
<title>dir_c04391f011249a815ab0ebd9bc734b9b&#45;&gt;dir_146efcb14c269303f155f454755144b3</title>
<path fill="none" stroke="black" d="M250.31,-196.14C257.04,-226.34 267.48,-290.5 249,-340 245.12,-350.38 238.2,-360.07 230.88,-368.26"/>
<polygon fill="black" stroke="black" points="228.22,-365.97 223.82,-375.62 233.27,-370.82 228.22,-365.97"/>
<g id="a_edge22&#45;headlabel"><a xlink:href="dir_000018_000026.html" target="_top" xlink:title="4">
<text text-anchor="middle" x="228.65" y="-358.91" font-family="Helvetica,sans-Serif" font-size="10.00">4</text>
</a>
</g>
</g>
<!-- dir_c04391f011249a815ab0ebd9bc734b9b&#45;&gt;dir_a7363e98f9e0bdd87618633653859815 -->
<g id="edge24" class="edge">
<title>dir_c04391f011249a815ab0ebd9bc734b9b&#45;&gt;dir_a7363e98f9e0bdd87618633653859815</title>
<path fill="none" stroke="black" d="M233.89,-159.7C228.13,-151.47 221.14,-141.48 214.79,-132.42"/>
<polygon fill="black" stroke="black" points="217.58,-130.29 208.97,-124.1 211.84,-134.3 217.58,-130.29"/>
<g id="a_edge24&#45;headlabel"><a xlink:href="dir_000018_000027.html" target="_top" xlink:title="1">
<text text-anchor="middle" x="221.96" y="-129.11" font-family="Helvetica,sans-Serif" font-size="10.00">1</text>
</a>
</g>
</g>
<!-- dir_c04391f011249a815ab0ebd9bc734b9b&#45;&gt;dir_6719ab1f1f7655efc2fa43f7eb574fd1 -->
<g id="edge23" class="edge">
<title>dir_c04391f011249a815ab0ebd9bc734b9b&#45;&gt;dir_6719ab1f1f7655efc2fa43f7eb574fd1</title>
<path fill="none" stroke="black" d="M257.7,-159.87C274.6,-135.14 305.95,-89.24 325.57,-60.51"/>
<polygon fill="black" stroke="black" points="328.51,-62.42 331.26,-52.19 322.73,-58.47 328.51,-62.42"/>
<g id="a_edge23&#45;headlabel"><a xlink:href="dir_000018_000000.html" target="_top" xlink:title="3">
<text text-anchor="middle" x="328.82" y="-64.49" font-family="Helvetica,sans-Serif" font-size="10.00">3</text>
</a>
</g>
</g>
<!-- dir_efbf91dec8e0e89146a72eada515bf52&#45;&gt;dir_146efcb14c269303f155f454755144b3 -->
<g id="edge4" class="edge">
<title>dir_efbf91dec8e0e89146a72eada515bf52&#45;&gt;dir_146efcb14c269303f155f454755144b3</title>
<path fill="none" stroke="black" d="M167.95,-268.07C168.3,-286.23 170.04,-315.66 177,-340 179.62,-349.16 183.77,-358.66 187.99,-367.05"/>
<polygon fill="black" stroke="black" points="184.93,-368.76 192.7,-375.96 191.12,-365.48 184.93,-368.76"/>
<g id="a_edge4&#45;headlabel"><a xlink:href="dir_000015_000026.html" target="_top" xlink:title="10">
<text text-anchor="middle" x="180.74" y="-364.41" font-family="Helvetica,sans-Serif" font-size="10.00">10</text>
</a>
</g>
</g>
<!-- dir_efbf91dec8e0e89146a72eada515bf52&#45;&gt;dir_3ac9928fc2e7e2cbc53db7c1a11acda2 -->
<g id="edge5" class="edge">
<title>dir_efbf91dec8e0e89146a72eada515bf52&#45;&gt;dir_3ac9928fc2e7e2cbc53db7c1a11acda2</title>
<path fill="none" stroke="black" d="M184.89,-268.1C190.89,-276.13 197.37,-285.87 202.71,-294.8"/>
<polygon fill="black" stroke="black" points="199.8,-296.75 207.79,-303.7 205.87,-293.28 199.8,-296.75"/>
<g id="a_edge5&#45;headlabel"><a xlink:href="dir_000015_000020.html" target="_top" xlink:title="4">
<text text-anchor="middle" x="195.55" y="-292.53" font-family="Helvetica,sans-Serif" font-size="10.00">4</text>
</a>
</g>
</g>
<!-- dir_efbf91dec8e0e89146a72eada515bf52&#45;&gt;dir_3dbe57e65c50a7a17fba27939d267647 -->
<g id="edge6" class="edge">
<title>dir_efbf91dec8e0e89146a72eada515bf52&#45;&gt;dir_3dbe57e65c50a7a17fba27939d267647</title>
<path fill="none" stroke="black" d="M152.43,-231.7C144.8,-223.22 135.48,-212.86 127.12,-203.58"/>
<polygon fill="black" stroke="black" points="129.69,-201.2 120.39,-196.1 124.48,-205.88 129.69,-201.2"/>
<g id="a_edge6&#45;headlabel"><a xlink:href="dir_000015_000017.html" target="_top" xlink:title="5">
<text text-anchor="middle" x="134.2" y="-199.47" font-family="Helvetica,sans-Serif" font-size="10.00">5</text>
</a>
</g>
</g>
<!-- dir_efbf91dec8e0e89146a72eada515bf52&#45;&gt;dir_804e9c8a6f85b64a196ad58c4618e191 -->
<g id="edge8" class="edge">
<title>dir_efbf91dec8e0e89146a72eada515bf52&#45;&gt;dir_804e9c8a6f85b64a196ad58c4618e191</title>
<path fill="none" stroke="black" d="M163.95,-231.99C159.42,-213.86 151.47,-184.47 142,-160 128.4,-124.85 108.71,-86.1 95.41,-61.21"/>
<polygon fill="black" stroke="black" points="98.48,-59.52 90.66,-52.38 92.32,-62.84 98.48,-59.52"/>
<g id="a_edge8&#45;headlabel"><a xlink:href="dir_000015_000016.html" target="_top" xlink:title="4">
<text text-anchor="middle" x="102.69" y="-58.84" font-family="Helvetica,sans-Serif" font-size="10.00">4</text>
</a>
</g>
</g>
<!-- dir_efbf91dec8e0e89146a72eada515bf52&#45;&gt;dir_a7363e98f9e0bdd87618633653859815 -->
<g id="edge9" class="edge">
<title>dir_efbf91dec8e0e89146a72eada515bf52&#45;&gt;dir_a7363e98f9e0bdd87618633653859815</title>
<path fill="none" stroke="black" d="M171.5,-231.87C176.46,-207.56 185.6,-162.82 191.48,-134.01"/>
<polygon fill="black" stroke="black" points="194.92,-134.69 193.49,-124.19 188.06,-133.29 194.92,-134.69"/>
<g id="a_edge9&#45;headlabel"><a xlink:href="dir_000015_000027.html" target="_top" xlink:title="6">
<text text-anchor="middle" x="196.98" y="-136.28" font-family="Helvetica,sans-Serif" font-size="10.00">6</text>
</a>
</g>
</g>
<!-- dir_efbf91dec8e0e89146a72eada515bf52&#45;&gt;dir_c04391f011249a815ab0ebd9bc734b9b -->
<g id="edge10" class="edge">
<title>dir_efbf91dec8e0e89146a72eada515bf52&#45;&gt;dir_c04391f011249a815ab0ebd9bc734b9b</title>
<path fill="none" stroke="black" d="M187.28,-231.7C196.92,-223.05 208.73,-212.45 219.23,-203.03"/>
<polygon fill="black" stroke="black" points="221.84,-205.39 226.94,-196.1 217.16,-200.18 221.84,-205.39"/>
<g id="a_edge10&#45;headlabel"><a xlink:href="dir_000015_000018.html" target="_top" xlink:title="1">
<text text-anchor="middle" x="221.06" y="-207.4" font-family="Helvetica,sans-Serif" font-size="10.00">1</text>
</a>
</g>
</g>
<!-- dir_efbf91dec8e0e89146a72eada515bf52&#45;&gt;dir_6719ab1f1f7655efc2fa43f7eb574fd1 -->
<g id="edge7" class="edge">
<title>dir_efbf91dec8e0e89146a72eada515bf52&#45;&gt;dir_6719ab1f1f7655efc2fa43f7eb574fd1</title>
<path fill="none" stroke="black" d="M199.5,-242.74C226.72,-235.77 265.32,-221.89 289,-196 323.62,-158.15 336.12,-97.37 340.58,-62.32"/>
<polygon fill="black" stroke="black" points="344.07,-62.66 341.73,-52.32 337.11,-61.86 344.07,-62.66"/>
<g id="a_edge7&#45;headlabel"><a xlink:href="dir_000015_000000.html" target="_top" xlink:title="13">
<text text-anchor="middle" x="346.48" y="-64.05" font-family="Helvetica,sans-Serif" font-size="10.00">13</text>
</a>
</g>
</g>
<!-- dir_d665af80335f773f8bfcf2f56b3f3e8a -->
<g id="node8" class="node">
<title>dir_d665af80335f773f8bfcf2f56b3f3e8a</title>
<g id="a_node8"><a xlink:href="dir_d665af80335f773f8bfcf2f56b3f3e8a.html" target="_top" xlink:title="Scenes">
<polygon fill="#eeeeff" stroke="black" points="253,-484 199,-484 199,-448 253,-448 253,-484"/>
<text text-anchor="middle" x="226" y="-463.5" font-family="Helvetica,sans-Serif" font-size="10.00">Scenes</text>
</a>
</g>
</g>
<!-- dir_d665af80335f773f8bfcf2f56b3f3e8a&#45;&gt;dir_146efcb14c269303f155f454755144b3 -->
<g id="edge14" class="edge">
<title>dir_d665af80335f773f8bfcf2f56b3f3e8a&#45;&gt;dir_146efcb14c269303f155f454755144b3</title>
<path fill="none" stroke="black" d="M220.31,-447.7C217.75,-439.9 214.67,-430.51 211.82,-421.83"/>
<polygon fill="black" stroke="black" points="215.07,-420.51 208.62,-412.1 208.42,-422.7 215.07,-420.51"/>
<g id="a_edge14&#45;headlabel"><a xlink:href="dir_000019_000026.html" target="_top" xlink:title="4">
<text text-anchor="middle" x="218.89" y="-420.54" font-family="Helvetica,sans-Serif" font-size="10.00">4</text>
</a>
</g>
</g>
<!-- dir_d665af80335f773f8bfcf2f56b3f3e8a&#45;&gt;dir_3ac9928fc2e7e2cbc53db7c1a11acda2 -->
<g id="edge15" class="edge">
<title>dir_d665af80335f773f8bfcf2f56b3f3e8a&#45;&gt;dir_3ac9928fc2e7e2cbc53db7c1a11acda2</title>
<path fill="none" stroke="black" d="M232.28,-447.78C237.99,-429.74 244.72,-400.64 239,-376 236.9,-366.96 233.03,-357.68 228.91,-349.47"/>
<polygon fill="black" stroke="black" points="231.86,-347.55 224.05,-340.39 225.69,-350.86 231.86,-347.55"/>
<g id="a_edge15&#45;headlabel"><a xlink:href="dir_000019_000020.html" target="_top" xlink:title="6">
<text text-anchor="middle" x="236.06" y="-346.88" font-family="Helvetica,sans-Serif" font-size="10.00">6</text>
</a>
</g>
</g>
<!-- dir_d665af80335f773f8bfcf2f56b3f3e8a&#45;&gt;dir_3dbe57e65c50a7a17fba27939d267647 -->
<g id="edge16" class="edge">
<title>dir_d665af80335f773f8bfcf2f56b3f3e8a&#45;&gt;dir_3dbe57e65c50a7a17fba27939d267647</title>
<path fill="none" stroke="black" d="M198.82,-450.3C183.68,-440.98 165.43,-427.73 153,-412 110.52,-358.25 109.39,-335.56 98,-268 94.54,-247.5 96.63,-224.04 99.4,-206.36"/>
<polygon fill="black" stroke="black" points="102.91,-206.62 101.17,-196.17 96.01,-205.42 102.91,-206.62"/>
<g id="a_edge16&#45;headlabel"><a xlink:href="dir_000019_000017.html" target="_top" xlink:title="20">
<text text-anchor="middle" x="105.09" y="-208.15" font-family="Helvetica,sans-Serif" font-size="10.00">20</text>
</a>
</g>
</g>
<!-- dir_d665af80335f773f8bfcf2f56b3f3e8a&#45;&gt;dir_804e9c8a6f85b64a196ad58c4618e191 -->
<g id="edge18" class="edge">
<title>dir_d665af80335f773f8bfcf2f56b3f3e8a&#45;&gt;dir_804e9c8a6f85b64a196ad58c4618e191</title>
<path fill="none" stroke="black" d="M198.68,-459.81C142.02,-447.3 17,-409.86 17,-323 17,-323 17,-323 17,-177 17,-133.08 42.76,-87.73 61.6,-60.44"/>
<polygon fill="black" stroke="black" points="64.48,-62.42 67.43,-52.24 58.78,-58.37 64.48,-62.42"/>
<g id="a_edge18&#45;headlabel"><a xlink:href="dir_000019_000016.html" target="_top" xlink:title="17">
<text text-anchor="middle" x="64.72" y="-64.5" font-family="Helvetica,sans-Serif" font-size="10.00">17</text>
</a>
</g>
</g>
<!-- dir_d665af80335f773f8bfcf2f56b3f3e8a&#45;&gt;dir_a7363e98f9e0bdd87618633653859815 -->
<g id="edge19" class="edge">
<title>dir_d665af80335f773f8bfcf2f56b3f3e8a&#45;&gt;dir_a7363e98f9e0bdd87618633653859815</title>
<path fill="none" stroke="black" d="M241.84,-447.65C263.31,-422.27 299,-372.62 299,-323 299,-323 299,-323 299,-249 299,-209.2 310.81,-193.29 289,-160 276.15,-140.39 253.36,-127.18 233.68,-118.86"/>
<polygon fill="black" stroke="black" points="234.91,-115.58 224.32,-115.16 232.33,-122.09 234.91,-115.58"/>
<g id="a_edge19&#45;headlabel"><a xlink:href="dir_000019_000027.html" target="_top" xlink:title="6">
<text text-anchor="middle" x="239.3" y="-111.76" font-family="Helvetica,sans-Serif" font-size="10.00">6</text>
</a>
</g>
</g>
<!-- dir_d665af80335f773f8bfcf2f56b3f3e8a&#45;&gt;dir_c04391f011249a815ab0ebd9bc734b9b -->
<g id="edge20" class="edge">
<title>dir_d665af80335f773f8bfcf2f56b3f3e8a&#45;&gt;dir_c04391f011249a815ab0ebd9bc734b9b</title>
<path fill="none" stroke="black" d="M233.07,-447.56C237.02,-437.34 241.77,-424.09 245,-412 265.78,-334.33 275.43,-311.43 263,-232 261.64,-223.31 259.1,-214.1 256.39,-205.84"/>
<polygon fill="black" stroke="black" points="259.67,-204.62 253.07,-196.33 253.06,-206.93 259.67,-204.62"/>
<g id="a_edge20&#45;headlabel"><a xlink:href="dir_000019_000018.html" target="_top" xlink:title="1">
<text text-anchor="middle" x="263.54" y="-204.58" font-family="Helvetica,sans-Serif" font-size="10.00">1</text>
</a>
</g>
</g>
<!-- dir_d665af80335f773f8bfcf2f56b3f3e8a&#45;&gt;dir_efbf91dec8e0e89146a72eada515bf52 -->
<g id="edge21" class="edge">
<title>dir_d665af80335f773f8bfcf2f56b3f3e8a&#45;&gt;dir_efbf91dec8e0e89146a72eada515bf52</title>
<path fill="none" stroke="black" d="M198.82,-448.34C186.67,-439.26 173.62,-426.84 167,-412 147.59,-368.46 154.48,-311.48 161.25,-278.29"/>
<polygon fill="black" stroke="black" points="164.7,-278.91 163.41,-268.4 157.86,-277.42 164.7,-278.91"/>
<g id="a_edge21&#45;headlabel"><a xlink:href="dir_000019_000015.html" target="_top" xlink:title="2">
<text text-anchor="middle" x="166.7" y="-280.53" font-family="Helvetica,sans-Serif" font-size="10.00">2</text>
</a>
</g>
</g>
<!-- dir_d665af80335f773f8bfcf2f56b3f3e8a&#45;&gt;dir_6719ab1f1f7655efc2fa43f7eb574fd1 -->
<g id="edge17" class="edge">
<title>dir_d665af80335f773f8bfcf2f56b3f3e8a&#45;&gt;dir_6719ab1f1f7655efc2fa43f7eb574fd1</title>
<path fill="none" stroke="black" d="M253.36,-460.3C311.48,-448.57 442,-412.31 442,-323 442,-323 442,-323 442,-177 442,-128.38 402.46,-84.5 373.35,-58.78"/>
<polygon fill="black" stroke="black" points="375.34,-55.87 365.46,-52.03 370.78,-61.19 375.34,-55.87"/>
<g id="a_edge17&#45;headlabel"><a xlink:href="dir_000019_000000.html" target="_top" xlink:title="27">
<text text-anchor="middle" x="379.91" y="-53.56" font-family="Helvetica,sans-Serif" font-size="10.00">27</text>
</a>
</g>
</g>
</g>
</svg>
