<?xml version="1.0" encoding="UTF-8" standalone="no"?>
<!DOCTYPE svg PUBLIC "-//W3C//DTD SVG 1.1//EN"
 "http://www.w3.org/Graphics/SVG/1.1/DTD/svg11.dtd">
<!-- Generated by graphviz version 2.44.0 ()
 -->
<!-- Title: src/Factories Pages: 1 -->
<svg width="188pt" height="311pt"
 viewBox="0.00 0.00 188.00 311.00" xmlns="http://www.w3.org/2000/svg" xmlns:xlink="http://www.w3.org/1999/xlink">
<g id="graph0" class="graph" transform="scale(1 1) rotate(0) translate(4 307)">
<title>src/Factories</title>
<g id="clust1" class="cluster">
<title>clusterdir_68267d1309a1af8e8297ef4c3efbcdba</title>
<g id="a_clust1"><a xlink:href="dir_68267d1309a1af8e8297ef4c3efbcdba.html" target="_top" xlink:title="src">
<polygon fill="#ddddee" stroke="black" points="8,-8 8,-295 118,-295 118,-8 8,-8"/>
<text text-anchor="middle" x="63" y="-283" font-family="Helvetica,sans-Serif" font-size="10.00">src</text>
</a>
</g>
</g>
<!-- dir_146efcb14c269303f155f454755144b3 -->
<g id="node1" class="node">
<title>dir_146efcb14c269303f155f454755144b3</title>
<g id="a_node1"><a xlink:href="dir_146efcb14c269303f155f454755144b3.html" target="_top" xlink:title="Structs">
<polygon fill="none" stroke="black" points="90,-196 36,-196 36,-160 90,-160 90,-196"/>
<text text-anchor="middle" x="63" y="-175.5" font-family="Helvetica,sans-Serif" font-size="10.00">Structs</text>
</a>
</g>
</g>
<!-- dir_3ac9928fc2e7e2cbc53db7c1a11acda2 -->
<g id="node2" class="node">
<title>dir_3ac9928fc2e7e2cbc53db7c1a11acda2</title>
<g id="a_node2"><a xlink:href="dir_3ac9928fc2e7e2cbc53db7c1a11acda2.html" target="_top" xlink:title="Scripts">
<polygon fill="none" stroke="red" points="110,-124 56,-124 56,-88 110,-88 110,-124"/>
<text text-anchor="middle" x="83" y="-103.5" font-family="Helvetica,sans-Serif" font-size="10.00">Scripts</text>
</a>
</g>
</g>
<!-- dir_146efcb14c269303f155f454755144b3&#45;&gt;dir_3ac9928fc2e7e2cbc53db7c1a11acda2 -->
<g id="edge1" class="edge">
<title>dir_146efcb14c269303f155f454755144b3&#45;&gt;dir_3ac9928fc2e7e2cbc53db7c1a11acda2</title>
<path fill="none" stroke="black" d="M62.03,-159.7C63.47,-151.81 65.97,-142.3 68.84,-133.55"/>
<polygon fill="black" stroke="black" points="72.15,-134.7 72.22,-124.1 65.56,-132.34 72.15,-134.7"/>
<g id="a_edge1&#45;headlabel"><a xlink:href="dir_000030_000024.html" target="_top" xlink:title="4">
<text text-anchor="middle" x="73.61" y="-136.54" font-family="Helvetica,sans-Serif" font-size="10.00">4</text>
</a>
</g>
</g>
<!-- dir_804e9c8a6f85b64a196ad58c4618e191 -->
<g id="node3" class="node">
<title>dir_804e9c8a6f85b64a196ad58c4618e191</title>
<g id="a_node3"><a xlink:href="dir_804e9c8a6f85b64a196ad58c4618e191.html" target="_top" xlink:title="Enums">
<polygon fill="none" stroke="black" points="70,-52 16,-52 16,-16 70,-16 70,-52"/>
<text text-anchor="middle" x="43" y="-31.5" font-family="Helvetica,sans-Serif" font-size="10.00">Enums</text>
</a>
</g>
</g>
<!-- dir_146efcb14c269303f155f454755144b3&#45;&gt;dir_804e9c8a6f85b64a196ad58c4618e191 -->
<g id="edge3" class="edge">
<title>dir_146efcb14c269303f155f454755144b3&#45;&gt;dir_804e9c8a6f85b64a196ad58c4618e191</title>
<path fill="none" stroke="black" d="M56.55,-159.6C53.07,-149.38 49.07,-136.13 47,-124 43.51,-103.55 42.58,-80.09 42.48,-62.39"/>
<polygon fill="black" stroke="black" points="45.98,-62.21 42.52,-52.2 38.98,-62.18 45.98,-62.21"/>
<g id="a_edge3&#45;headlabel"><a xlink:href="dir_000030_000020.html" target="_top" xlink:title="6">
<text text-anchor="middle" x="48.81" y="-63.31" font-family="Helvetica,sans-Serif" font-size="10.00">6</text>
</a>
</g>
</g>
<!-- dir_6719ab1f1f7655efc2fa43f7eb574fd1 -->
<g id="node5" class="node">
<title>dir_6719ab1f1f7655efc2fa43f7eb574fd1</title>
<g id="a_node5"><a xlink:href="dir_6719ab1f1f7655efc2fa43f7eb574fd1.html" target="_top" xlink:title="libs">
<polygon fill="none" stroke="red" points="180,-52 126,-52 126,-16 180,-16 180,-52"/>
<text text-anchor="middle" x="153" y="-31.5" font-family="Helvetica,sans-Serif" font-size="10.00">libs</text>
</a>
</g>
</g>
<!-- dir_146efcb14c269303f155f454755144b3&#45;&gt;dir_6719ab1f1f7655efc2fa43f7eb574fd1 -->
<g id="edge2" class="edge">
<title>dir_146efcb14c269303f155f454755144b3&#45;&gt;dir_6719ab1f1f7655efc2fa43f7eb574fd1</title>
<path fill="none" stroke="black" d="M85.51,-159.8C96.79,-150.25 109.93,-137.58 119,-124 131.73,-104.94 140.64,-80.44 146.14,-61.97"/>
<polygon fill="black" stroke="black" points="149.56,-62.71 148.91,-52.14 142.83,-60.81 149.56,-62.71"/>
<g id="a_edge2&#45;headlabel"><a xlink:href="dir_000030_000000.html" target="_top" xlink:title="3">
<text text-anchor="middle" x="151.32" y="-64.45" font-family="Helvetica,sans-Serif" font-size="10.00">3</text>
</a>
</g>
</g>
<!-- dir_3ac9928fc2e7e2cbc53db7c1a11acda2&#45;&gt;dir_146efcb14c269303f155f454755144b3 -->
<g id="edge8" class="edge">
<title>dir_3ac9928fc2e7e2cbc53db7c1a11acda2&#45;&gt;dir_146efcb14c269303f155f454755144b3</title>
<path fill="none" stroke="black" d="M84.01,-124.1C82.59,-131.96 80.1,-141.46 77.23,-150.23"/>
<polygon fill="black" stroke="black" points="73.92,-149.1 73.86,-159.7 80.51,-151.45 73.92,-149.1"/>
<g id="a_edge8&#45;headlabel"><a xlink:href="dir_000024_000030.html" target="_top" xlink:title="7">
<text text-anchor="middle" x="72.45" y="-142.26" font-family="Helvetica,sans-Serif" font-size="10.00">7</text>
</a>
</g>
</g>
<!-- dir_3ac9928fc2e7e2cbc53db7c1a11acda2&#45;&gt;dir_804e9c8a6f85b64a196ad58c4618e191 -->
<g id="edge10" class="edge">
<title>dir_3ac9928fc2e7e2cbc53db7c1a11acda2&#45;&gt;dir_804e9c8a6f85b64a196ad58c4618e191</title>
<path fill="none" stroke="black" d="M73.11,-87.7C68.51,-79.64 62.94,-69.89 57.85,-60.98"/>
<polygon fill="black" stroke="black" points="60.77,-59.05 52.77,-52.1 54.7,-62.52 60.77,-59.05"/>
<g id="a_edge10&#45;headlabel"><a xlink:href="dir_000024_000020.html" target="_top" xlink:title="11">
<text text-anchor="middle" x="65.02" y="-58.26" font-family="Helvetica,sans-Serif" font-size="10.00">11</text>
</a>
</g>
</g>
<!-- dir_3ac9928fc2e7e2cbc53db7c1a11acda2&#45;&gt;dir_6719ab1f1f7655efc2fa43f7eb574fd1 -->
<g id="edge9" class="edge">
<title>dir_3ac9928fc2e7e2cbc53db7c1a11acda2&#45;&gt;dir_6719ab1f1f7655efc2fa43f7eb574fd1</title>
<path fill="none" stroke="black" d="M100.3,-87.7C108.86,-79.14 119.34,-68.66 128.7,-59.3"/>
<polygon fill="black" stroke="black" points="131.3,-61.65 135.9,-52.1 126.35,-56.7 131.3,-61.65"/>
<g id="a_edge9&#45;headlabel"><a xlink:href="dir_000024_000000.html" target="_top" xlink:title="125">
<text text-anchor="middle" x="130.77" y="-63.7" font-family="Helvetica,sans-Serif" font-size="10.00">125</text>
</a>
</g>
</g>
<!-- dir_3dbe57e65c50a7a17fba27939d267647 -->
<g id="node4" class="node">
<title>dir_3dbe57e65c50a7a17fba27939d267647</title>
<g id="a_node4"><a xlink:href="dir_3dbe57e65c50a7a17fba27939d267647.html" target="_top" xlink:title="Factories">
<polygon fill="#eeeeff" stroke="black" points="100.5,-268 43.5,-268 43.5,-232 100.5,-232 100.5,-268"/>
<text text-anchor="middle" x="72" y="-247.5" font-family="Helvetica,sans-Serif" font-size="10.00">Factories</text>
</a>
</g>
</g>
<!-- dir_3dbe57e65c50a7a17fba27939d267647&#45;&gt;dir_146efcb14c269303f155f454755144b3 -->
<g id="edge4" class="edge">
<title>dir_3dbe57e65c50a7a17fba27939d267647&#45;&gt;dir_146efcb14c269303f155f454755144b3</title>
<path fill="none" stroke="black" d="M69.78,-231.7C68.78,-223.98 67.59,-214.71 66.49,-206.11"/>
<polygon fill="black" stroke="black" points="69.95,-205.58 65.2,-196.1 63,-206.47 69.95,-205.58"/>
<g id="a_edge4&#45;headlabel"><a xlink:href="dir_000021_000030.html" target="_top" xlink:title="1">
<text text-anchor="middle" x="73.22" y="-206.28" font-family="Helvetica,sans-Serif" font-size="10.00">1</text>
</a>
</g>
</g>
<!-- dir_3dbe57e65c50a7a17fba27939d267647&#45;&gt;dir_3ac9928fc2e7e2cbc53db7c1a11acda2 -->
<g id="edge5" class="edge">
<title>dir_3dbe57e65c50a7a17fba27939d267647&#45;&gt;dir_3ac9928fc2e7e2cbc53db7c1a11acda2</title>
<path fill="none" stroke="black" d="M83.47,-231.67C89.37,-221.69 95.96,-208.65 99,-196 103.96,-175.33 99.2,-151.62 93.61,-133.88"/>
<polygon fill="black" stroke="black" points="96.84,-132.51 90.29,-124.18 90.22,-134.78 96.84,-132.51"/>
<g id="a_edge5&#45;headlabel"><a xlink:href="dir_000021_000024.html" target="_top" xlink:title="19">
<text text-anchor="middle" x="100.69" y="-132.49" font-family="Helvetica,sans-Serif" font-size="10.00">19</text>
</a>
</g>
</g>
<!-- dir_3dbe57e65c50a7a17fba27939d267647&#45;&gt;dir_804e9c8a6f85b64a196ad58c4618e191 -->
<g id="edge7" class="edge">
<title>dir_3dbe57e65c50a7a17fba27939d267647&#45;&gt;dir_804e9c8a6f85b64a196ad58c4618e191</title>
<path fill="none" stroke="black" d="M51.62,-231.53C42.19,-222.09 31.99,-209.6 27,-196 10.49,-151.03 23.07,-94.53 33.32,-61.81"/>
<polygon fill="black" stroke="black" points="36.72,-62.66 36.52,-52.07 30.08,-60.48 36.72,-62.66"/>
<g id="a_edge7&#45;headlabel"><a xlink:href="dir_000021_000020.html" target="_top" xlink:title="20">
<text text-anchor="middle" x="38.3" y="-64.47" font-family="Helvetica,sans-Serif" font-size="10.00">20</text>
</a>
</g>
</g>
<!-- dir_3dbe57e65c50a7a17fba27939d267647&#45;&gt;dir_6719ab1f1f7655efc2fa43f7eb574fd1 -->
<g id="edge6" class="edge">
<title>dir_3dbe57e65c50a7a17fba27939d267647&#45;&gt;dir_6719ab1f1f7655efc2fa43f7eb574fd1</title>
<path fill="none" stroke="black" d="M83.81,-231.62C90.58,-221.41 99.08,-208.16 106,-196 123.68,-164.9 131.66,-158.25 142,-124 148.1,-103.79 150.83,-80.01 152.04,-62.12"/>
<polygon fill="black" stroke="black" points="155.54,-62.27 152.6,-52.08 148.55,-61.87 155.54,-62.27"/>
<g id="a_edge6&#45;headlabel"><a xlink:href="dir_000021_000000.html" target="_top" xlink:title="40">
<text text-anchor="middle" x="158.17" y="-63.51" font-family="Helvetica,sans-Serif" font-size="10.00">40</text>
</a>
</g>
</g>
</g>
</svg>
