<?xml version="1.0" encoding="UTF-8" standalone="no"?>
<!DOCTYPE svg PUBLIC "-//W3C//DTD SVG 1.1//EN"
 "http://www.w3.org/Graphics/SVG/1.1/DTD/svg11.dtd">
<!-- Generated by graphviz version 2.44.0 ()
 -->
<!-- Title: src Pages: 1 -->
<svg width="474pt" height="508pt"
 viewBox="0.00 0.00 474.00 508.00" xmlns="http://www.w3.org/2000/svg" xmlns:xlink="http://www.w3.org/1999/xlink">
<g id="graph0" class="graph" transform="scale(1 1) rotate(0) translate(4 504)">
<title>src</title>
<g id="clust1" class="cluster">
<title>clusterdir_68267d1309a1af8e8297ef4c3efbcdba</title>
<g id="a_clust1"><a xlink:href="dir_68267d1309a1af8e8297ef4c3efbcdba.html" target="_top">
<polygon fill="#eeeeff" stroke="black" points="8,-8 8,-492 332,-492 332,-8 8,-8"/>
</a>
</g>
</g>
<!-- dir_68267d1309a1af8e8297ef4c3efbcdba -->
<g id="node1" class="node">
<title>dir_68267d1309a1af8e8297ef4c3efbcdba</title>
<text text-anchor="middle" x="289" y="-463.5" font-family="Helvetica,sans-Serif" font-size="10.00">src</text>
</g>
<!-- dir_efbf91dec8e0e89146a72eada515bf52 -->
<g id="node2" class="node">
<title>dir_efbf91dec8e0e89146a72eada515bf52</title>
<g id="a_node2"><a xlink:href="dir_efbf91dec8e0e89146a72eada515bf52.html" target="_top" xlink:title="Controllers">
<polygon fill="white" stroke="black" points="236.5,-484 173.5,-484 173.5,-448 236.5,-448 236.5,-484"/>
<text text-anchor="middle" x="205" y="-463.5" font-family="Helvetica,sans-Serif" font-size="10.00">Controllers</text>
</a>
</g>
</g>
<!-- dir_804e9c8a6f85b64a196ad58c4618e191 -->
<g id="node3" class="node">
<title>dir_804e9c8a6f85b64a196ad58c4618e191</title>
<g id="a_node3"><a xlink:href="dir_804e9c8a6f85b64a196ad58c4618e191.html" target="_top" xlink:title="Enums">
<polygon fill="white" stroke="black" points="147,-52 93,-52 93,-16 147,-16 147,-52"/>
<text text-anchor="middle" x="120" y="-31.5" font-family="Helvetica,sans-Serif" font-size="10.00">Enums</text>
</a>
</g>
</g>
<!-- dir_efbf91dec8e0e89146a72eada515bf52&#45;&gt;dir_804e9c8a6f85b64a196ad58c4618e191 -->
<g id="edge7" class="edge">
<title>dir_efbf91dec8e0e89146a72eada515bf52&#45;&gt;dir_804e9c8a6f85b64a196ad58c4618e191</title>
<path fill="none" stroke="black" d="M173.11,-456.8C119.47,-440.86 17,-400.31 17,-323 17,-323 17,-323 17,-177 17,-127.66 58.26,-83.89 88.55,-58.41"/>
<polygon fill="black" stroke="black" points="90.84,-61.06 96.37,-52.03 86.41,-55.64 90.84,-61.06"/>
<g id="a_edge7&#45;headlabel"><a xlink:href="dir_000014_000015.html" target="_top" xlink:title="2">
<text text-anchor="middle" x="89.85" y="-63.03" font-family="Helvetica,sans-Serif" font-size="10.00">2</text>
</a>
</g>
</g>
<!-- dir_3dbe57e65c50a7a17fba27939d267647 -->
<g id="node4" class="node">
<title>dir_3dbe57e65c50a7a17fba27939d267647</title>
<g id="a_node4"><a xlink:href="dir_3dbe57e65c50a7a17fba27939d267647.html" target="_top" xlink:title="Factories">
<polygon fill="white" stroke="black" points="185.5,-412 128.5,-412 128.5,-376 185.5,-376 185.5,-412"/>
<text text-anchor="middle" x="157" y="-391.5" font-family="Helvetica,sans-Serif" font-size="10.00">Factories</text>
</a>
</g>
</g>
<!-- dir_efbf91dec8e0e89146a72eada515bf52&#45;&gt;dir_3dbe57e65c50a7a17fba27939d267647 -->
<g id="edge5" class="edge">
<title>dir_efbf91dec8e0e89146a72eada515bf52&#45;&gt;dir_3dbe57e65c50a7a17fba27939d267647</title>
<path fill="none" stroke="black" d="M193.13,-447.7C187.5,-439.47 180.65,-429.48 174.43,-420.42"/>
<polygon fill="black" stroke="black" points="177.27,-418.37 168.73,-412.1 171.5,-422.33 177.27,-418.37"/>
<g id="a_edge5&#45;headlabel"><a xlink:href="dir_000014_000016.html" target="_top" xlink:title="3">
<text text-anchor="middle" x="181.65" y="-417.23" font-family="Helvetica,sans-Serif" font-size="10.00">3</text>
</a>
</g>
</g>
<!-- dir_c04391f011249a815ab0ebd9bc734b9b -->
<g id="node5" class="node">
<title>dir_c04391f011249a815ab0ebd9bc734b9b</title>
<g id="a_node5"><a xlink:href="dir_c04391f011249a815ab0ebd9bc734b9b.html" target="_top" xlink:title="Persistence">
<polygon fill="white" stroke="black" points="284,-196 216,-196 216,-160 284,-160 284,-196"/>
<text text-anchor="middle" x="250" y="-175.5" font-family="Helvetica,sans-Serif" font-size="10.00">Persistence</text>
</a>
</g>
</g>
<!-- dir_efbf91dec8e0e89146a72eada515bf52&#45;&gt;dir_c04391f011249a815ab0ebd9bc734b9b -->
<g id="edge9" class="edge">
<title>dir_efbf91dec8e0e89146a72eada515bf52&#45;&gt;dir_c04391f011249a815ab0ebd9bc734b9b</title>
<path fill="none" stroke="black" d="M217.55,-447.86C224.65,-437.73 233.4,-424.48 240,-412 272.32,-350.85 285.64,-335.86 299,-268 302.09,-252.3 304.83,-246.9 299,-232 294.8,-221.28 287.31,-211.43 279.42,-203.2"/>
<polygon fill="black" stroke="black" points="281.76,-200.59 272.15,-196.13 276.88,-205.61 281.76,-200.59"/>
<g id="a_edge9&#45;headlabel"><a xlink:href="dir_000014_000017.html" target="_top" xlink:title="1">
<text text-anchor="middle" x="286.32" y="-198.57" font-family="Helvetica,sans-Serif" font-size="10.00">1</text>
</a>
</g>
</g>
<!-- dir_3ac9928fc2e7e2cbc53db7c1a11acda2 -->
<g id="node7" class="node">
<title>dir_3ac9928fc2e7e2cbc53db7c1a11acda2</title>
<g id="a_node7"><a xlink:href="dir_3ac9928fc2e7e2cbc53db7c1a11acda2.html" target="_top" xlink:title="Scripts">
<polygon fill="white" stroke="red" points="230,-340 176,-340 176,-304 230,-304 230,-340"/>
<text text-anchor="middle" x="203" y="-319.5" font-family="Helvetica,sans-Serif" font-size="10.00">Scripts</text>
</a>
</g>
</g>
<!-- dir_efbf91dec8e0e89146a72eada515bf52&#45;&gt;dir_3ac9928fc2e7e2cbc53db7c1a11acda2 -->
<g id="edge4" class="edge">
<title>dir_efbf91dec8e0e89146a72eada515bf52&#45;&gt;dir_3ac9928fc2e7e2cbc53db7c1a11acda2</title>
<path fill="none" stroke="black" d="M200.17,-447.87C197.28,-423.67 196.36,-379.21 197.93,-350.39"/>
<polygon fill="black" stroke="black" points="201.43,-350.41 198.65,-340.19 194.45,-349.92 201.43,-350.41"/>
<g id="a_edge4&#45;headlabel"><a xlink:href="dir_000014_000019.html" target="_top" xlink:title="2">
<text text-anchor="middle" x="204.01" y="-351.7" font-family="Helvetica,sans-Serif" font-size="10.00">2</text>
</a>
</g>
</g>
<!-- dir_146efcb14c269303f155f454755144b3 -->
<g id="node8" class="node">
<title>dir_146efcb14c269303f155f454755144b3</title>
<g id="a_node8"><a xlink:href="dir_146efcb14c269303f155f454755144b3.html" target="_top" xlink:title="Structs">
<polygon fill="white" stroke="black" points="242,-124 188,-124 188,-88 242,-88 242,-124"/>
<text text-anchor="middle" x="215" y="-103.5" font-family="Helvetica,sans-Serif" font-size="10.00">Structs</text>
</a>
</g>
</g>
<!-- dir_efbf91dec8e0e89146a72eada515bf52&#45;&gt;dir_146efcb14c269303f155f454755144b3 -->
<g id="edge3" class="edge">
<title>dir_efbf91dec8e0e89146a72eada515bf52&#45;&gt;dir_146efcb14c269303f155f454755144b3</title>
<path fill="none" stroke="black" d="M173.26,-454.53C153.83,-446.28 130.54,-432.67 119,-412 111.2,-398.03 116.54,-391.81 119,-376 134.52,-276.42 149.67,-253.2 188,-160 191.65,-151.12 196.21,-141.69 200.54,-133.3"/>
<polygon fill="black" stroke="black" points="203.7,-134.81 205.27,-124.33 197.51,-131.54 203.7,-134.81"/>
<g id="a_edge3&#45;headlabel"><a xlink:href="dir_000014_000025.html" target="_top" xlink:title="6">
<text text-anchor="middle" x="204.54" y="-136.81" font-family="Helvetica,sans-Serif" font-size="10.00">6</text>
</a>
</g>
</g>
<!-- dir_a7363e98f9e0bdd87618633653859815 -->
<g id="node9" class="node">
<title>dir_a7363e98f9e0bdd87618633653859815</title>
<g id="a_node9"><a xlink:href="dir_a7363e98f9e0bdd87618633653859815.html" target="_top" xlink:title="Utils">
<polygon fill="white" stroke="black" points="170,-124 116,-124 116,-88 170,-88 170,-124"/>
<text text-anchor="middle" x="143" y="-103.5" font-family="Helvetica,sans-Serif" font-size="10.00">Utils</text>
</a>
</g>
</g>
<!-- dir_efbf91dec8e0e89146a72eada515bf52&#45;&gt;dir_a7363e98f9e0bdd87618633653859815 -->
<g id="edge8" class="edge">
<title>dir_efbf91dec8e0e89146a72eada515bf52&#45;&gt;dir_a7363e98f9e0bdd87618633653859815</title>
<path fill="none" stroke="black" d="M173.2,-456.33C151.49,-448.57 124.32,-434.81 111,-412 57.92,-321.14 105.87,-188.79 130.49,-133.16"/>
<polygon fill="black" stroke="black" points="133.7,-134.55 134.65,-124 127.33,-131.66 133.7,-134.55"/>
<g id="a_edge8&#45;headlabel"><a xlink:href="dir_000014_000026.html" target="_top" xlink:title="3">
<text text-anchor="middle" x="134.81" y="-136.5" font-family="Helvetica,sans-Serif" font-size="10.00">3</text>
</a>
</g>
</g>
<!-- dir_6719ab1f1f7655efc2fa43f7eb574fd1 -->
<g id="node10" class="node">
<title>dir_6719ab1f1f7655efc2fa43f7eb574fd1</title>
<g id="a_node10"><a xlink:href="dir_6719ab1f1f7655efc2fa43f7eb574fd1.html" target="_top" xlink:title="libs">
<polygon fill="none" stroke="red" points="394,-52 340,-52 340,-16 394,-16 394,-52"/>
<text text-anchor="middle" x="367" y="-31.5" font-family="Helvetica,sans-Serif" font-size="10.00">libs</text>
</a>
</g>
</g>
<!-- dir_efbf91dec8e0e89146a72eada515bf52&#45;&gt;dir_6719ab1f1f7655efc2fa43f7eb574fd1 -->
<g id="edge6" class="edge">
<title>dir_efbf91dec8e0e89146a72eada515bf52&#45;&gt;dir_6719ab1f1f7655efc2fa43f7eb574fd1</title>
<path fill="none" stroke="black" d="M236.74,-451.4C306.3,-421.13 466,-348.82 466,-323 466,-323 466,-323 466,-177 466,-128.38 426.46,-84.5 397.35,-58.78"/>
<polygon fill="black" stroke="black" points="399.34,-55.87 389.46,-52.03 394.78,-61.19 399.34,-55.87"/>
<g id="a_edge6&#45;headlabel"><a xlink:href="dir_000014_000000.html" target="_top" xlink:title="5">
<text text-anchor="middle" x="403.91" y="-53.56" font-family="Helvetica,sans-Serif" font-size="10.00">5</text>
</a>
</g>
</g>
<!-- dir_3dbe57e65c50a7a17fba27939d267647&#45;&gt;dir_804e9c8a6f85b64a196ad58c4618e191 -->
<g id="edge27" class="edge">
<title>dir_3dbe57e65c50a7a17fba27939d267647&#45;&gt;dir_804e9c8a6f85b64a196ad58c4618e191</title>
<path fill="none" stroke="black" d="M152.16,-375.88C140.47,-333.59 110.94,-220.56 101,-124 99.36,-108.08 98.26,-103.76 101,-88 102.52,-79.24 105.36,-70.01 108.39,-61.75"/>
<polygon fill="black" stroke="black" points="111.72,-62.84 112.11,-52.25 105.21,-60.29 111.72,-62.84"/>
<g id="a_edge27&#45;headlabel"><a xlink:href="dir_000016_000015.html" target="_top" xlink:title="20">
<text text-anchor="middle" x="113.06" y="-64.72" font-family="Helvetica,sans-Serif" font-size="10.00">20</text>
</a>
</g>
</g>
<!-- dir_3dbe57e65c50a7a17fba27939d267647&#45;&gt;dir_3ac9928fc2e7e2cbc53db7c1a11acda2 -->
<g id="edge25" class="edge">
<title>dir_3dbe57e65c50a7a17fba27939d267647&#45;&gt;dir_3ac9928fc2e7e2cbc53db7c1a11acda2</title>
<path fill="none" stroke="black" d="M162.46,-375.7C167.01,-367.47 173.37,-357.48 179.77,-348.42"/>
<polygon fill="black" stroke="black" points="182.78,-350.24 185.86,-340.1 177.13,-346.1 182.78,-350.24"/>
<g id="a_edge25&#45;headlabel"><a xlink:href="dir_000016_000019.html" target="_top" xlink:title="10">
<text text-anchor="middle" x="182.95" y="-352.32" font-family="Helvetica,sans-Serif" font-size="10.00">10</text>
</a>
</g>
</g>
<!-- dir_3dbe57e65c50a7a17fba27939d267647&#45;&gt;dir_146efcb14c269303f155f454755144b3 -->
<g id="edge24" class="edge">
<title>dir_3dbe57e65c50a7a17fba27939d267647&#45;&gt;dir_146efcb14c269303f155f454755144b3</title>
<path fill="none" stroke="black" d="M158.31,-375.85C159.83,-357.87 162.69,-328.82 167,-304 178.25,-239.21 185.05,-223.8 201,-160 203.11,-151.56 205.5,-142.39 207.7,-134.09"/>
<polygon fill="black" stroke="black" points="211.15,-134.72 210.35,-124.16 204.39,-132.92 211.15,-134.72"/>
<g id="a_edge24&#45;headlabel"><a xlink:href="dir_000016_000025.html" target="_top" xlink:title="1">
<text text-anchor="middle" x="212.97" y="-136.43" font-family="Helvetica,sans-Serif" font-size="10.00">1</text>
</a>
</g>
</g>
<!-- dir_3dbe57e65c50a7a17fba27939d267647&#45;&gt;dir_a7363e98f9e0bdd87618633653859815 -->
<g id="edge28" class="edge">
<title>dir_3dbe57e65c50a7a17fba27939d267647&#45;&gt;dir_a7363e98f9e0bdd87618633653859815</title>
<path fill="none" stroke="black" d="M155.14,-375.83C154.07,-365.47 152.8,-351.99 152,-340 147.06,-265.71 144.58,-177.91 143.57,-134.35"/>
<polygon fill="black" stroke="black" points="147.06,-134.18 143.34,-124.26 140.06,-134.34 147.06,-134.18"/>
<g id="a_edge28&#45;headlabel"><a xlink:href="dir_000016_000026.html" target="_top" xlink:title="12">
<text text-anchor="middle" x="149.98" y="-135.21" font-family="Helvetica,sans-Serif" font-size="10.00">12</text>
</a>
</g>
</g>
<!-- dir_3dbe57e65c50a7a17fba27939d267647&#45;&gt;dir_6719ab1f1f7655efc2fa43f7eb574fd1 -->
<g id="edge26" class="edge">
<title>dir_3dbe57e65c50a7a17fba27939d267647&#45;&gt;dir_6719ab1f1f7655efc2fa43f7eb574fd1</title>
<path fill="none" stroke="black" d="M185.75,-391.24C255.49,-385.25 428,-359.49 428,-251 428,-251 428,-251 428,-177 428,-133.61 403.66,-88.37 385.73,-60.94"/>
<polygon fill="black" stroke="black" points="388.43,-58.68 379.94,-52.34 382.62,-62.59 388.43,-58.68"/>
<g id="a_edge26&#45;headlabel"><a xlink:href="dir_000016_000000.html" target="_top" xlink:title="25">
<text text-anchor="middle" x="392.79" y="-57.58" font-family="Helvetica,sans-Serif" font-size="10.00">25</text>
</a>
</g>
</g>
<!-- dir_c04391f011249a815ab0ebd9bc734b9b&#45;&gt;dir_146efcb14c269303f155f454755144b3 -->
<g id="edge21" class="edge">
<title>dir_c04391f011249a815ab0ebd9bc734b9b&#45;&gt;dir_146efcb14c269303f155f454755144b3</title>
<path fill="none" stroke="black" d="M241.35,-159.7C237.36,-151.73 232.55,-142.1 228.13,-133.26"/>
<polygon fill="black" stroke="black" points="231.15,-131.48 223.55,-124.1 224.89,-134.61 231.15,-131.48"/>
<g id="a_edge21&#45;headlabel"><a xlink:href="dir_000017_000025.html" target="_top" xlink:title="4">
<text text-anchor="middle" x="235.3" y="-130.93" font-family="Helvetica,sans-Serif" font-size="10.00">4</text>
</a>
</g>
</g>
<!-- dir_c04391f011249a815ab0ebd9bc734b9b&#45;&gt;dir_a7363e98f9e0bdd87618633653859815 -->
<g id="edge23" class="edge">
<title>dir_c04391f011249a815ab0ebd9bc734b9b&#45;&gt;dir_a7363e98f9e0bdd87618633653859815</title>
<path fill="none" stroke="black" d="M223.82,-159.88C209.96,-150.81 192.76,-139.55 177.79,-129.76"/>
<polygon fill="black" stroke="black" points="179.56,-126.74 169.28,-124.19 175.73,-132.59 179.56,-126.74"/>
<g id="a_edge23&#45;headlabel"><a xlink:href="dir_000017_000026.html" target="_top" xlink:title="1">
<text text-anchor="middle" x="184.12" y="-123.83" font-family="Helvetica,sans-Serif" font-size="10.00">1</text>
</a>
</g>
</g>
<!-- dir_c04391f011249a815ab0ebd9bc734b9b&#45;&gt;dir_6719ab1f1f7655efc2fa43f7eb574fd1 -->
<g id="edge22" class="edge">
<title>dir_c04391f011249a815ab0ebd9bc734b9b&#45;&gt;dir_6719ab1f1f7655efc2fa43f7eb574fd1</title>
<path fill="none" stroke="black" d="M264.11,-159.87C284.58,-135.03 322.63,-88.85 346.28,-60.14"/>
<polygon fill="black" stroke="black" points="349.18,-62.13 352.84,-52.19 343.78,-57.68 349.18,-62.13"/>
<g id="a_edge22&#45;headlabel"><a xlink:href="dir_000017_000000.html" target="_top" xlink:title="3">
<text text-anchor="middle" x="349.08" y="-64.21" font-family="Helvetica,sans-Serif" font-size="10.00">3</text>
</a>
</g>
</g>
<!-- dir_d665af80335f773f8bfcf2f56b3f3e8a -->
<g id="node6" class="node">
<title>dir_d665af80335f773f8bfcf2f56b3f3e8a</title>
<g id="a_node6"><a xlink:href="dir_d665af80335f773f8bfcf2f56b3f3e8a.html" target="_top" xlink:title="Scenes">
<polygon fill="white" stroke="black" points="290,-268 236,-268 236,-232 290,-232 290,-268"/>
<text text-anchor="middle" x="263" y="-247.5" font-family="Helvetica,sans-Serif" font-size="10.00">Scenes</text>
</a>
</g>
</g>
<!-- dir_d665af80335f773f8bfcf2f56b3f3e8a&#45;&gt;dir_efbf91dec8e0e89146a72eada515bf52 -->
<g id="edge20" class="edge">
<title>dir_d665af80335f773f8bfcf2f56b3f3e8a&#45;&gt;dir_efbf91dec8e0e89146a72eada515bf52</title>
<path fill="none" stroke="black" d="M262.08,-268.28C260.83,-286.37 258.03,-315.51 252,-340 243.39,-374.98 227.92,-413.54 217.09,-438.46"/>
<polygon fill="black" stroke="black" points="213.88,-437.05 213.04,-447.62 220.28,-439.88 213.88,-437.05"/>
<g id="a_edge20&#45;headlabel"><a xlink:href="dir_000018_000014.html" target="_top" xlink:title="2">
<text text-anchor="middle" x="212.73" y="-430.12" font-family="Helvetica,sans-Serif" font-size="10.00">2</text>
</a>
</g>
</g>
<!-- dir_d665af80335f773f8bfcf2f56b3f3e8a&#45;&gt;dir_804e9c8a6f85b64a196ad58c4618e191 -->
<g id="edge17" class="edge">
<title>dir_d665af80335f773f8bfcf2f56b3f3e8a&#45;&gt;dir_804e9c8a6f85b64a196ad58c4618e191</title>
<path fill="none" stroke="black" d="M279.46,-231.92C287.65,-222.22 296.7,-209.37 301,-196 305.9,-180.77 305.78,-175.27 301,-160 289.36,-122.82 281.44,-112.32 251,-88 223.26,-65.84 185.02,-51.79 157.01,-43.77"/>
<polygon fill="black" stroke="black" points="157.76,-40.35 147.2,-41.09 155.92,-47.1 157.76,-40.35"/>
<g id="a_edge17&#45;headlabel"><a xlink:href="dir_000018_000015.html" target="_top" xlink:title="15">
<text text-anchor="middle" x="161.98" y="-36.06" font-family="Helvetica,sans-Serif" font-size="10.00">15</text>
</a>
</g>
</g>
<!-- dir_d665af80335f773f8bfcf2f56b3f3e8a&#45;&gt;dir_3dbe57e65c50a7a17fba27939d267647 -->
<g id="edge15" class="edge">
<title>dir_d665af80335f773f8bfcf2f56b3f3e8a&#45;&gt;dir_3dbe57e65c50a7a17fba27939d267647</title>
<path fill="none" stroke="black" d="M261.99,-268.31C260.1,-287.49 254.66,-318.54 239,-340 227.73,-355.45 210.46,-367.58 194.67,-376.31"/>
<polygon fill="black" stroke="black" points="192.84,-373.32 185.6,-381.06 196.08,-379.52 192.84,-373.32"/>
<g id="a_edge15&#45;headlabel"><a xlink:href="dir_000018_000016.html" target="_top" xlink:title="21">
<text text-anchor="middle" x="194.71" y="-366.64" font-family="Helvetica,sans-Serif" font-size="10.00">21</text>
</a>
</g>
</g>
<!-- dir_d665af80335f773f8bfcf2f56b3f3e8a&#45;&gt;dir_c04391f011249a815ab0ebd9bc734b9b -->
<g id="edge19" class="edge">
<title>dir_d665af80335f773f8bfcf2f56b3f3e8a&#45;&gt;dir_c04391f011249a815ab0ebd9bc734b9b</title>
<path fill="none" stroke="black" d="M259.79,-231.7C258.35,-223.98 256.63,-214.71 255.04,-206.11"/>
<polygon fill="black" stroke="black" points="258.44,-205.3 253.18,-196.1 251.56,-206.58 258.44,-205.3"/>
<g id="a_edge19&#45;headlabel"><a xlink:href="dir_000018_000017.html" target="_top" xlink:title="1">
<text text-anchor="middle" x="261.89" y="-205.81" font-family="Helvetica,sans-Serif" font-size="10.00">1</text>
</a>
</g>
</g>
<!-- dir_d665af80335f773f8bfcf2f56b3f3e8a&#45;&gt;dir_3ac9928fc2e7e2cbc53db7c1a11acda2 -->
<g id="edge14" class="edge">
<title>dir_d665af80335f773f8bfcf2f56b3f3e8a&#45;&gt;dir_3ac9928fc2e7e2cbc53db7c1a11acda2</title>
<path fill="none" stroke="black" d="M254.23,-268.1C247.88,-276.55 239.21,-286.9 230.75,-296.2"/>
<polygon fill="black" stroke="black" points="228.01,-294 223.75,-303.7 233.13,-298.78 228.01,-294"/>
<g id="a_edge14&#45;headlabel"><a xlink:href="dir_000018_000019.html" target="_top" xlink:title="5">
<text text-anchor="middle" x="228.39" y="-286.93" font-family="Helvetica,sans-Serif" font-size="10.00">5</text>
</a>
</g>
</g>
<!-- dir_d665af80335f773f8bfcf2f56b3f3e8a&#45;&gt;dir_146efcb14c269303f155f454755144b3 -->
<g id="edge13" class="edge">
<title>dir_d665af80335f773f8bfcf2f56b3f3e8a&#45;&gt;dir_146efcb14c269303f155f454755144b3</title>
<path fill="none" stroke="black" d="M276.69,-231.93C289.68,-213.51 305.51,-183.63 293,-160 284.1,-143.19 267.21,-130.72 251.41,-122.11"/>
<polygon fill="black" stroke="black" points="252.81,-118.9 242.31,-117.49 249.64,-125.14 252.81,-118.9"/>
<g id="a_edge13&#45;headlabel"><a xlink:href="dir_000018_000025.html" target="_top" xlink:title="2">
<text text-anchor="middle" x="257.3" y="-115.49" font-family="Helvetica,sans-Serif" font-size="10.00">2</text>
</a>
</g>
</g>
<!-- dir_d665af80335f773f8bfcf2f56b3f3e8a&#45;&gt;dir_a7363e98f9e0bdd87618633653859815 -->
<g id="edge18" class="edge">
<title>dir_d665af80335f773f8bfcf2f56b3f3e8a&#45;&gt;dir_a7363e98f9e0bdd87618633653859815</title>
<path fill="none" stroke="black" d="M243.19,-231.94C232.06,-221.95 218.19,-208.8 207,-196 189.35,-175.8 171.74,-150.87 159.47,-132.54"/>
<polygon fill="black" stroke="black" points="162.33,-130.52 153.9,-124.12 156.5,-134.39 162.33,-130.52"/>
<g id="a_edge18&#45;headlabel"><a xlink:href="dir_000018_000026.html" target="_top" xlink:title="4">
<text text-anchor="middle" x="166.69" y="-129.46" font-family="Helvetica,sans-Serif" font-size="10.00">4</text>
</a>
</g>
</g>
<!-- dir_d665af80335f773f8bfcf2f56b3f3e8a&#45;&gt;dir_6719ab1f1f7655efc2fa43f7eb574fd1 -->
<g id="edge16" class="edge">
<title>dir_d665af80335f773f8bfcf2f56b3f3e8a&#45;&gt;dir_6719ab1f1f7655efc2fa43f7eb574fd1</title>
<path fill="none" stroke="black" d="M290,-232.99C303.32,-223.77 318.53,-211.03 328,-196 354.28,-154.28 362.85,-96.23 365.65,-62.44"/>
<polygon fill="black" stroke="black" points="369.15,-62.59 366.37,-52.37 362.16,-62.09 369.15,-62.59"/>
<g id="a_edge16&#45;headlabel"><a xlink:href="dir_000018_000000.html" target="_top" xlink:title="26">
<text text-anchor="middle" x="371.72" y="-63.88" font-family="Helvetica,sans-Serif" font-size="10.00">26</text>
</a>
</g>
</g>
<!-- dir_3ac9928fc2e7e2cbc53db7c1a11acda2&#45;&gt;dir_efbf91dec8e0e89146a72eada515bf52 -->
<g id="edge36" class="edge">
<title>dir_3ac9928fc2e7e2cbc53db7c1a11acda2&#45;&gt;dir_efbf91dec8e0e89146a72eada515bf52</title>
<path fill="none" stroke="black" d="M207.83,-340.19C210.73,-364.42 211.64,-408.89 210.07,-437.68"/>
<polygon fill="black" stroke="black" points="206.56,-437.65 209.34,-447.87 213.54,-438.15 206.56,-437.65"/>
<g id="a_edge36&#45;headlabel"><a xlink:href="dir_000019_000014.html" target="_top" xlink:title="3">
<text text-anchor="middle" x="203.99" y="-431.36" font-family="Helvetica,sans-Serif" font-size="10.00">3</text>
</a>
</g>
</g>
<!-- dir_3ac9928fc2e7e2cbc53db7c1a11acda2&#45;&gt;dir_804e9c8a6f85b64a196ad58c4618e191 -->
<g id="edge32" class="edge">
<title>dir_3ac9928fc2e7e2cbc53db7c1a11acda2&#45;&gt;dir_804e9c8a6f85b64a196ad58c4618e191</title>
<path fill="none" stroke="black" d="M191.17,-303.84C169.23,-270.84 123.03,-195.46 107,-124 102.37,-103.37 106.28,-79.66 110.99,-61.9"/>
<polygon fill="black" stroke="black" points="114.37,-62.78 113.79,-52.2 107.65,-60.84 114.37,-62.78"/>
<g id="a_edge32&#45;headlabel"><a xlink:href="dir_000019_000015.html" target="_top" xlink:title="3">
<text text-anchor="middle" x="116.1" y="-64.52" font-family="Helvetica,sans-Serif" font-size="10.00">3</text>
</a>
</g>
</g>
<!-- dir_3ac9928fc2e7e2cbc53db7c1a11acda2&#45;&gt;dir_3dbe57e65c50a7a17fba27939d267647 -->
<g id="edge30" class="edge">
<title>dir_3ac9928fc2e7e2cbc53db7c1a11acda2&#45;&gt;dir_3dbe57e65c50a7a17fba27939d267647</title>
<path fill="none" stroke="black" d="M197.66,-340.1C193.13,-348.3 186.78,-358.28 180.38,-367.36"/>
<polygon fill="black" stroke="black" points="177.36,-365.56 174.29,-375.7 183.01,-369.69 177.36,-365.56"/>
<g id="a_edge30&#45;headlabel"><a xlink:href="dir_000019_000016.html" target="_top" xlink:title="2">
<text text-anchor="middle" x="177.19" y="-358.48" font-family="Helvetica,sans-Serif" font-size="10.00">2</text>
</a>
</g>
</g>
<!-- dir_3ac9928fc2e7e2cbc53db7c1a11acda2&#45;&gt;dir_c04391f011249a815ab0ebd9bc734b9b -->
<g id="edge34" class="edge">
<title>dir_3ac9928fc2e7e2cbc53db7c1a11acda2&#45;&gt;dir_c04391f011249a815ab0ebd9bc734b9b</title>
<path fill="none" stroke="black" d="M206.87,-303.71C211.1,-285.61 218.44,-256.47 227,-232 230.05,-223.29 233.87,-213.99 237.53,-205.66"/>
<polygon fill="black" stroke="black" points="240.78,-206.97 241.68,-196.41 234.39,-204.1 240.78,-206.97"/>
<g id="a_edge34&#45;headlabel"><a xlink:href="dir_000019_000017.html" target="_top" xlink:title="2">
<text text-anchor="middle" x="241.9" y="-208.91" font-family="Helvetica,sans-Serif" font-size="10.00">2</text>
</a>
</g>
</g>
<!-- dir_3ac9928fc2e7e2cbc53db7c1a11acda2&#45;&gt;dir_d665af80335f773f8bfcf2f56b3f3e8a -->
<g id="edge35" class="edge">
<title>dir_3ac9928fc2e7e2cbc53db7c1a11acda2&#45;&gt;dir_d665af80335f773f8bfcf2f56b3f3e8a</title>
<path fill="none" stroke="black" d="M211.92,-303.7C218.31,-295.22 227,-284.86 235.45,-275.58"/>
<polygon fill="black" stroke="black" points="238.17,-277.8 242.44,-268.1 233.06,-273.02 238.17,-277.8"/>
<g id="a_edge35&#45;headlabel"><a xlink:href="dir_000019_000018.html" target="_top" xlink:title="3">
<text text-anchor="middle" x="237.79" y="-279.86" font-family="Helvetica,sans-Serif" font-size="10.00">3</text>
</a>
</g>
</g>
<!-- dir_3ac9928fc2e7e2cbc53db7c1a11acda2&#45;&gt;dir_146efcb14c269303f155f454755144b3 -->
<g id="edge29" class="edge">
<title>dir_3ac9928fc2e7e2cbc53db7c1a11acda2&#45;&gt;dir_146efcb14c269303f155f454755144b3</title>
<path fill="none" stroke="black" d="M197.23,-303.57C193.41,-273.98 193.44,-212.09 198,-160 198.74,-151.53 199.97,-142.35 201.66,-134.05"/>
<polygon fill="black" stroke="black" points="205.11,-134.66 204.04,-124.12 198.31,-133.03 205.11,-134.66"/>
<g id="a_edge29&#45;headlabel"><a xlink:href="dir_000019_000025.html" target="_top" xlink:title="5">
<text text-anchor="middle" x="207.04" y="-136.32" font-family="Helvetica,sans-Serif" font-size="10.00">5</text>
</a>
</g>
</g>
<!-- dir_3ac9928fc2e7e2cbc53db7c1a11acda2&#45;&gt;dir_a7363e98f9e0bdd87618633653859815 -->
<g id="edge33" class="edge">
<title>dir_3ac9928fc2e7e2cbc53db7c1a11acda2&#45;&gt;dir_a7363e98f9e0bdd87618633653859815</title>
<path fill="none" stroke="black" d="M198.19,-303.85C187.79,-266.75 163.13,-178.81 150.6,-134.1"/>
<polygon fill="black" stroke="black" points="153.9,-132.92 147.83,-124.23 147.16,-134.81 153.9,-132.92"/>
<g id="a_edge33&#45;headlabel"><a xlink:href="dir_000019_000026.html" target="_top" xlink:title="10">
<text text-anchor="middle" x="157.61" y="-133.11" font-family="Helvetica,sans-Serif" font-size="10.00">10</text>
</a>
</g>
</g>
<!-- dir_3ac9928fc2e7e2cbc53db7c1a11acda2&#45;&gt;dir_6719ab1f1f7655efc2fa43f7eb574fd1 -->
<g id="edge31" class="edge">
<title>dir_3ac9928fc2e7e2cbc53db7c1a11acda2&#45;&gt;dir_6719ab1f1f7655efc2fa43f7eb574fd1</title>
<path fill="none" stroke="black" d="M230.31,-309.93C250.74,-300.76 278.56,-286.27 299,-268 328.24,-241.86 332.49,-231.09 350,-196 371.91,-152.08 375.76,-137 373,-88 372.52,-79.55 371.62,-70.38 370.66,-62.07"/>
<polygon fill="black" stroke="black" points="374.13,-61.64 369.44,-52.14 367.19,-62.5 374.13,-61.64"/>
<g id="a_edge31&#45;headlabel"><a xlink:href="dir_000019_000000.html" target="_top" xlink:title="59">
<text text-anchor="middle" x="377.39" y="-62.36" font-family="Helvetica,sans-Serif" font-size="10.00">59</text>
</a>
</g>
</g>
<!-- dir_146efcb14c269303f155f454755144b3&#45;&gt;dir_804e9c8a6f85b64a196ad58c4618e191 -->
<g id="edge12" class="edge">
<title>dir_146efcb14c269303f155f454755144b3&#45;&gt;dir_804e9c8a6f85b64a196ad58c4618e191</title>
<path fill="none" stroke="black" d="M191.52,-87.7C179.44,-78.8 164.55,-67.82 151.48,-58.2"/>
<polygon fill="black" stroke="black" points="153.34,-55.22 143.21,-52.1 149.19,-60.85 153.34,-55.22"/>
<g id="a_edge12&#45;headlabel"><a xlink:href="dir_000025_000015.html" target="_top" xlink:title="4">
<text text-anchor="middle" x="157.92" y="-52.57" font-family="Helvetica,sans-Serif" font-size="10.00">4</text>
</a>
</g>
</g>
<!-- dir_146efcb14c269303f155f454755144b3&#45;&gt;dir_3ac9928fc2e7e2cbc53db7c1a11acda2 -->
<g id="edge10" class="edge">
<title>dir_146efcb14c269303f155f454755144b3&#45;&gt;dir_3ac9928fc2e7e2cbc53db7c1a11acda2</title>
<path fill="none" stroke="black" d="M219.68,-124.12C219.1,-134.47 217.06,-147.95 216,-160 211.9,-206.8 211.46,-261.51 209.1,-293.6"/>
<polygon fill="black" stroke="black" points="205.61,-293.3 208.21,-303.57 212.58,-293.92 205.61,-293.3"/>
<g id="a_edge10&#45;headlabel"><a xlink:href="dir_000025_000019.html" target="_top" xlink:title="2">
<text text-anchor="middle" x="203.1" y="-286.97" font-family="Helvetica,sans-Serif" font-size="10.00">2</text>
</a>
</g>
</g>
<!-- dir_146efcb14c269303f155f454755144b3&#45;&gt;dir_6719ab1f1f7655efc2fa43f7eb574fd1 -->
<g id="edge11" class="edge">
<title>dir_146efcb14c269303f155f454755144b3&#45;&gt;dir_6719ab1f1f7655efc2fa43f7eb574fd1</title>
<path fill="none" stroke="black" d="M242.23,-93.89C264.83,-84.49 297.98,-70.3 330.53,-54.61"/>
<polygon fill="black" stroke="black" points="332.23,-57.68 339.68,-50.15 329.16,-51.39 332.23,-57.68"/>
<g id="a_edge11&#45;headlabel"><a xlink:href="dir_000025_000000.html" target="_top" xlink:title="2">
<text text-anchor="middle" x="330.24" y="-59.31" font-family="Helvetica,sans-Serif" font-size="10.00">2</text>
</a>
</g>
</g>
<!-- dir_a7363e98f9e0bdd87618633653859815&#45;&gt;dir_804e9c8a6f85b64a196ad58c4618e191 -->
<g id="edge2" class="edge">
<title>dir_a7363e98f9e0bdd87618633653859815&#45;&gt;dir_804e9c8a6f85b64a196ad58c4618e191</title>
<path fill="none" stroke="black" d="M137.31,-87.7C134.75,-79.9 131.67,-70.51 128.82,-61.83"/>
<polygon fill="black" stroke="black" points="132.07,-60.51 125.62,-52.1 125.42,-62.7 132.07,-60.51"/>
<g id="a_edge2&#45;headlabel"><a xlink:href="dir_000026_000015.html" target="_top" xlink:title="1">
<text text-anchor="middle" x="135.89" y="-60.54" font-family="Helvetica,sans-Serif" font-size="10.00">1</text>
</a>
</g>
</g>
<!-- dir_a7363e98f9e0bdd87618633653859815&#45;&gt;dir_6719ab1f1f7655efc2fa43f7eb574fd1 -->
<g id="edge1" class="edge">
<title>dir_a7363e98f9e0bdd87618633653859815&#45;&gt;dir_6719ab1f1f7655efc2fa43f7eb574fd1</title>
<path fill="none" stroke="black" d="M170.26,-91.38C173.18,-90.15 176.13,-88.99 179,-88 243.48,-65.68 266.89,-76.33 330.17,-53.98"/>
<polygon fill="black" stroke="black" points="331.63,-57.18 339.81,-50.44 329.22,-50.61 331.63,-57.18"/>
<g id="a_edge1&#45;headlabel"><a xlink:href="dir_000026_000000.html" target="_top" xlink:title="3">
<text text-anchor="middle" x="329.24" y="-58.58" font-family="Helvetica,sans-Serif" font-size="10.00">3</text>
</a>
</g>
</g>
</g>
</svg>
