<?xml version="1.0" encoding="UTF-8" standalone="no"?>
<!DOCTYPE svg PUBLIC "-//W3C//DTD SVG 1.1//EN"
 "http://www.w3.org/Graphics/SVG/1.1/DTD/svg11.dtd">
<!-- Generated by graphviz version 2.44.0 ()
 -->
<!-- Title: libs/spic&#45;engine/src/Subsystems Pages: 1 -->
<svg width="264pt" height="311pt"
 viewBox="0.00 0.00 264.00 311.00" xmlns="http://www.w3.org/2000/svg" xmlns:xlink="http://www.w3.org/1999/xlink">
<g id="graph0" class="graph" transform="scale(1 1) rotate(0) translate(4 307)">
<title>libs/spic&#45;engine/src/Subsystems</title>
<g id="clust1" class="cluster">
<title>clusterdir_285e79e1df58a5eef125f3ef662e94c8</title>
<g id="a_clust1"><a xlink:href="dir_285e79e1df58a5eef125f3ef662e94c8.html" target="_top" xlink:title="src">
<polygon fill="#ddddee" stroke="black" points="8,-8 8,-295 194,-295 194,-8 8,-8"/>
<text text-anchor="middle" x="101" y="-283" font-family="Helvetica,sans-Serif" font-size="10.00">src</text>
</a>
</g>
</g>
<!-- dir_44982e0575ee586d59cceea88d45baea -->
<g id="node1" class="node">
<title>dir_44982e0575ee586d59cceea88d45baea</title>
<g id="a_node1"><a xlink:href="dir_44982e0575ee586d59cceea88d45baea.html" target="_top" xlink:title="Exceptions">
<polygon fill="none" stroke="black" points="80,-52 16,-52 16,-16 80,-16 80,-52"/>
<text text-anchor="middle" x="48" y="-31.5" font-family="Helvetica,sans-Serif" font-size="10.00">Exceptions</text>
</a>
</g>
</g>
<!-- dir_5990f7c91cabd7781a71f4a336348beb -->
<g id="node2" class="node">
<title>dir_5990f7c91cabd7781a71f4a336348beb</title>
<g id="a_node2"><a xlink:href="dir_5990f7c91cabd7781a71f4a336348beb.html" target="_top" xlink:title="Listeners">
<polygon fill="none" stroke="black" points="185.5,-196 128.5,-196 128.5,-160 185.5,-160 185.5,-196"/>
<text text-anchor="middle" x="157" y="-175.5" font-family="Helvetica,sans-Serif" font-size="10.00">Listeners</text>
</a>
</g>
</g>
<!-- dir_4f186f038b17a7ee674550d24e4eff05 -->
<g id="node6" class="node">
<title>dir_4f186f038b17a7ee674550d24e4eff05</title>
<g id="a_node6"><a xlink:href="dir_4f186f038b17a7ee674550d24e4eff05.html" target="_top" xlink:title="includes">
<polygon fill="none" stroke="red" points="256,-52 202,-52 202,-16 256,-16 256,-52"/>
<text text-anchor="middle" x="229" y="-31.5" font-family="Helvetica,sans-Serif" font-size="10.00">includes</text>
</a>
</g>
</g>
<!-- dir_5990f7c91cabd7781a71f4a336348beb&#45;&gt;dir_4f186f038b17a7ee674550d24e4eff05 -->
<g id="edge6" class="edge">
<title>dir_5990f7c91cabd7781a71f4a336348beb&#45;&gt;dir_4f186f038b17a7ee674550d24e4eff05</title>
<path fill="none" stroke="black" d="M165.68,-159.87C178.12,-135.35 201.1,-90.03 215.69,-61.26"/>
<polygon fill="black" stroke="black" points="218.88,-62.69 220.28,-52.19 212.64,-59.53 218.88,-62.69"/>
<g id="a_edge6&#45;headlabel"><a xlink:href="dir_000008_000002.html" target="_top" xlink:title="7">
<text text-anchor="middle" x="219.79" y="-64.68" font-family="Helvetica,sans-Serif" font-size="10.00">7</text>
</a>
</g>
</g>
<!-- dir_86e52f062f78877d44b40fa7f7b75938 -->
<g id="node3" class="node">
<title>dir_86e52f062f78877d44b40fa7f7b75938</title>
<g id="a_node3"><a xlink:href="dir_86e52f062f78877d44b40fa7f7b75938.html" target="_top" xlink:title="Models">
<polygon fill="none" stroke="black" points="110,-196 56,-196 56,-160 110,-160 110,-196"/>
<text text-anchor="middle" x="83" y="-175.5" font-family="Helvetica,sans-Serif" font-size="10.00">Models</text>
</a>
</g>
</g>
<!-- dir_86e52f062f78877d44b40fa7f7b75938&#45;&gt;dir_44982e0575ee586d59cceea88d45baea -->
<g id="edge10" class="edge">
<title>dir_86e52f062f78877d44b40fa7f7b75938&#45;&gt;dir_44982e0575ee586d59cceea88d45baea</title>
<path fill="none" stroke="black" d="M67.39,-159.77C59.63,-150.03 51.05,-137.18 47,-124 40.84,-103.97 41.49,-80.18 43.46,-62.24"/>
<polygon fill="black" stroke="black" points="46.95,-62.54 44.77,-52.17 40.01,-61.64 46.95,-62.54"/>
<g id="a_edge10&#45;headlabel"><a xlink:href="dir_000010_000007.html" target="_top" xlink:title="1">
<text text-anchor="middle" x="49.3" y="-63.97" font-family="Helvetica,sans-Serif" font-size="10.00">1</text>
</a>
</g>
</g>
<!-- dir_944338dd7c8807faeb58957658de8a3c -->
<g id="node4" class="node">
<title>dir_944338dd7c8807faeb58957658de8a3c</title>
<g id="a_node4"><a xlink:href="dir_944338dd7c8807faeb58957658de8a3c.html" target="_top" xlink:title="Managers">
<polygon fill="none" stroke="black" points="115.5,-124 56.5,-124 56.5,-88 115.5,-88 115.5,-124"/>
<text text-anchor="middle" x="86" y="-103.5" font-family="Helvetica,sans-Serif" font-size="10.00">Managers</text>
</a>
</g>
</g>
<!-- dir_86e52f062f78877d44b40fa7f7b75938&#45;&gt;dir_944338dd7c8807faeb58957658de8a3c -->
<g id="edge12" class="edge">
<title>dir_86e52f062f78877d44b40fa7f7b75938&#45;&gt;dir_944338dd7c8807faeb58957658de8a3c</title>
<path fill="none" stroke="black" d="M77.83,-159.7C77.36,-151.98 77.53,-142.71 78.24,-134.11"/>
<polygon fill="black" stroke="black" points="81.73,-134.43 79.37,-124.1 74.77,-133.65 81.73,-134.43"/>
<g id="a_edge12&#45;headlabel"><a xlink:href="dir_000010_000009.html" target="_top" xlink:title="2">
<text text-anchor="middle" x="84.15" y="-135.82" font-family="Helvetica,sans-Serif" font-size="10.00">2</text>
</a>
</g>
</g>
<!-- dir_86e52f062f78877d44b40fa7f7b75938&#45;&gt;dir_4f186f038b17a7ee674550d24e4eff05 -->
<g id="edge11" class="edge">
<title>dir_86e52f062f78877d44b40fa7f7b75938&#45;&gt;dir_4f186f038b17a7ee674550d24e4eff05</title>
<path fill="none" stroke="black" d="M100.61,-159.87C126.37,-134.82 174.45,-88.05 203.91,-59.41"/>
<polygon fill="black" stroke="black" points="206.6,-61.67 211.33,-52.19 201.72,-56.65 206.6,-61.67"/>
<g id="a_edge11&#45;headlabel"><a xlink:href="dir_000010_000002.html" target="_top" xlink:title="4">
<text text-anchor="middle" x="206" y="-63.71" font-family="Helvetica,sans-Serif" font-size="10.00">4</text>
</a>
</g>
</g>
<!-- dir_944338dd7c8807faeb58957658de8a3c&#45;&gt;dir_44982e0575ee586d59cceea88d45baea -->
<g id="edge7" class="edge">
<title>dir_944338dd7c8807faeb58957658de8a3c&#45;&gt;dir_44982e0575ee586d59cceea88d45baea</title>
<path fill="none" stroke="black" d="M76.61,-87.7C72.24,-79.64 66.94,-69.89 62.1,-60.98"/>
<polygon fill="black" stroke="black" points="65.13,-59.22 57.29,-52.1 58.98,-62.56 65.13,-59.22"/>
<g id="a_edge7&#45;headlabel"><a xlink:href="dir_000009_000007.html" target="_top" xlink:title="3">
<text text-anchor="middle" x="69.34" y="-58.53" font-family="Helvetica,sans-Serif" font-size="10.00">3</text>
</a>
</g>
</g>
<!-- dir_944338dd7c8807faeb58957658de8a3c&#45;&gt;dir_86e52f062f78877d44b40fa7f7b75938 -->
<g id="edge9" class="edge">
<title>dir_944338dd7c8807faeb58957658de8a3c&#45;&gt;dir_86e52f062f78877d44b40fa7f7b75938</title>
<path fill="none" stroke="black" d="M91.16,-124.1C91.64,-131.79 91.48,-141.05 90.78,-149.67"/>
<polygon fill="black" stroke="black" points="87.29,-149.37 89.66,-159.7 94.24,-150.15 87.29,-149.37"/>
<g id="a_edge9&#45;headlabel"><a xlink:href="dir_000009_000010.html" target="_top" xlink:title="4">
<text text-anchor="middle" x="84.86" y="-142.98" font-family="Helvetica,sans-Serif" font-size="10.00">4</text>
</a>
</g>
</g>
<!-- dir_944338dd7c8807faeb58957658de8a3c&#45;&gt;dir_4f186f038b17a7ee674550d24e4eff05 -->
<g id="edge8" class="edge">
<title>dir_944338dd7c8807faeb58957658de8a3c&#45;&gt;dir_4f186f038b17a7ee674550d24e4eff05</title>
<path fill="none" stroke="black" d="M115.71,-91.53C136.2,-82.11 164.25,-68.97 192.74,-54.63"/>
<polygon fill="black" stroke="black" points="194.66,-57.57 202,-49.93 191.5,-51.33 194.66,-57.57"/>
<g id="a_edge8&#45;headlabel"><a xlink:href="dir_000009_000002.html" target="_top" xlink:title="7">
<text text-anchor="middle" x="192.74" y="-59.23" font-family="Helvetica,sans-Serif" font-size="10.00">7</text>
</a>
</g>
</g>
<!-- dir_4c3567f8d4bf2744157f20ca4f9c82ee -->
<g id="node5" class="node">
<title>dir_4c3567f8d4bf2744157f20ca4f9c82ee</title>
<g id="a_node5"><a xlink:href="dir_4c3567f8d4bf2744157f20ca4f9c82ee.html" target="_top" xlink:title="Subsystems">
<polygon fill="#eeeeff" stroke="black" points="118.5,-268 47.5,-268 47.5,-232 118.5,-232 118.5,-268"/>
<text text-anchor="middle" x="83" y="-247.5" font-family="Helvetica,sans-Serif" font-size="10.00">Subsystems</text>
</a>
</g>
</g>
<!-- dir_4c3567f8d4bf2744157f20ca4f9c82ee&#45;&gt;dir_44982e0575ee586d59cceea88d45baea -->
<g id="edge1" class="edge">
<title>dir_4c3567f8d4bf2744157f20ca4f9c82ee&#45;&gt;dir_44982e0575ee586d59cceea88d45baea</title>
<path fill="none" stroke="black" d="M64.04,-231.81C54.92,-222.26 44.93,-209.59 40,-196 23.74,-151.13 32.69,-94.59 40.48,-61.84"/>
<polygon fill="black" stroke="black" points="43.89,-62.64 42.94,-52.09 37.1,-60.94 43.89,-62.64"/>
<g id="a_edge1&#45;headlabel"><a xlink:href="dir_000011_000007.html" target="_top" xlink:title="1">
<text text-anchor="middle" x="45.77" y="-64.32" font-family="Helvetica,sans-Serif" font-size="10.00">1</text>
</a>
</g>
</g>
<!-- dir_4c3567f8d4bf2744157f20ca4f9c82ee&#45;&gt;dir_5990f7c91cabd7781a71f4a336348beb -->
<g id="edge3" class="edge">
<title>dir_4c3567f8d4bf2744157f20ca4f9c82ee&#45;&gt;dir_5990f7c91cabd7781a71f4a336348beb</title>
<path fill="none" stroke="black" d="M101.29,-231.7C110.43,-223.05 121.64,-212.45 131.6,-203.03"/>
<polygon fill="black" stroke="black" points="134.06,-205.52 138.92,-196.1 129.25,-200.43 134.06,-205.52"/>
<g id="a_edge3&#45;headlabel"><a xlink:href="dir_000011_000008.html" target="_top" xlink:title="1">
<text text-anchor="middle" x="133.4" y="-207.55" font-family="Helvetica,sans-Serif" font-size="10.00">1</text>
</a>
</g>
</g>
<!-- dir_4c3567f8d4bf2744157f20ca4f9c82ee&#45;&gt;dir_86e52f062f78877d44b40fa7f7b75938 -->
<g id="edge4" class="edge">
<title>dir_4c3567f8d4bf2744157f20ca4f9c82ee&#45;&gt;dir_86e52f062f78877d44b40fa7f7b75938</title>
<path fill="none" stroke="black" d="M83,-231.7C83,-223.98 83,-214.71 83,-206.11"/>
<polygon fill="black" stroke="black" points="86.5,-206.1 83,-196.1 79.5,-206.1 86.5,-206.1"/>
<g id="a_edge4&#45;headlabel"><a xlink:href="dir_000011_000010.html" target="_top" xlink:title="2">
<text text-anchor="middle" x="89.34" y="-207.2" font-family="Helvetica,sans-Serif" font-size="10.00">2</text>
</a>
</g>
</g>
<!-- dir_4c3567f8d4bf2744157f20ca4f9c82ee&#45;&gt;dir_944338dd7c8807faeb58957658de8a3c -->
<g id="edge5" class="edge">
<title>dir_4c3567f8d4bf2744157f20ca4f9c82ee&#45;&gt;dir_944338dd7c8807faeb58957658de8a3c</title>
<path fill="none" stroke="black" d="M67.39,-231.77C59.63,-222.03 51.05,-209.18 47,-196 42.3,-180.71 42.01,-175.2 47,-160 50.31,-149.91 56.37,-140.15 62.73,-131.82"/>
<polygon fill="black" stroke="black" points="65.5,-133.97 69.11,-124.01 60.08,-129.54 65.5,-133.97"/>
<g id="a_edge5&#45;headlabel"><a xlink:href="dir_000011_000009.html" target="_top" xlink:title="3">
<text text-anchor="middle" x="65.42" y="-136.05" font-family="Helvetica,sans-Serif" font-size="10.00">3</text>
</a>
</g>
</g>
<!-- dir_4c3567f8d4bf2744157f20ca4f9c82ee&#45;&gt;dir_4f186f038b17a7ee674550d24e4eff05 -->
<g id="edge2" class="edge">
<title>dir_4c3567f8d4bf2744157f20ca4f9c82ee&#45;&gt;dir_4f186f038b17a7ee674550d24e4eff05</title>
<path fill="none" stroke="black" d="M118.76,-240.81C143.53,-233.29 175.31,-219.61 194,-196 224.76,-157.15 229.92,-97.14 230.04,-62.41"/>
<polygon fill="black" stroke="black" points="233.53,-62.04 229.92,-52.08 226.53,-62.12 233.53,-62.04"/>
<g id="a_edge2&#45;headlabel"><a xlink:href="dir_000011_000002.html" target="_top" xlink:title="26">
<text text-anchor="middle" x="236.41" y="-63.11" font-family="Helvetica,sans-Serif" font-size="10.00">26</text>
</a>
</g>
</g>
</g>
</svg>
