<?xml version="1.0" encoding="UTF-8" standalone="no"?>
<!DOCTYPE svg PUBLIC "-//W3C//DTD SVG 1.1//EN"
 "http://www.w3.org/Graphics/SVG/1.1/DTD/svg11.dtd">
<!-- Generated by graphviz version 2.44.0 ()
 -->
<!-- Title: libs/spic&#45;engine/src/Api Pages: 1 -->
<svg width="370pt" height="303pt"
 viewBox="0.00 0.00 370.29 303.00" xmlns="http://www.w3.org/2000/svg" xmlns:xlink="http://www.w3.org/1999/xlink">
<g id="graph0" class="graph" transform="scale(1 1) rotate(0) translate(4 299)">
<title>libs/spic&#45;engine/src/Api</title>
<g id="clust1" class="cluster">
<title>clusterdir_285e79e1df58a5eef125f3ef662e94c8</title>
<g id="a_clust1"><a xlink:href="dir_285e79e1df58a5eef125f3ef662e94c8.html" target="_top" xlink:title="src">
<polygon fill="#ddddee" stroke="black" points="8,-64 8,-287 244,-287 244,-64 8,-64"/>
<text text-anchor="middle" x="126" y="-275" font-family="Helvetica,sans-Serif" font-size="10.00">src</text>
</a>
</g>
</g>
<g id="clust2" class="cluster">
<title>clusterdir_aaeb1049245dbecd9dd0b23975ef06b0</title>
<g id="a_clust2"><a xlink:href="dir_aaeb1049245dbecd9dd0b23975ef06b0.html" target="_top">
<polygon fill="#eeeeff" stroke="black" points="16,-208 16,-260 236,-260 236,-208 16,-208"/>
</a>
</g>
</g>
<!-- dir_4c3567f8d4bf2744157f20ca4f9c82ee -->
<g id="node1" class="node">
<title>dir_4c3567f8d4bf2744157f20ca4f9c82ee</title>
<g id="a_node1"><a xlink:href="dir_4c3567f8d4bf2744157f20ca4f9c82ee.html" target="_top" xlink:title="Subsystems">
<polygon fill="none" stroke="black" points="156.5,-180 85.5,-180 85.5,-144 156.5,-144 156.5,-180"/>
<text text-anchor="middle" x="121" y="-159.5" font-family="Helvetica,sans-Serif" font-size="10.00">Subsystems</text>
</a>
</g>
</g>
<!-- dir_5990f7c91cabd7781a71f4a336348beb -->
<g id="node2" class="node">
<title>dir_5990f7c91cabd7781a71f4a336348beb</title>
<g id="a_node2"><a xlink:href="dir_5990f7c91cabd7781a71f4a336348beb.html" target="_top" xlink:title="Listeners">
<polygon fill="none" stroke="black" points="73.5,-108 16.5,-108 16.5,-72 73.5,-72 73.5,-108"/>
<text text-anchor="middle" x="45" y="-87.5" font-family="Helvetica,sans-Serif" font-size="10.00">Listeners</text>
</a>
</g>
</g>
<!-- dir_4c3567f8d4bf2744157f20ca4f9c82ee&#45;&gt;dir_5990f7c91cabd7781a71f4a336348beb -->
<g id="edge4" class="edge">
<title>dir_4c3567f8d4bf2744157f20ca4f9c82ee&#45;&gt;dir_5990f7c91cabd7781a71f4a336348beb</title>
<path fill="none" stroke="black" d="M102.21,-143.7C92.83,-135.05 81.32,-124.45 71.09,-115.03"/>
<polygon fill="black" stroke="black" points="73.3,-112.3 63.57,-108.1 68.55,-117.45 73.3,-112.3"/>
<g id="a_edge4&#45;headlabel"><a xlink:href="dir_000016_000012.html" target="_top" xlink:title="1">
<text text-anchor="middle" x="77.86" y="-110.15" font-family="Helvetica,sans-Serif" font-size="10.00">1</text>
</a>
</g>
</g>
<!-- dir_944338dd7c8807faeb58957658de8a3c -->
<g id="node3" class="node">
<title>dir_944338dd7c8807faeb58957658de8a3c</title>
<g id="a_node3"><a xlink:href="dir_944338dd7c8807faeb58957658de8a3c.html" target="_top" xlink:title="Managers">
<polygon fill="none" stroke="black" points="150.5,-108 91.5,-108 91.5,-72 150.5,-72 150.5,-108"/>
<text text-anchor="middle" x="121" y="-87.5" font-family="Helvetica,sans-Serif" font-size="10.00">Managers</text>
</a>
</g>
</g>
<!-- dir_4c3567f8d4bf2744157f20ca4f9c82ee&#45;&gt;dir_944338dd7c8807faeb58957658de8a3c -->
<g id="edge5" class="edge">
<title>dir_4c3567f8d4bf2744157f20ca4f9c82ee&#45;&gt;dir_944338dd7c8807faeb58957658de8a3c</title>
<path fill="none" stroke="black" d="M121,-143.7C121,-135.98 121,-126.71 121,-118.11"/>
<polygon fill="black" stroke="black" points="124.5,-118.1 121,-108.1 117.5,-118.1 124.5,-118.1"/>
<g id="a_edge5&#45;headlabel"><a xlink:href="dir_000016_000013.html" target="_top" xlink:title="3">
<text text-anchor="middle" x="127.34" y="-119.2" font-family="Helvetica,sans-Serif" font-size="10.00">3</text>
</a>
</g>
</g>
<!-- dir_ef168f49275ed04ad36bf6eecbe1415b -->
<g id="node4" class="node">
<title>dir_ef168f49275ed04ad36bf6eecbe1415b</title>
<g id="a_node4"><a xlink:href="dir_ef168f49275ed04ad36bf6eecbe1415b.html" target="_top" xlink:title="Structs">
<polygon fill="none" stroke="black" points="223,-108 169,-108 169,-72 223,-72 223,-108"/>
<text text-anchor="middle" x="196" y="-87.5" font-family="Helvetica,sans-Serif" font-size="10.00">Structs</text>
</a>
</g>
</g>
<!-- dir_4c3567f8d4bf2744157f20ca4f9c82ee&#45;&gt;dir_ef168f49275ed04ad36bf6eecbe1415b -->
<g id="edge6" class="edge">
<title>dir_4c3567f8d4bf2744157f20ca4f9c82ee&#45;&gt;dir_ef168f49275ed04ad36bf6eecbe1415b</title>
<path fill="none" stroke="black" d="M139.54,-143.7C148.8,-135.05 160.16,-124.45 170.26,-115.03"/>
<polygon fill="black" stroke="black" points="172.75,-117.49 177.67,-108.1 167.98,-112.37 172.75,-117.49"/>
<g id="a_edge6&#45;headlabel"><a xlink:href="dir_000016_000015.html" target="_top" xlink:title="1">
<text text-anchor="middle" x="172.06" y="-119.51" font-family="Helvetica,sans-Serif" font-size="10.00">1</text>
</a>
</g>
</g>
<!-- dir_4f186f038b17a7ee674550d24e4eff05 -->
<g id="node8" class="node">
<title>dir_4f186f038b17a7ee674550d24e4eff05</title>
<g id="a_node8"><a xlink:href="dir_4f186f038b17a7ee674550d24e4eff05.html" target="_top" xlink:title="includes">
<polygon fill="none" stroke="red" points="278,-36 224,-36 224,0 278,0 278,-36"/>
<text text-anchor="middle" x="251" y="-15.5" font-family="Helvetica,sans-Serif" font-size="10.00">includes</text>
</a>
</g>
</g>
<!-- dir_4c3567f8d4bf2744157f20ca4f9c82ee&#45;&gt;dir_4f186f038b17a7ee674550d24e4eff05 -->
<g id="edge3" class="edge">
<title>dir_4c3567f8d4bf2744157f20ca4f9c82ee&#45;&gt;dir_4f186f038b17a7ee674550d24e4eff05</title>
<path fill="none" stroke="black" d="M156.52,-152.92C181.35,-145.42 213.29,-131.73 232,-108 245.72,-90.6 250.11,-65.55 251.28,-46.46"/>
<polygon fill="black" stroke="black" points="254.78,-46.4 251.63,-36.28 247.78,-46.15 254.78,-46.4"/>
<g id="a_edge3&#45;headlabel"><a xlink:href="dir_000016_000002.html" target="_top" xlink:title="28">
<text text-anchor="middle" x="257.49" y="-47.59" font-family="Helvetica,sans-Serif" font-size="10.00">28</text>
</a>
</g>
</g>
<!-- dir_5990f7c91cabd7781a71f4a336348beb&#45;&gt;dir_4f186f038b17a7ee674550d24e4eff05 -->
<g id="edge13" class="edge">
<title>dir_5990f7c91cabd7781a71f4a336348beb&#45;&gt;dir_4f186f038b17a7ee674550d24e4eff05</title>
<path fill="none" stroke="black" d="M68.45,-71.91C73.12,-68.99 78.1,-66.2 83,-64 125.94,-44.73 178.87,-32.24 213.71,-25.42"/>
<polygon fill="black" stroke="black" points="214.74,-28.79 223.91,-23.49 213.43,-21.91 214.74,-28.79"/>
<g id="a_edge13&#45;headlabel"><a xlink:href="dir_000012_000002.html" target="_top" xlink:title="7">
<text text-anchor="middle" x="211.74" y="-29.75" font-family="Helvetica,sans-Serif" font-size="10.00">7</text>
</a>
</g>
</g>
<!-- dir_944338dd7c8807faeb58957658de8a3c&#45;&gt;dir_4f186f038b17a7ee674550d24e4eff05 -->
<g id="edge14" class="edge">
<title>dir_944338dd7c8807faeb58957658de8a3c&#45;&gt;dir_4f186f038b17a7ee674550d24e4eff05</title>
<path fill="none" stroke="black" d="M146.77,-71.92C151.13,-69.19 155.66,-66.45 160,-64 177.57,-54.06 197.63,-44.01 214.44,-35.94"/>
<polygon fill="black" stroke="black" points="216.39,-38.88 223.92,-31.43 213.38,-32.56 216.39,-38.88"/>
<g id="a_edge14&#45;headlabel"><a xlink:href="dir_000013_000002.html" target="_top" xlink:title="9">
<text text-anchor="middle" x="214.37" y="-40.49" font-family="Helvetica,sans-Serif" font-size="10.00">9</text>
</a>
</g>
</g>
<!-- dir_ef168f49275ed04ad36bf6eecbe1415b&#45;&gt;dir_4f186f038b17a7ee674550d24e4eff05 -->
<g id="edge1" class="edge">
<title>dir_ef168f49275ed04ad36bf6eecbe1415b&#45;&gt;dir_4f186f038b17a7ee674550d24e4eff05</title>
<path fill="none" stroke="black" d="M209.6,-71.7C216.12,-63.39 224.07,-53.28 231.25,-44.14"/>
<polygon fill="black" stroke="black" points="234.13,-46.13 237.56,-36.1 228.63,-41.81 234.13,-46.13"/>
<g id="a_edge1&#45;headlabel"><a xlink:href="dir_000015_000002.html" target="_top" xlink:title="2">
<text text-anchor="middle" x="234.15" y="-48.21" font-family="Helvetica,sans-Serif" font-size="10.00">2</text>
</a>
</g>
</g>
<!-- dir_aaeb1049245dbecd9dd0b23975ef06b0 -->
<g id="node5" class="node">
<title>dir_aaeb1049245dbecd9dd0b23975ef06b0</title>
<text text-anchor="middle" x="51" y="-231.5" font-family="Helvetica,sans-Serif" font-size="10.00">Api</text>
</g>
<!-- dir_aaeb1049245dbecd9dd0b23975ef06b0&#45;&gt;dir_4c3567f8d4bf2744157f20ca4f9c82ee -->
<g id="edge8" class="edge">
<title>dir_aaeb1049245dbecd9dd0b23975ef06b0&#45;&gt;dir_4c3567f8d4bf2744157f20ca4f9c82ee</title>
<path fill="none" stroke="black" d="M68.3,-215.7C76.86,-207.14 87.34,-196.66 96.7,-187.3"/>
<polygon fill="black" stroke="black" points="99.3,-189.65 103.9,-180.1 94.35,-184.7 99.3,-189.65"/>
<g id="a_edge8&#45;headlabel"><a xlink:href="dir_000008_000016.html" target="_top" xlink:title="1">
<text text-anchor="middle" x="98.77" y="-191.7" font-family="Helvetica,sans-Serif" font-size="10.00">1</text>
</a>
</g>
</g>
<!-- dir_aaeb1049245dbecd9dd0b23975ef06b0&#45;&gt;dir_5990f7c91cabd7781a71f4a336348beb -->
<g id="edge10" class="edge">
<title>dir_aaeb1049245dbecd9dd0b23975ef06b0&#45;&gt;dir_5990f7c91cabd7781a71f4a336348beb</title>
<path fill="none" stroke="black" d="M50.28,-215.87C49.25,-191.67 47.38,-147.21 46.16,-118.39"/>
<polygon fill="black" stroke="black" points="49.65,-118.03 45.73,-108.19 42.65,-118.33 49.65,-118.03"/>
<g id="a_edge10&#45;headlabel"><a xlink:href="dir_000008_000012.html" target="_top" xlink:title="1">
<text text-anchor="middle" x="52.63" y="-119" font-family="Helvetica,sans-Serif" font-size="10.00">1</text>
</a>
</g>
</g>
<!-- dir_aaeb1049245dbecd9dd0b23975ef06b0&#45;&gt;dir_944338dd7c8807faeb58957658de8a3c -->
<g id="edge11" class="edge">
<title>dir_aaeb1049245dbecd9dd0b23975ef06b0&#45;&gt;dir_944338dd7c8807faeb58957658de8a3c</title>
<path fill="none" stroke="black" d="M53.86,-215.81C57.42,-197.28 64.61,-167.31 77,-144 82.27,-134.08 89.61,-124.3 96.77,-115.89"/>
<polygon fill="black" stroke="black" points="99.5,-118.1 103.52,-108.3 94.26,-113.45 99.5,-118.1"/>
<g id="a_edge11&#45;headlabel"><a xlink:href="dir_000008_000013.html" target="_top" xlink:title="4">
<text text-anchor="middle" x="99.23" y="-120.17" font-family="Helvetica,sans-Serif" font-size="10.00">4</text>
</a>
</g>
</g>
<!-- dir_aaeb1049245dbecd9dd0b23975ef06b0&#45;&gt;dir_ef168f49275ed04ad36bf6eecbe1415b -->
<g id="edge12" class="edge">
<title>dir_aaeb1049245dbecd9dd0b23975ef06b0&#45;&gt;dir_ef168f49275ed04ad36bf6eecbe1415b</title>
<path fill="none" stroke="black" d="M74.35,-215.95C78.77,-213.1 83.44,-210.31 88,-208 120.85,-191.34 140.21,-206.3 166,-180 182.28,-163.4 189.73,-137.68 193.14,-118.15"/>
<polygon fill="black" stroke="black" points="196.63,-118.44 194.65,-108.03 189.71,-117.41 196.63,-118.44"/>
<g id="a_edge12&#45;headlabel"><a xlink:href="dir_000008_000015.html" target="_top" xlink:title="1">
<text text-anchor="middle" x="198.91" y="-119.91" font-family="Helvetica,sans-Serif" font-size="10.00">1</text>
</a>
</g>
</g>
<!-- dir_aaeb1049245dbecd9dd0b23975ef06b0&#45;&gt;dir_4f186f038b17a7ee674550d24e4eff05 -->
<g id="edge9" class="edge">
<title>dir_aaeb1049245dbecd9dd0b23975ef06b0&#45;&gt;dir_4f186f038b17a7ee674550d24e4eff05</title>
<path fill="none" stroke="black" d="M73.24,-215.8C77.92,-212.82 82.97,-210.03 88,-208 154.94,-180.97 201.05,-234.84 248,-180 279.8,-142.86 269.55,-81.31 259.86,-46.05"/>
<polygon fill="black" stroke="black" points="263.09,-44.62 256.92,-36.01 256.37,-46.59 263.09,-44.62"/>
<g id="a_edge9&#45;headlabel"><a xlink:href="dir_000008_000002.html" target="_top" xlink:title="33">
<text text-anchor="middle" x="266.82" y="-44.77" font-family="Helvetica,sans-Serif" font-size="10.00">33</text>
</a>
</g>
</g>
<!-- dir_8921af8555c1aa6ee6568b0d3a1ba1af -->
<g id="node6" class="node">
<title>dir_8921af8555c1aa6ee6568b0d3a1ba1af</title>
<g id="a_node6"><a xlink:href="dir_8921af8555c1aa6ee6568b0d3a1ba1af.html" target="_top" xlink:title="Managers">
<polygon fill="white" stroke="black" points="155.5,-252 96.5,-252 96.5,-216 155.5,-216 155.5,-252"/>
<text text-anchor="middle" x="126" y="-231.5" font-family="Helvetica,sans-Serif" font-size="10.00">Managers</text>
</a>
</g>
</g>
<!-- dir_8921af8555c1aa6ee6568b0d3a1ba1af&#45;&gt;dir_4f186f038b17a7ee674550d24e4eff05 -->
<g id="edge2" class="edge">
<title>dir_8921af8555c1aa6ee6568b0d3a1ba1af&#45;&gt;dir_4f186f038b17a7ee674550d24e4eff05</title>
<path fill="none" stroke="black" d="M149.58,-215.93C154.5,-212.94 159.78,-210.11 165,-208 223,-184.49 263.39,-228.45 303,-180 335.63,-140.08 324.43,-110.89 303,-64 299.22,-55.73 293.08,-48.39 286.33,-42.17"/>
<polygon fill="black" stroke="black" points="288.13,-39.12 278.22,-35.39 283.64,-44.49 288.13,-39.12"/>
<g id="a_edge2&#45;headlabel"><a xlink:href="dir_000009_000002.html" target="_top" xlink:title="2">
<text text-anchor="middle" x="292.71" y="-36.75" font-family="Helvetica,sans-Serif" font-size="10.00">2</text>
</a>
</g>
</g>
<!-- dir_d81a5e6e1ab924208453c1ffdeae265f -->
<g id="node7" class="node">
<title>dir_d81a5e6e1ab924208453c1ffdeae265f</title>
<g id="a_node7"><a xlink:href="dir_d81a5e6e1ab924208453c1ffdeae265f.html" target="_top" xlink:title="Utils">
<polygon fill="white" stroke="black" points="228,-252 174,-252 174,-216 228,-216 228,-252"/>
<text text-anchor="middle" x="201" y="-231.5" font-family="Helvetica,sans-Serif" font-size="10.00">Utils</text>
</a>
</g>
</g>
<!-- dir_d81a5e6e1ab924208453c1ffdeae265f&#45;&gt;dir_4f186f038b17a7ee674550d24e4eff05 -->
<g id="edge7" class="edge">
<title>dir_d81a5e6e1ab924208453c1ffdeae265f&#45;&gt;dir_4f186f038b17a7ee674550d24e4eff05</title>
<path fill="none" stroke="black" d="M228.12,-231.51C261.13,-228.06 315.6,-216.78 341,-180 370.3,-137.58 368.1,-107.86 341,-64 329.43,-45.27 307.43,-34.08 288.09,-27.54"/>
<polygon fill="black" stroke="black" points="288.87,-24.12 278.28,-24.53 286.81,-30.81 288.87,-24.12"/>
<g id="a_edge7&#45;headlabel"><a xlink:href="dir_000010_000002.html" target="_top" xlink:title="5">
<text text-anchor="middle" x="293.14" y="-19.96" font-family="Helvetica,sans-Serif" font-size="10.00">5</text>
</a>
</g>
</g>
</g>
</svg>
