<?xml version="1.0" encoding="UTF-8" standalone="no"?>
<!DOCTYPE svg PUBLIC "-//W3C//DTD SVG 1.1//EN"
 "http://www.w3.org/Graphics/SVG/1.1/DTD/svg11.dtd">
<!-- Generated by graphviz version 2.44.0 ()
 -->
<!-- Title: src/Controllers Pages: 1 -->
<svg width="353pt" height="383pt"
 viewBox="0.00 0.00 352.62 383.00" xmlns="http://www.w3.org/2000/svg" xmlns:xlink="http://www.w3.org/1999/xlink">
<g id="graph0" class="graph" transform="scale(1 1) rotate(0) translate(4 379)">
<title>src/Controllers</title>
<g id="clust1" class="cluster">
<title>clusterdir_68267d1309a1af8e8297ef4c3efbcdba</title>
<g id="a_clust1"><a xlink:href="dir_68267d1309a1af8e8297ef4c3efbcdba.html" target="_top" xlink:title="src">
<polygon fill="#ddddee" stroke="black" points="8,-8 8,-367 248,-367 248,-8 8,-8"/>
<text text-anchor="middle" x="128" y="-355" font-family="Helvetica,sans-Serif" font-size="10.00">src</text>
</a>
</g>
</g>
<!-- dir_146efcb14c269303f155f454755144b3 -->
<g id="node1" class="node">
<title>dir_146efcb14c269303f155f454755144b3</title>
<g id="a_node1"><a xlink:href="dir_146efcb14c269303f155f454755144b3.html" target="_top" xlink:title="Structs">
<polygon fill="none" stroke="black" points="148,-268 94,-268 94,-232 148,-232 148,-268"/>
<text text-anchor="middle" x="121" y="-247.5" font-family="Helvetica,sans-Serif" font-size="10.00">Structs</text>
</a>
</g>
</g>
<!-- dir_3ac9928fc2e7e2cbc53db7c1a11acda2 -->
<g id="node2" class="node">
<title>dir_3ac9928fc2e7e2cbc53db7c1a11acda2</title>
<g id="a_node2"><a xlink:href="dir_3ac9928fc2e7e2cbc53db7c1a11acda2.html" target="_top" xlink:title="Scripts">
<polygon fill="none" stroke="red" points="150,-196 96,-196 96,-160 150,-160 150,-196"/>
<text text-anchor="middle" x="123" y="-175.5" font-family="Helvetica,sans-Serif" font-size="10.00">Scripts</text>
</a>
</g>
</g>
<!-- dir_146efcb14c269303f155f454755144b3&#45;&gt;dir_3ac9928fc2e7e2cbc53db7c1a11acda2 -->
<g id="edge11" class="edge">
<title>dir_146efcb14c269303f155f454755144b3&#45;&gt;dir_3ac9928fc2e7e2cbc53db7c1a11acda2</title>
<path fill="none" stroke="black" d="M115.58,-231.7C115,-223.98 115.04,-214.71 115.63,-206.11"/>
<polygon fill="black" stroke="black" points="119.12,-206.4 116.62,-196.1 112.15,-205.71 119.12,-206.4"/>
<g id="a_edge11&#45;headlabel"><a xlink:href="dir_000030_000024.html" target="_top" xlink:title="4">
<text text-anchor="middle" x="121.59" y="-207.76" font-family="Helvetica,sans-Serif" font-size="10.00">4</text>
</a>
</g>
</g>
<!-- dir_804e9c8a6f85b64a196ad58c4618e191 -->
<g id="node4" class="node">
<title>dir_804e9c8a6f85b64a196ad58c4618e191</title>
<g id="a_node4"><a xlink:href="dir_804e9c8a6f85b64a196ad58c4618e191.html" target="_top" xlink:title="Enums">
<polygon fill="none" stroke="black" points="112,-52 58,-52 58,-16 112,-16 112,-52"/>
<text text-anchor="middle" x="85" y="-31.5" font-family="Helvetica,sans-Serif" font-size="10.00">Enums</text>
</a>
</g>
</g>
<!-- dir_146efcb14c269303f155f454755144b3&#45;&gt;dir_804e9c8a6f85b64a196ad58c4618e191 -->
<g id="edge13" class="edge">
<title>dir_146efcb14c269303f155f454755144b3&#45;&gt;dir_804e9c8a6f85b64a196ad58c4618e191</title>
<path fill="none" stroke="black" d="M104.97,-231.76C96.27,-221.81 85.73,-208.77 78,-196 59.97,-166.19 54.03,-158.12 47,-124 43.77,-108.33 42.1,-103.23 47,-88 50.19,-78.08 56,-68.44 62.13,-60.17"/>
<polygon fill="black" stroke="black" points="65.07,-62.09 68.54,-52.08 59.58,-57.74 65.07,-62.09"/>
<g id="a_edge13&#45;headlabel"><a xlink:href="dir_000030_000020.html" target="_top" xlink:title="6">
<text text-anchor="middle" x="65.06" y="-64.17" font-family="Helvetica,sans-Serif" font-size="10.00">6</text>
</a>
</g>
</g>
<!-- dir_6719ab1f1f7655efc2fa43f7eb574fd1 -->
<g id="node8" class="node">
<title>dir_6719ab1f1f7655efc2fa43f7eb574fd1</title>
<g id="a_node8"><a xlink:href="dir_6719ab1f1f7655efc2fa43f7eb574fd1.html" target="_top" xlink:title="libs">
<polygon fill="none" stroke="red" points="321,-52 267,-52 267,-16 321,-16 321,-52"/>
<text text-anchor="middle" x="294" y="-31.5" font-family="Helvetica,sans-Serif" font-size="10.00">libs</text>
</a>
</g>
</g>
<!-- dir_146efcb14c269303f155f454755144b3&#45;&gt;dir_6719ab1f1f7655efc2fa43f7eb574fd1 -->
<g id="edge12" class="edge">
<title>dir_146efcb14c269303f155f454755144b3&#45;&gt;dir_6719ab1f1f7655efc2fa43f7eb574fd1</title>
<path fill="none" stroke="black" d="M146.41,-231.94C177.12,-210.16 228.59,-169.75 260,-124 272.97,-105.1 281.86,-80.59 287.29,-62.07"/>
<polygon fill="black" stroke="black" points="290.72,-62.78 290.02,-52.21 283.98,-60.92 290.72,-62.78"/>
<g id="a_edge12&#45;headlabel"><a xlink:href="dir_000030_000000.html" target="_top" xlink:title="3">
<text text-anchor="middle" x="292.5" y="-64.51" font-family="Helvetica,sans-Serif" font-size="10.00">3</text>
</a>
</g>
</g>
<!-- dir_3ac9928fc2e7e2cbc53db7c1a11acda2&#45;&gt;dir_146efcb14c269303f155f454755144b3 -->
<g id="edge20" class="edge">
<title>dir_3ac9928fc2e7e2cbc53db7c1a11acda2&#45;&gt;dir_146efcb14c269303f155f454755144b3</title>
<path fill="none" stroke="black" d="M128.41,-196.1C128.99,-203.79 128.96,-213.05 128.39,-221.67"/>
<polygon fill="black" stroke="black" points="124.89,-221.4 127.41,-231.7 131.86,-222.08 124.89,-221.4"/>
<g id="a_edge20&#45;headlabel"><a xlink:href="dir_000024_000030.html" target="_top" xlink:title="7">
<text text-anchor="middle" x="122.42" y="-215.05" font-family="Helvetica,sans-Serif" font-size="10.00">7</text>
</a>
</g>
</g>
<!-- dir_3dbe57e65c50a7a17fba27939d267647 -->
<g id="node3" class="node">
<title>dir_3dbe57e65c50a7a17fba27939d267647</title>
<g id="a_node3"><a xlink:href="dir_3dbe57e65c50a7a17fba27939d267647.html" target="_top" xlink:title="Factories">
<polygon fill="none" stroke="black" points="113.5,-124 56.5,-124 56.5,-88 113.5,-88 113.5,-124"/>
<text text-anchor="middle" x="85" y="-103.5" font-family="Helvetica,sans-Serif" font-size="10.00">Factories</text>
</a>
</g>
</g>
<!-- dir_3ac9928fc2e7e2cbc53db7c1a11acda2&#45;&gt;dir_3dbe57e65c50a7a17fba27939d267647 -->
<g id="edge21" class="edge">
<title>dir_3ac9928fc2e7e2cbc53db7c1a11acda2&#45;&gt;dir_3dbe57e65c50a7a17fba27939d267647</title>
<path fill="none" stroke="black" d="M107.69,-159.7C102.54,-151.73 97.1,-142.1 92.7,-133.26"/>
<polygon fill="black" stroke="black" points="95.81,-131.66 88.39,-124.1 89.48,-134.64 95.81,-131.66"/>
<g id="a_edge21&#45;headlabel"><a xlink:href="dir_000024_000021.html" target="_top" xlink:title="9">
<text text-anchor="middle" x="99.91" y="-131.21" font-family="Helvetica,sans-Serif" font-size="10.00">9</text>
</a>
</g>
</g>
<!-- dir_3ac9928fc2e7e2cbc53db7c1a11acda2&#45;&gt;dir_804e9c8a6f85b64a196ad58c4618e191 -->
<g id="edge23" class="edge">
<title>dir_3ac9928fc2e7e2cbc53db7c1a11acda2&#45;&gt;dir_804e9c8a6f85b64a196ad58c4618e191</title>
<path fill="none" stroke="black" d="M125.75,-159.79C127.99,-141.51 129.69,-111.98 122,-88 118.85,-78.17 113.18,-68.55 107.21,-60.27"/>
<polygon fill="black" stroke="black" points="109.85,-57.96 100.98,-52.17 104.3,-62.23 109.85,-57.96"/>
<g id="a_edge23&#45;headlabel"><a xlink:href="dir_000024_000020.html" target="_top" xlink:title="11">
<text text-anchor="middle" x="114.29" y="-56.58" font-family="Helvetica,sans-Serif" font-size="10.00">11</text>
</a>
</g>
</g>
<!-- dir_c04391f011249a815ab0ebd9bc734b9b -->
<g id="node6" class="node">
<title>dir_c04391f011249a815ab0ebd9bc734b9b</title>
<g id="a_node6"><a xlink:href="dir_c04391f011249a815ab0ebd9bc734b9b.html" target="_top" xlink:title="Persistence">
<polygon fill="none" stroke="black" points="220,-124 152,-124 152,-88 220,-88 220,-124"/>
<text text-anchor="middle" x="186" y="-103.5" font-family="Helvetica,sans-Serif" font-size="10.00">Persistence</text>
</a>
</g>
</g>
<!-- dir_3ac9928fc2e7e2cbc53db7c1a11acda2&#45;&gt;dir_c04391f011249a815ab0ebd9bc734b9b -->
<g id="edge24" class="edge">
<title>dir_3ac9928fc2e7e2cbc53db7c1a11acda2&#45;&gt;dir_c04391f011249a815ab0ebd9bc734b9b</title>
<path fill="none" stroke="black" d="M138.57,-159.7C146.2,-151.22 155.52,-140.86 163.88,-131.58"/>
<polygon fill="black" stroke="black" points="166.52,-133.88 170.61,-124.1 161.31,-129.2 166.52,-133.88"/>
<g id="a_edge24&#45;headlabel"><a xlink:href="dir_000024_000022.html" target="_top" xlink:title="2">
<text text-anchor="middle" x="166.22" y="-135.95" font-family="Helvetica,sans-Serif" font-size="10.00">2</text>
</a>
</g>
</g>
<!-- dir_3ac9928fc2e7e2cbc53db7c1a11acda2&#45;&gt;dir_6719ab1f1f7655efc2fa43f7eb574fd1 -->
<g id="edge22" class="edge">
<title>dir_3ac9928fc2e7e2cbc53db7c1a11acda2&#45;&gt;dir_6719ab1f1f7655efc2fa43f7eb574fd1</title>
<path fill="none" stroke="black" d="M150.35,-167.51C173.09,-158.7 205.43,-143.93 229,-124 249.97,-106.27 267.86,-80.45 279.53,-61.18"/>
<polygon fill="black" stroke="black" points="282.69,-62.71 284.74,-52.31 276.66,-59.16 282.69,-62.71"/>
<g id="a_edge22&#45;headlabel"><a xlink:href="dir_000024_000000.html" target="_top" xlink:title="130">
<text text-anchor="middle" x="283.31" y="-64.74" font-family="Helvetica,sans-Serif" font-size="10.00">130</text>
</a>
</g>
</g>
<!-- dir_3dbe57e65c50a7a17fba27939d267647&#45;&gt;dir_146efcb14c269303f155f454755144b3 -->
<g id="edge16" class="edge">
<title>dir_3dbe57e65c50a7a17fba27939d267647&#45;&gt;dir_146efcb14c269303f155f454755144b3</title>
<path fill="none" stroke="black" d="M82.69,-124.16C80.84,-142.41 79.64,-171.91 87,-196 89.91,-205.52 95.05,-214.97 100.47,-223.2"/>
<polygon fill="black" stroke="black" points="97.75,-225.43 106.36,-231.6 103.48,-221.4 97.75,-225.43"/>
<g id="a_edge16&#45;headlabel"><a xlink:href="dir_000021_000030.html" target="_top" xlink:title="1">
<text text-anchor="middle" x="93.36" y="-221.62" font-family="Helvetica,sans-Serif" font-size="10.00">1</text>
</a>
</g>
</g>
<!-- dir_3dbe57e65c50a7a17fba27939d267647&#45;&gt;dir_3ac9928fc2e7e2cbc53db7c1a11acda2 -->
<g id="edge17" class="edge">
<title>dir_3dbe57e65c50a7a17fba27939d267647&#45;&gt;dir_3ac9928fc2e7e2cbc53db7c1a11acda2</title>
<path fill="none" stroke="black" d="M100.18,-124.1C105.32,-132.04 110.77,-141.67 115.19,-150.51"/>
<polygon fill="black" stroke="black" points="112.09,-152.15 119.52,-159.7 118.42,-149.16 112.09,-152.15"/>
<g id="a_edge17&#45;headlabel"><a xlink:href="dir_000021_000024.html" target="_top" xlink:title="19">
<text text-anchor="middle" x="107.99" y="-147.61" font-family="Helvetica,sans-Serif" font-size="10.00">19</text>
</a>
</g>
</g>
<!-- dir_3dbe57e65c50a7a17fba27939d267647&#45;&gt;dir_804e9c8a6f85b64a196ad58c4618e191 -->
<g id="edge19" class="edge">
<title>dir_3dbe57e65c50a7a17fba27939d267647&#45;&gt;dir_804e9c8a6f85b64a196ad58c4618e191</title>
<path fill="none" stroke="black" d="M85,-87.7C85,-79.98 85,-70.71 85,-62.11"/>
<polygon fill="black" stroke="black" points="88.5,-62.1 85,-52.1 81.5,-62.1 88.5,-62.1"/>
<g id="a_edge19&#45;headlabel"><a xlink:href="dir_000021_000020.html" target="_top" xlink:title="20">
<text text-anchor="middle" x="91.34" y="-63.2" font-family="Helvetica,sans-Serif" font-size="10.00">20</text>
</a>
</g>
</g>
<!-- dir_3dbe57e65c50a7a17fba27939d267647&#45;&gt;dir_6719ab1f1f7655efc2fa43f7eb574fd1 -->
<g id="edge18" class="edge">
<title>dir_3dbe57e65c50a7a17fba27939d267647&#45;&gt;dir_6719ab1f1f7655efc2fa43f7eb574fd1</title>
<path fill="none" stroke="black" d="M113.59,-96.66C147.03,-86.74 203.93,-69.33 252,-52 253.63,-51.41 255.29,-50.8 256.96,-50.17"/>
<polygon fill="black" stroke="black" points="258.49,-53.33 266.55,-46.46 255.97,-46.81 258.49,-53.33"/>
<g id="a_edge18&#45;headlabel"><a xlink:href="dir_000021_000000.html" target="_top" xlink:title="40">
<text text-anchor="middle" x="256.16" y="-54.78" font-family="Helvetica,sans-Serif" font-size="10.00">40</text>
</a>
</g>
</g>
<!-- dir_a7363e98f9e0bdd87618633653859815 -->
<g id="node5" class="node">
<title>dir_a7363e98f9e0bdd87618633653859815</title>
<g id="a_node5"><a xlink:href="dir_a7363e98f9e0bdd87618633653859815.html" target="_top" xlink:title="Utils">
<polygon fill="none" stroke="black" points="240,-268 186,-268 186,-232 240,-232 240,-268"/>
<text text-anchor="middle" x="213" y="-247.5" font-family="Helvetica,sans-Serif" font-size="10.00">Utils</text>
</a>
</g>
</g>
<!-- dir_a7363e98f9e0bdd87618633653859815&#45;&gt;dir_3ac9928fc2e7e2cbc53db7c1a11acda2 -->
<g id="edge1" class="edge">
<title>dir_a7363e98f9e0bdd87618633653859815&#45;&gt;dir_3ac9928fc2e7e2cbc53db7c1a11acda2</title>
<path fill="none" stroke="black" d="M190.75,-231.7C179.42,-222.88 165.47,-212.03 153.18,-202.47"/>
<polygon fill="black" stroke="black" points="155.03,-199.48 144.99,-196.1 150.74,-205.01 155.03,-199.48"/>
<g id="a_edge1&#45;headlabel"><a xlink:href="dir_000032_000024.html" target="_top" xlink:title="6">
<text text-anchor="middle" x="159.61" y="-196.95" font-family="Helvetica,sans-Serif" font-size="10.00">6</text>
</a>
</g>
</g>
<!-- dir_a7363e98f9e0bdd87618633653859815&#45;&gt;dir_804e9c8a6f85b64a196ad58c4618e191 -->
<g id="edge3" class="edge">
<title>dir_a7363e98f9e0bdd87618633653859815&#45;&gt;dir_804e9c8a6f85b64a196ad58c4618e191</title>
<path fill="none" stroke="black" d="M221.4,-231.89C235.55,-200.32 259.77,-132.12 229,-88 205.11,-53.74 156.47,-41.57 122.36,-37.28"/>
<polygon fill="black" stroke="black" points="122.6,-33.78 112.28,-36.18 121.84,-40.74 122.6,-33.78"/>
<g id="a_edge3&#45;headlabel"><a xlink:href="dir_000032_000020.html" target="_top" xlink:title="2">
<text text-anchor="middle" x="126.48" y="-28.85" font-family="Helvetica,sans-Serif" font-size="10.00">2</text>
</a>
</g>
</g>
<!-- dir_a7363e98f9e0bdd87618633653859815&#45;&gt;dir_6719ab1f1f7655efc2fa43f7eb574fd1 -->
<g id="edge2" class="edge">
<title>dir_a7363e98f9e0bdd87618633653859815&#45;&gt;dir_6719ab1f1f7655efc2fa43f7eb574fd1</title>
<path fill="none" stroke="black" d="M240.44,-243.88C266.02,-237.5 302.73,-223.83 320,-196 345.31,-155.22 330.85,-134.76 320,-88 317.9,-78.96 314.03,-69.68 309.91,-61.47"/>
<polygon fill="black" stroke="black" points="312.86,-59.55 305.05,-52.39 306.69,-62.86 312.86,-59.55"/>
<g id="a_edge2&#45;headlabel"><a xlink:href="dir_000032_000000.html" target="_top" xlink:title="2">
<text text-anchor="middle" x="317.06" y="-58.88" font-family="Helvetica,sans-Serif" font-size="10.00">2</text>
</a>
</g>
</g>
<!-- dir_c04391f011249a815ab0ebd9bc734b9b&#45;&gt;dir_146efcb14c269303f155f454755144b3 -->
<g id="edge14" class="edge">
<title>dir_c04391f011249a815ab0ebd9bc734b9b&#45;&gt;dir_146efcb14c269303f155f454755144b3</title>
<path fill="none" stroke="black" d="M182.58,-124.02C178.5,-142.41 170.72,-172.25 159,-196 154.27,-205.6 147.85,-215.33 141.64,-223.79"/>
<polygon fill="black" stroke="black" points="138.83,-221.7 135.56,-231.78 144.4,-225.94 138.83,-221.7"/>
<g id="a_edge14&#45;headlabel"><a xlink:href="dir_000022_000030.html" target="_top" xlink:title="3">
<text text-anchor="middle" x="138.75" y="-214.62" font-family="Helvetica,sans-Serif" font-size="10.00">3</text>
</a>
</g>
</g>
<!-- dir_c04391f011249a815ab0ebd9bc734b9b&#45;&gt;dir_6719ab1f1f7655efc2fa43f7eb574fd1 -->
<g id="edge15" class="edge">
<title>dir_c04391f011249a815ab0ebd9bc734b9b&#45;&gt;dir_6719ab1f1f7655efc2fa43f7eb574fd1</title>
<path fill="none" stroke="black" d="M212.42,-87.88C226.41,-78.81 243.78,-67.55 258.89,-57.76"/>
<polygon fill="black" stroke="black" points="260.99,-60.57 267.48,-52.19 257.18,-54.69 260.99,-60.57"/>
<g id="a_edge15&#45;headlabel"><a xlink:href="dir_000022_000000.html" target="_top" xlink:title="5">
<text text-anchor="middle" x="259.52" y="-62.4" font-family="Helvetica,sans-Serif" font-size="10.00">5</text>
</a>
</g>
</g>
<!-- dir_efbf91dec8e0e89146a72eada515bf52 -->
<g id="node7" class="node">
<title>dir_efbf91dec8e0e89146a72eada515bf52</title>
<g id="a_node7"><a xlink:href="dir_efbf91dec8e0e89146a72eada515bf52.html" target="_top" xlink:title="Controllers">
<polygon fill="#eeeeff" stroke="black" points="152.5,-340 89.5,-340 89.5,-304 152.5,-304 152.5,-340"/>
<text text-anchor="middle" x="121" y="-319.5" font-family="Helvetica,sans-Serif" font-size="10.00">Controllers</text>
</a>
</g>
</g>
<!-- dir_efbf91dec8e0e89146a72eada515bf52&#45;&gt;dir_146efcb14c269303f155f454755144b3 -->
<g id="edge4" class="edge">
<title>dir_efbf91dec8e0e89146a72eada515bf52&#45;&gt;dir_146efcb14c269303f155f454755144b3</title>
<path fill="none" stroke="black" d="M121,-303.7C121,-295.98 121,-286.71 121,-278.11"/>
<polygon fill="black" stroke="black" points="124.5,-278.1 121,-268.1 117.5,-278.1 124.5,-278.1"/>
<g id="a_edge4&#45;headlabel"><a xlink:href="dir_000019_000030.html" target="_top" xlink:title="11">
<text text-anchor="middle" x="127.34" y="-279.2" font-family="Helvetica,sans-Serif" font-size="10.00">11</text>
</a>
</g>
</g>
<!-- dir_efbf91dec8e0e89146a72eada515bf52&#45;&gt;dir_3ac9928fc2e7e2cbc53db7c1a11acda2 -->
<g id="edge5" class="edge">
<title>dir_efbf91dec8e0e89146a72eada515bf52&#45;&gt;dir_3ac9928fc2e7e2cbc53db7c1a11acda2</title>
<path fill="none" stroke="black" d="M105.39,-303.77C97.63,-294.03 89.05,-281.18 85,-268 80.3,-252.71 80.1,-247.23 85,-232 88.19,-222.08 94,-212.44 100.13,-204.17"/>
<polygon fill="black" stroke="black" points="103.07,-206.09 106.54,-196.08 97.58,-201.74 103.07,-206.09"/>
<g id="a_edge5&#45;headlabel"><a xlink:href="dir_000019_000024.html" target="_top" xlink:title="6">
<text text-anchor="middle" x="103.06" y="-208.17" font-family="Helvetica,sans-Serif" font-size="10.00">6</text>
</a>
</g>
</g>
<!-- dir_efbf91dec8e0e89146a72eada515bf52&#45;&gt;dir_3dbe57e65c50a7a17fba27939d267647 -->
<g id="edge6" class="edge">
<title>dir_efbf91dec8e0e89146a72eada515bf52&#45;&gt;dir_3dbe57e65c50a7a17fba27939d267647</title>
<path fill="none" stroke="black" d="M101.96,-303.84C92.82,-294.3 82.83,-281.62 78,-268 62.05,-223.03 70.46,-166.52 77.85,-133.81"/>
<polygon fill="black" stroke="black" points="81.26,-134.61 80.18,-124.07 74.45,-132.98 81.26,-134.61"/>
<g id="a_edge6&#45;headlabel"><a xlink:href="dir_000019_000021.html" target="_top" xlink:title="5">
<text text-anchor="middle" x="83.18" y="-136.27" font-family="Helvetica,sans-Serif" font-size="10.00">5</text>
</a>
</g>
</g>
<!-- dir_efbf91dec8e0e89146a72eada515bf52&#45;&gt;dir_804e9c8a6f85b64a196ad58c4618e191 -->
<g id="edge8" class="edge">
<title>dir_efbf91dec8e0e89146a72eada515bf52&#45;&gt;dir_804e9c8a6f85b64a196ad58c4618e191</title>
<path fill="none" stroke="black" d="M97.75,-303.79C86.75,-294.42 74.42,-281.91 67,-268 36.35,-210.55 46.03,-188.84 40,-124 38.52,-108.07 34.48,-103.02 40,-88 43.78,-77.7 50.56,-68.02 57.72,-59.84"/>
<polygon fill="black" stroke="black" points="60.34,-62.16 64.62,-52.47 55.23,-57.38 60.34,-62.16"/>
<g id="a_edge8&#45;headlabel"><a xlink:href="dir_000019_000020.html" target="_top" xlink:title="4">
<text text-anchor="middle" x="59.96" y="-64.22" font-family="Helvetica,sans-Serif" font-size="10.00">4</text>
</a>
</g>
</g>
<!-- dir_efbf91dec8e0e89146a72eada515bf52&#45;&gt;dir_a7363e98f9e0bdd87618633653859815 -->
<g id="edge9" class="edge">
<title>dir_efbf91dec8e0e89146a72eada515bf52&#45;&gt;dir_a7363e98f9e0bdd87618633653859815</title>
<path fill="none" stroke="black" d="M143.74,-303.7C155.44,-294.8 169.86,-283.82 182.51,-274.2"/>
<polygon fill="black" stroke="black" points="184.68,-276.94 190.52,-268.1 180.44,-271.37 184.68,-276.94"/>
<g id="a_edge9&#45;headlabel"><a xlink:href="dir_000019_000032.html" target="_top" xlink:title="2">
<text text-anchor="middle" x="183.54" y="-278.88" font-family="Helvetica,sans-Serif" font-size="10.00">2</text>
</a>
</g>
</g>
<!-- dir_efbf91dec8e0e89146a72eada515bf52&#45;&gt;dir_c04391f011249a815ab0ebd9bc734b9b -->
<g id="edge10" class="edge">
<title>dir_efbf91dec8e0e89146a72eada515bf52&#45;&gt;dir_c04391f011249a815ab0ebd9bc734b9b</title>
<path fill="none" stroke="black" d="M135.26,-303.89C142.81,-293.98 151.62,-280.94 157,-268 175.53,-223.48 182.24,-167.18 184.65,-134.32"/>
<polygon fill="black" stroke="black" points="188.16,-134.33 185.32,-124.13 181.17,-133.88 188.16,-134.33"/>
<g id="a_edge10&#45;headlabel"><a xlink:href="dir_000019_000022.html" target="_top" xlink:title="1">
<text text-anchor="middle" x="190.76" y="-135.61" font-family="Helvetica,sans-Serif" font-size="10.00">1</text>
</a>
</g>
</g>
<!-- dir_efbf91dec8e0e89146a72eada515bf52&#45;&gt;dir_6719ab1f1f7655efc2fa43f7eb574fd1 -->
<g id="edge7" class="edge">
<title>dir_efbf91dec8e0e89146a72eada515bf52&#45;&gt;dir_6719ab1f1f7655efc2fa43f7eb574fd1</title>
<path fill="none" stroke="black" d="M152.8,-314.61C204.46,-302.25 304.43,-269.49 340,-196 345.97,-183.67 346.83,-111.43 338,-88 334.1,-77.65 327.28,-67.87 320.16,-59.59"/>
<polygon fill="black" stroke="black" points="322.66,-57.14 313.32,-52.14 317.5,-61.87 322.66,-57.14"/>
<g id="a_edge7&#45;headlabel"><a xlink:href="dir_000019_000000.html" target="_top" xlink:title="17">
<text text-anchor="middle" x="327.18" y="-55.37" font-family="Helvetica,sans-Serif" font-size="10.00">17</text>
</a>
</g>
</g>
</g>
</svg>
