<?xml version="1.0" encoding="UTF-8" standalone="no"?>
<!DOCTYPE svg PUBLIC "-//W3C//DTD SVG 1.1//EN"
 "http://www.w3.org/Graphics/SVG/1.1/DTD/svg11.dtd">
<!-- Generated by graphviz version 2.44.0 ()
 -->
<!-- Title: src/Scripts/Enemies Pages: 1 -->
<svg width="244pt" height="295pt"
 viewBox="0.00 0.00 244.00 295.00" xmlns="http://www.w3.org/2000/svg" xmlns:xlink="http://www.w3.org/1999/xlink">
<g id="graph0" class="graph" transform="scale(1 1) rotate(0) translate(4 291)">
<title>src/Scripts/Enemies</title>
<g id="clust1" class="cluster">
<title>clusterdir_3ac9928fc2e7e2cbc53db7c1a11acda2</title>
<g id="a_clust1"><a xlink:href="dir_3ac9928fc2e7e2cbc53db7c1a11acda2.html" target="_top" xlink:title="Scripts">
<polygon fill="#ddddee" stroke="black" points="8,-136 8,-279 80,-279 80,-136 8,-136"/>
<text text-anchor="middle" x="44" y="-267" font-family="Helvetica,sans-Serif" font-size="10.00">Scripts</text>
</a>
</g>
</g>
<!-- dir_597d3b15b2681ac1e836bbd120fa430e -->
<g id="node1" class="node">
<title>dir_597d3b15b2681ac1e836bbd120fa430e</title>
<g id="a_node1"><a xlink:href="dir_597d3b15b2681ac1e836bbd120fa430e.html" target="_top" xlink:title="Common">
<polygon fill="none" stroke="black" points="72,-180 16,-180 16,-144 72,-144 72,-180"/>
<text text-anchor="middle" x="44" y="-159.5" font-family="Helvetica,sans-Serif" font-size="10.00">Common</text>
</a>
</g>
</g>
<!-- dir_146efcb14c269303f155f454755144b3 -->
<g id="node3" class="node">
<title>dir_146efcb14c269303f155f454755144b3</title>
<g id="a_node3"><a xlink:href="dir_146efcb14c269303f155f454755144b3.html" target="_top" xlink:title="Structs">
<polygon fill="none" stroke="black" points="126,-108 72,-108 72,-72 126,-72 126,-108"/>
<text text-anchor="middle" x="99" y="-87.5" font-family="Helvetica,sans-Serif" font-size="10.00">Structs</text>
</a>
</g>
</g>
<!-- dir_597d3b15b2681ac1e836bbd120fa430e&#45;&gt;dir_146efcb14c269303f155f454755144b3 -->
<g id="edge13" class="edge">
<title>dir_597d3b15b2681ac1e836bbd120fa430e&#45;&gt;dir_146efcb14c269303f155f454755144b3</title>
<path fill="none" stroke="black" d="M51.68,-143.7C57.41,-135.3 65.26,-125.07 72.97,-115.86"/>
<polygon fill="black" stroke="black" points="75.78,-117.96 79.67,-108.1 70.48,-113.39 75.78,-117.96"/>
<g id="a_edge13&#45;headlabel"><a xlink:href="dir_000020_000025.html" target="_top" xlink:title="4">
<text text-anchor="middle" x="75.59" y="-120.04" font-family="Helvetica,sans-Serif" font-size="10.00">4</text>
</a>
</g>
</g>
<!-- dir_6719ab1f1f7655efc2fa43f7eb574fd1 -->
<g id="node4" class="node">
<title>dir_6719ab1f1f7655efc2fa43f7eb574fd1</title>
<g id="a_node4"><a xlink:href="dir_6719ab1f1f7655efc2fa43f7eb574fd1.html" target="_top" xlink:title="libs">
<polygon fill="none" stroke="red" points="126,-36 72,-36 72,0 126,0 126,-36"/>
<text text-anchor="middle" x="99" y="-15.5" font-family="Helvetica,sans-Serif" font-size="10.00">libs</text>
</a>
</g>
</g>
<!-- dir_597d3b15b2681ac1e836bbd120fa430e&#45;&gt;dir_6719ab1f1f7655efc2fa43f7eb574fd1 -->
<g id="edge14" class="edge">
<title>dir_597d3b15b2681ac1e836bbd120fa430e&#45;&gt;dir_6719ab1f1f7655efc2fa43f7eb574fd1</title>
<path fill="none" stroke="black" d="M45.7,-143.67C47.95,-125.29 52.89,-95.69 63,-72 67.08,-62.43 72.99,-52.78 78.84,-44.39"/>
<polygon fill="black" stroke="black" points="81.78,-46.29 84.84,-36.15 76.12,-42.17 81.78,-46.29"/>
<g id="a_edge14&#45;headlabel"><a xlink:href="dir_000020_000000.html" target="_top" xlink:title="33">
<text text-anchor="middle" x="81.96" y="-48.37" font-family="Helvetica,sans-Serif" font-size="10.00">33</text>
</a>
</g>
</g>
<!-- dir_a7363e98f9e0bdd87618633653859815 -->
<g id="node5" class="node">
<title>dir_a7363e98f9e0bdd87618633653859815</title>
<g id="a_node5"><a xlink:href="dir_a7363e98f9e0bdd87618633653859815.html" target="_top" xlink:title="Utils">
<polygon fill="none" stroke="black" points="236,-108 182,-108 182,-72 236,-72 236,-108"/>
<text text-anchor="middle" x="209" y="-87.5" font-family="Helvetica,sans-Serif" font-size="10.00">Utils</text>
</a>
</g>
</g>
<!-- dir_597d3b15b2681ac1e836bbd120fa430e&#45;&gt;dir_a7363e98f9e0bdd87618633653859815 -->
<g id="edge15" class="edge">
<title>dir_597d3b15b2681ac1e836bbd120fa430e&#45;&gt;dir_a7363e98f9e0bdd87618633653859815</title>
<path fill="none" stroke="black" d="M72.36,-148.97C100.05,-137.22 142.3,-119.3 172.48,-106.49"/>
<polygon fill="black" stroke="black" points="173.99,-109.66 181.83,-102.53 171.25,-103.21 173.99,-109.66"/>
<g id="a_edge15&#45;headlabel"><a xlink:href="dir_000020_000026.html" target="_top" xlink:title="5">
<text text-anchor="middle" x="171.79" y="-111.17" font-family="Helvetica,sans-Serif" font-size="10.00">5</text>
</a>
</g>
</g>
<!-- dir_efbf91dec8e0e89146a72eada515bf52 -->
<g id="node6" class="node">
<title>dir_efbf91dec8e0e89146a72eada515bf52</title>
<g id="a_node6"><a xlink:href="dir_efbf91dec8e0e89146a72eada515bf52.html" target="_top" xlink:title="Controllers">
<polygon fill="none" stroke="black" points="191.5,-180 128.5,-180 128.5,-144 191.5,-144 191.5,-180"/>
<text text-anchor="middle" x="160" y="-159.5" font-family="Helvetica,sans-Serif" font-size="10.00">Controllers</text>
</a>
</g>
</g>
<!-- dir_597d3b15b2681ac1e836bbd120fa430e&#45;&gt;dir_efbf91dec8e0e89146a72eada515bf52 -->
<g id="edge16" class="edge">
<title>dir_597d3b15b2681ac1e836bbd120fa430e&#45;&gt;dir_efbf91dec8e0e89146a72eada515bf52</title>
<path fill="none" stroke="black" d="M72.09,-162C87.49,-162 102.89,-162 118.29,-162"/>
<polygon fill="black" stroke="black" points="118.41,-165.5 128.41,-162 118.41,-158.5 118.41,-165.5"/>
<g id="a_edge16&#45;headlabel"><a xlink:href="dir_000020_000014.html" target="_top" xlink:title="1">
<text text-anchor="middle" x="114.81" y="-165.84" font-family="Helvetica,sans-Serif" font-size="10.00">1</text>
</a>
</g>
</g>
<!-- dir_bd2930aa621856531f8d2e7330d78db8 -->
<g id="node2" class="node">
<title>dir_bd2930aa621856531f8d2e7330d78db8</title>
<g id="a_node2"><a xlink:href="dir_bd2930aa621856531f8d2e7330d78db8.html" target="_top" xlink:title="Enemies">
<polygon fill="#eeeeff" stroke="black" points="72,-252 18,-252 18,-216 72,-216 72,-252"/>
<text text-anchor="middle" x="45" y="-231.5" font-family="Helvetica,sans-Serif" font-size="10.00">Enemies</text>
</a>
</g>
</g>
<!-- dir_bd2930aa621856531f8d2e7330d78db8&#45;&gt;dir_597d3b15b2681ac1e836bbd120fa430e -->
<g id="edge3" class="edge">
<title>dir_bd2930aa621856531f8d2e7330d78db8&#45;&gt;dir_597d3b15b2681ac1e836bbd120fa430e</title>
<path fill="none" stroke="black" d="M44.75,-215.7C44.64,-207.98 44.51,-198.71 44.39,-190.11"/>
<polygon fill="black" stroke="black" points="47.89,-190.05 44.24,-180.1 40.89,-190.15 47.89,-190.05"/>
<g id="a_edge3&#45;headlabel"><a xlink:href="dir_000021_000020.html" target="_top" xlink:title="1">
<text text-anchor="middle" x="50.78" y="-191.11" font-family="Helvetica,sans-Serif" font-size="10.00">1</text>
</a>
</g>
</g>
<!-- dir_bd2930aa621856531f8d2e7330d78db8&#45;&gt;dir_146efcb14c269303f155f454755144b3 -->
<g id="edge2" class="edge">
<title>dir_bd2930aa621856531f8d2e7330d78db8&#45;&gt;dir_146efcb14c269303f155f454755144b3</title>
<path fill="none" stroke="black" d="M59.22,-215.87C66.76,-205.96 75.57,-192.92 81,-180 89.29,-160.29 93.85,-136.49 96.3,-118.46"/>
<polygon fill="black" stroke="black" points="99.8,-118.68 97.54,-108.33 92.85,-117.82 99.8,-118.68"/>
<g id="a_edge2&#45;headlabel"><a xlink:href="dir_000021_000025.html" target="_top" xlink:title="1">
<text text-anchor="middle" x="102.18" y="-120.09" font-family="Helvetica,sans-Serif" font-size="10.00">1</text>
</a>
</g>
</g>
<!-- dir_bd2930aa621856531f8d2e7330d78db8&#45;&gt;dir_6719ab1f1f7655efc2fa43f7eb574fd1 -->
<g id="edge4" class="edge">
<title>dir_bd2930aa621856531f8d2e7330d78db8&#45;&gt;dir_6719ab1f1f7655efc2fa43f7eb574fd1</title>
<path fill="none" stroke="black" d="M28.54,-215.92C20.35,-206.22 11.3,-193.37 7,-180 1.02,-161.38 1.61,-154.8 7,-136 17.75,-98.51 47.81,-64.55 70.67,-43"/>
<polygon fill="black" stroke="black" points="73.1,-45.52 78.1,-36.18 68.37,-40.36 73.1,-45.52"/>
<g id="a_edge4&#45;headlabel"><a xlink:href="dir_000021_000000.html" target="_top" xlink:title="5">
<text text-anchor="middle" x="72.37" y="-47.54" font-family="Helvetica,sans-Serif" font-size="10.00">5</text>
</a>
</g>
</g>
<!-- dir_bd2930aa621856531f8d2e7330d78db8&#45;&gt;dir_a7363e98f9e0bdd87618633653859815 -->
<g id="edge5" class="edge">
<title>dir_bd2930aa621856531f8d2e7330d78db8&#45;&gt;dir_a7363e98f9e0bdd87618633653859815</title>
<path fill="none" stroke="black" d="M72.06,-232.3C107.81,-229.78 169.88,-219.57 201,-180 214.59,-162.72 215.59,-137.28 213.77,-118.03"/>
<polygon fill="black" stroke="black" points="217.23,-117.55 212.53,-108.06 210.29,-118.41 217.23,-117.55"/>
<g id="a_edge5&#45;headlabel"><a xlink:href="dir_000021_000026.html" target="_top" xlink:title="2">
<text text-anchor="middle" x="220.49" y="-118.27" font-family="Helvetica,sans-Serif" font-size="10.00">2</text>
</a>
</g>
</g>
<!-- dir_bd2930aa621856531f8d2e7330d78db8&#45;&gt;dir_efbf91dec8e0e89146a72eada515bf52 -->
<g id="edge6" class="edge">
<title>dir_bd2930aa621856531f8d2e7330d78db8&#45;&gt;dir_efbf91dec8e0e89146a72eada515bf52</title>
<path fill="none" stroke="black" d="M72.25,-216.41C87.38,-207.2 106.42,-195.61 122.89,-185.59"/>
<polygon fill="black" stroke="black" points="125.02,-188.39 131.74,-180.2 121.38,-182.41 125.02,-188.39"/>
<g id="a_edge6&#45;headlabel"><a xlink:href="dir_000021_000014.html" target="_top" xlink:title="1">
<text text-anchor="middle" x="123.42" y="-190.18" font-family="Helvetica,sans-Serif" font-size="10.00">1</text>
</a>
</g>
</g>
<!-- dir_146efcb14c269303f155f454755144b3&#45;&gt;dir_597d3b15b2681ac1e836bbd120fa430e -->
<g id="edge11" class="edge">
<title>dir_146efcb14c269303f155f454755144b3&#45;&gt;dir_597d3b15b2681ac1e836bbd120fa430e</title>
<path fill="none" stroke="black" d="M91.46,-108.1C85.76,-116.47 77.93,-126.69 70.21,-135.92"/>
<polygon fill="black" stroke="black" points="67.38,-133.84 63.51,-143.7 72.69,-138.4 67.38,-133.84"/>
<g id="a_edge11&#45;headlabel"><a xlink:href="dir_000025_000020.html" target="_top" xlink:title="2">
<text text-anchor="middle" x="67.58" y="-126.76" font-family="Helvetica,sans-Serif" font-size="10.00">2</text>
</a>
</g>
</g>
<!-- dir_146efcb14c269303f155f454755144b3&#45;&gt;dir_6719ab1f1f7655efc2fa43f7eb574fd1 -->
<g id="edge12" class="edge">
<title>dir_146efcb14c269303f155f454755144b3&#45;&gt;dir_6719ab1f1f7655efc2fa43f7eb574fd1</title>
<path fill="none" stroke="black" d="M99,-71.7C99,-63.98 99,-54.71 99,-46.11"/>
<polygon fill="black" stroke="black" points="102.5,-46.1 99,-36.1 95.5,-46.1 102.5,-46.1"/>
<g id="a_edge12&#45;headlabel"><a xlink:href="dir_000025_000000.html" target="_top" xlink:title="2">
<text text-anchor="middle" x="105.34" y="-47.2" font-family="Helvetica,sans-Serif" font-size="10.00">2</text>
</a>
</g>
</g>
<!-- dir_a7363e98f9e0bdd87618633653859815&#45;&gt;dir_6719ab1f1f7655efc2fa43f7eb574fd1 -->
<g id="edge1" class="edge">
<title>dir_a7363e98f9e0bdd87618633653859815&#45;&gt;dir_6719ab1f1f7655efc2fa43f7eb574fd1</title>
<path fill="none" stroke="black" d="M182.09,-71.88C167.84,-62.81 150.15,-51.55 134.76,-41.76"/>
<polygon fill="black" stroke="black" points="136.33,-38.61 126.01,-36.19 132.57,-44.51 136.33,-38.61"/>
<g id="a_edge1&#45;headlabel"><a xlink:href="dir_000026_000000.html" target="_top" xlink:title="3">
<text text-anchor="middle" x="140.89" y="-35.64" font-family="Helvetica,sans-Serif" font-size="10.00">3</text>
</a>
</g>
</g>
<!-- dir_efbf91dec8e0e89146a72eada515bf52&#45;&gt;dir_597d3b15b2681ac1e836bbd120fa430e -->
<g id="edge8" class="edge">
<title>dir_efbf91dec8e0e89146a72eada515bf52&#45;&gt;dir_597d3b15b2681ac1e836bbd120fa430e</title>
<path fill="none" stroke="black" d="M128.41,-162C113.01,-162 97.61,-162 82.21,-162"/>
<polygon fill="black" stroke="black" points="82.09,-158.5 72.09,-162 82.09,-165.5 82.09,-158.5"/>
<g id="a_edge8&#45;headlabel"><a xlink:href="dir_000014_000020.html" target="_top" xlink:title="2">
<text text-anchor="middle" x="85.69" y="-153.16" font-family="Helvetica,sans-Serif" font-size="10.00">2</text>
</a>
</g>
</g>
<!-- dir_efbf91dec8e0e89146a72eada515bf52&#45;&gt;dir_146efcb14c269303f155f454755144b3 -->
<g id="edge7" class="edge">
<title>dir_efbf91dec8e0e89146a72eada515bf52&#45;&gt;dir_146efcb14c269303f155f454755144b3</title>
<path fill="none" stroke="black" d="M144.92,-143.7C137.61,-135.3 128.69,-125.07 120.66,-115.86"/>
<polygon fill="black" stroke="black" points="123.11,-113.34 113.91,-108.1 117.84,-117.94 123.11,-113.34"/>
<g id="a_edge7&#45;headlabel"><a xlink:href="dir_000014_000025.html" target="_top" xlink:title="6">
<text text-anchor="middle" x="127.62" y="-111.69" font-family="Helvetica,sans-Serif" font-size="10.00">6</text>
</a>
</g>
</g>
<!-- dir_efbf91dec8e0e89146a72eada515bf52&#45;&gt;dir_6719ab1f1f7655efc2fa43f7eb574fd1 -->
<g id="edge9" class="edge">
<title>dir_efbf91dec8e0e89146a72eada515bf52&#45;&gt;dir_6719ab1f1f7655efc2fa43f7eb574fd1</title>
<path fill="none" stroke="black" d="M156.87,-143.69C153.15,-125.32 146.03,-95.72 135,-72 130.61,-62.57 124.63,-52.95 118.8,-44.55"/>
<polygon fill="black" stroke="black" points="121.53,-42.36 112.85,-36.29 115.85,-46.45 121.53,-42.36"/>
<g id="a_edge9&#45;headlabel"><a xlink:href="dir_000014_000000.html" target="_top" xlink:title="6">
<text text-anchor="middle" x="125.94" y="-41.12" font-family="Helvetica,sans-Serif" font-size="10.00">6</text>
</a>
</g>
</g>
<!-- dir_efbf91dec8e0e89146a72eada515bf52&#45;&gt;dir_a7363e98f9e0bdd87618633653859815 -->
<g id="edge10" class="edge">
<title>dir_efbf91dec8e0e89146a72eada515bf52&#45;&gt;dir_a7363e98f9e0bdd87618633653859815</title>
<path fill="none" stroke="black" d="M172.11,-143.7C177.87,-135.47 184.86,-125.48 191.21,-116.42"/>
<polygon fill="black" stroke="black" points="194.16,-118.3 197.03,-108.1 188.42,-114.29 194.16,-118.3"/>
<g id="a_edge10&#45;headlabel"><a xlink:href="dir_000014_000026.html" target="_top" xlink:title="3">
<text text-anchor="middle" x="194.42" y="-120.38" font-family="Helvetica,sans-Serif" font-size="10.00">3</text>
</a>
</g>
</g>
</g>
</svg>
