<?xml version="1.0" encoding="UTF-8" standalone="no"?>
<!DOCTYPE svg PUBLIC "-//W3C//DTD SVG 1.1//EN"
 "http://www.w3.org/Graphics/SVG/1.1/DTD/svg11.dtd">
<!-- Generated by graphviz version 2.44.0 ()
 -->
<!-- Title: src/Persistence Pages: 1 -->
<svg width="166pt" height="223pt"
 viewBox="0.00 0.00 166.00 223.00" xmlns="http://www.w3.org/2000/svg" xmlns:xlink="http://www.w3.org/1999/xlink">
<g id="graph0" class="graph" transform="scale(1 1) rotate(0) translate(4 219)">
<title>src/Persistence</title>
<g id="clust1" class="cluster">
<title>clusterdir_68267d1309a1af8e8297ef4c3efbcdba</title>
<g id="a_clust1"><a xlink:href="dir_68267d1309a1af8e8297ef4c3efbcdba.html" target="_top" xlink:title="src">
<polygon fill="#ddddee" stroke="black" points="8,-64 8,-207 150,-207 150,-64 8,-64"/>
<text text-anchor="middle" x="79" y="-195" font-family="Helvetica,sans-Serif" font-size="10.00">src</text>
</a>
</g>
</g>
<!-- dir_146efcb14c269303f155f454755144b3 -->
<g id="node1" class="node">
<title>dir_146efcb14c269303f155f454755144b3</title>
<g id="a_node1"><a xlink:href="dir_146efcb14c269303f155f454755144b3.html" target="_top" xlink:title="Structs">
<polygon fill="none" stroke="black" points="70,-108 16,-108 16,-72 70,-72 70,-108"/>
<text text-anchor="middle" x="43" y="-87.5" font-family="Helvetica,sans-Serif" font-size="10.00">Structs</text>
</a>
</g>
</g>
<!-- dir_6719ab1f1f7655efc2fa43f7eb574fd1 -->
<g id="node4" class="node">
<title>dir_6719ab1f1f7655efc2fa43f7eb574fd1</title>
<g id="a_node4"><a xlink:href="dir_6719ab1f1f7655efc2fa43f7eb574fd1.html" target="_top" xlink:title="libs">
<polygon fill="none" stroke="red" points="142,-36 88,-36 88,0 142,0 142,-36"/>
<text text-anchor="middle" x="115" y="-15.5" font-family="Helvetica,sans-Serif" font-size="10.00">libs</text>
</a>
</g>
</g>
<!-- dir_146efcb14c269303f155f454755144b3&#45;&gt;dir_6719ab1f1f7655efc2fa43f7eb574fd1 -->
<g id="edge2" class="edge">
<title>dir_146efcb14c269303f155f454755144b3&#45;&gt;dir_6719ab1f1f7655efc2fa43f7eb574fd1</title>
<path fill="none" stroke="black" d="M60.8,-71.7C69.6,-63.14 80.38,-52.66 90,-43.3"/>
<polygon fill="black" stroke="black" points="92.68,-45.58 97.41,-36.1 87.8,-40.57 92.68,-45.58"/>
<g id="a_edge2&#45;headlabel"><a xlink:href="dir_000023_000000.html" target="_top" xlink:title="2">
<text text-anchor="middle" x="92.08" y="-47.63" font-family="Helvetica,sans-Serif" font-size="10.00">2</text>
</a>
</g>
</g>
<!-- dir_a7363e98f9e0bdd87618633653859815 -->
<g id="node2" class="node">
<title>dir_a7363e98f9e0bdd87618633653859815</title>
<g id="a_node2"><a xlink:href="dir_a7363e98f9e0bdd87618633653859815.html" target="_top" xlink:title="Utils">
<polygon fill="none" stroke="black" points="142,-108 88,-108 88,-72 142,-72 142,-108"/>
<text text-anchor="middle" x="115" y="-87.5" font-family="Helvetica,sans-Serif" font-size="10.00">Utils</text>
</a>
</g>
</g>
<!-- dir_a7363e98f9e0bdd87618633653859815&#45;&gt;dir_6719ab1f1f7655efc2fa43f7eb574fd1 -->
<g id="edge1" class="edge">
<title>dir_a7363e98f9e0bdd87618633653859815&#45;&gt;dir_6719ab1f1f7655efc2fa43f7eb574fd1</title>
<path fill="none" stroke="black" d="M115,-71.7C115,-63.98 115,-54.71 115,-46.11"/>
<polygon fill="black" stroke="black" points="118.5,-46.1 115,-36.1 111.5,-46.1 118.5,-46.1"/>
<g id="a_edge1&#45;headlabel"><a xlink:href="dir_000024_000000.html" target="_top" xlink:title="3">
<text text-anchor="middle" x="121.34" y="-47.2" font-family="Helvetica,sans-Serif" font-size="10.00">3</text>
</a>
</g>
</g>
<!-- dir_c04391f011249a815ab0ebd9bc734b9b -->
<g id="node3" class="node">
<title>dir_c04391f011249a815ab0ebd9bc734b9b</title>
<g id="a_node3"><a xlink:href="dir_c04391f011249a815ab0ebd9bc734b9b.html" target="_top" xlink:title="Persistence">
<polygon fill="#eeeeff" stroke="black" points="142,-180 74,-180 74,-144 142,-144 142,-180"/>
<text text-anchor="middle" x="108" y="-159.5" font-family="Helvetica,sans-Serif" font-size="10.00">Persistence</text>
</a>
</g>
</g>
<!-- dir_c04391f011249a815ab0ebd9bc734b9b&#45;&gt;dir_146efcb14c269303f155f454755144b3 -->
<g id="edge3" class="edge">
<title>dir_c04391f011249a815ab0ebd9bc734b9b&#45;&gt;dir_146efcb14c269303f155f454755144b3</title>
<path fill="none" stroke="black" d="M91.93,-143.7C84.06,-135.22 74.44,-124.86 65.83,-115.58"/>
<polygon fill="black" stroke="black" points="68.25,-113.05 58.88,-108.1 63.12,-117.81 68.25,-113.05"/>
<g id="a_edge3&#45;headlabel"><a xlink:href="dir_000016_000023.html" target="_top" xlink:title="4">
<text text-anchor="middle" x="72.78" y="-111.25" font-family="Helvetica,sans-Serif" font-size="10.00">4</text>
</a>
</g>
</g>
<!-- dir_c04391f011249a815ab0ebd9bc734b9b&#45;&gt;dir_a7363e98f9e0bdd87618633653859815 -->
<g id="edge5" class="edge">
<title>dir_c04391f011249a815ab0ebd9bc734b9b&#45;&gt;dir_a7363e98f9e0bdd87618633653859815</title>
<path fill="none" stroke="black" d="M109.73,-143.7C110.5,-135.98 111.43,-126.71 112.29,-118.11"/>
<polygon fill="black" stroke="black" points="115.78,-118.4 113.29,-108.1 108.81,-117.71 115.78,-118.4"/>
<g id="a_edge5&#45;headlabel"><a xlink:href="dir_000016_000024.html" target="_top" xlink:title="1">
<text text-anchor="middle" x="118.24" y="-119.76" font-family="Helvetica,sans-Serif" font-size="10.00">1</text>
</a>
</g>
</g>
<!-- dir_c04391f011249a815ab0ebd9bc734b9b&#45;&gt;dir_6719ab1f1f7655efc2fa43f7eb574fd1 -->
<g id="edge4" class="edge">
<title>dir_c04391f011249a815ab0ebd9bc734b9b&#45;&gt;dir_6719ab1f1f7655efc2fa43f7eb574fd1</title>
<path fill="none" stroke="black" d="M127.04,-143.84C136.18,-134.3 146.17,-121.62 151,-108 157.54,-89.57 157.47,-82.45 151,-64 148.5,-56.86 144.33,-50.01 139.7,-43.91"/>
<polygon fill="black" stroke="black" points="142.29,-41.55 133.22,-36.08 136.9,-46.01 142.29,-41.55"/>
<g id="a_edge4&#45;headlabel"><a xlink:href="dir_000016_000000.html" target="_top" xlink:title="2">
<text text-anchor="middle" x="146.77" y="-40" font-family="Helvetica,sans-Serif" font-size="10.00">2</text>
</a>
</g>
</g>
</g>
</svg>
