<?xml version="1.0" encoding="UTF-8" standalone="no"?>
<!DOCTYPE svg PUBLIC "-//W3C//DTD SVG 1.1//EN"
 "http://www.w3.org/Graphics/SVG/1.1/DTD/svg11.dtd">
<!-- Generated by graphviz version 2.44.0 ()
 -->
<!-- Title: libs/spic&#45;engine/src Pages: 1 -->
<svg width="254pt" height="391pt"
 viewBox="0.00 0.00 254.00 391.00" xmlns="http://www.w3.org/2000/svg" xmlns:xlink="http://www.w3.org/1999/xlink">
<g id="graph0" class="graph" transform="scale(1 1) rotate(0) translate(4 387)">
<title>libs/spic&#45;engine/src</title>
<g id="clust1" class="cluster">
<title>clusterdir_9974ec0867326232720279efba291a23</title>
<g id="a_clust1"><a xlink:href="dir_9974ec0867326232720279efba291a23.html" target="_top" xlink:title="spic&#45;engine">
<polygon fill="#ddddee" stroke="black" points="8,-8 8,-375 238,-375 238,-8 8,-8"/>
<text text-anchor="middle" x="123" y="-363" font-family="Helvetica,sans-Serif" font-size="10.00">spic&#45;engine</text>
</a>
</g>
</g>
<g id="clust2" class="cluster">
<title>clusterdir_285e79e1df58a5eef125f3ef662e94c8</title>
<g id="a_clust2"><a xlink:href="dir_285e79e1df58a5eef125f3ef662e94c8.html" target="_top">
<polygon fill="#eeeeff" stroke="black" points="16,-80 16,-348 187,-348 187,-80 16,-80"/>
</a>
</g>
</g>
<!-- dir_4f186f038b17a7ee674550d24e4eff05 -->
<g id="node1" class="node">
<title>dir_4f186f038b17a7ee674550d24e4eff05</title>
<g id="a_node1"><a xlink:href="dir_4f186f038b17a7ee674550d24e4eff05.html" target="_top" xlink:title="includes">
<polygon fill="none" stroke="red" points="206,-52 152,-52 152,-16 206,-16 206,-52"/>
<text text-anchor="middle" x="179" y="-31.5" font-family="Helvetica,sans-Serif" font-size="10.00">includes</text>
</a>
</g>
</g>
<!-- dir_285e79e1df58a5eef125f3ef662e94c8 -->
<g id="node2" class="node">
<title>dir_285e79e1df58a5eef125f3ef662e94c8</title>
<text text-anchor="middle" x="152" y="-319.5" font-family="Helvetica,sans-Serif" font-size="10.00">src</text>
</g>
<!-- dir_aaeb1049245dbecd9dd0b23975ef06b0 -->
<g id="node3" class="node">
<title>dir_aaeb1049245dbecd9dd0b23975ef06b0</title>
<g id="a_node3"><a xlink:href="dir_aaeb1049245dbecd9dd0b23975ef06b0.html" target="_top" xlink:title="Api">
<polygon fill="white" stroke="black" points="107,-340 53,-340 53,-304 107,-304 107,-340"/>
<text text-anchor="middle" x="80" y="-319.5" font-family="Helvetica,sans-Serif" font-size="10.00">Api</text>
</a>
</g>
</g>
<!-- dir_aaeb1049245dbecd9dd0b23975ef06b0&#45;&gt;dir_4f186f038b17a7ee674550d24e4eff05 -->
<g id="edge7" class="edge">
<title>dir_aaeb1049245dbecd9dd0b23975ef06b0&#45;&gt;dir_4f186f038b17a7ee674550d24e4eff05</title>
<path fill="none" stroke="black" d="M106.64,-303.97C136.6,-282.92 183.14,-243.93 199,-196 215.2,-147.04 214.07,-130.14 202,-80 200.46,-73.62 197.86,-67.12 194.95,-61.13"/>
<polygon fill="black" stroke="black" points="197.99,-59.4 190.22,-52.2 191.81,-62.68 197.99,-59.4"/>
<g id="a_edge7&#45;headlabel"><a xlink:href="dir_000006_000002.html" target="_top" xlink:title="25">
<text text-anchor="middle" x="202.18" y="-58.75" font-family="Helvetica,sans-Serif" font-size="10.00">25</text>
</a>
</g>
</g>
<!-- dir_5990f7c91cabd7781a71f4a336348beb -->
<g id="node4" class="node">
<title>dir_5990f7c91cabd7781a71f4a336348beb</title>
<g id="a_node4"><a xlink:href="dir_5990f7c91cabd7781a71f4a336348beb.html" target="_top" xlink:title="Listeners">
<polygon fill="white" stroke="black" points="178.5,-196 121.5,-196 121.5,-160 178.5,-160 178.5,-196"/>
<text text-anchor="middle" x="150" y="-175.5" font-family="Helvetica,sans-Serif" font-size="10.00">Listeners</text>
</a>
</g>
</g>
<!-- dir_aaeb1049245dbecd9dd0b23975ef06b0&#45;&gt;dir_5990f7c91cabd7781a71f4a336348beb -->
<g id="edge8" class="edge">
<title>dir_aaeb1049245dbecd9dd0b23975ef06b0&#45;&gt;dir_5990f7c91cabd7781a71f4a336348beb</title>
<path fill="none" stroke="black" d="M106.4,-303.96C118.36,-294.79 131.48,-282.4 139,-268 148.93,-248.96 151.36,-224.6 151.48,-206.18"/>
<polygon fill="black" stroke="black" points="154.98,-206.05 151.32,-196.11 147.98,-206.16 154.98,-206.05"/>
<g id="a_edge8&#45;headlabel"><a xlink:href="dir_000006_000007.html" target="_top" xlink:title="1">
<text text-anchor="middle" x="157.87" y="-207.1" font-family="Helvetica,sans-Serif" font-size="10.00">1</text>
</a>
</g>
</g>
<!-- dir_944338dd7c8807faeb58957658de8a3c -->
<g id="node5" class="node">
<title>dir_944338dd7c8807faeb58957658de8a3c</title>
<g id="a_node5"><a xlink:href="dir_944338dd7c8807faeb58957658de8a3c.html" target="_top" xlink:title="Managers">
<polygon fill="white" stroke="black" points="103.5,-196 44.5,-196 44.5,-160 103.5,-160 103.5,-196"/>
<text text-anchor="middle" x="74" y="-175.5" font-family="Helvetica,sans-Serif" font-size="10.00">Managers</text>
</a>
</g>
</g>
<!-- dir_aaeb1049245dbecd9dd0b23975ef06b0&#45;&gt;dir_944338dd7c8807faeb58957658de8a3c -->
<g id="edge9" class="edge">
<title>dir_aaeb1049245dbecd9dd0b23975ef06b0&#45;&gt;dir_944338dd7c8807faeb58957658de8a3c</title>
<path fill="none" stroke="black" d="M67.27,-303.85C60.71,-293.92 53.39,-280.88 50,-268 45.92,-252.53 46.62,-247.64 50,-232 51.96,-222.92 55.61,-213.52 59.49,-205.2"/>
<polygon fill="black" stroke="black" points="62.73,-206.53 64.05,-196.02 56.46,-203.42 62.73,-206.53"/>
<g id="a_edge9&#45;headlabel"><a xlink:href="dir_000006_000008.html" target="_top" xlink:title="4">
<text text-anchor="middle" x="63.67" y="-208.52" font-family="Helvetica,sans-Serif" font-size="10.00">4</text>
</a>
</g>
</g>
<!-- dir_4c3567f8d4bf2744157f20ca4f9c82ee -->
<g id="node7" class="node">
<title>dir_4c3567f8d4bf2744157f20ca4f9c82ee</title>
<g id="a_node7"><a xlink:href="dir_4c3567f8d4bf2744157f20ca4f9c82ee.html" target="_top" xlink:title="Subsystems">
<polygon fill="white" stroke="black" points="130.5,-268 59.5,-268 59.5,-232 130.5,-232 130.5,-268"/>
<text text-anchor="middle" x="95" y="-247.5" font-family="Helvetica,sans-Serif" font-size="10.00">Subsystems</text>
</a>
</g>
</g>
<!-- dir_aaeb1049245dbecd9dd0b23975ef06b0&#45;&gt;dir_4c3567f8d4bf2744157f20ca4f9c82ee -->
<g id="edge6" class="edge">
<title>dir_aaeb1049245dbecd9dd0b23975ef06b0&#45;&gt;dir_4c3567f8d4bf2744157f20ca4f9c82ee</title>
<path fill="none" stroke="black" d="M83.71,-303.7C85.36,-295.98 87.35,-286.71 89.19,-278.11"/>
<polygon fill="black" stroke="black" points="92.66,-278.62 91.33,-268.1 85.82,-277.15 92.66,-278.62"/>
<g id="a_edge6&#45;headlabel"><a xlink:href="dir_000006_000010.html" target="_top" xlink:title="1">
<text text-anchor="middle" x="94.68" y="-280.23" font-family="Helvetica,sans-Serif" font-size="10.00">1</text>
</a>
</g>
</g>
<!-- dir_5990f7c91cabd7781a71f4a336348beb&#45;&gt;dir_4f186f038b17a7ee674550d24e4eff05 -->
<g id="edge10" class="edge">
<title>dir_5990f7c91cabd7781a71f4a336348beb&#45;&gt;dir_4f186f038b17a7ee674550d24e4eff05</title>
<path fill="none" stroke="black" d="M159.69,-159.92C164.92,-149.81 170.92,-136.56 174,-124 179,-103.62 180.11,-79.85 180.04,-62.01"/>
<polygon fill="black" stroke="black" points="183.54,-61.95 179.88,-52 176.54,-62.06 183.54,-61.95"/>
<g id="a_edge10&#45;headlabel"><a xlink:href="dir_000007_000002.html" target="_top" xlink:title="7">
<text text-anchor="middle" x="186.44" y="-62.99" font-family="Helvetica,sans-Serif" font-size="10.00">7</text>
</a>
</g>
</g>
<!-- dir_9aeb1967283fc00fc326d38af623fe8a -->
<g id="node8" class="node">
<title>dir_9aeb1967283fc00fc326d38af623fe8a</title>
<g id="a_node8"><a xlink:href="dir_9aeb1967283fc00fc326d38af623fe8a.html" target="_top" xlink:title="Utils">
<polygon fill="white" stroke="black" points="150,-124 96,-124 96,-88 150,-88 150,-124"/>
<text text-anchor="middle" x="123" y="-103.5" font-family="Helvetica,sans-Serif" font-size="10.00">Utils</text>
</a>
</g>
</g>
<!-- dir_5990f7c91cabd7781a71f4a336348beb&#45;&gt;dir_9aeb1967283fc00fc326d38af623fe8a -->
<g id="edge11" class="edge">
<title>dir_5990f7c91cabd7781a71f4a336348beb&#45;&gt;dir_9aeb1967283fc00fc326d38af623fe8a</title>
<path fill="none" stroke="black" d="M143.33,-159.7C140.29,-151.81 136.62,-142.3 133.24,-133.55"/>
<polygon fill="black" stroke="black" points="136.46,-132.17 129.6,-124.1 129.93,-134.69 136.46,-132.17"/>
<g id="a_edge11&#45;headlabel"><a xlink:href="dir_000007_000011.html" target="_top" xlink:title="2">
<text text-anchor="middle" x="140.4" y="-132.01" font-family="Helvetica,sans-Serif" font-size="10.00">2</text>
</a>
</g>
</g>
<!-- dir_944338dd7c8807faeb58957658de8a3c&#45;&gt;dir_4f186f038b17a7ee674550d24e4eff05 -->
<g id="edge12" class="edge">
<title>dir_944338dd7c8807faeb58957658de8a3c&#45;&gt;dir_4f186f038b17a7ee674550d24e4eff05</title>
<path fill="none" stroke="black" d="M103.52,-161.79C125.04,-150.14 151.65,-134.35 159,-124 165.96,-114.19 171.71,-84.67 175.22,-62.3"/>
<polygon fill="black" stroke="black" points="178.7,-62.72 176.72,-52.31 171.78,-61.68 178.7,-62.72"/>
<g id="a_edge12&#45;headlabel"><a xlink:href="dir_000008_000002.html" target="_top" xlink:title="6">
<text text-anchor="middle" x="180.97" y="-64.2" font-family="Helvetica,sans-Serif" font-size="10.00">6</text>
</a>
</g>
</g>
<!-- dir_86e52f062f78877d44b40fa7f7b75938 -->
<g id="node6" class="node">
<title>dir_86e52f062f78877d44b40fa7f7b75938</title>
<g id="a_node6"><a xlink:href="dir_86e52f062f78877d44b40fa7f7b75938.html" target="_top" xlink:title="Models">
<polygon fill="white" stroke="black" points="78,-124 24,-124 24,-88 78,-88 78,-124"/>
<text text-anchor="middle" x="51" y="-103.5" font-family="Helvetica,sans-Serif" font-size="10.00">Models</text>
</a>
</g>
</g>
<!-- dir_944338dd7c8807faeb58957658de8a3c&#45;&gt;dir_86e52f062f78877d44b40fa7f7b75938 -->
<g id="edge13" class="edge">
<title>dir_944338dd7c8807faeb58957658de8a3c&#45;&gt;dir_86e52f062f78877d44b40fa7f7b75938</title>
<path fill="none" stroke="black" d="M62.4,-159.7C59.03,-151.9 55.72,-142.51 53.23,-133.83"/>
<polygon fill="black" stroke="black" points="56.61,-132.91 50.72,-124.1 49.83,-134.66 56.61,-132.91"/>
<g id="a_edge13&#45;headlabel"><a xlink:href="dir_000008_000009.html" target="_top" xlink:title="4">
<text text-anchor="middle" x="60.26" y="-133.19" font-family="Helvetica,sans-Serif" font-size="10.00">4</text>
</a>
</g>
</g>
<!-- dir_86e52f062f78877d44b40fa7f7b75938&#45;&gt;dir_4f186f038b17a7ee674550d24e4eff05 -->
<g id="edge14" class="edge">
<title>dir_86e52f062f78877d44b40fa7f7b75938&#45;&gt;dir_4f186f038b17a7ee674550d24e4eff05</title>
<path fill="none" stroke="black" d="M74.68,-87.8C78.72,-85.09 82.93,-82.39 87,-80 104.85,-69.52 125.5,-59.26 142.7,-51.19"/>
<polygon fill="black" stroke="black" points="144.26,-54.33 151.87,-46.95 141.32,-47.98 144.26,-54.33"/>
<g id="a_edge14&#45;headlabel"><a xlink:href="dir_000009_000002.html" target="_top" xlink:title="4">
<text text-anchor="middle" x="142.19" y="-55.91" font-family="Helvetica,sans-Serif" font-size="10.00">4</text>
</a>
</g>
</g>
<!-- dir_86e52f062f78877d44b40fa7f7b75938&#45;&gt;dir_944338dd7c8807faeb58957658de8a3c -->
<g id="edge15" class="edge">
<title>dir_86e52f062f78877d44b40fa7f7b75938&#45;&gt;dir_944338dd7c8807faeb58957658de8a3c</title>
<path fill="none" stroke="black" d="M62.52,-124.1C65.88,-131.88 69.2,-141.26 71.7,-149.95"/>
<polygon fill="black" stroke="black" points="68.33,-150.89 74.23,-159.7 75.11,-149.14 68.33,-150.89"/>
<g id="a_edge15&#45;headlabel"><a xlink:href="dir_000009_000008.html" target="_top" xlink:title="2">
<text text-anchor="middle" x="64.68" y="-145.63" font-family="Helvetica,sans-Serif" font-size="10.00">2</text>
</a>
</g>
</g>
<!-- dir_4c3567f8d4bf2744157f20ca4f9c82ee&#45;&gt;dir_4f186f038b17a7ee674550d24e4eff05 -->
<g id="edge2" class="edge">
<title>dir_4c3567f8d4bf2744157f20ca4f9c82ee&#45;&gt;dir_4f186f038b17a7ee674550d24e4eff05</title>
<path fill="none" stroke="black" d="M130.95,-233.14C154.26,-222.04 181.46,-207.25 188,-196 212.22,-154.32 199.79,-95.87 189.05,-62.07"/>
<polygon fill="black" stroke="black" points="192.31,-60.79 185.82,-52.42 185.67,-63.01 192.31,-60.79"/>
<g id="a_edge2&#45;headlabel"><a xlink:href="dir_000010_000002.html" target="_top" xlink:title="24">
<text text-anchor="middle" x="196.15" y="-60.79" font-family="Helvetica,sans-Serif" font-size="10.00">24</text>
</a>
</g>
</g>
<!-- dir_4c3567f8d4bf2744157f20ca4f9c82ee&#45;&gt;dir_5990f7c91cabd7781a71f4a336348beb -->
<g id="edge3" class="edge">
<title>dir_4c3567f8d4bf2744157f20ca4f9c82ee&#45;&gt;dir_5990f7c91cabd7781a71f4a336348beb</title>
<path fill="none" stroke="black" d="M108.6,-231.7C115.12,-223.39 123.07,-213.28 130.25,-204.14"/>
<polygon fill="black" stroke="black" points="133.13,-206.13 136.56,-196.1 127.63,-201.81 133.13,-206.13"/>
<g id="a_edge3&#45;headlabel"><a xlink:href="dir_000010_000007.html" target="_top" xlink:title="1">
<text text-anchor="middle" x="133.15" y="-208.21" font-family="Helvetica,sans-Serif" font-size="10.00">1</text>
</a>
</g>
</g>
<!-- dir_4c3567f8d4bf2744157f20ca4f9c82ee&#45;&gt;dir_944338dd7c8807faeb58957658de8a3c -->
<g id="edge5" class="edge">
<title>dir_4c3567f8d4bf2744157f20ca4f9c82ee&#45;&gt;dir_944338dd7c8807faeb58957658de8a3c</title>
<path fill="none" stroke="black" d="M89.81,-231.7C87.47,-223.9 84.65,-214.51 82.05,-205.83"/>
<polygon fill="black" stroke="black" points="85.36,-204.68 79.13,-196.1 78.65,-206.69 85.36,-204.68"/>
<g id="a_edge5&#45;headlabel"><a xlink:href="dir_000010_000008.html" target="_top" xlink:title="3">
<text text-anchor="middle" x="89.11" y="-204.8" font-family="Helvetica,sans-Serif" font-size="10.00">3</text>
</a>
</g>
</g>
<!-- dir_4c3567f8d4bf2744157f20ca4f9c82ee&#45;&gt;dir_86e52f062f78877d44b40fa7f7b75938 -->
<g id="edge4" class="edge">
<title>dir_4c3567f8d4bf2744157f20ca4f9c82ee&#45;&gt;dir_86e52f062f78877d44b40fa7f7b75938</title>
<path fill="none" stroke="black" d="M66.74,-231.97C54.57,-222.96 41.63,-210.7 35,-196 26.07,-176.2 31.47,-151.8 38.31,-133.56"/>
<polygon fill="black" stroke="black" points="41.63,-134.71 42.19,-124.13 35.15,-132.05 41.63,-134.71"/>
<g id="a_edge4&#45;headlabel"><a xlink:href="dir_000010_000009.html" target="_top" xlink:title="2">
<text text-anchor="middle" x="42.89" y="-136.61" font-family="Helvetica,sans-Serif" font-size="10.00">2</text>
</a>
</g>
</g>
<!-- dir_9aeb1967283fc00fc326d38af623fe8a&#45;&gt;dir_4f186f038b17a7ee674550d24e4eff05 -->
<g id="edge1" class="edge">
<title>dir_9aeb1967283fc00fc326d38af623fe8a&#45;&gt;dir_4f186f038b17a7ee674550d24e4eff05</title>
<path fill="none" stroke="black" d="M136.84,-87.7C143.49,-79.39 151.58,-69.28 158.89,-60.14"/>
<polygon fill="black" stroke="black" points="161.8,-62.1 165.32,-52.1 156.34,-57.73 161.8,-62.1"/>
<g id="a_edge1&#45;headlabel"><a xlink:href="dir_000011_000002.html" target="_top" xlink:title="2">
<text text-anchor="middle" x="161.77" y="-64.18" font-family="Helvetica,sans-Serif" font-size="10.00">2</text>
</a>
</g>
</g>
</g>
</svg>
