<?xml version="1.0" encoding="UTF-8" standalone="no"?>
<!DOCTYPE svg PUBLIC "-//W3C//DTD SVG 1.1//EN"
 "http://www.w3.org/Graphics/SVG/1.1/DTD/svg11.dtd">
<!-- Generated by graphviz version 2.44.0 ()
 -->
<!-- Title: src/Utils Pages: 1 -->
<svg width="168pt" height="239pt"
 viewBox="0.00 0.00 168.00 239.00" xmlns="http://www.w3.org/2000/svg" xmlns:xlink="http://www.w3.org/1999/xlink">
<g id="graph0" class="graph" transform="scale(1 1) rotate(0) translate(4 235)">
<title>src/Utils</title>
<g id="clust1" class="cluster">
<title>clusterdir_68267d1309a1af8e8297ef4c3efbcdba</title>
<g id="a_clust1"><a xlink:href="dir_68267d1309a1af8e8297ef4c3efbcdba.html" target="_top" xlink:title="src">
<polygon fill="#ddddee" stroke="black" points="8,-8 8,-223 98,-223 98,-8 8,-8"/>
<text text-anchor="middle" x="53" y="-211" font-family="Helvetica,sans-Serif" font-size="10.00">src</text>
</a>
</g>
</g>
<!-- dir_3ac9928fc2e7e2cbc53db7c1a11acda2 -->
<g id="node1" class="node">
<title>dir_3ac9928fc2e7e2cbc53db7c1a11acda2</title>
<g id="a_node1"><a xlink:href="dir_3ac9928fc2e7e2cbc53db7c1a11acda2.html" target="_top" xlink:title="Scripts">
<polygon fill="none" stroke="red" points="90,-124 36,-124 36,-88 90,-88 90,-124"/>
<text text-anchor="middle" x="63" y="-103.5" font-family="Helvetica,sans-Serif" font-size="10.00">Scripts</text>
</a>
</g>
</g>
<!-- dir_804e9c8a6f85b64a196ad58c4618e191 -->
<g id="node2" class="node">
<title>dir_804e9c8a6f85b64a196ad58c4618e191</title>
<g id="a_node2"><a xlink:href="dir_804e9c8a6f85b64a196ad58c4618e191.html" target="_top" xlink:title="Enums">
<polygon fill="none" stroke="black" points="79,-52 25,-52 25,-16 79,-16 79,-52"/>
<text text-anchor="middle" x="52" y="-31.5" font-family="Helvetica,sans-Serif" font-size="10.00">Enums</text>
</a>
</g>
</g>
<!-- dir_3ac9928fc2e7e2cbc53db7c1a11acda2&#45;&gt;dir_804e9c8a6f85b64a196ad58c4618e191 -->
<g id="edge5" class="edge">
<title>dir_3ac9928fc2e7e2cbc53db7c1a11acda2&#45;&gt;dir_804e9c8a6f85b64a196ad58c4618e191</title>
<path fill="none" stroke="black" d="M60.28,-87.7C59.07,-79.98 57.61,-70.71 56.26,-62.11"/>
<polygon fill="black" stroke="black" points="59.7,-61.44 54.69,-52.1 52.78,-62.53 59.7,-61.44"/>
<g id="a_edge5&#45;headlabel"><a xlink:href="dir_000024_000020.html" target="_top" xlink:title="12">
<text text-anchor="middle" x="63.06" y="-62.05" font-family="Helvetica,sans-Serif" font-size="10.00">12</text>
</a>
</g>
</g>
<!-- dir_6719ab1f1f7655efc2fa43f7eb574fd1 -->
<g id="node4" class="node">
<title>dir_6719ab1f1f7655efc2fa43f7eb574fd1</title>
<g id="a_node4"><a xlink:href="dir_6719ab1f1f7655efc2fa43f7eb574fd1.html" target="_top" xlink:title="libs">
<polygon fill="none" stroke="red" points="160,-52 106,-52 106,-16 160,-16 160,-52"/>
<text text-anchor="middle" x="133" y="-31.5" font-family="Helvetica,sans-Serif" font-size="10.00">libs</text>
</a>
</g>
</g>
<!-- dir_3ac9928fc2e7e2cbc53db7c1a11acda2&#45;&gt;dir_6719ab1f1f7655efc2fa43f7eb574fd1 -->
<g id="edge4" class="edge">
<title>dir_3ac9928fc2e7e2cbc53db7c1a11acda2&#45;&gt;dir_6719ab1f1f7655efc2fa43f7eb574fd1</title>
<path fill="none" stroke="black" d="M80.3,-87.7C88.86,-79.14 99.34,-68.66 108.7,-59.3"/>
<polygon fill="black" stroke="black" points="111.3,-61.65 115.9,-52.1 106.35,-56.7 111.3,-61.65"/>
<g id="a_edge4&#45;headlabel"><a xlink:href="dir_000024_000000.html" target="_top" xlink:title="133">
<text text-anchor="middle" x="110.77" y="-63.7" font-family="Helvetica,sans-Serif" font-size="10.00">133</text>
</a>
</g>
</g>
<!-- dir_a7363e98f9e0bdd87618633653859815 -->
<g id="node3" class="node">
<title>dir_a7363e98f9e0bdd87618633653859815</title>
<g id="a_node3"><a xlink:href="dir_a7363e98f9e0bdd87618633653859815.html" target="_top" xlink:title="Utils">
<polygon fill="#eeeeff" stroke="black" points="90,-196 36,-196 36,-160 90,-160 90,-196"/>
<text text-anchor="middle" x="63" y="-175.5" font-family="Helvetica,sans-Serif" font-size="10.00">Utils</text>
</a>
</g>
</g>
<!-- dir_a7363e98f9e0bdd87618633653859815&#45;&gt;dir_3ac9928fc2e7e2cbc53db7c1a11acda2 -->
<g id="edge1" class="edge">
<title>dir_a7363e98f9e0bdd87618633653859815&#45;&gt;dir_3ac9928fc2e7e2cbc53db7c1a11acda2</title>
<path fill="none" stroke="black" d="M63,-159.7C63,-151.98 63,-142.71 63,-134.11"/>
<polygon fill="black" stroke="black" points="66.5,-134.1 63,-124.1 59.5,-134.1 66.5,-134.1"/>
<g id="a_edge1&#45;headlabel"><a xlink:href="dir_000032_000024.html" target="_top" xlink:title="6">
<text text-anchor="middle" x="69.34" y="-135.2" font-family="Helvetica,sans-Serif" font-size="10.00">6</text>
</a>
</g>
</g>
<!-- dir_a7363e98f9e0bdd87618633653859815&#45;&gt;dir_804e9c8a6f85b64a196ad58c4618e191 -->
<g id="edge3" class="edge">
<title>dir_a7363e98f9e0bdd87618633653859815&#45;&gt;dir_804e9c8a6f85b64a196ad58c4618e191</title>
<path fill="none" stroke="black" d="M47.39,-159.77C39.63,-150.03 31.05,-137.18 27,-124 20.55,-103.03 28.12,-79.08 36.57,-61.31"/>
<polygon fill="black" stroke="black" points="39.83,-62.63 41.27,-52.13 33.6,-59.44 39.83,-62.63"/>
<g id="a_edge3&#45;headlabel"><a xlink:href="dir_000032_000020.html" target="_top" xlink:title="2">
<text text-anchor="middle" x="40.71" y="-64.62" font-family="Helvetica,sans-Serif" font-size="10.00">2</text>
</a>
</g>
</g>
<!-- dir_a7363e98f9e0bdd87618633653859815&#45;&gt;dir_6719ab1f1f7655efc2fa43f7eb574fd1 -->
<g id="edge2" class="edge">
<title>dir_a7363e98f9e0bdd87618633653859815&#45;&gt;dir_6719ab1f1f7655efc2fa43f7eb574fd1</title>
<path fill="none" stroke="black" d="M76.06,-159.97C83.42,-149.87 92.42,-136.62 99,-124 109.47,-103.92 118.47,-79.87 124.57,-61.83"/>
<polygon fill="black" stroke="black" points="127.93,-62.83 127.74,-52.24 121.28,-60.64 127.93,-62.83"/>
<g id="a_edge2&#45;headlabel"><a xlink:href="dir_000032_000000.html" target="_top" xlink:title="2">
<text text-anchor="middle" x="129.49" y="-64.64" font-family="Helvetica,sans-Serif" font-size="10.00">2</text>
</a>
</g>
</g>
</g>
</svg>
