<?xml version="1.0" encoding="UTF-8" standalone="no"?>
<!DOCTYPE svg PUBLIC "-//W3C//DTD SVG 1.1//EN"
 "http://www.w3.org/Graphics/SVG/1.1/DTD/svg11.dtd">
<!-- Generated by graphviz version 2.44.0 ()
 -->
<!-- Title: src Pages: 1 -->
<svg width="474pt" height="508pt"
 viewBox="0.00 0.00 474.00 508.00" xmlns="http://www.w3.org/2000/svg" xmlns:xlink="http://www.w3.org/1999/xlink">
<g id="graph0" class="graph" transform="scale(1 1) rotate(0) translate(4 504)">
<title>src</title>
<g id="clust1" class="cluster">
<title>clusterdir_68267d1309a1af8e8297ef4c3efbcdba</title>
<g id="a_clust1"><a xlink:href="dir_68267d1309a1af8e8297ef4c3efbcdba.html" target="_top">
<polygon fill="#eeeeff" stroke="black" points="8,-8 8,-492 332,-492 332,-8 8,-8"/>
</a>
</g>
</g>
<!-- dir_68267d1309a1af8e8297ef4c3efbcdba -->
<g id="node1" class="node">
<title>dir_68267d1309a1af8e8297ef4c3efbcdba</title>
<text text-anchor="middle" x="292" y="-463.5" font-family="Helvetica,sans-Serif" font-size="10.00">src</text>
</g>
<!-- dir_efbf91dec8e0e89146a72eada515bf52 -->
<g id="node2" class="node">
<title>dir_efbf91dec8e0e89146a72eada515bf52</title>
<g id="a_node2"><a xlink:href="dir_efbf91dec8e0e89146a72eada515bf52.html" target="_top" xlink:title="Controllers">
<polygon fill="white" stroke="black" points="237.5,-484 174.5,-484 174.5,-448 237.5,-448 237.5,-484"/>
<text text-anchor="middle" x="206" y="-463.5" font-family="Helvetica,sans-Serif" font-size="10.00">Controllers</text>
</a>
</g>
</g>
<!-- dir_804e9c8a6f85b64a196ad58c4618e191 -->
<g id="node3" class="node">
<title>dir_804e9c8a6f85b64a196ad58c4618e191</title>
<g id="a_node3"><a xlink:href="dir_804e9c8a6f85b64a196ad58c4618e191.html" target="_top" xlink:title="Enums">
<polygon fill="white" stroke="black" points="127,-52 73,-52 73,-16 127,-16 127,-52"/>
<text text-anchor="middle" x="100" y="-31.5" font-family="Helvetica,sans-Serif" font-size="10.00">Enums</text>
</a>
</g>
</g>
<!-- dir_efbf91dec8e0e89146a72eada515bf52&#45;&gt;dir_804e9c8a6f85b64a196ad58c4618e191 -->
<g id="edge8" class="edge">
<title>dir_efbf91dec8e0e89146a72eada515bf52&#45;&gt;dir_804e9c8a6f85b64a196ad58c4618e191</title>
<path fill="none" stroke="black" d="M174.44,-461.62C140.67,-456.43 87.44,-443.54 54,-412 22.84,-382.61 17,-365.84 17,-323 17,-323 17,-323 17,-177 17,-130.74 50.24,-86.16 74.65,-59.66"/>
<polygon fill="black" stroke="black" points="77.24,-62.02 81.58,-52.36 72.16,-57.2 77.24,-62.02"/>
<g id="a_edge8&#45;headlabel"><a xlink:href="dir_000015_000016.html" target="_top" xlink:title="4">
<text text-anchor="middle" x="76.82" y="-64.08" font-family="Helvetica,sans-Serif" font-size="10.00">4</text>
</a>
</g>
</g>
<!-- dir_3dbe57e65c50a7a17fba27939d267647 -->
<g id="node4" class="node">
<title>dir_3dbe57e65c50a7a17fba27939d267647</title>
<g id="a_node4"><a xlink:href="dir_3dbe57e65c50a7a17fba27939d267647.html" target="_top" xlink:title="Factories">
<polygon fill="white" stroke="black" points="234.5,-412 177.5,-412 177.5,-376 234.5,-376 234.5,-412"/>
<text text-anchor="middle" x="206" y="-391.5" font-family="Helvetica,sans-Serif" font-size="10.00">Factories</text>
</a>
</g>
</g>
<!-- dir_efbf91dec8e0e89146a72eada515bf52&#45;&gt;dir_3dbe57e65c50a7a17fba27939d267647 -->
<g id="edge6" class="edge">
<title>dir_efbf91dec8e0e89146a72eada515bf52&#45;&gt;dir_3dbe57e65c50a7a17fba27939d267647</title>
<path fill="none" stroke="black" d="M206,-447.7C206,-439.98 206,-430.71 206,-422.11"/>
<polygon fill="black" stroke="black" points="209.5,-422.1 206,-412.1 202.5,-422.1 209.5,-422.1"/>
<g id="a_edge6&#45;headlabel"><a xlink:href="dir_000015_000017.html" target="_top" xlink:title="5">
<text text-anchor="middle" x="212.34" y="-423.2" font-family="Helvetica,sans-Serif" font-size="10.00">5</text>
</a>
</g>
</g>
<!-- dir_c04391f011249a815ab0ebd9bc734b9b -->
<g id="node5" class="node">
<title>dir_c04391f011249a815ab0ebd9bc734b9b</title>
<g id="a_node5"><a xlink:href="dir_c04391f011249a815ab0ebd9bc734b9b.html" target="_top" xlink:title="Persistence">
<polygon fill="white" stroke="black" points="284,-196 216,-196 216,-160 284,-160 284,-196"/>
<text text-anchor="middle" x="250" y="-175.5" font-family="Helvetica,sans-Serif" font-size="10.00">Persistence</text>
</a>
</g>
</g>
<!-- dir_efbf91dec8e0e89146a72eada515bf52&#45;&gt;dir_c04391f011249a815ab0ebd9bc734b9b -->
<g id="edge10" class="edge">
<title>dir_efbf91dec8e0e89146a72eada515bf52&#45;&gt;dir_c04391f011249a815ab0ebd9bc734b9b</title>
<path fill="none" stroke="black" d="M225.75,-447.94C235.26,-438.43 245.73,-425.75 251,-412 277.93,-341.71 265.18,-250.5 256.21,-205.92"/>
<polygon fill="black" stroke="black" points="259.63,-205.19 254.15,-196.13 252.78,-206.64 259.63,-205.19"/>
<g id="a_edge10&#45;headlabel"><a xlink:href="dir_000015_000018.html" target="_top" xlink:title="1">
<text text-anchor="middle" x="263.15" y="-205.62" font-family="Helvetica,sans-Serif" font-size="10.00">1</text>
</a>
</g>
</g>
<!-- dir_3ac9928fc2e7e2cbc53db7c1a11acda2 -->
<g id="node7" class="node">
<title>dir_3ac9928fc2e7e2cbc53db7c1a11acda2</title>
<g id="a_node7"><a xlink:href="dir_3ac9928fc2e7e2cbc53db7c1a11acda2.html" target="_top" xlink:title="Scripts">
<polygon fill="white" stroke="red" points="189,-340 135,-340 135,-304 189,-304 189,-340"/>
<text text-anchor="middle" x="162" y="-319.5" font-family="Helvetica,sans-Serif" font-size="10.00">Scripts</text>
</a>
</g>
</g>
<!-- dir_efbf91dec8e0e89146a72eada515bf52&#45;&gt;dir_3ac9928fc2e7e2cbc53db7c1a11acda2 -->
<g id="edge5" class="edge">
<title>dir_efbf91dec8e0e89146a72eada515bf52&#45;&gt;dir_3ac9928fc2e7e2cbc53db7c1a11acda2</title>
<path fill="none" stroke="black" d="M181.92,-447.8C172.81,-438.06 163.74,-425.21 159,-412 151.9,-392.23 150.64,-368.43 152.36,-350.42"/>
<polygon fill="black" stroke="black" points="155.86,-350.68 153.75,-340.3 148.92,-349.73 155.86,-350.68"/>
<g id="a_edge5&#45;headlabel"><a xlink:href="dir_000015_000020.html" target="_top" xlink:title="4">
<text text-anchor="middle" x="158.19" y="-352.12" font-family="Helvetica,sans-Serif" font-size="10.00">4</text>
</a>
</g>
</g>
<!-- dir_146efcb14c269303f155f454755144b3 -->
<g id="node8" class="node">
<title>dir_146efcb14c269303f155f454755144b3</title>
<g id="a_node8"><a xlink:href="dir_146efcb14c269303f155f454755144b3.html" target="_top" xlink:title="Structs">
<polygon fill="white" stroke="black" points="260,-124 206,-124 206,-88 260,-88 260,-124"/>
<text text-anchor="middle" x="233" y="-103.5" font-family="Helvetica,sans-Serif" font-size="10.00">Structs</text>
</a>
</g>
</g>
<!-- dir_efbf91dec8e0e89146a72eada515bf52&#45;&gt;dir_146efcb14c269303f155f454755144b3 -->
<g id="edge4" class="edge">
<title>dir_efbf91dec8e0e89146a72eada515bf52&#45;&gt;dir_146efcb14c269303f155f454755144b3</title>
<path fill="none" stroke="black" d="M234.02,-447.94C268.64,-424.47 323,-378.74 323,-323 323,-323 323,-323 323,-249 323,-208.14 322.29,-194.24 300,-160 291.92,-147.6 279.97,-136.81 268.38,-128.27"/>
<polygon fill="black" stroke="black" points="270.26,-125.32 260.07,-122.45 266.25,-131.05 270.26,-125.32"/>
<g id="a_edge4&#45;headlabel"><a xlink:href="dir_000015_000026.html" target="_top" xlink:title="11">
<text text-anchor="middle" x="274.84" y="-122.55" font-family="Helvetica,sans-Serif" font-size="10.00">11</text>
</a>
</g>
</g>
<!-- dir_a7363e98f9e0bdd87618633653859815 -->
<g id="node9" class="node">
<title>dir_a7363e98f9e0bdd87618633653859815</title>
<g id="a_node9"><a xlink:href="dir_a7363e98f9e0bdd87618633653859815.html" target="_top" xlink:title="Utils">
<polygon fill="white" stroke="black" points="150,-124 96,-124 96,-88 150,-88 150,-124"/>
<text text-anchor="middle" x="123" y="-103.5" font-family="Helvetica,sans-Serif" font-size="10.00">Utils</text>
</a>
</g>
</g>
<!-- dir_efbf91dec8e0e89146a72eada515bf52&#45;&gt;dir_a7363e98f9e0bdd87618633653859815 -->
<g id="edge9" class="edge">
<title>dir_efbf91dec8e0e89146a72eada515bf52&#45;&gt;dir_a7363e98f9e0bdd87618633653859815</title>
<path fill="none" stroke="black" d="M174.21,-454.65C125.26,-436.48 37,-393.9 37,-323 37,-323 37,-323 37,-249 37,-202.31 71.44,-157.84 96.73,-131.49"/>
<polygon fill="black" stroke="black" points="99.37,-133.8 103.91,-124.23 94.39,-128.88 99.37,-133.8"/>
<g id="a_edge9&#45;headlabel"><a xlink:href="dir_000015_000027.html" target="_top" xlink:title="6">
<text text-anchor="middle" x="98.86" y="-135.85" font-family="Helvetica,sans-Serif" font-size="10.00">6</text>
</a>
</g>
</g>
<!-- dir_6719ab1f1f7655efc2fa43f7eb574fd1 -->
<g id="node10" class="node">
<title>dir_6719ab1f1f7655efc2fa43f7eb574fd1</title>
<g id="a_node10"><a xlink:href="dir_6719ab1f1f7655efc2fa43f7eb574fd1.html" target="_top" xlink:title="libs">
<polygon fill="none" stroke="red" points="394,-52 340,-52 340,-16 394,-16 394,-52"/>
<text text-anchor="middle" x="367" y="-31.5" font-family="Helvetica,sans-Serif" font-size="10.00">libs</text>
</a>
</g>
</g>
<!-- dir_efbf91dec8e0e89146a72eada515bf52&#45;&gt;dir_6719ab1f1f7655efc2fa43f7eb574fd1 -->
<g id="edge7" class="edge">
<title>dir_efbf91dec8e0e89146a72eada515bf52&#45;&gt;dir_6719ab1f1f7655efc2fa43f7eb574fd1</title>
<path fill="none" stroke="black" d="M237.62,-451.39C306.91,-421.1 466,-348.75 466,-323 466,-323 466,-323 466,-177 466,-128.38 426.46,-84.5 397.35,-58.78"/>
<polygon fill="black" stroke="black" points="399.34,-55.87 389.46,-52.03 394.78,-61.19 399.34,-55.87"/>
<g id="a_edge7&#45;headlabel"><a xlink:href="dir_000015_000000.html" target="_top" xlink:title="13">
<text text-anchor="middle" x="403.91" y="-53.56" font-family="Helvetica,sans-Serif" font-size="10.00">13</text>
</a>
</g>
</g>
<!-- dir_3dbe57e65c50a7a17fba27939d267647&#45;&gt;dir_804e9c8a6f85b64a196ad58c4618e191 -->
<g id="edge28" class="edge">
<title>dir_3dbe57e65c50a7a17fba27939d267647&#45;&gt;dir_804e9c8a6f85b64a196ad58c4618e191</title>
<path fill="none" stroke="black" d="M177.15,-382.43C156.06,-373.59 127.8,-359.32 108,-340 75.37,-308.16 57,-296.59 57,-251 57,-251 57,-251 57,-177 57,-135.29 74.2,-89.54 86.84,-61.54"/>
<polygon fill="black" stroke="black" points="90.05,-62.96 91.09,-52.42 83.7,-60.01 90.05,-62.96"/>
<g id="a_edge28&#45;headlabel"><a xlink:href="dir_000017_000016.html" target="_top" xlink:title="20">
<text text-anchor="middle" x="91.1" y="-64.92" font-family="Helvetica,sans-Serif" font-size="10.00">20</text>
</a>
</g>
</g>
<!-- dir_3dbe57e65c50a7a17fba27939d267647&#45;&gt;dir_3ac9928fc2e7e2cbc53db7c1a11acda2 -->
<g id="edge26" class="edge">
<title>dir_3dbe57e65c50a7a17fba27939d267647&#45;&gt;dir_3ac9928fc2e7e2cbc53db7c1a11acda2</title>
<path fill="none" stroke="black" d="M189.21,-375.7C183.32,-367.64 176.98,-357.89 171.79,-348.98"/>
<polygon fill="black" stroke="black" points="174.77,-347.15 166.86,-340.1 168.65,-350.55 174.77,-347.15"/>
<g id="a_edge26&#45;headlabel"><a xlink:href="dir_000017_000020.html" target="_top" xlink:title="20">
<text text-anchor="middle" x="179" y="-346.41" font-family="Helvetica,sans-Serif" font-size="10.00">20</text>
</a>
</g>
</g>
<!-- dir_3dbe57e65c50a7a17fba27939d267647&#45;&gt;dir_146efcb14c269303f155f454755144b3 -->
<g id="edge25" class="edge">
<title>dir_3dbe57e65c50a7a17fba27939d267647&#45;&gt;dir_146efcb14c269303f155f454755144b3</title>
<path fill="none" stroke="black" d="M216.51,-375.91C236.22,-342.72 278.1,-266.6 293,-196 296.3,-180.34 299.58,-174.59 293,-160 287.59,-148 277.97,-137.63 268,-129.32"/>
<polygon fill="black" stroke="black" points="270.05,-126.48 260,-123.11 265.75,-132.01 270.05,-126.48"/>
<g id="a_edge25&#45;headlabel"><a xlink:href="dir_000017_000026.html" target="_top" xlink:title="1">
<text text-anchor="middle" x="274.63" y="-123.94" font-family="Helvetica,sans-Serif" font-size="10.00">1</text>
</a>
</g>
</g>
<!-- dir_3dbe57e65c50a7a17fba27939d267647&#45;&gt;dir_a7363e98f9e0bdd87618633653859815 -->
<g id="edge29" class="edge">
<title>dir_3dbe57e65c50a7a17fba27939d267647&#45;&gt;dir_a7363e98f9e0bdd87618633653859815</title>
<path fill="none" stroke="black" d="M177.3,-382.28C159.08,-373.8 136.94,-360.03 126,-340 89.67,-273.46 104.92,-179.48 115.7,-133.89"/>
<polygon fill="black" stroke="black" points="119.11,-134.7 118.12,-124.15 112.31,-133.02 119.11,-134.7"/>
<g id="a_edge29&#45;headlabel"><a xlink:href="dir_000017_000027.html" target="_top" xlink:title="12">
<text text-anchor="middle" x="121" y="-136.37" font-family="Helvetica,sans-Serif" font-size="10.00">12</text>
</a>
</g>
</g>
<!-- dir_3dbe57e65c50a7a17fba27939d267647&#45;&gt;dir_6719ab1f1f7655efc2fa43f7eb574fd1 -->
<g id="edge27" class="edge">
<title>dir_3dbe57e65c50a7a17fba27939d267647&#45;&gt;dir_6719ab1f1f7655efc2fa43f7eb574fd1</title>
<path fill="none" stroke="black" d="M234.57,-388.47C294.53,-377.17 428,-341.82 428,-251 428,-251 428,-251 428,-177 428,-133.61 403.66,-88.37 385.73,-60.94"/>
<polygon fill="black" stroke="black" points="388.43,-58.68 379.94,-52.34 382.62,-62.59 388.43,-58.68"/>
<g id="a_edge27&#45;headlabel"><a xlink:href="dir_000017_000000.html" target="_top" xlink:title="28">
<text text-anchor="middle" x="392.79" y="-57.58" font-family="Helvetica,sans-Serif" font-size="10.00">28</text>
</a>
</g>
</g>
<!-- dir_c04391f011249a815ab0ebd9bc734b9b&#45;&gt;dir_146efcb14c269303f155f454755144b3 -->
<g id="edge22" class="edge">
<title>dir_c04391f011249a815ab0ebd9bc734b9b&#45;&gt;dir_146efcb14c269303f155f454755144b3</title>
<path fill="none" stroke="black" d="M245.8,-159.7C243.9,-151.9 241.62,-142.51 239.52,-133.83"/>
<polygon fill="black" stroke="black" points="242.92,-133 237.15,-124.1 236.11,-134.65 242.92,-133"/>
<g id="a_edge22&#45;headlabel"><a xlink:href="dir_000018_000026.html" target="_top" xlink:title="4">
<text text-anchor="middle" x="246.52" y="-133.32" font-family="Helvetica,sans-Serif" font-size="10.00">4</text>
</a>
</g>
</g>
<!-- dir_c04391f011249a815ab0ebd9bc734b9b&#45;&gt;dir_a7363e98f9e0bdd87618633653859815 -->
<g id="edge24" class="edge">
<title>dir_c04391f011249a815ab0ebd9bc734b9b&#45;&gt;dir_a7363e98f9e0bdd87618633653859815</title>
<path fill="none" stroke="black" d="M218.93,-159.88C200.88,-149.93 178.06,-137.35 159.2,-126.95"/>
<polygon fill="black" stroke="black" points="160.74,-123.81 150.3,-122.05 157.37,-129.94 160.74,-123.81"/>
<g id="a_edge24&#45;headlabel"><a xlink:href="dir_000018_000027.html" target="_top" xlink:title="1">
<text text-anchor="middle" x="165.26" y="-120.56" font-family="Helvetica,sans-Serif" font-size="10.00">1</text>
</a>
</g>
</g>
<!-- dir_c04391f011249a815ab0ebd9bc734b9b&#45;&gt;dir_6719ab1f1f7655efc2fa43f7eb574fd1 -->
<g id="edge23" class="edge">
<title>dir_c04391f011249a815ab0ebd9bc734b9b&#45;&gt;dir_6719ab1f1f7655efc2fa43f7eb574fd1</title>
<path fill="none" stroke="black" d="M264.11,-159.87C284.58,-135.03 322.63,-88.85 346.28,-60.14"/>
<polygon fill="black" stroke="black" points="349.18,-62.13 352.84,-52.19 343.78,-57.68 349.18,-62.13"/>
<g id="a_edge23&#45;headlabel"><a xlink:href="dir_000018_000000.html" target="_top" xlink:title="3">
<text text-anchor="middle" x="349.08" y="-64.21" font-family="Helvetica,sans-Serif" font-size="10.00">3</text>
</a>
</g>
</g>
<!-- dir_d665af80335f773f8bfcf2f56b3f3e8a -->
<g id="node6" class="node">
<title>dir_d665af80335f773f8bfcf2f56b3f3e8a</title>
<g id="a_node6"><a xlink:href="dir_d665af80335f773f8bfcf2f56b3f3e8a.html" target="_top" xlink:title="Scenes">
<polygon fill="white" stroke="black" points="235,-268 181,-268 181,-232 235,-232 235,-268"/>
<text text-anchor="middle" x="208" y="-247.5" font-family="Helvetica,sans-Serif" font-size="10.00">Scenes</text>
</a>
</g>
</g>
<!-- dir_d665af80335f773f8bfcf2f56b3f3e8a&#45;&gt;dir_efbf91dec8e0e89146a72eada515bf52 -->
<g id="edge21" class="edge">
<title>dir_d665af80335f773f8bfcf2f56b3f3e8a&#45;&gt;dir_efbf91dec8e0e89146a72eada515bf52</title>
<path fill="none" stroke="black" d="M217.51,-268.19C232.7,-297.92 259.13,-360.7 243,-412 239.9,-421.85 234.25,-431.47 228.28,-439.75"/>
<polygon fill="black" stroke="black" points="225.37,-437.79 222.04,-447.85 230.91,-442.06 225.37,-437.79"/>
<g id="a_edge21&#45;headlabel"><a xlink:href="dir_000019_000015.html" target="_top" xlink:title="2">
<text text-anchor="middle" x="225.32" y="-430.71" font-family="Helvetica,sans-Serif" font-size="10.00">2</text>
</a>
</g>
</g>
<!-- dir_d665af80335f773f8bfcf2f56b3f3e8a&#45;&gt;dir_804e9c8a6f85b64a196ad58c4618e191 -->
<g id="edge18" class="edge">
<title>dir_d665af80335f773f8bfcf2f56b3f3e8a&#45;&gt;dir_804e9c8a6f85b64a196ad58c4618e191</title>
<path fill="none" stroke="black" d="M205.86,-231.75C201.37,-200.83 188.82,-134.82 159,-88 152.06,-77.11 142.3,-67.09 132.7,-58.76"/>
<polygon fill="black" stroke="black" points="134.68,-55.86 124.75,-52.18 130.22,-61.25 134.68,-55.86"/>
<g id="a_edge18&#45;headlabel"><a xlink:href="dir_000019_000016.html" target="_top" xlink:title="17">
<text text-anchor="middle" x="139.26" y="-53.46" font-family="Helvetica,sans-Serif" font-size="10.00">17</text>
</a>
</g>
</g>
<!-- dir_d665af80335f773f8bfcf2f56b3f3e8a&#45;&gt;dir_3dbe57e65c50a7a17fba27939d267647 -->
<g id="edge16" class="edge">
<title>dir_d665af80335f773f8bfcf2f56b3f3e8a&#45;&gt;dir_3dbe57e65c50a7a17fba27939d267647</title>
<path fill="none" stroke="black" d="M207.76,-268.19C207.42,-292.42 206.79,-336.89 206.38,-365.68"/>
<polygon fill="black" stroke="black" points="202.88,-365.82 206.24,-375.87 209.88,-365.92 202.88,-365.82"/>
<g id="a_edge16&#45;headlabel"><a xlink:href="dir_000019_000017.html" target="_top" xlink:title="22">
<text text-anchor="middle" x="200.09" y="-359.69" font-family="Helvetica,sans-Serif" font-size="10.00">22</text>
</a>
</g>
</g>
<!-- dir_d665af80335f773f8bfcf2f56b3f3e8a&#45;&gt;dir_c04391f011249a815ab0ebd9bc734b9b -->
<g id="edge20" class="edge">
<title>dir_d665af80335f773f8bfcf2f56b3f3e8a&#45;&gt;dir_c04391f011249a815ab0ebd9bc734b9b</title>
<path fill="none" stroke="black" d="M218.38,-231.7C223.26,-223.56 229.19,-213.69 234.58,-204.7"/>
<polygon fill="black" stroke="black" points="237.59,-206.48 239.74,-196.1 231.59,-202.88 237.59,-206.48"/>
<g id="a_edge20&#45;headlabel"><a xlink:href="dir_000019_000018.html" target="_top" xlink:title="1">
<text text-anchor="middle" x="238.18" y="-208.52" font-family="Helvetica,sans-Serif" font-size="10.00">1</text>
</a>
</g>
</g>
<!-- dir_d665af80335f773f8bfcf2f56b3f3e8a&#45;&gt;dir_3ac9928fc2e7e2cbc53db7c1a11acda2 -->
<g id="edge15" class="edge">
<title>dir_d665af80335f773f8bfcf2f56b3f3e8a&#45;&gt;dir_3ac9928fc2e7e2cbc53db7c1a11acda2</title>
<path fill="none" stroke="black" d="M202.66,-268.1C198.13,-276.3 191.78,-286.28 185.38,-295.36"/>
<polygon fill="black" stroke="black" points="182.36,-293.56 179.29,-303.7 188.01,-297.69 182.36,-293.56"/>
<g id="a_edge15&#45;headlabel"><a xlink:href="dir_000019_000020.html" target="_top" xlink:title="12">
<text text-anchor="middle" x="182.19" y="-286.48" font-family="Helvetica,sans-Serif" font-size="10.00">12</text>
</a>
</g>
</g>
<!-- dir_d665af80335f773f8bfcf2f56b3f3e8a&#45;&gt;dir_146efcb14c269303f155f454755144b3 -->
<g id="edge14" class="edge">
<title>dir_d665af80335f773f8bfcf2f56b3f3e8a&#45;&gt;dir_146efcb14c269303f155f454755144b3</title>
<path fill="none" stroke="black" d="M205.41,-231.68C203.24,-213.55 201.34,-184.38 207,-160 209.1,-150.96 212.97,-141.68 217.09,-133.47"/>
<polygon fill="black" stroke="black" points="220.31,-134.86 221.95,-124.39 214.14,-131.55 220.31,-134.86"/>
<g id="a_edge14&#45;headlabel"><a xlink:href="dir_000019_000026.html" target="_top" xlink:title="4">
<text text-anchor="middle" x="221.12" y="-136.87" font-family="Helvetica,sans-Serif" font-size="10.00">4</text>
</a>
</g>
</g>
<!-- dir_d665af80335f773f8bfcf2f56b3f3e8a&#45;&gt;dir_a7363e98f9e0bdd87618633653859815 -->
<g id="edge19" class="edge">
<title>dir_d665af80335f773f8bfcf2f56b3f3e8a&#45;&gt;dir_a7363e98f9e0bdd87618633653859815</title>
<path fill="none" stroke="black" d="M185.21,-231.98C173.86,-222.49 160.73,-209.8 152,-196 139.96,-176.97 132.46,-152.46 128.11,-133.98"/>
<polygon fill="black" stroke="black" points="131.51,-133.17 125.95,-124.15 124.68,-134.67 131.51,-133.17"/>
<g id="a_edge19&#45;headlabel"><a xlink:href="dir_000019_000027.html" target="_top" xlink:title="6">
<text text-anchor="middle" x="135.06" y="-133.57" font-family="Helvetica,sans-Serif" font-size="10.00">6</text>
</a>
</g>
</g>
<!-- dir_d665af80335f773f8bfcf2f56b3f3e8a&#45;&gt;dir_6719ab1f1f7655efc2fa43f7eb574fd1 -->
<g id="edge17" class="edge">
<title>dir_d665af80335f773f8bfcf2f56b3f3e8a&#45;&gt;dir_6719ab1f1f7655efc2fa43f7eb574fd1</title>
<path fill="none" stroke="black" d="M235.02,-237.28C253.34,-228.21 277.02,-214.14 293,-196 328.28,-155.94 349.74,-96.2 359.9,-61.88"/>
<polygon fill="black" stroke="black" points="363.31,-62.67 362.69,-52.09 356.58,-60.75 363.31,-62.67"/>
<g id="a_edge17&#45;headlabel"><a xlink:href="dir_000019_000000.html" target="_top" xlink:title="27">
<text text-anchor="middle" x="365.05" y="-64.4" font-family="Helvetica,sans-Serif" font-size="10.00">27</text>
</a>
</g>
</g>
<!-- dir_3ac9928fc2e7e2cbc53db7c1a11acda2&#45;&gt;dir_efbf91dec8e0e89146a72eada515bf52 -->
<g id="edge37" class="edge">
<title>dir_3ac9928fc2e7e2cbc53db7c1a11acda2&#45;&gt;dir_efbf91dec8e0e89146a72eada515bf52</title>
<path fill="none" stroke="black" d="M167.1,-340.3C168.37,-358.66 168.47,-388.24 177,-412 180.48,-421.7 186.3,-431.21 191.94,-439.43"/>
<polygon fill="black" stroke="black" points="189.23,-441.67 197.87,-447.8 194.94,-437.62 189.23,-441.67"/>
<g id="a_edge37&#45;headlabel"><a xlink:href="dir_000020_000015.html" target="_top" xlink:title="6">
<text text-anchor="middle" x="184.84" y="-437.88" font-family="Helvetica,sans-Serif" font-size="10.00">6</text>
</a>
</g>
</g>
<!-- dir_3ac9928fc2e7e2cbc53db7c1a11acda2&#45;&gt;dir_804e9c8a6f85b64a196ad58c4618e191 -->
<g id="edge33" class="edge">
<title>dir_3ac9928fc2e7e2cbc53db7c1a11acda2&#45;&gt;dir_804e9c8a6f85b64a196ad58c4618e191</title>
<path fill="none" stroke="black" d="M152.84,-304C135.49,-270.66 98.56,-193.86 87,-124 83.58,-103.33 87.31,-79.88 91.64,-62.25"/>
<polygon fill="black" stroke="black" points="95.16,-62.66 94.36,-52.09 88.39,-60.85 95.16,-62.66"/>
<g id="a_edge33&#45;headlabel"><a xlink:href="dir_000020_000016.html" target="_top" xlink:title="12">
<text text-anchor="middle" x="96.97" y="-64.36" font-family="Helvetica,sans-Serif" font-size="10.00">12</text>
</a>
</g>
</g>
<!-- dir_3ac9928fc2e7e2cbc53db7c1a11acda2&#45;&gt;dir_3dbe57e65c50a7a17fba27939d267647 -->
<g id="edge31" class="edge">
<title>dir_3ac9928fc2e7e2cbc53db7c1a11acda2&#45;&gt;dir_3dbe57e65c50a7a17fba27939d267647</title>
<path fill="none" stroke="black" d="M178.65,-340.1C184.53,-348.13 190.88,-357.87 196.09,-366.8"/>
<polygon fill="black" stroke="black" points="193.12,-368.66 201.04,-375.7 199.23,-365.26 193.12,-368.66"/>
<g id="a_edge31&#45;headlabel"><a xlink:href="dir_000020_000017.html" target="_top" xlink:title="10">
<text text-anchor="middle" x="188.89" y="-364.4" font-family="Helvetica,sans-Serif" font-size="10.00">10</text>
</a>
</g>
</g>
<!-- dir_3ac9928fc2e7e2cbc53db7c1a11acda2&#45;&gt;dir_c04391f011249a815ab0ebd9bc734b9b -->
<g id="edge35" class="edge">
<title>dir_3ac9928fc2e7e2cbc53db7c1a11acda2&#45;&gt;dir_c04391f011249a815ab0ebd9bc734b9b</title>
<path fill="none" stroke="black" d="M189.03,-311.17C207.89,-302.78 231.79,-288.74 244,-268 254.9,-249.48 255.75,-224.89 254.24,-206.25"/>
<polygon fill="black" stroke="black" points="257.69,-205.62 253.13,-196.05 250.73,-206.37 257.69,-205.62"/>
<g id="a_edge35&#45;headlabel"><a xlink:href="dir_000020_000018.html" target="_top" xlink:title="2">
<text text-anchor="middle" x="260.9" y="-206.38" font-family="Helvetica,sans-Serif" font-size="10.00">2</text>
</a>
</g>
</g>
<!-- dir_3ac9928fc2e7e2cbc53db7c1a11acda2&#45;&gt;dir_d665af80335f773f8bfcf2f56b3f3e8a -->
<g id="edge36" class="edge">
<title>dir_3ac9928fc2e7e2cbc53db7c1a11acda2&#45;&gt;dir_d665af80335f773f8bfcf2f56b3f3e8a</title>
<path fill="none" stroke="black" d="M167.46,-303.7C172.01,-295.47 178.37,-285.48 184.77,-276.42"/>
<polygon fill="black" stroke="black" points="187.78,-278.24 190.86,-268.1 182.13,-274.1 187.78,-278.24"/>
<g id="a_edge36&#45;headlabel"><a xlink:href="dir_000020_000019.html" target="_top" xlink:title="3">
<text text-anchor="middle" x="187.95" y="-280.32" font-family="Helvetica,sans-Serif" font-size="10.00">3</text>
</a>
</g>
</g>
<!-- dir_3ac9928fc2e7e2cbc53db7c1a11acda2&#45;&gt;dir_146efcb14c269303f155f454755144b3 -->
<g id="edge30" class="edge">
<title>dir_3ac9928fc2e7e2cbc53db7c1a11acda2&#45;&gt;dir_146efcb14c269303f155f454755144b3</title>
<path fill="none" stroke="black" d="M155.9,-303.71C154.57,-285.6 156.98,-256.46 163,-232 171.21,-198.66 175.64,-190.71 191,-160 195.66,-150.69 201.46,-140.91 207.37,-132.33"/>
<polygon fill="black" stroke="black" points="210.23,-134.34 213.28,-124.19 204.57,-130.23 210.23,-134.34"/>
<g id="a_edge30&#45;headlabel"><a xlink:href="dir_000020_000026.html" target="_top" xlink:title="7">
<text text-anchor="middle" x="210.42" y="-136.42" font-family="Helvetica,sans-Serif" font-size="10.00">7</text>
</a>
</g>
</g>
<!-- dir_3ac9928fc2e7e2cbc53db7c1a11acda2&#45;&gt;dir_a7363e98f9e0bdd87618633653859815 -->
<g id="edge34" class="edge">
<title>dir_3ac9928fc2e7e2cbc53db7c1a11acda2&#45;&gt;dir_a7363e98f9e0bdd87618633653859815</title>
<path fill="none" stroke="black" d="M151.06,-303.76C141.42,-279.79 129.61,-234.94 123,-196 119.51,-175.46 117.21,-152.01 117.1,-134.33"/>
<polygon fill="black" stroke="black" points="120.6,-134.23 117.33,-124.15 113.61,-134.07 120.6,-134.23"/>
<g id="a_edge34&#45;headlabel"><a xlink:href="dir_000020_000027.html" target="_top" xlink:title="25">
<text text-anchor="middle" x="123.36" y="-135.39" font-family="Helvetica,sans-Serif" font-size="10.00">25</text>
</a>
</g>
</g>
<!-- dir_3ac9928fc2e7e2cbc53db7c1a11acda2&#45;&gt;dir_6719ab1f1f7655efc2fa43f7eb574fd1 -->
<g id="edge32" class="edge">
<title>dir_3ac9928fc2e7e2cbc53db7c1a11acda2&#45;&gt;dir_6719ab1f1f7655efc2fa43f7eb574fd1</title>
<path fill="none" stroke="black" d="M189.08,-308.46C208.44,-298.83 234.58,-284.42 255,-268 288.6,-240.99 295.3,-231.34 320,-196 340.73,-166.34 347.54,-158.64 358,-124 364.09,-103.84 366.25,-80.06 366.94,-62.16"/>
<polygon fill="black" stroke="black" points="370.44,-62.19 367.2,-52.11 363.44,-62.02 370.44,-62.19"/>
<g id="a_edge32&#45;headlabel"><a xlink:href="dir_000020_000000.html" target="_top" xlink:title="100">
<text text-anchor="middle" x="373.19" y="-63.36" font-family="Helvetica,sans-Serif" font-size="10.00">100</text>
</a>
</g>
</g>
<!-- dir_146efcb14c269303f155f454755144b3&#45;&gt;dir_804e9c8a6f85b64a196ad58c4618e191 -->
<g id="edge13" class="edge">
<title>dir_146efcb14c269303f155f454755144b3&#45;&gt;dir_804e9c8a6f85b64a196ad58c4618e191</title>
<path fill="none" stroke="black" d="M205.76,-90.67C185.68,-80.1 158.16,-65.61 136.22,-54.06"/>
<polygon fill="black" stroke="black" points="137.68,-50.88 127.2,-49.32 134.42,-57.07 137.68,-50.88"/>
<g id="a_edge13&#45;headlabel"><a xlink:href="dir_000026_000016.html" target="_top" xlink:title="6">
<text text-anchor="middle" x="142.18" y="-47.54" font-family="Helvetica,sans-Serif" font-size="10.00">6</text>
</a>
</g>
</g>
<!-- dir_146efcb14c269303f155f454755144b3&#45;&gt;dir_3ac9928fc2e7e2cbc53db7c1a11acda2 -->
<g id="edge11" class="edge">
<title>dir_146efcb14c269303f155f454755144b3&#45;&gt;dir_3ac9928fc2e7e2cbc53db7c1a11acda2</title>
<path fill="none" stroke="black" d="M229.03,-124.19C223.46,-134.34 215.21,-147.59 209,-160 193.64,-190.71 189.21,-198.66 181,-232 175.99,-252.35 173.48,-275.94 170.92,-293.72"/>
<polygon fill="black" stroke="black" points="167.45,-293.28 169.34,-303.71 174.36,-294.38 167.45,-293.28"/>
<g id="a_edge11&#45;headlabel"><a xlink:href="dir_000026_000020.html" target="_top" xlink:title="4">
<text text-anchor="middle" x="165.2" y="-286.79" font-family="Helvetica,sans-Serif" font-size="10.00">4</text>
</a>
</g>
</g>
<!-- dir_146efcb14c269303f155f454755144b3&#45;&gt;dir_6719ab1f1f7655efc2fa43f7eb574fd1 -->
<g id="edge12" class="edge">
<title>dir_146efcb14c269303f155f454755144b3&#45;&gt;dir_6719ab1f1f7655efc2fa43f7eb574fd1</title>
<path fill="none" stroke="black" d="M260.21,-91.25C278.92,-81.73 304.54,-68.6 330.98,-54.64"/>
<polygon fill="black" stroke="black" points="332.77,-57.65 339.97,-49.88 329.5,-51.47 332.77,-57.65"/>
<g id="a_edge12&#45;headlabel"><a xlink:href="dir_000026_000000.html" target="_top" xlink:title="3">
<text text-anchor="middle" x="330.93" y="-59.34" font-family="Helvetica,sans-Serif" font-size="10.00">3</text>
</a>
</g>
</g>
<!-- dir_a7363e98f9e0bdd87618633653859815&#45;&gt;dir_804e9c8a6f85b64a196ad58c4618e191 -->
<g id="edge3" class="edge">
<title>dir_a7363e98f9e0bdd87618633653859815&#45;&gt;dir_804e9c8a6f85b64a196ad58c4618e191</title>
<path fill="none" stroke="black" d="M117.31,-87.7C114.75,-79.9 111.67,-70.51 108.82,-61.83"/>
<polygon fill="black" stroke="black" points="112.07,-60.51 105.62,-52.1 105.42,-62.7 112.07,-60.51"/>
<g id="a_edge3&#45;headlabel"><a xlink:href="dir_000027_000016.html" target="_top" xlink:title="2">
<text text-anchor="middle" x="115.89" y="-60.54" font-family="Helvetica,sans-Serif" font-size="10.00">2</text>
</a>
</g>
</g>
<!-- dir_a7363e98f9e0bdd87618633653859815&#45;&gt;dir_3ac9928fc2e7e2cbc53db7c1a11acda2 -->
<g id="edge1" class="edge">
<title>dir_a7363e98f9e0bdd87618633653859815&#45;&gt;dir_3ac9928fc2e7e2cbc53db7c1a11acda2</title>
<path fill="none" stroke="black" d="M130.77,-124.15C134.3,-142.14 136.79,-171.2 141,-196 146.79,-230.08 156.55,-268.67 161.37,-293.85"/>
<polygon fill="black" stroke="black" points="157.93,-294.52 163.11,-303.76 164.83,-293.31 157.93,-294.52"/>
<g id="a_edge1&#45;headlabel"><a xlink:href="dir_000027_000020.html" target="_top" xlink:title="6">
<text text-anchor="middle" x="154.52" y="-288.96" font-family="Helvetica,sans-Serif" font-size="10.00">6</text>
</a>
</g>
</g>
<!-- dir_a7363e98f9e0bdd87618633653859815&#45;&gt;dir_6719ab1f1f7655efc2fa43f7eb574fd1 -->
<g id="edge2" class="edge">
<title>dir_a7363e98f9e0bdd87618633653859815&#45;&gt;dir_6719ab1f1f7655efc2fa43f7eb574fd1</title>
<path fill="none" stroke="black" d="M150.16,-98.66C197.95,-87.44 295.07,-64.38 330.16,-53.65"/>
<polygon fill="black" stroke="black" points="331.44,-56.92 339.8,-50.41 329.21,-50.28 331.44,-56.92"/>
<g id="a_edge2&#45;headlabel"><a xlink:href="dir_000027_000000.html" target="_top" xlink:title="5">
<text text-anchor="middle" x="328.93" y="-58.25" font-family="Helvetica,sans-Serif" font-size="10.00">5</text>
</a>
</g>
</g>
</g>
</svg>
