<?xml version="1.0" encoding="UTF-8" standalone="no"?>
<!DOCTYPE svg PUBLIC "-//W3C//DTD SVG 1.1//EN"
 "http://www.w3.org/Graphics/SVG/1.1/DTD/svg11.dtd">
<!-- Generated by graphviz version 2.44.0 ()
 -->
<!-- Title: libs/spic&#45;engine/src Pages: 1 -->
<svg width="294pt" height="399pt"
 viewBox="0.00 0.00 294.00 399.00" xmlns="http://www.w3.org/2000/svg" xmlns:xlink="http://www.w3.org/1999/xlink">
<g id="graph0" class="graph" transform="scale(1 1) rotate(0) translate(4 395)">
<title>libs/spic&#45;engine/src</title>
<g id="clust1" class="cluster">
<title>clusterdir_9974ec0867326232720279efba291a23</title>
<g id="a_clust1"><a xlink:href="dir_9974ec0867326232720279efba291a23.html" target="_top" xlink:title="spic&#45;engine">
<polygon fill="#ddddee" stroke="black" points="8,-8 8,-383 278,-383 278,-8 8,-8"/>
<text text-anchor="middle" x="143" y="-371" font-family="Helvetica,sans-Serif" font-size="10.00">spic&#45;engine</text>
</a>
</g>
</g>
<g id="clust2" class="cluster">
<title>clusterdir_285e79e1df58a5eef125f3ef662e94c8</title>
<g id="a_clust2"><a xlink:href="dir_285e79e1df58a5eef125f3ef662e94c8.html" target="_top">
<polygon fill="#eeeeff" stroke="black" points="16,-16 16,-356 208,-356 208,-16 16,-16"/>
</a>
</g>
</g>
<!-- dir_4f186f038b17a7ee674550d24e4eff05 -->
<g id="node1" class="node">
<title>dir_4f186f038b17a7ee674550d24e4eff05</title>
<g id="a_node1"><a xlink:href="dir_4f186f038b17a7ee674550d24e4eff05.html" target="_top" xlink:title="includes">
<polygon fill="none" stroke="red" points="270,-60 216,-60 216,-24 270,-24 270,-60"/>
<text text-anchor="middle" x="243" y="-39.5" font-family="Helvetica,sans-Serif" font-size="10.00">includes</text>
</a>
</g>
</g>
<!-- dir_285e79e1df58a5eef125f3ef662e94c8 -->
<g id="node2" class="node">
<title>dir_285e79e1df58a5eef125f3ef662e94c8</title>
<text text-anchor="middle" x="173" y="-327.5" font-family="Helvetica,sans-Serif" font-size="10.00">src</text>
</g>
<!-- dir_aaeb1049245dbecd9dd0b23975ef06b0 -->
<g id="node3" class="node">
<title>dir_aaeb1049245dbecd9dd0b23975ef06b0</title>
<g id="a_node3"><a xlink:href="dir_aaeb1049245dbecd9dd0b23975ef06b0.html" target="_top" xlink:title="Api">
<polygon fill="white" stroke="black" points="128,-348 74,-348 74,-312 128,-312 128,-348"/>
<text text-anchor="middle" x="101" y="-327.5" font-family="Helvetica,sans-Serif" font-size="10.00">Api</text>
</a>
</g>
</g>
<!-- dir_aaeb1049245dbecd9dd0b23975ef06b0&#45;&gt;dir_4f186f038b17a7ee674550d24e4eff05 -->
<g id="edge8" class="edge">
<title>dir_aaeb1049245dbecd9dd0b23975ef06b0&#45;&gt;dir_4f186f038b17a7ee674550d24e4eff05</title>
<path fill="none" stroke="black" d="M128.13,-312.66C142.71,-303.08 160.44,-290.12 174,-276 200.65,-248.27 205.32,-238.65 222,-204 236.57,-173.73 239.83,-165.19 245,-132 247.46,-116.19 245.3,-112 245,-96 244.84,-87.68 244.55,-78.63 244.23,-70.4"/>
<polygon fill="black" stroke="black" points="247.72,-70.03 243.81,-60.18 240.72,-70.32 247.72,-70.03"/>
<g id="a_edge8&#45;headlabel"><a xlink:href="dir_000006_000002.html" target="_top" xlink:title="24">
<text text-anchor="middle" x="250.7" y="-71" font-family="Helvetica,sans-Serif" font-size="10.00">24</text>
</a>
</g>
</g>
<!-- dir_5990f7c91cabd7781a71f4a336348beb -->
<g id="node5" class="node">
<title>dir_5990f7c91cabd7781a71f4a336348beb</title>
<g id="a_node5"><a xlink:href="dir_5990f7c91cabd7781a71f4a336348beb.html" target="_top" xlink:title="Listeners">
<polygon fill="white" stroke="black" points="199.5,-204 142.5,-204 142.5,-168 199.5,-168 199.5,-204"/>
<text text-anchor="middle" x="171" y="-183.5" font-family="Helvetica,sans-Serif" font-size="10.00">Listeners</text>
</a>
</g>
</g>
<!-- dir_aaeb1049245dbecd9dd0b23975ef06b0&#45;&gt;dir_5990f7c91cabd7781a71f4a336348beb -->
<g id="edge9" class="edge">
<title>dir_aaeb1049245dbecd9dd0b23975ef06b0&#45;&gt;dir_5990f7c91cabd7781a71f4a336348beb</title>
<path fill="none" stroke="black" d="M128.33,-313.74C141.82,-304.65 156.91,-291.79 165,-276 174.74,-256.99 175.72,-232.63 174.56,-214.2"/>
<polygon fill="black" stroke="black" points="178.04,-213.78 173.68,-204.12 171.06,-214.39 178.04,-213.78"/>
<g id="a_edge9&#45;headlabel"><a xlink:href="dir_000006_000008.html" target="_top" xlink:title="1">
<text text-anchor="middle" x="181.18" y="-214.61" font-family="Helvetica,sans-Serif" font-size="10.00">1</text>
</a>
</g>
</g>
<!-- dir_944338dd7c8807faeb58957658de8a3c -->
<g id="node6" class="node">
<title>dir_944338dd7c8807faeb58957658de8a3c</title>
<g id="a_node6"><a xlink:href="dir_944338dd7c8807faeb58957658de8a3c.html" target="_top" xlink:title="Managers">
<polygon fill="white" stroke="black" points="103.5,-204 44.5,-204 44.5,-168 103.5,-168 103.5,-204"/>
<text text-anchor="middle" x="74" y="-183.5" font-family="Helvetica,sans-Serif" font-size="10.00">Managers</text>
</a>
</g>
</g>
<!-- dir_aaeb1049245dbecd9dd0b23975ef06b0&#45;&gt;dir_944338dd7c8807faeb58957658de8a3c -->
<g id="edge10" class="edge">
<title>dir_aaeb1049245dbecd9dd0b23975ef06b0&#45;&gt;dir_944338dd7c8807faeb58957658de8a3c</title>
<path fill="none" stroke="black" d="M90.01,-311.6C84.34,-301.6 77.99,-288.56 75,-276 70.15,-255.61 70.16,-231.85 71.24,-214.01"/>
<polygon fill="black" stroke="black" points="74.73,-214.24 71.99,-204 67.75,-213.71 74.73,-214.24"/>
<g id="a_edge10&#45;headlabel"><a xlink:href="dir_000006_000009.html" target="_top" xlink:title="4">
<text text-anchor="middle" x="77.29" y="-215.53" font-family="Helvetica,sans-Serif" font-size="10.00">4</text>
</a>
</g>
</g>
<!-- dir_4c3567f8d4bf2744157f20ca4f9c82ee -->
<g id="node8" class="node">
<title>dir_4c3567f8d4bf2744157f20ca4f9c82ee</title>
<g id="a_node8"><a xlink:href="dir_4c3567f8d4bf2744157f20ca4f9c82ee.html" target="_top" xlink:title="Subsystems">
<polygon fill="white" stroke="black" points="155.5,-276 84.5,-276 84.5,-240 155.5,-240 155.5,-276"/>
<text text-anchor="middle" x="120" y="-255.5" font-family="Helvetica,sans-Serif" font-size="10.00">Subsystems</text>
</a>
</g>
</g>
<!-- dir_aaeb1049245dbecd9dd0b23975ef06b0&#45;&gt;dir_4c3567f8d4bf2744157f20ca4f9c82ee -->
<g id="edge7" class="edge">
<title>dir_aaeb1049245dbecd9dd0b23975ef06b0&#45;&gt;dir_4c3567f8d4bf2744157f20ca4f9c82ee</title>
<path fill="none" stroke="black" d="M105.7,-311.7C107.81,-303.9 110.36,-294.51 112.72,-285.83"/>
<polygon fill="black" stroke="black" points="116.12,-286.67 115.36,-276.1 109.36,-284.84 116.12,-286.67"/>
<g id="a_edge7&#45;headlabel"><a xlink:href="dir_000006_000011.html" target="_top" xlink:title="1">
<text text-anchor="middle" x="117.91" y="-288.38" font-family="Helvetica,sans-Serif" font-size="10.00">1</text>
</a>
</g>
</g>
<!-- dir_44982e0575ee586d59cceea88d45baea -->
<g id="node4" class="node">
<title>dir_44982e0575ee586d59cceea88d45baea</title>
<g id="a_node4"><a xlink:href="dir_44982e0575ee586d59cceea88d45baea.html" target="_top" xlink:title="Exceptions">
<polygon fill="white" stroke="black" points="88,-60 24,-60 24,-24 88,-24 88,-60"/>
<text text-anchor="middle" x="56" y="-39.5" font-family="Helvetica,sans-Serif" font-size="10.00">Exceptions</text>
</a>
</g>
</g>
<!-- dir_5990f7c91cabd7781a71f4a336348beb&#45;&gt;dir_4f186f038b17a7ee674550d24e4eff05 -->
<g id="edge11" class="edge">
<title>dir_5990f7c91cabd7781a71f4a336348beb&#45;&gt;dir_4f186f038b17a7ee674550d24e4eff05</title>
<path fill="none" stroke="black" d="M187.91,-167.55C196.67,-157.74 206.98,-144.91 214,-132 224.65,-112.43 232.21,-88.3 236.93,-70.1"/>
<polygon fill="black" stroke="black" points="240.39,-70.7 239.39,-60.15 233.6,-69.02 240.39,-70.7"/>
<g id="a_edge11&#45;headlabel"><a xlink:href="dir_000008_000002.html" target="_top" xlink:title="7">
<text text-anchor="middle" x="242.29" y="-72.37" font-family="Helvetica,sans-Serif" font-size="10.00">7</text>
</a>
</g>
</g>
<!-- dir_9aeb1967283fc00fc326d38af623fe8a -->
<g id="node9" class="node">
<title>dir_9aeb1967283fc00fc326d38af623fe8a</title>
<g id="a_node9"><a xlink:href="dir_9aeb1967283fc00fc326d38af623fe8a.html" target="_top" xlink:title="Utils">
<polygon fill="white" stroke="black" points="190,-132 136,-132 136,-96 190,-96 190,-132"/>
<text text-anchor="middle" x="163" y="-111.5" font-family="Helvetica,sans-Serif" font-size="10.00">Utils</text>
</a>
</g>
</g>
<!-- dir_5990f7c91cabd7781a71f4a336348beb&#45;&gt;dir_9aeb1967283fc00fc326d38af623fe8a -->
<g id="edge12" class="edge">
<title>dir_5990f7c91cabd7781a71f4a336348beb&#45;&gt;dir_9aeb1967283fc00fc326d38af623fe8a</title>
<path fill="none" stroke="black" d="M169.02,-167.7C168.14,-159.98 167.08,-150.71 166.1,-142.11"/>
<polygon fill="black" stroke="black" points="169.57,-141.64 164.95,-132.1 162.61,-142.44 169.57,-141.64"/>
<g id="a_edge12&#45;headlabel"><a xlink:href="dir_000008_000012.html" target="_top" xlink:title="2">
<text text-anchor="middle" x="172.8" y="-142.39" font-family="Helvetica,sans-Serif" font-size="10.00">2</text>
</a>
</g>
</g>
<!-- dir_944338dd7c8807faeb58957658de8a3c&#45;&gt;dir_4f186f038b17a7ee674550d24e4eff05 -->
<g id="edge14" class="edge">
<title>dir_944338dd7c8807faeb58957658de8a3c&#45;&gt;dir_4f186f038b17a7ee674550d24e4eff05</title>
<path fill="none" stroke="black" d="M103.79,-175.3C136.16,-164.26 185.13,-145.96 199,-132 211.22,-119.71 206.5,-111.62 214,-96 218.22,-87.21 223.2,-77.81 227.84,-69.4"/>
<polygon fill="black" stroke="black" points="231.03,-70.86 232.86,-60.42 224.92,-67.44 231.03,-70.86"/>
<g id="a_edge14&#45;headlabel"><a xlink:href="dir_000009_000002.html" target="_top" xlink:title="7">
<text text-anchor="middle" x="231.76" y="-72.88" font-family="Helvetica,sans-Serif" font-size="10.00">7</text>
</a>
</g>
</g>
<!-- dir_944338dd7c8807faeb58957658de8a3c&#45;&gt;dir_44982e0575ee586d59cceea88d45baea -->
<g id="edge13" class="edge">
<title>dir_944338dd7c8807faeb58957658de8a3c&#45;&gt;dir_44982e0575ee586d59cceea88d45baea</title>
<path fill="none" stroke="black" d="M66.11,-167.75C61.89,-157.58 57.14,-144.33 55,-132 51.45,-111.58 51.9,-88.12 53.12,-70.41"/>
<polygon fill="black" stroke="black" points="56.63,-70.46 53.96,-60.21 49.65,-69.89 56.63,-70.46"/>
<g id="a_edge13&#45;headlabel"><a xlink:href="dir_000009_000007.html" target="_top" xlink:title="3">
<text text-anchor="middle" x="59.17" y="-71.78" font-family="Helvetica,sans-Serif" font-size="10.00">3</text>
</a>
</g>
</g>
<!-- dir_86e52f062f78877d44b40fa7f7b75938 -->
<g id="node7" class="node">
<title>dir_86e52f062f78877d44b40fa7f7b75938</title>
<g id="a_node7"><a xlink:href="dir_86e52f062f78877d44b40fa7f7b75938.html" target="_top" xlink:title="Models">
<polygon fill="white" stroke="black" points="118,-132 64,-132 64,-96 118,-96 118,-132"/>
<text text-anchor="middle" x="91" y="-111.5" font-family="Helvetica,sans-Serif" font-size="10.00">Models</text>
</a>
</g>
</g>
<!-- dir_944338dd7c8807faeb58957658de8a3c&#45;&gt;dir_86e52f062f78877d44b40fa7f7b75938 -->
<g id="edge15" class="edge">
<title>dir_944338dd7c8807faeb58957658de8a3c&#45;&gt;dir_86e52f062f78877d44b40fa7f7b75938</title>
<path fill="none" stroke="black" d="M72.29,-167.7C73.38,-159.9 75.43,-150.51 77.9,-141.83"/>
<polygon fill="black" stroke="black" points="81.3,-142.69 80.95,-132.1 74.62,-140.6 81.3,-142.69"/>
<g id="a_edge15&#45;headlabel"><a xlink:href="dir_000009_000010.html" target="_top" xlink:title="4">
<text text-anchor="middle" x="82.93" y="-144.47" font-family="Helvetica,sans-Serif" font-size="10.00">4</text>
</a>
</g>
</g>
<!-- dir_86e52f062f78877d44b40fa7f7b75938&#45;&gt;dir_4f186f038b17a7ee674550d24e4eff05 -->
<g id="edge17" class="edge">
<title>dir_86e52f062f78877d44b40fa7f7b75938&#45;&gt;dir_4f186f038b17a7ee674550d24e4eff05</title>
<path fill="none" stroke="black" d="M118.07,-100.07C121.08,-98.68 124.1,-97.3 127,-96 161.37,-80.61 173.15,-78.21 206.27,-62.67"/>
<polygon fill="black" stroke="black" points="208.18,-65.64 215.69,-58.17 205.16,-59.32 208.18,-65.64"/>
<g id="a_edge17&#45;headlabel"><a xlink:href="dir_000010_000002.html" target="_top" xlink:title="4">
<text text-anchor="middle" x="206.16" y="-67.25" font-family="Helvetica,sans-Serif" font-size="10.00">4</text>
</a>
</g>
</g>
<!-- dir_86e52f062f78877d44b40fa7f7b75938&#45;&gt;dir_44982e0575ee586d59cceea88d45baea -->
<g id="edge16" class="edge">
<title>dir_86e52f062f78877d44b40fa7f7b75938&#45;&gt;dir_44982e0575ee586d59cceea88d45baea</title>
<path fill="none" stroke="black" d="M82.35,-95.7C78.36,-87.73 73.55,-78.1 69.13,-69.26"/>
<polygon fill="black" stroke="black" points="72.15,-67.48 64.55,-60.1 65.89,-70.61 72.15,-67.48"/>
<g id="a_edge16&#45;headlabel"><a xlink:href="dir_000010_000007.html" target="_top" xlink:title="1">
<text text-anchor="middle" x="76.3" y="-66.93" font-family="Helvetica,sans-Serif" font-size="10.00">1</text>
</a>
</g>
</g>
<!-- dir_86e52f062f78877d44b40fa7f7b75938&#45;&gt;dir_944338dd7c8807faeb58957658de8a3c -->
<g id="edge18" class="edge">
<title>dir_86e52f062f78877d44b40fa7f7b75938&#45;&gt;dir_944338dd7c8807faeb58957658de8a3c</title>
<path fill="none" stroke="black" d="M92.74,-132.1C91.67,-139.88 89.62,-149.26 87.16,-157.95"/>
<polygon fill="black" stroke="black" points="83.76,-157.11 84.12,-167.7 90.44,-159.19 83.76,-157.11"/>
<g id="a_edge18&#45;headlabel"><a xlink:href="dir_000010_000009.html" target="_top" xlink:title="2">
<text text-anchor="middle" x="82.12" y="-150.33" font-family="Helvetica,sans-Serif" font-size="10.00">2</text>
</a>
</g>
</g>
<!-- dir_4c3567f8d4bf2744157f20ca4f9c82ee&#45;&gt;dir_4f186f038b17a7ee674550d24e4eff05 -->
<g id="edge3" class="edge">
<title>dir_4c3567f8d4bf2744157f20ca4f9c82ee&#45;&gt;dir_4f186f038b17a7ee674550d24e4eff05</title>
<path fill="none" stroke="black" d="M154.62,-239.98C176.37,-228.63 201.66,-214.01 209,-204 238.19,-164.19 243.47,-104.77 243.81,-70.35"/>
<polygon fill="black" stroke="black" points="247.31,-70.1 243.77,-60.11 240.31,-70.12 247.31,-70.1"/>
<g id="a_edge3&#45;headlabel"><a xlink:href="dir_000011_000002.html" target="_top" xlink:title="26">
<text text-anchor="middle" x="250.16" y="-71.18" font-family="Helvetica,sans-Serif" font-size="10.00">26</text>
</a>
</g>
</g>
<!-- dir_4c3567f8d4bf2744157f20ca4f9c82ee&#45;&gt;dir_44982e0575ee586d59cceea88d45baea -->
<g id="edge2" class="edge">
<title>dir_4c3567f8d4bf2744157f20ca4f9c82ee&#45;&gt;dir_44982e0575ee586d59cceea88d45baea</title>
<path fill="none" stroke="black" d="M84.29,-244.5C66.06,-236.09 45.55,-223.01 35,-204 11.45,-161.56 29.08,-103.37 43.15,-69.82"/>
<polygon fill="black" stroke="black" points="46.54,-70.81 47.35,-60.25 40.13,-68 46.54,-70.81"/>
<g id="a_edge2&#45;headlabel"><a xlink:href="dir_000011_000007.html" target="_top" xlink:title="1">
<text text-anchor="middle" x="47.69" y="-72.74" font-family="Helvetica,sans-Serif" font-size="10.00">1</text>
</a>
</g>
</g>
<!-- dir_4c3567f8d4bf2744157f20ca4f9c82ee&#45;&gt;dir_5990f7c91cabd7781a71f4a336348beb -->
<g id="edge4" class="edge">
<title>dir_4c3567f8d4bf2744157f20ca4f9c82ee&#45;&gt;dir_5990f7c91cabd7781a71f4a336348beb</title>
<path fill="none" stroke="black" d="M132.61,-239.7C138.6,-231.47 145.88,-221.48 152.48,-212.42"/>
<polygon fill="black" stroke="black" points="155.48,-214.25 158.54,-204.1 149.82,-210.13 155.48,-214.25"/>
<g id="a_edge4&#45;headlabel"><a xlink:href="dir_000011_000008.html" target="_top" xlink:title="1">
<text text-anchor="middle" x="155.66" y="-216.32" font-family="Helvetica,sans-Serif" font-size="10.00">1</text>
</a>
</g>
</g>
<!-- dir_4c3567f8d4bf2744157f20ca4f9c82ee&#45;&gt;dir_944338dd7c8807faeb58957658de8a3c -->
<g id="edge6" class="edge">
<title>dir_4c3567f8d4bf2744157f20ca4f9c82ee&#45;&gt;dir_944338dd7c8807faeb58957658de8a3c</title>
<path fill="none" stroke="black" d="M108.63,-239.7C103.28,-231.56 96.8,-221.69 90.89,-212.7"/>
<polygon fill="black" stroke="black" points="93.66,-210.54 85.24,-204.1 87.81,-214.38 93.66,-210.54"/>
<g id="a_edge6&#45;headlabel"><a xlink:href="dir_000011_000009.html" target="_top" xlink:title="3">
<text text-anchor="middle" x="98" y="-209.48" font-family="Helvetica,sans-Serif" font-size="10.00">3</text>
</a>
</g>
</g>
<!-- dir_4c3567f8d4bf2744157f20ca4f9c82ee&#45;&gt;dir_86e52f062f78877d44b40fa7f7b75938 -->
<g id="edge5" class="edge">
<title>dir_4c3567f8d4bf2744157f20ca4f9c82ee&#45;&gt;dir_86e52f062f78877d44b40fa7f7b75938</title>
<path fill="none" stroke="black" d="M119.91,-239.7C119.47,-221.6 117.81,-192.45 112,-168 109.89,-159.14 106.59,-149.8 103.22,-141.48"/>
<polygon fill="black" stroke="black" points="106.43,-140.09 99.3,-132.26 99.99,-142.83 106.43,-140.09"/>
<g id="a_edge5&#45;headlabel"><a xlink:href="dir_000011_000010.html" target="_top" xlink:title="2">
<text text-anchor="middle" x="110.45" y="-139.79" font-family="Helvetica,sans-Serif" font-size="10.00">2</text>
</a>
</g>
</g>
<!-- dir_9aeb1967283fc00fc326d38af623fe8a&#45;&gt;dir_4f186f038b17a7ee674550d24e4eff05 -->
<g id="edge1" class="edge">
<title>dir_9aeb1967283fc00fc326d38af623fe8a&#45;&gt;dir_4f186f038b17a7ee674550d24e4eff05</title>
<path fill="none" stroke="black" d="M182.78,-95.7C192.75,-86.97 205.01,-76.24 215.86,-66.75"/>
<polygon fill="black" stroke="black" points="218.23,-69.32 223.45,-60.1 213.62,-64.06 218.23,-69.32"/>
<g id="a_edge1&#45;headlabel"><a xlink:href="dir_000012_000002.html" target="_top" xlink:title="2">
<text text-anchor="middle" x="217.4" y="-71.33" font-family="Helvetica,sans-Serif" font-size="10.00">2</text>
</a>
</g>
</g>
</g>
</svg>
