<?xml version="1.0" encoding="UTF-8" standalone="no"?>
<!DOCTYPE svg PUBLIC "-//W3C//DTD SVG 1.1//EN"
 "http://www.w3.org/Graphics/SVG/1.1/DTD/svg11.dtd">
<!-- Generated by graphviz version 2.44.0 ()
 -->
<!-- Title: src/Factories Pages: 1 -->
<svg width="219pt" height="383pt"
 viewBox="0.00 0.00 219.00 383.00" xmlns="http://www.w3.org/2000/svg" xmlns:xlink="http://www.w3.org/1999/xlink">
<g id="graph0" class="graph" transform="scale(1 1) rotate(0) translate(4 379)">
<title>src/Factories</title>
<g id="clust1" class="cluster">
<title>clusterdir_68267d1309a1af8e8297ef4c3efbcdba</title>
<g id="a_clust1"><a xlink:href="dir_68267d1309a1af8e8297ef4c3efbcdba.html" target="_top" xlink:title="src">
<polygon fill="#ddddee" stroke="black" points="8,-8 8,-367 138,-367 138,-8 8,-8"/>
<text text-anchor="middle" x="73" y="-355" font-family="Helvetica,sans-Serif" font-size="10.00">src</text>
</a>
</g>
</g>
<!-- dir_146efcb14c269303f155f454755144b3 -->
<g id="node1" class="node">
<title>dir_146efcb14c269303f155f454755144b3</title>
<g id="a_node1"><a xlink:href="dir_146efcb14c269303f155f454755144b3.html" target="_top" xlink:title="Structs">
<polygon fill="none" stroke="black" points="110,-268 56,-268 56,-232 110,-232 110,-268"/>
<text text-anchor="middle" x="83" y="-247.5" font-family="Helvetica,sans-Serif" font-size="10.00">Structs</text>
</a>
</g>
</g>
<!-- dir_3ac9928fc2e7e2cbc53db7c1a11acda2 -->
<g id="node2" class="node">
<title>dir_3ac9928fc2e7e2cbc53db7c1a11acda2</title>
<g id="a_node2"><a xlink:href="dir_3ac9928fc2e7e2cbc53db7c1a11acda2.html" target="_top" xlink:title="Scripts">
<polygon fill="none" stroke="red" points="110,-196 56,-196 56,-160 110,-160 110,-196"/>
<text text-anchor="middle" x="83" y="-175.5" font-family="Helvetica,sans-Serif" font-size="10.00">Scripts</text>
</a>
</g>
</g>
<!-- dir_146efcb14c269303f155f454755144b3&#45;&gt;dir_3ac9928fc2e7e2cbc53db7c1a11acda2 -->
<g id="edge4" class="edge">
<title>dir_146efcb14c269303f155f454755144b3&#45;&gt;dir_3ac9928fc2e7e2cbc53db7c1a11acda2</title>
<path fill="none" stroke="black" d="M77.08,-231.7C76.29,-223.98 76.06,-214.71 76.4,-206.11"/>
<polygon fill="black" stroke="black" points="79.9,-206.32 77.1,-196.1 72.92,-205.84 79.9,-206.32"/>
<g id="a_edge4&#45;headlabel"><a xlink:href="dir_000026_000020.html" target="_top" xlink:title="4">
<text text-anchor="middle" x="82.48" y="-207.61" font-family="Helvetica,sans-Serif" font-size="10.00">4</text>
</a>
</g>
</g>
<!-- dir_804e9c8a6f85b64a196ad58c4618e191 -->
<g id="node3" class="node">
<title>dir_804e9c8a6f85b64a196ad58c4618e191</title>
<g id="a_node3"><a xlink:href="dir_804e9c8a6f85b64a196ad58c4618e191.html" target="_top" xlink:title="Enums">
<polygon fill="none" stroke="black" points="77,-52 23,-52 23,-16 77,-16 77,-52"/>
<text text-anchor="middle" x="50" y="-31.5" font-family="Helvetica,sans-Serif" font-size="10.00">Enums</text>
</a>
</g>
</g>
<!-- dir_146efcb14c269303f155f454755144b3&#45;&gt;dir_804e9c8a6f85b64a196ad58c4618e191 -->
<g id="edge6" class="edge">
<title>dir_146efcb14c269303f155f454755144b3&#45;&gt;dir_804e9c8a6f85b64a196ad58c4618e191</title>
<path fill="none" stroke="black" d="M67.39,-231.77C59.63,-222.03 51.05,-209.18 47,-196 33.12,-150.87 38.86,-95.2 44.38,-62.55"/>
<polygon fill="black" stroke="black" points="47.87,-62.87 46.21,-52.41 40.99,-61.63 47.87,-62.87"/>
<g id="a_edge6&#45;headlabel"><a xlink:href="dir_000026_000016.html" target="_top" xlink:title="6">
<text text-anchor="middle" x="50.03" y="-64.42" font-family="Helvetica,sans-Serif" font-size="10.00">6</text>
</a>
</g>
</g>
<!-- dir_6719ab1f1f7655efc2fa43f7eb574fd1 -->
<g id="node6" class="node">
<title>dir_6719ab1f1f7655efc2fa43f7eb574fd1</title>
<g id="a_node6"><a xlink:href="dir_6719ab1f1f7655efc2fa43f7eb574fd1.html" target="_top" xlink:title="libs">
<polygon fill="none" stroke="red" points="211,-52 157,-52 157,-16 211,-16 211,-52"/>
<text text-anchor="middle" x="184" y="-31.5" font-family="Helvetica,sans-Serif" font-size="10.00">libs</text>
</a>
</g>
</g>
<!-- dir_146efcb14c269303f155f454755144b3&#45;&gt;dir_6719ab1f1f7655efc2fa43f7eb574fd1 -->
<g id="edge5" class="edge">
<title>dir_146efcb14c269303f155f454755144b3&#45;&gt;dir_6719ab1f1f7655efc2fa43f7eb574fd1</title>
<path fill="none" stroke="black" d="M94.84,-231.93C101.94,-221.59 111.1,-208.11 119,-196 139.61,-164.39 149.66,-158.9 164,-124 172.16,-104.13 177.29,-80.34 180.31,-62.35"/>
<polygon fill="black" stroke="black" points="183.8,-62.67 181.88,-52.25 176.88,-61.59 183.8,-62.67"/>
<g id="a_edge5&#45;headlabel"><a xlink:href="dir_000026_000000.html" target="_top" xlink:title="3">
<text text-anchor="middle" x="186.05" y="-64.16" font-family="Helvetica,sans-Serif" font-size="10.00">3</text>
</a>
</g>
</g>
<!-- dir_3ac9928fc2e7e2cbc53db7c1a11acda2&#45;&gt;dir_146efcb14c269303f155f454755144b3 -->
<g id="edge12" class="edge">
<title>dir_3ac9928fc2e7e2cbc53db7c1a11acda2&#45;&gt;dir_146efcb14c269303f155f454755144b3</title>
<path fill="none" stroke="black" d="M88.9,-196.1C89.7,-203.79 89.94,-213.05 89.6,-221.67"/>
<polygon fill="black" stroke="black" points="86.11,-221.48 88.92,-231.7 93.09,-221.96 86.11,-221.48"/>
<g id="a_edge12&#45;headlabel"><a xlink:href="dir_000020_000026.html" target="_top" xlink:title="6">
<text text-anchor="middle" x="83.52" y="-215.2" font-family="Helvetica,sans-Serif" font-size="10.00">6</text>
</a>
</g>
</g>
<!-- dir_3ac9928fc2e7e2cbc53db7c1a11acda2&#45;&gt;dir_804e9c8a6f85b64a196ad58c4618e191 -->
<g id="edge14" class="edge">
<title>dir_3ac9928fc2e7e2cbc53db7c1a11acda2&#45;&gt;dir_804e9c8a6f85b64a196ad58c4618e191</title>
<path fill="none" stroke="black" d="M77.35,-159.94C74.06,-149.61 69.98,-136.13 67,-124 61.96,-103.51 57.54,-80.05 54.46,-62.36"/>
<polygon fill="black" stroke="black" points="57.86,-61.45 52.73,-52.18 50.96,-62.62 57.86,-61.45"/>
<g id="a_edge14&#45;headlabel"><a xlink:href="dir_000020_000016.html" target="_top" xlink:title="12">
<text text-anchor="middle" x="61.26" y="-62.02" font-family="Helvetica,sans-Serif" font-size="10.00">12</text>
</a>
</g>
</g>
<!-- dir_a7363e98f9e0bdd87618633653859815 -->
<g id="node4" class="node">
<title>dir_a7363e98f9e0bdd87618633653859815</title>
<g id="a_node4"><a xlink:href="dir_a7363e98f9e0bdd87618633653859815.html" target="_top" xlink:title="Utils">
<polygon fill="none" stroke="black" points="130,-124 76,-124 76,-88 130,-88 130,-124"/>
<text text-anchor="middle" x="103" y="-103.5" font-family="Helvetica,sans-Serif" font-size="10.00">Utils</text>
</a>
</g>
</g>
<!-- dir_3ac9928fc2e7e2cbc53db7c1a11acda2&#45;&gt;dir_a7363e98f9e0bdd87618633653859815 -->
<g id="edge15" class="edge">
<title>dir_3ac9928fc2e7e2cbc53db7c1a11acda2&#45;&gt;dir_a7363e98f9e0bdd87618633653859815</title>
<path fill="none" stroke="black" d="M82.03,-159.7C83.47,-151.81 85.97,-142.3 88.84,-133.55"/>
<polygon fill="black" stroke="black" points="92.15,-134.7 92.22,-124.1 85.56,-132.34 92.15,-134.7"/>
<g id="a_edge15&#45;headlabel"><a xlink:href="dir_000020_000027.html" target="_top" xlink:title="25">
<text text-anchor="middle" x="93.61" y="-136.54" font-family="Helvetica,sans-Serif" font-size="10.00">25</text>
</a>
</g>
</g>
<!-- dir_3ac9928fc2e7e2cbc53db7c1a11acda2&#45;&gt;dir_6719ab1f1f7655efc2fa43f7eb574fd1 -->
<g id="edge13" class="edge">
<title>dir_3ac9928fc2e7e2cbc53db7c1a11acda2&#45;&gt;dir_6719ab1f1f7655efc2fa43f7eb574fd1</title>
<path fill="none" stroke="black" d="M104.4,-159.87C115.63,-150.16 129.08,-137.31 139,-124 153.47,-104.58 165.56,-79.82 173.55,-61.34"/>
<polygon fill="black" stroke="black" points="176.81,-62.63 177.46,-52.06 170.35,-59.92 176.81,-62.63"/>
<g id="a_edge13&#45;headlabel"><a xlink:href="dir_000020_000000.html" target="_top" xlink:title="100">
<text text-anchor="middle" x="178.03" y="-64.55" font-family="Helvetica,sans-Serif" font-size="10.00">100</text>
</a>
</g>
</g>
<!-- dir_a7363e98f9e0bdd87618633653859815&#45;&gt;dir_3ac9928fc2e7e2cbc53db7c1a11acda2 -->
<g id="edge1" class="edge">
<title>dir_a7363e98f9e0bdd87618633653859815&#45;&gt;dir_3ac9928fc2e7e2cbc53db7c1a11acda2</title>
<path fill="none" stroke="black" d="M104.01,-124.1C102.59,-131.96 100.1,-141.46 97.23,-150.23"/>
<polygon fill="black" stroke="black" points="93.92,-149.1 93.86,-159.7 100.51,-151.45 93.92,-149.1"/>
<g id="a_edge1&#45;headlabel"><a xlink:href="dir_000027_000020.html" target="_top" xlink:title="6">
<text text-anchor="middle" x="92.45" y="-142.26" font-family="Helvetica,sans-Serif" font-size="10.00">6</text>
</a>
</g>
</g>
<!-- dir_a7363e98f9e0bdd87618633653859815&#45;&gt;dir_804e9c8a6f85b64a196ad58c4618e191 -->
<g id="edge3" class="edge">
<title>dir_a7363e98f9e0bdd87618633653859815&#45;&gt;dir_804e9c8a6f85b64a196ad58c4618e191</title>
<path fill="none" stroke="black" d="M89.9,-87.7C83.61,-79.39 75.95,-69.28 69.04,-60.14"/>
<polygon fill="black" stroke="black" points="71.78,-57.96 62.95,-52.1 66.2,-62.19 71.78,-57.96"/>
<g id="a_edge3&#45;headlabel"><a xlink:href="dir_000027_000016.html" target="_top" xlink:title="2">
<text text-anchor="middle" x="76.21" y="-56.62" font-family="Helvetica,sans-Serif" font-size="10.00">2</text>
</a>
</g>
</g>
<!-- dir_a7363e98f9e0bdd87618633653859815&#45;&gt;dir_6719ab1f1f7655efc2fa43f7eb574fd1 -->
<g id="edge2" class="edge">
<title>dir_a7363e98f9e0bdd87618633653859815&#45;&gt;dir_6719ab1f1f7655efc2fa43f7eb574fd1</title>
<path fill="none" stroke="black" d="M123.02,-87.7C133.13,-78.97 145.54,-68.24 156.52,-58.75"/>
<polygon fill="black" stroke="black" points="158.93,-61.29 164.21,-52.1 154.35,-55.99 158.93,-61.29"/>
<g id="a_edge2&#45;headlabel"><a xlink:href="dir_000027_000000.html" target="_top" xlink:title="5">
<text text-anchor="middle" x="158.07" y="-63.29" font-family="Helvetica,sans-Serif" font-size="10.00">5</text>
</a>
</g>
</g>
<!-- dir_3dbe57e65c50a7a17fba27939d267647 -->
<g id="node5" class="node">
<title>dir_3dbe57e65c50a7a17fba27939d267647</title>
<g id="a_node5"><a xlink:href="dir_3dbe57e65c50a7a17fba27939d267647.html" target="_top" xlink:title="Factories">
<polygon fill="#eeeeff" stroke="black" points="111.5,-340 54.5,-340 54.5,-304 111.5,-304 111.5,-340"/>
<text text-anchor="middle" x="83" y="-319.5" font-family="Helvetica,sans-Serif" font-size="10.00">Factories</text>
</a>
</g>
</g>
<!-- dir_3dbe57e65c50a7a17fba27939d267647&#45;&gt;dir_146efcb14c269303f155f454755144b3 -->
<g id="edge7" class="edge">
<title>dir_3dbe57e65c50a7a17fba27939d267647&#45;&gt;dir_146efcb14c269303f155f454755144b3</title>
<path fill="none" stroke="black" d="M83,-303.7C83,-295.98 83,-286.71 83,-278.11"/>
<polygon fill="black" stroke="black" points="86.5,-278.1 83,-268.1 79.5,-278.1 86.5,-278.1"/>
<g id="a_edge7&#45;headlabel"><a xlink:href="dir_000017_000026.html" target="_top" xlink:title="1">
<text text-anchor="middle" x="89.34" y="-279.2" font-family="Helvetica,sans-Serif" font-size="10.00">1</text>
</a>
</g>
</g>
<!-- dir_3dbe57e65c50a7a17fba27939d267647&#45;&gt;dir_3ac9928fc2e7e2cbc53db7c1a11acda2 -->
<g id="edge8" class="edge">
<title>dir_3dbe57e65c50a7a17fba27939d267647&#45;&gt;dir_3ac9928fc2e7e2cbc53db7c1a11acda2</title>
<path fill="none" stroke="black" d="M67.39,-303.77C59.63,-294.03 51.05,-281.18 47,-268 42.3,-252.71 42.3,-247.29 47,-232 50.01,-222.22 55.51,-212.62 61.32,-204.33"/>
<polygon fill="black" stroke="black" points="64.19,-206.33 67.39,-196.23 58.59,-202.13 64.19,-206.33"/>
<g id="a_edge8&#45;headlabel"><a xlink:href="dir_000017_000020.html" target="_top" xlink:title="20">
<text text-anchor="middle" x="64.31" y="-208.41" font-family="Helvetica,sans-Serif" font-size="10.00">20</text>
</a>
</g>
</g>
<!-- dir_3dbe57e65c50a7a17fba27939d267647&#45;&gt;dir_804e9c8a6f85b64a196ad58c4618e191 -->
<g id="edge10" class="edge">
<title>dir_3dbe57e65c50a7a17fba27939d267647&#45;&gt;dir_804e9c8a6f85b64a196ad58c4618e191</title>
<path fill="none" stroke="black" d="M64.19,-303.75C55.12,-294.19 45.11,-281.52 40,-268 11.69,-193.15 24,-167.27 35,-88 36.18,-79.48 38.39,-70.39 40.75,-62.2"/>
<polygon fill="black" stroke="black" points="44.17,-62.99 43.76,-52.41 37.48,-60.94 44.17,-62.99"/>
<g id="a_edge10&#45;headlabel"><a xlink:href="dir_000017_000016.html" target="_top" xlink:title="20">
<text text-anchor="middle" x="45.83" y="-64.76" font-family="Helvetica,sans-Serif" font-size="10.00">20</text>
</a>
</g>
</g>
<!-- dir_3dbe57e65c50a7a17fba27939d267647&#45;&gt;dir_a7363e98f9e0bdd87618633653859815 -->
<g id="edge11" class="edge">
<title>dir_3dbe57e65c50a7a17fba27939d267647&#45;&gt;dir_a7363e98f9e0bdd87618633653859815</title>
<path fill="none" stroke="black" d="M98.61,-303.77C106.37,-294.03 114.95,-281.18 119,-268 133.11,-222.12 126.01,-207.49 119,-160 117.72,-151.35 115.33,-142.15 112.78,-133.89"/>
<polygon fill="black" stroke="black" points="116.1,-132.78 109.65,-124.37 109.45,-134.96 116.1,-132.78"/>
<g id="a_edge11&#45;headlabel"><a xlink:href="dir_000017_000027.html" target="_top" xlink:title="12">
<text text-anchor="middle" x="119.92" y="-132.81" font-family="Helvetica,sans-Serif" font-size="10.00">12</text>
</a>
</g>
</g>
<!-- dir_3dbe57e65c50a7a17fba27939d267647&#45;&gt;dir_6719ab1f1f7655efc2fa43f7eb574fd1 -->
<g id="edge9" class="edge">
<title>dir_3dbe57e65c50a7a17fba27939d267647&#45;&gt;dir_6719ab1f1f7655efc2fa43f7eb574fd1</title>
<path fill="none" stroke="black" d="M100.47,-303.53C109.58,-293.72 120.38,-280.88 128,-268 162.89,-209.04 170.19,-191.3 183,-124 186.88,-103.64 186.96,-80.17 186.17,-62.45"/>
<polygon fill="black" stroke="black" points="189.65,-62.02 185.59,-52.24 182.66,-62.42 189.65,-62.02"/>
<g id="a_edge9&#45;headlabel"><a xlink:href="dir_000017_000000.html" target="_top" xlink:title="28">
<text text-anchor="middle" x="192.69" y="-62.95" font-family="Helvetica,sans-Serif" font-size="10.00">28</text>
</a>
</g>
</g>
</g>
</svg>
