<?xml version="1.0" encoding="UTF-8" standalone="no"?>
<!DOCTYPE svg PUBLIC "-//W3C//DTD SVG 1.1//EN"
 "http://www.w3.org/Graphics/SVG/1.1/DTD/svg11.dtd">
<!-- Generated by graphviz version 2.44.0 ()
 -->
<!-- Title: src/Factories/EnemyPrefabFactory.hpp Pages: 1 -->
<svg width="488pt" height="263pt"
 viewBox="0.00 0.00 488.00 263.00" xmlns="http://www.w3.org/2000/svg" xmlns:xlink="http://www.w3.org/1999/xlink">
<g id="graph0" class="graph" transform="scale(1 1) rotate(0) translate(4 259)">
<title>src/Factories/EnemyPrefabFactory.hpp</title>
<!-- Node1 -->
<g id="node1" class="node">
<title>Node1</title>
<g id="a_node1"><a xlink:title=" ">
<polygon fill="#bfbfbf" stroke="black" points="209.5,-224.5 209.5,-254.5 343.5,-254.5 343.5,-224.5 209.5,-224.5"/>
<text text-anchor="start" x="217.5" y="-242.5" font-family="Helvetica,sans-Serif" font-size="10.00">src/Factories/EnemyPrefab</text>
<text text-anchor="middle" x="276.5" y="-231.5" font-family="Helvetica,sans-Serif" font-size="10.00">Factory.hpp</text>
</a>
</g>
</g>
<!-- Node2 -->
<g id="node2" class="node">
<title>Node2</title>
<g id="a_node2"><a xlink:href="GameObject_8hpp.html" target="_top" xlink:title=" ">
<polygon fill="none" stroke="black" points="276,-112.5 276,-131.5 365,-131.5 365,-112.5 276,-112.5"/>
<text text-anchor="middle" x="320.5" y="-119.5" font-family="Helvetica,sans-Serif" font-size="10.00">GameObject.hpp</text>
</a>
</g>
</g>
<!-- Node1&#45;&gt;Node2 -->
<g id="edge1" class="edge">
<title>Node1&#45;&gt;Node2</title>
<path fill="none" stroke="midnightblue" d="M284,-224.16C289.05,-214.18 295.64,-200.48 300.5,-188 306.52,-172.53 311.96,-154.44 315.64,-141.28"/>
<polygon fill="midnightblue" stroke="midnightblue" points="319.04,-142.12 318.3,-131.55 312.29,-140.28 319.04,-142.12"/>
</g>
<!-- Node9 -->
<g id="node9" class="node">
<title>Node9</title>
<g id="a_node9"><a xlink:href="Sprite_8hpp.html" target="_top" xlink:title=" ">
<polygon fill="none" stroke="black" points="114.5,-112.5 114.5,-131.5 174.5,-131.5 174.5,-112.5 114.5,-112.5"/>
<text text-anchor="middle" x="144.5" y="-119.5" font-family="Helvetica,sans-Serif" font-size="10.00">Sprite.hpp</text>
</a>
</g>
</g>
<!-- Node1&#45;&gt;Node9 -->
<g id="edge9" class="edge">
<title>Node1&#45;&gt;Node9</title>
<path fill="none" stroke="midnightblue" d="M221,-224.48C200.42,-216.77 178.48,-205.16 163.5,-188 152.28,-175.14 147.67,-155.96 145.79,-141.76"/>
<polygon fill="midnightblue" stroke="midnightblue" points="149.26,-141.27 144.79,-131.66 142.29,-141.96 149.26,-141.27"/>
</g>
<!-- Node11 -->
<g id="node11" class="node">
<title>Node11</title>
<g id="a_node11"><a xlink:href="AnimatorUtil_8hpp.html" target="_top" xlink:title=" ">
<polygon fill="none" stroke="black" points="173,-168.5 173,-187.5 292,-187.5 292,-168.5 173,-168.5"/>
<text text-anchor="middle" x="232.5" y="-175.5" font-family="Helvetica,sans-Serif" font-size="10.00">../Utils/AnimatorUtil.hpp</text>
</a>
</g>
</g>
<!-- Node1&#45;&gt;Node11 -->
<g id="edge13" class="edge">
<title>Node1&#45;&gt;Node11</title>
<path fill="none" stroke="midnightblue" d="M266.07,-224.4C259.74,-215.84 251.63,-204.87 244.97,-195.86"/>
<polygon fill="midnightblue" stroke="midnightblue" points="247.66,-193.62 238.9,-187.66 242.03,-197.78 247.66,-193.62"/>
</g>
<!-- Node12 -->
<g id="node12" class="node">
<title>Node12</title>
<g id="a_node12"><a xlink:href="EnemyName_8hpp.html" target="_top" xlink:title=" ">
<polygon fill="none" stroke="black" points="349,-168.5 349,-187.5 480,-187.5 480,-168.5 349,-168.5"/>
<text text-anchor="middle" x="414.5" y="-175.5" font-family="Helvetica,sans-Serif" font-size="10.00">../Enums/EnemyName.hpp</text>
</a>
</g>
</g>
<!-- Node1&#45;&gt;Node12 -->
<g id="edge18" class="edge">
<title>Node1&#45;&gt;Node12</title>
<path fill="none" stroke="midnightblue" d="M309.2,-224.4C332.25,-214.46 362.86,-201.26 385.13,-191.66"/>
<polygon fill="midnightblue" stroke="midnightblue" points="386.62,-194.83 394.42,-187.66 383.85,-188.4 386.62,-194.83"/>
</g>
<!-- Node3 -->
<g id="node3" class="node">
<title>Node3</title>
<g id="a_node3"><a xlink:href="Component_8hpp.html" target="_top" xlink:title=" ">
<polygon fill="none" stroke="black" points="75.5,-56.5 75.5,-75.5 159.5,-75.5 159.5,-56.5 75.5,-56.5"/>
<text text-anchor="middle" x="117.5" y="-63.5" font-family="Helvetica,sans-Serif" font-size="10.00">Component.hpp</text>
</a>
</g>
</g>
<!-- Node2&#45;&gt;Node3 -->
<g id="edge2" class="edge">
<title>Node2&#45;&gt;Node3</title>
<path fill="none" stroke="midnightblue" d="M288.33,-112.44C253.44,-103.16 197.61,-88.31 159.33,-78.13"/>
<polygon fill="midnightblue" stroke="midnightblue" points="160.08,-74.7 149.52,-75.52 158.28,-81.47 160.08,-74.7"/>
</g>
<!-- Node4 -->
<g id="node4" class="node">
<title>Node4</title>
<g id="a_node4"><a xlink:title=" ">
<polygon fill="none" stroke="#bfbfbf" points="222,-0.5 222,-19.5 273,-19.5 273,-0.5 222,-0.5"/>
<text text-anchor="middle" x="247.5" y="-7.5" font-family="Helvetica,sans-Serif" font-size="10.00">memory</text>
</a>
</g>
</g>
<!-- Node2&#45;&gt;Node4 -->
<g id="edge8" class="edge">
<title>Node2&#45;&gt;Node4</title>
<path fill="none" stroke="midnightblue" d="M314.77,-112.37C302.72,-94.22 274.58,-51.8 258.78,-27.99"/>
<polygon fill="midnightblue" stroke="midnightblue" points="261.65,-25.99 253.2,-19.59 255.81,-29.86 261.65,-25.99"/>
</g>
<!-- Node5 -->
<g id="node5" class="node">
<title>Node5</title>
<g id="a_node5"><a xlink:href="Transform_8hpp.html" target="_top" xlink:title=" ">
<polygon fill="none" stroke="black" points="314,-56.5 314,-75.5 393,-75.5 393,-56.5 314,-56.5"/>
<text text-anchor="middle" x="353.5" y="-63.5" font-family="Helvetica,sans-Serif" font-size="10.00">Transform.hpp</text>
</a>
</g>
</g>
<!-- Node2&#45;&gt;Node5 -->
<g id="edge4" class="edge">
<title>Node2&#45;&gt;Node5</title>
<path fill="none" stroke="midnightblue" d="M325.95,-112.08C330.51,-104.61 337.17,-93.72 342.79,-84.52"/>
<polygon fill="midnightblue" stroke="midnightblue" points="345.92,-86.11 348.15,-75.75 339.95,-82.46 345.92,-86.11"/>
</g>
<!-- Node7 -->
<g id="node7" class="node">
<title>Node7</title>
<g id="a_node7"><a xlink:title=" ">
<polygon fill="none" stroke="#bfbfbf" points="178,-56.5 178,-75.5 219,-75.5 219,-56.5 178,-56.5"/>
<text text-anchor="middle" x="198.5" y="-63.5" font-family="Helvetica,sans-Serif" font-size="10.00">string</text>
</a>
</g>
</g>
<!-- Node2&#45;&gt;Node7 -->
<g id="edge6" class="edge">
<title>Node2&#45;&gt;Node7</title>
<path fill="none" stroke="midnightblue" d="M301.17,-112.44C281.18,-103.6 249.76,-89.69 226.94,-79.59"/>
<polygon fill="midnightblue" stroke="midnightblue" points="228.3,-76.36 217.74,-75.52 225.47,-82.76 228.3,-76.36"/>
</g>
<!-- Node8 -->
<g id="node8" class="node">
<title>Node8</title>
<g id="a_node8"><a xlink:title=" ">
<polygon fill="none" stroke="#bfbfbf" points="410.5,-56.5 410.5,-75.5 454.5,-75.5 454.5,-56.5 410.5,-56.5"/>
<text text-anchor="middle" x="432.5" y="-63.5" font-family="Helvetica,sans-Serif" font-size="10.00">vector</text>
</a>
</g>
</g>
<!-- Node2&#45;&gt;Node8 -->
<g id="edge7" class="edge">
<title>Node2&#45;&gt;Node8</title>
<path fill="none" stroke="midnightblue" d="M338.49,-112.32C356.54,-103.62 384.55,-90.12 405.3,-80.11"/>
<polygon fill="midnightblue" stroke="midnightblue" points="407.06,-83.15 414.55,-75.65 404.02,-76.84 407.06,-83.15"/>
</g>
<!-- Node3&#45;&gt;Node4 -->
<g id="edge3" class="edge">
<title>Node3&#45;&gt;Node4</title>
<path fill="none" stroke="midnightblue" d="M138.1,-56.44C159.49,-47.56 193.18,-33.56 217.52,-23.45"/>
<polygon fill="midnightblue" stroke="midnightblue" points="219.11,-26.58 227,-19.52 216.42,-20.12 219.11,-26.58"/>
</g>
<!-- Node6 -->
<g id="node6" class="node">
<title>Node6</title>
<g id="a_node6"><a xlink:href="Point_8hpp.html" target="_top" xlink:title=" ">
<polygon fill="none" stroke="black" points="325,-0.5 325,-19.5 382,-19.5 382,-0.5 325,-0.5"/>
<text text-anchor="middle" x="353.5" y="-7.5" font-family="Helvetica,sans-Serif" font-size="10.00">Point.hpp</text>
</a>
</g>
</g>
<!-- Node5&#45;&gt;Node6 -->
<g id="edge5" class="edge">
<title>Node5&#45;&gt;Node6</title>
<path fill="none" stroke="midnightblue" d="M353.5,-56.08C353.5,-49.01 353.5,-38.86 353.5,-29.99"/>
<polygon fill="midnightblue" stroke="midnightblue" points="357,-29.75 353.5,-19.75 350,-29.75 357,-29.75"/>
</g>
<!-- Node9&#45;&gt;Node3 -->
<g id="edge10" class="edge">
<title>Node9&#45;&gt;Node3</title>
<path fill="none" stroke="midnightblue" d="M140.04,-112.08C136.35,-104.69 130.98,-93.95 126.41,-84.81"/>
<polygon fill="midnightblue" stroke="midnightblue" points="129.48,-83.13 121.88,-75.75 123.22,-86.26 129.48,-83.13"/>
</g>
<!-- Node9&#45;&gt;Node7 -->
<g id="edge12" class="edge">
<title>Node9&#45;&gt;Node7</title>
<path fill="none" stroke="midnightblue" d="M153.42,-112.08C161.28,-104.22 172.93,-92.57 182.42,-83.08"/>
<polygon fill="midnightblue" stroke="midnightblue" points="185.15,-85.3 189.75,-75.75 180.2,-80.35 185.15,-85.3"/>
</g>
<!-- Node10 -->
<g id="node10" class="node">
<title>Node10</title>
<g id="a_node10"><a xlink:href="Color_8hpp.html" target="_top" xlink:title=" ">
<polygon fill="none" stroke="black" points="0,-56.5 0,-75.5 57,-75.5 57,-56.5 0,-56.5"/>
<text text-anchor="middle" x="28.5" y="-63.5" font-family="Helvetica,sans-Serif" font-size="10.00">Color.hpp</text>
</a>
</g>
</g>
<!-- Node9&#45;&gt;Node10 -->
<g id="edge11" class="edge">
<title>Node9&#45;&gt;Node10</title>
<path fill="none" stroke="midnightblue" d="M126.12,-112.44C107.28,-103.68 77.77,-89.94 56.12,-79.86"/>
<polygon fill="midnightblue" stroke="midnightblue" points="57.34,-76.56 46.79,-75.52 54.38,-82.91 57.34,-76.56"/>
</g>
<!-- Node11&#45;&gt;Node4 -->
<g id="edge15" class="edge">
<title>Node11&#45;&gt;Node4</title>
<path fill="none" stroke="midnightblue" d="M233.31,-168.08C235.67,-141.95 242.6,-65.21 245.82,-29.58"/>
<polygon fill="midnightblue" stroke="midnightblue" points="249.31,-29.84 246.73,-19.57 242.34,-29.21 249.31,-29.84"/>
</g>
<!-- Node11&#45;&gt;Node7 -->
<g id="edge16" class="edge">
<title>Node11&#45;&gt;Node7</title>
<path fill="none" stroke="midnightblue" d="M229.83,-168.37C224.32,-150.54 211.57,-109.3 204.15,-85.27"/>
<polygon fill="midnightblue" stroke="midnightblue" points="207.45,-84.11 201.16,-75.59 200.76,-86.18 207.45,-84.11"/>
</g>
<!-- Node11&#45;&gt;Node8 -->
<g id="edge17" class="edge">
<title>Node11&#45;&gt;Node8</title>
<path fill="none" stroke="midnightblue" d="M279.61,-168.46C308.37,-161.73 344.97,-150.34 373.5,-132 393.03,-119.44 410.22,-98.81 420.93,-84.16"/>
<polygon fill="midnightblue" stroke="midnightblue" points="423.82,-86.12 426.72,-75.93 418.1,-82.09 423.82,-86.12"/>
</g>
<!-- Node11&#45;&gt;Node9 -->
<g id="edge14" class="edge">
<title>Node11&#45;&gt;Node9</title>
<path fill="none" stroke="midnightblue" d="M218.36,-168.32C204.63,-159.9 183.56,-146.97 167.44,-137.07"/>
<polygon fill="midnightblue" stroke="midnightblue" points="168.96,-133.9 158.6,-131.65 165.3,-139.87 168.96,-133.9"/>
</g>
</g>
</svg>
