<?xml version="1.0" encoding="UTF-8" standalone="no"?>
<!DOCTYPE svg PUBLIC "-//W3C//DTD SVG 1.1//EN"
 "http://www.w3.org/Graphics/SVG/1.1/DTD/svg11.dtd">
<!-- Generated by graphviz version 2.44.0 ()
 -->
<!-- Title: src/Scripts/Enemies/EnemyMovementBehaviour.cpp Pages: 1 -->
<svg width="1588pt" height="431pt"
 viewBox="0.00 0.00 1588.00 431.00" xmlns="http://www.w3.org/2000/svg" xmlns:xlink="http://www.w3.org/1999/xlink">
<g id="graph0" class="graph" transform="scale(1 1) rotate(0) translate(4 427)">
<title>src/Scripts/Enemies/EnemyMovementBehaviour.cpp</title>
<!-- Node1 -->
<g id="node1" class="node">
<title>Node1</title>
<g id="a_node1"><a xlink:title=" ">
<polygon fill="#bfbfbf" stroke="black" points="1167,-392.5 1167,-422.5 1323,-422.5 1323,-392.5 1167,-392.5"/>
<text text-anchor="start" x="1175" y="-410.5" font-family="Helvetica,sans-Serif" font-size="10.00">src/Scripts/Enemies</text>
<text text-anchor="middle" x="1245" y="-399.5" font-family="Helvetica,sans-Serif" font-size="10.00">/EnemyMovementBehaviour.cpp</text>
</a>
</g>
</g>
<!-- Node2 -->
<g id="node2" class="node">
<title>Node2</title>
<g id="a_node2"><a xlink:href="EnemyMovementBehaviour_8hpp.html" target="_top" xlink:title=" ">
<polygon fill="none" stroke="black" points="1202.5,-280.5 1202.5,-299.5 1355.5,-299.5 1355.5,-280.5 1202.5,-280.5"/>
<text text-anchor="middle" x="1279" y="-287.5" font-family="Helvetica,sans-Serif" font-size="10.00">EnemyMovementBehaviour.hpp</text>
</a>
</g>
</g>
<!-- Node1&#45;&gt;Node2 -->
<g id="edge1" class="edge">
<title>Node1&#45;&gt;Node2</title>
<path fill="none" stroke="midnightblue" d="M1248.54,-392.39C1252.19,-378.1 1258.15,-355.42 1264,-336 1266.67,-327.12 1269.9,-317.34 1272.67,-309.17"/>
<polygon fill="midnightblue" stroke="midnightblue" points="1276.03,-310.17 1275.97,-299.58 1269.41,-307.9 1276.03,-310.17"/>
</g>
<!-- Node6 -->
<g id="node6" class="node">
<title>Node6</title>
<g id="a_node6"><a xlink:href="GameObject_8hpp.html" target="_top" xlink:title=" ">
<polygon fill="none" stroke="black" points="870.5,-168.5 870.5,-187.5 959.5,-187.5 959.5,-168.5 870.5,-168.5"/>
<text text-anchor="middle" x="915" y="-175.5" font-family="Helvetica,sans-Serif" font-size="10.00">GameObject.hpp</text>
</a>
</g>
</g>
<!-- Node1&#45;&gt;Node6 -->
<g id="edge75" class="edge">
<title>Node1&#45;&gt;Node6</title>
<path fill="none" stroke="midnightblue" d="M1233.03,-392.13C1211.56,-367 1164.23,-314.48 1116,-280 1100.59,-268.99 993.11,-216.66 941.95,-191.97"/>
<polygon fill="midnightblue" stroke="midnightblue" points="943.33,-188.74 932.8,-187.55 940.29,-195.05 943.33,-188.74"/>
</g>
<!-- Node21 -->
<g id="node21" class="node">
<title>Node21</title>
<g id="a_node21"><a xlink:href="LevelController_8hpp.html" target="_top" xlink:title=" ">
<polygon fill="none" stroke="black" points="440,-336.5 440,-355.5 604,-355.5 604,-336.5 440,-336.5"/>
<text text-anchor="middle" x="522" y="-343.5" font-family="Helvetica,sans-Serif" font-size="10.00">../../Controllers/LevelController.hpp</text>
</a>
</g>
</g>
<!-- Node1&#45;&gt;Node21 -->
<g id="edge37" class="edge">
<title>Node1&#45;&gt;Node21</title>
<path fill="none" stroke="midnightblue" d="M1166.94,-400.08C1032.51,-389.01 757.93,-366.42 614.27,-354.59"/>
<polygon fill="midnightblue" stroke="midnightblue" points="614.41,-351.09 604.16,-353.76 613.84,-358.07 614.41,-351.09"/>
</g>
<!-- Node33 -->
<g id="node33" class="node">
<title>Node33</title>
<g id="a_node33"><a xlink:href="StringUtil_8hpp.html" target="_top" xlink:title=" ">
<polygon fill="none" stroke="black" points="28.5,-168.5 28.5,-187.5 141.5,-187.5 141.5,-168.5 28.5,-168.5"/>
<text text-anchor="middle" x="85" y="-175.5" font-family="Helvetica,sans-Serif" font-size="10.00">../../Utils/StringUtil.hpp</text>
</a>
</g>
</g>
<!-- Node1&#45;&gt;Node33 -->
<g id="edge68" class="edge">
<title>Node1&#45;&gt;Node33</title>
<path fill="none" stroke="midnightblue" d="M1166.93,-405.26C1021.53,-402.15 699.63,-391.51 431,-356 307.35,-339.65 257.48,-372.53 156,-300 120.12,-274.36 99.48,-224.46 90.47,-197.45"/>
<polygon fill="midnightblue" stroke="midnightblue" points="93.74,-196.19 87.4,-187.71 87.07,-198.3 93.74,-196.19"/>
</g>
<!-- Node34 -->
<g id="node34" class="node">
<title>Node34</title>
<g id="a_node34"><a xlink:href="PointUtil_8hpp.html" target="_top" xlink:title=" ">
<polygon fill="none" stroke="black" points="1385,-336.5 1385,-355.5 1495,-355.5 1495,-336.5 1385,-336.5"/>
<text text-anchor="middle" x="1440" y="-343.5" font-family="Helvetica,sans-Serif" font-size="10.00">../../Utils/PointUtil.hpp</text>
</a>
</g>
</g>
<!-- Node1&#45;&gt;Node34 -->
<g id="edge71" class="edge">
<title>Node1&#45;&gt;Node34</title>
<path fill="none" stroke="midnightblue" d="M1291.21,-392.4C1325.05,-382.07 1370.42,-368.23 1402.13,-358.56"/>
<polygon fill="midnightblue" stroke="midnightblue" points="1403.37,-361.84 1411.91,-355.57 1401.32,-355.14 1403.37,-361.84"/>
</g>
<!-- Node35 -->
<g id="node35" class="node">
<title>Node35</title>
<g id="a_node35"><a xlink:href="Constants_8hpp.html" target="_top" xlink:title=" ">
<polygon fill="none" stroke="black" points="1273,-336.5 1273,-355.5 1367,-355.5 1367,-336.5 1273,-336.5"/>
<text text-anchor="middle" x="1320" y="-343.5" font-family="Helvetica,sans-Serif" font-size="10.00">../../Constants.hpp</text>
</a>
</g>
</g>
<!-- Node1&#45;&gt;Node35 -->
<g id="edge73" class="edge">
<title>Node1&#45;&gt;Node35</title>
<path fill="none" stroke="midnightblue" d="M1262.77,-392.4C1274.35,-383.22 1289.42,-371.26 1301.2,-361.92"/>
<polygon fill="midnightblue" stroke="midnightblue" points="1303.43,-364.61 1309.09,-355.66 1299.08,-359.13 1303.43,-364.61"/>
</g>
<!-- Node36 -->
<g id="node36" class="node">
<title>Node36</title>
<g id="a_node36"><a xlink:title=" ">
<polygon fill="none" stroke="#bfbfbf" points="1513.5,-336.5 1513.5,-355.5 1572.5,-355.5 1572.5,-336.5 1513.5,-336.5"/>
<text text-anchor="middle" x="1543" y="-343.5" font-family="Helvetica,sans-Serif" font-size="10.00">stdexcept</text>
</a>
</g>
</g>
<!-- Node1&#45;&gt;Node36 -->
<g id="edge76" class="edge">
<title>Node1&#45;&gt;Node36</title>
<path fill="none" stroke="midnightblue" d="M1320.51,-392.48C1369.82,-383.17 1435.85,-370.38 1503.26,-356.1"/>
<polygon fill="midnightblue" stroke="midnightblue" points="1504.16,-359.49 1513.21,-353.98 1502.7,-352.64 1504.16,-359.49"/>
</g>
<!-- Node3 -->
<g id="node3" class="node">
<title>Node3</title>
<g id="a_node3"><a xlink:href="MapNode_8hpp.html" target="_top" xlink:title=" ">
<polygon fill="none" stroke="black" points="574,-224.5 574,-243.5 700,-243.5 700,-224.5 574,-224.5"/>
<text text-anchor="middle" x="637" y="-231.5" font-family="Helvetica,sans-Serif" font-size="10.00">../../Structs/MapNode.hpp</text>
</a>
</g>
</g>
<!-- Node2&#45;&gt;Node3 -->
<g id="edge2" class="edge">
<title>Node2&#45;&gt;Node3</title>
<path fill="none" stroke="midnightblue" d="M1202.16,-283.78C1093.38,-276.19 888.31,-261.12 714,-244 712.72,-243.87 711.43,-243.75 710.12,-243.61"/>
<polygon fill="midnightblue" stroke="midnightblue" points="710.32,-240.12 700.01,-242.56 709.59,-247.08 710.32,-240.12"/>
</g>
<!-- Node10 -->
<g id="node10" class="node">
<title>Node10</title>
<g id="a_node10"><a xlink:title=" ">
<polygon fill="none" stroke="#bfbfbf" points="528.5,-56.5 528.5,-75.5 569.5,-75.5 569.5,-56.5 528.5,-56.5"/>
<text text-anchor="middle" x="549" y="-63.5" font-family="Helvetica,sans-Serif" font-size="10.00">string</text>
</a>
</g>
</g>
<!-- Node2&#45;&gt;Node10 -->
<g id="edge34" class="edge">
<title>Node2&#45;&gt;Node10</title>
<path fill="none" stroke="midnightblue" d="M1202.48,-283.81C1060.24,-273.99 767.56,-252.86 747,-244 662.69,-207.66 589.74,-120.76 561.49,-83.95"/>
<polygon fill="midnightblue" stroke="midnightblue" points="564.11,-81.6 555.29,-75.73 558.52,-85.82 564.11,-81.6"/>
</g>
<!-- Node12 -->
<g id="node12" class="node">
<title>Node12</title>
<g id="a_node12"><a xlink:href="HealthBehaviour_8hpp.html" target="_top" xlink:title=" ">
<polygon fill="none" stroke="black" points="1098,-224.5 1098,-243.5 1254,-243.5 1254,-224.5 1098,-224.5"/>
<text text-anchor="middle" x="1176" y="-231.5" font-family="Helvetica,sans-Serif" font-size="10.00">../Common/HealthBehaviour.hpp</text>
</a>
</g>
</g>
<!-- Node2&#45;&gt;Node12 -->
<g id="edge14" class="edge">
<title>Node2&#45;&gt;Node12</title>
<path fill="none" stroke="midnightblue" d="M1262.45,-280.32C1246.01,-271.7 1220.57,-258.36 1201.53,-248.39"/>
<polygon fill="midnightblue" stroke="midnightblue" points="1202.99,-245.2 1192.51,-243.65 1199.74,-251.4 1202.99,-245.2"/>
</g>
<!-- Node13 -->
<g id="node13" class="node">
<title>Node13</title>
<g id="a_node13"><a xlink:href="BehaviourScript_8hpp.html" target="_top" xlink:title=" ">
<polygon fill="none" stroke="black" points="1093,-168.5 1093,-187.5 1197,-187.5 1197,-168.5 1093,-168.5"/>
<text text-anchor="middle" x="1145" y="-175.5" font-family="Helvetica,sans-Serif" font-size="10.00">BehaviourScript.hpp</text>
</a>
</g>
</g>
<!-- Node2&#45;&gt;Node13 -->
<g id="edge29" class="edge">
<title>Node2&#45;&gt;Node13</title>
<path fill="none" stroke="midnightblue" d="M1285.62,-280.11C1294.74,-266.69 1308.69,-241.02 1296,-224 1284.9,-209.12 1243.12,-197.36 1206.32,-189.61"/>
<polygon fill="midnightblue" stroke="midnightblue" points="1206.59,-186.09 1196.1,-187.53 1205.2,-192.95 1206.59,-186.09"/>
</g>
<!-- Node15 -->
<g id="node15" class="node">
<title>Node15</title>
<g id="a_node15"><a xlink:href="Animator_8hpp.html" target="_top" xlink:title=" ">
<polygon fill="none" stroke="black" points="1215,-168.5 1215,-187.5 1289,-187.5 1289,-168.5 1215,-168.5"/>
<text text-anchor="middle" x="1252" y="-175.5" font-family="Helvetica,sans-Serif" font-size="10.00">Animator.hpp</text>
</a>
</g>
</g>
<!-- Node2&#45;&gt;Node15 -->
<g id="edge28" class="edge">
<title>Node2&#45;&gt;Node15</title>
<path fill="none" stroke="midnightblue" d="M1295.64,-280.48C1316.29,-268.72 1347.25,-246.39 1334,-224 1325.03,-208.84 1308.93,-198.45 1293.37,-191.5"/>
<polygon fill="midnightblue" stroke="midnightblue" points="1294.39,-188.14 1283.81,-187.62 1291.75,-194.63 1294.39,-188.14"/>
</g>
<!-- Node16 -->
<g id="node16" class="node">
<title>Node16</title>
<g id="a_node16"><a xlink:href="Sprite_8hpp.html" target="_top" xlink:title=" ">
<polygon fill="none" stroke="black" points="1222,-112.5 1222,-131.5 1282,-131.5 1282,-112.5 1222,-112.5"/>
<text text-anchor="middle" x="1252" y="-119.5" font-family="Helvetica,sans-Serif" font-size="10.00">Sprite.hpp</text>
</a>
</g>
</g>
<!-- Node2&#45;&gt;Node16 -->
<g id="edge33" class="edge">
<title>Node2&#45;&gt;Node16</title>
<path fill="none" stroke="midnightblue" d="M1304.16,-280.38C1320.42,-273.34 1340.29,-261.65 1350,-244 1354.28,-236.21 1353.25,-232.27 1350,-224 1335.11,-186.09 1298.06,-154.72 1274.02,-137.46"/>
<polygon fill="midnightblue" stroke="midnightblue" points="1275.72,-134.38 1265.52,-131.54 1271.73,-140.13 1275.72,-134.38"/>
</g>
<!-- Node18 -->
<g id="node18" class="node">
<title>Node18</title>
<g id="a_node18"><a xlink:href="RigidBody_8hpp.html" target="_top" xlink:title=" ">
<polygon fill="none" stroke="black" points="1338,-112.5 1338,-131.5 1416,-131.5 1416,-112.5 1338,-112.5"/>
<text text-anchor="middle" x="1377" y="-119.5" font-family="Helvetica,sans-Serif" font-size="10.00">RigidBody.hpp</text>
</a>
</g>
</g>
<!-- Node2&#45;&gt;Node18 -->
<g id="edge30" class="edge">
<title>Node2&#45;&gt;Node18</title>
<path fill="none" stroke="midnightblue" d="M1312.51,-280.36C1331.42,-273.66 1353.66,-262.34 1366,-244 1386.82,-213.04 1384.12,-167.08 1380.46,-141.65"/>
<polygon fill="midnightblue" stroke="midnightblue" points="1383.87,-140.83 1378.8,-131.53 1376.97,-141.97 1383.87,-140.83"/>
</g>
<!-- Node19 -->
<g id="node19" class="node">
<title>Node19</title>
<g id="a_node19"><a xlink:title=" ">
<polygon fill="none" stroke="#bfbfbf" points="528.5,-168.5 528.5,-187.5 563.5,-187.5 563.5,-168.5 528.5,-168.5"/>
<text text-anchor="middle" x="546" y="-175.5" font-family="Helvetica,sans-Serif" font-size="10.00">map</text>
</a>
</g>
</g>
<!-- Node2&#45;&gt;Node19 -->
<g id="edge35" class="edge">
<title>Node2&#45;&gt;Node19</title>
<path fill="none" stroke="midnightblue" d="M1202.35,-284.74C1019.26,-274.49 571.17,-248.94 565,-244 551.39,-233.11 547.17,-213.05 546.03,-198.08"/>
<polygon fill="midnightblue" stroke="midnightblue" points="549.52,-197.72 545.65,-187.86 542.53,-197.98 549.52,-197.72"/>
</g>
<!-- Node20 -->
<g id="node20" class="node">
<title>Node20</title>
<g id="a_node20"><a xlink:title=" ">
<polygon fill="none" stroke="#bfbfbf" points="977.5,-168.5 977.5,-187.5 1020.5,-187.5 1020.5,-168.5 977.5,-168.5"/>
<text text-anchor="middle" x="999" y="-175.5" font-family="Helvetica,sans-Serif" font-size="10.00">queue</text>
</a>
</g>
</g>
<!-- Node2&#45;&gt;Node20 -->
<g id="edge36" class="edge">
<title>Node2&#45;&gt;Node20</title>
<path fill="none" stroke="midnightblue" d="M1215.79,-280.43C1177.82,-273.74 1129.23,-262.4 1089,-244 1060.98,-231.18 1032.87,-209.03 1015.7,-194.2"/>
<polygon fill="midnightblue" stroke="midnightblue" points="1018.01,-191.57 1008.19,-187.58 1013.38,-196.82 1018.01,-191.57"/>
</g>
<!-- Node4 -->
<g id="node4" class="node">
<title>Node4</title>
<g id="a_node4"><a xlink:title=" ">
<polygon fill="none" stroke="#bfbfbf" points="485,-112.5 485,-131.5 529,-131.5 529,-112.5 485,-112.5"/>
<text text-anchor="middle" x="507" y="-119.5" font-family="Helvetica,sans-Serif" font-size="10.00">vector</text>
</a>
</g>
</g>
<!-- Node3&#45;&gt;Node4 -->
<g id="edge3" class="edge">
<title>Node3&#45;&gt;Node4</title>
<path fill="none" stroke="midnightblue" d="M629.05,-224.08C617.23,-211.06 594.05,-186.41 572,-168 558.6,-156.82 542.48,-145.64 529.64,-137.23"/>
<polygon fill="midnightblue" stroke="midnightblue" points="531.26,-134.11 520.96,-131.63 527.47,-139.99 531.26,-134.11"/>
</g>
<!-- Node5 -->
<g id="node5" class="node">
<title>Node5</title>
<g id="a_node5"><a xlink:title=" ">
<polygon fill="none" stroke="#bfbfbf" points="889.5,-0.5 889.5,-19.5 940.5,-19.5 940.5,-0.5 889.5,-0.5"/>
<text text-anchor="middle" x="915" y="-7.5" font-family="Helvetica,sans-Serif" font-size="10.00">memory</text>
</a>
</g>
</g>
<!-- Node3&#45;&gt;Node5 -->
<g id="edge4" class="edge">
<title>Node3&#45;&gt;Node5</title>
<path fill="none" stroke="midnightblue" d="M647.9,-224.3C690.02,-190.66 842.52,-68.88 896.17,-26.03"/>
<polygon fill="midnightblue" stroke="midnightblue" points="898.55,-28.62 904.18,-19.64 894.18,-23.15 898.55,-28.62"/>
</g>
<!-- Node3&#45;&gt;Node6 -->
<g id="edge5" class="edge">
<title>Node3&#45;&gt;Node6</title>
<path fill="none" stroke="midnightblue" d="M681.05,-224.44C729.85,-214.96 808.56,-199.67 861.03,-189.48"/>
<polygon fill="midnightblue" stroke="midnightblue" points="862.01,-192.86 871.16,-187.52 860.67,-185.99 862.01,-192.86"/>
</g>
<!-- Node11 -->
<g id="node11" class="node">
<title>Node11</title>
<g id="a_node11"><a xlink:href="TileType_8hpp.html" target="_top" xlink:title=" ">
<polygon fill="none" stroke="black" points="398,-168.5 398,-187.5 510,-187.5 510,-168.5 398,-168.5"/>
<text text-anchor="middle" x="454" y="-175.5" font-family="Helvetica,sans-Serif" font-size="10.00">../Enums/TileType.hpp</text>
</a>
</g>
</g>
<!-- Node3&#45;&gt;Node11 -->
<g id="edge13" class="edge">
<title>Node3&#45;&gt;Node11</title>
<path fill="none" stroke="midnightblue" d="M608,-224.44C576.82,-215.24 527.07,-200.56 492.59,-190.39"/>
<polygon fill="midnightblue" stroke="midnightblue" points="493.44,-186.99 482.86,-187.52 491.46,-193.7 493.44,-186.99"/>
</g>
<!-- Node6&#45;&gt;Node4 -->
<g id="edge11" class="edge">
<title>Node6&#45;&gt;Node4</title>
<path fill="none" stroke="midnightblue" d="M870.17,-171.07C787.28,-160.1 611.89,-136.88 539.4,-127.29"/>
<polygon fill="midnightblue" stroke="midnightblue" points="539.45,-123.76 529.08,-125.92 538.53,-130.7 539.45,-123.76"/>
</g>
<!-- Node6&#45;&gt;Node5 -->
<g id="edge12" class="edge">
<title>Node6&#45;&gt;Node5</title>
<path fill="none" stroke="midnightblue" d="M915,-168.08C915,-141.95 915,-65.21 915,-29.58"/>
<polygon fill="midnightblue" stroke="midnightblue" points="918.5,-29.57 915,-19.57 911.5,-29.57 918.5,-29.57"/>
</g>
<!-- Node7 -->
<g id="node7" class="node">
<title>Node7</title>
<g id="a_node7"><a xlink:href="Component_8hpp.html" target="_top" xlink:title=" ">
<polygon fill="none" stroke="black" points="1090,-56.5 1090,-75.5 1174,-75.5 1174,-56.5 1090,-56.5"/>
<text text-anchor="middle" x="1132" y="-63.5" font-family="Helvetica,sans-Serif" font-size="10.00">Component.hpp</text>
</a>
</g>
</g>
<!-- Node6&#45;&gt;Node7 -->
<g id="edge6" class="edge">
<title>Node6&#45;&gt;Node7</title>
<path fill="none" stroke="midnightblue" d="M932.03,-168.37C969.82,-149.21 1060.91,-103.04 1105.93,-80.22"/>
<polygon fill="midnightblue" stroke="midnightblue" points="1107.71,-83.23 1115.05,-75.59 1104.55,-76.99 1107.71,-83.23"/>
</g>
<!-- Node8 -->
<g id="node8" class="node">
<title>Node8</title>
<g id="a_node8"><a xlink:href="Transform_8hpp.html" target="_top" xlink:title=" ">
<polygon fill="none" stroke="black" points="1434.5,-112.5 1434.5,-131.5 1513.5,-131.5 1513.5,-112.5 1434.5,-112.5"/>
<text text-anchor="middle" x="1474" y="-119.5" font-family="Helvetica,sans-Serif" font-size="10.00">Transform.hpp</text>
</a>
</g>
</g>
<!-- Node6&#45;&gt;Node8 -->
<g id="edge8" class="edge">
<title>Node6&#45;&gt;Node8</title>
<path fill="none" stroke="midnightblue" d="M959.78,-169.11C962.56,-168.71 965.31,-168.33 968,-168 1166.93,-143.32 1221.24,-157.95 1424.37,-131.93"/>
<polygon fill="midnightblue" stroke="midnightblue" points="1425.01,-135.38 1434.47,-130.62 1424.11,-128.44 1425.01,-135.38"/>
</g>
<!-- Node6&#45;&gt;Node10 -->
<g id="edge10" class="edge">
<title>Node6&#45;&gt;Node10</title>
<path fill="none" stroke="midnightblue" d="M894.79,-168.42C862.8,-155.07 798.35,-129.07 742,-112 685.42,-94.85 617.83,-80.45 579.51,-72.83"/>
<polygon fill="midnightblue" stroke="midnightblue" points="580,-69.36 569.52,-70.87 578.65,-76.23 580,-69.36"/>
</g>
<!-- Node7&#45;&gt;Node5 -->
<g id="edge7" class="edge">
<title>Node7&#45;&gt;Node5</title>
<path fill="none" stroke="midnightblue" d="M1097.62,-56.44C1057.4,-46.44 991.17,-29.96 950.49,-19.83"/>
<polygon fill="midnightblue" stroke="midnightblue" points="951.28,-16.42 940.73,-17.4 949.59,-23.21 951.28,-16.42"/>
</g>
<!-- Node9 -->
<g id="node9" class="node">
<title>Node9</title>
<g id="a_node9"><a xlink:href="Point_8hpp.html" target="_top" xlink:title=" ">
<polygon fill="none" stroke="black" points="1445.5,-56.5 1445.5,-75.5 1502.5,-75.5 1502.5,-56.5 1445.5,-56.5"/>
<text text-anchor="middle" x="1474" y="-63.5" font-family="Helvetica,sans-Serif" font-size="10.00">Point.hpp</text>
</a>
</g>
</g>
<!-- Node8&#45;&gt;Node9 -->
<g id="edge9" class="edge">
<title>Node8&#45;&gt;Node9</title>
<path fill="none" stroke="midnightblue" d="M1474,-112.08C1474,-105.01 1474,-94.86 1474,-85.99"/>
<polygon fill="midnightblue" stroke="midnightblue" points="1477.5,-85.75 1474,-75.75 1470.5,-85.75 1477.5,-85.75"/>
</g>
<!-- Node12&#45;&gt;Node5 -->
<g id="edge19" class="edge">
<title>Node12&#45;&gt;Node5</title>
<path fill="none" stroke="midnightblue" d="M1152.81,-224.34C1133.41,-216.49 1105.52,-203.75 1084,-188 1016.96,-138.94 953.74,-61.57 927.61,-27.75"/>
<polygon fill="midnightblue" stroke="midnightblue" points="930.37,-25.6 921.52,-19.78 924.81,-29.85 930.37,-25.6"/>
</g>
<!-- Node12&#45;&gt;Node13 -->
<g id="edge15" class="edge">
<title>Node12&#45;&gt;Node13</title>
<path fill="none" stroke="midnightblue" d="M1170.88,-224.08C1166.59,-216.61 1160.34,-205.72 1155.06,-196.52"/>
<polygon fill="midnightblue" stroke="midnightblue" points="1158.04,-194.68 1150.02,-187.75 1151.97,-198.17 1158.04,-194.68"/>
</g>
<!-- Node12&#45;&gt;Node15 -->
<g id="edge20" class="edge">
<title>Node12&#45;&gt;Node15</title>
<path fill="none" stroke="midnightblue" d="M1188.21,-224.32C1199.78,-216.11 1217.38,-203.6 1231.16,-193.81"/>
<polygon fill="midnightblue" stroke="midnightblue" points="1233.44,-196.48 1239.57,-187.83 1229.39,-190.77 1233.44,-196.48"/>
</g>
<!-- Node13&#45;&gt;Node7 -->
<g id="edge16" class="edge">
<title>Node13&#45;&gt;Node7</title>
<path fill="none" stroke="midnightblue" d="M1127.5,-168.46C1114.21,-160.92 1096.92,-148.53 1089,-132 1080.27,-113.78 1096.36,-94.7 1111.28,-81.96"/>
<polygon fill="midnightblue" stroke="midnightblue" points="1113.65,-84.55 1119.29,-75.58 1109.28,-79.07 1113.65,-84.55"/>
</g>
<!-- Node14 -->
<g id="node14" class="node">
<title>Node14</title>
<g id="a_node14"><a xlink:href="Collider_8hpp.html" target="_top" xlink:title=" ">
<polygon fill="none" stroke="black" points="1098.5,-112.5 1098.5,-131.5 1165.5,-131.5 1165.5,-112.5 1098.5,-112.5"/>
<text text-anchor="middle" x="1132" y="-119.5" font-family="Helvetica,sans-Serif" font-size="10.00">Collider.hpp</text>
</a>
</g>
</g>
<!-- Node13&#45;&gt;Node14 -->
<g id="edge17" class="edge">
<title>Node13&#45;&gt;Node14</title>
<path fill="none" stroke="midnightblue" d="M1142.85,-168.08C1141.13,-160.93 1138.65,-150.64 1136.5,-141.69"/>
<polygon fill="midnightblue" stroke="midnightblue" points="1139.85,-140.65 1134.11,-131.75 1133.04,-142.29 1139.85,-140.65"/>
</g>
<!-- Node14&#45;&gt;Node7 -->
<g id="edge18" class="edge">
<title>Node14&#45;&gt;Node7</title>
<path fill="none" stroke="midnightblue" d="M1132,-112.08C1132,-105.01 1132,-94.86 1132,-85.99"/>
<polygon fill="midnightblue" stroke="midnightblue" points="1135.5,-85.75 1132,-75.75 1128.5,-85.75 1135.5,-85.75"/>
</g>
<!-- Node15&#45;&gt;Node4 -->
<g id="edge26" class="edge">
<title>Node15&#45;&gt;Node4</title>
<path fill="none" stroke="midnightblue" d="M1214.91,-169.32C1211.9,-168.82 1208.91,-168.38 1206,-168 950.3,-134.9 638.67,-125.76 539.16,-123.6"/>
<polygon fill="midnightblue" stroke="midnightblue" points="539.21,-120.1 529.14,-123.39 539.06,-127.1 539.21,-120.1"/>
</g>
<!-- Node15&#45;&gt;Node5 -->
<g id="edge27" class="edge">
<title>Node15&#45;&gt;Node5</title>
<path fill="none" stroke="midnightblue" d="M1263.78,-168.36C1279.29,-155.89 1303.24,-132.13 1291,-112 1262.91,-65.8 1234.28,-73.13 1183,-56 1102.62,-29.15 1003.1,-17.83 950.87,-13.46"/>
<polygon fill="midnightblue" stroke="midnightblue" points="951.01,-9.96 940.77,-12.65 950.45,-16.94 951.01,-9.96"/>
</g>
<!-- Node15&#45;&gt;Node7 -->
<g id="edge21" class="edge">
<title>Node15&#45;&gt;Node7</title>
<path fill="none" stroke="midnightblue" d="M1242.58,-168.37C1222.34,-149.81 1174.45,-105.91 1148.84,-82.44"/>
<polygon fill="midnightblue" stroke="midnightblue" points="1151.11,-79.77 1141.37,-75.59 1146.38,-84.93 1151.11,-79.77"/>
</g>
<!-- Node15&#45;&gt;Node16 -->
<g id="edge22" class="edge">
<title>Node15&#45;&gt;Node16</title>
<path fill="none" stroke="midnightblue" d="M1252,-168.08C1252,-161.01 1252,-150.86 1252,-141.99"/>
<polygon fill="midnightblue" stroke="midnightblue" points="1255.5,-141.75 1252,-131.75 1248.5,-141.75 1255.5,-141.75"/>
</g>
<!-- Node16&#45;&gt;Node7 -->
<g id="edge23" class="edge">
<title>Node16&#45;&gt;Node7</title>
<path fill="none" stroke="midnightblue" d="M1232.99,-112.44C1213.41,-103.64 1182.69,-89.81 1160.27,-79.72"/>
<polygon fill="midnightblue" stroke="midnightblue" points="1161.48,-76.43 1150.93,-75.52 1158.61,-82.81 1161.48,-76.43"/>
</g>
<!-- Node16&#45;&gt;Node10 -->
<g id="edge25" class="edge">
<title>Node16&#45;&gt;Node10</title>
<path fill="none" stroke="midnightblue" d="M1221.66,-117.19C1207.23,-115.46 1189.74,-113.47 1174,-112 946.06,-90.65 670.52,-73.99 579.68,-68.74"/>
<polygon fill="midnightblue" stroke="midnightblue" points="579.71,-65.24 569.53,-68.16 579.31,-72.22 579.71,-65.24"/>
</g>
<!-- Node17 -->
<g id="node17" class="node">
<title>Node17</title>
<g id="a_node17"><a xlink:href="Color_8hpp.html" target="_top" xlink:title=" ">
<polygon fill="none" stroke="black" points="1354.5,-56.5 1354.5,-75.5 1411.5,-75.5 1411.5,-56.5 1354.5,-56.5"/>
<text text-anchor="middle" x="1383" y="-63.5" font-family="Helvetica,sans-Serif" font-size="10.00">Color.hpp</text>
</a>
</g>
</g>
<!-- Node16&#45;&gt;Node17 -->
<g id="edge24" class="edge">
<title>Node16&#45;&gt;Node17</title>
<path fill="none" stroke="midnightblue" d="M1272.76,-112.44C1294.32,-103.56 1328.26,-89.56 1352.79,-79.45"/>
<polygon fill="midnightblue" stroke="midnightblue" points="1354.43,-82.56 1362.34,-75.52 1351.76,-76.09 1354.43,-82.56"/>
</g>
<!-- Node18&#45;&gt;Node7 -->
<g id="edge31" class="edge">
<title>Node18&#45;&gt;Node7</title>
<path fill="none" stroke="midnightblue" d="M1338.18,-112.44C1295.44,-103.02 1226.67,-87.87 1180.43,-77.68"/>
<polygon fill="midnightblue" stroke="midnightblue" points="1181.16,-74.25 1170.64,-75.52 1179.65,-81.09 1181.16,-74.25"/>
</g>
<!-- Node18&#45;&gt;Node9 -->
<g id="edge32" class="edge">
<title>Node18&#45;&gt;Node9</title>
<path fill="none" stroke="midnightblue" d="M1392.58,-112.32C1408,-103.74 1431.81,-90.49 1449.71,-80.52"/>
<polygon fill="midnightblue" stroke="midnightblue" points="1451.42,-83.58 1458.45,-75.65 1448.01,-77.46 1451.42,-83.58"/>
</g>
<!-- Node21&#45;&gt;Node4 -->
<g id="edge39" class="edge">
<title>Node21&#45;&gt;Node4</title>
<path fill="none" stroke="midnightblue" d="M439.69,-344.01C362.15,-341.13 253.96,-331.39 227,-300 184,-249.94 240.46,-205.16 295,-168 350.01,-130.52 430.24,-123.35 474.55,-122.5"/>
<polygon fill="midnightblue" stroke="midnightblue" points="474.78,-126 484.75,-122.4 474.72,-119 474.78,-126"/>
</g>
<!-- Node21&#45;&gt;Node5 -->
<g id="edge40" class="edge">
<title>Node21&#45;&gt;Node5</title>
<path fill="none" stroke="midnightblue" d="M439.72,-344.34C369.48,-341.4 266.82,-331.37 183,-300 91.68,-265.83 0,-276.5 0,-179 0,-179 0,-179 0,-121 0,-30.83 709.43,-14.17 878.94,-11.47"/>
<polygon fill="midnightblue" stroke="midnightblue" points="879.14,-14.97 889.09,-11.32 879.04,-7.97 879.14,-14.97"/>
</g>
<!-- Node21&#45;&gt;Node6 -->
<g id="edge49" class="edge">
<title>Node21&#45;&gt;Node6</title>
<path fill="none" stroke="midnightblue" d="M604.47,-341.79C718.84,-336.48 914.09,-323.99 936,-300 962.14,-271.38 940.57,-222.4 925.86,-196.4"/>
<polygon fill="midnightblue" stroke="midnightblue" points="928.79,-194.47 920.68,-187.65 922.77,-198.04 928.79,-194.47"/>
</g>
<!-- Node21&#45;&gt;Node10 -->
<g id="edge41" class="edge">
<title>Node21&#45;&gt;Node10</title>
<path fill="none" stroke="midnightblue" d="M439.78,-340.84C360.64,-335.48 247.72,-323.84 211,-300 182.35,-281.4 170,-269.16 170,-235 170,-235 170,-235 170,-177 170,-104.66 427.87,-76.82 518.2,-69.28"/>
<polygon fill="midnightblue" stroke="midnightblue" points="518.67,-72.76 528.35,-68.46 518.1,-65.78 518.67,-72.76"/>
</g>
<!-- Node21&#45;&gt;Node13 -->
<g id="edge44" class="edge">
<title>Node21&#45;&gt;Node13</title>
<path fill="none" stroke="midnightblue" d="M604.27,-341.7C743.78,-335.61 1020.87,-321.25 1116,-300 1133.06,-296.19 1253.08,-258.39 1263,-244 1281.82,-216.69 1243.57,-199.69 1205.71,-189.96"/>
<polygon fill="midnightblue" stroke="midnightblue" points="1206.15,-186.46 1195.61,-187.52 1204.51,-193.27 1206.15,-186.46"/>
</g>
<!-- Node21&#45;&gt;Node19 -->
<g id="edge38" class="edge">
<title>Node21&#45;&gt;Node19</title>
<path fill="none" stroke="midnightblue" d="M521.15,-336.18C519.49,-322.84 514.77,-297.28 502,-280 481.64,-252.44 430.56,-252.88 449,-224 453.09,-217.59 491.69,-200.95 518.95,-189.8"/>
<polygon fill="midnightblue" stroke="midnightblue" points="520.44,-192.97 528.39,-185.97 517.81,-186.48 520.44,-192.97"/>
</g>
<!-- Node22 -->
<g id="node22" class="node">
<title>Node22</title>
<g id="a_node22"><a xlink:title=" ">
<polygon fill="none" stroke="#bfbfbf" points="396,-280.5 396,-299.5 434,-299.5 434,-280.5 396,-280.5"/>
<text text-anchor="middle" x="415" y="-287.5" font-family="Helvetica,sans-Serif" font-size="10.00">tuple</text>
</a>
</g>
</g>
<!-- Node21&#45;&gt;Node22 -->
<g id="edge42" class="edge">
<title>Node21&#45;&gt;Node22</title>
<path fill="none" stroke="midnightblue" d="M504.81,-336.32C487.65,-327.66 461.05,-314.24 441.25,-304.25"/>
<polygon fill="midnightblue" stroke="midnightblue" points="442.65,-301.04 432.15,-299.65 439.5,-307.28 442.65,-301.04"/>
</g>
<!-- Node23 -->
<g id="node23" class="node">
<title>Node23</title>
<g id="a_node23"><a xlink:title=" ">
<polygon fill="none" stroke="#bfbfbf" points="452.5,-280.5 452.5,-299.5 493.5,-299.5 493.5,-280.5 452.5,-280.5"/>
<text text-anchor="middle" x="473" y="-287.5" font-family="Helvetica,sans-Serif" font-size="10.00">stack</text>
</a>
</g>
</g>
<!-- Node21&#45;&gt;Node23 -->
<g id="edge43" class="edge">
<title>Node21&#45;&gt;Node23</title>
<path fill="none" stroke="midnightblue" d="M513.91,-336.08C506.84,-328.3 496.41,-316.8 487.85,-307.37"/>
<polygon fill="midnightblue" stroke="midnightblue" points="490.25,-304.8 480.94,-299.75 485.07,-309.51 490.25,-304.8"/>
</g>
<!-- Node24 -->
<g id="node24" class="node">
<title>Node24</title>
<g id="a_node24"><a xlink:href="Button_8hpp.html" target="_top" xlink:title=" ">
<polygon fill="none" stroke="black" points="550.5,-280.5 550.5,-299.5 613.5,-299.5 613.5,-280.5 550.5,-280.5"/>
<text text-anchor="middle" x="582" y="-287.5" font-family="Helvetica,sans-Serif" font-size="10.00">Button.hpp</text>
</a>
</g>
</g>
<!-- Node21&#45;&gt;Node24 -->
<g id="edge45" class="edge">
<title>Node21&#45;&gt;Node24</title>
<path fill="none" stroke="midnightblue" d="M531.64,-336.32C540.51,-328.34 553.87,-316.31 564.61,-306.65"/>
<polygon fill="midnightblue" stroke="midnightblue" points="567.09,-309.13 572.18,-299.83 562.41,-303.92 567.09,-309.13"/>
</g>
<!-- Node27 -->
<g id="node27" class="node">
<title>Node27</title>
<g id="a_node27"><a xlink:href="LevelWithTiles_8hpp.html" target="_top" xlink:title=" ">
<polygon fill="none" stroke="black" points="236.5,-280.5 236.5,-299.5 377.5,-299.5 377.5,-280.5 236.5,-280.5"/>
<text text-anchor="middle" x="307" y="-287.5" font-family="Helvetica,sans-Serif" font-size="10.00">../Structs/LevelWithTiles.hpp</text>
</a>
</g>
</g>
<!-- Node21&#45;&gt;Node27 -->
<g id="edge50" class="edge">
<title>Node21&#45;&gt;Node27</title>
<path fill="none" stroke="midnightblue" d="M487.93,-336.44C450.82,-327.12 391.34,-312.18 350.79,-302"/>
<polygon fill="midnightblue" stroke="midnightblue" points="351.46,-298.56 340.91,-299.52 349.75,-305.35 351.46,-298.56"/>
</g>
<!-- Node30 -->
<g id="node30" class="node">
<title>Node30</title>
<g id="a_node30"><a xlink:href="LevelData_8hpp.html" target="_top" xlink:title=" ">
<polygon fill="none" stroke="black" points="806.5,-280.5 806.5,-299.5 927.5,-299.5 927.5,-280.5 806.5,-280.5"/>
<text text-anchor="middle" x="867" y="-287.5" font-family="Helvetica,sans-Serif" font-size="10.00">../Structs/LevelData.hpp</text>
</a>
</g>
</g>
<!-- Node21&#45;&gt;Node30 -->
<g id="edge58" class="edge">
<title>Node21&#45;&gt;Node30</title>
<path fill="none" stroke="midnightblue" d="M576.67,-336.44C637.99,-326.85 737.36,-311.29 802.45,-301.1"/>
<polygon fill="midnightblue" stroke="midnightblue" points="803.25,-304.52 812.59,-299.52 802.17,-297.61 803.25,-304.52"/>
</g>
<!-- Node32 -->
<g id="node32" class="node">
<title>Node32</title>
<g id="a_node32"><a xlink:href="LevelMode_8hpp.html" target="_top" xlink:title=" ">
<polygon fill="none" stroke="black" points="984.5,-280.5 984.5,-299.5 1107.5,-299.5 1107.5,-280.5 984.5,-280.5"/>
<text text-anchor="middle" x="1046" y="-287.5" font-family="Helvetica,sans-Serif" font-size="10.00">../Enums/LevelMode.hpp</text>
</a>
</g>
</g>
<!-- Node21&#45;&gt;Node32 -->
<g id="edge67" class="edge">
<title>Node21&#45;&gt;Node32</title>
<path fill="none" stroke="midnightblue" d="M604.21,-337.18C694.09,-328.54 842.37,-313.97 970,-300 971.3,-299.86 972.61,-299.71 973.93,-299.57"/>
<polygon fill="midnightblue" stroke="midnightblue" points="974.66,-303.01 984.21,-298.41 973.88,-296.05 974.66,-303.01"/>
</g>
<!-- Node25 -->
<g id="node25" class="node">
<title>Node25</title>
<g id="a_node25"><a xlink:href="UIObject_8hpp.html" target="_top" xlink:title=" ">
<polygon fill="none" stroke="black" points="756,-224.5 756,-243.5 830,-243.5 830,-224.5 756,-224.5"/>
<text text-anchor="middle" x="793" y="-231.5" font-family="Helvetica,sans-Serif" font-size="10.00">UIObject.hpp</text>
</a>
</g>
</g>
<!-- Node24&#45;&gt;Node25 -->
<g id="edge46" class="edge">
<title>Node24&#45;&gt;Node25</title>
<path fill="none" stroke="midnightblue" d="M613.59,-280.92C649.73,-271.67 709.12,-256.47 749.59,-246.11"/>
<polygon fill="midnightblue" stroke="midnightblue" points="750.63,-249.46 759.45,-243.59 748.89,-242.68 750.63,-249.46"/>
</g>
<!-- Node26 -->
<g id="node26" class="node">
<title>Node26</title>
<g id="a_node26"><a xlink:title=" ">
<polygon fill="none" stroke="#bfbfbf" points="458.5,-224.5 458.5,-243.5 517.5,-243.5 517.5,-224.5 458.5,-224.5"/>
<text text-anchor="middle" x="488" y="-231.5" font-family="Helvetica,sans-Serif" font-size="10.00">functional</text>
</a>
</g>
</g>
<!-- Node24&#45;&gt;Node26 -->
<g id="edge48" class="edge">
<title>Node24&#45;&gt;Node26</title>
<path fill="none" stroke="midnightblue" d="M566.9,-280.32C552.1,-271.82 529.31,-258.73 512.02,-248.8"/>
<polygon fill="midnightblue" stroke="midnightblue" points="513.48,-245.6 503.07,-243.65 509.99,-251.67 513.48,-245.6"/>
</g>
<!-- Node25&#45;&gt;Node6 -->
<g id="edge47" class="edge">
<title>Node25&#45;&gt;Node6</title>
<path fill="none" stroke="midnightblue" d="M812.33,-224.44C832.32,-215.6 863.74,-201.69 886.56,-191.59"/>
<polygon fill="midnightblue" stroke="midnightblue" points="888.03,-194.76 895.76,-187.52 885.2,-188.36 888.03,-194.76"/>
</g>
<!-- Node27&#45;&gt;Node4 -->
<g id="edge57" class="edge">
<title>Node27&#45;&gt;Node4</title>
<path fill="none" stroke="midnightblue" d="M294.35,-280.38C277.69,-267.93 251.96,-244.2 265,-224 311.42,-152.11 420.14,-131.34 474.65,-125.38"/>
<polygon fill="midnightblue" stroke="midnightblue" points="475.18,-128.84 484.79,-124.37 474.49,-121.87 475.18,-128.84"/>
</g>
<!-- Node28 -->
<g id="node28" class="node">
<title>Node28</title>
<g id="a_node28"><a xlink:href="Level_8hpp.html" target="_top" xlink:title=" ">
<polygon fill="none" stroke="black" points="342.5,-224.5 342.5,-243.5 401.5,-243.5 401.5,-224.5 342.5,-224.5"/>
<text text-anchor="middle" x="372" y="-231.5" font-family="Helvetica,sans-Serif" font-size="10.00">Level.hpp</text>
</a>
</g>
</g>
<!-- Node27&#45;&gt;Node28 -->
<g id="edge51" class="edge">
<title>Node27&#45;&gt;Node28</title>
<path fill="none" stroke="midnightblue" d="M317.44,-280.32C327.15,-272.26 341.82,-260.08 353.5,-250.37"/>
<polygon fill="midnightblue" stroke="midnightblue" points="355.91,-252.92 361.37,-243.83 351.44,-247.53 355.91,-252.92"/>
</g>
<!-- Node29 -->
<g id="node29" class="node">
<title>Node29</title>
<g id="a_node29"><a xlink:href="Tile_8hpp.html" target="_top" xlink:title=" ">
<polygon fill="none" stroke="black" points="274,-224.5 274,-243.5 324,-243.5 324,-224.5 274,-224.5"/>
<text text-anchor="middle" x="299" y="-231.5" font-family="Helvetica,sans-Serif" font-size="10.00">Tile.hpp</text>
</a>
</g>
</g>
<!-- Node27&#45;&gt;Node29 -->
<g id="edge55" class="edge">
<title>Node27&#45;&gt;Node29</title>
<path fill="none" stroke="midnightblue" d="M305.68,-280.08C304.62,-272.93 303.09,-262.64 301.77,-253.69"/>
<polygon fill="midnightblue" stroke="midnightblue" points="305.22,-253.13 300.3,-243.75 298.3,-254.16 305.22,-253.13"/>
</g>
<!-- Node28&#45;&gt;Node10 -->
<g id="edge52" class="edge">
<title>Node28&#45;&gt;Node10</title>
<path fill="none" stroke="midnightblue" d="M372.32,-224.15C373.2,-210.79 376.54,-185.19 389,-168 421.96,-122.54 482.24,-92.76 518.66,-77.99"/>
<polygon fill="midnightblue" stroke="midnightblue" points="520.23,-81.13 528.25,-74.22 517.67,-74.62 520.23,-81.13"/>
</g>
<!-- Node28&#45;&gt;Node11 -->
<g id="edge54" class="edge">
<title>Node28&#45;&gt;Node11</title>
<path fill="none" stroke="midnightblue" d="M385.17,-224.32C397.85,-215.98 417.23,-203.21 432.21,-193.35"/>
<polygon fill="midnightblue" stroke="midnightblue" points="434.43,-196.08 440.86,-187.65 430.58,-190.23 434.43,-196.08"/>
</g>
<!-- Node28&#45;&gt;Node19 -->
<g id="edge53" class="edge">
<title>Node28&#45;&gt;Node19</title>
<path fill="none" stroke="midnightblue" d="M400.52,-224.5C428.27,-216.17 471.86,-202.97 518.6,-188.07"/>
<polygon fill="midnightblue" stroke="midnightblue" points="519.84,-191.35 528.3,-184.97 517.71,-184.68 519.84,-191.35"/>
</g>
<!-- Node29&#45;&gt;Node11 -->
<g id="edge56" class="edge">
<title>Node29&#45;&gt;Node11</title>
<path fill="none" stroke="midnightblue" d="M323.56,-224.44C349.52,-215.4 390.67,-201.06 419.8,-190.92"/>
<polygon fill="midnightblue" stroke="midnightblue" points="421.26,-194.11 429.55,-187.52 418.96,-187.5 421.26,-194.11"/>
</g>
<!-- Node30&#45;&gt;Node3 -->
<g id="edge64" class="edge">
<title>Node30&#45;&gt;Node3</title>
<path fill="none" stroke="midnightblue" d="M830.56,-280.44C790.6,-271.06 726.41,-255.99 683.02,-245.8"/>
<polygon fill="midnightblue" stroke="midnightblue" points="683.81,-242.39 673.27,-243.52 682.21,-249.21 683.81,-242.39"/>
</g>
<!-- Node30&#45;&gt;Node12 -->
<g id="edge65" class="edge">
<title>Node30&#45;&gt;Node12</title>
<path fill="none" stroke="midnightblue" d="M915.96,-280.44C970.54,-270.9 1058.79,-255.48 1117.1,-245.29"/>
<polygon fill="midnightblue" stroke="midnightblue" points="1118.02,-248.69 1127.27,-243.52 1116.81,-241.79 1118.02,-248.69"/>
</g>
<!-- Node30&#45;&gt;Node20 -->
<g id="edge66" class="edge">
<title>Node30&#45;&gt;Node20</title>
<path fill="none" stroke="midnightblue" d="M882.46,-280.49C897.14,-272.09 919.51,-258.44 937,-244 955.13,-229.04 973.4,-209.16 985.36,-195.35"/>
<polygon fill="midnightblue" stroke="midnightblue" points="988.12,-197.51 991.94,-187.62 982.79,-192.97 988.12,-197.51"/>
</g>
<!-- Node31 -->
<g id="node31" class="node">
<title>Node31</title>
<g id="a_node31"><a xlink:href="WaveData_8hpp.html" target="_top" xlink:title=" ">
<polygon fill="none" stroke="black" points="848,-224.5 848,-243.5 928,-243.5 928,-224.5 848,-224.5"/>
<text text-anchor="middle" x="888" y="-231.5" font-family="Helvetica,sans-Serif" font-size="10.00">WaveData.hpp</text>
</a>
</g>
</g>
<!-- Node30&#45;&gt;Node31 -->
<g id="edge59" class="edge">
<title>Node30&#45;&gt;Node31</title>
<path fill="none" stroke="midnightblue" d="M870.47,-280.08C873.31,-272.77 877.43,-262.18 880.96,-253.1"/>
<polygon fill="midnightblue" stroke="midnightblue" points="884.23,-254.34 884.6,-243.75 877.71,-251.8 884.23,-254.34"/>
</g>
<!-- Node31&#45;&gt;Node5 -->
<g id="edge61" class="edge">
<title>Node31&#45;&gt;Node5</title>
<path fill="none" stroke="midnightblue" d="M880.85,-224.36C874.23,-215.76 864.84,-201.87 861,-188 858.63,-179.43 859.53,-176.77 861,-168 869.76,-115.59 893.91,-57.24 906.74,-28.69"/>
<polygon fill="midnightblue" stroke="midnightblue" points="909.93,-30.14 910.9,-19.59 903.56,-27.22 909.93,-30.14"/>
</g>
<!-- Node31&#45;&gt;Node6 -->
<g id="edge63" class="edge">
<title>Node31&#45;&gt;Node6</title>
<path fill="none" stroke="midnightblue" d="M892.46,-224.08C896.15,-216.69 901.52,-205.95 906.09,-196.81"/>
<polygon fill="midnightblue" stroke="midnightblue" points="909.28,-198.26 910.62,-187.75 903.02,-195.13 909.28,-198.26"/>
</g>
<!-- Node31&#45;&gt;Node19 -->
<g id="edge60" class="edge">
<title>Node31&#45;&gt;Node19</title>
<path fill="none" stroke="midnightblue" d="M847.91,-225.54C844.89,-225.01 841.9,-224.49 839,-224 741.64,-207.59 625.65,-190.5 573.63,-182.97"/>
<polygon fill="midnightblue" stroke="midnightblue" points="573.93,-179.48 563.53,-181.51 572.93,-186.4 573.93,-179.48"/>
</g>
<!-- Node31&#45;&gt;Node20 -->
<g id="edge62" class="edge">
<title>Node31&#45;&gt;Node20</title>
<path fill="none" stroke="midnightblue" d="M905.83,-224.32C923.72,-215.62 951.48,-202.12 972.05,-192.11"/>
<polygon fill="midnightblue" stroke="midnightblue" points="973.75,-195.18 981.21,-187.65 970.69,-188.88 973.75,-195.18"/>
</g>
<!-- Node33&#45;&gt;Node4 -->
<g id="edge70" class="edge">
<title>Node33&#45;&gt;Node4</title>
<path fill="none" stroke="midnightblue" d="M141.91,-169.72C231.58,-158.24 402.86,-136.33 474.37,-127.18"/>
<polygon fill="midnightblue" stroke="midnightblue" points="475.1,-130.61 484.57,-125.87 474.21,-123.67 475.1,-130.61"/>
</g>
<!-- Node33&#45;&gt;Node10 -->
<g id="edge69" class="edge">
<title>Node33&#45;&gt;Node10</title>
<path fill="none" stroke="midnightblue" d="M91.32,-168.44C102.52,-153.98 127.41,-125.03 156,-112 220.59,-82.56 437.12,-71.32 518.1,-68.09"/>
<polygon fill="midnightblue" stroke="midnightblue" points="518.3,-71.58 528.16,-67.7 518.03,-64.59 518.3,-71.58"/>
</g>
<!-- Node34&#45;&gt;Node9 -->
<g id="edge72" class="edge">
<title>Node34&#45;&gt;Node9</title>
<path fill="none" stroke="midnightblue" d="M1486.6,-336.44C1510.08,-329.98 1537.44,-318.86 1556,-300 1577.6,-278.05 1580,-265.8 1580,-235 1580,-235 1580,-235 1580,-177 1580,-146.2 1576.1,-135.33 1556,-112 1543.5,-97.5 1525.13,-86.81 1508.94,-79.5"/>
<polygon fill="midnightblue" stroke="midnightblue" points="1510.3,-76.27 1499.73,-75.58 1507.56,-82.72 1510.3,-76.27"/>
</g>
<!-- Node35&#45;&gt;Node17 -->
<g id="edge74" class="edge">
<title>Node35&#45;&gt;Node17</title>
<path fill="none" stroke="midnightblue" d="M1351.81,-336.38C1413.19,-318.81 1542,-276.94 1542,-235 1542,-235 1542,-235 1542,-177 1542,-146.77 1543.22,-133.53 1522,-112 1507.86,-97.65 1457.77,-83.79 1421.77,-75.33"/>
<polygon fill="midnightblue" stroke="midnightblue" points="1422.1,-71.81 1411.57,-72.99 1420.53,-78.64 1422.1,-71.81"/>
</g>
</g>
</svg>
