<?xml version="1.0" encoding="UTF-8" standalone="no"?>
<!DOCTYPE svg PUBLIC "-//W3C//DTD SVG 1.1//EN"
 "http://www.w3.org/Graphics/SVG/1.1/DTD/svg11.dtd">
<!-- Generated by graphviz version 2.44.0 ()
 -->
<!-- Title: src/Scripts/Heroes/EnemySuicideAbilityBehaviour.cpp Pages: 1 -->
<svg width="1494pt" height="442pt"
 viewBox="0.00 0.00 1493.50 442.00" xmlns="http://www.w3.org/2000/svg" xmlns:xlink="http://www.w3.org/1999/xlink">
<g id="graph0" class="graph" transform="scale(1 1) rotate(0) translate(4 438)">
<title>src/Scripts/Heroes/EnemySuicideAbilityBehaviour.cpp</title>
<!-- Node1 -->
<g id="node1" class="node">
<title>Node1</title>
<g id="a_node1"><a xlink:title=" ">
<polygon fill="#bfbfbf" stroke="black" points="942.5,-403.5 942.5,-433.5 1111.5,-433.5 1111.5,-403.5 942.5,-403.5"/>
<text text-anchor="start" x="950.5" y="-421.5" font-family="Helvetica,sans-Serif" font-size="10.00">src/Scripts/Heroes</text>
<text text-anchor="middle" x="1027" y="-410.5" font-family="Helvetica,sans-Serif" font-size="10.00">/EnemySuicideAbilityBehaviour.cpp</text>
</a>
</g>
</g>
<!-- Node2 -->
<g id="node2" class="node">
<title>Node2</title>
<g id="a_node2"><a xlink:href="EnemySuicideAbilityBehaviour_8hpp.html" target="_top" xlink:title=" ">
<polygon fill="none" stroke="black" points="944,-347.5 944,-366.5 1110,-366.5 1110,-347.5 944,-347.5"/>
<text text-anchor="middle" x="1027" y="-354.5" font-family="Helvetica,sans-Serif" font-size="10.00">EnemySuicideAbilityBehaviour.hpp</text>
</a>
</g>
</g>
<!-- Node1&#45;&gt;Node2 -->
<g id="edge1" class="edge">
<title>Node1&#45;&gt;Node2</title>
<path fill="none" stroke="midnightblue" d="M1027,-403.4C1027,-395.47 1027,-385.46 1027,-376.86"/>
<polygon fill="midnightblue" stroke="midnightblue" points="1030.5,-376.66 1027,-366.66 1023.5,-376.66 1030.5,-376.66"/>
</g>
<!-- Node15 -->
<g id="node15" class="node">
<title>Node15</title>
<g id="a_node15"><a xlink:href="Input_8hpp.html" target="_top" xlink:title=" ">
<polygon fill="none" stroke="black" points="1133,-112.5 1133,-131.5 1189,-131.5 1189,-112.5 1133,-112.5"/>
<text text-anchor="middle" x="1161" y="-119.5" font-family="Helvetica,sans-Serif" font-size="10.00">Input.hpp</text>
</a>
</g>
</g>
<!-- Node1&#45;&gt;Node15 -->
<g id="edge21" class="edge">
<title>Node1&#45;&gt;Node15</title>
<path fill="none" stroke="midnightblue" d="M1100.73,-403.45C1154.14,-388.51 1217,-358.84 1217,-302 1217,-302 1217,-302 1217,-244 1217,-203.72 1191.12,-162.29 1174.55,-139.88"/>
<polygon fill="midnightblue" stroke="midnightblue" points="1177.18,-137.57 1168.32,-131.76 1171.63,-141.83 1177.18,-137.57"/>
</g>
<!-- Node19 -->
<g id="node19" class="node">
<title>Node19</title>
<g id="a_node19"><a xlink:href="GameObject_8hpp.html" target="_top" xlink:title=" ">
<polygon fill="none" stroke="black" points="194.5,-112.5 194.5,-131.5 283.5,-131.5 283.5,-112.5 194.5,-112.5"/>
<text text-anchor="middle" x="239" y="-119.5" font-family="Helvetica,sans-Serif" font-size="10.00">GameObject.hpp</text>
</a>
</g>
</g>
<!-- Node1&#45;&gt;Node19 -->
<g id="edge26" class="edge">
<title>Node1&#45;&gt;Node19</title>
<path fill="none" stroke="midnightblue" d="M942.41,-410.24C774.25,-394.68 414,-355.13 414,-302 414,-302 414,-302 414,-244 414,-182.23 339.33,-149.53 287.54,-134.28"/>
<polygon fill="midnightblue" stroke="midnightblue" points="288.41,-130.89 277.84,-131.54 286.51,-137.62 288.41,-130.89"/>
</g>
<!-- Node21 -->
<g id="node21" class="node">
<title>Node21</title>
<g id="a_node21"><a xlink:href="Engine_8hpp.html" target="_top" xlink:title=" ">
<polygon fill="none" stroke="black" points="322,-235.5 322,-254.5 386,-254.5 386,-235.5 322,-235.5"/>
<text text-anchor="middle" x="354" y="-242.5" font-family="Helvetica,sans-Serif" font-size="10.00">Engine.hpp</text>
</a>
</g>
</g>
<!-- Node1&#45;&gt;Node21 -->
<g id="edge33" class="edge">
<title>Node1&#45;&gt;Node21</title>
<path fill="none" stroke="midnightblue" d="M942.25,-415.65C781.03,-411.42 442.39,-398.82 400,-367 367.45,-342.56 357.93,-292.13 355.15,-264.73"/>
<polygon fill="midnightblue" stroke="midnightblue" points="358.62,-264.22 354.32,-254.53 351.64,-264.78 358.62,-264.22"/>
</g>
<!-- Node25 -->
<g id="node25" class="node">
<title>Node25</title>
<g id="a_node25"><a xlink:href="GameObjectUtil_8hpp.html" target="_top" xlink:title=" ">
<polygon fill="none" stroke="black" points="175,-174 175,-193 303,-193 303,-174 175,-174"/>
<text text-anchor="middle" x="239" y="-181" font-family="Helvetica,sans-Serif" font-size="10.00">Utils/GameObjectUtil.hpp</text>
</a>
</g>
</g>
<!-- Node1&#45;&gt;Node25 -->
<g id="edge40" class="edge">
<title>Node1&#45;&gt;Node25</title>
<path fill="none" stroke="midnightblue" d="M942.26,-414.75C777.62,-408.86 426.38,-393.35 378,-367 308.63,-329.21 263.31,-240.42 246.42,-202.35"/>
<polygon fill="midnightblue" stroke="midnightblue" points="249.58,-200.84 242.41,-193.04 243.15,-203.61 249.58,-200.84"/>
</g>
<!-- Node26 -->
<g id="node26" class="node">
<title>Node26</title>
<g id="a_node26"><a xlink:href="AttackBehaviour_8hpp.html" target="_top" xlink:title=" ">
<polygon fill="none" stroke="black" points="676,-291.5 676,-310.5 832,-310.5 832,-291.5 676,-291.5"/>
<text text-anchor="middle" x="754" y="-298.5" font-family="Helvetica,sans-Serif" font-size="10.00">../Common/AttackBehaviour.hpp</text>
</a>
</g>
</g>
<!-- Node1&#45;&gt;Node26 -->
<g id="edge43" class="edge">
<title>Node1&#45;&gt;Node26</title>
<path fill="none" stroke="midnightblue" d="M993.8,-403.45C940.11,-380.74 835.08,-336.3 783.72,-314.57"/>
<polygon fill="midnightblue" stroke="midnightblue" points="784.76,-311.22 774.19,-310.54 782.04,-317.66 784.76,-311.22"/>
</g>
<!-- Node28 -->
<g id="node28" class="node">
<title>Node28</title>
<g id="a_node28"><a xlink:href="AudioSourcePrefabFactory_8hpp.html" target="_top" xlink:title=" ">
<polygon fill="none" stroke="black" points="813.5,-168.5 813.5,-198.5 944.5,-198.5 944.5,-168.5 813.5,-168.5"/>
<text text-anchor="start" x="821.5" y="-186.5" font-family="Helvetica,sans-Serif" font-size="10.00">../../Factories/AudioSource</text>
<text text-anchor="middle" x="879" y="-175.5" font-family="Helvetica,sans-Serif" font-size="10.00">PrefabFactory.hpp</text>
</a>
</g>
</g>
<!-- Node1&#45;&gt;Node28 -->
<g id="edge51" class="edge">
<title>Node1&#45;&gt;Node28</title>
<path fill="none" stroke="midnightblue" d="M1070.35,-403.32C1088.08,-395.37 1107.17,-383.63 1119,-367 1153.36,-318.71 1175.69,-280.75 1138,-235 1115.14,-207.25 1022.97,-194.55 955.06,-188.87"/>
<polygon fill="midnightblue" stroke="midnightblue" points="955.05,-185.36 944.8,-188.05 954.49,-192.34 955.05,-185.36"/>
</g>
<!-- Node31 -->
<g id="node31" class="node">
<title>Node31</title>
<g id="a_node31"><a xlink:href="Layer_8hpp.html" target="_top" xlink:title=" ">
<polygon fill="none" stroke="black" points="1245.5,-347.5 1245.5,-366.5 1352.5,-366.5 1352.5,-347.5 1245.5,-347.5"/>
<text text-anchor="middle" x="1299" y="-354.5" font-family="Helvetica,sans-Serif" font-size="10.00">../../Enums/Layer.hpp</text>
</a>
</g>
</g>
<!-- Node1&#45;&gt;Node31 -->
<g id="edge58" class="edge">
<title>Node1&#45;&gt;Node31</title>
<path fill="none" stroke="midnightblue" d="M1091.12,-403.47C1139.78,-392.83 1205.68,-378.41 1250.14,-368.69"/>
<polygon fill="midnightblue" stroke="midnightblue" points="1251.09,-372.06 1260.11,-366.51 1249.6,-365.22 1251.09,-372.06"/>
</g>
<!-- Node32 -->
<g id="node32" class="node">
<title>Node32</title>
<g id="a_node32"><a xlink:href="HeroConstants_8hpp.html" target="_top" xlink:title=" ">
<polygon fill="none" stroke="black" points="1370.5,-347.5 1370.5,-366.5 1485.5,-366.5 1485.5,-347.5 1370.5,-347.5"/>
<text text-anchor="middle" x="1428" y="-354.5" font-family="Helvetica,sans-Serif" font-size="10.00">../../HeroConstants.hpp</text>
</a>
</g>
</g>
<!-- Node1&#45;&gt;Node32 -->
<g id="edge59" class="edge">
<title>Node1&#45;&gt;Node32</title>
<path fill="none" stroke="midnightblue" d="M1111.55,-404.95C1185.64,-393.96 1291.92,-378.19 1360.46,-368.02"/>
<polygon fill="midnightblue" stroke="midnightblue" points="1361.33,-371.43 1370.71,-366.5 1360.3,-364.51 1361.33,-371.43"/>
</g>
<!-- Node3 -->
<g id="node3" class="node">
<title>Node3</title>
<g id="a_node3"><a xlink:href="AbilityBehaviour_8hpp.html" target="_top" xlink:title=" ">
<polygon fill="none" stroke="black" points="975,-291.5 975,-310.5 1079,-310.5 1079,-291.5 975,-291.5"/>
<text text-anchor="middle" x="1027" y="-298.5" font-family="Helvetica,sans-Serif" font-size="10.00">AbilityBehaviour.hpp</text>
</a>
</g>
</g>
<!-- Node2&#45;&gt;Node3 -->
<g id="edge2" class="edge">
<title>Node2&#45;&gt;Node3</title>
<path fill="none" stroke="midnightblue" d="M1027,-347.08C1027,-340.01 1027,-329.86 1027,-320.99"/>
<polygon fill="midnightblue" stroke="midnightblue" points="1030.5,-320.75 1027,-310.75 1023.5,-320.75 1030.5,-320.75"/>
</g>
<!-- Node4 -->
<g id="node4" class="node">
<title>Node4</title>
<g id="a_node4"><a xlink:href="BehaviourScript_8hpp.html" target="_top" xlink:title=" ">
<polygon fill="none" stroke="black" points="691,-174 691,-193 795,-193 795,-174 691,-174"/>
<text text-anchor="middle" x="743" y="-181" font-family="Helvetica,sans-Serif" font-size="10.00">BehaviourScript.hpp</text>
</a>
</g>
</g>
<!-- Node3&#45;&gt;Node4 -->
<g id="edge3" class="edge">
<title>Node3&#45;&gt;Node4</title>
<path fill="none" stroke="midnightblue" d="M1059.94,-291.41C1095.6,-280.57 1144.56,-260.27 1122,-235 1074.78,-182.12 874.86,-211.09 805,-199 798.85,-197.94 792.4,-196.64 786.08,-195.26"/>
<polygon fill="midnightblue" stroke="midnightblue" points="786.84,-191.84 776.32,-193.05 785.3,-198.67 786.84,-191.84"/>
</g>
<!-- Node8 -->
<g id="node8" class="node">
<title>Node8</title>
<g id="a_node8"><a xlink:href="CoolDownBehaviour_8hpp.html" target="_top" xlink:title=" ">
<polygon fill="none" stroke="black" points="941,-235.5 941,-254.5 1113,-254.5 1113,-235.5 941,-235.5"/>
<text text-anchor="middle" x="1027" y="-242.5" font-family="Helvetica,sans-Serif" font-size="10.00">../Common/CoolDownBehaviour.hpp</text>
</a>
</g>
</g>
<!-- Node3&#45;&gt;Node8 -->
<g id="edge8" class="edge">
<title>Node3&#45;&gt;Node8</title>
<path fill="none" stroke="midnightblue" d="M1027,-291.08C1027,-284.01 1027,-273.86 1027,-264.99"/>
<polygon fill="midnightblue" stroke="midnightblue" points="1030.5,-264.75 1027,-254.75 1023.5,-264.75 1030.5,-264.75"/>
</g>
<!-- Node9 -->
<g id="node9" class="node">
<title>Node9</title>
<g id="a_node9"><a xlink:href="HealthBehaviour_8hpp.html" target="_top" xlink:title=" ">
<polygon fill="none" stroke="black" points="729,-235.5 729,-254.5 885,-254.5 885,-235.5 729,-235.5"/>
<text text-anchor="middle" x="807" y="-242.5" font-family="Helvetica,sans-Serif" font-size="10.00">../Common/HealthBehaviour.hpp</text>
</a>
</g>
</g>
<!-- Node3&#45;&gt;Node9 -->
<g id="edge10" class="edge">
<title>Node3&#45;&gt;Node9</title>
<path fill="none" stroke="midnightblue" d="M992.14,-291.44C954.08,-282.1 893.04,-267.12 851.54,-256.93"/>
<polygon fill="midnightblue" stroke="midnightblue" points="852.24,-253.5 841.7,-254.52 850.57,-260.3 852.24,-253.5"/>
</g>
<!-- Node5 -->
<g id="node5" class="node">
<title>Node5</title>
<g id="a_node5"><a xlink:href="Component_8hpp.html" target="_top" xlink:title=" ">
<polygon fill="none" stroke="black" points="358,-56.5 358,-75.5 442,-75.5 442,-56.5 358,-56.5"/>
<text text-anchor="middle" x="400" y="-63.5" font-family="Helvetica,sans-Serif" font-size="10.00">Component.hpp</text>
</a>
</g>
</g>
<!-- Node4&#45;&gt;Node5 -->
<g id="edge4" class="edge">
<title>Node4&#45;&gt;Node5</title>
<path fill="none" stroke="midnightblue" d="M690.88,-175.08C674.59,-172.79 656.55,-170.26 640,-168 579.81,-159.77 409.03,-177.7 369,-132 356.47,-117.69 369.78,-97.43 382.64,-83.35"/>
<polygon fill="midnightblue" stroke="midnightblue" points="385.48,-85.46 389.97,-75.86 380.47,-80.56 385.48,-85.46"/>
</g>
<!-- Node7 -->
<g id="node7" class="node">
<title>Node7</title>
<g id="a_node7"><a xlink:href="Collider_8hpp.html" target="_top" xlink:title=" ">
<polygon fill="none" stroke="black" points="378.5,-112.5 378.5,-131.5 445.5,-131.5 445.5,-112.5 378.5,-112.5"/>
<text text-anchor="middle" x="412" y="-119.5" font-family="Helvetica,sans-Serif" font-size="10.00">Collider.hpp</text>
</a>
</g>
</g>
<!-- Node4&#45;&gt;Node7 -->
<g id="edge6" class="edge">
<title>Node4&#45;&gt;Node7</title>
<path fill="none" stroke="midnightblue" d="M691.4,-173.98C635.78,-164.67 544.4,-149.04 455.74,-132.09"/>
<polygon fill="midnightblue" stroke="midnightblue" points="456.26,-128.63 445.78,-130.18 454.94,-135.5 456.26,-128.63"/>
</g>
<!-- Node6 -->
<g id="node6" class="node">
<title>Node6</title>
<g id="a_node6"><a xlink:title=" ">
<polygon fill="none" stroke="#bfbfbf" points="207.5,-0.5 207.5,-19.5 258.5,-19.5 258.5,-0.5 207.5,-0.5"/>
<text text-anchor="middle" x="233" y="-7.5" font-family="Helvetica,sans-Serif" font-size="10.00">memory</text>
</a>
</g>
</g>
<!-- Node5&#45;&gt;Node6 -->
<g id="edge5" class="edge">
<title>Node5&#45;&gt;Node6</title>
<path fill="none" stroke="midnightblue" d="M373.54,-56.44C345.07,-47.24 299.67,-32.56 268.2,-22.38"/>
<polygon fill="midnightblue" stroke="midnightblue" points="269.11,-19 258.52,-19.25 266.95,-25.66 269.11,-19"/>
</g>
<!-- Node7&#45;&gt;Node5 -->
<g id="edge7" class="edge">
<title>Node7&#45;&gt;Node5</title>
<path fill="none" stroke="midnightblue" d="M410.02,-112.08C408.43,-104.93 406.14,-94.64 404.15,-85.69"/>
<polygon fill="midnightblue" stroke="midnightblue" points="407.53,-84.75 401.94,-75.75 400.7,-86.27 407.53,-84.75"/>
</g>
<!-- Node8&#45;&gt;Node4 -->
<g id="edge9" class="edge">
<title>Node8&#45;&gt;Node4</title>
<path fill="none" stroke="midnightblue" d="M982.69,-235.42C937.82,-226.64 866.47,-212.42 805,-199 799.67,-197.84 794.09,-196.58 788.55,-195.32"/>
<polygon fill="midnightblue" stroke="midnightblue" points="789.23,-191.88 778.7,-193.04 787.65,-198.7 789.23,-191.88"/>
</g>
<!-- Node9&#45;&gt;Node4 -->
<g id="edge11" class="edge">
<title>Node9&#45;&gt;Node4</title>
<path fill="none" stroke="midnightblue" d="M797.83,-235.48C787.85,-226.2 771.69,-211.17 759.49,-199.83"/>
<polygon fill="midnightblue" stroke="midnightblue" points="761.86,-197.25 752.15,-193.01 757.09,-202.38 761.86,-197.25"/>
</g>
<!-- Node9&#45;&gt;Node6 -->
<g id="edge12" class="edge">
<title>Node9&#45;&gt;Node6</title>
<path fill="none" stroke="midnightblue" d="M884.87,-235.47C909.93,-229.08 935.87,-218.04 954,-199 981.17,-170.47 993.95,-144.02 971,-112 925.89,-49.05 881.86,-71.6 806,-56 605.98,-14.87 359.58,-10.74 268.77,-10.74"/>
<polygon fill="midnightblue" stroke="midnightblue" points="268.73,-7.24 258.73,-10.76 268.74,-14.24 268.73,-7.24"/>
</g>
<!-- Node10 -->
<g id="node10" class="node">
<title>Node10</title>
<g id="a_node10"><a xlink:href="Animator_8hpp.html" target="_top" xlink:title=" ">
<polygon fill="none" stroke="black" points="442,-174 442,-193 516,-193 516,-174 442,-174"/>
<text text-anchor="middle" x="479" y="-181" font-family="Helvetica,sans-Serif" font-size="10.00">Animator.hpp</text>
</a>
</g>
</g>
<!-- Node9&#45;&gt;Node10 -->
<g id="edge13" class="edge">
<title>Node9&#45;&gt;Node10</title>
<path fill="none" stroke="midnightblue" d="M742.21,-235.5C686.03,-227.63 602.71,-214.79 531,-199 526.56,-198.02 521.93,-196.89 517.34,-195.7"/>
<polygon fill="midnightblue" stroke="midnightblue" points="518.03,-192.27 507.47,-193.05 516.21,-199.03 518.03,-192.27"/>
</g>
<!-- Node10&#45;&gt;Node5 -->
<g id="edge14" class="edge">
<title>Node10&#45;&gt;Node5</title>
<path fill="none" stroke="midnightblue" d="M449.15,-173.96C409.26,-162.24 342.77,-141.57 336,-132 321.93,-112.11 347.87,-92.66 370.82,-80.3"/>
<polygon fill="midnightblue" stroke="midnightblue" points="372.7,-83.27 380.03,-75.61 369.53,-77.03 372.7,-83.27"/>
</g>
<!-- Node10&#45;&gt;Node6 -->
<g id="edge20" class="edge">
<title>Node10&#45;&gt;Node6</title>
<path fill="none" stroke="midnightblue" d="M441.97,-178.8C366.68,-170.89 201.44,-151.5 185,-132 158.31,-100.33 194.44,-51.99 217.12,-27.08"/>
<polygon fill="midnightblue" stroke="midnightblue" points="219.87,-29.26 224.19,-19.59 214.78,-24.46 219.87,-29.26"/>
</g>
<!-- Node11 -->
<g id="node11" class="node">
<title>Node11</title>
<g id="a_node11"><a xlink:href="Sprite_8hpp.html" target="_top" xlink:title=" ">
<polygon fill="none" stroke="black" points="464,-112.5 464,-131.5 524,-131.5 524,-112.5 464,-112.5"/>
<text text-anchor="middle" x="494" y="-119.5" font-family="Helvetica,sans-Serif" font-size="10.00">Sprite.hpp</text>
</a>
</g>
</g>
<!-- Node10&#45;&gt;Node11 -->
<g id="edge15" class="edge">
<title>Node10&#45;&gt;Node11</title>
<path fill="none" stroke="midnightblue" d="M481.15,-173.98C483.29,-165.49 486.64,-152.2 489.38,-141.32"/>
<polygon fill="midnightblue" stroke="midnightblue" points="492.8,-142.06 491.85,-131.51 486.02,-140.35 492.8,-142.06"/>
</g>
<!-- Node14 -->
<g id="node14" class="node">
<title>Node14</title>
<g id="a_node14"><a xlink:title=" ">
<polygon fill="none" stroke="#bfbfbf" points="118,-56.5 118,-75.5 162,-75.5 162,-56.5 118,-56.5"/>
<text text-anchor="middle" x="140" y="-63.5" font-family="Helvetica,sans-Serif" font-size="10.00">vector</text>
</a>
</g>
</g>
<!-- Node10&#45;&gt;Node14 -->
<g id="edge19" class="edge">
<title>Node10&#45;&gt;Node14</title>
<path fill="none" stroke="midnightblue" d="M441.86,-179.18C360.6,-171.58 172.61,-152.01 152,-132 139.92,-120.27 137.74,-100.62 138.09,-86"/>
<polygon fill="midnightblue" stroke="midnightblue" points="141.61,-85.79 138.77,-75.59 134.63,-85.34 141.61,-85.79"/>
</g>
<!-- Node11&#45;&gt;Node5 -->
<g id="edge16" class="edge">
<title>Node11&#45;&gt;Node5</title>
<path fill="none" stroke="midnightblue" d="M478.9,-112.32C464.1,-103.82 441.31,-90.73 424.02,-80.8"/>
<polygon fill="midnightblue" stroke="midnightblue" points="425.48,-77.6 415.07,-75.65 421.99,-83.67 425.48,-77.6"/>
</g>
<!-- Node12 -->
<g id="node12" class="node">
<title>Node12</title>
<g id="a_node12"><a xlink:href="Color_8hpp.html" target="_top" xlink:title=" ">
<polygon fill="none" stroke="black" points="465.5,-56.5 465.5,-75.5 522.5,-75.5 522.5,-56.5 465.5,-56.5"/>
<text text-anchor="middle" x="494" y="-63.5" font-family="Helvetica,sans-Serif" font-size="10.00">Color.hpp</text>
</a>
</g>
</g>
<!-- Node11&#45;&gt;Node12 -->
<g id="edge17" class="edge">
<title>Node11&#45;&gt;Node12</title>
<path fill="none" stroke="midnightblue" d="M494,-112.08C494,-105.01 494,-94.86 494,-85.99"/>
<polygon fill="midnightblue" stroke="midnightblue" points="497.5,-85.75 494,-75.75 490.5,-85.75 497.5,-85.75"/>
</g>
<!-- Node13 -->
<g id="node13" class="node">
<title>Node13</title>
<g id="a_node13"><a xlink:title=" ">
<polygon fill="none" stroke="#bfbfbf" points="624.5,-56.5 624.5,-75.5 665.5,-75.5 665.5,-56.5 624.5,-56.5"/>
<text text-anchor="middle" x="645" y="-63.5" font-family="Helvetica,sans-Serif" font-size="10.00">string</text>
</a>
</g>
</g>
<!-- Node11&#45;&gt;Node13 -->
<g id="edge18" class="edge">
<title>Node11&#45;&gt;Node13</title>
<path fill="none" stroke="midnightblue" d="M517.93,-112.44C544.11,-103.08 586.15,-88.05 614.64,-77.86"/>
<polygon fill="midnightblue" stroke="midnightblue" points="615.87,-81.14 624.1,-74.47 613.51,-74.54 615.87,-81.14"/>
</g>
<!-- Node15&#45;&gt;Node13 -->
<g id="edge25" class="edge">
<title>Node15&#45;&gt;Node13</title>
<path fill="none" stroke="midnightblue" d="M1132.89,-118.06C1043.88,-108.74 768.63,-79.94 675.88,-70.23"/>
<polygon fill="midnightblue" stroke="midnightblue" points="676.05,-66.73 665.74,-69.17 675.32,-73.69 676.05,-66.73"/>
</g>
<!-- Node16 -->
<g id="node16" class="node">
<title>Node16</title>
<g id="a_node16"><a xlink:href="Point_8hpp.html" target="_top" xlink:title=" ">
<polygon fill="none" stroke="black" points="1021.5,-0.5 1021.5,-19.5 1078.5,-19.5 1078.5,-0.5 1021.5,-0.5"/>
<text text-anchor="middle" x="1050" y="-7.5" font-family="Helvetica,sans-Serif" font-size="10.00">Point.hpp</text>
</a>
</g>
</g>
<!-- Node15&#45;&gt;Node16 -->
<g id="edge22" class="edge">
<title>Node15&#45;&gt;Node16</title>
<path fill="none" stroke="midnightblue" d="M1150.06,-112.45C1139.07,-103.69 1121.82,-89.49 1108,-76 1092.02,-60.4 1075.18,-41.18 1063.78,-27.69"/>
<polygon fill="midnightblue" stroke="midnightblue" points="1066.25,-25.18 1057.15,-19.76 1060.88,-29.67 1066.25,-25.18"/>
</g>
<!-- Node17 -->
<g id="node17" class="node">
<title>Node17</title>
<g id="a_node17"><a xlink:href="IKeyListener_8hpp.html" target="_top" xlink:title=" ">
<polygon fill="none" stroke="black" points="1116.5,-56.5 1116.5,-75.5 1205.5,-75.5 1205.5,-56.5 1116.5,-56.5"/>
<text text-anchor="middle" x="1161" y="-63.5" font-family="Helvetica,sans-Serif" font-size="10.00">IKeyListener.hpp</text>
</a>
</g>
</g>
<!-- Node15&#45;&gt;Node17 -->
<g id="edge23" class="edge">
<title>Node15&#45;&gt;Node17</title>
<path fill="none" stroke="midnightblue" d="M1161,-112.08C1161,-105.01 1161,-94.86 1161,-85.99"/>
<polygon fill="midnightblue" stroke="midnightblue" points="1164.5,-85.75 1161,-75.75 1157.5,-85.75 1164.5,-85.75"/>
</g>
<!-- Node18 -->
<g id="node18" class="node">
<title>Node18</title>
<g id="a_node18"><a xlink:href="IMouseListener_8hpp.html" target="_top" xlink:title=" ">
<polygon fill="none" stroke="black" points="1223,-56.5 1223,-75.5 1325,-75.5 1325,-56.5 1223,-56.5"/>
<text text-anchor="middle" x="1274" y="-63.5" font-family="Helvetica,sans-Serif" font-size="10.00">IMouseListener.hpp</text>
</a>
</g>
</g>
<!-- Node15&#45;&gt;Node18 -->
<g id="edge24" class="edge">
<title>Node15&#45;&gt;Node18</title>
<path fill="none" stroke="midnightblue" d="M1178.91,-112.44C1197.25,-103.68 1226.01,-89.94 1247.09,-79.86"/>
<polygon fill="midnightblue" stroke="midnightblue" points="1248.67,-82.99 1256.18,-75.52 1245.65,-76.67 1248.67,-82.99"/>
</g>
<!-- Node19&#45;&gt;Node5 -->
<g id="edge27" class="edge">
<title>Node19&#45;&gt;Node5</title>
<path fill="none" stroke="midnightblue" d="M264.51,-112.44C291.6,-103.36 334.59,-88.94 364.87,-78.78"/>
<polygon fill="midnightblue" stroke="midnightblue" points="366.24,-82.01 374.61,-75.52 364.01,-75.38 366.24,-82.01"/>
</g>
<!-- Node19&#45;&gt;Node6 -->
<g id="edge32" class="edge">
<title>Node19&#45;&gt;Node6</title>
<path fill="none" stroke="midnightblue" d="M238.53,-112.37C237.56,-94.62 235.33,-53.67 234.01,-29.6"/>
<polygon fill="midnightblue" stroke="midnightblue" points="237.51,-29.39 233.47,-19.59 230.52,-29.77 237.51,-29.39"/>
</g>
<!-- Node19&#45;&gt;Node13 -->
<g id="edge30" class="edge">
<title>Node19&#45;&gt;Node13</title>
<path fill="none" stroke="midnightblue" d="M283.61,-115.07C366.69,-104.02 543.11,-80.55 614.28,-71.09"/>
<polygon fill="midnightblue" stroke="midnightblue" points="614.93,-74.53 624.38,-69.74 614.01,-67.59 614.93,-74.53"/>
</g>
<!-- Node19&#45;&gt;Node14 -->
<g id="edge31" class="edge">
<title>Node19&#45;&gt;Node14</title>
<path fill="none" stroke="midnightblue" d="M223.09,-112.32C207.36,-103.74 183.06,-90.49 164.79,-80.52"/>
<polygon fill="midnightblue" stroke="midnightblue" points="166.32,-77.37 155.87,-75.65 162.97,-83.52 166.32,-77.37"/>
</g>
<!-- Node20 -->
<g id="node20" class="node">
<title>Node20</title>
<g id="a_node20"><a xlink:href="Transform_8hpp.html" target="_top" xlink:title=" ">
<polygon fill="none" stroke="black" points="261.5,-56.5 261.5,-75.5 340.5,-75.5 340.5,-56.5 261.5,-56.5"/>
<text text-anchor="middle" x="301" y="-63.5" font-family="Helvetica,sans-Serif" font-size="10.00">Transform.hpp</text>
</a>
</g>
</g>
<!-- Node19&#45;&gt;Node20 -->
<g id="edge28" class="edge">
<title>Node19&#45;&gt;Node20</title>
<path fill="none" stroke="midnightblue" d="M248.96,-112.32C258.13,-104.34 271.94,-92.31 283.03,-82.65"/>
<polygon fill="midnightblue" stroke="midnightblue" points="285.62,-85.04 290.86,-75.83 281.02,-79.76 285.62,-85.04"/>
</g>
<!-- Node20&#45;&gt;Node16 -->
<g id="edge29" class="edge">
<title>Node20&#45;&gt;Node16</title>
<path fill="none" stroke="midnightblue" d="M340.75,-57.16C343.54,-56.73 346.31,-56.34 349,-56 599.94,-24.54 904.33,-14.52 1010.9,-11.85"/>
<polygon fill="midnightblue" stroke="midnightblue" points="1011.26,-15.34 1021.17,-11.6 1011.09,-8.34 1011.26,-15.34"/>
</g>
<!-- Node22 -->
<g id="node22" class="node">
<title>Node22</title>
<g id="a_node22"><a xlink:href="EngineConfig_8hpp.html" target="_top" xlink:title=" ">
<polygon fill="none" stroke="black" points="539.5,-174 539.5,-193 630.5,-193 630.5,-174 539.5,-174"/>
<text text-anchor="middle" x="585" y="-181" font-family="Helvetica,sans-Serif" font-size="10.00">EngineConfig.hpp</text>
</a>
</g>
</g>
<!-- Node21&#45;&gt;Node22 -->
<g id="edge34" class="edge">
<title>Node21&#45;&gt;Node22</title>
<path fill="none" stroke="midnightblue" d="M386.12,-235.73C426.69,-225.28 496.65,-207.26 541.85,-195.61"/>
<polygon fill="midnightblue" stroke="midnightblue" points="542.85,-198.97 551.66,-193.09 541.1,-192.19 542.85,-198.97"/>
</g>
<!-- Node24 -->
<g id="node24" class="node">
<title>Node24</title>
<g id="a_node24"><a xlink:href="Scene_8hpp.html" target="_top" xlink:title=" ">
<polygon fill="none" stroke="black" points="0,-112.5 0,-131.5 62,-131.5 62,-112.5 0,-112.5"/>
<text text-anchor="middle" x="31" y="-119.5" font-family="Helvetica,sans-Serif" font-size="10.00">Scene.hpp</text>
</a>
</g>
</g>
<!-- Node21&#45;&gt;Node24 -->
<g id="edge37" class="edge">
<title>Node21&#45;&gt;Node24</title>
<path fill="none" stroke="midnightblue" d="M321.91,-239.12C283.82,-232.69 218.8,-219.71 166,-199 123.41,-182.29 77.81,-154.23 52.01,-137.28"/>
<polygon fill="midnightblue" stroke="midnightblue" points="53.71,-134.21 43.44,-131.58 49.83,-140.04 53.71,-134.21"/>
</g>
<!-- Node23 -->
<g id="node23" class="node">
<title>Node23</title>
<g id="a_node23"><a xlink:href="WindowConfig_8hpp.html" target="_top" xlink:title=" ">
<polygon fill="none" stroke="black" points="542,-112.5 542,-131.5 638,-131.5 638,-112.5 542,-112.5"/>
<text text-anchor="middle" x="590" y="-119.5" font-family="Helvetica,sans-Serif" font-size="10.00">WindowConfig.hpp</text>
</a>
</g>
</g>
<!-- Node22&#45;&gt;Node23 -->
<g id="edge35" class="edge">
<title>Node22&#45;&gt;Node23</title>
<path fill="none" stroke="midnightblue" d="M585.72,-173.98C586.42,-165.58 587.52,-152.48 588.43,-141.66"/>
<polygon fill="midnightblue" stroke="midnightblue" points="591.94,-141.77 589.28,-131.51 584.96,-141.18 591.94,-141.77"/>
</g>
<!-- Node23&#45;&gt;Node13 -->
<g id="edge36" class="edge">
<title>Node23&#45;&gt;Node13</title>
<path fill="none" stroke="midnightblue" d="M599.08,-112.08C607.17,-104.14 619.2,-92.34 628.91,-82.8"/>
<polygon fill="midnightblue" stroke="midnightblue" points="631.4,-85.25 636.09,-75.75 626.5,-80.26 631.4,-85.25"/>
</g>
<!-- Node24&#45;&gt;Node6 -->
<g id="edge39" class="edge">
<title>Node24&#45;&gt;Node6</title>
<path fill="none" stroke="midnightblue" d="M34.6,-112.42C40.9,-98.45 55.26,-70.88 76,-56 112.33,-29.94 163.47,-18.91 197.4,-14.28"/>
<polygon fill="midnightblue" stroke="midnightblue" points="197.85,-17.75 207.33,-13.04 196.98,-10.81 197.85,-17.75"/>
</g>
<!-- Node24&#45;&gt;Node14 -->
<g id="edge38" class="edge">
<title>Node24&#45;&gt;Node14</title>
<path fill="none" stroke="midnightblue" d="M48.51,-112.32C66.07,-103.62 93.33,-90.12 113.53,-80.11"/>
<polygon fill="midnightblue" stroke="midnightblue" points="115.12,-83.23 122.53,-75.65 112.02,-76.96 115.12,-83.23"/>
</g>
<!-- Node25&#45;&gt;Node6 -->
<g id="edge41" class="edge">
<title>Node25&#45;&gt;Node6</title>
<path fill="none" stroke="midnightblue" d="M210.46,-173.98C188.16,-166.11 157.58,-152.5 137,-132 117.28,-112.36 115.39,-103.08 109,-76 106.96,-67.35 103.9,-63.28 109,-56 128.78,-27.77 168.17,-17.18 197.27,-13.25"/>
<polygon fill="midnightblue" stroke="midnightblue" points="197.93,-16.69 207.47,-12.08 197.13,-9.74 197.93,-16.69"/>
</g>
<!-- Node25&#45;&gt;Node19 -->
<g id="edge42" class="edge">
<title>Node25&#45;&gt;Node19</title>
<path fill="none" stroke="midnightblue" d="M239,-173.98C239,-165.58 239,-152.48 239,-141.66"/>
<polygon fill="midnightblue" stroke="midnightblue" points="242.5,-141.51 239,-131.51 235.5,-141.51 242.5,-141.51"/>
</g>
<!-- Node26&#45;&gt;Node4 -->
<g id="edge44" class="edge">
<title>Node26&#45;&gt;Node4</title>
<path fill="none" stroke="midnightblue" d="M744.71,-291.39C736.42,-283.02 724.86,-269.48 720,-255 713.95,-236.95 722.56,-216.23 730.92,-201.95"/>
<polygon fill="midnightblue" stroke="midnightblue" points="734.07,-203.51 736.48,-193.2 728.16,-199.76 734.07,-203.51"/>
</g>
<!-- Node26&#45;&gt;Node8 -->
<g id="edge45" class="edge">
<title>Node26&#45;&gt;Node8</title>
<path fill="none" stroke="midnightblue" d="M797.26,-291.44C845.18,-281.96 922.48,-266.67 974,-256.48"/>
<polygon fill="midnightblue" stroke="midnightblue" points="974.81,-259.89 983.94,-254.52 973.46,-253.02 974.81,-259.89"/>
</g>
<!-- Node26&#45;&gt;Node9 -->
<g id="edge46" class="edge">
<title>Node26&#45;&gt;Node9</title>
<path fill="none" stroke="midnightblue" d="M762.75,-291.08C770.47,-283.22 781.9,-271.57 791.22,-262.08"/>
<polygon fill="midnightblue" stroke="midnightblue" points="793.9,-264.34 798.41,-254.75 788.91,-259.44 793.9,-264.34"/>
</g>
<!-- Node26&#45;&gt;Node10 -->
<g id="edge48" class="edge">
<title>Node26&#45;&gt;Node10</title>
<path fill="none" stroke="midnightblue" d="M675.72,-295.35C610.22,-289.86 523.52,-278.34 498,-255 483.85,-242.06 479.79,-219.79 478.83,-203.74"/>
<polygon fill="midnightblue" stroke="midnightblue" points="482.32,-203.29 478.59,-193.38 475.33,-203.46 482.32,-203.29"/>
</g>
<!-- Node26&#45;&gt;Node13 -->
<g id="edge50" class="edge">
<title>Node26&#45;&gt;Node13</title>
<path fill="none" stroke="midnightblue" d="M742.81,-291.47C716.3,-270.19 653.88,-213.22 682,-168 701.1,-137.28 735.9,-162.72 755,-132 759.69,-124.45 759.95,-119.38 755,-112 737.51,-85.95 701.99,-74.97 676.03,-70.35"/>
<polygon fill="midnightblue" stroke="midnightblue" points="676.34,-66.85 665.92,-68.78 675.26,-73.77 676.34,-66.85"/>
</g>
<!-- Node26&#45;&gt;Node16 -->
<g id="edge49" class="edge">
<title>Node26&#45;&gt;Node16</title>
<path fill="none" stroke="midnightblue" d="M789.53,-291.45C818.46,-283.81 859.92,-271.33 894,-255 914.4,-245.23 964.87,-216.66 979,-199 1021.08,-146.39 1040.08,-66.18 1046.87,-29.94"/>
<polygon fill="midnightblue" stroke="midnightblue" points="1050.37,-30.27 1048.66,-19.81 1043.47,-29.05 1050.37,-30.27"/>
</g>
<!-- Node27 -->
<g id="node27" class="node">
<title>Node27</title>
<g id="a_node27"><a xlink:href="BulletType_8hpp.html" target="_top" xlink:title=" ">
<polygon fill="none" stroke="black" points="507,-235.5 507,-254.5 635,-254.5 635,-235.5 507,-235.5"/>
<text text-anchor="middle" x="571" y="-242.5" font-family="Helvetica,sans-Serif" font-size="10.00">../../Enums/BulletType.hpp</text>
</a>
</g>
</g>
<!-- Node26&#45;&gt;Node27 -->
<g id="edge47" class="edge">
<title>Node26&#45;&gt;Node27</title>
<path fill="none" stroke="midnightblue" d="M725,-291.44C693.82,-282.24 644.07,-267.56 609.59,-257.39"/>
<polygon fill="midnightblue" stroke="midnightblue" points="610.44,-253.99 599.86,-254.52 608.46,-260.7 610.44,-253.99"/>
</g>
<!-- Node28&#45;&gt;Node6 -->
<g id="edge52" class="edge">
<title>Node28&#45;&gt;Node6</title>
<path fill="none" stroke="midnightblue" d="M913.15,-168.44C940.89,-155 972.74,-133.64 955,-112 910.81,-58.1 408.18,-22.18 268.7,-13.2"/>
<polygon fill="midnightblue" stroke="midnightblue" points="268.76,-9.7 258.55,-12.56 268.31,-16.69 268.76,-9.7"/>
</g>
<!-- Node28&#45;&gt;Node19 -->
<g id="edge53" class="edge">
<title>Node28&#45;&gt;Node19</title>
<path fill="none" stroke="midnightblue" d="M813.22,-169.35C810.11,-168.87 807.02,-168.41 804,-168 754.34,-161.24 425.88,-136.74 293.83,-127.02"/>
<polygon fill="midnightblue" stroke="midnightblue" points="293.77,-123.5 283.54,-126.26 293.26,-130.48 293.77,-123.5"/>
</g>
<!-- Node29 -->
<g id="node29" class="node">
<title>Node29</title>
<g id="a_node29"><a xlink:href="AudioSource_8hpp.html" target="_top" xlink:title=" ">
<polygon fill="none" stroke="black" points="656,-112.5 656,-131.5 746,-131.5 746,-112.5 656,-112.5"/>
<text text-anchor="middle" x="701" y="-119.5" font-family="Helvetica,sans-Serif" font-size="10.00">AudioSource.hpp</text>
</a>
</g>
</g>
<!-- Node28&#45;&gt;Node29 -->
<g id="edge54" class="edge">
<title>Node28&#45;&gt;Node29</title>
<path fill="none" stroke="midnightblue" d="M836.82,-168.4C806.19,-158.16 765.23,-144.47 736.33,-134.81"/>
<polygon fill="midnightblue" stroke="midnightblue" points="737.23,-131.42 726.64,-131.57 735.02,-138.06 737.23,-131.42"/>
</g>
<!-- Node30 -->
<g id="node30" class="node">
<title>Node30</title>
<g id="a_node30"><a xlink:href="AudioClipName_8hpp.html" target="_top" xlink:title=" ">
<polygon fill="none" stroke="black" points="802.5,-112.5 802.5,-131.5 945.5,-131.5 945.5,-112.5 802.5,-112.5"/>
<text text-anchor="middle" x="874" y="-119.5" font-family="Helvetica,sans-Serif" font-size="10.00">../Enums/AudioClipName.hpp</text>
</a>
</g>
</g>
<!-- Node28&#45;&gt;Node30 -->
<g id="edge57" class="edge">
<title>Node28&#45;&gt;Node30</title>
<path fill="none" stroke="midnightblue" d="M877.82,-168.4C877.15,-160.47 876.31,-150.46 875.58,-141.86"/>
<polygon fill="midnightblue" stroke="midnightblue" points="879.05,-141.33 874.73,-131.66 872.08,-141.92 879.05,-141.33"/>
</g>
<!-- Node29&#45;&gt;Node5 -->
<g id="edge55" class="edge">
<title>Node29&#45;&gt;Node5</title>
<path fill="none" stroke="midnightblue" d="M655.94,-112.92C601.48,-103.15 510,-86.74 452.44,-76.41"/>
<polygon fill="midnightblue" stroke="midnightblue" points="452.91,-72.94 442.45,-74.62 451.67,-79.83 452.91,-72.94"/>
</g>
<!-- Node29&#45;&gt;Node13 -->
<g id="edge56" class="edge">
<title>Node29&#45;&gt;Node13</title>
<path fill="none" stroke="midnightblue" d="M692,-112.32C683.81,-104.42 671.49,-92.55 661.53,-82.94"/>
<polygon fill="midnightblue" stroke="midnightblue" points="663.79,-80.26 654.16,-75.83 658.93,-85.29 663.79,-80.26"/>
</g>
</g>
</svg>
