<?xml version="1.0" encoding="UTF-8" standalone="no"?>
<!DOCTYPE svg PUBLIC "-//W3C//DTD SVG 1.1//EN"
 "http://www.w3.org/Graphics/SVG/1.1/DTD/svg11.dtd">
<!-- Generated by graphviz version 2.44.0 ()
 -->
<!-- Title: src/Scripts/Enemies/EnemyMedicBehaviour.cpp Pages: 1 -->
<svg width="858pt" height="375pt"
 viewBox="0.00 0.00 857.50 375.00" xmlns="http://www.w3.org/2000/svg" xmlns:xlink="http://www.w3.org/1999/xlink">
<g id="graph0" class="graph" transform="scale(1 1) rotate(0) translate(4 371)">
<title>src/Scripts/Enemies/EnemyMedicBehaviour.cpp</title>
<!-- Node1 -->
<g id="node1" class="node">
<title>Node1</title>
<g id="a_node1"><a xlink:title=" ">
<polygon fill="#bfbfbf" stroke="black" points="527.5,-336.5 527.5,-366.5 664.5,-366.5 664.5,-336.5 527.5,-336.5"/>
<text text-anchor="start" x="535.5" y="-354.5" font-family="Helvetica,sans-Serif" font-size="10.00">src/Scripts/Enemies</text>
<text text-anchor="middle" x="596" y="-343.5" font-family="Helvetica,sans-Serif" font-size="10.00">/EnemyMedicBehaviour.cpp</text>
</a>
</g>
</g>
<!-- Node2 -->
<g id="node2" class="node">
<title>Node2</title>
<g id="a_node2"><a xlink:href="EnemyMedicBehaviour_8hpp.html" target="_top" xlink:title=" ">
<polygon fill="none" stroke="black" points="345,-280.5 345,-299.5 479,-299.5 479,-280.5 345,-280.5"/>
<text text-anchor="middle" x="412" y="-287.5" font-family="Helvetica,sans-Serif" font-size="10.00">EnemyMedicBehaviour.hpp</text>
</a>
</g>
</g>
<!-- Node1&#45;&gt;Node2 -->
<g id="edge1" class="edge">
<title>Node1&#45;&gt;Node2</title>
<path fill="none" stroke="midnightblue" d="M552.39,-336.4C520.6,-326.12 478.03,-312.35 448.13,-302.68"/>
<polygon fill="midnightblue" stroke="midnightblue" points="449.1,-299.32 438.51,-299.57 446.94,-305.98 449.1,-299.32"/>
</g>
<!-- Node12 -->
<g id="node12" class="node">
<title>Node12</title>
<g id="a_node12"><a xlink:title=" ">
<polygon fill="none" stroke="#bfbfbf" points="548,-112.5 548,-131.5 592,-131.5 592,-112.5 548,-112.5"/>
<text text-anchor="middle" x="570" y="-119.5" font-family="Helvetica,sans-Serif" font-size="10.00">vector</text>
</a>
</g>
</g>
<!-- Node1&#45;&gt;Node12 -->
<g id="edge41" class="edge">
<title>Node1&#45;&gt;Node12</title>
<path fill="none" stroke="midnightblue" d="M594.77,-336.27C592.04,-305.52 585.12,-230.55 577,-168 575.87,-159.27 574.39,-149.62 573.09,-141.5"/>
<polygon fill="midnightblue" stroke="midnightblue" points="576.54,-140.91 571.47,-131.61 569.64,-142.04 576.54,-140.91"/>
</g>
<!-- Node13 -->
<g id="node13" class="node">
<title>Node13</title>
<g id="a_node13"><a xlink:href="HealthBehaviour_8hpp.html" target="_top" xlink:title=" ">
<polygon fill="none" stroke="black" points="0,-224.5 0,-243.5 156,-243.5 156,-224.5 0,-224.5"/>
<text text-anchor="middle" x="78" y="-231.5" font-family="Helvetica,sans-Serif" font-size="10.00">../Common/HealthBehaviour.hpp</text>
</a>
</g>
</g>
<!-- Node1&#45;&gt;Node13 -->
<g id="edge17" class="edge">
<title>Node1&#45;&gt;Node13</title>
<path fill="none" stroke="midnightblue" d="M527.36,-338.23C474.82,-328.58 400.63,-314.41 336,-300 259.23,-282.89 170.45,-259.78 119.6,-246.23"/>
<polygon fill="midnightblue" stroke="midnightblue" points="120.21,-242.77 109.64,-243.57 118.4,-249.53 120.21,-242.77"/>
</g>
<!-- Node17 -->
<g id="node17" class="node">
<title>Node17</title>
<g id="a_node17"><a xlink:href="GameObjectUtil_8hpp.html" target="_top" xlink:title=" ">
<polygon fill="none" stroke="black" points="624.5,-224.5 624.5,-243.5 767.5,-243.5 767.5,-224.5 624.5,-224.5"/>
<text text-anchor="middle" x="696" y="-231.5" font-family="Helvetica,sans-Serif" font-size="10.00">../../Utils/GameObjectUtil.hpp</text>
</a>
</g>
</g>
<!-- Node1&#45;&gt;Node17 -->
<g id="edge28" class="edge">
<title>Node1&#45;&gt;Node17</title>
<path fill="none" stroke="midnightblue" d="M606.81,-336.44C618.04,-322.01 636.27,-299.03 653,-280 661.65,-270.16 671.75,-259.55 679.99,-251.1"/>
<polygon fill="midnightblue" stroke="midnightblue" points="682.69,-253.34 687.21,-243.76 677.7,-248.44 682.69,-253.34"/>
</g>
<!-- Node18 -->
<g id="node18" class="node">
<title>Node18</title>
<g id="a_node18"><a xlink:href="PointUtil_8hpp.html" target="_top" xlink:title=" ">
<polygon fill="none" stroke="black" points="662,-280.5 662,-299.5 772,-299.5 772,-280.5 662,-280.5"/>
<text text-anchor="middle" x="717" y="-287.5" font-family="Helvetica,sans-Serif" font-size="10.00">../../Utils/PointUtil.hpp</text>
</a>
</g>
</g>
<!-- Node1&#45;&gt;Node18 -->
<g id="edge31" class="edge">
<title>Node1&#45;&gt;Node18</title>
<path fill="none" stroke="midnightblue" d="M624.68,-336.4C644.52,-326.64 670.76,-313.74 690.19,-304.18"/>
<polygon fill="midnightblue" stroke="midnightblue" points="691.96,-307.21 699.39,-299.66 688.88,-300.93 691.96,-307.21"/>
</g>
<!-- Node19 -->
<g id="node19" class="node">
<title>Node19</title>
<g id="a_node19"><a xlink:href="Engine_8hpp.html" target="_top" xlink:title=" ">
<polygon fill="none" stroke="black" points="466,-224.5 466,-243.5 530,-243.5 530,-224.5 466,-224.5"/>
<text text-anchor="middle" x="498" y="-231.5" font-family="Helvetica,sans-Serif" font-size="10.00">Engine.hpp</text>
</a>
</g>
</g>
<!-- Node1&#45;&gt;Node19 -->
<g id="edge33" class="edge">
<title>Node1&#45;&gt;Node19</title>
<path fill="none" stroke="midnightblue" d="M583.98,-336.34C565.76,-314.86 531.24,-274.17 511.94,-251.43"/>
<polygon fill="midnightblue" stroke="midnightblue" points="514.49,-249.03 505.36,-243.67 509.16,-253.56 514.49,-249.03"/>
</g>
<!-- Node23 -->
<g id="node23" class="node">
<title>Node23</title>
<g id="a_node23"><a xlink:title=" ">
<polygon fill="none" stroke="#bfbfbf" points="790.5,-280.5 790.5,-299.5 849.5,-299.5 849.5,-280.5 790.5,-280.5"/>
<text text-anchor="middle" x="820" y="-287.5" font-family="Helvetica,sans-Serif" font-size="10.00">stdexcept</text>
</a>
</g>
</g>
<!-- Node1&#45;&gt;Node23 -->
<g id="edge40" class="edge">
<title>Node1&#45;&gt;Node23</title>
<path fill="none" stroke="midnightblue" d="M648.8,-336.47C689.12,-325.77 743.79,-311.24 780.41,-301.52"/>
<polygon fill="midnightblue" stroke="midnightblue" points="781.46,-304.86 790.23,-298.91 779.66,-298.09 781.46,-304.86"/>
</g>
<!-- Node3 -->
<g id="node3" class="node">
<title>Node3</title>
<g id="a_node3"><a xlink:href="CoolDownBehaviour_8hpp.html" target="_top" xlink:title=" ">
<polygon fill="none" stroke="black" points="212,-224.5 212,-243.5 384,-243.5 384,-224.5 212,-224.5"/>
<text text-anchor="middle" x="298" y="-231.5" font-family="Helvetica,sans-Serif" font-size="10.00">../Common/CoolDownBehaviour.hpp</text>
</a>
</g>
</g>
<!-- Node2&#45;&gt;Node3 -->
<g id="edge2" class="edge">
<title>Node2&#45;&gt;Node3</title>
<path fill="none" stroke="midnightblue" d="M393.94,-280.44C375.43,-271.68 346.42,-257.94 325.14,-247.86"/>
<polygon fill="midnightblue" stroke="midnightblue" points="326.51,-244.63 315.98,-243.52 323.52,-250.96 326.51,-244.63"/>
</g>
<!-- Node4 -->
<g id="node4" class="node">
<title>Node4</title>
<g id="a_node4"><a xlink:href="BehaviourScript_8hpp.html" target="_top" xlink:title=" ">
<polygon fill="none" stroke="black" points="197,-168.5 197,-187.5 301,-187.5 301,-168.5 197,-168.5"/>
<text text-anchor="middle" x="249" y="-175.5" font-family="Helvetica,sans-Serif" font-size="10.00">BehaviourScript.hpp</text>
</a>
</g>
</g>
<!-- Node2&#45;&gt;Node4 -->
<g id="edge8" class="edge">
<title>Node2&#45;&gt;Node4</title>
<path fill="none" stroke="midnightblue" d="M344.79,-283.56C290.62,-277.62 220.66,-265.87 203,-244 189.56,-227.36 209.16,-207.1 226.78,-193.67"/>
<polygon fill="midnightblue" stroke="midnightblue" points="229.04,-196.35 235.11,-187.67 224.95,-190.67 229.04,-196.35"/>
</g>
<!-- Node6 -->
<g id="node6" class="node">
<title>Node6</title>
<g id="a_node6"><a xlink:title=" ">
<polygon fill="none" stroke="#bfbfbf" points="342.5,-0.5 342.5,-19.5 393.5,-19.5 393.5,-0.5 342.5,-0.5"/>
<text text-anchor="middle" x="368" y="-7.5" font-family="Helvetica,sans-Serif" font-size="10.00">memory</text>
</a>
</g>
</g>
<!-- Node2&#45;&gt;Node6 -->
<g id="edge16" class="edge">
<title>Node2&#45;&gt;Node6</title>
<path fill="none" stroke="midnightblue" d="M409.59,-280.43C404.81,-263.1 394.05,-222.62 388,-188 378,-130.75 371.91,-62.17 369.37,-29.75"/>
<polygon fill="midnightblue" stroke="midnightblue" points="372.84,-29.23 368.6,-19.53 365.86,-29.76 372.84,-29.23"/>
</g>
<!-- Node8 -->
<g id="node8" class="node">
<title>Node8</title>
<g id="a_node8"><a xlink:href="GameObject_8hpp.html" target="_top" xlink:title=" ">
<polygon fill="none" stroke="black" points="624.5,-168.5 624.5,-187.5 713.5,-187.5 713.5,-168.5 624.5,-168.5"/>
<text text-anchor="middle" x="669" y="-175.5" font-family="Helvetica,sans-Serif" font-size="10.00">GameObject.hpp</text>
</a>
</g>
</g>
<!-- Node2&#45;&gt;Node8 -->
<g id="edge9" class="edge">
<title>Node2&#45;&gt;Node8</title>
<path fill="none" stroke="midnightblue" d="M439.13,-280.46C465.09,-272.04 505.2,-258.37 539,-244 576.47,-228.06 618.36,-206.39 644.21,-192.54"/>
<polygon fill="midnightblue" stroke="midnightblue" points="646.15,-195.48 653.29,-187.65 642.82,-189.31 646.15,-195.48"/>
</g>
<!-- Node3&#45;&gt;Node4 -->
<g id="edge3" class="edge">
<title>Node3&#45;&gt;Node4</title>
<path fill="none" stroke="midnightblue" d="M289.91,-224.08C282.84,-216.3 272.41,-204.8 263.85,-195.37"/>
<polygon fill="midnightblue" stroke="midnightblue" points="266.25,-192.8 256.94,-187.75 261.07,-197.51 266.25,-192.8"/>
</g>
<!-- Node5 -->
<g id="node5" class="node">
<title>Node5</title>
<g id="a_node5"><a xlink:href="Component_8hpp.html" target="_top" xlink:title=" ">
<polygon fill="none" stroke="black" points="229,-56.5 229,-75.5 313,-75.5 313,-56.5 229,-56.5"/>
<text text-anchor="middle" x="271" y="-63.5" font-family="Helvetica,sans-Serif" font-size="10.00">Component.hpp</text>
</a>
</g>
</g>
<!-- Node4&#45;&gt;Node5 -->
<g id="edge4" class="edge">
<title>Node4&#45;&gt;Node5</title>
<path fill="none" stroke="midnightblue" d="M250.73,-168.37C254.28,-150.62 262.47,-109.67 267.28,-85.6"/>
<polygon fill="midnightblue" stroke="midnightblue" points="270.75,-86.08 269.28,-75.59 263.89,-84.71 270.75,-86.08"/>
</g>
<!-- Node7 -->
<g id="node7" class="node">
<title>Node7</title>
<g id="a_node7"><a xlink:href="Collider_8hpp.html" target="_top" xlink:title=" ">
<polygon fill="none" stroke="black" points="272.5,-112.5 272.5,-131.5 339.5,-131.5 339.5,-112.5 272.5,-112.5"/>
<text text-anchor="middle" x="306" y="-119.5" font-family="Helvetica,sans-Serif" font-size="10.00">Collider.hpp</text>
</a>
</g>
</g>
<!-- Node4&#45;&gt;Node7 -->
<g id="edge6" class="edge">
<title>Node4&#45;&gt;Node7</title>
<path fill="none" stroke="midnightblue" d="M258.16,-168.32C266.5,-160.42 279.03,-148.55 289.18,-138.94"/>
<polygon fill="midnightblue" stroke="midnightblue" points="291.82,-141.25 296.68,-131.83 287.01,-136.17 291.82,-141.25"/>
</g>
<!-- Node5&#45;&gt;Node6 -->
<g id="edge5" class="edge">
<title>Node5&#45;&gt;Node6</title>
<path fill="none" stroke="midnightblue" d="M286.58,-56.32C302,-47.74 325.81,-34.49 343.71,-24.52"/>
<polygon fill="midnightblue" stroke="midnightblue" points="345.42,-27.58 352.45,-19.65 342.01,-21.46 345.42,-27.58"/>
</g>
<!-- Node7&#45;&gt;Node5 -->
<g id="edge7" class="edge">
<title>Node7&#45;&gt;Node5</title>
<path fill="none" stroke="midnightblue" d="M300.22,-112.08C295.33,-104.53 288.17,-93.49 282.17,-84.23"/>
<polygon fill="midnightblue" stroke="midnightblue" points="285.05,-82.24 276.67,-75.75 279.17,-86.05 285.05,-82.24"/>
</g>
<!-- Node8&#45;&gt;Node5 -->
<g id="edge10" class="edge">
<title>Node8&#45;&gt;Node5</title>
<path fill="none" stroke="midnightblue" d="M663.01,-168.5C652.37,-154.14 628.66,-125.33 601,-112 553.15,-88.93 403.97,-75.8 323.58,-70.22"/>
<polygon fill="midnightblue" stroke="midnightblue" points="323.4,-66.7 313.19,-69.51 322.93,-73.68 323.4,-66.7"/>
</g>
<!-- Node8&#45;&gt;Node6 -->
<g id="edge15" class="edge">
<title>Node8&#45;&gt;Node6</title>
<path fill="none" stroke="midnightblue" d="M669.79,-168.26C670.53,-154.57 669.89,-127.98 656,-112 590.45,-36.58 465.18,-17.47 403.76,-12.63"/>
<polygon fill="midnightblue" stroke="midnightblue" points="403.98,-9.14 393.76,-11.93 403.49,-16.12 403.98,-9.14"/>
</g>
<!-- Node9 -->
<g id="node9" class="node">
<title>Node9</title>
<g id="a_node9"><a xlink:href="Transform_8hpp.html" target="_top" xlink:title=" ">
<polygon fill="none" stroke="black" points="724.5,-112.5 724.5,-131.5 803.5,-131.5 803.5,-112.5 724.5,-112.5"/>
<text text-anchor="middle" x="764" y="-119.5" font-family="Helvetica,sans-Serif" font-size="10.00">Transform.hpp</text>
</a>
</g>
</g>
<!-- Node8&#45;&gt;Node9 -->
<g id="edge11" class="edge">
<title>Node8&#45;&gt;Node9</title>
<path fill="none" stroke="midnightblue" d="M684.26,-168.32C699.22,-159.82 722.25,-146.73 739.73,-136.8"/>
<polygon fill="midnightblue" stroke="midnightblue" points="741.81,-139.64 748.77,-131.65 738.35,-133.55 741.81,-139.64"/>
</g>
<!-- Node11 -->
<g id="node11" class="node">
<title>Node11</title>
<g id="a_node11"><a xlink:title=" ">
<polygon fill="none" stroke="#bfbfbf" points="423.5,-56.5 423.5,-75.5 464.5,-75.5 464.5,-56.5 423.5,-56.5"/>
<text text-anchor="middle" x="444" y="-63.5" font-family="Helvetica,sans-Serif" font-size="10.00">string</text>
</a>
</g>
</g>
<!-- Node8&#45;&gt;Node11 -->
<g id="edge13" class="edge">
<title>Node8&#45;&gt;Node11</title>
<path fill="none" stroke="midnightblue" d="M666.82,-168.33C662.82,-154.25 652.91,-126.52 634,-112 586.85,-75.81 515.16,-68.08 474.66,-66.81"/>
<polygon fill="midnightblue" stroke="midnightblue" points="474.66,-63.31 464.59,-66.6 474.52,-70.31 474.66,-63.31"/>
</g>
<!-- Node8&#45;&gt;Node12 -->
<g id="edge14" class="edge">
<title>Node8&#45;&gt;Node12</title>
<path fill="none" stroke="midnightblue" d="M653.09,-168.32C637.36,-159.74 613.06,-146.49 594.79,-136.52"/>
<polygon fill="midnightblue" stroke="midnightblue" points="596.32,-133.37 585.87,-131.65 592.97,-139.52 596.32,-133.37"/>
</g>
<!-- Node10 -->
<g id="node10" class="node">
<title>Node10</title>
<g id="a_node10"><a xlink:href="Point_8hpp.html" target="_top" xlink:title=" ">
<polygon fill="none" stroke="black" points="740.5,-56.5 740.5,-75.5 797.5,-75.5 797.5,-56.5 740.5,-56.5"/>
<text text-anchor="middle" x="769" y="-63.5" font-family="Helvetica,sans-Serif" font-size="10.00">Point.hpp</text>
</a>
</g>
</g>
<!-- Node9&#45;&gt;Node10 -->
<g id="edge12" class="edge">
<title>Node9&#45;&gt;Node10</title>
<path fill="none" stroke="midnightblue" d="M764.83,-112.08C765.48,-105.01 766.42,-94.86 767.24,-85.99"/>
<polygon fill="midnightblue" stroke="midnightblue" points="770.75,-86.03 768.19,-75.75 763.78,-85.39 770.75,-86.03"/>
</g>
<!-- Node13&#45;&gt;Node4 -->
<g id="edge18" class="edge">
<title>Node13&#45;&gt;Node4</title>
<path fill="none" stroke="midnightblue" d="M105.1,-224.44C133.99,-215.32 179.92,-200.81 212.11,-190.65"/>
<polygon fill="midnightblue" stroke="midnightblue" points="213.55,-193.87 222.03,-187.52 211.44,-187.19 213.55,-193.87"/>
</g>
<!-- Node13&#45;&gt;Node6 -->
<g id="edge19" class="edge">
<title>Node13&#45;&gt;Node6</title>
<path fill="none" stroke="midnightblue" d="M75.88,-224.13C69.58,-195.39 54.15,-103.85 100,-56 131.31,-23.33 266.17,-14.35 331.82,-11.91"/>
<polygon fill="midnightblue" stroke="midnightblue" points="332.23,-15.39 342.11,-11.56 331.99,-8.4 332.23,-15.39"/>
</g>
<!-- Node14 -->
<g id="node14" class="node">
<title>Node14</title>
<g id="a_node14"><a xlink:href="Animator_8hpp.html" target="_top" xlink:title=" ">
<polygon fill="none" stroke="black" points="105,-168.5 105,-187.5 179,-187.5 179,-168.5 105,-168.5"/>
<text text-anchor="middle" x="142" y="-175.5" font-family="Helvetica,sans-Serif" font-size="10.00">Animator.hpp</text>
</a>
</g>
</g>
<!-- Node13&#45;&gt;Node14 -->
<g id="edge20" class="edge">
<title>Node13&#45;&gt;Node14</title>
<path fill="none" stroke="midnightblue" d="M88.28,-224.32C97.84,-216.26 112.28,-204.08 123.78,-194.37"/>
<polygon fill="midnightblue" stroke="midnightblue" points="126.14,-196.96 131.53,-187.83 121.63,-191.61 126.14,-196.96"/>
</g>
<!-- Node14&#45;&gt;Node5 -->
<g id="edge21" class="edge">
<title>Node14&#45;&gt;Node5</title>
<path fill="none" stroke="midnightblue" d="M152.12,-168.37C173.98,-149.73 225.81,-105.53 253.25,-82.13"/>
<polygon fill="midnightblue" stroke="midnightblue" points="255.59,-84.74 260.92,-75.59 251.04,-79.42 255.59,-84.74"/>
</g>
<!-- Node14&#45;&gt;Node6 -->
<g id="edge27" class="edge">
<title>Node14&#45;&gt;Node6</title>
<path fill="none" stroke="midnightblue" d="M132.98,-168.34C124.93,-159.93 113.7,-146.36 109,-132 103.71,-115.84 96.67,-71.57 110,-56 138.29,-22.95 268.43,-14.17 332.36,-11.84"/>
<polygon fill="midnightblue" stroke="midnightblue" points="332.51,-15.33 342.39,-11.51 332.28,-8.34 332.51,-15.33"/>
</g>
<!-- Node14&#45;&gt;Node12 -->
<g id="edge26" class="edge">
<title>Node14&#45;&gt;Node12</title>
<path fill="none" stroke="midnightblue" d="M179.11,-169.48C182.11,-168.95 185.11,-168.45 188,-168 326.37,-146.54 362.01,-149.06 501,-132 513.03,-130.52 526.22,-128.82 537.82,-127.3"/>
<polygon fill="midnightblue" stroke="midnightblue" points="538.49,-130.74 547.95,-125.96 537.58,-123.8 538.49,-130.74"/>
</g>
<!-- Node15 -->
<g id="node15" class="node">
<title>Node15</title>
<g id="a_node15"><a xlink:href="Sprite_8hpp.html" target="_top" xlink:title=" ">
<polygon fill="none" stroke="black" points="118,-112.5 118,-131.5 178,-131.5 178,-112.5 118,-112.5"/>
<text text-anchor="middle" x="148" y="-119.5" font-family="Helvetica,sans-Serif" font-size="10.00">Sprite.hpp</text>
</a>
</g>
</g>
<!-- Node14&#45;&gt;Node15 -->
<g id="edge22" class="edge">
<title>Node14&#45;&gt;Node15</title>
<path fill="none" stroke="midnightblue" d="M142.99,-168.08C143.79,-160.93 144.93,-150.64 145.92,-141.69"/>
<polygon fill="midnightblue" stroke="midnightblue" points="149.4,-142.08 147.03,-131.75 142.44,-141.3 149.4,-142.08"/>
</g>
<!-- Node15&#45;&gt;Node5 -->
<g id="edge23" class="edge">
<title>Node15&#45;&gt;Node5</title>
<path fill="none" stroke="midnightblue" d="M167.49,-112.44C187.64,-103.6 219.32,-89.69 242.33,-79.59"/>
<polygon fill="midnightblue" stroke="midnightblue" points="243.85,-82.74 251.6,-75.52 241.04,-76.33 243.85,-82.74"/>
</g>
<!-- Node15&#45;&gt;Node11 -->
<g id="edge25" class="edge">
<title>Node15&#45;&gt;Node11</title>
<path fill="none" stroke="midnightblue" d="M178.01,-115.53C234.6,-105.2 356.5,-82.96 413.48,-72.57"/>
<polygon fill="midnightblue" stroke="midnightblue" points="414.13,-76.01 423.34,-70.77 412.87,-69.12 414.13,-76.01"/>
</g>
<!-- Node16 -->
<g id="node16" class="node">
<title>Node16</title>
<g id="a_node16"><a xlink:href="Color_8hpp.html" target="_top" xlink:title=" ">
<polygon fill="none" stroke="black" points="119.5,-56.5 119.5,-75.5 176.5,-75.5 176.5,-56.5 119.5,-56.5"/>
<text text-anchor="middle" x="148" y="-63.5" font-family="Helvetica,sans-Serif" font-size="10.00">Color.hpp</text>
</a>
</g>
</g>
<!-- Node15&#45;&gt;Node16 -->
<g id="edge24" class="edge">
<title>Node15&#45;&gt;Node16</title>
<path fill="none" stroke="midnightblue" d="M148,-112.08C148,-105.01 148,-94.86 148,-85.99"/>
<polygon fill="midnightblue" stroke="midnightblue" points="151.5,-85.75 148,-75.75 144.5,-85.75 151.5,-85.75"/>
</g>
<!-- Node17&#45;&gt;Node6 -->
<g id="edge29" class="edge">
<title>Node17&#45;&gt;Node6</title>
<path fill="none" stroke="midnightblue" d="M713.24,-224.42C740.44,-209.78 792.34,-177.14 813,-132 820.93,-114.68 820.38,-69.32 807,-56 778.61,-27.74 503.64,-15.62 403.9,-12.13"/>
<polygon fill="midnightblue" stroke="midnightblue" points="403.83,-8.63 393.72,-11.78 403.59,-15.62 403.83,-8.63"/>
</g>
<!-- Node17&#45;&gt;Node8 -->
<g id="edge30" class="edge">
<title>Node17&#45;&gt;Node8</title>
<path fill="none" stroke="midnightblue" d="M691.54,-224.08C687.85,-216.69 682.48,-205.95 677.91,-196.81"/>
<polygon fill="midnightblue" stroke="midnightblue" points="680.98,-195.13 673.38,-187.75 674.72,-198.26 680.98,-195.13"/>
</g>
<!-- Node18&#45;&gt;Node10 -->
<g id="edge32" class="edge">
<title>Node18&#45;&gt;Node10</title>
<path fill="none" stroke="midnightblue" d="M733.51,-280.42C747.01,-272.62 765.67,-259.91 777,-244 807.34,-201.42 804.9,-183.66 813,-132 814.38,-123.22 816.36,-120.23 813,-112 808.2,-100.23 798.67,-89.86 789.71,-82.05"/>
<polygon fill="midnightblue" stroke="midnightblue" points="791.75,-79.2 781.78,-75.63 787.35,-84.64 791.75,-79.2"/>
</g>
<!-- Node20 -->
<g id="node20" class="node">
<title>Node20</title>
<g id="a_node20"><a xlink:href="EngineConfig_8hpp.html" target="_top" xlink:title=" ">
<polygon fill="none" stroke="black" points="396.5,-168.5 396.5,-187.5 487.5,-187.5 487.5,-168.5 396.5,-168.5"/>
<text text-anchor="middle" x="442" y="-175.5" font-family="Helvetica,sans-Serif" font-size="10.00">EngineConfig.hpp</text>
</a>
</g>
</g>
<!-- Node19&#45;&gt;Node20 -->
<g id="edge34" class="edge">
<title>Node19&#45;&gt;Node20</title>
<path fill="none" stroke="midnightblue" d="M489,-224.32C480.81,-216.42 468.49,-204.55 458.53,-194.94"/>
<polygon fill="midnightblue" stroke="midnightblue" points="460.79,-192.26 451.16,-187.83 455.93,-197.29 460.79,-192.26"/>
</g>
<!-- Node22 -->
<g id="node22" class="node">
<title>Node22</title>
<g id="a_node22"><a xlink:href="Scene_8hpp.html" target="_top" xlink:title=" ">
<polygon fill="none" stroke="black" points="506,-168.5 506,-187.5 568,-187.5 568,-168.5 506,-168.5"/>
<text text-anchor="middle" x="537" y="-175.5" font-family="Helvetica,sans-Serif" font-size="10.00">Scene.hpp</text>
</a>
</g>
</g>
<!-- Node19&#45;&gt;Node22 -->
<g id="edge37" class="edge">
<title>Node19&#45;&gt;Node22</title>
<path fill="none" stroke="midnightblue" d="M504.44,-224.08C509.95,-216.46 518.03,-205.26 524.76,-195.94"/>
<polygon fill="midnightblue" stroke="midnightblue" points="527.66,-197.91 530.68,-187.75 521.99,-193.81 527.66,-197.91"/>
</g>
<!-- Node21 -->
<g id="node21" class="node">
<title>Node21</title>
<g id="a_node21"><a xlink:href="WindowConfig_8hpp.html" target="_top" xlink:title=" ">
<polygon fill="none" stroke="black" points="396,-112.5 396,-131.5 492,-131.5 492,-112.5 396,-112.5"/>
<text text-anchor="middle" x="444" y="-119.5" font-family="Helvetica,sans-Serif" font-size="10.00">WindowConfig.hpp</text>
</a>
</g>
</g>
<!-- Node20&#45;&gt;Node21 -->
<g id="edge35" class="edge">
<title>Node20&#45;&gt;Node21</title>
<path fill="none" stroke="midnightblue" d="M442.33,-168.08C442.59,-161.01 442.97,-150.86 443.3,-141.99"/>
<polygon fill="midnightblue" stroke="midnightblue" points="446.8,-141.87 443.68,-131.75 439.81,-141.61 446.8,-141.87"/>
</g>
<!-- Node21&#45;&gt;Node11 -->
<g id="edge36" class="edge">
<title>Node21&#45;&gt;Node11</title>
<path fill="none" stroke="midnightblue" d="M444,-112.08C444,-105.01 444,-94.86 444,-85.99"/>
<polygon fill="midnightblue" stroke="midnightblue" points="447.5,-85.75 444,-75.75 440.5,-85.75 447.5,-85.75"/>
</g>
<!-- Node22&#45;&gt;Node6 -->
<g id="edge39" class="edge">
<title>Node22&#45;&gt;Node6</title>
<path fill="none" stroke="midnightblue" d="M534.74,-168.43C528.6,-146.72 509.65,-88.96 474,-56 454.27,-37.76 426.03,-26.27 403.67,-19.47"/>
<polygon fill="midnightblue" stroke="midnightblue" points="404.43,-16.04 393.85,-16.66 402.51,-22.78 404.43,-16.04"/>
</g>
<!-- Node22&#45;&gt;Node12 -->
<g id="edge38" class="edge">
<title>Node22&#45;&gt;Node12</title>
<path fill="none" stroke="midnightblue" d="M542.45,-168.08C547.01,-160.61 553.67,-149.72 559.29,-140.52"/>
<polygon fill="midnightblue" stroke="midnightblue" points="562.42,-142.11 564.65,-131.75 556.45,-138.46 562.42,-142.11"/>
</g>
</g>
</svg>
