<?xml version="1.0" encoding="UTF-8" standalone="no"?>
<!DOCTYPE svg PUBLIC "-//W3C//DTD SVG 1.1//EN"
 "http://www.w3.org/Graphics/SVG/1.1/DTD/svg11.dtd">
<!-- Generated by graphviz version 2.44.0 ()
 -->
<!-- Title: src/Scripts/Enemies/EnemyMovementBehaviour.cpp Pages: 1 -->
<!--zoomable 431 -->
<svg id="main" version="1.1" xmlns="http://www.w3.org/2000/svg" xmlns:xlink="http://www.w3.org/1999/xlink" xml:space="preserve" onload="init(evt)">
<style type="text/css"><![CDATA[
.edge:hover path { stroke: red; }
.edge:hover polygon { stroke: red; fill: red; }
]]></style>
<script type="text/javascript"><![CDATA[
var edges = document.getElementsByTagName('g');
if (edges && edges.length) {
  for (var i=0;i<edges.length;i++) {
    if (edges[i].id.substr(0,4)=='edge') {
      edges[i].setAttribute('class','edge');
    }
  }
}
]]></script>
        <defs>
                <circle id="rim" cx="0" cy="0" r="7"/>
                <circle id="rim2" cx="0" cy="0" r="3.5"/>
                <g id="zoomPlus">
                        <use xlink:href="#rim" fill="#404040">
                                <set attributeName="fill" to="#808080" begin="zoomplus.mouseover" end="zoomplus.mouseout"/>
                        </use>
                        <path d="M-4,0h8M0,-4v8" fill="none" stroke="white" stroke-width="1.5" pointer-events="none"/>
                </g>
                <g id="zoomMin">
                        <use xlink:href="#rim" fill="#404040">
                                <set attributeName="fill" to="#808080" begin="zoomminus.mouseover" end="zoomminus.mouseout"/>
                        </use>
                        <path d="M-4,0h8" fill="none" stroke="white" stroke-width="1.5" pointer-events="none"/>
                </g>
                <g id="dirArrow">
                        <path fill="none" stroke="white" stroke-width="1.5" d="M0,-3.0v7 M-2.5,-0.5L0,-3.0L2.5,-0.5"/>
                </g>
               <g id="resetDef">
                       <use xlink:href="#rim2" fill="#404040">
                               <set attributeName="fill" to="#808080" begin="reset.mouseover" end="reset.mouseout"/>
                       </use>
               </g>
        </defs>

<script type="text/javascript">
var viewWidth = 1568;
var viewHeight = 431;
var sectionId = 'dynsection-0';
</script>
<script xlink:href="svgpan.js"/>
<svg id="graph" class="graph">
<g id="viewport">
<title>src/Scripts/Enemies/EnemyMovementBehaviour.cpp</title>
<!-- Node1 -->
<g id="node1" class="node">
<title>Node1</title>
<g id="a_node1"><a xlink:title=" ">
<polygon fill="#bfbfbf" stroke="black" points="1154,-392.5 1154,-422.5 1310,-422.5 1310,-392.5 1154,-392.5"/>
<text text-anchor="start" x="1162" y="-410.5" font-family="Helvetica,sans-Serif" font-size="10.00">src/Scripts/Enemies</text>
<text text-anchor="middle" x="1232" y="-399.5" font-family="Helvetica,sans-Serif" font-size="10.00">/EnemyMovementBehaviour.cpp</text>
</a>
</g>
</g>
<!-- Node2 -->
<g id="node2" class="node">
<title>Node2</title>
<g id="a_node2"><a xlink:href="EnemyMovementBehaviour_8hpp.html" target="_top" xlink:title=" ">
<polygon fill="none" stroke="black" points="1189.5,-280.5 1189.5,-299.5 1342.5,-299.5 1342.5,-280.5 1189.5,-280.5"/>
<text text-anchor="middle" x="1266" y="-287.5" font-family="Helvetica,sans-Serif" font-size="10.00">EnemyMovementBehaviour.hpp</text>
</a>
</g>
</g>
<!-- Node1&#45;&gt;Node2 -->
<g id="edge1" class="edge">
<title>Node1&#45;&gt;Node2</title>
<path fill="none" stroke="midnightblue" d="M1235.54,-392.39C1239.19,-378.1 1245.15,-355.42 1251,-336 1253.67,-327.12 1256.9,-317.34 1259.67,-309.17"/>
<polygon fill="midnightblue" stroke="midnightblue" points="1263.03,-310.17 1262.97,-299.58 1256.41,-307.9 1263.03,-310.17"/>
</g>
<!-- Node6 -->
<g id="node6" class="node">
<title>Node6</title>
<g id="a_node6"><a xlink:href="GameObject_8hpp.html" target="_top" xlink:title=" ">
<polygon fill="none" stroke="black" points="892.5,-168.5 892.5,-187.5 981.5,-187.5 981.5,-168.5 892.5,-168.5"/>
<text text-anchor="middle" x="937" y="-175.5" font-family="Helvetica,sans-Serif" font-size="10.00">GameObject.hpp</text>
</a>
</g>
</g>
<!-- Node1&#45;&gt;Node6 -->
<g id="edge78" class="edge">
<title>Node1&#45;&gt;Node6</title>
<path fill="none" stroke="midnightblue" d="M1219.38,-392.13C1197.3,-367.46 1149.55,-316.21 1103,-280 1056.71,-243.99 996.74,-210.31 963.02,-192.41"/>
<polygon fill="midnightblue" stroke="midnightblue" points="964.31,-189.13 953.83,-187.58 961.06,-195.33 964.31,-189.13"/>
</g>
<!-- Node21 -->
<g id="node21" class="node">
<title>Node21</title>
<g id="a_node21"><a xlink:href="LevelController_8hpp.html" target="_top" xlink:title=" ">
<polygon fill="none" stroke="black" points="691,-336.5 691,-355.5 855,-355.5 855,-336.5 691,-336.5"/>
<text text-anchor="middle" x="773" y="-343.5" font-family="Helvetica,sans-Serif" font-size="10.00">../../Controllers/LevelController.hpp</text>
</a>
</g>
</g>
<!-- Node1&#45;&gt;Node21 -->
<g id="edge37" class="edge">
<title>Node1&#45;&gt;Node21</title>
<path fill="none" stroke="midnightblue" d="M1153.88,-396.37C1068.67,-385.33 933.21,-367.77 848.89,-356.84"/>
<polygon fill="midnightblue" stroke="midnightblue" points="849.23,-353.35 838.87,-355.54 848.33,-360.29 849.23,-353.35"/>
</g>
<!-- Node34 -->
<g id="node34" class="node">
<title>Node34</title>
<g id="a_node34"><a xlink:href="StringUtil_8hpp.html" target="_top" xlink:title=" ">
<polygon fill="none" stroke="black" points="28.5,-168.5 28.5,-187.5 141.5,-187.5 141.5,-168.5 28.5,-168.5"/>
<text text-anchor="middle" x="85" y="-175.5" font-family="Helvetica,sans-Serif" font-size="10.00">../../Utils/StringUtil.hpp</text>
</a>
</g>
</g>
<!-- Node1&#45;&gt;Node34 -->
<g id="edge71" class="edge">
<title>Node1&#45;&gt;Node34</title>
<path fill="none" stroke="midnightblue" d="M1154,-404.28C948.06,-397.47 394.2,-372.73 228,-300 172.35,-275.65 121.78,-222.42 98.5,-195.41"/>
<polygon fill="midnightblue" stroke="midnightblue" points="101.06,-193.02 91.93,-187.64 95.71,-197.53 101.06,-193.02"/>
</g>
<!-- Node35 -->
<g id="node35" class="node">
<title>Node35</title>
<g id="a_node35"><a xlink:href="PointUtil_8hpp.html" target="_top" xlink:title=" ">
<polygon fill="none" stroke="black" points="1260,-336.5 1260,-355.5 1370,-355.5 1370,-336.5 1260,-336.5"/>
<text text-anchor="middle" x="1315" y="-343.5" font-family="Helvetica,sans-Serif" font-size="10.00">../../Utils/PointUtil.hpp</text>
</a>
</g>
</g>
<!-- Node1&#45;&gt;Node35 -->
<g id="edge74" class="edge">
<title>Node1&#45;&gt;Node35</title>
<path fill="none" stroke="midnightblue" d="M1251.67,-392.4C1264.6,-383.13 1281.49,-371.03 1294.57,-361.65"/>
<polygon fill="midnightblue" stroke="midnightblue" points="1296.83,-364.33 1302.92,-355.66 1292.76,-358.64 1296.83,-364.33"/>
</g>
<!-- Node36 -->
<g id="node36" class="node">
<title>Node36</title>
<g id="a_node36"><a xlink:href="Constants_8hpp.html" target="_top" xlink:title=" ">
<polygon fill="none" stroke="black" points="1388,-336.5 1388,-355.5 1482,-355.5 1482,-336.5 1388,-336.5"/>
<text text-anchor="middle" x="1435" y="-343.5" font-family="Helvetica,sans-Serif" font-size="10.00">../../Constants.hpp</text>
</a>
</g>
</g>
<!-- Node1&#45;&gt;Node36 -->
<g id="edge76" class="edge">
<title>Node1&#45;&gt;Node36</title>
<path fill="none" stroke="midnightblue" d="M1279.85,-392.47C1315.33,-382.08 1363.09,-368.08 1396.2,-358.37"/>
<polygon fill="midnightblue" stroke="midnightblue" points="1397.37,-361.68 1405.98,-355.51 1395.4,-354.96 1397.37,-361.68"/>
</g>
<!-- Node37 -->
<g id="node37" class="node">
<title>Node37</title>
<g id="a_node37"><a xlink:title=" ">
<polygon fill="none" stroke="#bfbfbf" points="1500.5,-336.5 1500.5,-355.5 1559.5,-355.5 1559.5,-336.5 1500.5,-336.5"/>
<text text-anchor="middle" x="1530" y="-343.5" font-family="Helvetica,sans-Serif" font-size="10.00">stdexcept</text>
</a>
</g>
</g>
<!-- Node1&#45;&gt;Node37 -->
<g id="edge79" class="edge">
<title>Node1&#45;&gt;Node37</title>
<path fill="none" stroke="midnightblue" d="M1307.51,-392.48C1356.82,-383.17 1422.85,-370.38 1490.26,-356.1"/>
<polygon fill="midnightblue" stroke="midnightblue" points="1491.16,-359.49 1500.21,-353.98 1489.7,-352.64 1491.16,-359.49"/>
</g>
<!-- Node3 -->
<g id="node3" class="node">
<title>Node3</title>
<g id="a_node3"><a xlink:href="MapNode_8hpp.html" target="_top" xlink:title=" ">
<polygon fill="none" stroke="black" points="763,-224.5 763,-243.5 889,-243.5 889,-224.5 763,-224.5"/>
<text text-anchor="middle" x="826" y="-231.5" font-family="Helvetica,sans-Serif" font-size="10.00">../../Structs/MapNode.hpp</text>
</a>
</g>
</g>
<!-- Node2&#45;&gt;Node3 -->
<g id="edge2" class="edge">
<title>Node2&#45;&gt;Node3</title>
<path fill="none" stroke="midnightblue" d="M1195.79,-280.47C1123.97,-271.73 1008.87,-257.7 899.45,-244.18"/>
<polygon fill="midnightblue" stroke="midnightblue" points="899.57,-240.66 889.21,-242.91 898.71,-247.61 899.57,-240.66"/>
</g>
<!-- Node10 -->
<g id="node10" class="node">
<title>Node10</title>
<g id="a_node10"><a xlink:title=" ">
<polygon fill="none" stroke="#bfbfbf" points="222.5,-56.5 222.5,-75.5 263.5,-75.5 263.5,-56.5 222.5,-56.5"/>
<text text-anchor="middle" x="243" y="-63.5" font-family="Helvetica,sans-Serif" font-size="10.00">string</text>
</a>
</g>
</g>
<!-- Node2&#45;&gt;Node10 -->
<g id="edge34" class="edge">
<title>Node2&#45;&gt;Node10</title>
<path fill="none" stroke="midnightblue" d="M1239.53,-280.38C1214.19,-271.91 1175.03,-258.2 1142,-244 1072.61,-214.18 1060,-196.37 990,-168 913.53,-137.01 893.98,-127.79 813,-112 610.01,-72.41 359.9,-67.46 273.81,-66.98"/>
<polygon fill="midnightblue" stroke="midnightblue" points="273.69,-63.48 263.68,-66.94 273.66,-70.48 273.69,-63.48"/>
</g>
<!-- Node12 -->
<g id="node12" class="node">
<title>Node12</title>
<g id="a_node12"><a xlink:href="HealthBehaviour_8hpp.html" target="_top" xlink:title=" ">
<polygon fill="none" stroke="black" points="1151,-224.5 1151,-243.5 1307,-243.5 1307,-224.5 1151,-224.5"/>
<text text-anchor="middle" x="1229" y="-231.5" font-family="Helvetica,sans-Serif" font-size="10.00">../Common/HealthBehaviour.hpp</text>
</a>
</g>
</g>
<!-- Node2&#45;&gt;Node12 -->
<g id="edge14" class="edge">
<title>Node2&#45;&gt;Node12</title>
<path fill="none" stroke="midnightblue" d="M1259.89,-280.08C1254.72,-272.53 1247.15,-261.49 1240.81,-252.23"/>
<polygon fill="midnightblue" stroke="midnightblue" points="1243.54,-250.02 1235,-243.75 1237.76,-253.98 1243.54,-250.02"/>
</g>
<!-- Node13 -->
<g id="node13" class="node">
<title>Node13</title>
<g id="a_node13"><a xlink:href="BehaviourScript_8hpp.html" target="_top" xlink:title=" ">
<polygon fill="none" stroke="black" points="1076,-168.5 1076,-187.5 1180,-187.5 1180,-168.5 1076,-168.5"/>
<text text-anchor="middle" x="1128" y="-175.5" font-family="Helvetica,sans-Serif" font-size="10.00">BehaviourScript.hpp</text>
</a>
</g>
</g>
<!-- Node2&#45;&gt;Node13 -->
<g id="edge29" class="edge">
<title>Node2&#45;&gt;Node13</title>
<path fill="none" stroke="midnightblue" d="M1281.13,-280.33C1301.05,-267.82 1331.78,-244.01 1316,-224 1307.86,-213.69 1239.36,-199.16 1187.38,-189.43"/>
<polygon fill="midnightblue" stroke="midnightblue" points="1187.69,-185.92 1177.22,-187.55 1186.42,-192.81 1187.69,-185.92"/>
</g>
<!-- Node15 -->
<g id="node15" class="node">
<title>Node15</title>
<g id="a_node15"><a xlink:href="Animator_8hpp.html" target="_top" xlink:title=" ">
<polygon fill="none" stroke="black" points="1198,-168.5 1198,-187.5 1272,-187.5 1272,-168.5 1198,-168.5"/>
<text text-anchor="middle" x="1235" y="-175.5" font-family="Helvetica,sans-Serif" font-size="10.00">Animator.hpp</text>
</a>
</g>
</g>
<!-- Node2&#45;&gt;Node15 -->
<g id="edge28" class="edge">
<title>Node2&#45;&gt;Node15</title>
<path fill="none" stroke="midnightblue" d="M1294.27,-280.44C1324.65,-269.71 1366.4,-249.57 1349,-224 1333.96,-201.89 1306.21,-190.64 1281.85,-184.92"/>
<polygon fill="midnightblue" stroke="midnightblue" points="1282.53,-181.49 1272.02,-182.86 1281.09,-188.34 1282.53,-181.49"/>
</g>
<!-- Node16 -->
<g id="node16" class="node">
<title>Node16</title>
<g id="a_node16"><a xlink:href="Sprite_8hpp.html" target="_top" xlink:title=" ">
<polygon fill="none" stroke="black" points="1205,-112.5 1205,-131.5 1265,-131.5 1265,-112.5 1205,-112.5"/>
<text text-anchor="middle" x="1235" y="-119.5" font-family="Helvetica,sans-Serif" font-size="10.00">Sprite.hpp</text>
</a>
</g>
</g>
<!-- Node2&#45;&gt;Node16 -->
<g id="edge33" class="edge">
<title>Node2&#45;&gt;Node16</title>
<path fill="none" stroke="midnightblue" d="M1305.73,-280.44C1339.48,-271.01 1380.34,-253.17 1366,-224 1345.04,-181.38 1296.49,-151.67 1264.74,-135.98"/>
<polygon fill="midnightblue" stroke="midnightblue" points="1266.01,-132.71 1255.48,-131.57 1263,-139.03 1266.01,-132.71"/>
</g>
<!-- Node18 -->
<g id="node18" class="node">
<title>Node18</title>
<g id="a_node18"><a xlink:href="RigidBody_8hpp.html" target="_top" xlink:title=" ">
<polygon fill="none" stroke="black" points="1321,-112.5 1321,-131.5 1399,-131.5 1399,-112.5 1321,-112.5"/>
<text text-anchor="middle" x="1360" y="-119.5" font-family="Helvetica,sans-Serif" font-size="10.00">RigidBody.hpp</text>
</a>
</g>
</g>
<!-- Node2&#45;&gt;Node18 -->
<g id="edge30" class="edge">
<title>Node2&#45;&gt;Node18</title>
<path fill="none" stroke="midnightblue" d="M1324.57,-280.48C1346.33,-274.16 1368.88,-263.16 1382,-244 1403.72,-212.27 1383.99,-165.3 1370.39,-140.24"/>
<polygon fill="midnightblue" stroke="midnightblue" points="1373.4,-138.45 1365.4,-131.5 1367.32,-141.92 1373.4,-138.45"/>
</g>
<!-- Node19 -->
<g id="node19" class="node">
<title>Node19</title>
<g id="a_node19"><a xlink:title=" ">
<polygon fill="none" stroke="#bfbfbf" points="480.5,-168.5 480.5,-187.5 515.5,-187.5 515.5,-168.5 480.5,-168.5"/>
<text text-anchor="middle" x="498" y="-175.5" font-family="Helvetica,sans-Serif" font-size="10.00">map</text>
</a>
</g>
</g>
<!-- Node2&#45;&gt;Node19 -->
<g id="edge35" class="edge">
<title>Node2&#45;&gt;Node19</title>
<path fill="none" stroke="midnightblue" d="M1189.17,-284.69C1003.84,-274.23 546.95,-248.07 540,-244 522.29,-233.63 510.76,-212.5 504.34,-197.13"/>
<polygon fill="midnightblue" stroke="midnightblue" points="507.54,-195.71 500.7,-187.62 501.01,-198.21 507.54,-195.71"/>
</g>
<!-- Node20 -->
<g id="node20" class="node">
<title>Node20</title>
<g id="a_node20"><a xlink:title=" ">
<polygon fill="none" stroke="#bfbfbf" points="567.5,-168.5 567.5,-187.5 610.5,-187.5 610.5,-168.5 567.5,-168.5"/>
<text text-anchor="middle" x="589" y="-175.5" font-family="Helvetica,sans-Serif" font-size="10.00">queue</text>
</a>
</g>
</g>
<!-- Node2&#45;&gt;Node20 -->
<g id="edge36" class="edge">
<title>Node2&#45;&gt;Node20</title>
<path fill="none" stroke="midnightblue" d="M1189.31,-283.89C1056.69,-274.82 794.7,-255.74 754,-244 735.28,-238.6 732.88,-231.74 715,-224 706.05,-220.13 654.63,-201.97 620.3,-189.94"/>
<polygon fill="midnightblue" stroke="midnightblue" points="621.29,-186.58 610.7,-186.57 618.98,-193.18 621.29,-186.58"/>
</g>
<!-- Node4 -->
<g id="node4" class="node">
<title>Node4</title>
<g id="a_node4"><a xlink:title=" ">
<polygon fill="none" stroke="#bfbfbf" points="715,-112.5 715,-131.5 759,-131.5 759,-112.5 715,-112.5"/>
<text text-anchor="middle" x="737" y="-119.5" font-family="Helvetica,sans-Serif" font-size="10.00">vector</text>
</a>
</g>
</g>
<!-- Node3&#45;&gt;Node4 -->
<g id="edge3" class="edge">
<title>Node3&#45;&gt;Node4</title>
<path fill="none" stroke="midnightblue" d="M821.17,-224.15C813.91,-211.21 799.4,-186.65 784,-168 775.21,-157.36 764.1,-146.62 754.89,-138.31"/>
<polygon fill="midnightblue" stroke="midnightblue" points="757.21,-135.68 747.39,-131.68 752.57,-140.93 757.21,-135.68"/>
</g>
<!-- Node5 -->
<g id="node5" class="node">
<title>Node5</title>
<g id="a_node5"><a xlink:title=" ">
<polygon fill="none" stroke="#bfbfbf" points="989.5,-0.5 989.5,-19.5 1040.5,-19.5 1040.5,-0.5 989.5,-0.5"/>
<text text-anchor="middle" x="1015" y="-7.5" font-family="Helvetica,sans-Serif" font-size="10.00">memory</text>
</a>
</g>
</g>
<!-- Node3&#45;&gt;Node5 -->
<g id="edge4" class="edge">
<title>Node3&#45;&gt;Node5</title>
<path fill="none" stroke="midnightblue" d="M833.41,-224.3C861.69,-191.08 963.14,-71.92 1000.8,-27.68"/>
<polygon fill="midnightblue" stroke="midnightblue" points="1003.62,-29.77 1007.44,-19.88 998.29,-25.23 1003.62,-29.77"/>
</g>
<!-- Node3&#45;&gt;Node6 -->
<g id="edge5" class="edge">
<title>Node3&#45;&gt;Node6</title>
<path fill="none" stroke="midnightblue" d="M843.83,-224.32C861.72,-215.62 889.48,-202.12 910.05,-192.11"/>
<polygon fill="midnightblue" stroke="midnightblue" points="911.75,-195.18 919.21,-187.65 908.69,-188.88 911.75,-195.18"/>
</g>
<!-- Node11 -->
<g id="node11" class="node">
<title>Node11</title>
<g id="a_node11"><a xlink:href="TileType_8hpp.html" target="_top" xlink:title=" ">
<polygon fill="none" stroke="black" points="284,-112.5 284,-131.5 396,-131.5 396,-112.5 284,-112.5"/>
<text text-anchor="middle" x="340" y="-119.5" font-family="Helvetica,sans-Serif" font-size="10.00">../Enums/TileType.hpp</text>
</a>
</g>
</g>
<!-- Node3&#45;&gt;Node11 -->
<g id="edge13" class="edge">
<title>Node3&#45;&gt;Node11</title>
<path fill="none" stroke="midnightblue" d="M802.71,-224.47C764.72,-210.84 686.82,-184.03 619,-168 546.93,-150.97 462.86,-138.38 405.99,-130.91"/>
<polygon fill="midnightblue" stroke="midnightblue" points="406.41,-127.44 396.05,-129.62 405.51,-134.38 406.41,-127.44"/>
</g>
<!-- Node6&#45;&gt;Node4 -->
<g id="edge11" class="edge">
<title>Node6&#45;&gt;Node4</title>
<path fill="none" stroke="midnightblue" d="M905.31,-168.44C868.06,-158.39 806.58,-141.79 769.14,-131.68"/>
<polygon fill="midnightblue" stroke="midnightblue" points="769.82,-128.24 759.25,-129.01 768,-134.99 769.82,-128.24"/>
</g>
<!-- Node6&#45;&gt;Node5 -->
<g id="edge12" class="edge">
<title>Node6&#45;&gt;Node5</title>
<path fill="none" stroke="midnightblue" d="M941.19,-168.08C953.58,-141.72 990.15,-63.88 1006.7,-28.66"/>
<polygon fill="midnightblue" stroke="midnightblue" points="1009.89,-30.11 1010.97,-19.57 1003.55,-27.13 1009.89,-30.11"/>
</g>
<!-- Node7 -->
<g id="node7" class="node">
<title>Node7</title>
<g id="a_node7"><a xlink:href="Component_8hpp.html" target="_top" xlink:title=" ">
<polygon fill="none" stroke="black" points="1073,-56.5 1073,-75.5 1157,-75.5 1157,-56.5 1073,-56.5"/>
<text text-anchor="middle" x="1115" y="-63.5" font-family="Helvetica,sans-Serif" font-size="10.00">Component.hpp</text>
</a>
</g>
</g>
<!-- Node6&#45;&gt;Node7 -->
<g id="edge6" class="edge">
<title>Node6&#45;&gt;Node7</title>
<path fill="none" stroke="midnightblue" d="M950.97,-168.37C981.64,-149.41 1055.13,-104 1092.44,-80.94"/>
<polygon fill="midnightblue" stroke="midnightblue" points="1094.43,-83.83 1101.1,-75.59 1090.75,-77.87 1094.43,-83.83"/>
</g>
<!-- Node8 -->
<g id="node8" class="node">
<title>Node8</title>
<g id="a_node8"><a xlink:href="Transform_8hpp.html" target="_top" xlink:title=" ">
<polygon fill="none" stroke="black" points="1417.5,-112.5 1417.5,-131.5 1496.5,-131.5 1496.5,-112.5 1417.5,-112.5"/>
<text text-anchor="middle" x="1457" y="-119.5" font-family="Helvetica,sans-Serif" font-size="10.00">Transform.hpp</text>
</a>
</g>
</g>
<!-- Node6&#45;&gt;Node8 -->
<g id="edge8" class="edge">
<title>Node6&#45;&gt;Node8</title>
<path fill="none" stroke="midnightblue" d="M981.63,-174.03C1063.73,-168.28 1244.39,-154.33 1407.26,-131.98"/>
<polygon fill="midnightblue" stroke="midnightblue" points="1408.04,-135.4 1417.47,-130.56 1407.08,-128.47 1408.04,-135.4"/>
</g>
<!-- Node6&#45;&gt;Node10 -->
<g id="edge10" class="edge">
<title>Node6&#45;&gt;Node10</title>
<path fill="none" stroke="midnightblue" d="M919.75,-168.49C889.74,-154.1 825.59,-125.26 768,-112 584.14,-69.66 355.78,-66.33 273.96,-66.64"/>
<polygon fill="midnightblue" stroke="midnightblue" points="273.82,-63.14 263.84,-66.7 273.86,-70.14 273.82,-63.14"/>
</g>
<!-- Node7&#45;&gt;Node5 -->
<g id="edge7" class="edge">
<title>Node7&#45;&gt;Node5</title>
<path fill="none" stroke="midnightblue" d="M1098.93,-56.32C1083.04,-47.74 1058.49,-34.49 1040.04,-24.52"/>
<polygon fill="midnightblue" stroke="midnightblue" points="1041.49,-21.33 1031.03,-19.65 1038.16,-27.49 1041.49,-21.33"/>
</g>
<!-- Node9 -->
<g id="node9" class="node">
<title>Node9</title>
<g id="a_node9"><a xlink:href="Point_8hpp.html" target="_top" xlink:title=" ">
<polygon fill="none" stroke="black" points="1428.5,-56.5 1428.5,-75.5 1485.5,-75.5 1485.5,-56.5 1428.5,-56.5"/>
<text text-anchor="middle" x="1457" y="-63.5" font-family="Helvetica,sans-Serif" font-size="10.00">Point.hpp</text>
</a>
</g>
</g>
<!-- Node8&#45;&gt;Node9 -->
<g id="edge9" class="edge">
<title>Node8&#45;&gt;Node9</title>
<path fill="none" stroke="midnightblue" d="M1457,-112.08C1457,-105.01 1457,-94.86 1457,-85.99"/>
<polygon fill="midnightblue" stroke="midnightblue" points="1460.5,-85.75 1457,-75.75 1453.5,-85.75 1460.5,-85.75"/>
</g>
<!-- Node12&#45;&gt;Node5 -->
<g id="edge19" class="edge">
<title>Node12&#45;&gt;Node5</title>
<path fill="none" stroke="midnightblue" d="M1150.86,-227.29C1121.2,-221.38 1089.25,-209.92 1067,-188 1022.95,-144.59 1015.77,-65.96 1014.9,-29.94"/>
<polygon fill="midnightblue" stroke="midnightblue" points="1018.4,-29.81 1014.8,-19.84 1011.4,-29.88 1018.4,-29.81"/>
</g>
<!-- Node12&#45;&gt;Node13 -->
<g id="edge15" class="edge">
<title>Node12&#45;&gt;Node13</title>
<path fill="none" stroke="midnightblue" d="M1212.77,-224.32C1196.65,-215.7 1171.7,-202.36 1153.04,-192.39"/>
<polygon fill="midnightblue" stroke="midnightblue" points="1154.66,-189.28 1144.19,-187.65 1151.36,-195.46 1154.66,-189.28"/>
</g>
<!-- Node12&#45;&gt;Node15 -->
<g id="edge20" class="edge">
<title>Node12&#45;&gt;Node15</title>
<path fill="none" stroke="midnightblue" d="M1229.99,-224.08C1230.79,-216.93 1231.93,-206.64 1232.92,-197.69"/>
<polygon fill="midnightblue" stroke="midnightblue" points="1236.4,-198.08 1234.03,-187.75 1229.44,-197.3 1236.4,-198.08"/>
</g>
<!-- Node13&#45;&gt;Node7 -->
<g id="edge16" class="edge">
<title>Node13&#45;&gt;Node7</title>
<path fill="none" stroke="midnightblue" d="M1110.5,-168.46C1097.21,-160.92 1079.92,-148.53 1072,-132 1063.27,-113.78 1079.36,-94.7 1094.28,-81.96"/>
<polygon fill="midnightblue" stroke="midnightblue" points="1096.65,-84.55 1102.29,-75.58 1092.28,-79.07 1096.65,-84.55"/>
</g>
<!-- Node14 -->
<g id="node14" class="node">
<title>Node14</title>
<g id="a_node14"><a xlink:href="Collider_8hpp.html" target="_top" xlink:title=" ">
<polygon fill="none" stroke="black" points="1081.5,-112.5 1081.5,-131.5 1148.5,-131.5 1148.5,-112.5 1081.5,-112.5"/>
<text text-anchor="middle" x="1115" y="-119.5" font-family="Helvetica,sans-Serif" font-size="10.00">Collider.hpp</text>
</a>
</g>
</g>
<!-- Node13&#45;&gt;Node14 -->
<g id="edge17" class="edge">
<title>Node13&#45;&gt;Node14</title>
<path fill="none" stroke="midnightblue" d="M1125.85,-168.08C1124.13,-160.93 1121.65,-150.64 1119.5,-141.69"/>
<polygon fill="midnightblue" stroke="midnightblue" points="1122.85,-140.65 1117.11,-131.75 1116.04,-142.29 1122.85,-140.65"/>
</g>
<!-- Node14&#45;&gt;Node7 -->
<g id="edge18" class="edge">
<title>Node14&#45;&gt;Node7</title>
<path fill="none" stroke="midnightblue" d="M1115,-112.08C1115,-105.01 1115,-94.86 1115,-85.99"/>
<polygon fill="midnightblue" stroke="midnightblue" points="1118.5,-85.75 1115,-75.75 1111.5,-85.75 1118.5,-85.75"/>
</g>
<!-- Node15&#45;&gt;Node4 -->
<g id="edge26" class="edge">
<title>Node15&#45;&gt;Node4</title>
<path fill="none" stroke="midnightblue" d="M1197.89,-169.43C1194.89,-168.91 1191.9,-168.43 1189,-168 1032.47,-144.95 843.66,-130.39 769.32,-125.17"/>
<polygon fill="midnightblue" stroke="midnightblue" points="769.41,-121.67 759.2,-124.47 768.93,-128.65 769.41,-121.67"/>
</g>
<!-- Node15&#45;&gt;Node5 -->
<g id="edge27" class="edge">
<title>Node15&#45;&gt;Node5</title>
<path fill="none" stroke="midnightblue" d="M1246.78,-168.36C1262.29,-155.89 1286.24,-132.13 1274,-112 1227.05,-34.77 1110.21,-16.49 1050.84,-12.23"/>
<polygon fill="midnightblue" stroke="midnightblue" points="1051,-8.73 1040.8,-11.61 1050.56,-15.72 1051,-8.73"/>
</g>
<!-- Node15&#45;&gt;Node7 -->
<g id="edge21" class="edge">
<title>Node15&#45;&gt;Node7</title>
<path fill="none" stroke="midnightblue" d="M1225.58,-168.37C1205.34,-149.81 1157.45,-105.91 1131.84,-82.44"/>
<polygon fill="midnightblue" stroke="midnightblue" points="1134.11,-79.77 1124.37,-75.59 1129.38,-84.93 1134.11,-79.77"/>
</g>
<!-- Node15&#45;&gt;Node16 -->
<g id="edge22" class="edge">
<title>Node15&#45;&gt;Node16</title>
<path fill="none" stroke="midnightblue" d="M1235,-168.08C1235,-161.01 1235,-150.86 1235,-141.99"/>
<polygon fill="midnightblue" stroke="midnightblue" points="1238.5,-141.75 1235,-131.75 1231.5,-141.75 1238.5,-141.75"/>
</g>
<!-- Node16&#45;&gt;Node7 -->
<g id="edge23" class="edge">
<title>Node16&#45;&gt;Node7</title>
<path fill="none" stroke="midnightblue" d="M1215.99,-112.44C1196.41,-103.64 1165.69,-89.81 1143.27,-79.72"/>
<polygon fill="midnightblue" stroke="midnightblue" points="1144.48,-76.43 1133.93,-75.52 1141.61,-82.81 1144.48,-76.43"/>
</g>
<!-- Node16&#45;&gt;Node10 -->
<g id="edge25" class="edge">
<title>Node16&#45;&gt;Node10</title>
<path fill="none" stroke="midnightblue" d="M1204.67,-117.03C1190.25,-115.27 1172.76,-113.3 1157,-112 811.1,-83.56 389.98,-70.89 273.89,-67.78"/>
<polygon fill="midnightblue" stroke="midnightblue" points="273.71,-64.28 263.63,-67.51 273.53,-71.28 273.71,-64.28"/>
</g>
<!-- Node17 -->
<g id="node17" class="node">
<title>Node17</title>
<g id="a_node17"><a xlink:href="Color_8hpp.html" target="_top" xlink:title=" ">
<polygon fill="none" stroke="black" points="1337.5,-56.5 1337.5,-75.5 1394.5,-75.5 1394.5,-56.5 1337.5,-56.5"/>
<text text-anchor="middle" x="1366" y="-63.5" font-family="Helvetica,sans-Serif" font-size="10.00">Color.hpp</text>
</a>
</g>
</g>
<!-- Node16&#45;&gt;Node17 -->
<g id="edge24" class="edge">
<title>Node16&#45;&gt;Node17</title>
<path fill="none" stroke="midnightblue" d="M1255.76,-112.44C1277.32,-103.56 1311.26,-89.56 1335.79,-79.45"/>
<polygon fill="midnightblue" stroke="midnightblue" points="1337.43,-82.56 1345.34,-75.52 1334.76,-76.09 1337.43,-82.56"/>
</g>
<!-- Node18&#45;&gt;Node7 -->
<g id="edge31" class="edge">
<title>Node18&#45;&gt;Node7</title>
<path fill="none" stroke="midnightblue" d="M1321.18,-112.44C1278.44,-103.02 1209.67,-87.87 1163.43,-77.68"/>
<polygon fill="midnightblue" stroke="midnightblue" points="1164.16,-74.25 1153.64,-75.52 1162.65,-81.09 1164.16,-74.25"/>
</g>
<!-- Node18&#45;&gt;Node9 -->
<g id="edge32" class="edge">
<title>Node18&#45;&gt;Node9</title>
<path fill="none" stroke="midnightblue" d="M1375.58,-112.32C1391,-103.74 1414.81,-90.49 1432.71,-80.52"/>
<polygon fill="midnightblue" stroke="midnightblue" points="1434.42,-83.58 1441.45,-75.65 1431.01,-77.46 1434.42,-83.58"/>
</g>
<!-- Node21&#45;&gt;Node4 -->
<g id="edge39" class="edge">
<title>Node21&#45;&gt;Node4</title>
<path fill="none" stroke="midnightblue" d="M690.82,-341.01C648.79,-335.81 598.34,-324.45 559,-300 505.23,-266.59 491.69,-247.83 471,-188 468.09,-179.6 465.26,-174.79 471,-168 500.58,-133 640.35,-125.21 704.58,-123.49"/>
<polygon fill="midnightblue" stroke="midnightblue" points="705.02,-126.98 714.93,-123.25 704.85,-119.98 705.02,-126.98"/>
</g>
<!-- Node21&#45;&gt;Node5 -->
<g id="edge40" class="edge">
<title>Node21&#45;&gt;Node5</title>
<path fill="none" stroke="midnightblue" d="M855.12,-345.93C993.37,-346.29 1265.83,-341.49 1351,-300 1442.06,-255.64 1468.28,-226.4 1505,-132 1513.06,-111.29 1500.61,-61.98 1494,-56 1461.28,-26.41 1156.4,-15.01 1050.8,-11.93"/>
<polygon fill="midnightblue" stroke="midnightblue" points="1050.74,-8.43 1040.65,-11.64 1050.54,-15.43 1050.74,-8.43"/>
</g>
<!-- Node21&#45;&gt;Node6 -->
<g id="edge49" class="edge">
<title>Node21&#45;&gt;Node6</title>
<path fill="none" stroke="midnightblue" d="M818.17,-336.47C848.96,-329.47 889.96,-317.78 923,-300 957.17,-281.6 973.56,-279.16 990,-244 999.22,-224.28 979.59,-205.42 961.66,-193.14"/>
<polygon fill="midnightblue" stroke="midnightblue" points="963.44,-190.12 953.13,-187.67 959.66,-196.02 963.44,-190.12"/>
</g>
<!-- Node21&#45;&gt;Node10 -->
<g id="edge41" class="edge">
<title>Node21&#45;&gt;Node10</title>
<path fill="none" stroke="midnightblue" d="M690.64,-341.8C491.46,-332.97 0,-304.17 0,-235 0,-235 0,-235 0,-177 0,-84.88 146.73,-69.51 212.15,-67.23"/>
<polygon fill="midnightblue" stroke="midnightblue" points="212.38,-70.72 222.28,-66.96 212.19,-63.73 212.38,-70.72"/>
</g>
<!-- Node21&#45;&gt;Node13 -->
<g id="edge44" class="edge">
<title>Node21&#45;&gt;Node13</title>
<path fill="none" stroke="midnightblue" d="M855.23,-344.33C941.13,-341.84 1068.14,-332.56 1103,-300 1131.26,-273.61 1132.12,-224.39 1130.15,-197.58"/>
<polygon fill="midnightblue" stroke="midnightblue" points="1133.63,-197.22 1129.21,-187.59 1126.66,-197.88 1133.63,-197.22"/>
</g>
<!-- Node21&#45;&gt;Node19 -->
<g id="edge38" class="edge">
<title>Node21&#45;&gt;Node19</title>
<path fill="none" stroke="midnightblue" d="M698.87,-336.45C663.61,-330.07 621.86,-319.03 588,-300 546.11,-276.46 518.02,-224.47 505.48,-196.93"/>
<polygon fill="midnightblue" stroke="midnightblue" points="508.65,-195.44 501.44,-187.68 502.24,-198.25 508.65,-195.44"/>
</g>
<!-- Node22 -->
<g id="node22" class="node">
<title>Node22</title>
<g id="a_node22"><a xlink:title=" ">
<polygon fill="none" stroke="#bfbfbf" points="597,-280.5 597,-299.5 635,-299.5 635,-280.5 597,-280.5"/>
<text text-anchor="middle" x="616" y="-287.5" font-family="Helvetica,sans-Serif" font-size="10.00">tuple</text>
</a>
</g>
</g>
<!-- Node21&#45;&gt;Node22 -->
<g id="edge42" class="edge">
<title>Node21&#45;&gt;Node22</title>
<path fill="none" stroke="midnightblue" d="M748.12,-336.44C720.12,-326.81 674.69,-311.19 645.08,-301"/>
<polygon fill="midnightblue" stroke="midnightblue" points="645.91,-297.59 635.32,-297.64 643.63,-304.21 645.91,-297.59"/>
</g>
<!-- Node23 -->
<g id="node23" class="node">
<title>Node23</title>
<g id="a_node23"><a xlink:title=" ">
<polygon fill="none" stroke="#bfbfbf" points="653.5,-280.5 653.5,-299.5 694.5,-299.5 694.5,-280.5 653.5,-280.5"/>
<text text-anchor="middle" x="674" y="-287.5" font-family="Helvetica,sans-Serif" font-size="10.00">stack</text>
</a>
</g>
</g>
<!-- Node21&#45;&gt;Node23 -->
<g id="edge43" class="edge">
<title>Node21&#45;&gt;Node23</title>
<path fill="none" stroke="midnightblue" d="M757.09,-336.32C741.36,-327.74 717.06,-314.49 698.79,-304.52"/>
<polygon fill="midnightblue" stroke="midnightblue" points="700.32,-301.37 689.87,-299.65 696.97,-307.52 700.32,-301.37"/>
</g>
<!-- Node24 -->
<g id="node24" class="node">
<title>Node24</title>
<g id="a_node24"><a xlink:href="Button_8hpp.html" target="_top" xlink:title=" ">
<polygon fill="none" stroke="black" points="851.5,-280.5 851.5,-299.5 914.5,-299.5 914.5,-280.5 851.5,-280.5"/>
<text text-anchor="middle" x="883" y="-287.5" font-family="Helvetica,sans-Serif" font-size="10.00">Button.hpp</text>
</a>
</g>
</g>
<!-- Node21&#45;&gt;Node24 -->
<g id="edge45" class="edge">
<title>Node21&#45;&gt;Node24</title>
<path fill="none" stroke="midnightblue" d="M790.67,-336.32C808.39,-327.62 835.9,-314.12 856.29,-304.11"/>
<polygon fill="midnightblue" stroke="midnightblue" points="857.94,-307.2 865.37,-299.65 854.85,-300.92 857.94,-307.2"/>
</g>
<!-- Node27 -->
<g id="node27" class="node">
<title>Node27</title>
<g id="a_node27"><a xlink:href="LevelWithTiles_8hpp.html" target="_top" xlink:title=" ">
<polygon fill="none" stroke="black" points="237.5,-280.5 237.5,-299.5 378.5,-299.5 378.5,-280.5 237.5,-280.5"/>
<text text-anchor="middle" x="308" y="-287.5" font-family="Helvetica,sans-Serif" font-size="10.00">../Structs/LevelWithTiles.hpp</text>
</a>
</g>
</g>
<!-- Node21&#45;&gt;Node27 -->
<g id="edge50" class="edge">
<title>Node21&#45;&gt;Node27</title>
<path fill="none" stroke="midnightblue" d="M699.58,-336.47C615.01,-326.65 476.51,-310.57 388.91,-300.4"/>
<polygon fill="midnightblue" stroke="midnightblue" points="389.09,-296.89 378.75,-299.22 388.28,-303.85 389.09,-296.89"/>
</g>
<!-- Node31 -->
<g id="node31" class="node">
<title>Node31</title>
<g id="a_node31"><a xlink:href="LevelData_8hpp.html" target="_top" xlink:title=" ">
<polygon fill="none" stroke="black" points="712.5,-280.5 712.5,-299.5 833.5,-299.5 833.5,-280.5 712.5,-280.5"/>
<text text-anchor="middle" x="773" y="-287.5" font-family="Helvetica,sans-Serif" font-size="10.00">../Structs/LevelData.hpp</text>
</a>
</g>
</g>
<!-- Node21&#45;&gt;Node31 -->
<g id="edge61" class="edge">
<title>Node21&#45;&gt;Node31</title>
<path fill="none" stroke="midnightblue" d="M773,-336.08C773,-329.01 773,-318.86 773,-309.99"/>
<polygon fill="midnightblue" stroke="midnightblue" points="776.5,-309.75 773,-299.75 769.5,-309.75 776.5,-309.75"/>
</g>
<!-- Node33 -->
<g id="node33" class="node">
<title>Node33</title>
<g id="a_node33"><a xlink:href="LevelMode_8hpp.html" target="_top" xlink:title=" ">
<polygon fill="none" stroke="black" points="971.5,-280.5 971.5,-299.5 1094.5,-299.5 1094.5,-280.5 971.5,-280.5"/>
<text text-anchor="middle" x="1033" y="-287.5" font-family="Helvetica,sans-Serif" font-size="10.00">../Enums/LevelMode.hpp</text>
</a>
</g>
</g>
<!-- Node21&#45;&gt;Node33 -->
<g id="edge70" class="edge">
<title>Node21&#45;&gt;Node33</title>
<path fill="none" stroke="midnightblue" d="M814.2,-336.44C859.65,-327 932.84,-311.8 981.91,-301.61"/>
<polygon fill="midnightblue" stroke="midnightblue" points="982.92,-304.98 991.99,-299.52 981.49,-298.12 982.92,-304.98"/>
</g>
<!-- Node25 -->
<g id="node25" class="node">
<title>Node25</title>
<g id="a_node25"><a xlink:href="UIObject_8hpp.html" target="_top" xlink:title=" ">
<polygon fill="none" stroke="black" points="907,-224.5 907,-243.5 981,-243.5 981,-224.5 907,-224.5"/>
<text text-anchor="middle" x="944" y="-231.5" font-family="Helvetica,sans-Serif" font-size="10.00">UIObject.hpp</text>
</a>
</g>
</g>
<!-- Node24&#45;&gt;Node25 -->
<g id="edge46" class="edge">
<title>Node24&#45;&gt;Node25</title>
<path fill="none" stroke="midnightblue" d="M892.8,-280.32C901.82,-272.34 915.41,-260.31 926.32,-250.65"/>
<polygon fill="midnightblue" stroke="midnightblue" points="928.85,-253.08 934.02,-243.83 924.21,-247.84 928.85,-253.08"/>
</g>
<!-- Node26 -->
<g id="node26" class="node">
<title>Node26</title>
<g id="a_node26"><a xlink:title=" ">
<polygon fill="none" stroke="#bfbfbf" points="647.5,-224.5 647.5,-243.5 706.5,-243.5 706.5,-224.5 647.5,-224.5"/>
<text text-anchor="middle" x="677" y="-231.5" font-family="Helvetica,sans-Serif" font-size="10.00">functional</text>
</a>
</g>
</g>
<!-- Node24&#45;&gt;Node26 -->
<g id="edge48" class="edge">
<title>Node24&#45;&gt;Node26</title>
<path fill="none" stroke="midnightblue" d="M851.26,-280.68C815.03,-271.18 755.72,-255.63 716.52,-245.36"/>
<polygon fill="midnightblue" stroke="midnightblue" points="717.32,-241.95 706.76,-242.8 715.55,-248.72 717.32,-241.95"/>
</g>
<!-- Node25&#45;&gt;Node6 -->
<g id="edge47" class="edge">
<title>Node25&#45;&gt;Node6</title>
<path fill="none" stroke="midnightblue" d="M942.84,-224.08C941.92,-216.93 940.58,-206.64 939.42,-197.69"/>
<polygon fill="midnightblue" stroke="midnightblue" points="942.89,-197.22 938.13,-187.75 935.95,-198.12 942.89,-197.22"/>
</g>
<!-- Node27&#45;&gt;Node4 -->
<g id="edge60" class="edge">
<title>Node27&#45;&gt;Node4</title>
<path fill="none" stroke="midnightblue" d="M316.14,-280.46C324.67,-271.47 338.42,-256.87 350,-244 379.93,-210.75 376.69,-189.35 416,-168 465.39,-141.18 633.13,-128.82 704.47,-124.68"/>
<polygon fill="midnightblue" stroke="midnightblue" points="704.87,-128.16 714.66,-124.11 704.48,-121.17 704.87,-128.16"/>
</g>
<!-- Node28 -->
<g id="node28" class="node">
<title>Node28</title>
<g id="a_node28"><a xlink:href="Level_8hpp.html" target="_top" xlink:title=" ">
<polygon fill="none" stroke="black" points="213.5,-224.5 213.5,-243.5 272.5,-243.5 272.5,-224.5 213.5,-224.5"/>
<text text-anchor="middle" x="243" y="-231.5" font-family="Helvetica,sans-Serif" font-size="10.00">Level.hpp</text>
</a>
</g>
</g>
<!-- Node27&#45;&gt;Node28 -->
<g id="edge51" class="edge">
<title>Node27&#45;&gt;Node28</title>
<path fill="none" stroke="midnightblue" d="M297.56,-280.32C287.85,-272.26 273.18,-260.08 261.5,-250.37"/>
<polygon fill="midnightblue" stroke="midnightblue" points="263.56,-247.53 253.63,-243.83 259.09,-252.92 263.56,-247.53"/>
</g>
<!-- Node30 -->
<g id="node30" class="node">
<title>Node30</title>
<g id="a_node30"><a xlink:href="Tile_8hpp.html" target="_top" xlink:title=" ">
<polygon fill="none" stroke="black" points="291,-224.5 291,-243.5 341,-243.5 341,-224.5 291,-224.5"/>
<text text-anchor="middle" x="316" y="-231.5" font-family="Helvetica,sans-Serif" font-size="10.00">Tile.hpp</text>
</a>
</g>
</g>
<!-- Node27&#45;&gt;Node30 -->
<g id="edge58" class="edge">
<title>Node27&#45;&gt;Node30</title>
<path fill="none" stroke="midnightblue" d="M309.32,-280.08C310.38,-272.93 311.91,-262.64 313.23,-253.69"/>
<polygon fill="midnightblue" stroke="midnightblue" points="316.7,-254.16 314.7,-243.75 309.78,-253.13 316.7,-254.16"/>
</g>
<!-- Node28&#45;&gt;Node10 -->
<g id="edge52" class="edge">
<title>Node28&#45;&gt;Node10</title>
<path fill="none" stroke="midnightblue" d="M226.37,-224.46C213.51,-216.84 196.66,-204.36 189,-188 185.23,-179.95 186.84,-176.62 189,-168 197.01,-136.01 217.31,-103.08 230.61,-83.85"/>
<polygon fill="midnightblue" stroke="midnightblue" points="233.55,-85.75 236.49,-75.58 227.85,-81.7 233.55,-85.75"/>
</g>
<!-- Node28&#45;&gt;Node11 -->
<g id="edge54" class="edge">
<title>Node28&#45;&gt;Node11</title>
<path fill="none" stroke="midnightblue" d="M255.19,-224.18C266.5,-215.66 283.43,-202.02 296,-188 309.32,-173.14 321.8,-154.01 330.04,-140.36"/>
<polygon fill="midnightblue" stroke="midnightblue" points="333.19,-141.92 335.25,-131.52 327.16,-138.37 333.19,-141.92"/>
</g>
<!-- Node28&#45;&gt;Node19 -->
<g id="edge53" class="edge">
<title>Node28&#45;&gt;Node19</title>
<path fill="none" stroke="midnightblue" d="M272.8,-226.05C275.9,-225.35 279.01,-224.66 282,-224 349.63,-209.15 429.45,-192.84 470.52,-184.53"/>
<polygon fill="midnightblue" stroke="midnightblue" points="471.22,-187.96 480.33,-182.55 469.84,-181.1 471.22,-187.96"/>
</g>
<!-- Node29 -->
<g id="node29" class="node">
<title>Node29</title>
<g id="a_node29"><a xlink:href="TilesAmount_8hpp.html" target="_top" xlink:title=" ">
<polygon fill="none" stroke="black" points="198.5,-168.5 198.5,-187.5 287.5,-187.5 287.5,-168.5 198.5,-168.5"/>
<text text-anchor="middle" x="243" y="-175.5" font-family="Helvetica,sans-Serif" font-size="10.00">TilesAmount.hpp</text>
</a>
</g>
</g>
<!-- Node28&#45;&gt;Node29 -->
<g id="edge55" class="edge">
<title>Node28&#45;&gt;Node29</title>
<path fill="none" stroke="midnightblue" d="M243,-224.08C243,-217.01 243,-206.86 243,-197.99"/>
<polygon fill="midnightblue" stroke="midnightblue" points="246.5,-197.75 243,-187.75 239.5,-197.75 246.5,-197.75"/>
</g>
<!-- Node29&#45;&gt;Node10 -->
<g id="edge56" class="edge">
<title>Node29&#45;&gt;Node10</title>
<path fill="none" stroke="midnightblue" d="M243,-168.37C243,-150.62 243,-109.67 243,-85.6"/>
<polygon fill="midnightblue" stroke="midnightblue" points="246.5,-85.59 243,-75.59 239.5,-85.59 246.5,-85.59"/>
</g>
<!-- Node29&#45;&gt;Node11 -->
<g id="edge57" class="edge">
<title>Node29&#45;&gt;Node11</title>
<path fill="none" stroke="midnightblue" d="M258.58,-168.32C274,-159.74 297.81,-146.49 315.71,-136.52"/>
<polygon fill="midnightblue" stroke="midnightblue" points="317.42,-139.58 324.45,-131.65 314.01,-133.46 317.42,-139.58"/>
</g>
<!-- Node30&#45;&gt;Node11 -->
<g id="edge59" class="edge">
<title>Node30&#45;&gt;Node11</title>
<path fill="none" stroke="midnightblue" d="M319.07,-224.48C322.2,-215.5 327.02,-200.91 330,-188 333.54,-172.69 336.16,-155.04 337.83,-142.01"/>
<polygon fill="midnightblue" stroke="midnightblue" points="341.33,-142.26 339.06,-131.91 334.38,-141.42 341.33,-142.26"/>
</g>
<!-- Node31&#45;&gt;Node3 -->
<g id="edge67" class="edge">
<title>Node31&#45;&gt;Node3</title>
<path fill="none" stroke="midnightblue" d="M781.75,-280.08C789.47,-272.22 800.9,-260.57 810.22,-251.08"/>
<polygon fill="midnightblue" stroke="midnightblue" points="812.9,-253.34 817.41,-243.75 807.91,-248.44 812.9,-253.34"/>
</g>
<!-- Node31&#45;&gt;Node12 -->
<g id="edge68" class="edge">
<title>Node31&#45;&gt;Node12</title>
<path fill="none" stroke="midnightblue" d="M833.58,-281.05C836.42,-280.69 839.24,-280.34 842,-280 945.28,-267.26 1064.19,-253.58 1142.64,-244.69"/>
<polygon fill="midnightblue" stroke="midnightblue" points="1143.42,-248.13 1152.96,-243.52 1142.63,-241.17 1143.42,-248.13"/>
</g>
<!-- Node31&#45;&gt;Node20 -->
<g id="edge69" class="edge">
<title>Node31&#45;&gt;Node20</title>
<path fill="none" stroke="midnightblue" d="M719.79,-280.47C652.82,-269.48 545.74,-250.96 540,-244 525.96,-226.99 547.26,-206.56 566.02,-193.2"/>
<polygon fill="midnightblue" stroke="midnightblue" points="567.99,-196.09 574.33,-187.6 564.08,-190.29 567.99,-196.09"/>
</g>
<!-- Node32 -->
<g id="node32" class="node">
<title>Node32</title>
<g id="a_node32"><a xlink:href="WaveData_8hpp.html" target="_top" xlink:title=" ">
<polygon fill="none" stroke="black" points="549,-224.5 549,-243.5 629,-243.5 629,-224.5 549,-224.5"/>
<text text-anchor="middle" x="589" y="-231.5" font-family="Helvetica,sans-Serif" font-size="10.00">WaveData.hpp</text>
</a>
</g>
</g>
<!-- Node31&#45;&gt;Node32 -->
<g id="edge62" class="edge">
<title>Node31&#45;&gt;Node32</title>
<path fill="none" stroke="midnightblue" d="M743.84,-280.44C712.49,-271.24 662.47,-256.56 627.8,-246.39"/>
<polygon fill="midnightblue" stroke="midnightblue" points="628.6,-242.97 618.02,-243.52 626.63,-249.69 628.6,-242.97"/>
</g>
<!-- Node32&#45;&gt;Node5 -->
<g id="edge64" class="edge">
<title>Node32&#45;&gt;Node5</title>
<path fill="none" stroke="midnightblue" d="M595.03,-224.29C610.74,-202.25 655.22,-143.77 706,-112 795.37,-56.09 918.82,-28 979.05,-16.9"/>
<polygon fill="midnightblue" stroke="midnightblue" points="979.97,-20.29 989.19,-15.08 978.73,-13.4 979.97,-20.29"/>
</g>
<!-- Node32&#45;&gt;Node6 -->
<g id="edge66" class="edge">
<title>Node32&#45;&gt;Node6</title>
<path fill="none" stroke="midnightblue" d="M629.09,-225.53C632.11,-225 635.1,-224.48 638,-224 723.16,-209.77 822.33,-195.25 882.34,-186.69"/>
<polygon fill="midnightblue" stroke="midnightblue" points="882.94,-190.14 892.35,-185.26 881.96,-183.21 882.94,-190.14"/>
</g>
<!-- Node32&#45;&gt;Node19 -->
<g id="edge63" class="edge">
<title>Node32&#45;&gt;Node19</title>
<path fill="none" stroke="midnightblue" d="M574.38,-224.32C560.05,-215.82 537.99,-202.73 521.25,-192.8"/>
<polygon fill="midnightblue" stroke="midnightblue" points="522.97,-189.75 512.58,-187.65 519.4,-195.77 522.97,-189.75"/>
</g>
<!-- Node32&#45;&gt;Node20 -->
<g id="edge65" class="edge">
<title>Node32&#45;&gt;Node20</title>
<path fill="none" stroke="midnightblue" d="M589,-224.08C589,-217.01 589,-206.86 589,-197.99"/>
<polygon fill="midnightblue" stroke="midnightblue" points="592.5,-197.75 589,-187.75 585.5,-197.75 592.5,-197.75"/>
</g>
<!-- Node34&#45;&gt;Node4 -->
<g id="edge73" class="edge">
<title>Node34&#45;&gt;Node4</title>
<path fill="none" stroke="midnightblue" d="M141.67,-172.05C157.03,-170.72 173.65,-169.29 189,-168 384.9,-151.48 620.25,-132.42 704.81,-125.59"/>
<polygon fill="midnightblue" stroke="midnightblue" points="705.13,-129.08 714.81,-124.79 704.56,-122.1 705.13,-129.08"/>
</g>
<!-- Node34&#45;&gt;Node10 -->
<g id="edge72" class="edge">
<title>Node34&#45;&gt;Node10</title>
<path fill="none" stroke="midnightblue" d="M93.12,-168.21C105.69,-154.92 131.06,-129.41 156,-112 174.12,-99.35 196.26,-87.95 213.67,-79.79"/>
<polygon fill="midnightblue" stroke="midnightblue" points="215.17,-82.95 222.8,-75.6 212.25,-76.59 215.17,-82.95"/>
</g>
<!-- Node35&#45;&gt;Node9 -->
<g id="edge75" class="edge">
<title>Node35&#45;&gt;Node9</title>
<path fill="none" stroke="midnightblue" d="M1363.19,-336.47C1415.33,-326.75 1492.27,-310.83 1501,-300 1553.46,-234.94 1538.22,-188.69 1505,-112 1499.73,-99.84 1489.38,-89.46 1479.64,-81.74"/>
<polygon fill="midnightblue" stroke="midnightblue" points="1481.5,-78.77 1471.37,-75.67 1477.36,-84.41 1481.5,-78.77"/>
</g>
<!-- Node36&#45;&gt;Node17 -->
<g id="edge77" class="edge">
<title>Node36&#45;&gt;Node17</title>
<path fill="none" stroke="midnightblue" d="M1457.01,-336.47C1472.31,-329.25 1491.59,-317.3 1501,-300 1540.93,-226.58 1554.16,-179.59 1505,-112 1493.03,-95.55 1441.48,-82.04 1404.66,-74.25"/>
<polygon fill="midnightblue" stroke="midnightblue" points="1405.21,-70.79 1394.71,-72.21 1403.8,-77.65 1405.21,-70.79"/>
</g>
</g>
</svg>
        <g id="navigator" transform="translate(0 0)" fill="#404254">
                <rect fill="#f2f5e9" fill-opacity="0.5" stroke="#606060" stroke-width=".5" x="0" y="0" width="60" height="60"/>
                <use id="zoomplus" xlink:href="#zoomPlus" x="17" y="9" onmousedown="handleZoom(evt,'in')"/>
                <use id="zoomminus" xlink:href="#zoomMin" x="42" y="9" onmousedown="handleZoom(evt,'out')"/>
                <use id="reset" xlink:href="#resetDef" x="30" y="36" onmousedown="handleReset()"/>
                <g id="arrowUp" xlink:href="#dirArrow" transform="translate(30 24)" onmousedown="handlePan(0,-1)">
                  <use xlink:href="#rim" fill="#404040">
                        <set attributeName="fill" to="#808080" begin="arrowUp.mouseover" end="arrowUp.mouseout"/>
                  </use>
                  <path fill="none" stroke="white" stroke-width="1.5" d="M0,-3.0v7 M-2.5,-0.5L0,-3.0L2.5,-0.5"/>
                </g>
                <g id="arrowRight" xlink:href="#dirArrow" transform="rotate(90) translate(36 -43)" onmousedown="handlePan(1,0)">
                  <use xlink:href="#rim" fill="#404040">
                        <set attributeName="fill" to="#808080" begin="arrowRight.mouseover" end="arrowRight.mouseout"/>
                  </use>
                  <path fill="none" stroke="white" stroke-width="1.5" d="M0,-3.0v7 M-2.5,-0.5L0,-3.0L2.5,-0.5"/>
                </g>
                <g id="arrowDown" xlink:href="#dirArrow" transform="rotate(180) translate(-30 -48)" onmousedown="handlePan(0,1)">
                  <use xlink:href="#rim" fill="#404040">
                        <set attributeName="fill" to="#808080" begin="arrowDown.mouseover" end="arrowDown.mouseout"/>
                  </use>
                  <path fill="none" stroke="white" stroke-width="1.5" d="M0,-3.0v7 M-2.5,-0.5L0,-3.0L2.5,-0.5"/>
                </g>
                <g id="arrowLeft" xlink:href="#dirArrow" transform="rotate(270) translate(-36 17)" onmousedown="handlePan(-1,0)">
                  <use xlink:href="#rim" fill="#404040">
                        <set attributeName="fill" to="#808080" begin="arrowLeft.mouseover" end="arrowLeft.mouseout"/>
                  </use>
                  <path fill="none" stroke="white" stroke-width="1.5" d="M0,-3.0v7 M-2.5,-0.5L0,-3.0L2.5,-0.5"/>
                </g>
        </g>
        <svg viewBox="0 0 15 15" width="100%" height="30px" preserveAspectRatio="xMaxYMin meet">
         <g id="arrow_out" transform="scale(0.3 0.3)">
          <a xlink:href="EnemyMovementBehaviour_8cpp__incl_org.svg" target="_base">
           <rect id="button" ry="5" rx="5" y="6" x="6" height="38" width="38"
                fill="#f2f5e9" fill-opacity="0.5" stroke="#606060" stroke-width="1.0"/>
           <path id="arrow"
             d="M 11.500037,31.436501 C 11.940474,20.09759 22.043105,11.32322 32.158766,21.979434 L 37.068811,17.246167 C 37.068811,17.246167 37.088388,32 37.088388,32 L 22.160133,31.978069 C 22.160133,31.978069 26.997745,27.140456 26.997745,27.140456 C 18.528582,18.264221 13.291696,25.230495 11.500037,31.436501 z"
             style="fill:#404040;"/>
          </a>
         </g>
        </svg>
</svg>
