<?xml version="1.0" encoding="UTF-8" standalone="no"?>
<!DOCTYPE svg PUBLIC "-//W3C//DTD SVG 1.1//EN"
 "http://www.w3.org/Graphics/SVG/1.1/DTD/svg11.dtd">
<!-- Generated by graphviz version 2.44.0 ()
 -->
<!-- Title: src/Factories/EnemyPrefabFactory.cpp Pages: 1 -->
<svg width="2181pt" height="397pt"
 viewBox="0.00 0.00 2180.50 397.00" xmlns="http://www.w3.org/2000/svg" xmlns:xlink="http://www.w3.org/1999/xlink">
<g id="graph0" class="graph" transform="scale(1 1) rotate(0) translate(4 393)">
<title>src/Factories/EnemyPrefabFactory.cpp</title>
<!-- Node1 -->
<g id="node1" class="node">
<title>Node1</title>
<g id="a_node1"><a xlink:title=" ">
<polygon fill="#bfbfbf" stroke="black" points="861,-358.5 861,-388.5 995,-388.5 995,-358.5 861,-358.5"/>
<text text-anchor="start" x="869" y="-376.5" font-family="Helvetica,sans-Serif" font-size="10.00">src/Factories/EnemyPrefab</text>
<text text-anchor="middle" x="928" y="-365.5" font-family="Helvetica,sans-Serif" font-size="10.00">Factory.cpp</text>
</a>
</g>
</g>
<!-- Node2 -->
<g id="node2" class="node">
<title>Node2</title>
<g id="a_node2"><a xlink:href="EnemyPrefabFactory_8hpp.html" target="_top" xlink:title=" ">
<polygon fill="none" stroke="black" points="1825.5,-230 1825.5,-249 1950.5,-249 1950.5,-230 1825.5,-230"/>
<text text-anchor="middle" x="1888" y="-237" font-family="Helvetica,sans-Serif" font-size="10.00">EnemyPrefabFactory.hpp</text>
</a>
</g>
</g>
<!-- Node1&#45;&gt;Node2 -->
<g id="edge1" class="edge">
<title>Node1&#45;&gt;Node2</title>
<path fill="none" stroke="midnightblue" d="M995.2,-364.83C1143.05,-347.66 1507.54,-303.83 1811,-255 1818.74,-253.75 1826.9,-252.33 1834.9,-250.88"/>
<polygon fill="midnightblue" stroke="midnightblue" points="1835.7,-254.29 1844.9,-249.03 1834.43,-247.41 1835.7,-254.29"/>
</g>
<!-- Node14 -->
<g id="node14" class="node">
<title>Node14</title>
<g id="a_node14"><a xlink:href="HealthBarFactory_8hpp.html" target="_top" xlink:title=" ">
<polygon fill="none" stroke="black" points="606,-297 606,-316 716,-316 716,-297 606,-297"/>
<text text-anchor="middle" x="661" y="-304" font-family="Helvetica,sans-Serif" font-size="10.00">HealthBarFactory.hpp</text>
</a>
</g>
</g>
<!-- Node1&#45;&gt;Node14 -->
<g id="edge20" class="edge">
<title>Node1&#45;&gt;Node14</title>
<path fill="none" stroke="midnightblue" d="M870.39,-358.48C821.08,-346.47 751.08,-329.43 705.85,-318.42"/>
<polygon fill="midnightblue" stroke="midnightblue" points="706.58,-314.99 696.03,-316.03 704.92,-321.79 706.58,-314.99"/>
</g>
<!-- Node18 -->
<g id="node18" class="node">
<title>Node18</title>
<g id="a_node18"><a xlink:href="Animator_8hpp.html" target="_top" xlink:title=" ">
<polygon fill="none" stroke="black" points="812,-168.5 812,-187.5 886,-187.5 886,-168.5 812,-168.5"/>
<text text-anchor="middle" x="849" y="-175.5" font-family="Helvetica,sans-Serif" font-size="10.00">Animator.hpp</text>
</a>
</g>
</g>
<!-- Node1&#45;&gt;Node18 -->
<g id="edge87" class="edge">
<title>Node1&#45;&gt;Node18</title>
<path fill="none" stroke="midnightblue" d="M860.96,-368.11C829.18,-362.25 793.89,-349.46 774,-322 742.75,-278.86 799.21,-220.98 830.39,-194"/>
<polygon fill="midnightblue" stroke="midnightblue" points="832.67,-196.66 838.07,-187.55 828.16,-191.31 832.67,-196.66"/>
</g>
<!-- Node19 -->
<g id="node19" class="node">
<title>Node19</title>
<g id="a_node19"><a xlink:href="Constants_8hpp.html" target="_top" xlink:title=" ">
<polygon fill="none" stroke="black" points="1944,-112.5 1944,-131.5 2030,-131.5 2030,-112.5 1944,-112.5"/>
<text text-anchor="middle" x="1987" y="-119.5" font-family="Helvetica,sans-Serif" font-size="10.00">../Constants.hpp</text>
</a>
</g>
</g>
<!-- Node1&#45;&gt;Node19 -->
<g id="edge34" class="edge">
<title>Node1&#45;&gt;Node19</title>
<path fill="none" stroke="midnightblue" d="M995.26,-368.81C1212.08,-356.36 1883.1,-313.44 1960,-255 1994.36,-228.89 1993.22,-171.85 1989.9,-142.02"/>
<polygon fill="midnightblue" stroke="midnightblue" points="1993.32,-141.18 1988.54,-131.72 1986.38,-142.1 1993.32,-141.18"/>
</g>
<!-- Node20 -->
<g id="node20" class="node">
<title>Node20</title>
<g id="a_node20"><a xlink:href="Layer_8hpp.html" target="_top" xlink:title=" ">
<polygon fill="none" stroke="black" points="1847.5,-297 1847.5,-316 1946.5,-316 1946.5,-297 1847.5,-297"/>
<text text-anchor="middle" x="1897" y="-304" font-family="Helvetica,sans-Serif" font-size="10.00">../Enums/Layer.hpp</text>
</a>
</g>
</g>
<!-- Node1&#45;&gt;Node20 -->
<g id="edge36" class="edge">
<title>Node1&#45;&gt;Node20</title>
<path fill="none" stroke="midnightblue" d="M995.07,-372.58C1145.69,-371.91 1521.91,-365.61 1833,-322 1839.9,-321.03 1847.15,-319.7 1854.2,-318.23"/>
<polygon fill="midnightblue" stroke="midnightblue" points="1855.29,-321.58 1864.31,-316.01 1853.79,-314.74 1855.29,-321.58"/>
</g>
<!-- Node21 -->
<g id="node21" class="node">
<title>Node21</title>
<g id="a_node21"><a xlink:href="SortingLayer_8hpp.html" target="_top" xlink:title=" ">
<polygon fill="none" stroke="black" points="1965,-297 1965,-316 2095,-316 2095,-297 1965,-297"/>
<text text-anchor="middle" x="2030" y="-304" font-family="Helvetica,sans-Serif" font-size="10.00">../Enums/SortingLayer.hpp</text>
</a>
</g>
</g>
<!-- Node1&#45;&gt;Node21 -->
<g id="edge37" class="edge">
<title>Node1&#45;&gt;Node21</title>
<path fill="none" stroke="midnightblue" d="M995.03,-372.55C1159.43,-371.94 1595.49,-365.94 1956,-322 1964.5,-320.96 1973.49,-319.51 1982.16,-317.92"/>
<polygon fill="midnightblue" stroke="midnightblue" points="1982.98,-321.33 1992.14,-316.01 1981.66,-314.45 1982.98,-321.33"/>
</g>
<!-- Node22 -->
<g id="node22" class="node">
<title>Node22</title>
<g id="a_node22"><a xlink:href="AttackBehaviour_8hpp.html" target="_top" xlink:title=" ">
<polygon fill="none" stroke="black" points="783,-291.5 783,-321.5 911,-321.5 911,-291.5 783,-291.5"/>
<text text-anchor="start" x="791" y="-309.5" font-family="Helvetica,sans-Serif" font-size="10.00">../Scripts/Common/Attack</text>
<text text-anchor="middle" x="847" y="-298.5" font-family="Helvetica,sans-Serif" font-size="10.00">Behaviour.hpp</text>
</a>
</g>
</g>
<!-- Node1&#45;&gt;Node22 -->
<g id="edge38" class="edge">
<title>Node1&#45;&gt;Node22</title>
<path fill="none" stroke="midnightblue" d="M910.42,-358.4C899.39,-349.54 884.96,-337.96 872.65,-328.09"/>
<polygon fill="midnightblue" stroke="midnightblue" points="874.53,-325.11 864.54,-321.58 870.15,-330.56 874.53,-325.11"/>
</g>
<!-- Node25 -->
<g id="node25" class="node">
<title>Node25</title>
<g id="a_node25"><a xlink:href="EnemyInvisibleBehaviour_8hpp.html" target="_top" xlink:title=" ">
<polygon fill="none" stroke="black" points="404,-291.5 404,-321.5 550,-321.5 550,-291.5 404,-291.5"/>
<text text-anchor="start" x="412" y="-309.5" font-family="Helvetica,sans-Serif" font-size="10.00">../Scripts/Enemies</text>
<text text-anchor="middle" x="477" y="-298.5" font-family="Helvetica,sans-Serif" font-size="10.00">/EnemyInvisibleBehaviour.hpp</text>
</a>
</g>
</g>
<!-- Node1&#45;&gt;Node25 -->
<g id="edge47" class="edge">
<title>Node1&#45;&gt;Node25</title>
<path fill="none" stroke="midnightblue" d="M860.83,-363.74C787.73,-354.08 667.43,-337.79 564,-322 562.72,-321.81 561.44,-321.61 560.14,-321.41"/>
<polygon fill="midnightblue" stroke="midnightblue" points="560.5,-317.92 550.08,-319.83 559.41,-324.84 560.5,-317.92"/>
</g>
<!-- Node26 -->
<g id="node26" class="node">
<title>Node26</title>
<g id="a_node26"><a xlink:href="EnemyMedicBehaviour_8hpp.html" target="_top" xlink:title=" ">
<polygon fill="none" stroke="black" points="248.5,-291.5 248.5,-321.5 385.5,-321.5 385.5,-291.5 248.5,-291.5"/>
<text text-anchor="start" x="256.5" y="-309.5" font-family="Helvetica,sans-Serif" font-size="10.00">../Scripts/Enemies</text>
<text text-anchor="middle" x="317" y="-298.5" font-family="Helvetica,sans-Serif" font-size="10.00">/EnemyMedicBehaviour.hpp</text>
</a>
</g>
</g>
<!-- Node1&#45;&gt;Node26 -->
<g id="edge53" class="edge">
<title>Node1&#45;&gt;Node26</title>
<path fill="none" stroke="midnightblue" d="M860.88,-368.07C761.54,-361.09 569.34,-345.95 395.93,-322.05"/>
<polygon fill="midnightblue" stroke="midnightblue" points="396.24,-318.56 385.85,-320.64 395.27,-325.49 396.24,-318.56"/>
</g>
<!-- Node27 -->
<g id="node27" class="node">
<title>Node27</title>
<g id="a_node27"><a xlink:href="EnemyMovementBehaviour_8hpp.html" target="_top" xlink:title=" ">
<polygon fill="none" stroke="black" points="1145,-291.5 1145,-321.5 1301,-321.5 1301,-291.5 1145,-291.5"/>
<text text-anchor="start" x="1153" y="-309.5" font-family="Helvetica,sans-Serif" font-size="10.00">../Scripts/Enemies</text>
<text text-anchor="middle" x="1223" y="-298.5" font-family="Helvetica,sans-Serif" font-size="10.00">/EnemyMovementBehaviour.hpp</text>
</a>
</g>
</g>
<!-- Node1&#45;&gt;Node27 -->
<g id="edge58" class="edge">
<title>Node1&#45;&gt;Node27</title>
<path fill="none" stroke="midnightblue" d="M991.65,-358.48C1038,-348.26 1100.89,-334.41 1149.4,-323.72"/>
<polygon fill="midnightblue" stroke="midnightblue" points="1150.2,-327.12 1159.21,-321.55 1148.69,-320.29 1150.2,-327.12"/>
</g>
<!-- Node30 -->
<g id="node30" class="node">
<title>Node30</title>
<g id="a_node30"><a xlink:href="RigidBody_8hpp.html" target="_top" xlink:title=" ">
<polygon fill="none" stroke="black" points="868,-112.5 868,-131.5 946,-131.5 946,-112.5 868,-112.5"/>
<text text-anchor="middle" x="907" y="-119.5" font-family="Helvetica,sans-Serif" font-size="10.00">RigidBody.hpp</text>
</a>
</g>
</g>
<!-- Node1&#45;&gt;Node30 -->
<g id="edge90" class="edge">
<title>Node1&#45;&gt;Node30</title>
<path fill="none" stroke="midnightblue" d="M860.72,-367.86C777.35,-361.15 640.94,-346.75 597,-322 580.09,-312.48 547.62,-273.24 541,-255 536.3,-242.05 532.65,-234.96 541,-224 541.63,-223.17 770.54,-160.38 865.98,-134.24"/>
<polygon fill="midnightblue" stroke="midnightblue" points="867.14,-137.55 875.86,-131.53 865.29,-130.79 867.14,-137.55"/>
</g>
<!-- Node33 -->
<g id="node33" class="node">
<title>Node33</title>
<g id="a_node33"><a xlink:href="EnemySpeedBoostBehaviour_8hpp.html" target="_top" xlink:title=" ">
<polygon fill="none" stroke="black" points="66,-291.5 66,-321.5 230,-321.5 230,-291.5 66,-291.5"/>
<text text-anchor="start" x="74" y="-309.5" font-family="Helvetica,sans-Serif" font-size="10.00">../Scripts/Enemies</text>
<text text-anchor="middle" x="148" y="-298.5" font-family="Helvetica,sans-Serif" font-size="10.00">/EnemySpeedBoostBehaviour.hpp</text>
</a>
</g>
</g>
<!-- Node1&#45;&gt;Node33 -->
<g id="edge75" class="edge">
<title>Node1&#45;&gt;Node33</title>
<path fill="none" stroke="midnightblue" d="M860.83,-369.47C739.13,-363.57 473.91,-348.81 240.34,-322.09"/>
<polygon fill="midnightblue" stroke="midnightblue" points="240.63,-318.6 230.3,-320.93 239.83,-325.56 240.63,-318.6"/>
</g>
<!-- Node34 -->
<g id="node34" class="node">
<title>Node34</title>
<g id="a_node34"><a xlink:href="EnemyTroopTruckBehaviour_8hpp.html" target="_top" xlink:title=" ">
<polygon fill="none" stroke="black" points="929,-291.5 929,-321.5 1089,-321.5 1089,-291.5 929,-291.5"/>
<text text-anchor="start" x="937" y="-309.5" font-family="Helvetica,sans-Serif" font-size="10.00">../Scripts/Enemies</text>
<text text-anchor="middle" x="1009" y="-298.5" font-family="Helvetica,sans-Serif" font-size="10.00">/EnemyTroopTruckBehaviour.hpp</text>
</a>
</g>
</g>
<!-- Node1&#45;&gt;Node34 -->
<g id="edge79" class="edge">
<title>Node1&#45;&gt;Node34</title>
<path fill="none" stroke="midnightblue" d="M945.58,-358.4C956.61,-349.54 971.04,-337.96 983.35,-328.09"/>
<polygon fill="midnightblue" stroke="midnightblue" points="985.85,-330.56 991.46,-321.58 981.47,-325.11 985.85,-330.56"/>
</g>
<!-- Node35 -->
<g id="node35" class="node">
<title>Node35</title>
<g id="a_node35"><a xlink:href="GameObjectUtil_8hpp.html" target="_top" xlink:title=" ">
<polygon fill="none" stroke="black" points="1222.5,-230 1222.5,-249 1357.5,-249 1357.5,-230 1222.5,-230"/>
<text text-anchor="middle" x="1290" y="-237" font-family="Helvetica,sans-Serif" font-size="10.00">../Utils/GameObjectUtil.hpp</text>
</a>
</g>
</g>
<!-- Node1&#45;&gt;Node35 -->
<g id="edge84" class="edge">
<title>Node1&#45;&gt;Node35</title>
<path fill="none" stroke="midnightblue" d="M995.36,-359C1027.58,-350.94 1066.02,-338.91 1098,-322 1117.27,-311.81 1116.88,-301.46 1136,-291 1169.19,-272.84 1209.99,-259.83 1241.26,-251.56"/>
<polygon fill="midnightblue" stroke="midnightblue" points="1242.24,-254.93 1251.06,-249.05 1240.5,-248.15 1242.24,-254.93"/>
</g>
<!-- Node36 -->
<g id="node36" class="node">
<title>Node36</title>
<g id="a_node36"><a xlink:href="CircleCollider_8hpp.html" target="_top" xlink:title=" ">
<polygon fill="none" stroke="black" points="446,-168.5 446,-187.5 538,-187.5 538,-168.5 446,-168.5"/>
<text text-anchor="middle" x="492" y="-175.5" font-family="Helvetica,sans-Serif" font-size="10.00">CircleCollider.hpp</text>
</a>
</g>
</g>
<!-- Node1&#45;&gt;Node36 -->
<g id="edge88" class="edge">
<title>Node1&#45;&gt;Node36</title>
<path fill="none" stroke="midnightblue" d="M860.69,-371.09C661.06,-366.59 84.48,-351.12 57,-322 -55.31,-202.99 294.25,-182.91 435.53,-179.61"/>
<polygon fill="midnightblue" stroke="midnightblue" points="435.81,-183.11 445.73,-179.39 435.66,-176.11 435.81,-183.11"/>
</g>
<!-- Node37 -->
<g id="node37" class="node">
<title>Node37</title>
<g id="a_node37"><a xlink:title=" ">
<polygon fill="none" stroke="#bfbfbf" points="2113.5,-297 2113.5,-316 2172.5,-316 2172.5,-297 2113.5,-297"/>
<text text-anchor="middle" x="2143" y="-304" font-family="Helvetica,sans-Serif" font-size="10.00">stdexcept</text>
</a>
</g>
</g>
<!-- Node1&#45;&gt;Node37 -->
<g id="edge91" class="edge">
<title>Node1&#45;&gt;Node37</title>
<path fill="none" stroke="midnightblue" d="M995.27,-372.37C1211.9,-371.5 1889.67,-365.32 2104,-322 2107.26,-321.34 2110.6,-320.45 2113.9,-319.43"/>
<polygon fill="midnightblue" stroke="midnightblue" points="2115.21,-322.69 2123.51,-316.11 2112.92,-316.07 2115.21,-322.69"/>
</g>
<!-- Node3 -->
<g id="node3" class="node">
<title>Node3</title>
<g id="a_node3"><a xlink:href="GameObject_8hpp.html" target="_top" xlink:title=" ">
<polygon fill="none" stroke="black" points="1111.5,-168.5 1111.5,-187.5 1200.5,-187.5 1200.5,-168.5 1111.5,-168.5"/>
<text text-anchor="middle" x="1156" y="-175.5" font-family="Helvetica,sans-Serif" font-size="10.00">GameObject.hpp</text>
</a>
</g>
</g>
<!-- Node2&#45;&gt;Node3 -->
<g id="edge2" class="edge">
<title>Node2&#45;&gt;Node3</title>
<path fill="none" stroke="midnightblue" d="M1828.42,-230C1812.09,-227.84 1794.38,-225.67 1778,-224 1568.79,-202.66 1318.98,-187.8 1210.62,-181.87"/>
<polygon fill="midnightblue" stroke="midnightblue" points="1210.75,-178.37 1200.58,-181.32 1210.37,-185.36 1210.75,-178.37"/>
</g>
<!-- Node10 -->
<g id="node10" class="node">
<title>Node10</title>
<g id="a_node10"><a xlink:href="Sprite_8hpp.html" target="_top" xlink:title=" ">
<polygon fill="none" stroke="black" points="1699,-112.5 1699,-131.5 1759,-131.5 1759,-112.5 1699,-112.5"/>
<text text-anchor="middle" x="1729" y="-119.5" font-family="Helvetica,sans-Serif" font-size="10.00">Sprite.hpp</text>
</a>
</g>
</g>
<!-- Node2&#45;&gt;Node10 -->
<g id="edge10" class="edge">
<title>Node2&#45;&gt;Node10</title>
<path fill="none" stroke="midnightblue" d="M1879.15,-229.6C1864.92,-215.55 1835.72,-187.79 1808,-168 1791.3,-156.07 1771.18,-144.66 1755.43,-136.3"/>
<polygon fill="midnightblue" stroke="midnightblue" points="1756.74,-133.04 1746.26,-131.52 1753.51,-139.25 1756.74,-133.04"/>
</g>
<!-- Node12 -->
<g id="node12" class="node">
<title>Node12</title>
<g id="a_node12"><a xlink:href="AnimatorUtil_8hpp.html" target="_top" xlink:title=" ">
<polygon fill="none" stroke="black" points="1860.5,-168.5 1860.5,-187.5 1979.5,-187.5 1979.5,-168.5 1860.5,-168.5"/>
<text text-anchor="middle" x="1920" y="-175.5" font-family="Helvetica,sans-Serif" font-size="10.00">../Utils/AnimatorUtil.hpp</text>
</a>
</g>
</g>
<!-- Node2&#45;&gt;Node12 -->
<g id="edge14" class="edge">
<title>Node2&#45;&gt;Node12</title>
<path fill="none" stroke="midnightblue" d="M1892.58,-229.98C1897.24,-221.32 1904.59,-207.65 1910.51,-196.65"/>
<polygon fill="midnightblue" stroke="midnightblue" points="1913.77,-197.97 1915.42,-187.51 1907.6,-194.66 1913.77,-197.97"/>
</g>
<!-- Node13 -->
<g id="node13" class="node">
<title>Node13</title>
<g id="a_node13"><a xlink:href="EnemyName_8hpp.html" target="_top" xlink:title=" ">
<polygon fill="none" stroke="black" points="1634.5,-168.5 1634.5,-187.5 1765.5,-187.5 1765.5,-168.5 1634.5,-168.5"/>
<text text-anchor="middle" x="1700" y="-175.5" font-family="Helvetica,sans-Serif" font-size="10.00">../Enums/EnemyName.hpp</text>
</a>
</g>
</g>
<!-- Node2&#45;&gt;Node13 -->
<g id="edge19" class="edge">
<title>Node2&#45;&gt;Node13</title>
<path fill="none" stroke="midnightblue" d="M1861.06,-229.98C1828.4,-219.64 1773.18,-202.16 1736.66,-190.6"/>
<polygon fill="midnightblue" stroke="midnightblue" points="1737.48,-187.19 1726.89,-187.51 1735.36,-193.86 1737.48,-187.19"/>
</g>
<!-- Node4 -->
<g id="node4" class="node">
<title>Node4</title>
<g id="a_node4"><a xlink:href="Component_8hpp.html" target="_top" xlink:title=" ">
<polygon fill="none" stroke="black" points="798,-56.5 798,-75.5 882,-75.5 882,-56.5 798,-56.5"/>
<text text-anchor="middle" x="840" y="-63.5" font-family="Helvetica,sans-Serif" font-size="10.00">Component.hpp</text>
</a>
</g>
</g>
<!-- Node3&#45;&gt;Node4 -->
<g id="edge3" class="edge">
<title>Node3&#45;&gt;Node4</title>
<path fill="none" stroke="midnightblue" d="M1131.47,-168.46C1075.58,-149.01 938.69,-101.36 874.41,-78.98"/>
<polygon fill="midnightblue" stroke="midnightblue" points="875.33,-75.59 864.74,-75.61 873.03,-82.2 875.33,-75.59"/>
</g>
<!-- Node5 -->
<g id="node5" class="node">
<title>Node5</title>
<g id="a_node5"><a xlink:title=" ">
<polygon fill="none" stroke="#bfbfbf" points="738.5,-0.5 738.5,-19.5 789.5,-19.5 789.5,-0.5 738.5,-0.5"/>
<text text-anchor="middle" x="764" y="-7.5" font-family="Helvetica,sans-Serif" font-size="10.00">memory</text>
</a>
</g>
</g>
<!-- Node3&#45;&gt;Node5 -->
<g id="edge9" class="edge">
<title>Node3&#45;&gt;Node5</title>
<path fill="none" stroke="midnightblue" d="M1154.47,-168.34C1151.65,-154.75 1144.47,-128.31 1129,-112 1089.32,-70.18 1066.85,-73.75 1012,-56 938.5,-32.22 848.43,-19.83 799.6,-14.44"/>
<polygon fill="midnightblue" stroke="midnightblue" points="799.85,-10.95 789.54,-13.36 799.11,-17.91 799.85,-10.95"/>
</g>
<!-- Node6 -->
<g id="node6" class="node">
<title>Node6</title>
<g id="a_node6"><a xlink:href="Transform_8hpp.html" target="_top" xlink:title=" ">
<polygon fill="none" stroke="black" points="1040.5,-112.5 1040.5,-131.5 1119.5,-131.5 1119.5,-112.5 1040.5,-112.5"/>
<text text-anchor="middle" x="1080" y="-119.5" font-family="Helvetica,sans-Serif" font-size="10.00">Transform.hpp</text>
</a>
</g>
</g>
<!-- Node3&#45;&gt;Node6 -->
<g id="edge5" class="edge">
<title>Node3&#45;&gt;Node6</title>
<path fill="none" stroke="midnightblue" d="M1143.79,-168.32C1132.22,-160.11 1114.62,-147.6 1100.84,-137.81"/>
<polygon fill="midnightblue" stroke="midnightblue" points="1102.61,-134.77 1092.43,-131.83 1098.56,-140.48 1102.61,-134.77"/>
</g>
<!-- Node8 -->
<g id="node8" class="node">
<title>Node8</title>
<g id="a_node8"><a xlink:title=" ">
<polygon fill="none" stroke="#bfbfbf" points="1585.5,-56.5 1585.5,-75.5 1626.5,-75.5 1626.5,-56.5 1585.5,-56.5"/>
<text text-anchor="middle" x="1606" y="-63.5" font-family="Helvetica,sans-Serif" font-size="10.00">string</text>
</a>
</g>
</g>
<!-- Node3&#45;&gt;Node8 -->
<g id="edge7" class="edge">
<title>Node3&#45;&gt;Node8</title>
<path fill="none" stroke="midnightblue" d="M1159.65,-168.46C1166.31,-154.05 1181.92,-125.16 1205,-112 1268.18,-75.97 1492.69,-68.78 1575.25,-67.35"/>
<polygon fill="midnightblue" stroke="midnightblue" points="1575.32,-70.85 1585.26,-67.2 1575.21,-63.85 1575.32,-70.85"/>
</g>
<!-- Node9 -->
<g id="node9" class="node">
<title>Node9</title>
<g id="a_node9"><a xlink:title=" ">
<polygon fill="none" stroke="#bfbfbf" points="1214,-112.5 1214,-131.5 1258,-131.5 1258,-112.5 1214,-112.5"/>
<text text-anchor="middle" x="1236" y="-119.5" font-family="Helvetica,sans-Serif" font-size="10.00">vector</text>
</a>
</g>
</g>
<!-- Node3&#45;&gt;Node9 -->
<g id="edge8" class="edge">
<title>Node3&#45;&gt;Node9</title>
<path fill="none" stroke="midnightblue" d="M1168.85,-168.32C1181.22,-159.98 1200.13,-147.21 1214.74,-137.35"/>
<polygon fill="midnightblue" stroke="midnightblue" points="1216.85,-140.15 1223.18,-131.65 1212.93,-134.35 1216.85,-140.15"/>
</g>
<!-- Node4&#45;&gt;Node5 -->
<g id="edge4" class="edge">
<title>Node4&#45;&gt;Node5</title>
<path fill="none" stroke="midnightblue" d="M827.79,-56.32C816.22,-48.11 798.62,-35.6 784.84,-25.81"/>
<polygon fill="midnightblue" stroke="midnightblue" points="786.61,-22.77 776.43,-19.83 782.56,-28.48 786.61,-22.77"/>
</g>
<!-- Node7 -->
<g id="node7" class="node">
<title>Node7</title>
<g id="a_node7"><a xlink:href="Point_8hpp.html" target="_top" xlink:title=" ">
<polygon fill="none" stroke="black" points="945.5,-56.5 945.5,-75.5 1002.5,-75.5 1002.5,-56.5 945.5,-56.5"/>
<text text-anchor="middle" x="974" y="-63.5" font-family="Helvetica,sans-Serif" font-size="10.00">Point.hpp</text>
</a>
</g>
</g>
<!-- Node6&#45;&gt;Node7 -->
<g id="edge6" class="edge">
<title>Node6&#45;&gt;Node7</title>
<path fill="none" stroke="midnightblue" d="M1062.97,-112.32C1045.97,-103.66 1019.62,-90.24 1000.01,-80.25"/>
<polygon fill="midnightblue" stroke="midnightblue" points="1001.49,-77.08 990.99,-75.65 998.31,-83.31 1001.49,-77.08"/>
</g>
<!-- Node10&#45;&gt;Node4 -->
<g id="edge11" class="edge">
<title>Node10&#45;&gt;Node4</title>
<path fill="none" stroke="midnightblue" d="M1698.76,-119.67C1593.54,-114.97 1233.65,-98.18 937,-76 922.61,-74.92 907.05,-73.57 892.68,-72.23"/>
<polygon fill="midnightblue" stroke="midnightblue" points="892.75,-68.72 882.47,-71.27 892.1,-75.69 892.75,-68.72"/>
</g>
<!-- Node10&#45;&gt;Node8 -->
<g id="edge13" class="edge">
<title>Node10&#45;&gt;Node8</title>
<path fill="none" stroke="midnightblue" d="M1709.51,-112.44C1689.36,-103.6 1657.68,-89.69 1634.67,-79.59"/>
<polygon fill="midnightblue" stroke="midnightblue" points="1635.96,-76.33 1625.4,-75.52 1633.15,-82.74 1635.96,-76.33"/>
</g>
<!-- Node11 -->
<g id="node11" class="node">
<title>Node11</title>
<g id="a_node11"><a xlink:href="Color_8hpp.html" target="_top" xlink:title=" ">
<polygon fill="none" stroke="black" points="1755.5,-56.5 1755.5,-75.5 1812.5,-75.5 1812.5,-56.5 1755.5,-56.5"/>
<text text-anchor="middle" x="1784" y="-63.5" font-family="Helvetica,sans-Serif" font-size="10.00">Color.hpp</text>
</a>
</g>
</g>
<!-- Node10&#45;&gt;Node11 -->
<g id="edge12" class="edge">
<title>Node10&#45;&gt;Node11</title>
<path fill="none" stroke="midnightblue" d="M1738.08,-112.08C1746.17,-104.14 1758.2,-92.34 1767.91,-82.8"/>
<polygon fill="midnightblue" stroke="midnightblue" points="1770.4,-85.25 1775.09,-75.75 1765.5,-80.26 1770.4,-85.25"/>
</g>
<!-- Node12&#45;&gt;Node5 -->
<g id="edge16" class="edge">
<title>Node12&#45;&gt;Node5</title>
<path fill="none" stroke="midnightblue" d="M1916.25,-168.5C1905.53,-145.36 1872.23,-81.28 1822,-56 1729.11,-9.25 973.94,-9.99 799.75,-10.79"/>
<polygon fill="midnightblue" stroke="midnightblue" points="799.57,-7.29 789.59,-10.84 799.6,-14.29 799.57,-7.29"/>
</g>
<!-- Node12&#45;&gt;Node8 -->
<g id="edge17" class="edge">
<title>Node12&#45;&gt;Node8</title>
<path fill="none" stroke="midnightblue" d="M1902.06,-168.4C1873.94,-155.13 1817.56,-129.39 1768,-112 1723.02,-96.21 1669.49,-82.25 1636.63,-74.22"/>
<polygon fill="midnightblue" stroke="midnightblue" points="1637.27,-70.77 1626.73,-71.82 1635.63,-77.57 1637.27,-70.77"/>
</g>
<!-- Node12&#45;&gt;Node9 -->
<g id="edge18" class="edge">
<title>Node12&#45;&gt;Node9</title>
<path fill="none" stroke="midnightblue" d="M1860.5,-172.3C1720.82,-161.28 1375.66,-134.03 1268.36,-125.55"/>
<polygon fill="midnightblue" stroke="midnightblue" points="1268.41,-122.05 1258.17,-124.75 1267.86,-129.03 1268.41,-122.05"/>
</g>
<!-- Node12&#45;&gt;Node10 -->
<g id="edge15" class="edge">
<title>Node12&#45;&gt;Node10</title>
<path fill="none" stroke="midnightblue" d="M1889.74,-168.44C1857.04,-159.2 1804.82,-144.44 1768.82,-134.26"/>
<polygon fill="midnightblue" stroke="midnightblue" points="1769.7,-130.87 1759.12,-131.52 1767.79,-137.61 1769.7,-130.87"/>
</g>
<!-- Node14&#45;&gt;Node3 -->
<g id="edge21" class="edge">
<title>Node14&#45;&gt;Node3</title>
<path fill="none" stroke="midnightblue" d="M684.18,-296.98C728.5,-280.92 828.57,-245.84 915,-224 978.18,-208.03 1051.99,-195.07 1101.12,-187.23"/>
<polygon fill="midnightblue" stroke="midnightblue" points="1101.89,-190.65 1111.22,-185.63 1100.79,-183.73 1101.89,-190.65"/>
</g>
<!-- Node14&#45;&gt;Node5 -->
<g id="edge33" class="edge">
<title>Node14&#45;&gt;Node5</title>
<path fill="none" stroke="midnightblue" d="M612.63,-296.98C533.91,-280.84 391.26,-240.71 437,-168 502.39,-64.06 657.88,-27.38 728.28,-15.79"/>
<polygon fill="midnightblue" stroke="midnightblue" points="729.09,-19.21 738.42,-14.2 728,-12.29 729.09,-19.21"/>
</g>
<!-- Node15 -->
<g id="node15" class="node">
<title>Node15</title>
<g id="a_node15"><a xlink:href="HealthBehaviour_8hpp.html" target="_top" xlink:title=" ">
<polygon fill="none" stroke="black" points="550,-224.5 550,-254.5 678,-254.5 678,-224.5 550,-224.5"/>
<text text-anchor="start" x="558" y="-242.5" font-family="Helvetica,sans-Serif" font-size="10.00">../Scripts/Common/Health</text>
<text text-anchor="middle" x="614" y="-231.5" font-family="Helvetica,sans-Serif" font-size="10.00">Behaviour.hpp</text>
</a>
</g>
</g>
<!-- Node14&#45;&gt;Node15 -->
<g id="edge22" class="edge">
<title>Node14&#45;&gt;Node15</title>
<path fill="none" stroke="midnightblue" d="M654.66,-296.73C648.43,-288.12 638.66,-274.61 630.26,-262.99"/>
<polygon fill="midnightblue" stroke="midnightblue" points="632.88,-260.64 624.19,-254.59 627.21,-264.74 632.88,-260.64"/>
</g>
<!-- Node15&#45;&gt;Node5 -->
<g id="edge27" class="edge">
<title>Node15&#45;&gt;Node5</title>
<path fill="none" stroke="midnightblue" d="M632.31,-224.37C643.78,-214.91 658.35,-201.72 669,-188 709.92,-135.31 742.73,-62.53 756.7,-29.11"/>
<polygon fill="midnightblue" stroke="midnightblue" points="760,-30.29 760.56,-19.71 753.53,-27.63 760,-30.29"/>
</g>
<!-- Node16 -->
<g id="node16" class="node">
<title>Node16</title>
<g id="a_node16"><a xlink:href="BehaviourScript_8hpp.html" target="_top" xlink:title=" ">
<polygon fill="none" stroke="black" points="556,-168.5 556,-187.5 660,-187.5 660,-168.5 556,-168.5"/>
<text text-anchor="middle" x="608" y="-175.5" font-family="Helvetica,sans-Serif" font-size="10.00">BehaviourScript.hpp</text>
</a>
</g>
</g>
<!-- Node15&#45;&gt;Node16 -->
<g id="edge23" class="edge">
<title>Node15&#45;&gt;Node16</title>
<path fill="none" stroke="midnightblue" d="M612.58,-224.4C611.78,-216.47 610.77,-206.46 609.9,-197.86"/>
<polygon fill="midnightblue" stroke="midnightblue" points="613.36,-197.26 608.87,-187.66 606.39,-197.96 613.36,-197.26"/>
</g>
<!-- Node15&#45;&gt;Node18 -->
<g id="edge28" class="edge">
<title>Node15&#45;&gt;Node18</title>
<path fill="none" stroke="midnightblue" d="M669.39,-224.47C711,-213.94 767.18,-199.72 805.56,-190"/>
<polygon fill="midnightblue" stroke="midnightblue" points="806.57,-193.35 815.4,-187.51 804.85,-186.57 806.57,-193.35"/>
</g>
<!-- Node16&#45;&gt;Node4 -->
<g id="edge24" class="edge">
<title>Node16&#45;&gt;Node4</title>
<path fill="none" stroke="midnightblue" d="M626.2,-168.37C666.78,-149.13 764.82,-102.65 812.73,-79.93"/>
<polygon fill="midnightblue" stroke="midnightblue" points="814.34,-83.04 821.88,-75.59 811.34,-76.71 814.34,-83.04"/>
</g>
<!-- Node17 -->
<g id="node17" class="node">
<title>Node17</title>
<g id="a_node17"><a xlink:href="Collider_8hpp.html" target="_top" xlink:title=" ">
<polygon fill="none" stroke="black" points="574.5,-112.5 574.5,-131.5 641.5,-131.5 641.5,-112.5 574.5,-112.5"/>
<text text-anchor="middle" x="608" y="-119.5" font-family="Helvetica,sans-Serif" font-size="10.00">Collider.hpp</text>
</a>
</g>
</g>
<!-- Node16&#45;&gt;Node17 -->
<g id="edge25" class="edge">
<title>Node16&#45;&gt;Node17</title>
<path fill="none" stroke="midnightblue" d="M608,-168.08C608,-161.01 608,-150.86 608,-141.99"/>
<polygon fill="midnightblue" stroke="midnightblue" points="611.5,-141.75 608,-131.75 604.5,-141.75 611.5,-141.75"/>
</g>
<!-- Node17&#45;&gt;Node4 -->
<g id="edge26" class="edge">
<title>Node17&#45;&gt;Node4</title>
<path fill="none" stroke="midnightblue" d="M641.73,-113.15C681.69,-103.85 748.48,-88.3 793.37,-77.85"/>
<polygon fill="midnightblue" stroke="midnightblue" points="794.21,-81.25 803.16,-75.58 792.62,-74.43 794.21,-81.25"/>
</g>
<!-- Node18&#45;&gt;Node4 -->
<g id="edge29" class="edge">
<title>Node18&#45;&gt;Node4</title>
<path fill="none" stroke="midnightblue" d="M848.29,-168.37C846.84,-150.62 843.49,-109.67 841.52,-85.6"/>
<polygon fill="midnightblue" stroke="midnightblue" points="845.01,-85.27 840.7,-75.59 838.03,-85.84 845.01,-85.27"/>
</g>
<!-- Node18&#45;&gt;Node5 -->
<g id="edge32" class="edge">
<title>Node18&#45;&gt;Node5</title>
<path fill="none" stroke="midnightblue" d="M843.19,-168.36C831.82,-151.25 806.27,-111.6 789,-76 781.58,-60.7 774.77,-42.6 770.14,-29.39"/>
<polygon fill="midnightblue" stroke="midnightblue" points="773.34,-27.94 766.79,-19.61 766.72,-30.2 773.34,-27.94"/>
</g>
<!-- Node18&#45;&gt;Node9 -->
<g id="edge31" class="edge">
<title>Node18&#45;&gt;Node9</title>
<path fill="none" stroke="midnightblue" d="M886.11,-171.82C961.69,-161.28 1132.34,-137.46 1203.69,-127.51"/>
<polygon fill="midnightblue" stroke="midnightblue" points="1204.44,-130.94 1213.86,-126.09 1203.48,-124 1204.44,-130.94"/>
</g>
<!-- Node18&#45;&gt;Node10 -->
<g id="edge30" class="edge">
<title>Node18&#45;&gt;Node10</title>
<path fill="none" stroke="midnightblue" d="M886.25,-174.71C1029.05,-165.95 1540.95,-134.54 1688.77,-125.47"/>
<polygon fill="midnightblue" stroke="midnightblue" points="1689,-128.96 1698.77,-124.85 1688.58,-121.97 1689,-128.96"/>
</g>
<!-- Node19&#45;&gt;Node11 -->
<g id="edge35" class="edge">
<title>Node19&#45;&gt;Node11</title>
<path fill="none" stroke="midnightblue" d="M1954.83,-112.44C1918.91,-102.89 1860.8,-87.43 1822.5,-77.24"/>
<polygon fill="midnightblue" stroke="midnightblue" points="1823.3,-73.83 1812.73,-74.64 1821.5,-80.6 1823.3,-73.83"/>
</g>
<!-- Node22&#45;&gt;Node7 -->
<g id="edge45" class="edge">
<title>Node22&#45;&gt;Node7</title>
<path fill="none" stroke="midnightblue" d="M857.66,-291.4C878.87,-262.77 926.75,-195.16 955,-132 961.75,-116.91 966.82,-98.78 970.01,-85.51"/>
<polygon fill="midnightblue" stroke="midnightblue" points="973.45,-86.2 972.26,-75.68 966.62,-84.65 973.45,-86.2"/>
</g>
<!-- Node22&#45;&gt;Node8 -->
<g id="edge46" class="edge">
<title>Node22&#45;&gt;Node8</title>
<path fill="none" stroke="midnightblue" d="M911.01,-292.28C914.05,-291.81 917.05,-291.38 920,-291 985.25,-282.57 1456.04,-291.16 1511,-255 1571.34,-215.31 1595.12,-124.96 1602.84,-85.74"/>
<polygon fill="midnightblue" stroke="midnightblue" points="1606.31,-86.19 1604.67,-75.72 1599.43,-84.93 1606.31,-86.19"/>
</g>
<!-- Node22&#45;&gt;Node15 -->
<g id="edge42" class="edge">
<title>Node22&#45;&gt;Node15</title>
<path fill="none" stroke="midnightblue" d="M796.73,-291.48C760.87,-281.47 712.47,-267.97 674.5,-257.38"/>
<polygon fill="midnightblue" stroke="midnightblue" points="675.15,-253.93 664.58,-254.61 673.27,-260.67 675.15,-253.93"/>
</g>
<!-- Node22&#45;&gt;Node16 -->
<g id="edge39" class="edge">
<title>Node22&#45;&gt;Node16</title>
<path fill="none" stroke="midnightblue" d="M782.72,-297.04C695.29,-285.22 548.79,-264.19 541,-255 532.09,-244.49 534.52,-236.16 541,-224 548.55,-209.83 562.76,-199.33 576.16,-192.06"/>
<polygon fill="midnightblue" stroke="midnightblue" points="577.83,-195.13 585.21,-187.53 574.7,-188.87 577.83,-195.13"/>
</g>
<!-- Node22&#45;&gt;Node18 -->
<g id="edge44" class="edge">
<title>Node22&#45;&gt;Node18</title>
<path fill="none" stroke="midnightblue" d="M847.22,-291.48C847.58,-268.72 848.29,-223.7 848.7,-198.06"/>
<polygon fill="midnightblue" stroke="midnightblue" points="852.2,-197.84 848.86,-187.79 845.2,-197.73 852.2,-197.84"/>
</g>
<!-- Node23 -->
<g id="node23" class="node">
<title>Node23</title>
<g id="a_node23"><a xlink:href="CoolDownBehaviour_8hpp.html" target="_top" xlink:title=" ">
<polygon fill="none" stroke="black" points="258,-230 258,-249 380,-249 380,-230 258,-230"/>
<text text-anchor="middle" x="319" y="-237" font-family="Helvetica,sans-Serif" font-size="10.00">CoolDownBehaviour.hpp</text>
</a>
</g>
</g>
<!-- Node22&#45;&gt;Node23 -->
<g id="edge40" class="edge">
<title>Node22&#45;&gt;Node23</title>
<path fill="none" stroke="midnightblue" d="M782.78,-297.59C683.58,-285.38 493.72,-262.01 390.35,-249.28"/>
<polygon fill="midnightblue" stroke="midnightblue" points="390.67,-245.8 380.32,-248.05 389.82,-252.74 390.67,-245.8"/>
</g>
<!-- Node24 -->
<g id="node24" class="node">
<title>Node24</title>
<g id="a_node24"><a xlink:href="BulletType_8hpp.html" target="_top" xlink:title=" ">
<polygon fill="none" stroke="black" points="924,-230 924,-249 1052,-249 1052,-230 924,-230"/>
<text text-anchor="middle" x="988" y="-237" font-family="Helvetica,sans-Serif" font-size="10.00">../../Enums/BulletType.hpp</text>
</a>
</g>
</g>
<!-- Node22&#45;&gt;Node24 -->
<g id="edge43" class="edge">
<title>Node22&#45;&gt;Node24</title>
<path fill="none" stroke="midnightblue" d="M877.59,-291.4C902.23,-280.04 936.55,-264.22 960.36,-253.24"/>
<polygon fill="midnightblue" stroke="midnightblue" points="961.93,-256.37 969.55,-249.01 959,-250.02 961.93,-256.37"/>
</g>
<!-- Node23&#45;&gt;Node16 -->
<g id="edge41" class="edge">
<title>Node23&#45;&gt;Node16</title>
<path fill="none" stroke="midnightblue" d="M360.41,-229.98C412.13,-219.33 500.61,-201.11 556.61,-189.58"/>
<polygon fill="midnightblue" stroke="midnightblue" points="557.58,-192.95 566.67,-187.51 556.17,-186.1 557.58,-192.95"/>
</g>
<!-- Node25&#45;&gt;Node5 -->
<g id="edge52" class="edge">
<title>Node25&#45;&gt;Node5</title>
<path fill="none" stroke="midnightblue" d="M403.8,-291.92C342.22,-280.07 262.14,-263.47 249,-255 213.51,-232.12 192,-221.22 192,-179 192,-179 192,-179 192,-121 192,-66.16 602.72,-25.27 728.09,-14.07"/>
<polygon fill="midnightblue" stroke="midnightblue" points="728.66,-17.54 738.31,-13.17 728.04,-10.56 728.66,-17.54"/>
</g>
<!-- Node25&#45;&gt;Node10 -->
<g id="edge49" class="edge">
<title>Node25&#45;&gt;Node10</title>
<path fill="none" stroke="midnightblue" d="M550.2,-295.7C565.63,-293.9 581.83,-292.21 597,-291 698.31,-282.9 1415.3,-289.23 1511,-255 1571.35,-233.41 1570.7,-200.39 1626,-168 1648.29,-154.95 1675.06,-143.37 1695.72,-135.22"/>
<polygon fill="midnightblue" stroke="midnightblue" points="1697.26,-138.38 1705.33,-131.51 1694.74,-131.85 1697.26,-138.38"/>
</g>
<!-- Node25&#45;&gt;Node15 -->
<g id="edge51" class="edge">
<title>Node25&#45;&gt;Node15</title>
<path fill="none" stroke="midnightblue" d="M506.73,-291.4C526.74,-281.9 553.35,-269.28 575.05,-258.98"/>
<polygon fill="midnightblue" stroke="midnightblue" points="576.8,-262.03 584.33,-254.58 573.8,-255.7 576.8,-262.03"/>
</g>
<!-- Node25&#45;&gt;Node16 -->
<g id="edge48" class="edge">
<title>Node25&#45;&gt;Node16</title>
<path fill="none" stroke="midnightblue" d="M459.47,-291.43C440.52,-274.52 415.15,-245.7 432,-224 439.6,-214.21 504.21,-199.48 552.96,-189.57"/>
<polygon fill="midnightblue" stroke="midnightblue" points="553.67,-192.99 562.79,-187.59 552.29,-186.13 553.67,-192.99"/>
</g>
<!-- Node25&#45;&gt;Node23 -->
<g id="edge50" class="edge">
<title>Node25&#45;&gt;Node23</title>
<path fill="none" stroke="midnightblue" d="M442.72,-291.4C414.87,-279.94 375.97,-263.94 349.27,-252.95"/>
<polygon fill="midnightblue" stroke="midnightblue" points="350.26,-249.57 339.68,-249.01 347.59,-256.05 350.26,-249.57"/>
</g>
<!-- Node26&#45;&gt;Node3 -->
<g id="edge56" class="edge">
<title>Node26&#45;&gt;Node3</title>
<path fill="none" stroke="midnightblue" d="M385.86,-292.46C388.95,-291.95 392.01,-291.46 395,-291 524.23,-271.04 558.59,-279.67 687,-255 740.25,-244.77 751.77,-234.36 805,-224 908.82,-203.8 1031.75,-190.41 1101.13,-183.82"/>
<polygon fill="midnightblue" stroke="midnightblue" points="1101.75,-187.27 1111.38,-182.85 1101.09,-180.3 1101.75,-187.27"/>
</g>
<!-- Node26&#45;&gt;Node5 -->
<g id="edge57" class="edge">
<title>Node26&#45;&gt;Node5</title>
<path fill="none" stroke="midnightblue" d="M270.29,-291.48C222.12,-273.78 154,-238.28 154,-179 154,-179 154,-179 154,-121 154,-56.4 221.89,-73.76 284,-56 367.58,-32.1 631.53,-17.36 728.13,-12.65"/>
<polygon fill="midnightblue" stroke="midnightblue" points="728.45,-16.14 738.27,-12.16 728.11,-9.14 728.45,-16.14"/>
</g>
<!-- Node26&#45;&gt;Node16 -->
<g id="edge55" class="edge">
<title>Node26&#45;&gt;Node16</title>
<path fill="none" stroke="midnightblue" d="M291.14,-291.44C264.17,-275.03 228.46,-247.17 249,-224 291.35,-176.23 465.03,-195.05 545.51,-187.92"/>
<polygon fill="midnightblue" stroke="midnightblue" points="546.21,-191.37 555.77,-186.8 545.45,-184.41 546.21,-191.37"/>
</g>
<!-- Node26&#45;&gt;Node23 -->
<g id="edge54" class="edge">
<title>Node26&#45;&gt;Node23</title>
<path fill="none" stroke="midnightblue" d="M317.43,-291.4C317.72,-282.06 318.1,-269.71 318.41,-259.52"/>
<polygon fill="midnightblue" stroke="midnightblue" points="321.92,-259.3 318.73,-249.19 314.93,-259.08 321.92,-259.3"/>
</g>
<!-- Node27&#45;&gt;Node8 -->
<g id="edge72" class="edge">
<title>Node27&#45;&gt;Node8</title>
<path fill="none" stroke="midnightblue" d="M1301.02,-295.29C1393.03,-282.95 1534.76,-262.85 1544,-255 1595.28,-211.45 1604.39,-124.58 1605.83,-86.1"/>
<polygon fill="midnightblue" stroke="midnightblue" points="1609.34,-85.89 1606.08,-75.82 1602.34,-85.73 1609.34,-85.89"/>
</g>
<!-- Node27&#45;&gt;Node10 -->
<g id="edge71" class="edge">
<title>Node27&#45;&gt;Node10</title>
<path fill="none" stroke="midnightblue" d="M1301.21,-296.2C1317.33,-294.39 1334.21,-292.57 1350,-291 1397.49,-286.29 1745.7,-290.13 1778,-255 1785.03,-247.36 1782.97,-185.62 1775,-168 1769.59,-156.03 1759.44,-145.57 1750.06,-137.75"/>
<polygon fill="midnightblue" stroke="midnightblue" points="1752.18,-134.97 1742.14,-131.59 1747.88,-140.49 1752.18,-134.97"/>
</g>
<!-- Node27&#45;&gt;Node15 -->
<g id="edge64" class="edge">
<title>Node27&#45;&gt;Node15</title>
<path fill="none" stroke="midnightblue" d="M1144.67,-296.27C1129.2,-294.49 1113.09,-292.66 1098,-291 952.97,-275.02 783.34,-257.62 688.31,-247.98"/>
<polygon fill="midnightblue" stroke="midnightblue" points="688.53,-244.49 678.22,-246.96 687.82,-251.45 688.53,-244.49"/>
</g>
<!-- Node27&#45;&gt;Node16 -->
<g id="edge67" class="edge">
<title>Node27&#45;&gt;Node16</title>
<path fill="none" stroke="midnightblue" d="M1174.66,-291.47C1149.51,-282.98 1118.9,-270.74 1094,-255 1076.99,-244.25 1079.32,-232.33 1061,-224 1026.25,-208.21 786.02,-190.63 670.19,-182.95"/>
<polygon fill="midnightblue" stroke="midnightblue" points="670.26,-179.44 660.05,-182.28 669.8,-186.43 670.26,-179.44"/>
</g>
<!-- Node27&#45;&gt;Node18 -->
<g id="edge66" class="edge">
<title>Node27&#45;&gt;Node18</title>
<path fill="none" stroke="midnightblue" d="M1205.4,-291.25C1181.61,-272.76 1137.18,-240.87 1094,-224 1058.68,-210.2 956.8,-194.19 896.11,-185.47"/>
<polygon fill="midnightblue" stroke="midnightblue" points="896.4,-181.98 886.01,-184.04 895.42,-188.91 896.4,-181.98"/>
</g>
<!-- Node27&#45;&gt;Node23 -->
<g id="edge65" class="edge">
<title>Node27&#45;&gt;Node23</title>
<path fill="none" stroke="midnightblue" d="M1144.71,-295.8C1129.25,-294.06 1113.12,-292.36 1098,-291 850.93,-268.7 788.55,-271.08 541,-255 490.69,-251.73 433.96,-248.03 390.45,-245.18"/>
<polygon fill="midnightblue" stroke="midnightblue" points="390.46,-241.67 380.25,-244.51 390,-248.66 390.46,-241.67"/>
</g>
<!-- Node28 -->
<g id="node28" class="node">
<title>Node28</title>
<g id="a_node28"><a xlink:href="MapNode_8hpp.html" target="_top" xlink:title=" ">
<polygon fill="none" stroke="black" points="1376,-230 1376,-249 1502,-249 1502,-230 1376,-230"/>
<text text-anchor="middle" x="1439" y="-237" font-family="Helvetica,sans-Serif" font-size="10.00">../../Structs/MapNode.hpp</text>
</a>
</g>
</g>
<!-- Node27&#45;&gt;Node28 -->
<g id="edge59" class="edge">
<title>Node27&#45;&gt;Node28</title>
<path fill="none" stroke="midnightblue" d="M1269.6,-291.48C1308.83,-279.67 1364.23,-263 1400.85,-251.98"/>
<polygon fill="midnightblue" stroke="midnightblue" points="1402.09,-255.26 1410.66,-249.03 1400.07,-248.56 1402.09,-255.26"/>
</g>
<!-- Node27&#45;&gt;Node30 -->
<g id="edge68" class="edge">
<title>Node27&#45;&gt;Node30</title>
<path fill="none" stroke="midnightblue" d="M1210.82,-291.26C1195.16,-273.63 1166.47,-243.57 1137,-224 1074.08,-182.22 991.03,-150.75 943.88,-134.75"/>
<polygon fill="midnightblue" stroke="midnightblue" points="944.98,-131.43 934.39,-131.58 942.76,-138.07 944.98,-131.43"/>
</g>
<!-- Node31 -->
<g id="node31" class="node">
<title>Node31</title>
<g id="a_node31"><a xlink:title=" ">
<polygon fill="none" stroke="#bfbfbf" points="1672.5,-230 1672.5,-249 1707.5,-249 1707.5,-230 1672.5,-230"/>
<text text-anchor="middle" x="1690" y="-237" font-family="Helvetica,sans-Serif" font-size="10.00">map</text>
</a>
</g>
</g>
<!-- Node27&#45;&gt;Node31 -->
<g id="edge73" class="edge">
<title>Node27&#45;&gt;Node31</title>
<path fill="none" stroke="midnightblue" d="M1301.4,-303.67C1389.58,-299.95 1536.38,-288.73 1658,-255 1660.15,-254.4 1662.34,-253.68 1664.51,-252.88"/>
<polygon fill="midnightblue" stroke="midnightblue" points="1665.87,-256.11 1673.76,-249.03 1663.18,-249.65 1665.87,-256.11"/>
</g>
<!-- Node32 -->
<g id="node32" class="node">
<title>Node32</title>
<g id="a_node32"><a xlink:title=" ">
<polygon fill="none" stroke="#bfbfbf" points="1725.5,-230 1725.5,-249 1768.5,-249 1768.5,-230 1725.5,-230"/>
<text text-anchor="middle" x="1747" y="-237" font-family="Helvetica,sans-Serif" font-size="10.00">queue</text>
</a>
</g>
</g>
<!-- Node27&#45;&gt;Node32 -->
<g id="edge74" class="edge">
<title>Node27&#45;&gt;Node32</title>
<path fill="none" stroke="midnightblue" d="M1301.15,-305.82C1399.87,-304.34 1574.12,-295.47 1717,-255 1718.88,-254.47 1720.78,-253.82 1722.67,-253.11"/>
<polygon fill="midnightblue" stroke="midnightblue" points="1724.08,-256.31 1731.84,-249.09 1721.27,-249.9 1724.08,-256.31"/>
</g>
<!-- Node28&#45;&gt;Node3 -->
<g id="edge62" class="edge">
<title>Node28&#45;&gt;Node3</title>
<path fill="none" stroke="midnightblue" d="M1398.45,-229.98C1347.81,-219.33 1261.16,-201.11 1206.32,-189.58"/>
<polygon fill="midnightblue" stroke="midnightblue" points="1206.98,-186.14 1196.47,-187.51 1205.54,-192.99 1206.98,-186.14"/>
</g>
<!-- Node28&#45;&gt;Node5 -->
<g id="edge61" class="edge">
<title>Node28&#45;&gt;Node5</title>
<path fill="none" stroke="midnightblue" d="M1428.93,-229.67C1400,-204.4 1316.83,-132.24 1287,-112 1243.88,-82.75 1233.74,-71.52 1184,-56 1046.88,-13.23 873.72,-9.56 799.94,-10.2"/>
<polygon fill="midnightblue" stroke="midnightblue" points="799.75,-6.7 789.79,-10.32 799.83,-13.7 799.75,-6.7"/>
</g>
<!-- Node28&#45;&gt;Node9 -->
<g id="edge60" class="edge">
<title>Node28&#45;&gt;Node9</title>
<path fill="none" stroke="midnightblue" d="M1423.17,-229.83C1404.97,-219.85 1374.24,-202.89 1348,-188 1317.21,-170.52 1281.91,-149.95 1259.31,-136.7"/>
<polygon fill="midnightblue" stroke="midnightblue" points="1260.84,-133.54 1250.45,-131.5 1257.3,-139.58 1260.84,-133.54"/>
</g>
<!-- Node29 -->
<g id="node29" class="node">
<title>Node29</title>
<g id="a_node29"><a xlink:href="TileType_8hpp.html" target="_top" xlink:title=" ">
<polygon fill="none" stroke="black" points="1390,-168.5 1390,-187.5 1502,-187.5 1502,-168.5 1390,-168.5"/>
<text text-anchor="middle" x="1446" y="-175.5" font-family="Helvetica,sans-Serif" font-size="10.00">../Enums/TileType.hpp</text>
</a>
</g>
</g>
<!-- Node28&#45;&gt;Node29 -->
<g id="edge63" class="edge">
<title>Node28&#45;&gt;Node29</title>
<path fill="none" stroke="midnightblue" d="M1440,-229.98C1440.99,-221.58 1442.53,-208.48 1443.8,-197.66"/>
<polygon fill="midnightblue" stroke="midnightblue" points="1447.31,-197.85 1445,-187.51 1440.35,-197.03 1447.31,-197.85"/>
</g>
<!-- Node30&#45;&gt;Node4 -->
<g id="edge69" class="edge">
<title>Node30&#45;&gt;Node4</title>
<path fill="none" stroke="midnightblue" d="M896.24,-112.32C886.23,-104.26 871.11,-92.08 859.07,-82.37"/>
<polygon fill="midnightblue" stroke="midnightblue" points="860.94,-79.38 850.96,-75.83 856.55,-84.83 860.94,-79.38"/>
</g>
<!-- Node30&#45;&gt;Node7 -->
<g id="edge70" class="edge">
<title>Node30&#45;&gt;Node7</title>
<path fill="none" stroke="midnightblue" d="M917.76,-112.32C927.77,-104.26 942.89,-92.08 954.93,-82.37"/>
<polygon fill="midnightblue" stroke="midnightblue" points="957.45,-84.83 963.04,-75.83 953.06,-79.38 957.45,-84.83"/>
</g>
<!-- Node33&#45;&gt;Node5 -->
<g id="edge78" class="edge">
<title>Node33&#45;&gt;Node5</title>
<path fill="none" stroke="midnightblue" d="M108.34,-291.39C64.5,-272.96 0,-236.12 0,-179 0,-179 0,-179 0,-121 0,-36.78 95.69,-73.84 178,-56 382.56,-11.68 635.54,-9.49 728.01,-10.37"/>
<polygon fill="midnightblue" stroke="midnightblue" points="728.18,-13.88 738.22,-10.49 728.26,-6.88 728.18,-13.88"/>
</g>
<!-- Node33&#45;&gt;Node16 -->
<g id="edge76" class="edge">
<title>Node33&#45;&gt;Node16</title>
<path fill="none" stroke="midnightblue" d="M158.87,-291.41C174.38,-272.48 204.78,-239.42 239,-224 361.71,-168.71 408.18,-204.3 545.71,-188.07"/>
<polygon fill="midnightblue" stroke="midnightblue" points="546.28,-191.53 555.77,-186.81 545.41,-184.58 546.28,-191.53"/>
</g>
<!-- Node33&#45;&gt;Node23 -->
<g id="edge77" class="edge">
<title>Node33&#45;&gt;Node23</title>
<path fill="none" stroke="midnightblue" d="M185.1,-291.4C215.51,-279.84 258.08,-263.66 287,-252.66"/>
<polygon fill="midnightblue" stroke="midnightblue" points="288.52,-255.83 296.62,-249.01 286.03,-249.29 288.52,-255.83"/>
</g>
<!-- Node34&#45;&gt;Node3 -->
<g id="edge83" class="edge">
<title>Node34&#45;&gt;Node3</title>
<path fill="none" stroke="midnightblue" d="M1025.29,-291.48C1053.05,-267.59 1109.3,-219.19 1138.11,-194.39"/>
<polygon fill="midnightblue" stroke="midnightblue" points="1140.49,-196.96 1145.79,-187.79 1135.92,-191.66 1140.49,-196.96"/>
</g>
<!-- Node34&#45;&gt;Node13 -->
<g id="edge81" class="edge">
<title>Node34&#45;&gt;Node13</title>
<path fill="none" stroke="midnightblue" d="M1089.24,-295.93C1104.74,-294.2 1120.87,-292.47 1136,-291 1333.93,-271.72 1393.63,-318.76 1582,-255 1621.53,-241.62 1660.98,-212.13 1682.77,-194.07"/>
<polygon fill="midnightblue" stroke="midnightblue" points="1685.1,-196.68 1690.47,-187.55 1680.58,-191.34 1685.1,-196.68"/>
</g>
<!-- Node34&#45;&gt;Node15 -->
<g id="edge80" class="edge">
<title>Node34&#45;&gt;Node15</title>
<path fill="none" stroke="midnightblue" d="M928.95,-292.44C925.93,-291.95 922.94,-291.47 920,-291 818.71,-274.75 793.11,-272.38 692,-255 690.74,-254.78 689.47,-254.56 688.19,-254.34"/>
<polygon fill="midnightblue" stroke="midnightblue" points="688.7,-250.88 678.25,-252.59 687.49,-257.77 688.7,-250.88"/>
</g>
<!-- Node34&#45;&gt;Node16 -->
<g id="edge82" class="edge">
<title>Node34&#45;&gt;Node16</title>
<path fill="none" stroke="midnightblue" d="M964.55,-291.48C884.9,-266.35 719.24,-214.09 645.18,-190.73"/>
<polygon fill="midnightblue" stroke="midnightblue" points="645.95,-187.3 635.36,-187.63 643.84,-193.98 645.95,-187.3"/>
</g>
<!-- Node35&#45;&gt;Node3 -->
<g id="edge86" class="edge">
<title>Node35&#45;&gt;Node3</title>
<path fill="none" stroke="midnightblue" d="M1270.8,-229.98C1248.21,-219.95 1210.5,-203.2 1184.5,-191.65"/>
<polygon fill="midnightblue" stroke="midnightblue" points="1185.72,-188.37 1175.16,-187.51 1182.88,-194.77 1185.72,-188.37"/>
</g>
<!-- Node35&#45;&gt;Node5 -->
<g id="edge85" class="edge">
<title>Node35&#45;&gt;Node5</title>
<path fill="none" stroke="midnightblue" d="M1291.28,-229.78C1294.06,-207.12 1298.16,-145.82 1267,-112 1203.4,-42.97 903.59,-19.14 799.61,-12.88"/>
<polygon fill="midnightblue" stroke="midnightblue" points="799.8,-9.38 789.61,-12.3 799.39,-16.37 799.8,-9.38"/>
</g>
<!-- Node36&#45;&gt;Node17 -->
<g id="edge89" class="edge">
<title>Node36&#45;&gt;Node17</title>
<path fill="none" stroke="midnightblue" d="M510.38,-168.44C529.22,-159.68 558.73,-145.94 580.38,-135.86"/>
<polygon fill="midnightblue" stroke="midnightblue" points="582.12,-138.91 589.71,-131.52 579.16,-132.56 582.12,-138.91"/>
</g>
</g>
</svg>
