<?xml version="1.0" encoding="UTF-8" standalone="no"?>
<!DOCTYPE svg PUBLIC "-//W3C//DTD SVG 1.1//EN"
 "http://www.w3.org/Graphics/SVG/1.1/DTD/svg11.dtd">
<!-- Generated by graphviz version 2.44.0 ()
 -->
<!-- Title: libs/spic&#45;engine/includes/spic&#45;api&#45;headers/Engine.hpp Pages: 1 -->
<!--zoomable 173 -->
<svg id="main" version="1.1" xmlns="http://www.w3.org/2000/svg" xmlns:xlink="http://www.w3.org/1999/xlink" xml:space="preserve" onload="init(evt)">
<style type="text/css"><![CDATA[
.edge:hover path { stroke: red; }
.edge:hover polygon { stroke: red; fill: red; }
]]></style>
<script type="text/javascript"><![CDATA[
var edges = document.getElementsByTagName('g');
if (edges && edges.length) {
  for (var i=0;i<edges.length;i++) {
    if (edges[i].id.substr(0,4)=='edge') {
      edges[i].setAttribute('class','edge');
    }
  }
}
]]></script>
        <defs>
                <circle id="rim" cx="0" cy="0" r="7"/>
                <circle id="rim2" cx="0" cy="0" r="3.5"/>
                <g id="zoomPlus">
                        <use xlink:href="#rim" fill="#404040">
                                <set attributeName="fill" to="#808080" begin="zoomplus.mouseover" end="zoomplus.mouseout"/>
                        </use>
                        <path d="M-4,0h8M0,-4v8" fill="none" stroke="white" stroke-width="1.5" pointer-events="none"/>
                </g>
                <g id="zoomMin">
                        <use xlink:href="#rim" fill="#404040">
                                <set attributeName="fill" to="#808080" begin="zoomminus.mouseover" end="zoomminus.mouseout"/>
                        </use>
                        <path d="M-4,0h8" fill="none" stroke="white" stroke-width="1.5" pointer-events="none"/>
                </g>
                <g id="dirArrow">
                        <path fill="none" stroke="white" stroke-width="1.5" d="M0,-3.0v7 M-2.5,-0.5L0,-3.0L2.5,-0.5"/>
                </g>
               <g id="resetDef">
                       <use xlink:href="#rim2" fill="#404040">
                               <set attributeName="fill" to="#808080" begin="reset.mouseover" end="reset.mouseout"/>
                       </use>
               </g>
        </defs>

<script type="text/javascript">
var viewWidth = 5028;
var viewHeight = 173;
var sectionId = 'dynsection-1';
</script>
<script xlink:href="svgpan.js"/>
<svg id="graph" class="graph">
<g id="viewport">
<title>libs/spic&#45;engine/includes/spic&#45;api&#45;headers/Engine.hpp</title>
<!-- Node1 -->
<g id="node1" class="node">
<title>Node1</title>
<g id="a_node1"><a xlink:title=" ">
<polygon fill="#bfbfbf" stroke="black" points="2319.5,-134.5 2319.5,-164.5 2460.5,-164.5 2460.5,-134.5 2319.5,-134.5"/>
<text text-anchor="start" x="2327.5" y="-152.5" font-family="Helvetica,sans-Serif" font-size="10.00">libs/spic&#45;engine/includes</text>
<text text-anchor="middle" x="2390" y="-141.5" font-family="Helvetica,sans-Serif" font-size="10.00">/spic&#45;api&#45;headers/Engine.hpp</text>
</a>
</g>
</g>
<!-- Node2 -->
<g id="node2" class="node">
<title>Node2</title>
<g id="a_node2"><a xlink:href="BulletFactory_8cpp.html" target="_top" xlink:title=" ">
<polygon fill="none" stroke="black" points="0,-67.5 0,-86.5 152,-86.5 152,-67.5 0,-67.5"/>
<text text-anchor="middle" x="76" y="-74.5" font-family="Helvetica,sans-Serif" font-size="10.00">src/Factories/BulletFactory.cpp</text>
</a>
</g>
</g>
<!-- Node1&#45;&gt;Node2 -->
<g id="edge1" class="edge">
<title>Node1&#45;&gt;Node2</title>
<path fill="none" stroke="midnightblue" d="M2309.17,-148.92C1961.17,-150.4 588.88,-152.58 161,-98 142.35,-95.62 121.83,-90.85 105.62,-86.57"/>
<polygon fill="midnightblue" stroke="midnightblue" points="2309.43,-152.42 2319.41,-148.88 2309.4,-145.42 2309.43,-152.42"/>
</g>
<!-- Node3 -->
<g id="node3" class="node">
<title>Node3</title>
<g id="a_node3"><a xlink:href="ButtonPrefabFactory_8cpp.html" target="_top" xlink:title=" ">
<polygon fill="none" stroke="black" points="170,-62 170,-92 304,-92 304,-62 170,-62"/>
<text text-anchor="start" x="178" y="-80" font-family="Helvetica,sans-Serif" font-size="10.00">src/Factories/ButtonPrefab</text>
<text text-anchor="middle" x="237" y="-69" font-family="Helvetica,sans-Serif" font-size="10.00">Factory.cpp</text>
</a>
</g>
</g>
<!-- Node1&#45;&gt;Node3 -->
<g id="edge2" class="edge">
<title>Node1&#45;&gt;Node3</title>
<path fill="none" stroke="midnightblue" d="M2309.4,-147.65C1951.25,-143.73 512.86,-126.33 313,-98 303.27,-96.62 293.01,-94.44 283.27,-92.01"/>
<polygon fill="midnightblue" stroke="midnightblue" points="2309.39,-151.15 2319.43,-147.76 2309.47,-144.15 2309.39,-151.15"/>
</g>
<!-- Node4 -->
<g id="node4" class="node">
<title>Node4</title>
<g id="a_node4"><a xlink:href="CameraPrefabFactory_8cpp.html" target="_top" xlink:title=" ">
<polygon fill="none" stroke="black" points="322.5,-62 322.5,-92 461.5,-92 461.5,-62 322.5,-62"/>
<text text-anchor="start" x="330.5" y="-80" font-family="Helvetica,sans-Serif" font-size="10.00">src/Factories/CameraPrefab</text>
<text text-anchor="middle" x="392" y="-69" font-family="Helvetica,sans-Serif" font-size="10.00">Factory.cpp</text>
</a>
</g>
</g>
<!-- Node1&#45;&gt;Node4 -->
<g id="edge3" class="edge">
<title>Node1&#45;&gt;Node4</title>
<path fill="none" stroke="midnightblue" d="M2309.38,-148.76C1992.82,-149.39 834.55,-148.17 471,-98 461.05,-96.63 450.54,-94.48 440.55,-92.09"/>
<polygon fill="midnightblue" stroke="midnightblue" points="2309.4,-152.26 2319.39,-148.73 2309.39,-145.26 2309.4,-152.26"/>
</g>
<!-- Node5 -->
<g id="node5" class="node">
<title>Node5</title>
<g id="a_node5"><a xlink:href="GameOverScene_8cpp.html" target="_top" xlink:title=" ">
<polygon fill="none" stroke="black" points="480,-67.5 480,-86.5 642,-86.5 642,-67.5 480,-67.5"/>
<text text-anchor="middle" x="561" y="-74.5" font-family="Helvetica,sans-Serif" font-size="10.00">src/Scenes/GameOverScene.cpp</text>
</a>
</g>
</g>
<!-- Node1&#45;&gt;Node5 -->
<g id="edge4" class="edge">
<title>Node1&#45;&gt;Node5</title>
<path fill="none" stroke="midnightblue" d="M2309.2,-148.19C2011.75,-146.72 978.13,-138.72 651,-98 631.3,-95.55 609.57,-90.78 592.4,-86.51"/>
<polygon fill="midnightblue" stroke="midnightblue" points="2309.45,-151.69 2319.46,-148.24 2309.48,-144.69 2309.45,-151.69"/>
</g>
<!-- Node6 -->
<g id="node6" class="node">
<title>Node6</title>
<g id="a_node6"><a xlink:href="LevelSelectionScene_8cpp.html" target="_top" xlink:title=" ">
<polygon fill="none" stroke="black" points="660,-62 660,-92 794,-92 794,-62 660,-62"/>
<text text-anchor="start" x="668" y="-80" font-family="Helvetica,sans-Serif" font-size="10.00">src/Scenes/LevelSelection</text>
<text text-anchor="middle" x="727" y="-69" font-family="Helvetica,sans-Serif" font-size="10.00">Scene.cpp</text>
</a>
</g>
</g>
<!-- Node1&#45;&gt;Node6 -->
<g id="edge5" class="edge">
<title>Node1&#45;&gt;Node6</title>
<path fill="none" stroke="midnightblue" d="M2309.21,-148.33C2028.74,-147.38 1098.22,-140.98 803,-98 793.41,-96.6 783.3,-94.44 773.69,-92.05"/>
<polygon fill="midnightblue" stroke="midnightblue" points="2309.29,-151.83 2319.31,-148.37 2309.32,-144.83 2309.29,-151.83"/>
</g>
<!-- Node7 -->
<g id="node7" class="node">
<title>Node7</title>
<g id="a_node7"><a xlink:href="LoadingScene_8cpp.html" target="_top" xlink:title=" ">
<polygon fill="none" stroke="black" points="812.5,-67.5 812.5,-86.5 961.5,-86.5 961.5,-67.5 812.5,-67.5"/>
<text text-anchor="middle" x="887" y="-74.5" font-family="Helvetica,sans-Serif" font-size="10.00">src/Scenes/LoadingScene.cpp</text>
</a>
</g>
</g>
<!-- Node1&#45;&gt;Node7 -->
<g id="edge6" class="edge">
<title>Node1&#45;&gt;Node7</title>
<path fill="none" stroke="midnightblue" d="M2309.11,-147.73C2048.47,-144.91 1232.4,-133.41 971,-98 952.73,-95.52 932.62,-90.81 916.66,-86.58"/>
<polygon fill="midnightblue" stroke="midnightblue" points="2309.22,-151.23 2319.26,-147.84 2309.3,-144.23 2309.22,-151.23"/>
</g>
<!-- Node8 -->
<g id="node8" class="node">
<title>Node8</title>
<g id="a_node8"><a xlink:href="MainScene_8cpp.html" target="_top" xlink:title=" ">
<polygon fill="none" stroke="black" points="980,-67.5 980,-86.5 1116,-86.5 1116,-67.5 980,-67.5"/>
<text text-anchor="middle" x="1048" y="-74.5" font-family="Helvetica,sans-Serif" font-size="10.00">src/Scenes/MainScene.cpp</text>
</a>
</g>
</g>
<!-- Node1&#45;&gt;Node8 -->
<g id="edge7" class="edge">
<title>Node1&#45;&gt;Node8</title>
<path fill="none" stroke="midnightblue" d="M2309.33,-147.54C2068.12,-144.3 1354.88,-132.04 1125,-98 1108.19,-95.51 1089.76,-90.8 1075.15,-86.57"/>
<polygon fill="midnightblue" stroke="midnightblue" points="2309.39,-151.04 2319.43,-147.67 2309.48,-144.04 2309.39,-151.04"/>
</g>
<!-- Node9 -->
<g id="node9" class="node">
<title>Node9</title>
<g id="a_node9"><a xlink:href="PauseScene_8cpp.html" target="_top" xlink:title=" ">
<polygon fill="none" stroke="black" points="1134.5,-67.5 1134.5,-86.5 1277.5,-86.5 1277.5,-67.5 1134.5,-67.5"/>
<text text-anchor="middle" x="1206" y="-74.5" font-family="Helvetica,sans-Serif" font-size="10.00">src/Scenes/PauseScene.cpp</text>
</a>
</g>
</g>
<!-- Node1&#45;&gt;Node9 -->
<g id="edge8" class="edge">
<title>Node1&#45;&gt;Node9</title>
<path fill="none" stroke="midnightblue" d="M2309.25,-146.86C2089.56,-142.07 1484.37,-126.6 1287,-98 1269.37,-95.44 1249.98,-90.73 1234.59,-86.52"/>
<polygon fill="midnightblue" stroke="midnightblue" points="2309.34,-150.36 2319.41,-147.08 2309.49,-143.36 2309.34,-150.36"/>
</g>
<!-- Node10 -->
<g id="node10" class="node">
<title>Node10</title>
<g id="a_node10"><a xlink:href="SaveSelectionScene_8cpp.html" target="_top" xlink:title=" ">
<polygon fill="none" stroke="black" points="1296,-62 1296,-92 1428,-92 1428,-62 1296,-62"/>
<text text-anchor="start" x="1304" y="-80" font-family="Helvetica,sans-Serif" font-size="10.00">src/Scenes/SaveSelection</text>
<text text-anchor="middle" x="1362" y="-69" font-family="Helvetica,sans-Serif" font-size="10.00">Scene.cpp</text>
</a>
</g>
</g>
<!-- Node1&#45;&gt;Node10 -->
<g id="edge9" class="edge">
<title>Node1&#45;&gt;Node10</title>
<path fill="none" stroke="midnightblue" d="M2309.26,-146.38C2110.97,-140.82 1604.09,-124.41 1437,-98 1427.82,-96.55 1418.13,-94.43 1408.89,-92.1"/>
<polygon fill="midnightblue" stroke="midnightblue" points="2309.22,-149.88 2319.32,-146.66 2309.42,-142.88 2309.22,-149.88"/>
</g>
<!-- Node11 -->
<g id="node11" class="node">
<title>Node11</title>
<g id="a_node11"><a xlink:href="VictoryScene_8cpp.html" target="_top" xlink:title=" ">
<polygon fill="none" stroke="black" points="1446.5,-67.5 1446.5,-86.5 1591.5,-86.5 1591.5,-67.5 1446.5,-67.5"/>
<text text-anchor="middle" x="1519" y="-74.5" font-family="Helvetica,sans-Serif" font-size="10.00">src/Scenes/VictoryScene.cpp</text>
</a>
</g>
</g>
<!-- Node1&#45;&gt;Node11 -->
<g id="edge10" class="edge">
<title>Node1&#45;&gt;Node11</title>
<path fill="none" stroke="midnightblue" d="M2309.33,-147.99C2165.97,-146.05 1857.73,-137.21 1601,-98 1583.47,-95.32 1564.19,-90.71 1548.74,-86.59"/>
<polygon fill="midnightblue" stroke="midnightblue" points="2309.32,-151.49 2319.36,-148.12 2309.41,-144.49 2309.32,-151.49"/>
</g>
<!-- Node12 -->
<g id="node12" class="node">
<title>Node12</title>
<g id="a_node12"><a xlink:href="AttackBehaviour_8cpp.html" target="_top" xlink:title=" ">
<polygon fill="none" stroke="black" points="1610,-62 1610,-92 1720,-92 1720,-62 1610,-62"/>
<text text-anchor="start" x="1618" y="-80" font-family="Helvetica,sans-Serif" font-size="10.00">src/Scripts/Common</text>
<text text-anchor="middle" x="1665" y="-69" font-family="Helvetica,sans-Serif" font-size="10.00">/AttackBehaviour.cpp</text>
</a>
</g>
</g>
<!-- Node1&#45;&gt;Node12 -->
<g id="edge11" class="edge">
<title>Node1&#45;&gt;Node12</title>
<path fill="none" stroke="midnightblue" d="M2309.08,-148.19C2183.69,-146.4 1935.41,-137.6 1729,-98 1721.11,-96.49 1712.83,-94.34 1704.93,-92"/>
<polygon fill="midnightblue" stroke="midnightblue" points="2309.31,-151.7 2319.36,-148.33 2309.4,-144.7 2309.31,-151.7"/>
</g>
<!-- Node13 -->
<g id="node13" class="node">
<title>Node13</title>
<g id="a_node13"><a xlink:href="CheatManager_8cpp.html" target="_top" xlink:title=" ">
<polygon fill="none" stroke="black" points="1738,-62 1738,-92 1844,-92 1844,-62 1738,-62"/>
<text text-anchor="start" x="1746" y="-80" font-family="Helvetica,sans-Serif" font-size="10.00">src/Scripts/Common</text>
<text text-anchor="middle" x="1791" y="-69" font-family="Helvetica,sans-Serif" font-size="10.00">/CheatManager.cpp</text>
</a>
</g>
</g>
<!-- Node1&#45;&gt;Node13 -->
<g id="edge12" class="edge">
<title>Node1&#45;&gt;Node13</title>
<path fill="none" stroke="midnightblue" d="M2309.05,-146.38C2203.23,-142.36 2012.55,-130.83 1853,-98 1845.47,-96.45 1837.56,-94.31 1830.01,-92.01"/>
<polygon fill="midnightblue" stroke="midnightblue" points="2309.22,-149.89 2319.34,-146.76 2309.47,-142.89 2309.22,-149.89"/>
</g>
<!-- Node14 -->
<g id="node14" class="node">
<title>Node14</title>
<g id="a_node14"><a xlink:href="GameLostBehaviour_8cpp.html" target="_top" xlink:title=" ">
<polygon fill="none" stroke="black" points="1862.5,-62 1862.5,-92 1989.5,-92 1989.5,-62 1862.5,-62"/>
<text text-anchor="start" x="1870.5" y="-80" font-family="Helvetica,sans-Serif" font-size="10.00">src/Scripts/Common</text>
<text text-anchor="middle" x="1926" y="-69" font-family="Helvetica,sans-Serif" font-size="10.00">/GameLostBehaviour.cpp</text>
</a>
</g>
</g>
<!-- Node1&#45;&gt;Node14 -->
<g id="edge13" class="edge">
<title>Node1&#45;&gt;Node14</title>
<path fill="none" stroke="midnightblue" d="M2309.44,-141.52C2229.8,-133.82 2104.74,-119.59 1998,-98 1989.86,-96.35 1981.29,-94.28 1973.02,-92.1"/>
<polygon fill="midnightblue" stroke="midnightblue" points="2309.11,-145 2319.4,-142.47 2309.78,-138.03 2309.11,-145"/>
</g>
<!-- Node15 -->
<g id="node15" class="node">
<title>Node15</title>
<g id="a_node15"><a xlink:href="GameWonBehaviour_8cpp.html" target="_top" xlink:title=" ">
<polygon fill="none" stroke="black" points="2007.5,-62 2007.5,-92 2134.5,-92 2134.5,-62 2007.5,-62"/>
<text text-anchor="start" x="2015.5" y="-80" font-family="Helvetica,sans-Serif" font-size="10.00">src/Scripts/Common</text>
<text text-anchor="middle" x="2071" y="-69" font-family="Helvetica,sans-Serif" font-size="10.00">/GameWonBehaviour.cpp</text>
</a>
</g>
</g>
<!-- Node1&#45;&gt;Node15 -->
<g id="edge14" class="edge">
<title>Node1&#45;&gt;Node15</title>
<path fill="none" stroke="midnightblue" d="M2309.34,-133.47C2260.93,-124.09 2198.22,-111.3 2143,-98 2135.43,-96.18 2127.46,-94.11 2119.68,-92.01"/>
<polygon fill="midnightblue" stroke="midnightblue" points="2308.96,-136.96 2319.44,-135.42 2310.29,-130.09 2308.96,-136.96"/>
</g>
<!-- Node16 -->
<g id="node16" class="node">
<title>Node16</title>
<g id="a_node16"><a xlink:href="EnemyMedicBehaviour_8cpp.html" target="_top" xlink:title=" ">
<polygon fill="none" stroke="black" points="2152.5,-62 2152.5,-92 2289.5,-92 2289.5,-62 2152.5,-62"/>
<text text-anchor="start" x="2160.5" y="-80" font-family="Helvetica,sans-Serif" font-size="10.00">src/Scripts/Enemies</text>
<text text-anchor="middle" x="2221" y="-69" font-family="Helvetica,sans-Serif" font-size="10.00">/EnemyMedicBehaviour.cpp</text>
</a>
</g>
</g>
<!-- Node1&#45;&gt;Node16 -->
<g id="edge15" class="edge">
<title>Node1&#45;&gt;Node16</title>
<path fill="none" stroke="midnightblue" d="M2346.85,-130.5C2318.23,-118.56 2281.2,-103.11 2254.73,-92.07"/>
<polygon fill="midnightblue" stroke="midnightblue" points="2345.63,-133.78 2356.21,-134.4 2348.32,-127.32 2345.63,-133.78"/>
</g>
<!-- Node17 -->
<g id="node17" class="node">
<title>Node17</title>
<g id="a_node17"><a xlink:href="EnemySpeedBoostBehaviour_8cpp.html" target="_top" xlink:title=" ">
<polygon fill="none" stroke="black" points="2308,-62 2308,-92 2472,-92 2472,-62 2308,-62"/>
<text text-anchor="start" x="2316" y="-80" font-family="Helvetica,sans-Serif" font-size="10.00">src/Scripts/Enemies</text>
<text text-anchor="middle" x="2390" y="-69" font-family="Helvetica,sans-Serif" font-size="10.00">/EnemySpeedBoostBehaviour.cpp</text>
</a>
</g>
</g>
<!-- Node1&#45;&gt;Node17 -->
<g id="edge16" class="edge">
<title>Node1&#45;&gt;Node17</title>
<path fill="none" stroke="midnightblue" d="M2390,-124.23C2390,-113.57 2390,-101.41 2390,-92.25"/>
<polygon fill="midnightblue" stroke="midnightblue" points="2386.5,-124.23 2390,-134.23 2393.5,-124.23 2386.5,-124.23"/>
</g>
<!-- Node18 -->
<g id="node18" class="node">
<title>Node18</title>
<g id="a_node18"><a xlink:href="EnemyTroopTruckBehaviour_8cpp.html" target="_top" xlink:title=" ">
<polygon fill="none" stroke="black" points="2490,-62 2490,-92 2650,-92 2650,-62 2490,-62"/>
<text text-anchor="start" x="2498" y="-80" font-family="Helvetica,sans-Serif" font-size="10.00">src/Scripts/Enemies</text>
<text text-anchor="middle" x="2570" y="-69" font-family="Helvetica,sans-Serif" font-size="10.00">/EnemyTroopTruckBehaviour.cpp</text>
</a>
</g>
</g>
<!-- Node1&#45;&gt;Node18 -->
<g id="edge17" class="edge">
<title>Node1&#45;&gt;Node18</title>
<path fill="none" stroke="midnightblue" d="M2435.56,-130.65C2466.1,-118.69 2505.76,-103.16 2534.07,-92.07"/>
<polygon fill="midnightblue" stroke="midnightblue" points="2434.03,-127.5 2425.99,-134.4 2436.58,-134.01 2434.03,-127.5"/>
</g>
<!-- Node19 -->
<g id="node19" class="node">
<title>Node19</title>
<g id="a_node19"><a xlink:href="AirstrikeAbilityBehaviour_8cpp.html" target="_top" xlink:title=" ">
<polygon fill="none" stroke="black" points="2668.5,-62 2668.5,-92 2811.5,-92 2811.5,-62 2668.5,-62"/>
<text text-anchor="start" x="2676.5" y="-80" font-family="Helvetica,sans-Serif" font-size="10.00">src/Scripts/Heroes</text>
<text text-anchor="middle" x="2740" y="-69" font-family="Helvetica,sans-Serif" font-size="10.00">/AirstrikeAbilityBehaviour.cpp</text>
</a>
</g>
</g>
<!-- Node1&#45;&gt;Node19 -->
<g id="edge18" class="edge">
<title>Node1&#45;&gt;Node19</title>
<path fill="none" stroke="midnightblue" d="M2470.85,-134.55C2524.39,-125.01 2596.07,-111.66 2659,-98 2667.35,-96.19 2676.16,-94.15 2684.76,-92.08"/>
<polygon fill="midnightblue" stroke="midnightblue" points="2469.97,-131.15 2460.73,-136.35 2471.19,-138.05 2469.97,-131.15"/>
</g>
<!-- Node20 -->
<g id="node20" class="node">
<title>Node20</title>
<g id="a_node20"><a xlink:href="EnemySuicideAbilityBehaviour_8cpp.html" target="_top" xlink:title=" ">
<polygon fill="none" stroke="black" points="2829.5,-62 2829.5,-92 2998.5,-92 2998.5,-62 2829.5,-62"/>
<text text-anchor="start" x="2837.5" y="-80" font-family="Helvetica,sans-Serif" font-size="10.00">src/Scripts/Heroes</text>
<text text-anchor="middle" x="2914" y="-69" font-family="Helvetica,sans-Serif" font-size="10.00">/EnemySuicideAbilityBehaviour.cpp</text>
</a>
</g>
</g>
<!-- Node1&#45;&gt;Node20 -->
<g id="edge19" class="edge">
<title>Node1&#45;&gt;Node20</title>
<path fill="none" stroke="midnightblue" d="M2470.7,-141.28C2557.34,-133 2698.9,-117.95 2820,-98 2830.37,-96.29 2841.33,-94.21 2851.96,-92.05"/>
<polygon fill="midnightblue" stroke="midnightblue" points="2470.29,-137.8 2460.67,-142.23 2470.95,-144.77 2470.29,-137.8"/>
</g>
<!-- Node21 -->
<g id="node21" class="node">
<title>Node21</title>
<g id="a_node21"><a xlink:href="IncreaseTowerFireRateAbilityBehaviour_8cpp.html" target="_top" xlink:title=" ">
<polygon fill="none" stroke="black" points="3016.5,-56.5 3016.5,-97.5 3163.5,-97.5 3163.5,-56.5 3016.5,-56.5"/>
<text text-anchor="start" x="3024.5" y="-85.5" font-family="Helvetica,sans-Serif" font-size="10.00">src/Scripts/Heroes</text>
<text text-anchor="start" x="3024.5" y="-74.5" font-family="Helvetica,sans-Serif" font-size="10.00">/IncreaseTowerFireRateAbility</text>
<text text-anchor="middle" x="3090" y="-63.5" font-family="Helvetica,sans-Serif" font-size="10.00">Behaviour.cpp</text>
</a>
</g>
</g>
<!-- Node1&#45;&gt;Node21 -->
<g id="edge20" class="edge">
<title>Node1&#45;&gt;Node21</title>
<path fill="none" stroke="midnightblue" d="M2470.82,-145.87C2589.15,-141.13 2816.24,-128.6 3007,-98 3010.07,-97.51 3013.2,-96.96 3016.35,-96.37"/>
<polygon fill="midnightblue" stroke="midnightblue" points="2470.61,-142.38 2460.75,-146.27 2470.88,-149.37 2470.61,-142.38"/>
</g>
<!-- Node22 -->
<g id="node22" class="node">
<title>Node22</title>
<g id="a_node22"><a xlink:href="InvisibilityAbilityBehaviour_8cpp.html" target="_top" xlink:title=" ">
<polygon fill="none" stroke="black" points="3182,-62 3182,-92 3332,-92 3332,-62 3182,-62"/>
<text text-anchor="start" x="3190" y="-80" font-family="Helvetica,sans-Serif" font-size="10.00">src/Scripts/Heroes</text>
<text text-anchor="middle" x="3257" y="-69" font-family="Helvetica,sans-Serif" font-size="10.00">/InvisibilityAbilityBehaviour.cpp</text>
</a>
</g>
</g>
<!-- Node1&#45;&gt;Node22 -->
<g id="edge21" class="edge">
<title>Node1&#45;&gt;Node22</title>
<path fill="none" stroke="midnightblue" d="M2470.9,-147.71C2613.36,-145.32 2917.98,-135.82 3172,-98 3182.2,-96.48 3192.97,-94.36 3203.3,-92.06"/>
<polygon fill="midnightblue" stroke="midnightblue" points="2470.46,-144.21 2460.51,-147.87 2470.57,-151.21 2470.46,-144.21"/>
</g>
<!-- Node23 -->
<g id="node23" class="node">
<title>Node23</title>
<g id="a_node23"><a xlink:href="UserAttackBehaviour_8cpp.html" target="_top" xlink:title=" ">
<polygon fill="none" stroke="black" points="3350.5,-62 3350.5,-92 3481.5,-92 3481.5,-62 3350.5,-62"/>
<text text-anchor="start" x="3358.5" y="-80" font-family="Helvetica,sans-Serif" font-size="10.00">src/Scripts/Heroes</text>
<text text-anchor="middle" x="3416" y="-69" font-family="Helvetica,sans-Serif" font-size="10.00">/UserAttackBehaviour.cpp</text>
</a>
</g>
</g>
<!-- Node1&#45;&gt;Node23 -->
<g id="edge22" class="edge">
<title>Node1&#45;&gt;Node23</title>
<path fill="none" stroke="midnightblue" d="M2470.57,-146.37C2668.45,-140.8 3174.26,-124.37 3341,-98 3350.18,-96.55 3359.87,-94.43 3369.11,-92.1"/>
<polygon fill="midnightblue" stroke="midnightblue" points="2470.43,-142.87 2460.54,-146.65 2470.63,-149.87 2470.43,-142.87"/>
</g>
<!-- Node24 -->
<g id="node24" class="node">
<title>Node24</title>
<g id="a_node24"><a xlink:href="CloseSceneBehaviour_8cpp.html" target="_top" xlink:title=" ">
<polygon fill="none" stroke="black" points="3500,-62 3500,-92 3646,-92 3646,-62 3500,-62"/>
<text text-anchor="start" x="3508" y="-80" font-family="Helvetica,sans-Serif" font-size="10.00">src/Scripts/Menu/CloseScene</text>
<text text-anchor="middle" x="3573" y="-69" font-family="Helvetica,sans-Serif" font-size="10.00">Behaviour.cpp</text>
</a>
</g>
</g>
<!-- Node1&#45;&gt;Node24 -->
<g id="edge23" class="edge">
<title>Node1&#45;&gt;Node24</title>
<path fill="none" stroke="midnightblue" d="M2470.91,-146.79C2690.31,-141.82 3293.21,-125.97 3490,-98 3500.27,-96.54 3511.13,-94.38 3521.49,-92.02"/>
<polygon fill="midnightblue" stroke="midnightblue" points="2470.68,-143.29 2460.76,-147.01 2470.84,-150.29 2470.68,-143.29"/>
</g>
<!-- Node25 -->
<g id="node25" class="node">
<title>Node25</title>
<g id="a_node25"><a xlink:href="PauseSceneBehaviour_8cpp.html" target="_top" xlink:title=" ">
<polygon fill="none" stroke="black" points="3664.5,-62 3664.5,-92 3813.5,-92 3813.5,-62 3664.5,-62"/>
<text text-anchor="start" x="3672.5" y="-80" font-family="Helvetica,sans-Serif" font-size="10.00">src/Scripts/Menu/PauseScene</text>
<text text-anchor="middle" x="3739" y="-69" font-family="Helvetica,sans-Serif" font-size="10.00">Behaviour.cpp</text>
</a>
</g>
</g>
<!-- Node1&#45;&gt;Node25 -->
<g id="edge24" class="edge">
<title>Node1&#45;&gt;Node25</title>
<path fill="none" stroke="midnightblue" d="M2470.64,-147.32C2711.76,-143.49 3424.78,-129.7 3655,-98 3665.4,-96.57 3676.39,-94.42 3686.87,-92.06"/>
<polygon fill="midnightblue" stroke="midnightblue" points="2470.49,-143.83 2460.54,-147.48 2470.6,-150.83 2470.49,-143.83"/>
</g>
<!-- Node26 -->
<g id="node26" class="node">
<title>Node26</title>
<g id="a_node26"><a xlink:href="Engine_8cpp.html" target="_top" xlink:title=" ">
<polygon fill="none" stroke="black" points="3831.5,-62 3831.5,-92 3932.5,-92 3932.5,-62 3831.5,-62"/>
<text text-anchor="start" x="3839.5" y="-80" font-family="Helvetica,sans-Serif" font-size="10.00">libs/spic&#45;engine/src</text>
<text text-anchor="middle" x="3882" y="-69" font-family="Helvetica,sans-Serif" font-size="10.00">/Api/Engine.cpp</text>
</a>
</g>
</g>
<!-- Node1&#45;&gt;Node26 -->
<g id="edge25" class="edge">
<title>Node1&#45;&gt;Node26</title>
<path fill="none" stroke="midnightblue" d="M2470.87,-148.68C2733.35,-148.81 3559.73,-145.32 3822,-98 3829.67,-96.62 3837.7,-94.46 3845.31,-92.07"/>
<polygon fill="midnightblue" stroke="midnightblue" points="2470.65,-145.18 2460.65,-148.68 2470.65,-152.18 2470.65,-145.18"/>
</g>
<!-- Node27 -->
<g id="node27" class="node">
<title>Node27</title>
<g id="a_node27"><a xlink:href="GameObject_8cpp.html" target="_top" xlink:title=" ">
<polygon fill="none" stroke="black" points="3951,-62 3951,-92 4061,-92 4061,-62 3951,-62"/>
<text text-anchor="start" x="3959" y="-80" font-family="Helvetica,sans-Serif" font-size="10.00">libs/spic&#45;engine/src</text>
<text text-anchor="middle" x="4006" y="-69" font-family="Helvetica,sans-Serif" font-size="10.00">/Api/GameObject.cpp</text>
</a>
</g>
</g>
<!-- Node1&#45;&gt;Node27 -->
<g id="edge26" class="edge">
<title>Node1&#45;&gt;Node27</title>
<path fill="none" stroke="midnightblue" d="M2471.32,-148.7C2748.4,-148.93 3654.21,-145.91 3941,-98 3949.27,-96.62 3957.95,-94.47 3966.18,-92.07"/>
<polygon fill="midnightblue" stroke="midnightblue" points="2470.95,-145.2 2460.95,-148.69 2470.95,-152.2 2470.95,-145.2"/>
</g>
<!-- Node28 -->
<g id="node28" class="node">
<title>Node28</title>
<g id="a_node28"><a xlink:href="AudioSubsystem_8cpp.html" target="_top" xlink:title=" ">
<polygon fill="none" stroke="black" points="4079,-62 4079,-92 4247,-92 4247,-62 4079,-62"/>
<text text-anchor="start" x="4087" y="-80" font-family="Helvetica,sans-Serif" font-size="10.00">libs/spic&#45;engine/src</text>
<text text-anchor="middle" x="4163" y="-69" font-family="Helvetica,sans-Serif" font-size="10.00">/Subsystems/AudioSubsystem.cpp</text>
</a>
</g>
</g>
<!-- Node1&#45;&gt;Node28 -->
<g id="edge27" class="edge">
<title>Node1&#45;&gt;Node28</title>
<path fill="none" stroke="midnightblue" d="M2471.01,-148.02C2762.15,-145.97 3754.92,-136.29 4070,-98 4081.64,-96.59 4093.98,-94.42 4105.73,-92.02"/>
<polygon fill="midnightblue" stroke="midnightblue" points="2470.92,-144.52 2460.95,-148.09 2470.97,-151.52 2470.92,-144.52"/>
</g>
<!-- Node29 -->
<g id="node29" class="node">
<title>Node29</title>
<g id="a_node29"><a xlink:href="FpsCounterSubsystem_8cpp.html" target="_top" xlink:title=" ">
<polygon fill="none" stroke="black" points="4265,-62 4265,-92 4459,-92 4459,-62 4265,-62"/>
<text text-anchor="start" x="4273" y="-80" font-family="Helvetica,sans-Serif" font-size="10.00">libs/spic&#45;engine/src</text>
<text text-anchor="middle" x="4362" y="-69" font-family="Helvetica,sans-Serif" font-size="10.00">/Subsystems/FpsCounterSubsystem.cpp</text>
</a>
</g>
</g>
<!-- Node1&#45;&gt;Node29 -->
<g id="edge28" class="edge">
<title>Node1&#45;&gt;Node29</title>
<path fill="none" stroke="midnightblue" d="M2470.86,-148.03C2781.99,-145.95 3902.14,-135.93 4256,-98 4269.22,-96.58 4283.26,-94.41 4296.65,-92.02"/>
<polygon fill="midnightblue" stroke="midnightblue" points="2470.55,-144.53 2460.57,-148.1 2470.6,-151.53 2470.55,-144.53"/>
</g>
<!-- Node30 -->
<g id="node30" class="node">
<title>Node30</title>
<g id="a_node30"><a xlink:href="InputSubsystem_8cpp.html" target="_top" xlink:title=" ">
<polygon fill="none" stroke="black" points="4477.5,-62 4477.5,-92 4642.5,-92 4642.5,-62 4477.5,-62"/>
<text text-anchor="start" x="4485.5" y="-80" font-family="Helvetica,sans-Serif" font-size="10.00">libs/spic&#45;engine/src</text>
<text text-anchor="middle" x="4560" y="-69" font-family="Helvetica,sans-Serif" font-size="10.00">/Subsystems/InputSubsystem.cpp</text>
</a>
</g>
</g>
<!-- Node1&#45;&gt;Node30 -->
<g id="edge29" class="edge">
<title>Node1&#45;&gt;Node30</title>
<path fill="none" stroke="midnightblue" d="M2470.79,-148.58C2803.77,-148.62 4070.92,-145.55 4468,-98 4479.52,-96.62 4491.73,-94.47 4503.36,-92.08"/>
<polygon fill="midnightblue" stroke="midnightblue" points="2470.74,-145.08 2460.74,-148.58 2470.74,-152.08 2470.74,-145.08"/>
</g>
<!-- Node31 -->
<g id="node31" class="node">
<title>Node31</title>
<g id="a_node31"><a xlink:href="RenderSubsystem_8cpp.html" target="_top" xlink:title=" ">
<polygon fill="none" stroke="black" points="4661,-62 4661,-92 4835,-92 4835,-62 4661,-62"/>
<text text-anchor="start" x="4669" y="-80" font-family="Helvetica,sans-Serif" font-size="10.00">libs/spic&#45;engine/src</text>
<text text-anchor="middle" x="4748" y="-69" font-family="Helvetica,sans-Serif" font-size="10.00">/Subsystems/RenderSubsystem.cpp</text>
</a>
</g>
</g>
<!-- Node1&#45;&gt;Node31 -->
<g id="edge30" class="edge">
<title>Node1&#45;&gt;Node31</title>
<path fill="none" stroke="midnightblue" d="M2470.81,-148.66C2821.79,-149.03 4215.78,-147.32 4651,-98 4663.22,-96.62 4676.17,-94.44 4688.51,-92.03"/>
<polygon fill="midnightblue" stroke="midnightblue" points="2470.74,-145.16 2460.73,-148.64 2470.73,-152.16 2470.74,-145.16"/>
</g>
<!-- Node32 -->
<g id="node32" class="node">
<title>Node32</title>
<g id="a_node32"><a xlink:href="Api_8hpp.html" target="_top" xlink:title=" ">
<polygon fill="none" stroke="black" points="4853,-62 4853,-92 4979,-92 4979,-62 4853,-62"/>
<text text-anchor="start" x="4861" y="-80" font-family="Helvetica,sans-Serif" font-size="10.00">libs/spic&#45;engine/includes</text>
<text text-anchor="middle" x="4916" y="-69" font-family="Helvetica,sans-Serif" font-size="10.00">/spic&#45;api&#45;headers/Api.hpp</text>
</a>
</g>
</g>
<!-- Node1&#45;&gt;Node32 -->
<g id="edge31" class="edge">
<title>Node1&#45;&gt;Node32</title>
<path fill="none" stroke="midnightblue" d="M2470.78,-148.04C2868.09,-145.61 4605.27,-133.05 4844,-98 4853.24,-96.64 4862.98,-94.47 4872.21,-92.04"/>
<polygon fill="midnightblue" stroke="midnightblue" points="2470.51,-144.54 2460.53,-148.1 2470.55,-151.54 2470.51,-144.54"/>
</g>
<!-- Node33 -->
<g id="node33" class="node">
<title>Node33</title>
<g id="a_node33"><a xlink:href="LevelController_8cpp.html" target="_top" xlink:title=" ">
<polygon fill="none" stroke="black" points="4764,-0.5 4764,-19.5 4930,-19.5 4930,-0.5 4764,-0.5"/>
<text text-anchor="middle" x="4847" y="-7.5" font-family="Helvetica,sans-Serif" font-size="10.00">src/Controllers/LevelController.cpp</text>
</a>
</g>
</g>
<!-- Node32&#45;&gt;Node33 -->
<g id="edge32" class="edge">
<title>Node32&#45;&gt;Node33</title>
<path fill="none" stroke="midnightblue" d="M4893.53,-54.84C4880.86,-42.9 4865.72,-28.64 4856.23,-19.69"/>
<polygon fill="midnightblue" stroke="midnightblue" points="4891.35,-57.59 4901.03,-61.9 4896.15,-52.49 4891.35,-57.59"/>
</g>
<!-- Node34 -->
<g id="node34" class="node">
<title>Node34</title>
<g id="a_node34"><a xlink:href="main_8cpp.html" target="_top" xlink:title=" ">
<polygon fill="none" stroke="black" points="4948,-0.5 4948,-19.5 5020,-19.5 5020,-0.5 4948,-0.5"/>
<text text-anchor="middle" x="4984" y="-7.5" font-family="Helvetica,sans-Serif" font-size="10.00">src/main.cpp</text>
</a>
</g>
</g>
<!-- Node32&#45;&gt;Node34 -->
<g id="edge33" class="edge">
<title>Node32&#45;&gt;Node34</title>
<path fill="none" stroke="midnightblue" d="M4938.14,-54.84C4950.63,-42.9 4965.55,-28.64 4974.9,-19.69"/>
<polygon fill="midnightblue" stroke="midnightblue" points="4935.57,-52.46 4930.75,-61.9 4940.4,-57.52 4935.57,-52.46"/>
</g>
</g>
</svg>
        <g id="navigator" transform="translate(0 0)" fill="#404254">
                <rect fill="#f2f5e9" fill-opacity="0.5" stroke="#606060" stroke-width=".5" x="0" y="0" width="60" height="60"/>
                <use id="zoomplus" xlink:href="#zoomPlus" x="17" y="9" onmousedown="handleZoom(evt,'in')"/>
                <use id="zoomminus" xlink:href="#zoomMin" x="42" y="9" onmousedown="handleZoom(evt,'out')"/>
                <use id="reset" xlink:href="#resetDef" x="30" y="36" onmousedown="handleReset()"/>
                <g id="arrowUp" xlink:href="#dirArrow" transform="translate(30 24)" onmousedown="handlePan(0,-1)">
                  <use xlink:href="#rim" fill="#404040">
                        <set attributeName="fill" to="#808080" begin="arrowUp.mouseover" end="arrowUp.mouseout"/>
                  </use>
                  <path fill="none" stroke="white" stroke-width="1.5" d="M0,-3.0v7 M-2.5,-0.5L0,-3.0L2.5,-0.5"/>
                </g>
                <g id="arrowRight" xlink:href="#dirArrow" transform="rotate(90) translate(36 -43)" onmousedown="handlePan(1,0)">
                  <use xlink:href="#rim" fill="#404040">
                        <set attributeName="fill" to="#808080" begin="arrowRight.mouseover" end="arrowRight.mouseout"/>
                  </use>
                  <path fill="none" stroke="white" stroke-width="1.5" d="M0,-3.0v7 M-2.5,-0.5L0,-3.0L2.5,-0.5"/>
                </g>
                <g id="arrowDown" xlink:href="#dirArrow" transform="rotate(180) translate(-30 -48)" onmousedown="handlePan(0,1)">
                  <use xlink:href="#rim" fill="#404040">
                        <set attributeName="fill" to="#808080" begin="arrowDown.mouseover" end="arrowDown.mouseout"/>
                  </use>
                  <path fill="none" stroke="white" stroke-width="1.5" d="M0,-3.0v7 M-2.5,-0.5L0,-3.0L2.5,-0.5"/>
                </g>
                <g id="arrowLeft" xlink:href="#dirArrow" transform="rotate(270) translate(-36 17)" onmousedown="handlePan(-1,0)">
                  <use xlink:href="#rim" fill="#404040">
                        <set attributeName="fill" to="#808080" begin="arrowLeft.mouseover" end="arrowLeft.mouseout"/>
                  </use>
                  <path fill="none" stroke="white" stroke-width="1.5" d="M0,-3.0v7 M-2.5,-0.5L0,-3.0L2.5,-0.5"/>
                </g>
        </g>
        <svg viewBox="0 0 15 15" width="100%" height="30px" preserveAspectRatio="xMaxYMin meet">
         <g id="arrow_out" transform="scale(0.3 0.3)">
          <a xlink:href="Engine_8hpp__dep__incl_org.svg" target="_base">
           <rect id="button" ry="5" rx="5" y="6" x="6" height="38" width="38"
                fill="#f2f5e9" fill-opacity="0.5" stroke="#606060" stroke-width="1.0"/>
           <path id="arrow"
             d="M 11.500037,31.436501 C 11.940474,20.09759 22.043105,11.32322 32.158766,21.979434 L 37.068811,17.246167 C 37.068811,17.246167 37.088388,32 37.088388,32 L 22.160133,31.978069 C 22.160133,31.978069 26.997745,27.140456 26.997745,27.140456 C 18.528582,18.264221 13.291696,25.230495 11.500037,31.436501 z"
             style="fill:#404040;"/>
          </a>
         </g>
        </svg>
</svg>
