<?xml version="1.0" encoding="UTF-8" standalone="no"?>
<!DOCTYPE svg PUBLIC "-//W3C//DTD SVG 1.1//EN"
 "http://www.w3.org/Graphics/SVG/1.1/DTD/svg11.dtd">
<!-- Generated by graphviz version 2.44.0 ()
 -->
<!-- Title: libs/spic&#45;engine/includes/spic&#45;api&#45;headers/EngineConfig.hpp Pages: 1 -->
<svg width="4737pt" height="240pt"
 viewBox="0.00 0.00 4737.00 240.00" xmlns="http://www.w3.org/2000/svg" xmlns:xlink="http://www.w3.org/1999/xlink">
<g id="graph0" class="graph" transform="scale(1 1) rotate(0) translate(4 236)">
<title>libs/spic&#45;engine/includes/spic&#45;api&#45;headers/EngineConfig.hpp</title>
<!-- Node1 -->
<g id="node1" class="node">
<title>Node1</title>
<g id="a_node1"><a xlink:title=" ">
<polygon fill="#bfbfbf" stroke="black" points="1161,-201.5 1161,-231.5 1329,-231.5 1329,-201.5 1161,-201.5"/>
<text text-anchor="start" x="1169" y="-219.5" font-family="Helvetica,sans-Serif" font-size="10.00">libs/spic&#45;engine/includes</text>
<text text-anchor="middle" x="1245" y="-208.5" font-family="Helvetica,sans-Serif" font-size="10.00">/spic&#45;api&#45;headers/EngineConfig.hpp</text>
</a>
</g>
</g>
<!-- Node2 -->
<g id="node2" class="node">
<title>Node2</title>
<g id="a_node2"><a xlink:href="Api_8hpp.html" target="_top" xlink:title=" ">
<polygon fill="none" stroke="black" points="88,-62 88,-92 214,-92 214,-62 88,-62"/>
<text text-anchor="start" x="96" y="-80" font-family="Helvetica,sans-Serif" font-size="10.00">libs/spic&#45;engine/includes</text>
<text text-anchor="middle" x="151" y="-69" font-family="Helvetica,sans-Serif" font-size="10.00">/spic&#45;api&#45;headers/Api.hpp</text>
</a>
</g>
</g>
<!-- Node1&#45;&gt;Node2 -->
<g id="edge1" class="edge">
<title>Node1&#45;&gt;Node2</title>
<path fill="none" stroke="midnightblue" d="M1150.84,-209.62C969.78,-197.23 561.06,-163.97 223,-98 214.72,-96.39 206.01,-94.3 197.61,-92.09"/>
<polygon fill="midnightblue" stroke="midnightblue" points="1150.65,-213.12 1160.86,-210.3 1151.12,-206.13 1150.65,-213.12"/>
</g>
<!-- Node5 -->
<g id="node5" class="node">
<title>Node5</title>
<g id="a_node5"><a xlink:href="Engine_8hpp.html" target="_top" xlink:title=" ">
<polygon fill="none" stroke="black" points="2184.5,-134.5 2184.5,-164.5 2325.5,-164.5 2325.5,-134.5 2184.5,-134.5"/>
<text text-anchor="start" x="2192.5" y="-152.5" font-family="Helvetica,sans-Serif" font-size="10.00">libs/spic&#45;engine/includes</text>
<text text-anchor="middle" x="2255" y="-141.5" font-family="Helvetica,sans-Serif" font-size="10.00">/spic&#45;api&#45;headers/Engine.hpp</text>
</a>
</g>
</g>
<!-- Node1&#45;&gt;Node5 -->
<g id="edge4" class="edge">
<title>Node1&#45;&gt;Node5</title>
<path fill="none" stroke="midnightblue" d="M1339.62,-209.41C1540.63,-196.47 2006.38,-166.5 2184.23,-155.05"/>
<polygon fill="midnightblue" stroke="midnightblue" points="1339.13,-205.93 1329.37,-210.07 1339.58,-212.92 1339.13,-205.93"/>
</g>
<!-- Node3 -->
<g id="node3" class="node">
<title>Node3</title>
<g id="a_node3"><a xlink:href="LevelController_8cpp.html" target="_top" xlink:title=" ">
<polygon fill="none" stroke="black" points="0,-0.5 0,-19.5 166,-19.5 166,-0.5 0,-0.5"/>
<text text-anchor="middle" x="83" y="-7.5" font-family="Helvetica,sans-Serif" font-size="10.00">src/Controllers/LevelController.cpp</text>
</a>
</g>
</g>
<!-- Node2&#45;&gt;Node3 -->
<g id="edge2" class="edge">
<title>Node2&#45;&gt;Node3</title>
<path fill="none" stroke="midnightblue" d="M128.86,-54.84C116.37,-42.9 101.45,-28.64 92.1,-19.69"/>
<polygon fill="midnightblue" stroke="midnightblue" points="126.6,-57.52 136.25,-61.9 131.43,-52.46 126.6,-57.52"/>
</g>
<!-- Node4 -->
<g id="node4" class="node">
<title>Node4</title>
<g id="a_node4"><a xlink:href="main_8cpp.html" target="_top" xlink:title=" ">
<polygon fill="none" stroke="black" points="184,-0.5 184,-19.5 256,-19.5 256,-0.5 184,-0.5"/>
<text text-anchor="middle" x="220" y="-7.5" font-family="Helvetica,sans-Serif" font-size="10.00">src/main.cpp</text>
</a>
</g>
</g>
<!-- Node2&#45;&gt;Node4 -->
<g id="edge3" class="edge">
<title>Node2&#45;&gt;Node4</title>
<path fill="none" stroke="midnightblue" d="M173.47,-54.84C186.14,-42.9 201.28,-28.64 210.77,-19.69"/>
<polygon fill="midnightblue" stroke="midnightblue" points="170.85,-52.49 165.97,-61.9 175.65,-57.59 170.85,-52.49"/>
</g>
<!-- Node5&#45;&gt;Node2 -->
<g id="edge33" class="edge">
<title>Node5&#45;&gt;Node2</title>
<path fill="none" stroke="midnightblue" d="M2174.12,-147.67C1820.35,-143.86 417.95,-127.05 223,-98 213.76,-96.62 204.02,-94.44 194.8,-92.01"/>
<polygon fill="midnightblue" stroke="midnightblue" points="2174.25,-151.17 2184.28,-147.77 2174.32,-144.17 2174.25,-151.17"/>
</g>
<!-- Node6 -->
<g id="node6" class="node">
<title>Node6</title>
<g id="a_node6"><a xlink:href="BulletFactory_8cpp.html" target="_top" xlink:title=" ">
<polygon fill="none" stroke="black" points="232,-67.5 232,-86.5 384,-86.5 384,-67.5 232,-67.5"/>
<text text-anchor="middle" x="308" y="-74.5" font-family="Helvetica,sans-Serif" font-size="10.00">src/Factories/BulletFactory.cpp</text>
</a>
</g>
</g>
<!-- Node5&#45;&gt;Node6 -->
<g id="edge5" class="edge">
<title>Node5&#45;&gt;Node6</title>
<path fill="none" stroke="midnightblue" d="M2174.39,-147.28C1839.96,-142.11 570.94,-121.1 393,-98 374.36,-95.58 353.83,-90.81 337.62,-86.54"/>
<polygon fill="midnightblue" stroke="midnightblue" points="2174.42,-150.78 2184.48,-147.44 2174.53,-143.79 2174.42,-150.78"/>
</g>
<!-- Node7 -->
<g id="node7" class="node">
<title>Node7</title>
<g id="a_node7"><a xlink:href="ButtonPrefabFactory_8cpp.html" target="_top" xlink:title=" ">
<polygon fill="none" stroke="black" points="402,-62 402,-92 536,-92 536,-62 402,-62"/>
<text text-anchor="start" x="410" y="-80" font-family="Helvetica,sans-Serif" font-size="10.00">src/Factories/ButtonPrefab</text>
<text text-anchor="middle" x="469" y="-69" font-family="Helvetica,sans-Serif" font-size="10.00">Factory.cpp</text>
</a>
</g>
</g>
<!-- Node5&#45;&gt;Node7 -->
<g id="edge6" class="edge">
<title>Node5&#45;&gt;Node7</title>
<path fill="none" stroke="midnightblue" d="M2174.47,-147.2C1857.72,-141.94 706.98,-121.39 545,-98 535.41,-96.62 525.3,-94.46 515.68,-92.07"/>
<polygon fill="midnightblue" stroke="midnightblue" points="2174.43,-150.7 2184.49,-147.37 2174.55,-143.7 2174.43,-150.7"/>
</g>
<!-- Node8 -->
<g id="node8" class="node">
<title>Node8</title>
<g id="a_node8"><a xlink:href="GameOverScene_8cpp.html" target="_top" xlink:title=" ">
<polygon fill="none" stroke="black" points="554,-67.5 554,-86.5 716,-86.5 716,-67.5 554,-67.5"/>
<text text-anchor="middle" x="635" y="-74.5" font-family="Helvetica,sans-Serif" font-size="10.00">src/Scenes/GameOverScene.cpp</text>
</a>
</g>
</g>
<!-- Node5&#45;&gt;Node8 -->
<g id="edge7" class="edge">
<title>Node5&#45;&gt;Node8</title>
<path fill="none" stroke="midnightblue" d="M2173.96,-147.81C1899.93,-145.17 1009.24,-133.96 725,-98 705.47,-95.53 683.93,-90.82 666.82,-86.58"/>
<polygon fill="midnightblue" stroke="midnightblue" points="2174.19,-151.31 2184.22,-147.91 2174.26,-144.31 2174.19,-151.31"/>
</g>
<!-- Node9 -->
<g id="node9" class="node">
<title>Node9</title>
<g id="a_node9"><a xlink:href="LevelSelectionScene_8cpp.html" target="_top" xlink:title=" ">
<polygon fill="none" stroke="black" points="734,-62 734,-92 868,-92 868,-62 734,-62"/>
<text text-anchor="start" x="742" y="-80" font-family="Helvetica,sans-Serif" font-size="10.00">src/Scenes/LevelSelection</text>
<text text-anchor="middle" x="801" y="-69" font-family="Helvetica,sans-Serif" font-size="10.00">Scene.cpp</text>
</a>
</g>
</g>
<!-- Node5&#45;&gt;Node9 -->
<g id="edge8" class="edge">
<title>Node5&#45;&gt;Node9</title>
<path fill="none" stroke="midnightblue" d="M2173.83,-147.87C1917.85,-145.53 1129.56,-135.39 877,-98 867.42,-96.58 857.3,-94.41 847.69,-92.02"/>
<polygon fill="midnightblue" stroke="midnightblue" points="2174.14,-151.38 2184.17,-147.97 2174.2,-144.38 2174.14,-151.38"/>
</g>
<!-- Node10 -->
<g id="node10" class="node">
<title>Node10</title>
<g id="a_node10"><a xlink:href="LoadingScene_8cpp.html" target="_top" xlink:title=" ">
<polygon fill="none" stroke="black" points="886.5,-67.5 886.5,-86.5 1035.5,-86.5 1035.5,-67.5 886.5,-67.5"/>
<text text-anchor="middle" x="961" y="-74.5" font-family="Helvetica,sans-Serif" font-size="10.00">src/Scenes/LoadingScene.cpp</text>
</a>
</g>
</g>
<!-- Node5&#45;&gt;Node10 -->
<g id="edge9" class="edge">
<title>Node5&#45;&gt;Node10</title>
<path fill="none" stroke="midnightblue" d="M2174.27,-147.15C1940.2,-142.93 1264.06,-128.36 1045,-98 1026.74,-95.47 1006.63,-90.75 990.67,-86.54"/>
<polygon fill="midnightblue" stroke="midnightblue" points="2174.35,-150.65 2184.41,-147.33 2174.47,-143.66 2174.35,-150.65"/>
</g>
<!-- Node11 -->
<g id="node11" class="node">
<title>Node11</title>
<g id="a_node11"><a xlink:href="MainScene_8cpp.html" target="_top" xlink:title=" ">
<polygon fill="none" stroke="black" points="1054,-67.5 1054,-86.5 1190,-86.5 1190,-67.5 1054,-67.5"/>
<text text-anchor="middle" x="1122" y="-74.5" font-family="Helvetica,sans-Serif" font-size="10.00">src/Scenes/MainScene.cpp</text>
</a>
</g>
</g>
<!-- Node5&#45;&gt;Node11 -->
<g id="edge10" class="edge">
<title>Node5&#45;&gt;Node11</title>
<path fill="none" stroke="midnightblue" d="M2173.96,-146.79C1960.57,-141.93 1386.68,-126.55 1199,-98 1182.2,-95.45 1163.77,-90.73 1149.16,-86.52"/>
<polygon fill="midnightblue" stroke="midnightblue" points="2174.08,-150.29 2184.15,-147.02 2174.23,-143.29 2174.08,-150.29"/>
</g>
<!-- Node12 -->
<g id="node12" class="node">
<title>Node12</title>
<g id="a_node12"><a xlink:href="PauseScene_8cpp.html" target="_top" xlink:title=" ">
<polygon fill="none" stroke="black" points="1208.5,-67.5 1208.5,-86.5 1351.5,-86.5 1351.5,-67.5 1208.5,-67.5"/>
<text text-anchor="middle" x="1280" y="-74.5" font-family="Helvetica,sans-Serif" font-size="10.00">src/Scenes/PauseScene.cpp</text>
</a>
</g>
</g>
<!-- Node5&#45;&gt;Node12 -->
<g id="edge11" class="edge">
<title>Node5&#45;&gt;Node12</title>
<path fill="none" stroke="midnightblue" d="M2174.35,-148.94C2017.01,-148.69 1658.47,-142.73 1361,-98 1343.52,-95.37 1324.31,-90.71 1308.98,-86.54"/>
<polygon fill="midnightblue" stroke="midnightblue" points="2174.42,-152.44 2184.42,-148.95 2174.43,-145.44 2174.42,-152.44"/>
</g>
<!-- Node13 -->
<g id="node13" class="node">
<title>Node13</title>
<g id="a_node13"><a xlink:href="SaveSelectionScene_8cpp.html" target="_top" xlink:title=" ">
<polygon fill="none" stroke="black" points="1370,-62 1370,-92 1502,-92 1502,-62 1370,-62"/>
<text text-anchor="start" x="1378" y="-80" font-family="Helvetica,sans-Serif" font-size="10.00">src/Scenes/SaveSelection</text>
<text text-anchor="middle" x="1436" y="-69" font-family="Helvetica,sans-Serif" font-size="10.00">Scene.cpp</text>
</a>
</g>
</g>
<!-- Node5&#45;&gt;Node13 -->
<g id="edge12" class="edge">
<title>Node5&#45;&gt;Node13</title>
<path fill="none" stroke="midnightblue" d="M2174.46,-148.1C2037.32,-146.29 1750.08,-137.61 1511,-98 1501.96,-96.5 1492.43,-94.39 1483.31,-92.09"/>
<polygon fill="midnightblue" stroke="midnightblue" points="2174.43,-151.6 2184.47,-148.22 2174.51,-144.6 2174.43,-151.6"/>
</g>
<!-- Node14 -->
<g id="node14" class="node">
<title>Node14</title>
<g id="a_node14"><a xlink:href="VictoryScene_8cpp.html" target="_top" xlink:title=" ">
<polygon fill="none" stroke="black" points="1520.5,-67.5 1520.5,-86.5 1665.5,-86.5 1665.5,-67.5 1520.5,-67.5"/>
<text text-anchor="middle" x="1593" y="-74.5" font-family="Helvetica,sans-Serif" font-size="10.00">src/Scenes/VictoryScene.cpp</text>
</a>
</g>
</g>
<!-- Node5&#45;&gt;Node14 -->
<g id="edge13" class="edge">
<title>Node5&#45;&gt;Node14</title>
<path fill="none" stroke="midnightblue" d="M2174.24,-145.36C2061.73,-140.1 1851.75,-127.08 1675,-98 1657.65,-95.15 1638.55,-90.57 1623.15,-86.52"/>
<polygon fill="midnightblue" stroke="midnightblue" points="2174.33,-148.86 2184.48,-145.83 2174.66,-141.87 2174.33,-148.86"/>
</g>
<!-- Node15 -->
<g id="node15" class="node">
<title>Node15</title>
<g id="a_node15"><a xlink:href="AttackBehaviour_8cpp.html" target="_top" xlink:title=" ">
<polygon fill="none" stroke="black" points="1684,-62 1684,-92 1794,-92 1794,-62 1684,-62"/>
<text text-anchor="start" x="1692" y="-80" font-family="Helvetica,sans-Serif" font-size="10.00">src/Scripts/Common</text>
<text text-anchor="middle" x="1739" y="-69" font-family="Helvetica,sans-Serif" font-size="10.00">/AttackBehaviour.cpp</text>
</a>
</g>
</g>
<!-- Node5&#45;&gt;Node15 -->
<g id="edge14" class="edge">
<title>Node5&#45;&gt;Node15</title>
<path fill="none" stroke="midnightblue" d="M2174.01,-144.14C2082.99,-138.16 1931.16,-124.93 1803,-98 1795.48,-96.42 1787.59,-94.33 1780.01,-92.09"/>
<polygon fill="midnightblue" stroke="midnightblue" points="2174.06,-147.65 2184.26,-144.8 2174.51,-140.67 2174.06,-147.65"/>
</g>
<!-- Node16 -->
<g id="node16" class="node">
<title>Node16</title>
<g id="a_node16"><a xlink:href="GameLostBehaviour_8cpp.html" target="_top" xlink:title=" ">
<polygon fill="none" stroke="black" points="1812.5,-62 1812.5,-92 1939.5,-92 1939.5,-62 1812.5,-62"/>
<text text-anchor="start" x="1820.5" y="-80" font-family="Helvetica,sans-Serif" font-size="10.00">src/Scripts/Common</text>
<text text-anchor="middle" x="1876" y="-69" font-family="Helvetica,sans-Serif" font-size="10.00">/GameLostBehaviour.cpp</text>
</a>
</g>
</g>
<!-- Node5&#45;&gt;Node16 -->
<g id="edge15" class="edge">
<title>Node5&#45;&gt;Node16</title>
<path fill="none" stroke="midnightblue" d="M2174.34,-137.66C2112.16,-128.72 2024.2,-114.8 1948,-98 1940.15,-96.27 1931.87,-94.2 1923.84,-92.07"/>
<polygon fill="midnightblue" stroke="midnightblue" points="2174.08,-141.16 2184.48,-139.11 2175.07,-134.23 2174.08,-141.16"/>
</g>
<!-- Node17 -->
<g id="node17" class="node">
<title>Node17</title>
<g id="a_node17"><a xlink:href="GameWonBehaviour_8cpp.html" target="_top" xlink:title=" ">
<polygon fill="none" stroke="black" points="1957.5,-62 1957.5,-92 2084.5,-92 2084.5,-62 1957.5,-62"/>
<text text-anchor="start" x="1965.5" y="-80" font-family="Helvetica,sans-Serif" font-size="10.00">src/Scripts/Common</text>
<text text-anchor="middle" x="2021" y="-69" font-family="Helvetica,sans-Serif" font-size="10.00">/GameWonBehaviour.cpp</text>
</a>
</g>
</g>
<!-- Node5&#45;&gt;Node17 -->
<g id="edge16" class="edge">
<title>Node5&#45;&gt;Node17</title>
<path fill="none" stroke="midnightblue" d="M2198.87,-131.59C2158.82,-119.52 2105.59,-103.48 2067.82,-92.11"/>
<polygon fill="midnightblue" stroke="midnightblue" points="2197.9,-134.95 2208.49,-134.49 2199.92,-128.25 2197.9,-134.95"/>
</g>
<!-- Node18 -->
<g id="node18" class="node">
<title>Node18</title>
<g id="a_node18"><a xlink:href="EnemyMedicBehaviour_8cpp.html" target="_top" xlink:title=" ">
<polygon fill="none" stroke="black" points="2102.5,-62 2102.5,-92 2239.5,-92 2239.5,-62 2102.5,-62"/>
<text text-anchor="start" x="2110.5" y="-80" font-family="Helvetica,sans-Serif" font-size="10.00">src/Scripts/Enemies</text>
<text text-anchor="middle" x="2171" y="-69" font-family="Helvetica,sans-Serif" font-size="10.00">/EnemyMedicBehaviour.cpp</text>
</a>
</g>
</g>
<!-- Node5&#45;&gt;Node18 -->
<g id="edge17" class="edge">
<title>Node5&#45;&gt;Node18</title>
<path fill="none" stroke="midnightblue" d="M2230.32,-127.79C2216.59,-116.27 2199.87,-102.23 2187.69,-92"/>
<polygon fill="midnightblue" stroke="midnightblue" points="2228.09,-130.49 2238,-134.23 2232.59,-125.12 2228.09,-130.49"/>
</g>
<!-- Node19 -->
<g id="node19" class="node">
<title>Node19</title>
<g id="a_node19"><a xlink:href="EnemySpeedBoostBehaviour_8cpp.html" target="_top" xlink:title=" ">
<polygon fill="none" stroke="black" points="2258,-62 2258,-92 2422,-92 2422,-62 2258,-62"/>
<text text-anchor="start" x="2266" y="-80" font-family="Helvetica,sans-Serif" font-size="10.00">src/Scripts/Enemies</text>
<text text-anchor="middle" x="2340" y="-69" font-family="Helvetica,sans-Serif" font-size="10.00">/EnemySpeedBoostBehaviour.cpp</text>
</a>
</g>
</g>
<!-- Node5&#45;&gt;Node19 -->
<g id="edge18" class="edge">
<title>Node5&#45;&gt;Node19</title>
<path fill="none" stroke="midnightblue" d="M2279.97,-127.79C2293.86,-116.27 2310.78,-102.23 2323.11,-92"/>
<polygon fill="midnightblue" stroke="midnightblue" points="2277.66,-125.16 2272.2,-134.23 2282.13,-130.54 2277.66,-125.16"/>
</g>
<!-- Node20 -->
<g id="node20" class="node">
<title>Node20</title>
<g id="a_node20"><a xlink:href="EnemyTroopTruckBehaviour_8cpp.html" target="_top" xlink:title=" ">
<polygon fill="none" stroke="black" points="2440,-62 2440,-92 2600,-92 2600,-62 2440,-62"/>
<text text-anchor="start" x="2448" y="-80" font-family="Helvetica,sans-Serif" font-size="10.00">src/Scripts/Enemies</text>
<text text-anchor="middle" x="2520" y="-69" font-family="Helvetica,sans-Serif" font-size="10.00">/EnemyTroopTruckBehaviour.cpp</text>
</a>
</g>
</g>
<!-- Node5&#45;&gt;Node20 -->
<g id="edge19" class="edge">
<title>Node5&#45;&gt;Node20</title>
<path fill="none" stroke="midnightblue" d="M2317.42,-131.89C2362.9,-119.79 2423.85,-103.58 2466.97,-92.11"/>
<polygon fill="midnightblue" stroke="midnightblue" points="2316.44,-128.53 2307.67,-134.49 2318.24,-135.3 2316.44,-128.53"/>
</g>
<!-- Node21 -->
<g id="node21" class="node">
<title>Node21</title>
<g id="a_node21"><a xlink:href="AirstrikeAbilityBehaviour_8cpp.html" target="_top" xlink:title=" ">
<polygon fill="none" stroke="black" points="2618.5,-62 2618.5,-92 2761.5,-92 2761.5,-62 2618.5,-62"/>
<text text-anchor="start" x="2626.5" y="-80" font-family="Helvetica,sans-Serif" font-size="10.00">src/Scripts/Heroes</text>
<text text-anchor="middle" x="2690" y="-69" font-family="Helvetica,sans-Serif" font-size="10.00">/AirstrikeAbilityBehaviour.cpp</text>
</a>
</g>
</g>
<!-- Node5&#45;&gt;Node21 -->
<g id="edge20" class="edge">
<title>Node5&#45;&gt;Node21</title>
<path fill="none" stroke="midnightblue" d="M2335.89,-139.31C2407.89,-130.56 2515.92,-116.08 2609,-98 2617.82,-96.29 2627.11,-94.23 2636.14,-92.1"/>
<polygon fill="midnightblue" stroke="midnightblue" points="2335.05,-135.88 2325.54,-140.55 2335.88,-142.83 2335.05,-135.88"/>
</g>
<!-- Node22 -->
<g id="node22" class="node">
<title>Node22</title>
<g id="a_node22"><a xlink:href="EnemySuicideAbilityBehaviour_8cpp.html" target="_top" xlink:title=" ">
<polygon fill="none" stroke="black" points="2779.5,-62 2779.5,-92 2948.5,-92 2948.5,-62 2779.5,-62"/>
<text text-anchor="start" x="2787.5" y="-80" font-family="Helvetica,sans-Serif" font-size="10.00">src/Scripts/Heroes</text>
<text text-anchor="middle" x="2864" y="-69" font-family="Helvetica,sans-Serif" font-size="10.00">/EnemySuicideAbilityBehaviour.cpp</text>
</a>
</g>
</g>
<!-- Node5&#45;&gt;Node22 -->
<g id="edge21" class="edge">
<title>Node5&#45;&gt;Node22</title>
<path fill="none" stroke="midnightblue" d="M2336.07,-143.44C2438,-136.42 2618.16,-121.83 2771,-98 2781.61,-96.35 2792.82,-94.24 2803.65,-92.02"/>
<polygon fill="midnightblue" stroke="midnightblue" points="2335.59,-139.97 2325.85,-144.14 2336.06,-146.95 2335.59,-139.97"/>
</g>
<!-- Node23 -->
<g id="node23" class="node">
<title>Node23</title>
<g id="a_node23"><a xlink:href="IncreaseTowerFireRateAbilityBehaviour_8cpp.html" target="_top" xlink:title=" ">
<polygon fill="none" stroke="black" points="2966.5,-56.5 2966.5,-97.5 3113.5,-97.5 3113.5,-56.5 2966.5,-56.5"/>
<text text-anchor="start" x="2974.5" y="-85.5" font-family="Helvetica,sans-Serif" font-size="10.00">src/Scripts/Heroes</text>
<text text-anchor="start" x="2974.5" y="-74.5" font-family="Helvetica,sans-Serif" font-size="10.00">/IncreaseTowerFireRateAbility</text>
<text text-anchor="middle" x="3040" y="-63.5" font-family="Helvetica,sans-Serif" font-size="10.00">Behaviour.cpp</text>
</a>
</g>
</g>
<!-- Node5&#45;&gt;Node23 -->
<g id="edge22" class="edge">
<title>Node5&#45;&gt;Node23</title>
<path fill="none" stroke="midnightblue" d="M2335.9,-147.08C2467.2,-143.8 2734.52,-133.03 2958,-98 2960.75,-97.57 2963.54,-97.09 2966.36,-96.58"/>
<polygon fill="midnightblue" stroke="midnightblue" points="2335.45,-143.59 2325.54,-147.33 2335.62,-150.59 2335.45,-143.59"/>
</g>
<!-- Node24 -->
<g id="node24" class="node">
<title>Node24</title>
<g id="a_node24"><a xlink:href="IncreaseTowerRangeAbilityBehaviour_8cpp.html" target="_top" xlink:title=" ">
<polygon fill="none" stroke="black" points="3132,-56.5 3132,-97.5 3270,-97.5 3270,-56.5 3132,-56.5"/>
<text text-anchor="start" x="3140" y="-85.5" font-family="Helvetica,sans-Serif" font-size="10.00">src/Scripts/Heroes</text>
<text text-anchor="start" x="3140" y="-74.5" font-family="Helvetica,sans-Serif" font-size="10.00">/IncreaseTowerRangeAbility</text>
<text text-anchor="middle" x="3201" y="-63.5" font-family="Helvetica,sans-Serif" font-size="10.00">Behaviour.cpp</text>
</a>
</g>
</g>
<!-- Node5&#45;&gt;Node24 -->
<g id="edge23" class="edge">
<title>Node5&#45;&gt;Node24</title>
<path fill="none" stroke="midnightblue" d="M2335.84,-148.98C2489.94,-148.74 2835.96,-142.72 3123,-98 3125.9,-97.55 3128.85,-97.04 3131.82,-96.48"/>
<polygon fill="midnightblue" stroke="midnightblue" points="2335.52,-145.48 2325.52,-148.98 2335.53,-152.48 2335.52,-145.48"/>
</g>
<!-- Node25 -->
<g id="node25" class="node">
<title>Node25</title>
<g id="a_node25"><a xlink:href="InvisibilityAbilityBehaviour_8cpp.html" target="_top" xlink:title=" ">
<polygon fill="none" stroke="black" points="3288,-62 3288,-92 3438,-92 3438,-62 3288,-62"/>
<text text-anchor="start" x="3296" y="-80" font-family="Helvetica,sans-Serif" font-size="10.00">src/Scripts/Heroes</text>
<text text-anchor="middle" x="3363" y="-69" font-family="Helvetica,sans-Serif" font-size="10.00">/InvisibilityAbilityBehaviour.cpp</text>
</a>
</g>
</g>
<!-- Node5&#45;&gt;Node25 -->
<g id="edge24" class="edge">
<title>Node5&#45;&gt;Node25</title>
<path fill="none" stroke="midnightblue" d="M2336.09,-146.43C2544.92,-140.8 3097.48,-123.86 3279,-98 3289.24,-96.54 3300.06,-94.42 3310.41,-92.09"/>
<polygon fill="midnightblue" stroke="midnightblue" points="2335.71,-142.94 2325.81,-146.71 2335.9,-149.94 2335.71,-142.94"/>
</g>
<!-- Node26 -->
<g id="node26" class="node">
<title>Node26</title>
<g id="a_node26"><a xlink:href="UserAttackBehaviour_8cpp.html" target="_top" xlink:title=" ">
<polygon fill="none" stroke="black" points="3456.5,-62 3456.5,-92 3587.5,-92 3587.5,-62 3456.5,-62"/>
<text text-anchor="start" x="3464.5" y="-80" font-family="Helvetica,sans-Serif" font-size="10.00">src/Scripts/Heroes</text>
<text text-anchor="middle" x="3522" y="-69" font-family="Helvetica,sans-Serif" font-size="10.00">/UserAttackBehaviour.cpp</text>
</a>
</g>
</g>
<!-- Node5&#45;&gt;Node26 -->
<g id="edge25" class="edge">
<title>Node5&#45;&gt;Node26</title>
<path fill="none" stroke="midnightblue" d="M2335.79,-147.37C2567.6,-143.78 3232,-130.82 3447,-98 3456.33,-96.58 3466.16,-94.44 3475.52,-92.08"/>
<polygon fill="midnightblue" stroke="midnightblue" points="2335.69,-143.87 2325.75,-147.53 2335.8,-150.87 2335.69,-143.87"/>
</g>
<!-- Node27 -->
<g id="node27" class="node">
<title>Node27</title>
<g id="a_node27"><a xlink:href="CloseSceneBehaviour_8cpp.html" target="_top" xlink:title=" ">
<polygon fill="none" stroke="black" points="3606,-62 3606,-92 3752,-92 3752,-62 3606,-62"/>
<text text-anchor="start" x="3614" y="-80" font-family="Helvetica,sans-Serif" font-size="10.00">src/Scripts/Menu/CloseScene</text>
<text text-anchor="middle" x="3679" y="-69" font-family="Helvetica,sans-Serif" font-size="10.00">Behaviour.cpp</text>
</a>
</g>
</g>
<!-- Node5&#45;&gt;Node27 -->
<g id="edge26" class="edge">
<title>Node5&#45;&gt;Node27</title>
<path fill="none" stroke="midnightblue" d="M2335.76,-147.6C2586.78,-144.45 3351.3,-132.23 3597,-98 3607.16,-96.58 3617.89,-94.45 3628.13,-92.09"/>
<polygon fill="midnightblue" stroke="midnightblue" points="2335.57,-144.1 2325.62,-147.72 2335.66,-151.1 2335.57,-144.1"/>
</g>
<!-- Node28 -->
<g id="node28" class="node">
<title>Node28</title>
<g id="a_node28"><a xlink:href="PauseSceneBehaviour_8cpp.html" target="_top" xlink:title=" ">
<polygon fill="none" stroke="black" points="3770.5,-62 3770.5,-92 3919.5,-92 3919.5,-62 3770.5,-62"/>
<text text-anchor="start" x="3778.5" y="-80" font-family="Helvetica,sans-Serif" font-size="10.00">src/Scripts/Menu/PauseScene</text>
<text text-anchor="middle" x="3845" y="-69" font-family="Helvetica,sans-Serif" font-size="10.00">Behaviour.cpp</text>
</a>
</g>
</g>
<!-- Node5&#45;&gt;Node28 -->
<g id="edge27" class="edge">
<title>Node5&#45;&gt;Node28</title>
<path fill="none" stroke="midnightblue" d="M2335.72,-147.92C2606.59,-145.65 3481.82,-135.53 3761,-98 3771.55,-96.58 3782.71,-94.41 3793.33,-92.02"/>
<polygon fill="midnightblue" stroke="midnightblue" points="2335.54,-144.42 2325.57,-148.01 2335.6,-151.42 2335.54,-144.42"/>
</g>
<!-- Node29 -->
<g id="node29" class="node">
<title>Node29</title>
<g id="a_node29"><a xlink:href="Engine_8cpp.html" target="_top" xlink:title=" ">
<polygon fill="none" stroke="black" points="3937.5,-62 3937.5,-92 4038.5,-92 4038.5,-62 3937.5,-62"/>
<text text-anchor="start" x="3945.5" y="-80" font-family="Helvetica,sans-Serif" font-size="10.00">libs/spic&#45;engine/src</text>
<text text-anchor="middle" x="3988" y="-69" font-family="Helvetica,sans-Serif" font-size="10.00">/Api/Engine.cpp</text>
</a>
</g>
</g>
<!-- Node5&#45;&gt;Node29 -->
<g id="edge28" class="edge">
<title>Node5&#45;&gt;Node29</title>
<path fill="none" stroke="midnightblue" d="M2335.92,-147.47C2649.07,-143.27 3771.67,-126.38 3929,-98 3936.66,-96.62 3944.68,-94.43 3952.25,-92"/>
<polygon fill="midnightblue" stroke="midnightblue" points="2335.52,-143.97 2325.57,-147.6 2335.62,-150.97 2335.52,-143.97"/>
</g>
<!-- Node30 -->
<g id="node30" class="node">
<title>Node30</title>
<g id="a_node30"><a xlink:href="GameObject_8cpp.html" target="_top" xlink:title=" ">
<polygon fill="none" stroke="black" points="4057,-62 4057,-92 4167,-92 4167,-62 4057,-62"/>
<text text-anchor="start" x="4065" y="-80" font-family="Helvetica,sans-Serif" font-size="10.00">libs/spic&#45;engine/src</text>
<text text-anchor="middle" x="4112" y="-69" font-family="Helvetica,sans-Serif" font-size="10.00">/Api/GameObject.cpp</text>
</a>
</g>
</g>
<!-- Node5&#45;&gt;Node30 -->
<g id="edge29" class="edge">
<title>Node5&#45;&gt;Node30</title>
<path fill="none" stroke="midnightblue" d="M2335.87,-147.53C2662.91,-143.42 3878.13,-126.38 4048,-98 4056.27,-96.62 4064.95,-94.43 4073.15,-92"/>
<polygon fill="midnightblue" stroke="midnightblue" points="2335.49,-144.03 2325.54,-147.66 2335.58,-151.03 2335.49,-144.03"/>
</g>
<!-- Node31 -->
<g id="node31" class="node">
<title>Node31</title>
<g id="a_node31"><a xlink:href="AudioSubsystem_8cpp.html" target="_top" xlink:title=" ">
<polygon fill="none" stroke="black" points="4185,-62 4185,-92 4353,-92 4353,-62 4185,-62"/>
<text text-anchor="start" x="4193" y="-80" font-family="Helvetica,sans-Serif" font-size="10.00">libs/spic&#45;engine/src</text>
<text text-anchor="middle" x="4269" y="-69" font-family="Helvetica,sans-Serif" font-size="10.00">/Subsystems/AudioSubsystem.cpp</text>
</a>
</g>
</g>
<!-- Node5&#45;&gt;Node31 -->
<g id="edge30" class="edge">
<title>Node5&#45;&gt;Node31</title>
<path fill="none" stroke="midnightblue" d="M2335.65,-148.37C2652.35,-147.57 3811.23,-141.63 4176,-98 4187.64,-96.61 4199.98,-94.45 4211.73,-92.06"/>
<polygon fill="midnightblue" stroke="midnightblue" points="2335.63,-144.87 2325.64,-148.4 2335.65,-151.87 2335.63,-144.87"/>
</g>
<!-- Node32 -->
<g id="node32" class="node">
<title>Node32</title>
<g id="a_node32"><a xlink:href="InputSubsystem_8cpp.html" target="_top" xlink:title=" ">
<polygon fill="none" stroke="black" points="4371.5,-62 4371.5,-92 4536.5,-92 4536.5,-62 4371.5,-62"/>
<text text-anchor="start" x="4379.5" y="-80" font-family="Helvetica,sans-Serif" font-size="10.00">libs/spic&#45;engine/src</text>
<text text-anchor="middle" x="4454" y="-69" font-family="Helvetica,sans-Serif" font-size="10.00">/Subsystems/InputSubsystem.cpp</text>
</a>
</g>
</g>
<!-- Node5&#45;&gt;Node32 -->
<g id="edge31" class="edge">
<title>Node5&#45;&gt;Node32</title>
<path fill="none" stroke="midnightblue" d="M2335.79,-148.62C2671.68,-148.78 3958.92,-146.2 4362,-98 4373.52,-96.62 4385.73,-94.47 4397.36,-92.08"/>
<polygon fill="midnightblue" stroke="midnightblue" points="2335.66,-145.12 2325.66,-148.61 2335.66,-152.12 2335.66,-145.12"/>
</g>
<!-- Node33 -->
<g id="node33" class="node">
<title>Node33</title>
<g id="a_node33"><a xlink:href="RenderSubsystem_8cpp.html" target="_top" xlink:title=" ">
<polygon fill="none" stroke="black" points="4555,-62 4555,-92 4729,-92 4729,-62 4555,-62"/>
<text text-anchor="start" x="4563" y="-80" font-family="Helvetica,sans-Serif" font-size="10.00">libs/spic&#45;engine/src</text>
<text text-anchor="middle" x="4642" y="-69" font-family="Helvetica,sans-Serif" font-size="10.00">/Subsystems/RenderSubsystem.cpp</text>
</a>
</g>
</g>
<!-- Node5&#45;&gt;Node33 -->
<g id="edge32" class="edge">
<title>Node5&#45;&gt;Node33</title>
<path fill="none" stroke="midnightblue" d="M2335.71,-148.71C2689.4,-149.3 4104.56,-148.42 4546,-98 4558.09,-96.62 4570.92,-94.45 4583.13,-92.04"/>
<polygon fill="midnightblue" stroke="midnightblue" points="2335.56,-145.21 2325.55,-148.69 2335.55,-152.21 2335.56,-145.21"/>
</g>
</g>
</svg>
