<?xml version="1.0" encoding="UTF-8" standalone="no"?>
<!DOCTYPE svg PUBLIC "-//W3C//DTD SVG 1.1//EN"
 "http://www.w3.org/Graphics/SVG/1.1/DTD/svg11.dtd">
<!-- Generated by graphviz version 2.44.0 ()
 -->
<!-- Title: libs/spic&#45;engine/includes/spic&#45;api&#45;headers/Engine.hpp Pages: 1 -->
<svg width="3150pt" height="162pt"
 viewBox="0.00 0.00 3150.00 162.00" xmlns="http://www.w3.org/2000/svg" xmlns:xlink="http://www.w3.org/1999/xlink">
<g id="graph0" class="graph" transform="scale(1 1) rotate(0) translate(4 158)">
<title>libs/spic&#45;engine/includes/spic&#45;api&#45;headers/Engine.hpp</title>
<!-- Node1 -->
<g id="node1" class="node">
<title>Node1</title>
<g id="a_node1"><a xlink:title=" ">
<polygon fill="#bfbfbf" stroke="black" points="1504.5,-123.5 1504.5,-153.5 1645.5,-153.5 1645.5,-123.5 1504.5,-123.5"/>
<text text-anchor="start" x="1512.5" y="-141.5" font-family="Helvetica,sans-Serif" font-size="10.00">libs/spic&#45;engine/includes</text>
<text text-anchor="middle" x="1575" y="-130.5" font-family="Helvetica,sans-Serif" font-size="10.00">/spic&#45;api&#45;headers/Engine.hpp</text>
</a>
</g>
</g>
<!-- Node2 -->
<g id="node2" class="node">
<title>Node2</title>
<g id="a_node2"><a xlink:href="BulletFactory_8cpp.html" target="_top" xlink:title=" ">
<polygon fill="none" stroke="black" points="0,-62 0,-81 152,-81 152,-62 0,-62"/>
<text text-anchor="middle" x="76" y="-69" font-family="Helvetica,sans-Serif" font-size="10.00">src/Factories/BulletFactory.cpp</text>
</a>
</g>
</g>
<!-- Node1&#45;&gt;Node2 -->
<g id="edge1" class="edge">
<title>Node1&#45;&gt;Node2</title>
<path fill="none" stroke="midnightblue" d="M1494.03,-136.03C1234.07,-131.08 422.33,-113.84 161,-87 147.45,-85.61 132.79,-83.37 119.53,-81.07"/>
<polygon fill="midnightblue" stroke="midnightblue" points="1494.09,-139.53 1504.15,-136.22 1494.22,-132.53 1494.09,-139.53"/>
</g>
<!-- Node3 -->
<g id="node3" class="node">
<title>Node3</title>
<g id="a_node3"><a xlink:href="ButtonPrefabFactory_8cpp.html" target="_top" xlink:title=" ">
<polygon fill="none" stroke="black" points="170,-56.5 170,-86.5 304,-86.5 304,-56.5 170,-56.5"/>
<text text-anchor="start" x="178" y="-74.5" font-family="Helvetica,sans-Serif" font-size="10.00">src/Factories/ButtonPrefab</text>
<text text-anchor="middle" x="237" y="-63.5" font-family="Helvetica,sans-Serif" font-size="10.00">Factory.cpp</text>
</a>
</g>
</g>
<!-- Node1&#45;&gt;Node3 -->
<g id="edge2" class="edge">
<title>Node1&#45;&gt;Node3</title>
<path fill="none" stroke="midnightblue" d="M1494.19,-135.84C1253.4,-130.63 543.19,-113.42 313,-87 310.06,-86.66 307.07,-86.28 304.05,-85.85"/>
<polygon fill="midnightblue" stroke="midnightblue" points="1494.2,-139.34 1504.28,-136.05 1494.35,-132.34 1494.2,-139.34"/>
</g>
<!-- Node4 -->
<g id="node4" class="node">
<title>Node4</title>
<g id="a_node4"><a xlink:href="GameOverScene_8cpp.html" target="_top" xlink:title=" ">
<polygon fill="none" stroke="black" points="322,-62 322,-81 484,-81 484,-62 322,-62"/>
<text text-anchor="middle" x="403" y="-69" font-family="Helvetica,sans-Serif" font-size="10.00">src/Scenes/GameOverScene.cpp</text>
</a>
</g>
</g>
<!-- Node1&#45;&gt;Node4 -->
<g id="edge3" class="edge">
<title>Node1&#45;&gt;Node4</title>
<path fill="none" stroke="midnightblue" d="M1494.02,-136.85C1313.73,-134.7 865.71,-125.6 493,-87 478.83,-85.53 463.5,-83.31 449.58,-81.03"/>
<polygon fill="midnightblue" stroke="midnightblue" points="1494.18,-140.35 1504.22,-136.96 1494.26,-133.35 1494.18,-140.35"/>
</g>
<!-- Node5 -->
<g id="node5" class="node">
<title>Node5</title>
<g id="a_node5"><a xlink:href="LevelSelectionScene_8cpp.html" target="_top" xlink:title=" ">
<polygon fill="none" stroke="black" points="502,-56.5 502,-86.5 636,-86.5 636,-56.5 502,-56.5"/>
<text text-anchor="start" x="510" y="-74.5" font-family="Helvetica,sans-Serif" font-size="10.00">src/Scenes/LevelSelection</text>
<text text-anchor="middle" x="569" y="-63.5" font-family="Helvetica,sans-Serif" font-size="10.00">Scene.cpp</text>
</a>
</g>
</g>
<!-- Node1&#45;&gt;Node5 -->
<g id="edge4" class="edge">
<title>Node1&#45;&gt;Node5</title>
<path fill="none" stroke="midnightblue" d="M1494.08,-136.75C1332.23,-134.46 957.35,-125.1 645,-87 642.07,-86.64 639.08,-86.24 636.06,-85.8"/>
<polygon fill="midnightblue" stroke="midnightblue" points="1494.38,-140.26 1504.43,-136.9 1494.47,-133.26 1494.38,-140.26"/>
</g>
<!-- Node6 -->
<g id="node6" class="node">
<title>Node6</title>
<g id="a_node6"><a xlink:href="LoadingScene_8cpp.html" target="_top" xlink:title=" ">
<polygon fill="none" stroke="black" points="654.5,-62 654.5,-81 803.5,-81 803.5,-62 654.5,-62"/>
<text text-anchor="middle" x="729" y="-69" font-family="Helvetica,sans-Serif" font-size="10.00">src/Scenes/LoadingScene.cpp</text>
</a>
</g>
</g>
<!-- Node1&#45;&gt;Node6 -->
<g id="edge5" class="edge">
<title>Node1&#45;&gt;Node6</title>
<path fill="none" stroke="midnightblue" d="M1494.21,-134.93C1354.81,-129.87 1060.24,-116.45 813,-87 800.07,-85.46 786.1,-83.26 773.34,-81.05"/>
<polygon fill="midnightblue" stroke="midnightblue" points="1494.27,-138.43 1504.39,-135.29 1494.52,-131.44 1494.27,-138.43"/>
</g>
<!-- Node7 -->
<g id="node7" class="node">
<title>Node7</title>
<g id="a_node7"><a xlink:href="MainScene_8cpp.html" target="_top" xlink:title=" ">
<polygon fill="none" stroke="black" points="822,-62 822,-81 958,-81 958,-62 822,-62"/>
<text text-anchor="middle" x="890" y="-69" font-family="Helvetica,sans-Serif" font-size="10.00">src/Scenes/MainScene.cpp</text>
</a>
</g>
</g>
<!-- Node1&#45;&gt;Node7 -->
<g id="edge6" class="edge">
<title>Node1&#45;&gt;Node7</title>
<path fill="none" stroke="midnightblue" d="M1493.78,-133.43C1376.91,-126.96 1154.73,-112.4 967,-87 955.27,-85.41 942.62,-83.23 931.03,-81.04"/>
<polygon fill="midnightblue" stroke="midnightblue" points="1493.89,-136.94 1504.07,-133.99 1494.27,-129.95 1493.89,-136.94"/>
</g>
<!-- Node8 -->
<g id="node8" class="node">
<title>Node8</title>
<g id="a_node8"><a xlink:href="PauseScene_8cpp.html" target="_top" xlink:title=" ">
<polygon fill="none" stroke="black" points="976.5,-62 976.5,-81 1119.5,-81 1119.5,-62 976.5,-62"/>
<text text-anchor="middle" x="1048" y="-69" font-family="Helvetica,sans-Serif" font-size="10.00">src/Scenes/PauseScene.cpp</text>
</a>
</g>
</g>
<!-- Node1&#45;&gt;Node8 -->
<g id="edge7" class="edge">
<title>Node1&#45;&gt;Node8</title>
<path fill="none" stroke="midnightblue" d="M1494.06,-129.92C1404.54,-121.16 1256.15,-105.56 1129,-87 1117.27,-85.29 1104.63,-83.16 1092.9,-81.07"/>
<polygon fill="midnightblue" stroke="midnightblue" points="1493.85,-133.41 1504.14,-130.9 1494.53,-126.45 1493.85,-133.41"/>
</g>
<!-- Node9 -->
<g id="node9" class="node">
<title>Node9</title>
<g id="a_node9"><a xlink:href="SaveSelectionScene_8cpp.html" target="_top" xlink:title=" ">
<polygon fill="none" stroke="black" points="1138,-56.5 1138,-86.5 1270,-86.5 1270,-56.5 1138,-56.5"/>
<text text-anchor="start" x="1146" y="-74.5" font-family="Helvetica,sans-Serif" font-size="10.00">src/Scenes/SaveSelection</text>
<text text-anchor="middle" x="1204" y="-63.5" font-family="Helvetica,sans-Serif" font-size="10.00">Scene.cpp</text>
</a>
</g>
</g>
<!-- Node1&#45;&gt;Node9 -->
<g id="edge8" class="edge">
<title>Node1&#45;&gt;Node9</title>
<path fill="none" stroke="midnightblue" d="M1494.26,-124.22C1434.7,-114.3 1351.73,-100.23 1279,-87 1276.13,-86.48 1273.2,-85.94 1270.24,-85.39"/>
<polygon fill="midnightblue" stroke="midnightblue" points="1493.91,-127.71 1504.35,-125.9 1495.06,-120.8 1493.91,-127.71"/>
</g>
<!-- Node10 -->
<g id="node10" class="node">
<title>Node10</title>
<g id="a_node10"><a xlink:href="VictoryScene_8cpp.html" target="_top" xlink:title=" ">
<polygon fill="none" stroke="black" points="1288.5,-62 1288.5,-81 1433.5,-81 1433.5,-62 1288.5,-62"/>
<text text-anchor="middle" x="1361" y="-69" font-family="Helvetica,sans-Serif" font-size="10.00">src/Scenes/VictoryScene.cpp</text>
</a>
</g>
</g>
<!-- Node1&#45;&gt;Node10 -->
<g id="edge9" class="edge">
<title>Node1&#45;&gt;Node10</title>
<path fill="none" stroke="midnightblue" d="M1519.06,-120.51C1477.3,-107.83 1421.98,-91.02 1389.08,-81.03"/>
<polygon fill="midnightblue" stroke="midnightblue" points="1518.24,-123.92 1528.83,-123.48 1520.28,-117.22 1518.24,-123.92"/>
</g>
<!-- Node11 -->
<g id="node11" class="node">
<title>Node11</title>
<g id="a_node11"><a xlink:href="AttackBehaviour_8cpp.html" target="_top" xlink:title=" ">
<polygon fill="none" stroke="black" points="1452,-56.5 1452,-86.5 1562,-86.5 1562,-56.5 1452,-56.5"/>
<text text-anchor="start" x="1460" y="-74.5" font-family="Helvetica,sans-Serif" font-size="10.00">src/Scripts/Common</text>
<text text-anchor="middle" x="1507" y="-63.5" font-family="Helvetica,sans-Serif" font-size="10.00">/AttackBehaviour.cpp</text>
</a>
</g>
</g>
<!-- Node1&#45;&gt;Node11 -->
<g id="edge10" class="edge">
<title>Node1&#45;&gt;Node11</title>
<path fill="none" stroke="midnightblue" d="M1552.83,-116.31C1542.63,-106.56 1530.81,-95.26 1521.73,-86.58"/>
<polygon fill="midnightblue" stroke="midnightblue" points="1550.6,-119.02 1560.25,-123.4 1555.43,-113.96 1550.6,-119.02"/>
</g>
<!-- Node12 -->
<g id="node12" class="node">
<title>Node12</title>
<g id="a_node12"><a xlink:href="GameLostBehaviour_8cpp.html" target="_top" xlink:title=" ">
<polygon fill="none" stroke="black" points="1580.5,-56.5 1580.5,-86.5 1707.5,-86.5 1707.5,-56.5 1580.5,-56.5"/>
<text text-anchor="start" x="1588.5" y="-74.5" font-family="Helvetica,sans-Serif" font-size="10.00">src/Scripts/Common</text>
<text text-anchor="middle" x="1644" y="-63.5" font-family="Helvetica,sans-Serif" font-size="10.00">/GameLostBehaviour.cpp</text>
</a>
</g>
</g>
<!-- Node1&#45;&gt;Node12 -->
<g id="edge11" class="edge">
<title>Node1&#45;&gt;Node12</title>
<path fill="none" stroke="midnightblue" d="M1597.49,-116.31C1607.84,-106.56 1619.84,-95.26 1629.06,-86.58"/>
<polygon fill="midnightblue" stroke="midnightblue" points="1594.85,-113.99 1589.97,-123.4 1599.65,-119.09 1594.85,-113.99"/>
</g>
<!-- Node13 -->
<g id="node13" class="node">
<title>Node13</title>
<g id="a_node13"><a xlink:href="GameWonBehaviour_8cpp.html" target="_top" xlink:title=" ">
<polygon fill="none" stroke="black" points="1725.5,-56.5 1725.5,-86.5 1852.5,-86.5 1852.5,-56.5 1725.5,-56.5"/>
<text text-anchor="start" x="1733.5" y="-74.5" font-family="Helvetica,sans-Serif" font-size="10.00">src/Scripts/Common</text>
<text text-anchor="middle" x="1789" y="-63.5" font-family="Helvetica,sans-Serif" font-size="10.00">/GameWonBehaviour.cpp</text>
</a>
</g>
</g>
<!-- Node1&#45;&gt;Node13 -->
<g id="edge12" class="edge">
<title>Node1&#45;&gt;Node13</title>
<path fill="none" stroke="midnightblue" d="M1631.15,-120.44C1665.84,-109.91 1709.82,-96.55 1742.54,-86.61"/>
<polygon fill="midnightblue" stroke="midnightblue" points="1629.72,-117.22 1621.17,-123.48 1631.76,-123.92 1629.72,-117.22"/>
</g>
<!-- Node14 -->
<g id="node14" class="node">
<title>Node14</title>
<g id="a_node14"><a xlink:href="UserAttackBehaviour_8cpp.html" target="_top" xlink:title=" ">
<polygon fill="none" stroke="black" points="1870.5,-56.5 1870.5,-86.5 2001.5,-86.5 2001.5,-56.5 1870.5,-56.5"/>
<text text-anchor="start" x="1878.5" y="-74.5" font-family="Helvetica,sans-Serif" font-size="10.00">src/Scripts/Heroes</text>
<text text-anchor="middle" x="1936" y="-63.5" font-family="Helvetica,sans-Serif" font-size="10.00">/UserAttackBehaviour.cpp</text>
</a>
</g>
</g>
<!-- Node1&#45;&gt;Node14 -->
<g id="edge13" class="edge">
<title>Node1&#45;&gt;Node14</title>
<path fill="none" stroke="midnightblue" d="M1655.67,-123.62C1712.99,-113.66 1791.78,-99.8 1861,-87 1864,-86.45 1867.07,-85.87 1870.16,-85.29"/>
<polygon fill="midnightblue" stroke="midnightblue" points="1654.83,-120.21 1645.58,-125.37 1656.03,-127.1 1654.83,-120.21"/>
</g>
<!-- Node15 -->
<g id="node15" class="node">
<title>Node15</title>
<g id="a_node15"><a xlink:href="CloseSceneBehaviour_8cpp.html" target="_top" xlink:title=" ">
<polygon fill="none" stroke="black" points="2020,-56.5 2020,-86.5 2166,-86.5 2166,-56.5 2020,-56.5"/>
<text text-anchor="start" x="2028" y="-74.5" font-family="Helvetica,sans-Serif" font-size="10.00">src/Scripts/Menu/CloseScene</text>
<text text-anchor="middle" x="2093" y="-63.5" font-family="Helvetica,sans-Serif" font-size="10.00">Behaviour.cpp</text>
</a>
</g>
</g>
<!-- Node1&#45;&gt;Node15 -->
<g id="edge14" class="edge">
<title>Node1&#45;&gt;Node15</title>
<path fill="none" stroke="midnightblue" d="M1655.73,-129.53C1743.2,-120.56 1886.79,-104.9 2010,-87 2013.18,-86.54 2016.44,-86.05 2019.72,-85.54"/>
<polygon fill="midnightblue" stroke="midnightblue" points="1655.2,-126.06 1645.61,-130.56 1655.91,-133.03 1655.2,-126.06"/>
</g>
<!-- Node16 -->
<g id="node16" class="node">
<title>Node16</title>
<g id="a_node16"><a xlink:href="PauseSceneBehaviour_8cpp.html" target="_top" xlink:title=" ">
<polygon fill="none" stroke="black" points="2184.5,-56.5 2184.5,-86.5 2333.5,-86.5 2333.5,-56.5 2184.5,-56.5"/>
<text text-anchor="start" x="2192.5" y="-74.5" font-family="Helvetica,sans-Serif" font-size="10.00">src/Scripts/Menu/PauseScene</text>
<text text-anchor="middle" x="2259" y="-63.5" font-family="Helvetica,sans-Serif" font-size="10.00">Behaviour.cpp</text>
</a>
</g>
</g>
<!-- Node1&#45;&gt;Node16 -->
<g id="edge15" class="edge">
<title>Node1&#45;&gt;Node16</title>
<path fill="none" stroke="midnightblue" d="M1656.04,-132.92C1771.56,-125.89 1990.06,-110.7 2175,-87 2178.08,-86.6 2181.22,-86.18 2184.4,-85.72"/>
<polygon fill="midnightblue" stroke="midnightblue" points="1655.64,-129.44 1645.87,-133.54 1656.06,-136.43 1655.64,-129.44"/>
</g>
<!-- Node17 -->
<g id="node17" class="node">
<title>Node17</title>
<g id="a_node17"><a xlink:href="Engine_8cpp.html" target="_top" xlink:title=" ">
<polygon fill="none" stroke="black" points="2351.5,-56.5 2351.5,-86.5 2452.5,-86.5 2452.5,-56.5 2351.5,-56.5"/>
<text text-anchor="start" x="2359.5" y="-74.5" font-family="Helvetica,sans-Serif" font-size="10.00">libs/spic&#45;engine/src</text>
<text text-anchor="middle" x="2402" y="-63.5" font-family="Helvetica,sans-Serif" font-size="10.00">/Api/Engine.cpp</text>
</a>
</g>
</g>
<!-- Node1&#45;&gt;Node17 -->
<g id="edge16" class="edge">
<title>Node1&#45;&gt;Node17</title>
<path fill="none" stroke="midnightblue" d="M1656.01,-136.72C1796.46,-134.35 2093.93,-124.86 2342,-87 2345.07,-86.53 2348.22,-85.98 2351.38,-85.38"/>
<polygon fill="midnightblue" stroke="midnightblue" points="1655.7,-133.22 1645.76,-136.88 1655.81,-140.22 1655.7,-133.22"/>
</g>
<!-- Node18 -->
<g id="node18" class="node">
<title>Node18</title>
<g id="a_node18"><a xlink:href="GameObject_8cpp.html" target="_top" xlink:title=" ">
<polygon fill="none" stroke="black" points="2471,-56.5 2471,-86.5 2581,-86.5 2581,-56.5 2471,-56.5"/>
<text text-anchor="start" x="2479" y="-74.5" font-family="Helvetica,sans-Serif" font-size="10.00">libs/spic&#45;engine/src</text>
<text text-anchor="middle" x="2526" y="-63.5" font-family="Helvetica,sans-Serif" font-size="10.00">/Api/GameObject.cpp</text>
</a>
</g>
</g>
<!-- Node1&#45;&gt;Node18 -->
<g id="edge17" class="edge">
<title>Node1&#45;&gt;Node18</title>
<path fill="none" stroke="midnightblue" d="M1655.73,-137.28C1811.97,-135.88 2166.28,-127.99 2461,-87 2464.21,-86.55 2467.49,-86.03 2470.79,-85.46"/>
<polygon fill="midnightblue" stroke="midnightblue" points="1655.7,-133.78 1645.73,-137.36 1655.75,-140.78 1655.7,-133.78"/>
</g>
<!-- Node19 -->
<g id="node19" class="node">
<title>Node19</title>
<g id="a_node19"><a xlink:href="InputSubsystem_8cpp.html" target="_top" xlink:title=" ">
<polygon fill="none" stroke="black" points="2599.5,-56.5 2599.5,-86.5 2764.5,-86.5 2764.5,-56.5 2599.5,-56.5"/>
<text text-anchor="start" x="2607.5" y="-74.5" font-family="Helvetica,sans-Serif" font-size="10.00">libs/spic&#45;engine/src</text>
<text text-anchor="middle" x="2682" y="-63.5" font-family="Helvetica,sans-Serif" font-size="10.00">/Subsystems/InputSubsystem.cpp</text>
</a>
</g>
</g>
<!-- Node1&#45;&gt;Node19 -->
<g id="edge18" class="edge">
<title>Node1&#45;&gt;Node19</title>
<path fill="none" stroke="midnightblue" d="M1655.89,-136.4C1828.13,-133.42 2243.67,-122.81 2590,-87 2593.06,-86.68 2596.16,-86.34 2599.3,-85.96"/>
<polygon fill="midnightblue" stroke="midnightblue" points="1655.59,-132.91 1645.65,-136.57 1655.7,-139.9 1655.59,-132.91"/>
</g>
<!-- Node20 -->
<g id="node20" class="node">
<title>Node20</title>
<g id="a_node20"><a xlink:href="RenderSubsystem_8cpp.html" target="_top" xlink:title=" ">
<polygon fill="none" stroke="black" points="2783,-56.5 2783,-86.5 2957,-86.5 2957,-56.5 2783,-56.5"/>
<text text-anchor="start" x="2791" y="-74.5" font-family="Helvetica,sans-Serif" font-size="10.00">libs/spic&#45;engine/src</text>
<text text-anchor="middle" x="2870" y="-63.5" font-family="Helvetica,sans-Serif" font-size="10.00">/Subsystems/RenderSubsystem.cpp</text>
</a>
</g>
</g>
<!-- Node1&#45;&gt;Node20 -->
<g id="edge19" class="edge">
<title>Node1&#45;&gt;Node20</title>
<path fill="none" stroke="midnightblue" d="M1655.81,-137.05C1849.23,-135.34 2353.87,-127.05 2773,-87 2776.22,-86.69 2779.5,-86.35 2782.8,-85.98"/>
<polygon fill="midnightblue" stroke="midnightblue" points="1655.7,-133.55 1645.73,-137.14 1655.76,-140.55 1655.7,-133.55"/>
</g>
<!-- Node21 -->
<g id="node21" class="node">
<title>Node21</title>
<g id="a_node21"><a xlink:href="Api_8hpp.html" target="_top" xlink:title=" ">
<polygon fill="none" stroke="black" points="2975,-56.5 2975,-86.5 3101,-86.5 3101,-56.5 2975,-56.5"/>
<text text-anchor="start" x="2983" y="-74.5" font-family="Helvetica,sans-Serif" font-size="10.00">libs/spic&#45;engine/includes</text>
<text text-anchor="middle" x="3038" y="-63.5" font-family="Helvetica,sans-Serif" font-size="10.00">/spic&#45;api&#45;headers/Api.hpp</text>
</a>
</g>
</g>
<!-- Node1&#45;&gt;Node21 -->
<g id="edge20" class="edge">
<title>Node1&#45;&gt;Node21</title>
<path fill="none" stroke="midnightblue" d="M1655.57,-136.3C1912.37,-132.19 2709.64,-117.26 2966,-87 2968.91,-86.66 2971.88,-86.26 2974.88,-85.82"/>
<polygon fill="midnightblue" stroke="midnightblue" points="1655.52,-132.8 1645.57,-136.45 1655.63,-139.8 1655.52,-132.8"/>
</g>
<!-- Node22 -->
<g id="node22" class="node">
<title>Node22</title>
<g id="a_node22"><a xlink:href="LevelController_8cpp.html" target="_top" xlink:title=" ">
<polygon fill="none" stroke="black" points="2886,-0.5 2886,-19.5 3052,-19.5 3052,-0.5 2886,-0.5"/>
<text text-anchor="middle" x="2969" y="-7.5" font-family="Helvetica,sans-Serif" font-size="10.00">src/Controllers/LevelController.cpp</text>
</a>
</g>
</g>
<!-- Node21&#45;&gt;Node22 -->
<g id="edge21" class="edge">
<title>Node21&#45;&gt;Node22</title>
<path fill="none" stroke="midnightblue" d="M3013.76,-49.6C3001.84,-39.32 2988.11,-27.48 2979.04,-19.66"/>
<polygon fill="midnightblue" stroke="midnightblue" points="3011.79,-52.52 3021.65,-56.4 3016.36,-47.22 3011.79,-52.52"/>
</g>
<!-- Node23 -->
<g id="node23" class="node">
<title>Node23</title>
<g id="a_node23"><a xlink:href="main_8cpp.html" target="_top" xlink:title=" ">
<polygon fill="none" stroke="black" points="3070,-0.5 3070,-19.5 3142,-19.5 3142,-0.5 3070,-0.5"/>
<text text-anchor="middle" x="3106" y="-7.5" font-family="Helvetica,sans-Serif" font-size="10.00">src/main.cpp</text>
</a>
</g>
</g>
<!-- Node21&#45;&gt;Node23 -->
<g id="edge22" class="edge">
<title>Node21&#45;&gt;Node23</title>
<path fill="none" stroke="midnightblue" d="M3061.89,-49.6C3073.64,-39.32 3087.16,-27.48 3096.11,-19.66"/>
<polygon fill="midnightblue" stroke="midnightblue" points="3059.34,-47.18 3054.12,-56.4 3063.95,-52.45 3059.34,-47.18"/>
</g>
</g>
</svg>
