<?xml version="1.0" encoding="UTF-8" standalone="no"?>
<!DOCTYPE svg PUBLIC "-//W3C//DTD SVG 1.1//EN"
 "http://www.w3.org/Graphics/SVG/1.1/DTD/svg11.dtd">
<!-- Generated by graphviz version 2.44.0 ()
 -->
<!-- Title: libs/spic&#45;engine/src/Api/Engine.cpp Pages: 1 -->
<svg width="1658pt" height="487pt"
 viewBox="0.00 0.00 1657.50 487.00" xmlns="http://www.w3.org/2000/svg" xmlns:xlink="http://www.w3.org/1999/xlink">
<g id="graph0" class="graph" transform="scale(1 1) rotate(0) translate(4 483)">
<title>libs/spic&#45;engine/src/Api/Engine.cpp</title>
<!-- Node1 -->
<g id="node1" class="node">
<title>Node1</title>
<g id="a_node1"><a xlink:title=" ">
<polygon fill="#bfbfbf" stroke="black" points="1422.5,-448.5 1422.5,-478.5 1523.5,-478.5 1523.5,-448.5 1422.5,-448.5"/>
<text text-anchor="start" x="1430.5" y="-466.5" font-family="Helvetica,sans-Serif" font-size="10.00">libs/spic&#45;engine/src</text>
<text text-anchor="middle" x="1473" y="-455.5" font-family="Helvetica,sans-Serif" font-size="10.00">/Api/Engine.cpp</text>
</a>
</g>
</g>
<!-- Node2 -->
<g id="node2" class="node">
<title>Node2</title>
<g id="a_node2"><a xlink:href="Engine_8hpp.html" target="_top" xlink:title=" ">
<polygon fill="none" stroke="black" points="1126,-224.5 1126,-243.5 1190,-243.5 1190,-224.5 1126,-224.5"/>
<text text-anchor="middle" x="1158" y="-231.5" font-family="Helvetica,sans-Serif" font-size="10.00">Engine.hpp</text>
</a>
</g>
</g>
<!-- Node1&#45;&gt;Node2 -->
<g id="edge1" class="edge">
<title>Node1&#45;&gt;Node2</title>
<path fill="none" stroke="midnightblue" d="M1472.56,-448.22C1470.99,-422.28 1463.97,-367.25 1433,-336 1369,-271.42 1260.28,-247.78 1200.51,-239.4"/>
<polygon fill="midnightblue" stroke="midnightblue" points="1200.67,-235.89 1190.29,-238.05 1199.75,-242.83 1200.67,-235.89"/>
</g>
<!-- Node9 -->
<g id="node9" class="node">
<title>Node9</title>
<g id="a_node9"><a xlink:href="Subsystems_8hpp.html" target="_top" xlink:title=" ">
<polygon fill="none" stroke="black" points="769.5,-392.5 769.5,-411.5 922.5,-411.5 922.5,-392.5 769.5,-392.5"/>
<text text-anchor="middle" x="846" y="-399.5" font-family="Helvetica,sans-Serif" font-size="10.00">../Subsystems/Subsystems.hpp</text>
</a>
</g>
</g>
<!-- Node1&#45;&gt;Node9 -->
<g id="edge8" class="edge">
<title>Node1&#45;&gt;Node9</title>
<path fill="none" stroke="midnightblue" d="M1422.49,-457.71C1315.68,-447.57 1065.87,-423.86 932.88,-411.24"/>
<polygon fill="midnightblue" stroke="midnightblue" points="933.02,-407.74 922.73,-410.28 932.36,-414.71 933.02,-407.74"/>
</g>
<!-- Node40 -->
<g id="node40" class="node">
<title>Node40</title>
<g id="a_node40"><a xlink:href="TimeManager_8hpp.html" target="_top" xlink:title=" ">
<polygon fill="none" stroke="black" points="1297.5,-392.5 1297.5,-411.5 1444.5,-411.5 1444.5,-392.5 1297.5,-392.5"/>
<text text-anchor="middle" x="1371" y="-399.5" font-family="Helvetica,sans-Serif" font-size="10.00">../Managers/TimeManager.hpp</text>
</a>
</g>
</g>
<!-- Node1&#45;&gt;Node40 -->
<g id="edge78" class="edge">
<title>Node1&#45;&gt;Node40</title>
<path fill="none" stroke="midnightblue" d="M1448.83,-448.4C1432.48,-438.86 1410.99,-426.32 1394.73,-416.84"/>
<polygon fill="midnightblue" stroke="midnightblue" points="1396.24,-413.67 1385.84,-411.66 1392.72,-419.72 1396.24,-413.67"/>
</g>
<!-- Node41 -->
<g id="node41" class="node">
<title>Node41</title>
<g id="a_node41"><a xlink:title=" ">
<polygon fill="none" stroke="#bfbfbf" points="1501.5,-392.5 1501.5,-411.5 1572.5,-411.5 1572.5,-392.5 1501.5,-392.5"/>
<text text-anchor="middle" x="1537" y="-399.5" font-family="Helvetica,sans-Serif" font-size="10.00">SDL_timer.h</text>
</a>
</g>
</g>
<!-- Node1&#45;&gt;Node41 -->
<g id="edge80" class="edge">
<title>Node1&#45;&gt;Node41</title>
<path fill="none" stroke="midnightblue" d="M1488.17,-448.4C1497.75,-439.49 1510.16,-427.95 1520.07,-418.74"/>
<polygon fill="midnightblue" stroke="midnightblue" points="1522.75,-421.03 1527.69,-411.66 1517.98,-415.9 1522.75,-421.03"/>
</g>
<!-- Node42 -->
<g id="node42" class="node">
<title>Node42</title>
<g id="a_node42"><a xlink:title=" ">
<polygon fill="none" stroke="#bfbfbf" points="1590.5,-392.5 1590.5,-411.5 1649.5,-411.5 1649.5,-392.5 1590.5,-392.5"/>
<text text-anchor="middle" x="1620" y="-399.5" font-family="Helvetica,sans-Serif" font-size="10.00">stdexcept</text>
</a>
</g>
</g>
<!-- Node1&#45;&gt;Node42 -->
<g id="edge81" class="edge">
<title>Node1&#45;&gt;Node42</title>
<path fill="none" stroke="midnightblue" d="M1507.84,-448.4C1532.5,-438.42 1565.29,-425.15 1589.03,-415.53"/>
<polygon fill="midnightblue" stroke="midnightblue" points="1590.65,-418.65 1598.61,-411.66 1588.03,-412.17 1590.65,-418.65"/>
</g>
<!-- Node3 -->
<g id="node3" class="node">
<title>Node3</title>
<g id="a_node3"><a xlink:href="EngineConfig_8hpp.html" target="_top" xlink:title=" ">
<polygon fill="none" stroke="black" points="1097.5,-168.5 1097.5,-187.5 1188.5,-187.5 1188.5,-168.5 1097.5,-168.5"/>
<text text-anchor="middle" x="1143" y="-175.5" font-family="Helvetica,sans-Serif" font-size="10.00">EngineConfig.hpp</text>
</a>
</g>
</g>
<!-- Node2&#45;&gt;Node3 -->
<g id="edge2" class="edge">
<title>Node2&#45;&gt;Node3</title>
<path fill="none" stroke="midnightblue" d="M1155.52,-224.08C1153.51,-216.85 1150.61,-206.41 1148.11,-197.4"/>
<polygon fill="midnightblue" stroke="midnightblue" points="1151.48,-196.45 1145.43,-187.75 1144.74,-198.32 1151.48,-196.45"/>
</g>
<!-- Node6 -->
<g id="node6" class="node">
<title>Node6</title>
<g id="a_node6"><a xlink:href="Scene_8hpp.html" target="_top" xlink:title=" ">
<polygon fill="none" stroke="black" points="1015,-168.5 1015,-187.5 1077,-187.5 1077,-168.5 1015,-168.5"/>
<text text-anchor="middle" x="1046" y="-175.5" font-family="Helvetica,sans-Serif" font-size="10.00">Scene.hpp</text>
</a>
</g>
</g>
<!-- Node2&#45;&gt;Node6 -->
<g id="edge5" class="edge">
<title>Node2&#45;&gt;Node6</title>
<path fill="none" stroke="midnightblue" d="M1140.01,-224.32C1121.96,-215.62 1093.95,-202.12 1073.2,-192.11"/>
<polygon fill="midnightblue" stroke="midnightblue" points="1074.48,-188.84 1063.95,-187.65 1071.44,-195.15 1074.48,-188.84"/>
</g>
<!-- Node4 -->
<g id="node4" class="node">
<title>Node4</title>
<g id="a_node4"><a xlink:href="WindowConfig_8hpp.html" target="_top" xlink:title=" ">
<polygon fill="none" stroke="black" points="928,-112.5 928,-131.5 1024,-131.5 1024,-112.5 928,-112.5"/>
<text text-anchor="middle" x="976" y="-119.5" font-family="Helvetica,sans-Serif" font-size="10.00">WindowConfig.hpp</text>
</a>
</g>
</g>
<!-- Node3&#45;&gt;Node4 -->
<g id="edge3" class="edge">
<title>Node3&#45;&gt;Node4</title>
<path fill="none" stroke="midnightblue" d="M1116.54,-168.44C1088.32,-159.32 1043.46,-144.81 1012.03,-134.65"/>
<polygon fill="midnightblue" stroke="midnightblue" points="1012.93,-131.26 1002.34,-131.52 1010.78,-137.92 1012.93,-131.26"/>
</g>
<!-- Node5 -->
<g id="node5" class="node">
<title>Node5</title>
<g id="a_node5"><a xlink:title=" ">
<polygon fill="none" stroke="#bfbfbf" points="784.5,-56.5 784.5,-75.5 825.5,-75.5 825.5,-56.5 784.5,-56.5"/>
<text text-anchor="middle" x="805" y="-63.5" font-family="Helvetica,sans-Serif" font-size="10.00">string</text>
</a>
</g>
</g>
<!-- Node4&#45;&gt;Node5 -->
<g id="edge4" class="edge">
<title>Node4&#45;&gt;Node5</title>
<path fill="none" stroke="midnightblue" d="M948.9,-112.44C917.97,-102.68 867.51,-86.74 835.3,-76.57"/>
<polygon fill="midnightblue" stroke="midnightblue" points="836.12,-73.16 825.53,-73.48 834.01,-79.83 836.12,-73.16"/>
</g>
<!-- Node7 -->
<g id="node7" class="node">
<title>Node7</title>
<g id="a_node7"><a xlink:title=" ">
<polygon fill="none" stroke="#bfbfbf" points="320,-56.5 320,-75.5 364,-75.5 364,-56.5 320,-56.5"/>
<text text-anchor="middle" x="342" y="-63.5" font-family="Helvetica,sans-Serif" font-size="10.00">vector</text>
</a>
</g>
</g>
<!-- Node6&#45;&gt;Node7 -->
<g id="edge6" class="edge">
<title>Node6&#45;&gt;Node7</title>
<path fill="none" stroke="midnightblue" d="M1018.34,-168.38C992.34,-160 952.51,-146.45 919,-132 901.11,-124.29 898.76,-117.24 880,-112 665.19,-52.02 596.65,-114.87 374.17,-76.04"/>
<polygon fill="midnightblue" stroke="midnightblue" points="374.61,-72.56 364.15,-74.24 373.37,-79.45 374.61,-72.56"/>
</g>
<!-- Node8 -->
<g id="node8" class="node">
<title>Node8</title>
<g id="a_node8"><a xlink:title=" ">
<polygon fill="none" stroke="#bfbfbf" points="631.5,-0.5 631.5,-19.5 682.5,-19.5 682.5,-0.5 631.5,-0.5"/>
<text text-anchor="middle" x="657" y="-7.5" font-family="Helvetica,sans-Serif" font-size="10.00">memory</text>
</a>
</g>
</g>
<!-- Node6&#45;&gt;Node8 -->
<g id="edge7" class="edge">
<title>Node6&#45;&gt;Node8</title>
<path fill="none" stroke="midnightblue" d="M1077.08,-169.62C1119.1,-159.38 1189.73,-141.08 1198,-132 1220.97,-106.76 1232.13,-81.09 1209,-56 1174.04,-18.08 809.96,-12.11 692.98,-11.17"/>
<polygon fill="midnightblue" stroke="midnightblue" points="692.78,-7.67 682.76,-11.1 692.73,-14.67 692.78,-7.67"/>
</g>
<!-- Node10 -->
<g id="node10" class="node">
<title>Node10</title>
<g id="a_node10"><a xlink:href="ISubsystem_8hpp.html" target="_top" xlink:title=" ">
<polygon fill="none" stroke="black" points="930,-280.5 930,-299.5 1016,-299.5 1016,-280.5 930,-280.5"/>
<text text-anchor="middle" x="973" y="-287.5" font-family="Helvetica,sans-Serif" font-size="10.00">ISubsystem.hpp</text>
</a>
</g>
</g>
<!-- Node9&#45;&gt;Node10 -->
<g id="edge9" class="edge">
<title>Node9&#45;&gt;Node10</title>
<path fill="none" stroke="midnightblue" d="M772.05,-392.47C722.81,-383.8 671.61,-367.06 698,-336 698.9,-334.94 839.82,-312.28 919.55,-299.53"/>
<polygon fill="midnightblue" stroke="midnightblue" points="920.58,-302.91 929.91,-297.87 919.48,-295.99 920.58,-302.91"/>
</g>
<!-- Node11 -->
<g id="node11" class="node">
<title>Node11</title>
<g id="a_node11"><a xlink:href="AnimatorSubsystem_8hpp.html" target="_top" xlink:title=" ">
<polygon fill="none" stroke="black" points="707,-336.5 707,-355.5 829,-355.5 829,-336.5 707,-336.5"/>
<text text-anchor="middle" x="768" y="-343.5" font-family="Helvetica,sans-Serif" font-size="10.00">AnimatorSubsystem.hpp</text>
</a>
</g>
</g>
<!-- Node9&#45;&gt;Node11 -->
<g id="edge10" class="edge">
<title>Node9&#45;&gt;Node11</title>
<path fill="none" stroke="midnightblue" d="M833.47,-392.32C821.41,-383.98 802.97,-371.21 788.73,-361.35"/>
<polygon fill="midnightblue" stroke="midnightblue" points="790.72,-358.47 780.5,-355.65 786.73,-364.22 790.72,-358.47"/>
</g>
<!-- Node12 -->
<g id="node12" class="node">
<title>Node12</title>
<g id="a_node12"><a xlink:href="BehaviourScriptSubsystem_8hpp.html" target="_top" xlink:title=" ">
<polygon fill="none" stroke="black" points="847,-336.5 847,-355.5 999,-355.5 999,-336.5 847,-336.5"/>
<text text-anchor="middle" x="923" y="-343.5" font-family="Helvetica,sans-Serif" font-size="10.00">BehaviourScriptSubsystem.hpp</text>
</a>
</g>
</g>
<!-- Node9&#45;&gt;Node12 -->
<g id="edge12" class="edge">
<title>Node9&#45;&gt;Node12</title>
<path fill="none" stroke="midnightblue" d="M858.37,-392.32C870.16,-384.06 888.13,-371.45 902.14,-361.63"/>
<polygon fill="midnightblue" stroke="midnightblue" points="904.48,-364.26 910.66,-355.65 900.46,-358.53 904.48,-364.26"/>
</g>
<!-- Node13 -->
<g id="node13" class="node">
<title>Node13</title>
<g id="a_node13"><a xlink:href="InputSubsystem_8hpp.html" target="_top" xlink:title=" ">
<polygon fill="none" stroke="black" points="1017.5,-336.5 1017.5,-355.5 1122.5,-355.5 1122.5,-336.5 1017.5,-336.5"/>
<text text-anchor="middle" x="1070" y="-343.5" font-family="Helvetica,sans-Serif" font-size="10.00">InputSubsystem.hpp</text>
</a>
</g>
</g>
<!-- Node9&#45;&gt;Node13 -->
<g id="edge14" class="edge">
<title>Node9&#45;&gt;Node13</title>
<path fill="none" stroke="midnightblue" d="M881.49,-392.44C920.32,-383.08 982.66,-368.06 1024.92,-357.87"/>
<polygon fill="midnightblue" stroke="midnightblue" points="1025.77,-361.26 1034.67,-355.52 1024.13,-354.46 1025.77,-361.26"/>
</g>
<!-- Node14 -->
<g id="node14" class="node">
<title>Node14</title>
<g id="a_node14"><a xlink:href="RenderSubsystem_8hpp.html" target="_top" xlink:title=" ">
<polygon fill="none" stroke="black" points="1293,-336.5 1293,-355.5 1407,-355.5 1407,-336.5 1293,-336.5"/>
<text text-anchor="middle" x="1350" y="-343.5" font-family="Helvetica,sans-Serif" font-size="10.00">RenderSubsystem.hpp</text>
</a>
</g>
</g>
<!-- Node9&#45;&gt;Node14 -->
<g id="edge16" class="edge">
<title>Node9&#45;&gt;Node14</title>
<path fill="none" stroke="midnightblue" d="M922.83,-393.88C1008.14,-385.81 1150.18,-371.84 1282.46,-356.15"/>
<polygon fill="midnightblue" stroke="midnightblue" points="1283.26,-359.58 1292.78,-354.92 1282.43,-352.63 1283.26,-359.58"/>
</g>
<!-- Node31 -->
<g id="node31" class="node">
<title>Node31</title>
<g id="a_node31"><a xlink:href="PhysicsSubsystem_8hpp.html" target="_top" xlink:title=" ">
<polygon fill="none" stroke="black" points="251,-336.5 251,-355.5 369,-355.5 369,-336.5 251,-336.5"/>
<text text-anchor="middle" x="310" y="-343.5" font-family="Helvetica,sans-Serif" font-size="10.00">PhysicsSubsystem.hpp</text>
</a>
</g>
</g>
<!-- Node9&#45;&gt;Node31 -->
<g id="edge51" class="edge">
<title>Node9&#45;&gt;Node31</title>
<path fill="none" stroke="midnightblue" d="M769.31,-394.47C678.71,-386.57 523.17,-372.41 379.64,-356.15"/>
<polygon fill="midnightblue" stroke="midnightblue" points="379.65,-352.63 369.32,-354.98 378.86,-359.59 379.65,-352.63"/>
</g>
<!-- Node37 -->
<g id="node37" class="node">
<title>Node37</title>
<g id="a_node37"><a xlink:href="FpsCounterSubsystem_8hpp.html" target="_top" xlink:title=" ">
<polygon fill="none" stroke="black" points="1141,-336.5 1141,-355.5 1275,-355.5 1275,-336.5 1141,-336.5"/>
<text text-anchor="middle" x="1208" y="-343.5" font-family="Helvetica,sans-Serif" font-size="10.00">FpsCounterSubsystem.hpp</text>
</a>
</g>
</g>
<!-- Node9&#45;&gt;Node37 -->
<g id="edge69" class="edge">
<title>Node9&#45;&gt;Node37</title>
<path fill="none" stroke="midnightblue" d="M903.36,-392.44C967.83,-382.83 1072.4,-367.23 1140.69,-357.04"/>
<polygon fill="midnightblue" stroke="midnightblue" points="1141.53,-360.45 1150.91,-355.52 1140.5,-353.53 1141.53,-360.45"/>
</g>
<!-- Node38 -->
<g id="node38" class="node">
<title>Node38</title>
<g id="a_node38"><a xlink:href="GameSpeedSubsystem_8hpp.html" target="_top" xlink:title=" ">
<polygon fill="none" stroke="black" points="513.5,-336.5 513.5,-355.5 650.5,-355.5 650.5,-336.5 513.5,-336.5"/>
<text text-anchor="middle" x="582" y="-343.5" font-family="Helvetica,sans-Serif" font-size="10.00">GameSpeedSubsystem.hpp</text>
</a>
</g>
</g>
<!-- Node9&#45;&gt;Node38 -->
<g id="edge72" class="edge">
<title>Node9&#45;&gt;Node38</title>
<path fill="none" stroke="midnightblue" d="M804.17,-392.44C757.92,-382.98 683.39,-367.74 633.56,-357.55"/>
<polygon fill="midnightblue" stroke="midnightblue" points="634.13,-354.09 623.64,-355.52 632.73,-360.95 634.13,-354.09"/>
</g>
<!-- Node39 -->
<g id="node39" class="node">
<title>Node39</title>
<g id="a_node39"><a xlink:href="AudioSubsystem_8hpp.html" target="_top" xlink:title=" ">
<polygon fill="none" stroke="black" points="387,-336.5 387,-355.5 495,-355.5 495,-336.5 387,-336.5"/>
<text text-anchor="middle" x="441" y="-343.5" font-family="Helvetica,sans-Serif" font-size="10.00">AudioSubsystem.hpp</text>
</a>
</g>
</g>
<!-- Node9&#45;&gt;Node39 -->
<g id="edge74" class="edge">
<title>Node9&#45;&gt;Node39</title>
<path fill="none" stroke="midnightblue" d="M779.45,-392.46C712.73,-383.86 606.77,-370.05 505.4,-356.18"/>
<polygon fill="midnightblue" stroke="midnightblue" points="505.67,-352.69 495.29,-354.79 504.72,-359.62 505.67,-352.69"/>
</g>
<!-- Node11&#45;&gt;Node10 -->
<g id="edge11" class="edge">
<title>Node11&#45;&gt;Node10</title>
<path fill="none" stroke="midnightblue" d="M800.48,-336.44C835.72,-327.16 892.1,-312.31 930.76,-302.13"/>
<polygon fill="midnightblue" stroke="midnightblue" points="931.89,-305.45 940.67,-299.52 930.11,-298.68 931.89,-305.45"/>
</g>
<!-- Node12&#45;&gt;Node10 -->
<g id="edge13" class="edge">
<title>Node12&#45;&gt;Node10</title>
<path fill="none" stroke="midnightblue" d="M931.26,-336.08C938.46,-328.3 949.11,-316.8 957.85,-307.37"/>
<polygon fill="midnightblue" stroke="midnightblue" points="960.67,-309.47 964.9,-299.75 955.53,-304.71 960.67,-309.47"/>
</g>
<!-- Node13&#45;&gt;Node10 -->
<g id="edge15" class="edge">
<title>Node13&#45;&gt;Node10</title>
<path fill="none" stroke="midnightblue" d="M1054.42,-336.32C1039,-327.74 1015.19,-314.49 997.29,-304.52"/>
<polygon fill="midnightblue" stroke="midnightblue" points="998.99,-301.46 988.55,-299.65 995.58,-307.58 998.99,-301.46"/>
</g>
<!-- Node14&#45;&gt;Node10 -->
<g id="edge17" class="edge">
<title>Node14&#45;&gt;Node10</title>
<path fill="none" stroke="midnightblue" d="M1292.74,-336.8C1220.3,-326.42 1096.51,-308.69 1026.09,-298.61"/>
<polygon fill="midnightblue" stroke="midnightblue" points="1026.5,-295.13 1016.11,-297.17 1025.51,-302.06 1026.5,-295.13"/>
</g>
<!-- Node15 -->
<g id="node15" class="node">
<title>Node15</title>
<g id="a_node15"><a xlink:href="Window_8hpp.html" target="_top" xlink:title=" ">
<polygon fill="none" stroke="black" points="1084.5,-280.5 1084.5,-299.5 1195.5,-299.5 1195.5,-280.5 1084.5,-280.5"/>
<text text-anchor="middle" x="1140" y="-287.5" font-family="Helvetica,sans-Serif" font-size="10.00">../Models/Window.hpp</text>
</a>
</g>
</g>
<!-- Node14&#45;&gt;Node15 -->
<g id="edge18" class="edge">
<title>Node14&#45;&gt;Node15</title>
<path fill="none" stroke="midnightblue" d="M1316.72,-336.44C1280.55,-327.14 1222.62,-312.25 1183.02,-302.06"/>
<polygon fill="midnightblue" stroke="midnightblue" points="1183.68,-298.62 1173.12,-299.52 1181.93,-305.4 1183.68,-298.62"/>
</g>
<!-- Node16 -->
<g id="node16" class="node">
<title>Node16</title>
<g id="a_node16"><a xlink:href="Color_8hpp.html" target="_top" xlink:title=" ">
<polygon fill="none" stroke="black" points="814.5,-112.5 814.5,-131.5 871.5,-131.5 871.5,-112.5 814.5,-112.5"/>
<text text-anchor="middle" x="843" y="-119.5" font-family="Helvetica,sans-Serif" font-size="10.00">Color.hpp</text>
</a>
</g>
</g>
<!-- Node15&#45;&gt;Node16 -->
<g id="edge19" class="edge">
<title>Node15&#45;&gt;Node16</title>
<path fill="none" stroke="midnightblue" d="M1110.26,-280.49C1086.61,-272.95 1053.25,-260.57 1027,-244 984.98,-217.47 986.52,-195.29 945,-168 924.15,-154.3 898.44,-142.98 878.04,-135.13"/>
<polygon fill="midnightblue" stroke="midnightblue" points="879.09,-131.79 868.5,-131.55 876.64,-138.34 879.09,-131.79"/>
</g>
<!-- Node17 -->
<g id="node17" class="node">
<title>Node17</title>
<g id="a_node17"><a xlink:href="Text_8hpp.html" target="_top" xlink:title=" ">
<polygon fill="none" stroke="black" points="714.5,-224.5 714.5,-243.5 767.5,-243.5 767.5,-224.5 714.5,-224.5"/>
<text text-anchor="middle" x="741" y="-231.5" font-family="Helvetica,sans-Serif" font-size="10.00">Text.hpp</text>
</a>
</g>
</g>
<!-- Node15&#45;&gt;Node17 -->
<g id="edge20" class="edge">
<title>Node15&#45;&gt;Node17</title>
<path fill="none" stroke="midnightblue" d="M1084.1,-281.43C1001.28,-270.23 848.2,-249.51 777.97,-240"/>
<polygon fill="midnightblue" stroke="midnightblue" points="778.21,-236.5 767.83,-238.63 777.27,-243.44 778.21,-236.5"/>
</g>
<!-- Node21 -->
<g id="node21" class="node">
<title>Node21</title>
<g id="a_node21"><a xlink:href="Transform_8hpp.html" target="_top" xlink:title=" ">
<polygon fill="none" stroke="black" points="381.5,-56.5 381.5,-75.5 460.5,-75.5 460.5,-56.5 381.5,-56.5"/>
<text text-anchor="middle" x="421" y="-63.5" font-family="Helvetica,sans-Serif" font-size="10.00">Transform.hpp</text>
</a>
</g>
</g>
<!-- Node15&#45;&gt;Node21 -->
<g id="edge32" class="edge">
<title>Node15&#45;&gt;Node21</title>
<path fill="none" stroke="midnightblue" d="M1084.17,-284.26C975,-274.84 740.73,-253.82 705,-244 647.86,-228.29 634.95,-218.26 584,-188 528.02,-154.74 467.94,-106.46 438.84,-82.17"/>
<polygon fill="midnightblue" stroke="midnightblue" points="441.06,-79.47 431.16,-75.71 436.56,-84.83 441.06,-79.47"/>
</g>
<!-- Node23 -->
<g id="node23" class="node">
<title>Node23</title>
<g id="a_node23"><a xlink:href="FontManager_8hpp.html" target="_top" xlink:title=" ">
<polygon fill="none" stroke="black" points="1246.5,-168.5 1246.5,-187.5 1391.5,-187.5 1391.5,-168.5 1246.5,-168.5"/>
<text text-anchor="middle" x="1319" y="-175.5" font-family="Helvetica,sans-Serif" font-size="10.00">../Managers/FontManager.hpp</text>
</a>
</g>
</g>
<!-- Node15&#45;&gt;Node23 -->
<g id="edge33" class="edge">
<title>Node15&#45;&gt;Node23</title>
<path fill="none" stroke="midnightblue" d="M1160.31,-280.38C1179.34,-272.01 1208.33,-258.46 1232,-244 1256.94,-228.77 1283.57,-208.16 1300.7,-194.26"/>
<polygon fill="midnightblue" stroke="midnightblue" points="1303.22,-196.72 1308.74,-187.67 1298.78,-191.31 1303.22,-196.72"/>
</g>
<!-- Node27 -->
<g id="node27" class="node">
<title>Node27</title>
<g id="a_node27"><a xlink:href="TextureManager_8hpp.html" target="_top" xlink:title=" ">
<polygon fill="none" stroke="black" points="761,-168.5 761,-187.5 919,-187.5 919,-168.5 761,-168.5"/>
<text text-anchor="middle" x="840" y="-175.5" font-family="Helvetica,sans-Serif" font-size="10.00">../Managers/TextureManager.hpp</text>
</a>
</g>
</g>
<!-- Node15&#45;&gt;Node27 -->
<g id="edge40" class="edge">
<title>Node15&#45;&gt;Node27</title>
<path fill="none" stroke="midnightblue" d="M1089.28,-280.44C1051.67,-273.17 999.6,-261.18 956,-244 921.08,-230.24 883.72,-207.74 861.11,-193.15"/>
<polygon fill="midnightblue" stroke="midnightblue" points="862.93,-190.16 852.65,-187.61 859.1,-196.02 862.93,-190.16"/>
</g>
<!-- Node29 -->
<g id="node29" class="node">
<title>Node29</title>
<g id="a_node29"><a xlink:title=" ">
<polygon fill="none" stroke="#bfbfbf" points="1124,-56.5 1124,-75.5 1200,-75.5 1200,-56.5 1124,-56.5"/>
<text text-anchor="middle" x="1162" y="-63.5" font-family="Helvetica,sans-Serif" font-size="10.00">SDL_render.h</text>
</a>
</g>
</g>
<!-- Node15&#45;&gt;Node29 -->
<g id="edge49" class="edge">
<title>Node15&#45;&gt;Node29</title>
<path fill="none" stroke="midnightblue" d="M1158.98,-280.4C1172.89,-272.95 1190.71,-260.74 1199,-244 1209.12,-223.55 1253.28,-267.36 1198,-112 1194.08,-100.97 1186.22,-90.62 1178.84,-82.64"/>
<polygon fill="midnightblue" stroke="midnightblue" points="1181.31,-80.16 1171.79,-75.5 1176.33,-85.08 1181.31,-80.16"/>
</g>
<!-- Node30 -->
<g id="node30" class="node">
<title>Node30</title>
<g id="a_node30"><a xlink:title=" ">
<polygon fill="none" stroke="#bfbfbf" points="1036,-224.5 1036,-243.5 1108,-243.5 1108,-224.5 1036,-224.5"/>
<text text-anchor="middle" x="1072" y="-231.5" font-family="Helvetica,sans-Serif" font-size="10.00">SDL_video.h</text>
</a>
</g>
</g>
<!-- Node15&#45;&gt;Node30 -->
<g id="edge50" class="edge">
<title>Node15&#45;&gt;Node30</title>
<path fill="none" stroke="midnightblue" d="M1129.07,-280.32C1118.83,-272.18 1103.28,-259.84 1091,-250.09"/>
<polygon fill="midnightblue" stroke="midnightblue" points="1093.13,-247.31 1083.12,-243.83 1088.78,-252.79 1093.13,-247.31"/>
</g>
<!-- Node17&#45;&gt;Node5 -->
<g id="edge31" class="edge">
<title>Node17&#45;&gt;Node5</title>
<path fill="none" stroke="midnightblue" d="M738.91,-224.45C734.32,-203.75 725.29,-149.84 745,-112 751.95,-98.66 764.85,-88.19 776.91,-80.72"/>
<polygon fill="midnightblue" stroke="midnightblue" points="778.92,-83.61 785.86,-75.6 775.44,-77.53 778.92,-83.61"/>
</g>
<!-- Node17&#45;&gt;Node16 -->
<g id="edge30" class="edge">
<title>Node17&#45;&gt;Node16</title>
<path fill="none" stroke="midnightblue" d="M767.6,-230.58C814.38,-225.7 908.32,-212.98 928,-188 945.69,-165.55 911.42,-146.61 881.25,-135.07"/>
<polygon fill="midnightblue" stroke="midnightblue" points="882.26,-131.71 871.67,-131.58 879.87,-138.29 882.26,-131.71"/>
</g>
<!-- Node18 -->
<g id="node18" class="node">
<title>Node18</title>
<g id="a_node18"><a xlink:href="UIObject_8hpp.html" target="_top" xlink:title=" ">
<polygon fill="none" stroke="black" points="593,-168.5 593,-187.5 667,-187.5 667,-168.5 593,-168.5"/>
<text text-anchor="middle" x="630" y="-175.5" font-family="Helvetica,sans-Serif" font-size="10.00">UIObject.hpp</text>
</a>
</g>
</g>
<!-- Node17&#45;&gt;Node18 -->
<g id="edge21" class="edge">
<title>Node17&#45;&gt;Node18</title>
<path fill="none" stroke="midnightblue" d="M723.17,-224.32C705.28,-215.62 677.52,-202.12 656.95,-192.11"/>
<polygon fill="midnightblue" stroke="midnightblue" points="658.31,-188.88 647.79,-187.65 655.25,-195.18 658.31,-188.88"/>
</g>
<!-- Node19 -->
<g id="node19" class="node">
<title>Node19</title>
<g id="a_node19"><a xlink:href="GameObject_8hpp.html" target="_top" xlink:title=" ">
<polygon fill="none" stroke="black" points="371.5,-112.5 371.5,-131.5 460.5,-131.5 460.5,-112.5 371.5,-112.5"/>
<text text-anchor="middle" x="416" y="-119.5" font-family="Helvetica,sans-Serif" font-size="10.00">GameObject.hpp</text>
</a>
</g>
</g>
<!-- Node18&#45;&gt;Node19 -->
<g id="edge22" class="edge">
<title>Node18&#45;&gt;Node19</title>
<path fill="none" stroke="midnightblue" d="M596.09,-168.44C559.15,-159.12 499.95,-144.18 459.58,-134"/>
<polygon fill="midnightblue" stroke="midnightblue" points="460.3,-130.57 449.75,-131.52 458.59,-137.36 460.3,-130.57"/>
</g>
<!-- Node19&#45;&gt;Node5 -->
<g id="edge27" class="edge">
<title>Node19&#45;&gt;Node5</title>
<path fill="none" stroke="midnightblue" d="M460.62,-114.81C540.37,-103.73 705.43,-80.82 774.04,-71.3"/>
<polygon fill="midnightblue" stroke="midnightblue" points="774.77,-74.73 784.19,-69.89 773.81,-67.8 774.77,-74.73"/>
</g>
<!-- Node19&#45;&gt;Node7 -->
<g id="edge28" class="edge">
<title>Node19&#45;&gt;Node7</title>
<path fill="none" stroke="midnightblue" d="M404.11,-112.32C392.85,-104.11 375.71,-91.6 362.29,-81.81"/>
<polygon fill="midnightblue" stroke="midnightblue" points="364.25,-78.9 354.11,-75.83 360.12,-84.56 364.25,-78.9"/>
</g>
<!-- Node19&#45;&gt;Node8 -->
<g id="edge29" class="edge">
<title>Node19&#45;&gt;Node8</title>
<path fill="none" stroke="midnightblue" d="M426.72,-112.29C443.97,-98.64 479.36,-72.11 513,-56 548.4,-39.05 591.69,-26.53 621.51,-19.05"/>
<polygon fill="midnightblue" stroke="midnightblue" points="622.57,-22.4 631.46,-16.62 620.91,-15.6 622.57,-22.4"/>
</g>
<!-- Node20 -->
<g id="node20" class="node">
<title>Node20</title>
<g id="a_node20"><a xlink:href="Component_8hpp.html" target="_top" xlink:title=" ">
<polygon fill="none" stroke="black" points="203,-56.5 203,-75.5 287,-75.5 287,-56.5 203,-56.5"/>
<text text-anchor="middle" x="245" y="-63.5" font-family="Helvetica,sans-Serif" font-size="10.00">Component.hpp</text>
</a>
</g>
</g>
<!-- Node19&#45;&gt;Node20 -->
<g id="edge23" class="edge">
<title>Node19&#45;&gt;Node20</title>
<path fill="none" stroke="midnightblue" d="M388.9,-112.44C360.01,-103.32 314.08,-88.81 281.89,-78.65"/>
<polygon fill="midnightblue" stroke="midnightblue" points="282.56,-75.19 271.97,-75.52 280.45,-81.87 282.56,-75.19"/>
</g>
<!-- Node19&#45;&gt;Node21 -->
<g id="edge25" class="edge">
<title>Node19&#45;&gt;Node21</title>
<path fill="none" stroke="midnightblue" d="M416.83,-112.08C417.48,-105.01 418.42,-94.86 419.24,-85.99"/>
<polygon fill="midnightblue" stroke="midnightblue" points="422.75,-86.03 420.19,-75.75 415.78,-85.39 422.75,-86.03"/>
</g>
<!-- Node20&#45;&gt;Node8 -->
<g id="edge24" class="edge">
<title>Node20&#45;&gt;Node8</title>
<path fill="none" stroke="midnightblue" d="M287.25,-59.2C295.14,-58.13 303.32,-57.02 311,-56 424.24,-40.92 558.41,-23.63 621.22,-15.58"/>
<polygon fill="midnightblue" stroke="midnightblue" points="621.91,-19.02 631.38,-14.28 621.02,-12.08 621.91,-19.02"/>
</g>
<!-- Node22 -->
<g id="node22" class="node">
<title>Node22</title>
<g id="a_node22"><a xlink:href="Point_8hpp.html" target="_top" xlink:title=" ">
<polygon fill="none" stroke="black" points="239.5,-0.5 239.5,-19.5 296.5,-19.5 296.5,-0.5 239.5,-0.5"/>
<text text-anchor="middle" x="268" y="-7.5" font-family="Helvetica,sans-Serif" font-size="10.00">Point.hpp</text>
</a>
</g>
</g>
<!-- Node21&#45;&gt;Node22 -->
<g id="edge26" class="edge">
<title>Node21&#45;&gt;Node22</title>
<path fill="none" stroke="midnightblue" d="M396.76,-56.44C371.13,-47.4 330.51,-33.06 301.76,-22.92"/>
<polygon fill="midnightblue" stroke="midnightblue" points="302.72,-19.54 292.13,-19.52 300.39,-26.15 302.72,-19.54"/>
</g>
<!-- Node23&#45;&gt;Node5 -->
<g id="edge39" class="edge">
<title>Node23&#45;&gt;Node5</title>
<path fill="none" stroke="midnightblue" d="M1246.43,-169.75C1196.19,-163.3 1128.3,-151.75 1071,-132 1052.96,-125.78 1051,-118.35 1033,-112 954.84,-84.41 931.31,-92.13 850,-76 845.39,-75.09 840.52,-74.12 835.75,-73.16"/>
<polygon fill="midnightblue" stroke="midnightblue" points="836.1,-69.66 825.61,-71.14 834.73,-76.53 836.1,-69.66"/>
</g>
<!-- Node23&#45;&gt;Node8 -->
<g id="edge38" class="edge">
<title>Node23&#45;&gt;Node8</title>
<path fill="none" stroke="midnightblue" d="M1343.47,-168.44C1359.57,-161.38 1379.38,-149.63 1389,-132 1405.19,-102.35 1412.14,-80.61 1389,-56 1364.88,-30.35 835.86,-15.43 692.54,-11.85"/>
<polygon fill="midnightblue" stroke="midnightblue" points="692.6,-8.35 682.52,-11.6 692.43,-15.34 692.6,-8.35"/>
</g>
<!-- Node24 -->
<g id="node24" class="node">
<title>Node24</title>
<g id="a_node24"><a xlink:href="libs_2spic-engine_2src_2Models_2Font_8hpp.html" target="_top" xlink:title=" ">
<polygon fill="none" stroke="black" points="1284,-112.5 1284,-131.5 1380,-131.5 1380,-112.5 1284,-112.5"/>
<text text-anchor="middle" x="1332" y="-119.5" font-family="Helvetica,sans-Serif" font-size="10.00">../Models/Font.hpp</text>
</a>
</g>
</g>
<!-- Node23&#45;&gt;Node24 -->
<g id="edge34" class="edge">
<title>Node23&#45;&gt;Node24</title>
<path fill="none" stroke="midnightblue" d="M1321.15,-168.08C1322.87,-160.93 1325.35,-150.64 1327.5,-141.69"/>
<polygon fill="midnightblue" stroke="midnightblue" points="1330.96,-142.29 1329.89,-131.75 1324.15,-140.65 1330.96,-142.29"/>
</g>
<!-- Node26 -->
<g id="node26" class="node">
<title>Node26</title>
<g id="a_node26"><a xlink:title=" ">
<polygon fill="none" stroke="#bfbfbf" points="761.5,-112.5 761.5,-131.5 796.5,-131.5 796.5,-112.5 761.5,-112.5"/>
<text text-anchor="middle" x="779" y="-119.5" font-family="Helvetica,sans-Serif" font-size="10.00">map</text>
</a>
</g>
</g>
<!-- Node23&#45;&gt;Node26 -->
<g id="edge37" class="edge">
<title>Node23&#45;&gt;Node26</title>
<path fill="none" stroke="midnightblue" d="M1246.32,-171.63C1121.99,-162.31 875.9,-143.21 806.88,-131.7"/>
<polygon fill="midnightblue" stroke="midnightblue" points="807.21,-128.2 796.74,-129.79 805.91,-135.08 807.21,-128.2"/>
</g>
<!-- Node24&#45;&gt;Node8 -->
<g id="edge36" class="edge">
<title>Node24&#45;&gt;Node8</title>
<path fill="none" stroke="midnightblue" d="M1326.81,-112.33C1317.52,-97.71 1296.51,-68.52 1270,-56 1217.79,-31.35 815.67,-16.21 692.65,-12.13"/>
<polygon fill="midnightblue" stroke="midnightblue" points="692.73,-8.63 682.62,-11.8 692.5,-15.62 692.73,-8.63"/>
</g>
<!-- Node25 -->
<g id="node25" class="node">
<title>Node25</title>
<g id="a_node25"><a xlink:title=" ">
<polygon fill="none" stroke="#bfbfbf" points="1322,-56.5 1322,-75.5 1380,-75.5 1380,-56.5 1322,-56.5"/>
<text text-anchor="middle" x="1351" y="-63.5" font-family="Helvetica,sans-Serif" font-size="10.00">SDL_ttf.h</text>
</a>
</g>
</g>
<!-- Node24&#45;&gt;Node25 -->
<g id="edge35" class="edge">
<title>Node24&#45;&gt;Node25</title>
<path fill="none" stroke="midnightblue" d="M1335.14,-112.08C1337.68,-104.85 1341.36,-94.41 1344.53,-85.4"/>
<polygon fill="midnightblue" stroke="midnightblue" points="1347.9,-86.35 1347.92,-75.75 1341.3,-84.02 1347.9,-86.35"/>
</g>
<!-- Node27&#45;&gt;Node5 -->
<g id="edge48" class="edge">
<title>Node27&#45;&gt;Node5</title>
<path fill="none" stroke="midnightblue" d="M804.15,-168.4C785.12,-161.81 763.37,-150.59 752,-132 740.45,-113.13 761.28,-93.76 780.12,-81.13"/>
<polygon fill="midnightblue" stroke="midnightblue" points="782.2,-83.97 788.79,-75.67 778.46,-78.04 782.2,-83.97"/>
</g>
<!-- Node27&#45;&gt;Node8 -->
<g id="edge47" class="edge">
<title>Node27&#45;&gt;Node8</title>
<path fill="none" stroke="midnightblue" d="M813.4,-168.48C793.14,-161.08 765.37,-148.89 745,-132 708.99,-102.14 680.09,-54.41 666.12,-28.73"/>
<polygon fill="midnightblue" stroke="midnightblue" points="669.15,-26.96 661.37,-19.76 662.96,-30.24 669.15,-26.96"/>
</g>
<!-- Node27&#45;&gt;Node16 -->
<g id="edge45" class="edge">
<title>Node27&#45;&gt;Node16</title>
<path fill="none" stroke="midnightblue" d="M840.5,-168.08C840.89,-161.01 841.45,-150.86 841.95,-141.99"/>
<polygon fill="midnightblue" stroke="midnightblue" points="845.45,-141.93 842.51,-131.75 838.46,-141.54 845.45,-141.93"/>
</g>
<!-- Node27&#45;&gt;Node26 -->
<g id="edge46" class="edge">
<title>Node27&#45;&gt;Node26</title>
<path fill="none" stroke="midnightblue" d="M830.2,-168.32C821.18,-160.34 807.59,-148.31 796.68,-138.65"/>
<polygon fill="midnightblue" stroke="midnightblue" points="798.79,-135.84 788.98,-131.83 794.15,-141.08 798.79,-135.84"/>
</g>
<!-- Node28 -->
<g id="node28" class="node">
<title>Node28</title>
<g id="a_node28"><a xlink:href="Texture_8hpp.html" target="_top" xlink:title=" ">
<polygon fill="none" stroke="black" points="1080.5,-112.5 1080.5,-131.5 1189.5,-131.5 1189.5,-112.5 1080.5,-112.5"/>
<text text-anchor="middle" x="1135" y="-119.5" font-family="Helvetica,sans-Serif" font-size="10.00">../Models/Texture.hpp</text>
</a>
</g>
</g>
<!-- Node27&#45;&gt;Node28 -->
<g id="edge41" class="edge">
<title>Node27&#45;&gt;Node28</title>
<path fill="none" stroke="midnightblue" d="M886.74,-168.44C938.75,-158.92 1022.75,-143.55 1078.42,-133.36"/>
<polygon fill="midnightblue" stroke="midnightblue" points="1079.27,-136.76 1088.48,-131.52 1078.01,-129.87 1079.27,-136.76"/>
</g>
<!-- Node28&#45;&gt;Node5 -->
<g id="edge42" class="edge">
<title>Node28&#45;&gt;Node5</title>
<path fill="none" stroke="midnightblue" d="M1082.71,-112.44C1013.05,-101.04 892.05,-81.24 835.62,-72.01"/>
<polygon fill="midnightblue" stroke="midnightblue" points="835.98,-68.52 825.54,-70.36 834.85,-75.43 835.98,-68.52"/>
</g>
<!-- Node28&#45;&gt;Node8 -->
<g id="edge43" class="edge">
<title>Node28&#45;&gt;Node8</title>
<path fill="none" stroke="midnightblue" d="M1097.89,-112.46C1008.11,-91.8 780.12,-39.33 692.27,-19.12"/>
<polygon fill="midnightblue" stroke="midnightblue" points="693.04,-15.7 682.51,-16.87 691.47,-22.52 693.04,-15.7"/>
</g>
<!-- Node28&#45;&gt;Node29 -->
<g id="edge44" class="edge">
<title>Node28&#45;&gt;Node29</title>
<path fill="none" stroke="midnightblue" d="M1139.46,-112.08C1143.15,-104.69 1148.52,-93.95 1153.09,-84.81"/>
<polygon fill="midnightblue" stroke="midnightblue" points="1156.28,-86.26 1157.62,-75.75 1150.02,-83.13 1156.28,-86.26"/>
</g>
<!-- Node31&#45;&gt;Node7 -->
<g id="edge57" class="edge">
<title>Node31&#45;&gt;Node7</title>
<path fill="none" stroke="midnightblue" d="M277.21,-336.45C200.14,-314.74 18.26,-253.07 77,-168 102.65,-130.84 129.8,-148.06 172,-132 220.25,-113.64 276.15,-92.24 310.29,-79.16"/>
<polygon fill="midnightblue" stroke="midnightblue" points="311.65,-82.39 319.73,-75.54 309.14,-75.85 311.65,-82.39"/>
</g>
<!-- Node31&#45;&gt;Node8 -->
<g id="edge53" class="edge">
<title>Node31&#45;&gt;Node8</title>
<path fill="none" stroke="midnightblue" d="M326.31,-336.5C341.19,-328.3 363.33,-314.96 380,-300 483.73,-206.9 470.58,-146 577,-56 592.32,-43.05 611.91,-31.95 627.88,-24.02"/>
<polygon fill="midnightblue" stroke="midnightblue" points="629.78,-26.99 637.28,-19.5 626.75,-20.68 629.78,-26.99"/>
</g>
<!-- Node31&#45;&gt;Node10 -->
<g id="edge59" class="edge">
<title>Node31&#45;&gt;Node10</title>
<path fill="none" stroke="midnightblue" d="M369.31,-336.95C372.25,-336.61 375.16,-336.3 378,-336 577.48,-315.27 815.54,-300.16 919.74,-294.02"/>
<polygon fill="midnightblue" stroke="midnightblue" points="920.21,-297.5 929.99,-293.42 919.81,-290.51 920.21,-297.5"/>
</g>
<!-- Node31&#45;&gt;Node19 -->
<g id="edge58" class="edge">
<title>Node31&#45;&gt;Node19</title>
<path fill="none" stroke="midnightblue" d="M320.24,-336.49C338.72,-320.48 377.48,-283.9 396,-244 411.63,-210.32 415.25,-166.38 415.96,-141.79"/>
<polygon fill="midnightblue" stroke="midnightblue" points="419.47,-141.73 416.12,-131.67 412.47,-141.62 419.47,-141.73"/>
</g>
<!-- Node32 -->
<g id="node32" class="node">
<title>Node32</title>
<g id="a_node32"><a xlink:title=" ">
<polygon fill="none" stroke="#bfbfbf" points="86,-168.5 86,-187.5 164,-187.5 164,-168.5 86,-168.5"/>
<text text-anchor="middle" x="125" y="-175.5" font-family="Helvetica,sans-Serif" font-size="10.00">box2d/box2d.h</text>
</a>
</g>
</g>
<!-- Node31&#45;&gt;Node32 -->
<g id="edge52" class="edge">
<title>Node31&#45;&gt;Node32</title>
<path fill="none" stroke="midnightblue" d="M300.31,-336.31C270.59,-309.64 180.41,-228.72 142.29,-194.52"/>
<polygon fill="midnightblue" stroke="midnightblue" points="144.37,-191.68 134.59,-187.61 139.7,-196.89 144.37,-191.68"/>
</g>
<!-- Node33 -->
<g id="node33" class="node">
<title>Node33</title>
<g id="a_node33"><a xlink:href="RigidBody_8hpp.html" target="_top" xlink:title=" ">
<polygon fill="none" stroke="black" points="0,-112.5 0,-131.5 78,-131.5 78,-112.5 0,-112.5"/>
<text text-anchor="middle" x="39" y="-119.5" font-family="Helvetica,sans-Serif" font-size="10.00">RigidBody.hpp</text>
</a>
</g>
</g>
<!-- Node31&#45;&gt;Node33 -->
<g id="edge54" class="edge">
<title>Node31&#45;&gt;Node33</title>
<path fill="none" stroke="midnightblue" d="M250.8,-343.43C180.78,-340.2 70.35,-330.31 44,-300 5.05,-255.2 22.01,-177.28 32.7,-141.69"/>
<polygon fill="midnightblue" stroke="midnightblue" points="36.18,-142.31 35.87,-131.72 29.51,-140.19 36.18,-142.31"/>
</g>
<!-- Node34 -->
<g id="node34" class="node">
<title>Node34</title>
<g id="a_node34"><a xlink:href="ContactListener_8hpp.html" target="_top" xlink:title=" ">
<polygon fill="none" stroke="black" points="232.5,-224.5 232.5,-243.5 387.5,-243.5 387.5,-224.5 232.5,-224.5"/>
<text text-anchor="middle" x="310" y="-231.5" font-family="Helvetica,sans-Serif" font-size="10.00">../Listeners/ContactListener.hpp</text>
</a>
</g>
</g>
<!-- Node31&#45;&gt;Node34 -->
<g id="edge60" class="edge">
<title>Node31&#45;&gt;Node34</title>
<path fill="none" stroke="midnightblue" d="M310,-336.37C310,-318.62 310,-277.67 310,-253.6"/>
<polygon fill="midnightblue" stroke="midnightblue" points="313.5,-253.59 310,-243.59 306.5,-253.59 313.5,-253.59"/>
</g>
<!-- Node33&#45;&gt;Node20 -->
<g id="edge55" class="edge">
<title>Node33&#45;&gt;Node20</title>
<path fill="none" stroke="midnightblue" d="M71.64,-112.44C107.05,-103.16 163.71,-88.31 202.55,-78.13"/>
<polygon fill="midnightblue" stroke="midnightblue" points="203.73,-81.44 212.51,-75.52 201.95,-74.67 203.73,-81.44"/>
</g>
<!-- Node33&#45;&gt;Node22 -->
<g id="edge56" class="edge">
<title>Node33&#45;&gt;Node22</title>
<path fill="none" stroke="midnightblue" d="M56.97,-112.37C97.02,-93.13 193.79,-46.65 241.08,-23.93"/>
<polygon fill="midnightblue" stroke="midnightblue" points="242.62,-27.08 250.11,-19.59 239.58,-20.77 242.62,-27.08"/>
</g>
<!-- Node34&#45;&gt;Node7 -->
<g id="edge68" class="edge">
<title>Node34&#45;&gt;Node7</title>
<path fill="none" stroke="midnightblue" d="M314.3,-224.27C318.49,-215.37 324.7,-201.05 328,-188 336.96,-152.59 340.2,-109.88 341.36,-85.84"/>
<polygon fill="midnightblue" stroke="midnightblue" points="344.87,-85.78 341.78,-75.65 337.88,-85.5 344.87,-85.78"/>
</g>
<!-- Node34&#45;&gt;Node20 -->
<g id="edge62" class="edge">
<title>Node34&#45;&gt;Node20</title>
<path fill="none" stroke="midnightblue" d="M308.67,-224.41C306.58,-211.79 302.02,-187.63 295,-168 284.07,-137.42 266.3,-104.04 255.15,-84.35"/>
<polygon fill="midnightblue" stroke="midnightblue" points="258.15,-82.54 250.13,-75.61 252.08,-86.03 258.15,-82.54"/>
</g>
<!-- Node34&#45;&gt;Node26 -->
<g id="edge63" class="edge">
<title>Node34&#45;&gt;Node26</title>
<path fill="none" stroke="midnightblue" d="M387.6,-233.22C463.27,-231.19 580.58,-222.04 676,-188 708.3,-176.48 741.01,-153.47 760.65,-138.15"/>
<polygon fill="midnightblue" stroke="midnightblue" points="763.07,-140.7 768.7,-131.73 758.7,-135.23 763.07,-140.7"/>
</g>
<!-- Node34&#45;&gt;Node32 -->
<g id="edge61" class="edge">
<title>Node34&#45;&gt;Node32</title>
<path fill="none" stroke="midnightblue" d="M280.69,-224.44C249.16,-215.24 198.87,-200.56 164.01,-190.39"/>
<polygon fill="midnightblue" stroke="midnightblue" points="164.76,-186.96 154.18,-187.52 162.8,-193.68 164.76,-186.96"/>
</g>
<!-- Node35 -->
<g id="node35" class="node">
<title>Node35</title>
<g id="a_node35"><a xlink:href="BehaviourScript_8hpp.html" target="_top" xlink:title=" ">
<polygon fill="none" stroke="black" points="182,-168.5 182,-187.5 286,-187.5 286,-168.5 182,-168.5"/>
<text text-anchor="middle" x="234" y="-175.5" font-family="Helvetica,sans-Serif" font-size="10.00">BehaviourScript.hpp</text>
</a>
</g>
</g>
<!-- Node34&#45;&gt;Node35 -->
<g id="edge64" class="edge">
<title>Node34&#45;&gt;Node35</title>
<path fill="none" stroke="midnightblue" d="M297.79,-224.32C286.22,-216.11 268.62,-203.6 254.84,-193.81"/>
<polygon fill="midnightblue" stroke="midnightblue" points="256.61,-190.77 246.43,-187.83 252.56,-196.48 256.61,-190.77"/>
</g>
<!-- Node35&#45;&gt;Node20 -->
<g id="edge65" class="edge">
<title>Node35&#45;&gt;Node20</title>
<path fill="none" stroke="midnightblue" d="M234.86,-168.37C236.64,-150.62 240.73,-109.67 243.14,-85.6"/>
<polygon fill="midnightblue" stroke="midnightblue" points="246.63,-85.89 244.14,-75.59 239.66,-85.19 246.63,-85.89"/>
</g>
<!-- Node36 -->
<g id="node36" class="node">
<title>Node36</title>
<g id="a_node36"><a xlink:href="Collider_8hpp.html" target="_top" xlink:title=" ">
<polygon fill="none" stroke="black" points="96.5,-112.5 96.5,-131.5 163.5,-131.5 163.5,-112.5 96.5,-112.5"/>
<text text-anchor="middle" x="130" y="-119.5" font-family="Helvetica,sans-Serif" font-size="10.00">Collider.hpp</text>
</a>
</g>
</g>
<!-- Node35&#45;&gt;Node36 -->
<g id="edge66" class="edge">
<title>Node35&#45;&gt;Node36</title>
<path fill="none" stroke="midnightblue" d="M217.29,-168.32C200.69,-159.7 175,-146.36 155.78,-136.39"/>
<polygon fill="midnightblue" stroke="midnightblue" points="157.16,-133.16 146.67,-131.65 153.93,-139.37 157.16,-133.16"/>
</g>
<!-- Node36&#45;&gt;Node20 -->
<g id="edge67" class="edge">
<title>Node36&#45;&gt;Node20</title>
<path fill="none" stroke="midnightblue" d="M148.22,-112.44C166.9,-103.68 196.16,-89.94 217.62,-79.86"/>
<polygon fill="midnightblue" stroke="midnightblue" points="219.3,-82.93 226.86,-75.52 216.32,-76.6 219.3,-82.93"/>
</g>
<!-- Node37&#45;&gt;Node10 -->
<g id="edge70" class="edge">
<title>Node37&#45;&gt;Node10</title>
<path fill="none" stroke="midnightblue" d="M1170.76,-336.44C1129.94,-327.06 1064.36,-311.99 1020.02,-301.8"/>
<polygon fill="midnightblue" stroke="midnightblue" points="1020.59,-298.34 1010.06,-299.52 1019.02,-305.17 1020.59,-298.34"/>
</g>
<!-- Node37&#45;&gt;Node15 -->
<g id="edge71" class="edge">
<title>Node37&#45;&gt;Node15</title>
<path fill="none" stroke="midnightblue" d="M1197.07,-336.32C1186.83,-328.18 1171.28,-315.84 1159,-306.09"/>
<polygon fill="midnightblue" stroke="midnightblue" points="1161.13,-303.31 1151.12,-299.83 1156.78,-308.79 1161.13,-303.31"/>
</g>
<!-- Node38&#45;&gt;Node10 -->
<g id="edge73" class="edge">
<title>Node38&#45;&gt;Node10</title>
<path fill="none" stroke="midnightblue" d="M648.6,-336.48C716.06,-327.74 823.37,-313.55 916,-300 917.25,-299.82 918.52,-299.63 919.81,-299.44"/>
<polygon fill="midnightblue" stroke="midnightblue" points="920.39,-302.89 929.76,-297.93 919.34,-295.97 920.39,-302.89"/>
</g>
<!-- Node39&#45;&gt;Node6 -->
<g id="edge76" class="edge">
<title>Node39&#45;&gt;Node6</title>
<path fill="none" stroke="midnightblue" d="M472.25,-336.42C573.37,-308.68 891.63,-221.36 1005.22,-190.19"/>
<polygon fill="midnightblue" stroke="midnightblue" points="1006.22,-193.55 1014.93,-187.52 1004.36,-186.79 1006.22,-193.55"/>
</g>
<!-- Node39&#45;&gt;Node8 -->
<g id="edge75" class="edge">
<title>Node39&#45;&gt;Node8</title>
<path fill="none" stroke="midnightblue" d="M464.62,-336.48C500.59,-321.79 565,-288.09 565,-235 565,-235 565,-235 565,-121 565,-78.5 605.91,-43.77 633.17,-25.34"/>
<polygon fill="midnightblue" stroke="midnightblue" points="635.33,-28.11 641.81,-19.73 631.51,-22.24 635.33,-28.11"/>
</g>
<!-- Node39&#45;&gt;Node10 -->
<g id="edge77" class="edge">
<title>Node39&#45;&gt;Node10</title>
<path fill="none" stroke="midnightblue" d="M495.27,-337.05C498.22,-336.68 501.15,-336.33 504,-336 686.6,-314.99 733.55,-322.35 916,-300 917.26,-299.85 918.53,-299.68 919.82,-299.52"/>
<polygon fill="midnightblue" stroke="midnightblue" points="920.35,-302.98 929.78,-298.15 919.4,-296.04 920.35,-302.98"/>
</g>
<!-- Node40&#45;&gt;Node15 -->
<g id="edge79" class="edge">
<title>Node40&#45;&gt;Node15</title>
<path fill="none" stroke="midnightblue" d="M1384.47,-392.41C1402.93,-379.58 1432.09,-354.93 1416,-336 1389.53,-304.87 1278.54,-295.22 1205.62,-292.26"/>
<polygon fill="midnightblue" stroke="midnightblue" points="1205.72,-288.77 1195.6,-291.89 1205.46,-295.76 1205.72,-288.77"/>
</g>
</g>
</svg>
