<?xml version="1.0" encoding="UTF-8" standalone="no"?>
<!DOCTYPE svg PUBLIC "-//W3C//DTD SVG 1.1//EN"
 "http://www.w3.org/Graphics/SVG/1.1/DTD/svg11.dtd">
<!-- Generated by graphviz version 2.44.0 ()
 -->
<!-- Title: libs/spic&#45;engine/includes/spic&#45;api&#45;headers/EngineConfig.hpp Pages: 1 -->
<!--zoomable 240 -->
<svg id="main" version="1.1" xmlns="http://www.w3.org/2000/svg" xmlns:xlink="http://www.w3.org/1999/xlink" xml:space="preserve" onload="init(evt)">
<style type="text/css"><![CDATA[
.edge:hover path { stroke: red; }
.edge:hover polygon { stroke: red; fill: red; }
]]></style>
<script type="text/javascript"><![CDATA[
var edges = document.getElementsByTagName('g');
if (edges && edges.length) {
  for (var i=0;i<edges.length;i++) {
    if (edges[i].id.substr(0,4)=='edge') {
      edges[i].setAttribute('class','edge');
    }
  }
}
]]></script>
        <defs>
                <circle id="rim" cx="0" cy="0" r="7"/>
                <circle id="rim2" cx="0" cy="0" r="3.5"/>
                <g id="zoomPlus">
                        <use xlink:href="#rim" fill="#404040">
                                <set attributeName="fill" to="#808080" begin="zoomplus.mouseover" end="zoomplus.mouseout"/>
                        </use>
                        <path d="M-4,0h8M0,-4v8" fill="none" stroke="white" stroke-width="1.5" pointer-events="none"/>
                </g>
                <g id="zoomMin">
                        <use xlink:href="#rim" fill="#404040">
                                <set attributeName="fill" to="#808080" begin="zoomminus.mouseover" end="zoomminus.mouseout"/>
                        </use>
                        <path d="M-4,0h8" fill="none" stroke="white" stroke-width="1.5" pointer-events="none"/>
                </g>
                <g id="dirArrow">
                        <path fill="none" stroke="white" stroke-width="1.5" d="M0,-3.0v7 M-2.5,-0.5L0,-3.0L2.5,-0.5"/>
                </g>
               <g id="resetDef">
                       <use xlink:href="#rim2" fill="#404040">
                               <set attributeName="fill" to="#808080" begin="reset.mouseover" end="reset.mouseout"/>
                       </use>
               </g>
        </defs>

<script type="text/javascript">
var viewWidth = 5231;
var viewHeight = 240;
var sectionId = 'dynsection-1';
</script>
<script xlink:href="svgpan.js"/>
<svg id="graph" class="graph">
<g id="viewport">
<title>libs/spic&#45;engine/includes/spic&#45;api&#45;headers/EngineConfig.hpp</title>
<!-- Node1 -->
<g id="node1" class="node">
<title>Node1</title>
<g id="a_node1"><a xlink:title=" ">
<polygon fill="#bfbfbf" stroke="black" points="1218,-201.5 1218,-231.5 1386,-231.5 1386,-201.5 1218,-201.5"/>
<text text-anchor="start" x="1226" y="-219.5" font-family="Helvetica,sans-Serif" font-size="10.00">libs/spic&#45;engine/includes</text>
<text text-anchor="middle" x="1302" y="-208.5" font-family="Helvetica,sans-Serif" font-size="10.00">/spic&#45;api&#45;headers/EngineConfig.hpp</text>
</a>
</g>
</g>
<!-- Node2 -->
<g id="node2" class="node">
<title>Node2</title>
<g id="a_node2"><a xlink:href="Api_8hpp.html" target="_top" xlink:title=" ">
<polygon fill="none" stroke="black" points="88,-62 88,-92 214,-92 214,-62 88,-62"/>
<text text-anchor="start" x="96" y="-80" font-family="Helvetica,sans-Serif" font-size="10.00">libs/spic&#45;engine/includes</text>
<text text-anchor="middle" x="151" y="-69" font-family="Helvetica,sans-Serif" font-size="10.00">/spic&#45;api&#45;headers/Api.hpp</text>
</a>
</g>
</g>
<!-- Node1&#45;&gt;Node2 -->
<g id="edge1" class="edge">
<title>Node1&#45;&gt;Node2</title>
<path fill="none" stroke="midnightblue" d="M1207.55,-210.39C1018.98,-199.05 583.01,-167.13 223,-98 214.59,-96.39 205.73,-94.27 197.21,-92.03"/>
<polygon fill="midnightblue" stroke="midnightblue" points="1207.52,-213.89 1217.71,-210.99 1207.93,-206.9 1207.52,-213.89"/>
</g>
<!-- Node5 -->
<g id="node5" class="node">
<title>Node5</title>
<g id="a_node5"><a xlink:href="Engine_8hpp.html" target="_top" xlink:title=" ">
<polygon fill="none" stroke="black" points="2382.5,-134.5 2382.5,-164.5 2523.5,-164.5 2523.5,-134.5 2382.5,-134.5"/>
<text text-anchor="start" x="2390.5" y="-152.5" font-family="Helvetica,sans-Serif" font-size="10.00">libs/spic&#45;engine/includes</text>
<text text-anchor="middle" x="2453" y="-141.5" font-family="Helvetica,sans-Serif" font-size="10.00">/spic&#45;api&#45;headers/Engine.hpp</text>
</a>
</g>
</g>
<!-- Node1&#45;&gt;Node5 -->
<g id="edge4" class="edge">
<title>Node1&#45;&gt;Node5</title>
<path fill="none" stroke="midnightblue" d="M1396.29,-210.18C1620.96,-197.49 2183.95,-165.69 2382.41,-154.49"/>
<polygon fill="midnightblue" stroke="midnightblue" points="1395.96,-206.69 1386.17,-210.75 1396.35,-213.68 1395.96,-206.69"/>
</g>
<!-- Node3 -->
<g id="node3" class="node">
<title>Node3</title>
<g id="a_node3"><a xlink:href="LevelController_8cpp.html" target="_top" xlink:title=" ">
<polygon fill="none" stroke="black" points="0,-0.5 0,-19.5 166,-19.5 166,-0.5 0,-0.5"/>
<text text-anchor="middle" x="83" y="-7.5" font-family="Helvetica,sans-Serif" font-size="10.00">src/Controllers/LevelController.cpp</text>
</a>
</g>
</g>
<!-- Node2&#45;&gt;Node3 -->
<g id="edge2" class="edge">
<title>Node2&#45;&gt;Node3</title>
<path fill="none" stroke="midnightblue" d="M128.86,-54.84C116.37,-42.9 101.45,-28.64 92.1,-19.69"/>
<polygon fill="midnightblue" stroke="midnightblue" points="126.6,-57.52 136.25,-61.9 131.43,-52.46 126.6,-57.52"/>
</g>
<!-- Node4 -->
<g id="node4" class="node">
<title>Node4</title>
<g id="a_node4"><a xlink:href="main_8cpp.html" target="_top" xlink:title=" ">
<polygon fill="none" stroke="black" points="184,-0.5 184,-19.5 256,-19.5 256,-0.5 184,-0.5"/>
<text text-anchor="middle" x="220" y="-7.5" font-family="Helvetica,sans-Serif" font-size="10.00">src/main.cpp</text>
</a>
</g>
</g>
<!-- Node2&#45;&gt;Node4 -->
<g id="edge3" class="edge">
<title>Node2&#45;&gt;Node4</title>
<path fill="none" stroke="midnightblue" d="M173.47,-54.84C186.14,-42.9 201.28,-28.64 210.77,-19.69"/>
<polygon fill="midnightblue" stroke="midnightblue" points="170.85,-52.49 165.97,-61.9 175.65,-57.59 170.85,-52.49"/>
</g>
<!-- Node5&#45;&gt;Node2 -->
<g id="edge36" class="edge">
<title>Node5&#45;&gt;Node2</title>
<path fill="none" stroke="midnightblue" d="M2372.14,-147.23C1984.55,-141.08 331.16,-113.99 223,-98 213.76,-96.63 204.02,-94.45 194.8,-92.03"/>
<polygon fill="midnightblue" stroke="midnightblue" points="2372.37,-150.74 2382.42,-147.39 2372.48,-143.74 2372.37,-150.74"/>
</g>
<!-- Node6 -->
<g id="node6" class="node">
<title>Node6</title>
<g id="a_node6"><a xlink:href="BulletFactory_8cpp.html" target="_top" xlink:title=" ">
<polygon fill="none" stroke="black" points="232,-67.5 232,-86.5 384,-86.5 384,-67.5 232,-67.5"/>
<text text-anchor="middle" x="308" y="-74.5" font-family="Helvetica,sans-Serif" font-size="10.00">src/Factories/BulletFactory.cpp</text>
</a>
</g>
</g>
<!-- Node5&#45;&gt;Node6 -->
<g id="edge5" class="edge">
<title>Node5&#45;&gt;Node6</title>
<path fill="none" stroke="midnightblue" d="M2372.22,-147.51C2015.65,-142.99 591.41,-123.5 393,-98 374.35,-95.6 353.83,-90.84 337.62,-86.56"/>
<polygon fill="midnightblue" stroke="midnightblue" points="2372.42,-151.01 2382.46,-147.64 2372.5,-144.01 2372.42,-151.01"/>
</g>
<!-- Node7 -->
<g id="node7" class="node">
<title>Node7</title>
<g id="a_node7"><a xlink:href="ButtonPrefabFactory_8cpp.html" target="_top" xlink:title=" ">
<polygon fill="none" stroke="black" points="402,-62 402,-92 536,-92 536,-62 402,-62"/>
<text text-anchor="start" x="410" y="-80" font-family="Helvetica,sans-Serif" font-size="10.00">src/Factories/ButtonPrefab</text>
<text text-anchor="middle" x="469" y="-69" font-family="Helvetica,sans-Serif" font-size="10.00">Factory.cpp</text>
</a>
</g>
</g>
<!-- Node5&#45;&gt;Node7 -->
<g id="edge6" class="edge">
<title>Node5&#45;&gt;Node7</title>
<path fill="none" stroke="midnightblue" d="M2372.34,-147.46C2032.62,-142.95 727.37,-124.05 545,-98 535.41,-96.63 525.29,-94.48 515.68,-92.09"/>
<polygon fill="midnightblue" stroke="midnightblue" points="2372.3,-150.96 2382.35,-147.6 2372.4,-143.96 2372.3,-150.96"/>
</g>
<!-- Node8 -->
<g id="node8" class="node">
<title>Node8</title>
<g id="a_node8"><a xlink:href="CameraPrefabFactory_8cpp.html" target="_top" xlink:title=" ">
<polygon fill="none" stroke="black" points="554.5,-62 554.5,-92 693.5,-92 693.5,-62 554.5,-62"/>
<text text-anchor="start" x="562.5" y="-80" font-family="Helvetica,sans-Serif" font-size="10.00">src/Factories/CameraPrefab</text>
<text text-anchor="middle" x="624" y="-69" font-family="Helvetica,sans-Serif" font-size="10.00">Factory.cpp</text>
</a>
</g>
</g>
<!-- Node5&#45;&gt;Node8 -->
<g id="edge7" class="edge">
<title>Node5&#45;&gt;Node8</title>
<path fill="none" stroke="midnightblue" d="M2372.15,-148.52C2073.35,-148.21 1031.75,-143.79 703,-98 693.05,-96.61 682.54,-94.46 672.55,-92.07"/>
<polygon fill="midnightblue" stroke="midnightblue" points="2372.46,-152.02 2382.46,-148.52 2372.47,-145.02 2372.46,-152.02"/>
</g>
<!-- Node9 -->
<g id="node9" class="node">
<title>Node9</title>
<g id="a_node9"><a xlink:href="GameOverScene_8cpp.html" target="_top" xlink:title=" ">
<polygon fill="none" stroke="black" points="712,-67.5 712,-86.5 874,-86.5 874,-67.5 712,-67.5"/>
<text text-anchor="middle" x="793" y="-74.5" font-family="Helvetica,sans-Serif" font-size="10.00">src/Scenes/GameOverScene.cpp</text>
</a>
</g>
</g>
<!-- Node5&#45;&gt;Node9 -->
<g id="edge8" class="edge">
<title>Node5&#45;&gt;Node9</title>
<path fill="none" stroke="midnightblue" d="M2372.18,-147.89C2093.75,-145.48 1175.49,-134.88 883,-98 863.47,-95.54 841.93,-90.82 824.82,-86.59"/>
<polygon fill="midnightblue" stroke="midnightblue" points="2372.17,-151.39 2382.2,-147.98 2372.23,-144.39 2372.17,-151.39"/>
</g>
<!-- Node10 -->
<g id="node10" class="node">
<title>Node10</title>
<g id="a_node10"><a xlink:href="LevelSelectionScene_8cpp.html" target="_top" xlink:title=" ">
<polygon fill="none" stroke="black" points="892,-62 892,-92 1026,-92 1026,-62 892,-62"/>
<text text-anchor="start" x="900" y="-80" font-family="Helvetica,sans-Serif" font-size="10.00">src/Scenes/LevelSelection</text>
<text text-anchor="middle" x="959" y="-69" font-family="Helvetica,sans-Serif" font-size="10.00">Scene.cpp</text>
</a>
</g>
</g>
<!-- Node5&#45;&gt;Node10 -->
<g id="edge9" class="edge">
<title>Node5&#45;&gt;Node10</title>
<path fill="none" stroke="midnightblue" d="M2372.13,-147.97C2111.57,-145.91 1295.78,-136.47 1035,-98 1025.42,-96.59 1015.3,-94.42 1005.69,-92.02"/>
<polygon fill="midnightblue" stroke="midnightblue" points="2372.25,-151.48 2382.28,-148.05 2372.31,-144.48 2372.25,-151.48"/>
</g>
<!-- Node11 -->
<g id="node11" class="node">
<title>Node11</title>
<g id="a_node11"><a xlink:href="LoadingScene_8cpp.html" target="_top" xlink:title=" ">
<polygon fill="none" stroke="black" points="1044.5,-67.5 1044.5,-86.5 1193.5,-86.5 1193.5,-67.5 1044.5,-67.5"/>
<text text-anchor="middle" x="1119" y="-74.5" font-family="Helvetica,sans-Serif" font-size="10.00">src/Scenes/LoadingScene.cpp</text>
</a>
</g>
</g>
<!-- Node5&#45;&gt;Node11 -->
<g id="edge10" class="edge">
<title>Node5&#45;&gt;Node11</title>
<path fill="none" stroke="midnightblue" d="M2372.48,-147.28C2133.41,-143.34 1430.22,-129.34 1203,-98 1184.73,-95.48 1164.63,-90.77 1148.67,-86.55"/>
<polygon fill="midnightblue" stroke="midnightblue" points="2372.44,-150.78 2382.5,-147.45 2372.55,-143.78 2372.44,-150.78"/>
</g>
<!-- Node12 -->
<g id="node12" class="node">
<title>Node12</title>
<g id="a_node12"><a xlink:href="MainScene_8cpp.html" target="_top" xlink:title=" ">
<polygon fill="none" stroke="black" points="1212,-67.5 1212,-86.5 1348,-86.5 1348,-67.5 1212,-67.5"/>
<text text-anchor="middle" x="1280" y="-74.5" font-family="Helvetica,sans-Serif" font-size="10.00">src/Scenes/MainScene.cpp</text>
</a>
</g>
</g>
<!-- Node5&#45;&gt;Node12 -->
<g id="edge11" class="edge">
<title>Node5&#45;&gt;Node12</title>
<path fill="none" stroke="midnightblue" d="M2372.35,-146.96C2153.69,-142.44 1552.82,-127.61 1357,-98 1340.2,-95.46 1321.77,-90.74 1307.15,-86.53"/>
<polygon fill="midnightblue" stroke="midnightblue" points="2372.4,-150.46 2382.47,-147.17 2372.55,-143.46 2372.4,-150.46"/>
</g>
<!-- Node13 -->
<g id="node13" class="node">
<title>Node13</title>
<g id="a_node13"><a xlink:href="PauseScene_8cpp.html" target="_top" xlink:title=" ">
<polygon fill="none" stroke="black" points="1366.5,-67.5 1366.5,-86.5 1509.5,-86.5 1509.5,-67.5 1366.5,-67.5"/>
<text text-anchor="middle" x="1438" y="-74.5" font-family="Helvetica,sans-Serif" font-size="10.00">src/Scenes/PauseScene.cpp</text>
</a>
</g>
</g>
<!-- Node5&#45;&gt;Node13 -->
<g id="edge12" class="edge">
<title>Node5&#45;&gt;Node13</title>
<path fill="none" stroke="midnightblue" d="M2371.84,-149.22C2209.11,-149.55 1831.75,-144.64 1519,-98 1501.52,-95.39 1482.31,-90.73 1466.98,-86.56"/>
<polygon fill="midnightblue" stroke="midnightblue" points="2372.25,-152.72 2382.24,-149.19 2372.23,-145.72 2372.25,-152.72"/>
</g>
<!-- Node14 -->
<g id="node14" class="node">
<title>Node14</title>
<g id="a_node14"><a xlink:href="SaveSelectionScene_8cpp.html" target="_top" xlink:title=" ">
<polygon fill="none" stroke="black" points="1528,-62 1528,-92 1660,-92 1660,-62 1528,-62"/>
<text text-anchor="start" x="1536" y="-80" font-family="Helvetica,sans-Serif" font-size="10.00">src/Scenes/SaveSelection</text>
<text text-anchor="middle" x="1594" y="-69" font-family="Helvetica,sans-Serif" font-size="10.00">Scene.cpp</text>
</a>
</g>
</g>
<!-- Node5&#45;&gt;Node14 -->
<g id="edge13" class="edge">
<title>Node5&#45;&gt;Node14</title>
<path fill="none" stroke="midnightblue" d="M2372.05,-148.5C2229.15,-147.34 1923.25,-139.67 1669,-98 1659.82,-96.5 1650.15,-94.35 1640.9,-92.02"/>
<polygon fill="midnightblue" stroke="midnightblue" points="2372.44,-152 2382.47,-148.57 2372.49,-145 2372.44,-152"/>
</g>
<!-- Node15 -->
<g id="node15" class="node">
<title>Node15</title>
<g id="a_node15"><a xlink:href="VictoryScene_8cpp.html" target="_top" xlink:title=" ">
<polygon fill="none" stroke="black" points="1678.5,-67.5 1678.5,-86.5 1823.5,-86.5 1823.5,-67.5 1678.5,-67.5"/>
<text text-anchor="middle" x="1751" y="-74.5" font-family="Helvetica,sans-Serif" font-size="10.00">src/Scenes/VictoryScene.cpp</text>
</a>
</g>
</g>
<!-- Node5&#45;&gt;Node15 -->
<g id="edge14" class="edge">
<title>Node5&#45;&gt;Node15</title>
<path fill="none" stroke="midnightblue" d="M2372.26,-145.99C2253.47,-141.38 2024.9,-129.02 1833,-98 1815.64,-95.19 1796.54,-90.62 1781.14,-86.56"/>
<polygon fill="midnightblue" stroke="midnightblue" points="2372.24,-149.49 2382.36,-146.38 2372.5,-142.5 2372.24,-149.49"/>
</g>
<!-- Node16 -->
<g id="node16" class="node">
<title>Node16</title>
<g id="a_node16"><a xlink:href="AttackBehaviour_8cpp.html" target="_top" xlink:title=" ">
<polygon fill="none" stroke="black" points="1842,-62 1842,-92 1952,-92 1952,-62 1842,-62"/>
<text text-anchor="start" x="1850" y="-80" font-family="Helvetica,sans-Serif" font-size="10.00">src/Scripts/Common</text>
<text text-anchor="middle" x="1897" y="-69" font-family="Helvetica,sans-Serif" font-size="10.00">/AttackBehaviour.cpp</text>
</a>
</g>
</g>
<!-- Node5&#45;&gt;Node16 -->
<g id="edge15" class="edge">
<title>Node5&#45;&gt;Node16</title>
<path fill="none" stroke="midnightblue" d="M2372.12,-145.17C2274,-140 2103.97,-127.37 1961,-98 1953.36,-96.43 1945.34,-94.31 1937.65,-92.04"/>
<polygon fill="midnightblue" stroke="midnightblue" points="2372.09,-148.68 2382.26,-145.7 2372.45,-141.69 2372.09,-148.68"/>
</g>
<!-- Node17 -->
<g id="node17" class="node">
<title>Node17</title>
<g id="a_node17"><a xlink:href="CheatManager_8cpp.html" target="_top" xlink:title=" ">
<polygon fill="none" stroke="black" points="1970,-62 1970,-92 2076,-92 2076,-62 1970,-62"/>
<text text-anchor="start" x="1978" y="-80" font-family="Helvetica,sans-Serif" font-size="10.00">src/Scripts/Common</text>
<text text-anchor="middle" x="2023" y="-69" font-family="Helvetica,sans-Serif" font-size="10.00">/CheatManager.cpp</text>
</a>
</g>
</g>
<!-- Node5&#45;&gt;Node17 -->
<g id="edge16" class="edge">
<title>Node5&#45;&gt;Node17</title>
<path fill="none" stroke="midnightblue" d="M2372.15,-141.53C2297.1,-134.08 2182.58,-120.25 2085,-98 2077.83,-96.37 2070.31,-94.27 2063.07,-92.06"/>
<polygon fill="midnightblue" stroke="midnightblue" points="2372.18,-145.05 2382.48,-142.54 2372.86,-138.08 2372.18,-145.05"/>
</g>
<!-- Node18 -->
<g id="node18" class="node">
<title>Node18</title>
<g id="a_node18"><a xlink:href="GameLostBehaviour_8cpp.html" target="_top" xlink:title=" ">
<polygon fill="none" stroke="black" points="2094.5,-62 2094.5,-92 2221.5,-92 2221.5,-62 2094.5,-62"/>
<text text-anchor="start" x="2102.5" y="-80" font-family="Helvetica,sans-Serif" font-size="10.00">src/Scripts/Common</text>
<text text-anchor="middle" x="2158" y="-69" font-family="Helvetica,sans-Serif" font-size="10.00">/GameLostBehaviour.cpp</text>
</a>
</g>
</g>
<!-- Node5&#45;&gt;Node18 -->
<g id="edge17" class="edge">
<title>Node5&#45;&gt;Node18</title>
<path fill="none" stroke="midnightblue" d="M2377.06,-132.26C2333.83,-122.77 2278.75,-110.28 2230,-98 2222.7,-96.16 2215.02,-94.13 2207.49,-92.09"/>
<polygon fill="midnightblue" stroke="midnightblue" points="2376.42,-135.7 2386.94,-134.42 2377.92,-128.86 2376.42,-135.7"/>
</g>
<!-- Node19 -->
<g id="node19" class="node">
<title>Node19</title>
<g id="a_node19"><a xlink:href="GameWonBehaviour_8cpp.html" target="_top" xlink:title=" ">
<polygon fill="none" stroke="black" points="2239.5,-62 2239.5,-92 2366.5,-92 2366.5,-62 2239.5,-62"/>
<text text-anchor="start" x="2247.5" y="-80" font-family="Helvetica,sans-Serif" font-size="10.00">src/Scripts/Common</text>
<text text-anchor="middle" x="2303" y="-69" font-family="Helvetica,sans-Serif" font-size="10.00">/GameWonBehaviour.cpp</text>
</a>
</g>
</g>
<!-- Node5&#45;&gt;Node19 -->
<g id="edge18" class="edge">
<title>Node5&#45;&gt;Node19</title>
<path fill="none" stroke="midnightblue" d="M2413.7,-130.03C2388.44,-118.16 2356.13,-102.97 2332.94,-92.07"/>
<polygon fill="midnightblue" stroke="midnightblue" points="2412.47,-133.32 2423.01,-134.4 2415.44,-126.98 2412.47,-133.32"/>
</g>
<!-- Node20 -->
<g id="node20" class="node">
<title>Node20</title>
<g id="a_node20"><a xlink:href="EnemyMedicBehaviour_8cpp.html" target="_top" xlink:title=" ">
<polygon fill="none" stroke="black" points="2384.5,-62 2384.5,-92 2521.5,-92 2521.5,-62 2384.5,-62"/>
<text text-anchor="start" x="2392.5" y="-80" font-family="Helvetica,sans-Serif" font-size="10.00">src/Scripts/Enemies</text>
<text text-anchor="middle" x="2453" y="-69" font-family="Helvetica,sans-Serif" font-size="10.00">/EnemyMedicBehaviour.cpp</text>
</a>
</g>
</g>
<!-- Node5&#45;&gt;Node20 -->
<g id="edge19" class="edge">
<title>Node5&#45;&gt;Node20</title>
<path fill="none" stroke="midnightblue" d="M2453,-124.23C2453,-113.57 2453,-101.41 2453,-92.25"/>
<polygon fill="midnightblue" stroke="midnightblue" points="2449.5,-124.23 2453,-134.23 2456.5,-124.23 2449.5,-124.23"/>
</g>
<!-- Node21 -->
<g id="node21" class="node">
<title>Node21</title>
<g id="a_node21"><a xlink:href="EnemySpeedBoostBehaviour_8cpp.html" target="_top" xlink:title=" ">
<polygon fill="none" stroke="black" points="2540,-62 2540,-92 2704,-92 2704,-62 2540,-62"/>
<text text-anchor="start" x="2548" y="-80" font-family="Helvetica,sans-Serif" font-size="10.00">src/Scripts/Enemies</text>
<text text-anchor="middle" x="2622" y="-69" font-family="Helvetica,sans-Serif" font-size="10.00">/EnemySpeedBoostBehaviour.cpp</text>
</a>
</g>
</g>
<!-- Node5&#45;&gt;Node21 -->
<g id="edge20" class="edge">
<title>Node5&#45;&gt;Node21</title>
<path fill="none" stroke="midnightblue" d="M2496.15,-130.5C2524.77,-118.56 2561.8,-103.11 2588.27,-92.07"/>
<polygon fill="midnightblue" stroke="midnightblue" points="2494.68,-127.32 2486.79,-134.4 2497.37,-133.78 2494.68,-127.32"/>
</g>
<!-- Node22 -->
<g id="node22" class="node">
<title>Node22</title>
<g id="a_node22"><a xlink:href="EnemyTroopTruckBehaviour_8cpp.html" target="_top" xlink:title=" ">
<polygon fill="none" stroke="black" points="2722,-62 2722,-92 2882,-92 2882,-62 2722,-62"/>
<text text-anchor="start" x="2730" y="-80" font-family="Helvetica,sans-Serif" font-size="10.00">src/Scripts/Enemies</text>
<text text-anchor="middle" x="2802" y="-69" font-family="Helvetica,sans-Serif" font-size="10.00">/EnemyTroopTruckBehaviour.cpp</text>
</a>
</g>
</g>
<!-- Node5&#45;&gt;Node22 -->
<g id="edge21" class="edge">
<title>Node5&#45;&gt;Node22</title>
<path fill="none" stroke="midnightblue" d="M2533.79,-133.44C2585.18,-123.7 2653.09,-110.55 2713,-98 2721.99,-96.12 2731.48,-94.06 2740.77,-92.01"/>
<polygon fill="midnightblue" stroke="midnightblue" points="2532.91,-130.04 2523.74,-135.34 2534.21,-136.92 2532.91,-130.04"/>
</g>
<!-- Node23 -->
<g id="node23" class="node">
<title>Node23</title>
<g id="a_node23"><a xlink:href="AirstrikeAbilityBehaviour_8cpp.html" target="_top" xlink:title=" ">
<polygon fill="none" stroke="black" points="2900.5,-62 2900.5,-92 3043.5,-92 3043.5,-62 2900.5,-62"/>
<text text-anchor="start" x="2908.5" y="-80" font-family="Helvetica,sans-Serif" font-size="10.00">src/Scripts/Heroes</text>
<text text-anchor="middle" x="2972" y="-69" font-family="Helvetica,sans-Serif" font-size="10.00">/AirstrikeAbilityBehaviour.cpp</text>
</a>
</g>
</g>
<!-- Node5&#45;&gt;Node23 -->
<g id="edge22" class="edge">
<title>Node5&#45;&gt;Node23</title>
<path fill="none" stroke="midnightblue" d="M2533.78,-142.29C2622.01,-134.78 2767.27,-120.31 2891,-98 2900.12,-96.35 2909.75,-94.28 2919.05,-92.1"/>
<polygon fill="midnightblue" stroke="midnightblue" points="2533.25,-138.82 2523.57,-143.15 2533.83,-145.8 2533.25,-138.82"/>
</g>
<!-- Node24 -->
<g id="node24" class="node">
<title>Node24</title>
<g id="a_node24"><a xlink:href="EnemySuicideAbilityBehaviour_8cpp.html" target="_top" xlink:title=" ">
<polygon fill="none" stroke="black" points="3061.5,-62 3061.5,-92 3230.5,-92 3230.5,-62 3061.5,-62"/>
<text text-anchor="start" x="3069.5" y="-80" font-family="Helvetica,sans-Serif" font-size="10.00">src/Scripts/Heroes</text>
<text text-anchor="middle" x="3146" y="-69" font-family="Helvetica,sans-Serif" font-size="10.00">/EnemySuicideAbilityBehaviour.cpp</text>
</a>
</g>
</g>
<!-- Node5&#45;&gt;Node24 -->
<g id="edge23" class="edge">
<title>Node5&#45;&gt;Node24</title>
<path fill="none" stroke="midnightblue" d="M2533.72,-144.99C2649.28,-139.22 2868.33,-125.51 3053,-98 3063.78,-96.39 3075.18,-94.29 3086.17,-92.04"/>
<polygon fill="midnightblue" stroke="midnightblue" points="2533.36,-141.5 2523.54,-145.49 2533.7,-148.49 2533.36,-141.5"/>
</g>
<!-- Node25 -->
<g id="node25" class="node">
<title>Node25</title>
<g id="a_node25"><a xlink:href="IncreaseTowerFireRateAbilityBehaviour_8cpp.html" target="_top" xlink:title=" ">
<polygon fill="none" stroke="black" points="3248.5,-56.5 3248.5,-97.5 3395.5,-97.5 3395.5,-56.5 3248.5,-56.5"/>
<text text-anchor="start" x="3256.5" y="-85.5" font-family="Helvetica,sans-Serif" font-size="10.00">src/Scripts/Heroes</text>
<text text-anchor="start" x="3256.5" y="-74.5" font-family="Helvetica,sans-Serif" font-size="10.00">/IncreaseTowerFireRateAbility</text>
<text text-anchor="middle" x="3322" y="-63.5" font-family="Helvetica,sans-Serif" font-size="10.00">Behaviour.cpp</text>
</a>
</g>
</g>
<!-- Node5&#45;&gt;Node25 -->
<g id="edge24" class="edge">
<title>Node5&#45;&gt;Node25</title>
<path fill="none" stroke="midnightblue" d="M2533.74,-147.97C2676.86,-146 2984.09,-137.11 3240,-98 3242.75,-97.58 3245.55,-97.11 3248.36,-96.6"/>
<polygon fill="midnightblue" stroke="midnightblue" points="2533.68,-144.47 2523.72,-148.1 2533.77,-151.47 2533.68,-144.47"/>
</g>
<!-- Node26 -->
<g id="node26" class="node">
<title>Node26</title>
<g id="a_node26"><a xlink:href="IncreaseTowerRangeAbilityBehaviour_8cpp.html" target="_top" xlink:title=" ">
<polygon fill="none" stroke="black" points="3414,-56.5 3414,-97.5 3552,-97.5 3552,-56.5 3414,-56.5"/>
<text text-anchor="start" x="3422" y="-85.5" font-family="Helvetica,sans-Serif" font-size="10.00">src/Scripts/Heroes</text>
<text text-anchor="start" x="3422" y="-74.5" font-family="Helvetica,sans-Serif" font-size="10.00">/IncreaseTowerRangeAbility</text>
<text text-anchor="middle" x="3483" y="-63.5" font-family="Helvetica,sans-Serif" font-size="10.00">Behaviour.cpp</text>
</a>
</g>
</g>
<!-- Node5&#45;&gt;Node26 -->
<g id="edge25" class="edge">
<title>Node5&#45;&gt;Node26</title>
<path fill="none" stroke="midnightblue" d="M2533.64,-146.28C2731.69,-140.49 3237.96,-123.59 3405,-98 3407.9,-97.56 3410.85,-97.05 3413.82,-96.49"/>
<polygon fill="midnightblue" stroke="midnightblue" points="2533.49,-142.78 2523.6,-146.57 2533.69,-149.78 2533.49,-142.78"/>
</g>
<!-- Node27 -->
<g id="node27" class="node">
<title>Node27</title>
<g id="a_node27"><a xlink:href="InvisibilityAbilityBehaviour_8cpp.html" target="_top" xlink:title=" ">
<polygon fill="none" stroke="black" points="3570,-62 3570,-92 3720,-92 3720,-62 3570,-62"/>
<text text-anchor="start" x="3578" y="-80" font-family="Helvetica,sans-Serif" font-size="10.00">src/Scripts/Heroes</text>
<text text-anchor="middle" x="3645" y="-69" font-family="Helvetica,sans-Serif" font-size="10.00">/InvisibilityAbilityBehaviour.cpp</text>
</a>
</g>
</g>
<!-- Node5&#45;&gt;Node27 -->
<g id="edge26" class="edge">
<title>Node5&#45;&gt;Node27</title>
<path fill="none" stroke="midnightblue" d="M2533.71,-146.79C2754.04,-141.82 3362.5,-125.9 3561,-98 3571.39,-96.54 3582.38,-94.38 3592.86,-92.02"/>
<polygon fill="midnightblue" stroke="midnightblue" points="2533.44,-143.3 2523.52,-147.02 2533.6,-150.3 2533.44,-143.3"/>
</g>
<!-- Node28 -->
<g id="node28" class="node">
<title>Node28</title>
<g id="a_node28"><a xlink:href="UserAttackBehaviour_8cpp.html" target="_top" xlink:title=" ">
<polygon fill="none" stroke="black" points="3738.5,-62 3738.5,-92 3869.5,-92 3869.5,-62 3738.5,-62"/>
<text text-anchor="start" x="3746.5" y="-80" font-family="Helvetica,sans-Serif" font-size="10.00">src/Scripts/Heroes</text>
<text text-anchor="middle" x="3804" y="-69" font-family="Helvetica,sans-Serif" font-size="10.00">/UserAttackBehaviour.cpp</text>
</a>
</g>
</g>
<!-- Node5&#45;&gt;Node28 -->
<g id="edge27" class="edge">
<title>Node5&#45;&gt;Node28</title>
<path fill="none" stroke="midnightblue" d="M2533.95,-147.63C2776.88,-144.67 3497.09,-133.07 3729,-98 3738.33,-96.59 3748.16,-94.46 3757.53,-92.1"/>
<polygon fill="midnightblue" stroke="midnightblue" points="2533.74,-144.14 2523.78,-147.76 2533.83,-151.14 2533.74,-144.14"/>
</g>
<!-- Node29 -->
<g id="node29" class="node">
<title>Node29</title>
<g id="a_node29"><a xlink:href="CloseSceneBehaviour_8cpp.html" target="_top" xlink:title=" ">
<polygon fill="none" stroke="black" points="3888,-62 3888,-92 4034,-92 4034,-62 3888,-62"/>
<text text-anchor="start" x="3896" y="-80" font-family="Helvetica,sans-Serif" font-size="10.00">src/Scripts/Menu/CloseScene</text>
<text text-anchor="middle" x="3961" y="-69" font-family="Helvetica,sans-Serif" font-size="10.00">Behaviour.cpp</text>
</a>
</g>
</g>
<!-- Node5&#45;&gt;Node29 -->
<g id="edge28" class="edge">
<title>Node5&#45;&gt;Node29</title>
<path fill="none" stroke="midnightblue" d="M2533.84,-147.8C2795.3,-145.21 3616.26,-134.31 3879,-98 3889.31,-96.58 3900.2,-94.4 3910.57,-92.01"/>
<polygon fill="midnightblue" stroke="midnightblue" points="2533.63,-144.3 2523.66,-147.9 2533.7,-151.3 2533.63,-144.3"/>
</g>
<!-- Node30 -->
<g id="node30" class="node">
<title>Node30</title>
<g id="a_node30"><a xlink:href="PauseSceneBehaviour_8cpp.html" target="_top" xlink:title=" ">
<polygon fill="none" stroke="black" points="4052.5,-62 4052.5,-92 4201.5,-92 4201.5,-62 4052.5,-62"/>
<text text-anchor="start" x="4060.5" y="-80" font-family="Helvetica,sans-Serif" font-size="10.00">src/Scripts/Menu/PauseScene</text>
<text text-anchor="middle" x="4127" y="-69" font-family="Helvetica,sans-Serif" font-size="10.00">Behaviour.cpp</text>
</a>
</g>
</g>
<!-- Node5&#45;&gt;Node30 -->
<g id="edge29" class="edge">
<title>Node5&#45;&gt;Node30</title>
<path fill="none" stroke="midnightblue" d="M2533.91,-148.09C2814.79,-146.33 3746.73,-137.56 4043,-98 4053.55,-96.59 4064.71,-94.43 4075.33,-92.03"/>
<polygon fill="midnightblue" stroke="midnightblue" points="2533.77,-144.59 2523.8,-148.15 2533.82,-151.59 2533.77,-144.59"/>
</g>
<!-- Node31 -->
<g id="node31" class="node">
<title>Node31</title>
<g id="a_node31"><a xlink:href="Engine_8cpp.html" target="_top" xlink:title=" ">
<polygon fill="none" stroke="black" points="4219.5,-62 4219.5,-92 4320.5,-92 4320.5,-62 4219.5,-62"/>
<text text-anchor="start" x="4227.5" y="-80" font-family="Helvetica,sans-Serif" font-size="10.00">libs/spic&#45;engine/src</text>
<text text-anchor="middle" x="4270" y="-69" font-family="Helvetica,sans-Serif" font-size="10.00">/Api/Engine.cpp</text>
</a>
</g>
</g>
<!-- Node5&#45;&gt;Node31 -->
<g id="edge30" class="edge">
<title>Node5&#45;&gt;Node31</title>
<path fill="none" stroke="midnightblue" d="M2533.93,-147.59C2857.04,-143.77 4045.07,-127.81 4211,-98 4218.66,-96.62 4226.68,-94.44 4234.25,-92.01"/>
<polygon fill="midnightblue" stroke="midnightblue" points="2533.68,-144.09 2523.72,-147.71 2533.76,-151.09 2533.68,-144.09"/>
</g>
<!-- Node32 -->
<g id="node32" class="node">
<title>Node32</title>
<g id="a_node32"><a xlink:href="GameObject_8cpp.html" target="_top" xlink:title=" ">
<polygon fill="none" stroke="black" points="4339,-62 4339,-92 4449,-92 4449,-62 4339,-62"/>
<text text-anchor="start" x="4347" y="-80" font-family="Helvetica,sans-Serif" font-size="10.00">libs/spic&#45;engine/src</text>
<text text-anchor="middle" x="4394" y="-69" font-family="Helvetica,sans-Serif" font-size="10.00">/Api/GameObject.cpp</text>
</a>
</g>
</g>
<!-- Node5&#45;&gt;Node32 -->
<g id="edge31" class="edge">
<title>Node5&#45;&gt;Node32</title>
<path fill="none" stroke="midnightblue" d="M2533.75,-147.64C2870.21,-143.88 4151.47,-127.71 4330,-98 4338.27,-96.62 4346.95,-94.44 4355.15,-92.01"/>
<polygon fill="midnightblue" stroke="midnightblue" points="2533.56,-144.14 2523.6,-147.75 2533.64,-151.14 2533.56,-144.14"/>
</g>
<!-- Node33 -->
<g id="node33" class="node">
<title>Node33</title>
<g id="a_node33"><a xlink:href="AudioSubsystem_8cpp.html" target="_top" xlink:title=" ">
<polygon fill="none" stroke="black" points="4467,-62 4467,-92 4635,-92 4635,-62 4467,-62"/>
<text text-anchor="start" x="4475" y="-80" font-family="Helvetica,sans-Serif" font-size="10.00">libs/spic&#45;engine/src</text>
<text text-anchor="middle" x="4551" y="-69" font-family="Helvetica,sans-Serif" font-size="10.00">/Subsystems/AudioSubsystem.cpp</text>
</a>
</g>
</g>
<!-- Node5&#45;&gt;Node33 -->
<g id="edge32" class="edge">
<title>Node5&#45;&gt;Node33</title>
<path fill="none" stroke="midnightblue" d="M2533.87,-148.48C2859.56,-148.07 4075.98,-143.48 4458,-98 4469.64,-96.61 4481.98,-94.46 4493.73,-92.07"/>
<polygon fill="midnightblue" stroke="midnightblue" points="2533.57,-144.98 2523.58,-148.49 2533.58,-151.98 2533.57,-144.98"/>
</g>
<!-- Node34 -->
<g id="node34" class="node">
<title>Node34</title>
<g id="a_node34"><a xlink:href="FpsCounterSubsystem_8cpp.html" target="_top" xlink:title=" ">
<polygon fill="none" stroke="black" points="4653,-62 4653,-92 4847,-92 4847,-62 4653,-62"/>
<text text-anchor="start" x="4661" y="-80" font-family="Helvetica,sans-Serif" font-size="10.00">libs/spic&#45;engine/src</text>
<text text-anchor="middle" x="4750" y="-69" font-family="Helvetica,sans-Serif" font-size="10.00">/Subsystems/FpsCounterSubsystem.cpp</text>
</a>
</g>
</g>
<!-- Node5&#45;&gt;Node34 -->
<g id="edge33" class="edge">
<title>Node5&#45;&gt;Node34</title>
<path fill="none" stroke="midnightblue" d="M2533.82,-148.41C2877.98,-147.74 4222.92,-142.28 4644,-98 4657.32,-96.6 4671.46,-94.42 4684.94,-92.01"/>
<polygon fill="midnightblue" stroke="midnightblue" points="2533.69,-144.91 2523.69,-148.43 2533.7,-151.91 2533.69,-144.91"/>
</g>
<!-- Node35 -->
<g id="node35" class="node">
<title>Node35</title>
<g id="a_node35"><a xlink:href="InputSubsystem_8cpp.html" target="_top" xlink:title=" ">
<polygon fill="none" stroke="black" points="4865.5,-62 4865.5,-92 5030.5,-92 5030.5,-62 4865.5,-62"/>
<text text-anchor="start" x="4873.5" y="-80" font-family="Helvetica,sans-Serif" font-size="10.00">libs/spic&#45;engine/src</text>
<text text-anchor="middle" x="4948" y="-69" font-family="Helvetica,sans-Serif" font-size="10.00">/Subsystems/InputSubsystem.cpp</text>
</a>
</g>
</g>
<!-- Node5&#45;&gt;Node35 -->
<g id="edge34" class="edge">
<title>Node5&#45;&gt;Node35</title>
<path fill="none" stroke="midnightblue" d="M2533.73,-148.9C2898.07,-150.36 4391.54,-152.84 4856,-98 4867.69,-96.62 4880.08,-94.43 4891.85,-92"/>
<polygon fill="midnightblue" stroke="midnightblue" points="2533.55,-145.4 2523.54,-148.85 2533.52,-152.4 2533.55,-145.4"/>
</g>
<!-- Node36 -->
<g id="node36" class="node">
<title>Node36</title>
<g id="a_node36"><a xlink:href="RenderSubsystem_8cpp.html" target="_top" xlink:title=" ">
<polygon fill="none" stroke="black" points="5049,-62 5049,-92 5223,-92 5223,-62 5049,-62"/>
<text text-anchor="start" x="5057" y="-80" font-family="Helvetica,sans-Serif" font-size="10.00">libs/spic&#45;engine/src</text>
<text text-anchor="middle" x="5136" y="-69" font-family="Helvetica,sans-Serif" font-size="10.00">/Subsystems/RenderSubsystem.cpp</text>
</a>
</g>
</g>
<!-- Node5&#45;&gt;Node36 -->
<g id="edge35" class="edge">
<title>Node5&#45;&gt;Node36</title>
<path fill="none" stroke="midnightblue" d="M2534.07,-147.81C2944.81,-144.22 4786.42,-126.64 5040,-98 5052.18,-96.62 5065.1,-94.44 5077.39,-92.01"/>
<polygon fill="midnightblue" stroke="midnightblue" points="2533.74,-144.32 2523.77,-147.9 2533.8,-151.32 2533.74,-144.32"/>
</g>
</g>
</svg>
        <g id="navigator" transform="translate(0 0)" fill="#404254">
                <rect fill="#f2f5e9" fill-opacity="0.5" stroke="#606060" stroke-width=".5" x="0" y="0" width="60" height="60"/>
                <use id="zoomplus" xlink:href="#zoomPlus" x="17" y="9" onmousedown="handleZoom(evt,'in')"/>
                <use id="zoomminus" xlink:href="#zoomMin" x="42" y="9" onmousedown="handleZoom(evt,'out')"/>
                <use id="reset" xlink:href="#resetDef" x="30" y="36" onmousedown="handleReset()"/>
                <g id="arrowUp" xlink:href="#dirArrow" transform="translate(30 24)" onmousedown="handlePan(0,-1)">
                  <use xlink:href="#rim" fill="#404040">
                        <set attributeName="fill" to="#808080" begin="arrowUp.mouseover" end="arrowUp.mouseout"/>
                  </use>
                  <path fill="none" stroke="white" stroke-width="1.5" d="M0,-3.0v7 M-2.5,-0.5L0,-3.0L2.5,-0.5"/>
                </g>
                <g id="arrowRight" xlink:href="#dirArrow" transform="rotate(90) translate(36 -43)" onmousedown="handlePan(1,0)">
                  <use xlink:href="#rim" fill="#404040">
                        <set attributeName="fill" to="#808080" begin="arrowRight.mouseover" end="arrowRight.mouseout"/>
                  </use>
                  <path fill="none" stroke="white" stroke-width="1.5" d="M0,-3.0v7 M-2.5,-0.5L0,-3.0L2.5,-0.5"/>
                </g>
                <g id="arrowDown" xlink:href="#dirArrow" transform="rotate(180) translate(-30 -48)" onmousedown="handlePan(0,1)">
                  <use xlink:href="#rim" fill="#404040">
                        <set attributeName="fill" to="#808080" begin="arrowDown.mouseover" end="arrowDown.mouseout"/>
                  </use>
                  <path fill="none" stroke="white" stroke-width="1.5" d="M0,-3.0v7 M-2.5,-0.5L0,-3.0L2.5,-0.5"/>
                </g>
                <g id="arrowLeft" xlink:href="#dirArrow" transform="rotate(270) translate(-36 17)" onmousedown="handlePan(-1,0)">
                  <use xlink:href="#rim" fill="#404040">
                        <set attributeName="fill" to="#808080" begin="arrowLeft.mouseover" end="arrowLeft.mouseout"/>
                  </use>
                  <path fill="none" stroke="white" stroke-width="1.5" d="M0,-3.0v7 M-2.5,-0.5L0,-3.0L2.5,-0.5"/>
                </g>
        </g>
        <svg viewBox="0 0 15 15" width="100%" height="30px" preserveAspectRatio="xMaxYMin meet">
         <g id="arrow_out" transform="scale(0.3 0.3)">
          <a xlink:href="EngineConfig_8hpp__dep__incl_org.svg" target="_base">
           <rect id="button" ry="5" rx="5" y="6" x="6" height="38" width="38"
                fill="#f2f5e9" fill-opacity="0.5" stroke="#606060" stroke-width="1.0"/>
           <path id="arrow"
             d="M 11.500037,31.436501 C 11.940474,20.09759 22.043105,11.32322 32.158766,21.979434 L 37.068811,17.246167 C 37.068811,17.246167 37.088388,32 37.088388,32 L 22.160133,31.978069 C 22.160133,31.978069 26.997745,27.140456 26.997745,27.140456 C 18.528582,18.264221 13.291696,25.230495 11.500037,31.436501 z"
             style="fill:#404040;"/>
          </a>
         </g>
        </svg>
</svg>
