<?xml version="1.0" encoding="UTF-8" standalone="no"?>
<!DOCTYPE svg PUBLIC "-//W3C//DTD SVG 1.1//EN"
 "http://www.w3.org/Graphics/SVG/1.1/DTD/svg11.dtd">
<!-- Generated by graphviz version 2.44.0 ()
 -->
<!-- Title: libs/spic&#45;engine/includes/spic&#45;api&#45;headers/Engine.hpp Pages: 1 -->
<!--zoomable 173 -->
<svg id="main" version="1.1" xmlns="http://www.w3.org/2000/svg" xmlns:xlink="http://www.w3.org/1999/xlink" xml:space="preserve" onload="init(evt)">
<style type="text/css"><![CDATA[
.edge:hover path { stroke: red; }
.edge:hover polygon { stroke: red; fill: red; }
]]></style>
<script type="text/javascript"><![CDATA[
var edges = document.getElementsByTagName('g');
if (edges && edges.length) {
  for (var i=0;i<edges.length;i++) {
    if (edges[i].id.substr(0,4)=='edge') {
      edges[i].setAttribute('class','edge');
    }
  }
}
]]></script>
        <defs>
                <circle id="rim" cx="0" cy="0" r="7"/>
                <circle id="rim2" cx="0" cy="0" r="3.5"/>
                <g id="zoomPlus">
                        <use xlink:href="#rim" fill="#404040">
                                <set attributeName="fill" to="#808080" begin="zoomplus.mouseover" end="zoomplus.mouseout"/>
                        </use>
                        <path d="M-4,0h8M0,-4v8" fill="none" stroke="white" stroke-width="1.5" pointer-events="none"/>
                </g>
                <g id="zoomMin">
                        <use xlink:href="#rim" fill="#404040">
                                <set attributeName="fill" to="#808080" begin="zoomminus.mouseover" end="zoomminus.mouseout"/>
                        </use>
                        <path d="M-4,0h8" fill="none" stroke="white" stroke-width="1.5" pointer-events="none"/>
                </g>
                <g id="dirArrow">
                        <path fill="none" stroke="white" stroke-width="1.5" d="M0,-3.0v7 M-2.5,-0.5L0,-3.0L2.5,-0.5"/>
                </g>
               <g id="resetDef">
                       <use xlink:href="#rim2" fill="#404040">
                               <set attributeName="fill" to="#808080" begin="reset.mouseover" end="reset.mouseout"/>
                       </use>
               </g>
        </defs>

<script type="text/javascript">
var viewWidth = 4902;
var viewHeight = 173;
var sectionId = 'dynsection-1';
</script>
<script xlink:href="svgpan.js"/>
<svg id="graph" class="graph">
<g id="viewport">
<title>libs/spic&#45;engine/includes/spic&#45;api&#45;headers/Engine.hpp</title>
<!-- Node1 -->
<g id="node1" class="node">
<title>Node1</title>
<g id="a_node1"><a xlink:title=" ">
<polygon fill="#bfbfbf" stroke="black" points="2302.5,-134.5 2302.5,-164.5 2443.5,-164.5 2443.5,-134.5 2302.5,-134.5"/>
<text text-anchor="start" x="2310.5" y="-152.5" font-family="Helvetica,sans-Serif" font-size="10.00">libs/spic&#45;engine/includes</text>
<text text-anchor="middle" x="2373" y="-141.5" font-family="Helvetica,sans-Serif" font-size="10.00">/spic&#45;api&#45;headers/Engine.hpp</text>
</a>
</g>
</g>
<!-- Node2 -->
<g id="node2" class="node">
<title>Node2</title>
<g id="a_node2"><a xlink:href="BulletFactory_8cpp.html" target="_top" xlink:title=" ">
<polygon fill="none" stroke="black" points="0,-67.5 0,-86.5 152,-86.5 152,-67.5 0,-67.5"/>
<text text-anchor="middle" x="76" y="-74.5" font-family="Helvetica,sans-Serif" font-size="10.00">src/Factories/BulletFactory.cpp</text>
</a>
</g>
</g>
<!-- Node1&#45;&gt;Node2 -->
<g id="edge1" class="edge">
<title>Node1&#45;&gt;Node2</title>
<path fill="none" stroke="midnightblue" d="M2292.21,-148.91C1945.93,-150.31 585.37,-152.17 161,-98 142.35,-95.62 121.83,-90.85 105.62,-86.57"/>
<polygon fill="midnightblue" stroke="midnightblue" points="2292.42,-152.41 2302.4,-148.86 2292.39,-145.41 2292.42,-152.41"/>
</g>
<!-- Node3 -->
<g id="node3" class="node">
<title>Node3</title>
<g id="a_node3"><a xlink:href="ButtonPrefabFactory_8cpp.html" target="_top" xlink:title=" ">
<polygon fill="none" stroke="black" points="170,-62 170,-92 304,-92 304,-62 170,-62"/>
<text text-anchor="start" x="178" y="-80" font-family="Helvetica,sans-Serif" font-size="10.00">src/Factories/ButtonPrefab</text>
<text text-anchor="middle" x="237" y="-69" font-family="Helvetica,sans-Serif" font-size="10.00">Factory.cpp</text>
</a>
</g>
</g>
<!-- Node1&#45;&gt;Node3 -->
<g id="edge2" class="edge">
<title>Node1&#45;&gt;Node3</title>
<path fill="none" stroke="midnightblue" d="M2292.21,-147.63C1935.56,-143.65 511.06,-126.1 313,-98 303.27,-96.62 293.01,-94.43 283.27,-92.01"/>
<polygon fill="midnightblue" stroke="midnightblue" points="2292.41,-151.13 2302.44,-147.75 2292.48,-144.13 2292.41,-151.13"/>
</g>
<!-- Node4 -->
<g id="node4" class="node">
<title>Node4</title>
<g id="a_node4"><a xlink:href="GameOverScene_8cpp.html" target="_top" xlink:title=" ">
<polygon fill="none" stroke="black" points="322,-67.5 322,-86.5 484,-86.5 484,-67.5 322,-67.5"/>
<text text-anchor="middle" x="403" y="-74.5" font-family="Helvetica,sans-Serif" font-size="10.00">src/Scenes/GameOverScene.cpp</text>
</a>
</g>
</g>
<!-- Node1&#45;&gt;Node4 -->
<g id="edge3" class="edge">
<title>Node1&#45;&gt;Node4</title>
<path fill="none" stroke="midnightblue" d="M2292.02,-148.39C1979.15,-147.65 849.06,-141.93 493,-98 473.3,-95.57 451.57,-90.8 434.4,-86.53"/>
<polygon fill="midnightblue" stroke="midnightblue" points="2292.36,-151.89 2302.36,-148.41 2292.37,-144.89 2292.36,-151.89"/>
</g>
<!-- Node5 -->
<g id="node5" class="node">
<title>Node5</title>
<g id="a_node5"><a xlink:href="LevelSelectionScene_8cpp.html" target="_top" xlink:title=" ">
<polygon fill="none" stroke="black" points="502,-62 502,-92 636,-92 636,-62 502,-62"/>
<text text-anchor="start" x="510" y="-80" font-family="Helvetica,sans-Serif" font-size="10.00">src/Scenes/LevelSelection</text>
<text text-anchor="middle" x="569" y="-69" font-family="Helvetica,sans-Serif" font-size="10.00">Scene.cpp</text>
</a>
</g>
</g>
<!-- Node1&#45;&gt;Node5 -->
<g id="edge4" class="edge">
<title>Node1&#45;&gt;Node5</title>
<path fill="none" stroke="midnightblue" d="M2292.15,-148.58C1995.73,-148.49 969.03,-144.74 645,-98 635.41,-96.62 625.3,-94.46 615.68,-92.07"/>
<polygon fill="midnightblue" stroke="midnightblue" points="2292.38,-152.08 2302.38,-148.58 2292.38,-145.08 2292.38,-152.08"/>
</g>
<!-- Node6 -->
<g id="node6" class="node">
<title>Node6</title>
<g id="a_node6"><a xlink:href="LoadingScene_8cpp.html" target="_top" xlink:title=" ">
<polygon fill="none" stroke="black" points="654.5,-67.5 654.5,-86.5 803.5,-86.5 803.5,-67.5 654.5,-67.5"/>
<text text-anchor="middle" x="729" y="-74.5" font-family="Helvetica,sans-Serif" font-size="10.00">src/Scenes/LoadingScene.cpp</text>
</a>
</g>
</g>
<!-- Node1&#45;&gt;Node6 -->
<g id="edge5" class="edge">
<title>Node1&#45;&gt;Node6</title>
<path fill="none" stroke="midnightblue" d="M2291.78,-148.03C2014,-146.08 1103.03,-136.82 813,-98 794.58,-95.53 774.29,-90.76 758.27,-86.5"/>
<polygon fill="midnightblue" stroke="midnightblue" points="2292.16,-151.53 2302.18,-148.1 2292.21,-144.53 2292.16,-151.53"/>
</g>
<!-- Node7 -->
<g id="node7" class="node">
<title>Node7</title>
<g id="a_node7"><a xlink:href="MainScene_8cpp.html" target="_top" xlink:title=" ">
<polygon fill="none" stroke="black" points="822,-67.5 822,-86.5 958,-86.5 958,-67.5 822,-67.5"/>
<text text-anchor="middle" x="890" y="-74.5" font-family="Helvetica,sans-Serif" font-size="10.00">src/Scenes/MainScene.cpp</text>
</a>
</g>
</g>
<!-- Node1&#45;&gt;Node7 -->
<g id="edge6" class="edge">
<title>Node1&#45;&gt;Node7</title>
<path fill="none" stroke="midnightblue" d="M2292.38,-147.91C2033.54,-145.67 1225.48,-135.75 967,-98 950.19,-95.55 931.76,-90.83 917.14,-86.6"/>
<polygon fill="midnightblue" stroke="midnightblue" points="2292.42,-151.41 2302.45,-148 2292.48,-144.42 2292.42,-151.41"/>
</g>
<!-- Node8 -->
<g id="node8" class="node">
<title>Node8</title>
<g id="a_node8"><a xlink:href="PauseScene_8cpp.html" target="_top" xlink:title=" ">
<polygon fill="none" stroke="black" points="976.5,-67.5 976.5,-86.5 1119.5,-86.5 1119.5,-67.5 976.5,-67.5"/>
<text text-anchor="middle" x="1048" y="-74.5" font-family="Helvetica,sans-Serif" font-size="10.00">src/Scenes/PauseScene.cpp</text>
</a>
</g>
</g>
<!-- Node1&#45;&gt;Node8 -->
<g id="edge7" class="edge">
<title>Node1&#45;&gt;Node8</title>
<path fill="none" stroke="midnightblue" d="M2292.09,-147.34C2053.39,-143.6 1354.75,-130.12 1129,-98 1111.36,-95.49 1091.97,-90.78 1076.59,-86.55"/>
<polygon fill="midnightblue" stroke="midnightblue" points="2292.37,-150.85 2302.42,-147.5 2292.48,-143.85 2292.37,-150.85"/>
</g>
<!-- Node9 -->
<g id="node9" class="node">
<title>Node9</title>
<g id="a_node9"><a xlink:href="SaveSelectionScene_8cpp.html" target="_top" xlink:title=" ">
<polygon fill="none" stroke="black" points="1138,-62 1138,-92 1270,-92 1270,-62 1138,-62"/>
<text text-anchor="start" x="1146" y="-80" font-family="Helvetica,sans-Serif" font-size="10.00">src/Scenes/SaveSelection</text>
<text text-anchor="middle" x="1204" y="-69" font-family="Helvetica,sans-Serif" font-size="10.00">Scene.cpp</text>
</a>
</g>
</g>
<!-- Node1&#45;&gt;Node9 -->
<g id="edge8" class="edge">
<title>Node1&#45;&gt;Node9</title>
<path fill="none" stroke="midnightblue" d="M2292.1,-147.01C2073.49,-142.64 1474.25,-128.18 1279,-98 1269.68,-96.56 1259.85,-94.41 1250.48,-92.05"/>
<polygon fill="midnightblue" stroke="midnightblue" points="2292.15,-150.52 2302.22,-147.22 2292.29,-143.52 2292.15,-150.52"/>
</g>
<!-- Node10 -->
<g id="node10" class="node">
<title>Node10</title>
<g id="a_node10"><a xlink:href="VictoryScene_8cpp.html" target="_top" xlink:title=" ">
<polygon fill="none" stroke="black" points="1288.5,-67.5 1288.5,-86.5 1433.5,-86.5 1433.5,-67.5 1288.5,-67.5"/>
<text text-anchor="middle" x="1361" y="-74.5" font-family="Helvetica,sans-Serif" font-size="10.00">src/Scenes/VictoryScene.cpp</text>
</a>
</g>
</g>
<!-- Node1&#45;&gt;Node10 -->
<g id="edge9" class="edge">
<title>Node1&#45;&gt;Node10</title>
<path fill="none" stroke="midnightblue" d="M2291.89,-149.12C2129.71,-149.25 1754.28,-144.01 1443,-98 1425.31,-95.39 1405.86,-90.72 1390.34,-86.55"/>
<polygon fill="midnightblue" stroke="midnightblue" points="2292.27,-152.62 2302.26,-149.1 2292.26,-145.62 2292.27,-152.62"/>
</g>
<!-- Node11 -->
<g id="node11" class="node">
<title>Node11</title>
<g id="a_node11"><a xlink:href="AttackBehaviour_8cpp.html" target="_top" xlink:title=" ">
<polygon fill="none" stroke="black" points="1452,-62 1452,-92 1562,-92 1562,-62 1452,-62"/>
<text text-anchor="start" x="1460" y="-80" font-family="Helvetica,sans-Serif" font-size="10.00">src/Scripts/Common</text>
<text text-anchor="middle" x="1507" y="-69" font-family="Helvetica,sans-Serif" font-size="10.00">/AttackBehaviour.cpp</text>
</a>
</g>
</g>
<!-- Node1&#45;&gt;Node11 -->
<g id="edge10" class="edge">
<title>Node1&#45;&gt;Node11</title>
<path fill="none" stroke="midnightblue" d="M2292.14,-145.87C2117.05,-139.78 1707.61,-123.27 1571,-98 1563.1,-96.54 1554.81,-94.41 1546.91,-92.09"/>
<polygon fill="midnightblue" stroke="midnightblue" points="2292.21,-149.38 2302.32,-146.22 2292.45,-142.38 2292.21,-149.38"/>
</g>
<!-- Node12 -->
<g id="node12" class="node">
<title>Node12</title>
<g id="a_node12"><a xlink:href="GameLostBehaviour_8cpp.html" target="_top" xlink:title=" ">
<polygon fill="none" stroke="black" points="1580.5,-62 1580.5,-92 1707.5,-92 1707.5,-62 1580.5,-62"/>
<text text-anchor="start" x="1588.5" y="-80" font-family="Helvetica,sans-Serif" font-size="10.00">src/Scripts/Common</text>
<text text-anchor="middle" x="1644" y="-69" font-family="Helvetica,sans-Serif" font-size="10.00">/GameLostBehaviour.cpp</text>
</a>
</g>
</g>
<!-- Node1&#45;&gt;Node12 -->
<g id="edge11" class="edge">
<title>Node1&#45;&gt;Node12</title>
<path fill="none" stroke="midnightblue" d="M2292.22,-147.33C2167.63,-144.39 1921.49,-134.08 1716,-98 1707.31,-96.47 1698.16,-94.35 1689.4,-92.05"/>
<polygon fill="midnightblue" stroke="midnightblue" points="2292.36,-150.83 2302.43,-147.56 2292.51,-143.83 2292.36,-150.83"/>
</g>
<!-- Node13 -->
<g id="node13" class="node">
<title>Node13</title>
<g id="a_node13"><a xlink:href="GameWonBehaviour_8cpp.html" target="_top" xlink:title=" ">
<polygon fill="none" stroke="black" points="1725.5,-62 1725.5,-92 1852.5,-92 1852.5,-62 1725.5,-62"/>
<text text-anchor="start" x="1733.5" y="-80" font-family="Helvetica,sans-Serif" font-size="10.00">src/Scripts/Common</text>
<text text-anchor="middle" x="1789" y="-69" font-family="Helvetica,sans-Serif" font-size="10.00">/GameWonBehaviour.cpp</text>
</a>
</g>
</g>
<!-- Node1&#45;&gt;Node13 -->
<g id="edge12" class="edge">
<title>Node1&#45;&gt;Node13</title>
<path fill="none" stroke="midnightblue" d="M2292.31,-144.85C2190.92,-139.28 2011.89,-126.18 1861,-98 1852.58,-96.43 1843.72,-94.34 1835.2,-92.1"/>
<polygon fill="midnightblue" stroke="midnightblue" points="2292.31,-148.36 2302.48,-145.4 2292.68,-141.37 2292.31,-148.36"/>
</g>
<!-- Node14 -->
<g id="node14" class="node">
<title>Node14</title>
<g id="a_node14"><a xlink:href="EnemyMedicBehaviour_8cpp.html" target="_top" xlink:title=" ">
<polygon fill="none" stroke="black" points="1870.5,-62 1870.5,-92 2007.5,-92 2007.5,-62 1870.5,-62"/>
<text text-anchor="start" x="1878.5" y="-80" font-family="Helvetica,sans-Serif" font-size="10.00">src/Scripts/Enemies</text>
<text text-anchor="middle" x="1939" y="-69" font-family="Helvetica,sans-Serif" font-size="10.00">/EnemyMedicBehaviour.cpp</text>
</a>
</g>
</g>
<!-- Node1&#45;&gt;Node14 -->
<g id="edge13" class="edge">
<title>Node1&#45;&gt;Node14</title>
<path fill="none" stroke="midnightblue" d="M2292.39,-139.63C2219.96,-131.06 2110.86,-116.63 2017,-98 2008.36,-96.29 1999.25,-94.2 1990.42,-92.04"/>
<polygon fill="midnightblue" stroke="midnightblue" points="2292.02,-143.11 2302.36,-140.8 2292.84,-136.16 2292.02,-143.11"/>
</g>
<!-- Node15 -->
<g id="node15" class="node">
<title>Node15</title>
<g id="a_node15"><a xlink:href="EnemySpeedBoostBehaviour_8cpp.html" target="_top" xlink:title=" ">
<polygon fill="none" stroke="black" points="2026,-62 2026,-92 2190,-92 2190,-62 2026,-62"/>
<text text-anchor="start" x="2034" y="-80" font-family="Helvetica,sans-Serif" font-size="10.00">src/Scripts/Enemies</text>
<text text-anchor="middle" x="2108" y="-69" font-family="Helvetica,sans-Serif" font-size="10.00">/EnemySpeedBoostBehaviour.cpp</text>
</a>
</g>
</g>
<!-- Node1&#45;&gt;Node15 -->
<g id="edge14" class="edge">
<title>Node1&#45;&gt;Node15</title>
<path fill="none" stroke="midnightblue" d="M2310.58,-131.89C2265.1,-119.79 2204.15,-103.58 2161.03,-92.11"/>
<polygon fill="midnightblue" stroke="midnightblue" points="2309.76,-135.3 2320.33,-134.49 2311.56,-128.53 2309.76,-135.3"/>
</g>
<!-- Node16 -->
<g id="node16" class="node">
<title>Node16</title>
<g id="a_node16"><a xlink:href="EnemyTroopTruckBehaviour_8cpp.html" target="_top" xlink:title=" ">
<polygon fill="none" stroke="black" points="2208,-62 2208,-92 2368,-92 2368,-62 2208,-62"/>
<text text-anchor="start" x="2216" y="-80" font-family="Helvetica,sans-Serif" font-size="10.00">src/Scripts/Enemies</text>
<text text-anchor="middle" x="2288" y="-69" font-family="Helvetica,sans-Serif" font-size="10.00">/EnemyTroopTruckBehaviour.cpp</text>
</a>
</g>
</g>
<!-- Node1&#45;&gt;Node16 -->
<g id="edge15" class="edge">
<title>Node1&#45;&gt;Node16</title>
<path fill="none" stroke="midnightblue" d="M2348.03,-127.79C2334.14,-116.27 2317.22,-102.23 2304.89,-92"/>
<polygon fill="midnightblue" stroke="midnightblue" points="2345.87,-130.54 2355.8,-134.23 2350.34,-125.16 2345.87,-130.54"/>
</g>
<!-- Node17 -->
<g id="node17" class="node">
<title>Node17</title>
<g id="a_node17"><a xlink:href="AirstrikeAbilityBehaviour_8cpp.html" target="_top" xlink:title=" ">
<polygon fill="none" stroke="black" points="2386.5,-62 2386.5,-92 2529.5,-92 2529.5,-62 2386.5,-62"/>
<text text-anchor="start" x="2394.5" y="-80" font-family="Helvetica,sans-Serif" font-size="10.00">src/Scripts/Heroes</text>
<text text-anchor="middle" x="2458" y="-69" font-family="Helvetica,sans-Serif" font-size="10.00">/AirstrikeAbilityBehaviour.cpp</text>
</a>
</g>
</g>
<!-- Node1&#45;&gt;Node17 -->
<g id="edge16" class="edge">
<title>Node1&#45;&gt;Node17</title>
<path fill="none" stroke="midnightblue" d="M2397.97,-127.79C2411.86,-116.27 2428.78,-102.23 2441.11,-92"/>
<polygon fill="midnightblue" stroke="midnightblue" points="2395.66,-125.16 2390.2,-134.23 2400.13,-130.54 2395.66,-125.16"/>
</g>
<!-- Node18 -->
<g id="node18" class="node">
<title>Node18</title>
<g id="a_node18"><a xlink:href="EnemySuicideAbilityBehaviour_8cpp.html" target="_top" xlink:title=" ">
<polygon fill="none" stroke="black" points="2547.5,-62 2547.5,-92 2716.5,-92 2716.5,-62 2547.5,-62"/>
<text text-anchor="start" x="2555.5" y="-80" font-family="Helvetica,sans-Serif" font-size="10.00">src/Scripts/Heroes</text>
<text text-anchor="middle" x="2632" y="-69" font-family="Helvetica,sans-Serif" font-size="10.00">/EnemySuicideAbilityBehaviour.cpp</text>
</a>
</g>
</g>
<!-- Node1&#45;&gt;Node18 -->
<g id="edge17" class="edge">
<title>Node1&#45;&gt;Node18</title>
<path fill="none" stroke="midnightblue" d="M2434.29,-131.82C2478.71,-119.73 2538.11,-103.56 2580.17,-92.11"/>
<polygon fill="midnightblue" stroke="midnightblue" points="2433.21,-128.48 2424.48,-134.49 2435.05,-135.24 2433.21,-128.48"/>
</g>
<!-- Node19 -->
<g id="node19" class="node">
<title>Node19</title>
<g id="a_node19"><a xlink:href="IncreaseTowerFireRateAbilityBehaviour_8cpp.html" target="_top" xlink:title=" ">
<polygon fill="none" stroke="black" points="2734.5,-56.5 2734.5,-97.5 2881.5,-97.5 2881.5,-56.5 2734.5,-56.5"/>
<text text-anchor="start" x="2742.5" y="-85.5" font-family="Helvetica,sans-Serif" font-size="10.00">src/Scripts/Heroes</text>
<text text-anchor="start" x="2742.5" y="-74.5" font-family="Helvetica,sans-Serif" font-size="10.00">/IncreaseTowerFireRateAbility</text>
<text text-anchor="middle" x="2808" y="-63.5" font-family="Helvetica,sans-Serif" font-size="10.00">Behaviour.cpp</text>
</a>
</g>
</g>
<!-- Node1&#45;&gt;Node19 -->
<g id="edge18" class="edge">
<title>Node1&#45;&gt;Node19</title>
<path fill="none" stroke="midnightblue" d="M2454.08,-139.06C2525.66,-130.21 2632.68,-115.7 2725,-98 2728.06,-97.41 2731.17,-96.79 2734.31,-96.14"/>
<polygon fill="midnightblue" stroke="midnightblue" points="2453.28,-135.64 2443.78,-140.33 2454.14,-142.58 2453.28,-135.64"/>
</g>
<!-- Node20 -->
<g id="node20" class="node">
<title>Node20</title>
<g id="a_node20"><a xlink:href="IncreaseTowerRangeAbilityBehaviour_8cpp.html" target="_top" xlink:title=" ">
<polygon fill="none" stroke="black" points="2900,-56.5 2900,-97.5 3038,-97.5 3038,-56.5 2900,-56.5"/>
<text text-anchor="start" x="2908" y="-85.5" font-family="Helvetica,sans-Serif" font-size="10.00">src/Scripts/Heroes</text>
<text text-anchor="start" x="2908" y="-74.5" font-family="Helvetica,sans-Serif" font-size="10.00">/IncreaseTowerRangeAbility</text>
<text text-anchor="middle" x="2969" y="-63.5" font-family="Helvetica,sans-Serif" font-size="10.00">Behaviour.cpp</text>
</a>
</g>
</g>
<!-- Node1&#45;&gt;Node20 -->
<g id="edge19" class="edge">
<title>Node1&#45;&gt;Node20</title>
<path fill="none" stroke="midnightblue" d="M2453.94,-144.37C2556.15,-138.3 2737.11,-124.66 2890,-98 2893.21,-97.44 2896.47,-96.82 2899.76,-96.16"/>
<polygon fill="midnightblue" stroke="midnightblue" points="2453.47,-140.9 2443.7,-144.97 2453.88,-147.88 2453.47,-140.9"/>
</g>
<!-- Node21 -->
<g id="node21" class="node">
<title>Node21</title>
<g id="a_node21"><a xlink:href="InvisibilityAbilityBehaviour_8cpp.html" target="_top" xlink:title=" ">
<polygon fill="none" stroke="black" points="3056,-62 3056,-92 3206,-92 3206,-62 3056,-62"/>
<text text-anchor="start" x="3064" y="-80" font-family="Helvetica,sans-Serif" font-size="10.00">src/Scripts/Heroes</text>
<text text-anchor="middle" x="3131" y="-69" font-family="Helvetica,sans-Serif" font-size="10.00">/InvisibilityAbilityBehaviour.cpp</text>
</a>
</g>
</g>
<!-- Node1&#45;&gt;Node21 -->
<g id="edge20" class="edge">
<title>Node1&#45;&gt;Node21</title>
<path fill="none" stroke="midnightblue" d="M2453.8,-146.59C2580.78,-142.66 2834.48,-131.05 3047,-98 3056.92,-96.46 3067.41,-94.35 3077.48,-92.08"/>
<polygon fill="midnightblue" stroke="midnightblue" points="2453.66,-143.09 2443.77,-146.89 2453.87,-150.09 2453.66,-143.09"/>
</g>
<!-- Node22 -->
<g id="node22" class="node">
<title>Node22</title>
<g id="a_node22"><a xlink:href="UserAttackBehaviour_8cpp.html" target="_top" xlink:title=" ">
<polygon fill="none" stroke="black" points="3224.5,-62 3224.5,-92 3355.5,-92 3355.5,-62 3224.5,-62"/>
<text text-anchor="start" x="3232.5" y="-80" font-family="Helvetica,sans-Serif" font-size="10.00">src/Scripts/Heroes</text>
<text text-anchor="middle" x="3290" y="-69" font-family="Helvetica,sans-Serif" font-size="10.00">/UserAttackBehaviour.cpp</text>
</a>
</g>
</g>
<!-- Node1&#45;&gt;Node22 -->
<g id="edge21" class="edge">
<title>Node1&#45;&gt;Node22</title>
<path fill="none" stroke="midnightblue" d="M2453.75,-149.02C2604.42,-148.81 2938.19,-142.74 3215,-98 3224.18,-96.52 3233.86,-94.38 3243.1,-92.05"/>
<polygon fill="midnightblue" stroke="midnightblue" points="2453.66,-145.52 2443.66,-149.03 2453.66,-152.52 2453.66,-145.52"/>
</g>
<!-- Node23 -->
<g id="node23" class="node">
<title>Node23</title>
<g id="a_node23"><a xlink:href="CloseSceneBehaviour_8cpp.html" target="_top" xlink:title=" ">
<polygon fill="none" stroke="black" points="3374,-62 3374,-92 3520,-92 3520,-62 3374,-62"/>
<text text-anchor="start" x="3382" y="-80" font-family="Helvetica,sans-Serif" font-size="10.00">src/Scripts/Menu/CloseScene</text>
<text text-anchor="middle" x="3447" y="-69" font-family="Helvetica,sans-Serif" font-size="10.00">Behaviour.cpp</text>
</a>
</g>
</g>
<!-- Node1&#45;&gt;Node23 -->
<g id="edge22" class="edge">
<title>Node1&#45;&gt;Node23</title>
<path fill="none" stroke="midnightblue" d="M2453.67,-146.32C2657.42,-140.51 3189,-123.32 3364,-98 3374.12,-96.54 3384.82,-94.41 3395.04,-92.08"/>
<polygon fill="midnightblue" stroke="midnightblue" points="2453.53,-142.82 2443.63,-146.61 2453.73,-149.82 2453.53,-142.82"/>
</g>
<!-- Node24 -->
<g id="node24" class="node">
<title>Node24</title>
<g id="a_node24"><a xlink:href="PauseSceneBehaviour_8cpp.html" target="_top" xlink:title=" ">
<polygon fill="none" stroke="black" points="3538.5,-62 3538.5,-92 3687.5,-92 3687.5,-62 3538.5,-62"/>
<text text-anchor="start" x="3546.5" y="-80" font-family="Helvetica,sans-Serif" font-size="10.00">src/Scripts/Menu/PauseScene</text>
<text text-anchor="middle" x="3613" y="-69" font-family="Helvetica,sans-Serif" font-size="10.00">Behaviour.cpp</text>
</a>
</g>
</g>
<!-- Node1&#45;&gt;Node24 -->
<g id="edge23" class="edge">
<title>Node1&#45;&gt;Node24</title>
<path fill="none" stroke="midnightblue" d="M2454.04,-146.96C2681.18,-142.34 3320.93,-127.05 3529,-98 3539.39,-96.55 3550.38,-94.4 3560.87,-92.03"/>
<polygon fill="midnightblue" stroke="midnightblue" points="2453.79,-143.47 2443.86,-147.17 2453.93,-150.47 2453.79,-143.47"/>
</g>
<!-- Node25 -->
<g id="node25" class="node">
<title>Node25</title>
<g id="a_node25"><a xlink:href="Engine_8cpp.html" target="_top" xlink:title=" ">
<polygon fill="none" stroke="black" points="3705.5,-62 3705.5,-92 3806.5,-92 3806.5,-62 3705.5,-62"/>
<text text-anchor="start" x="3713.5" y="-80" font-family="Helvetica,sans-Serif" font-size="10.00">libs/spic&#45;engine/src</text>
<text text-anchor="middle" x="3756" y="-69" font-family="Helvetica,sans-Serif" font-size="10.00">/Api/Engine.cpp</text>
</a>
</g>
</g>
<!-- Node1&#45;&gt;Node25 -->
<g id="edge24" class="edge">
<title>Node1&#45;&gt;Node25</title>
<path fill="none" stroke="midnightblue" d="M2453.62,-148.41C2702.38,-147.65 3455.66,-141.72 3696,-98 3703.67,-96.6 3711.7,-94.44 3719.3,-92.05"/>
<polygon fill="midnightblue" stroke="midnightblue" points="2453.55,-144.91 2443.56,-148.44 2453.57,-151.91 2453.55,-144.91"/>
</g>
<!-- Node26 -->
<g id="node26" class="node">
<title>Node26</title>
<g id="a_node26"><a xlink:href="GameObject_8cpp.html" target="_top" xlink:title=" ">
<polygon fill="none" stroke="black" points="3825,-62 3825,-92 3935,-92 3935,-62 3825,-62"/>
<text text-anchor="start" x="3833" y="-80" font-family="Helvetica,sans-Serif" font-size="10.00">libs/spic&#45;engine/src</text>
<text text-anchor="middle" x="3880" y="-69" font-family="Helvetica,sans-Serif" font-size="10.00">/Api/GameObject.cpp</text>
</a>
</g>
</g>
<!-- Node1&#45;&gt;Node26 -->
<g id="edge25" class="edge">
<title>Node1&#45;&gt;Node26</title>
<path fill="none" stroke="midnightblue" d="M2453.93,-148.46C2717.62,-147.91 3550.21,-142.57 3815,-98 3823.27,-96.61 3831.95,-94.45 3840.18,-92.06"/>
<polygon fill="midnightblue" stroke="midnightblue" points="2453.66,-144.96 2443.67,-148.48 2453.68,-151.96 2453.66,-144.96"/>
</g>
<!-- Node27 -->
<g id="node27" class="node">
<title>Node27</title>
<g id="a_node27"><a xlink:href="AudioSubsystem_8cpp.html" target="_top" xlink:title=" ">
<polygon fill="none" stroke="black" points="3953,-62 3953,-92 4121,-92 4121,-62 3953,-62"/>
<text text-anchor="start" x="3961" y="-80" font-family="Helvetica,sans-Serif" font-size="10.00">libs/spic&#45;engine/src</text>
<text text-anchor="middle" x="4037" y="-69" font-family="Helvetica,sans-Serif" font-size="10.00">/Subsystems/AudioSubsystem.cpp</text>
</a>
</g>
</g>
<!-- Node1&#45;&gt;Node27 -->
<g id="edge26" class="edge">
<title>Node1&#45;&gt;Node27</title>
<path fill="none" stroke="midnightblue" d="M2453.87,-147.82C2732.44,-145.18 3651.2,-133.89 3944,-98 3955.64,-96.57 3967.97,-94.4 3979.73,-92"/>
<polygon fill="midnightblue" stroke="midnightblue" points="2453.8,-144.32 2443.83,-147.91 2453.87,-151.32 2453.8,-144.32"/>
</g>
<!-- Node28 -->
<g id="node28" class="node">
<title>Node28</title>
<g id="a_node28"><a xlink:href="FpsCounterSubsystem_8cpp.html" target="_top" xlink:title=" ">
<polygon fill="none" stroke="black" points="4139,-62 4139,-92 4333,-92 4333,-62 4139,-62"/>
<text text-anchor="start" x="4147" y="-80" font-family="Helvetica,sans-Serif" font-size="10.00">libs/spic&#45;engine/src</text>
<text text-anchor="middle" x="4236" y="-69" font-family="Helvetica,sans-Serif" font-size="10.00">/Subsystems/FpsCounterSubsystem.cpp</text>
</a>
</g>
</g>
<!-- Node1&#45;&gt;Node28 -->
<g id="edge27" class="edge">
<title>Node1&#45;&gt;Node28</title>
<path fill="none" stroke="midnightblue" d="M2454.09,-147.87C2753.8,-145.27 3798.68,-133.79 4130,-98 4143.22,-96.57 4157.26,-94.4 4170.65,-92"/>
<polygon fill="midnightblue" stroke="midnightblue" points="2453.72,-144.37 2443.75,-147.96 2453.78,-151.37 2453.72,-144.37"/>
</g>
<!-- Node29 -->
<g id="node29" class="node">
<title>Node29</title>
<g id="a_node29"><a xlink:href="InputSubsystem_8cpp.html" target="_top" xlink:title=" ">
<polygon fill="none" stroke="black" points="4351.5,-62 4351.5,-92 4516.5,-92 4516.5,-62 4351.5,-62"/>
<text text-anchor="start" x="4359.5" y="-80" font-family="Helvetica,sans-Serif" font-size="10.00">libs/spic&#45;engine/src</text>
<text text-anchor="middle" x="4434" y="-69" font-family="Helvetica,sans-Serif" font-size="10.00">/Subsystems/InputSubsystem.cpp</text>
</a>
</g>
</g>
<!-- Node1&#45;&gt;Node29 -->
<g id="edge28" class="edge">
<title>Node1&#45;&gt;Node29</title>
<path fill="none" stroke="midnightblue" d="M2453.77,-148.46C2775.62,-147.97 3967.42,-143.11 4342,-98 4353.52,-96.61 4365.73,-94.46 4377.36,-92.06"/>
<polygon fill="midnightblue" stroke="midnightblue" points="2453.59,-144.96 2443.59,-148.47 2453.6,-151.96 2453.59,-144.96"/>
</g>
<!-- Node30 -->
<g id="node30" class="node">
<title>Node30</title>
<g id="a_node30"><a xlink:href="RenderSubsystem_8cpp.html" target="_top" xlink:title=" ">
<polygon fill="none" stroke="black" points="4535,-62 4535,-92 4709,-92 4709,-62 4535,-62"/>
<text text-anchor="start" x="4543" y="-80" font-family="Helvetica,sans-Serif" font-size="10.00">libs/spic&#45;engine/src</text>
<text text-anchor="middle" x="4622" y="-69" font-family="Helvetica,sans-Serif" font-size="10.00">/Subsystems/RenderSubsystem.cpp</text>
</a>
</g>
</g>
<!-- Node1&#45;&gt;Node30 -->
<g id="edge29" class="edge">
<title>Node1&#45;&gt;Node30</title>
<path fill="none" stroke="midnightblue" d="M2453.54,-148.55C2793.45,-148.45 4112.26,-145.01 4525,-98 4537.22,-96.61 4550.17,-94.43 4562.51,-92.02"/>
<polygon fill="midnightblue" stroke="midnightblue" points="2453.53,-145.05 2443.53,-148.55 2453.53,-152.05 2453.53,-145.05"/>
</g>
<!-- Node31 -->
<g id="node31" class="node">
<title>Node31</title>
<g id="a_node31"><a xlink:href="Api_8hpp.html" target="_top" xlink:title=" ">
<polygon fill="none" stroke="black" points="4727,-62 4727,-92 4853,-92 4853,-62 4727,-62"/>
<text text-anchor="start" x="4735" y="-80" font-family="Helvetica,sans-Serif" font-size="10.00">libs/spic&#45;engine/includes</text>
<text text-anchor="middle" x="4790" y="-69" font-family="Helvetica,sans-Serif" font-size="10.00">/spic&#45;api&#45;headers/Api.hpp</text>
</a>
</g>
</g>
<!-- Node1&#45;&gt;Node31 -->
<g id="edge30" class="edge">
<title>Node1&#45;&gt;Node31</title>
<path fill="none" stroke="midnightblue" d="M2453.94,-147.95C2840.65,-145.19 4490.63,-131.49 4718,-98 4727.24,-96.64 4736.98,-94.46 4746.2,-92.03"/>
<polygon fill="midnightblue" stroke="midnightblue" points="2453.66,-144.46 2443.68,-148.03 2453.71,-151.46 2453.66,-144.46"/>
</g>
<!-- Node32 -->
<g id="node32" class="node">
<title>Node32</title>
<g id="a_node32"><a xlink:href="LevelController_8cpp.html" target="_top" xlink:title=" ">
<polygon fill="none" stroke="black" points="4638,-0.5 4638,-19.5 4804,-19.5 4804,-0.5 4638,-0.5"/>
<text text-anchor="middle" x="4721" y="-7.5" font-family="Helvetica,sans-Serif" font-size="10.00">src/Controllers/LevelController.cpp</text>
</a>
</g>
</g>
<!-- Node31&#45;&gt;Node32 -->
<g id="edge31" class="edge">
<title>Node31&#45;&gt;Node32</title>
<path fill="none" stroke="midnightblue" d="M4767.53,-54.84C4754.86,-42.9 4739.72,-28.64 4730.23,-19.69"/>
<polygon fill="midnightblue" stroke="midnightblue" points="4765.35,-57.59 4775.03,-61.9 4770.15,-52.49 4765.35,-57.59"/>
</g>
<!-- Node33 -->
<g id="node33" class="node">
<title>Node33</title>
<g id="a_node33"><a xlink:href="main_8cpp.html" target="_top" xlink:title=" ">
<polygon fill="none" stroke="black" points="4822,-0.5 4822,-19.5 4894,-19.5 4894,-0.5 4822,-0.5"/>
<text text-anchor="middle" x="4858" y="-7.5" font-family="Helvetica,sans-Serif" font-size="10.00">src/main.cpp</text>
</a>
</g>
</g>
<!-- Node31&#45;&gt;Node33 -->
<g id="edge32" class="edge">
<title>Node31&#45;&gt;Node33</title>
<path fill="none" stroke="midnightblue" d="M4812.14,-54.84C4824.63,-42.9 4839.55,-28.64 4848.9,-19.69"/>
<polygon fill="midnightblue" stroke="midnightblue" points="4809.57,-52.46 4804.75,-61.9 4814.4,-57.52 4809.57,-52.46"/>
</g>
</g>
</svg>
        <g id="navigator" transform="translate(0 0)" fill="#404254">
                <rect fill="#f2f5e9" fill-opacity="0.5" stroke="#606060" stroke-width=".5" x="0" y="0" width="60" height="60"/>
                <use id="zoomplus" xlink:href="#zoomPlus" x="17" y="9" onmousedown="handleZoom(evt,'in')"/>
                <use id="zoomminus" xlink:href="#zoomMin" x="42" y="9" onmousedown="handleZoom(evt,'out')"/>
                <use id="reset" xlink:href="#resetDef" x="30" y="36" onmousedown="handleReset()"/>
                <g id="arrowUp" xlink:href="#dirArrow" transform="translate(30 24)" onmousedown="handlePan(0,-1)">
                  <use xlink:href="#rim" fill="#404040">
                        <set attributeName="fill" to="#808080" begin="arrowUp.mouseover" end="arrowUp.mouseout"/>
                  </use>
                  <path fill="none" stroke="white" stroke-width="1.5" d="M0,-3.0v7 M-2.5,-0.5L0,-3.0L2.5,-0.5"/>
                </g>
                <g id="arrowRight" xlink:href="#dirArrow" transform="rotate(90) translate(36 -43)" onmousedown="handlePan(1,0)">
                  <use xlink:href="#rim" fill="#404040">
                        <set attributeName="fill" to="#808080" begin="arrowRight.mouseover" end="arrowRight.mouseout"/>
                  </use>
                  <path fill="none" stroke="white" stroke-width="1.5" d="M0,-3.0v7 M-2.5,-0.5L0,-3.0L2.5,-0.5"/>
                </g>
                <g id="arrowDown" xlink:href="#dirArrow" transform="rotate(180) translate(-30 -48)" onmousedown="handlePan(0,1)">
                  <use xlink:href="#rim" fill="#404040">
                        <set attributeName="fill" to="#808080" begin="arrowDown.mouseover" end="arrowDown.mouseout"/>
                  </use>
                  <path fill="none" stroke="white" stroke-width="1.5" d="M0,-3.0v7 M-2.5,-0.5L0,-3.0L2.5,-0.5"/>
                </g>
                <g id="arrowLeft" xlink:href="#dirArrow" transform="rotate(270) translate(-36 17)" onmousedown="handlePan(-1,0)">
                  <use xlink:href="#rim" fill="#404040">
                        <set attributeName="fill" to="#808080" begin="arrowLeft.mouseover" end="arrowLeft.mouseout"/>
                  </use>
                  <path fill="none" stroke="white" stroke-width="1.5" d="M0,-3.0v7 M-2.5,-0.5L0,-3.0L2.5,-0.5"/>
                </g>
        </g>
        <svg viewBox="0 0 15 15" width="100%" height="30px" preserveAspectRatio="xMaxYMin meet">
         <g id="arrow_out" transform="scale(0.3 0.3)">
          <a xlink:href="Engine_8hpp__dep__incl_org.svg" target="_base">
           <rect id="button" ry="5" rx="5" y="6" x="6" height="38" width="38"
                fill="#f2f5e9" fill-opacity="0.5" stroke="#606060" stroke-width="1.0"/>
           <path id="arrow"
             d="M 11.500037,31.436501 C 11.940474,20.09759 22.043105,11.32322 32.158766,21.979434 L 37.068811,17.246167 C 37.068811,17.246167 37.088388,32 37.088388,32 L 22.160133,31.978069 C 22.160133,31.978069 26.997745,27.140456 26.997745,27.140456 C 18.528582,18.264221 13.291696,25.230495 11.500037,31.436501 z"
             style="fill:#404040;"/>
          </a>
         </g>
        </svg>
</svg>
