<?xml version="1.0" encoding="UTF-8" standalone="no"?>
<!DOCTYPE svg PUBLIC "-//W3C//DTD SVG 1.1//EN"
 "http://www.w3.org/Graphics/SVG/1.1/DTD/svg11.dtd">
<!-- Generated by graphviz version 2.44.0 ()
 -->
<!-- Title: libs/spic&#45;engine/includes/spic&#45;api&#45;headers/Engine.hpp Pages: 1 -->
<!--zoomable 173 -->
<svg id="main" version="1.1" xmlns="http://www.w3.org/2000/svg" xmlns:xlink="http://www.w3.org/1999/xlink" xml:space="preserve" onload="init(evt)">
<style type="text/css"><![CDATA[
.edge:hover path { stroke: red; }
.edge:hover polygon { stroke: red; fill: red; }
]]></style>
<script type="text/javascript"><![CDATA[
var edges = document.getElementsByTagName('g');
if (edges && edges.length) {
  for (var i=0;i<edges.length;i++) {
    if (edges[i].id.substr(0,4)=='edge') {
      edges[i].setAttribute('class','edge');
    }
  }
}
]]></script>
        <defs>
                <circle id="rim" cx="0" cy="0" r="7"/>
                <circle id="rim2" cx="0" cy="0" r="3.5"/>
                <g id="zoomPlus">
                        <use xlink:href="#rim" fill="#404040">
                                <set attributeName="fill" to="#808080" begin="zoomplus.mouseover" end="zoomplus.mouseout"/>
                        </use>
                        <path d="M-4,0h8M0,-4v8" fill="none" stroke="white" stroke-width="1.5" pointer-events="none"/>
                </g>
                <g id="zoomMin">
                        <use xlink:href="#rim" fill="#404040">
                                <set attributeName="fill" to="#808080" begin="zoomminus.mouseover" end="zoomminus.mouseout"/>
                        </use>
                        <path d="M-4,0h8" fill="none" stroke="white" stroke-width="1.5" pointer-events="none"/>
                </g>
                <g id="dirArrow">
                        <path fill="none" stroke="white" stroke-width="1.5" d="M0,-3.0v7 M-2.5,-0.5L0,-3.0L2.5,-0.5"/>
                </g>
               <g id="resetDef">
                       <use xlink:href="#rim2" fill="#404040">
                               <set attributeName="fill" to="#808080" begin="reset.mouseover" end="reset.mouseout"/>
                       </use>
               </g>
        </defs>

<script type="text/javascript">
var viewWidth = 5060;
var viewHeight = 173;
var sectionId = 'dynsection-1';
</script>
<script xlink:href="svgpan.js"/>
<svg id="graph" class="graph">
<g id="viewport">
<title>libs/spic&#45;engine/includes/spic&#45;api&#45;headers/Engine.hpp</title>
<!-- Node1 -->
<g id="node1" class="node">
<title>Node1</title>
<g id="a_node1"><a xlink:title=" ">
<polygon fill="#bfbfbf" stroke="black" points="2375.5,-134.5 2375.5,-164.5 2516.5,-164.5 2516.5,-134.5 2375.5,-134.5"/>
<text text-anchor="start" x="2383.5" y="-152.5" font-family="Helvetica,sans-Serif" font-size="10.00">libs/spic&#45;engine/includes</text>
<text text-anchor="middle" x="2446" y="-141.5" font-family="Helvetica,sans-Serif" font-size="10.00">/spic&#45;api&#45;headers/Engine.hpp</text>
</a>
</g>
</g>
<!-- Node2 -->
<g id="node2" class="node">
<title>Node2</title>
<g id="a_node2"><a xlink:href="BulletFactory_8cpp.html" target="_top" xlink:title=" ">
<polygon fill="none" stroke="black" points="0,-67.5 0,-86.5 152,-86.5 152,-67.5 0,-67.5"/>
<text text-anchor="middle" x="76" y="-74.5" font-family="Helvetica,sans-Serif" font-size="10.00">src/Factories/BulletFactory.cpp</text>
</a>
</g>
</g>
<!-- Node1&#45;&gt;Node2 -->
<g id="edge1" class="edge">
<title>Node1&#45;&gt;Node2</title>
<path fill="none" stroke="midnightblue" d="M2365.28,-147.72C1985.17,-143.9 382.79,-126.23 161,-98 142.35,-95.63 121.83,-90.86 105.62,-86.58"/>
<polygon fill="midnightblue" stroke="midnightblue" points="2365.34,-151.22 2375.37,-147.82 2365.41,-144.22 2365.34,-151.22"/>
</g>
<!-- Node3 -->
<g id="node3" class="node">
<title>Node3</title>
<g id="a_node3"><a xlink:href="ButtonPrefabFactory_8cpp.html" target="_top" xlink:title=" ">
<polygon fill="none" stroke="black" points="170,-62 170,-92 304,-92 304,-62 170,-62"/>
<text text-anchor="start" x="178" y="-80" font-family="Helvetica,sans-Serif" font-size="10.00">src/Factories/ButtonPrefab</text>
<text text-anchor="middle" x="237" y="-69" font-family="Helvetica,sans-Serif" font-size="10.00">Factory.cpp</text>
</a>
</g>
</g>
<!-- Node1&#45;&gt;Node3 -->
<g id="edge2" class="edge">
<title>Node1&#45;&gt;Node3</title>
<path fill="none" stroke="midnightblue" d="M2365.05,-147.7C2000.33,-143.96 518.59,-127.08 313,-98 303.27,-96.62 293.01,-94.44 283.27,-92.01"/>
<polygon fill="midnightblue" stroke="midnightblue" points="2365.22,-151.2 2375.26,-147.81 2365.29,-144.2 2365.22,-151.2"/>
</g>
<!-- Node4 -->
<g id="node4" class="node">
<title>Node4</title>
<g id="a_node4"><a xlink:href="CameraPrefabFactory_8cpp.html" target="_top" xlink:title=" ">
<polygon fill="none" stroke="black" points="322.5,-62 322.5,-92 461.5,-92 461.5,-62 322.5,-62"/>
<text text-anchor="start" x="330.5" y="-80" font-family="Helvetica,sans-Serif" font-size="10.00">src/Factories/CameraPrefab</text>
<text text-anchor="middle" x="392" y="-69" font-family="Helvetica,sans-Serif" font-size="10.00">Factory.cpp</text>
</a>
</g>
</g>
<!-- Node1&#45;&gt;Node4 -->
<g id="edge3" class="edge">
<title>Node1&#45;&gt;Node4</title>
<path fill="none" stroke="midnightblue" d="M2365.21,-148.83C2042.6,-149.76 846.01,-149.61 471,-98 461.05,-96.63 450.54,-94.48 440.55,-92.09"/>
<polygon fill="midnightblue" stroke="midnightblue" points="2365.42,-152.33 2375.41,-148.8 2365.4,-145.33 2365.42,-152.33"/>
</g>
<!-- Node5 -->
<g id="node5" class="node">
<title>Node5</title>
<g id="a_node5"><a xlink:href="GameOverScene_8cpp.html" target="_top" xlink:title=" ">
<polygon fill="none" stroke="black" points="480,-67.5 480,-86.5 642,-86.5 642,-67.5 480,-67.5"/>
<text text-anchor="middle" x="561" y="-74.5" font-family="Helvetica,sans-Serif" font-size="10.00">src/Scenes/GameOverScene.cpp</text>
</a>
</g>
</g>
<!-- Node1&#45;&gt;Node5 -->
<g id="edge4" class="edge">
<title>Node1&#45;&gt;Node5</title>
<path fill="none" stroke="midnightblue" d="M2365.12,-148.27C2061.47,-147.1 989.6,-140 651,-98 631.3,-95.56 609.57,-90.79 592.4,-86.52"/>
<polygon fill="midnightblue" stroke="midnightblue" points="2365.15,-151.77 2375.17,-148.31 2365.18,-144.77 2365.15,-151.77"/>
</g>
<!-- Node6 -->
<g id="node6" class="node">
<title>Node6</title>
<g id="a_node6"><a xlink:href="LevelSelectionScene_8cpp.html" target="_top" xlink:title=" ">
<polygon fill="none" stroke="black" points="660,-62 660,-92 794,-92 794,-62 660,-62"/>
<text text-anchor="start" x="668" y="-80" font-family="Helvetica,sans-Serif" font-size="10.00">src/Scenes/LevelSelection</text>
<text text-anchor="middle" x="727" y="-69" font-family="Helvetica,sans-Serif" font-size="10.00">Scene.cpp</text>
</a>
</g>
</g>
<!-- Node1&#45;&gt;Node6 -->
<g id="edge5" class="edge">
<title>Node1&#45;&gt;Node6</title>
<path fill="none" stroke="midnightblue" d="M2364.83,-148.44C2077.5,-147.83 1109.52,-142.46 803,-98 793.41,-96.61 783.3,-94.45 773.69,-92.06"/>
<polygon fill="midnightblue" stroke="midnightblue" points="2365.16,-151.94 2375.16,-148.46 2365.17,-144.94 2365.16,-151.94"/>
</g>
<!-- Node7 -->
<g id="node7" class="node">
<title>Node7</title>
<g id="a_node7"><a xlink:href="LoadingScene_8cpp.html" target="_top" xlink:title=" ">
<polygon fill="none" stroke="black" points="812.5,-67.5 812.5,-86.5 961.5,-86.5 961.5,-67.5 812.5,-67.5"/>
<text text-anchor="middle" x="887" y="-74.5" font-family="Helvetica,sans-Serif" font-size="10.00">src/Scenes/LoadingScene.cpp</text>
</a>
</g>
</g>
<!-- Node1&#45;&gt;Node7 -->
<g id="edge6" class="edge">
<title>Node1&#45;&gt;Node7</title>
<path fill="none" stroke="midnightblue" d="M2365.11,-147.86C2097.71,-145.39 1243.8,-134.77 971,-98 952.73,-95.54 932.62,-90.82 916.66,-86.59"/>
<polygon fill="midnightblue" stroke="midnightblue" points="2365.1,-151.36 2375.13,-147.95 2365.16,-144.36 2365.1,-151.36"/>
</g>
<!-- Node8 -->
<g id="node8" class="node">
<title>Node8</title>
<g id="a_node8"><a xlink:href="MainScene_8cpp.html" target="_top" xlink:title=" ">
<polygon fill="none" stroke="black" points="980,-67.5 980,-86.5 1116,-86.5 1116,-67.5 980,-67.5"/>
<text text-anchor="middle" x="1048" y="-74.5" font-family="Helvetica,sans-Serif" font-size="10.00">src/Scenes/MainScene.cpp</text>
</a>
</g>
</g>
<!-- Node1&#45;&gt;Node8 -->
<g id="edge7" class="edge">
<title>Node1&#45;&gt;Node8</title>
<path fill="none" stroke="midnightblue" d="M2365.19,-147.69C2116.7,-144.86 1366.17,-133.5 1125,-98 1108.19,-95.53 1089.76,-90.81 1075.15,-86.58"/>
<polygon fill="midnightblue" stroke="midnightblue" points="2365.19,-151.2 2375.23,-147.81 2365.27,-144.2 2365.19,-151.2"/>
</g>
<!-- Node9 -->
<g id="node9" class="node">
<title>Node9</title>
<g id="a_node9"><a xlink:href="PauseScene_8cpp.html" target="_top" xlink:title=" ">
<polygon fill="none" stroke="black" points="1134.5,-67.5 1134.5,-86.5 1277.5,-86.5 1277.5,-67.5 1134.5,-67.5"/>
<text text-anchor="middle" x="1206" y="-74.5" font-family="Helvetica,sans-Serif" font-size="10.00">src/Scenes/PauseScene.cpp</text>
</a>
</g>
</g>
<!-- Node1&#45;&gt;Node9 -->
<g id="edge8" class="edge">
<title>Node1&#45;&gt;Node9</title>
<path fill="none" stroke="midnightblue" d="M2365.14,-147.07C2137.73,-142.7 1495.61,-128 1287,-98 1269.37,-95.46 1249.98,-90.75 1234.59,-86.53"/>
<polygon fill="midnightblue" stroke="midnightblue" points="2365.26,-150.57 2375.33,-147.26 2365.4,-143.57 2365.26,-150.57"/>
</g>
<!-- Node10 -->
<g id="node10" class="node">
<title>Node10</title>
<g id="a_node10"><a xlink:href="SaveSelectionScene_8cpp.html" target="_top" xlink:title=" ">
<polygon fill="none" stroke="black" points="1296,-62 1296,-92 1428,-92 1428,-62 1296,-62"/>
<text text-anchor="start" x="1304" y="-80" font-family="Helvetica,sans-Serif" font-size="10.00">src/Scenes/SaveSelection</text>
<text text-anchor="middle" x="1362" y="-69" font-family="Helvetica,sans-Serif" font-size="10.00">Scene.cpp</text>
</a>
</g>
</g>
<!-- Node1&#45;&gt;Node10 -->
<g id="edge9" class="edge">
<title>Node1&#45;&gt;Node10</title>
<path fill="none" stroke="midnightblue" d="M2365.32,-146.65C2158.89,-141.58 1615.29,-125.91 1437,-98 1427.68,-96.54 1417.85,-94.38 1408.48,-92.02"/>
<polygon fill="midnightblue" stroke="midnightblue" points="2365.4,-150.16 2375.48,-146.9 2365.57,-143.16 2365.4,-150.16"/>
</g>
<!-- Node11 -->
<g id="node11" class="node">
<title>Node11</title>
<g id="a_node11"><a xlink:href="VictoryScene_8cpp.html" target="_top" xlink:title=" ">
<polygon fill="none" stroke="black" points="1446.5,-67.5 1446.5,-86.5 1591.5,-86.5 1591.5,-67.5 1446.5,-67.5"/>
<text text-anchor="middle" x="1519" y="-74.5" font-family="Helvetica,sans-Serif" font-size="10.00">src/Scenes/VictoryScene.cpp</text>
</a>
</g>
</g>
<!-- Node1&#45;&gt;Node11 -->
<g id="edge10" class="edge">
<title>Node1&#45;&gt;Node11</title>
<path fill="none" stroke="midnightblue" d="M2365.34,-148.48C2214.42,-147.38 1879.44,-139.93 1601,-98 1583.32,-95.34 1563.87,-90.67 1548.35,-86.51"/>
<polygon fill="midnightblue" stroke="midnightblue" points="2365.42,-151.98 2375.45,-148.55 2365.47,-144.98 2365.42,-151.98"/>
</g>
<!-- Node12 -->
<g id="node12" class="node">
<title>Node12</title>
<g id="a_node12"><a xlink:href="AttackBehaviour_8cpp.html" target="_top" xlink:title=" ">
<polygon fill="none" stroke="black" points="1610,-62 1610,-92 1720,-92 1720,-62 1610,-62"/>
<text text-anchor="start" x="1618" y="-80" font-family="Helvetica,sans-Serif" font-size="10.00">src/Scripts/Common</text>
<text text-anchor="middle" x="1665" y="-69" font-family="Helvetica,sans-Serif" font-size="10.00">/AttackBehaviour.cpp</text>
</a>
</g>
</g>
<!-- Node1&#45;&gt;Node12 -->
<g id="edge11" class="edge">
<title>Node1&#45;&gt;Node12</title>
<path fill="none" stroke="midnightblue" d="M2365.19,-148.89C2231.59,-148.19 1956.81,-141.01 1729,-98 1721.11,-96.51 1712.82,-94.37 1704.92,-92.04"/>
<polygon fill="midnightblue" stroke="midnightblue" points="2365.32,-152.39 2375.34,-148.94 2365.35,-145.39 2365.32,-152.39"/>
</g>
<!-- Node13 -->
<g id="node13" class="node">
<title>Node13</title>
<g id="a_node13"><a xlink:href="GameLostBehaviour_8cpp.html" target="_top" xlink:title=" ">
<polygon fill="none" stroke="black" points="1738.5,-62 1738.5,-92 1865.5,-92 1865.5,-62 1738.5,-62"/>
<text text-anchor="start" x="1746.5" y="-80" font-family="Helvetica,sans-Serif" font-size="10.00">src/Scripts/Common</text>
<text text-anchor="middle" x="1802" y="-69" font-family="Helvetica,sans-Serif" font-size="10.00">/GameLostBehaviour.cpp</text>
</a>
</g>
</g>
<!-- Node1&#45;&gt;Node13 -->
<g id="edge12" class="edge">
<title>Node1&#45;&gt;Node13</title>
<path fill="none" stroke="midnightblue" d="M2365.3,-146.02C2253.97,-141.55 2047.36,-129.46 1874,-98 1865.45,-96.45 1856.44,-94.34 1847.8,-92.07"/>
<polygon fill="midnightblue" stroke="midnightblue" points="2365.32,-149.52 2375.45,-146.42 2365.59,-142.53 2365.32,-149.52"/>
</g>
<!-- Node14 -->
<g id="node14" class="node">
<title>Node14</title>
<g id="a_node14"><a xlink:href="GameWonBehaviour_8cpp.html" target="_top" xlink:title=" ">
<polygon fill="none" stroke="black" points="1883.5,-62 1883.5,-92 2010.5,-92 2010.5,-62 1883.5,-62"/>
<text text-anchor="start" x="1891.5" y="-80" font-family="Helvetica,sans-Serif" font-size="10.00">src/Scripts/Common</text>
<text text-anchor="middle" x="1947" y="-69" font-family="Helvetica,sans-Serif" font-size="10.00">/GameWonBehaviour.cpp</text>
</a>
</g>
</g>
<!-- Node1&#45;&gt;Node14 -->
<g id="edge13" class="edge">
<title>Node1&#45;&gt;Node14</title>
<path fill="none" stroke="midnightblue" d="M2365.22,-142.66C2278.93,-135.55 2138.42,-121.5 2019,-98 2010.73,-96.37 2002.01,-94.28 1993.61,-92.07"/>
<polygon fill="midnightblue" stroke="midnightblue" points="2364.96,-146.15 2375.21,-143.47 2365.53,-139.17 2364.96,-146.15"/>
</g>
<!-- Node15 -->
<g id="node15" class="node">
<title>Node15</title>
<g id="a_node15"><a xlink:href="EnemyMedicBehaviour_8cpp.html" target="_top" xlink:title=" ">
<polygon fill="none" stroke="black" points="2028.5,-62 2028.5,-92 2165.5,-92 2165.5,-62 2028.5,-62"/>
<text text-anchor="start" x="2036.5" y="-80" font-family="Helvetica,sans-Serif" font-size="10.00">src/Scripts/Enemies</text>
<text text-anchor="middle" x="2097" y="-69" font-family="Helvetica,sans-Serif" font-size="10.00">/EnemyMedicBehaviour.cpp</text>
</a>
</g>
</g>
<!-- Node1&#45;&gt;Node15 -->
<g id="edge14" class="edge">
<title>Node1&#45;&gt;Node15</title>
<path fill="none" stroke="midnightblue" d="M2365.4,-134.93C2311.35,-125.48 2238.68,-112.08 2175,-98 2166.81,-96.19 2158.17,-94.13 2149.75,-92.03"/>
<polygon fill="midnightblue" stroke="midnightblue" points="2364.82,-138.38 2375.27,-136.65 2366.02,-131.49 2364.82,-138.38"/>
</g>
<!-- Node16 -->
<g id="node16" class="node">
<title>Node16</title>
<g id="a_node16"><a xlink:href="EnemySpeedBoostBehaviour_8cpp.html" target="_top" xlink:title=" ">
<polygon fill="none" stroke="black" points="2184,-62 2184,-92 2348,-92 2348,-62 2184,-62"/>
<text text-anchor="start" x="2192" y="-80" font-family="Helvetica,sans-Serif" font-size="10.00">src/Scripts/Enemies</text>
<text text-anchor="middle" x="2266" y="-69" font-family="Helvetica,sans-Serif" font-size="10.00">/EnemySpeedBoostBehaviour.cpp</text>
</a>
</g>
</g>
<!-- Node1&#45;&gt;Node16 -->
<g id="edge15" class="edge">
<title>Node1&#45;&gt;Node16</title>
<path fill="none" stroke="midnightblue" d="M2400.44,-130.65C2369.9,-118.69 2330.24,-103.16 2301.93,-92.07"/>
<polygon fill="midnightblue" stroke="midnightblue" points="2399.42,-134.01 2410.01,-134.4 2401.97,-127.5 2399.42,-134.01"/>
</g>
<!-- Node17 -->
<g id="node17" class="node">
<title>Node17</title>
<g id="a_node17"><a xlink:href="EnemyTroopTruckBehaviour_8cpp.html" target="_top" xlink:title=" ">
<polygon fill="none" stroke="black" points="2366,-62 2366,-92 2526,-92 2526,-62 2366,-62"/>
<text text-anchor="start" x="2374" y="-80" font-family="Helvetica,sans-Serif" font-size="10.00">src/Scripts/Enemies</text>
<text text-anchor="middle" x="2446" y="-69" font-family="Helvetica,sans-Serif" font-size="10.00">/EnemyTroopTruckBehaviour.cpp</text>
</a>
</g>
</g>
<!-- Node1&#45;&gt;Node17 -->
<g id="edge16" class="edge">
<title>Node1&#45;&gt;Node17</title>
<path fill="none" stroke="midnightblue" d="M2446,-124.23C2446,-113.57 2446,-101.41 2446,-92.25"/>
<polygon fill="midnightblue" stroke="midnightblue" points="2442.5,-124.23 2446,-134.23 2449.5,-124.23 2442.5,-124.23"/>
</g>
<!-- Node18 -->
<g id="node18" class="node">
<title>Node18</title>
<g id="a_node18"><a xlink:href="AirstrikeAbilityBehaviour_8cpp.html" target="_top" xlink:title=" ">
<polygon fill="none" stroke="black" points="2544.5,-62 2544.5,-92 2687.5,-92 2687.5,-62 2544.5,-62"/>
<text text-anchor="start" x="2552.5" y="-80" font-family="Helvetica,sans-Serif" font-size="10.00">src/Scripts/Heroes</text>
<text text-anchor="middle" x="2616" y="-69" font-family="Helvetica,sans-Serif" font-size="10.00">/AirstrikeAbilityBehaviour.cpp</text>
</a>
</g>
</g>
<!-- Node1&#45;&gt;Node18 -->
<g id="edge17" class="edge">
<title>Node1&#45;&gt;Node18</title>
<path fill="none" stroke="midnightblue" d="M2489.41,-130.5C2518.2,-118.56 2555.44,-103.11 2582.07,-92.07"/>
<polygon fill="midnightblue" stroke="midnightblue" points="2487.89,-127.34 2479.99,-134.4 2490.57,-133.8 2487.89,-127.34"/>
</g>
<!-- Node19 -->
<g id="node19" class="node">
<title>Node19</title>
<g id="a_node19"><a xlink:href="EnemySuicideAbilityBehaviour_8cpp.html" target="_top" xlink:title=" ">
<polygon fill="none" stroke="black" points="2705.5,-62 2705.5,-92 2874.5,-92 2874.5,-62 2705.5,-62"/>
<text text-anchor="start" x="2713.5" y="-80" font-family="Helvetica,sans-Serif" font-size="10.00">src/Scripts/Heroes</text>
<text text-anchor="middle" x="2790" y="-69" font-family="Helvetica,sans-Serif" font-size="10.00">/EnemySuicideAbilityBehaviour.cpp</text>
</a>
</g>
</g>
<!-- Node1&#45;&gt;Node19 -->
<g id="edge18" class="edge">
<title>Node1&#45;&gt;Node19</title>
<path fill="none" stroke="midnightblue" d="M2526.27,-132.5C2575.32,-122.68 2639.31,-109.76 2696,-98 2705.23,-96.09 2714.97,-94.04 2724.53,-92.02"/>
<polygon fill="midnightblue" stroke="midnightblue" points="2525.47,-129.09 2516.35,-134.49 2526.85,-135.96 2525.47,-129.09"/>
</g>
<!-- Node20 -->
<g id="node20" class="node">
<title>Node20</title>
<g id="a_node20"><a xlink:href="IncreaseTowerFireRateAbilityBehaviour_8cpp.html" target="_top" xlink:title=" ">
<polygon fill="none" stroke="black" points="2892.5,-56.5 2892.5,-97.5 3039.5,-97.5 3039.5,-56.5 2892.5,-56.5"/>
<text text-anchor="start" x="2900.5" y="-85.5" font-family="Helvetica,sans-Serif" font-size="10.00">src/Scripts/Heroes</text>
<text text-anchor="start" x="2900.5" y="-74.5" font-family="Helvetica,sans-Serif" font-size="10.00">/IncreaseTowerFireRateAbility</text>
<text text-anchor="middle" x="2966" y="-63.5" font-family="Helvetica,sans-Serif" font-size="10.00">Behaviour.cpp</text>
</a>
</g>
</g>
<!-- Node1&#45;&gt;Node20 -->
<g id="edge19" class="edge">
<title>Node1&#45;&gt;Node20</title>
<path fill="none" stroke="midnightblue" d="M2526.96,-142.11C2615.01,-134.47 2759.67,-119.9 2883,-98 2886.06,-97.46 2889.19,-96.87 2892.33,-96.24"/>
<polygon fill="midnightblue" stroke="midnightblue" points="2526.44,-138.64 2516.77,-142.98 2527.03,-145.61 2526.44,-138.64"/>
</g>
<!-- Node21 -->
<g id="node21" class="node">
<title>Node21</title>
<g id="a_node21"><a xlink:href="IncreaseTowerRangeAbilityBehaviour_8cpp.html" target="_top" xlink:title=" ">
<polygon fill="none" stroke="black" points="3058,-56.5 3058,-97.5 3196,-97.5 3196,-56.5 3058,-56.5"/>
<text text-anchor="start" x="3066" y="-85.5" font-family="Helvetica,sans-Serif" font-size="10.00">src/Scripts/Heroes</text>
<text text-anchor="start" x="3066" y="-74.5" font-family="Helvetica,sans-Serif" font-size="10.00">/IncreaseTowerRangeAbility</text>
<text text-anchor="middle" x="3127" y="-63.5" font-family="Helvetica,sans-Serif" font-size="10.00">Behaviour.cpp</text>
</a>
</g>
</g>
<!-- Node1&#45;&gt;Node21 -->
<g id="edge20" class="edge">
<title>Node1&#45;&gt;Node21</title>
<path fill="none" stroke="midnightblue" d="M2527.13,-145.92C2643.25,-141.28 2863.24,-128.92 3048,-98 3051.21,-97.46 3054.48,-96.86 3057.77,-96.21"/>
<polygon fill="midnightblue" stroke="midnightblue" points="2526.76,-142.43 2516.9,-146.32 2527.03,-149.43 2526.76,-142.43"/>
</g>
<!-- Node22 -->
<g id="node22" class="node">
<title>Node22</title>
<g id="a_node22"><a xlink:href="InvisibilityAbilityBehaviour_8cpp.html" target="_top" xlink:title=" ">
<polygon fill="none" stroke="black" points="3214,-62 3214,-92 3364,-92 3364,-62 3214,-62"/>
<text text-anchor="start" x="3222" y="-80" font-family="Helvetica,sans-Serif" font-size="10.00">src/Scripts/Heroes</text>
<text text-anchor="middle" x="3289" y="-69" font-family="Helvetica,sans-Serif" font-size="10.00">/InvisibilityAbilityBehaviour.cpp</text>
</a>
</g>
</g>
<!-- Node1&#45;&gt;Node22 -->
<g id="edge21" class="edge">
<title>Node1&#45;&gt;Node22</title>
<path fill="none" stroke="midnightblue" d="M2526.69,-147.55C2665.88,-144.94 2959.78,-135.08 3205,-98 3215.08,-96.48 3225.73,-94.35 3235.94,-92.05"/>
<polygon fill="midnightblue" stroke="midnightblue" points="2526.47,-144.06 2516.53,-147.74 2526.6,-151.06 2526.47,-144.06"/>
</g>
<!-- Node23 -->
<g id="node23" class="node">
<title>Node23</title>
<g id="a_node23"><a xlink:href="UserAttackBehaviour_8cpp.html" target="_top" xlink:title=" ">
<polygon fill="none" stroke="black" points="3382.5,-62 3382.5,-92 3513.5,-92 3513.5,-62 3382.5,-62"/>
<text text-anchor="start" x="3390.5" y="-80" font-family="Helvetica,sans-Serif" font-size="10.00">src/Scripts/Heroes</text>
<text text-anchor="middle" x="3448" y="-69" font-family="Helvetica,sans-Serif" font-size="10.00">/UserAttackBehaviour.cpp</text>
</a>
</g>
</g>
<!-- Node1&#45;&gt;Node23 -->
<g id="edge22" class="edge">
<title>Node1&#45;&gt;Node23</title>
<path fill="none" stroke="midnightblue" d="M2526.93,-146.23C2721.46,-140.44 3211.14,-123.71 3373,-98 3382.18,-96.54 3391.86,-94.42 3401.11,-92.09"/>
<polygon fill="midnightblue" stroke="midnightblue" points="2526.67,-142.74 2516.78,-146.53 2526.88,-149.74 2526.67,-142.74"/>
</g>
<!-- Node24 -->
<g id="node24" class="node">
<title>Node24</title>
<g id="a_node24"><a xlink:href="CloseSceneBehaviour_8cpp.html" target="_top" xlink:title=" ">
<polygon fill="none" stroke="black" points="3532,-62 3532,-92 3678,-92 3678,-62 3532,-62"/>
<text text-anchor="start" x="3540" y="-80" font-family="Helvetica,sans-Serif" font-size="10.00">src/Scripts/Menu/CloseScene</text>
<text text-anchor="middle" x="3605" y="-69" font-family="Helvetica,sans-Serif" font-size="10.00">Behaviour.cpp</text>
</a>
</g>
</g>
<!-- Node1&#45;&gt;Node24 -->
<g id="edge23" class="edge">
<title>Node1&#45;&gt;Node24</title>
<path fill="none" stroke="midnightblue" d="M2527,-146.69C2743.13,-141.54 3330.05,-125.38 3522,-98 3532.27,-96.53 3543.13,-94.38 3553.49,-92.01"/>
<polygon fill="midnightblue" stroke="midnightblue" points="2526.6,-143.2 2516.68,-146.93 2526.76,-150.19 2526.6,-143.2"/>
</g>
<!-- Node25 -->
<g id="node25" class="node">
<title>Node25</title>
<g id="a_node25"><a xlink:href="PauseSceneBehaviour_8cpp.html" target="_top" xlink:title=" ">
<polygon fill="none" stroke="black" points="3696.5,-62 3696.5,-92 3845.5,-92 3845.5,-62 3696.5,-62"/>
<text text-anchor="start" x="3704.5" y="-80" font-family="Helvetica,sans-Serif" font-size="10.00">src/Scripts/Menu/PauseScene</text>
<text text-anchor="middle" x="3771" y="-69" font-family="Helvetica,sans-Serif" font-size="10.00">Behaviour.cpp</text>
</a>
</g>
</g>
<!-- Node1&#45;&gt;Node25 -->
<g id="edge24" class="edge">
<title>Node1&#45;&gt;Node25</title>
<path fill="none" stroke="midnightblue" d="M2527.12,-147.24C2765.61,-143.23 3461.79,-129.1 3687,-98 3697.4,-96.56 3708.39,-94.42 3718.87,-92.06"/>
<polygon fill="midnightblue" stroke="midnightblue" points="2526.73,-143.75 2516.79,-147.42 2526.85,-150.75 2526.73,-143.75"/>
</g>
<!-- Node26 -->
<g id="node26" class="node">
<title>Node26</title>
<g id="a_node26"><a xlink:href="Engine_8cpp.html" target="_top" xlink:title=" ">
<polygon fill="none" stroke="black" points="3863.5,-62 3863.5,-92 3964.5,-92 3964.5,-62 3863.5,-62"/>
<text text-anchor="start" x="3871.5" y="-80" font-family="Helvetica,sans-Serif" font-size="10.00">libs/spic&#45;engine/src</text>
<text text-anchor="middle" x="3914" y="-69" font-family="Helvetica,sans-Serif" font-size="10.00">/Api/Engine.cpp</text>
</a>
</g>
</g>
<!-- Node1&#45;&gt;Node26 -->
<g id="edge25" class="edge">
<title>Node1&#45;&gt;Node26</title>
<path fill="none" stroke="midnightblue" d="M2526.85,-148.63C2786.41,-148.56 3596.58,-144.52 3854,-98 3861.67,-96.61 3869.7,-94.46 3877.3,-92.07"/>
<polygon fill="midnightblue" stroke="midnightblue" points="2526.75,-145.13 2516.75,-148.63 2526.75,-152.13 2526.75,-145.13"/>
</g>
<!-- Node27 -->
<g id="node27" class="node">
<title>Node27</title>
<g id="a_node27"><a xlink:href="GameObject_8cpp.html" target="_top" xlink:title=" ">
<polygon fill="none" stroke="black" points="3983,-62 3983,-92 4093,-92 4093,-62 3983,-62"/>
<text text-anchor="start" x="3991" y="-80" font-family="Helvetica,sans-Serif" font-size="10.00">libs/spic&#45;engine/src</text>
<text text-anchor="middle" x="4038" y="-69" font-family="Helvetica,sans-Serif" font-size="10.00">/Api/GameObject.cpp</text>
</a>
</g>
</g>
<!-- Node1&#45;&gt;Node27 -->
<g id="edge26" class="edge">
<title>Node1&#45;&gt;Node27</title>
<path fill="none" stroke="midnightblue" d="M2527,-148.65C2800.9,-148.71 3690.98,-145.19 3973,-98 3981.27,-96.62 3989.95,-94.46 3998.18,-92.07"/>
<polygon fill="midnightblue" stroke="midnightblue" points="2526.75,-145.15 2516.75,-148.65 2526.75,-152.15 2526.75,-145.15"/>
</g>
<!-- Node28 -->
<g id="node28" class="node">
<title>Node28</title>
<g id="a_node28"><a xlink:href="AudioSubsystem_8cpp.html" target="_top" xlink:title=" ">
<polygon fill="none" stroke="black" points="4111,-62 4111,-92 4279,-92 4279,-62 4111,-62"/>
<text text-anchor="start" x="4119" y="-80" font-family="Helvetica,sans-Serif" font-size="10.00">libs/spic&#45;engine/src</text>
<text text-anchor="middle" x="4195" y="-69" font-family="Helvetica,sans-Serif" font-size="10.00">/Subsystems/AudioSubsystem.cpp</text>
</a>
</g>
</g>
<!-- Node1&#45;&gt;Node28 -->
<g id="edge27" class="edge">
<title>Node1&#45;&gt;Node28</title>
<path fill="none" stroke="midnightblue" d="M2527.26,-147.97C2816.02,-145.8 3791.93,-135.75 4102,-98 4113.64,-96.58 4125.98,-94.41 4137.73,-92.02"/>
<polygon fill="midnightblue" stroke="midnightblue" points="2526.84,-144.48 2516.87,-148.05 2526.89,-151.48 2526.84,-144.48"/>
</g>
<!-- Node29 -->
<g id="node29" class="node">
<title>Node29</title>
<g id="a_node29"><a xlink:href="FpsCounterSubsystem_8cpp.html" target="_top" xlink:title=" ">
<polygon fill="none" stroke="black" points="4297,-62 4297,-92 4491,-92 4491,-62 4297,-62"/>
<text text-anchor="start" x="4305" y="-80" font-family="Helvetica,sans-Serif" font-size="10.00">libs/spic&#45;engine/src</text>
<text text-anchor="middle" x="4394" y="-69" font-family="Helvetica,sans-Serif" font-size="10.00">/Subsystems/FpsCounterSubsystem.cpp</text>
</a>
</g>
</g>
<!-- Node1&#45;&gt;Node29 -->
<g id="edge28" class="edge">
<title>Node1&#45;&gt;Node29</title>
<path fill="none" stroke="midnightblue" d="M2526.86,-148C2835.44,-145.8 3939.09,-135.46 4288,-98 4301.22,-96.58 4315.26,-94.41 4328.65,-92.01"/>
<polygon fill="midnightblue" stroke="midnightblue" points="2526.63,-144.5 2516.66,-148.07 2526.68,-151.5 2526.63,-144.5"/>
</g>
<!-- Node30 -->
<g id="node30" class="node">
<title>Node30</title>
<g id="a_node30"><a xlink:href="InputSubsystem_8cpp.html" target="_top" xlink:title=" ">
<polygon fill="none" stroke="black" points="4509.5,-62 4509.5,-92 4674.5,-92 4674.5,-62 4509.5,-62"/>
<text text-anchor="start" x="4517.5" y="-80" font-family="Helvetica,sans-Serif" font-size="10.00">libs/spic&#45;engine/src</text>
<text text-anchor="middle" x="4592" y="-69" font-family="Helvetica,sans-Serif" font-size="10.00">/Subsystems/InputSubsystem.cpp</text>
</a>
</g>
</g>
<!-- Node1&#45;&gt;Node30 -->
<g id="edge29" class="edge">
<title>Node1&#45;&gt;Node30</title>
<path fill="none" stroke="midnightblue" d="M2527.17,-148.56C2858.33,-148.48 4108.03,-144.99 4500,-98 4511.52,-96.62 4523.73,-94.46 4535.36,-92.07"/>
<polygon fill="midnightblue" stroke="midnightblue" points="2526.71,-145.06 2516.71,-148.56 2526.71,-152.06 2526.71,-145.06"/>
</g>
<!-- Node31 -->
<g id="node31" class="node">
<title>Node31</title>
<g id="a_node31"><a xlink:href="RenderSubsystem_8cpp.html" target="_top" xlink:title=" ">
<polygon fill="none" stroke="black" points="4693,-62 4693,-92 4867,-92 4867,-62 4693,-62"/>
<text text-anchor="start" x="4701" y="-80" font-family="Helvetica,sans-Serif" font-size="10.00">libs/spic&#45;engine/src</text>
<text text-anchor="middle" x="4780" y="-69" font-family="Helvetica,sans-Serif" font-size="10.00">/Subsystems/RenderSubsystem.cpp</text>
</a>
</g>
</g>
<!-- Node1&#45;&gt;Node31 -->
<g id="edge30" class="edge">
<title>Node1&#45;&gt;Node31</title>
<path fill="none" stroke="midnightblue" d="M2526.79,-148.63C2875.42,-148.9 4252.75,-146.81 4683,-98 4695.22,-96.61 4708.17,-94.44 4720.51,-92.03"/>
<polygon fill="midnightblue" stroke="midnightblue" points="2526.54,-145.13 2516.53,-148.62 2526.53,-152.13 2526.54,-145.13"/>
</g>
<!-- Node32 -->
<g id="node32" class="node">
<title>Node32</title>
<g id="a_node32"><a xlink:href="Api_8hpp.html" target="_top" xlink:title=" ">
<polygon fill="none" stroke="black" points="4885,-62 4885,-92 5011,-92 5011,-62 4885,-62"/>
<text text-anchor="start" x="4893" y="-80" font-family="Helvetica,sans-Serif" font-size="10.00">libs/spic&#45;engine/includes</text>
<text text-anchor="middle" x="4948" y="-69" font-family="Helvetica,sans-Serif" font-size="10.00">/spic&#45;api&#45;headers/Api.hpp</text>
</a>
</g>
</g>
<!-- Node1&#45;&gt;Node32 -->
<g id="edge31" class="edge">
<title>Node1&#45;&gt;Node32</title>
<path fill="none" stroke="midnightblue" d="M2526.96,-148.02C2922.24,-145.51 4639.8,-132.7 4876,-98 4885.24,-96.64 4894.98,-94.47 4904.2,-92.04"/>
<polygon fill="midnightblue" stroke="midnightblue" points="2526.74,-144.52 2516.76,-148.08 2526.78,-151.52 2526.74,-144.52"/>
</g>
<!-- Node33 -->
<g id="node33" class="node">
<title>Node33</title>
<g id="a_node33"><a xlink:href="LevelController_8cpp.html" target="_top" xlink:title=" ">
<polygon fill="none" stroke="black" points="4796,-0.5 4796,-19.5 4962,-19.5 4962,-0.5 4796,-0.5"/>
<text text-anchor="middle" x="4879" y="-7.5" font-family="Helvetica,sans-Serif" font-size="10.00">src/Controllers/LevelController.cpp</text>
</a>
</g>
</g>
<!-- Node32&#45;&gt;Node33 -->
<g id="edge32" class="edge">
<title>Node32&#45;&gt;Node33</title>
<path fill="none" stroke="midnightblue" d="M4925.53,-54.84C4912.86,-42.9 4897.72,-28.64 4888.23,-19.69"/>
<polygon fill="midnightblue" stroke="midnightblue" points="4923.35,-57.59 4933.03,-61.9 4928.15,-52.49 4923.35,-57.59"/>
</g>
<!-- Node34 -->
<g id="node34" class="node">
<title>Node34</title>
<g id="a_node34"><a xlink:href="main_8cpp.html" target="_top" xlink:title=" ">
<polygon fill="none" stroke="black" points="4980,-0.5 4980,-19.5 5052,-19.5 5052,-0.5 4980,-0.5"/>
<text text-anchor="middle" x="5016" y="-7.5" font-family="Helvetica,sans-Serif" font-size="10.00">src/main.cpp</text>
</a>
</g>
</g>
<!-- Node32&#45;&gt;Node34 -->
<g id="edge33" class="edge">
<title>Node32&#45;&gt;Node34</title>
<path fill="none" stroke="midnightblue" d="M4970.14,-54.84C4982.63,-42.9 4997.55,-28.64 5006.9,-19.69"/>
<polygon fill="midnightblue" stroke="midnightblue" points="4967.57,-52.46 4962.75,-61.9 4972.4,-57.52 4967.57,-52.46"/>
</g>
</g>
</svg>
        <g id="navigator" transform="translate(0 0)" fill="#404254">
                <rect fill="#f2f5e9" fill-opacity="0.5" stroke="#606060" stroke-width=".5" x="0" y="0" width="60" height="60"/>
                <use id="zoomplus" xlink:href="#zoomPlus" x="17" y="9" onmousedown="handleZoom(evt,'in')"/>
                <use id="zoomminus" xlink:href="#zoomMin" x="42" y="9" onmousedown="handleZoom(evt,'out')"/>
                <use id="reset" xlink:href="#resetDef" x="30" y="36" onmousedown="handleReset()"/>
                <g id="arrowUp" xlink:href="#dirArrow" transform="translate(30 24)" onmousedown="handlePan(0,-1)">
                  <use xlink:href="#rim" fill="#404040">
                        <set attributeName="fill" to="#808080" begin="arrowUp.mouseover" end="arrowUp.mouseout"/>
                  </use>
                  <path fill="none" stroke="white" stroke-width="1.5" d="M0,-3.0v7 M-2.5,-0.5L0,-3.0L2.5,-0.5"/>
                </g>
                <g id="arrowRight" xlink:href="#dirArrow" transform="rotate(90) translate(36 -43)" onmousedown="handlePan(1,0)">
                  <use xlink:href="#rim" fill="#404040">
                        <set attributeName="fill" to="#808080" begin="arrowRight.mouseover" end="arrowRight.mouseout"/>
                  </use>
                  <path fill="none" stroke="white" stroke-width="1.5" d="M0,-3.0v7 M-2.5,-0.5L0,-3.0L2.5,-0.5"/>
                </g>
                <g id="arrowDown" xlink:href="#dirArrow" transform="rotate(180) translate(-30 -48)" onmousedown="handlePan(0,1)">
                  <use xlink:href="#rim" fill="#404040">
                        <set attributeName="fill" to="#808080" begin="arrowDown.mouseover" end="arrowDown.mouseout"/>
                  </use>
                  <path fill="none" stroke="white" stroke-width="1.5" d="M0,-3.0v7 M-2.5,-0.5L0,-3.0L2.5,-0.5"/>
                </g>
                <g id="arrowLeft" xlink:href="#dirArrow" transform="rotate(270) translate(-36 17)" onmousedown="handlePan(-1,0)">
                  <use xlink:href="#rim" fill="#404040">
                        <set attributeName="fill" to="#808080" begin="arrowLeft.mouseover" end="arrowLeft.mouseout"/>
                  </use>
                  <path fill="none" stroke="white" stroke-width="1.5" d="M0,-3.0v7 M-2.5,-0.5L0,-3.0L2.5,-0.5"/>
                </g>
        </g>
        <svg viewBox="0 0 15 15" width="100%" height="30px" preserveAspectRatio="xMaxYMin meet">
         <g id="arrow_out" transform="scale(0.3 0.3)">
          <a xlink:href="Engine_8hpp__dep__incl_org.svg" target="_base">
           <rect id="button" ry="5" rx="5" y="6" x="6" height="38" width="38"
                fill="#f2f5e9" fill-opacity="0.5" stroke="#606060" stroke-width="1.0"/>
           <path id="arrow"
             d="M 11.500037,31.436501 C 11.940474,20.09759 22.043105,11.32322 32.158766,21.979434 L 37.068811,17.246167 C 37.068811,17.246167 37.088388,32 37.088388,32 L 22.160133,31.978069 C 22.160133,31.978069 26.997745,27.140456 26.997745,27.140456 C 18.528582,18.264221 13.291696,25.230495 11.500037,31.436501 z"
             style="fill:#404040;"/>
          </a>
         </g>
        </svg>
</svg>
