<?xml version="1.0" encoding="UTF-8" standalone="no"?>
<!DOCTYPE svg PUBLIC "-//W3C//DTD SVG 1.1//EN"
 "http://www.w3.org/Graphics/SVG/1.1/DTD/svg11.dtd">
<!-- Generated by graphviz version 2.44.0 ()
 -->
<!-- Title: libs/spic&#45;engine/includes/spic&#45;api&#45;headers/Engine.hpp Pages: 1 -->
<!--zoomable 173 -->
<svg id="main" version="1.1" xmlns="http://www.w3.org/2000/svg" xmlns:xlink="http://www.w3.org/1999/xlink" xml:space="preserve" onload="init(evt)">
<style type="text/css"><![CDATA[
.edge:hover path { stroke: red; }
.edge:hover polygon { stroke: red; fill: red; }
]]></style>
<script type="text/javascript"><![CDATA[
var edges = document.getElementsByTagName('g');
if (edges && edges.length) {
  for (var i=0;i<edges.length;i++) {
    if (edges[i].id.substr(0,4)=='edge') {
      edges[i].setAttribute('class','edge');
    }
  }
}
]]></script>
        <defs>
                <circle id="rim" cx="0" cy="0" r="7"/>
                <circle id="rim2" cx="0" cy="0" r="3.5"/>
                <g id="zoomPlus">
                        <use xlink:href="#rim" fill="#404040">
                                <set attributeName="fill" to="#808080" begin="zoomplus.mouseover" end="zoomplus.mouseout"/>
                        </use>
                        <path d="M-4,0h8M0,-4v8" fill="none" stroke="white" stroke-width="1.5" pointer-events="none"/>
                </g>
                <g id="zoomMin">
                        <use xlink:href="#rim" fill="#404040">
                                <set attributeName="fill" to="#808080" begin="zoomminus.mouseover" end="zoomminus.mouseout"/>
                        </use>
                        <path d="M-4,0h8" fill="none" stroke="white" stroke-width="1.5" pointer-events="none"/>
                </g>
                <g id="dirArrow">
                        <path fill="none" stroke="white" stroke-width="1.5" d="M0,-3.0v7 M-2.5,-0.5L0,-3.0L2.5,-0.5"/>
                </g>
               <g id="resetDef">
                       <use xlink:href="#rim2" fill="#404040">
                               <set attributeName="fill" to="#808080" begin="reset.mouseover" end="reset.mouseout"/>
                       </use>
               </g>
        </defs>

<script type="text/javascript">
var viewWidth = 4690;
var viewHeight = 173;
var sectionId = 'dynsection-1';
</script>
<script xlink:href="svgpan.js"/>
<svg id="graph" class="graph">
<g id="viewport">
<title>libs/spic&#45;engine/includes/spic&#45;api&#45;headers/Engine.hpp</title>
<!-- Node1 -->
<g id="node1" class="node">
<title>Node1</title>
<g id="a_node1"><a xlink:title=" ">
<polygon fill="#bfbfbf" stroke="black" points="2217.5,-134.5 2217.5,-164.5 2358.5,-164.5 2358.5,-134.5 2217.5,-134.5"/>
<text text-anchor="start" x="2225.5" y="-152.5" font-family="Helvetica,sans-Serif" font-size="10.00">libs/spic&#45;engine/includes</text>
<text text-anchor="middle" x="2288" y="-141.5" font-family="Helvetica,sans-Serif" font-size="10.00">/spic&#45;api&#45;headers/Engine.hpp</text>
</a>
</g>
</g>
<!-- Node2 -->
<g id="node2" class="node">
<title>Node2</title>
<g id="a_node2"><a xlink:href="BulletFactory_8cpp.html" target="_top" xlink:title=" ">
<polygon fill="none" stroke="black" points="0,-67.5 0,-86.5 152,-86.5 152,-67.5 0,-67.5"/>
<text text-anchor="middle" x="76" y="-74.5" font-family="Helvetica,sans-Serif" font-size="10.00">src/Factories/BulletFactory.cpp</text>
</a>
</g>
</g>
<!-- Node1&#45;&gt;Node2 -->
<g id="edge1" class="edge">
<title>Node1&#45;&gt;Node2</title>
<path fill="none" stroke="midnightblue" d="M2207.27,-148.82C1869.43,-149.82 567.82,-150.12 161,-98 142.35,-95.61 121.83,-90.84 105.62,-86.56"/>
<polygon fill="midnightblue" stroke="midnightblue" points="2207.47,-152.32 2217.46,-148.79 2207.45,-145.32 2207.47,-152.32"/>
</g>
<!-- Node3 -->
<g id="node3" class="node">
<title>Node3</title>
<g id="a_node3"><a xlink:href="ButtonPrefabFactory_8cpp.html" target="_top" xlink:title=" ">
<polygon fill="none" stroke="black" points="170,-62 170,-92 304,-92 304,-62 170,-62"/>
<text text-anchor="start" x="178" y="-80" font-family="Helvetica,sans-Serif" font-size="10.00">src/Factories/ButtonPrefab</text>
<text text-anchor="middle" x="237" y="-69" font-family="Helvetica,sans-Serif" font-size="10.00">Factory.cpp</text>
</a>
</g>
</g>
<!-- Node1&#45;&gt;Node3 -->
<g id="edge2" class="edge">
<title>Node1&#45;&gt;Node3</title>
<path fill="none" stroke="midnightblue" d="M2207.2,-148.93C1884.53,-150.25 687.76,-151.36 313,-98 303.41,-96.63 293.29,-94.49 283.68,-92.1"/>
<polygon fill="midnightblue" stroke="midnightblue" points="2207.41,-152.43 2217.4,-148.88 2207.38,-145.43 2207.41,-152.43"/>
</g>
<!-- Node4 -->
<g id="node4" class="node">
<title>Node4</title>
<g id="a_node4"><a xlink:href="GameOverScene_8cpp.html" target="_top" xlink:title=" ">
<polygon fill="none" stroke="black" points="322,-67.5 322,-86.5 484,-86.5 484,-67.5 322,-67.5"/>
<text text-anchor="middle" x="403" y="-74.5" font-family="Helvetica,sans-Serif" font-size="10.00">src/Scenes/GameOverScene.cpp</text>
</a>
</g>
</g>
<!-- Node1&#45;&gt;Node4 -->
<g id="edge3" class="edge">
<title>Node1&#45;&gt;Node4</title>
<path fill="none" stroke="midnightblue" d="M2207.12,-148.27C1903.47,-147.1 831.6,-140 493,-98 473.3,-95.56 451.57,-90.79 434.4,-86.52"/>
<polygon fill="midnightblue" stroke="midnightblue" points="2207.15,-151.77 2217.17,-148.31 2207.18,-144.77 2207.15,-151.77"/>
</g>
<!-- Node5 -->
<g id="node5" class="node">
<title>Node5</title>
<g id="a_node5"><a xlink:href="LevelSelectionScene_8cpp.html" target="_top" xlink:title=" ">
<polygon fill="none" stroke="black" points="502,-62 502,-92 636,-92 636,-62 502,-62"/>
<text text-anchor="start" x="510" y="-80" font-family="Helvetica,sans-Serif" font-size="10.00">src/Scenes/LevelSelection</text>
<text text-anchor="middle" x="569" y="-69" font-family="Helvetica,sans-Serif" font-size="10.00">Scene.cpp</text>
</a>
</g>
</g>
<!-- Node1&#45;&gt;Node5 -->
<g id="edge4" class="edge">
<title>Node1&#45;&gt;Node5</title>
<path fill="none" stroke="midnightblue" d="M2206.83,-148.44C1919.5,-147.83 951.52,-142.46 645,-98 635.41,-96.61 625.3,-94.45 615.69,-92.06"/>
<polygon fill="midnightblue" stroke="midnightblue" points="2207.16,-151.94 2217.16,-148.46 2207.17,-144.94 2207.16,-151.94"/>
</g>
<!-- Node6 -->
<g id="node6" class="node">
<title>Node6</title>
<g id="a_node6"><a xlink:href="LoadingScene_8cpp.html" target="_top" xlink:title=" ">
<polygon fill="none" stroke="black" points="654.5,-67.5 654.5,-86.5 803.5,-86.5 803.5,-67.5 654.5,-67.5"/>
<text text-anchor="middle" x="729" y="-74.5" font-family="Helvetica,sans-Serif" font-size="10.00">src/Scenes/LoadingScene.cpp</text>
</a>
</g>
</g>
<!-- Node1&#45;&gt;Node6 -->
<g id="edge5" class="edge">
<title>Node1&#45;&gt;Node6</title>
<path fill="none" stroke="midnightblue" d="M2207.11,-147.86C1939.71,-145.39 1085.8,-134.77 813,-98 794.73,-95.54 774.62,-90.82 758.66,-86.59"/>
<polygon fill="midnightblue" stroke="midnightblue" points="2207.1,-151.36 2217.13,-147.95 2207.16,-144.36 2207.1,-151.36"/>
</g>
<!-- Node7 -->
<g id="node7" class="node">
<title>Node7</title>
<g id="a_node7"><a xlink:href="MainScene_8cpp.html" target="_top" xlink:title=" ">
<polygon fill="none" stroke="black" points="822,-67.5 822,-86.5 958,-86.5 958,-67.5 822,-67.5"/>
<text text-anchor="middle" x="890" y="-74.5" font-family="Helvetica,sans-Serif" font-size="10.00">src/Scenes/MainScene.cpp</text>
</a>
</g>
</g>
<!-- Node1&#45;&gt;Node7 -->
<g id="edge6" class="edge">
<title>Node1&#45;&gt;Node7</title>
<path fill="none" stroke="midnightblue" d="M2207.19,-147.69C1958.7,-144.86 1208.17,-133.5 967,-98 950.19,-95.53 931.76,-90.81 917.15,-86.58"/>
<polygon fill="midnightblue" stroke="midnightblue" points="2207.19,-151.2 2217.23,-147.81 2207.27,-144.2 2207.19,-151.2"/>
</g>
<!-- Node8 -->
<g id="node8" class="node">
<title>Node8</title>
<g id="a_node8"><a xlink:href="PauseScene_8cpp.html" target="_top" xlink:title=" ">
<polygon fill="none" stroke="black" points="976.5,-67.5 976.5,-86.5 1119.5,-86.5 1119.5,-67.5 976.5,-67.5"/>
<text text-anchor="middle" x="1048" y="-74.5" font-family="Helvetica,sans-Serif" font-size="10.00">src/Scenes/PauseScene.cpp</text>
</a>
</g>
</g>
<!-- Node1&#45;&gt;Node8 -->
<g id="edge7" class="edge">
<title>Node1&#45;&gt;Node8</title>
<path fill="none" stroke="midnightblue" d="M2207.14,-147.07C1979.73,-142.7 1337.61,-128 1129,-98 1111.37,-95.46 1091.98,-90.75 1076.59,-86.53"/>
<polygon fill="midnightblue" stroke="midnightblue" points="2207.26,-150.57 2217.33,-147.26 2207.4,-143.57 2207.26,-150.57"/>
</g>
<!-- Node9 -->
<g id="node9" class="node">
<title>Node9</title>
<g id="a_node9"><a xlink:href="SaveSelectionScene_8cpp.html" target="_top" xlink:title=" ">
<polygon fill="none" stroke="black" points="1138,-62 1138,-92 1270,-92 1270,-62 1138,-62"/>
<text text-anchor="start" x="1146" y="-80" font-family="Helvetica,sans-Serif" font-size="10.00">src/Scenes/SaveSelection</text>
<text text-anchor="middle" x="1204" y="-69" font-family="Helvetica,sans-Serif" font-size="10.00">Scene.cpp</text>
</a>
</g>
</g>
<!-- Node1&#45;&gt;Node9 -->
<g id="edge8" class="edge">
<title>Node1&#45;&gt;Node9</title>
<path fill="none" stroke="midnightblue" d="M2207.32,-146.65C2000.89,-141.58 1457.29,-125.91 1279,-98 1269.68,-96.54 1259.85,-94.38 1250.48,-92.02"/>
<polygon fill="midnightblue" stroke="midnightblue" points="2207.4,-150.16 2217.48,-146.9 2207.57,-143.16 2207.4,-150.16"/>
</g>
<!-- Node10 -->
<g id="node10" class="node">
<title>Node10</title>
<g id="a_node10"><a xlink:href="VictoryScene_8cpp.html" target="_top" xlink:title=" ">
<polygon fill="none" stroke="black" points="1288.5,-67.5 1288.5,-86.5 1433.5,-86.5 1433.5,-67.5 1288.5,-67.5"/>
<text text-anchor="middle" x="1361" y="-74.5" font-family="Helvetica,sans-Serif" font-size="10.00">src/Scenes/VictoryScene.cpp</text>
</a>
</g>
</g>
<!-- Node1&#45;&gt;Node10 -->
<g id="edge9" class="edge">
<title>Node1&#45;&gt;Node10</title>
<path fill="none" stroke="midnightblue" d="M2207.34,-148.48C2056.42,-147.38 1721.44,-139.93 1443,-98 1425.32,-95.34 1405.87,-90.67 1390.35,-86.51"/>
<polygon fill="midnightblue" stroke="midnightblue" points="2207.42,-151.98 2217.45,-148.55 2207.47,-144.98 2207.42,-151.98"/>
</g>
<!-- Node11 -->
<g id="node11" class="node">
<title>Node11</title>
<g id="a_node11"><a xlink:href="AttackBehaviour_8cpp.html" target="_top" xlink:title=" ">
<polygon fill="none" stroke="black" points="1452,-62 1452,-92 1562,-92 1562,-62 1452,-62"/>
<text text-anchor="start" x="1460" y="-80" font-family="Helvetica,sans-Serif" font-size="10.00">src/Scripts/Common</text>
<text text-anchor="middle" x="1507" y="-69" font-family="Helvetica,sans-Serif" font-size="10.00">/AttackBehaviour.cpp</text>
</a>
</g>
</g>
<!-- Node1&#45;&gt;Node11 -->
<g id="edge10" class="edge">
<title>Node1&#45;&gt;Node11</title>
<path fill="none" stroke="midnightblue" d="M2207.19,-148.89C2073.59,-148.19 1798.81,-141.01 1571,-98 1563.11,-96.51 1554.82,-94.37 1546.92,-92.04"/>
<polygon fill="midnightblue" stroke="midnightblue" points="2207.32,-152.39 2217.34,-148.94 2207.35,-145.39 2207.32,-152.39"/>
</g>
<!-- Node12 -->
<g id="node12" class="node">
<title>Node12</title>
<g id="a_node12"><a xlink:href="GameLostBehaviour_8cpp.html" target="_top" xlink:title=" ">
<polygon fill="none" stroke="black" points="1580.5,-62 1580.5,-92 1707.5,-92 1707.5,-62 1580.5,-62"/>
<text text-anchor="start" x="1588.5" y="-80" font-family="Helvetica,sans-Serif" font-size="10.00">src/Scripts/Common</text>
<text text-anchor="middle" x="1644" y="-69" font-family="Helvetica,sans-Serif" font-size="10.00">/GameLostBehaviour.cpp</text>
</a>
</g>
</g>
<!-- Node1&#45;&gt;Node12 -->
<g id="edge11" class="edge">
<title>Node1&#45;&gt;Node12</title>
<path fill="none" stroke="midnightblue" d="M2207.3,-146.02C2095.97,-141.55 1889.36,-129.46 1716,-98 1707.45,-96.45 1698.44,-94.34 1689.8,-92.07"/>
<polygon fill="midnightblue" stroke="midnightblue" points="2207.32,-149.52 2217.45,-146.42 2207.59,-142.53 2207.32,-149.52"/>
</g>
<!-- Node13 -->
<g id="node13" class="node">
<title>Node13</title>
<g id="a_node13"><a xlink:href="GameWonBehaviour_8cpp.html" target="_top" xlink:title=" ">
<polygon fill="none" stroke="black" points="1725.5,-62 1725.5,-92 1852.5,-92 1852.5,-62 1725.5,-62"/>
<text text-anchor="start" x="1733.5" y="-80" font-family="Helvetica,sans-Serif" font-size="10.00">src/Scripts/Common</text>
<text text-anchor="middle" x="1789" y="-69" font-family="Helvetica,sans-Serif" font-size="10.00">/GameWonBehaviour.cpp</text>
</a>
</g>
</g>
<!-- Node1&#45;&gt;Node13 -->
<g id="edge12" class="edge">
<title>Node1&#45;&gt;Node13</title>
<path fill="none" stroke="midnightblue" d="M2207.22,-142.66C2120.93,-135.55 1980.42,-121.5 1861,-98 1852.73,-96.37 1844.01,-94.28 1835.61,-92.07"/>
<polygon fill="midnightblue" stroke="midnightblue" points="2206.96,-146.15 2217.21,-143.47 2207.53,-139.17 2206.96,-146.15"/>
</g>
<!-- Node14 -->
<g id="node14" class="node">
<title>Node14</title>
<g id="a_node14"><a xlink:href="EnemyMedicBehaviour_8cpp.html" target="_top" xlink:title=" ">
<polygon fill="none" stroke="black" points="1870.5,-62 1870.5,-92 2007.5,-92 2007.5,-62 1870.5,-62"/>
<text text-anchor="start" x="1878.5" y="-80" font-family="Helvetica,sans-Serif" font-size="10.00">src/Scripts/Enemies</text>
<text text-anchor="middle" x="1939" y="-69" font-family="Helvetica,sans-Serif" font-size="10.00">/EnemyMedicBehaviour.cpp</text>
</a>
</g>
</g>
<!-- Node1&#45;&gt;Node14 -->
<g id="edge13" class="edge">
<title>Node1&#45;&gt;Node14</title>
<path fill="none" stroke="midnightblue" d="M2207.4,-134.93C2153.35,-125.48 2080.68,-112.08 2017,-98 2008.81,-96.19 2000.17,-94.13 1991.75,-92.03"/>
<polygon fill="midnightblue" stroke="midnightblue" points="2206.82,-138.38 2217.27,-136.65 2208.02,-131.49 2206.82,-138.38"/>
</g>
<!-- Node15 -->
<g id="node15" class="node">
<title>Node15</title>
<g id="a_node15"><a xlink:href="EnemySpeedBoostBehaviour_8cpp.html" target="_top" xlink:title=" ">
<polygon fill="none" stroke="black" points="2026,-62 2026,-92 2190,-92 2190,-62 2026,-62"/>
<text text-anchor="start" x="2034" y="-80" font-family="Helvetica,sans-Serif" font-size="10.00">src/Scripts/Enemies</text>
<text text-anchor="middle" x="2108" y="-69" font-family="Helvetica,sans-Serif" font-size="10.00">/EnemySpeedBoostBehaviour.cpp</text>
</a>
</g>
</g>
<!-- Node1&#45;&gt;Node15 -->
<g id="edge14" class="edge">
<title>Node1&#45;&gt;Node15</title>
<path fill="none" stroke="midnightblue" d="M2242.44,-130.65C2211.9,-118.69 2172.24,-103.16 2143.93,-92.07"/>
<polygon fill="midnightblue" stroke="midnightblue" points="2241.42,-134.01 2252.01,-134.4 2243.97,-127.5 2241.42,-134.01"/>
</g>
<!-- Node16 -->
<g id="node16" class="node">
<title>Node16</title>
<g id="a_node16"><a xlink:href="EnemyTroopTruckBehaviour_8cpp.html" target="_top" xlink:title=" ">
<polygon fill="none" stroke="black" points="2208,-62 2208,-92 2368,-92 2368,-62 2208,-62"/>
<text text-anchor="start" x="2216" y="-80" font-family="Helvetica,sans-Serif" font-size="10.00">src/Scripts/Enemies</text>
<text text-anchor="middle" x="2288" y="-69" font-family="Helvetica,sans-Serif" font-size="10.00">/EnemyTroopTruckBehaviour.cpp</text>
</a>
</g>
</g>
<!-- Node1&#45;&gt;Node16 -->
<g id="edge15" class="edge">
<title>Node1&#45;&gt;Node16</title>
<path fill="none" stroke="midnightblue" d="M2288,-124.23C2288,-113.57 2288,-101.41 2288,-92.25"/>
<polygon fill="midnightblue" stroke="midnightblue" points="2284.5,-124.23 2288,-134.23 2291.5,-124.23 2284.5,-124.23"/>
</g>
<!-- Node17 -->
<g id="node17" class="node">
<title>Node17</title>
<g id="a_node17"><a xlink:href="AirstrikeAbilityBehaviour_8cpp.html" target="_top" xlink:title=" ">
<polygon fill="none" stroke="black" points="2386.5,-62 2386.5,-92 2529.5,-92 2529.5,-62 2386.5,-62"/>
<text text-anchor="start" x="2394.5" y="-80" font-family="Helvetica,sans-Serif" font-size="10.00">src/Scripts/Heroes</text>
<text text-anchor="middle" x="2458" y="-69" font-family="Helvetica,sans-Serif" font-size="10.00">/AirstrikeAbilityBehaviour.cpp</text>
</a>
</g>
</g>
<!-- Node1&#45;&gt;Node17 -->
<g id="edge16" class="edge">
<title>Node1&#45;&gt;Node17</title>
<path fill="none" stroke="midnightblue" d="M2331.41,-130.5C2360.2,-118.56 2397.44,-103.11 2424.07,-92.07"/>
<polygon fill="midnightblue" stroke="midnightblue" points="2329.89,-127.34 2321.99,-134.4 2332.57,-133.8 2329.89,-127.34"/>
</g>
<!-- Node18 -->
<g id="node18" class="node">
<title>Node18</title>
<g id="a_node18"><a xlink:href="EnemySuicideAbilityBehaviour_8cpp.html" target="_top" xlink:title=" ">
<polygon fill="none" stroke="black" points="2547.5,-62 2547.5,-92 2716.5,-92 2716.5,-62 2547.5,-62"/>
<text text-anchor="start" x="2555.5" y="-80" font-family="Helvetica,sans-Serif" font-size="10.00">src/Scripts/Heroes</text>
<text text-anchor="middle" x="2632" y="-69" font-family="Helvetica,sans-Serif" font-size="10.00">/EnemySuicideAbilityBehaviour.cpp</text>
</a>
</g>
</g>
<!-- Node1&#45;&gt;Node18 -->
<g id="edge17" class="edge">
<title>Node1&#45;&gt;Node18</title>
<path fill="none" stroke="midnightblue" d="M2368.27,-132.5C2417.32,-122.68 2481.31,-109.76 2538,-98 2547.23,-96.09 2556.97,-94.04 2566.53,-92.02"/>
<polygon fill="midnightblue" stroke="midnightblue" points="2367.47,-129.09 2358.35,-134.49 2368.85,-135.96 2367.47,-129.09"/>
</g>
<!-- Node19 -->
<g id="node19" class="node">
<title>Node19</title>
<g id="a_node19"><a xlink:href="IncreaseTowerFireRateAbilityBehaviour_8cpp.html" target="_top" xlink:title=" ">
<polygon fill="none" stroke="black" points="2734.5,-56.5 2734.5,-97.5 2881.5,-97.5 2881.5,-56.5 2734.5,-56.5"/>
<text text-anchor="start" x="2742.5" y="-85.5" font-family="Helvetica,sans-Serif" font-size="10.00">src/Scripts/Heroes</text>
<text text-anchor="start" x="2742.5" y="-74.5" font-family="Helvetica,sans-Serif" font-size="10.00">/IncreaseTowerFireRateAbility</text>
<text text-anchor="middle" x="2808" y="-63.5" font-family="Helvetica,sans-Serif" font-size="10.00">Behaviour.cpp</text>
</a>
</g>
</g>
<!-- Node1&#45;&gt;Node19 -->
<g id="edge18" class="edge">
<title>Node1&#45;&gt;Node19</title>
<path fill="none" stroke="midnightblue" d="M2368.96,-142.11C2457.01,-134.47 2601.67,-119.9 2725,-98 2728.06,-97.46 2731.19,-96.87 2734.33,-96.24"/>
<polygon fill="midnightblue" stroke="midnightblue" points="2368.44,-138.64 2358.77,-142.98 2369.03,-145.61 2368.44,-138.64"/>
</g>
<!-- Node20 -->
<g id="node20" class="node">
<title>Node20</title>
<g id="a_node20"><a xlink:href="IncreaseTowerRangeAbilityBehaviour_8cpp.html" target="_top" xlink:title=" ">
<polygon fill="none" stroke="black" points="2900,-56.5 2900,-97.5 3038,-97.5 3038,-56.5 2900,-56.5"/>
<text text-anchor="start" x="2908" y="-85.5" font-family="Helvetica,sans-Serif" font-size="10.00">src/Scripts/Heroes</text>
<text text-anchor="start" x="2908" y="-74.5" font-family="Helvetica,sans-Serif" font-size="10.00">/IncreaseTowerRangeAbility</text>
<text text-anchor="middle" x="2969" y="-63.5" font-family="Helvetica,sans-Serif" font-size="10.00">Behaviour.cpp</text>
</a>
</g>
</g>
<!-- Node1&#45;&gt;Node20 -->
<g id="edge19" class="edge">
<title>Node1&#45;&gt;Node20</title>
<path fill="none" stroke="midnightblue" d="M2369.13,-145.92C2485.25,-141.28 2705.24,-128.92 2890,-98 2893.21,-97.46 2896.48,-96.86 2899.77,-96.21"/>
<polygon fill="midnightblue" stroke="midnightblue" points="2368.76,-142.43 2358.9,-146.32 2369.03,-149.43 2368.76,-142.43"/>
</g>
<!-- Node21 -->
<g id="node21" class="node">
<title>Node21</title>
<g id="a_node21"><a xlink:href="InvisibilityAbilityBehaviour_8cpp.html" target="_top" xlink:title=" ">
<polygon fill="none" stroke="black" points="3056,-62 3056,-92 3206,-92 3206,-62 3056,-62"/>
<text text-anchor="start" x="3064" y="-80" font-family="Helvetica,sans-Serif" font-size="10.00">src/Scripts/Heroes</text>
<text text-anchor="middle" x="3131" y="-69" font-family="Helvetica,sans-Serif" font-size="10.00">/InvisibilityAbilityBehaviour.cpp</text>
</a>
</g>
</g>
<!-- Node1&#45;&gt;Node21 -->
<g id="edge20" class="edge">
<title>Node1&#45;&gt;Node21</title>
<path fill="none" stroke="midnightblue" d="M2368.69,-147.55C2507.88,-144.94 2801.78,-135.08 3047,-98 3057.08,-96.48 3067.73,-94.35 3077.94,-92.05"/>
<polygon fill="midnightblue" stroke="midnightblue" points="2368.47,-144.06 2358.53,-147.74 2368.6,-151.06 2368.47,-144.06"/>
</g>
<!-- Node22 -->
<g id="node22" class="node">
<title>Node22</title>
<g id="a_node22"><a xlink:href="UserAttackBehaviour_8cpp.html" target="_top" xlink:title=" ">
<polygon fill="none" stroke="black" points="3224.5,-62 3224.5,-92 3355.5,-92 3355.5,-62 3224.5,-62"/>
<text text-anchor="start" x="3232.5" y="-80" font-family="Helvetica,sans-Serif" font-size="10.00">src/Scripts/Heroes</text>
<text text-anchor="middle" x="3290" y="-69" font-family="Helvetica,sans-Serif" font-size="10.00">/UserAttackBehaviour.cpp</text>
</a>
</g>
</g>
<!-- Node1&#45;&gt;Node22 -->
<g id="edge21" class="edge">
<title>Node1&#45;&gt;Node22</title>
<path fill="none" stroke="midnightblue" d="M2368.93,-146.23C2563.46,-140.44 3053.14,-123.71 3215,-98 3224.18,-96.54 3233.86,-94.42 3243.11,-92.09"/>
<polygon fill="midnightblue" stroke="midnightblue" points="2368.67,-142.74 2358.78,-146.53 2368.88,-149.74 2368.67,-142.74"/>
</g>
<!-- Node23 -->
<g id="node23" class="node">
<title>Node23</title>
<g id="a_node23"><a xlink:href="CloseSceneBehaviour_8cpp.html" target="_top" xlink:title=" ">
<polygon fill="none" stroke="black" points="3374,-62 3374,-92 3520,-92 3520,-62 3374,-62"/>
<text text-anchor="start" x="3382" y="-80" font-family="Helvetica,sans-Serif" font-size="10.00">src/Scripts/Menu/CloseScene</text>
<text text-anchor="middle" x="3447" y="-69" font-family="Helvetica,sans-Serif" font-size="10.00">Behaviour.cpp</text>
</a>
</g>
</g>
<!-- Node1&#45;&gt;Node23 -->
<g id="edge22" class="edge">
<title>Node1&#45;&gt;Node23</title>
<path fill="none" stroke="midnightblue" d="M2369,-146.69C2585.13,-141.54 3172.05,-125.38 3364,-98 3374.27,-96.53 3385.13,-94.38 3395.49,-92.01"/>
<polygon fill="midnightblue" stroke="midnightblue" points="2368.6,-143.2 2358.68,-146.93 2368.76,-150.19 2368.6,-143.2"/>
</g>
<!-- Node24 -->
<g id="node24" class="node">
<title>Node24</title>
<g id="a_node24"><a xlink:href="PauseSceneBehaviour_8cpp.html" target="_top" xlink:title=" ">
<polygon fill="none" stroke="black" points="3538.5,-62 3538.5,-92 3687.5,-92 3687.5,-62 3538.5,-62"/>
<text text-anchor="start" x="3546.5" y="-80" font-family="Helvetica,sans-Serif" font-size="10.00">src/Scripts/Menu/PauseScene</text>
<text text-anchor="middle" x="3613" y="-69" font-family="Helvetica,sans-Serif" font-size="10.00">Behaviour.cpp</text>
</a>
</g>
</g>
<!-- Node1&#45;&gt;Node24 -->
<g id="edge23" class="edge">
<title>Node1&#45;&gt;Node24</title>
<path fill="none" stroke="midnightblue" d="M2369.12,-147.24C2607.61,-143.23 3303.79,-129.1 3529,-98 3539.4,-96.56 3550.39,-94.42 3560.87,-92.06"/>
<polygon fill="midnightblue" stroke="midnightblue" points="2368.73,-143.75 2358.79,-147.42 2368.85,-150.75 2368.73,-143.75"/>
</g>
<!-- Node25 -->
<g id="node25" class="node">
<title>Node25</title>
<g id="a_node25"><a xlink:href="Engine_8cpp.html" target="_top" xlink:title=" ">
<polygon fill="none" stroke="black" points="3705.5,-62 3705.5,-92 3806.5,-92 3806.5,-62 3705.5,-62"/>
<text text-anchor="start" x="3713.5" y="-80" font-family="Helvetica,sans-Serif" font-size="10.00">libs/spic&#45;engine/src</text>
<text text-anchor="middle" x="3756" y="-69" font-family="Helvetica,sans-Serif" font-size="10.00">/Api/Engine.cpp</text>
</a>
</g>
</g>
<!-- Node1&#45;&gt;Node25 -->
<g id="edge24" class="edge">
<title>Node1&#45;&gt;Node25</title>
<path fill="none" stroke="midnightblue" d="M2368.85,-148.63C2628.41,-148.56 3438.58,-144.52 3696,-98 3703.67,-96.61 3711.7,-94.46 3719.3,-92.07"/>
<polygon fill="midnightblue" stroke="midnightblue" points="2368.75,-145.13 2358.75,-148.63 2368.75,-152.13 2368.75,-145.13"/>
</g>
<!-- Node26 -->
<g id="node26" class="node">
<title>Node26</title>
<g id="a_node26"><a xlink:href="GameObject_8cpp.html" target="_top" xlink:title=" ">
<polygon fill="none" stroke="black" points="3825,-62 3825,-92 3935,-92 3935,-62 3825,-62"/>
<text text-anchor="start" x="3833" y="-80" font-family="Helvetica,sans-Serif" font-size="10.00">libs/spic&#45;engine/src</text>
<text text-anchor="middle" x="3880" y="-69" font-family="Helvetica,sans-Serif" font-size="10.00">/Api/GameObject.cpp</text>
</a>
</g>
</g>
<!-- Node1&#45;&gt;Node26 -->
<g id="edge25" class="edge">
<title>Node1&#45;&gt;Node26</title>
<path fill="none" stroke="midnightblue" d="M2369,-148.65C2642.9,-148.71 3532.98,-145.19 3815,-98 3823.27,-96.62 3831.95,-94.46 3840.18,-92.07"/>
<polygon fill="midnightblue" stroke="midnightblue" points="2368.75,-145.15 2358.75,-148.65 2368.75,-152.15 2368.75,-145.15"/>
</g>
<!-- Node27 -->
<g id="node27" class="node">
<title>Node27</title>
<g id="a_node27"><a xlink:href="AudioSubsystem_8cpp.html" target="_top" xlink:title=" ">
<polygon fill="none" stroke="black" points="3953,-62 3953,-92 4121,-92 4121,-62 3953,-62"/>
<text text-anchor="start" x="3961" y="-80" font-family="Helvetica,sans-Serif" font-size="10.00">libs/spic&#45;engine/src</text>
<text text-anchor="middle" x="4037" y="-69" font-family="Helvetica,sans-Serif" font-size="10.00">/Subsystems/AudioSubsystem.cpp</text>
</a>
</g>
</g>
<!-- Node1&#45;&gt;Node27 -->
<g id="edge26" class="edge">
<title>Node1&#45;&gt;Node27</title>
<path fill="none" stroke="midnightblue" d="M2369.26,-147.97C2658.02,-145.8 3633.93,-135.75 3944,-98 3955.64,-96.58 3967.98,-94.41 3979.73,-92.02"/>
<polygon fill="midnightblue" stroke="midnightblue" points="2368.84,-144.48 2358.87,-148.05 2368.89,-151.48 2368.84,-144.48"/>
</g>
<!-- Node28 -->
<g id="node28" class="node">
<title>Node28</title>
<g id="a_node28"><a xlink:href="InputSubsystem_8cpp.html" target="_top" xlink:title=" ">
<polygon fill="none" stroke="black" points="4139.5,-62 4139.5,-92 4304.5,-92 4304.5,-62 4139.5,-62"/>
<text text-anchor="start" x="4147.5" y="-80" font-family="Helvetica,sans-Serif" font-size="10.00">libs/spic&#45;engine/src</text>
<text text-anchor="middle" x="4222" y="-69" font-family="Helvetica,sans-Serif" font-size="10.00">/Subsystems/InputSubsystem.cpp</text>
</a>
</g>
</g>
<!-- Node1&#45;&gt;Node28 -->
<g id="edge27" class="edge">
<title>Node1&#45;&gt;Node28</title>
<path fill="none" stroke="midnightblue" d="M2368.89,-148.29C2677.6,-147.18 3781.64,-140.26 4130,-98 4141.52,-96.6 4153.73,-94.44 4165.35,-92.05"/>
<polygon fill="midnightblue" stroke="midnightblue" points="2368.67,-144.79 2358.68,-148.33 2368.7,-151.79 2368.67,-144.79"/>
</g>
<!-- Node29 -->
<g id="node29" class="node">
<title>Node29</title>
<g id="a_node29"><a xlink:href="RenderSubsystem_8cpp.html" target="_top" xlink:title=" ">
<polygon fill="none" stroke="black" points="4323,-62 4323,-92 4497,-92 4497,-62 4323,-62"/>
<text text-anchor="start" x="4331" y="-80" font-family="Helvetica,sans-Serif" font-size="10.00">libs/spic&#45;engine/src</text>
<text text-anchor="middle" x="4410" y="-69" font-family="Helvetica,sans-Serif" font-size="10.00">/Subsystems/RenderSubsystem.cpp</text>
</a>
</g>
</g>
<!-- Node1&#45;&gt;Node29 -->
<g id="edge28" class="edge">
<title>Node1&#45;&gt;Node29</title>
<path fill="none" stroke="midnightblue" d="M2369.11,-148.41C2697.19,-147.74 3926.76,-142.28 4313,-98 4325.21,-96.6 4338.17,-94.42 4350.51,-92.01"/>
<polygon fill="midnightblue" stroke="midnightblue" points="2368.74,-144.91 2358.75,-148.43 2368.75,-151.91 2368.74,-144.91"/>
</g>
<!-- Node30 -->
<g id="node30" class="node">
<title>Node30</title>
<g id="a_node30"><a xlink:href="Api_8hpp.html" target="_top" xlink:title=" ">
<polygon fill="none" stroke="black" points="4515,-62 4515,-92 4641,-92 4641,-62 4515,-62"/>
<text text-anchor="start" x="4523" y="-80" font-family="Helvetica,sans-Serif" font-size="10.00">libs/spic&#45;engine/includes</text>
<text text-anchor="middle" x="4578" y="-69" font-family="Helvetica,sans-Serif" font-size="10.00">/spic&#45;api&#45;headers/Api.hpp</text>
</a>
</g>
</g>
<!-- Node1&#45;&gt;Node30 -->
<g id="edge29" class="edge">
<title>Node1&#45;&gt;Node30</title>
<path fill="none" stroke="midnightblue" d="M2368.79,-147.85C2742.2,-144.67 4291.78,-129.69 4506,-98 4515.24,-96.63 4524.98,-94.45 4534.2,-92.03"/>
<polygon fill="midnightblue" stroke="midnightblue" points="2368.59,-144.35 2358.62,-147.93 2368.64,-151.35 2368.59,-144.35"/>
</g>
<!-- Node31 -->
<g id="node31" class="node">
<title>Node31</title>
<g id="a_node31"><a xlink:href="LevelController_8cpp.html" target="_top" xlink:title=" ">
<polygon fill="none" stroke="black" points="4426,-0.5 4426,-19.5 4592,-19.5 4592,-0.5 4426,-0.5"/>
<text text-anchor="middle" x="4509" y="-7.5" font-family="Helvetica,sans-Serif" font-size="10.00">src/Controllers/LevelController.cpp</text>
</a>
</g>
</g>
<!-- Node30&#45;&gt;Node31 -->
<g id="edge30" class="edge">
<title>Node30&#45;&gt;Node31</title>
<path fill="none" stroke="midnightblue" d="M4555.53,-54.84C4542.86,-42.9 4527.72,-28.64 4518.23,-19.69"/>
<polygon fill="midnightblue" stroke="midnightblue" points="4553.35,-57.59 4563.03,-61.9 4558.15,-52.49 4553.35,-57.59"/>
</g>
<!-- Node32 -->
<g id="node32" class="node">
<title>Node32</title>
<g id="a_node32"><a xlink:href="main_8cpp.html" target="_top" xlink:title=" ">
<polygon fill="none" stroke="black" points="4610,-0.5 4610,-19.5 4682,-19.5 4682,-0.5 4610,-0.5"/>
<text text-anchor="middle" x="4646" y="-7.5" font-family="Helvetica,sans-Serif" font-size="10.00">src/main.cpp</text>
</a>
</g>
</g>
<!-- Node30&#45;&gt;Node32 -->
<g id="edge31" class="edge">
<title>Node30&#45;&gt;Node32</title>
<path fill="none" stroke="midnightblue" d="M4600.14,-54.84C4612.63,-42.9 4627.55,-28.64 4636.9,-19.69"/>
<polygon fill="midnightblue" stroke="midnightblue" points="4597.57,-52.46 4592.75,-61.9 4602.4,-57.52 4597.57,-52.46"/>
</g>
</g>
</svg>
        <g id="navigator" transform="translate(0 0)" fill="#404254">
                <rect fill="#f2f5e9" fill-opacity="0.5" stroke="#606060" stroke-width=".5" x="0" y="0" width="60" height="60"/>
                <use id="zoomplus" xlink:href="#zoomPlus" x="17" y="9" onmousedown="handleZoom(evt,'in')"/>
                <use id="zoomminus" xlink:href="#zoomMin" x="42" y="9" onmousedown="handleZoom(evt,'out')"/>
                <use id="reset" xlink:href="#resetDef" x="30" y="36" onmousedown="handleReset()"/>
                <g id="arrowUp" xlink:href="#dirArrow" transform="translate(30 24)" onmousedown="handlePan(0,-1)">
                  <use xlink:href="#rim" fill="#404040">
                        <set attributeName="fill" to="#808080" begin="arrowUp.mouseover" end="arrowUp.mouseout"/>
                  </use>
                  <path fill="none" stroke="white" stroke-width="1.5" d="M0,-3.0v7 M-2.5,-0.5L0,-3.0L2.5,-0.5"/>
                </g>
                <g id="arrowRight" xlink:href="#dirArrow" transform="rotate(90) translate(36 -43)" onmousedown="handlePan(1,0)">
                  <use xlink:href="#rim" fill="#404040">
                        <set attributeName="fill" to="#808080" begin="arrowRight.mouseover" end="arrowRight.mouseout"/>
                  </use>
                  <path fill="none" stroke="white" stroke-width="1.5" d="M0,-3.0v7 M-2.5,-0.5L0,-3.0L2.5,-0.5"/>
                </g>
                <g id="arrowDown" xlink:href="#dirArrow" transform="rotate(180) translate(-30 -48)" onmousedown="handlePan(0,1)">
                  <use xlink:href="#rim" fill="#404040">
                        <set attributeName="fill" to="#808080" begin="arrowDown.mouseover" end="arrowDown.mouseout"/>
                  </use>
                  <path fill="none" stroke="white" stroke-width="1.5" d="M0,-3.0v7 M-2.5,-0.5L0,-3.0L2.5,-0.5"/>
                </g>
                <g id="arrowLeft" xlink:href="#dirArrow" transform="rotate(270) translate(-36 17)" onmousedown="handlePan(-1,0)">
                  <use xlink:href="#rim" fill="#404040">
                        <set attributeName="fill" to="#808080" begin="arrowLeft.mouseover" end="arrowLeft.mouseout"/>
                  </use>
                  <path fill="none" stroke="white" stroke-width="1.5" d="M0,-3.0v7 M-2.5,-0.5L0,-3.0L2.5,-0.5"/>
                </g>
        </g>
        <svg viewBox="0 0 15 15" width="100%" height="30px" preserveAspectRatio="xMaxYMin meet">
         <g id="arrow_out" transform="scale(0.3 0.3)">
          <a xlink:href="Engine_8hpp__dep__incl_org.svg" target="_base">
           <rect id="button" ry="5" rx="5" y="6" x="6" height="38" width="38"
                fill="#f2f5e9" fill-opacity="0.5" stroke="#606060" stroke-width="1.0"/>
           <path id="arrow"
             d="M 11.500037,31.436501 C 11.940474,20.09759 22.043105,11.32322 32.158766,21.979434 L 37.068811,17.246167 C 37.068811,17.246167 37.088388,32 37.088388,32 L 22.160133,31.978069 C 22.160133,31.978069 26.997745,27.140456 26.997745,27.140456 C 18.528582,18.264221 13.291696,25.230495 11.500037,31.436501 z"
             style="fill:#404040;"/>
          </a>
         </g>
        </svg>
</svg>
