<?xml version="1.0" encoding="UTF-8" standalone="no"?>
<!DOCTYPE svg PUBLIC "-//W3C//DTD SVG 1.1//EN"
 "http://www.w3.org/Graphics/SVG/1.1/DTD/svg11.dtd">
<!-- Generated by graphviz version 2.44.0 ()
 -->
<!-- Title: libs/spic&#45;engine/includes/spic&#45;api&#45;headers/Engine.hpp Pages: 1 -->
<!--zoomable 162 -->
<svg id="main" version="1.1" xmlns="http://www.w3.org/2000/svg" xmlns:xlink="http://www.w3.org/1999/xlink" xml:space="preserve" onload="init(evt)">
<style type="text/css"><![CDATA[
.edge:hover path { stroke: red; }
.edge:hover polygon { stroke: red; fill: red; }
]]></style>
<script type="text/javascript"><![CDATA[
var edges = document.getElementsByTagName('g');
if (edges && edges.length) {
  for (var i=0;i<edges.length;i++) {
    if (edges[i].id.substr(0,4)=='edge') {
      edges[i].setAttribute('class','edge');
    }
  }
}
]]></script>
        <defs>
                <circle id="rim" cx="0" cy="0" r="7"/>
                <circle id="rim2" cx="0" cy="0" r="3.5"/>
                <g id="zoomPlus">
                        <use xlink:href="#rim" fill="#404040">
                                <set attributeName="fill" to="#808080" begin="zoomplus.mouseover" end="zoomplus.mouseout"/>
                        </use>
                        <path d="M-4,0h8M0,-4v8" fill="none" stroke="white" stroke-width="1.5" pointer-events="none"/>
                </g>
                <g id="zoomMin">
                        <use xlink:href="#rim" fill="#404040">
                                <set attributeName="fill" to="#808080" begin="zoomminus.mouseover" end="zoomminus.mouseout"/>
                        </use>
                        <path d="M-4,0h8" fill="none" stroke="white" stroke-width="1.5" pointer-events="none"/>
                </g>
                <g id="dirArrow">
                        <path fill="none" stroke="white" stroke-width="1.5" d="M0,-3.0v7 M-2.5,-0.5L0,-3.0L2.5,-0.5"/>
                </g>
               <g id="resetDef">
                       <use xlink:href="#rim2" fill="#404040">
                               <set attributeName="fill" to="#808080" begin="reset.mouseover" end="reset.mouseout"/>
                       </use>
               </g>
        </defs>

<script type="text/javascript">
var viewWidth = 2679;
var viewHeight = 162;
var sectionId = 'dynsection-1';
</script>
<script xlink:href="svgpan.js"/>
<svg id="graph" class="graph">
<g id="viewport">
<title>libs/spic&#45;engine/includes/spic&#45;api&#45;headers/Engine.hpp</title>
<!-- Node1 -->
<g id="node1" class="node">
<title>Node1</title>
<g id="a_node1"><a xlink:title=" ">
<polygon fill="#bfbfbf" stroke="black" points="1247.5,-123.5 1247.5,-153.5 1388.5,-153.5 1388.5,-123.5 1247.5,-123.5"/>
<text text-anchor="start" x="1255.5" y="-141.5" font-family="Helvetica,sans-Serif" font-size="10.00">libs/spic&#45;engine/includes</text>
<text text-anchor="middle" x="1318" y="-130.5" font-family="Helvetica,sans-Serif" font-size="10.00">/spic&#45;api&#45;headers/Engine.hpp</text>
</a>
</g>
</g>
<!-- Node2 -->
<g id="node2" class="node">
<title>Node2</title>
<g id="a_node2"><a xlink:href="BulletFactory_8cpp.html" target="_top" xlink:title=" ">
<polygon fill="none" stroke="black" points="0,-62 0,-81 152,-81 152,-62 0,-62"/>
<text text-anchor="middle" x="76" y="-69" font-family="Helvetica,sans-Serif" font-size="10.00">src/Factories/BulletFactory.cpp</text>
</a>
</g>
</g>
<!-- Node1&#45;&gt;Node2 -->
<g id="edge1" class="edge">
<title>Node1&#45;&gt;Node2</title>
<path fill="none" stroke="midnightblue" d="M1237.21,-137.45C1048.35,-136.57 563.44,-129.94 161,-87 147.45,-85.55 132.8,-83.3 119.53,-81"/>
<polygon fill="midnightblue" stroke="midnightblue" points="1237.32,-140.95 1247.34,-137.49 1237.35,-133.95 1237.32,-140.95"/>
</g>
<!-- Node3 -->
<g id="node3" class="node">
<title>Node3</title>
<g id="a_node3"><a xlink:href="ButtonPrefabFactory_8cpp.html" target="_top" xlink:title=" ">
<polygon fill="none" stroke="black" points="170,-56.5 170,-86.5 304,-86.5 304,-56.5 170,-56.5"/>
<text text-anchor="start" x="178" y="-74.5" font-family="Helvetica,sans-Serif" font-size="10.00">src/Factories/ButtonPrefab</text>
<text text-anchor="middle" x="237" y="-63.5" font-family="Helvetica,sans-Serif" font-size="10.00">Factory.cpp</text>
</a>
</g>
</g>
<!-- Node1&#45;&gt;Node3 -->
<g id="edge2" class="edge">
<title>Node1&#45;&gt;Node3</title>
<path fill="none" stroke="midnightblue" d="M1237.17,-137.22C1066.06,-135.8 654.88,-128 313,-87 310.07,-86.65 307.07,-86.25 304.06,-85.82"/>
<polygon fill="midnightblue" stroke="midnightblue" points="1237.33,-140.72 1247.35,-137.3 1237.38,-133.72 1237.33,-140.72"/>
</g>
<!-- Node4 -->
<g id="node4" class="node">
<title>Node4</title>
<g id="a_node4"><a xlink:href="GameOverScene_8cpp.html" target="_top" xlink:title=" ">
<polygon fill="none" stroke="black" points="322,-62 322,-81 484,-81 484,-62 322,-62"/>
<text text-anchor="middle" x="403" y="-69" font-family="Helvetica,sans-Serif" font-size="10.00">src/Scenes/GameOverScene.cpp</text>
</a>
</g>
</g>
<!-- Node1&#45;&gt;Node4 -->
<g id="edge3" class="edge">
<title>Node1&#45;&gt;Node4</title>
<path fill="none" stroke="midnightblue" d="M1237.09,-135.19C1089.05,-130.39 764.77,-117.14 493,-87 479.16,-85.47 464.2,-83.27 450.52,-81.05"/>
<polygon fill="midnightblue" stroke="midnightblue" points="1237.34,-138.7 1247.44,-135.53 1237.56,-131.71 1237.34,-138.7"/>
</g>
<!-- Node5 -->
<g id="node5" class="node">
<title>Node5</title>
<g id="a_node5"><a xlink:href="MainScene_8cpp.html" target="_top" xlink:title=" ">
<polygon fill="none" stroke="black" points="502,-62 502,-81 638,-81 638,-62 502,-62"/>
<text text-anchor="middle" x="570" y="-69" font-family="Helvetica,sans-Serif" font-size="10.00">src/Scenes/MainScene.cpp</text>
</a>
</g>
</g>
<!-- Node1&#45;&gt;Node5 -->
<g id="edge4" class="edge">
<title>Node1&#45;&gt;Node5</title>
<path fill="none" stroke="midnightblue" d="M1236.85,-134.3C1110.38,-128.67 858.8,-114.83 647,-87 635.13,-85.44 622.32,-83.24 610.63,-81.02"/>
<polygon fill="midnightblue" stroke="midnightblue" points="1237.07,-137.82 1247.21,-134.76 1237.38,-130.82 1237.07,-137.82"/>
</g>
<!-- Node6 -->
<g id="node6" class="node">
<title>Node6</title>
<g id="a_node6"><a xlink:href="PauseScene_8cpp.html" target="_top" xlink:title=" ">
<polygon fill="none" stroke="black" points="656.5,-62 656.5,-81 799.5,-81 799.5,-62 656.5,-62"/>
<text text-anchor="middle" x="728" y="-69" font-family="Helvetica,sans-Serif" font-size="10.00">src/Scenes/PauseScene.cpp</text>
</a>
</g>
</g>
<!-- Node1&#45;&gt;Node6 -->
<g id="edge5" class="edge">
<title>Node1&#45;&gt;Node6</title>
<path fill="none" stroke="midnightblue" d="M1237.14,-131.52C1136.37,-123.6 959,-108.13 808,-87 796.12,-85.34 783.31,-83.18 771.49,-81.04"/>
<polygon fill="midnightblue" stroke="midnightblue" points="1237.01,-135.02 1247.25,-132.31 1237.55,-128.04 1237.01,-135.02"/>
</g>
<!-- Node7 -->
<g id="node7" class="node">
<title>Node7</title>
<g id="a_node7"><a xlink:href="VictoryScene_8cpp.html" target="_top" xlink:title=" ">
<polygon fill="none" stroke="black" points="817.5,-62 817.5,-81 962.5,-81 962.5,-62 817.5,-62"/>
<text text-anchor="middle" x="890" y="-69" font-family="Helvetica,sans-Serif" font-size="10.00">src/Scenes/VictoryScene.cpp</text>
</a>
</g>
</g>
<!-- Node1&#45;&gt;Node7 -->
<g id="edge6" class="edge">
<title>Node1&#45;&gt;Node7</title>
<path fill="none" stroke="midnightblue" d="M1237.23,-126.41C1167.04,-116.61 1062.68,-101.63 972,-87 960.58,-85.16 948.29,-83.05 936.79,-81.02"/>
<polygon fill="midnightblue" stroke="midnightblue" points="1236.94,-129.91 1247.33,-127.82 1237.91,-122.97 1236.94,-129.91"/>
</g>
<!-- Node8 -->
<g id="node8" class="node">
<title>Node8</title>
<g id="a_node8"><a xlink:href="AttackBehaviour_8cpp.html" target="_top" xlink:title=" ">
<polygon fill="none" stroke="black" points="981,-56.5 981,-86.5 1091,-86.5 1091,-56.5 981,-56.5"/>
<text text-anchor="start" x="989" y="-74.5" font-family="Helvetica,sans-Serif" font-size="10.00">src/Scripts/Common</text>
<text text-anchor="middle" x="1036" y="-63.5" font-family="Helvetica,sans-Serif" font-size="10.00">/AttackBehaviour.cpp</text>
</a>
</g>
</g>
<!-- Node1&#45;&gt;Node8 -->
<g id="edge7" class="edge">
<title>Node1&#45;&gt;Node8</title>
<path fill="none" stroke="midnightblue" d="M1247.37,-121.22C1198.96,-110.06 1135.67,-95.47 1091,-85.18"/>
<polygon fill="midnightblue" stroke="midnightblue" points="1246.63,-124.64 1257.16,-123.48 1248.2,-117.82 1246.63,-124.64"/>
</g>
<!-- Node9 -->
<g id="node9" class="node">
<title>Node9</title>
<g id="a_node9"><a xlink:href="GameLostBehaviour_8cpp.html" target="_top" xlink:title=" ">
<polygon fill="none" stroke="black" points="1109.5,-56.5 1109.5,-86.5 1236.5,-86.5 1236.5,-56.5 1109.5,-56.5"/>
<text text-anchor="start" x="1117.5" y="-74.5" font-family="Helvetica,sans-Serif" font-size="10.00">src/Scripts/Common</text>
<text text-anchor="middle" x="1173" y="-63.5" font-family="Helvetica,sans-Serif" font-size="10.00">/GameLostBehaviour.cpp</text>
</a>
</g>
</g>
<!-- Node1&#45;&gt;Node9 -->
<g id="edge8" class="edge">
<title>Node1&#45;&gt;Node9</title>
<path fill="none" stroke="midnightblue" d="M1277.33,-119.27C1254.24,-108.92 1225.76,-96.15 1204.4,-86.58"/>
<polygon fill="midnightblue" stroke="midnightblue" points="1275.98,-122.5 1286.54,-123.4 1278.84,-116.11 1275.98,-122.5"/>
</g>
<!-- Node10 -->
<g id="node10" class="node">
<title>Node10</title>
<g id="a_node10"><a xlink:href="GameWonBehaviour_8cpp.html" target="_top" xlink:title=" ">
<polygon fill="none" stroke="black" points="1254.5,-56.5 1254.5,-86.5 1381.5,-86.5 1381.5,-56.5 1254.5,-56.5"/>
<text text-anchor="start" x="1262.5" y="-74.5" font-family="Helvetica,sans-Serif" font-size="10.00">src/Scripts/Common</text>
<text text-anchor="middle" x="1318" y="-63.5" font-family="Helvetica,sans-Serif" font-size="10.00">/GameWonBehaviour.cpp</text>
</a>
</g>
</g>
<!-- Node1&#45;&gt;Node10 -->
<g id="edge9" class="edge">
<title>Node1&#45;&gt;Node10</title>
<path fill="none" stroke="midnightblue" d="M1318,-113.11C1318,-104.15 1318,-94.32 1318,-86.58"/>
<polygon fill="midnightblue" stroke="midnightblue" points="1314.5,-113.4 1318,-123.4 1321.5,-113.4 1314.5,-113.4"/>
</g>
<!-- Node11 -->
<g id="node11" class="node">
<title>Node11</title>
<g id="a_node11"><a xlink:href="UserAttackBehaviour_8cpp.html" target="_top" xlink:title=" ">
<polygon fill="none" stroke="black" points="1399.5,-56.5 1399.5,-86.5 1530.5,-86.5 1530.5,-56.5 1399.5,-56.5"/>
<text text-anchor="start" x="1407.5" y="-74.5" font-family="Helvetica,sans-Serif" font-size="10.00">src/Scripts/Heroes</text>
<text text-anchor="middle" x="1465" y="-63.5" font-family="Helvetica,sans-Serif" font-size="10.00">/UserAttackBehaviour.cpp</text>
</a>
</g>
</g>
<!-- Node1&#45;&gt;Node11 -->
<g id="edge10" class="edge">
<title>Node1&#45;&gt;Node11</title>
<path fill="none" stroke="midnightblue" d="M1359.23,-119.27C1382.64,-108.92 1411.51,-96.15 1433.17,-86.58"/>
<polygon fill="midnightblue" stroke="midnightblue" points="1357.63,-116.15 1349.9,-123.4 1360.46,-122.55 1357.63,-116.15"/>
</g>
<!-- Node12 -->
<g id="node12" class="node">
<title>Node12</title>
<g id="a_node12"><a xlink:href="CloseSceneBehaviour_8cpp.html" target="_top" xlink:title=" ">
<polygon fill="none" stroke="black" points="1549,-56.5 1549,-86.5 1695,-86.5 1695,-56.5 1549,-56.5"/>
<text text-anchor="start" x="1557" y="-74.5" font-family="Helvetica,sans-Serif" font-size="10.00">src/Scripts/Menu/CloseScene</text>
<text text-anchor="middle" x="1622" y="-63.5" font-family="Helvetica,sans-Serif" font-size="10.00">Behaviour.cpp</text>
</a>
</g>
</g>
<!-- Node1&#45;&gt;Node12 -->
<g id="edge11" class="edge">
<title>Node1&#45;&gt;Node12</title>
<path fill="none" stroke="midnightblue" d="M1393.38,-121.38C1443.38,-110.69 1508.37,-96.8 1556.27,-86.55"/>
<polygon fill="midnightblue" stroke="midnightblue" points="1392.64,-117.96 1383.59,-123.48 1394.1,-124.81 1392.64,-117.96"/>
</g>
<!-- Node13 -->
<g id="node13" class="node">
<title>Node13</title>
<g id="a_node13"><a xlink:href="PauseSceneBehaviour_8cpp.html" target="_top" xlink:title=" ">
<polygon fill="none" stroke="black" points="1713.5,-56.5 1713.5,-86.5 1862.5,-86.5 1862.5,-56.5 1713.5,-56.5"/>
<text text-anchor="start" x="1721.5" y="-74.5" font-family="Helvetica,sans-Serif" font-size="10.00">src/Scripts/Menu/PauseScene</text>
<text text-anchor="middle" x="1788" y="-63.5" font-family="Helvetica,sans-Serif" font-size="10.00">Behaviour.cpp</text>
</a>
</g>
</g>
<!-- Node1&#45;&gt;Node13 -->
<g id="edge12" class="edge">
<title>Node1&#45;&gt;Node13</title>
<path fill="none" stroke="midnightblue" d="M1398.82,-127.9C1477.01,-118.38 1598.8,-102.95 1704,-87 1707.07,-86.53 1710.21,-86.05 1713.37,-85.55"/>
<polygon fill="midnightblue" stroke="midnightblue" points="1398.06,-124.47 1388.56,-129.15 1398.91,-131.42 1398.06,-124.47"/>
</g>
<!-- Node14 -->
<g id="node14" class="node">
<title>Node14</title>
<g id="a_node14"><a xlink:href="Engine_8cpp.html" target="_top" xlink:title=" ">
<polygon fill="none" stroke="black" points="1880.5,-56.5 1880.5,-86.5 1981.5,-86.5 1981.5,-56.5 1880.5,-56.5"/>
<text text-anchor="start" x="1888.5" y="-74.5" font-family="Helvetica,sans-Serif" font-size="10.00">libs/spic&#45;engine/src</text>
<text text-anchor="middle" x="1931" y="-63.5" font-family="Helvetica,sans-Serif" font-size="10.00">/Api/Engine.cpp</text>
</a>
</g>
</g>
<!-- Node1&#45;&gt;Node14 -->
<g id="edge13" class="edge">
<title>Node1&#45;&gt;Node14</title>
<path fill="none" stroke="midnightblue" d="M1398.88,-133.82C1507.03,-128.05 1704.46,-114.58 1871,-87 1874.07,-86.49 1877.21,-85.91 1880.37,-85.29"/>
<polygon fill="midnightblue" stroke="midnightblue" points="1398.49,-130.33 1388.69,-134.35 1398.86,-137.33 1398.49,-130.33"/>
</g>
<!-- Node15 -->
<g id="node15" class="node">
<title>Node15</title>
<g id="a_node15"><a xlink:href="GameObject_8cpp.html" target="_top" xlink:title=" ">
<polygon fill="none" stroke="black" points="2000,-56.5 2000,-86.5 2110,-86.5 2110,-56.5 2000,-56.5"/>
<text text-anchor="start" x="2008" y="-74.5" font-family="Helvetica,sans-Serif" font-size="10.00">libs/spic&#45;engine/src</text>
<text text-anchor="middle" x="2055" y="-63.5" font-family="Helvetica,sans-Serif" font-size="10.00">/Api/GameObject.cpp</text>
</a>
</g>
</g>
<!-- Node1&#45;&gt;Node15 -->
<g id="edge14" class="edge">
<title>Node1&#45;&gt;Node15</title>
<path fill="none" stroke="midnightblue" d="M1398.51,-135.21C1525.03,-130.76 1777.88,-118.46 1990,-87 1993.2,-86.53 1996.48,-85.98 1999.78,-85.39"/>
<polygon fill="midnightblue" stroke="midnightblue" points="1398.38,-131.71 1388.51,-135.55 1398.62,-138.7 1398.38,-131.71"/>
</g>
<!-- Node16 -->
<g id="node16" class="node">
<title>Node16</title>
<g id="a_node16"><a xlink:href="InputSubsystem_8cpp.html" target="_top" xlink:title=" ">
<polygon fill="none" stroke="black" points="2128.5,-56.5 2128.5,-86.5 2293.5,-86.5 2293.5,-56.5 2128.5,-56.5"/>
<text text-anchor="start" x="2136.5" y="-74.5" font-family="Helvetica,sans-Serif" font-size="10.00">libs/spic&#45;engine/src</text>
<text text-anchor="middle" x="2211" y="-63.5" font-family="Helvetica,sans-Serif" font-size="10.00">/Subsystems/InputSubsystem.cpp</text>
</a>
</g>
</g>
<!-- Node1&#45;&gt;Node16 -->
<g id="edge15" class="edge">
<title>Node1&#45;&gt;Node16</title>
<path fill="none" stroke="midnightblue" d="M1398.77,-134.9C1543.49,-129.69 1856.43,-115.9 2119,-87 2122.05,-86.66 2125.16,-86.3 2128.3,-85.91"/>
<polygon fill="midnightblue" stroke="midnightblue" points="1398.51,-131.41 1388.64,-135.26 1398.76,-138.4 1398.51,-131.41"/>
</g>
<!-- Node17 -->
<g id="node17" class="node">
<title>Node17</title>
<g id="a_node17"><a xlink:href="RenderSubsystem_8cpp.html" target="_top" xlink:title=" ">
<polygon fill="none" stroke="black" points="2312,-56.5 2312,-86.5 2486,-86.5 2486,-56.5 2312,-56.5"/>
<text text-anchor="start" x="2320" y="-74.5" font-family="Helvetica,sans-Serif" font-size="10.00">libs/spic&#45;engine/src</text>
<text text-anchor="middle" x="2399" y="-63.5" font-family="Helvetica,sans-Serif" font-size="10.00">/Subsystems/RenderSubsystem.cpp</text>
</a>
</g>
</g>
<!-- Node1&#45;&gt;Node17 -->
<g id="edge16" class="edge">
<title>Node1&#45;&gt;Node17</title>
<path fill="none" stroke="midnightblue" d="M1398.59,-136.01C1566.84,-132.32 1967.57,-120.5 2302,-87 2305.22,-86.68 2308.49,-86.32 2311.8,-85.94"/>
<polygon fill="midnightblue" stroke="midnightblue" points="1398.5,-132.51 1388.57,-136.23 1398.65,-139.51 1398.5,-132.51"/>
</g>
<!-- Node18 -->
<g id="node18" class="node">
<title>Node18</title>
<g id="a_node18"><a xlink:href="Api_8hpp.html" target="_top" xlink:title=" ">
<polygon fill="none" stroke="black" points="2504,-56.5 2504,-86.5 2630,-86.5 2630,-56.5 2504,-56.5"/>
<text text-anchor="start" x="2512" y="-74.5" font-family="Helvetica,sans-Serif" font-size="10.00">libs/spic&#45;engine/includes</text>
<text text-anchor="middle" x="2567" y="-63.5" font-family="Helvetica,sans-Serif" font-size="10.00">/spic&#45;api&#45;headers/Api.hpp</text>
</a>
</g>
</g>
<!-- Node1&#45;&gt;Node18 -->
<g id="edge17" class="edge">
<title>Node1&#45;&gt;Node18</title>
<path fill="none" stroke="midnightblue" d="M1398.84,-135.67C1628.53,-130.23 2282.16,-112.84 2495,-87 2497.91,-86.65 2500.88,-86.24 2503.87,-85.79"/>
<polygon fill="midnightblue" stroke="midnightblue" points="1398.47,-132.18 1388.55,-135.92 1398.63,-139.18 1398.47,-132.18"/>
</g>
<!-- Node19 -->
<g id="node19" class="node">
<title>Node19</title>
<g id="a_node19"><a xlink:href="LevelController_8cpp.html" target="_top" xlink:title=" ">
<polygon fill="none" stroke="black" points="2415,-0.5 2415,-19.5 2581,-19.5 2581,-0.5 2415,-0.5"/>
<text text-anchor="middle" x="2498" y="-7.5" font-family="Helvetica,sans-Serif" font-size="10.00">src/Controllers/LevelController.cpp</text>
</a>
</g>
</g>
<!-- Node18&#45;&gt;Node19 -->
<g id="edge18" class="edge">
<title>Node18&#45;&gt;Node19</title>
<path fill="none" stroke="midnightblue" d="M2542.76,-49.6C2530.84,-39.32 2517.11,-27.48 2508.04,-19.66"/>
<polygon fill="midnightblue" stroke="midnightblue" points="2540.79,-52.52 2550.65,-56.4 2545.36,-47.22 2540.79,-52.52"/>
</g>
<!-- Node20 -->
<g id="node20" class="node">
<title>Node20</title>
<g id="a_node20"><a xlink:href="main_8cpp.html" target="_top" xlink:title=" ">
<polygon fill="none" stroke="black" points="2599,-0.5 2599,-19.5 2671,-19.5 2671,-0.5 2599,-0.5"/>
<text text-anchor="middle" x="2635" y="-7.5" font-family="Helvetica,sans-Serif" font-size="10.00">src/main.cpp</text>
</a>
</g>
</g>
<!-- Node18&#45;&gt;Node20 -->
<g id="edge19" class="edge">
<title>Node18&#45;&gt;Node20</title>
<path fill="none" stroke="midnightblue" d="M2590.89,-49.6C2602.64,-39.32 2616.16,-27.48 2625.11,-19.66"/>
<polygon fill="midnightblue" stroke="midnightblue" points="2588.34,-47.18 2583.12,-56.4 2592.95,-52.45 2588.34,-47.18"/>
</g>
</g>
</svg>
        <g id="navigator" transform="translate(0 0)" fill="#404254">
                <rect fill="#f2f5e9" fill-opacity="0.5" stroke="#606060" stroke-width=".5" x="0" y="0" width="60" height="60"/>
                <use id="zoomplus" xlink:href="#zoomPlus" x="17" y="9" onmousedown="handleZoom(evt,'in')"/>
                <use id="zoomminus" xlink:href="#zoomMin" x="42" y="9" onmousedown="handleZoom(evt,'out')"/>
                <use id="reset" xlink:href="#resetDef" x="30" y="36" onmousedown="handleReset()"/>
                <g id="arrowUp" xlink:href="#dirArrow" transform="translate(30 24)" onmousedown="handlePan(0,-1)">
                  <use xlink:href="#rim" fill="#404040">
                        <set attributeName="fill" to="#808080" begin="arrowUp.mouseover" end="arrowUp.mouseout"/>
                  </use>
                  <path fill="none" stroke="white" stroke-width="1.5" d="M0,-3.0v7 M-2.5,-0.5L0,-3.0L2.5,-0.5"/>
                </g>
                <g id="arrowRight" xlink:href="#dirArrow" transform="rotate(90) translate(36 -43)" onmousedown="handlePan(1,0)">
                  <use xlink:href="#rim" fill="#404040">
                        <set attributeName="fill" to="#808080" begin="arrowRight.mouseover" end="arrowRight.mouseout"/>
                  </use>
                  <path fill="none" stroke="white" stroke-width="1.5" d="M0,-3.0v7 M-2.5,-0.5L0,-3.0L2.5,-0.5"/>
                </g>
                <g id="arrowDown" xlink:href="#dirArrow" transform="rotate(180) translate(-30 -48)" onmousedown="handlePan(0,1)">
                  <use xlink:href="#rim" fill="#404040">
                        <set attributeName="fill" to="#808080" begin="arrowDown.mouseover" end="arrowDown.mouseout"/>
                  </use>
                  <path fill="none" stroke="white" stroke-width="1.5" d="M0,-3.0v7 M-2.5,-0.5L0,-3.0L2.5,-0.5"/>
                </g>
                <g id="arrowLeft" xlink:href="#dirArrow" transform="rotate(270) translate(-36 17)" onmousedown="handlePan(-1,0)">
                  <use xlink:href="#rim" fill="#404040">
                        <set attributeName="fill" to="#808080" begin="arrowLeft.mouseover" end="arrowLeft.mouseout"/>
                  </use>
                  <path fill="none" stroke="white" stroke-width="1.5" d="M0,-3.0v7 M-2.5,-0.5L0,-3.0L2.5,-0.5"/>
                </g>
        </g>
        <svg viewBox="0 0 15 15" width="100%" height="30px" preserveAspectRatio="xMaxYMin meet">
         <g id="arrow_out" transform="scale(0.3 0.3)">
          <a xlink:href="Engine_8hpp__dep__incl_org.svg" target="_base">
           <rect id="button" ry="5" rx="5" y="6" x="6" height="38" width="38"
                fill="#f2f5e9" fill-opacity="0.5" stroke="#606060" stroke-width="1.0"/>
           <path id="arrow"
             d="M 11.500037,31.436501 C 11.940474,20.09759 22.043105,11.32322 32.158766,21.979434 L 37.068811,17.246167 C 37.068811,17.246167 37.088388,32 37.088388,32 L 22.160133,31.978069 C 22.160133,31.978069 26.997745,27.140456 26.997745,27.140456 C 18.528582,18.264221 13.291696,25.230495 11.500037,31.436501 z"
             style="fill:#404040;"/>
          </a>
         </g>
        </svg>
</svg>
