<?xml version="1.0" encoding="UTF-8" standalone="no"?>
<!DOCTYPE svg PUBLIC "-//W3C//DTD SVG 1.1//EN"
 "http://www.w3.org/Graphics/SVG/1.1/DTD/svg11.dtd">
<!-- Generated by graphviz version 2.44.0 ()
 -->
<!-- Title: src/Scripts/Common/GameLostBehaviour.hpp Pages: 1 -->
<svg width="784pt" height="386pt"
 viewBox="0.00 0.00 783.54 386.00" xmlns="http://www.w3.org/2000/svg" xmlns:xlink="http://www.w3.org/1999/xlink">
<g id="graph0" class="graph" transform="scale(1 1) rotate(0) translate(4 382)">
<title>src/Scripts/Common/GameLostBehaviour.hpp</title>
<!-- Node1 -->
<g id="node1" class="node">
<title>Node1</title>
<g id="a_node1"><a xlink:title=" ">
<polygon fill="#bfbfbf" stroke="black" points="170,-347.5 170,-377.5 297,-377.5 297,-347.5 170,-347.5"/>
<text text-anchor="start" x="178" y="-365.5" font-family="Helvetica,sans-Serif" font-size="10.00">src/Scripts/Common</text>
<text text-anchor="middle" x="233.5" y="-354.5" font-family="Helvetica,sans-Serif" font-size="10.00">/GameLostBehaviour.hpp</text>
</a>
</g>
</g>
<!-- Node2 -->
<g id="node2" class="node">
<title>Node2</title>
<g id="a_node2"><a xlink:href="BehaviourScript_8hpp.html" target="_top" xlink:title=" ">
<polygon fill="none" stroke="black" points="53.5,-168.5 53.5,-187.5 157.5,-187.5 157.5,-168.5 53.5,-168.5"/>
<text text-anchor="middle" x="105.5" y="-175.5" font-family="Helvetica,sans-Serif" font-size="10.00">BehaviourScript.hpp</text>
</a>
</g>
</g>
<!-- Node1&#45;&gt;Node2 -->
<g id="edge1" class="edge">
<title>Node1&#45;&gt;Node2</title>
<path fill="none" stroke="midnightblue" d="M223.67,-347.48C200.56,-314.54 142.85,-232.25 117.62,-196.28"/>
<polygon fill="midnightblue" stroke="midnightblue" points="120.29,-194 111.69,-187.82 114.56,-198.02 120.29,-194"/>
</g>
<!-- Node6 -->
<g id="node6" class="node">
<title>Node6</title>
<g id="a_node6"><a xlink:href="LevelData_8hpp.html" target="_top" xlink:title=" ">
<polygon fill="none" stroke="black" points="375.5,-291.5 375.5,-310.5 503.5,-310.5 503.5,-291.5 375.5,-291.5"/>
<text text-anchor="middle" x="439.5" y="-298.5" font-family="Helvetica,sans-Serif" font-size="10.00">../../Structs/LevelData.hpp</text>
</a>
</g>
</g>
<!-- Node1&#45;&gt;Node6 -->
<g id="edge6" class="edge">
<title>Node1&#45;&gt;Node6</title>
<path fill="none" stroke="midnightblue" d="M282.06,-347.47C318.06,-337.08 366.52,-323.08 400.13,-313.37"/>
<polygon fill="midnightblue" stroke="midnightblue" points="401.41,-316.64 410.05,-310.51 399.47,-309.92 401.41,-316.64"/>
</g>
<!-- Node3 -->
<g id="node3" class="node">
<title>Node3</title>
<g id="a_node3"><a xlink:href="Component_8hpp.html" target="_top" xlink:title=" ">
<polygon fill="none" stroke="black" points="61.5,-56.5 61.5,-75.5 145.5,-75.5 145.5,-56.5 61.5,-56.5"/>
<text text-anchor="middle" x="103.5" y="-63.5" font-family="Helvetica,sans-Serif" font-size="10.00">Component.hpp</text>
</a>
</g>
</g>
<!-- Node2&#45;&gt;Node3 -->
<g id="edge2" class="edge">
<title>Node2&#45;&gt;Node3</title>
<path fill="none" stroke="midnightblue" d="M105.34,-168.37C105.02,-150.62 104.28,-109.67 103.84,-85.6"/>
<polygon fill="midnightblue" stroke="midnightblue" points="107.34,-85.53 103.66,-75.59 100.34,-85.65 107.34,-85.53"/>
</g>
<!-- Node5 -->
<g id="node5" class="node">
<title>Node5</title>
<g id="a_node5"><a xlink:href="Collider_8hpp.html" target="_top" xlink:title=" ">
<polygon fill="none" stroke="black" points="0,-112.5 0,-131.5 67,-131.5 67,-112.5 0,-112.5"/>
<text text-anchor="middle" x="33.5" y="-119.5" font-family="Helvetica,sans-Serif" font-size="10.00">Collider.hpp</text>
</a>
</g>
</g>
<!-- Node2&#45;&gt;Node5 -->
<g id="edge4" class="edge">
<title>Node2&#45;&gt;Node5</title>
<path fill="none" stroke="midnightblue" d="M93.93,-168.32C83.08,-160.18 66.62,-147.84 53.62,-138.09"/>
<polygon fill="midnightblue" stroke="midnightblue" points="55.38,-135.03 45.28,-131.83 51.18,-140.63 55.38,-135.03"/>
</g>
<!-- Node4 -->
<g id="node4" class="node">
<title>Node4</title>
<g id="a_node4"><a xlink:title=" ">
<polygon fill="none" stroke="#bfbfbf" points="311,-0.5 311,-19.5 362,-19.5 362,-0.5 311,-0.5"/>
<text text-anchor="middle" x="336.5" y="-7.5" font-family="Helvetica,sans-Serif" font-size="10.00">memory</text>
</a>
</g>
</g>
<!-- Node3&#45;&gt;Node4 -->
<g id="edge3" class="edge">
<title>Node3&#45;&gt;Node4</title>
<path fill="none" stroke="midnightblue" d="M140.42,-56.44C184.49,-46.23 257.67,-29.27 301.08,-19.21"/>
<polygon fill="midnightblue" stroke="midnightblue" points="301.96,-22.6 310.91,-16.93 300.38,-15.78 301.96,-22.6"/>
</g>
<!-- Node5&#45;&gt;Node3 -->
<g id="edge5" class="edge">
<title>Node5&#45;&gt;Node3</title>
<path fill="none" stroke="midnightblue" d="M44.75,-112.32C55.3,-104.18 71.3,-91.84 83.94,-82.09"/>
<polygon fill="midnightblue" stroke="midnightblue" points="86.27,-84.71 92.05,-75.83 81.99,-79.17 86.27,-84.71"/>
</g>
<!-- Node7 -->
<g id="node7" class="node">
<title>Node7</title>
<g id="a_node7"><a xlink:href="WaveData_8hpp.html" target="_top" xlink:title=" ">
<polygon fill="none" stroke="black" points="647.5,-168.5 647.5,-187.5 727.5,-187.5 727.5,-168.5 647.5,-168.5"/>
<text text-anchor="middle" x="687.5" y="-175.5" font-family="Helvetica,sans-Serif" font-size="10.00">WaveData.hpp</text>
</a>
</g>
</g>
<!-- Node6&#45;&gt;Node7 -->
<g id="edge7" class="edge">
<title>Node6&#45;&gt;Node7</title>
<path fill="none" stroke="midnightblue" d="M466.04,-291.42C490.52,-283.17 527.63,-269.8 558.5,-255 597.78,-236.17 640.92,-209.42 666.03,-193.2"/>
<polygon fill="midnightblue" stroke="midnightblue" points="668.25,-195.92 674.72,-187.53 664.43,-190.06 668.25,-195.92"/>
</g>
<!-- Node9 -->
<g id="node9" class="node">
<title>Node9</title>
<g id="a_node9"><a xlink:title=" ">
<polygon fill="none" stroke="#bfbfbf" points="666,-112.5 666,-131.5 709,-131.5 709,-112.5 666,-112.5"/>
<text text-anchor="middle" x="687.5" y="-119.5" font-family="Helvetica,sans-Serif" font-size="10.00">queue</text>
</a>
</g>
</g>
<!-- Node6&#45;&gt;Node9 -->
<g id="edge34" class="edge">
<title>Node6&#45;&gt;Node9</title>
<path fill="none" stroke="midnightblue" d="M451.46,-291.46C490.9,-263.31 617.16,-173.21 666.99,-137.64"/>
<polygon fill="midnightblue" stroke="midnightblue" points="669.26,-140.32 675.37,-131.66 665.2,-134.62 669.26,-140.32"/>
</g>
<!-- Node15 -->
<g id="node15" class="node">
<title>Node15</title>
<g id="a_node15"><a xlink:href="MapNode_8hpp.html" target="_top" xlink:title=" ">
<polygon fill="none" stroke="black" points="401,-168.5 401,-187.5 478,-187.5 478,-168.5 401,-168.5"/>
<text text-anchor="middle" x="439.5" y="-175.5" font-family="Helvetica,sans-Serif" font-size="10.00">MapNode.hpp</text>
</a>
</g>
</g>
<!-- Node6&#45;&gt;Node15 -->
<g id="edge18" class="edge">
<title>Node6&#45;&gt;Node15</title>
<path fill="none" stroke="midnightblue" d="M439.5,-291.3C439.5,-271.85 439.5,-224.49 439.5,-197.9"/>
<polygon fill="midnightblue" stroke="midnightblue" points="443,-197.62 439.5,-187.62 436,-197.62 443,-197.62"/>
</g>
<!-- Node17 -->
<g id="node17" class="node">
<title>Node17</title>
<g id="a_node17"><a xlink:href="HealthBehaviour_8hpp.html" target="_top" xlink:title=" ">
<polygon fill="none" stroke="black" points="198.5,-224.5 198.5,-254.5 326.5,-254.5 326.5,-224.5 198.5,-224.5"/>
<text text-anchor="start" x="206.5" y="-242.5" font-family="Helvetica,sans-Serif" font-size="10.00">../Scripts/Common/Health</text>
<text text-anchor="middle" x="262.5" y="-231.5" font-family="Helvetica,sans-Serif" font-size="10.00">Behaviour.hpp</text>
</a>
</g>
</g>
<!-- Node6&#45;&gt;Node17 -->
<g id="edge23" class="edge">
<title>Node6&#45;&gt;Node17</title>
<path fill="none" stroke="midnightblue" d="M414.14,-291.48C388.04,-282.7 346.65,-268.79 313.7,-257.71"/>
<polygon fill="midnightblue" stroke="midnightblue" points="314.81,-254.39 304.22,-254.52 312.58,-261.03 314.81,-254.39"/>
</g>
<!-- Node7&#45;&gt;Node4 -->
<g id="edge9" class="edge">
<title>Node7&#45;&gt;Node4</title>
<path fill="none" stroke="midnightblue" d="M716.61,-168.42C746.98,-157.86 788.05,-138.08 771.5,-112 728.31,-43.94 468.24,-19.81 372.15,-13.14"/>
<polygon fill="midnightblue" stroke="midnightblue" points="372.27,-9.64 362.06,-12.47 371.8,-16.63 372.27,-9.64"/>
</g>
<!-- Node8 -->
<g id="node8" class="node">
<title>Node8</title>
<g id="a_node8"><a xlink:title=" ">
<polygon fill="none" stroke="#bfbfbf" points="727,-112.5 727,-131.5 762,-131.5 762,-112.5 727,-112.5"/>
<text text-anchor="middle" x="744.5" y="-119.5" font-family="Helvetica,sans-Serif" font-size="10.00">map</text>
</a>
</g>
</g>
<!-- Node7&#45;&gt;Node8 -->
<g id="edge8" class="edge">
<title>Node7&#45;&gt;Node8</title>
<path fill="none" stroke="midnightblue" d="M696.66,-168.32C705,-160.42 717.53,-148.55 727.68,-138.94"/>
<polygon fill="midnightblue" stroke="midnightblue" points="730.32,-141.25 735.18,-131.83 725.51,-136.17 730.32,-141.25"/>
</g>
<!-- Node7&#45;&gt;Node9 -->
<g id="edge10" class="edge">
<title>Node7&#45;&gt;Node9</title>
<path fill="none" stroke="midnightblue" d="M687.5,-168.08C687.5,-161.01 687.5,-150.86 687.5,-141.99"/>
<polygon fill="midnightblue" stroke="midnightblue" points="691,-141.75 687.5,-131.75 684,-141.75 691,-141.75"/>
</g>
<!-- Node10 -->
<g id="node10" class="node">
<title>Node10</title>
<g id="a_node10"><a xlink:href="GameObject_8hpp.html" target="_top" xlink:title=" ">
<polygon fill="none" stroke="black" points="559,-112.5 559,-131.5 648,-131.5 648,-112.5 559,-112.5"/>
<text text-anchor="middle" x="603.5" y="-119.5" font-family="Helvetica,sans-Serif" font-size="10.00">GameObject.hpp</text>
</a>
</g>
</g>
<!-- Node7&#45;&gt;Node10 -->
<g id="edge11" class="edge">
<title>Node7&#45;&gt;Node10</title>
<path fill="none" stroke="midnightblue" d="M674,-168.32C660.9,-159.9 640.79,-146.97 625.39,-137.07"/>
<polygon fill="midnightblue" stroke="midnightblue" points="627.27,-134.12 616.96,-131.65 623.48,-140.01 627.27,-134.12"/>
</g>
<!-- Node10&#45;&gt;Node3 -->
<g id="edge12" class="edge">
<title>Node10&#45;&gt;Node3</title>
<path fill="none" stroke="midnightblue" d="M558.72,-113.14C555.94,-112.74 553.18,-112.35 550.5,-112 378.5,-89.61 331.41,-99.01 155.85,-76.08"/>
<polygon fill="midnightblue" stroke="midnightblue" points="156.13,-72.58 145.76,-74.74 155.21,-79.52 156.13,-72.58"/>
</g>
<!-- Node10&#45;&gt;Node4 -->
<g id="edge17" class="edge">
<title>Node10&#45;&gt;Node4</title>
<path fill="none" stroke="midnightblue" d="M586.89,-112.39C561.38,-99.34 510.85,-74.13 466.5,-56 434.94,-43.1 398.15,-30.59 371.78,-22.05"/>
<polygon fill="midnightblue" stroke="midnightblue" points="372.81,-18.7 362.22,-18.98 370.67,-25.37 372.81,-18.7"/>
</g>
<!-- Node11 -->
<g id="node11" class="node">
<title>Node11</title>
<g id="a_node11"><a xlink:href="Transform_8hpp.html" target="_top" xlink:title=" ">
<polygon fill="none" stroke="black" points="564,-56.5 564,-75.5 643,-75.5 643,-56.5 564,-56.5"/>
<text text-anchor="middle" x="603.5" y="-63.5" font-family="Helvetica,sans-Serif" font-size="10.00">Transform.hpp</text>
</a>
</g>
</g>
<!-- Node10&#45;&gt;Node11 -->
<g id="edge13" class="edge">
<title>Node10&#45;&gt;Node11</title>
<path fill="none" stroke="midnightblue" d="M603.5,-112.08C603.5,-105.01 603.5,-94.86 603.5,-85.99"/>
<polygon fill="midnightblue" stroke="midnightblue" points="607,-85.75 603.5,-75.75 600,-85.75 607,-85.75"/>
</g>
<!-- Node13 -->
<g id="node13" class="node">
<title>Node13</title>
<g id="a_node13"><a xlink:title=" ">
<polygon fill="none" stroke="#bfbfbf" points="316,-56.5 316,-75.5 357,-75.5 357,-56.5 316,-56.5"/>
<text text-anchor="middle" x="336.5" y="-63.5" font-family="Helvetica,sans-Serif" font-size="10.00">string</text>
</a>
</g>
</g>
<!-- Node10&#45;&gt;Node13 -->
<g id="edge15" class="edge">
<title>Node10&#45;&gt;Node13</title>
<path fill="none" stroke="midnightblue" d="M561.19,-112.44C507.19,-101.52 415.07,-82.89 367.28,-73.23"/>
<polygon fill="midnightblue" stroke="midnightblue" points="367.73,-69.75 357.24,-71.19 366.35,-76.61 367.73,-69.75"/>
</g>
<!-- Node14 -->
<g id="node14" class="node">
<title>Node14</title>
<g id="a_node14"><a xlink:title=" ">
<polygon fill="none" stroke="#bfbfbf" points="413.5,-56.5 413.5,-75.5 457.5,-75.5 457.5,-56.5 413.5,-56.5"/>
<text text-anchor="middle" x="435.5" y="-63.5" font-family="Helvetica,sans-Serif" font-size="10.00">vector</text>
</a>
</g>
</g>
<!-- Node10&#45;&gt;Node14 -->
<g id="edge16" class="edge">
<title>Node10&#45;&gt;Node14</title>
<path fill="none" stroke="midnightblue" d="M576.88,-112.44C547.16,-102.89 499.08,-87.44 467.38,-77.25"/>
<polygon fill="midnightblue" stroke="midnightblue" points="468.29,-73.86 457.7,-74.14 466.15,-80.53 468.29,-73.86"/>
</g>
<!-- Node12 -->
<g id="node12" class="node">
<title>Node12</title>
<g id="a_node12"><a xlink:href="Point_8hpp.html" target="_top" xlink:title=" ">
<polygon fill="none" stroke="black" points="575,-0.5 575,-19.5 632,-19.5 632,-0.5 575,-0.5"/>
<text text-anchor="middle" x="603.5" y="-7.5" font-family="Helvetica,sans-Serif" font-size="10.00">Point.hpp</text>
</a>
</g>
</g>
<!-- Node11&#45;&gt;Node12 -->
<g id="edge14" class="edge">
<title>Node11&#45;&gt;Node12</title>
<path fill="none" stroke="midnightblue" d="M603.5,-56.08C603.5,-49.01 603.5,-38.86 603.5,-29.99"/>
<polygon fill="midnightblue" stroke="midnightblue" points="607,-29.75 603.5,-19.75 600,-29.75 607,-29.75"/>
</g>
<!-- Node15&#45;&gt;Node4 -->
<g id="edge20" class="edge">
<title>Node15&#45;&gt;Node4</title>
<path fill="none" stroke="midnightblue" d="M434.5,-168.41C422.85,-148.48 392.92,-97.64 366.5,-56 360.58,-46.67 353.76,-36.4 348.12,-28.04"/>
<polygon fill="midnightblue" stroke="midnightblue" points="350.88,-25.86 342.37,-19.55 345.08,-29.79 350.88,-25.86"/>
</g>
<!-- Node15&#45;&gt;Node10 -->
<g id="edge21" class="edge">
<title>Node15&#45;&gt;Node10</title>
<path fill="none" stroke="midnightblue" d="M465.49,-168.44C493.2,-159.32 537.25,-144.81 568.12,-134.65"/>
<polygon fill="midnightblue" stroke="midnightblue" points="569.23,-137.97 577.64,-131.52 567.04,-131.32 569.23,-137.97"/>
</g>
<!-- Node15&#45;&gt;Node14 -->
<g id="edge19" class="edge">
<title>Node15&#45;&gt;Node14</title>
<path fill="none" stroke="midnightblue" d="M434.62,-168.37C429.94,-159.55 423.19,-145.3 420.5,-132 417.27,-116.06 422.1,-98.04 427.12,-85.03"/>
<polygon fill="midnightblue" stroke="midnightblue" points="430.35,-86.37 431.03,-75.8 423.91,-83.64 430.35,-86.37"/>
</g>
<!-- Node16 -->
<g id="node16" class="node">
<title>Node16</title>
<g id="a_node16"><a xlink:href="TileType_8hpp.html" target="_top" xlink:title=" ">
<polygon fill="none" stroke="black" points="429.5,-112.5 429.5,-131.5 541.5,-131.5 541.5,-112.5 429.5,-112.5"/>
<text text-anchor="middle" x="485.5" y="-119.5" font-family="Helvetica,sans-Serif" font-size="10.00">../Enums/TileType.hpp</text>
</a>
</g>
</g>
<!-- Node15&#45;&gt;Node16 -->
<g id="edge22" class="edge">
<title>Node15&#45;&gt;Node16</title>
<path fill="none" stroke="midnightblue" d="M447.1,-168.08C453.73,-160.3 463.52,-148.8 471.56,-139.37"/>
<polygon fill="midnightblue" stroke="midnightblue" points="474.23,-141.63 478.05,-131.75 468.9,-137.09 474.23,-141.63"/>
</g>
<!-- Node17&#45;&gt;Node2 -->
<g id="edge24" class="edge">
<title>Node17&#45;&gt;Node2</title>
<path fill="none" stroke="midnightblue" d="M225.29,-224.4C198.72,-214.33 163.31,-200.91 137.89,-191.28"/>
<polygon fill="midnightblue" stroke="midnightblue" points="138.94,-187.93 128.34,-187.66 136.46,-194.47 138.94,-187.93"/>
</g>
<!-- Node17&#45;&gt;Node4 -->
<g id="edge25" class="edge">
<title>Node17&#45;&gt;Node4</title>
<path fill="none" stroke="midnightblue" d="M264.38,-224.26C268.86,-192.83 281.79,-115.63 307.5,-56 311.72,-46.2 317.99,-36.14 323.62,-28.03"/>
<polygon fill="midnightblue" stroke="midnightblue" points="326.54,-29.96 329.56,-19.81 320.87,-25.86 326.54,-29.96"/>
</g>
<!-- Node18 -->
<g id="node18" class="node">
<title>Node18</title>
<g id="a_node18"><a xlink:href="Animator_8hpp.html" target="_top" xlink:title=" ">
<polygon fill="none" stroke="black" points="185.5,-168.5 185.5,-187.5 259.5,-187.5 259.5,-168.5 185.5,-168.5"/>
<text text-anchor="middle" x="222.5" y="-175.5" font-family="Helvetica,sans-Serif" font-size="10.00">Animator.hpp</text>
</a>
</g>
</g>
<!-- Node17&#45;&gt;Node18 -->
<g id="edge26" class="edge">
<title>Node17&#45;&gt;Node18</title>
<path fill="none" stroke="midnightblue" d="M253.02,-224.4C247.33,-215.93 240.05,-205.1 234.02,-196.14"/>
<polygon fill="midnightblue" stroke="midnightblue" points="236.8,-194 228.32,-187.66 230.99,-197.91 236.8,-194"/>
</g>
<!-- Node18&#45;&gt;Node3 -->
<g id="edge27" class="edge">
<title>Node18&#45;&gt;Node3</title>
<path fill="none" stroke="midnightblue" d="M205.78,-168.47C190.83,-160.34 168.81,-147.13 152.5,-132 137.18,-117.78 123.21,-98.3 114.14,-84.38"/>
<polygon fill="midnightblue" stroke="midnightblue" points="116.99,-82.35 108.69,-75.77 111.08,-86.09 116.99,-82.35"/>
</g>
<!-- Node18&#45;&gt;Node4 -->
<g id="edge33" class="edge">
<title>Node18&#45;&gt;Node4</title>
<path fill="none" stroke="midnightblue" d="M224.44,-168.24C229.46,-147.05 244.59,-92.14 273.5,-56 283.7,-43.25 298.41,-32.46 311.05,-24.65"/>
<polygon fill="midnightblue" stroke="midnightblue" points="312.96,-27.59 319.8,-19.5 309.4,-21.56 312.96,-27.59"/>
</g>
<!-- Node18&#45;&gt;Node14 -->
<g id="edge32" class="edge">
<title>Node18&#45;&gt;Node14</title>
<path fill="none" stroke="midnightblue" d="M239.21,-168.37C276.31,-149.21 365.72,-103.04 409.91,-80.22"/>
<polygon fill="midnightblue" stroke="midnightblue" points="411.58,-83.29 418.86,-75.59 408.37,-77.07 411.58,-83.29"/>
</g>
<!-- Node19 -->
<g id="node19" class="node">
<title>Node19</title>
<g id="a_node19"><a xlink:href="Sprite_8hpp.html" target="_top" xlink:title=" ">
<polygon fill="none" stroke="black" points="161.5,-112.5 161.5,-131.5 221.5,-131.5 221.5,-112.5 161.5,-112.5"/>
<text text-anchor="middle" x="191.5" y="-119.5" font-family="Helvetica,sans-Serif" font-size="10.00">Sprite.hpp</text>
</a>
</g>
</g>
<!-- Node18&#45;&gt;Node19 -->
<g id="edge28" class="edge">
<title>Node18&#45;&gt;Node19</title>
<path fill="none" stroke="midnightblue" d="M217.38,-168.08C213.09,-160.61 206.84,-149.72 201.56,-140.52"/>
<polygon fill="midnightblue" stroke="midnightblue" points="204.54,-138.68 196.52,-131.75 198.47,-142.17 204.54,-138.68"/>
</g>
<!-- Node19&#45;&gt;Node3 -->
<g id="edge29" class="edge">
<title>Node19&#45;&gt;Node3</title>
<path fill="none" stroke="midnightblue" d="M177.36,-112.32C163.63,-103.9 142.56,-90.97 126.44,-81.07"/>
<polygon fill="midnightblue" stroke="midnightblue" points="127.96,-77.9 117.6,-75.65 124.3,-83.87 127.96,-77.9"/>
</g>
<!-- Node19&#45;&gt;Node13 -->
<g id="edge31" class="edge">
<title>Node19&#45;&gt;Node13</title>
<path fill="none" stroke="midnightblue" d="M214.48,-112.44C239.37,-103.17 279.18,-88.35 306.52,-78.17"/>
<polygon fill="midnightblue" stroke="midnightblue" points="307.83,-81.41 315.98,-74.64 305.38,-74.85 307.83,-81.41"/>
</g>
<!-- Node20 -->
<g id="node20" class="node">
<title>Node20</title>
<g id="a_node20"><a xlink:href="Color_8hpp.html" target="_top" xlink:title=" ">
<polygon fill="none" stroke="black" points="164,-56.5 164,-75.5 221,-75.5 221,-56.5 164,-56.5"/>
<text text-anchor="middle" x="192.5" y="-63.5" font-family="Helvetica,sans-Serif" font-size="10.00">Color.hpp</text>
</a>
</g>
</g>
<!-- Node19&#45;&gt;Node20 -->
<g id="edge30" class="edge">
<title>Node19&#45;&gt;Node20</title>
<path fill="none" stroke="midnightblue" d="M191.67,-112.08C191.8,-105.01 191.98,-94.86 192.15,-85.99"/>
<polygon fill="midnightblue" stroke="midnightblue" points="195.65,-85.81 192.34,-75.75 188.65,-85.68 195.65,-85.81"/>
</g>
</g>
</svg>
