<?xml version="1.0" encoding="UTF-8" standalone="no"?>
<!DOCTYPE svg PUBLIC "-//W3C//DTD SVG 1.1//EN"
 "http://www.w3.org/Graphics/SVG/1.1/DTD/svg11.dtd">
<!-- Generated by graphviz version 2.44.0 ()
 -->
<!-- Title: src/Utils/GameObjectUtil.hpp Pages: 1 -->
<svg width="2603pt" height="95pt"
 viewBox="0.00 0.00 2603.00 95.00" xmlns="http://www.w3.org/2000/svg" xmlns:xlink="http://www.w3.org/1999/xlink">
<g id="graph0" class="graph" transform="scale(1 1) rotate(0) translate(4 91)">
<title>src/Utils/GameObjectUtil.hpp</title>
<!-- Node1 -->
<g id="node1" class="node">
<title>Node1</title>
<g id="a_node1"><a xlink:title=" ">
<polygon fill="#bfbfbf" stroke="black" points="1280,-67.5 1280,-86.5 1424,-86.5 1424,-67.5 1280,-67.5"/>
<text text-anchor="middle" x="1352" y="-74.5" font-family="Helvetica,sans-Serif" font-size="10.00">src/Utils/GameObjectUtil.hpp</text>
</a>
</g>
</g>
<!-- Node2 -->
<g id="node2" class="node">
<title>Node2</title>
<g id="a_node2"><a xlink:href="LevelController_8cpp.html" target="_top" xlink:title=" ">
<polygon fill="none" stroke="black" points="0,-6 0,-25 166,-25 166,-6 0,-6"/>
<text text-anchor="middle" x="83" y="-13" font-family="Helvetica,sans-Serif" font-size="10.00">src/Controllers/LevelController.cpp</text>
</a>
</g>
</g>
<!-- Node1&#45;&gt;Node2 -->
<g id="edge1" class="edge">
<title>Node1&#45;&gt;Node2</title>
<path fill="none" stroke="midnightblue" d="M1269.79,-76.19C1077.7,-75.91 584.64,-70.97 175,-31 160.36,-29.57 144.5,-27.33 130.14,-25.03"/>
<polygon fill="midnightblue" stroke="midnightblue" points="1269.81,-79.69 1279.81,-76.2 1269.82,-72.69 1269.81,-79.69"/>
</g>
<!-- Node3 -->
<g id="node3" class="node">
<title>Node3</title>
<g id="a_node3"><a xlink:href="AudioSourcePrefabFactory_8cpp.html" target="_top" xlink:title=" ">
<polygon fill="none" stroke="black" points="184,-0.5 184,-30.5 316,-30.5 316,-0.5 184,-0.5"/>
<text text-anchor="start" x="192" y="-18.5" font-family="Helvetica,sans-Serif" font-size="10.00">src/Factories/AudioSource</text>
<text text-anchor="middle" x="250" y="-7.5" font-family="Helvetica,sans-Serif" font-size="10.00">PrefabFactory.cpp</text>
</a>
</g>
</g>
<!-- Node1&#45;&gt;Node3 -->
<g id="edge2" class="edge">
<title>Node1&#45;&gt;Node3</title>
<path fill="none" stroke="midnightblue" d="M1269.66,-76.49C1094.95,-76.64 674.51,-72.22 325,-31 322.1,-30.66 319.15,-30.27 316.17,-29.84"/>
<polygon fill="midnightblue" stroke="midnightblue" points="1269.81,-79.99 1279.8,-76.48 1269.8,-72.99 1269.81,-79.99"/>
</g>
<!-- Node4 -->
<g id="node4" class="node">
<title>Node4</title>
<g id="a_node4"><a xlink:href="BackgroundPrefabFactory_8cpp.html" target="_top" xlink:title=" ">
<polygon fill="none" stroke="black" points="334,-0.5 334,-30.5 462,-30.5 462,-0.5 334,-0.5"/>
<text text-anchor="start" x="342" y="-18.5" font-family="Helvetica,sans-Serif" font-size="10.00">src/Factories/Background</text>
<text text-anchor="middle" x="398" y="-7.5" font-family="Helvetica,sans-Serif" font-size="10.00">PrefabFactory.cpp</text>
</a>
</g>
</g>
<!-- Node1&#45;&gt;Node4 -->
<g id="edge3" class="edge">
<title>Node1&#45;&gt;Node4</title>
<path fill="none" stroke="midnightblue" d="M1269.74,-75.77C1113.48,-74.45 763.23,-67.29 471,-31 468.05,-30.63 465.04,-30.22 462.01,-29.76"/>
<polygon fill="midnightblue" stroke="midnightblue" points="1269.72,-79.27 1279.75,-75.85 1269.77,-72.27 1269.72,-79.27"/>
</g>
<!-- Node5 -->
<g id="node5" class="node">
<title>Node5</title>
<g id="a_node5"><a xlink:href="BulletFactory_8cpp.html" target="_top" xlink:title=" ">
<polygon fill="none" stroke="black" points="480,-6 480,-25 632,-25 632,-6 480,-6"/>
<text text-anchor="middle" x="556" y="-13" font-family="Helvetica,sans-Serif" font-size="10.00">src/Factories/BulletFactory.cpp</text>
</a>
</g>
</g>
<!-- Node1&#45;&gt;Node5 -->
<g id="edge4" class="edge">
<title>Node1&#45;&gt;Node5</title>
<path fill="none" stroke="midnightblue" d="M1269.78,-73.62C1137.11,-69.15 867.74,-57.44 641,-31 627.91,-29.47 613.78,-27.28 600.87,-25.07"/>
<polygon fill="midnightblue" stroke="midnightblue" points="1269.76,-77.12 1279.87,-73.96 1269.99,-70.13 1269.76,-77.12"/>
</g>
<!-- Node6 -->
<g id="node6" class="node">
<title>Node6</title>
<g id="a_node6"><a xlink:href="ButtonPrefabFactory_8cpp.html" target="_top" xlink:title=" ">
<polygon fill="none" stroke="black" points="650,-0.5 650,-30.5 784,-30.5 784,-0.5 650,-0.5"/>
<text text-anchor="start" x="658" y="-18.5" font-family="Helvetica,sans-Serif" font-size="10.00">src/Factories/ButtonPrefab</text>
<text text-anchor="middle" x="717" y="-7.5" font-family="Helvetica,sans-Serif" font-size="10.00">Factory.cpp</text>
</a>
</g>
</g>
<!-- Node1&#45;&gt;Node6 -->
<g id="edge5" class="edge">
<title>Node1&#45;&gt;Node6</title>
<path fill="none" stroke="midnightblue" d="M1269.52,-72.16C1160.2,-66.42 961.48,-53.79 793,-31 790.07,-30.6 787.09,-30.17 784.07,-29.7"/>
<polygon fill="midnightblue" stroke="midnightblue" points="1269.65,-75.67 1279.81,-72.69 1270.01,-68.68 1269.65,-75.67"/>
</g>
<!-- Node7 -->
<g id="node7" class="node">
<title>Node7</title>
<g id="a_node7"><a xlink:href="EnemyPrefabFactory_8cpp.html" target="_top" xlink:title=" ">
<polygon fill="none" stroke="black" points="802,-0.5 802,-30.5 936,-30.5 936,-0.5 802,-0.5"/>
<text text-anchor="start" x="810" y="-18.5" font-family="Helvetica,sans-Serif" font-size="10.00">src/Factories/EnemyPrefab</text>
<text text-anchor="middle" x="869" y="-7.5" font-family="Helvetica,sans-Serif" font-size="10.00">Factory.cpp</text>
</a>
</g>
</g>
<!-- Node1&#45;&gt;Node7 -->
<g id="edge6" class="edge">
<title>Node1&#45;&gt;Node7</title>
<path fill="none" stroke="midnightblue" d="M1269.67,-68.81C1187.29,-61.16 1057.02,-47.85 945,-31 942.08,-30.56 939.1,-30.09 936.09,-29.6"/>
<polygon fill="midnightblue" stroke="midnightblue" points="1269.45,-72.3 1279.73,-69.73 1270.09,-65.33 1269.45,-72.3"/>
</g>
<!-- Node8 -->
<g id="node8" class="node">
<title>Node8</title>
<g id="a_node8"><a xlink:href="HealthBarFactory_8cpp.html" target="_top" xlink:title=" ">
<polygon fill="none" stroke="black" points="954,-6 954,-25 1124,-25 1124,-6 954,-6"/>
<text text-anchor="middle" x="1039" y="-13" font-family="Helvetica,sans-Serif" font-size="10.00">src/Factories/HealthBarFactory.cpp</text>
</a>
</g>
</g>
<!-- Node1&#45;&gt;Node8 -->
<g id="edge7" class="edge">
<title>Node1&#45;&gt;Node8</title>
<path fill="none" stroke="midnightblue" d="M1297,-65.55C1236.37,-54.02 1139.97,-35.69 1083.76,-25.01"/>
<polygon fill="midnightblue" stroke="midnightblue" points="1296.68,-69.05 1307.15,-67.48 1297.98,-62.17 1296.68,-69.05"/>
</g>
<!-- Node9 -->
<g id="node9" class="node">
<title>Node9</title>
<g id="a_node9"><a xlink:href="HeroPrefabFactory_8cpp.html" target="_top" xlink:title=" ">
<polygon fill="none" stroke="black" points="1142,-0.5 1142,-30.5 1268,-30.5 1268,-0.5 1142,-0.5"/>
<text text-anchor="start" x="1150" y="-18.5" font-family="Helvetica,sans-Serif" font-size="10.00">src/Factories/HeroPrefab</text>
<text text-anchor="middle" x="1205" y="-7.5" font-family="Helvetica,sans-Serif" font-size="10.00">Factory.cpp</text>
</a>
</g>
</g>
<!-- Node1&#45;&gt;Node9 -->
<g id="edge8" class="edge">
<title>Node1&#45;&gt;Node9</title>
<path fill="none" stroke="midnightblue" d="M1321.66,-63.72C1297.8,-54.06 1264.55,-40.6 1239.64,-30.52"/>
<polygon fill="midnightblue" stroke="midnightblue" points="1320.36,-66.97 1330.94,-67.48 1322.98,-60.48 1320.36,-66.97"/>
</g>
<!-- Node10 -->
<g id="node10" class="node">
<title>Node10</title>
<g id="a_node10"><a xlink:href="TowerPrefabFactory_8cpp.html" target="_top" xlink:title=" ">
<polygon fill="none" stroke="black" points="1286,-0.5 1286,-30.5 1418,-30.5 1418,-0.5 1286,-0.5"/>
<text text-anchor="start" x="1294" y="-18.5" font-family="Helvetica,sans-Serif" font-size="10.00">src/Factories/TowerPrefab</text>
<text text-anchor="middle" x="1352" y="-7.5" font-family="Helvetica,sans-Serif" font-size="10.00">Factory.cpp</text>
</a>
</g>
</g>
<!-- Node1&#45;&gt;Node10 -->
<g id="edge9" class="edge">
<title>Node1&#45;&gt;Node10</title>
<path fill="none" stroke="midnightblue" d="M1352,-57.23C1352,-48.59 1352,-38.5 1352,-30.52"/>
<polygon fill="midnightblue" stroke="midnightblue" points="1348.5,-57.48 1352,-67.48 1355.5,-57.48 1348.5,-57.48"/>
</g>
<!-- Node11 -->
<g id="node11" class="node">
<title>Node11</title>
<g id="a_node11"><a xlink:href="LevelScene_8cpp.html" target="_top" xlink:title=" ">
<polygon fill="none" stroke="black" points="1436.5,-6 1436.5,-25 1575.5,-25 1575.5,-6 1436.5,-6"/>
<text text-anchor="middle" x="1506" y="-13" font-family="Helvetica,sans-Serif" font-size="10.00">src/Scenes/LevelScene.cpp</text>
</a>
</g>
</g>
<!-- Node1&#45;&gt;Node11 -->
<g id="edge10" class="edge">
<title>Node1&#45;&gt;Node11</title>
<path fill="none" stroke="midnightblue" d="M1383.62,-63.78C1413.55,-52.22 1457.69,-35.16 1483.98,-25.01"/>
<polygon fill="midnightblue" stroke="midnightblue" points="1382.13,-60.61 1374.06,-67.48 1384.65,-67.14 1382.13,-60.61"/>
</g>
<!-- Node12 -->
<g id="node12" class="node">
<title>Node12</title>
<g id="a_node12"><a xlink:href="VictoryScene_8cpp.html" target="_top" xlink:title=" ">
<polygon fill="none" stroke="black" points="1593.5,-6 1593.5,-25 1738.5,-25 1738.5,-6 1593.5,-6"/>
<text text-anchor="middle" x="1666" y="-13" font-family="Helvetica,sans-Serif" font-size="10.00">src/Scenes/VictoryScene.cpp</text>
</a>
</g>
</g>
<!-- Node1&#45;&gt;Node12 -->
<g id="edge11" class="edge">
<title>Node1&#45;&gt;Node12</title>
<path fill="none" stroke="midnightblue" d="M1407.17,-65.55C1468,-54.02 1564.71,-35.69 1621.09,-25.01"/>
<polygon fill="midnightblue" stroke="midnightblue" points="1406.16,-62.17 1396.99,-67.48 1407.47,-69.05 1406.16,-62.17"/>
</g>
<!-- Node13 -->
<g id="node13" class="node">
<title>Node13</title>
<g id="a_node13"><a xlink:href="AttackBehaviour_8cpp.html" target="_top" xlink:title=" ">
<polygon fill="none" stroke="black" points="1757,-0.5 1757,-30.5 1867,-30.5 1867,-0.5 1757,-0.5"/>
<text text-anchor="start" x="1765" y="-18.5" font-family="Helvetica,sans-Serif" font-size="10.00">src/Scripts/Common</text>
<text text-anchor="middle" x="1812" y="-7.5" font-family="Helvetica,sans-Serif" font-size="10.00">/AttackBehaviour.cpp</text>
</a>
</g>
</g>
<!-- Node1&#45;&gt;Node13 -->
<g id="edge12" class="edge">
<title>Node1&#45;&gt;Node13</title>
<path fill="none" stroke="midnightblue" d="M1434.29,-69.3C1514.64,-62.13 1640.22,-49.28 1748,-31 1750.92,-30.5 1753.91,-29.96 1756.92,-29.38"/>
<polygon fill="midnightblue" stroke="midnightblue" points="1433.89,-65.82 1424.23,-70.19 1434.5,-72.79 1433.89,-65.82"/>
</g>
<!-- Node14 -->
<g id="node14" class="node">
<title>Node14</title>
<g id="a_node14"><a xlink:href="BulletBehaviour_8cpp.html" target="_top" xlink:title=" ">
<polygon fill="none" stroke="black" points="1885,-0.5 1885,-30.5 1991,-30.5 1991,-0.5 1885,-0.5"/>
<text text-anchor="start" x="1893" y="-18.5" font-family="Helvetica,sans-Serif" font-size="10.00">src/Scripts/Common</text>
<text text-anchor="middle" x="1938" y="-7.5" font-family="Helvetica,sans-Serif" font-size="10.00">/BulletBehaviour.cpp</text>
</a>
</g>
</g>
<!-- Node1&#45;&gt;Node14 -->
<g id="edge13" class="edge">
<title>Node1&#45;&gt;Node14</title>
<path fill="none" stroke="midnightblue" d="M1434.09,-72.61C1537.63,-67.5 1720.88,-55.67 1876,-31 1878.95,-30.53 1881.96,-30 1885,-29.42"/>
<polygon fill="midnightblue" stroke="midnightblue" points="1433.84,-69.12 1424.02,-73.1 1434.18,-76.11 1433.84,-69.12"/>
</g>
<!-- Node15 -->
<g id="node15" class="node">
<title>Node15</title>
<g id="a_node15"><a xlink:href="GameLostBehaviour_8cpp.html" target="_top" xlink:title=" ">
<polygon fill="none" stroke="black" points="2009.5,-0.5 2009.5,-30.5 2136.5,-30.5 2136.5,-0.5 2009.5,-0.5"/>
<text text-anchor="start" x="2017.5" y="-18.5" font-family="Helvetica,sans-Serif" font-size="10.00">src/Scripts/Common</text>
<text text-anchor="middle" x="2073" y="-7.5" font-family="Helvetica,sans-Serif" font-size="10.00">/GameLostBehaviour.cpp</text>
</a>
</g>
</g>
<!-- Node1&#45;&gt;Node15 -->
<g id="edge14" class="edge">
<title>Node1&#45;&gt;Node15</title>
<path fill="none" stroke="midnightblue" d="M1434.35,-73.62C1557.75,-69.31 1797.78,-57.99 2000,-31 2003.07,-30.59 2006.21,-30.13 2009.38,-29.63"/>
<polygon fill="midnightblue" stroke="midnightblue" points="1434.09,-70.13 1424.22,-73.97 1434.33,-77.13 1434.09,-70.13"/>
</g>
<!-- Node16 -->
<g id="node16" class="node">
<title>Node16</title>
<g id="a_node16"><a xlink:href="HealAbilityBehaviour_8cpp.html" target="_top" xlink:title=" ">
<polygon fill="none" stroke="black" points="2155,-0.5 2155,-30.5 2283,-30.5 2283,-0.5 2155,-0.5"/>
<text text-anchor="start" x="2163" y="-18.5" font-family="Helvetica,sans-Serif" font-size="10.00">src/Scripts/Heroes</text>
<text text-anchor="middle" x="2219" y="-7.5" font-family="Helvetica,sans-Serif" font-size="10.00">/HealAbilityBehaviour.cpp</text>
</a>
</g>
</g>
<!-- Node1&#45;&gt;Node16 -->
<g id="edge15" class="edge">
<title>Node1&#45;&gt;Node16</title>
<path fill="none" stroke="midnightblue" d="M1434.14,-75.11C1578.64,-72.71 1887.51,-63.83 2146,-31 2148.95,-30.63 2151.96,-30.2 2154.99,-29.74"/>
<polygon fill="midnightblue" stroke="midnightblue" points="1433.96,-71.61 1424.02,-75.27 1434.07,-78.61 1433.96,-71.61"/>
</g>
<!-- Node17 -->
<g id="node17" class="node">
<title>Node17</title>
<g id="a_node17"><a xlink:href="UserAttackBehaviour_8cpp.html" target="_top" xlink:title=" ">
<polygon fill="none" stroke="black" points="2301.5,-0.5 2301.5,-30.5 2432.5,-30.5 2432.5,-0.5 2301.5,-0.5"/>
<text text-anchor="start" x="2309.5" y="-18.5" font-family="Helvetica,sans-Serif" font-size="10.00">src/Scripts/Heroes</text>
<text text-anchor="middle" x="2367" y="-7.5" font-family="Helvetica,sans-Serif" font-size="10.00">/UserAttackBehaviour.cpp</text>
</a>
</g>
</g>
<!-- Node1&#45;&gt;Node17 -->
<g id="edge16" class="edge">
<title>Node1&#45;&gt;Node17</title>
<path fill="none" stroke="midnightblue" d="M1434.24,-76.01C1598.07,-75.16 1976.6,-68.84 2292,-31 2295.03,-30.64 2298.12,-30.22 2301.23,-29.77"/>
<polygon fill="midnightblue" stroke="midnightblue" points="1434.21,-72.51 1424.23,-76.06 1434.25,-79.51 1434.21,-72.51"/>
</g>
<!-- Node18 -->
<g id="node18" class="node">
<title>Node18</title>
<g id="a_node18"><a xlink:href="GameObjectUtil_8cpp.html" target="_top" xlink:title=" ">
<polygon fill="none" stroke="black" points="2451,-6 2451,-25 2595,-25 2595,-6 2451,-6"/>
<text text-anchor="middle" x="2523" y="-13" font-family="Helvetica,sans-Serif" font-size="10.00">src/Utils/GameObjectUtil.cpp</text>
</a>
</g>
</g>
<!-- Node1&#45;&gt;Node18 -->
<g id="edge17" class="edge">
<title>Node1&#45;&gt;Node18</title>
<path fill="none" stroke="midnightblue" d="M1434.36,-76.41C1616.57,-76.48 2067.37,-72.07 2442,-31 2454.92,-29.58 2468.89,-27.34 2481.53,-25.04"/>
<polygon fill="midnightblue" stroke="midnightblue" points="1434.32,-72.91 1424.32,-76.4 1434.31,-79.91 1434.32,-72.91"/>
</g>
</g>
</svg>
