<?xml version="1.0" encoding="UTF-8" standalone="no"?>
<!DOCTYPE svg PUBLIC "-//W3C//DTD SVG 1.1//EN"
 "http://www.w3.org/Graphics/SVG/1.1/DTD/svg11.dtd">
<!-- Generated by graphviz version 2.44.0 ()
 -->
<!-- Title: src/Utils/GameObjectUtil.cpp Pages: 1 -->
<svg width="394pt" height="252pt"
 viewBox="0.00 0.00 394.00 252.00" xmlns="http://www.w3.org/2000/svg" xmlns:xlink="http://www.w3.org/1999/xlink">
<g id="graph0" class="graph" transform="scale(1 1) rotate(0) translate(4 248)">
<title>src/Utils/GameObjectUtil.cpp</title>
<!-- Node1 -->
<g id="node1" class="node">
<title>Node1</title>
<g id="a_node1"><a xlink:title=" ">
<polygon fill="#bfbfbf" stroke="black" points="0,-224.5 0,-243.5 144,-243.5 144,-224.5 0,-224.5"/>
<text text-anchor="middle" x="72" y="-231.5" font-family="Helvetica,sans-Serif" font-size="10.00">src/Utils/GameObjectUtil.cpp</text>
</a>
</g>
</g>
<!-- Node2 -->
<g id="node2" class="node">
<title>Node2</title>
<g id="a_node2"><a xlink:href="GameObjectUtil_8hpp.html" target="_top" xlink:title=" ">
<polygon fill="none" stroke="black" points="20,-168.5 20,-187.5 124,-187.5 124,-168.5 20,-168.5"/>
<text text-anchor="middle" x="72" y="-175.5" font-family="Helvetica,sans-Serif" font-size="10.00">GameObjectUtil.hpp</text>
</a>
</g>
</g>
<!-- Node1&#45;&gt;Node2 -->
<g id="edge1" class="edge">
<title>Node1&#45;&gt;Node2</title>
<path fill="none" stroke="midnightblue" d="M72,-224.08C72,-217.01 72,-206.86 72,-197.99"/>
<polygon fill="midnightblue" stroke="midnightblue" points="75.5,-197.75 72,-187.75 68.5,-197.75 75.5,-197.75"/>
</g>
<!-- Node3 -->
<g id="node3" class="node">
<title>Node3</title>
<g id="a_node3"><a xlink:title=" ">
<polygon fill="none" stroke="#bfbfbf" points="30.5,-0.5 30.5,-19.5 81.5,-19.5 81.5,-0.5 30.5,-0.5"/>
<text text-anchor="middle" x="56" y="-7.5" font-family="Helvetica,sans-Serif" font-size="10.00">memory</text>
</a>
</g>
</g>
<!-- Node2&#45;&gt;Node3 -->
<g id="edge2" class="edge">
<title>Node2&#45;&gt;Node3</title>
<path fill="none" stroke="midnightblue" d="M70.97,-168.36C68.9,-150.92 64.18,-110.25 61,-76 59.56,-60.49 58.22,-42.86 57.29,-29.88"/>
<polygon fill="midnightblue" stroke="midnightblue" points="60.78,-29.57 56.59,-19.84 53.8,-30.06 60.78,-29.57"/>
</g>
<!-- Node4 -->
<g id="node4" class="node">
<title>Node4</title>
<g id="a_node4"><a xlink:href="GameObject_8hpp.html" target="_top" xlink:title=" ">
<polygon fill="none" stroke="black" points="130.5,-112.5 130.5,-131.5 219.5,-131.5 219.5,-112.5 130.5,-112.5"/>
<text text-anchor="middle" x="175" y="-119.5" font-family="Helvetica,sans-Serif" font-size="10.00">GameObject.hpp</text>
</a>
</g>
</g>
<!-- Node2&#45;&gt;Node4 -->
<g id="edge3" class="edge">
<title>Node2&#45;&gt;Node4</title>
<path fill="none" stroke="midnightblue" d="M88.55,-168.32C104.99,-159.7 130.43,-146.36 149.47,-136.39"/>
<polygon fill="midnightblue" stroke="midnightblue" points="151.26,-139.4 158.49,-131.65 148.01,-133.2 151.26,-139.4"/>
</g>
<!-- Node4&#45;&gt;Node3 -->
<g id="edge10" class="edge">
<title>Node4&#45;&gt;Node3</title>
<path fill="none" stroke="midnightblue" d="M137.49,-112.44C116.39,-105.81 91.12,-94.53 75,-76 63.79,-63.12 59.19,-43.95 57.3,-29.76"/>
<polygon fill="midnightblue" stroke="midnightblue" points="60.77,-29.26 56.29,-19.66 53.8,-29.96 60.77,-29.26"/>
</g>
<!-- Node5 -->
<g id="node5" class="node">
<title>Node5</title>
<g id="a_node5"><a xlink:href="Component_8hpp.html" target="_top" xlink:title=" ">
<polygon fill="none" stroke="black" points="84,-56.5 84,-75.5 168,-75.5 168,-56.5 84,-56.5"/>
<text text-anchor="middle" x="126" y="-63.5" font-family="Helvetica,sans-Serif" font-size="10.00">Component.hpp</text>
</a>
</g>
</g>
<!-- Node4&#45;&gt;Node5 -->
<g id="edge4" class="edge">
<title>Node4&#45;&gt;Node5</title>
<path fill="none" stroke="midnightblue" d="M166.91,-112.08C159.84,-104.3 149.41,-92.8 140.85,-83.37"/>
<polygon fill="midnightblue" stroke="midnightblue" points="143.25,-80.8 133.94,-75.75 138.07,-85.51 143.25,-80.8"/>
</g>
<!-- Node6 -->
<g id="node6" class="node">
<title>Node6</title>
<g id="a_node6"><a xlink:href="Transform_8hpp.html" target="_top" xlink:title=" ">
<polygon fill="none" stroke="black" points="185.5,-56.5 185.5,-75.5 264.5,-75.5 264.5,-56.5 185.5,-56.5"/>
<text text-anchor="middle" x="225" y="-63.5" font-family="Helvetica,sans-Serif" font-size="10.00">Transform.hpp</text>
</a>
</g>
</g>
<!-- Node4&#45;&gt;Node6 -->
<g id="edge6" class="edge">
<title>Node4&#45;&gt;Node6</title>
<path fill="none" stroke="midnightblue" d="M183.26,-112.08C190.46,-104.3 201.11,-92.8 209.85,-83.37"/>
<polygon fill="midnightblue" stroke="midnightblue" points="212.67,-85.47 216.9,-75.75 207.53,-80.71 212.67,-85.47"/>
</g>
<!-- Node8 -->
<g id="node8" class="node">
<title>Node8</title>
<g id="a_node8"><a xlink:title=" ">
<polygon fill="none" stroke="#bfbfbf" points="282.5,-56.5 282.5,-75.5 323.5,-75.5 323.5,-56.5 282.5,-56.5"/>
<text text-anchor="middle" x="303" y="-63.5" font-family="Helvetica,sans-Serif" font-size="10.00">string</text>
</a>
</g>
</g>
<!-- Node4&#45;&gt;Node8 -->
<g id="edge8" class="edge">
<title>Node4&#45;&gt;Node8</title>
<path fill="none" stroke="midnightblue" d="M195.28,-112.44C216.35,-103.56 249.52,-89.56 273.49,-79.45"/>
<polygon fill="midnightblue" stroke="midnightblue" points="274.96,-82.63 282.81,-75.52 272.24,-76.18 274.96,-82.63"/>
</g>
<!-- Node9 -->
<g id="node9" class="node">
<title>Node9</title>
<g id="a_node9"><a xlink:title=" ">
<polygon fill="none" stroke="#bfbfbf" points="342,-56.5 342,-75.5 386,-75.5 386,-56.5 342,-56.5"/>
<text text-anchor="middle" x="364" y="-63.5" font-family="Helvetica,sans-Serif" font-size="10.00">vector</text>
</a>
</g>
</g>
<!-- Node4&#45;&gt;Node9 -->
<g id="edge9" class="edge">
<title>Node4&#45;&gt;Node9</title>
<path fill="none" stroke="midnightblue" d="M205.3,-112.42C235.19,-103.94 282.43,-90.52 332.32,-76.19"/>
<polygon fill="midnightblue" stroke="midnightblue" points="333.35,-79.53 341.99,-73.41 331.41,-72.81 333.35,-79.53"/>
</g>
<!-- Node5&#45;&gt;Node3 -->
<g id="edge5" class="edge">
<title>Node5&#45;&gt;Node3</title>
<path fill="none" stroke="midnightblue" d="M114.75,-56.32C104.2,-48.18 88.2,-35.84 75.56,-26.09"/>
<polygon fill="midnightblue" stroke="midnightblue" points="77.51,-23.17 67.45,-19.83 73.23,-28.71 77.51,-23.17"/>
</g>
<!-- Node7 -->
<g id="node7" class="node">
<title>Node7</title>
<g id="a_node7"><a xlink:href="Point_8hpp.html" target="_top" xlink:title=" ">
<polygon fill="none" stroke="black" points="196.5,-0.5 196.5,-19.5 253.5,-19.5 253.5,-0.5 196.5,-0.5"/>
<text text-anchor="middle" x="225" y="-7.5" font-family="Helvetica,sans-Serif" font-size="10.00">Point.hpp</text>
</a>
</g>
</g>
<!-- Node6&#45;&gt;Node7 -->
<g id="edge7" class="edge">
<title>Node6&#45;&gt;Node7</title>
<path fill="none" stroke="midnightblue" d="M225,-56.08C225,-49.01 225,-38.86 225,-29.99"/>
<polygon fill="midnightblue" stroke="midnightblue" points="228.5,-29.75 225,-19.75 221.5,-29.75 228.5,-29.75"/>
</g>
</g>
</svg>
