<?xml version="1.0" encoding="UTF-8" standalone="no"?>
<!DOCTYPE svg PUBLIC "-//W3C//DTD SVG 1.1//EN"
 "http://www.w3.org/Graphics/SVG/1.1/DTD/svg11.dtd">
<!-- Generated by graphviz version 2.44.0 ()
 -->
<!-- Title: src/Scripts/Common/GameLostBehaviour.hpp Pages: 1 -->
<svg width="829pt" height="173pt"
 viewBox="0.00 0.00 828.50 173.00" xmlns="http://www.w3.org/2000/svg" xmlns:xlink="http://www.w3.org/1999/xlink">
<g id="graph0" class="graph" transform="scale(1 1) rotate(0) translate(4 169)">
<title>src/Scripts/Common/GameLostBehaviour.hpp</title>
<!-- Node1 -->
<g id="node1" class="node">
<title>Node1</title>
<g id="a_node1"><a xlink:title=" ">
<polygon fill="#bfbfbf" stroke="black" points="601.5,-134.5 601.5,-164.5 728.5,-164.5 728.5,-134.5 601.5,-134.5"/>
<text text-anchor="start" x="609.5" y="-152.5" font-family="Helvetica,sans-Serif" font-size="10.00">src/Scripts/Common</text>
<text text-anchor="middle" x="665" y="-141.5" font-family="Helvetica,sans-Serif" font-size="10.00">/GameLostBehaviour.hpp</text>
</a>
</g>
</g>
<!-- Node2 -->
<g id="node2" class="node">
<title>Node2</title>
<g id="a_node2"><a xlink:href="LevelController_8hpp.html" target="_top" xlink:title=" ">
<polygon fill="none" stroke="black" points="418,-73 418,-92 584,-92 584,-73 418,-73"/>
<text text-anchor="middle" x="501" y="-80" font-family="Helvetica,sans-Serif" font-size="10.00">src/Controllers/LevelController.hpp</text>
</a>
</g>
</g>
<!-- Node1&#45;&gt;Node2 -->
<g id="edge1" class="edge">
<title>Node1&#45;&gt;Node2</title>
<path fill="none" stroke="midnightblue" d="M619.89,-130.62C588.15,-118.04 547.09,-101.77 522.46,-92.01"/>
<polygon fill="midnightblue" stroke="midnightblue" points="618.83,-133.97 629.41,-134.4 621.41,-127.46 618.83,-133.97"/>
</g>
<!-- Node5 -->
<g id="node5" class="node">
<title>Node5</title>
<g id="a_node5"><a xlink:href="CheatManager_8cpp.html" target="_top" xlink:title=" ">
<polygon fill="none" stroke="black" points="666,-0.5 666,-30.5 772,-30.5 772,-0.5 666,-0.5"/>
<text text-anchor="start" x="674" y="-18.5" font-family="Helvetica,sans-Serif" font-size="10.00">src/Scripts/Common</text>
<text text-anchor="middle" x="719" y="-7.5" font-family="Helvetica,sans-Serif" font-size="10.00">/CheatManager.cpp</text>
</a>
</g>
</g>
<!-- Node1&#45;&gt;Node5 -->
<g id="edge7" class="edge">
<title>Node1&#45;&gt;Node5</title>
<path fill="none" stroke="midnightblue" d="M668.6,-124.46C671.64,-107.84 676.83,-85.47 685,-67 690.82,-53.86 700.05,-40.42 707.43,-30.72"/>
<polygon fill="midnightblue" stroke="midnightblue" points="665.13,-124.02 666.91,-134.46 672.03,-125.19 665.13,-124.02"/>
</g>
<!-- Node8 -->
<g id="node8" class="node">
<title>Node8</title>
<g id="a_node8"><a xlink:href="GameLostBehaviour_8cpp.html" target="_top" xlink:title=" ">
<polygon fill="none" stroke="black" points="693.5,-67.5 693.5,-97.5 820.5,-97.5 820.5,-67.5 693.5,-67.5"/>
<text text-anchor="start" x="701.5" y="-85.5" font-family="Helvetica,sans-Serif" font-size="10.00">src/Scripts/Common</text>
<text text-anchor="middle" x="757" y="-74.5" font-family="Helvetica,sans-Serif" font-size="10.00">/GameLostBehaviour.cpp</text>
</a>
</g>
</g>
<!-- Node1&#45;&gt;Node8 -->
<g id="edge8" class="edge">
<title>Node1&#45;&gt;Node8</title>
<path fill="none" stroke="midnightblue" d="M693.38,-128.45C707.53,-118.45 724.31,-106.6 737.08,-97.58"/>
<polygon fill="midnightblue" stroke="midnightblue" points="691.11,-125.77 684.96,-134.4 695.15,-131.48 691.11,-125.77"/>
</g>
<!-- Node3 -->
<g id="node3" class="node">
<title>Node3</title>
<g id="a_node3"><a xlink:href="LevelController_8cpp.html" target="_top" xlink:title=" ">
<polygon fill="none" stroke="black" points="0,-6 0,-25 166,-25 166,-6 0,-6"/>
<text text-anchor="middle" x="83" y="-13" font-family="Helvetica,sans-Serif" font-size="10.00">src/Controllers/LevelController.cpp</text>
</a>
</g>
</g>
<!-- Node2&#45;&gt;Node3 -->
<g id="edge2" class="edge">
<title>Node2&#45;&gt;Node3</title>
<path fill="none" stroke="midnightblue" d="M435.39,-71.39C369.55,-61.23 265.24,-45.1 175,-31 162.7,-29.08 149.47,-27 137,-25.03"/>
<polygon fill="midnightblue" stroke="midnightblue" points="435.2,-74.9 445.62,-72.97 436.27,-67.98 435.2,-74.9"/>
</g>
<!-- Node4 -->
<g id="node4" class="node">
<title>Node4</title>
<g id="a_node4"><a xlink:href="LevelScene_8cpp.html" target="_top" xlink:title=" ">
<polygon fill="none" stroke="black" points="184.5,-6 184.5,-25 323.5,-25 323.5,-6 184.5,-6"/>
<text text-anchor="middle" x="254" y="-13" font-family="Helvetica,sans-Serif" font-size="10.00">src/Scenes/LevelScene.cpp</text>
</a>
</g>
</g>
<!-- Node2&#45;&gt;Node4 -->
<g id="edge3" class="edge">
<title>Node2&#45;&gt;Node4</title>
<path fill="none" stroke="midnightblue" d="M458.53,-70.32C409.76,-57.49 330.8,-36.71 286.62,-25.08"/>
<polygon fill="midnightblue" stroke="midnightblue" points="457.89,-73.78 468.46,-72.94 459.68,-67.01 457.89,-73.78"/>
</g>
<!-- Node2&#45;&gt;Node5 -->
<g id="edge4" class="edge">
<title>Node2&#45;&gt;Node5</title>
<path fill="none" stroke="midnightblue" d="M539.85,-69.92C576.81,-58.9 632.49,-42.29 671.95,-30.53"/>
<polygon fill="midnightblue" stroke="midnightblue" points="538.53,-66.66 529.95,-72.87 540.53,-73.37 538.53,-66.66"/>
</g>
<!-- Node6 -->
<g id="node6" class="node">
<title>Node6</title>
<g id="a_node6"><a xlink:href="EnemyMovementBehaviour_8cpp.html" target="_top" xlink:title=" ">
<polygon fill="none" stroke="black" points="342,-0.5 342,-30.5 498,-30.5 498,-0.5 342,-0.5"/>
<text text-anchor="start" x="350" y="-18.5" font-family="Helvetica,sans-Serif" font-size="10.00">src/Scripts/Enemies</text>
<text text-anchor="middle" x="420" y="-7.5" font-family="Helvetica,sans-Serif" font-size="10.00">/EnemyMovementBehaviour.cpp</text>
</a>
</g>
</g>
<!-- Node2&#45;&gt;Node6 -->
<g id="edge5" class="edge">
<title>Node2&#45;&gt;Node6</title>
<path fill="none" stroke="midnightblue" d="M481.98,-66.24C468.54,-55.45 450.66,-41.1 437.56,-30.59"/>
<polygon fill="midnightblue" stroke="midnightblue" points="480.09,-69.2 490.08,-72.73 484.47,-63.75 480.09,-69.2"/>
</g>
<!-- Node7 -->
<g id="node7" class="node">
<title>Node7</title>
<g id="a_node7"><a xlink:href="UserAttackBehaviour_8cpp.html" target="_top" xlink:title=" ">
<polygon fill="none" stroke="black" points="516.5,-0.5 516.5,-30.5 647.5,-30.5 647.5,-0.5 516.5,-0.5"/>
<text text-anchor="start" x="524.5" y="-18.5" font-family="Helvetica,sans-Serif" font-size="10.00">src/Scripts/Heroes</text>
<text text-anchor="middle" x="582" y="-7.5" font-family="Helvetica,sans-Serif" font-size="10.00">/UserAttackBehaviour.cpp</text>
</a>
</g>
</g>
<!-- Node2&#45;&gt;Node7 -->
<g id="edge6" class="edge">
<title>Node2&#45;&gt;Node7</title>
<path fill="none" stroke="midnightblue" d="M520.02,-66.24C533.46,-55.45 551.34,-41.1 564.44,-30.59"/>
<polygon fill="midnightblue" stroke="midnightblue" points="517.53,-63.75 511.92,-72.73 521.91,-69.2 517.53,-63.75"/>
</g>
</g>
</svg>
