<?xml version="1.0" encoding="UTF-8" standalone="no"?>
<!DOCTYPE svg PUBLIC "-//W3C//DTD SVG 1.1//EN"
 "http://www.w3.org/Graphics/SVG/1.1/DTD/svg11.dtd">
<!-- Generated by graphviz version 2.44.0 ()
 -->
<!-- Title: src/Utils/GameObjectUtil.hpp Pages: 1 -->
<!--zoomable 106 -->
<svg id="main" version="1.1" xmlns="http://www.w3.org/2000/svg" xmlns:xlink="http://www.w3.org/1999/xlink" xml:space="preserve" onload="init(evt)">
<style type="text/css"><![CDATA[
.edge:hover path { stroke: red; }
.edge:hover polygon { stroke: red; fill: red; }
]]></style>
<script type="text/javascript"><![CDATA[
var edges = document.getElementsByTagName('g');
if (edges && edges.length) {
  for (var i=0;i<edges.length;i++) {
    if (edges[i].id.substr(0,4)=='edge') {
      edges[i].setAttribute('class','edge');
    }
  }
}
]]></script>
        <defs>
                <circle id="rim" cx="0" cy="0" r="7"/>
                <circle id="rim2" cx="0" cy="0" r="3.5"/>
                <g id="zoomPlus">
                        <use xlink:href="#rim" fill="#404040">
                                <set attributeName="fill" to="#808080" begin="zoomplus.mouseover" end="zoomplus.mouseout"/>
                        </use>
                        <path d="M-4,0h8M0,-4v8" fill="none" stroke="white" stroke-width="1.5" pointer-events="none"/>
                </g>
                <g id="zoomMin">
                        <use xlink:href="#rim" fill="#404040">
                                <set attributeName="fill" to="#808080" begin="zoomminus.mouseover" end="zoomminus.mouseout"/>
                        </use>
                        <path d="M-4,0h8" fill="none" stroke="white" stroke-width="1.5" pointer-events="none"/>
                </g>
                <g id="dirArrow">
                        <path fill="none" stroke="white" stroke-width="1.5" d="M0,-3.0v7 M-2.5,-0.5L0,-3.0L2.5,-0.5"/>
                </g>
               <g id="resetDef">
                       <use xlink:href="#rim2" fill="#404040">
                               <set attributeName="fill" to="#808080" begin="reset.mouseover" end="reset.mouseout"/>
                       </use>
               </g>
        </defs>

<script type="text/javascript">
var viewWidth = 4453;
var viewHeight = 106;
var sectionId = 'dynsection-1';
</script>
<script xlink:href="svgpan.js"/>
<svg id="graph" class="graph">
<g id="viewport">
<title>src/Utils/GameObjectUtil.hpp</title>
<!-- Node1 -->
<g id="node1" class="node">
<title>Node1</title>
<g id="a_node1"><a xlink:title=" ">
<polygon fill="#bfbfbf" stroke="black" points="2138,-78.5 2138,-97.5 2282,-97.5 2282,-78.5 2138,-78.5"/>
<text text-anchor="middle" x="2210" y="-85.5" font-family="Helvetica,sans-Serif" font-size="10.00">src/Utils/GameObjectUtil.hpp</text>
</a>
</g>
</g>
<!-- Node2 -->
<g id="node2" class="node">
<title>Node2</title>
<g id="a_node2"><a xlink:href="HUDController_8cpp.html" target="_top" xlink:title=" ">
<polygon fill="none" stroke="black" points="0,-11.5 0,-30.5 164,-30.5 164,-11.5 0,-11.5"/>
<text text-anchor="middle" x="82" y="-18.5" font-family="Helvetica,sans-Serif" font-size="10.00">src/Controllers/HUDController.cpp</text>
</a>
</g>
</g>
<!-- Node1&#45;&gt;Node2 -->
<g id="edge1" class="edge">
<title>Node1&#45;&gt;Node2</title>
<path fill="none" stroke="midnightblue" d="M2127.28,-87.32C1795.55,-88.25 560.84,-88.46 173,-42 153.08,-39.61 131.11,-34.85 113.75,-30.57"/>
<polygon fill="midnightblue" stroke="midnightblue" points="2127.78,-90.81 2137.77,-87.28 2127.76,-83.81 2127.78,-90.81"/>
</g>
<!-- Node3 -->
<g id="node3" class="node">
<title>Node3</title>
<g id="a_node3"><a xlink:href="LevelController_8cpp.html" target="_top" xlink:title=" ">
<polygon fill="none" stroke="black" points="182,-11.5 182,-30.5 348,-30.5 348,-11.5 182,-11.5"/>
<text text-anchor="middle" x="265" y="-18.5" font-family="Helvetica,sans-Serif" font-size="10.00">src/Controllers/LevelController.cpp</text>
</a>
</g>
</g>
<!-- Node1&#45;&gt;Node3 -->
<g id="edge2" class="edge">
<title>Node1&#45;&gt;Node3</title>
<path fill="none" stroke="midnightblue" d="M2127.57,-87.08C1815.58,-87.05 707.09,-83.92 357,-42 336.88,-39.59 314.66,-34.82 297.1,-30.55"/>
<polygon fill="midnightblue" stroke="midnightblue" points="2127.89,-90.58 2137.89,-87.08 2127.89,-83.58 2127.89,-90.58"/>
</g>
<!-- Node4 -->
<g id="node4" class="node">
<title>Node4</title>
<g id="a_node4"><a xlink:href="AudioSourcePrefabFactory_8cpp.html" target="_top" xlink:title=" ">
<polygon fill="none" stroke="black" points="366,-6 366,-36 498,-36 498,-6 366,-6"/>
<text text-anchor="start" x="374" y="-24" font-family="Helvetica,sans-Serif" font-size="10.00">src/Factories/AudioSource</text>
<text text-anchor="middle" x="432" y="-13" font-family="Helvetica,sans-Serif" font-size="10.00">PrefabFactory.cpp</text>
</a>
</g>
</g>
<!-- Node1&#45;&gt;Node4 -->
<g id="edge3" class="edge">
<title>Node1&#45;&gt;Node4</title>
<path fill="none" stroke="midnightblue" d="M2127.31,-87.38C1831.31,-88.32 825.22,-87.98 507,-42 497.53,-40.63 487.54,-38.48 478.06,-36.09"/>
<polygon fill="midnightblue" stroke="midnightblue" points="2127.55,-90.87 2137.54,-87.34 2127.53,-83.87 2127.55,-90.87"/>
</g>
<!-- Node5 -->
<g id="node5" class="node">
<title>Node5</title>
<g id="a_node5"><a xlink:href="BackgroundPrefabFactory_8cpp.html" target="_top" xlink:title=" ">
<polygon fill="none" stroke="black" points="516,-6 516,-36 644,-36 644,-6 516,-6"/>
<text text-anchor="start" x="524" y="-24" font-family="Helvetica,sans-Serif" font-size="10.00">src/Factories/Background</text>
<text text-anchor="middle" x="580" y="-13" font-family="Helvetica,sans-Serif" font-size="10.00">PrefabFactory.cpp</text>
</a>
</g>
</g>
<!-- Node1&#45;&gt;Node5 -->
<g id="edge4" class="edge">
<title>Node1&#45;&gt;Node5</title>
<path fill="none" stroke="midnightblue" d="M2127.87,-87.21C1849.27,-87.5 941.47,-85.05 653,-42 643.77,-40.62 634.05,-38.47 624.81,-36.08"/>
<polygon fill="midnightblue" stroke="midnightblue" points="2127.92,-90.71 2137.91,-87.19 2127.91,-83.71 2127.92,-90.71"/>
</g>
<!-- Node6 -->
<g id="node6" class="node">
<title>Node6</title>
<g id="a_node6"><a xlink:href="BulletFactory_8cpp.html" target="_top" xlink:title=" ">
<polygon fill="none" stroke="black" points="662,-11.5 662,-30.5 814,-30.5 814,-11.5 662,-11.5"/>
<text text-anchor="middle" x="738" y="-18.5" font-family="Helvetica,sans-Serif" font-size="10.00">src/Factories/BulletFactory.cpp</text>
</a>
</g>
</g>
<!-- Node1&#45;&gt;Node6 -->
<g id="edge5" class="edge">
<title>Node1&#45;&gt;Node6</title>
<path fill="none" stroke="midnightblue" d="M2127.83,-86.48C1869.77,-84.49 1077.54,-75.73 823,-42 804.51,-39.55 784.17,-34.84 768.02,-30.6"/>
<polygon fill="midnightblue" stroke="midnightblue" points="2127.86,-89.98 2137.89,-86.55 2127.91,-82.98 2127.86,-89.98"/>
</g>
<!-- Node7 -->
<g id="node7" class="node">
<title>Node7</title>
<g id="a_node7"><a xlink:href="ButtonPrefabFactory_8cpp.html" target="_top" xlink:title=" ">
<polygon fill="none" stroke="black" points="832,-6 832,-36 966,-36 966,-6 832,-6"/>
<text text-anchor="start" x="840" y="-24" font-family="Helvetica,sans-Serif" font-size="10.00">src/Factories/ButtonPrefab</text>
<text text-anchor="middle" x="899" y="-13" font-family="Helvetica,sans-Serif" font-size="10.00">Factory.cpp</text>
</a>
</g>
</g>
<!-- Node1&#45;&gt;Node7 -->
<g id="edge6" class="edge">
<title>Node1&#45;&gt;Node7</title>
<path fill="none" stroke="midnightblue" d="M2127.92,-86.37C1889.26,-84.17 1198.36,-75.04 975,-42 965.42,-40.58 955.3,-38.41 945.69,-36.02"/>
<polygon fill="midnightblue" stroke="midnightblue" points="2127.89,-89.87 2137.92,-86.46 2127.95,-82.87 2127.89,-89.87"/>
</g>
<!-- Node8 -->
<g id="node8" class="node">
<title>Node8</title>
<g id="a_node8"><a xlink:href="EnemyPrefabFactory_8cpp.html" target="_top" xlink:title=" ">
<polygon fill="none" stroke="black" points="984,-6 984,-36 1118,-36 1118,-6 984,-6"/>
<text text-anchor="start" x="992" y="-24" font-family="Helvetica,sans-Serif" font-size="10.00">src/Factories/EnemyPrefab</text>
<text text-anchor="middle" x="1051" y="-13" font-family="Helvetica,sans-Serif" font-size="10.00">Factory.cpp</text>
</a>
</g>
</g>
<!-- Node1&#45;&gt;Node8 -->
<g id="edge7" class="edge">
<title>Node1&#45;&gt;Node8</title>
<path fill="none" stroke="midnightblue" d="M2127.6,-85.88C1909.32,-82.53 1319.68,-71.01 1127,-42 1117.56,-40.58 1107.59,-38.44 1098.1,-36.08"/>
<polygon fill="midnightblue" stroke="midnightblue" points="2127.66,-89.38 2137.71,-86.03 2127.77,-82.38 2127.66,-89.38"/>
</g>
<!-- Node9 -->
<g id="node9" class="node">
<title>Node9</title>
<g id="a_node9"><a xlink:href="HealthBarFactory_8cpp.html" target="_top" xlink:title=" ">
<polygon fill="none" stroke="black" points="1136,-11.5 1136,-30.5 1306,-30.5 1306,-11.5 1136,-11.5"/>
<text text-anchor="middle" x="1221" y="-18.5" font-family="Helvetica,sans-Serif" font-size="10.00">src/Factories/HealthBarFactory.cpp</text>
</a>
</g>
</g>
<!-- Node1&#45;&gt;Node9 -->
<g id="edge8" class="edge">
<title>Node1&#45;&gt;Node9</title>
<path fill="none" stroke="midnightblue" d="M2127.59,-87.23C1969.38,-86.71 1612.38,-80.86 1315,-42 1294.82,-39.36 1272.52,-34.7 1254.71,-30.53"/>
<polygon fill="midnightblue" stroke="midnightblue" points="2127.71,-90.73 2137.72,-87.26 2127.73,-83.73 2127.71,-90.73"/>
</g>
<!-- Node10 -->
<g id="node10" class="node">
<title>Node10</title>
<g id="a_node10"><a xlink:href="HeroPrefabFactory_8cpp.html" target="_top" xlink:title=" ">
<polygon fill="none" stroke="black" points="1324,-6 1324,-36 1450,-36 1450,-6 1324,-6"/>
<text text-anchor="start" x="1332" y="-24" font-family="Helvetica,sans-Serif" font-size="10.00">src/Factories/HeroPrefab</text>
<text text-anchor="middle" x="1387" y="-13" font-family="Helvetica,sans-Serif" font-size="10.00">Factory.cpp</text>
</a>
</g>
</g>
<!-- Node1&#45;&gt;Node10 -->
<g id="edge9" class="edge">
<title>Node1&#45;&gt;Node10</title>
<path fill="none" stroke="midnightblue" d="M2127.85,-87.72C1989.05,-87.68 1699.69,-82.18 1459,-42 1450.17,-40.53 1440.87,-38.39 1431.99,-36.07"/>
<polygon fill="midnightblue" stroke="midnightblue" points="2127.99,-91.22 2137.99,-87.71 2127.98,-84.22 2127.99,-91.22"/>
</g>
<!-- Node11 -->
<g id="node11" class="node">
<title>Node11</title>
<g id="a_node11"><a xlink:href="TowerPrefabFactory_8cpp.html" target="_top" xlink:title=" ">
<polygon fill="none" stroke="black" points="1468,-6 1468,-36 1600,-36 1600,-6 1468,-6"/>
<text text-anchor="start" x="1476" y="-24" font-family="Helvetica,sans-Serif" font-size="10.00">src/Factories/TowerPrefab</text>
<text text-anchor="middle" x="1534" y="-13" font-family="Helvetica,sans-Serif" font-size="10.00">Factory.cpp</text>
</a>
</g>
</g>
<!-- Node1&#45;&gt;Node11 -->
<g id="edge10" class="edge">
<title>Node1&#45;&gt;Node11</title>
<path fill="none" stroke="midnightblue" d="M2127.53,-85.66C2011.17,-82.68 1792.51,-73.06 1609,-42 1599.96,-40.47 1590.44,-38.34 1581.32,-36.04"/>
<polygon fill="midnightblue" stroke="midnightblue" points="2127.7,-89.17 2137.78,-85.92 2127.87,-82.17 2127.7,-89.17"/>
</g>
<!-- Node12 -->
<g id="node12" class="node">
<title>Node12</title>
<g id="a_node12"><a xlink:href="LevelScene_8cpp.html" target="_top" xlink:title=" ">
<polygon fill="none" stroke="black" points="1618.5,-11.5 1618.5,-30.5 1757.5,-30.5 1757.5,-11.5 1618.5,-11.5"/>
<text text-anchor="middle" x="1688" y="-18.5" font-family="Helvetica,sans-Serif" font-size="10.00">src/Scenes/LevelScene.cpp</text>
</a>
</g>
</g>
<!-- Node1&#45;&gt;Node12 -->
<g id="edge11" class="edge">
<title>Node1&#45;&gt;Node12</title>
<path fill="none" stroke="midnightblue" d="M2127.75,-82.27C2038.42,-76.29 1891.8,-64.01 1767,-42 1750.42,-39.08 1732.18,-34.55 1717.41,-30.54"/>
<polygon fill="midnightblue" stroke="midnightblue" points="2127.6,-85.77 2137.81,-82.93 2128.06,-78.78 2127.6,-85.77"/>
</g>
<!-- Node13 -->
<g id="node13" class="node">
<title>Node13</title>
<g id="a_node13"><a xlink:href="LevelSelectionScene_8cpp.html" target="_top" xlink:title=" ">
<polygon fill="none" stroke="black" points="1776,-6 1776,-36 1910,-36 1910,-6 1776,-6"/>
<text text-anchor="start" x="1784" y="-24" font-family="Helvetica,sans-Serif" font-size="10.00">src/Scenes/LevelSelection</text>
<text text-anchor="middle" x="1843" y="-13" font-family="Helvetica,sans-Serif" font-size="10.00">Scene.cpp</text>
</a>
</g>
</g>
<!-- Node1&#45;&gt;Node13 -->
<g id="edge12" class="edge">
<title>Node1&#45;&gt;Node13</title>
<path fill="none" stroke="midnightblue" d="M2131.76,-77.15C2072.96,-69.2 1990.56,-56.91 1919,-42 1910.72,-40.27 1901.99,-38.21 1893.52,-36.08"/>
<polygon fill="midnightblue" stroke="midnightblue" points="2131.35,-80.62 2141.73,-78.48 2132.28,-73.69 2131.35,-80.62"/>
</g>
<!-- Node14 -->
<g id="node14" class="node">
<title>Node14</title>
<g id="a_node14"><a xlink:href="VictoryScene_8cpp.html" target="_top" xlink:title=" ">
<polygon fill="none" stroke="black" points="1928.5,-11.5 1928.5,-30.5 2073.5,-30.5 2073.5,-11.5 1928.5,-11.5"/>
<text text-anchor="middle" x="2001" y="-18.5" font-family="Helvetica,sans-Serif" font-size="10.00">src/Scenes/VictoryScene.cpp</text>
</a>
</g>
</g>
<!-- Node1&#45;&gt;Node14 -->
<g id="edge13" class="edge">
<title>Node1&#45;&gt;Node14</title>
<path fill="none" stroke="midnightblue" d="M2172.53,-75.35C2131.13,-62.47 2065.45,-42.05 2028.54,-30.56"/>
<polygon fill="midnightblue" stroke="midnightblue" points="2171.66,-78.74 2182.25,-78.37 2173.74,-72.06 2171.66,-78.74"/>
</g>
<!-- Node15 -->
<g id="node15" class="node">
<title>Node15</title>
<g id="a_node15"><a xlink:href="AttackBehaviour_8cpp.html" target="_top" xlink:title=" ">
<polygon fill="none" stroke="black" points="2092,-6 2092,-36 2202,-36 2202,-6 2092,-6"/>
<text text-anchor="start" x="2100" y="-24" font-family="Helvetica,sans-Serif" font-size="10.00">src/Scripts/Common</text>
<text text-anchor="middle" x="2147" y="-13" font-family="Helvetica,sans-Serif" font-size="10.00">/AttackBehaviour.cpp</text>
</a>
</g>
</g>
<!-- Node1&#45;&gt;Node15 -->
<g id="edge14" class="edge">
<title>Node1&#45;&gt;Node15</title>
<path fill="none" stroke="midnightblue" d="M2194.3,-70.8C2183.96,-60.13 2170.55,-46.3 2160.66,-36.09"/>
<polygon fill="midnightblue" stroke="midnightblue" points="2192.03,-73.49 2201.5,-78.23 2197.06,-68.62 2192.03,-73.49"/>
</g>
<!-- Node16 -->
<g id="node16" class="node">
<title>Node16</title>
<g id="a_node16"><a xlink:href="BulletBehaviour_8cpp.html" target="_top" xlink:title=" ">
<polygon fill="none" stroke="black" points="2220,-6 2220,-36 2326,-36 2326,-6 2220,-6"/>
<text text-anchor="start" x="2228" y="-24" font-family="Helvetica,sans-Serif" font-size="10.00">src/Scripts/Common</text>
<text text-anchor="middle" x="2273" y="-13" font-family="Helvetica,sans-Serif" font-size="10.00">/BulletBehaviour.cpp</text>
</a>
</g>
</g>
<!-- Node1&#45;&gt;Node16 -->
<g id="edge15" class="edge">
<title>Node1&#45;&gt;Node16</title>
<path fill="none" stroke="midnightblue" d="M2225.7,-70.8C2236.04,-60.13 2249.45,-46.3 2259.34,-36.09"/>
<polygon fill="midnightblue" stroke="midnightblue" points="2222.94,-68.62 2218.5,-78.23 2227.97,-73.49 2222.94,-68.62"/>
</g>
<!-- Node17 -->
<g id="node17" class="node">
<title>Node17</title>
<g id="a_node17"><a xlink:href="GameLostBehaviour_8cpp.html" target="_top" xlink:title=" ">
<polygon fill="none" stroke="black" points="2344.5,-6 2344.5,-36 2471.5,-36 2471.5,-6 2344.5,-6"/>
<text text-anchor="start" x="2352.5" y="-24" font-family="Helvetica,sans-Serif" font-size="10.00">src/Scripts/Common</text>
<text text-anchor="middle" x="2408" y="-13" font-family="Helvetica,sans-Serif" font-size="10.00">/GameLostBehaviour.cpp</text>
</a>
</g>
</g>
<!-- Node1&#45;&gt;Node17 -->
<g id="edge16" class="edge">
<title>Node1&#45;&gt;Node17</title>
<path fill="none" stroke="midnightblue" d="M2246.15,-75.13C2279.72,-64.11 2329.73,-47.69 2365.27,-36.03"/>
<polygon fill="midnightblue" stroke="midnightblue" points="2244.7,-71.92 2236.29,-78.37 2246.89,-78.57 2244.7,-71.92"/>
</g>
<!-- Node18 -->
<g id="node18" class="node">
<title>Node18</title>
<g id="a_node18"><a xlink:href="EnemyInvisibleBehaviour_8cpp.html" target="_top" xlink:title=" ">
<polygon fill="none" stroke="black" points="2490,-6 2490,-36 2636,-36 2636,-6 2490,-6"/>
<text text-anchor="start" x="2498" y="-24" font-family="Helvetica,sans-Serif" font-size="10.00">src/Scripts/Enemies</text>
<text text-anchor="middle" x="2563" y="-13" font-family="Helvetica,sans-Serif" font-size="10.00">/EnemyInvisibleBehaviour.cpp</text>
</a>
</g>
</g>
<!-- Node1&#45;&gt;Node18 -->
<g id="edge17" class="edge">
<title>Node1&#45;&gt;Node18</title>
<path fill="none" stroke="midnightblue" d="M2279.15,-76.97C2334.07,-68.66 2412.71,-55.98 2481,-42 2489.76,-40.21 2499,-38.13 2507.99,-36.01"/>
<polygon fill="midnightblue" stroke="midnightblue" points="2278.55,-73.53 2269.18,-78.48 2279.59,-80.45 2278.55,-73.53"/>
</g>
<!-- Node19 -->
<g id="node19" class="node">
<title>Node19</title>
<g id="a_node19"><a xlink:href="EnemyMedicBehaviour_8cpp.html" target="_top" xlink:title=" ">
<polygon fill="none" stroke="black" points="2654.5,-6 2654.5,-36 2791.5,-36 2791.5,-6 2654.5,-6"/>
<text text-anchor="start" x="2662.5" y="-24" font-family="Helvetica,sans-Serif" font-size="10.00">src/Scripts/Enemies</text>
<text text-anchor="middle" x="2723" y="-13" font-family="Helvetica,sans-Serif" font-size="10.00">/EnemyMedicBehaviour.cpp</text>
</a>
</g>
</g>
<!-- Node1&#45;&gt;Node19 -->
<g id="edge18" class="edge">
<title>Node1&#45;&gt;Node19</title>
<path fill="none" stroke="midnightblue" d="M2292.21,-82.13C2380.06,-76.09 2523.15,-63.8 2645,-42 2654.08,-40.38 2663.67,-38.26 2672.89,-36.01"/>
<polygon fill="midnightblue" stroke="midnightblue" points="2291.78,-78.65 2282.04,-82.82 2292.25,-85.64 2291.78,-78.65"/>
</g>
<!-- Node20 -->
<g id="node20" class="node">
<title>Node20</title>
<g id="a_node20"><a xlink:href="EnemyMovementBehaviour_8cpp.html" target="_top" xlink:title=" ">
<polygon fill="none" stroke="black" points="2810,-6 2810,-36 2966,-36 2966,-6 2810,-6"/>
<text text-anchor="start" x="2818" y="-24" font-family="Helvetica,sans-Serif" font-size="10.00">src/Scripts/Enemies</text>
<text text-anchor="middle" x="2888" y="-13" font-family="Helvetica,sans-Serif" font-size="10.00">/EnemyMovementBehaviour.cpp</text>
</a>
</g>
</g>
<!-- Node1&#45;&gt;Node20 -->
<g id="edge19" class="edge">
<title>Node1&#45;&gt;Node20</title>
<path fill="none" stroke="midnightblue" d="M2292.37,-84.63C2406.97,-80.44 2620.78,-69.42 2801,-42 2811.27,-40.44 2822.12,-38.32 2832.54,-36.05"/>
<polygon fill="midnightblue" stroke="midnightblue" points="2292.13,-81.13 2282.26,-84.99 2292.38,-88.13 2292.13,-81.13"/>
</g>
<!-- Node21 -->
<g id="node21" class="node">
<title>Node21</title>
<g id="a_node21"><a xlink:href="EnemySpeedBoostBehaviour_8cpp.html" target="_top" xlink:title=" ">
<polygon fill="none" stroke="black" points="2984,-6 2984,-36 3148,-36 3148,-6 2984,-6"/>
<text text-anchor="start" x="2992" y="-24" font-family="Helvetica,sans-Serif" font-size="10.00">src/Scripts/Enemies</text>
<text text-anchor="middle" x="3066" y="-13" font-family="Helvetica,sans-Serif" font-size="10.00">/EnemySpeedBoostBehaviour.cpp</text>
</a>
</g>
</g>
<!-- Node1&#45;&gt;Node21 -->
<g id="edge20" class="edge">
<title>Node1&#45;&gt;Node21</title>
<path fill="none" stroke="midnightblue" d="M2292.35,-86.4C2432.98,-84.43 2728.15,-76.17 2975,-42 2985.9,-40.49 2997.42,-38.37 3008.48,-36.08"/>
<polygon fill="midnightblue" stroke="midnightblue" points="2292.04,-82.9 2282.09,-86.54 2292.13,-89.9 2292.04,-82.9"/>
</g>
<!-- Node22 -->
<g id="node22" class="node">
<title>Node22</title>
<g id="a_node22"><a xlink:href="AirstrikeAbilityBehaviour_8cpp.html" target="_top" xlink:title=" ">
<polygon fill="none" stroke="black" points="3166.5,-6 3166.5,-36 3309.5,-36 3309.5,-6 3166.5,-6"/>
<text text-anchor="start" x="3174.5" y="-24" font-family="Helvetica,sans-Serif" font-size="10.00">src/Scripts/Heroes</text>
<text text-anchor="middle" x="3238" y="-13" font-family="Helvetica,sans-Serif" font-size="10.00">/AirstrikeAbilityBehaviour.cpp</text>
</a>
</g>
</g>
<!-- Node1&#45;&gt;Node22 -->
<g id="edge21" class="edge">
<title>Node1&#45;&gt;Node22</title>
<path fill="none" stroke="midnightblue" d="M2292.35,-85.14C2490.8,-80.34 2991.31,-66.16 3157,-42 3167.03,-40.54 3177.64,-38.38 3187.75,-36.02"/>
<polygon fill="midnightblue" stroke="midnightblue" points="2292.19,-81.65 2282.27,-85.39 2292.36,-88.65 2292.19,-81.65"/>
</g>
<!-- Node23 -->
<g id="node23" class="node">
<title>Node23</title>
<g id="a_node23"><a xlink:href="EnemySuicideAbilityBehaviour_8cpp.html" target="_top" xlink:title=" ">
<polygon fill="none" stroke="black" points="3327.5,-6 3327.5,-36 3496.5,-36 3496.5,-6 3327.5,-6"/>
<text text-anchor="start" x="3335.5" y="-24" font-family="Helvetica,sans-Serif" font-size="10.00">src/Scripts/Heroes</text>
<text text-anchor="middle" x="3412" y="-13" font-family="Helvetica,sans-Serif" font-size="10.00">/EnemySuicideAbilityBehaviour.cpp</text>
</a>
</g>
</g>
<!-- Node1&#45;&gt;Node23 -->
<g id="edge22" class="edge">
<title>Node1&#45;&gt;Node23</title>
<path fill="none" stroke="midnightblue" d="M2292.32,-85.49C2514.07,-81.13 3120.48,-67.19 3319,-42 3330.47,-40.55 3342.62,-38.39 3354.22,-36.03"/>
<polygon fill="midnightblue" stroke="midnightblue" points="2291.99,-81.99 2282.06,-85.69 2292.13,-88.99 2291.99,-81.99"/>
</g>
<!-- Node24 -->
<g id="node24" class="node">
<title>Node24</title>
<g id="a_node24"><a xlink:href="HealAbilityBehaviour_8cpp.html" target="_top" xlink:title=" ">
<polygon fill="none" stroke="black" points="3515,-6 3515,-36 3643,-36 3643,-6 3515,-6"/>
<text text-anchor="start" x="3523" y="-24" font-family="Helvetica,sans-Serif" font-size="10.00">src/Scripts/Heroes</text>
<text text-anchor="middle" x="3579" y="-13" font-family="Helvetica,sans-Serif" font-size="10.00">/HealAbilityBehaviour.cpp</text>
</a>
</g>
</g>
<!-- Node1&#45;&gt;Node24 -->
<g id="edge23" class="edge">
<title>Node1&#45;&gt;Node24</title>
<path fill="none" stroke="midnightblue" d="M2292.66,-86.64C2539.83,-85.17 3270.67,-77.82 3506,-42 3515.22,-40.6 3524.95,-38.43 3534.18,-36.04"/>
<polygon fill="midnightblue" stroke="midnightblue" points="2292.29,-83.14 2282.31,-86.7 2292.33,-90.14 2292.29,-83.14"/>
</g>
<!-- Node25 -->
<g id="node25" class="node">
<title>Node25</title>
<g id="a_node25"><a xlink:href="IncreaseTowerFireRateAbilityBehaviour_8cpp.html" target="_top" xlink:title=" ">
<polygon fill="none" stroke="black" points="3661.5,-0.5 3661.5,-41.5 3808.5,-41.5 3808.5,-0.5 3661.5,-0.5"/>
<text text-anchor="start" x="3669.5" y="-29.5" font-family="Helvetica,sans-Serif" font-size="10.00">src/Scripts/Heroes</text>
<text text-anchor="start" x="3669.5" y="-18.5" font-family="Helvetica,sans-Serif" font-size="10.00">/IncreaseTowerFireRateAbility</text>
<text text-anchor="middle" x="3735" y="-7.5" font-family="Helvetica,sans-Serif" font-size="10.00">Behaviour.cpp</text>
</a>
</g>
</g>
<!-- Node1&#45;&gt;Node25 -->
<g id="edge24" class="edge">
<title>Node1&#45;&gt;Node25</title>
<path fill="none" stroke="midnightblue" d="M2292.66,-86.65C2558.02,-85.17 3386.53,-77.74 3652,-42 3655.08,-41.58 3658.22,-41.1 3661.38,-40.57"/>
<polygon fill="midnightblue" stroke="midnightblue" points="2292.31,-83.15 2282.33,-86.71 2292.34,-90.15 2292.31,-83.15"/>
</g>
<!-- Node26 -->
<g id="node26" class="node">
<title>Node26</title>
<g id="a_node26"><a xlink:href="IncreaseTowerRangeAbilityBehaviour_8cpp.html" target="_top" xlink:title=" ">
<polygon fill="none" stroke="black" points="3827,-0.5 3827,-41.5 3965,-41.5 3965,-0.5 3827,-0.5"/>
<text text-anchor="start" x="3835" y="-29.5" font-family="Helvetica,sans-Serif" font-size="10.00">src/Scripts/Heroes</text>
<text text-anchor="start" x="3835" y="-18.5" font-family="Helvetica,sans-Serif" font-size="10.00">/IncreaseTowerRangeAbility</text>
<text text-anchor="middle" x="3896" y="-7.5" font-family="Helvetica,sans-Serif" font-size="10.00">Behaviour.cpp</text>
</a>
</g>
</g>
<!-- Node1&#45;&gt;Node26 -->
<g id="edge25" class="edge">
<title>Node1&#45;&gt;Node26</title>
<path fill="none" stroke="midnightblue" d="M2292.33,-87.12C2577.06,-87.15 3518.86,-84 3818,-42 3820.91,-41.59 3823.86,-41.12 3826.84,-40.59"/>
<polygon fill="midnightblue" stroke="midnightblue" points="2292.08,-83.62 2282.08,-87.12 2292.08,-90.62 2292.08,-83.62"/>
</g>
<!-- Node27 -->
<g id="node27" class="node">
<title>Node27</title>
<g id="a_node27"><a xlink:href="InvisibilityAbilityBehaviour_8cpp.html" target="_top" xlink:title=" ">
<polygon fill="none" stroke="black" points="3983,-6 3983,-36 4133,-36 4133,-6 3983,-6"/>
<text text-anchor="start" x="3991" y="-24" font-family="Helvetica,sans-Serif" font-size="10.00">src/Scripts/Heroes</text>
<text text-anchor="middle" x="4058" y="-13" font-family="Helvetica,sans-Serif" font-size="10.00">/InvisibilityAbilityBehaviour.cpp</text>
</a>
</g>
</g>
<!-- Node1&#45;&gt;Node27 -->
<g id="edge26" class="edge">
<title>Node1&#45;&gt;Node27</title>
<path fill="none" stroke="midnightblue" d="M2292.5,-87.17C2594.95,-87.45 3642.63,-85.2 3974,-42 3984.55,-40.62 3995.72,-38.47 4006.34,-36.08"/>
<polygon fill="midnightblue" stroke="midnightblue" points="2292.06,-83.67 2282.05,-87.16 2292.05,-90.67 2292.06,-83.67"/>
</g>
<!-- Node28 -->
<g id="node28" class="node">
<title>Node28</title>
<g id="a_node28"><a xlink:href="UserAttackBehaviour_8cpp.html" target="_top" xlink:title=" ">
<polygon fill="none" stroke="black" points="4151.5,-6 4151.5,-36 4282.5,-36 4282.5,-6 4151.5,-6"/>
<text text-anchor="start" x="4159.5" y="-24" font-family="Helvetica,sans-Serif" font-size="10.00">src/Scripts/Heroes</text>
<text text-anchor="middle" x="4217" y="-13" font-family="Helvetica,sans-Serif" font-size="10.00">/UserAttackBehaviour.cpp</text>
</a>
</g>
</g>
<!-- Node1&#45;&gt;Node28 -->
<g id="edge27" class="edge">
<title>Node1&#45;&gt;Node28</title>
<path fill="none" stroke="midnightblue" d="M2292.25,-86.24C2637.14,-82.87 3957.46,-68.37 4142,-42 4151.61,-40.63 4161.74,-38.44 4171.35,-36.02"/>
<polygon fill="midnightblue" stroke="midnightblue" points="2292.05,-82.74 2282.09,-86.33 2292.12,-89.74 2292.05,-82.74"/>
</g>
<!-- Node29 -->
<g id="node29" class="node">
<title>Node29</title>
<g id="a_node29"><a xlink:href="GameObjectUtil_8cpp.html" target="_top" xlink:title=" ">
<polygon fill="none" stroke="black" points="4301,-11.5 4301,-30.5 4445,-30.5 4445,-11.5 4301,-11.5"/>
<text text-anchor="middle" x="4373" y="-18.5" font-family="Helvetica,sans-Serif" font-size="10.00">src/Utils/GameObjectUtil.cpp</text>
</a>
</g>
</g>
<!-- Node1&#45;&gt;Node29 -->
<g id="edge28" class="edge">
<title>Node1&#45;&gt;Node29</title>
<path fill="none" stroke="midnightblue" d="M2292.28,-86.29C2653.73,-83.05 4091.71,-68.56 4292,-42 4309.81,-39.64 4329.37,-34.87 4344.8,-30.59"/>
<polygon fill="midnightblue" stroke="midnightblue" points="2292.12,-82.8 2282.15,-86.38 2292.18,-89.79 2292.12,-82.8"/>
</g>
</g>
</svg>
        <g id="navigator" transform="translate(0 0)" fill="#404254">
                <rect fill="#f2f5e9" fill-opacity="0.5" stroke="#606060" stroke-width=".5" x="0" y="0" width="60" height="60"/>
                <use id="zoomplus" xlink:href="#zoomPlus" x="17" y="9" onmousedown="handleZoom(evt,'in')"/>
                <use id="zoomminus" xlink:href="#zoomMin" x="42" y="9" onmousedown="handleZoom(evt,'out')"/>
                <use id="reset" xlink:href="#resetDef" x="30" y="36" onmousedown="handleReset()"/>
                <g id="arrowUp" xlink:href="#dirArrow" transform="translate(30 24)" onmousedown="handlePan(0,-1)">
                  <use xlink:href="#rim" fill="#404040">
                        <set attributeName="fill" to="#808080" begin="arrowUp.mouseover" end="arrowUp.mouseout"/>
                  </use>
                  <path fill="none" stroke="white" stroke-width="1.5" d="M0,-3.0v7 M-2.5,-0.5L0,-3.0L2.5,-0.5"/>
                </g>
                <g id="arrowRight" xlink:href="#dirArrow" transform="rotate(90) translate(36 -43)" onmousedown="handlePan(1,0)">
                  <use xlink:href="#rim" fill="#404040">
                        <set attributeName="fill" to="#808080" begin="arrowRight.mouseover" end="arrowRight.mouseout"/>
                  </use>
                  <path fill="none" stroke="white" stroke-width="1.5" d="M0,-3.0v7 M-2.5,-0.5L0,-3.0L2.5,-0.5"/>
                </g>
                <g id="arrowDown" xlink:href="#dirArrow" transform="rotate(180) translate(-30 -48)" onmousedown="handlePan(0,1)">
                  <use xlink:href="#rim" fill="#404040">
                        <set attributeName="fill" to="#808080" begin="arrowDown.mouseover" end="arrowDown.mouseout"/>
                  </use>
                  <path fill="none" stroke="white" stroke-width="1.5" d="M0,-3.0v7 M-2.5,-0.5L0,-3.0L2.5,-0.5"/>
                </g>
                <g id="arrowLeft" xlink:href="#dirArrow" transform="rotate(270) translate(-36 17)" onmousedown="handlePan(-1,0)">
                  <use xlink:href="#rim" fill="#404040">
                        <set attributeName="fill" to="#808080" begin="arrowLeft.mouseover" end="arrowLeft.mouseout"/>
                  </use>
                  <path fill="none" stroke="white" stroke-width="1.5" d="M0,-3.0v7 M-2.5,-0.5L0,-3.0L2.5,-0.5"/>
                </g>
        </g>
        <svg viewBox="0 0 15 15" width="100%" height="30px" preserveAspectRatio="xMaxYMin meet">
         <g id="arrow_out" transform="scale(0.3 0.3)">
          <a xlink:href="GameObjectUtil_8hpp__dep__incl_org.svg" target="_base">
           <rect id="button" ry="5" rx="5" y="6" x="6" height="38" width="38"
                fill="#f2f5e9" fill-opacity="0.5" stroke="#606060" stroke-width="1.0"/>
           <path id="arrow"
             d="M 11.500037,31.436501 C 11.940474,20.09759 22.043105,11.32322 32.158766,21.979434 L 37.068811,17.246167 C 37.068811,17.246167 37.088388,32 37.088388,32 L 22.160133,31.978069 C 22.160133,31.978069 26.997745,27.140456 26.997745,27.140456 C 18.528582,18.264221 13.291696,25.230495 11.500037,31.436501 z"
             style="fill:#404040;"/>
          </a>
         </g>
        </svg>
</svg>
