<?xml version="1.0" encoding="UTF-8" standalone="no"?>
<!DOCTYPE svg PUBLIC "-//W3C//DTD SVG 1.1//EN"
 "http://www.w3.org/Graphics/SVG/1.1/DTD/svg11.dtd">
<!-- Generated by graphviz version 2.44.0 ()
 -->
<!-- Title: libs/spic&#45;engine/includes/spic&#45;api&#45;headers/Utils/GameObjectUtil.hpp Pages: 1 -->
<svg width="384pt" height="218pt"
 viewBox="0.00 0.00 383.50 218.00" xmlns="http://www.w3.org/2000/svg" xmlns:xlink="http://www.w3.org/1999/xlink">
<g id="graph0" class="graph" transform="scale(1 1) rotate(0) translate(4 214)">
<title>libs/spic&#45;engine/includes/spic&#45;api&#45;headers/Utils/GameObjectUtil.hpp</title>
<!-- Node1 -->
<g id="node1" class="node">
<title>Node1</title>
<g id="a_node1"><a xlink:title=" ">
<polygon fill="#bfbfbf" stroke="black" points="0,-168.5 0,-209.5 123,-209.5 123,-168.5 0,-168.5"/>
<text text-anchor="start" x="8" y="-197.5" font-family="Helvetica,sans-Serif" font-size="10.00">libs/spic&#45;engine/includes</text>
<text text-anchor="start" x="8" y="-186.5" font-family="Helvetica,sans-Serif" font-size="10.00">/spic&#45;api&#45;headers/Utils</text>
<text text-anchor="middle" x="61.5" y="-175.5" font-family="Helvetica,sans-Serif" font-size="10.00">/GameObjectUtil.hpp</text>
</a>
</g>
</g>
<!-- Node2 -->
<g id="node2" class="node">
<title>Node2</title>
<g id="a_node2"><a xlink:title=" ">
<polygon fill="none" stroke="#bfbfbf" points="20,-0.5 20,-19.5 71,-19.5 71,-0.5 20,-0.5"/>
<text text-anchor="middle" x="45.5" y="-7.5" font-family="Helvetica,sans-Serif" font-size="10.00">memory</text>
</a>
</g>
</g>
<!-- Node1&#45;&gt;Node2 -->
<g id="edge1" class="edge">
<title>Node1&#45;&gt;Node2</title>
<path fill="none" stroke="midnightblue" d="M59.43,-168.18C57.11,-145.81 53.33,-108.31 50.5,-76 49.14,-60.48 47.8,-42.85 46.85,-29.87"/>
<polygon fill="midnightblue" stroke="midnightblue" points="50.33,-29.56 46.12,-19.84 43.35,-30.06 50.33,-29.56"/>
</g>
<!-- Node3 -->
<g id="node3" class="node">
<title>Node3</title>
<g id="a_node3"><a xlink:href="GameObject_8hpp.html" target="_top" xlink:title=" ">
<polygon fill="none" stroke="black" points="120,-112.5 120,-131.5 209,-131.5 209,-112.5 120,-112.5"/>
<text text-anchor="middle" x="164.5" y="-119.5" font-family="Helvetica,sans-Serif" font-size="10.00">GameObject.hpp</text>
</a>
</g>
</g>
<!-- Node1&#45;&gt;Node3 -->
<g id="edge2" class="edge">
<title>Node1&#45;&gt;Node3</title>
<path fill="none" stroke="midnightblue" d="M92.4,-168.5C108.35,-158.44 127.44,-146.38 141.98,-137.21"/>
<polygon fill="midnightblue" stroke="midnightblue" points="144.2,-139.95 150.79,-131.65 140.46,-134.03 144.2,-139.95"/>
</g>
<!-- Node3&#45;&gt;Node2 -->
<g id="edge9" class="edge">
<title>Node3&#45;&gt;Node2</title>
<path fill="none" stroke="midnightblue" d="M126.99,-112.44C105.89,-105.81 80.62,-94.53 64.5,-76 53.29,-63.12 48.69,-43.95 46.8,-29.76"/>
<polygon fill="midnightblue" stroke="midnightblue" points="50.27,-29.26 45.79,-19.66 43.3,-29.96 50.27,-29.26"/>
</g>
<!-- Node4 -->
<g id="node4" class="node">
<title>Node4</title>
<g id="a_node4"><a xlink:href="Component_8hpp.html" target="_top" xlink:title=" ">
<polygon fill="none" stroke="black" points="73.5,-56.5 73.5,-75.5 157.5,-75.5 157.5,-56.5 73.5,-56.5"/>
<text text-anchor="middle" x="115.5" y="-63.5" font-family="Helvetica,sans-Serif" font-size="10.00">Component.hpp</text>
</a>
</g>
</g>
<!-- Node3&#45;&gt;Node4 -->
<g id="edge3" class="edge">
<title>Node3&#45;&gt;Node4</title>
<path fill="none" stroke="midnightblue" d="M156.41,-112.08C149.34,-104.3 138.91,-92.8 130.35,-83.37"/>
<polygon fill="midnightblue" stroke="midnightblue" points="132.75,-80.8 123.44,-75.75 127.57,-85.51 132.75,-80.8"/>
</g>
<!-- Node5 -->
<g id="node5" class="node">
<title>Node5</title>
<g id="a_node5"><a xlink:href="Transform_8hpp.html" target="_top" xlink:title=" ">
<polygon fill="none" stroke="black" points="175,-56.5 175,-75.5 254,-75.5 254,-56.5 175,-56.5"/>
<text text-anchor="middle" x="214.5" y="-63.5" font-family="Helvetica,sans-Serif" font-size="10.00">Transform.hpp</text>
</a>
</g>
</g>
<!-- Node3&#45;&gt;Node5 -->
<g id="edge5" class="edge">
<title>Node3&#45;&gt;Node5</title>
<path fill="none" stroke="midnightblue" d="M172.76,-112.08C179.96,-104.3 190.61,-92.8 199.35,-83.37"/>
<polygon fill="midnightblue" stroke="midnightblue" points="202.17,-85.47 206.4,-75.75 197.03,-80.71 202.17,-85.47"/>
</g>
<!-- Node7 -->
<g id="node7" class="node">
<title>Node7</title>
<g id="a_node7"><a xlink:title=" ">
<polygon fill="none" stroke="#bfbfbf" points="272,-56.5 272,-75.5 313,-75.5 313,-56.5 272,-56.5"/>
<text text-anchor="middle" x="292.5" y="-63.5" font-family="Helvetica,sans-Serif" font-size="10.00">string</text>
</a>
</g>
</g>
<!-- Node3&#45;&gt;Node7 -->
<g id="edge7" class="edge">
<title>Node3&#45;&gt;Node7</title>
<path fill="none" stroke="midnightblue" d="M184.78,-112.44C205.85,-103.56 239.02,-89.56 262.99,-79.45"/>
<polygon fill="midnightblue" stroke="midnightblue" points="264.46,-82.63 272.31,-75.52 261.74,-76.18 264.46,-82.63"/>
</g>
<!-- Node8 -->
<g id="node8" class="node">
<title>Node8</title>
<g id="a_node8"><a xlink:title=" ">
<polygon fill="none" stroke="#bfbfbf" points="331.5,-56.5 331.5,-75.5 375.5,-75.5 375.5,-56.5 331.5,-56.5"/>
<text text-anchor="middle" x="353.5" y="-63.5" font-family="Helvetica,sans-Serif" font-size="10.00">vector</text>
</a>
</g>
</g>
<!-- Node3&#45;&gt;Node8 -->
<g id="edge8" class="edge">
<title>Node3&#45;&gt;Node8</title>
<path fill="none" stroke="midnightblue" d="M194.8,-112.42C224.69,-103.94 271.93,-90.52 321.82,-76.19"/>
<polygon fill="midnightblue" stroke="midnightblue" points="322.85,-79.53 331.49,-73.41 320.91,-72.81 322.85,-79.53"/>
</g>
<!-- Node4&#45;&gt;Node2 -->
<g id="edge4" class="edge">
<title>Node4&#45;&gt;Node2</title>
<path fill="none" stroke="midnightblue" d="M104.25,-56.32C93.7,-48.18 77.7,-35.84 65.06,-26.09"/>
<polygon fill="midnightblue" stroke="midnightblue" points="67.01,-23.17 56.95,-19.83 62.73,-28.71 67.01,-23.17"/>
</g>
<!-- Node6 -->
<g id="node6" class="node">
<title>Node6</title>
<g id="a_node6"><a xlink:href="Point_8hpp.html" target="_top" xlink:title=" ">
<polygon fill="none" stroke="black" points="186,-0.5 186,-19.5 243,-19.5 243,-0.5 186,-0.5"/>
<text text-anchor="middle" x="214.5" y="-7.5" font-family="Helvetica,sans-Serif" font-size="10.00">Point.hpp</text>
</a>
</g>
</g>
<!-- Node5&#45;&gt;Node6 -->
<g id="edge6" class="edge">
<title>Node5&#45;&gt;Node6</title>
<path fill="none" stroke="midnightblue" d="M214.5,-56.08C214.5,-49.01 214.5,-38.86 214.5,-29.99"/>
<polygon fill="midnightblue" stroke="midnightblue" points="218,-29.75 214.5,-19.75 211,-29.75 218,-29.75"/>
</g>
</g>
</svg>
