<?xml version="1.0" encoding="UTF-8" standalone="no"?>
<!DOCTYPE svg PUBLIC "-//W3C//DTD SVG 1.1//EN"
 "http://www.w3.org/Graphics/SVG/1.1/DTD/svg11.dtd">
<!-- Generated by graphviz version 2.44.0 ()
 -->
<!-- Title: src/Utils/GameObjectUtil.hpp Pages: 1 -->
<svg width="4118pt" height="106pt"
 viewBox="0.00 0.00 4118.00 106.00" xmlns="http://www.w3.org/2000/svg" xmlns:xlink="http://www.w3.org/1999/xlink">
<g id="graph0" class="graph" transform="scale(1 1) rotate(0) translate(4 102)">
<title>src/Utils/GameObjectUtil.hpp</title>
<!-- Node1 -->
<g id="node1" class="node">
<title>Node1</title>
<g id="a_node1"><a xlink:title=" ">
<polygon fill="#bfbfbf" stroke="black" points="1933,-78.5 1933,-97.5 2077,-97.5 2077,-78.5 1933,-78.5"/>
<text text-anchor="middle" x="2005" y="-85.5" font-family="Helvetica,sans-Serif" font-size="10.00">src/Utils/GameObjectUtil.hpp</text>
</a>
</g>
</g>
<!-- Node2 -->
<g id="node2" class="node">
<title>Node2</title>
<g id="a_node2"><a xlink:href="LevelController_8cpp.html" target="_top" xlink:title=" ">
<polygon fill="none" stroke="black" points="0,-11.5 0,-30.5 166,-30.5 166,-11.5 0,-11.5"/>
<text text-anchor="middle" x="83" y="-18.5" font-family="Helvetica,sans-Serif" font-size="10.00">src/Controllers/LevelController.cpp</text>
</a>
</g>
</g>
<!-- Node1&#45;&gt;Node2 -->
<g id="edge1" class="edge">
<title>Node1&#45;&gt;Node2</title>
<path fill="none" stroke="midnightblue" d="M1922.55,-87.05C1613.01,-86.9 520.35,-83.4 175,-42 154.88,-39.59 132.66,-34.82 115.1,-30.54"/>
<polygon fill="midnightblue" stroke="midnightblue" points="1922.79,-90.55 1932.79,-87.05 1922.79,-83.55 1922.79,-90.55"/>
</g>
<!-- Node3 -->
<g id="node3" class="node">
<title>Node3</title>
<g id="a_node3"><a xlink:href="AudioSourcePrefabFactory_8cpp.html" target="_top" xlink:title=" ">
<polygon fill="none" stroke="black" points="184,-6 184,-36 316,-36 316,-6 184,-6"/>
<text text-anchor="start" x="192" y="-24" font-family="Helvetica,sans-Serif" font-size="10.00">src/Factories/AudioSource</text>
<text text-anchor="middle" x="250" y="-13" font-family="Helvetica,sans-Serif" font-size="10.00">PrefabFactory.cpp</text>
</a>
</g>
</g>
<!-- Node1&#45;&gt;Node3 -->
<g id="edge2" class="edge">
<title>Node1&#45;&gt;Node3</title>
<path fill="none" stroke="midnightblue" d="M1922.43,-87.34C1629.17,-88.15 638.56,-87.37 325,-42 315.53,-40.63 305.55,-38.48 296.06,-36.09"/>
<polygon fill="midnightblue" stroke="midnightblue" points="1922.58,-90.84 1932.57,-87.31 1922.56,-83.84 1922.58,-90.84"/>
</g>
<!-- Node4 -->
<g id="node4" class="node">
<title>Node4</title>
<g id="a_node4"><a xlink:href="BackgroundPrefabFactory_8cpp.html" target="_top" xlink:title=" ">
<polygon fill="none" stroke="black" points="334,-6 334,-36 462,-36 462,-6 334,-6"/>
<text text-anchor="start" x="342" y="-24" font-family="Helvetica,sans-Serif" font-size="10.00">src/Factories/Background</text>
<text text-anchor="middle" x="398" y="-13" font-family="Helvetica,sans-Serif" font-size="10.00">PrefabFactory.cpp</text>
</a>
</g>
</g>
<!-- Node1&#45;&gt;Node4 -->
<g id="edge3" class="edge">
<title>Node1&#45;&gt;Node4</title>
<path fill="none" stroke="midnightblue" d="M1922.26,-87.16C1645.65,-87.31 754.58,-84.39 471,-42 461.77,-40.62 452.05,-38.47 442.81,-36.08"/>
<polygon fill="midnightblue" stroke="midnightblue" points="1922.62,-90.66 1932.62,-87.16 1922.62,-83.66 1922.62,-90.66"/>
</g>
<!-- Node5 -->
<g id="node5" class="node">
<title>Node5</title>
<g id="a_node5"><a xlink:href="BulletFactory_8cpp.html" target="_top" xlink:title=" ">
<polygon fill="none" stroke="black" points="480,-11.5 480,-30.5 632,-30.5 632,-11.5 480,-11.5"/>
<text text-anchor="middle" x="556" y="-18.5" font-family="Helvetica,sans-Serif" font-size="10.00">src/Factories/BulletFactory.cpp</text>
</a>
</g>
</g>
<!-- Node1&#45;&gt;Node5 -->
<g id="edge4" class="edge">
<title>Node1&#45;&gt;Node5</title>
<path fill="none" stroke="midnightblue" d="M1922.49,-86.42C1666.94,-84.28 890.76,-75.17 641,-42 622.52,-39.55 602.17,-34.83 586.02,-30.6"/>
<polygon fill="midnightblue" stroke="midnightblue" points="1922.79,-89.92 1932.81,-86.5 1922.84,-82.92 1922.79,-89.92"/>
</g>
<!-- Node6 -->
<g id="node6" class="node">
<title>Node6</title>
<g id="a_node6"><a xlink:href="ButtonPrefabFactory_8cpp.html" target="_top" xlink:title=" ">
<polygon fill="none" stroke="black" points="650,-6 650,-36 784,-36 784,-6 650,-6"/>
<text text-anchor="start" x="658" y="-24" font-family="Helvetica,sans-Serif" font-size="10.00">src/Factories/ButtonPrefab</text>
<text text-anchor="middle" x="717" y="-13" font-family="Helvetica,sans-Serif" font-size="10.00">Factory.cpp</text>
</a>
</g>
</g>
<!-- Node1&#45;&gt;Node6 -->
<g id="edge5" class="edge">
<title>Node1&#45;&gt;Node6</title>
<path fill="none" stroke="midnightblue" d="M1922.44,-86.3C1686.39,-83.93 1011.57,-74.41 793,-42 783.42,-40.58 773.3,-38.41 763.69,-36.01"/>
<polygon fill="midnightblue" stroke="midnightblue" points="1922.64,-89.8 1932.68,-86.4 1922.71,-82.8 1922.64,-89.8"/>
</g>
<!-- Node7 -->
<g id="node7" class="node">
<title>Node7</title>
<g id="a_node7"><a xlink:href="EnemyPrefabFactory_8cpp.html" target="_top" xlink:title=" ">
<polygon fill="none" stroke="black" points="802,-6 802,-36 936,-36 936,-6 802,-6"/>
<text text-anchor="start" x="810" y="-24" font-family="Helvetica,sans-Serif" font-size="10.00">src/Factories/EnemyPrefab</text>
<text text-anchor="middle" x="869" y="-13" font-family="Helvetica,sans-Serif" font-size="10.00">Factory.cpp</text>
</a>
</g>
</g>
<!-- Node1&#45;&gt;Node7 -->
<g id="edge6" class="edge">
<title>Node1&#45;&gt;Node7</title>
<path fill="none" stroke="midnightblue" d="M1922.5,-85.79C1707.39,-82.26 1133.04,-70.4 945,-42 935.56,-40.57 925.6,-38.43 916.1,-36.07"/>
<polygon fill="midnightblue" stroke="midnightblue" points="1922.72,-89.29 1932.78,-85.95 1922.84,-82.29 1922.72,-89.29"/>
</g>
<!-- Node8 -->
<g id="node8" class="node">
<title>Node8</title>
<g id="a_node8"><a xlink:href="HealthBarFactory_8cpp.html" target="_top" xlink:title=" ">
<polygon fill="none" stroke="black" points="954,-11.5 954,-30.5 1124,-30.5 1124,-11.5 954,-11.5"/>
<text text-anchor="middle" x="1039" y="-18.5" font-family="Helvetica,sans-Serif" font-size="10.00">src/Factories/HealthBarFactory.cpp</text>
</a>
</g>
</g>
<!-- Node1&#45;&gt;Node8 -->
<g id="edge7" class="edge">
<title>Node1&#45;&gt;Node8</title>
<path fill="none" stroke="midnightblue" d="M1922.47,-87.07C1767.22,-86.25 1421.34,-79.87 1133,-42 1112.82,-39.35 1090.52,-34.68 1072.71,-30.52"/>
<polygon fill="midnightblue" stroke="midnightblue" points="1922.86,-90.58 1932.87,-87.12 1922.89,-83.58 1922.86,-90.58"/>
</g>
<!-- Node9 -->
<g id="node9" class="node">
<title>Node9</title>
<g id="a_node9"><a xlink:href="HeroPrefabFactory_8cpp.html" target="_top" xlink:title=" ">
<polygon fill="none" stroke="black" points="1142,-6 1142,-36 1268,-36 1268,-6 1142,-6"/>
<text text-anchor="start" x="1150" y="-24" font-family="Helvetica,sans-Serif" font-size="10.00">src/Factories/HeroPrefab</text>
<text text-anchor="middle" x="1205" y="-13" font-family="Helvetica,sans-Serif" font-size="10.00">Factory.cpp</text>
</a>
</g>
</g>
<!-- Node1&#45;&gt;Node9 -->
<g id="edge8" class="edge">
<title>Node1&#45;&gt;Node9</title>
<path fill="none" stroke="midnightblue" d="M1922.57,-87.49C1786.96,-87.05 1508.71,-80.9 1277,-42 1268.17,-40.52 1258.87,-38.38 1250,-36.05"/>
<polygon fill="midnightblue" stroke="midnightblue" points="1922.87,-90.99 1932.88,-87.51 1922.89,-83.99 1922.87,-90.99"/>
</g>
<!-- Node10 -->
<g id="node10" class="node">
<title>Node10</title>
<g id="a_node10"><a xlink:href="TowerPrefabFactory_8cpp.html" target="_top" xlink:title=" ">
<polygon fill="none" stroke="black" points="1286,-6 1286,-36 1418,-36 1418,-6 1286,-6"/>
<text text-anchor="start" x="1294" y="-24" font-family="Helvetica,sans-Serif" font-size="10.00">src/Factories/TowerPrefab</text>
<text text-anchor="middle" x="1352" y="-13" font-family="Helvetica,sans-Serif" font-size="10.00">Factory.cpp</text>
</a>
</g>
</g>
<!-- Node1&#45;&gt;Node10 -->
<g id="edge9" class="edge">
<title>Node1&#45;&gt;Node10</title>
<path fill="none" stroke="midnightblue" d="M1922.58,-85.31C1809.92,-81.94 1601.86,-71.86 1427,-42 1417.97,-40.46 1408.44,-38.32 1399.32,-36.02"/>
<polygon fill="midnightblue" stroke="midnightblue" points="1922.75,-88.82 1932.84,-85.61 1922.95,-81.82 1922.75,-88.82"/>
</g>
<!-- Node11 -->
<g id="node11" class="node">
<title>Node11</title>
<g id="a_node11"><a xlink:href="LevelScene_8cpp.html" target="_top" xlink:title=" ">
<polygon fill="none" stroke="black" points="1436.5,-11.5 1436.5,-30.5 1575.5,-30.5 1575.5,-11.5 1436.5,-11.5"/>
<text text-anchor="middle" x="1506" y="-18.5" font-family="Helvetica,sans-Serif" font-size="10.00">src/Scenes/LevelScene.cpp</text>
</a>
</g>
</g>
<!-- Node1&#45;&gt;Node11 -->
<g id="edge10" class="edge">
<title>Node1&#45;&gt;Node11</title>
<path fill="none" stroke="midnightblue" d="M1922.53,-81.72C1837.28,-75.45 1700.6,-63.07 1584,-42 1567.63,-39.04 1549.62,-34.51 1535.04,-30.51"/>
<polygon fill="midnightblue" stroke="midnightblue" points="1922.44,-85.23 1932.66,-82.46 1922.94,-78.25 1922.44,-85.23"/>
</g>
<!-- Node12 -->
<g id="node12" class="node">
<title>Node12</title>
<g id="a_node12"><a xlink:href="VictoryScene_8cpp.html" target="_top" xlink:title=" ">
<polygon fill="none" stroke="black" points="1593.5,-11.5 1593.5,-30.5 1738.5,-30.5 1738.5,-11.5 1593.5,-11.5"/>
<text text-anchor="middle" x="1666" y="-18.5" font-family="Helvetica,sans-Serif" font-size="10.00">src/Scenes/VictoryScene.cpp</text>
</a>
</g>
</g>
<!-- Node1&#45;&gt;Node12 -->
<g id="edge11" class="edge">
<title>Node1&#45;&gt;Node12</title>
<path fill="none" stroke="midnightblue" d="M1940.05,-76.84C1887.95,-68.4 1813.05,-55.61 1748,-42 1731.79,-38.61 1713.92,-34.31 1699,-30.57"/>
<polygon fill="midnightblue" stroke="midnightblue" points="1939.72,-80.33 1950.15,-78.47 1940.84,-73.42 1939.72,-80.33"/>
</g>
<!-- Node13 -->
<g id="node13" class="node">
<title>Node13</title>
<g id="a_node13"><a xlink:href="AttackBehaviour_8cpp.html" target="_top" xlink:title=" ">
<polygon fill="none" stroke="black" points="1757,-6 1757,-36 1867,-36 1867,-6 1757,-6"/>
<text text-anchor="start" x="1765" y="-24" font-family="Helvetica,sans-Serif" font-size="10.00">src/Scripts/Common</text>
<text text-anchor="middle" x="1812" y="-13" font-family="Helvetica,sans-Serif" font-size="10.00">/AttackBehaviour.cpp</text>
</a>
</g>
</g>
<!-- Node1&#45;&gt;Node13 -->
<g id="edge12" class="edge">
<title>Node1&#45;&gt;Node13</title>
<path fill="none" stroke="midnightblue" d="M1969.76,-75.13C1937.04,-64.11 1888.29,-47.69 1853.65,-36.03"/>
<polygon fill="midnightblue" stroke="midnightblue" points="1968.78,-78.49 1979.37,-78.37 1971.01,-71.86 1968.78,-78.49"/>
</g>
<!-- Node14 -->
<g id="node14" class="node">
<title>Node14</title>
<g id="a_node14"><a xlink:href="BulletBehaviour_8cpp.html" target="_top" xlink:title=" ">
<polygon fill="none" stroke="black" points="1885,-6 1885,-36 1991,-36 1991,-6 1885,-6"/>
<text text-anchor="start" x="1893" y="-24" font-family="Helvetica,sans-Serif" font-size="10.00">src/Scripts/Common</text>
<text text-anchor="middle" x="1938" y="-13" font-family="Helvetica,sans-Serif" font-size="10.00">/BulletBehaviour.cpp</text>
</a>
</g>
</g>
<!-- Node1&#45;&gt;Node14 -->
<g id="edge13" class="edge">
<title>Node1&#45;&gt;Node14</title>
<path fill="none" stroke="midnightblue" d="M1988.63,-71.12C1977.59,-60.41 1963.15,-46.4 1952.52,-36.09"/>
<polygon fill="midnightblue" stroke="midnightblue" points="1986.35,-73.78 1995.96,-78.23 1991.22,-68.76 1986.35,-73.78"/>
</g>
<!-- Node15 -->
<g id="node15" class="node">
<title>Node15</title>
<g id="a_node15"><a xlink:href="GameLostBehaviour_8cpp.html" target="_top" xlink:title=" ">
<polygon fill="none" stroke="black" points="2009.5,-6 2009.5,-36 2136.5,-36 2136.5,-6 2009.5,-6"/>
<text text-anchor="start" x="2017.5" y="-24" font-family="Helvetica,sans-Serif" font-size="10.00">src/Scripts/Common</text>
<text text-anchor="middle" x="2073" y="-13" font-family="Helvetica,sans-Serif" font-size="10.00">/GameLostBehaviour.cpp</text>
</a>
</g>
</g>
<!-- Node1&#45;&gt;Node15 -->
<g id="edge14" class="edge">
<title>Node1&#45;&gt;Node15</title>
<path fill="none" stroke="midnightblue" d="M2021.62,-71.12C2032.82,-60.41 2047.47,-46.4 2058.26,-36.09"/>
<polygon fill="midnightblue" stroke="midnightblue" points="2018.98,-68.79 2014.17,-78.23 2023.82,-73.85 2018.98,-68.79"/>
</g>
<!-- Node16 -->
<g id="node16" class="node">
<title>Node16</title>
<g id="a_node16"><a xlink:href="EnemyInvisibleBehaviour_8cpp.html" target="_top" xlink:title=" ">
<polygon fill="none" stroke="black" points="2155,-6 2155,-36 2301,-36 2301,-6 2155,-6"/>
<text text-anchor="start" x="2163" y="-24" font-family="Helvetica,sans-Serif" font-size="10.00">src/Scripts/Enemies</text>
<text text-anchor="middle" x="2228" y="-13" font-family="Helvetica,sans-Serif" font-size="10.00">/EnemyInvisibleBehaviour.cpp</text>
</a>
</g>
</g>
<!-- Node1&#45;&gt;Node16 -->
<g id="edge15" class="edge">
<title>Node1&#45;&gt;Node16</title>
<path fill="none" stroke="midnightblue" d="M2044.26,-75.56C2082.07,-64.54 2139.33,-47.84 2179.87,-36.03"/>
<polygon fill="midnightblue" stroke="midnightblue" points="2043.23,-72.21 2034.61,-78.37 2045.19,-78.93 2043.23,-72.21"/>
</g>
<!-- Node17 -->
<g id="node17" class="node">
<title>Node17</title>
<g id="a_node17"><a xlink:href="EnemyMedicBehaviour_8cpp.html" target="_top" xlink:title=" ">
<polygon fill="none" stroke="black" points="2319.5,-6 2319.5,-36 2456.5,-36 2456.5,-6 2319.5,-6"/>
<text text-anchor="start" x="2327.5" y="-24" font-family="Helvetica,sans-Serif" font-size="10.00">src/Scripts/Enemies</text>
<text text-anchor="middle" x="2388" y="-13" font-family="Helvetica,sans-Serif" font-size="10.00">/EnemyMedicBehaviour.cpp</text>
</a>
</g>
</g>
<!-- Node1&#45;&gt;Node17 -->
<g id="edge16" class="edge">
<title>Node1&#45;&gt;Node17</title>
<path fill="none" stroke="midnightblue" d="M2087.22,-77.24C2148.83,-69.35 2235.07,-57.09 2310,-42 2318.5,-40.29 2327.45,-38.23 2336.15,-36.1"/>
<polygon fill="midnightblue" stroke="midnightblue" points="2086.64,-73.78 2077.16,-78.51 2087.52,-80.73 2086.64,-73.78"/>
</g>
<!-- Node18 -->
<g id="node18" class="node">
<title>Node18</title>
<g id="a_node18"><a xlink:href="EnemyMovementBehaviour_8cpp.html" target="_top" xlink:title=" ">
<polygon fill="none" stroke="black" points="2475,-6 2475,-36 2631,-36 2631,-6 2475,-6"/>
<text text-anchor="start" x="2483" y="-24" font-family="Helvetica,sans-Serif" font-size="10.00">src/Scripts/Enemies</text>
<text text-anchor="middle" x="2553" y="-13" font-family="Helvetica,sans-Serif" font-size="10.00">/EnemyMovementBehaviour.cpp</text>
</a>
</g>
</g>
<!-- Node1&#45;&gt;Node18 -->
<g id="edge17" class="edge">
<title>Node1&#45;&gt;Node18</title>
<path fill="none" stroke="midnightblue" d="M2087.38,-82.17C2179.93,-75.99 2334.42,-63.45 2466,-42 2475.94,-40.38 2486.44,-38.29 2496.58,-36.08"/>
<polygon fill="midnightblue" stroke="midnightblue" points="2086.99,-78.68 2077.24,-82.83 2087.45,-85.67 2086.99,-78.68"/>
</g>
<!-- Node19 -->
<g id="node19" class="node">
<title>Node19</title>
<g id="a_node19"><a xlink:href="EnemySpeedBoostBehaviour_8cpp.html" target="_top" xlink:title=" ">
<polygon fill="none" stroke="black" points="2649,-6 2649,-36 2813,-36 2813,-6 2649,-6"/>
<text text-anchor="start" x="2657" y="-24" font-family="Helvetica,sans-Serif" font-size="10.00">src/Scripts/Enemies</text>
<text text-anchor="middle" x="2731" y="-13" font-family="Helvetica,sans-Serif" font-size="10.00">/EnemySpeedBoostBehaviour.cpp</text>
</a>
</g>
</g>
<!-- Node1&#45;&gt;Node19 -->
<g id="edge18" class="edge">
<title>Node1&#45;&gt;Node19</title>
<path fill="none" stroke="midnightblue" d="M2087.6,-84.98C2209.15,-81.14 2443.11,-70.46 2640,-42 2650.73,-40.45 2662.07,-38.34 2672.98,-36.07"/>
<polygon fill="midnightblue" stroke="midnightblue" points="2087.15,-81.49 2077.26,-85.3 2087.37,-88.49 2087.15,-81.49"/>
</g>
<!-- Node20 -->
<g id="node20" class="node">
<title>Node20</title>
<g id="a_node20"><a xlink:href="AirstrikeAbilityBehaviour_8cpp.html" target="_top" xlink:title=" ">
<polygon fill="none" stroke="black" points="2831.5,-6 2831.5,-36 2974.5,-36 2974.5,-6 2831.5,-6"/>
<text text-anchor="start" x="2839.5" y="-24" font-family="Helvetica,sans-Serif" font-size="10.00">src/Scripts/Heroes</text>
<text text-anchor="middle" x="2903" y="-13" font-family="Helvetica,sans-Serif" font-size="10.00">/AirstrikeAbilityBehaviour.cpp</text>
</a>
</g>
</g>
<!-- Node1&#45;&gt;Node20 -->
<g id="edge19" class="edge">
<title>Node1&#45;&gt;Node20</title>
<path fill="none" stroke="midnightblue" d="M2087.39,-87.53C2235.35,-87.37 2555.49,-81.88 2822,-42 2831.88,-40.52 2842.32,-38.39 2852.3,-36.06"/>
<polygon fill="midnightblue" stroke="midnightblue" points="2087.04,-84.03 2077.04,-87.54 2087.04,-91.03 2087.04,-84.03"/>
</g>
<!-- Node21 -->
<g id="node21" class="node">
<title>Node21</title>
<g id="a_node21"><a xlink:href="EnemySuicideAbilityBehaviour_8cpp.html" target="_top" xlink:title=" ">
<polygon fill="none" stroke="black" points="2992.5,-6 2992.5,-36 3161.5,-36 3161.5,-6 2992.5,-6"/>
<text text-anchor="start" x="3000.5" y="-24" font-family="Helvetica,sans-Serif" font-size="10.00">src/Scripts/Heroes</text>
<text text-anchor="middle" x="3077" y="-13" font-family="Helvetica,sans-Serif" font-size="10.00">/EnemySuicideAbilityBehaviour.cpp</text>
</a>
</g>
</g>
<!-- Node1&#45;&gt;Node21 -->
<g id="edge20" class="edge">
<title>Node1&#45;&gt;Node21</title>
<path fill="none" stroke="midnightblue" d="M2087.27,-87.81C2256.12,-88.46 2653.7,-84.81 2984,-42 2995.3,-40.54 3007.27,-38.41 3018.72,-36.08"/>
<polygon fill="midnightblue" stroke="midnightblue" points="2087.22,-84.31 2077.21,-87.76 2087.19,-91.31 2087.22,-84.31"/>
</g>
<!-- Node22 -->
<g id="node22" class="node">
<title>Node22</title>
<g id="a_node22"><a xlink:href="HealAbilityBehaviour_8cpp.html" target="_top" xlink:title=" ">
<polygon fill="none" stroke="black" points="3180,-6 3180,-36 3308,-36 3308,-6 3180,-6"/>
<text text-anchor="start" x="3188" y="-24" font-family="Helvetica,sans-Serif" font-size="10.00">src/Scripts/Heroes</text>
<text text-anchor="middle" x="3244" y="-13" font-family="Helvetica,sans-Serif" font-size="10.00">/HealAbilityBehaviour.cpp</text>
</a>
</g>
</g>
<!-- Node1&#45;&gt;Node22 -->
<g id="edge21" class="edge">
<title>Node1&#45;&gt;Node22</title>
<path fill="none" stroke="midnightblue" d="M2087.6,-86.27C2317.54,-83.83 2961.86,-74.25 3171,-42 3180.22,-40.58 3189.94,-38.41 3199.18,-36.01"/>
<polygon fill="midnightblue" stroke="midnightblue" points="2087.26,-82.77 2077.3,-86.37 2087.33,-89.77 2087.26,-82.77"/>
</g>
<!-- Node23 -->
<g id="node23" class="node">
<title>Node23</title>
<g id="a_node23"><a xlink:href="IncreaseTowerFireRateAbilityBehaviour_8cpp.html" target="_top" xlink:title=" ">
<polygon fill="none" stroke="black" points="3326.5,-0.5 3326.5,-41.5 3473.5,-41.5 3473.5,-0.5 3326.5,-0.5"/>
<text text-anchor="start" x="3334.5" y="-29.5" font-family="Helvetica,sans-Serif" font-size="10.00">src/Scripts/Heroes</text>
<text text-anchor="start" x="3334.5" y="-18.5" font-family="Helvetica,sans-Serif" font-size="10.00">/IncreaseTowerFireRateAbility</text>
<text text-anchor="middle" x="3400" y="-7.5" font-family="Helvetica,sans-Serif" font-size="10.00">Behaviour.cpp</text>
</a>
</g>
</g>
<!-- Node1&#45;&gt;Node23 -->
<g id="edge22" class="edge">
<title>Node1&#45;&gt;Node23</title>
<path fill="none" stroke="midnightblue" d="M2087.39,-86.35C2336.26,-84.05 3077.83,-74.58 3317,-42 3320.08,-41.58 3323.22,-41.09 3326.38,-40.56"/>
<polygon fill="midnightblue" stroke="midnightblue" points="2087.3,-82.85 2077.33,-86.44 2087.36,-89.85 2087.3,-82.85"/>
</g>
<!-- Node24 -->
<g id="node24" class="node">
<title>Node24</title>
<g id="a_node24"><a xlink:href="IncreaseTowerRangeAbilityBehaviour_8cpp.html" target="_top" xlink:title=" ">
<polygon fill="none" stroke="black" points="3492,-0.5 3492,-41.5 3630,-41.5 3630,-0.5 3492,-0.5"/>
<text text-anchor="start" x="3500" y="-29.5" font-family="Helvetica,sans-Serif" font-size="10.00">src/Scripts/Heroes</text>
<text text-anchor="start" x="3500" y="-18.5" font-family="Helvetica,sans-Serif" font-size="10.00">/IncreaseTowerRangeAbility</text>
<text text-anchor="middle" x="3561" y="-7.5" font-family="Helvetica,sans-Serif" font-size="10.00">Behaviour.cpp</text>
</a>
</g>
</g>
<!-- Node1&#45;&gt;Node24 -->
<g id="edge23" class="edge">
<title>Node1&#45;&gt;Node24</title>
<path fill="none" stroke="midnightblue" d="M2087.47,-86.88C2357.03,-86.11 3210.4,-80.61 3483,-42 3485.91,-41.59 3488.86,-41.11 3491.84,-40.58"/>
<polygon fill="midnightblue" stroke="midnightblue" points="2087.35,-83.38 2077.36,-86.91 2087.37,-90.38 2087.35,-83.38"/>
</g>
<!-- Node25 -->
<g id="node25" class="node">
<title>Node25</title>
<g id="a_node25"><a xlink:href="InvisibilityAbilityBehaviour_8cpp.html" target="_top" xlink:title=" ">
<polygon fill="none" stroke="black" points="3648,-6 3648,-36 3798,-36 3798,-6 3648,-6"/>
<text text-anchor="start" x="3656" y="-24" font-family="Helvetica,sans-Serif" font-size="10.00">src/Scripts/Heroes</text>
<text text-anchor="middle" x="3723" y="-13" font-family="Helvetica,sans-Serif" font-size="10.00">/InvisibilityAbilityBehaviour.cpp</text>
</a>
</g>
</g>
<!-- Node1&#45;&gt;Node25 -->
<g id="edge24" class="edge">
<title>Node1&#45;&gt;Node25</title>
<path fill="none" stroke="midnightblue" d="M2087.65,-86.98C2375.7,-86.54 3334.31,-82.03 3639,-42 3649.55,-40.61 3660.71,-38.46 3671.33,-36.07"/>
<polygon fill="midnightblue" stroke="midnightblue" points="2087.28,-83.48 2077.28,-86.99 2087.29,-90.48 2087.28,-83.48"/>
</g>
<!-- Node26 -->
<g id="node26" class="node">
<title>Node26</title>
<g id="a_node26"><a xlink:href="UserAttackBehaviour_8cpp.html" target="_top" xlink:title=" ">
<polygon fill="none" stroke="black" points="3816.5,-6 3816.5,-36 3947.5,-36 3947.5,-6 3816.5,-6"/>
<text text-anchor="start" x="3824.5" y="-24" font-family="Helvetica,sans-Serif" font-size="10.00">src/Scripts/Heroes</text>
<text text-anchor="middle" x="3882" y="-13" font-family="Helvetica,sans-Serif" font-size="10.00">/UserAttackBehaviour.cpp</text>
</a>
</g>
</g>
<!-- Node1&#45;&gt;Node26 -->
<g id="edge25" class="edge">
<title>Node1&#45;&gt;Node26</title>
<path fill="none" stroke="midnightblue" d="M2087.63,-86.08C2418.21,-82.25 3635.92,-66.59 3807,-42 3816.6,-40.62 3826.74,-38.43 3836.34,-36"/>
<polygon fill="midnightblue" stroke="midnightblue" points="2087.14,-82.59 2077.18,-86.2 2087.22,-89.59 2087.14,-82.59"/>
</g>
<!-- Node27 -->
<g id="node27" class="node">
<title>Node27</title>
<g id="a_node27"><a xlink:href="GameObjectUtil_8cpp.html" target="_top" xlink:title=" ">
<polygon fill="none" stroke="black" points="3966,-11.5 3966,-30.5 4110,-30.5 4110,-11.5 3966,-11.5"/>
<text text-anchor="middle" x="4038" y="-18.5" font-family="Helvetica,sans-Serif" font-size="10.00">src/Utils/GameObjectUtil.cpp</text>
</a>
</g>
</g>
<!-- Node1&#45;&gt;Node27 -->
<g id="edge26" class="edge">
<title>Node1&#45;&gt;Node27</title>
<path fill="none" stroke="midnightblue" d="M2087.51,-86.16C2435.02,-82.5 3770.2,-66.91 3957,-42 3974.8,-39.63 3994.36,-34.86 4009.8,-30.58"/>
<polygon fill="midnightblue" stroke="midnightblue" points="2087.23,-82.67 2077.27,-86.27 2087.31,-89.67 2087.23,-82.67"/>
</g>
</g>
</svg>
