<?xml version="1.0" encoding="UTF-8" standalone="no"?>
<!DOCTYPE svg PUBLIC "-//W3C//DTD SVG 1.1//EN"
 "http://www.w3.org/Graphics/SVG/1.1/DTD/svg11.dtd">
<!-- Generated by graphviz version 2.44.0 ()
 -->
<!-- Title: src/Scripts/Common/GameLostBehaviour.cpp Pages: 1 -->
<!--zoomable 442 -->
<svg id="main" version="1.1" xmlns="http://www.w3.org/2000/svg" xmlns:xlink="http://www.w3.org/1999/xlink" xml:space="preserve" onload="init(evt)">
<style type="text/css"><![CDATA[
.edge:hover path { stroke: red; }
.edge:hover polygon { stroke: red; fill: red; }
]]></style>
<script type="text/javascript"><![CDATA[
var edges = document.getElementsByTagName('g');
if (edges && edges.length) {
  for (var i=0;i<edges.length;i++) {
    if (edges[i].id.substr(0,4)=='edge') {
      edges[i].setAttribute('class','edge');
    }
  }
}
]]></script>
        <defs>
                <circle id="rim" cx="0" cy="0" r="7"/>
                <circle id="rim2" cx="0" cy="0" r="3.5"/>
                <g id="zoomPlus">
                        <use xlink:href="#rim" fill="#404040">
                                <set attributeName="fill" to="#808080" begin="zoomplus.mouseover" end="zoomplus.mouseout"/>
                        </use>
                        <path d="M-4,0h8M0,-4v8" fill="none" stroke="white" stroke-width="1.5" pointer-events="none"/>
                </g>
                <g id="zoomMin">
                        <use xlink:href="#rim" fill="#404040">
                                <set attributeName="fill" to="#808080" begin="zoomminus.mouseover" end="zoomminus.mouseout"/>
                        </use>
                        <path d="M-4,0h8" fill="none" stroke="white" stroke-width="1.5" pointer-events="none"/>
                </g>
                <g id="dirArrow">
                        <path fill="none" stroke="white" stroke-width="1.5" d="M0,-3.0v7 M-2.5,-0.5L0,-3.0L2.5,-0.5"/>
                </g>
               <g id="resetDef">
                       <use xlink:href="#rim2" fill="#404040">
                               <set attributeName="fill" to="#808080" begin="reset.mouseover" end="reset.mouseout"/>
                       </use>
               </g>
        </defs>

<script type="text/javascript">
var viewWidth = 1122;
var viewHeight = 442;
var sectionId = 'dynsection-0';
</script>
<script xlink:href="svgpan.js"/>
<svg id="graph" class="graph">
<g id="viewport">
<title>src/Scripts/Common/GameLostBehaviour.cpp</title>
<!-- Node1 -->
<g id="node1" class="node">
<title>Node1</title>
<g id="a_node1"><a xlink:title=" ">
<polygon fill="#bfbfbf" stroke="black" points="304,-403.5 304,-433.5 431,-433.5 431,-403.5 304,-403.5"/>
<text text-anchor="start" x="312" y="-421.5" font-family="Helvetica,sans-Serif" font-size="10.00">src/Scripts/Common</text>
<text text-anchor="middle" x="367.5" y="-410.5" font-family="Helvetica,sans-Serif" font-size="10.00">/GameLostBehaviour.cpp</text>
</a>
</g>
</g>
<!-- Node2 -->
<g id="node2" class="node">
<title>Node2</title>
<g id="a_node2"><a xlink:href="Debug_8hpp.html" target="_top" xlink:title=" ">
<polygon fill="none" stroke="black" points="503.5,-112.5 503.5,-131.5 565.5,-131.5 565.5,-112.5 503.5,-112.5"/>
<text text-anchor="middle" x="534.5" y="-119.5" font-family="Helvetica,sans-Serif" font-size="10.00">Debug.hpp</text>
</a>
</g>
</g>
<!-- Node1&#45;&gt;Node2 -->
<g id="edge1" class="edge">
<title>Node1&#45;&gt;Node2</title>
<path fill="none" stroke="midnightblue" d="M376.41,-403.16C388.74,-381.91 409.5,-340.41 409.5,-302 409.5,-302 409.5,-302 409.5,-238.5 409.5,-205.93 408,-192.46 429.5,-168 445.97,-149.27 471.59,-138.08 493.4,-131.55"/>
<polygon fill="midnightblue" stroke="midnightblue" points="494.4,-134.9 503.11,-128.86 492.54,-128.16 494.4,-134.9"/>
</g>
<!-- Node6 -->
<g id="node6" class="node">
<title>Node6</title>
<g id="a_node6"><a xlink:href="Engine_8hpp.html" target="_top" xlink:title=" ">
<polygon fill="none" stroke="black" points="108.5,-230 108.5,-249 172.5,-249 172.5,-230 108.5,-230"/>
<text text-anchor="middle" x="140.5" y="-237" font-family="Helvetica,sans-Serif" font-size="10.00">Engine.hpp</text>
</a>
</g>
</g>
<!-- Node1&#45;&gt;Node6 -->
<g id="edge5" class="edge">
<title>Node1&#45;&gt;Node6</title>
<path fill="none" stroke="midnightblue" d="M303.96,-411.32C269.34,-405.04 227.73,-392.42 198.5,-367 165.33,-338.16 150.01,-286.42 143.93,-258.9"/>
<polygon fill="midnightblue" stroke="midnightblue" points="147.34,-258.12 141.91,-249.02 140.48,-259.52 147.34,-258.12"/>
</g>
<!-- Node12 -->
<g id="node12" class="node">
<title>Node12</title>
<g id="a_node12"><a xlink:href="GameLostBehaviour_8hpp.html" target="_top" xlink:title=" ">
<polygon fill="none" stroke="black" points="569.5,-347.5 569.5,-366.5 693.5,-366.5 693.5,-347.5 569.5,-347.5"/>
<text text-anchor="middle" x="631.5" y="-354.5" font-family="Helvetica,sans-Serif" font-size="10.00">GameLostBehaviour.hpp</text>
</a>
</g>
</g>
<!-- Node1&#45;&gt;Node12 -->
<g id="edge12" class="edge">
<title>Node1&#45;&gt;Node12</title>
<path fill="none" stroke="midnightblue" d="M429.73,-403.47C476.87,-392.85 540.66,-378.47 583.8,-368.75"/>
<polygon fill="midnightblue" stroke="midnightblue" points="584.77,-372.12 593.76,-366.51 583.23,-365.29 584.77,-372.12"/>
</g>
<!-- Node27 -->
<g id="node27" class="node">
<title>Node27</title>
<g id="a_node27"><a xlink:href="GameOverScene_8hpp.html" target="_top" xlink:title=" ">
<polygon fill="none" stroke="black" points="207,-347.5 207,-366.5 368,-366.5 368,-347.5 207,-347.5"/>
<text text-anchor="middle" x="287.5" y="-354.5" font-family="Helvetica,sans-Serif" font-size="10.00">../../Scenes/GameOverScene.hpp</text>
</a>
</g>
</g>
<!-- Node1&#45;&gt;Node27 -->
<g id="edge47" class="edge">
<title>Node1&#45;&gt;Node27</title>
<path fill="none" stroke="midnightblue" d="M348.54,-403.4C336.08,-394.13 319.8,-382.03 307.19,-372.65"/>
<polygon fill="midnightblue" stroke="midnightblue" points="309.25,-369.82 299.14,-366.66 305.08,-375.43 309.25,-369.82"/>
</g>
<!-- Node3 -->
<g id="node3" class="node">
<title>Node3</title>
<g id="a_node3"><a xlink:href="Point_8hpp.html" target="_top" xlink:title=" ">
<polygon fill="none" stroke="black" points="560,-56.5 560,-75.5 617,-75.5 617,-56.5 560,-56.5"/>
<text text-anchor="middle" x="588.5" y="-63.5" font-family="Helvetica,sans-Serif" font-size="10.00">Point.hpp</text>
</a>
</g>
</g>
<!-- Node2&#45;&gt;Node3 -->
<g id="edge2" class="edge">
<title>Node2&#45;&gt;Node3</title>
<path fill="none" stroke="midnightblue" d="M543.42,-112.08C551.28,-104.22 562.93,-92.57 572.42,-83.08"/>
<polygon fill="midnightblue" stroke="midnightblue" points="575.15,-85.3 579.75,-75.75 570.2,-80.35 575.15,-85.3"/>
</g>
<!-- Node4 -->
<g id="node4" class="node">
<title>Node4</title>
<g id="a_node4"><a xlink:href="Color_8hpp.html" target="_top" xlink:title=" ">
<polygon fill="none" stroke="black" points="820,-56.5 820,-75.5 877,-75.5 877,-56.5 820,-56.5"/>
<text text-anchor="middle" x="848.5" y="-63.5" font-family="Helvetica,sans-Serif" font-size="10.00">Color.hpp</text>
</a>
</g>
</g>
<!-- Node2&#45;&gt;Node4 -->
<g id="edge3" class="edge">
<title>Node2&#45;&gt;Node4</title>
<path fill="none" stroke="midnightblue" d="M565.91,-113.75C568.81,-113.14 571.71,-112.54 574.5,-112 657.9,-95.78 756.34,-80.57 809.58,-72.66"/>
<polygon fill="midnightblue" stroke="midnightblue" points="810.22,-76.1 819.6,-71.18 809.2,-69.18 810.22,-76.1"/>
</g>
<!-- Node5 -->
<g id="node5" class="node">
<title>Node5</title>
<g id="a_node5"><a xlink:title=" ">
<polygon fill="none" stroke="#bfbfbf" points="466,-56.5 466,-75.5 507,-75.5 507,-56.5 466,-56.5"/>
<text text-anchor="middle" x="486.5" y="-63.5" font-family="Helvetica,sans-Serif" font-size="10.00">string</text>
</a>
</g>
</g>
<!-- Node2&#45;&gt;Node5 -->
<g id="edge4" class="edge">
<title>Node2&#45;&gt;Node5</title>
<path fill="none" stroke="midnightblue" d="M526.57,-112.08C519.65,-104.3 509.43,-92.8 501.05,-83.37"/>
<polygon fill="midnightblue" stroke="midnightblue" points="503.54,-80.9 494.28,-75.75 498.31,-85.55 503.54,-80.9"/>
</g>
<!-- Node7 -->
<g id="node7" class="node">
<title>Node7</title>
<g id="a_node7"><a xlink:href="EngineConfig_8hpp.html" target="_top" xlink:title=" ">
<polygon fill="none" stroke="black" points="0,-168.5 0,-187.5 91,-187.5 91,-168.5 0,-168.5"/>
<text text-anchor="middle" x="45.5" y="-175.5" font-family="Helvetica,sans-Serif" font-size="10.00">EngineConfig.hpp</text>
</a>
</g>
</g>
<!-- Node6&#45;&gt;Node7 -->
<g id="edge6" class="edge">
<title>Node6&#45;&gt;Node7</title>
<path fill="none" stroke="midnightblue" d="M126.89,-229.98C111.44,-220.3 86.01,-204.37 67.68,-192.89"/>
<polygon fill="midnightblue" stroke="midnightblue" points="69.42,-189.85 59.09,-187.51 65.7,-195.78 69.42,-189.85"/>
</g>
<!-- Node9 -->
<g id="node9" class="node">
<title>Node9</title>
<g id="a_node9"><a xlink:href="Scene_8hpp.html" target="_top" xlink:title=" ">
<polygon fill="none" stroke="black" points="109.5,-168.5 109.5,-187.5 171.5,-187.5 171.5,-168.5 109.5,-168.5"/>
<text text-anchor="middle" x="140.5" y="-175.5" font-family="Helvetica,sans-Serif" font-size="10.00">Scene.hpp</text>
</a>
</g>
</g>
<!-- Node6&#45;&gt;Node9 -->
<g id="edge9" class="edge">
<title>Node6&#45;&gt;Node9</title>
<path fill="none" stroke="midnightblue" d="M140.5,-229.98C140.5,-221.58 140.5,-208.48 140.5,-197.66"/>
<polygon fill="midnightblue" stroke="midnightblue" points="144,-197.51 140.5,-187.51 137,-197.51 144,-197.51"/>
</g>
<!-- Node8 -->
<g id="node8" class="node">
<title>Node8</title>
<g id="a_node8"><a xlink:href="WindowConfig_8hpp.html" target="_top" xlink:title=" ">
<polygon fill="none" stroke="black" points="75.5,-112.5 75.5,-131.5 171.5,-131.5 171.5,-112.5 75.5,-112.5"/>
<text text-anchor="middle" x="123.5" y="-119.5" font-family="Helvetica,sans-Serif" font-size="10.00">WindowConfig.hpp</text>
</a>
</g>
</g>
<!-- Node7&#45;&gt;Node8 -->
<g id="edge7" class="edge">
<title>Node7&#45;&gt;Node8</title>
<path fill="none" stroke="midnightblue" d="M58.03,-168.32C70.09,-159.98 88.53,-147.21 102.77,-137.35"/>
<polygon fill="midnightblue" stroke="midnightblue" points="104.77,-140.22 111,-131.65 100.78,-134.47 104.77,-140.22"/>
</g>
<!-- Node8&#45;&gt;Node5 -->
<g id="edge8" class="edge">
<title>Node8&#45;&gt;Node5</title>
<path fill="none" stroke="midnightblue" d="M171.7,-113.83C247.54,-102.55 392.59,-80.97 455.79,-71.57"/>
<polygon fill="midnightblue" stroke="midnightblue" points="456.53,-75 465.91,-70.06 455.5,-68.07 456.53,-75"/>
</g>
<!-- Node10 -->
<g id="node10" class="node">
<title>Node10</title>
<g id="a_node10"><a xlink:title=" ">
<polygon fill="none" stroke="#bfbfbf" points="718.5,-112.5 718.5,-131.5 762.5,-131.5 762.5,-112.5 718.5,-112.5"/>
<text text-anchor="middle" x="740.5" y="-119.5" font-family="Helvetica,sans-Serif" font-size="10.00">vector</text>
</a>
</g>
</g>
<!-- Node9&#45;&gt;Node10 -->
<g id="edge10" class="edge">
<title>Node9&#45;&gt;Node10</title>
<path fill="none" stroke="midnightblue" d="M171.62,-173.21C186.15,-171.5 203.7,-169.53 219.5,-168 420.09,-148.59 471.08,-153.04 671.5,-132 683.55,-130.74 696.75,-129.08 708.35,-127.53"/>
<polygon fill="midnightblue" stroke="midnightblue" points="709.03,-130.97 718.47,-126.16 708.09,-124.04 709.03,-130.97"/>
</g>
<!-- Node11 -->
<g id="node11" class="node">
<title>Node11</title>
<g id="a_node11"><a xlink:title=" ">
<polygon fill="none" stroke="#bfbfbf" points="765,-0.5 765,-19.5 816,-19.5 816,-0.5 765,-0.5"/>
<text text-anchor="middle" x="790.5" y="-7.5" font-family="Helvetica,sans-Serif" font-size="10.00">memory</text>
</a>
</g>
</g>
<!-- Node9&#45;&gt;Node11 -->
<g id="edge11" class="edge">
<title>Node9&#45;&gt;Node11</title>
<path fill="none" stroke="midnightblue" d="M117.12,-168.43C88.77,-156.76 47.05,-134.74 66.5,-112 111.93,-58.89 615.15,-22.4 754.77,-13.25"/>
<polygon fill="midnightblue" stroke="midnightblue" points="755.17,-16.73 764.92,-12.59 754.72,-9.75 755.17,-16.73"/>
</g>
<!-- Node13 -->
<g id="node13" class="node">
<title>Node13</title>
<g id="a_node13"><a xlink:href="BehaviourScript_8hpp.html" target="_top" xlink:title=" ">
<polygon fill="none" stroke="black" points="996.5,-168.5 996.5,-187.5 1100.5,-187.5 1100.5,-168.5 996.5,-168.5"/>
<text text-anchor="middle" x="1048.5" y="-175.5" font-family="Helvetica,sans-Serif" font-size="10.00">BehaviourScript.hpp</text>
</a>
</g>
</g>
<!-- Node12&#45;&gt;Node13 -->
<g id="edge13" class="edge">
<title>Node12&#45;&gt;Node13</title>
<path fill="none" stroke="midnightblue" d="M693.75,-356.34C777.57,-353.49 926.77,-336.28 1018.5,-255 1035.13,-240.26 1042.64,-215.09 1045.97,-197.79"/>
<polygon fill="midnightblue" stroke="midnightblue" points="1049.45,-198.17 1047.6,-187.74 1042.54,-197.04 1049.45,-198.17"/>
</g>
<!-- Node16 -->
<g id="node16" class="node">
<title>Node16</title>
<g id="a_node16"><a xlink:href="LevelData_8hpp.html" target="_top" xlink:title=" ">
<polygon fill="none" stroke="black" points="567.5,-291.5 567.5,-310.5 695.5,-310.5 695.5,-291.5 567.5,-291.5"/>
<text text-anchor="middle" x="631.5" y="-298.5" font-family="Helvetica,sans-Serif" font-size="10.00">../../Structs/LevelData.hpp</text>
</a>
</g>
</g>
<!-- Node12&#45;&gt;Node16 -->
<g id="edge18" class="edge">
<title>Node12&#45;&gt;Node16</title>
<path fill="none" stroke="midnightblue" d="M631.5,-347.08C631.5,-340.01 631.5,-329.86 631.5,-320.99"/>
<polygon fill="midnightblue" stroke="midnightblue" points="635,-320.75 631.5,-310.75 628,-320.75 635,-320.75"/>
</g>
<!-- Node14 -->
<g id="node14" class="node">
<title>Node14</title>
<g id="a_node14"><a xlink:href="Component_8hpp.html" target="_top" xlink:title=" ">
<polygon fill="none" stroke="black" points="972.5,-56.5 972.5,-75.5 1056.5,-75.5 1056.5,-56.5 972.5,-56.5"/>
<text text-anchor="middle" x="1014.5" y="-63.5" font-family="Helvetica,sans-Serif" font-size="10.00">Component.hpp</text>
</a>
</g>
</g>
<!-- Node13&#45;&gt;Node14 -->
<g id="edge14" class="edge">
<title>Node13&#45;&gt;Node14</title>
<path fill="none" stroke="midnightblue" d="M1060.08,-168.48C1075.34,-156.15 1098.98,-132.57 1087.5,-112 1079.34,-97.39 1064.28,-86.94 1049.95,-79.8"/>
<polygon fill="midnightblue" stroke="midnightblue" points="1051.26,-76.56 1040.71,-75.59 1048.35,-82.92 1051.26,-76.56"/>
</g>
<!-- Node15 -->
<g id="node15" class="node">
<title>Node15</title>
<g id="a_node15"><a xlink:href="Collider_8hpp.html" target="_top" xlink:title=" ">
<polygon fill="none" stroke="black" points="1011,-112.5 1011,-131.5 1078,-131.5 1078,-112.5 1011,-112.5"/>
<text text-anchor="middle" x="1044.5" y="-119.5" font-family="Helvetica,sans-Serif" font-size="10.00">Collider.hpp</text>
</a>
</g>
</g>
<!-- Node13&#45;&gt;Node15 -->
<g id="edge16" class="edge">
<title>Node13&#45;&gt;Node15</title>
<path fill="none" stroke="midnightblue" d="M1047.84,-168.08C1047.32,-161.01 1046.56,-150.86 1045.91,-141.99"/>
<polygon fill="midnightblue" stroke="midnightblue" points="1049.38,-141.47 1045.15,-131.75 1042.4,-141.98 1049.38,-141.47"/>
</g>
<!-- Node14&#45;&gt;Node11 -->
<g id="edge15" class="edge">
<title>Node14&#45;&gt;Node11</title>
<path fill="none" stroke="midnightblue" d="M979.01,-56.44C937.07,-46.33 867.71,-29.61 825.84,-19.52"/>
<polygon fill="midnightblue" stroke="midnightblue" points="826.61,-16.11 816.07,-17.16 824.97,-22.91 826.61,-16.11"/>
</g>
<!-- Node15&#45;&gt;Node14 -->
<g id="edge17" class="edge">
<title>Node15&#45;&gt;Node14</title>
<path fill="none" stroke="midnightblue" d="M1039.55,-112.08C1035.4,-104.61 1029.35,-93.72 1024.23,-84.52"/>
<polygon fill="midnightblue" stroke="midnightblue" points="1027.28,-82.79 1019.36,-75.75 1021.16,-86.19 1027.28,-82.79"/>
</g>
<!-- Node17 -->
<g id="node17" class="node">
<title>Node17</title>
<g id="a_node17"><a xlink:href="WaveData_8hpp.html" target="_top" xlink:title=" ">
<polygon fill="none" stroke="black" points="515.5,-230 515.5,-249 595.5,-249 595.5,-230 515.5,-230"/>
<text text-anchor="middle" x="555.5" y="-237" font-family="Helvetica,sans-Serif" font-size="10.00">WaveData.hpp</text>
</a>
</g>
</g>
<!-- Node16&#45;&gt;Node17 -->
<g id="edge19" class="edge">
<title>Node16&#45;&gt;Node17</title>
<path fill="none" stroke="midnightblue" d="M620.61,-291.48C608.53,-282.02 588.83,-266.6 574.26,-255.19"/>
<polygon fill="midnightblue" stroke="midnightblue" points="576.4,-252.42 566.37,-249.01 572.09,-257.93 576.4,-252.42"/>
</g>
<!-- Node19 -->
<g id="node19" class="node">
<title>Node19</title>
<g id="a_node19"><a xlink:title=" ">
<polygon fill="none" stroke="#bfbfbf" points="438,-168.5 438,-187.5 481,-187.5 481,-168.5 438,-168.5"/>
<text text-anchor="middle" x="459.5" y="-175.5" font-family="Helvetica,sans-Serif" font-size="10.00">queue</text>
</a>
</g>
</g>
<!-- Node16&#45;&gt;Node19 -->
<g id="edge46" class="edge">
<title>Node16&#45;&gt;Node19</title>
<path fill="none" stroke="midnightblue" d="M586.2,-291.44C560.68,-284.84 529.43,-273.59 506.5,-255 487.44,-239.55 473.99,-214.18 466.49,-197.04"/>
<polygon fill="midnightblue" stroke="midnightblue" points="469.65,-195.51 462.6,-187.6 463.18,-198.18 469.65,-195.51"/>
</g>
<!-- Node22 -->
<g id="node22" class="node">
<title>Node22</title>
<g id="a_node22"><a xlink:href="MapNode_8hpp.html" target="_top" xlink:title=" ">
<polygon fill="none" stroke="black" points="670,-230 670,-249 747,-249 747,-230 670,-230"/>
<text text-anchor="middle" x="708.5" y="-237" font-family="Helvetica,sans-Serif" font-size="10.00">MapNode.hpp</text>
</a>
</g>
</g>
<!-- Node16&#45;&gt;Node22 -->
<g id="edge30" class="edge">
<title>Node16&#45;&gt;Node22</title>
<path fill="none" stroke="midnightblue" d="M642.53,-291.48C654.77,-282.02 674.73,-266.6 689.49,-255.19"/>
<polygon fill="midnightblue" stroke="midnightblue" points="691.72,-257.89 697.49,-249.01 687.44,-252.35 691.72,-257.89"/>
</g>
<!-- Node24 -->
<g id="node24" class="node">
<title>Node24</title>
<g id="a_node24"><a xlink:href="HealthBehaviour_8hpp.html" target="_top" xlink:title=" ">
<polygon fill="none" stroke="black" points="881.5,-224.5 881.5,-254.5 1009.5,-254.5 1009.5,-224.5 881.5,-224.5"/>
<text text-anchor="start" x="889.5" y="-242.5" font-family="Helvetica,sans-Serif" font-size="10.00">../Scripts/Common/Health</text>
<text text-anchor="middle" x="945.5" y="-231.5" font-family="Helvetica,sans-Serif" font-size="10.00">Behaviour.hpp</text>
</a>
</g>
</g>
<!-- Node16&#45;&gt;Node24 -->
<g id="edge35" class="edge">
<title>Node16&#45;&gt;Node24</title>
<path fill="none" stroke="midnightblue" d="M676.49,-291.48C727.33,-281.84 810.87,-266.01 871.38,-254.54"/>
<polygon fill="midnightblue" stroke="midnightblue" points="872.09,-257.97 881.26,-252.67 870.79,-251.1 872.09,-257.97"/>
</g>
<!-- Node17&#45;&gt;Node11 -->
<g id="edge21" class="edge">
<title>Node17&#45;&gt;Node11</title>
<path fill="none" stroke="midnightblue" d="M547.96,-229.58C520.91,-197.1 431.7,-85.52 457.5,-56 495.77,-12.21 676.4,-9.33 754.44,-10.2"/>
<polygon fill="midnightblue" stroke="midnightblue" points="754.7,-13.71 764.75,-10.35 754.8,-6.71 754.7,-13.71"/>
</g>
<!-- Node18 -->
<g id="node18" class="node">
<title>Node18</title>
<g id="a_node18"><a xlink:title=" ">
<polygon fill="none" stroke="#bfbfbf" points="538,-168.5 538,-187.5 573,-187.5 573,-168.5 538,-168.5"/>
<text text-anchor="middle" x="555.5" y="-175.5" font-family="Helvetica,sans-Serif" font-size="10.00">map</text>
</a>
</g>
</g>
<!-- Node17&#45;&gt;Node18 -->
<g id="edge20" class="edge">
<title>Node17&#45;&gt;Node18</title>
<path fill="none" stroke="midnightblue" d="M555.5,-229.98C555.5,-221.58 555.5,-208.48 555.5,-197.66"/>
<polygon fill="midnightblue" stroke="midnightblue" points="559,-197.51 555.5,-187.51 552,-197.51 559,-197.51"/>
</g>
<!-- Node17&#45;&gt;Node19 -->
<g id="edge22" class="edge">
<title>Node17&#45;&gt;Node19</title>
<path fill="none" stroke="midnightblue" d="M541.75,-229.98C526.13,-220.3 500.44,-204.37 481.92,-192.89"/>
<polygon fill="midnightblue" stroke="midnightblue" points="483.57,-189.8 473.23,-187.51 479.88,-195.75 483.57,-189.8"/>
</g>
<!-- Node20 -->
<g id="node20" class="node">
<title>Node20</title>
<g id="a_node20"><a xlink:href="GameObject_8hpp.html" target="_top" xlink:title=" ">
<polygon fill="none" stroke="black" points="591,-168.5 591,-187.5 680,-187.5 680,-168.5 591,-168.5"/>
<text text-anchor="middle" x="635.5" y="-175.5" font-family="Helvetica,sans-Serif" font-size="10.00">GameObject.hpp</text>
</a>
</g>
</g>
<!-- Node17&#45;&gt;Node20 -->
<g id="edge23" class="edge">
<title>Node17&#45;&gt;Node20</title>
<path fill="none" stroke="midnightblue" d="M566.96,-229.98C579.67,-220.52 600.41,-205.1 615.75,-193.69"/>
<polygon fill="midnightblue" stroke="midnightblue" points="618.12,-196.29 624.06,-187.51 613.95,-190.67 618.12,-196.29"/>
</g>
<!-- Node20&#45;&gt;Node5 -->
<g id="edge27" class="edge">
<title>Node20&#45;&gt;Node5</title>
<path fill="none" stroke="midnightblue" d="M591.84,-168.44C555.27,-160.34 507.09,-147.18 494.5,-132 483.96,-119.29 482.81,-100.09 483.78,-85.85"/>
<polygon fill="midnightblue" stroke="midnightblue" points="487.28,-86.03 484.87,-75.71 480.32,-85.28 487.28,-86.03"/>
</g>
<!-- Node20&#45;&gt;Node10 -->
<g id="edge28" class="edge">
<title>Node20&#45;&gt;Node10</title>
<path fill="none" stroke="midnightblue" d="M652.37,-168.32C669.21,-159.66 695.31,-146.24 714.74,-136.25"/>
<polygon fill="midnightblue" stroke="midnightblue" points="716.38,-139.34 723.67,-131.65 713.18,-133.12 716.38,-139.34"/>
</g>
<!-- Node20&#45;&gt;Node11 -->
<g id="edge29" class="edge">
<title>Node20&#45;&gt;Node11</title>
<path fill="none" stroke="midnightblue" d="M643.83,-168.08C668.87,-141.27 743.64,-61.19 775.67,-26.89"/>
<polygon fill="midnightblue" stroke="midnightblue" points="778.23,-29.27 782.5,-19.57 773.12,-24.49 778.23,-29.27"/>
</g>
<!-- Node20&#45;&gt;Node14 -->
<g id="edge24" class="edge">
<title>Node20&#45;&gt;Node14</title>
<path fill="none" stroke="midnightblue" d="M680.19,-173.05C731.36,-167.62 817.16,-155.69 887.5,-132 926.21,-118.96 967.76,-95.74 992.42,-80.87"/>
<polygon fill="midnightblue" stroke="midnightblue" points="994.3,-83.83 1001,-75.62 990.64,-77.86 994.3,-83.83"/>
</g>
<!-- Node21 -->
<g id="node21" class="node">
<title>Node21</title>
<g id="a_node21"><a xlink:href="Transform_8hpp.html" target="_top" xlink:title=" ">
<polygon fill="none" stroke="black" points="583,-112.5 583,-131.5 662,-131.5 662,-112.5 583,-112.5"/>
<text text-anchor="middle" x="622.5" y="-119.5" font-family="Helvetica,sans-Serif" font-size="10.00">Transform.hpp</text>
</a>
</g>
</g>
<!-- Node20&#45;&gt;Node21 -->
<g id="edge25" class="edge">
<title>Node20&#45;&gt;Node21</title>
<path fill="none" stroke="midnightblue" d="M633.35,-168.08C631.63,-160.93 629.15,-150.64 627,-141.69"/>
<polygon fill="midnightblue" stroke="midnightblue" points="630.35,-140.65 624.61,-131.75 623.54,-142.29 630.35,-140.65"/>
</g>
<!-- Node21&#45;&gt;Node3 -->
<g id="edge26" class="edge">
<title>Node21&#45;&gt;Node3</title>
<path fill="none" stroke="midnightblue" d="M616.89,-112.08C612.13,-104.53 605.18,-93.49 599.35,-84.23"/>
<polygon fill="midnightblue" stroke="midnightblue" points="602.3,-82.35 594.01,-75.75 596.38,-86.08 602.3,-82.35"/>
</g>
<!-- Node22&#45;&gt;Node10 -->
<g id="edge31" class="edge">
<title>Node22&#45;&gt;Node10</title>
<path fill="none" stroke="midnightblue" d="M710.79,-229.8C714.31,-216.48 721.3,-190.22 727.5,-168 729.96,-159.18 732.78,-149.41 735.15,-141.23"/>
<polygon fill="midnightblue" stroke="midnightblue" points="738.52,-142.19 737.96,-131.61 731.8,-140.23 738.52,-142.19"/>
</g>
<!-- Node22&#45;&gt;Node11 -->
<g id="edge32" class="edge">
<title>Node22&#45;&gt;Node11</title>
<path fill="none" stroke="midnightblue" d="M747.24,-237.29C782.45,-233.88 832.59,-222.74 857.5,-188 882.02,-153.8 811.95,-136.07 809.5,-132 790.21,-99.92 788.46,-54.74 789.26,-29.65"/>
<polygon fill="midnightblue" stroke="midnightblue" points="792.75,-29.81 789.74,-19.65 785.76,-29.47 792.75,-29.81"/>
</g>
<!-- Node22&#45;&gt;Node20 -->
<g id="edge33" class="edge">
<title>Node22&#45;&gt;Node20</title>
<path fill="none" stroke="midnightblue" d="M698.04,-229.98C686.55,-220.61 667.87,-205.38 653.91,-194.01"/>
<polygon fill="midnightblue" stroke="midnightblue" points="655.9,-191.11 645.94,-187.51 651.48,-196.54 655.9,-191.11"/>
</g>
<!-- Node23 -->
<g id="node23" class="node">
<title>Node23</title>
<g id="a_node23"><a xlink:href="TileType_8hpp.html" target="_top" xlink:title=" ">
<polygon fill="none" stroke="black" points="736.5,-168.5 736.5,-187.5 848.5,-187.5 848.5,-168.5 736.5,-168.5"/>
<text text-anchor="middle" x="792.5" y="-175.5" font-family="Helvetica,sans-Serif" font-size="10.00">../Enums/TileType.hpp</text>
</a>
</g>
</g>
<!-- Node22&#45;&gt;Node23 -->
<g id="edge34" class="edge">
<title>Node22&#45;&gt;Node23</title>
<path fill="none" stroke="midnightblue" d="M720.54,-229.98C734.01,-220.43 756.07,-204.81 772.22,-193.37"/>
<polygon fill="midnightblue" stroke="midnightblue" points="774.35,-196.15 780.49,-187.51 770.3,-190.43 774.35,-196.15"/>
</g>
<!-- Node24&#45;&gt;Node11 -->
<g id="edge37" class="edge">
<title>Node24&#45;&gt;Node11</title>
<path fill="none" stroke="midnightblue" d="M1009.68,-236.37C1045.21,-231.5 1086.67,-218.92 1109.5,-188 1117.42,-177.27 1114.42,-144.26 1102.5,-112 1092.16,-84.02 1090.54,-72.21 1065.5,-56 1026.55,-30.78 891.57,-18.09 826.34,-13.31"/>
<polygon fill="midnightblue" stroke="midnightblue" points="826.35,-9.8 816.12,-12.59 825.85,-16.79 826.35,-9.8"/>
</g>
<!-- Node24&#45;&gt;Node13 -->
<g id="edge36" class="edge">
<title>Node24&#45;&gt;Node13</title>
<path fill="none" stroke="midnightblue" d="M969.91,-224.4C986.42,-214.86 1008.12,-202.32 1024.54,-192.84"/>
<polygon fill="midnightblue" stroke="midnightblue" points="1026.6,-195.69 1033.51,-187.66 1023.1,-189.63 1026.6,-195.69"/>
</g>
<!-- Node25 -->
<g id="node25" class="node">
<title>Node25</title>
<g id="a_node25"><a xlink:href="Animator_8hpp.html" target="_top" xlink:title=" ">
<polygon fill="none" stroke="black" points="904.5,-168.5 904.5,-187.5 978.5,-187.5 978.5,-168.5 904.5,-168.5"/>
<text text-anchor="middle" x="941.5" y="-175.5" font-family="Helvetica,sans-Serif" font-size="10.00">Animator.hpp</text>
</a>
</g>
</g>
<!-- Node24&#45;&gt;Node25 -->
<g id="edge38" class="edge">
<title>Node24&#45;&gt;Node25</title>
<path fill="none" stroke="midnightblue" d="M944.55,-224.4C944.02,-216.47 943.35,-206.46 942.77,-197.86"/>
<polygon fill="midnightblue" stroke="midnightblue" points="946.24,-197.4 942.08,-187.66 939.26,-197.87 946.24,-197.4"/>
</g>
<!-- Node25&#45;&gt;Node10 -->
<g id="edge44" class="edge">
<title>Node25&#45;&gt;Node10</title>
<path fill="none" stroke="midnightblue" d="M909.65,-168.44C872.11,-158.36 810.09,-141.7 772.49,-131.6"/>
<polygon fill="midnightblue" stroke="midnightblue" points="773.14,-128.15 762.58,-128.93 771.33,-134.91 773.14,-128.15"/>
</g>
<!-- Node25&#45;&gt;Node11 -->
<g id="edge45" class="edge">
<title>Node25&#45;&gt;Node11</title>
<path fill="none" stroke="midnightblue" d="M939.71,-168.2C934.87,-146.44 919.59,-89.48 886.5,-56 869.9,-39.2 845.82,-27.94 825.93,-20.88"/>
<polygon fill="midnightblue" stroke="midnightblue" points="826.86,-17.5 816.26,-17.66 824.64,-24.14 826.86,-17.5"/>
</g>
<!-- Node25&#45;&gt;Node14 -->
<g id="edge39" class="edge">
<title>Node25&#45;&gt;Node14</title>
<path fill="none" stroke="midnightblue" d="M947.23,-168.37C959.28,-150.22 987.42,-107.8 1003.22,-83.99"/>
<polygon fill="midnightblue" stroke="midnightblue" points="1006.19,-85.86 1008.8,-75.59 1000.35,-81.99 1006.19,-85.86"/>
</g>
<!-- Node26 -->
<g id="node26" class="node">
<title>Node26</title>
<g id="a_node26"><a xlink:href="Sprite_8hpp.html" target="_top" xlink:title=" ">
<polygon fill="none" stroke="black" points="818.5,-112.5 818.5,-131.5 878.5,-131.5 878.5,-112.5 818.5,-112.5"/>
<text text-anchor="middle" x="848.5" y="-119.5" font-family="Helvetica,sans-Serif" font-size="10.00">Sprite.hpp</text>
</a>
</g>
</g>
<!-- Node25&#45;&gt;Node26 -->
<g id="edge40" class="edge">
<title>Node25&#45;&gt;Node26</title>
<path fill="none" stroke="midnightblue" d="M926.56,-168.32C911.91,-159.82 889.37,-146.73 872.26,-136.8"/>
<polygon fill="midnightblue" stroke="midnightblue" points="873.81,-133.65 863.4,-131.65 870.3,-139.7 873.81,-133.65"/>
</g>
<!-- Node26&#45;&gt;Node4 -->
<g id="edge42" class="edge">
<title>Node26&#45;&gt;Node4</title>
<path fill="none" stroke="midnightblue" d="M848.5,-112.08C848.5,-105.01 848.5,-94.86 848.5,-85.99"/>
<polygon fill="midnightblue" stroke="midnightblue" points="852,-85.75 848.5,-75.75 845,-85.75 852,-85.75"/>
</g>
<!-- Node26&#45;&gt;Node5 -->
<g id="edge43" class="edge">
<title>Node26&#45;&gt;Node5</title>
<path fill="none" stroke="midnightblue" d="M818.26,-116.49C750.19,-106.34 585.56,-81.78 517.13,-71.57"/>
<polygon fill="midnightblue" stroke="midnightblue" points="517.41,-68.07 507,-70.06 516.38,-75 517.41,-68.07"/>
</g>
<!-- Node26&#45;&gt;Node14 -->
<g id="edge41" class="edge">
<title>Node26&#45;&gt;Node14</title>
<path fill="none" stroke="midnightblue" d="M874.8,-112.44C902.85,-103.32 947.44,-88.81 978.68,-78.65"/>
<polygon fill="midnightblue" stroke="midnightblue" points="979.89,-81.94 988.32,-75.52 977.73,-75.28 979.89,-81.94"/>
</g>
<!-- Node28 -->
<g id="node28" class="node">
<title>Node28</title>
<g id="a_node28"><a xlink:href="MenuScene_8hpp.html" target="_top" xlink:title=" ">
<polygon fill="none" stroke="black" points="217.5,-230 217.5,-249 303.5,-249 303.5,-230 217.5,-230"/>
<text text-anchor="middle" x="260.5" y="-237" font-family="Helvetica,sans-Serif" font-size="10.00">MenuScene.hpp</text>
</a>
</g>
</g>
<!-- Node27&#45;&gt;Node28 -->
<g id="edge48" class="edge">
<title>Node27&#45;&gt;Node28</title>
<path fill="none" stroke="midnightblue" d="M285.47,-347.32C281.11,-328.67 270.77,-284.44 264.86,-259.13"/>
<polygon fill="midnightblue" stroke="midnightblue" points="268.24,-258.22 262.55,-249.28 261.42,-259.82 268.24,-258.22"/>
</g>
<!-- Node28&#45;&gt;Node5 -->
<g id="edge51" class="edge">
<title>Node28&#45;&gt;Node5</title>
<path fill="none" stroke="midnightblue" d="M249.08,-229.99C232.35,-216.48 204.69,-189.43 219.5,-168 273.87,-89.31 398,-71.86 455.82,-68.04"/>
<polygon fill="midnightblue" stroke="midnightblue" points="456.02,-71.54 465.81,-67.48 455.63,-64.55 456.02,-71.54"/>
</g>
<!-- Node28&#45;&gt;Node9 -->
<g id="edge49" class="edge">
<title>Node28&#45;&gt;Node9</title>
<path fill="none" stroke="midnightblue" d="M243.31,-229.98C223.26,-220.03 189.9,-203.49 166.64,-191.96"/>
<polygon fill="midnightblue" stroke="midnightblue" points="168.18,-188.82 157.66,-187.51 165.07,-195.09 168.18,-188.82"/>
</g>
<!-- Node29 -->
<g id="node29" class="node">
<title>Node29</title>
<g id="a_node29"><a xlink:href="BackgroundName_8hpp.html" target="_top" xlink:title=" ">
<polygon fill="none" stroke="black" points="228,-168.5 228,-187.5 381,-187.5 381,-168.5 228,-168.5"/>
<text text-anchor="middle" x="304.5" y="-175.5" font-family="Helvetica,sans-Serif" font-size="10.00">../Enums/BackgroundName.hpp</text>
</a>
</g>
</g>
<!-- Node28&#45;&gt;Node29 -->
<g id="edge50" class="edge">
<title>Node28&#45;&gt;Node29</title>
<path fill="none" stroke="midnightblue" d="M266.8,-229.98C273.4,-221.05 283.94,-206.81 292.19,-195.64"/>
<polygon fill="midnightblue" stroke="midnightblue" points="295.08,-197.63 298.21,-187.51 289.45,-193.47 295.08,-197.63"/>
</g>
</g>
</svg>
        <g id="navigator" transform="translate(0 0)" fill="#404254">
                <rect fill="#f2f5e9" fill-opacity="0.5" stroke="#606060" stroke-width=".5" x="0" y="0" width="60" height="60"/>
                <use id="zoomplus" xlink:href="#zoomPlus" x="17" y="9" onmousedown="handleZoom(evt,'in')"/>
                <use id="zoomminus" xlink:href="#zoomMin" x="42" y="9" onmousedown="handleZoom(evt,'out')"/>
                <use id="reset" xlink:href="#resetDef" x="30" y="36" onmousedown="handleReset()"/>
                <g id="arrowUp" xlink:href="#dirArrow" transform="translate(30 24)" onmousedown="handlePan(0,-1)">
                  <use xlink:href="#rim" fill="#404040">
                        <set attributeName="fill" to="#808080" begin="arrowUp.mouseover" end="arrowUp.mouseout"/>
                  </use>
                  <path fill="none" stroke="white" stroke-width="1.5" d="M0,-3.0v7 M-2.5,-0.5L0,-3.0L2.5,-0.5"/>
                </g>
                <g id="arrowRight" xlink:href="#dirArrow" transform="rotate(90) translate(36 -43)" onmousedown="handlePan(1,0)">
                  <use xlink:href="#rim" fill="#404040">
                        <set attributeName="fill" to="#808080" begin="arrowRight.mouseover" end="arrowRight.mouseout"/>
                  </use>
                  <path fill="none" stroke="white" stroke-width="1.5" d="M0,-3.0v7 M-2.5,-0.5L0,-3.0L2.5,-0.5"/>
                </g>
                <g id="arrowDown" xlink:href="#dirArrow" transform="rotate(180) translate(-30 -48)" onmousedown="handlePan(0,1)">
                  <use xlink:href="#rim" fill="#404040">
                        <set attributeName="fill" to="#808080" begin="arrowDown.mouseover" end="arrowDown.mouseout"/>
                  </use>
                  <path fill="none" stroke="white" stroke-width="1.5" d="M0,-3.0v7 M-2.5,-0.5L0,-3.0L2.5,-0.5"/>
                </g>
                <g id="arrowLeft" xlink:href="#dirArrow" transform="rotate(270) translate(-36 17)" onmousedown="handlePan(-1,0)">
                  <use xlink:href="#rim" fill="#404040">
                        <set attributeName="fill" to="#808080" begin="arrowLeft.mouseover" end="arrowLeft.mouseout"/>
                  </use>
                  <path fill="none" stroke="white" stroke-width="1.5" d="M0,-3.0v7 M-2.5,-0.5L0,-3.0L2.5,-0.5"/>
                </g>
        </g>
        <svg viewBox="0 0 15 15" width="100%" height="30px" preserveAspectRatio="xMaxYMin meet">
         <g id="arrow_out" transform="scale(0.3 0.3)">
          <a xlink:href="GameLostBehaviour_8cpp__incl_org.svg" target="_base">
           <rect id="button" ry="5" rx="5" y="6" x="6" height="38" width="38"
                fill="#f2f5e9" fill-opacity="0.5" stroke="#606060" stroke-width="1.0"/>
           <path id="arrow"
             d="M 11.500037,31.436501 C 11.940474,20.09759 22.043105,11.32322 32.158766,21.979434 L 37.068811,17.246167 C 37.068811,17.246167 37.088388,32 37.088388,32 L 22.160133,31.978069 C 22.160133,31.978069 26.997745,27.140456 26.997745,27.140456 C 18.528582,18.264221 13.291696,25.230495 11.500037,31.436501 z"
             style="fill:#404040;"/>
          </a>
         </g>
        </svg>
</svg>
