<?xml version="1.0" encoding="UTF-8" standalone="no"?>
<!DOCTYPE svg PUBLIC "-//W3C//DTD SVG 1.1//EN"
 "http://www.w3.org/Graphics/SVG/1.1/DTD/svg11.dtd">
<!-- Generated by graphviz version 2.44.0 ()
 -->
<!-- Title: src/Factories/HealthBarFactory.cpp Pages: 1 -->
<!--zoomable 386 -->
<svg id="main" version="1.1" xmlns="http://www.w3.org/2000/svg" xmlns:xlink="http://www.w3.org/1999/xlink" xml:space="preserve" onload="init(evt)">
<style type="text/css"><![CDATA[
.edge:hover path { stroke: red; }
.edge:hover polygon { stroke: red; fill: red; }
]]></style>
<script type="text/javascript"><![CDATA[
var edges = document.getElementsByTagName('g');
if (edges && edges.length) {
  for (var i=0;i<edges.length;i++) {
    if (edges[i].id.substr(0,4)=='edge') {
      edges[i].setAttribute('class','edge');
    }
  }
}
]]></script>
        <defs>
                <circle id="rim" cx="0" cy="0" r="7"/>
                <circle id="rim2" cx="0" cy="0" r="3.5"/>
                <g id="zoomPlus">
                        <use xlink:href="#rim" fill="#404040">
                                <set attributeName="fill" to="#808080" begin="zoomplus.mouseover" end="zoomplus.mouseout"/>
                        </use>
                        <path d="M-4,0h8M0,-4v8" fill="none" stroke="white" stroke-width="1.5" pointer-events="none"/>
                </g>
                <g id="zoomMin">
                        <use xlink:href="#rim" fill="#404040">
                                <set attributeName="fill" to="#808080" begin="zoomminus.mouseover" end="zoomminus.mouseout"/>
                        </use>
                        <path d="M-4,0h8" fill="none" stroke="white" stroke-width="1.5" pointer-events="none"/>
                </g>
                <g id="dirArrow">
                        <path fill="none" stroke="white" stroke-width="1.5" d="M0,-3.0v7 M-2.5,-0.5L0,-3.0L2.5,-0.5"/>
                </g>
               <g id="resetDef">
                       <use xlink:href="#rim2" fill="#404040">
                               <set attributeName="fill" to="#808080" begin="reset.mouseover" end="reset.mouseout"/>
                       </use>
               </g>
        </defs>

<script type="text/javascript">
var viewWidth = 888;
var viewHeight = 386;
var sectionId = 'dynsection-0';
</script>
<script xlink:href="svgpan.js"/>
<svg id="graph" class="graph">
<g id="viewport">
<title>src/Factories/HealthBarFactory.cpp</title>
<!-- Node1 -->
<g id="node1" class="node">
<title>Node1</title>
<g id="a_node1"><a xlink:title=" ">
<polygon fill="#bfbfbf" stroke="black" points="396,-358.5 396,-377.5 566,-377.5 566,-358.5 396,-358.5"/>
<text text-anchor="middle" x="481" y="-365.5" font-family="Helvetica,sans-Serif" font-size="10.00">src/Factories/HealthBarFactory.cpp</text>
</a>
</g>
</g>
<!-- Node2 -->
<g id="node2" class="node">
<title>Node2</title>
<g id="a_node2"><a xlink:href="HealthBarFactory_8hpp.html" target="_top" xlink:title=" ">
<polygon fill="none" stroke="black" points="194,-297 194,-316 304,-316 304,-297 194,-297"/>
<text text-anchor="middle" x="249" y="-304" font-family="Helvetica,sans-Serif" font-size="10.00">HealthBarFactory.hpp</text>
</a>
</g>
</g>
<!-- Node1&#45;&gt;Node2 -->
<g id="edge1" class="edge">
<title>Node1&#45;&gt;Node2</title>
<path fill="none" stroke="midnightblue" d="M447.76,-358.48C406.76,-347.96 336.97,-330.06 291.95,-318.51"/>
<polygon fill="midnightblue" stroke="midnightblue" points="292.73,-315.1 282.18,-316.01 291,-321.88 292.73,-315.1"/>
</g>
<!-- Node14 -->
<g id="node14" class="node">
<title>Node14</title>
<g id="a_node14"><a xlink:href="Sprite_8hpp.html" target="_top" xlink:title=" ">
<polygon fill="none" stroke="black" points="328,-112.5 328,-131.5 388,-131.5 388,-112.5 328,-112.5"/>
<text text-anchor="middle" x="358" y="-119.5" font-family="Helvetica,sans-Serif" font-size="10.00">Sprite.hpp</text>
</a>
</g>
</g>
<!-- Node1&#45;&gt;Node14 -->
<g id="edge25" class="edge">
<title>Node1&#45;&gt;Node14</title>
<path fill="none" stroke="midnightblue" d="M425.62,-358.46C403.77,-352.14 380.66,-341.14 367,-322 327.66,-266.9 343.22,-179.71 352.72,-141.72"/>
<polygon fill="midnightblue" stroke="midnightblue" points="356.23,-142.17 355.41,-131.6 349.46,-140.37 356.23,-142.17"/>
</g>
<!-- Node16 -->
<g id="node16" class="node">
<title>Node16</title>
<g id="a_node16"><a xlink:href="Layer_8hpp.html" target="_top" xlink:title=" ">
<polygon fill="none" stroke="black" points="554.5,-297 554.5,-316 653.5,-316 653.5,-297 554.5,-297"/>
<text text-anchor="middle" x="604" y="-304" font-family="Helvetica,sans-Serif" font-size="10.00">../Enums/Layer.hpp</text>
</a>
</g>
</g>
<!-- Node1&#45;&gt;Node16 -->
<g id="edge26" class="edge">
<title>Node1&#45;&gt;Node16</title>
<path fill="none" stroke="midnightblue" d="M498.62,-358.48C519.17,-348.53 553.36,-331.99 577.21,-320.46"/>
<polygon fill="midnightblue" stroke="midnightblue" points="578.93,-323.51 586.41,-316.01 575.88,-317.21 578.93,-323.51"/>
</g>
<!-- Node17 -->
<g id="node17" class="node">
<title>Node17</title>
<g id="a_node17"><a xlink:href="SortingLayer_8hpp.html" target="_top" xlink:title=" ">
<polygon fill="none" stroke="black" points="672,-297 672,-316 802,-316 802,-297 672,-297"/>
<text text-anchor="middle" x="737" y="-304" font-family="Helvetica,sans-Serif" font-size="10.00">../Enums/SortingLayer.hpp</text>
</a>
</g>
</g>
<!-- Node1&#45;&gt;Node17 -->
<g id="edge27" class="edge">
<title>Node1&#45;&gt;Node17</title>
<path fill="none" stroke="midnightblue" d="M517.68,-358.48C563.21,-347.89 640.9,-329.84 690.55,-318.3"/>
<polygon fill="midnightblue" stroke="midnightblue" points="691.44,-321.68 700.39,-316.01 689.86,-314.86 691.44,-321.68"/>
</g>
<!-- Node18 -->
<g id="node18" class="node">
<title>Node18</title>
<g id="a_node18"><a xlink:href="HealthBarBehaviour_8hpp.html" target="_top" xlink:title=" ">
<polygon fill="none" stroke="black" points="376,-291.5 376,-321.5 498,-321.5 498,-291.5 376,-291.5"/>
<text text-anchor="start" x="384" y="-309.5" font-family="Helvetica,sans-Serif" font-size="10.00">../Scripts/Hud/HealthBar</text>
<text text-anchor="middle" x="437" y="-298.5" font-family="Helvetica,sans-Serif" font-size="10.00">Behaviour.hpp</text>
</a>
</g>
</g>
<!-- Node1&#45;&gt;Node18 -->
<g id="edge28" class="edge">
<title>Node1&#45;&gt;Node18</title>
<path fill="none" stroke="midnightblue" d="M474.7,-358.48C469.13,-350.94 460.76,-339.63 453.32,-329.57"/>
<polygon fill="midnightblue" stroke="midnightblue" points="456.13,-327.48 447.37,-321.52 450.5,-331.64 456.13,-327.48"/>
</g>
<!-- Node19 -->
<g id="node19" class="node">
<title>Node19</title>
<g id="a_node19"><a xlink:href="GameObjectUtil_8hpp.html" target="_top" xlink:title=" ">
<polygon fill="none" stroke="black" points="0,-168.5 0,-187.5 128,-187.5 128,-168.5 0,-168.5"/>
<text text-anchor="middle" x="64" y="-175.5" font-family="Helvetica,sans-Serif" font-size="10.00">Utils/GameObjectUtil.hpp</text>
</a>
</g>
</g>
<!-- Node1&#45;&gt;Node19 -->
<g id="edge32" class="edge">
<title>Node1&#45;&gt;Node19</title>
<path fill="none" stroke="midnightblue" d="M395.91,-360.72C321.58,-354.05 220.22,-341.69 185,-322 130.95,-291.79 90.37,-227.42 73.12,-196.41"/>
<polygon fill="midnightblue" stroke="midnightblue" points="76.19,-194.73 68.35,-187.6 70.03,-198.06 76.19,-194.73"/>
</g>
<!-- Node20 -->
<g id="node20" class="node">
<title>Node20</title>
<g id="a_node20"><a xlink:href="Constants_8hpp.html" target="_top" xlink:title=" ">
<polygon fill="none" stroke="black" points="720,-230 720,-249 806,-249 806,-230 720,-230"/>
<text text-anchor="middle" x="763" y="-237" font-family="Helvetica,sans-Serif" font-size="10.00">../Constants.hpp</text>
</a>
</g>
</g>
<!-- Node1&#45;&gt;Node20 -->
<g id="edge35" class="edge">
<title>Node1&#45;&gt;Node20</title>
<path fill="none" stroke="midnightblue" d="M485.8,-358.35C495.16,-342.35 517.45,-308.2 546,-291 608.43,-253.38 635.12,-271.99 706,-255 710.66,-253.88 715.52,-252.69 720.36,-251.48"/>
<polygon fill="midnightblue" stroke="midnightblue" points="721.34,-254.85 730.18,-249.01 719.63,-248.06 721.34,-254.85"/>
</g>
<!-- Node21 -->
<g id="node21" class="node">
<title>Node21</title>
<g id="a_node21"><a xlink:title=" ">
<polygon fill="none" stroke="#bfbfbf" points="820.5,-297 820.5,-316 879.5,-316 879.5,-297 820.5,-297"/>
<text text-anchor="middle" x="850" y="-304" font-family="Helvetica,sans-Serif" font-size="10.00">stdexcept</text>
</a>
</g>
</g>
<!-- Node1&#45;&gt;Node21 -->
<g id="edge37" class="edge">
<title>Node1&#45;&gt;Node21</title>
<path fill="none" stroke="midnightblue" d="M566.07,-360.59C633.3,-354.29 729.12,-342.54 811,-322 813.99,-321.25 817.06,-320.35 820.11,-319.37"/>
<polygon fill="midnightblue" stroke="midnightblue" points="821.34,-322.64 829.62,-316.04 819.03,-316.04 821.34,-322.64"/>
</g>
<!-- Node3 -->
<g id="node3" class="node">
<title>Node3</title>
<g id="a_node3"><a xlink:href="GameObject_8hpp.html" target="_top" xlink:title=" ">
<polygon fill="none" stroke="black" points="182.5,-112.5 182.5,-131.5 271.5,-131.5 271.5,-112.5 182.5,-112.5"/>
<text text-anchor="middle" x="227" y="-119.5" font-family="Helvetica,sans-Serif" font-size="10.00">GameObject.hpp</text>
</a>
</g>
</g>
<!-- Node2&#45;&gt;Node3 -->
<g id="edge2" class="edge">
<title>Node2&#45;&gt;Node3</title>
<path fill="none" stroke="midnightblue" d="M247.94,-296.7C244.55,-268.57 233.93,-180.46 229.25,-141.66"/>
<polygon fill="midnightblue" stroke="midnightblue" points="232.72,-141.22 228.05,-131.71 225.77,-142.06 232.72,-141.22"/>
</g>
<!-- Node5 -->
<g id="node5" class="node">
<title>Node5</title>
<g id="a_node5"><a xlink:title=" ">
<polygon fill="none" stroke="#bfbfbf" points="444.5,-0.5 444.5,-19.5 495.5,-19.5 495.5,-0.5 444.5,-0.5"/>
<text text-anchor="middle" x="470" y="-7.5" font-family="Helvetica,sans-Serif" font-size="10.00">memory</text>
</a>
</g>
</g>
<!-- Node2&#45;&gt;Node5 -->
<g id="edge24" class="edge">
<title>Node2&#45;&gt;Node5</title>
<path fill="none" stroke="midnightblue" d="M240.35,-296.62C207.4,-261.76 94.9,-132.43 161,-56 195.98,-15.55 360.58,-10.72 434.23,-10.63"/>
<polygon fill="midnightblue" stroke="midnightblue" points="434.4,-14.13 444.41,-10.65 434.41,-7.13 434.4,-14.13"/>
</g>
<!-- Node10 -->
<g id="node10" class="node">
<title>Node10</title>
<g id="a_node10"><a xlink:href="HealthBehaviour_8hpp.html" target="_top" xlink:title=" ">
<polygon fill="none" stroke="black" points="373,-224.5 373,-254.5 501,-254.5 501,-224.5 373,-224.5"/>
<text text-anchor="start" x="381" y="-242.5" font-family="Helvetica,sans-Serif" font-size="10.00">../Scripts/Common/Health</text>
<text text-anchor="middle" x="437" y="-231.5" font-family="Helvetica,sans-Serif" font-size="10.00">Behaviour.hpp</text>
</a>
</g>
</g>
<!-- Node2&#45;&gt;Node10 -->
<g id="edge10" class="edge">
<title>Node2&#45;&gt;Node10</title>
<path fill="none" stroke="midnightblue" d="M273.96,-296.87C302.66,-286.95 350.5,-270.41 386.95,-257.81"/>
<polygon fill="midnightblue" stroke="midnightblue" points="388.12,-261.1 396.43,-254.53 385.83,-254.49 388.12,-261.1"/>
</g>
<!-- Node4 -->
<g id="node4" class="node">
<title>Node4</title>
<g id="a_node4"><a xlink:href="Component_8hpp.html" target="_top" xlink:title=" ">
<polygon fill="none" stroke="black" points="428,-56.5 428,-75.5 512,-75.5 512,-56.5 428,-56.5"/>
<text text-anchor="middle" x="470" y="-63.5" font-family="Helvetica,sans-Serif" font-size="10.00">Component.hpp</text>
</a>
</g>
</g>
<!-- Node3&#45;&gt;Node4 -->
<g id="edge3" class="edge">
<title>Node3&#45;&gt;Node4</title>
<path fill="none" stroke="midnightblue" d="M265.5,-112.44C307.81,-103.04 375.82,-87.93 421.67,-77.74"/>
<polygon fill="midnightblue" stroke="midnightblue" points="422.67,-81.1 431.68,-75.52 421.15,-74.27 422.67,-81.1"/>
</g>
<!-- Node3&#45;&gt;Node5 -->
<g id="edge9" class="edge">
<title>Node3&#45;&gt;Node5</title>
<path fill="none" stroke="midnightblue" d="M233.77,-112.4C245.25,-98.42 269.95,-70.83 297,-56 340.72,-32.04 397.69,-20.43 434.07,-15.1"/>
<polygon fill="midnightblue" stroke="midnightblue" points="434.78,-18.54 444.21,-13.71 433.82,-11.61 434.78,-18.54"/>
</g>
<!-- Node6 -->
<g id="node6" class="node">
<title>Node6</title>
<g id="a_node6"><a xlink:href="Transform_8hpp.html" target="_top" xlink:title=" ">
<polygon fill="none" stroke="black" points="170.5,-56.5 170.5,-75.5 249.5,-75.5 249.5,-56.5 170.5,-56.5"/>
<text text-anchor="middle" x="210" y="-63.5" font-family="Helvetica,sans-Serif" font-size="10.00">Transform.hpp</text>
</a>
</g>
</g>
<!-- Node3&#45;&gt;Node6 -->
<g id="edge5" class="edge">
<title>Node3&#45;&gt;Node6</title>
<path fill="none" stroke="midnightblue" d="M224.19,-112.08C221.92,-104.85 218.63,-94.41 215.79,-85.4"/>
<polygon fill="midnightblue" stroke="midnightblue" points="219.1,-84.24 212.75,-75.75 212.42,-86.34 219.1,-84.24"/>
</g>
<!-- Node8 -->
<g id="node8" class="node">
<title>Node8</title>
<g id="a_node8"><a xlink:title=" ">
<polygon fill="none" stroke="#bfbfbf" points="368.5,-56.5 368.5,-75.5 409.5,-75.5 409.5,-56.5 368.5,-56.5"/>
<text text-anchor="middle" x="389" y="-63.5" font-family="Helvetica,sans-Serif" font-size="10.00">string</text>
</a>
</g>
</g>
<!-- Node3&#45;&gt;Node8 -->
<g id="edge7" class="edge">
<title>Node3&#45;&gt;Node8</title>
<path fill="none" stroke="midnightblue" d="M252.67,-112.44C281.37,-102.88 327.81,-87.4 358.38,-77.21"/>
<polygon fill="midnightblue" stroke="midnightblue" points="359.71,-80.45 368.09,-73.97 357.49,-73.81 359.71,-80.45"/>
</g>
<!-- Node9 -->
<g id="node9" class="node">
<title>Node9</title>
<g id="a_node9"><a xlink:title=" ">
<polygon fill="none" stroke="#bfbfbf" points="306,-56.5 306,-75.5 350,-75.5 350,-56.5 306,-56.5"/>
<text text-anchor="middle" x="328" y="-63.5" font-family="Helvetica,sans-Serif" font-size="10.00">vector</text>
</a>
</g>
</g>
<!-- Node3&#45;&gt;Node9 -->
<g id="edge8" class="edge">
<title>Node3&#45;&gt;Node9</title>
<path fill="none" stroke="midnightblue" d="M243.23,-112.32C259.35,-103.7 284.3,-90.36 302.96,-80.39"/>
<polygon fill="midnightblue" stroke="midnightblue" points="304.64,-83.46 311.81,-75.65 301.34,-77.28 304.64,-83.46"/>
</g>
<!-- Node4&#45;&gt;Node5 -->
<g id="edge4" class="edge">
<title>Node4&#45;&gt;Node5</title>
<path fill="none" stroke="midnightblue" d="M470,-56.08C470,-49.01 470,-38.86 470,-29.99"/>
<polygon fill="midnightblue" stroke="midnightblue" points="473.5,-29.75 470,-19.75 466.5,-29.75 473.5,-29.75"/>
</g>
<!-- Node7 -->
<g id="node7" class="node">
<title>Node7</title>
<g id="a_node7"><a xlink:href="Point_8hpp.html" target="_top" xlink:title=" ">
<polygon fill="none" stroke="black" points="181.5,-0.5 181.5,-19.5 238.5,-19.5 238.5,-0.5 181.5,-0.5"/>
<text text-anchor="middle" x="210" y="-7.5" font-family="Helvetica,sans-Serif" font-size="10.00">Point.hpp</text>
</a>
</g>
</g>
<!-- Node6&#45;&gt;Node7 -->
<g id="edge6" class="edge">
<title>Node6&#45;&gt;Node7</title>
<path fill="none" stroke="midnightblue" d="M210,-56.08C210,-49.01 210,-38.86 210,-29.99"/>
<polygon fill="midnightblue" stroke="midnightblue" points="213.5,-29.75 210,-19.75 206.5,-29.75 213.5,-29.75"/>
</g>
<!-- Node10&#45;&gt;Node5 -->
<g id="edge15" class="edge">
<title>Node10&#45;&gt;Node5</title>
<path fill="none" stroke="midnightblue" d="M501.19,-233.85C532.46,-227.97 567.44,-215.22 587,-188 613.6,-150.98 631.67,-167.37 538,-56 526.97,-42.88 511.16,-32.11 497.57,-24.4"/>
<polygon fill="midnightblue" stroke="midnightblue" points="499.05,-21.22 488.59,-19.55 495.73,-27.38 499.05,-21.22"/>
</g>
<!-- Node11 -->
<g id="node11" class="node">
<title>Node11</title>
<g id="a_node11"><a xlink:href="BehaviourScript_8hpp.html" target="_top" xlink:title=" ">
<polygon fill="none" stroke="black" points="474,-168.5 474,-187.5 578,-187.5 578,-168.5 474,-168.5"/>
<text text-anchor="middle" x="526" y="-175.5" font-family="Helvetica,sans-Serif" font-size="10.00">BehaviourScript.hpp</text>
</a>
</g>
</g>
<!-- Node10&#45;&gt;Node11 -->
<g id="edge11" class="edge">
<title>Node10&#45;&gt;Node11</title>
<path fill="none" stroke="midnightblue" d="M458.09,-224.4C472.09,-215.04 490.41,-202.79 504.49,-193.38"/>
<polygon fill="midnightblue" stroke="midnightblue" points="506.68,-196.13 513.05,-187.66 502.79,-190.31 506.68,-196.13"/>
</g>
<!-- Node13 -->
<g id="node13" class="node">
<title>Node13</title>
<g id="a_node13"><a xlink:href="Animator_8hpp.html" target="_top" xlink:title=" ">
<polygon fill="none" stroke="black" points="379,-168.5 379,-187.5 453,-187.5 453,-168.5 379,-168.5"/>
<text text-anchor="middle" x="416" y="-175.5" font-family="Helvetica,sans-Serif" font-size="10.00">Animator.hpp</text>
</a>
</g>
</g>
<!-- Node10&#45;&gt;Node13 -->
<g id="edge16" class="edge">
<title>Node10&#45;&gt;Node13</title>
<path fill="none" stroke="midnightblue" d="M432.02,-224.4C429.16,-216.29 425.53,-206.01 422.45,-197.28"/>
<polygon fill="midnightblue" stroke="midnightblue" points="425.68,-195.92 419.06,-187.66 419.08,-198.25 425.68,-195.92"/>
</g>
<!-- Node11&#45;&gt;Node4 -->
<g id="edge12" class="edge">
<title>Node11&#45;&gt;Node4</title>
<path fill="none" stroke="midnightblue" d="M527.29,-168.47C528.84,-155.51 530.19,-130.44 521,-112 514.83,-99.61 503.62,-89.14 493.28,-81.42"/>
<polygon fill="midnightblue" stroke="midnightblue" points="495.13,-78.45 484.93,-75.6 491.13,-84.19 495.13,-78.45"/>
</g>
<!-- Node12 -->
<g id="node12" class="node">
<title>Node12</title>
<g id="a_node12"><a xlink:href="Collider_8hpp.html" target="_top" xlink:title=" ">
<polygon fill="none" stroke="black" points="444.5,-112.5 444.5,-131.5 511.5,-131.5 511.5,-112.5 444.5,-112.5"/>
<text text-anchor="middle" x="478" y="-119.5" font-family="Helvetica,sans-Serif" font-size="10.00">Collider.hpp</text>
</a>
</g>
</g>
<!-- Node11&#45;&gt;Node12 -->
<g id="edge13" class="edge">
<title>Node11&#45;&gt;Node12</title>
<path fill="none" stroke="midnightblue" d="M518.07,-168.08C511.15,-160.3 500.93,-148.8 492.55,-139.37"/>
<polygon fill="midnightblue" stroke="midnightblue" points="495.04,-136.9 485.78,-131.75 489.81,-141.55 495.04,-136.9"/>
</g>
<!-- Node12&#45;&gt;Node4 -->
<g id="edge14" class="edge">
<title>Node12&#45;&gt;Node4</title>
<path fill="none" stroke="midnightblue" d="M476.68,-112.08C475.62,-104.93 474.09,-94.64 472.77,-85.69"/>
<polygon fill="midnightblue" stroke="midnightblue" points="476.22,-85.13 471.3,-75.75 469.3,-86.16 476.22,-85.13"/>
</g>
<!-- Node13&#45;&gt;Node4 -->
<g id="edge17" class="edge">
<title>Node13&#45;&gt;Node4</title>
<path fill="none" stroke="midnightblue" d="M417.68,-168.22C420.37,-155.37 426.32,-130.92 436,-112 441.23,-101.78 448.8,-91.48 455.47,-83.32"/>
<polygon fill="midnightblue" stroke="midnightblue" points="458.16,-85.57 461.96,-75.68 452.82,-81.03 458.16,-85.57"/>
</g>
<!-- Node13&#45;&gt;Node5 -->
<g id="edge23" class="edge">
<title>Node13&#45;&gt;Node5</title>
<path fill="none" stroke="midnightblue" d="M445.28,-168.43C473.19,-159.6 512.24,-145.29 521,-132 539.59,-103.8 534.89,-86.79 521,-56 515.38,-43.56 504.44,-33.17 494.12,-25.53"/>
<polygon fill="midnightblue" stroke="midnightblue" points="495.96,-22.54 485.73,-19.76 491.99,-28.31 495.96,-22.54"/>
</g>
<!-- Node13&#45;&gt;Node9 -->
<g id="edge22" class="edge">
<title>Node13&#45;&gt;Node9</title>
<path fill="none" stroke="midnightblue" d="M378.57,-169.95C357.18,-163.8 332.09,-152.5 319,-132 310.11,-118.07 314.18,-99.06 319.38,-85.2"/>
<polygon fill="midnightblue" stroke="midnightblue" points="322.7,-86.35 323.38,-75.77 316.25,-83.61 322.7,-86.35"/>
</g>
<!-- Node13&#45;&gt;Node14 -->
<g id="edge18" class="edge">
<title>Node13&#45;&gt;Node14</title>
<path fill="none" stroke="midnightblue" d="M406.68,-168.32C398.11,-160.34 385.19,-148.31 374.81,-138.65"/>
<polygon fill="midnightblue" stroke="midnightblue" points="377.19,-136.09 367.49,-131.83 372.42,-141.21 377.19,-136.09"/>
</g>
<!-- Node14&#45;&gt;Node4 -->
<g id="edge19" class="edge">
<title>Node14&#45;&gt;Node4</title>
<path fill="none" stroke="midnightblue" d="M375.99,-112.32C394.04,-103.62 422.05,-90.12 442.8,-80.11"/>
<polygon fill="midnightblue" stroke="midnightblue" points="444.56,-83.15 452.05,-75.65 441.52,-76.84 444.56,-83.15"/>
</g>
<!-- Node14&#45;&gt;Node8 -->
<g id="edge21" class="edge">
<title>Node14&#45;&gt;Node8</title>
<path fill="none" stroke="midnightblue" d="M363.12,-112.08C367.41,-104.61 373.66,-93.72 378.94,-84.52"/>
<polygon fill="midnightblue" stroke="midnightblue" points="382.03,-86.17 383.98,-75.75 375.96,-82.68 382.03,-86.17"/>
</g>
<!-- Node15 -->
<g id="node15" class="node">
<title>Node15</title>
<g id="a_node15"><a xlink:href="Color_8hpp.html" target="_top" xlink:title=" ">
<polygon fill="none" stroke="black" points="606.5,-56.5 606.5,-75.5 663.5,-75.5 663.5,-56.5 606.5,-56.5"/>
<text text-anchor="middle" x="635" y="-63.5" font-family="Helvetica,sans-Serif" font-size="10.00">Color.hpp</text>
</a>
</g>
</g>
<!-- Node14&#45;&gt;Node15 -->
<g id="edge20" class="edge">
<title>Node14&#45;&gt;Node15</title>
<path fill="none" stroke="midnightblue" d="M388.17,-115.12C438.73,-105.26 540.49,-85.42 596.26,-74.55"/>
<polygon fill="midnightblue" stroke="midnightblue" points="596.97,-77.98 606.12,-72.63 595.63,-71.11 596.97,-77.98"/>
</g>
<!-- Node18&#45;&gt;Node5 -->
<g id="edge31" class="edge">
<title>Node18&#45;&gt;Node5</title>
<path fill="none" stroke="midnightblue" d="M487.68,-291.45C562.05,-269.31 692,-224.16 692,-179 692,-179 692,-179 692,-121 692,-90.9 694.98,-76.57 673,-56 649.14,-33.67 557.52,-20.42 505.9,-14.57"/>
<polygon fill="midnightblue" stroke="midnightblue" points="506.15,-11.08 495.83,-13.47 505.39,-18.04 506.15,-11.08"/>
</g>
<!-- Node18&#45;&gt;Node10 -->
<g id="edge30" class="edge">
<title>Node18&#45;&gt;Node10</title>
<path fill="none" stroke="midnightblue" d="M437,-291.4C437,-283.64 437,-273.81 437,-264.86"/>
<polygon fill="midnightblue" stroke="midnightblue" points="440.5,-264.58 437,-254.58 433.5,-264.58 440.5,-264.58"/>
</g>
<!-- Node18&#45;&gt;Node11 -->
<g id="edge29" class="edge">
<title>Node18&#45;&gt;Node11</title>
<path fill="none" stroke="midnightblue" d="M467.51,-291.35C482.53,-282.86 499.59,-270.66 510,-255 521.29,-238.01 524.82,-214.56 525.83,-198.22"/>
<polygon fill="midnightblue" stroke="midnightblue" points="529.34,-197.88 526.18,-187.77 522.34,-197.64 529.34,-197.88"/>
</g>
<!-- Node19&#45;&gt;Node3 -->
<g id="edge34" class="edge">
<title>Node19&#45;&gt;Node3</title>
<path fill="none" stroke="midnightblue" d="M89.83,-168.44C117.25,-159.36 160.78,-144.94 191.43,-134.78"/>
<polygon fill="midnightblue" stroke="midnightblue" points="192.9,-137.98 201.29,-131.52 190.7,-131.34 192.9,-137.98"/>
</g>
<!-- Node19&#45;&gt;Node5 -->
<g id="edge33" class="edge">
<title>Node19&#45;&gt;Node5</title>
<path fill="none" stroke="midnightblue" d="M65.7,-168.48C70.69,-145.86 87.61,-84.08 128,-56 176.96,-21.96 356.69,-13.65 434.12,-11.64"/>
<polygon fill="midnightblue" stroke="midnightblue" points="434.43,-15.13 444.34,-11.39 434.26,-8.13 434.43,-15.13"/>
</g>
<!-- Node20&#45;&gt;Node15 -->
<g id="edge36" class="edge">
<title>Node20&#45;&gt;Node15</title>
<path fill="none" stroke="midnightblue" d="M756.48,-229.76C736.27,-202.69 674.49,-119.91 647.66,-83.96"/>
<polygon fill="midnightblue" stroke="midnightblue" points="650.14,-81.44 641.36,-75.52 644.53,-85.63 650.14,-81.44"/>
</g>
</g>
</svg>
        <g id="navigator" transform="translate(0 0)" fill="#404254">
                <rect fill="#f2f5e9" fill-opacity="0.5" stroke="#606060" stroke-width=".5" x="0" y="0" width="60" height="60"/>
                <use id="zoomplus" xlink:href="#zoomPlus" x="17" y="9" onmousedown="handleZoom(evt,'in')"/>
                <use id="zoomminus" xlink:href="#zoomMin" x="42" y="9" onmousedown="handleZoom(evt,'out')"/>
                <use id="reset" xlink:href="#resetDef" x="30" y="36" onmousedown="handleReset()"/>
                <g id="arrowUp" xlink:href="#dirArrow" transform="translate(30 24)" onmousedown="handlePan(0,-1)">
                  <use xlink:href="#rim" fill="#404040">
                        <set attributeName="fill" to="#808080" begin="arrowUp.mouseover" end="arrowUp.mouseout"/>
                  </use>
                  <path fill="none" stroke="white" stroke-width="1.5" d="M0,-3.0v7 M-2.5,-0.5L0,-3.0L2.5,-0.5"/>
                </g>
                <g id="arrowRight" xlink:href="#dirArrow" transform="rotate(90) translate(36 -43)" onmousedown="handlePan(1,0)">
                  <use xlink:href="#rim" fill="#404040">
                        <set attributeName="fill" to="#808080" begin="arrowRight.mouseover" end="arrowRight.mouseout"/>
                  </use>
                  <path fill="none" stroke="white" stroke-width="1.5" d="M0,-3.0v7 M-2.5,-0.5L0,-3.0L2.5,-0.5"/>
                </g>
                <g id="arrowDown" xlink:href="#dirArrow" transform="rotate(180) translate(-30 -48)" onmousedown="handlePan(0,1)">
                  <use xlink:href="#rim" fill="#404040">
                        <set attributeName="fill" to="#808080" begin="arrowDown.mouseover" end="arrowDown.mouseout"/>
                  </use>
                  <path fill="none" stroke="white" stroke-width="1.5" d="M0,-3.0v7 M-2.5,-0.5L0,-3.0L2.5,-0.5"/>
                </g>
                <g id="arrowLeft" xlink:href="#dirArrow" transform="rotate(270) translate(-36 17)" onmousedown="handlePan(-1,0)">
                  <use xlink:href="#rim" fill="#404040">
                        <set attributeName="fill" to="#808080" begin="arrowLeft.mouseover" end="arrowLeft.mouseout"/>
                  </use>
                  <path fill="none" stroke="white" stroke-width="1.5" d="M0,-3.0v7 M-2.5,-0.5L0,-3.0L2.5,-0.5"/>
                </g>
        </g>
        <svg viewBox="0 0 15 15" width="100%" height="30px" preserveAspectRatio="xMaxYMin meet">
         <g id="arrow_out" transform="scale(0.3 0.3)">
          <a xlink:href="HealthBarFactory_8cpp__incl_org.svg" target="_base">
           <rect id="button" ry="5" rx="5" y="6" x="6" height="38" width="38"
                fill="#f2f5e9" fill-opacity="0.5" stroke="#606060" stroke-width="1.0"/>
           <path id="arrow"
             d="M 11.500037,31.436501 C 11.940474,20.09759 22.043105,11.32322 32.158766,21.979434 L 37.068811,17.246167 C 37.068811,17.246167 37.088388,32 37.088388,32 L 22.160133,31.978069 C 22.160133,31.978069 26.997745,27.140456 26.997745,27.140456 C 18.528582,18.264221 13.291696,25.230495 11.500037,31.436501 z"
             style="fill:#404040;"/>
          </a>
         </g>
        </svg>
</svg>
