<?xml version="1.0" encoding="UTF-8" standalone="no"?>
<!DOCTYPE svg PUBLIC "-//W3C//DTD SVG 1.1//EN"
 "http://www.w3.org/Graphics/SVG/1.1/DTD/svg11.dtd">
<!-- Generated by graphviz version 2.44.0 ()
 -->
<!-- Title: src/Scripts/Common/HealthBehaviour.hpp Pages: 1 -->
<!--zoomable 240 -->
<svg id="main" version="1.1" xmlns="http://www.w3.org/2000/svg" xmlns:xlink="http://www.w3.org/1999/xlink" xml:space="preserve" onload="init(evt)">
<style type="text/css"><![CDATA[
.edge:hover path { stroke: red; }
.edge:hover polygon { stroke: red; fill: red; }
]]></style>
<script type="text/javascript"><![CDATA[
var edges = document.getElementsByTagName('g');
if (edges && edges.length) {
  for (var i=0;i<edges.length;i++) {
    if (edges[i].id.substr(0,4)=='edge') {
      edges[i].setAttribute('class','edge');
    }
  }
}
]]></script>
        <defs>
                <circle id="rim" cx="0" cy="0" r="7"/>
                <circle id="rim2" cx="0" cy="0" r="3.5"/>
                <g id="zoomPlus">
                        <use xlink:href="#rim" fill="#404040">
                                <set attributeName="fill" to="#808080" begin="zoomplus.mouseover" end="zoomplus.mouseout"/>
                        </use>
                        <path d="M-4,0h8M0,-4v8" fill="none" stroke="white" stroke-width="1.5" pointer-events="none"/>
                </g>
                <g id="zoomMin">
                        <use xlink:href="#rim" fill="#404040">
                                <set attributeName="fill" to="#808080" begin="zoomminus.mouseover" end="zoomminus.mouseout"/>
                        </use>
                        <path d="M-4,0h8" fill="none" stroke="white" stroke-width="1.5" pointer-events="none"/>
                </g>
                <g id="dirArrow">
                        <path fill="none" stroke="white" stroke-width="1.5" d="M0,-3.0v7 M-2.5,-0.5L0,-3.0L2.5,-0.5"/>
                </g>
               <g id="resetDef">
                       <use xlink:href="#rim2" fill="#404040">
                               <set attributeName="fill" to="#808080" begin="reset.mouseover" end="reset.mouseout"/>
                       </use>
               </g>
        </defs>

<script type="text/javascript">
var viewWidth = 2261;
var viewHeight = 240;
var sectionId = 'dynsection-1';
</script>
<script xlink:href="svgpan.js"/>
<svg id="graph" class="graph">
<g id="viewport">
<title>src/Scripts/Common/HealthBehaviour.hpp</title>
<!-- Node1 -->
<g id="node1" class="node">
<title>Node1</title>
<g id="a_node1"><a xlink:title=" ">
<polygon fill="#bfbfbf" stroke="black" points="902,-201.5 902,-231.5 1012,-231.5 1012,-201.5 902,-201.5"/>
<text text-anchor="start" x="910" y="-219.5" font-family="Helvetica,sans-Serif" font-size="10.00">src/Scripts/Common</text>
<text text-anchor="middle" x="957" y="-208.5" font-family="Helvetica,sans-Serif" font-size="10.00">/HealthBehaviour.hpp</text>
</a>
</g>
</g>
<!-- Node2 -->
<g id="node2" class="node">
<title>Node2</title>
<g id="a_node2"><a xlink:href="HealthBarFactory_8hpp.html" target="_top" xlink:title=" ">
<polygon fill="none" stroke="black" points="563,-140 563,-159 733,-159 733,-140 563,-140"/>
<text text-anchor="middle" x="648" y="-147" font-family="Helvetica,sans-Serif" font-size="10.00">src/Factories/HealthBarFactory.hpp</text>
</a>
</g>
</g>
<!-- Node1&#45;&gt;Node2 -->
<g id="edge1" class="edge">
<title>Node1&#45;&gt;Node2</title>
<path fill="none" stroke="midnightblue" d="M891.77,-201.78C830.32,-188.85 740.2,-169.89 688.49,-159.02"/>
<polygon fill="midnightblue" stroke="midnightblue" points="891.25,-205.25 901.76,-203.88 892.69,-198.4 891.25,-205.25"/>
</g>
<!-- Node6 -->
<g id="node6" class="node">
<title>Node6</title>
<g id="a_node6"><a xlink:href="LevelScene_8hpp.html" target="_top" xlink:title=" ">
<polygon fill="none" stroke="black" points="1515.5,-140 1515.5,-159 1654.5,-159 1654.5,-140 1515.5,-140"/>
<text text-anchor="middle" x="1585" y="-147" font-family="Helvetica,sans-Serif" font-size="10.00">src/Scenes/LevelScene.hpp</text>
</a>
</g>
</g>
<!-- Node1&#45;&gt;Node6 -->
<g id="edge5" class="edge">
<title>Node1&#45;&gt;Node6</title>
<path fill="none" stroke="midnightblue" d="M1022.37,-211.39C1125.48,-204.49 1332.05,-188.92 1506,-165 1517.88,-163.37 1530.69,-161.19 1542.47,-159.03"/>
<polygon fill="midnightblue" stroke="midnightblue" points="1021.87,-207.92 1012.12,-212.07 1022.33,-214.9 1021.87,-207.92"/>
</g>
<!-- Node9 -->
<g id="node9" class="node">
<title>Node9</title>
<g id="a_node9"><a xlink:href="AttackBehaviour_8cpp.html" target="_top" xlink:title=" ">
<polygon fill="none" stroke="black" points="285,-134.5 285,-164.5 395,-164.5 395,-134.5 285,-134.5"/>
<text text-anchor="start" x="293" y="-152.5" font-family="Helvetica,sans-Serif" font-size="10.00">src/Scripts/Common</text>
<text text-anchor="middle" x="340" y="-141.5" font-family="Helvetica,sans-Serif" font-size="10.00">/AttackBehaviour.cpp</text>
</a>
</g>
</g>
<!-- Node1&#45;&gt;Node9 -->
<g id="edge8" class="edge">
<title>Node1&#45;&gt;Node9</title>
<path fill="none" stroke="midnightblue" d="M891.75,-212.33C787.96,-206.66 579.09,-192.71 404,-165 401.07,-164.54 398.08,-164.02 395.07,-163.46"/>
<polygon fill="midnightblue" stroke="midnightblue" points="891.59,-215.83 901.76,-212.87 891.96,-208.84 891.59,-215.83"/>
</g>
<!-- Node10 -->
<g id="node10" class="node">
<title>Node10</title>
<g id="a_node10"><a xlink:href="DamageBehaviour_8cpp.html" target="_top" xlink:title=" ">
<polygon fill="none" stroke="black" points="220.5,-67.5 220.5,-97.5 337.5,-97.5 337.5,-67.5 220.5,-67.5"/>
<text text-anchor="start" x="228.5" y="-85.5" font-family="Helvetica,sans-Serif" font-size="10.00">src/Scripts/Common</text>
<text text-anchor="middle" x="279" y="-74.5" font-family="Helvetica,sans-Serif" font-size="10.00">/DamageBehaviour.cpp</text>
</a>
</g>
</g>
<!-- Node1&#45;&gt;Node10 -->
<g id="edge9" class="edge">
<title>Node1&#45;&gt;Node10</title>
<path fill="none" stroke="midnightblue" d="M891.61,-215.59C729.16,-215.12 317.34,-209.52 276,-165 259.24,-146.95 266.65,-115.78 273.11,-97.67"/>
<polygon fill="midnightblue" stroke="midnightblue" points="891.93,-219.09 901.94,-215.61 891.95,-212.09 891.93,-219.09"/>
</g>
<!-- Node11 -->
<g id="node11" class="node">
<title>Node11</title>
<g id="a_node11"><a xlink:href="DamageBehaviour_8hpp.html" target="_top" xlink:title=" ">
<polygon fill="none" stroke="black" points="111.5,-134.5 111.5,-164.5 228.5,-164.5 228.5,-134.5 111.5,-134.5"/>
<text text-anchor="start" x="119.5" y="-152.5" font-family="Helvetica,sans-Serif" font-size="10.00">src/Scripts/Common</text>
<text text-anchor="middle" x="170" y="-141.5" font-family="Helvetica,sans-Serif" font-size="10.00">/DamageBehaviour.hpp</text>
</a>
</g>
</g>
<!-- Node1&#45;&gt;Node11 -->
<g id="edge10" class="edge">
<title>Node1&#45;&gt;Node11</title>
<path fill="none" stroke="midnightblue" d="M891.41,-213.61C765.31,-209.37 480.5,-196.86 243,-165 238.39,-164.38 233.63,-163.65 228.86,-162.85"/>
<polygon fill="midnightblue" stroke="midnightblue" points="891.56,-217.12 901.67,-213.95 891.79,-210.12 891.56,-217.12"/>
</g>
<!-- Node16 -->
<g id="node16" class="node">
<title>Node16</title>
<g id="a_node16"><a xlink:href="HealthBehaviour_8cpp.html" target="_top" xlink:title=" ">
<polygon fill="none" stroke="black" points="751,-134.5 751,-164.5 861,-164.5 861,-134.5 751,-134.5"/>
<text text-anchor="start" x="759" y="-152.5" font-family="Helvetica,sans-Serif" font-size="10.00">src/Scripts/Common</text>
<text text-anchor="middle" x="806" y="-141.5" font-family="Helvetica,sans-Serif" font-size="10.00">/HealthBehaviour.cpp</text>
</a>
</g>
</g>
<!-- Node1&#45;&gt;Node16 -->
<g id="edge16" class="edge">
<title>Node1&#45;&gt;Node16</title>
<path fill="none" stroke="midnightblue" d="M914.97,-197.41C890.86,-187.03 861.05,-174.2 838.7,-164.58"/>
<polygon fill="midnightblue" stroke="midnightblue" points="913.67,-200.66 924.24,-201.4 916.43,-194.23 913.67,-200.66"/>
</g>
<!-- Node17 -->
<g id="node17" class="node">
<title>Node17</title>
<g id="a_node17"><a xlink:href="EnemyMovementBehaviour_8hpp.html" target="_top" xlink:title=" ">
<polygon fill="none" stroke="black" points="879,-134.5 879,-164.5 1035,-164.5 1035,-134.5 879,-134.5"/>
<text text-anchor="start" x="887" y="-152.5" font-family="Helvetica,sans-Serif" font-size="10.00">src/Scripts/Enemies</text>
<text text-anchor="middle" x="957" y="-141.5" font-family="Helvetica,sans-Serif" font-size="10.00">/EnemyMovementBehaviour.hpp</text>
</a>
</g>
</g>
<!-- Node1&#45;&gt;Node17 -->
<g id="edge17" class="edge">
<title>Node1&#45;&gt;Node17</title>
<path fill="none" stroke="midnightblue" d="M957,-191.11C957,-182.15 957,-172.32 957,-164.58"/>
<polygon fill="midnightblue" stroke="midnightblue" points="953.5,-191.4 957,-201.4 960.5,-191.4 953.5,-191.4"/>
</g>
<!-- Node19 -->
<g id="node19" class="node">
<title>Node19</title>
<g id="a_node19"><a xlink:href="HealAbilityBehaviour_8hpp.html" target="_top" xlink:title=" ">
<polygon fill="none" stroke="black" points="1053,-134.5 1053,-164.5 1181,-164.5 1181,-134.5 1053,-134.5"/>
<text text-anchor="start" x="1061" y="-152.5" font-family="Helvetica,sans-Serif" font-size="10.00">src/Scripts/Heroes</text>
<text text-anchor="middle" x="1117" y="-141.5" font-family="Helvetica,sans-Serif" font-size="10.00">/HealAbilityBehaviour.hpp</text>
</a>
</g>
</g>
<!-- Node1&#45;&gt;Node19 -->
<g id="edge20" class="edge">
<title>Node1&#45;&gt;Node19</title>
<path fill="none" stroke="midnightblue" d="M1001.2,-197.54C1026.8,-187.14 1058.57,-174.24 1082.35,-164.58"/>
<polygon fill="midnightblue" stroke="midnightblue" points="999.66,-194.39 991.72,-201.4 1002.3,-200.87 999.66,-194.39"/>
</g>
<!-- Node21 -->
<g id="node21" class="node">
<title>Node21</title>
<g id="a_node21"><a xlink:href="UserAttackBehaviour_8hpp.html" target="_top" xlink:title=" ">
<polygon fill="none" stroke="black" points="1199.5,-134.5 1199.5,-164.5 1330.5,-164.5 1330.5,-134.5 1199.5,-134.5"/>
<text text-anchor="start" x="1207.5" y="-152.5" font-family="Helvetica,sans-Serif" font-size="10.00">src/Scripts/Heroes</text>
<text text-anchor="middle" x="1265" y="-141.5" font-family="Helvetica,sans-Serif" font-size="10.00">/UserAttackBehaviour.hpp</text>
</a>
</g>
</g>
<!-- Node1&#45;&gt;Node21 -->
<g id="edge23" class="edge">
<title>Node1&#45;&gt;Node21</title>
<path fill="none" stroke="midnightblue" d="M1021.88,-201.81C1074.08,-190.79 1147.09,-175.38 1199.45,-164.33"/>
<polygon fill="midnightblue" stroke="midnightblue" points="1021.13,-198.39 1012.06,-203.88 1022.57,-205.24 1021.13,-198.39"/>
</g>
<!-- Node22 -->
<g id="node22" class="node">
<title>Node22</title>
<g id="a_node22"><a xlink:href="UserMovementBehaviour_8hpp.html" target="_top" xlink:title=" ">
<polygon fill="none" stroke="black" points="1349,-134.5 1349,-164.5 1497,-164.5 1497,-134.5 1349,-134.5"/>
<text text-anchor="start" x="1357" y="-152.5" font-family="Helvetica,sans-Serif" font-size="10.00">src/Scripts/Heroes</text>
<text text-anchor="middle" x="1423" y="-141.5" font-family="Helvetica,sans-Serif" font-size="10.00">/UserMovementBehaviour.hpp</text>
</a>
</g>
</g>
<!-- Node1&#45;&gt;Node22 -->
<g id="edge27" class="edge">
<title>Node1&#45;&gt;Node22</title>
<path fill="none" stroke="midnightblue" d="M1022.23,-207.74C1098.55,-198.47 1228.65,-182.06 1340,-165 1342.89,-164.56 1345.84,-164.09 1348.81,-163.62"/>
<polygon fill="midnightblue" stroke="midnightblue" points="1021.79,-204.27 1012.28,-208.95 1022.63,-211.22 1021.79,-204.27"/>
</g>
<!-- Node24 -->
<g id="node24" class="node">
<title>Node24</title>
<g id="a_node24"><a xlink:href="HealthBarBehaviour_8hpp.html" target="_top" xlink:title=" ">
<polygon fill="none" stroke="black" points="413.5,-134.5 413.5,-164.5 544.5,-164.5 544.5,-134.5 413.5,-134.5"/>
<text text-anchor="start" x="421.5" y="-152.5" font-family="Helvetica,sans-Serif" font-size="10.00">src/Scripts/Hud/HealthBar</text>
<text text-anchor="middle" x="479" y="-141.5" font-family="Helvetica,sans-Serif" font-size="10.00">Behaviour.hpp</text>
</a>
</g>
</g>
<!-- Node1&#45;&gt;Node24 -->
<g id="edge31" class="edge">
<title>Node1&#45;&gt;Node24</title>
<path fill="none" stroke="midnightblue" d="M891.35,-208.63C811.44,-199.95 672.46,-183.85 554,-165 550.99,-164.52 547.91,-164.01 544.81,-163.48"/>
<polygon fill="midnightblue" stroke="midnightblue" points="891.44,-212.16 901.75,-209.75 892.19,-205.2 891.44,-212.16"/>
</g>
<!-- Node26 -->
<g id="node26" class="node">
<title>Node26</title>
<g id="a_node26"><a xlink:href="LevelData_8hpp.html" target="_top" xlink:title=" ">
<polygon fill="none" stroke="black" points="1734,-140 1734,-159 1864,-159 1864,-140 1734,-140"/>
<text text-anchor="middle" x="1799" y="-147" font-family="Helvetica,sans-Serif" font-size="10.00">src/Structs/LevelData.hpp</text>
</a>
</g>
</g>
<!-- Node1&#45;&gt;Node26 -->
<g id="edge34" class="edge">
<title>Node1&#45;&gt;Node26</title>
<path fill="none" stroke="midnightblue" d="M1022.2,-211.62C1146.94,-204.03 1427.95,-186.1 1664,-165 1686.77,-162.96 1711.67,-160.39 1733.81,-157.98"/>
<polygon fill="midnightblue" stroke="midnightblue" points="1021.83,-208.14 1012.06,-212.24 1022.25,-215.13 1021.83,-208.14"/>
</g>
<!-- Node35 -->
<g id="node35" class="node">
<title>Node35</title>
<g id="a_node35"><a xlink:href="WaveData_8cpp.html" target="_top" xlink:title=" ">
<polygon fill="none" stroke="black" points="1882.5,-140 1882.5,-159 2013.5,-159 2013.5,-140 1882.5,-140"/>
<text text-anchor="middle" x="1948" y="-147" font-family="Helvetica,sans-Serif" font-size="10.00">src/Structs/WaveData.cpp</text>
</a>
</g>
</g>
<!-- Node1&#45;&gt;Node35 -->
<g id="edge50" class="edge">
<title>Node1&#45;&gt;Node35</title>
<path fill="none" stroke="midnightblue" d="M1022.21,-214.94C1172.7,-212.99 1555.66,-204.24 1873,-165 1884.85,-163.54 1897.63,-161.31 1909.23,-159.04"/>
<polygon fill="midnightblue" stroke="midnightblue" points="1022.17,-211.44 1012.21,-215.07 1022.25,-218.44 1022.17,-211.44"/>
</g>
<!-- Node3 -->
<g id="node3" class="node">
<title>Node3</title>
<g id="a_node3"><a xlink:href="EnemyPrefabFactory_8cpp.html" target="_top" xlink:title=" ">
<polygon fill="none" stroke="black" points="744,-67.5 744,-97.5 878,-97.5 878,-67.5 744,-67.5"/>
<text text-anchor="start" x="752" y="-85.5" font-family="Helvetica,sans-Serif" font-size="10.00">src/Factories/EnemyPrefab</text>
<text text-anchor="middle" x="811" y="-74.5" font-family="Helvetica,sans-Serif" font-size="10.00">Factory.cpp</text>
</a>
</g>
</g>
<!-- Node2&#45;&gt;Node3 -->
<g id="edge2" class="edge">
<title>Node2&#45;&gt;Node3</title>
<path fill="none" stroke="midnightblue" d="M679.2,-136.06C706.81,-125.05 747.07,-108.99 775.82,-97.53"/>
<polygon fill="midnightblue" stroke="midnightblue" points="677.64,-132.91 669.65,-139.87 680.23,-139.42 677.64,-132.91"/>
</g>
<!-- Node4 -->
<g id="node4" class="node">
<title>Node4</title>
<g id="a_node4"><a xlink:href="HealthBarFactory_8cpp.html" target="_top" xlink:title=" ">
<polygon fill="none" stroke="black" points="556,-73 556,-92 726,-92 726,-73 556,-73"/>
<text text-anchor="middle" x="641" y="-80" font-family="Helvetica,sans-Serif" font-size="10.00">src/Factories/HealthBarFactory.cpp</text>
</a>
</g>
</g>
<!-- Node2&#45;&gt;Node4 -->
<g id="edge3" class="edge">
<title>Node2&#45;&gt;Node4</title>
<path fill="none" stroke="midnightblue" d="M645.96,-129.54C644.63,-117.17 642.95,-101.62 641.93,-92.13"/>
<polygon fill="midnightblue" stroke="midnightblue" points="642.51,-130.17 647.06,-139.73 649.47,-129.42 642.51,-130.17"/>
</g>
<!-- Node5 -->
<g id="node5" class="node">
<title>Node5</title>
<g id="a_node5"><a xlink:href="HeroPrefabFactory_8cpp.html" target="_top" xlink:title=" ">
<polygon fill="none" stroke="black" points="1080,-67.5 1080,-97.5 1206,-97.5 1206,-67.5 1080,-67.5"/>
<text text-anchor="start" x="1088" y="-85.5" font-family="Helvetica,sans-Serif" font-size="10.00">src/Factories/HeroPrefab</text>
<text text-anchor="middle" x="1143" y="-74.5" font-family="Helvetica,sans-Serif" font-size="10.00">Factory.cpp</text>
</a>
</g>
</g>
<!-- Node2&#45;&gt;Node5 -->
<g id="edge4" class="edge">
<title>Node2&#45;&gt;Node5</title>
<path fill="none" stroke="midnightblue" d="M710.57,-138.45C721.05,-136.88 731.83,-135.34 742,-134 887.83,-114.78 925.64,-120.54 1071,-98 1073.9,-97.55 1076.86,-97.06 1079.84,-96.55"/>
<polygon fill="midnightblue" stroke="midnightblue" points="710,-135 700.64,-139.96 711.05,-141.92 710,-135"/>
</g>
<!-- Node7 -->
<g id="node7" class="node">
<title>Node7</title>
<g id="a_node7"><a xlink:href="LevelScene_8cpp.html" target="_top" xlink:title=" ">
<polygon fill="none" stroke="black" points="1514.5,-6 1514.5,-25 1653.5,-25 1653.5,-6 1514.5,-6"/>
<text text-anchor="middle" x="1584" y="-13" font-family="Helvetica,sans-Serif" font-size="10.00">src/Scenes/LevelScene.cpp</text>
</a>
</g>
</g>
<!-- Node6&#45;&gt;Node7 -->
<g id="edge6" class="edge">
<title>Node6&#45;&gt;Node7</title>
<path fill="none" stroke="midnightblue" d="M1584.86,-129.78C1584.64,-100.75 1584.22,-46.04 1584.06,-25.02"/>
<polygon fill="midnightblue" stroke="midnightblue" points="1581.36,-129.87 1584.93,-139.84 1588.36,-129.81 1581.36,-129.87"/>
</g>
<!-- Node8 -->
<g id="node8" class="node">
<title>Node8</title>
<g id="a_node8"><a xlink:href="MainScene_8cpp.html" target="_top" xlink:title=" ">
<polygon fill="none" stroke="black" points="1262,-73 1262,-92 1398,-92 1398,-73 1262,-73"/>
<text text-anchor="middle" x="1330" y="-80" font-family="Helvetica,sans-Serif" font-size="10.00">src/Scenes/MainScene.cpp</text>
</a>
</g>
</g>
<!-- Node6&#45;&gt;Node8 -->
<g id="edge7" class="edge">
<title>Node6&#45;&gt;Node8</title>
<path fill="none" stroke="midnightblue" d="M1541.47,-137.4C1491.14,-124.58 1409.39,-103.74 1363.67,-92.08"/>
<polygon fill="midnightblue" stroke="midnightblue" points="1540.85,-140.86 1551.4,-139.94 1542.58,-134.07 1540.85,-140.86"/>
</g>
<!-- Node11&#45;&gt;Node10 -->
<g id="edge15" class="edge">
<title>Node11&#45;&gt;Node10</title>
<path fill="none" stroke="midnightblue" d="M202.67,-129.02C219.64,-118.9 239.98,-106.77 255.39,-97.58"/>
<polygon fill="midnightblue" stroke="midnightblue" points="200.45,-126.27 193.65,-134.4 204.03,-132.28 200.45,-126.27"/>
</g>
<!-- Node12 -->
<g id="node12" class="node">
<title>Node12</title>
<g id="a_node12"><a xlink:href="BulletBehaviour_8hpp.html" target="_top" xlink:title=" ">
<polygon fill="none" stroke="black" points="96,-67.5 96,-97.5 202,-97.5 202,-67.5 96,-67.5"/>
<text text-anchor="start" x="104" y="-85.5" font-family="Helvetica,sans-Serif" font-size="10.00">src/Scripts/Common</text>
<text text-anchor="middle" x="149" y="-74.5" font-family="Helvetica,sans-Serif" font-size="10.00">/BulletBehaviour.hpp</text>
</a>
</g>
</g>
<!-- Node11&#45;&gt;Node12 -->
<g id="edge11" class="edge">
<title>Node11&#45;&gt;Node12</title>
<path fill="none" stroke="midnightblue" d="M162.31,-124.7C159.37,-115.59 156.11,-105.49 153.55,-97.58"/>
<polygon fill="midnightblue" stroke="midnightblue" points="159.04,-125.96 165.44,-134.4 165.7,-123.8 159.04,-125.96"/>
</g>
<!-- Node13 -->
<g id="node13" class="node">
<title>Node13</title>
<g id="a_node13"><a xlink:href="BulletFactory_8cpp.html" target="_top" xlink:title=" ">
<polygon fill="none" stroke="black" points="0,-6 0,-25 152,-25 152,-6 0,-6"/>
<text text-anchor="middle" x="76" y="-13" font-family="Helvetica,sans-Serif" font-size="10.00">src/Factories/BulletFactory.cpp</text>
</a>
</g>
</g>
<!-- Node12&#45;&gt;Node13 -->
<g id="edge12" class="edge">
<title>Node12&#45;&gt;Node13</title>
<path fill="none" stroke="midnightblue" d="M125.61,-60.67C112.13,-48.67 95.9,-34.22 85.76,-25.19"/>
<polygon fill="midnightblue" stroke="midnightblue" points="123.36,-63.36 133.16,-67.4 128.02,-58.13 123.36,-63.36"/>
</g>
<!-- Node14 -->
<g id="node14" class="node">
<title>Node14</title>
<g id="a_node14"><a xlink:href="BulletBehaviour_8cpp.html" target="_top" xlink:title=" ">
<polygon fill="none" stroke="black" points="170,-0.5 170,-30.5 276,-30.5 276,-0.5 170,-0.5"/>
<text text-anchor="start" x="178" y="-18.5" font-family="Helvetica,sans-Serif" font-size="10.00">src/Scripts/Common</text>
<text text-anchor="middle" x="223" y="-7.5" font-family="Helvetica,sans-Serif" font-size="10.00">/BulletBehaviour.cpp</text>
</a>
</g>
</g>
<!-- Node12&#45;&gt;Node14 -->
<g id="edge13" class="edge">
<title>Node12&#45;&gt;Node14</title>
<path fill="none" stroke="midnightblue" d="M172.8,-60.6C183.97,-50.78 196.99,-39.34 206.97,-30.58"/>
<polygon fill="midnightblue" stroke="midnightblue" points="170.26,-58.17 165.06,-67.4 174.88,-63.43 170.26,-58.17"/>
</g>
<!-- Node15 -->
<g id="node15" class="node">
<title>Node15</title>
<g id="a_node15"><a xlink:href="UserAttackBehaviour_8cpp.html" target="_top" xlink:title=" ">
<polygon fill="none" stroke="black" points="1168.5,-0.5 1168.5,-30.5 1299.5,-30.5 1299.5,-0.5 1168.5,-0.5"/>
<text text-anchor="start" x="1176.5" y="-18.5" font-family="Helvetica,sans-Serif" font-size="10.00">src/Scripts/Heroes</text>
<text text-anchor="middle" x="1234" y="-7.5" font-family="Helvetica,sans-Serif" font-size="10.00">/UserAttackBehaviour.cpp</text>
</a>
</g>
</g>
<!-- Node12&#45;&gt;Node15 -->
<g id="edge14" class="edge">
<title>Node12&#45;&gt;Node15</title>
<path fill="none" stroke="midnightblue" d="M212.33,-67.02C416.01,-40.3 975.88,-23.39 1168.2,-18.2"/>
<polygon fill="midnightblue" stroke="midnightblue" points="211.76,-63.57 202.32,-68.39 212.7,-70.51 211.76,-63.57"/>
</g>
<!-- Node17&#45;&gt;Node3 -->
<g id="edge18" class="edge">
<title>Node17&#45;&gt;Node3</title>
<path fill="none" stroke="midnightblue" d="M916.05,-130.27C892.8,-119.92 864.13,-107.15 842.62,-97.58"/>
<polygon fill="midnightblue" stroke="midnightblue" points="914.76,-133.53 925.32,-134.4 917.61,-127.13 914.76,-133.53"/>
</g>
<!-- Node18 -->
<g id="node18" class="node">
<title>Node18</title>
<g id="a_node18"><a xlink:href="EnemyMovementBehaviour_8cpp.html" target="_top" xlink:title=" ">
<polygon fill="none" stroke="black" points="1333,-0.5 1333,-30.5 1489,-30.5 1489,-0.5 1333,-0.5"/>
<text text-anchor="start" x="1341" y="-18.5" font-family="Helvetica,sans-Serif" font-size="10.00">src/Scripts/Enemies</text>
<text text-anchor="middle" x="1411" y="-7.5" font-family="Helvetica,sans-Serif" font-size="10.00">/EnemyMovementBehaviour.cpp</text>
</a>
</g>
</g>
<!-- Node17&#45;&gt;Node18 -->
<g id="edge19" class="edge">
<title>Node17&#45;&gt;Node18</title>
<path fill="none" stroke="midnightblue" d="M936.82,-126.35C923.03,-108.5 909.78,-83.71 925,-67 953.85,-35.32 1266.44,-36.02 1309,-31 1316.73,-30.09 1324.77,-29.07 1332.81,-28"/>
<polygon fill="midnightblue" stroke="midnightblue" points="934.45,-128.98 943.51,-134.49 939.86,-124.54 934.45,-128.98"/>
</g>
<!-- Node19&#45;&gt;Node5 -->
<g id="edge21" class="edge">
<title>Node19&#45;&gt;Node5</title>
<path fill="none" stroke="midnightblue" d="M1126.4,-124.99C1130.08,-115.8 1134.17,-105.58 1137.37,-97.58"/>
<polygon fill="midnightblue" stroke="midnightblue" points="1123.11,-123.81 1122.64,-134.4 1129.61,-126.41 1123.11,-123.81"/>
</g>
<!-- Node20 -->
<g id="node20" class="node">
<title>Node20</title>
<g id="a_node20"><a xlink:href="HealAbilityBehaviour_8cpp.html" target="_top" xlink:title=" ">
<polygon fill="none" stroke="black" points="934,-67.5 934,-97.5 1062,-97.5 1062,-67.5 934,-67.5"/>
<text text-anchor="start" x="942" y="-85.5" font-family="Helvetica,sans-Serif" font-size="10.00">src/Scripts/Heroes</text>
<text text-anchor="middle" x="998" y="-74.5" font-family="Helvetica,sans-Serif" font-size="10.00">/HealAbilityBehaviour.cpp</text>
</a>
</g>
</g>
<!-- Node19&#45;&gt;Node20 -->
<g id="edge22" class="edge">
<title>Node19&#45;&gt;Node20</title>
<path fill="none" stroke="midnightblue" d="M1082.35,-129.57C1063.63,-119.35 1040.91,-106.94 1023.77,-97.58"/>
<polygon fill="midnightblue" stroke="midnightblue" points="1080.72,-132.67 1091.18,-134.4 1084.08,-126.53 1080.72,-132.67"/>
</g>
<!-- Node21&#45;&gt;Node5 -->
<g id="edge24" class="edge">
<title>Node21&#45;&gt;Node5</title>
<path fill="none" stroke="midnightblue" d="M1229.48,-129.57C1210.29,-119.35 1187,-106.94 1169.42,-97.58"/>
<polygon fill="midnightblue" stroke="midnightblue" points="1228.06,-132.78 1238.53,-134.4 1231.35,-126.6 1228.06,-132.78"/>
</g>
<!-- Node21&#45;&gt;Node8 -->
<g id="edge25" class="edge">
<title>Node21&#45;&gt;Node8</title>
<path fill="none" stroke="midnightblue" d="M1286.5,-127C1298.37,-115.13 1312.45,-101.05 1321.31,-92.19"/>
<polygon fill="midnightblue" stroke="midnightblue" points="1283.7,-124.85 1279.1,-134.4 1288.65,-129.8 1283.7,-124.85"/>
</g>
<!-- Node21&#45;&gt;Node15 -->
<g id="edge26" class="edge">
<title>Node21&#45;&gt;Node15</title>
<path fill="none" stroke="midnightblue" d="M1259.27,-124.47C1257.28,-116.1 1255.03,-106.63 1253,-98 1247.44,-74.38 1241.05,-46.9 1237.28,-30.64"/>
<polygon fill="midnightblue" stroke="midnightblue" points="1255.9,-125.44 1261.62,-134.35 1262.71,-123.82 1255.9,-125.44"/>
</g>
<!-- Node22&#45;&gt;Node5 -->
<g id="edge28" class="edge">
<title>Node22&#45;&gt;Node5</title>
<path fill="none" stroke="midnightblue" d="M1352.72,-132.19C1306.87,-121.54 1247.61,-107.78 1203.79,-97.61"/>
<polygon fill="midnightblue" stroke="midnightblue" points="1352.06,-135.62 1362.59,-134.48 1353.64,-128.81 1352.06,-135.62"/>
</g>
<!-- Node22&#45;&gt;Node8 -->
<g id="edge29" class="edge">
<title>Node22&#45;&gt;Node8</title>
<path fill="none" stroke="midnightblue" d="M1394.59,-128.64C1377.04,-116.37 1355.41,-101.26 1342.17,-92.01"/>
<polygon fill="midnightblue" stroke="midnightblue" points="1392.62,-131.54 1402.82,-134.4 1396.63,-125.8 1392.62,-131.54"/>
</g>
<!-- Node23 -->
<g id="node23" class="node">
<title>Node23</title>
<g id="a_node23"><a xlink:href="UserMovementBehaviour_8cpp.html" target="_top" xlink:title=" ">
<polygon fill="none" stroke="black" points="1416,-67.5 1416,-97.5 1564,-97.5 1564,-67.5 1416,-67.5"/>
<text text-anchor="start" x="1424" y="-85.5" font-family="Helvetica,sans-Serif" font-size="10.00">src/Scripts/Heroes</text>
<text text-anchor="middle" x="1490" y="-74.5" font-family="Helvetica,sans-Serif" font-size="10.00">/UserMovementBehaviour.cpp</text>
</a>
</g>
</g>
<!-- Node22&#45;&gt;Node23 -->
<g id="edge30" class="edge">
<title>Node22&#45;&gt;Node23</title>
<path fill="none" stroke="midnightblue" d="M1444.84,-127.31C1454.89,-117.56 1466.54,-106.26 1475.49,-97.58"/>
<polygon fill="midnightblue" stroke="midnightblue" points="1442.28,-124.92 1437.54,-134.4 1447.15,-129.94 1442.28,-124.92"/>
</g>
<!-- Node24&#45;&gt;Node4 -->
<g id="edge32" class="edge">
<title>Node24&#45;&gt;Node4</title>
<path fill="none" stroke="midnightblue" d="M523.56,-130.62C554.92,-118.04 595.48,-101.77 619.8,-92.01"/>
<polygon fill="midnightblue" stroke="midnightblue" points="522.13,-127.42 514.15,-134.4 524.74,-133.92 522.13,-127.42"/>
</g>
<!-- Node25 -->
<g id="node25" class="node">
<title>Node25</title>
<g id="a_node25"><a xlink:href="HealthBarBehaviour_8cpp.html" target="_top" xlink:title=" ">
<polygon fill="none" stroke="black" points="406.5,-67.5 406.5,-97.5 537.5,-97.5 537.5,-67.5 406.5,-67.5"/>
<text text-anchor="start" x="414.5" y="-85.5" font-family="Helvetica,sans-Serif" font-size="10.00">src/Scripts/Hud/HealthBar</text>
<text text-anchor="middle" x="472" y="-74.5" font-family="Helvetica,sans-Serif" font-size="10.00">Behaviour.cpp</text>
</a>
</g>
</g>
<!-- Node24&#45;&gt;Node25 -->
<g id="edge33" class="edge">
<title>Node24&#45;&gt;Node25</title>
<path fill="none" stroke="midnightblue" d="M476.4,-124.4C475.43,-115.37 474.36,-105.41 473.52,-97.58"/>
<polygon fill="midnightblue" stroke="midnightblue" points="472.93,-124.83 477.48,-134.4 479.89,-124.08 472.93,-124.83"/>
</g>
<!-- Node27 -->
<g id="node27" class="node">
<title>Node27</title>
<g id="a_node27"><a xlink:href="LevelController_8hpp.html" target="_top" xlink:title=" ">
<polygon fill="none" stroke="black" points="1620,-73 1620,-92 1786,-92 1786,-73 1620,-73"/>
<text text-anchor="middle" x="1703" y="-80" font-family="Helvetica,sans-Serif" font-size="10.00">src/Controllers/LevelController.hpp</text>
</a>
</g>
</g>
<!-- Node26&#45;&gt;Node27 -->
<g id="edge35" class="edge">
<title>Node26&#45;&gt;Node27</title>
<path fill="none" stroke="midnightblue" d="M1777.72,-134.09C1758.73,-121.24 1731.55,-102.83 1715.74,-92.13"/>
<polygon fill="midnightblue" stroke="midnightblue" points="1775.81,-137.03 1786.05,-139.73 1779.73,-131.23 1775.81,-137.03"/>
</g>
<!-- Node30 -->
<g id="node30" class="node">
<title>Node30</title>
<g id="a_node30"><a xlink:href="GameLostBehaviour_8hpp.html" target="_top" xlink:title=" ">
<polygon fill="none" stroke="black" points="1804.5,-67.5 1804.5,-97.5 1931.5,-97.5 1931.5,-67.5 1804.5,-67.5"/>
<text text-anchor="start" x="1812.5" y="-85.5" font-family="Helvetica,sans-Serif" font-size="10.00">src/Scripts/Common</text>
<text text-anchor="middle" x="1868" y="-74.5" font-family="Helvetica,sans-Serif" font-size="10.00">/GameLostBehaviour.hpp</text>
</a>
</g>
</g>
<!-- Node26&#45;&gt;Node30 -->
<g id="edge41" class="edge">
<title>Node26&#45;&gt;Node30</title>
<path fill="none" stroke="midnightblue" d="M1815.86,-132.62C1827.23,-121.91 1842.1,-107.9 1853.04,-97.59"/>
<polygon fill="midnightblue" stroke="midnightblue" points="1813.18,-130.33 1808.31,-139.73 1817.98,-135.42 1813.18,-130.33"/>
</g>
<!-- Node32 -->
<g id="node32" class="node">
<title>Node32</title>
<g id="a_node32"><a xlink:href="GameWonBehaviour_8hpp.html" target="_top" xlink:title=" ">
<polygon fill="none" stroke="black" points="1949.5,-67.5 1949.5,-97.5 2076.5,-97.5 2076.5,-67.5 1949.5,-67.5"/>
<text text-anchor="start" x="1957.5" y="-85.5" font-family="Helvetica,sans-Serif" font-size="10.00">src/Scripts/Common</text>
<text text-anchor="middle" x="2013" y="-74.5" font-family="Helvetica,sans-Serif" font-size="10.00">/GameWonBehaviour.hpp</text>
</a>
</g>
</g>
<!-- Node26&#45;&gt;Node32 -->
<g id="edge45" class="edge">
<title>Node26&#45;&gt;Node32</title>
<path fill="none" stroke="midnightblue" d="M1837.14,-136.92C1873.42,-125.9 1928.08,-109.29 1966.82,-97.53"/>
<polygon fill="midnightblue" stroke="midnightblue" points="1835.97,-133.61 1827.42,-139.87 1838,-140.31 1835.97,-133.61"/>
</g>
<!-- Node34 -->
<g id="node34" class="node">
<title>Node34</title>
<g id="a_node34"><a xlink:href="LevelData_8cpp.html" target="_top" xlink:title=" ">
<polygon fill="none" stroke="black" points="2095,-73 2095,-92 2225,-92 2225,-73 2095,-73"/>
<text text-anchor="middle" x="2160" y="-80" font-family="Helvetica,sans-Serif" font-size="10.00">src/Structs/LevelData.cpp</text>
</a>
</g>
</g>
<!-- Node26&#45;&gt;Node34 -->
<g id="edge49" class="edge">
<title>Node26&#45;&gt;Node34</title>
<path fill="none" stroke="midnightblue" d="M1852.11,-138.08C1859.46,-136.68 1866.91,-135.29 1874,-134 1968.03,-116.93 1991.99,-115.19 2086,-98 2096.17,-96.14 2107.12,-94.05 2117.38,-92.04"/>
<polygon fill="midnightblue" stroke="midnightblue" points="1851.36,-134.66 1842.2,-139.97 1852.68,-141.53 1851.36,-134.66"/>
</g>
<!-- Node27&#45;&gt;Node7 -->
<g id="edge37" class="edge">
<title>Node27&#45;&gt;Node7</title>
<path fill="none" stroke="midnightblue" d="M1677.89,-67.79C1654.31,-54.9 1619.74,-36.02 1599.79,-25.13"/>
<polygon fill="midnightblue" stroke="midnightblue" points="1676.5,-71.01 1686.95,-72.73 1679.85,-64.87 1676.5,-71.01"/>
</g>
<!-- Node27&#45;&gt;Node15 -->
<g id="edge40" class="edge">
<title>Node27&#45;&gt;Node15</title>
<path fill="none" stroke="midnightblue" d="M1624.74,-71.7C1548.04,-61.96 1427.86,-46.28 1324,-31 1316.17,-29.85 1307.97,-28.59 1299.83,-27.32"/>
<polygon fill="midnightblue" stroke="midnightblue" points="1624.44,-75.19 1634.8,-72.98 1625.32,-68.25 1624.44,-75.19"/>
</g>
<!-- Node27&#45;&gt;Node18 -->
<g id="edge39" class="edge">
<title>Node27&#45;&gt;Node18</title>
<path fill="none" stroke="midnightblue" d="M1654.73,-70.75C1605.34,-59.76 1528.36,-42.63 1474.16,-30.56"/>
<polygon fill="midnightblue" stroke="midnightblue" points="1654,-74.18 1664.53,-72.94 1655.53,-67.35 1654,-74.18"/>
</g>
<!-- Node28 -->
<g id="node28" class="node">
<title>Node28</title>
<g id="a_node28"><a xlink:href="LevelController_8cpp.html" target="_top" xlink:title=" ">
<polygon fill="none" stroke="black" points="1672,-6 1672,-25 1838,-25 1838,-6 1672,-6"/>
<text text-anchor="middle" x="1755" y="-13" font-family="Helvetica,sans-Serif" font-size="10.00">src/Controllers/LevelController.cpp</text>
</a>
</g>
</g>
<!-- Node27&#45;&gt;Node28 -->
<g id="edge36" class="edge">
<title>Node27&#45;&gt;Node28</title>
<path fill="none" stroke="midnightblue" d="M1716.38,-64.77C1726.52,-52.1 1740.04,-35.2 1748.1,-25.13"/>
<polygon fill="midnightblue" stroke="midnightblue" points="1713.53,-62.74 1710.01,-72.73 1718.99,-67.11 1713.53,-62.74"/>
</g>
<!-- Node29 -->
<g id="node29" class="node">
<title>Node29</title>
<g id="a_node29"><a xlink:href="CheatManager_8cpp.html" target="_top" xlink:title=" ">
<polygon fill="none" stroke="black" points="1856,-0.5 1856,-30.5 1962,-30.5 1962,-0.5 1856,-0.5"/>
<text text-anchor="start" x="1864" y="-18.5" font-family="Helvetica,sans-Serif" font-size="10.00">src/Scripts/Common</text>
<text text-anchor="middle" x="1909" y="-7.5" font-family="Helvetica,sans-Serif" font-size="10.00">/CheatManager.cpp</text>
</a>
</g>
</g>
<!-- Node27&#45;&gt;Node29 -->
<g id="edge38" class="edge">
<title>Node27&#45;&gt;Node29</title>
<path fill="none" stroke="midnightblue" d="M1740.16,-69.77C1775.09,-58.75 1827.41,-42.24 1864.54,-30.53"/>
<polygon fill="midnightblue" stroke="midnightblue" points="1738.84,-66.52 1730.36,-72.87 1740.94,-73.2 1738.84,-66.52"/>
</g>
<!-- Node30&#45;&gt;Node28 -->
<g id="edge42" class="edge">
<title>Node30&#45;&gt;Node28</title>
<path fill="none" stroke="midnightblue" d="M1834.63,-62.31C1813.11,-49.93 1786.17,-34.43 1769.79,-25.01"/>
<polygon fill="midnightblue" stroke="midnightblue" points="1833.07,-65.44 1843.48,-67.4 1836.56,-59.38 1833.07,-65.44"/>
</g>
<!-- Node30&#45;&gt;Node29 -->
<g id="edge43" class="edge">
<title>Node30&#45;&gt;Node29</title>
<path fill="none" stroke="midnightblue" d="M1882.28,-58.87C1888.21,-49.46 1894.91,-38.83 1900.12,-30.58"/>
<polygon fill="midnightblue" stroke="midnightblue" points="1879.27,-57.07 1876.9,-67.4 1885.19,-60.81 1879.27,-57.07"/>
</g>
<!-- Node31 -->
<g id="node31" class="node">
<title>Node31</title>
<g id="a_node31"><a xlink:href="GameLostBehaviour_8cpp.html" target="_top" xlink:title=" ">
<polygon fill="none" stroke="black" points="1980.5,-0.5 1980.5,-30.5 2107.5,-30.5 2107.5,-0.5 1980.5,-0.5"/>
<text text-anchor="start" x="1988.5" y="-18.5" font-family="Helvetica,sans-Serif" font-size="10.00">src/Scripts/Common</text>
<text text-anchor="middle" x="2044" y="-7.5" font-family="Helvetica,sans-Serif" font-size="10.00">/GameLostBehaviour.cpp</text>
</a>
</g>
</g>
<!-- Node30&#45;&gt;Node31 -->
<g id="edge44" class="edge">
<title>Node30&#45;&gt;Node31</title>
<path fill="none" stroke="midnightblue" d="M1915.88,-63.82C1944.17,-53.37 1979.49,-40.32 2005.89,-30.58"/>
<polygon fill="midnightblue" stroke="midnightblue" points="1914.36,-60.65 1906.19,-67.4 1916.78,-67.21 1914.36,-60.65"/>
</g>
<!-- Node32&#45;&gt;Node28 -->
<g id="edge46" class="edge">
<title>Node32&#45;&gt;Node28</title>
<path fill="none" stroke="midnightblue" d="M1947.47,-64.99C1896.91,-52.25 1829.02,-35.15 1788.85,-25.03"/>
<polygon fill="midnightblue" stroke="midnightblue" points="1946.78,-68.43 1957.34,-67.48 1948.49,-61.64 1946.78,-68.43"/>
</g>
<!-- Node32&#45;&gt;Node29 -->
<g id="edge47" class="edge">
<title>Node32&#45;&gt;Node29</title>
<path fill="none" stroke="midnightblue" d="M1981.82,-62.02C1965.64,-51.9 1946.23,-39.77 1931.52,-30.58"/>
<polygon fill="midnightblue" stroke="midnightblue" points="1980.1,-65.06 1990.43,-67.4 1983.81,-59.13 1980.1,-65.06"/>
</g>
<!-- Node33 -->
<g id="node33" class="node">
<title>Node33</title>
<g id="a_node33"><a xlink:href="GameWonBehaviour_8cpp.html" target="_top" xlink:title=" ">
<polygon fill="none" stroke="black" points="2125.5,-0.5 2125.5,-30.5 2252.5,-30.5 2252.5,-0.5 2125.5,-0.5"/>
<text text-anchor="start" x="2133.5" y="-18.5" font-family="Helvetica,sans-Serif" font-size="10.00">src/Scripts/Common</text>
<text text-anchor="middle" x="2189" y="-7.5" font-family="Helvetica,sans-Serif" font-size="10.00">/GameWonBehaviour.cpp</text>
</a>
</g>
</g>
<!-- Node32&#45;&gt;Node33 -->
<g id="edge48" class="edge">
<title>Node32&#45;&gt;Node33</title>
<path fill="none" stroke="midnightblue" d="M2060.88,-63.82C2089.17,-53.37 2124.49,-40.32 2150.89,-30.58"/>
<polygon fill="midnightblue" stroke="midnightblue" points="2059.36,-60.65 2051.19,-67.4 2061.78,-67.21 2059.36,-60.65"/>
</g>
</g>
</svg>
        <g id="navigator" transform="translate(0 0)" fill="#404254">
                <rect fill="#f2f5e9" fill-opacity="0.5" stroke="#606060" stroke-width=".5" x="0" y="0" width="60" height="60"/>
                <use id="zoomplus" xlink:href="#zoomPlus" x="17" y="9" onmousedown="handleZoom(evt,'in')"/>
                <use id="zoomminus" xlink:href="#zoomMin" x="42" y="9" onmousedown="handleZoom(evt,'out')"/>
                <use id="reset" xlink:href="#resetDef" x="30" y="36" onmousedown="handleReset()"/>
                <g id="arrowUp" xlink:href="#dirArrow" transform="translate(30 24)" onmousedown="handlePan(0,-1)">
                  <use xlink:href="#rim" fill="#404040">
                        <set attributeName="fill" to="#808080" begin="arrowUp.mouseover" end="arrowUp.mouseout"/>
                  </use>
                  <path fill="none" stroke="white" stroke-width="1.5" d="M0,-3.0v7 M-2.5,-0.5L0,-3.0L2.5,-0.5"/>
                </g>
                <g id="arrowRight" xlink:href="#dirArrow" transform="rotate(90) translate(36 -43)" onmousedown="handlePan(1,0)">
                  <use xlink:href="#rim" fill="#404040">
                        <set attributeName="fill" to="#808080" begin="arrowRight.mouseover" end="arrowRight.mouseout"/>
                  </use>
                  <path fill="none" stroke="white" stroke-width="1.5" d="M0,-3.0v7 M-2.5,-0.5L0,-3.0L2.5,-0.5"/>
                </g>
                <g id="arrowDown" xlink:href="#dirArrow" transform="rotate(180) translate(-30 -48)" onmousedown="handlePan(0,1)">
                  <use xlink:href="#rim" fill="#404040">
                        <set attributeName="fill" to="#808080" begin="arrowDown.mouseover" end="arrowDown.mouseout"/>
                  </use>
                  <path fill="none" stroke="white" stroke-width="1.5" d="M0,-3.0v7 M-2.5,-0.5L0,-3.0L2.5,-0.5"/>
                </g>
                <g id="arrowLeft" xlink:href="#dirArrow" transform="rotate(270) translate(-36 17)" onmousedown="handlePan(-1,0)">
                  <use xlink:href="#rim" fill="#404040">
                        <set attributeName="fill" to="#808080" begin="arrowLeft.mouseover" end="arrowLeft.mouseout"/>
                  </use>
                  <path fill="none" stroke="white" stroke-width="1.5" d="M0,-3.0v7 M-2.5,-0.5L0,-3.0L2.5,-0.5"/>
                </g>
        </g>
        <svg viewBox="0 0 15 15" width="100%" height="30px" preserveAspectRatio="xMaxYMin meet">
         <g id="arrow_out" transform="scale(0.3 0.3)">
          <a xlink:href="HealthBehaviour_8hpp__dep__incl_org.svg" target="_base">
           <rect id="button" ry="5" rx="5" y="6" x="6" height="38" width="38"
                fill="#f2f5e9" fill-opacity="0.5" stroke="#606060" stroke-width="1.0"/>
           <path id="arrow"
             d="M 11.500037,31.436501 C 11.940474,20.09759 22.043105,11.32322 32.158766,21.979434 L 37.068811,17.246167 C 37.068811,17.246167 37.088388,32 37.088388,32 L 22.160133,31.978069 C 22.160133,31.978069 26.997745,27.140456 26.997745,27.140456 C 18.528582,18.264221 13.291696,25.230495 11.500037,31.436501 z"
             style="fill:#404040;"/>
          </a>
         </g>
        </svg>
</svg>
