<?xml version="1.0" encoding="UTF-8" standalone="no"?>
<!DOCTYPE svg PUBLIC "-//W3C//DTD SVG 1.1//EN"
 "http://www.w3.org/Graphics/SVG/1.1/DTD/svg11.dtd">
<!-- Generated by graphviz version 2.44.0 ()
 -->
<!-- Title: src/Scripts/Heroes/HealAbilityBehaviour.cpp Pages: 1 -->
<!--zoomable 375 -->
<svg id="main" version="1.1" xmlns="http://www.w3.org/2000/svg" xmlns:xlink="http://www.w3.org/1999/xlink" xml:space="preserve" onload="init(evt)">
<style type="text/css"><![CDATA[
.edge:hover path { stroke: red; }
.edge:hover polygon { stroke: red; fill: red; }
]]></style>
<script type="text/javascript"><![CDATA[
var edges = document.getElementsByTagName('g');
if (edges && edges.length) {
  for (var i=0;i<edges.length;i++) {
    if (edges[i].id.substr(0,4)=='edge') {
      edges[i].setAttribute('class','edge');
    }
  }
}
]]></script>
        <defs>
                <circle id="rim" cx="0" cy="0" r="7"/>
                <circle id="rim2" cx="0" cy="0" r="3.5"/>
                <g id="zoomPlus">
                        <use xlink:href="#rim" fill="#404040">
                                <set attributeName="fill" to="#808080" begin="zoomplus.mouseover" end="zoomplus.mouseout"/>
                        </use>
                        <path d="M-4,0h8M0,-4v8" fill="none" stroke="white" stroke-width="1.5" pointer-events="none"/>
                </g>
                <g id="zoomMin">
                        <use xlink:href="#rim" fill="#404040">
                                <set attributeName="fill" to="#808080" begin="zoomminus.mouseover" end="zoomminus.mouseout"/>
                        </use>
                        <path d="M-4,0h8" fill="none" stroke="white" stroke-width="1.5" pointer-events="none"/>
                </g>
                <g id="dirArrow">
                        <path fill="none" stroke="white" stroke-width="1.5" d="M0,-3.0v7 M-2.5,-0.5L0,-3.0L2.5,-0.5"/>
                </g>
               <g id="resetDef">
                       <use xlink:href="#rim2" fill="#404040">
                               <set attributeName="fill" to="#808080" begin="reset.mouseover" end="reset.mouseout"/>
                       </use>
               </g>
        </defs>

<script type="text/javascript">
var viewWidth = 765;
var viewHeight = 375;
var sectionId = 'dynsection-0';
</script>
<script xlink:href="svgpan.js"/>
<svg id="graph" class="graph">
<g id="viewport">
<title>src/Scripts/Heroes/HealAbilityBehaviour.cpp</title>
<!-- Node1 -->
<g id="node1" class="node">
<title>Node1</title>
<g id="a_node1"><a xlink:title=" ">
<polygon fill="#bfbfbf" stroke="black" points="409.13,-336.5 409.13,-366.5 537.13,-366.5 537.13,-336.5 409.13,-336.5"/>
<text text-anchor="start" x="417.13" y="-354.5" font-family="Helvetica,sans-Serif" font-size="10.00">src/Scripts/Heroes</text>
<text text-anchor="middle" x="473.13" y="-343.5" font-family="Helvetica,sans-Serif" font-size="10.00">/HealAbilityBehaviour.cpp</text>
</a>
</g>
</g>
<!-- Node2 -->
<g id="node2" class="node">
<title>Node2</title>
<g id="a_node2"><a xlink:href="HealAbilityBehaviour_8hpp.html" target="_top" xlink:title=" ">
<polygon fill="none" stroke="black" points="196.63,-280.5 196.63,-299.5 321.63,-299.5 321.63,-280.5 196.63,-280.5"/>
<text text-anchor="middle" x="259.13" y="-287.5" font-family="Helvetica,sans-Serif" font-size="10.00">HealAbilityBehaviour.hpp</text>
</a>
</g>
</g>
<!-- Node1&#45;&gt;Node2 -->
<g id="edge1" class="edge">
<title>Node1&#45;&gt;Node2</title>
<path fill="none" stroke="midnightblue" d="M422.69,-336.47C385.12,-326.03 334.51,-311.96 299.58,-302.25"/>
<polygon fill="midnightblue" stroke="midnightblue" points="300.3,-298.81 289.73,-299.51 298.42,-305.56 300.3,-298.81"/>
</g>
<!-- Node14 -->
<g id="node14" class="node">
<title>Node14</title>
<g id="a_node14"><a xlink:href="GameObject_8hpp.html" target="_top" xlink:title=" ">
<polygon fill="none" stroke="black" points="355.63,-168.5 355.63,-187.5 444.63,-187.5 444.63,-168.5 355.63,-168.5"/>
<text text-anchor="middle" x="400.13" y="-175.5" font-family="Helvetica,sans-Serif" font-size="10.00">GameObject.hpp</text>
</a>
</g>
</g>
<!-- Node1&#45;&gt;Node14 -->
<g id="edge20" class="edge">
<title>Node1&#45;&gt;Node14</title>
<path fill="none" stroke="midnightblue" d="M467.16,-336.47C453.95,-305.44 422.29,-231.05 407.71,-196.81"/>
<polygon fill="midnightblue" stroke="midnightblue" points="410.91,-195.39 403.78,-187.56 404.47,-198.13 410.91,-195.39"/>
</g>
<!-- Node17 -->
<g id="node17" class="node">
<title>Node17</title>
<g id="a_node17"><a xlink:href="Input_8hpp.html" target="_top" xlink:title=" ">
<polygon fill="none" stroke="black" points="545.13,-112.5 545.13,-131.5 601.13,-131.5 601.13,-112.5 545.13,-112.5"/>
<text text-anchor="middle" x="573.13" y="-119.5" font-family="Helvetica,sans-Serif" font-size="10.00">Input.hpp</text>
</a>
</g>
</g>
<!-- Node1&#45;&gt;Node17 -->
<g id="edge27" class="edge">
<title>Node1&#45;&gt;Node17</title>
<path fill="none" stroke="midnightblue" d="M473.07,-336.18C473.46,-312.02 476.43,-262.08 493.13,-224 508.15,-189.76 537.65,-157.18 556.33,-138.69"/>
<polygon fill="midnightblue" stroke="midnightblue" points="558.84,-141.13 563.6,-131.66 553.98,-136.1 558.84,-141.13"/>
</g>
<!-- Node20 -->
<g id="node20" class="node">
<title>Node20</title>
<g id="a_node20"><a xlink:href="GameObjectUtil_8hpp.html" target="_top" xlink:title=" ">
<polygon fill="none" stroke="black" points="501.63,-224.5 501.63,-243.5 644.63,-243.5 644.63,-224.5 501.63,-224.5"/>
<text text-anchor="middle" x="573.13" y="-231.5" font-family="Helvetica,sans-Serif" font-size="10.00">../../Utils/GameObjectUtil.hpp</text>
</a>
</g>
</g>
<!-- Node1&#45;&gt;Node20 -->
<g id="edge32" class="edge">
<title>Node1&#45;&gt;Node20</title>
<path fill="none" stroke="midnightblue" d="M483.94,-336.44C495.17,-322.01 513.4,-299.03 530.13,-280 538.79,-270.16 548.89,-259.55 557.13,-251.1"/>
<polygon fill="midnightblue" stroke="midnightblue" points="559.83,-253.34 564.34,-243.76 554.84,-248.44 559.83,-253.34"/>
</g>
<!-- Node21 -->
<g id="node21" class="node">
<title>Node21</title>
<g id="a_node21"><a xlink:href="Constants_8hpp.html" target="_top" xlink:title=" ">
<polygon fill="none" stroke="black" points="539.13,-280.5 539.13,-299.5 633.13,-299.5 633.13,-280.5 539.13,-280.5"/>
<text text-anchor="middle" x="586.13" y="-287.5" font-family="Helvetica,sans-Serif" font-size="10.00">../../Constants.hpp</text>
</a>
</g>
</g>
<!-- Node1&#45;&gt;Node21 -->
<g id="edge35" class="edge">
<title>Node1&#45;&gt;Node21</title>
<path fill="none" stroke="midnightblue" d="M499.91,-336.4C518.19,-326.77 542.28,-314.09 560.35,-304.58"/>
<polygon fill="midnightblue" stroke="midnightblue" points="562.47,-307.41 569.69,-299.66 559.21,-301.22 562.47,-307.41"/>
</g>
<!-- Node3 -->
<g id="node3" class="node">
<title>Node3</title>
<g id="a_node3"><a xlink:href="BehaviourScript_8hpp.html" target="_top" xlink:title=" ">
<polygon fill="none" stroke="black" points="150.13,-168.5 150.13,-187.5 254.13,-187.5 254.13,-168.5 150.13,-168.5"/>
<text text-anchor="middle" x="202.13" y="-175.5" font-family="Helvetica,sans-Serif" font-size="10.00">BehaviourScript.hpp</text>
</a>
</g>
</g>
<!-- Node2&#45;&gt;Node3 -->
<g id="edge2" class="edge">
<title>Node2&#45;&gt;Node3</title>
<path fill="none" stroke="midnightblue" d="M249.72,-280.2C241.14,-271.69 228.68,-258.05 221.13,-244 213.31,-229.43 208.35,-211.26 205.47,-197.83"/>
<polygon fill="midnightblue" stroke="midnightblue" points="208.87,-197 203.52,-187.86 202,-198.34 208.87,-197"/>
</g>
<!-- Node7 -->
<g id="node7" class="node">
<title>Node7</title>
<g id="a_node7"><a xlink:href="CoolDownBehaviour_8hpp.html" target="_top" xlink:title=" ">
<polygon fill="none" stroke="black" points="230.13,-224.5 230.13,-243.5 402.13,-243.5 402.13,-224.5 230.13,-224.5"/>
<text text-anchor="middle" x="316.13" y="-231.5" font-family="Helvetica,sans-Serif" font-size="10.00">../Common/CoolDownBehaviour.hpp</text>
</a>
</g>
</g>
<!-- Node2&#45;&gt;Node7 -->
<g id="edge7" class="edge">
<title>Node2&#45;&gt;Node7</title>
<path fill="none" stroke="midnightblue" d="M268.29,-280.32C276.63,-272.42 289.17,-260.55 299.31,-250.94"/>
<polygon fill="midnightblue" stroke="midnightblue" points="301.96,-253.25 306.81,-243.83 297.14,-248.17 301.96,-253.25"/>
</g>
<!-- Node8 -->
<g id="node8" class="node">
<title>Node8</title>
<g id="a_node8"><a xlink:href="HealthBehaviour_8hpp.html" target="_top" xlink:title=" ">
<polygon fill="none" stroke="black" points="18.13,-224.5 18.13,-243.5 174.13,-243.5 174.13,-224.5 18.13,-224.5"/>
<text text-anchor="middle" x="96.13" y="-231.5" font-family="Helvetica,sans-Serif" font-size="10.00">../Common/HealthBehaviour.hpp</text>
</a>
</g>
</g>
<!-- Node2&#45;&gt;Node8 -->
<g id="edge9" class="edge">
<title>Node2&#45;&gt;Node8</title>
<path fill="none" stroke="midnightblue" d="M233.31,-280.44C205.88,-271.36 162.36,-256.94 131.7,-246.78"/>
<polygon fill="midnightblue" stroke="midnightblue" points="132.43,-243.34 121.84,-243.52 130.23,-249.98 132.43,-243.34"/>
</g>
<!-- Node4 -->
<g id="node4" class="node">
<title>Node4</title>
<g id="a_node4"><a xlink:href="Component_8hpp.html" target="_top" xlink:title=" ">
<polygon fill="none" stroke="black" points="116.13,-56.5 116.13,-75.5 200.13,-75.5 200.13,-56.5 116.13,-56.5"/>
<text text-anchor="middle" x="158.13" y="-63.5" font-family="Helvetica,sans-Serif" font-size="10.00">Component.hpp</text>
</a>
</g>
</g>
<!-- Node3&#45;&gt;Node4 -->
<g id="edge3" class="edge">
<title>Node3&#45;&gt;Node4</title>
<path fill="none" stroke="midnightblue" d="M196.55,-168.33C191.03,-159.47 182.65,-145.19 177.13,-132 170.76,-116.74 165.66,-98.64 162.35,-85.41"/>
<polygon fill="midnightblue" stroke="midnightblue" points="165.74,-84.53 160.01,-75.62 158.93,-86.16 165.74,-84.53"/>
</g>
<!-- Node6 -->
<g id="node6" class="node">
<title>Node6</title>
<g id="a_node6"><a xlink:href="Collider_8hpp.html" target="_top" xlink:title=" ">
<polygon fill="none" stroke="black" points="186.63,-112.5 186.63,-131.5 253.63,-131.5 253.63,-112.5 186.63,-112.5"/>
<text text-anchor="middle" x="220.13" y="-119.5" font-family="Helvetica,sans-Serif" font-size="10.00">Collider.hpp</text>
</a>
</g>
</g>
<!-- Node3&#45;&gt;Node6 -->
<g id="edge5" class="edge">
<title>Node3&#45;&gt;Node6</title>
<path fill="none" stroke="midnightblue" d="M205.11,-168.08C207.52,-160.85 211,-150.41 214,-141.4"/>
<polygon fill="midnightblue" stroke="midnightblue" points="217.37,-142.34 217.22,-131.75 210.73,-140.13 217.37,-142.34"/>
</g>
<!-- Node5 -->
<g id="node5" class="node">
<title>Node5</title>
<g id="a_node5"><a xlink:title=" ">
<polygon fill="none" stroke="#bfbfbf" points="132.63,-0.5 132.63,-19.5 183.63,-19.5 183.63,-0.5 132.63,-0.5"/>
<text text-anchor="middle" x="158.13" y="-7.5" font-family="Helvetica,sans-Serif" font-size="10.00">memory</text>
</a>
</g>
</g>
<!-- Node4&#45;&gt;Node5 -->
<g id="edge4" class="edge">
<title>Node4&#45;&gt;Node5</title>
<path fill="none" stroke="midnightblue" d="M158.13,-56.08C158.13,-49.01 158.13,-38.86 158.13,-29.99"/>
<polygon fill="midnightblue" stroke="midnightblue" points="161.63,-29.75 158.13,-19.75 154.63,-29.75 161.63,-29.75"/>
</g>
<!-- Node6&#45;&gt;Node4 -->
<g id="edge6" class="edge">
<title>Node6&#45;&gt;Node4</title>
<path fill="none" stroke="midnightblue" d="M210.17,-112.32C201.01,-104.34 187.2,-92.31 176.1,-82.65"/>
<polygon fill="midnightblue" stroke="midnightblue" points="178.12,-79.76 168.28,-75.83 173.52,-85.04 178.12,-79.76"/>
</g>
<!-- Node7&#45;&gt;Node3 -->
<g id="edge8" class="edge">
<title>Node7&#45;&gt;Node3</title>
<path fill="none" stroke="midnightblue" d="M298.07,-224.44C279.56,-215.68 250.55,-201.94 229.28,-191.86"/>
<polygon fill="midnightblue" stroke="midnightblue" points="230.65,-188.63 220.11,-187.52 227.65,-194.96 230.65,-188.63"/>
</g>
<!-- Node8&#45;&gt;Node3 -->
<g id="edge10" class="edge">
<title>Node8&#45;&gt;Node3</title>
<path fill="none" stroke="midnightblue" d="M113.16,-224.32C130.16,-215.66 156.51,-202.24 176.13,-192.25"/>
<polygon fill="midnightblue" stroke="midnightblue" points="177.82,-195.31 185.14,-187.65 174.65,-189.08 177.82,-195.31"/>
</g>
<!-- Node8&#45;&gt;Node5 -->
<g id="edge11" class="edge">
<title>Node8&#45;&gt;Node5</title>
<path fill="none" stroke="midnightblue" d="M85.75,-224.25C55.02,-197.33 -30.69,-114.01 12.13,-56 37.26,-21.96 87.75,-12.87 122.25,-10.85"/>
<polygon fill="midnightblue" stroke="midnightblue" points="122.55,-14.34 132.39,-10.43 122.26,-7.35 122.55,-14.34"/>
</g>
<!-- Node9 -->
<g id="node9" class="node">
<title>Node9</title>
<g id="a_node9"><a xlink:href="Animator_8hpp.html" target="_top" xlink:title=" ">
<polygon fill="none" stroke="black" points="58.13,-168.5 58.13,-187.5 132.13,-187.5 132.13,-168.5 58.13,-168.5"/>
<text text-anchor="middle" x="95.13" y="-175.5" font-family="Helvetica,sans-Serif" font-size="10.00">Animator.hpp</text>
</a>
</g>
</g>
<!-- Node8&#45;&gt;Node9 -->
<g id="edge12" class="edge">
<title>Node8&#45;&gt;Node9</title>
<path fill="none" stroke="midnightblue" d="M95.97,-224.08C95.84,-217.01 95.65,-206.86 95.48,-197.99"/>
<polygon fill="midnightblue" stroke="midnightblue" points="98.98,-197.68 95.3,-187.75 91.98,-197.81 98.98,-197.68"/>
</g>
<!-- Node9&#45;&gt;Node4 -->
<g id="edge13" class="edge">
<title>Node9&#45;&gt;Node4</title>
<path fill="none" stroke="midnightblue" d="M100.08,-168.37C110.43,-150.3 134.55,-108.18 148.22,-84.31"/>
<polygon fill="midnightblue" stroke="midnightblue" points="151.28,-86.01 153.21,-75.59 145.21,-82.53 151.28,-86.01"/>
</g>
<!-- Node9&#45;&gt;Node5 -->
<g id="edge19" class="edge">
<title>Node9&#45;&gt;Node5</title>
<path fill="none" stroke="midnightblue" d="M69.63,-168.47C53.15,-161.48 32.99,-149.79 23.13,-132 16.05,-119.22 5.79,-81.04 24.13,-56 46.55,-25.41 90.73,-15.35 122.23,-12.19"/>
<polygon fill="midnightblue" stroke="midnightblue" points="122.7,-15.66 132.38,-11.36 122.13,-8.68 122.7,-15.66"/>
</g>
<!-- Node10 -->
<g id="node10" class="node">
<title>Node10</title>
<g id="a_node10"><a xlink:href="Sprite_8hpp.html" target="_top" xlink:title=" ">
<polygon fill="none" stroke="black" points="32.13,-112.5 32.13,-131.5 92.13,-131.5 92.13,-112.5 32.13,-112.5"/>
<text text-anchor="middle" x="62.13" y="-119.5" font-family="Helvetica,sans-Serif" font-size="10.00">Sprite.hpp</text>
</a>
</g>
</g>
<!-- Node9&#45;&gt;Node10 -->
<g id="edge14" class="edge">
<title>Node9&#45;&gt;Node10</title>
<path fill="none" stroke="midnightblue" d="M89.68,-168.08C85.12,-160.61 78.46,-149.72 72.84,-140.52"/>
<polygon fill="midnightblue" stroke="midnightblue" points="75.68,-138.46 67.48,-131.75 69.71,-142.11 75.68,-138.46"/>
</g>
<!-- Node13 -->
<g id="node13" class="node">
<title>Node13</title>
<g id="a_node13"><a xlink:title=" ">
<polygon fill="none" stroke="#bfbfbf" points="272.13,-112.5 272.13,-131.5 316.13,-131.5 316.13,-112.5 272.13,-112.5"/>
<text text-anchor="middle" x="294.13" y="-119.5" font-family="Helvetica,sans-Serif" font-size="10.00">vector</text>
</a>
</g>
</g>
<!-- Node9&#45;&gt;Node13 -->
<g id="edge18" class="edge">
<title>Node9&#45;&gt;Node13</title>
<path fill="none" stroke="midnightblue" d="M127.71,-168.49C159.61,-160.11 209.84,-146.78 262.03,-132.27"/>
<polygon fill="midnightblue" stroke="midnightblue" points="263.11,-135.6 271.8,-129.54 261.23,-128.86 263.11,-135.6"/>
</g>
<!-- Node10&#45;&gt;Node4 -->
<g id="edge15" class="edge">
<title>Node10&#45;&gt;Node4</title>
<path fill="none" stroke="midnightblue" d="M77.56,-112.32C92.67,-103.82 115.95,-90.73 133.6,-80.8"/>
<polygon fill="midnightblue" stroke="midnightblue" points="135.75,-83.61 142.75,-75.65 132.32,-77.51 135.75,-83.61"/>
</g>
<!-- Node11 -->
<g id="node11" class="node">
<title>Node11</title>
<g id="a_node11"><a xlink:href="Color_8hpp.html" target="_top" xlink:title=" ">
<polygon fill="none" stroke="black" points="33.63,-56.5 33.63,-75.5 90.63,-75.5 90.63,-56.5 33.63,-56.5"/>
<text text-anchor="middle" x="62.13" y="-63.5" font-family="Helvetica,sans-Serif" font-size="10.00">Color.hpp</text>
</a>
</g>
</g>
<!-- Node10&#45;&gt;Node11 -->
<g id="edge16" class="edge">
<title>Node10&#45;&gt;Node11</title>
<path fill="none" stroke="midnightblue" d="M62.13,-112.08C62.13,-105.01 62.13,-94.86 62.13,-85.99"/>
<polygon fill="midnightblue" stroke="midnightblue" points="65.63,-85.75 62.13,-75.75 58.63,-85.75 65.63,-85.75"/>
</g>
<!-- Node12 -->
<g id="node12" class="node">
<title>Node12</title>
<g id="a_node12"><a xlink:title=" ">
<polygon fill="none" stroke="#bfbfbf" points="350.63,-56.5 350.63,-75.5 391.63,-75.5 391.63,-56.5 350.63,-56.5"/>
<text text-anchor="middle" x="371.13" y="-63.5" font-family="Helvetica,sans-Serif" font-size="10.00">string</text>
</a>
</g>
</g>
<!-- Node10&#45;&gt;Node12 -->
<g id="edge17" class="edge">
<title>Node10&#45;&gt;Node12</title>
<path fill="none" stroke="midnightblue" d="M92.32,-115.72C151.35,-105.41 281.42,-82.68 340.67,-72.32"/>
<polygon fill="midnightblue" stroke="midnightblue" points="341.29,-75.77 350.54,-70.6 340.09,-68.87 341.29,-75.77"/>
</g>
<!-- Node14&#45;&gt;Node4 -->
<g id="edge21" class="edge">
<title>Node14&#45;&gt;Node4</title>
<path fill="none" stroke="midnightblue" d="M392.72,-168.45C380.2,-154.54 353.43,-127.04 325.13,-112 289.21,-92.9 244.54,-81.41 210.44,-74.83"/>
<polygon fill="midnightblue" stroke="midnightblue" points="210.68,-71.32 200.21,-72.94 209.41,-78.2 210.68,-71.32"/>
</g>
<!-- Node14&#45;&gt;Node5 -->
<g id="edge26" class="edge">
<title>Node14&#45;&gt;Node5</title>
<path fill="none" stroke="midnightblue" d="M403.52,-168.45C411.46,-146.78 428.67,-89.11 401.13,-56 375.25,-24.88 255.53,-15.19 194.35,-12.24"/>
<polygon fill="midnightblue" stroke="midnightblue" points="194.14,-8.73 183.99,-11.78 193.83,-15.72 194.14,-8.73"/>
</g>
<!-- Node14&#45;&gt;Node12 -->
<g id="edge24" class="edge">
<title>Node14&#45;&gt;Node12</title>
<path fill="none" stroke="midnightblue" d="M397.86,-168.37C393.16,-150.54 382.28,-109.3 375.95,-85.27"/>
<polygon fill="midnightblue" stroke="midnightblue" points="379.33,-84.37 373.4,-75.59 372.56,-86.15 379.33,-84.37"/>
</g>
<!-- Node14&#45;&gt;Node13 -->
<g id="edge25" class="edge">
<title>Node14&#45;&gt;Node13</title>
<path fill="none" stroke="midnightblue" d="M383.1,-168.32C366.1,-159.66 339.76,-146.24 320.14,-136.25"/>
<polygon fill="midnightblue" stroke="midnightblue" points="321.62,-133.08 311.12,-131.65 318.44,-139.31 321.62,-133.08"/>
</g>
<!-- Node15 -->
<g id="node15" class="node">
<title>Node15</title>
<g id="a_node15"><a xlink:href="Transform_8hpp.html" target="_top" xlink:title=" ">
<polygon fill="none" stroke="black" points="448.63,-112.5 448.63,-131.5 527.63,-131.5 527.63,-112.5 448.63,-112.5"/>
<text text-anchor="middle" x="488.13" y="-119.5" font-family="Helvetica,sans-Serif" font-size="10.00">Transform.hpp</text>
</a>
</g>
</g>
<!-- Node14&#45;&gt;Node15 -->
<g id="edge22" class="edge">
<title>Node14&#45;&gt;Node15</title>
<path fill="none" stroke="midnightblue" d="M414.27,-168.32C428,-159.9 449.07,-146.97 465.2,-137.07"/>
<polygon fill="midnightblue" stroke="midnightblue" points="467.34,-139.87 474.03,-131.65 463.68,-133.9 467.34,-139.87"/>
</g>
<!-- Node16 -->
<g id="node16" class="node">
<title>Node16</title>
<g id="a_node16"><a xlink:href="Point_8hpp.html" target="_top" xlink:title=" ">
<polygon fill="none" stroke="black" points="450.63,-56.5 450.63,-75.5 507.63,-75.5 507.63,-56.5 450.63,-56.5"/>
<text text-anchor="middle" x="479.13" y="-63.5" font-family="Helvetica,sans-Serif" font-size="10.00">Point.hpp</text>
</a>
</g>
</g>
<!-- Node15&#45;&gt;Node16 -->
<g id="edge23" class="edge">
<title>Node15&#45;&gt;Node16</title>
<path fill="none" stroke="midnightblue" d="M486.65,-112.08C485.45,-104.93 483.74,-94.64 482.25,-85.69"/>
<polygon fill="midnightblue" stroke="midnightblue" points="485.69,-85.04 480.59,-75.75 478.78,-86.19 485.69,-85.04"/>
</g>
<!-- Node17&#45;&gt;Node12 -->
<g id="edge31" class="edge">
<title>Node17&#45;&gt;Node12</title>
<path fill="none" stroke="midnightblue" d="M545.05,-113.49C507.23,-103.38 440.22,-85.47 401.34,-75.08"/>
<polygon fill="midnightblue" stroke="midnightblue" points="402.2,-71.68 391.64,-72.48 400.39,-78.45 402.2,-71.68"/>
</g>
<!-- Node17&#45;&gt;Node16 -->
<g id="edge28" class="edge">
<title>Node17&#45;&gt;Node16</title>
<path fill="none" stroke="midnightblue" d="M558.03,-112.32C543.23,-103.82 520.44,-90.73 503.15,-80.8"/>
<polygon fill="midnightblue" stroke="midnightblue" points="504.61,-77.6 494.2,-75.65 501.13,-83.67 504.61,-77.6"/>
</g>
<!-- Node18 -->
<g id="node18" class="node">
<title>Node18</title>
<g id="a_node18"><a xlink:href="IKeyListener_8hpp.html" target="_top" xlink:title=" ">
<polygon fill="none" stroke="black" points="525.63,-56.5 525.63,-75.5 614.63,-75.5 614.63,-56.5 525.63,-56.5"/>
<text text-anchor="middle" x="570.13" y="-63.5" font-family="Helvetica,sans-Serif" font-size="10.00">IKeyListener.hpp</text>
</a>
</g>
</g>
<!-- Node17&#45;&gt;Node18 -->
<g id="edge29" class="edge">
<title>Node17&#45;&gt;Node18</title>
<path fill="none" stroke="midnightblue" d="M572.64,-112.08C572.24,-105.01 571.68,-94.86 571.19,-85.99"/>
<polygon fill="midnightblue" stroke="midnightblue" points="574.67,-85.54 570.62,-75.75 567.68,-85.93 574.67,-85.54"/>
</g>
<!-- Node19 -->
<g id="node19" class="node">
<title>Node19</title>
<g id="a_node19"><a xlink:href="IMouseListener_8hpp.html" target="_top" xlink:title=" ">
<polygon fill="none" stroke="black" points="632.13,-56.5 632.13,-75.5 734.13,-75.5 734.13,-56.5 632.13,-56.5"/>
<text text-anchor="middle" x="683.13" y="-63.5" font-family="Helvetica,sans-Serif" font-size="10.00">IMouseListener.hpp</text>
</a>
</g>
</g>
<!-- Node17&#45;&gt;Node19 -->
<g id="edge30" class="edge">
<title>Node17&#45;&gt;Node19</title>
<path fill="none" stroke="midnightblue" d="M590.81,-112.32C608.53,-103.62 636.04,-90.12 656.42,-80.11"/>
<polygon fill="midnightblue" stroke="midnightblue" points="658.07,-83.2 665.5,-75.65 654.98,-76.92 658.07,-83.2"/>
</g>
<!-- Node20&#45;&gt;Node5 -->
<g id="edge33" class="edge">
<title>Node20&#45;&gt;Node5</title>
<path fill="none" stroke="midnightblue" d="M593.11,-224.45C649.85,-199.07 804.07,-121.81 743.13,-56 705.8,-15.69 315.93,-11.36 194.22,-11"/>
<polygon fill="midnightblue" stroke="midnightblue" points="193.96,-7.5 183.95,-10.97 193.94,-14.5 193.96,-7.5"/>
</g>
<!-- Node20&#45;&gt;Node14 -->
<g id="edge34" class="edge">
<title>Node20&#45;&gt;Node14</title>
<path fill="none" stroke="midnightblue" d="M545.72,-224.44C516.36,-215.28 469.61,-200.69 437.04,-190.52"/>
<polygon fill="midnightblue" stroke="midnightblue" points="438.01,-187.16 427.42,-187.52 435.92,-193.84 438.01,-187.16"/>
</g>
</g>
</svg>
        <g id="navigator" transform="translate(0 0)" fill="#404254">
                <rect fill="#f2f5e9" fill-opacity="0.5" stroke="#606060" stroke-width=".5" x="0" y="0" width="60" height="60"/>
                <use id="zoomplus" xlink:href="#zoomPlus" x="17" y="9" onmousedown="handleZoom(evt,'in')"/>
                <use id="zoomminus" xlink:href="#zoomMin" x="42" y="9" onmousedown="handleZoom(evt,'out')"/>
                <use id="reset" xlink:href="#resetDef" x="30" y="36" onmousedown="handleReset()"/>
                <g id="arrowUp" xlink:href="#dirArrow" transform="translate(30 24)" onmousedown="handlePan(0,-1)">
                  <use xlink:href="#rim" fill="#404040">
                        <set attributeName="fill" to="#808080" begin="arrowUp.mouseover" end="arrowUp.mouseout"/>
                  </use>
                  <path fill="none" stroke="white" stroke-width="1.5" d="M0,-3.0v7 M-2.5,-0.5L0,-3.0L2.5,-0.5"/>
                </g>
                <g id="arrowRight" xlink:href="#dirArrow" transform="rotate(90) translate(36 -43)" onmousedown="handlePan(1,0)">
                  <use xlink:href="#rim" fill="#404040">
                        <set attributeName="fill" to="#808080" begin="arrowRight.mouseover" end="arrowRight.mouseout"/>
                  </use>
                  <path fill="none" stroke="white" stroke-width="1.5" d="M0,-3.0v7 M-2.5,-0.5L0,-3.0L2.5,-0.5"/>
                </g>
                <g id="arrowDown" xlink:href="#dirArrow" transform="rotate(180) translate(-30 -48)" onmousedown="handlePan(0,1)">
                  <use xlink:href="#rim" fill="#404040">
                        <set attributeName="fill" to="#808080" begin="arrowDown.mouseover" end="arrowDown.mouseout"/>
                  </use>
                  <path fill="none" stroke="white" stroke-width="1.5" d="M0,-3.0v7 M-2.5,-0.5L0,-3.0L2.5,-0.5"/>
                </g>
                <g id="arrowLeft" xlink:href="#dirArrow" transform="rotate(270) translate(-36 17)" onmousedown="handlePan(-1,0)">
                  <use xlink:href="#rim" fill="#404040">
                        <set attributeName="fill" to="#808080" begin="arrowLeft.mouseover" end="arrowLeft.mouseout"/>
                  </use>
                  <path fill="none" stroke="white" stroke-width="1.5" d="M0,-3.0v7 M-2.5,-0.5L0,-3.0L2.5,-0.5"/>
                </g>
        </g>
        <svg viewBox="0 0 15 15" width="100%" height="30px" preserveAspectRatio="xMaxYMin meet">
         <g id="arrow_out" transform="scale(0.3 0.3)">
          <a xlink:href="HealAbilityBehaviour_8cpp__incl_org.svg" target="_base">
           <rect id="button" ry="5" rx="5" y="6" x="6" height="38" width="38"
                fill="#f2f5e9" fill-opacity="0.5" stroke="#606060" stroke-width="1.0"/>
           <path id="arrow"
             d="M 11.500037,31.436501 C 11.940474,20.09759 22.043105,11.32322 32.158766,21.979434 L 37.068811,17.246167 C 37.068811,17.246167 37.088388,32 37.088388,32 L 22.160133,31.978069 C 22.160133,31.978069 26.997745,27.140456 26.997745,27.140456 C 18.528582,18.264221 13.291696,25.230495 11.500037,31.436501 z"
             style="fill:#404040;"/>
          </a>
         </g>
        </svg>
</svg>
