<?xml version="1.0" encoding="UTF-8" standalone="no"?>
<!DOCTYPE svg PUBLIC "-//W3C//DTD SVG 1.1//EN"
 "http://www.w3.org/Graphics/SVG/1.1/DTD/svg11.dtd">
<!-- Generated by graphviz version 2.44.0 ()
 -->
<!-- Title: src/Scripts/Common/HealthBehaviour.hpp Pages: 1 -->
<svg width="2470pt" height="240pt"
 viewBox="0.00 0.00 2469.50 240.00" xmlns="http://www.w3.org/2000/svg" xmlns:xlink="http://www.w3.org/1999/xlink">
<g id="graph0" class="graph" transform="scale(1 1) rotate(0) translate(4 236)">
<title>src/Scripts/Common/HealthBehaviour.hpp</title>
<!-- Node1 -->
<g id="node1" class="node">
<title>Node1</title>
<g id="a_node1"><a xlink:title=" ">
<polygon fill="#bfbfbf" stroke="black" points="1192,-201.5 1192,-231.5 1302,-231.5 1302,-201.5 1192,-201.5"/>
<text text-anchor="start" x="1200" y="-219.5" font-family="Helvetica,sans-Serif" font-size="10.00">src/Scripts/Common</text>
<text text-anchor="middle" x="1247" y="-208.5" font-family="Helvetica,sans-Serif" font-size="10.00">/HealthBehaviour.hpp</text>
</a>
</g>
</g>
<!-- Node2 -->
<g id="node2" class="node">
<title>Node2</title>
<g id="a_node2"><a xlink:href="HealthBarFactory_8hpp.html" target="_top" xlink:title=" ">
<polygon fill="none" stroke="black" points="1162,-140 1162,-159 1332,-159 1332,-140 1162,-140"/>
<text text-anchor="middle" x="1247" y="-147" font-family="Helvetica,sans-Serif" font-size="10.00">src/Factories/HealthBarFactory.hpp</text>
</a>
</g>
</g>
<!-- Node1&#45;&gt;Node2 -->
<g id="edge1" class="edge">
<title>Node1&#45;&gt;Node2</title>
<path fill="none" stroke="midnightblue" d="M1247,-191.25C1247,-180.02 1247,-167.38 1247,-159.19"/>
<polygon fill="midnightblue" stroke="midnightblue" points="1243.5,-191.4 1247,-201.4 1250.5,-191.4 1243.5,-191.4"/>
</g>
<!-- Node6 -->
<g id="node6" class="node">
<title>Node6</title>
<g id="a_node6"><a xlink:href="LevelScene_8hpp.html" target="_top" xlink:title=" ">
<polygon fill="none" stroke="black" points="448.5,-140 448.5,-159 587.5,-159 587.5,-140 448.5,-140"/>
<text text-anchor="middle" x="518" y="-147" font-family="Helvetica,sans-Serif" font-size="10.00">src/Scenes/LevelScene.hpp</text>
</a>
</g>
</g>
<!-- Node1&#45;&gt;Node6 -->
<g id="edge5" class="edge">
<title>Node1&#45;&gt;Node6</title>
<path fill="none" stroke="midnightblue" d="M1181.71,-210.25C1073.16,-201.45 848.73,-182.9 659,-165 635.73,-162.8 610.31,-160.24 587.54,-157.89"/>
<polygon fill="midnightblue" stroke="midnightblue" points="1181.6,-213.76 1191.85,-211.07 1182.16,-206.78 1181.6,-213.76"/>
</g>
<!-- Node9 -->
<g id="node9" class="node">
<title>Node9</title>
<g id="a_node9"><a xlink:href="AttackBehaviour_8cpp.html" target="_top" xlink:title=" ">
<polygon fill="none" stroke="black" points="1855,-134.5 1855,-164.5 1965,-164.5 1965,-134.5 1855,-134.5"/>
<text text-anchor="start" x="1863" y="-152.5" font-family="Helvetica,sans-Serif" font-size="10.00">src/Scripts/Common</text>
<text text-anchor="middle" x="1910" y="-141.5" font-family="Helvetica,sans-Serif" font-size="10.00">/AttackBehaviour.cpp</text>
</a>
</g>
</g>
<!-- Node1&#45;&gt;Node9 -->
<g id="edge8" class="edge">
<title>Node1&#45;&gt;Node9</title>
<path fill="none" stroke="midnightblue" d="M1312.54,-212.95C1423.09,-207.99 1653.42,-194.79 1846,-165 1848.93,-164.55 1851.92,-164.04 1854.94,-163.49"/>
<polygon fill="midnightblue" stroke="midnightblue" points="1312.06,-209.47 1302.22,-213.41 1312.37,-216.46 1312.06,-209.47"/>
</g>
<!-- Node10 -->
<g id="node10" class="node">
<title>Node10</title>
<g id="a_node10"><a xlink:href="DamageBehaviour_8cpp.html" target="_top" xlink:title=" ">
<polygon fill="none" stroke="black" points="220.5,-67.5 220.5,-97.5 337.5,-97.5 337.5,-67.5 220.5,-67.5"/>
<text text-anchor="start" x="228.5" y="-85.5" font-family="Helvetica,sans-Serif" font-size="10.00">src/Scripts/Common</text>
<text text-anchor="middle" x="279" y="-74.5" font-family="Helvetica,sans-Serif" font-size="10.00">/DamageBehaviour.cpp</text>
</a>
</g>
</g>
<!-- Node1&#45;&gt;Node10 -->
<g id="edge9" class="edge">
<title>Node1&#45;&gt;Node10</title>
<path fill="none" stroke="midnightblue" d="M1181.81,-214.83C1015.44,-212.58 578.44,-203.11 439,-165 385.47,-150.37 329.03,-116.68 299.6,-97.51"/>
<polygon fill="midnightblue" stroke="midnightblue" points="1181.85,-218.33 1191.9,-214.96 1181.95,-211.33 1181.85,-218.33"/>
</g>
<!-- Node11 -->
<g id="node11" class="node">
<title>Node11</title>
<g id="a_node11"><a xlink:href="DamageBehaviour_8hpp.html" target="_top" xlink:title=" ">
<polygon fill="none" stroke="black" points="220.5,-134.5 220.5,-164.5 337.5,-164.5 337.5,-134.5 220.5,-134.5"/>
<text text-anchor="start" x="228.5" y="-152.5" font-family="Helvetica,sans-Serif" font-size="10.00">src/Scripts/Common</text>
<text text-anchor="middle" x="279" y="-141.5" font-family="Helvetica,sans-Serif" font-size="10.00">/DamageBehaviour.hpp</text>
</a>
</g>
</g>
<!-- Node1&#45;&gt;Node11 -->
<g id="edge10" class="edge">
<title>Node1&#45;&gt;Node11</title>
<path fill="none" stroke="midnightblue" d="M1181.73,-213.62C1036.93,-209.02 678,-195.32 379,-165 365.56,-163.64 351.16,-161.78 337.59,-159.85"/>
<polygon fill="midnightblue" stroke="midnightblue" points="1181.67,-217.12 1191.78,-213.93 1181.89,-210.12 1181.67,-217.12"/>
</g>
<!-- Node16 -->
<g id="node16" class="node">
<title>Node16</title>
<g id="a_node16"><a xlink:href="HealthBehaviour_8cpp.html" target="_top" xlink:title=" ">
<polygon fill="none" stroke="black" points="1983,-134.5 1983,-164.5 2093,-164.5 2093,-134.5 1983,-134.5"/>
<text text-anchor="start" x="1991" y="-152.5" font-family="Helvetica,sans-Serif" font-size="10.00">src/Scripts/Common</text>
<text text-anchor="middle" x="2038" y="-141.5" font-family="Helvetica,sans-Serif" font-size="10.00">/HealthBehaviour.cpp</text>
</a>
</g>
</g>
<!-- Node1&#45;&gt;Node16 -->
<g id="edge16" class="edge">
<title>Node1&#45;&gt;Node16</title>
<path fill="none" stroke="midnightblue" d="M1312.03,-214.32C1439.62,-211.28 1731.48,-200.68 1974,-165 1976.93,-164.57 1979.93,-164.08 1982.94,-163.54"/>
<polygon fill="midnightblue" stroke="midnightblue" points="1311.94,-210.82 1302.03,-214.55 1312.11,-217.82 1311.94,-210.82"/>
</g>
<!-- Node17 -->
<g id="node17" class="node">
<title>Node17</title>
<g id="a_node17"><a xlink:href="EnemyMovementBehaviour_8hpp.html" target="_top" xlink:title=" ">
<polygon fill="none" stroke="black" points="1500,-134.5 1500,-164.5 1656,-164.5 1656,-134.5 1500,-134.5"/>
<text text-anchor="start" x="1508" y="-152.5" font-family="Helvetica,sans-Serif" font-size="10.00">src/Scripts/Enemies</text>
<text text-anchor="middle" x="1578" y="-141.5" font-family="Helvetica,sans-Serif" font-size="10.00">/EnemyMovementBehaviour.hpp</text>
</a>
</g>
</g>
<!-- Node1&#45;&gt;Node17 -->
<g id="edge17" class="edge">
<title>Node1&#45;&gt;Node17</title>
<path fill="none" stroke="midnightblue" d="M1311.85,-202.77C1367.89,-191.76 1448.77,-175.88 1506.64,-164.51"/>
<polygon fill="midnightblue" stroke="midnightblue" points="1311.17,-199.33 1302.03,-204.69 1312.52,-206.2 1311.17,-199.33"/>
</g>
<!-- Node19 -->
<g id="node19" class="node">
<title>Node19</title>
<g id="a_node19"><a xlink:href="HealAbilityBehaviour_8hpp.html" target="_top" xlink:title=" ">
<polygon fill="none" stroke="black" points="850,-134.5 850,-164.5 978,-164.5 978,-134.5 850,-134.5"/>
<text text-anchor="start" x="858" y="-152.5" font-family="Helvetica,sans-Serif" font-size="10.00">src/Scripts/Heroes</text>
<text text-anchor="middle" x="914" y="-141.5" font-family="Helvetica,sans-Serif" font-size="10.00">/HealAbilityBehaviour.hpp</text>
</a>
</g>
</g>
<!-- Node1&#45;&gt;Node19 -->
<g id="edge20" class="edge">
<title>Node1&#45;&gt;Node19</title>
<path fill="none" stroke="midnightblue" d="M1182.08,-202.97C1129.48,-192.8 1053.44,-178.05 987,-165 984.08,-164.43 981.1,-163.84 978.09,-163.25"/>
<polygon fill="midnightblue" stroke="midnightblue" points="1181.47,-206.42 1191.95,-204.88 1182.8,-199.54 1181.47,-206.42"/>
</g>
<!-- Node21 -->
<g id="node21" class="node">
<title>Node21</title>
<g id="a_node21"><a xlink:href="UserAttackBehaviour_8hpp.html" target="_top" xlink:title=" ">
<polygon fill="none" stroke="black" points="668.5,-134.5 668.5,-164.5 799.5,-164.5 799.5,-134.5 668.5,-134.5"/>
<text text-anchor="start" x="676.5" y="-152.5" font-family="Helvetica,sans-Serif" font-size="10.00">src/Scripts/Heroes</text>
<text text-anchor="middle" x="734" y="-141.5" font-family="Helvetica,sans-Serif" font-size="10.00">/UserAttackBehaviour.hpp</text>
</a>
</g>
</g>
<!-- Node1&#45;&gt;Node21 -->
<g id="edge23" class="edge">
<title>Node1&#45;&gt;Node21</title>
<path fill="none" stroke="midnightblue" d="M1181.86,-207.62C1101.64,-197.87 961.24,-180.62 841,-165 827.62,-163.26 813.3,-161.35 799.63,-159.51"/>
<polygon fill="midnightblue" stroke="midnightblue" points="1181.46,-211.1 1191.81,-208.83 1182.31,-204.15 1181.46,-211.1"/>
</g>
<!-- Node23 -->
<g id="node23" class="node">
<title>Node23</title>
<g id="a_node23"><a xlink:href="UserMovementBehaviour_8hpp.html" target="_top" xlink:title=" ">
<polygon fill="none" stroke="black" points="996,-134.5 996,-164.5 1144,-164.5 1144,-134.5 996,-134.5"/>
<text text-anchor="start" x="1004" y="-152.5" font-family="Helvetica,sans-Serif" font-size="10.00">src/Scripts/Heroes</text>
<text text-anchor="middle" x="1070" y="-141.5" font-family="Helvetica,sans-Serif" font-size="10.00">/UserMovementBehaviour.hpp</text>
</a>
</g>
</g>
<!-- Node1&#45;&gt;Node23 -->
<g id="edge27" class="edge">
<title>Node1&#45;&gt;Node23</title>
<path fill="none" stroke="midnightblue" d="M1198.85,-197.82C1170.4,-187.37 1134.87,-174.32 1108.33,-164.58"/>
<polygon fill="midnightblue" stroke="midnightblue" points="1198,-201.23 1208.59,-201.4 1200.41,-194.66 1198,-201.23"/>
</g>
<!-- Node25 -->
<g id="node25" class="node">
<title>Node25</title>
<g id="a_node25"><a xlink:href="HealthBarBehaviour_8hpp.html" target="_top" xlink:title=" ">
<polygon fill="none" stroke="black" points="1350.5,-134.5 1350.5,-164.5 1481.5,-164.5 1481.5,-134.5 1350.5,-134.5"/>
<text text-anchor="start" x="1358.5" y="-152.5" font-family="Helvetica,sans-Serif" font-size="10.00">src/Scripts/Hud/HealthBar</text>
<text text-anchor="middle" x="1416" y="-141.5" font-family="Helvetica,sans-Serif" font-size="10.00">Behaviour.hpp</text>
</a>
</g>
</g>
<!-- Node1&#45;&gt;Node25 -->
<g id="edge31" class="edge">
<title>Node1&#45;&gt;Node25</title>
<path fill="none" stroke="midnightblue" d="M1293.33,-197.68C1320.43,-187.26 1354.17,-174.28 1379.4,-164.58"/>
<polygon fill="midnightblue" stroke="midnightblue" points="1291.75,-194.54 1283.67,-201.4 1294.26,-201.07 1291.75,-194.54"/>
</g>
<!-- Node27 -->
<g id="node27" class="node">
<title>Node27</title>
<g id="a_node27"><a xlink:href="LevelData_8hpp.html" target="_top" xlink:title=" ">
<polygon fill="none" stroke="black" points="1707,-140 1707,-159 1837,-159 1837,-140 1707,-140"/>
<text text-anchor="middle" x="1772" y="-147" font-family="Helvetica,sans-Serif" font-size="10.00">src/Structs/LevelData.hpp</text>
</a>
</g>
</g>
<!-- Node1&#45;&gt;Node27 -->
<g id="edge34" class="edge">
<title>Node1&#45;&gt;Node27</title>
<path fill="none" stroke="midnightblue" d="M1312.09,-207.93C1394.35,-198.3 1540.24,-180.99 1665,-165 1679.69,-163.12 1695.5,-161.02 1710.35,-159.01"/>
<polygon fill="midnightblue" stroke="midnightblue" points="1311.67,-204.46 1302.14,-209.1 1312.48,-211.41 1311.67,-204.46"/>
</g>
<!-- Node36 -->
<g id="node36" class="node">
<title>Node36</title>
<g id="a_node36"><a xlink:href="WaveData_8cpp.html" target="_top" xlink:title=" ">
<polygon fill="none" stroke="black" points="2111.5,-140 2111.5,-159 2242.5,-159 2242.5,-140 2111.5,-140"/>
<text text-anchor="middle" x="2177" y="-147" font-family="Helvetica,sans-Serif" font-size="10.00">src/Structs/WaveData.cpp</text>
</a>
</g>
</g>
<!-- Node1&#45;&gt;Node36 -->
<g id="edge50" class="edge">
<title>Node1&#45;&gt;Node36</title>
<path fill="none" stroke="midnightblue" d="M1312.63,-214.57C1456.28,-211.89 1809.09,-201.8 2102,-165 2113.84,-163.51 2126.63,-161.28 2138.23,-159.01"/>
<polygon fill="midnightblue" stroke="midnightblue" points="1312.18,-211.08 1302.25,-214.76 1312.31,-218.08 1312.18,-211.08"/>
</g>
<!-- Node3 -->
<g id="node3" class="node">
<title>Node3</title>
<g id="a_node3"><a xlink:href="EnemyPrefabFactory_8cpp.html" target="_top" xlink:title=" ">
<polygon fill="none" stroke="black" points="1382,-67.5 1382,-97.5 1516,-97.5 1516,-67.5 1382,-67.5"/>
<text text-anchor="start" x="1390" y="-85.5" font-family="Helvetica,sans-Serif" font-size="10.00">src/Factories/EnemyPrefab</text>
<text text-anchor="middle" x="1449" y="-74.5" font-family="Helvetica,sans-Serif" font-size="10.00">Factory.cpp</text>
</a>
</g>
</g>
<!-- Node2&#45;&gt;Node3 -->
<g id="edge2" class="edge">
<title>Node2&#45;&gt;Node3</title>
<path fill="none" stroke="midnightblue" d="M1283.44,-136.77C1317.69,-125.75 1369,-109.24 1405.41,-97.53"/>
<polygon fill="midnightblue" stroke="midnightblue" points="1282.27,-133.47 1273.82,-139.87 1284.42,-140.14 1282.27,-133.47"/>
</g>
<!-- Node4 -->
<g id="node4" class="node">
<title>Node4</title>
<g id="a_node4"><a xlink:href="HealthBarFactory_8cpp.html" target="_top" xlink:title=" ">
<polygon fill="none" stroke="black" points="1194,-73 1194,-92 1364,-92 1364,-73 1194,-73"/>
<text text-anchor="middle" x="1279" y="-80" font-family="Helvetica,sans-Serif" font-size="10.00">src/Factories/HealthBarFactory.cpp</text>
</a>
</g>
</g>
<!-- Node2&#45;&gt;Node4 -->
<g id="edge3" class="edge">
<title>Node2&#45;&gt;Node4</title>
<path fill="none" stroke="midnightblue" d="M1255.78,-130.66C1261.95,-118.13 1269.94,-101.91 1274.75,-92.13"/>
<polygon fill="midnightblue" stroke="midnightblue" points="1252.59,-129.22 1251.32,-139.73 1258.87,-132.31 1252.59,-129.22"/>
</g>
<!-- Node5 -->
<g id="node5" class="node">
<title>Node5</title>
<g id="a_node5"><a xlink:href="HeroPrefabFactory_8cpp.html" target="_top" xlink:title=" ">
<polygon fill="none" stroke="black" points="884,-67.5 884,-97.5 1010,-97.5 1010,-67.5 884,-67.5"/>
<text text-anchor="start" x="892" y="-85.5" font-family="Helvetica,sans-Serif" font-size="10.00">src/Factories/HeroPrefab</text>
<text text-anchor="middle" x="947" y="-74.5" font-family="Helvetica,sans-Serif" font-size="10.00">Factory.cpp</text>
</a>
</g>
</g>
<!-- Node2&#45;&gt;Node5 -->
<g id="edge4" class="edge">
<title>Node2&#45;&gt;Node5</title>
<path fill="none" stroke="midnightblue" d="M1197.63,-137.8C1146.37,-126.7 1066.04,-109.29 1010.18,-97.19"/>
<polygon fill="midnightblue" stroke="midnightblue" points="1196.96,-141.24 1207.47,-139.94 1198.44,-134.4 1196.96,-141.24"/>
</g>
<!-- Node7 -->
<g id="node7" class="node">
<title>Node7</title>
<g id="a_node7"><a xlink:href="LevelScene_8cpp.html" target="_top" xlink:title=" ">
<polygon fill="none" stroke="black" points="1079.5,-6 1079.5,-25 1218.5,-25 1218.5,-6 1079.5,-6"/>
<text text-anchor="middle" x="1149" y="-13" font-family="Helvetica,sans-Serif" font-size="10.00">src/Scenes/LevelScene.cpp</text>
</a>
</g>
</g>
<!-- Node6&#45;&gt;Node7 -->
<g id="edge6" class="edge">
<title>Node6&#45;&gt;Node7</title>
<path fill="none" stroke="midnightblue" d="M524.96,-130.73C533.56,-111.4 550.16,-81.36 575,-67 617.76,-42.28 936.18,-25.65 1079.48,-19.33"/>
<polygon fill="midnightblue" stroke="midnightblue" points="521.73,-129.38 521.1,-139.96 528.19,-132.08 521.73,-129.38"/>
</g>
<!-- Node8 -->
<g id="node8" class="node">
<title>Node8</title>
<g id="a_node8"><a xlink:href="LevelSelectionScene_8cpp.html" target="_top" xlink:title=" ">
<polygon fill="none" stroke="black" points="356,-67.5 356,-97.5 490,-97.5 490,-67.5 356,-67.5"/>
<text text-anchor="start" x="364" y="-85.5" font-family="Helvetica,sans-Serif" font-size="10.00">src/Scenes/LevelSelection</text>
<text text-anchor="middle" x="423" y="-74.5" font-family="Helvetica,sans-Serif" font-size="10.00">Scene.cpp</text>
</a>
</g>
</g>
<!-- Node6&#45;&gt;Node8 -->
<g id="edge7" class="edge">
<title>Node6&#45;&gt;Node8</title>
<path fill="none" stroke="midnightblue" d="M496.59,-133.85C480.73,-123 459.25,-108.3 443.59,-97.59"/>
<polygon fill="midnightblue" stroke="midnightblue" points="494.96,-136.98 505.19,-139.73 498.91,-131.2 494.96,-136.98"/>
</g>
<!-- Node11&#45;&gt;Node10 -->
<g id="edge15" class="edge">
<title>Node11&#45;&gt;Node10</title>
<path fill="none" stroke="midnightblue" d="M279,-124.11C279,-115.15 279,-105.32 279,-97.58"/>
<polygon fill="midnightblue" stroke="midnightblue" points="275.5,-124.4 279,-134.4 282.5,-124.4 275.5,-124.4"/>
</g>
<!-- Node12 -->
<g id="node12" class="node">
<title>Node12</title>
<g id="a_node12"><a xlink:href="BulletBehaviour_8hpp.html" target="_top" xlink:title=" ">
<polygon fill="none" stroke="black" points="96,-67.5 96,-97.5 202,-97.5 202,-67.5 96,-67.5"/>
<text text-anchor="start" x="104" y="-85.5" font-family="Helvetica,sans-Serif" font-size="10.00">src/Scripts/Common</text>
<text text-anchor="middle" x="149" y="-74.5" font-family="Helvetica,sans-Serif" font-size="10.00">/BulletBehaviour.hpp</text>
</a>
</g>
</g>
<!-- Node11&#45;&gt;Node12 -->
<g id="edge11" class="edge">
<title>Node11&#45;&gt;Node12</title>
<path fill="none" stroke="midnightblue" d="M241.71,-129.85C221.15,-119.58 196.05,-107.03 177.15,-97.58"/>
<polygon fill="midnightblue" stroke="midnightblue" points="240.28,-133.05 250.79,-134.4 243.41,-126.79 240.28,-133.05"/>
</g>
<!-- Node13 -->
<g id="node13" class="node">
<title>Node13</title>
<g id="a_node13"><a xlink:href="BulletFactory_8cpp.html" target="_top" xlink:title=" ">
<polygon fill="none" stroke="black" points="0,-6 0,-25 152,-25 152,-6 0,-6"/>
<text text-anchor="middle" x="76" y="-13" font-family="Helvetica,sans-Serif" font-size="10.00">src/Factories/BulletFactory.cpp</text>
</a>
</g>
</g>
<!-- Node12&#45;&gt;Node13 -->
<g id="edge12" class="edge">
<title>Node12&#45;&gt;Node13</title>
<path fill="none" stroke="midnightblue" d="M125.61,-60.67C112.13,-48.67 95.9,-34.22 85.76,-25.19"/>
<polygon fill="midnightblue" stroke="midnightblue" points="123.36,-63.36 133.16,-67.4 128.02,-58.13 123.36,-63.36"/>
</g>
<!-- Node14 -->
<g id="node14" class="node">
<title>Node14</title>
<g id="a_node14"><a xlink:href="BulletBehaviour_8cpp.html" target="_top" xlink:title=" ">
<polygon fill="none" stroke="black" points="170,-0.5 170,-30.5 276,-30.5 276,-0.5 170,-0.5"/>
<text text-anchor="start" x="178" y="-18.5" font-family="Helvetica,sans-Serif" font-size="10.00">src/Scripts/Common</text>
<text text-anchor="middle" x="223" y="-7.5" font-family="Helvetica,sans-Serif" font-size="10.00">/BulletBehaviour.cpp</text>
</a>
</g>
</g>
<!-- Node12&#45;&gt;Node14 -->
<g id="edge13" class="edge">
<title>Node12&#45;&gt;Node14</title>
<path fill="none" stroke="midnightblue" d="M172.8,-60.6C183.97,-50.78 196.99,-39.34 206.97,-30.58"/>
<polygon fill="midnightblue" stroke="midnightblue" points="170.26,-58.17 165.06,-67.4 174.88,-63.43 170.26,-58.17"/>
</g>
<!-- Node15 -->
<g id="node15" class="node">
<title>Node15</title>
<g id="a_node15"><a xlink:href="UserAttackBehaviour_8cpp.html" target="_top" xlink:title=" ">
<polygon fill="none" stroke="black" points="490.5,-0.5 490.5,-30.5 621.5,-30.5 621.5,-0.5 490.5,-0.5"/>
<text text-anchor="start" x="498.5" y="-18.5" font-family="Helvetica,sans-Serif" font-size="10.00">src/Scripts/Heroes</text>
<text text-anchor="middle" x="556" y="-7.5" font-family="Helvetica,sans-Serif" font-size="10.00">/UserAttackBehaviour.cpp</text>
</a>
</g>
</g>
<!-- Node12&#45;&gt;Node15 -->
<g id="edge14" class="edge">
<title>Node12&#45;&gt;Node15</title>
<path fill="none" stroke="midnightblue" d="M211.96,-66.91C314.66,-47.7 422.78,-32.98 490.23,-24.45"/>
<polygon fill="midnightblue" stroke="midnightblue" points="211.21,-63.49 202.04,-68.79 212.51,-70.37 211.21,-63.49"/>
</g>
<!-- Node17&#45;&gt;Node3 -->
<g id="edge18" class="edge">
<title>Node17&#45;&gt;Node3</title>
<path fill="none" stroke="midnightblue" d="M1540.99,-129.85C1520.6,-119.58 1495.69,-107.03 1476.94,-97.58"/>
<polygon fill="midnightblue" stroke="midnightblue" points="1539.5,-133.02 1550.01,-134.4 1542.65,-126.77 1539.5,-133.02"/>
</g>
<!-- Node18 -->
<g id="node18" class="node">
<title>Node18</title>
<g id="a_node18"><a xlink:href="EnemyMovementBehaviour_8cpp.html" target="_top" xlink:title=" ">
<polygon fill="none" stroke="black" points="1646,-0.5 1646,-30.5 1802,-30.5 1802,-0.5 1646,-0.5"/>
<text text-anchor="start" x="1654" y="-18.5" font-family="Helvetica,sans-Serif" font-size="10.00">src/Scripts/Enemies</text>
<text text-anchor="middle" x="1724" y="-7.5" font-family="Helvetica,sans-Serif" font-size="10.00">/EnemyMovementBehaviour.cpp</text>
</a>
</g>
</g>
<!-- Node17&#45;&gt;Node18 -->
<g id="edge19" class="edge">
<title>Node17&#45;&gt;Node18</title>
<path fill="none" stroke="midnightblue" d="M1625.71,-130.09C1642.6,-122 1660.88,-111.28 1675,-98 1695.69,-78.55 1710.69,-48.44 1718.32,-30.78"/>
<polygon fill="midnightblue" stroke="midnightblue" points="1624.14,-126.96 1616.51,-134.31 1627.06,-133.32 1624.14,-126.96"/>
</g>
<!-- Node19&#45;&gt;Node5 -->
<g id="edge21" class="edge">
<title>Node19&#45;&gt;Node5</title>
<path fill="none" stroke="midnightblue" d="M925.79,-125.28C930.49,-116.02 935.75,-105.66 939.85,-97.58"/>
<polygon fill="midnightblue" stroke="midnightblue" points="922.57,-123.89 921.16,-134.4 928.81,-127.06 922.57,-123.89"/>
</g>
<!-- Node20 -->
<g id="node20" class="node">
<title>Node20</title>
<g id="a_node20"><a xlink:href="HealAbilityBehaviour_8cpp.html" target="_top" xlink:title=" ">
<polygon fill="none" stroke="black" points="738,-67.5 738,-97.5 866,-97.5 866,-67.5 738,-67.5"/>
<text text-anchor="start" x="746" y="-85.5" font-family="Helvetica,sans-Serif" font-size="10.00">src/Scripts/Heroes</text>
<text text-anchor="middle" x="802" y="-74.5" font-family="Helvetica,sans-Serif" font-size="10.00">/HealAbilityBehaviour.cpp</text>
</a>
</g>
</g>
<!-- Node19&#45;&gt;Node20 -->
<g id="edge22" class="edge">
<title>Node19&#45;&gt;Node20</title>
<path fill="none" stroke="midnightblue" d="M880.91,-129.3C863.38,-119.12 842.24,-106.85 826.25,-97.58"/>
<polygon fill="midnightblue" stroke="midnightblue" points="879.29,-132.4 889.7,-134.4 882.81,-126.35 879.29,-132.4"/>
</g>
<!-- Node21&#45;&gt;Node5 -->
<g id="edge24" class="edge">
<title>Node21&#45;&gt;Node5</title>
<path fill="none" stroke="midnightblue" d="M789.89,-131.44C824.42,-120.91 868.19,-107.55 900.76,-97.61"/>
<polygon fill="midnightblue" stroke="midnightblue" points="788.5,-128.21 779.96,-134.48 790.54,-134.9 788.5,-128.21"/>
</g>
<!-- Node21&#45;&gt;Node15 -->
<g id="edge26" class="edge">
<title>Node21&#45;&gt;Node15</title>
<path fill="none" stroke="midnightblue" d="M658.26,-140.63C628.53,-133.82 596.46,-121.22 575,-98 557.84,-79.44 555.23,-48.46 555.32,-30.52"/>
<polygon fill="midnightblue" stroke="midnightblue" points="657.72,-144.09 668.23,-142.73 659.16,-137.24 657.72,-144.09"/>
</g>
<!-- Node22 -->
<g id="node22" class="node">
<title>Node22</title>
<g id="a_node22"><a xlink:href="MainScene_8cpp.html" target="_top" xlink:title=" ">
<polygon fill="none" stroke="black" points="584,-73 584,-92 720,-92 720,-73 584,-73"/>
<text text-anchor="middle" x="652" y="-80" font-family="Helvetica,sans-Serif" font-size="10.00">src/Scenes/MainScene.cpp</text>
</a>
</g>
</g>
<!-- Node21&#45;&gt;Node22 -->
<g id="edge25" class="edge">
<title>Node21&#45;&gt;Node22</title>
<path fill="none" stroke="midnightblue" d="M708.15,-128.01C692.93,-115.94 674.46,-101.3 662.97,-92.19"/>
<polygon fill="midnightblue" stroke="midnightblue" points="706.2,-130.93 716.21,-134.4 710.54,-125.44 706.2,-130.93"/>
</g>
<!-- Node23&#45;&gt;Node5 -->
<g id="edge28" class="edge">
<title>Node23&#45;&gt;Node5</title>
<path fill="none" stroke="midnightblue" d="M1034.45,-129.71C1015.05,-119.46 991.44,-106.98 973.64,-97.58"/>
<polygon fill="midnightblue" stroke="midnightblue" points="1032.83,-132.82 1043.31,-134.4 1036.1,-126.63 1032.83,-132.82"/>
</g>
<!-- Node23&#45;&gt;Node22 -->
<g id="edge29" class="edge">
<title>Node23&#45;&gt;Node22</title>
<path fill="none" stroke="midnightblue" d="M985.91,-133.86C870.96,-116.06 840.13,-116.21 729,-98 718.13,-96.22 706.43,-94.11 695.51,-92.07"/>
<polygon fill="midnightblue" stroke="midnightblue" points="985.39,-137.32 995.81,-135.41 986.47,-130.41 985.39,-137.32"/>
</g>
<!-- Node24 -->
<g id="node24" class="node">
<title>Node24</title>
<g id="a_node24"><a xlink:href="UserMovementBehaviour_8cpp.html" target="_top" xlink:title=" ">
<polygon fill="none" stroke="black" points="1028,-67.5 1028,-97.5 1176,-97.5 1176,-67.5 1028,-67.5"/>
<text text-anchor="start" x="1036" y="-85.5" font-family="Helvetica,sans-Serif" font-size="10.00">src/Scripts/Heroes</text>
<text text-anchor="middle" x="1102" y="-74.5" font-family="Helvetica,sans-Serif" font-size="10.00">/UserMovementBehaviour.cpp</text>
</a>
</g>
</g>
<!-- Node23&#45;&gt;Node24 -->
<g id="edge30" class="edge">
<title>Node23&#45;&gt;Node24</title>
<path fill="none" stroke="midnightblue" d="M1081.43,-125.28C1085.99,-116.02 1091.09,-105.66 1095.07,-97.58"/>
<polygon fill="midnightblue" stroke="midnightblue" points="1078.22,-123.88 1076.94,-134.4 1084.5,-126.97 1078.22,-123.88"/>
</g>
<!-- Node25&#45;&gt;Node4 -->
<g id="edge32" class="edge">
<title>Node25&#45;&gt;Node4</title>
<path fill="none" stroke="midnightblue" d="M1376.94,-129.97C1350.62,-117.48 1317.14,-101.6 1296.93,-92.01"/>
<polygon fill="midnightblue" stroke="midnightblue" points="1375.74,-133.27 1386.27,-134.4 1378.74,-126.95 1375.74,-133.27"/>
</g>
<!-- Node26 -->
<g id="node26" class="node">
<title>Node26</title>
<g id="a_node26"><a xlink:href="HealthBarBehaviour_8cpp.html" target="_top" xlink:title=" ">
<polygon fill="none" stroke="black" points="1534.5,-67.5 1534.5,-97.5 1665.5,-97.5 1665.5,-67.5 1534.5,-67.5"/>
<text text-anchor="start" x="1542.5" y="-85.5" font-family="Helvetica,sans-Serif" font-size="10.00">src/Scripts/Hud/HealthBar</text>
<text text-anchor="middle" x="1600" y="-74.5" font-family="Helvetica,sans-Serif" font-size="10.00">Behaviour.cpp</text>
</a>
</g>
</g>
<!-- Node25&#45;&gt;Node26 -->
<g id="edge33" class="edge">
<title>Node25&#45;&gt;Node26</title>
<path fill="none" stroke="midnightblue" d="M1465.67,-130.96C1495.3,-120.48 1532.44,-107.37 1560.15,-97.58"/>
<polygon fill="midnightblue" stroke="midnightblue" points="1464.19,-127.76 1455.93,-134.4 1466.52,-134.37 1464.19,-127.76"/>
</g>
<!-- Node28 -->
<g id="node28" class="node">
<title>Node28</title>
<g id="a_node28"><a xlink:href="LevelController_8hpp.html" target="_top" xlink:title=" ">
<polygon fill="none" stroke="black" points="1722,-73 1722,-92 1888,-92 1888,-73 1722,-73"/>
<text text-anchor="middle" x="1805" y="-80" font-family="Helvetica,sans-Serif" font-size="10.00">src/Controllers/LevelController.hpp</text>
</a>
</g>
</g>
<!-- Node27&#45;&gt;Node28 -->
<g id="edge35" class="edge">
<title>Node27&#45;&gt;Node28</title>
<path fill="none" stroke="midnightblue" d="M1781.06,-130.66C1787.42,-118.13 1795.65,-101.91 1800.62,-92.13"/>
<polygon fill="midnightblue" stroke="midnightblue" points="1777.86,-129.23 1776.45,-139.73 1784.1,-132.4 1777.86,-129.23"/>
</g>
<!-- Node31 -->
<g id="node31" class="node">
<title>Node31</title>
<g id="a_node31"><a xlink:href="GameLostBehaviour_8hpp.html" target="_top" xlink:title=" ">
<polygon fill="none" stroke="black" points="2199.5,-67.5 2199.5,-97.5 2326.5,-97.5 2326.5,-67.5 2199.5,-67.5"/>
<text text-anchor="start" x="2207.5" y="-85.5" font-family="Helvetica,sans-Serif" font-size="10.00">src/Scripts/Common</text>
<text text-anchor="middle" x="2263" y="-74.5" font-family="Helvetica,sans-Serif" font-size="10.00">/GameLostBehaviour.hpp</text>
</a>
</g>
</g>
<!-- Node27&#45;&gt;Node31 -->
<g id="edge41" class="edge">
<title>Node27&#45;&gt;Node31</title>
<path fill="none" stroke="midnightblue" d="M1822.14,-138.05C1830.1,-136.57 1838.26,-135.16 1846,-134 1998.46,-111.15 2038.6,-121.24 2191,-98 2193.77,-97.58 2196.6,-97.12 2199.45,-96.64"/>
<polygon fill="midnightblue" stroke="midnightblue" points="1821.38,-134.63 1812.21,-139.94 1822.69,-141.5 1821.38,-134.63"/>
</g>
<!-- Node33 -->
<g id="node33" class="node">
<title>Node33</title>
<g id="a_node33"><a xlink:href="GameWonBehaviour_8hpp.html" target="_top" xlink:title=" ">
<polygon fill="none" stroke="black" points="2054.5,-67.5 2054.5,-97.5 2181.5,-97.5 2181.5,-67.5 2054.5,-67.5"/>
<text text-anchor="start" x="2062.5" y="-85.5" font-family="Helvetica,sans-Serif" font-size="10.00">src/Scripts/Common</text>
<text text-anchor="middle" x="2118" y="-74.5" font-family="Helvetica,sans-Serif" font-size="10.00">/GameWonBehaviour.hpp</text>
</a>
</g>
</g>
<!-- Node27&#45;&gt;Node33 -->
<g id="edge45" class="edge">
<title>Node27&#45;&gt;Node33</title>
<path fill="none" stroke="midnightblue" d="M1825.17,-137.98C1832.17,-136.63 1839.26,-135.27 1846,-134 1934.33,-117.36 1956.7,-114.76 2045,-98 2048.05,-97.42 2051.16,-96.82 2054.31,-96.22"/>
<polygon fill="midnightblue" stroke="midnightblue" points="1824.17,-134.61 1815.02,-139.96 1825.51,-141.49 1824.17,-134.61"/>
</g>
<!-- Node35 -->
<g id="node35" class="node">
<title>Node35</title>
<g id="a_node35"><a xlink:href="LevelData_8cpp.html" target="_top" xlink:title=" ">
<polygon fill="none" stroke="black" points="1906,-73 1906,-92 2036,-92 2036,-73 1906,-73"/>
<text text-anchor="middle" x="1971" y="-80" font-family="Helvetica,sans-Serif" font-size="10.00">src/Structs/LevelData.cpp</text>
</a>
</g>
</g>
<!-- Node27&#45;&gt;Node35 -->
<g id="edge49" class="edge">
<title>Node27&#45;&gt;Node35</title>
<path fill="none" stroke="midnightblue" d="M1808.18,-136.68C1847.62,-123.8 1909.78,-103.5 1944.78,-92.06"/>
<polygon fill="midnightblue" stroke="midnightblue" points="1806.84,-133.44 1798.43,-139.87 1809.02,-140.09 1806.84,-133.44"/>
</g>
<!-- Node28&#45;&gt;Node7 -->
<g id="edge37" class="edge">
<title>Node28&#45;&gt;Node7</title>
<path fill="none" stroke="midnightblue" d="M1720.12,-71.84C1705.09,-70.19 1689.59,-68.51 1675,-67 1511.66,-50.05 1319.58,-32.11 1218.8,-22.86"/>
<polygon fill="midnightblue" stroke="midnightblue" points="1720.11,-75.36 1730.43,-72.98 1720.88,-68.4 1720.11,-75.36"/>
</g>
<!-- Node28&#45;&gt;Node15 -->
<g id="edge40" class="edge">
<title>Node28&#45;&gt;Node15</title>
<path fill="none" stroke="midnightblue" d="M1725.93,-71.84C1709.14,-70.02 1691.5,-68.29 1675,-67 1275.62,-35.75 794.41,-22.09 621.68,-17.95"/>
<polygon fill="midnightblue" stroke="midnightblue" points="1725.94,-75.36 1736.26,-72.98 1726.71,-68.4 1725.94,-75.36"/>
</g>
<!-- Node28&#45;&gt;Node18 -->
<g id="edge39" class="edge">
<title>Node28&#45;&gt;Node18</title>
<path fill="none" stroke="midnightblue" d="M1785.98,-66.24C1772.54,-55.45 1754.66,-41.1 1741.56,-30.59"/>
<polygon fill="midnightblue" stroke="midnightblue" points="1784.09,-69.2 1794.08,-72.73 1788.47,-63.75 1784.09,-69.2"/>
</g>
<!-- Node29 -->
<g id="node29" class="node">
<title>Node29</title>
<g id="a_node29"><a xlink:href="LevelController_8cpp.html" target="_top" xlink:title=" ">
<polygon fill="none" stroke="black" points="2150,-6 2150,-25 2316,-25 2316,-6 2150,-6"/>
<text text-anchor="middle" x="2233" y="-13" font-family="Helvetica,sans-Serif" font-size="10.00">src/Controllers/LevelController.cpp</text>
</a>
</g>
</g>
<!-- Node28&#45;&gt;Node29 -->
<g id="edge36" class="edge">
<title>Node28&#45;&gt;Node29</title>
<path fill="none" stroke="midnightblue" d="M1868.39,-71.43C1877.97,-69.93 1887.75,-68.41 1897,-67 2005.36,-50.47 2032.64,-47.53 2141,-31 2153.47,-29.1 2166.88,-27.01 2179.5,-25.02"/>
<polygon fill="midnightblue" stroke="midnightblue" points="1867.84,-67.97 1858.5,-72.98 1868.92,-74.88 1867.84,-67.97"/>
</g>
<!-- Node30 -->
<g id="node30" class="node">
<title>Node30</title>
<g id="a_node30"><a xlink:href="CheatManager_8cpp.html" target="_top" xlink:title=" ">
<polygon fill="none" stroke="black" points="1880,-0.5 1880,-30.5 1986,-30.5 1986,-0.5 1880,-0.5"/>
<text text-anchor="start" x="1888" y="-18.5" font-family="Helvetica,sans-Serif" font-size="10.00">src/Scripts/Common</text>
<text text-anchor="middle" x="1933" y="-7.5" font-family="Helvetica,sans-Serif" font-size="10.00">/CheatManager.cpp</text>
</a>
</g>
</g>
<!-- Node28&#45;&gt;Node30 -->
<g id="edge38" class="edge">
<title>Node28&#45;&gt;Node30</title>
<path fill="none" stroke="midnightblue" d="M1831.2,-68.19C1852.73,-57.26 1883.16,-41.81 1905.13,-30.65"/>
<polygon fill="midnightblue" stroke="midnightblue" points="1829.33,-65.22 1822,-72.87 1832.5,-71.46 1829.33,-65.22"/>
</g>
<!-- Node31&#45;&gt;Node29 -->
<g id="edge42" class="edge">
<title>Node31&#45;&gt;Node29</title>
<path fill="none" stroke="midnightblue" d="M2252.29,-58.29C2246.99,-46.8 2240.91,-33.63 2237.01,-25.19"/>
<polygon fill="midnightblue" stroke="midnightblue" points="2249.12,-59.78 2256.49,-67.4 2255.48,-56.85 2249.12,-59.78"/>
</g>
<!-- Node31&#45;&gt;Node30 -->
<g id="edge43" class="edge">
<title>Node31&#45;&gt;Node30</title>
<path fill="none" stroke="midnightblue" d="M2189.39,-66.71C2102.78,-50.18 2079.18,-48.24 1996,-31 1992.81,-30.34 1989.54,-29.64 1986.24,-28.93"/>
<polygon fill="midnightblue" stroke="midnightblue" points="2188.93,-70.19 2199.41,-68.64 2190.25,-63.31 2188.93,-70.19"/>
</g>
<!-- Node32 -->
<g id="node32" class="node">
<title>Node32</title>
<g id="a_node32"><a xlink:href="GameLostBehaviour_8cpp.html" target="_top" xlink:title=" ">
<polygon fill="none" stroke="black" points="2334.5,-0.5 2334.5,-30.5 2461.5,-30.5 2461.5,-0.5 2334.5,-0.5"/>
<text text-anchor="start" x="2342.5" y="-18.5" font-family="Helvetica,sans-Serif" font-size="10.00">src/Scripts/Common</text>
<text text-anchor="middle" x="2398" y="-7.5" font-family="Helvetica,sans-Serif" font-size="10.00">/GameLostBehaviour.cpp</text>
</a>
</g>
</g>
<!-- Node31&#45;&gt;Node32 -->
<g id="edge44" class="edge">
<title>Node31&#45;&gt;Node32</title>
<path fill="none" stroke="midnightblue" d="M2301.44,-62.99C2322.84,-52.69 2349.05,-40.07 2368.76,-30.58"/>
<polygon fill="midnightblue" stroke="midnightblue" points="2299.78,-59.9 2292.29,-67.4 2302.82,-66.21 2299.78,-59.9"/>
</g>
<!-- Node33&#45;&gt;Node29 -->
<g id="edge46" class="edge">
<title>Node33&#45;&gt;Node29</title>
<path fill="none" stroke="midnightblue" d="M2151.66,-62.47C2173.62,-50.06 2201.2,-34.47 2217.95,-25.01"/>
<polygon fill="midnightblue" stroke="midnightblue" points="2149.94,-59.43 2142.95,-67.4 2153.38,-65.52 2149.94,-59.43"/>
</g>
<!-- Node33&#45;&gt;Node30 -->
<g id="edge47" class="edge">
<title>Node33&#45;&gt;Node30</title>
<path fill="none" stroke="midnightblue" d="M2068.06,-63.96C2038.26,-53.48 2000.93,-40.37 1973.06,-30.58"/>
<polygon fill="midnightblue" stroke="midnightblue" points="2067.26,-67.38 2077.86,-67.4 2069.58,-60.78 2067.26,-67.38"/>
</g>
<!-- Node34 -->
<g id="node34" class="node">
<title>Node34</title>
<g id="a_node34"><a xlink:href="GameWonBehaviour_8cpp.html" target="_top" xlink:title=" ">
<polygon fill="none" stroke="black" points="2004.5,-0.5 2004.5,-30.5 2131.5,-30.5 2131.5,-0.5 2004.5,-0.5"/>
<text text-anchor="start" x="2012.5" y="-18.5" font-family="Helvetica,sans-Serif" font-size="10.00">src/Scripts/Common</text>
<text text-anchor="middle" x="2068" y="-7.5" font-family="Helvetica,sans-Serif" font-size="10.00">/GameWonBehaviour.cpp</text>
</a>
</g>
</g>
<!-- Node33&#45;&gt;Node34 -->
<g id="edge48" class="edge">
<title>Node33&#45;&gt;Node34</title>
<path fill="none" stroke="midnightblue" d="M2101.04,-59.45C2093.69,-49.9 2085.31,-39 2078.83,-30.58"/>
<polygon fill="midnightblue" stroke="midnightblue" points="2098.28,-61.6 2107.15,-67.4 2103.83,-57.34 2098.28,-61.6"/>
</g>
</g>
</svg>
