<?xml version="1.0" encoding="UTF-8" standalone="no"?>
<!DOCTYPE svg PUBLIC "-//W3C//DTD SVG 1.1//EN"
 "http://www.w3.org/Graphics/SVG/1.1/DTD/svg11.dtd">
<!-- Generated by graphviz version 2.44.0 ()
 -->
<!-- Title: src/Enums/HeroName.hpp Pages: 1 -->
<svg width="1275pt" height="229pt"
 viewBox="0.00 0.00 1274.50 229.00" xmlns="http://www.w3.org/2000/svg" xmlns:xlink="http://www.w3.org/1999/xlink">
<g id="graph0" class="graph" transform="scale(1 1) rotate(0) translate(4 225)">
<title>src/Enums/HeroName.hpp</title>
<!-- Node1 -->
<g id="node1" class="node">
<title>Node1</title>
<g id="a_node1"><a xlink:title=" ">
<polygon fill="#bfbfbf" stroke="black" points="374.5,-201.5 374.5,-220.5 505.5,-220.5 505.5,-201.5 374.5,-201.5"/>
<text text-anchor="middle" x="440" y="-208.5" font-family="Helvetica,sans-Serif" font-size="10.00">src/Enums/HeroName.hpp</text>
</a>
</g>
</g>
<!-- Node2 -->
<g id="node2" class="node">
<title>Node2</title>
<g id="a_node2"><a xlink:href="HeroPrefabFactory_8hpp.html" target="_top" xlink:title=" ">
<polygon fill="none" stroke="black" points="231,-134.5 231,-164.5 357,-164.5 357,-134.5 231,-134.5"/>
<text text-anchor="start" x="239" y="-152.5" font-family="Helvetica,sans-Serif" font-size="10.00">src/Factories/HeroPrefab</text>
<text text-anchor="middle" x="294" y="-141.5" font-family="Helvetica,sans-Serif" font-size="10.00">Factory.hpp</text>
</a>
</g>
</g>
<!-- Node1&#45;&gt;Node2 -->
<g id="edge1" class="edge">
<title>Node1&#45;&gt;Node2</title>
<path fill="none" stroke="midnightblue" d="M409.55,-197.59C385.88,-187.94 353.03,-174.56 328.41,-164.52"/>
<polygon fill="midnightblue" stroke="midnightblue" points="408.5,-200.94 419.08,-201.48 411.14,-194.46 408.5,-200.94"/>
</g>
<!-- Node6 -->
<g id="node6" class="node">
<title>Node6</title>
<g id="a_node6"><a xlink:href="PlayerData_8hpp.html" target="_top" xlink:title=" ">
<polygon fill="none" stroke="black" points="751.5,-140 751.5,-159 884.5,-159 884.5,-140 751.5,-140"/>
<text text-anchor="middle" x="818" y="-147" font-family="Helvetica,sans-Serif" font-size="10.00">src/Structs/PlayerData.hpp</text>
</a>
</g>
</g>
<!-- Node1&#45;&gt;Node6 -->
<g id="edge5" class="edge">
<title>Node1&#45;&gt;Node6</title>
<path fill="none" stroke="midnightblue" d="M504.16,-199.9C577.24,-188.4 695.36,-169.8 763.94,-159.01"/>
<polygon fill="midnightblue" stroke="midnightblue" points="503.49,-196.46 494.16,-201.48 504.58,-203.38 503.49,-196.46"/>
</g>
<!-- Node15 -->
<g id="node15" class="node">
<title>Node15</title>
<g id="a_node15"><a xlink:href="HeroUtil_8hpp.html" target="_top" xlink:title=" ">
<polygon fill="none" stroke="black" points="385,-140 385,-159 495,-159 495,-140 385,-140"/>
<text text-anchor="middle" x="440" y="-147" font-family="Helvetica,sans-Serif" font-size="10.00">src/Utils/HeroUtil.hpp</text>
</a>
</g>
</g>
<!-- Node1&#45;&gt;Node15 -->
<g id="edge18" class="edge">
<title>Node1&#45;&gt;Node15</title>
<path fill="none" stroke="midnightblue" d="M440,-191.32C440,-180.5 440,-167.4 440,-159.01"/>
<polygon fill="midnightblue" stroke="midnightblue" points="436.5,-191.48 440,-201.48 443.5,-191.48 436.5,-191.48"/>
</g>
<!-- Node3 -->
<g id="node3" class="node">
<title>Node3</title>
<g id="a_node3"><a xlink:href="HeroPrefabFactory_8cpp.html" target="_top" xlink:title=" ">
<polygon fill="none" stroke="black" points="0,-67.5 0,-97.5 126,-97.5 126,-67.5 0,-67.5"/>
<text text-anchor="start" x="8" y="-85.5" font-family="Helvetica,sans-Serif" font-size="10.00">src/Factories/HeroPrefab</text>
<text text-anchor="middle" x="63" y="-74.5" font-family="Helvetica,sans-Serif" font-size="10.00">Factory.cpp</text>
</a>
</g>
</g>
<!-- Node2&#45;&gt;Node3 -->
<g id="edge2" class="edge">
<title>Node2&#45;&gt;Node3</title>
<path fill="none" stroke="midnightblue" d="M234.35,-131.71C196.76,-121.14 148.77,-107.63 113.15,-97.61"/>
<polygon fill="midnightblue" stroke="midnightblue" points="233.59,-135.14 244.16,-134.48 235.48,-128.4 233.59,-135.14"/>
</g>
<!-- Node4 -->
<g id="node4" class="node">
<title>Node4</title>
<g id="a_node4"><a xlink:href="LevelScene_8cpp.html" target="_top" xlink:title=" ">
<polygon fill="none" stroke="black" points="144.5,-73 144.5,-92 283.5,-92 283.5,-73 144.5,-73"/>
<text text-anchor="middle" x="214" y="-80" font-family="Helvetica,sans-Serif" font-size="10.00">src/Scenes/LevelScene.cpp</text>
</a>
</g>
</g>
<!-- Node2&#45;&gt;Node4 -->
<g id="edge3" class="edge">
<title>Node2&#45;&gt;Node4</title>
<path fill="none" stroke="midnightblue" d="M268.78,-128.01C253.93,-115.94 235.91,-101.3 224.7,-92.19"/>
<polygon fill="midnightblue" stroke="midnightblue" points="266.67,-130.81 276.64,-134.4 271.09,-125.37 266.67,-130.81"/>
</g>
<!-- Node5 -->
<g id="node5" class="node">
<title>Node5</title>
<g id="a_node5"><a xlink:href="MainScene_8cpp.html" target="_top" xlink:title=" ">
<polygon fill="none" stroke="black" points="302,-73 302,-92 438,-92 438,-73 302,-73"/>
<text text-anchor="middle" x="370" y="-80" font-family="Helvetica,sans-Serif" font-size="10.00">src/Scenes/MainScene.cpp</text>
</a>
</g>
</g>
<!-- Node2&#45;&gt;Node5 -->
<g id="edge4" class="edge">
<title>Node2&#45;&gt;Node5</title>
<path fill="none" stroke="midnightblue" d="M318.35,-127.67C332.39,-115.67 349.28,-101.22 359.83,-92.19"/>
<polygon fill="midnightblue" stroke="midnightblue" points="315.82,-125.24 310.49,-134.4 320.37,-130.56 315.82,-125.24"/>
</g>
<!-- Node6&#45;&gt;Node4 -->
<g id="edge12" class="edge">
<title>Node6&#45;&gt;Node4</title>
<path fill="none" stroke="midnightblue" d="M741.23,-143.19C638.74,-135.62 451.69,-120.15 293,-98 281.26,-96.36 268.61,-94.21 256.94,-92.07"/>
<polygon fill="midnightblue" stroke="midnightblue" points="741.26,-146.7 751.49,-143.94 741.77,-139.72 741.26,-146.7"/>
</g>
<!-- Node6&#45;&gt;Node5 -->
<g id="edge14" class="edge">
<title>Node6&#45;&gt;Node5</title>
<path fill="none" stroke="midnightblue" d="M740.84,-139.16C665.68,-129.79 548.27,-114.42 447,-98 435.99,-96.22 424.13,-94.09 413.1,-92.02"/>
<polygon fill="midnightblue" stroke="midnightblue" points="740.81,-142.68 751.16,-140.44 741.67,-135.73 740.81,-142.68"/>
</g>
<!-- Node7 -->
<g id="node7" class="node">
<title>Node7</title>
<g id="a_node7"><a xlink:href="LevelSelectionController_8cpp.html" target="_top" xlink:title=" ">
<polygon fill="none" stroke="black" points="584.5,-67.5 584.5,-97.5 731.5,-97.5 731.5,-67.5 584.5,-67.5"/>
<text text-anchor="start" x="592.5" y="-85.5" font-family="Helvetica,sans-Serif" font-size="10.00">src/Controllers/LevelSelection</text>
<text text-anchor="middle" x="658" y="-74.5" font-family="Helvetica,sans-Serif" font-size="10.00">Controller.cpp</text>
</a>
</g>
</g>
<!-- Node6&#45;&gt;Node7 -->
<g id="edge6" class="edge">
<title>Node6&#45;&gt;Node7</title>
<path fill="none" stroke="midnightblue" d="M787.37,-136.06C760.27,-125.05 720.75,-108.99 692.53,-97.53"/>
<polygon fill="midnightblue" stroke="midnightblue" points="786.17,-139.35 796.75,-139.87 788.81,-132.86 786.17,-139.35"/>
</g>
<!-- Node8 -->
<g id="node8" class="node">
<title>Node8</title>
<g id="a_node8"><a xlink:href="SaveGameManager_8hpp.html" target="_top" xlink:title=" ">
<polygon fill="none" stroke="black" points="749.5,-67.5 749.5,-97.5 886.5,-97.5 886.5,-67.5 749.5,-67.5"/>
<text text-anchor="start" x="757.5" y="-85.5" font-family="Helvetica,sans-Serif" font-size="10.00">src/Persistence/SaveGame</text>
<text text-anchor="middle" x="818" y="-74.5" font-family="Helvetica,sans-Serif" font-size="10.00">Manager.hpp</text>
</a>
</g>
</g>
<!-- Node6&#45;&gt;Node8 -->
<g id="edge7" class="edge">
<title>Node6&#45;&gt;Node8</title>
<path fill="none" stroke="midnightblue" d="M818,-129.41C818,-119.22 818,-106.9 818,-97.59"/>
<polygon fill="midnightblue" stroke="midnightblue" points="814.5,-129.73 818,-139.73 821.5,-129.73 814.5,-129.73"/>
</g>
<!-- Node11 -->
<g id="node11" class="node">
<title>Node11</title>
<g id="a_node11"><a xlink:href="CheatManager_8cpp.html" target="_top" xlink:title=" ">
<polygon fill="none" stroke="black" points="813,-0.5 813,-30.5 919,-30.5 919,-0.5 813,-0.5"/>
<text text-anchor="start" x="821" y="-18.5" font-family="Helvetica,sans-Serif" font-size="10.00">src/Scripts/Common</text>
<text text-anchor="middle" x="866" y="-7.5" font-family="Helvetica,sans-Serif" font-size="10.00">/CheatManager.cpp</text>
</a>
</g>
</g>
<!-- Node6&#45;&gt;Node11 -->
<g id="edge15" class="edge">
<title>Node6&#45;&gt;Node11</title>
<path fill="none" stroke="midnightblue" d="M852.33,-135.53C868.68,-127.41 886.66,-115.18 896,-98 908.17,-75.62 891.2,-47.27 878.26,-30.58"/>
<polygon fill="midnightblue" stroke="midnightblue" points="850.59,-132.48 842.97,-139.84 853.52,-138.83 850.59,-132.48"/>
</g>
<!-- Node12 -->
<g id="node12" class="node">
<title>Node12</title>
<g id="a_node12"><a xlink:href="GameWonBehaviour_8cpp.html" target="_top" xlink:title=" ">
<polygon fill="none" stroke="black" points="937.5,-0.5 937.5,-30.5 1064.5,-30.5 1064.5,-0.5 937.5,-0.5"/>
<text text-anchor="start" x="945.5" y="-18.5" font-family="Helvetica,sans-Serif" font-size="10.00">src/Scripts/Common</text>
<text text-anchor="middle" x="1001" y="-7.5" font-family="Helvetica,sans-Serif" font-size="10.00">/GameWonBehaviour.cpp</text>
</a>
</g>
</g>
<!-- Node6&#45;&gt;Node12 -->
<g id="edge16" class="edge">
<title>Node6&#45;&gt;Node12</title>
<path fill="none" stroke="midnightblue" d="M846.33,-135.58C865.57,-126.26 891.19,-112.77 912,-98 941.22,-77.26 971.11,-47.87 987.74,-30.63"/>
<polygon fill="midnightblue" stroke="midnightblue" points="844.71,-132.47 837.18,-139.93 847.71,-138.8 844.71,-132.47"/>
</g>
<!-- Node13 -->
<g id="node13" class="node">
<title>Node13</title>
<g id="a_node13"><a xlink:href="LevelSelectionScene_8cpp.html" target="_top" xlink:title=" ">
<polygon fill="none" stroke="black" points="981,-67.5 981,-97.5 1115,-97.5 1115,-67.5 981,-67.5"/>
<text text-anchor="start" x="989" y="-85.5" font-family="Helvetica,sans-Serif" font-size="10.00">src/Scenes/LevelSelection</text>
<text text-anchor="middle" x="1048" y="-74.5" font-family="Helvetica,sans-Serif" font-size="10.00">Scene.cpp</text>
</a>
</g>
</g>
<!-- Node6&#45;&gt;Node13 -->
<g id="edge13" class="edge">
<title>Node6&#45;&gt;Node13</title>
<path fill="none" stroke="midnightblue" d="M858.49,-137.06C897.48,-126.04 956.55,-109.34 998.36,-97.53"/>
<polygon fill="midnightblue" stroke="midnightblue" points="857.21,-133.78 848.54,-139.87 859.12,-140.52 857.21,-133.78"/>
</g>
<!-- Node14 -->
<g id="node14" class="node">
<title>Node14</title>
<g id="a_node14"><a xlink:href="PlayerData_8cpp.html" target="_top" xlink:title=" ">
<polygon fill="none" stroke="black" points="1133.5,-73 1133.5,-92 1266.5,-92 1266.5,-73 1133.5,-73"/>
<text text-anchor="middle" x="1200" y="-80" font-family="Helvetica,sans-Serif" font-size="10.00">src/Structs/PlayerData.cpp</text>
</a>
</g>
</g>
<!-- Node6&#45;&gt;Node14 -->
<g id="edge17" class="edge">
<title>Node6&#45;&gt;Node14</title>
<path fill="none" stroke="midnightblue" d="M882.26,-138.37C944.24,-128.49 1040.64,-112.83 1124,-98 1134.45,-96.14 1145.68,-94.05 1156.23,-92.04"/>
<polygon fill="midnightblue" stroke="midnightblue" points="881.57,-134.94 872.24,-139.97 882.67,-141.85 881.57,-134.94"/>
</g>
<!-- Node9 -->
<g id="node9" class="node">
<title>Node9</title>
<g id="a_node9"><a xlink:href="SaveGameManager_8cpp.html" target="_top" xlink:title=" ">
<polygon fill="none" stroke="black" points="507.5,-0.5 507.5,-30.5 644.5,-30.5 644.5,-0.5 507.5,-0.5"/>
<text text-anchor="start" x="515.5" y="-18.5" font-family="Helvetica,sans-Serif" font-size="10.00">src/Persistence/SaveGame</text>
<text text-anchor="middle" x="576" y="-7.5" font-family="Helvetica,sans-Serif" font-size="10.00">Manager.cpp</text>
</a>
</g>
</g>
<!-- Node8&#45;&gt;Node9 -->
<g id="edge8" class="edge">
<title>Node8&#45;&gt;Node9</title>
<path fill="none" stroke="midnightblue" d="M756.01,-64.85C716.55,-54.25 666.01,-40.68 628.54,-30.61"/>
<polygon fill="midnightblue" stroke="midnightblue" points="755.22,-68.26 765.79,-67.48 757.04,-61.5 755.22,-68.26"/>
</g>
<!-- Node10 -->
<g id="node10" class="node">
<title>Node10</title>
<g id="a_node10"><a xlink:href="SaveSelectionScene_8cpp.html" target="_top" xlink:title=" ">
<polygon fill="none" stroke="black" points="663,-0.5 663,-30.5 795,-30.5 795,-0.5 663,-0.5"/>
<text text-anchor="start" x="671" y="-18.5" font-family="Helvetica,sans-Serif" font-size="10.00">src/Scenes/SaveSelection</text>
<text text-anchor="middle" x="729" y="-7.5" font-family="Helvetica,sans-Serif" font-size="10.00">Scene.cpp</text>
</a>
</g>
</g>
<!-- Node8&#45;&gt;Node10 -->
<g id="edge9" class="edge">
<title>Node8&#45;&gt;Node10</title>
<path fill="none" stroke="midnightblue" d="M790.55,-61.45C776.86,-51.45 760.63,-39.6 748.27,-30.58"/>
<polygon fill="midnightblue" stroke="midnightblue" points="788.55,-64.32 798.69,-67.4 792.68,-58.67 788.55,-64.32"/>
</g>
<!-- Node8&#45;&gt;Node11 -->
<g id="edge10" class="edge">
<title>Node8&#45;&gt;Node11</title>
<path fill="none" stroke="midnightblue" d="M834.5,-59.16C841.5,-49.68 849.44,-38.92 855.61,-30.58"/>
<polygon fill="midnightblue" stroke="midnightblue" points="831.54,-57.27 828.42,-67.4 837.17,-61.43 831.54,-57.27"/>
</g>
<!-- Node8&#45;&gt;Node12 -->
<g id="edge11" class="edge">
<title>Node8&#45;&gt;Node12</title>
<path fill="none" stroke="midnightblue" d="M867.4,-63.96C896.87,-53.48 933.81,-40.37 961.37,-30.58"/>
<polygon fill="midnightblue" stroke="midnightblue" points="865.96,-60.75 857.71,-67.4 868.3,-67.35 865.96,-60.75"/>
</g>
<!-- Node15&#45;&gt;Node5 -->
<g id="edge19" class="edge">
<title>Node15&#45;&gt;Node5</title>
<path fill="none" stroke="midnightblue" d="M423.15,-132.86C409.39,-120.08 390.45,-102.49 379.29,-92.13"/>
<polygon fill="midnightblue" stroke="midnightblue" points="420.85,-135.49 430.56,-139.73 425.61,-130.36 420.85,-135.49"/>
</g>
<!-- Node16 -->
<g id="node16" class="node">
<title>Node16</title>
<g id="a_node16"><a xlink:href="HeroUtil_8cpp.html" target="_top" xlink:title=" ">
<polygon fill="none" stroke="black" points="456,-73 456,-92 566,-92 566,-73 456,-73"/>
<text text-anchor="middle" x="511" y="-80" font-family="Helvetica,sans-Serif" font-size="10.00">src/Utils/HeroUtil.cpp</text>
</a>
</g>
</g>
<!-- Node15&#45;&gt;Node16 -->
<g id="edge20" class="edge">
<title>Node15&#45;&gt;Node16</title>
<path fill="none" stroke="midnightblue" d="M457.09,-132.86C471.05,-120.08 490.26,-102.49 501.58,-92.13"/>
<polygon fill="midnightblue" stroke="midnightblue" points="454.59,-130.4 449.58,-139.73 459.31,-135.56 454.59,-130.4"/>
</g>
</g>
</svg>
