<?xml version="1.0" encoding="UTF-8" standalone="no"?>
<!DOCTYPE svg PUBLIC "-//W3C//DTD SVG 1.1//EN"
 "http://www.w3.org/Graphics/SVG/1.1/DTD/svg11.dtd">
<!-- Generated by graphviz version 2.44.0 ()
 -->
<!-- Title: src/Factories/HeroPrefabFactory.cpp Pages: 1 -->
<!--zoomable 397 -->
<svg id="main" version="1.1" xmlns="http://www.w3.org/2000/svg" xmlns:xlink="http://www.w3.org/1999/xlink" xml:space="preserve" onload="init(evt)">
<style type="text/css"><![CDATA[
.edge:hover path { stroke: red; }
.edge:hover polygon { stroke: red; fill: red; }
]]></style>
<script type="text/javascript"><![CDATA[
var edges = document.getElementsByTagName('g');
if (edges && edges.length) {
  for (var i=0;i<edges.length;i++) {
    if (edges[i].id.substr(0,4)=='edge') {
      edges[i].setAttribute('class','edge');
    }
  }
}
]]></script>
        <defs>
                <circle id="rim" cx="0" cy="0" r="7"/>
                <circle id="rim2" cx="0" cy="0" r="3.5"/>
                <g id="zoomPlus">
                        <use xlink:href="#rim" fill="#404040">
                                <set attributeName="fill" to="#808080" begin="zoomplus.mouseover" end="zoomplus.mouseout"/>
                        </use>
                        <path d="M-4,0h8M0,-4v8" fill="none" stroke="white" stroke-width="1.5" pointer-events="none"/>
                </g>
                <g id="zoomMin">
                        <use xlink:href="#rim" fill="#404040">
                                <set attributeName="fill" to="#808080" begin="zoomminus.mouseover" end="zoomminus.mouseout"/>
                        </use>
                        <path d="M-4,0h8" fill="none" stroke="white" stroke-width="1.5" pointer-events="none"/>
                </g>
                <g id="dirArrow">
                        <path fill="none" stroke="white" stroke-width="1.5" d="M0,-3.0v7 M-2.5,-0.5L0,-3.0L2.5,-0.5"/>
                </g>
               <g id="resetDef">
                       <use xlink:href="#rim2" fill="#404040">
                               <set attributeName="fill" to="#808080" begin="reset.mouseover" end="reset.mouseout"/>
                       </use>
               </g>
        </defs>

<script type="text/javascript">
var viewWidth = 1775;
var viewHeight = 397;
var sectionId = 'dynsection-0';
</script>
<script xlink:href="svgpan.js"/>
<svg id="graph" class="graph">
<g id="viewport">
<title>src/Factories/HeroPrefabFactory.cpp</title>
<!-- Node1 -->
<g id="node1" class="node">
<title>Node1</title>
<g id="a_node1"><a xlink:title=" ">
<polygon fill="#bfbfbf" stroke="black" points="756,-358.5 756,-388.5 882,-388.5 882,-358.5 756,-358.5"/>
<text text-anchor="start" x="764" y="-376.5" font-family="Helvetica,sans-Serif" font-size="10.00">src/Factories/HeroPrefab</text>
<text text-anchor="middle" x="819" y="-365.5" font-family="Helvetica,sans-Serif" font-size="10.00">Factory.cpp</text>
</a>
</g>
</g>
<!-- Node2 -->
<g id="node2" class="node">
<title>Node2</title>
<g id="a_node2"><a xlink:href="HeroPrefabFactory_8hpp.html" target="_top" xlink:title=" ">
<polygon fill="none" stroke="black" points="124,-230 124,-249 240,-249 240,-230 124,-230"/>
<text text-anchor="middle" x="182" y="-237" font-family="Helvetica,sans-Serif" font-size="10.00">HeroPrefabFactory.hpp</text>
</a>
</g>
</g>
<!-- Node1&#45;&gt;Node2 -->
<g id="edge1" class="edge">
<title>Node1&#45;&gt;Node2</title>
<path fill="none" stroke="midnightblue" d="M755.62,-372.66C627.02,-372.05 340.35,-365.66 254,-322 225.75,-307.71 203.62,-277.18 191.71,-257.81"/>
<polygon fill="midnightblue" stroke="midnightblue" points="194.66,-255.92 186.57,-249.08 188.63,-259.47 194.66,-255.92"/>
</g>
<!-- Node12 -->
<g id="node12" class="node">
<title>Node12</title>
<g id="a_node12"><a xlink:href="Animator_8hpp.html" target="_top" xlink:title=" ">
<polygon fill="none" stroke="black" points="585,-168.5 585,-187.5 659,-187.5 659,-168.5 585,-168.5"/>
<text text-anchor="middle" x="622" y="-175.5" font-family="Helvetica,sans-Serif" font-size="10.00">Animator.hpp</text>
</a>
</g>
</g>
<!-- Node1&#45;&gt;Node12 -->
<g id="edge12" class="edge">
<title>Node1&#45;&gt;Node12</title>
<path fill="none" stroke="midnightblue" d="M755.67,-368.05C721.34,-362.34 680.77,-349.7 655,-322 622.83,-287.43 619.94,-227.97 620.8,-197.78"/>
<polygon fill="midnightblue" stroke="midnightblue" points="624.3,-197.9 621.26,-187.75 617.31,-197.58 624.3,-197.9"/>
</g>
<!-- Node13 -->
<g id="node13" class="node">
<title>Node13</title>
<g id="a_node13"><a xlink:href="Sprite_8hpp.html" target="_top" xlink:title=" ">
<polygon fill="none" stroke="black" points="266,-112.5 266,-131.5 326,-131.5 326,-112.5 266,-112.5"/>
<text text-anchor="middle" x="296" y="-119.5" font-family="Helvetica,sans-Serif" font-size="10.00">Sprite.hpp</text>
</a>
</g>
</g>
<!-- Node1&#45;&gt;Node13 -->
<g id="edge23" class="edge">
<title>Node1&#45;&gt;Node13</title>
<path fill="none" stroke="midnightblue" d="M755.69,-370.83C687.88,-367.23 578.12,-356.08 490,-322 389.52,-283.14 338.94,-282.93 288,-188 280.28,-173.61 283.74,-154.91 288.26,-141.27"/>
<polygon fill="midnightblue" stroke="midnightblue" points="291.66,-142.17 291.93,-131.58 285.11,-139.7 291.66,-142.17"/>
</g>
<!-- Node14 -->
<g id="node14" class="node">
<title>Node14</title>
<g id="a_node14"><a xlink:href="CircleCollider_8hpp.html" target="_top" xlink:title=" ">
<polygon fill="none" stroke="black" points="1478,-168.5 1478,-187.5 1570,-187.5 1570,-168.5 1478,-168.5"/>
<text text-anchor="middle" x="1524" y="-175.5" font-family="Helvetica,sans-Serif" font-size="10.00">CircleCollider.hpp</text>
</a>
</g>
</g>
<!-- Node1&#45;&gt;Node14 -->
<g id="edge20" class="edge">
<title>Node1&#45;&gt;Node14</title>
<path fill="none" stroke="midnightblue" d="M882.13,-372.36C977.18,-370.75 1161.98,-362.13 1313,-322 1383.96,-303.14 1406,-300.02 1464,-255 1485.09,-238.63 1503.11,-213.32 1513.75,-196.46"/>
<polygon fill="midnightblue" stroke="midnightblue" points="1516.9,-198 1519.12,-187.64 1510.93,-194.36 1516.9,-198"/>
</g>
<!-- Node16 -->
<g id="node16" class="node">
<title>Node16</title>
<g id="a_node16"><a xlink:href="HealthBarFactory_8hpp.html" target="_top" xlink:title=" ">
<polygon fill="none" stroke="black" points="841,-297 841,-316 951,-316 951,-297 841,-297"/>
<text text-anchor="middle" x="896" y="-304" font-family="Helvetica,sans-Serif" font-size="10.00">HealthBarFactory.hpp</text>
</a>
</g>
</g>
<!-- Node1&#45;&gt;Node16 -->
<g id="edge24" class="edge">
<title>Node1&#45;&gt;Node16</title>
<path fill="none" stroke="midnightblue" d="M835.71,-358.4C848.19,-347.86 865.23,-333.48 878.01,-322.69"/>
<polygon fill="midnightblue" stroke="midnightblue" points="880.32,-325.32 885.7,-316.19 875.8,-319.97 880.32,-325.32"/>
</g>
<!-- Node19 -->
<g id="node19" class="node">
<title>Node19</title>
<g id="a_node19"><a xlink:href="Layer_8hpp.html" target="_top" xlink:title=" ">
<polygon fill="none" stroke="black" points="1441.5,-297 1441.5,-316 1540.5,-316 1540.5,-297 1441.5,-297"/>
<text text-anchor="middle" x="1491" y="-304" font-family="Helvetica,sans-Serif" font-size="10.00">../Enums/Layer.hpp</text>
</a>
</g>
</g>
<!-- Node1&#45;&gt;Node19 -->
<g id="edge33" class="edge">
<title>Node1&#45;&gt;Node19</title>
<path fill="none" stroke="midnightblue" d="M882.36,-370.16C993.29,-365.41 1229.67,-352.4 1427,-322 1433.66,-320.97 1440.65,-319.65 1447.48,-318.22"/>
<polygon fill="midnightblue" stroke="midnightblue" points="1448.27,-321.63 1457.29,-316.07 1446.77,-314.79 1448.27,-321.63"/>
</g>
<!-- Node20 -->
<g id="node20" class="node">
<title>Node20</title>
<g id="a_node20"><a xlink:href="SortingLayer_8hpp.html" target="_top" xlink:title=" ">
<polygon fill="none" stroke="black" points="1559,-297 1559,-316 1689,-316 1689,-297 1559,-297"/>
<text text-anchor="middle" x="1624" y="-304" font-family="Helvetica,sans-Serif" font-size="10.00">../Enums/SortingLayer.hpp</text>
</a>
</g>
</g>
<!-- Node1&#45;&gt;Node20 -->
<g id="edge34" class="edge">
<title>Node1&#45;&gt;Node20</title>
<path fill="none" stroke="midnightblue" d="M882.33,-370.78C1009.42,-366.74 1304.38,-354.42 1550,-322 1558.21,-320.92 1566.89,-319.48 1575.29,-317.94"/>
<polygon fill="midnightblue" stroke="midnightblue" points="1576.19,-321.33 1585.36,-316.01 1574.88,-314.45 1576.19,-321.33"/>
</g>
<!-- Node21 -->
<g id="node21" class="node">
<title>Node21</title>
<g id="a_node21"><a xlink:href="HealAbilityBehaviour_8hpp.html" target="_top" xlink:title=" ">
<polygon fill="none" stroke="black" points="969.5,-291.5 969.5,-321.5 1108.5,-321.5 1108.5,-291.5 969.5,-291.5"/>
<text text-anchor="start" x="977.5" y="-309.5" font-family="Helvetica,sans-Serif" font-size="10.00">../Scripts/Heroes/HealAbility</text>
<text text-anchor="middle" x="1039" y="-298.5" font-family="Helvetica,sans-Serif" font-size="10.00">Behaviour.hpp</text>
</a>
</g>
</g>
<!-- Node1&#45;&gt;Node21 -->
<g id="edge35" class="edge">
<title>Node1&#45;&gt;Node21</title>
<path fill="none" stroke="midnightblue" d="M866.47,-358.48C900.18,-348.51 945.63,-335.09 981.42,-324.51"/>
<polygon fill="midnightblue" stroke="midnightblue" points="982.64,-327.8 991.24,-321.61 980.66,-321.09 982.64,-327.8"/>
</g>
<!-- Node23 -->
<g id="node23" class="node">
<title>Node23</title>
<g id="a_node23"><a xlink:href="UserMovementBehaviour_8hpp.html" target="_top" xlink:title=" ">
<polygon fill="none" stroke="black" points="663.5,-291.5 663.5,-321.5 822.5,-321.5 822.5,-291.5 663.5,-291.5"/>
<text text-anchor="start" x="671.5" y="-309.5" font-family="Helvetica,sans-Serif" font-size="10.00">../Scripts/Heroes/UserMovement</text>
<text text-anchor="middle" x="743" y="-298.5" font-family="Helvetica,sans-Serif" font-size="10.00">Behaviour.hpp</text>
</a>
</g>
</g>
<!-- Node1&#45;&gt;Node23 -->
<g id="edge40" class="edge">
<title>Node1&#45;&gt;Node23</title>
<path fill="none" stroke="midnightblue" d="M802.51,-358.4C792.15,-349.54 778.62,-337.96 767.07,-328.09"/>
<polygon fill="midnightblue" stroke="midnightblue" points="769.33,-325.42 759.46,-321.58 764.78,-330.74 769.33,-325.42"/>
</g>
<!-- Node25 -->
<g id="node25" class="node">
<title>Node25</title>
<g id="a_node25"><a xlink:href="UserAttackBehaviour_8hpp.html" target="_top" xlink:title=" ">
<polygon fill="none" stroke="black" points="1162,-291.5 1162,-321.5 1304,-321.5 1304,-291.5 1162,-291.5"/>
<text text-anchor="start" x="1170" y="-309.5" font-family="Helvetica,sans-Serif" font-size="10.00">../Scripts/Heroes/UserAttack</text>
<text text-anchor="middle" x="1233" y="-298.5" font-family="Helvetica,sans-Serif" font-size="10.00">Behaviour.hpp</text>
</a>
</g>
</g>
<!-- Node1&#45;&gt;Node25 -->
<g id="edge48" class="edge">
<title>Node1&#45;&gt;Node25</title>
<path fill="none" stroke="midnightblue" d="M882.33,-362.56C954.55,-351.22 1072.83,-332.65 1151.78,-320.25"/>
<polygon fill="midnightblue" stroke="midnightblue" points="1152.35,-323.7 1161.69,-318.7 1151.27,-316.79 1152.35,-323.7"/>
</g>
<!-- Node27 -->
<g id="node27" class="node">
<title>Node27</title>
<g id="a_node27"><a xlink:href="AnimatorUtil_8hpp.html" target="_top" xlink:title=" ">
<polygon fill="none" stroke="black" points="296.5,-168.5 296.5,-187.5 415.5,-187.5 415.5,-168.5 296.5,-168.5"/>
<text text-anchor="middle" x="356" y="-175.5" font-family="Helvetica,sans-Serif" font-size="10.00">../Utils/AnimatorUtil.hpp</text>
</a>
</g>
</g>
<!-- Node1&#45;&gt;Node27 -->
<g id="edge54" class="edge">
<title>Node1&#45;&gt;Node27</title>
<path fill="none" stroke="midnightblue" d="M755.97,-365.87C702.78,-358.94 625.24,-345.67 561,-322 504.05,-301.01 491.46,-290.18 442,-255 415.77,-236.34 388.39,-210.96 371.77,-194.78"/>
<polygon fill="midnightblue" stroke="midnightblue" points="374.1,-192.17 364.52,-187.64 369.19,-197.15 374.1,-192.17"/>
</g>
<!-- Node28 -->
<g id="node28" class="node">
<title>Node28</title>
<g id="a_node28"><a xlink:href="GameObjectUtil_8hpp.html" target="_top" xlink:title=" ">
<polygon fill="none" stroke="black" points="450.5,-230 450.5,-249 585.5,-249 585.5,-230 450.5,-230"/>
<text text-anchor="middle" x="518" y="-237" font-family="Helvetica,sans-Serif" font-size="10.00">../Utils/GameObjectUtil.hpp</text>
</a>
</g>
</g>
<!-- Node1&#45;&gt;Node28 -->
<g id="edge59" class="edge">
<title>Node1&#45;&gt;Node28</title>
<path fill="none" stroke="midnightblue" d="M755.61,-365.73C712.12,-359.12 654.14,-346.34 608,-322 576.63,-305.45 547.62,-275.46 531.42,-256.84"/>
<polygon fill="midnightblue" stroke="midnightblue" points="534.05,-254.53 524.92,-249.17 528.72,-259.06 534.05,-254.53"/>
</g>
<!-- Node29 -->
<g id="node29" class="node">
<title>Node29</title>
<g id="a_node29"><a xlink:href="Constants_8hpp.html" target="_top" xlink:title=" ">
<polygon fill="none" stroke="black" points="0,-230 0,-249 86,-249 86,-230 0,-230"/>
<text text-anchor="middle" x="43" y="-237" font-family="Helvetica,sans-Serif" font-size="10.00">../Constants.hpp</text>
</a>
</g>
</g>
<!-- Node1&#45;&gt;Node29 -->
<g id="edge62" class="edge">
<title>Node1&#45;&gt;Node29</title>
<path fill="none" stroke="midnightblue" d="M755.82,-370.14C621.99,-364.66 313.99,-349.42 213,-322 156.89,-306.77 96.8,-273.44 65.27,-254.46"/>
<polygon fill="midnightblue" stroke="midnightblue" points="66.79,-251.29 56.44,-249.06 63.15,-257.26 66.79,-251.29"/>
</g>
<!-- Node30 -->
<g id="node30" class="node">
<title>Node30</title>
<g id="a_node30"><a xlink:title=" ">
<polygon fill="none" stroke="#bfbfbf" points="1707.5,-297 1707.5,-316 1766.5,-316 1766.5,-297 1707.5,-297"/>
<text text-anchor="middle" x="1737" y="-304" font-family="Helvetica,sans-Serif" font-size="10.00">stdexcept</text>
</a>
</g>
</g>
<!-- Node1&#45;&gt;Node30 -->
<g id="edge64" class="edge">
<title>Node1&#45;&gt;Node30</title>
<path fill="none" stroke="midnightblue" d="M882.13,-371.31C1056.47,-367.65 1541.95,-354.72 1698,-322 1701.25,-321.32 1704.59,-320.41 1707.89,-319.39"/>
<polygon fill="midnightblue" stroke="midnightblue" points="1709.2,-322.64 1717.5,-316.05 1706.9,-316.02 1709.2,-322.64"/>
</g>
<!-- Node3 -->
<g id="node3" class="node">
<title>Node3</title>
<g id="a_node3"><a xlink:href="Color_8hpp.html" target="_top" xlink:title=" ">
<polygon fill="none" stroke="black" points="171.5,-56.5 171.5,-75.5 228.5,-75.5 228.5,-56.5 171.5,-56.5"/>
<text text-anchor="middle" x="200" y="-63.5" font-family="Helvetica,sans-Serif" font-size="10.00">Color.hpp</text>
</a>
</g>
</g>
<!-- Node2&#45;&gt;Node3 -->
<g id="edge2" class="edge">
<title>Node2&#45;&gt;Node3</title>
<path fill="none" stroke="midnightblue" d="M182.92,-229.76C185.71,-203.15 194.15,-122.71 198.02,-85.84"/>
<polygon fill="midnightblue" stroke="midnightblue" points="201.54,-85.83 199.11,-75.52 194.58,-85.1 201.54,-85.83"/>
</g>
<!-- Node4 -->
<g id="node4" class="node">
<title>Node4</title>
<g id="a_node4"><a xlink:href="GameObject_8hpp.html" target="_top" xlink:title=" ">
<polygon fill="none" stroke="black" points="473.5,-168.5 473.5,-187.5 562.5,-187.5 562.5,-168.5 473.5,-168.5"/>
<text text-anchor="middle" x="518" y="-175.5" font-family="Helvetica,sans-Serif" font-size="10.00">GameObject.hpp</text>
</a>
</g>
</g>
<!-- Node2&#45;&gt;Node4 -->
<g id="edge3" class="edge">
<title>Node2&#45;&gt;Node4</title>
<path fill="none" stroke="midnightblue" d="M230.14,-229.98C291.89,-219.04 398.72,-200.12 463.42,-188.66"/>
<polygon fill="midnightblue" stroke="midnightblue" points="464.2,-192.08 473.43,-186.89 462.98,-185.19 464.2,-192.08"/>
</g>
<!-- Node11 -->
<g id="node11" class="node">
<title>Node11</title>
<g id="a_node11"><a xlink:href="HeroName_8hpp.html" target="_top" xlink:title=" ">
<polygon fill="none" stroke="black" points="50,-168.5 50,-187.5 172,-187.5 172,-168.5 50,-168.5"/>
<text text-anchor="middle" x="111" y="-175.5" font-family="Helvetica,sans-Serif" font-size="10.00">../Enums/HeroName.hpp</text>
</a>
</g>
</g>
<!-- Node2&#45;&gt;Node11 -->
<g id="edge11" class="edge">
<title>Node2&#45;&gt;Node11</title>
<path fill="none" stroke="midnightblue" d="M171.83,-229.98C160.65,-220.61 142.48,-205.38 128.91,-194.01"/>
<polygon fill="midnightblue" stroke="midnightblue" points="131.07,-191.25 121.15,-187.51 126.57,-196.61 131.07,-191.25"/>
</g>
<!-- Node5 -->
<g id="node5" class="node">
<title>Node5</title>
<g id="a_node5"><a xlink:href="Component_8hpp.html" target="_top" xlink:title=" ">
<polygon fill="none" stroke="black" points="668,-56.5 668,-75.5 752,-75.5 752,-56.5 668,-56.5"/>
<text text-anchor="middle" x="710" y="-63.5" font-family="Helvetica,sans-Serif" font-size="10.00">Component.hpp</text>
</a>
</g>
</g>
<!-- Node4&#45;&gt;Node5 -->
<g id="edge4" class="edge">
<title>Node4&#45;&gt;Node5</title>
<path fill="none" stroke="midnightblue" d="M531.85,-168.36C552.27,-155.69 591.75,-131.46 626,-112 645.36,-101 667.58,-89.13 684.3,-80.34"/>
<polygon fill="midnightblue" stroke="midnightblue" points="686.21,-83.29 693.45,-75.55 682.97,-77.09 686.21,-83.29"/>
</g>
<!-- Node6 -->
<g id="node6" class="node">
<title>Node6</title>
<g id="a_node6"><a xlink:title=" ">
<polygon fill="none" stroke="#bfbfbf" points="613.5,-0.5 613.5,-19.5 664.5,-19.5 664.5,-0.5 613.5,-0.5"/>
<text text-anchor="middle" x="639" y="-7.5" font-family="Helvetica,sans-Serif" font-size="10.00">memory</text>
</a>
</g>
</g>
<!-- Node4&#45;&gt;Node6 -->
<g id="edge10" class="edge">
<title>Node4&#45;&gt;Node6</title>
<path fill="none" stroke="midnightblue" d="M508.61,-168.46C496.01,-155.91 476.37,-131.83 487,-112 511.6,-66.12 567.24,-37.53 603.94,-22.93"/>
<polygon fill="midnightblue" stroke="midnightblue" points="605.2,-26.19 613.29,-19.35 602.7,-19.66 605.2,-26.19"/>
</g>
<!-- Node7 -->
<g id="node7" class="node">
<title>Node7</title>
<g id="a_node7"><a xlink:href="Transform_8hpp.html" target="_top" xlink:title=" ">
<polygon fill="none" stroke="black" points="634.5,-112.5 634.5,-131.5 713.5,-131.5 713.5,-112.5 634.5,-112.5"/>
<text text-anchor="middle" x="674" y="-119.5" font-family="Helvetica,sans-Serif" font-size="10.00">Transform.hpp</text>
</a>
</g>
</g>
<!-- Node4&#45;&gt;Node7 -->
<g id="edge6" class="edge">
<title>Node4&#45;&gt;Node7</title>
<path fill="none" stroke="midnightblue" d="M542.72,-168.44C568.85,-159.4 610.26,-145.06 639.58,-134.92"/>
<polygon fill="midnightblue" stroke="midnightblue" points="641.09,-138.1 649.4,-131.52 638.8,-131.48 641.09,-138.1"/>
</g>
<!-- Node9 -->
<g id="node9" class="node">
<title>Node9</title>
<g id="a_node9"><a xlink:title=" ">
<polygon fill="none" stroke="#bfbfbf" points="275.5,-56.5 275.5,-75.5 316.5,-75.5 316.5,-56.5 275.5,-56.5"/>
<text text-anchor="middle" x="296" y="-63.5" font-family="Helvetica,sans-Serif" font-size="10.00">string</text>
</a>
</g>
</g>
<!-- Node4&#45;&gt;Node9 -->
<g id="edge8" class="edge">
<title>Node4&#45;&gt;Node9</title>
<path fill="none" stroke="midnightblue" d="M500.58,-168.37C461.84,-149.17 368.34,-102.84 322.39,-80.07"/>
<polygon fill="midnightblue" stroke="midnightblue" points="323.85,-76.9 313.34,-75.59 320.75,-83.17 323.85,-76.9"/>
</g>
<!-- Node10 -->
<g id="node10" class="node">
<title>Node10</title>
<g id="a_node10"><a xlink:title=" ">
<polygon fill="none" stroke="#bfbfbf" points="496,-112.5 496,-131.5 540,-131.5 540,-112.5 496,-112.5"/>
<text text-anchor="middle" x="518" y="-119.5" font-family="Helvetica,sans-Serif" font-size="10.00">vector</text>
</a>
</g>
</g>
<!-- Node4&#45;&gt;Node10 -->
<g id="edge9" class="edge">
<title>Node4&#45;&gt;Node10</title>
<path fill="none" stroke="midnightblue" d="M518,-168.08C518,-161.01 518,-150.86 518,-141.99"/>
<polygon fill="midnightblue" stroke="midnightblue" points="521.5,-141.75 518,-131.75 514.5,-141.75 521.5,-141.75"/>
</g>
<!-- Node5&#45;&gt;Node6 -->
<g id="edge5" class="edge">
<title>Node5&#45;&gt;Node6</title>
<path fill="none" stroke="midnightblue" d="M698.59,-56.32C687.89,-48.18 671.66,-35.84 658.84,-26.09"/>
<polygon fill="midnightblue" stroke="midnightblue" points="660.69,-23.1 650.61,-19.83 656.46,-28.67 660.69,-23.1"/>
</g>
<!-- Node8 -->
<g id="node8" class="node">
<title>Node8</title>
<g id="a_node8"><a xlink:href="Point_8hpp.html" target="_top" xlink:title=" ">
<polygon fill="none" stroke="black" points="856.5,-56.5 856.5,-75.5 913.5,-75.5 913.5,-56.5 856.5,-56.5"/>
<text text-anchor="middle" x="885" y="-63.5" font-family="Helvetica,sans-Serif" font-size="10.00">Point.hpp</text>
</a>
</g>
</g>
<!-- Node7&#45;&gt;Node8 -->
<g id="edge7" class="edge">
<title>Node7&#45;&gt;Node8</title>
<path fill="none" stroke="midnightblue" d="M707.43,-112.44C745.28,-102.76 806.81,-87.01 846.6,-76.83"/>
<polygon fill="midnightblue" stroke="midnightblue" points="847.64,-80.17 856.46,-74.3 845.9,-73.39 847.64,-80.17"/>
</g>
<!-- Node12&#45;&gt;Node5 -->
<g id="edge13" class="edge">
<title>Node12&#45;&gt;Node5</title>
<path fill="none" stroke="midnightblue" d="M659.16,-170.85C681.78,-164.98 708.94,-153.66 723,-132 732.18,-117.86 726.6,-98.63 720.15,-84.76"/>
<polygon fill="midnightblue" stroke="midnightblue" points="723.19,-83.03 715.49,-75.75 716.97,-86.24 723.19,-83.03"/>
</g>
<!-- Node12&#45;&gt;Node6 -->
<g id="edge19" class="edge">
<title>Node12&#45;&gt;Node6</title>
<path fill="none" stroke="midnightblue" d="M622.36,-168.15C622.91,-155.63 624.1,-132.03 626,-112 628.74,-83.18 633.29,-49.9 636.22,-29.66"/>
<polygon fill="midnightblue" stroke="midnightblue" points="639.7,-30.03 637.69,-19.62 632.78,-29.01 639.7,-30.03"/>
</g>
<!-- Node12&#45;&gt;Node10 -->
<g id="edge18" class="edge">
<title>Node12&#45;&gt;Node10</title>
<path fill="none" stroke="midnightblue" d="M605.29,-168.32C588.69,-159.7 563,-146.36 543.78,-136.39"/>
<polygon fill="midnightblue" stroke="midnightblue" points="545.16,-133.16 534.67,-131.65 541.93,-139.37 545.16,-133.16"/>
</g>
<!-- Node12&#45;&gt;Node13 -->
<g id="edge14" class="edge">
<title>Node12&#45;&gt;Node13</title>
<path fill="none" stroke="midnightblue" d="M584.88,-170.25C580.54,-169.48 576.17,-168.72 572,-168 488.34,-153.65 390.21,-137.91 336.4,-129.37"/>
<polygon fill="midnightblue" stroke="midnightblue" points="336.67,-125.87 326.25,-127.76 335.58,-132.79 336.67,-125.87"/>
</g>
<!-- Node13&#45;&gt;Node3 -->
<g id="edge16" class="edge">
<title>Node13&#45;&gt;Node3</title>
<path fill="none" stroke="midnightblue" d="M280.58,-112.32C265.46,-103.82 242.18,-90.73 224.53,-80.8"/>
<polygon fill="midnightblue" stroke="midnightblue" points="225.82,-77.51 215.39,-75.65 222.39,-83.61 225.82,-77.51"/>
</g>
<!-- Node13&#45;&gt;Node5 -->
<g id="edge15" class="edge">
<title>Node13&#45;&gt;Node5</title>
<path fill="none" stroke="midnightblue" d="M326.11,-117.07C396,-107.96 569.97,-85.27 657.68,-73.82"/>
<polygon fill="midnightblue" stroke="midnightblue" points="658.22,-77.28 667.68,-72.52 657.31,-70.34 658.22,-77.28"/>
</g>
<!-- Node13&#45;&gt;Node9 -->
<g id="edge17" class="edge">
<title>Node13&#45;&gt;Node9</title>
<path fill="none" stroke="midnightblue" d="M296,-112.08C296,-105.01 296,-94.86 296,-85.99"/>
<polygon fill="midnightblue" stroke="midnightblue" points="299.5,-85.75 296,-75.75 292.5,-85.75 299.5,-85.75"/>
</g>
<!-- Node15 -->
<g id="node15" class="node">
<title>Node15</title>
<g id="a_node15"><a xlink:href="Collider_8hpp.html" target="_top" xlink:title=" ">
<polygon fill="none" stroke="black" points="980.5,-112.5 980.5,-131.5 1047.5,-131.5 1047.5,-112.5 980.5,-112.5"/>
<text text-anchor="middle" x="1014" y="-119.5" font-family="Helvetica,sans-Serif" font-size="10.00">Collider.hpp</text>
</a>
</g>
</g>
<!-- Node14&#45;&gt;Node15 -->
<g id="edge21" class="edge">
<title>Node14&#45;&gt;Node15</title>
<path fill="none" stroke="midnightblue" d="M1477.84,-172.11C1380.12,-161.77 1153.47,-137.77 1057.83,-127.64"/>
<polygon fill="midnightblue" stroke="midnightblue" points="1057.95,-124.13 1047.64,-126.56 1057.21,-131.1 1057.95,-124.13"/>
</g>
<!-- Node15&#45;&gt;Node5 -->
<g id="edge22" class="edge">
<title>Node15&#45;&gt;Node5</title>
<path fill="none" stroke="midnightblue" d="M980.31,-115.01C927.44,-105.62 824.61,-87.36 762.14,-76.26"/>
<polygon fill="midnightblue" stroke="midnightblue" points="762.56,-72.78 752.1,-74.48 761.34,-79.67 762.56,-72.78"/>
</g>
<!-- Node16&#45;&gt;Node4 -->
<g id="edge25" class="edge">
<title>Node16&#45;&gt;Node4</title>
<path fill="none" stroke="midnightblue" d="M870.32,-296.9C804.24,-274.79 628.29,-215.91 552.99,-190.71"/>
<polygon fill="midnightblue" stroke="midnightblue" points="554.06,-187.38 543.47,-187.52 551.84,-194.02 554.06,-187.38"/>
</g>
<!-- Node16&#45;&gt;Node6 -->
<g id="edge32" class="edge">
<title>Node16&#45;&gt;Node6</title>
<path fill="none" stroke="midnightblue" d="M919.73,-296.91C957.51,-281.73 1029.84,-246.16 1057,-188 1071.29,-157.39 1074.91,-140.64 1057,-112 1016.08,-46.55 768.54,-20.94 674.87,-13.51"/>
<polygon fill="midnightblue" stroke="midnightblue" points="674.99,-10.01 664.75,-12.73 674.45,-16.98 674.99,-10.01"/>
</g>
<!-- Node17 -->
<g id="node17" class="node">
<title>Node17</title>
<g id="a_node17"><a xlink:href="HealthBehaviour_8hpp.html" target="_top" xlink:title=" ">
<polygon fill="none" stroke="black" points="840,-224.5 840,-254.5 968,-254.5 968,-224.5 840,-224.5"/>
<text text-anchor="start" x="848" y="-242.5" font-family="Helvetica,sans-Serif" font-size="10.00">../Scripts/Common/Health</text>
<text text-anchor="middle" x="904" y="-231.5" font-family="Helvetica,sans-Serif" font-size="10.00">Behaviour.hpp</text>
</a>
</g>
</g>
<!-- Node16&#45;&gt;Node17 -->
<g id="edge26" class="edge">
<title>Node16&#45;&gt;Node17</title>
<path fill="none" stroke="midnightblue" d="M897.08,-296.73C898.09,-288.54 899.64,-275.92 901.02,-264.71"/>
<polygon fill="midnightblue" stroke="midnightblue" points="904.52,-264.94 902.27,-254.59 897.57,-264.09 904.52,-264.94"/>
</g>
<!-- Node17&#45;&gt;Node6 -->
<g id="edge30" class="edge">
<title>Node17&#45;&gt;Node6</title>
<path fill="none" stroke="midnightblue" d="M910.3,-224.29C919.9,-201.09 936.68,-153.52 933,-112 930.77,-86.82 941.05,-73.7 923,-56 888.49,-22.16 743.7,-13.77 675.2,-11.69"/>
<polygon fill="midnightblue" stroke="midnightblue" points="674.99,-8.18 664.89,-11.4 674.79,-15.18 674.99,-8.18"/>
</g>
<!-- Node17&#45;&gt;Node12 -->
<g id="edge31" class="edge">
<title>Node17&#45;&gt;Node12</title>
<path fill="none" stroke="midnightblue" d="M839.66,-224.92C787.71,-213.96 715.82,-198.8 669.12,-188.94"/>
<polygon fill="midnightblue" stroke="midnightblue" points="669.77,-185.5 659.26,-186.86 668.32,-192.35 669.77,-185.5"/>
</g>
<!-- Node18 -->
<g id="node18" class="node">
<title>Node18</title>
<g id="a_node18"><a xlink:href="BehaviourScript_8hpp.html" target="_top" xlink:title=" ">
<polygon fill="none" stroke="black" points="944,-168.5 944,-187.5 1048,-187.5 1048,-168.5 944,-168.5"/>
<text text-anchor="middle" x="996" y="-175.5" font-family="Helvetica,sans-Serif" font-size="10.00">BehaviourScript.hpp</text>
</a>
</g>
</g>
<!-- Node17&#45;&gt;Node18 -->
<g id="edge27" class="edge">
<title>Node17&#45;&gt;Node18</title>
<path fill="none" stroke="midnightblue" d="M925.8,-224.4C940.41,-214.95 959.57,-202.56 974.18,-193.11"/>
<polygon fill="midnightblue" stroke="midnightblue" points="976.12,-196.03 982.61,-187.66 972.32,-190.15 976.12,-196.03"/>
</g>
<!-- Node18&#45;&gt;Node5 -->
<g id="edge28" class="edge">
<title>Node18&#45;&gt;Node5</title>
<path fill="none" stroke="midnightblue" d="M958.05,-168.5C925.39,-160.65 877.32,-147.84 837,-132 799.39,-117.22 758.13,-94.88 733.16,-80.61"/>
<polygon fill="midnightblue" stroke="midnightblue" points="734.83,-77.54 724.42,-75.58 731.33,-83.61 734.83,-77.54"/>
</g>
<!-- Node18&#45;&gt;Node15 -->
<g id="edge29" class="edge">
<title>Node18&#45;&gt;Node15</title>
<path fill="none" stroke="midnightblue" d="M998.97,-168.08C1001.38,-160.85 1004.86,-150.41 1007.87,-141.4"/>
<polygon fill="midnightblue" stroke="midnightblue" points="1011.24,-142.34 1011.08,-131.75 1004.6,-140.13 1011.24,-142.34"/>
</g>
<!-- Node21&#45;&gt;Node17 -->
<g id="edge39" class="edge">
<title>Node21&#45;&gt;Node17</title>
<path fill="none" stroke="midnightblue" d="M1009.71,-291.4C989.98,-281.9 963.77,-269.28 942.38,-258.98"/>
<polygon fill="midnightblue" stroke="midnightblue" points="943.76,-255.76 933.24,-254.58 940.73,-262.07 943.76,-255.76"/>
</g>
<!-- Node21&#45;&gt;Node18 -->
<g id="edge36" class="edge">
<title>Node21&#45;&gt;Node18</title>
<path fill="none" stroke="midnightblue" d="M1034.23,-291.48C1026.43,-268.51 1010.92,-222.89 1002.24,-197.37"/>
<polygon fill="midnightblue" stroke="midnightblue" points="1005.52,-196.13 998.99,-187.79 998.89,-198.38 1005.52,-196.13"/>
</g>
<!-- Node22 -->
<g id="node22" class="node">
<title>Node22</title>
<g id="a_node22"><a xlink:href="CoolDownBehaviour_8hpp.html" target="_top" xlink:title=" ">
<polygon fill="none" stroke="black" points="1062,-230 1062,-249 1234,-249 1234,-230 1062,-230"/>
<text text-anchor="middle" x="1148" y="-237" font-family="Helvetica,sans-Serif" font-size="10.00">../Common/CoolDownBehaviour.hpp</text>
</a>
</g>
</g>
<!-- Node21&#45;&gt;Node22 -->
<g id="edge37" class="edge">
<title>Node21&#45;&gt;Node22</title>
<path fill="none" stroke="midnightblue" d="M1062.65,-291.4C1081.18,-280.34 1106.81,-265.06 1125.14,-254.13"/>
<polygon fill="midnightblue" stroke="midnightblue" points="1126.94,-257.13 1133.73,-249.01 1123.35,-251.12 1126.94,-257.13"/>
</g>
<!-- Node22&#45;&gt;Node18 -->
<g id="edge38" class="edge">
<title>Node22&#45;&gt;Node18</title>
<path fill="none" stroke="midnightblue" d="M1126.22,-229.98C1100.26,-219.81 1056.69,-202.76 1027.17,-191.2"/>
<polygon fill="midnightblue" stroke="midnightblue" points="1028.33,-187.9 1017.74,-187.51 1025.77,-194.41 1028.33,-187.9"/>
</g>
<!-- Node23&#45;&gt;Node6 -->
<g id="edge41" class="edge">
<title>Node23&#45;&gt;Node6</title>
<path fill="none" stroke="midnightblue" d="M746.29,-291.3C756.85,-244.25 787.7,-94.3 761,-56 741.69,-28.29 703.27,-17.6 674.68,-13.5"/>
<polygon fill="midnightblue" stroke="midnightblue" points="675,-10.01 664.65,-12.27 674.15,-16.96 675,-10.01"/>
</g>
<!-- Node23&#45;&gt;Node12 -->
<g id="edge46" class="edge">
<title>Node23&#45;&gt;Node12</title>
<path fill="none" stroke="midnightblue" d="M729.59,-291.48C706.94,-267.8 661.23,-220.02 637.34,-195.04"/>
<polygon fill="midnightblue" stroke="midnightblue" points="639.85,-192.6 630.41,-187.79 634.79,-197.43 639.85,-192.6"/>
</g>
<!-- Node23&#45;&gt;Node17 -->
<g id="edge47" class="edge">
<title>Node23&#45;&gt;Node17</title>
<path fill="none" stroke="midnightblue" d="M777.93,-291.4C801.88,-281.73 833.85,-268.82 859.6,-258.43"/>
<polygon fill="midnightblue" stroke="midnightblue" points="861.17,-261.57 869.13,-254.58 858.55,-255.07 861.17,-261.57"/>
</g>
<!-- Node23&#45;&gt;Node18 -->
<g id="edge42" class="edge">
<title>Node23&#45;&gt;Node18</title>
<path fill="none" stroke="midnightblue" d="M754.29,-291.5C769.71,-273.28 799.14,-241.68 831,-224 862.63,-206.45 901.51,-195.41 933.59,-188.66"/>
<polygon fill="midnightblue" stroke="midnightblue" points="934.64,-192.02 943.75,-186.62 933.26,-185.16 934.64,-192.02"/>
</g>
<!-- Node24 -->
<g id="node24" class="node">
<title>Node24</title>
<g id="a_node24"><a xlink:href="RigidBody_8hpp.html" target="_top" xlink:title=" ">
<polygon fill="none" stroke="black" points="846,-112.5 846,-131.5 924,-131.5 924,-112.5 846,-112.5"/>
<text text-anchor="middle" x="885" y="-119.5" font-family="Helvetica,sans-Serif" font-size="10.00">RigidBody.hpp</text>
</a>
</g>
</g>
<!-- Node23&#45;&gt;Node24 -->
<g id="edge43" class="edge">
<title>Node23&#45;&gt;Node24</title>
<path fill="none" stroke="midnightblue" d="M749.45,-291.28C757.38,-274.47 771.8,-245.99 788,-224 812.33,-190.97 846.73,-157.6 867.36,-138.69"/>
<polygon fill="midnightblue" stroke="midnightblue" points="869.97,-141.04 875.03,-131.73 865.27,-135.85 869.97,-141.04"/>
</g>
<!-- Node24&#45;&gt;Node5 -->
<g id="edge44" class="edge">
<title>Node24&#45;&gt;Node5</title>
<path fill="none" stroke="midnightblue" d="M857.27,-112.44C827.57,-103.28 780.28,-88.69 747.33,-78.52"/>
<polygon fill="midnightblue" stroke="midnightblue" points="748.19,-75.12 737.6,-75.52 746.12,-81.81 748.19,-75.12"/>
</g>
<!-- Node24&#45;&gt;Node8 -->
<g id="edge45" class="edge">
<title>Node24&#45;&gt;Node8</title>
<path fill="none" stroke="midnightblue" d="M885,-112.08C885,-105.01 885,-94.86 885,-85.99"/>
<polygon fill="midnightblue" stroke="midnightblue" points="888.5,-85.75 885,-75.75 881.5,-85.75 888.5,-85.75"/>
</g>
<!-- Node25&#45;&gt;Node8 -->
<g id="edge50" class="edge">
<title>Node25&#45;&gt;Node8</title>
<path fill="none" stroke="midnightblue" d="M1304.15,-291.77C1357.59,-280.73 1422.92,-265.4 1431,-255 1439.45,-244.12 1439.23,-235.05 1431,-224 1368.82,-140.47 1037.74,-87.92 923.67,-72.07"/>
<polygon fill="midnightblue" stroke="midnightblue" points="924.01,-68.59 913.63,-70.7 923.06,-75.53 924.01,-68.59"/>
</g>
<!-- Node25&#45;&gt;Node17 -->
<g id="edge51" class="edge">
<title>Node25&#45;&gt;Node17</title>
<path fill="none" stroke="midnightblue" d="M1162.02,-291.48C1107.78,-280.76 1033.23,-266.03 978.21,-255.16"/>
<polygon fill="midnightblue" stroke="midnightblue" points="978.66,-251.68 968.17,-253.18 977.3,-258.55 978.66,-251.68"/>
</g>
<!-- Node25&#45;&gt;Node18 -->
<g id="edge49" class="edge">
<title>Node25&#45;&gt;Node18</title>
<path fill="none" stroke="midnightblue" d="M1240.45,-291.33C1248.68,-273.5 1258.8,-242.94 1243,-224 1219.91,-196.32 1123.55,-185.62 1058.23,-181.52"/>
<polygon fill="midnightblue" stroke="midnightblue" points="1058.22,-178.01 1048.03,-180.91 1057.81,-185 1058.22,-178.01"/>
</g>
<!-- Node25&#45;&gt;Node22 -->
<g id="edge52" class="edge">
<title>Node25&#45;&gt;Node22</title>
<path fill="none" stroke="midnightblue" d="M1214.56,-291.4C1200.65,-280.76 1181.61,-266.2 1167.46,-255.38"/>
<polygon fill="midnightblue" stroke="midnightblue" points="1169.44,-252.49 1159.37,-249.19 1165.19,-258.05 1169.44,-252.49"/>
</g>
<!-- Node26 -->
<g id="node26" class="node">
<title>Node26</title>
<g id="a_node26"><a xlink:href="LevelMode_8hpp.html" target="_top" xlink:title=" ">
<polygon fill="none" stroke="black" points="1290.5,-230 1290.5,-249 1421.5,-249 1421.5,-230 1290.5,-230"/>
<text text-anchor="middle" x="1356" y="-237" font-family="Helvetica,sans-Serif" font-size="10.00">../../Enums/LevelMode.hpp</text>
</a>
</g>
</g>
<!-- Node25&#45;&gt;Node26 -->
<g id="edge53" class="edge">
<title>Node25&#45;&gt;Node26</title>
<path fill="none" stroke="midnightblue" d="M1259.69,-291.4C1280.89,-280.19 1310.32,-264.64 1331.05,-253.69"/>
<polygon fill="midnightblue" stroke="midnightblue" points="1332.7,-256.77 1339.9,-249.01 1329.43,-250.58 1332.7,-256.77"/>
</g>
<!-- Node27&#45;&gt;Node6 -->
<g id="edge56" class="edge">
<title>Node27&#45;&gt;Node6</title>
<path fill="none" stroke="midnightblue" d="M354.61,-168.5C351.55,-146.44 346.76,-86.96 378,-56 409.25,-25.04 539.6,-15.22 603.45,-12.24"/>
<polygon fill="midnightblue" stroke="midnightblue" points="603.63,-15.73 613.46,-11.8 603.32,-8.74 603.63,-15.73"/>
</g>
<!-- Node27&#45;&gt;Node9 -->
<g id="edge57" class="edge">
<title>Node27&#45;&gt;Node9</title>
<path fill="none" stroke="midnightblue" d="M311.99,-168.44C291.6,-162.03 269.21,-150.97 257,-132 246.18,-115.2 261.92,-95.45 276.52,-82.17"/>
<polygon fill="midnightblue" stroke="midnightblue" points="278.99,-84.67 284.34,-75.52 274.45,-79.34 278.99,-84.67"/>
</g>
<!-- Node27&#45;&gt;Node10 -->
<g id="edge58" class="edge">
<title>Node27&#45;&gt;Node10</title>
<path fill="none" stroke="midnightblue" d="M381.67,-168.44C409.96,-159.01 455.52,-143.83 486.09,-133.64"/>
<polygon fill="midnightblue" stroke="midnightblue" points="487.45,-136.87 495.83,-130.39 485.24,-130.23 487.45,-136.87"/>
</g>
<!-- Node27&#45;&gt;Node13 -->
<g id="edge55" class="edge">
<title>Node27&#45;&gt;Node13</title>
<path fill="none" stroke="midnightblue" d="M346.36,-168.32C337.49,-160.34 324.13,-148.31 313.39,-138.65"/>
<polygon fill="midnightblue" stroke="midnightblue" points="315.59,-135.92 305.82,-131.83 310.91,-141.13 315.59,-135.92"/>
</g>
<!-- Node28&#45;&gt;Node4 -->
<g id="edge61" class="edge">
<title>Node28&#45;&gt;Node4</title>
<path fill="none" stroke="midnightblue" d="M518,-229.98C518,-221.58 518,-208.48 518,-197.66"/>
<polygon fill="midnightblue" stroke="midnightblue" points="521.5,-197.51 518,-187.51 514.5,-197.51 521.5,-197.51"/>
</g>
<!-- Node28&#45;&gt;Node6 -->
<g id="edge60" class="edge">
<title>Node28&#45;&gt;Node6</title>
<path fill="none" stroke="midnightblue" d="M503.63,-229.75C490.78,-220.99 472.81,-206.22 465,-188 456.39,-167.89 474.96,-121.68 479,-112 490.21,-85.13 490.43,-74.4 513,-56 539.18,-34.65 576.27,-23.04 603.44,-16.99"/>
<polygon fill="midnightblue" stroke="midnightblue" points="604.24,-20.39 613.32,-14.93 602.81,-13.54 604.24,-20.39"/>
</g>
<!-- Node29&#45;&gt;Node3 -->
<g id="edge63" class="edge">
<title>Node29&#45;&gt;Node3</title>
<path fill="none" stroke="midnightblue" d="M40.04,-229.59C35.93,-215.53 30.15,-187.75 41,-168 66.52,-121.56 123.42,-93.45 161.77,-79.07"/>
<polygon fill="midnightblue" stroke="midnightblue" points="163.34,-82.22 171.56,-75.54 160.97,-75.63 163.34,-82.22"/>
</g>
</g>
</svg>
        <g id="navigator" transform="translate(0 0)" fill="#404254">
                <rect fill="#f2f5e9" fill-opacity="0.5" stroke="#606060" stroke-width=".5" x="0" y="0" width="60" height="60"/>
                <use id="zoomplus" xlink:href="#zoomPlus" x="17" y="9" onmousedown="handleZoom(evt,'in')"/>
                <use id="zoomminus" xlink:href="#zoomMin" x="42" y="9" onmousedown="handleZoom(evt,'out')"/>
                <use id="reset" xlink:href="#resetDef" x="30" y="36" onmousedown="handleReset()"/>
                <g id="arrowUp" xlink:href="#dirArrow" transform="translate(30 24)" onmousedown="handlePan(0,-1)">
                  <use xlink:href="#rim" fill="#404040">
                        <set attributeName="fill" to="#808080" begin="arrowUp.mouseover" end="arrowUp.mouseout"/>
                  </use>
                  <path fill="none" stroke="white" stroke-width="1.5" d="M0,-3.0v7 M-2.5,-0.5L0,-3.0L2.5,-0.5"/>
                </g>
                <g id="arrowRight" xlink:href="#dirArrow" transform="rotate(90) translate(36 -43)" onmousedown="handlePan(1,0)">
                  <use xlink:href="#rim" fill="#404040">
                        <set attributeName="fill" to="#808080" begin="arrowRight.mouseover" end="arrowRight.mouseout"/>
                  </use>
                  <path fill="none" stroke="white" stroke-width="1.5" d="M0,-3.0v7 M-2.5,-0.5L0,-3.0L2.5,-0.5"/>
                </g>
                <g id="arrowDown" xlink:href="#dirArrow" transform="rotate(180) translate(-30 -48)" onmousedown="handlePan(0,1)">
                  <use xlink:href="#rim" fill="#404040">
                        <set attributeName="fill" to="#808080" begin="arrowDown.mouseover" end="arrowDown.mouseout"/>
                  </use>
                  <path fill="none" stroke="white" stroke-width="1.5" d="M0,-3.0v7 M-2.5,-0.5L0,-3.0L2.5,-0.5"/>
                </g>
                <g id="arrowLeft" xlink:href="#dirArrow" transform="rotate(270) translate(-36 17)" onmousedown="handlePan(-1,0)">
                  <use xlink:href="#rim" fill="#404040">
                        <set attributeName="fill" to="#808080" begin="arrowLeft.mouseover" end="arrowLeft.mouseout"/>
                  </use>
                  <path fill="none" stroke="white" stroke-width="1.5" d="M0,-3.0v7 M-2.5,-0.5L0,-3.0L2.5,-0.5"/>
                </g>
        </g>
        <svg viewBox="0 0 15 15" width="100%" height="30px" preserveAspectRatio="xMaxYMin meet">
         <g id="arrow_out" transform="scale(0.3 0.3)">
          <a xlink:href="HeroPrefabFactory_8cpp__incl_org.svg" target="_base">
           <rect id="button" ry="5" rx="5" y="6" x="6" height="38" width="38"
                fill="#f2f5e9" fill-opacity="0.5" stroke="#606060" stroke-width="1.0"/>
           <path id="arrow"
             d="M 11.500037,31.436501 C 11.940474,20.09759 22.043105,11.32322 32.158766,21.979434 L 37.068811,17.246167 C 37.068811,17.246167 37.088388,32 37.088388,32 L 22.160133,31.978069 C 22.160133,31.978069 26.997745,27.140456 26.997745,27.140456 C 18.528582,18.264221 13.291696,25.230495 11.500037,31.436501 z"
             style="fill:#404040;"/>
          </a>
         </g>
        </svg>
</svg>
