<?xml version="1.0" encoding="UTF-8" standalone="no"?>
<!DOCTYPE svg PUBLIC "-//W3C//DTD SVG 1.1//EN"
 "http://www.w3.org/Graphics/SVG/1.1/DTD/svg11.dtd">
<!-- Generated by graphviz version 2.44.0 ()
 -->
<!-- Title: src/Utils/HeroUtil.cpp Pages: 1 -->
<svg width="1255pt" height="442pt"
 viewBox="0.00 0.00 1255.00 442.00" xmlns="http://www.w3.org/2000/svg" xmlns:xlink="http://www.w3.org/1999/xlink">
<g id="graph0" class="graph" transform="scale(1 1) rotate(0) translate(4 438)">
<title>src/Utils/HeroUtil.cpp</title>
<!-- Node1 -->
<g id="node1" class="node">
<title>Node1</title>
<g id="a_node1"><a xlink:title=" ">
<polygon fill="#bfbfbf" stroke="black" points="548.5,-414.5 548.5,-433.5 658.5,-433.5 658.5,-414.5 548.5,-414.5"/>
<text text-anchor="middle" x="603.5" y="-421.5" font-family="Helvetica,sans-Serif" font-size="10.00">src/Utils/HeroUtil.cpp</text>
</a>
</g>
</g>
<!-- Node2 -->
<g id="node2" class="node">
<title>Node2</title>
<g id="a_node2"><a xlink:href="HeroUtil_8hpp.html" target="_top" xlink:title=" ">
<polygon fill="none" stroke="black" points="224,-291.5 224,-310.5 295,-310.5 295,-291.5 224,-291.5"/>
<text text-anchor="middle" x="259.5" y="-298.5" font-family="Helvetica,sans-Serif" font-size="10.00">HeroUtil.hpp</text>
</a>
</g>
</g>
<!-- Node1&#45;&gt;Node2 -->
<g id="edge1" class="edge">
<title>Node1&#45;&gt;Node2</title>
<path fill="none" stroke="midnightblue" d="M548.39,-418.06C480.07,-411.22 368.17,-397.47 331.5,-378 305.25,-364.06 283.16,-336.93 270.63,-319.14"/>
<polygon fill="midnightblue" stroke="midnightblue" points="273.48,-317.11 264.97,-310.81 267.69,-321.05 273.48,-317.11"/>
</g>
<!-- Node7 -->
<g id="node7" class="node">
<title>Node7</title>
<g id="a_node7"><a xlink:href="BehaviourScript_8hpp.html" target="_top" xlink:title=" ">
<polygon fill="none" stroke="black" points="356.5,-168.5 356.5,-187.5 460.5,-187.5 460.5,-168.5 356.5,-168.5"/>
<text text-anchor="middle" x="408.5" y="-175.5" font-family="Helvetica,sans-Serif" font-size="10.00">BehaviourScript.hpp</text>
</a>
</g>
</g>
<!-- Node1&#45;&gt;Node7 -->
<g id="edge19" class="edge">
<title>Node1&#45;&gt;Node7</title>
<path fill="none" stroke="midnightblue" d="M548.46,-420.53C485.29,-416.4 387.41,-405.63 364.5,-378 329.56,-335.87 416.12,-322.8 440.5,-255 445.16,-242.04 444.69,-237.12 440.5,-224 437.16,-213.54 430.4,-203.43 423.95,-195.45"/>
<polygon fill="midnightblue" stroke="midnightblue" points="426.44,-192.98 417.25,-187.71 421.15,-197.56 426.44,-192.98"/>
</g>
<!-- Node11 -->
<g id="node11" class="node">
<title>Node11</title>
<g id="a_node11"><a xlink:href="GameObject_8hpp.html" target="_top" xlink:title=" ">
<polygon fill="none" stroke="black" points="82,-168.5 82,-187.5 171,-187.5 171,-168.5 82,-168.5"/>
<text text-anchor="middle" x="126.5" y="-175.5" font-family="Helvetica,sans-Serif" font-size="10.00">GameObject.hpp</text>
</a>
</g>
</g>
<!-- Node1&#45;&gt;Node11 -->
<g id="edge11" class="edge">
<title>Node1&#45;&gt;Node11</title>
<path fill="none" stroke="midnightblue" d="M548.45,-420.92C484.87,-417.19 377.82,-406.82 290.5,-378 181.16,-341.92 121.5,-353.87 62.5,-255 55.44,-243.17 56.15,-236.23 62.5,-224 69.65,-210.23 83.17,-199.78 95.95,-192.44"/>
<polygon fill="midnightblue" stroke="midnightblue" points="97.82,-195.41 105.02,-187.64 94.54,-189.23 97.82,-195.41"/>
</g>
<!-- Node14 -->
<g id="node14" class="node">
<title>Node14</title>
<g id="a_node14"><a xlink:title=" ">
<polygon fill="none" stroke="#bfbfbf" points="1188,-353 1188,-372 1247,-372 1247,-353 1188,-353"/>
<text text-anchor="middle" x="1217.5" y="-360" font-family="Helvetica,sans-Serif" font-size="10.00">stdexcept</text>
</a>
</g>
</g>
<!-- Node1&#45;&gt;Node14 -->
<g id="edge18" class="edge">
<title>Node1&#45;&gt;Node14</title>
<path fill="none" stroke="midnightblue" d="M658.67,-423.89C762.15,-424.43 991.85,-420.21 1179.5,-378 1182.5,-377.32 1185.59,-376.46 1188.63,-375.49"/>
<polygon fill="midnightblue" stroke="midnightblue" points="1189.85,-378.77 1198.11,-372.12 1187.51,-372.17 1189.85,-378.77"/>
</g>
<!-- Node15 -->
<g id="node15" class="node">
<title>Node15</title>
<g id="a_node15"><a xlink:href="HealAbilityBehaviour_8hpp.html" target="_top" xlink:title=" ">
<polygon fill="none" stroke="black" points="878,-347.5 878,-377.5 1017,-377.5 1017,-347.5 878,-347.5"/>
<text text-anchor="start" x="886" y="-365.5" font-family="Helvetica,sans-Serif" font-size="10.00">../Scripts/Heroes/HealAbility</text>
<text text-anchor="middle" x="947.5" y="-354.5" font-family="Helvetica,sans-Serif" font-size="10.00">Behaviour.hpp</text>
</a>
</g>
</g>
<!-- Node1&#45;&gt;Node15 -->
<g id="edge20" class="edge">
<title>Node1&#45;&gt;Node15</title>
<path fill="none" stroke="midnightblue" d="M654.83,-414.49C706.05,-405.95 787.28,-392.29 867.44,-378.17"/>
<polygon fill="midnightblue" stroke="midnightblue" points="868.48,-381.54 877.72,-376.36 867.27,-374.65 868.48,-381.54"/>
</g>
<!-- Node21 -->
<g id="node21" class="node">
<title>Node21</title>
<g id="a_node21"><a xlink:href="InvisibilityAbilityBehaviour_8hpp.html" target="_top" xlink:title=" ">
<polygon fill="none" stroke="black" points="1035,-347.5 1035,-377.5 1170,-377.5 1170,-347.5 1035,-347.5"/>
<text text-anchor="start" x="1043" y="-365.5" font-family="Helvetica,sans-Serif" font-size="10.00">../Scripts/Heroes/Invisibility</text>
<text text-anchor="middle" x="1102.5" y="-354.5" font-family="Helvetica,sans-Serif" font-size="10.00">AbilityBehaviour.hpp</text>
</a>
</g>
</g>
<!-- Node1&#45;&gt;Node21 -->
<g id="edge35" class="edge">
<title>Node1&#45;&gt;Node21</title>
<path fill="none" stroke="midnightblue" d="M658.78,-418.59C737.76,-411.95 887.64,-398.17 1024.36,-378.25"/>
<polygon fill="midnightblue" stroke="midnightblue" points="1025.21,-381.66 1034.59,-376.74 1024.19,-374.74 1025.21,-381.66"/>
</g>
<!-- Node22 -->
<g id="node22" class="node">
<title>Node22</title>
<g id="a_node22"><a xlink:href="AirstrikeAbilityBehaviour_8hpp.html" target="_top" xlink:title=" ">
<polygon fill="none" stroke="black" points="373.5,-347.5 373.5,-377.5 501.5,-377.5 501.5,-347.5 373.5,-347.5"/>
<text text-anchor="start" x="381.5" y="-365.5" font-family="Helvetica,sans-Serif" font-size="10.00">../Scripts/Heroes/Airstrike</text>
<text text-anchor="middle" x="437.5" y="-354.5" font-family="Helvetica,sans-Serif" font-size="10.00">AbilityBehaviour.hpp</text>
</a>
</g>
</g>
<!-- Node1&#45;&gt;Node22 -->
<g id="edge37" class="edge">
<title>Node1&#45;&gt;Node22</title>
<path fill="none" stroke="midnightblue" d="M579.72,-414.48C555.45,-405.78 517.09,-392.03 486.32,-381"/>
<polygon fill="midnightblue" stroke="midnightblue" points="487.22,-377.6 476.62,-377.52 484.86,-384.19 487.22,-377.6"/>
</g>
<!-- Node23 -->
<g id="node23" class="node">
<title>Node23</title>
<g id="a_node23"><a xlink:href="IncreaseTowerFireRateAbilityBehaviour_8hpp.html" target="_top" xlink:title=" ">
<polygon fill="none" stroke="black" points="519.5,-347.5 519.5,-377.5 687.5,-377.5 687.5,-347.5 519.5,-347.5"/>
<text text-anchor="start" x="527.5" y="-365.5" font-family="Helvetica,sans-Serif" font-size="10.00">../Scripts/Heroes/Increase</text>
<text text-anchor="middle" x="603.5" y="-354.5" font-family="Helvetica,sans-Serif" font-size="10.00">TowerFireRateAbilityBehaviour.hpp</text>
</a>
</g>
</g>
<!-- Node1&#45;&gt;Node23 -->
<g id="edge39" class="edge">
<title>Node1&#45;&gt;Node23</title>
<path fill="none" stroke="midnightblue" d="M603.5,-414.48C603.5,-407.47 603.5,-397.19 603.5,-387.7"/>
<polygon fill="midnightblue" stroke="midnightblue" points="607,-387.52 603.5,-377.52 600,-387.52 607,-387.52"/>
</g>
<!-- Node24 -->
<g id="node24" class="node">
<title>Node24</title>
<g id="a_node24"><a xlink:href="EnemySuicideAbilityBehaviour_8hpp.html" target="_top" xlink:title=" ">
<polygon fill="none" stroke="black" points="705.5,-347.5 705.5,-377.5 859.5,-377.5 859.5,-347.5 705.5,-347.5"/>
<text text-anchor="start" x="713.5" y="-365.5" font-family="Helvetica,sans-Serif" font-size="10.00">../Scripts/Heroes/EnemySuicide</text>
<text text-anchor="middle" x="782.5" y="-354.5" font-family="Helvetica,sans-Serif" font-size="10.00">AbilityBehaviour.hpp</text>
</a>
</g>
</g>
<!-- Node1&#45;&gt;Node24 -->
<g id="edge41" class="edge">
<title>Node1&#45;&gt;Node24</title>
<path fill="none" stroke="midnightblue" d="M629.15,-414.48C655.54,-405.7 697.4,-391.79 730.72,-380.71"/>
<polygon fill="midnightblue" stroke="midnightblue" points="731.93,-384 740.31,-377.52 729.72,-377.36 731.93,-384"/>
</g>
<!-- Node3 -->
<g id="node3" class="node">
<title>Node3</title>
<g id="a_node3"><a xlink:title=" ">
<polygon fill="none" stroke="#bfbfbf" points="201,-56.5 201,-75.5 242,-75.5 242,-56.5 201,-56.5"/>
<text text-anchor="middle" x="221.5" y="-63.5" font-family="Helvetica,sans-Serif" font-size="10.00">string</text>
</a>
</g>
</g>
<!-- Node2&#45;&gt;Node3 -->
<g id="edge2" class="edge">
<title>Node2&#45;&gt;Node3</title>
<path fill="none" stroke="midnightblue" d="M258.1,-291.43C252.6,-257.68 232.34,-133.47 224.57,-85.8"/>
<polygon fill="midnightblue" stroke="midnightblue" points="228.01,-85.2 222.95,-75.9 221.11,-86.33 228.01,-85.2"/>
</g>
<!-- Node4 -->
<g id="node4" class="node">
<title>Node4</title>
<g id="a_node4"><a xlink:title=" ">
<polygon fill="none" stroke="#bfbfbf" points="249.5,-112.5 249.5,-131.5 293.5,-131.5 293.5,-112.5 249.5,-112.5"/>
<text text-anchor="middle" x="271.5" y="-119.5" font-family="Helvetica,sans-Serif" font-size="10.00">vector</text>
</a>
</g>
</g>
<!-- Node2&#45;&gt;Node4 -->
<g id="edge3" class="edge">
<title>Node2&#45;&gt;Node4</title>
<path fill="none" stroke="midnightblue" d="M260.08,-291.46C261.91,-264.43 267.62,-180.24 270.2,-142.11"/>
<polygon fill="midnightblue" stroke="midnightblue" points="273.71,-142.08 270.9,-131.87 266.73,-141.61 273.71,-142.08"/>
</g>
<!-- Node5 -->
<g id="node5" class="node">
<title>Node5</title>
<g id="a_node5"><a xlink:href="HeroName_8hpp.html" target="_top" xlink:title=" ">
<polygon fill="none" stroke="black" points="71.5,-230 71.5,-249 193.5,-249 193.5,-230 71.5,-230"/>
<text text-anchor="middle" x="132.5" y="-237" font-family="Helvetica,sans-Serif" font-size="10.00">../Enums/HeroName.hpp</text>
</a>
</g>
</g>
<!-- Node2&#45;&gt;Node5 -->
<g id="edge4" class="edge">
<title>Node2&#45;&gt;Node5</title>
<path fill="none" stroke="midnightblue" d="M241.3,-291.48C219.99,-281.49 184.47,-264.85 159.84,-253.31"/>
<polygon fill="midnightblue" stroke="midnightblue" points="161.2,-250.08 150.66,-249.01 158.23,-256.42 161.2,-250.08"/>
</g>
<!-- Node6 -->
<g id="node6" class="node">
<title>Node6</title>
<g id="a_node6"><a xlink:href="CoolDownBehaviour_8hpp.html" target="_top" xlink:title=" ">
<polygon fill="none" stroke="black" points="287.5,-224.5 287.5,-254.5 431.5,-254.5 431.5,-224.5 287.5,-224.5"/>
<text text-anchor="start" x="295.5" y="-242.5" font-family="Helvetica,sans-Serif" font-size="10.00">../Scripts/Common/CoolDown</text>
<text text-anchor="middle" x="359.5" y="-231.5" font-family="Helvetica,sans-Serif" font-size="10.00">Behaviour.hpp</text>
</a>
</g>
</g>
<!-- Node2&#45;&gt;Node6 -->
<g id="edge5" class="edge">
<title>Node2&#45;&gt;Node6</title>
<path fill="none" stroke="midnightblue" d="M273.83,-291.48C287.62,-283.27 308.98,-270.56 326.92,-259.88"/>
<polygon fill="midnightblue" stroke="midnightblue" points="329.13,-262.64 335.93,-254.52 325.55,-256.63 329.13,-262.64"/>
</g>
<!-- Node6&#45;&gt;Node7 -->
<g id="edge6" class="edge">
<title>Node6&#45;&gt;Node7</title>
<path fill="none" stroke="midnightblue" d="M371.11,-224.4C378.23,-215.75 387.38,-204.64 394.85,-195.58"/>
<polygon fill="midnightblue" stroke="midnightblue" points="397.71,-197.6 401.37,-187.66 392.31,-193.15 397.71,-197.6"/>
</g>
<!-- Node8 -->
<g id="node8" class="node">
<title>Node8</title>
<g id="a_node8"><a xlink:href="Component_8hpp.html" target="_top" xlink:title=" ">
<polygon fill="none" stroke="black" points="369.5,-56.5 369.5,-75.5 453.5,-75.5 453.5,-56.5 369.5,-56.5"/>
<text text-anchor="middle" x="411.5" y="-63.5" font-family="Helvetica,sans-Serif" font-size="10.00">Component.hpp</text>
</a>
</g>
</g>
<!-- Node7&#45;&gt;Node8 -->
<g id="edge7" class="edge">
<title>Node7&#45;&gt;Node8</title>
<path fill="none" stroke="midnightblue" d="M408.74,-168.37C409.22,-150.62 410.34,-109.67 410.99,-85.6"/>
<polygon fill="midnightblue" stroke="midnightblue" points="414.49,-85.68 411.27,-75.59 407.49,-85.49 414.49,-85.68"/>
</g>
<!-- Node10 -->
<g id="node10" class="node">
<title>Node10</title>
<g id="a_node10"><a xlink:href="Collider_8hpp.html" target="_top" xlink:title=" ">
<polygon fill="none" stroke="black" points="313,-112.5 313,-131.5 380,-131.5 380,-112.5 313,-112.5"/>
<text text-anchor="middle" x="346.5" y="-119.5" font-family="Helvetica,sans-Serif" font-size="10.00">Collider.hpp</text>
</a>
</g>
</g>
<!-- Node7&#45;&gt;Node10 -->
<g id="edge9" class="edge">
<title>Node7&#45;&gt;Node10</title>
<path fill="none" stroke="midnightblue" d="M398.54,-168.32C389.37,-160.34 375.56,-148.31 364.47,-138.65"/>
<polygon fill="midnightblue" stroke="midnightblue" points="366.48,-135.76 356.64,-131.83 361.88,-141.04 366.48,-135.76"/>
</g>
<!-- Node9 -->
<g id="node9" class="node">
<title>Node9</title>
<g id="a_node9"><a xlink:title=" ">
<polygon fill="none" stroke="#bfbfbf" points="463,-0.5 463,-19.5 514,-19.5 514,-0.5 463,-0.5"/>
<text text-anchor="middle" x="488.5" y="-7.5" font-family="Helvetica,sans-Serif" font-size="10.00">memory</text>
</a>
</g>
</g>
<!-- Node8&#45;&gt;Node9 -->
<g id="edge8" class="edge">
<title>Node8&#45;&gt;Node9</title>
<path fill="none" stroke="midnightblue" d="M423.87,-56.32C435.66,-48.06 453.63,-35.45 467.64,-25.63"/>
<polygon fill="midnightblue" stroke="midnightblue" points="469.98,-28.26 476.16,-19.65 465.96,-22.53 469.98,-28.26"/>
</g>
<!-- Node10&#45;&gt;Node8 -->
<g id="edge10" class="edge">
<title>Node10&#45;&gt;Node8</title>
<path fill="none" stroke="midnightblue" d="M356.94,-112.32C366.65,-104.26 381.32,-92.08 393,-82.37"/>
<polygon fill="midnightblue" stroke="midnightblue" points="395.41,-84.92 400.87,-75.83 390.94,-79.53 395.41,-84.92"/>
</g>
<!-- Node11&#45;&gt;Node3 -->
<g id="edge15" class="edge">
<title>Node11&#45;&gt;Node3</title>
<path fill="none" stroke="midnightblue" d="M131.13,-168.48C138.37,-155.55 153.24,-130.5 169.5,-112 179.23,-100.93 191.66,-90.07 201.94,-81.8"/>
<polygon fill="midnightblue" stroke="midnightblue" points="204.24,-84.43 209.95,-75.51 199.92,-78.93 204.24,-84.43"/>
</g>
<!-- Node11&#45;&gt;Node4 -->
<g id="edge16" class="edge">
<title>Node11&#45;&gt;Node4</title>
<path fill="none" stroke="midnightblue" d="M149.48,-168.44C173.8,-159.39 212.37,-145.02 239.63,-134.87"/>
<polygon fill="midnightblue" stroke="midnightblue" points="240.96,-138.11 249.11,-131.34 238.52,-131.55 240.96,-138.11"/>
</g>
<!-- Node11&#45;&gt;Node8 -->
<g id="edge12" class="edge">
<title>Node11&#45;&gt;Node8</title>
<path fill="none" stroke="midnightblue" d="M138.94,-168.45C159.32,-154.79 201.48,-127.94 240.5,-112 279.17,-96.21 325.04,-84.49 359.53,-76.98"/>
<polygon fill="midnightblue" stroke="midnightblue" points="360.35,-80.38 369.4,-74.87 358.89,-73.54 360.35,-80.38"/>
</g>
<!-- Node11&#45;&gt;Node9 -->
<g id="edge17" class="edge">
<title>Node11&#45;&gt;Node9</title>
<path fill="none" stroke="midnightblue" d="M128.11,-168.24C132.9,-145 149.43,-81.82 191.5,-56 234.73,-29.47 383.73,-17.28 452.81,-12.95"/>
<polygon fill="midnightblue" stroke="midnightblue" points="453.03,-16.44 462.79,-12.34 452.6,-9.46 453.03,-16.44"/>
</g>
<!-- Node12 -->
<g id="node12" class="node">
<title>Node12</title>
<g id="a_node12"><a xlink:href="Transform_8hpp.html" target="_top" xlink:title=" ">
<polygon fill="none" stroke="black" points="0,-112.5 0,-131.5 79,-131.5 79,-112.5 0,-112.5"/>
<text text-anchor="middle" x="39.5" y="-119.5" font-family="Helvetica,sans-Serif" font-size="10.00">Transform.hpp</text>
</a>
</g>
</g>
<!-- Node11&#45;&gt;Node12 -->
<g id="edge13" class="edge">
<title>Node11&#45;&gt;Node12</title>
<path fill="none" stroke="midnightblue" d="M112.52,-168.32C98.95,-159.9 78.12,-146.97 62.18,-137.07"/>
<polygon fill="midnightblue" stroke="midnightblue" points="63.79,-133.95 53.44,-131.65 60.09,-139.9 63.79,-133.95"/>
</g>
<!-- Node13 -->
<g id="node13" class="node">
<title>Node13</title>
<g id="a_node13"><a xlink:href="Point_8hpp.html" target="_top" xlink:title=" ">
<polygon fill="none" stroke="black" points="11,-56.5 11,-75.5 68,-75.5 68,-56.5 11,-56.5"/>
<text text-anchor="middle" x="39.5" y="-63.5" font-family="Helvetica,sans-Serif" font-size="10.00">Point.hpp</text>
</a>
</g>
</g>
<!-- Node12&#45;&gt;Node13 -->
<g id="edge14" class="edge">
<title>Node12&#45;&gt;Node13</title>
<path fill="none" stroke="midnightblue" d="M39.5,-112.08C39.5,-105.01 39.5,-94.86 39.5,-85.99"/>
<polygon fill="midnightblue" stroke="midnightblue" points="43,-85.75 39.5,-75.75 36,-85.75 43,-85.75"/>
</g>
<!-- Node16 -->
<g id="node16" class="node">
<title>Node16</title>
<g id="a_node16"><a xlink:href="AbilityBehaviour_8hpp.html" target="_top" xlink:title=" ">
<polygon fill="none" stroke="black" points="551.5,-291.5 551.5,-310.5 655.5,-310.5 655.5,-291.5 551.5,-291.5"/>
<text text-anchor="middle" x="603.5" y="-298.5" font-family="Helvetica,sans-Serif" font-size="10.00">AbilityBehaviour.hpp</text>
</a>
</g>
</g>
<!-- Node15&#45;&gt;Node16 -->
<g id="edge21" class="edge">
<title>Node15&#45;&gt;Node16</title>
<path fill="none" stroke="midnightblue" d="M877.72,-348.64C874.61,-348.08 871.52,-347.53 868.5,-347 798.78,-334.68 718.62,-321.16 664.88,-312.19"/>
<polygon fill="midnightblue" stroke="midnightblue" points="665.27,-308.7 654.83,-310.51 664.12,-315.61 665.27,-308.7"/>
</g>
<!-- Node16&#45;&gt;Node6 -->
<g id="edge23" class="edge">
<title>Node16&#45;&gt;Node6</title>
<path fill="none" stroke="midnightblue" d="M568.54,-291.48C531.71,-282.49 472.8,-268.13 426.89,-256.93"/>
<polygon fill="midnightblue" stroke="midnightblue" points="427.55,-253.49 417.01,-254.52 425.89,-260.29 427.55,-253.49"/>
</g>
<!-- Node16&#45;&gt;Node7 -->
<g id="edge22" class="edge">
<title>Node16&#45;&gt;Node7</title>
<path fill="none" stroke="midnightblue" d="M585.08,-291.45C567.17,-282.91 539.39,-269.07 516.5,-255 496.43,-242.67 492.74,-237.59 473.5,-224 458.89,-213.68 442.3,-202.2 429.54,-193.42"/>
<polygon fill="midnightblue" stroke="midnightblue" points="431.23,-190.33 421.01,-187.56 427.27,-196.1 431.23,-190.33"/>
</g>
<!-- Node17 -->
<g id="node17" class="node">
<title>Node17</title>
<g id="a_node17"><a xlink:href="HealthBehaviour_8hpp.html" target="_top" xlink:title=" ">
<polygon fill="none" stroke="black" points="525.5,-230 525.5,-249 681.5,-249 681.5,-230 525.5,-230"/>
<text text-anchor="middle" x="603.5" y="-237" font-family="Helvetica,sans-Serif" font-size="10.00">../Common/HealthBehaviour.hpp</text>
</a>
</g>
</g>
<!-- Node16&#45;&gt;Node17 -->
<g id="edge24" class="edge">
<title>Node16&#45;&gt;Node17</title>
<path fill="none" stroke="midnightblue" d="M603.5,-291.48C603.5,-283.08 603.5,-269.98 603.5,-259.16"/>
<polygon fill="midnightblue" stroke="midnightblue" points="607,-259.01 603.5,-249.01 600,-259.01 607,-259.01"/>
</g>
<!-- Node17&#45;&gt;Node7 -->
<g id="edge25" class="edge">
<title>Node17&#45;&gt;Node7</title>
<path fill="none" stroke="midnightblue" d="M575.56,-229.98C541.53,-219.59 483.92,-202.01 446.04,-190.45"/>
<polygon fill="midnightblue" stroke="midnightblue" points="446.97,-187.08 436.39,-187.51 444.93,-193.78 446.97,-187.08"/>
</g>
<!-- Node17&#45;&gt;Node9 -->
<g id="edge26" class="edge">
<title>Node17&#45;&gt;Node9</title>
<path fill="none" stroke="midnightblue" d="M603.54,-229.96C603.27,-202.17 599.11,-112.81 558.5,-56 548.67,-42.25 533.2,-31.67 519.31,-24.23"/>
<polygon fill="midnightblue" stroke="midnightblue" points="520.53,-20.93 510.02,-19.58 517.4,-27.19 520.53,-20.93"/>
</g>
<!-- Node18 -->
<g id="node18" class="node">
<title>Node18</title>
<g id="a_node18"><a xlink:href="Animator_8hpp.html" target="_top" xlink:title=" ">
<polygon fill="none" stroke="black" points="478.5,-168.5 478.5,-187.5 552.5,-187.5 552.5,-168.5 478.5,-168.5"/>
<text text-anchor="middle" x="515.5" y="-175.5" font-family="Helvetica,sans-Serif" font-size="10.00">Animator.hpp</text>
</a>
</g>
</g>
<!-- Node17&#45;&gt;Node18 -->
<g id="edge27" class="edge">
<title>Node17&#45;&gt;Node18</title>
<path fill="none" stroke="midnightblue" d="M590.89,-229.98C576.78,-220.43 553.67,-204.81 536.75,-193.37"/>
<polygon fill="midnightblue" stroke="midnightblue" points="538.33,-190.21 528.08,-187.51 534.41,-196.01 538.33,-190.21"/>
</g>
<!-- Node18&#45;&gt;Node4 -->
<g id="edge33" class="edge">
<title>Node18&#45;&gt;Node4</title>
<path fill="none" stroke="midnightblue" d="M478.37,-169.42C430.54,-159.61 349.09,-142.73 303.74,-131.9"/>
<polygon fill="midnightblue" stroke="midnightblue" points="304.38,-128.45 293.83,-129.48 302.72,-135.25 304.38,-128.45"/>
</g>
<!-- Node18&#45;&gt;Node8 -->
<g id="edge28" class="edge">
<title>Node18&#45;&gt;Node8</title>
<path fill="none" stroke="midnightblue" d="M505.14,-168.45C494.74,-159.68 478.45,-145.47 465.5,-132 450.49,-116.38 434.83,-97.16 424.26,-83.68"/>
<polygon fill="midnightblue" stroke="midnightblue" points="427.01,-81.51 418.11,-75.75 421.48,-85.8 427.01,-81.51"/>
</g>
<!-- Node18&#45;&gt;Node9 -->
<g id="edge34" class="edge">
<title>Node18&#45;&gt;Node9</title>
<path fill="none" stroke="midnightblue" d="M522.91,-168.41C529.78,-159.84 539.51,-145.98 543.5,-132 547.59,-117.69 552.46,-76.77 542.5,-56 536.34,-43.15 524.56,-32.66 513.58,-25.05"/>
<polygon fill="midnightblue" stroke="midnightblue" points="515.36,-22.03 505.06,-19.57 511.58,-27.92 515.36,-22.03"/>
</g>
<!-- Node19 -->
<g id="node19" class="node">
<title>Node19</title>
<g id="a_node19"><a xlink:href="Sprite_8hpp.html" target="_top" xlink:title=" ">
<polygon fill="none" stroke="black" points="474.5,-112.5 474.5,-131.5 534.5,-131.5 534.5,-112.5 474.5,-112.5"/>
<text text-anchor="middle" x="504.5" y="-119.5" font-family="Helvetica,sans-Serif" font-size="10.00">Sprite.hpp</text>
</a>
</g>
</g>
<!-- Node18&#45;&gt;Node19 -->
<g id="edge29" class="edge">
<title>Node18&#45;&gt;Node19</title>
<path fill="none" stroke="midnightblue" d="M513.68,-168.08C512.23,-160.93 510.13,-150.64 508.31,-141.69"/>
<polygon fill="midnightblue" stroke="midnightblue" points="511.71,-140.85 506.28,-131.75 504.85,-142.25 511.71,-140.85"/>
</g>
<!-- Node19&#45;&gt;Node3 -->
<g id="edge32" class="edge">
<title>Node19&#45;&gt;Node3</title>
<path fill="none" stroke="midnightblue" d="M474.48,-115.27C420.34,-104.94 306.88,-83.29 252.23,-72.86"/>
<polygon fill="midnightblue" stroke="midnightblue" points="252.59,-69.37 242.11,-70.93 251.28,-76.25 252.59,-69.37"/>
</g>
<!-- Node19&#45;&gt;Node8 -->
<g id="edge30" class="edge">
<title>Node19&#45;&gt;Node8</title>
<path fill="none" stroke="midnightblue" d="M489.56,-112.32C474.91,-103.82 452.37,-90.73 435.26,-80.8"/>
<polygon fill="midnightblue" stroke="midnightblue" points="436.81,-77.65 426.4,-75.65 433.3,-83.7 436.81,-77.65"/>
</g>
<!-- Node20 -->
<g id="node20" class="node">
<title>Node20</title>
<g id="a_node20"><a xlink:href="Color_8hpp.html" target="_top" xlink:title=" ">
<polygon fill="none" stroke="black" points="476,-56.5 476,-75.5 533,-75.5 533,-56.5 476,-56.5"/>
<text text-anchor="middle" x="504.5" y="-63.5" font-family="Helvetica,sans-Serif" font-size="10.00">Color.hpp</text>
</a>
</g>
</g>
<!-- Node19&#45;&gt;Node20 -->
<g id="edge31" class="edge">
<title>Node19&#45;&gt;Node20</title>
<path fill="none" stroke="midnightblue" d="M504.5,-112.08C504.5,-105.01 504.5,-94.86 504.5,-85.99"/>
<polygon fill="midnightblue" stroke="midnightblue" points="508,-85.75 504.5,-75.75 501,-85.75 508,-85.75"/>
</g>
<!-- Node21&#45;&gt;Node16 -->
<g id="edge36" class="edge">
<title>Node21&#45;&gt;Node16</title>
<path fill="none" stroke="midnightblue" d="M1034.59,-348.26C1031.86,-347.82 1029.16,-347.39 1026.5,-347 898.87,-328.07 748.43,-314.02 665.76,-307"/>
<polygon fill="midnightblue" stroke="midnightblue" points="666.03,-303.51 655.77,-306.16 665.44,-310.49 666.03,-303.51"/>
</g>
<!-- Node22&#45;&gt;Node16 -->
<g id="edge38" class="edge">
<title>Node22&#45;&gt;Node16</title>
<path fill="none" stroke="midnightblue" d="M476.84,-347.4C505.06,-337.28 542.71,-323.79 569.6,-314.15"/>
<polygon fill="midnightblue" stroke="midnightblue" points="571.11,-317.33 579.35,-310.66 568.75,-310.74 571.11,-317.33"/>
</g>
<!-- Node23&#45;&gt;Node16 -->
<g id="edge40" class="edge">
<title>Node23&#45;&gt;Node16</title>
<path fill="none" stroke="midnightblue" d="M603.5,-347.4C603.5,-339.47 603.5,-329.46 603.5,-320.86"/>
<polygon fill="midnightblue" stroke="midnightblue" points="607,-320.66 603.5,-310.66 600,-320.66 607,-320.66"/>
</g>
<!-- Node24&#45;&gt;Node16 -->
<g id="edge42" class="edge">
<title>Node24&#45;&gt;Node16</title>
<path fill="none" stroke="midnightblue" d="M740.08,-347.4C709.28,-337.16 668.09,-323.47 639.02,-313.81"/>
<polygon fill="midnightblue" stroke="midnightblue" points="639.88,-310.4 629.28,-310.57 637.67,-317.05 639.88,-310.4"/>
</g>
</g>
</svg>
