<?xml version="1.0" encoding="UTF-8" standalone="no"?>
<!DOCTYPE svg PUBLIC "-//W3C//DTD SVG 1.1//EN"
 "http://www.w3.org/Graphics/SVG/1.1/DTD/svg11.dtd">
<!-- Generated by graphviz version 2.44.0 ()
 -->
<!-- Title: src/Factories/HeroPrefabFactory.cpp Pages: 1 -->
<svg width="1451pt" height="397pt"
 viewBox="0.00 0.00 1450.50 397.00" xmlns="http://www.w3.org/2000/svg" xmlns:xlink="http://www.w3.org/1999/xlink">
<g id="graph0" class="graph" transform="scale(1 1) rotate(0) translate(4 393)">
<title>src/Factories/HeroPrefabFactory.cpp</title>
<!-- Node1 -->
<g id="node1" class="node">
<title>Node1</title>
<g id="a_node1"><a xlink:title=" ">
<polygon fill="#bfbfbf" stroke="black" points="849,-358.5 849,-388.5 975,-388.5 975,-358.5 849,-358.5"/>
<text text-anchor="start" x="857" y="-376.5" font-family="Helvetica,sans-Serif" font-size="10.00">src/Factories/HeroPrefab</text>
<text text-anchor="middle" x="912" y="-365.5" font-family="Helvetica,sans-Serif" font-size="10.00">Factory.cpp</text>
</a>
</g>
</g>
<!-- Node2 -->
<g id="node2" class="node">
<title>Node2</title>
<g id="a_node2"><a xlink:href="HeroPrefabFactory_8hpp.html" target="_top" xlink:title=" ">
<polygon fill="none" stroke="black" points="900,-230 900,-249 1016,-249 1016,-230 900,-230"/>
<text text-anchor="middle" x="958" y="-237" font-family="Helvetica,sans-Serif" font-size="10.00">HeroPrefabFactory.hpp</text>
</a>
</g>
</g>
<!-- Node1&#45;&gt;Node2 -->
<g id="edge1" class="edge">
<title>Node1&#45;&gt;Node2</title>
<path fill="none" stroke="midnightblue" d="M921.24,-358.45C927.35,-348.6 935.1,-334.94 940,-322 947.83,-301.3 952.73,-276.29 955.4,-259.48"/>
<polygon fill="midnightblue" stroke="midnightblue" points="958.9,-259.71 956.91,-249.3 951.98,-258.68 958.9,-259.71"/>
</g>
<!-- Node11 -->
<g id="node11" class="node">
<title>Node11</title>
<g id="a_node11"><a xlink:href="Animator_8hpp.html" target="_top" xlink:title=" ">
<polygon fill="none" stroke="black" points="638,-168.5 638,-187.5 712,-187.5 712,-168.5 638,-168.5"/>
<text text-anchor="middle" x="675" y="-175.5" font-family="Helvetica,sans-Serif" font-size="10.00">Animator.hpp</text>
</a>
</g>
</g>
<!-- Node1&#45;&gt;Node11 -->
<g id="edge11" class="edge">
<title>Node1&#45;&gt;Node11</title>
<path fill="none" stroke="midnightblue" d="M848.88,-367.91C785.95,-361.87 695.64,-348.71 674,-322 665.33,-311.29 665.28,-301.66 674,-291 725.1,-228.53 800.9,-317.47 852,-255 860.72,-244.34 860.46,-234.88 852,-224 836.18,-203.65 769.07,-191 722.2,-184.48"/>
<polygon fill="midnightblue" stroke="midnightblue" points="722.61,-181 712.23,-183.14 721.68,-187.94 722.61,-181"/>
</g>
<!-- Node12 -->
<g id="node12" class="node">
<title>Node12</title>
<g id="a_node12"><a xlink:href="Sprite_8hpp.html" target="_top" xlink:title=" ">
<polygon fill="none" stroke="black" points="1049,-112.5 1049,-131.5 1109,-131.5 1109,-112.5 1049,-112.5"/>
<text text-anchor="middle" x="1079" y="-119.5" font-family="Helvetica,sans-Serif" font-size="10.00">Sprite.hpp</text>
</a>
</g>
</g>
<!-- Node1&#45;&gt;Node12 -->
<g id="edge22" class="edge">
<title>Node1&#45;&gt;Node12</title>
<path fill="none" stroke="midnightblue" d="M975.23,-365.39C1030.54,-357.82 1105.06,-343.87 1125,-322 1171.47,-271.05 1176.01,-229.09 1144,-168 1136.72,-154.11 1122.99,-143.65 1110.02,-136.33"/>
<polygon fill="midnightblue" stroke="midnightblue" points="1111.3,-133.05 1100.81,-131.55 1108.07,-139.27 1111.3,-133.05"/>
</g>
<!-- Node14 -->
<g id="node14" class="node">
<title>Node14</title>
<g id="a_node14"><a xlink:href="CircleCollider_8hpp.html" target="_top" xlink:title=" ">
<polygon fill="none" stroke="black" points="0,-230 0,-249 92,-249 92,-230 0,-230"/>
<text text-anchor="middle" x="46" y="-237" font-family="Helvetica,sans-Serif" font-size="10.00">CircleCollider.hpp</text>
</a>
</g>
</g>
<!-- Node1&#45;&gt;Node14 -->
<g id="edge19" class="edge">
<title>Node1&#45;&gt;Node14</title>
<path fill="none" stroke="midnightblue" d="M848.91,-370.66C676.46,-365.3 205.74,-348.4 141,-322 106.65,-307.99 75.86,-276.42 59.16,-256.94"/>
<polygon fill="midnightblue" stroke="midnightblue" points="61.8,-254.63 52.71,-249.18 56.41,-259.11 61.8,-254.63"/>
</g>
<!-- Node16 -->
<g id="node16" class="node">
<title>Node16</title>
<g id="a_node16"><a xlink:href="HealthBarFactory_8hpp.html" target="_top" xlink:title=" ">
<polygon fill="none" stroke="black" points="987,-297 987,-316 1097,-316 1097,-297 987,-297"/>
<text text-anchor="middle" x="1042" y="-304" font-family="Helvetica,sans-Serif" font-size="10.00">HealthBarFactory.hpp</text>
</a>
</g>
</g>
<!-- Node1&#45;&gt;Node16 -->
<g id="edge23" class="edge">
<title>Node1&#45;&gt;Node16</title>
<path fill="none" stroke="midnightblue" d="M940.21,-358.4C962.72,-347.14 994,-331.5 1015.92,-320.54"/>
<polygon fill="midnightblue" stroke="midnightblue" points="1017.61,-323.61 1024.99,-316.01 1014.48,-317.35 1017.61,-323.61"/>
</g>
<!-- Node19 -->
<g id="node19" class="node">
<title>Node19</title>
<g id="a_node19"><a xlink:href="Layer_8hpp.html" target="_top" xlink:title=" ">
<polygon fill="none" stroke="black" points="683.5,-297 683.5,-316 782.5,-316 782.5,-297 683.5,-297"/>
<text text-anchor="middle" x="733" y="-304" font-family="Helvetica,sans-Serif" font-size="10.00">../Enums/Layer.hpp</text>
</a>
</g>
</g>
<!-- Node1&#45;&gt;Node19 -->
<g id="edge32" class="edge">
<title>Node1&#45;&gt;Node19</title>
<path fill="none" stroke="midnightblue" d="M873.16,-358.4C841.2,-346.79 796.38,-330.51 766.1,-319.52"/>
<polygon fill="midnightblue" stroke="midnightblue" points="767.02,-316.13 756.43,-316.01 764.63,-322.71 767.02,-316.13"/>
</g>
<!-- Node20 -->
<g id="node20" class="node">
<title>Node20</title>
<g id="a_node20"><a xlink:href="SortingLayer_8hpp.html" target="_top" xlink:title=" ">
<polygon fill="none" stroke="black" points="801,-297 801,-316 931,-316 931,-297 801,-297"/>
<text text-anchor="middle" x="866" y="-304" font-family="Helvetica,sans-Serif" font-size="10.00">../Enums/SortingLayer.hpp</text>
</a>
</g>
</g>
<!-- Node1&#45;&gt;Node20 -->
<g id="edge33" class="edge">
<title>Node1&#45;&gt;Node20</title>
<path fill="none" stroke="midnightblue" d="M902.02,-358.4C894.99,-348.46 885.54,-335.11 878.08,-324.57"/>
<polygon fill="midnightblue" stroke="midnightblue" points="880.79,-322.34 872.15,-316.19 875.07,-326.38 880.79,-322.34"/>
</g>
<!-- Node21 -->
<g id="node21" class="node">
<title>Node21</title>
<g id="a_node21"><a xlink:href="HealAbilityBehaviour_8hpp.html" target="_top" xlink:title=" ">
<polygon fill="none" stroke="black" points="150.5,-291.5 150.5,-321.5 289.5,-321.5 289.5,-291.5 150.5,-291.5"/>
<text text-anchor="start" x="158.5" y="-309.5" font-family="Helvetica,sans-Serif" font-size="10.00">../Scripts/Heroes/HealAbility</text>
<text text-anchor="middle" x="220" y="-298.5" font-family="Helvetica,sans-Serif" font-size="10.00">Behaviour.hpp</text>
</a>
</g>
</g>
<!-- Node1&#45;&gt;Node21 -->
<g id="edge34" class="edge">
<title>Node1&#45;&gt;Node21</title>
<path fill="none" stroke="midnightblue" d="M848.57,-369.42C738.71,-363.61 505.76,-349.23 299.78,-322.16"/>
<polygon fill="midnightblue" stroke="midnightblue" points="300.06,-318.66 289.68,-320.82 299.14,-325.6 300.06,-318.66"/>
</g>
<!-- Node23 -->
<g id="node23" class="node">
<title>Node23</title>
<g id="a_node23"><a xlink:href="UserMovementBehaviour_8hpp.html" target="_top" xlink:title=" ">
<polygon fill="none" stroke="black" points="307.5,-291.5 307.5,-321.5 466.5,-321.5 466.5,-291.5 307.5,-291.5"/>
<text text-anchor="start" x="315.5" y="-309.5" font-family="Helvetica,sans-Serif" font-size="10.00">../Scripts/Heroes/UserMovement</text>
<text text-anchor="middle" x="387" y="-298.5" font-family="Helvetica,sans-Serif" font-size="10.00">Behaviour.hpp</text>
</a>
</g>
</g>
<!-- Node1&#45;&gt;Node23 -->
<g id="edge39" class="edge">
<title>Node1&#45;&gt;Node23</title>
<path fill="none" stroke="midnightblue" d="M848.71,-366.1C765.76,-357.5 615.51,-341.21 476.53,-322.03"/>
<polygon fill="midnightblue" stroke="midnightblue" points="476.94,-318.55 466.55,-320.65 475.97,-325.49 476.94,-318.55"/>
</g>
<!-- Node25 -->
<g id="node25" class="node">
<title>Node25</title>
<g id="a_node25"><a xlink:href="UserAttackBehaviour_8hpp.html" target="_top" xlink:title=" ">
<polygon fill="none" stroke="black" points="485,-291.5 485,-321.5 627,-321.5 627,-291.5 485,-291.5"/>
<text text-anchor="start" x="493" y="-309.5" font-family="Helvetica,sans-Serif" font-size="10.00">../Scripts/Heroes/UserAttack</text>
<text text-anchor="middle" x="556" y="-298.5" font-family="Helvetica,sans-Serif" font-size="10.00">Behaviour.hpp</text>
</a>
</g>
</g>
<!-- Node1&#45;&gt;Node25 -->
<g id="edge47" class="edge">
<title>Node1&#45;&gt;Node25</title>
<path fill="none" stroke="midnightblue" d="M848.76,-360.95C789.78,-350.18 701.49,-334.06 637.29,-322.34"/>
<polygon fill="midnightblue" stroke="midnightblue" points="637.67,-318.85 627.2,-320.5 636.41,-325.74 637.67,-318.85"/>
</g>
<!-- Node27 -->
<g id="node27" class="node">
<title>Node27</title>
<g id="a_node27"><a xlink:href="AnimatorUtil_8hpp.html" target="_top" xlink:title=" ">
<polygon fill="none" stroke="black" points="1015.5,-168.5 1015.5,-187.5 1134.5,-187.5 1134.5,-168.5 1015.5,-168.5"/>
<text text-anchor="middle" x="1075" y="-175.5" font-family="Helvetica,sans-Serif" font-size="10.00">../Utils/AnimatorUtil.hpp</text>
</a>
</g>
</g>
<!-- Node1&#45;&gt;Node27 -->
<g id="edge53" class="edge">
<title>Node1&#45;&gt;Node27</title>
<path fill="none" stroke="midnightblue" d="M975.03,-364.47C1025.32,-356.62 1089.93,-342.79 1106,-322 1135.03,-284.44 1105.16,-225.52 1086.91,-196.43"/>
<polygon fill="midnightblue" stroke="midnightblue" points="1089.67,-194.25 1081.27,-187.79 1083.8,-198.08 1089.67,-194.25"/>
</g>
<!-- Node28 -->
<g id="node28" class="node">
<title>Node28</title>
<g id="a_node28"><a xlink:href="GameObjectUtil_8hpp.html" target="_top" xlink:title=" ">
<polygon fill="none" stroke="black" points="1191.5,-230 1191.5,-249 1326.5,-249 1326.5,-230 1191.5,-230"/>
<text text-anchor="middle" x="1259" y="-237" font-family="Helvetica,sans-Serif" font-size="10.00">../Utils/GameObjectUtil.hpp</text>
</a>
</g>
</g>
<!-- Node1&#45;&gt;Node28 -->
<g id="edge58" class="edge">
<title>Node1&#45;&gt;Node28</title>
<path fill="none" stroke="midnightblue" d="M975.12,-370.81C1031.07,-366.97 1113.51,-355.48 1177,-322 1206.75,-306.31 1232.69,-276.24 1247.06,-257.34"/>
<polygon fill="midnightblue" stroke="midnightblue" points="1250.04,-259.19 1253.15,-249.07 1244.4,-255.04 1250.04,-259.19"/>
</g>
<!-- Node29 -->
<g id="node29" class="node">
<title>Node29</title>
<g id="a_node29"><a xlink:href="Constants_8hpp.html" target="_top" xlink:title=" ">
<polygon fill="none" stroke="black" points="1294,-168.5 1294,-187.5 1380,-187.5 1380,-168.5 1294,-168.5"/>
<text text-anchor="middle" x="1337" y="-175.5" font-family="Helvetica,sans-Serif" font-size="10.00">../Constants.hpp</text>
</a>
</g>
</g>
<!-- Node1&#45;&gt;Node29 -->
<g id="edge61" class="edge">
<title>Node1&#45;&gt;Node29</title>
<path fill="none" stroke="midnightblue" d="M975.07,-367.72C1036.4,-361.7 1131.52,-348.73 1210,-322 1270.04,-301.55 1302.98,-309.15 1336,-255 1346.49,-237.79 1344.82,-214.06 1341.76,-197.72"/>
<polygon fill="midnightblue" stroke="midnightblue" points="1345.14,-196.76 1339.56,-187.76 1338.3,-198.28 1345.14,-196.76"/>
</g>
<!-- Node30 -->
<g id="node30" class="node">
<title>Node30</title>
<g id="a_node30"><a xlink:title=" ">
<polygon fill="none" stroke="#bfbfbf" points="1383.5,-297 1383.5,-316 1442.5,-316 1442.5,-297 1383.5,-297"/>
<text text-anchor="middle" x="1413" y="-304" font-family="Helvetica,sans-Serif" font-size="10.00">stdexcept</text>
</a>
</g>
</g>
<!-- Node1&#45;&gt;Node30 -->
<g id="edge63" class="edge">
<title>Node1&#45;&gt;Node30</title>
<path fill="none" stroke="midnightblue" d="M975.13,-369.68C1063.92,-364.78 1230.36,-352.16 1369,-322 1372.67,-321.2 1376.47,-320.21 1380.23,-319.12"/>
<polygon fill="midnightblue" stroke="midnightblue" points="1381.45,-322.41 1389.96,-316.09 1379.37,-315.73 1381.45,-322.41"/>
</g>
<!-- Node3 -->
<g id="node3" class="node">
<title>Node3</title>
<g id="a_node3"><a xlink:href="GameObject_8hpp.html" target="_top" xlink:title=" ">
<polygon fill="none" stroke="black" points="908.5,-168.5 908.5,-187.5 997.5,-187.5 997.5,-168.5 908.5,-168.5"/>
<text text-anchor="middle" x="953" y="-175.5" font-family="Helvetica,sans-Serif" font-size="10.00">GameObject.hpp</text>
</a>
</g>
</g>
<!-- Node2&#45;&gt;Node3 -->
<g id="edge2" class="edge">
<title>Node2&#45;&gt;Node3</title>
<path fill="none" stroke="midnightblue" d="M957.28,-229.98C956.58,-221.58 955.48,-208.48 954.57,-197.66"/>
<polygon fill="midnightblue" stroke="midnightblue" points="958.04,-197.18 953.72,-187.51 951.06,-197.77 958.04,-197.18"/>
</g>
<!-- Node10 -->
<g id="node10" class="node">
<title>Node10</title>
<g id="a_node10"><a xlink:href="HeroName_8hpp.html" target="_top" xlink:title=" ">
<polygon fill="none" stroke="black" points="768,-168.5 768,-187.5 890,-187.5 890,-168.5 768,-168.5"/>
<text text-anchor="middle" x="829" y="-175.5" font-family="Helvetica,sans-Serif" font-size="10.00">../Enums/HeroName.hpp</text>
</a>
</g>
</g>
<!-- Node2&#45;&gt;Node10 -->
<g id="edge10" class="edge">
<title>Node2&#45;&gt;Node10</title>
<path fill="none" stroke="midnightblue" d="M939.52,-229.98C917.87,-219.99 881.79,-203.35 856.77,-191.81"/>
<polygon fill="midnightblue" stroke="midnightblue" points="857.99,-188.52 847.45,-187.51 855.06,-194.88 857.99,-188.52"/>
</g>
<!-- Node4 -->
<g id="node4" class="node">
<title>Node4</title>
<g id="a_node4"><a xlink:href="Component_8hpp.html" target="_top" xlink:title=" ">
<polygon fill="none" stroke="black" points="592,-56.5 592,-75.5 676,-75.5 676,-56.5 592,-56.5"/>
<text text-anchor="middle" x="634" y="-63.5" font-family="Helvetica,sans-Serif" font-size="10.00">Component.hpp</text>
</a>
</g>
</g>
<!-- Node3&#45;&gt;Node4 -->
<g id="edge3" class="edge">
<title>Node3&#45;&gt;Node4</title>
<path fill="none" stroke="midnightblue" d="M908.23,-169.01C870.05,-161.53 814.04,-148.96 767,-132 727.16,-117.64 683.51,-94.84 657.46,-80.41"/>
<polygon fill="midnightblue" stroke="midnightblue" points="659.13,-77.34 648.69,-75.51 655.71,-83.44 659.13,-77.34"/>
</g>
<!-- Node5 -->
<g id="node5" class="node">
<title>Node5</title>
<g id="a_node5"><a xlink:title=" ">
<polygon fill="none" stroke="#bfbfbf" points="801.5,-0.5 801.5,-19.5 852.5,-19.5 852.5,-0.5 801.5,-0.5"/>
<text text-anchor="middle" x="827" y="-7.5" font-family="Helvetica,sans-Serif" font-size="10.00">memory</text>
</a>
</g>
</g>
<!-- Node3&#45;&gt;Node5 -->
<g id="edge9" class="edge">
<title>Node3&#45;&gt;Node5</title>
<path fill="none" stroke="midnightblue" d="M950.31,-168.08C946.13,-155.06 937.28,-130.4 925,-112 902.13,-77.73 866.87,-44.79 845.47,-26.29"/>
<polygon fill="midnightblue" stroke="midnightblue" points="847.62,-23.53 837.74,-19.72 843.09,-28.86 847.62,-23.53"/>
</g>
<!-- Node6 -->
<g id="node6" class="node">
<title>Node6</title>
<g id="a_node6"><a xlink:href="Transform_8hpp.html" target="_top" xlink:title=" ">
<polygon fill="none" stroke="black" points="837.5,-112.5 837.5,-131.5 916.5,-131.5 916.5,-112.5 837.5,-112.5"/>
<text text-anchor="middle" x="877" y="-119.5" font-family="Helvetica,sans-Serif" font-size="10.00">Transform.hpp</text>
</a>
</g>
</g>
<!-- Node3&#45;&gt;Node6 -->
<g id="edge5" class="edge">
<title>Node3&#45;&gt;Node6</title>
<path fill="none" stroke="midnightblue" d="M940.79,-168.32C929.22,-160.11 911.62,-147.6 897.84,-137.81"/>
<polygon fill="midnightblue" stroke="midnightblue" points="899.61,-134.77 889.43,-131.83 895.56,-140.48 899.61,-134.77"/>
</g>
<!-- Node8 -->
<g id="node8" class="node">
<title>Node8</title>
<g id="a_node8"><a xlink:title=" ">
<polygon fill="none" stroke="#bfbfbf" points="1058.5,-56.5 1058.5,-75.5 1099.5,-75.5 1099.5,-56.5 1058.5,-56.5"/>
<text text-anchor="middle" x="1079" y="-63.5" font-family="Helvetica,sans-Serif" font-size="10.00">string</text>
</a>
</g>
</g>
<!-- Node3&#45;&gt;Node8 -->
<g id="edge7" class="edge">
<title>Node3&#45;&gt;Node8</title>
<path fill="none" stroke="midnightblue" d="M962.89,-168.37C984.14,-149.81 1034.43,-105.91 1061.32,-82.44"/>
<polygon fill="midnightblue" stroke="midnightblue" points="1063.93,-84.8 1069.16,-75.59 1059.32,-79.53 1063.93,-84.8"/>
</g>
<!-- Node9 -->
<g id="node9" class="node">
<title>Node9</title>
<g id="a_node9"><a xlink:title=" ">
<polygon fill="none" stroke="#bfbfbf" points="776,-112.5 776,-131.5 820,-131.5 820,-112.5 776,-112.5"/>
<text text-anchor="middle" x="798" y="-119.5" font-family="Helvetica,sans-Serif" font-size="10.00">vector</text>
</a>
</g>
</g>
<!-- Node3&#45;&gt;Node9 -->
<g id="edge8" class="edge">
<title>Node3&#45;&gt;Node9</title>
<path fill="none" stroke="midnightblue" d="M928.44,-168.44C901.87,-159.19 859.39,-144.39 830.17,-134.21"/>
<polygon fill="midnightblue" stroke="midnightblue" points="831.03,-130.8 820.43,-130.82 828.72,-137.41 831.03,-130.8"/>
</g>
<!-- Node4&#45;&gt;Node5 -->
<g id="edge4" class="edge">
<title>Node4&#45;&gt;Node5</title>
<path fill="none" stroke="midnightblue" d="M664.58,-56.44C699.17,-46.77 755.4,-31.03 791.79,-20.85"/>
<polygon fill="midnightblue" stroke="midnightblue" points="792.81,-24.2 801.49,-18.14 790.92,-17.46 792.81,-24.2"/>
</g>
<!-- Node7 -->
<g id="node7" class="node">
<title>Node7</title>
<g id="a_node7"><a xlink:href="Point_8hpp.html" target="_top" xlink:title=" ">
<polygon fill="none" stroke="black" points="738.5,-56.5 738.5,-75.5 795.5,-75.5 795.5,-56.5 738.5,-56.5"/>
<text text-anchor="middle" x="767" y="-63.5" font-family="Helvetica,sans-Serif" font-size="10.00">Point.hpp</text>
</a>
</g>
</g>
<!-- Node6&#45;&gt;Node7 -->
<g id="edge6" class="edge">
<title>Node6&#45;&gt;Node7</title>
<path fill="none" stroke="midnightblue" d="M859.33,-112.32C841.61,-103.62 814.1,-90.12 793.71,-80.11"/>
<polygon fill="midnightblue" stroke="midnightblue" points="795.15,-76.92 784.63,-75.65 792.06,-83.2 795.15,-76.92"/>
</g>
<!-- Node11&#45;&gt;Node4 -->
<g id="edge12" class="edge">
<title>Node11&#45;&gt;Node4</title>
<path fill="none" stroke="midnightblue" d="M671.72,-168.38C668.28,-159.33 662.73,-144.67 658,-132 652.15,-116.33 645.57,-98.5 640.78,-85.49"/>
<polygon fill="midnightblue" stroke="midnightblue" points="643.97,-84.02 637.24,-75.84 637.4,-86.43 643.97,-84.02"/>
</g>
<!-- Node11&#45;&gt;Node5 -->
<g id="edge18" class="edge">
<title>Node11&#45;&gt;Node5</title>
<path fill="none" stroke="midnightblue" d="M676.63,-168.5C681.16,-146.95 695.83,-89.52 729,-56 746.09,-38.73 771.03,-27.41 791.48,-20.44"/>
<polygon fill="midnightblue" stroke="midnightblue" points="792.64,-23.74 801.1,-17.36 790.51,-17.07 792.64,-23.74"/>
</g>
<!-- Node11&#45;&gt;Node9 -->
<g id="edge17" class="edge">
<title>Node11&#45;&gt;Node9</title>
<path fill="none" stroke="midnightblue" d="M694.49,-168.44C714.64,-159.6 746.32,-145.69 769.33,-135.59"/>
<polygon fill="midnightblue" stroke="midnightblue" points="770.85,-138.74 778.6,-131.52 768.04,-132.33 770.85,-138.74"/>
</g>
<!-- Node11&#45;&gt;Node12 -->
<g id="edge13" class="edge">
<title>Node11&#45;&gt;Node12</title>
<path fill="none" stroke="midnightblue" d="M712.28,-172.02C788.28,-161.86 960.51,-138.84 1038.85,-128.37"/>
<polygon fill="midnightblue" stroke="midnightblue" points="1039.37,-131.83 1048.82,-127.03 1038.44,-124.89 1039.37,-131.83"/>
</g>
<!-- Node12&#45;&gt;Node4 -->
<g id="edge14" class="edge">
<title>Node12&#45;&gt;Node4</title>
<path fill="none" stroke="midnightblue" d="M1048.76,-117.33C974.1,-108.27 780.25,-84.75 686.41,-73.36"/>
<polygon fill="midnightblue" stroke="midnightblue" points="686.64,-69.86 676.29,-72.13 685.8,-76.81 686.64,-69.86"/>
</g>
<!-- Node12&#45;&gt;Node8 -->
<g id="edge16" class="edge">
<title>Node12&#45;&gt;Node8</title>
<path fill="none" stroke="midnightblue" d="M1079,-112.08C1079,-105.01 1079,-94.86 1079,-85.99"/>
<polygon fill="midnightblue" stroke="midnightblue" points="1082.5,-85.75 1079,-75.75 1075.5,-85.75 1082.5,-85.75"/>
</g>
<!-- Node13 -->
<g id="node13" class="node">
<title>Node13</title>
<g id="a_node13"><a xlink:href="Color_8hpp.html" target="_top" xlink:title=" ">
<polygon fill="none" stroke="black" points="1280.5,-56.5 1280.5,-75.5 1337.5,-75.5 1337.5,-56.5 1280.5,-56.5"/>
<text text-anchor="middle" x="1309" y="-63.5" font-family="Helvetica,sans-Serif" font-size="10.00">Color.hpp</text>
</a>
</g>
</g>
<!-- Node12&#45;&gt;Node13 -->
<g id="edge15" class="edge">
<title>Node12&#45;&gt;Node13</title>
<path fill="none" stroke="midnightblue" d="M1109.07,-113.94C1150.5,-104.21 1225.17,-86.68 1270.59,-76.02"/>
<polygon fill="midnightblue" stroke="midnightblue" points="1271.44,-79.41 1280.37,-73.72 1269.84,-72.6 1271.44,-79.41"/>
</g>
<!-- Node15 -->
<g id="node15" class="node">
<title>Node15</title>
<g id="a_node15"><a xlink:href="Collider_8hpp.html" target="_top" xlink:title=" ">
<polygon fill="none" stroke="black" points="310.5,-112.5 310.5,-131.5 377.5,-131.5 377.5,-112.5 310.5,-112.5"/>
<text text-anchor="middle" x="344" y="-119.5" font-family="Helvetica,sans-Serif" font-size="10.00">Collider.hpp</text>
</a>
</g>
</g>
<!-- Node14&#45;&gt;Node15 -->
<g id="edge20" class="edge">
<title>Node14&#45;&gt;Node15</title>
<path fill="none" stroke="midnightblue" d="M68.4,-229.82C120.84,-209.49 251.73,-158.76 312.31,-135.28"/>
<polygon fill="midnightblue" stroke="midnightblue" points="313.69,-138.5 321.75,-131.62 311.16,-131.97 313.69,-138.5"/>
</g>
<!-- Node15&#45;&gt;Node4 -->
<g id="edge21" class="edge">
<title>Node15&#45;&gt;Node4</title>
<path fill="none" stroke="midnightblue" d="M377.55,-114.75C427.73,-105.41 522.73,-87.72 581.96,-76.69"/>
<polygon fill="midnightblue" stroke="midnightblue" points="582.68,-80.12 591.87,-74.85 581.4,-73.24 582.68,-80.12"/>
</g>
<!-- Node16&#45;&gt;Node3 -->
<g id="edge24" class="edge">
<title>Node16&#45;&gt;Node3</title>
<path fill="none" stroke="midnightblue" d="M1042.32,-296.79C1042.48,-280.87 1040.79,-246.64 1025,-224 1015.18,-209.92 999.39,-199.33 985.09,-191.98"/>
<polygon fill="midnightblue" stroke="midnightblue" points="986.52,-188.78 975.99,-187.61 983.49,-195.09 986.52,-188.78"/>
</g>
<!-- Node16&#45;&gt;Node5 -->
<g id="edge31" class="edge">
<title>Node16&#45;&gt;Node5</title>
<path fill="none" stroke="midnightblue" d="M1053.82,-296.8C1076.54,-279.26 1125.66,-237.09 1144,-188 1165.24,-131.14 1156.59,-93.67 1109,-56 1071.46,-26.28 930.01,-15.79 862.84,-12.43"/>
<polygon fill="midnightblue" stroke="midnightblue" points="862.88,-8.93 852.73,-11.95 862.55,-15.92 862.88,-8.93"/>
</g>
<!-- Node17 -->
<g id="node17" class="node">
<title>Node17</title>
<g id="a_node17"><a xlink:href="HealthBehaviour_8hpp.html" target="_top" xlink:title=" ">
<polygon fill="none" stroke="black" points="490,-224.5 490,-254.5 618,-254.5 618,-224.5 490,-224.5"/>
<text text-anchor="start" x="498" y="-242.5" font-family="Helvetica,sans-Serif" font-size="10.00">../Scripts/Common/Health</text>
<text text-anchor="middle" x="554" y="-231.5" font-family="Helvetica,sans-Serif" font-size="10.00">Behaviour.hpp</text>
</a>
</g>
</g>
<!-- Node16&#45;&gt;Node17 -->
<g id="edge25" class="edge">
<title>Node16&#45;&gt;Node17</title>
<path fill="none" stroke="midnightblue" d="M986.96,-297.56C971.75,-295.4 955.24,-293.08 940,-291 831.69,-276.22 706.17,-259.96 628.41,-249.99"/>
<polygon fill="midnightblue" stroke="midnightblue" points="628.59,-246.48 618.23,-248.68 627.7,-253.42 628.59,-246.48"/>
</g>
<!-- Node17&#45;&gt;Node5 -->
<g id="edge29" class="edge">
<title>Node17&#45;&gt;Node5</title>
<path fill="none" stroke="midnightblue" d="M543.91,-224.34C528.18,-200.42 501.39,-150.8 519,-112 534.62,-77.58 548.98,-72.46 583,-56 651.64,-22.79 742.01,-13.99 791.25,-11.72"/>
<polygon fill="midnightblue" stroke="midnightblue" points="791.55,-15.22 801.4,-11.32 791.27,-8.22 791.55,-15.22"/>
</g>
<!-- Node17&#45;&gt;Node11 -->
<g id="edge30" class="edge">
<title>Node17&#45;&gt;Node11</title>
<path fill="none" stroke="midnightblue" d="M582.68,-224.4C602.52,-214.64 628.76,-201.74 648.19,-192.18"/>
<polygon fill="midnightblue" stroke="midnightblue" points="649.96,-195.21 657.39,-187.66 646.88,-188.93 649.96,-195.21"/>
</g>
<!-- Node18 -->
<g id="node18" class="node">
<title>Node18</title>
<g id="a_node18"><a xlink:href="BehaviourScript_8hpp.html" target="_top" xlink:title=" ">
<polygon fill="none" stroke="black" points="292,-168.5 292,-187.5 396,-187.5 396,-168.5 292,-168.5"/>
<text text-anchor="middle" x="344" y="-175.5" font-family="Helvetica,sans-Serif" font-size="10.00">BehaviourScript.hpp</text>
</a>
</g>
</g>
<!-- Node17&#45;&gt;Node18 -->
<g id="edge26" class="edge">
<title>Node17&#45;&gt;Node18</title>
<path fill="none" stroke="midnightblue" d="M504.5,-224.47C467.64,-214.03 417.97,-199.96 383.69,-190.25"/>
<polygon fill="midnightblue" stroke="midnightblue" points="384.6,-186.87 374.02,-187.51 382.69,-193.6 384.6,-186.87"/>
</g>
<!-- Node18&#45;&gt;Node4 -->
<g id="edge27" class="edge">
<title>Node18&#45;&gt;Node4</title>
<path fill="none" stroke="midnightblue" d="M366.76,-168.37C418,-148.93 542.59,-101.67 601.76,-79.23"/>
<polygon fill="midnightblue" stroke="midnightblue" points="603.24,-82.41 611.35,-75.59 600.76,-75.87 603.24,-82.41"/>
</g>
<!-- Node18&#45;&gt;Node15 -->
<g id="edge28" class="edge">
<title>Node18&#45;&gt;Node15</title>
<path fill="none" stroke="midnightblue" d="M344,-168.08C344,-161.01 344,-150.86 344,-141.99"/>
<polygon fill="midnightblue" stroke="midnightblue" points="347.5,-141.75 344,-131.75 340.5,-141.75 347.5,-141.75"/>
</g>
<!-- Node21&#45;&gt;Node17 -->
<g id="edge38" class="edge">
<title>Node21&#45;&gt;Node17</title>
<path fill="none" stroke="midnightblue" d="M289.61,-291.95C345.25,-281.12 423.06,-265.98 479.86,-254.93"/>
<polygon fill="midnightblue" stroke="midnightblue" points="480.71,-258.33 489.85,-252.98 479.37,-251.46 480.71,-258.33"/>
</g>
<!-- Node21&#45;&gt;Node18 -->
<g id="edge35" class="edge">
<title>Node21&#45;&gt;Node18</title>
<path fill="none" stroke="midnightblue" d="M203.1,-291.4C184.85,-274.44 160.46,-245.59 177,-224 189.98,-207.06 240.01,-195.06 281.95,-187.74"/>
<polygon fill="midnightblue" stroke="midnightblue" points="282.58,-191.18 291.86,-186.07 281.42,-184.28 282.58,-191.18"/>
</g>
<!-- Node22 -->
<g id="node22" class="node">
<title>Node22</title>
<g id="a_node22"><a xlink:href="CoolDownBehaviour_8hpp.html" target="_top" xlink:title=" ">
<polygon fill="none" stroke="black" points="186,-230 186,-249 358,-249 358,-230 186,-230"/>
<text text-anchor="middle" x="272" y="-237" font-family="Helvetica,sans-Serif" font-size="10.00">../Common/CoolDownBehaviour.hpp</text>
</a>
</g>
</g>
<!-- Node21&#45;&gt;Node22 -->
<g id="edge36" class="edge">
<title>Node21&#45;&gt;Node22</title>
<path fill="none" stroke="midnightblue" d="M231.28,-291.4C239.31,-281.36 250.13,-267.84 258.6,-257.25"/>
<polygon fill="midnightblue" stroke="midnightblue" points="261.53,-259.19 265.04,-249.19 256.06,-254.82 261.53,-259.19"/>
</g>
<!-- Node22&#45;&gt;Node18 -->
<g id="edge37" class="edge">
<title>Node22&#45;&gt;Node18</title>
<path fill="none" stroke="midnightblue" d="M282.32,-229.98C293.65,-220.61 312.07,-205.38 325.84,-194.01"/>
<polygon fill="midnightblue" stroke="midnightblue" points="328.22,-196.58 333.7,-187.51 323.77,-191.18 328.22,-196.58"/>
</g>
<!-- Node23&#45;&gt;Node5 -->
<g id="edge40" class="edge">
<title>Node23&#45;&gt;Node5</title>
<path fill="none" stroke="midnightblue" d="M307.24,-292.11C257.31,-282.63 198.5,-269.14 177,-255 141.72,-231.8 120,-221.22 120,-179 120,-179 120,-179 120,-121 120,-52.3 647.92,-20.19 791.39,-12.74"/>
<polygon fill="midnightblue" stroke="midnightblue" points="791.61,-16.23 801.42,-12.22 791.25,-9.24 791.61,-16.23"/>
</g>
<!-- Node23&#45;&gt;Node11 -->
<g id="edge45" class="edge">
<title>Node23&#45;&gt;Node11</title>
<path fill="none" stroke="midnightblue" d="M466.75,-291.9C531.33,-280.36 613.69,-264.25 627,-255 647.37,-240.84 660.96,-214.95 668.32,-197.37"/>
<polygon fill="midnightblue" stroke="midnightblue" points="671.73,-198.26 672.11,-187.67 665.21,-195.71 671.73,-198.26"/>
</g>
<!-- Node23&#45;&gt;Node17 -->
<g id="edge46" class="edge">
<title>Node23&#45;&gt;Node17</title>
<path fill="none" stroke="midnightblue" d="M423.24,-291.4C448.18,-281.69 481.53,-268.71 508.3,-258.29"/>
<polygon fill="midnightblue" stroke="midnightblue" points="509.78,-261.47 517.83,-254.58 507.25,-254.94 509.78,-261.47"/>
</g>
<!-- Node23&#45;&gt;Node18 -->
<g id="edge41" class="edge">
<title>Node23&#45;&gt;Node18</title>
<path fill="none" stroke="midnightblue" d="M384.56,-291.36C381.49,-274.87 375.54,-246.94 367,-224 363.52,-214.65 358.59,-204.72 354.19,-196.58"/>
<polygon fill="midnightblue" stroke="midnightblue" points="357.15,-194.71 349.21,-187.69 351.04,-198.12 357.15,-194.71"/>
</g>
<!-- Node24 -->
<g id="node24" class="node">
<title>Node24</title>
<g id="a_node24"><a xlink:href="RigidBody_8hpp.html" target="_top" xlink:title=" ">
<polygon fill="none" stroke="black" points="528,-112.5 528,-131.5 606,-131.5 606,-112.5 528,-112.5"/>
<text text-anchor="middle" x="567" y="-119.5" font-family="Helvetica,sans-Serif" font-size="10.00">RigidBody.hpp</text>
</a>
</g>
</g>
<!-- Node23&#45;&gt;Node24 -->
<g id="edge42" class="edge">
<title>Node23&#45;&gt;Node24</title>
<path fill="none" stroke="midnightblue" d="M400.83,-291.48C433.6,-258.26 515.86,-174.85 550.85,-139.37"/>
<polygon fill="midnightblue" stroke="midnightblue" points="553.77,-141.4 558.3,-131.82 548.79,-136.48 553.77,-141.4"/>
</g>
<!-- Node24&#45;&gt;Node4 -->
<g id="edge43" class="edge">
<title>Node24&#45;&gt;Node4</title>
<path fill="none" stroke="midnightblue" d="M577.76,-112.32C587.77,-104.26 602.89,-92.08 614.93,-82.37"/>
<polygon fill="midnightblue" stroke="midnightblue" points="617.45,-84.83 623.04,-75.83 613.06,-79.38 617.45,-84.83"/>
</g>
<!-- Node24&#45;&gt;Node7 -->
<g id="edge44" class="edge">
<title>Node24&#45;&gt;Node7</title>
<path fill="none" stroke="midnightblue" d="M598.69,-112.44C633.83,-102.96 690.52,-87.65 728.26,-77.46"/>
<polygon fill="midnightblue" stroke="midnightblue" points="729.63,-80.71 738.37,-74.73 727.81,-73.96 729.63,-80.71"/>
</g>
<!-- Node25&#45;&gt;Node7 -->
<g id="edge49" class="edge">
<title>Node25&#45;&gt;Node7</title>
<path fill="none" stroke="midnightblue" d="M590.1,-291.41C609.94,-282.42 634.92,-269.71 655,-255 688.72,-230.3 698.42,-223.18 721,-188 742.26,-154.87 755.97,-110.42 762.5,-85.66"/>
<polygon fill="midnightblue" stroke="midnightblue" points="765.94,-86.33 765,-75.78 759.15,-84.62 765.94,-86.33"/>
</g>
<!-- Node25&#45;&gt;Node17 -->
<g id="edge50" class="edge">
<title>Node25&#45;&gt;Node17</title>
<path fill="none" stroke="midnightblue" d="M555.57,-291.4C555.33,-283.64 555.02,-273.81 554.75,-264.86"/>
<polygon fill="midnightblue" stroke="midnightblue" points="558.24,-264.46 554.43,-254.58 551.24,-264.68 558.24,-264.46"/>
</g>
<!-- Node25&#45;&gt;Node18 -->
<g id="edge48" class="edge">
<title>Node25&#45;&gt;Node18</title>
<path fill="none" stroke="midnightblue" d="M532.5,-291.48C491.6,-267.07 407.79,-217.06 367.14,-192.81"/>
<polygon fill="midnightblue" stroke="midnightblue" points="368.84,-189.75 358.46,-187.63 365.26,-195.76 368.84,-189.75"/>
</g>
<!-- Node25&#45;&gt;Node22 -->
<g id="edge51" class="edge">
<title>Node25&#45;&gt;Node22</title>
<path fill="none" stroke="midnightblue" d="M494.73,-291.48C442.05,-279.42 367.19,-262.29 319.1,-251.28"/>
<polygon fill="midnightblue" stroke="midnightblue" points="319.79,-247.85 309.26,-249.03 318.23,-254.67 319.79,-247.85"/>
</g>
<!-- Node26 -->
<g id="node26" class="node">
<title>Node26</title>
<g id="a_node26"><a xlink:href="LevelMode_8hpp.html" target="_top" xlink:title=" ">
<polygon fill="none" stroke="black" points="712.5,-230 712.5,-249 843.5,-249 843.5,-230 712.5,-230"/>
<text text-anchor="middle" x="778" y="-237" font-family="Helvetica,sans-Serif" font-size="10.00">../../Enums/LevelMode.hpp</text>
</a>
</g>
</g>
<!-- Node25&#45;&gt;Node26 -->
<g id="edge52" class="edge">
<title>Node25&#45;&gt;Node26</title>
<path fill="none" stroke="midnightblue" d="M603.9,-291.48C644.21,-279.67 701.15,-263 738.8,-251.98"/>
<polygon fill="midnightblue" stroke="midnightblue" points="740.26,-255.2 748.87,-249.03 738.29,-248.48 740.26,-255.2"/>
</g>
<!-- Node27&#45;&gt;Node5 -->
<g id="edge55" class="edge">
<title>Node27&#45;&gt;Node5</title>
<path fill="none" stroke="midnightblue" d="M1063.45,-168.5C1035.92,-148.33 964.12,-96.29 902,-56 885.28,-45.16 865.99,-33.6 851.16,-24.92"/>
<polygon fill="midnightblue" stroke="midnightblue" points="852.53,-21.67 842.13,-19.66 849.01,-27.72 852.53,-21.67"/>
</g>
<!-- Node27&#45;&gt;Node8 -->
<g id="edge56" class="edge">
<title>Node27&#45;&gt;Node8</title>
<path fill="none" stroke="midnightblue" d="M1087.5,-168.3C1097.87,-160.25 1111.89,-147.24 1118,-132 1125.21,-114.03 1111.25,-95.25 1098.07,-82.52"/>
<polygon fill="midnightblue" stroke="midnightblue" points="1100.35,-79.86 1090.57,-75.78 1095.67,-85.06 1100.35,-79.86"/>
</g>
<!-- Node27&#45;&gt;Node9 -->
<g id="edge57" class="edge">
<title>Node27&#45;&gt;Node9</title>
<path fill="none" stroke="midnightblue" d="M1018.22,-168.5C970.17,-160.89 899.34,-148.69 829.98,-132.3"/>
<polygon fill="midnightblue" stroke="midnightblue" points="830.75,-128.89 820.21,-129.96 829.12,-135.69 830.75,-128.89"/>
</g>
<!-- Node27&#45;&gt;Node12 -->
<g id="edge54" class="edge">
<title>Node27&#45;&gt;Node12</title>
<path fill="none" stroke="midnightblue" d="M1075.66,-168.08C1076.18,-161.01 1076.94,-150.86 1077.59,-141.99"/>
<polygon fill="midnightblue" stroke="midnightblue" points="1081.1,-141.98 1078.35,-131.75 1074.12,-141.47 1081.1,-141.98"/>
</g>
<!-- Node28&#45;&gt;Node3 -->
<g id="edge60" class="edge">
<title>Node28&#45;&gt;Node3</title>
<path fill="none" stroke="midnightblue" d="M1215.16,-229.98C1160.17,-219.28 1065.93,-200.96 1006.68,-189.44"/>
<polygon fill="midnightblue" stroke="midnightblue" points="1007.25,-185.98 996.76,-187.51 1005.91,-192.85 1007.25,-185.98"/>
</g>
<!-- Node28&#45;&gt;Node5 -->
<g id="edge59" class="edge">
<title>Node28&#45;&gt;Node5</title>
<path fill="none" stroke="midnightblue" d="M1259.97,-229.94C1262.79,-200.51 1267.7,-102.68 1215,-56 1188.88,-32.86 953.89,-17.84 862.83,-12.84"/>
<polygon fill="midnightblue" stroke="midnightblue" points="862.89,-9.34 852.71,-12.29 862.51,-16.33 862.89,-9.34"/>
</g>
<!-- Node29&#45;&gt;Node13 -->
<g id="edge62" class="edge">
<title>Node29&#45;&gt;Node13</title>
<path fill="none" stroke="midnightblue" d="M1334.8,-168.37C1330.28,-150.62 1319.86,-109.67 1313.73,-85.6"/>
<polygon fill="midnightblue" stroke="midnightblue" points="1317.05,-84.42 1311.19,-75.59 1310.26,-86.15 1317.05,-84.42"/>
</g>
</g>
</svg>
