<?xml version="1.0" encoding="UTF-8" standalone="no"?>
<!DOCTYPE svg PUBLIC "-//W3C//DTD SVG 1.1//EN"
 "http://www.w3.org/Graphics/SVG/1.1/DTD/svg11.dtd">
<!-- Generated by graphviz version 2.44.0 ()
 -->
<!-- Title: src/Enums/HeroName.hpp Pages: 1 -->
<svg width="2223pt" height="229pt"
 viewBox="0.00 0.00 2223.00 229.00" xmlns="http://www.w3.org/2000/svg" xmlns:xlink="http://www.w3.org/1999/xlink">
<g id="graph0" class="graph" transform="scale(1 1) rotate(0) translate(4 225)">
<title>src/Enums/HeroName.hpp</title>
<!-- Node1 -->
<g id="node1" class="node">
<title>Node1</title>
<g id="a_node1"><a xlink:title=" ">
<polygon fill="#bfbfbf" stroke="black" points="604.5,-201.5 604.5,-220.5 735.5,-220.5 735.5,-201.5 604.5,-201.5"/>
<text text-anchor="middle" x="670" y="-208.5" font-family="Helvetica,sans-Serif" font-size="10.00">src/Enums/HeroName.hpp</text>
</a>
</g>
</g>
<!-- Node2 -->
<g id="node2" class="node">
<title>Node2</title>
<g id="a_node2"><a xlink:href="HeroPrefabFactory_8hpp.html" target="_top" xlink:title=" ">
<polygon fill="none" stroke="black" points="466,-134.5 466,-164.5 592,-164.5 592,-134.5 466,-134.5"/>
<text text-anchor="start" x="474" y="-152.5" font-family="Helvetica,sans-Serif" font-size="10.00">src/Factories/HeroPrefab</text>
<text text-anchor="middle" x="529" y="-141.5" font-family="Helvetica,sans-Serif" font-size="10.00">Factory.hpp</text>
</a>
</g>
</g>
<!-- Node1&#45;&gt;Node2 -->
<g id="edge1" class="edge">
<title>Node1&#45;&gt;Node2</title>
<path fill="none" stroke="midnightblue" d="M640.28,-197.46C617.45,-187.82 585.9,-174.51 562.23,-164.52"/>
<polygon fill="midnightblue" stroke="midnightblue" points="639.22,-200.81 649.8,-201.48 641.95,-194.36 639.22,-200.81"/>
</g>
<!-- Node6 -->
<g id="node6" class="node">
<title>Node6</title>
<g id="a_node6"><a xlink:href="PlayerData_8hpp.html" target="_top" xlink:title=" ">
<polygon fill="none" stroke="black" points="1335.5,-140 1335.5,-159 1468.5,-159 1468.5,-140 1335.5,-140"/>
<text text-anchor="middle" x="1402" y="-147" font-family="Helvetica,sans-Serif" font-size="10.00">src/Structs/PlayerData.hpp</text>
</a>
</g>
</g>
<!-- Node1&#45;&gt;Node6 -->
<g id="edge5" class="edge">
<title>Node1&#45;&gt;Node6</title>
<path fill="none" stroke="midnightblue" d="M745.65,-203.85C889.28,-192.18 1199.26,-166.98 1335.49,-155.91"/>
<polygon fill="midnightblue" stroke="midnightblue" points="745.29,-200.37 735.6,-204.67 745.86,-207.35 745.29,-200.37"/>
</g>
<!-- Node21 -->
<g id="node21" class="node">
<title>Node21</title>
<g id="a_node21"><a xlink:href="HeroUtil_8hpp.html" target="_top" xlink:title=" ">
<polygon fill="none" stroke="black" points="615,-140 615,-159 725,-159 725,-140 615,-140"/>
<text text-anchor="middle" x="670" y="-147" font-family="Helvetica,sans-Serif" font-size="10.00">src/Utils/HeroUtil.hpp</text>
</a>
</g>
</g>
<!-- Node1&#45;&gt;Node21 -->
<g id="edge25" class="edge">
<title>Node1&#45;&gt;Node21</title>
<path fill="none" stroke="midnightblue" d="M670,-191.32C670,-180.5 670,-167.4 670,-159.01"/>
<polygon fill="midnightblue" stroke="midnightblue" points="666.5,-191.48 670,-201.48 673.5,-191.48 666.5,-191.48"/>
</g>
<!-- Node3 -->
<g id="node3" class="node">
<title>Node3</title>
<g id="a_node3"><a xlink:href="HeroPrefabFactory_8cpp.html" target="_top" xlink:title=" ">
<polygon fill="none" stroke="black" points="0,-67.5 0,-97.5 126,-97.5 126,-67.5 0,-67.5"/>
<text text-anchor="start" x="8" y="-85.5" font-family="Helvetica,sans-Serif" font-size="10.00">src/Factories/HeroPrefab</text>
<text text-anchor="middle" x="63" y="-74.5" font-family="Helvetica,sans-Serif" font-size="10.00">Factory.cpp</text>
</a>
</g>
</g>
<!-- Node2&#45;&gt;Node3 -->
<g id="edge2" class="edge">
<title>Node2&#45;&gt;Node3</title>
<path fill="none" stroke="midnightblue" d="M455.3,-140.64C375.98,-131.81 246.2,-116.3 135,-98 132.11,-97.52 129.15,-97.02 126.17,-96.49"/>
<polygon fill="midnightblue" stroke="midnightblue" points="455.35,-144.17 465.68,-141.79 456.12,-137.21 455.35,-144.17"/>
</g>
<!-- Node4 -->
<g id="node4" class="node">
<title>Node4</title>
<g id="a_node4"><a xlink:href="LevelScene_8cpp.html" target="_top" xlink:title=" ">
<polygon fill="none" stroke="black" points="454.5,-73 454.5,-92 593.5,-92 593.5,-73 454.5,-73"/>
<text text-anchor="middle" x="524" y="-80" font-family="Helvetica,sans-Serif" font-size="10.00">src/Scenes/LevelScene.cpp</text>
</a>
</g>
</g>
<!-- Node2&#45;&gt;Node4 -->
<g id="edge3" class="edge">
<title>Node2&#45;&gt;Node4</title>
<path fill="none" stroke="midnightblue" d="M527.13,-124.25C526.27,-113.02 525.3,-100.38 524.67,-92.19"/>
<polygon fill="midnightblue" stroke="midnightblue" points="523.66,-124.69 527.92,-134.4 530.64,-124.16 523.66,-124.69"/>
</g>
<!-- Node5 -->
<g id="node5" class="node">
<title>Node5</title>
<g id="a_node5"><a xlink:href="MainScene_8cpp.html" target="_top" xlink:title=" ">
<polygon fill="none" stroke="black" points="612,-73 612,-92 748,-92 748,-73 612,-73"/>
<text text-anchor="middle" x="680" y="-80" font-family="Helvetica,sans-Serif" font-size="10.00">src/Scenes/MainScene.cpp</text>
</a>
</g>
</g>
<!-- Node2&#45;&gt;Node5 -->
<g id="edge4" class="edge">
<title>Node2&#45;&gt;Node5</title>
<path fill="none" stroke="midnightblue" d="M571.29,-130.3C600.41,-117.76 637.76,-101.68 660.24,-92.01"/>
<polygon fill="midnightblue" stroke="midnightblue" points="569.57,-127.23 561.76,-134.4 572.33,-133.66 569.57,-127.23"/>
</g>
<!-- Node6&#45;&gt;Node4 -->
<g id="edge13" class="edge">
<title>Node6&#45;&gt;Node4</title>
<path fill="none" stroke="midnightblue" d="M1325.07,-146.66C1182.28,-142.59 866.79,-130.43 603,-98 590.68,-96.49 577.38,-94.27 565.27,-92.03"/>
<polygon fill="midnightblue" stroke="midnightblue" points="1325.37,-150.17 1335.46,-146.96 1325.56,-143.18 1325.37,-150.17"/>
</g>
<!-- Node6&#45;&gt;Node5 -->
<g id="edge15" class="edge">
<title>Node6&#45;&gt;Node5</title>
<path fill="none" stroke="midnightblue" d="M1325.08,-145.17C1203.87,-139.31 961.21,-125.14 757,-98 745.13,-96.42 732.33,-94.22 720.63,-92"/>
<polygon fill="midnightblue" stroke="midnightblue" points="1325.21,-148.68 1335.36,-145.66 1325.54,-141.69 1325.21,-148.68"/>
</g>
<!-- Node7 -->
<g id="node7" class="node">
<title>Node7</title>
<g id="a_node7"><a xlink:href="LevelController_8cpp.html" target="_top" xlink:title=" ">
<polygon fill="none" stroke="black" points="766,-73 766,-92 932,-92 932,-73 766,-73"/>
<text text-anchor="middle" x="849" y="-80" font-family="Helvetica,sans-Serif" font-size="10.00">src/Controllers/LevelController.cpp</text>
</a>
</g>
</g>
<!-- Node6&#45;&gt;Node7 -->
<g id="edge6" class="edge">
<title>Node6&#45;&gt;Node7</title>
<path fill="none" stroke="midnightblue" d="M1325.45,-141.23C1233.87,-132.28 1076,-116.02 941,-98 927.86,-96.25 913.7,-94.13 900.52,-92.06"/>
<polygon fill="midnightblue" stroke="midnightblue" points="1325.17,-144.72 1335.46,-142.21 1325.85,-137.75 1325.17,-144.72"/>
</g>
<!-- Node8 -->
<g id="node8" class="node">
<title>Node8</title>
<g id="a_node8"><a xlink:href="LevelSelectionController_8cpp.html" target="_top" xlink:title=" ">
<polygon fill="none" stroke="black" points="1249.5,-67.5 1249.5,-97.5 1396.5,-97.5 1396.5,-67.5 1249.5,-67.5"/>
<text text-anchor="start" x="1257.5" y="-85.5" font-family="Helvetica,sans-Serif" font-size="10.00">src/Controllers/LevelSelection</text>
<text text-anchor="middle" x="1323" y="-74.5" font-family="Helvetica,sans-Serif" font-size="10.00">Controller.cpp</text>
</a>
</g>
</g>
<!-- Node6&#45;&gt;Node8 -->
<g id="edge7" class="edge">
<title>Node6&#45;&gt;Node8</title>
<path fill="none" stroke="midnightblue" d="M1383.45,-133.24C1370.34,-122.45 1352.9,-108.1 1340.12,-97.59"/>
<polygon fill="midnightblue" stroke="midnightblue" points="1381.4,-136.08 1391.35,-139.73 1385.85,-130.68 1381.4,-136.08"/>
</g>
<!-- Node9 -->
<g id="node9" class="node">
<title>Node9</title>
<g id="a_node9"><a xlink:href="SaveGameManager_8hpp.html" target="_top" xlink:title=" ">
<polygon fill="none" stroke="black" points="1603.5,-67.5 1603.5,-97.5 1740.5,-97.5 1740.5,-67.5 1603.5,-67.5"/>
<text text-anchor="start" x="1611.5" y="-85.5" font-family="Helvetica,sans-Serif" font-size="10.00">src/Persistence/SaveGame</text>
<text text-anchor="middle" x="1672" y="-74.5" font-family="Helvetica,sans-Serif" font-size="10.00">Manager.hpp</text>
</a>
</g>
</g>
<!-- Node6&#45;&gt;Node9 -->
<g id="edge8" class="edge">
<title>Node6&#45;&gt;Node9</title>
<path fill="none" stroke="midnightblue" d="M1447.5,-137.55C1493.19,-126.55 1563.79,-109.55 1613.6,-97.56"/>
<polygon fill="midnightblue" stroke="midnightblue" points="1446.48,-134.19 1437.58,-139.94 1448.12,-141 1446.48,-134.19"/>
</g>
<!-- Node12 -->
<g id="node12" class="node">
<title>Node12</title>
<g id="a_node12"><a xlink:href="CheatManager_8cpp.html" target="_top" xlink:title=" ">
<polygon fill="none" stroke="black" points="1543,-0.5 1543,-30.5 1649,-30.5 1649,-0.5 1543,-0.5"/>
<text text-anchor="start" x="1551" y="-18.5" font-family="Helvetica,sans-Serif" font-size="10.00">src/Scripts/Common</text>
<text text-anchor="middle" x="1596" y="-7.5" font-family="Helvetica,sans-Serif" font-size="10.00">/CheatManager.cpp</text>
</a>
</g>
</g>
<!-- Node6&#45;&gt;Node12 -->
<g id="edge20" class="edge">
<title>Node6&#45;&gt;Node12</title>
<path fill="none" stroke="midnightblue" d="M1473.02,-137.6C1501.43,-130.3 1532.83,-118.15 1556,-98 1576.7,-80 1587.74,-48.82 1592.69,-30.69"/>
<polygon fill="midnightblue" stroke="midnightblue" points="1472.02,-134.24 1463.12,-139.99 1473.66,-141.05 1472.02,-134.24"/>
</g>
<!-- Node13 -->
<g id="node13" class="node">
<title>Node13</title>
<g id="a_node13"><a xlink:href="GameWonBehaviour_8cpp.html" target="_top" xlink:title=" ">
<polygon fill="none" stroke="black" points="1822.5,-0.5 1822.5,-30.5 1949.5,-30.5 1949.5,-0.5 1822.5,-0.5"/>
<text text-anchor="start" x="1830.5" y="-18.5" font-family="Helvetica,sans-Serif" font-size="10.00">src/Scripts/Common</text>
<text text-anchor="middle" x="1886" y="-7.5" font-family="Helvetica,sans-Serif" font-size="10.00">/GameWonBehaviour.cpp</text>
</a>
</g>
</g>
<!-- Node6&#45;&gt;Node13 -->
<g id="edge21" class="edge">
<title>Node6&#45;&gt;Node13</title>
<path fill="none" stroke="midnightblue" d="M1478.69,-148.99C1551.43,-146.81 1662.33,-136.54 1750,-98 1769.95,-89.23 1769.77,-78.95 1788,-67 1809.29,-53.05 1834.91,-39.96 1854.62,-30.61"/>
<polygon fill="midnightblue" stroke="midnightblue" points="1478.59,-145.49 1468.69,-149.24 1478.77,-152.48 1478.59,-145.49"/>
</g>
<!-- Node14 -->
<g id="node14" class="node">
<title>Node14</title>
<g id="a_node14"><a xlink:href="LevelSelectionScene_8cpp.html" target="_top" xlink:title=" ">
<polygon fill="none" stroke="black" points="1797,-67.5 1797,-97.5 1931,-97.5 1931,-67.5 1797,-67.5"/>
<text text-anchor="start" x="1805" y="-85.5" font-family="Helvetica,sans-Serif" font-size="10.00">src/Scenes/LevelSelection</text>
<text text-anchor="middle" x="1864" y="-74.5" font-family="Helvetica,sans-Serif" font-size="10.00">Scene.cpp</text>
</a>
</g>
</g>
<!-- Node6&#45;&gt;Node14 -->
<g id="edge14" class="edge">
<title>Node6&#45;&gt;Node14</title>
<path fill="none" stroke="midnightblue" d="M1478.65,-139.38C1555.69,-129.96 1677.79,-114.38 1783,-98 1787.52,-97.3 1792.17,-96.54 1796.86,-95.76"/>
<polygon fill="midnightblue" stroke="midnightblue" points="1478.05,-135.92 1468.55,-140.61 1478.9,-142.87 1478.05,-135.92"/>
</g>
<!-- Node15 -->
<g id="node15" class="node">
<title>Node15</title>
<g id="a_node15"><a xlink:href="SaveSelectionScene_8hpp.html" target="_top" xlink:title=" ">
<polygon fill="none" stroke="black" points="1415,-67.5 1415,-97.5 1547,-97.5 1547,-67.5 1415,-67.5"/>
<text text-anchor="start" x="1423" y="-85.5" font-family="Helvetica,sans-Serif" font-size="10.00">src/Scenes/SaveSelection</text>
<text text-anchor="middle" x="1481" y="-74.5" font-family="Helvetica,sans-Serif" font-size="10.00">Scene.hpp</text>
</a>
</g>
</g>
<!-- Node6&#45;&gt;Node15 -->
<g id="edge16" class="edge">
<title>Node6&#45;&gt;Node15</title>
<path fill="none" stroke="midnightblue" d="M1420.55,-133.24C1433.66,-122.45 1451.1,-108.1 1463.88,-97.59"/>
<polygon fill="midnightblue" stroke="midnightblue" points="1418.15,-130.68 1412.65,-139.73 1422.6,-136.08 1418.15,-130.68"/>
</g>
<!-- Node17 -->
<g id="node17" class="node">
<title>Node17</title>
<g id="a_node17"><a xlink:href="StatsScene_8cpp.html" target="_top" xlink:title=" ">
<polygon fill="none" stroke="black" points="1949,-73 1949,-92 2087,-92 2087,-73 1949,-73"/>
<text text-anchor="middle" x="2018" y="-80" font-family="Helvetica,sans-Serif" font-size="10.00">src/Scenes/StatsScene.cpp</text>
</a>
</g>
</g>
<!-- Node6&#45;&gt;Node17 -->
<g id="edge19" class="edge">
<title>Node6&#45;&gt;Node17</title>
<path fill="none" stroke="midnightblue" d="M1479.06,-143.46C1583.74,-136.12 1776.57,-120.81 1940,-98 1951.73,-96.36 1964.38,-94.19 1976.01,-92.02"/>
<polygon fill="midnightblue" stroke="midnightblue" points="1478.64,-139.98 1468.9,-144.17 1479.12,-146.97 1478.64,-139.98"/>
</g>
<!-- Node18 -->
<g id="node18" class="node">
<title>Node18</title>
<g id="a_node18"><a xlink:href="HealthBehaviour_8cpp.html" target="_top" xlink:title=" ">
<polygon fill="none" stroke="black" points="2105,-67.5 2105,-97.5 2215,-97.5 2215,-67.5 2105,-67.5"/>
<text text-anchor="start" x="2113" y="-85.5" font-family="Helvetica,sans-Serif" font-size="10.00">src/Scripts/Common</text>
<text text-anchor="middle" x="2160" y="-74.5" font-family="Helvetica,sans-Serif" font-size="10.00">/HealthBehaviour.cpp</text>
</a>
</g>
</g>
<!-- Node6&#45;&gt;Node18 -->
<g id="edge22" class="edge">
<title>Node6&#45;&gt;Node18</title>
<path fill="none" stroke="midnightblue" d="M1479.01,-146.67C1607.51,-142.77 1873.5,-131.11 2096,-98 2098.93,-97.56 2101.92,-97.07 2104.94,-96.53"/>
<polygon fill="midnightblue" stroke="midnightblue" points="1478.77,-143.17 1468.88,-146.97 1478.97,-150.17 1478.77,-143.17"/>
</g>
<!-- Node19 -->
<g id="node19" class="node">
<title>Node19</title>
<g id="a_node19"><a xlink:href="LevelData_8cpp.html" target="_top" xlink:title=" ">
<polygon fill="none" stroke="black" points="950,-73 950,-92 1080,-92 1080,-73 950,-73"/>
<text text-anchor="middle" x="1015" y="-80" font-family="Helvetica,sans-Serif" font-size="10.00">src/Structs/LevelData.cpp</text>
</a>
</g>
</g>
<!-- Node6&#45;&gt;Node19 -->
<g id="edge23" class="edge">
<title>Node6&#45;&gt;Node19</title>
<path fill="none" stroke="midnightblue" d="M1335.38,-138.41C1271.94,-128.65 1173.82,-113.15 1089,-98 1078.69,-96.16 1067.6,-94.05 1057.22,-92.03"/>
<polygon fill="midnightblue" stroke="midnightblue" points="1335.23,-141.93 1345.64,-139.99 1336.29,-135.01 1335.23,-141.93"/>
</g>
<!-- Node20 -->
<g id="node20" class="node">
<title>Node20</title>
<g id="a_node20"><a xlink:href="PlayerData_8cpp.html" target="_top" xlink:title=" ">
<polygon fill="none" stroke="black" points="1098.5,-73 1098.5,-92 1231.5,-92 1231.5,-73 1098.5,-73"/>
<text text-anchor="middle" x="1165" y="-80" font-family="Helvetica,sans-Serif" font-size="10.00">src/Structs/PlayerData.cpp</text>
</a>
</g>
</g>
<!-- Node6&#45;&gt;Node20 -->
<g id="edge24" class="edge">
<title>Node6&#45;&gt;Node20</title>
<path fill="none" stroke="midnightblue" d="M1360.7,-137.17C1313.83,-124.32 1238.44,-103.64 1196.22,-92.06"/>
<polygon fill="midnightblue" stroke="midnightblue" points="1359.96,-140.6 1370.53,-139.87 1361.81,-133.85 1359.96,-140.6"/>
</g>
<!-- Node10 -->
<g id="node10" class="node">
<title>Node10</title>
<g id="a_node10"><a xlink:href="SaveGameManager_8cpp.html" target="_top" xlink:title=" ">
<polygon fill="none" stroke="black" points="1667.5,-0.5 1667.5,-30.5 1804.5,-30.5 1804.5,-0.5 1667.5,-0.5"/>
<text text-anchor="start" x="1675.5" y="-18.5" font-family="Helvetica,sans-Serif" font-size="10.00">src/Persistence/SaveGame</text>
<text text-anchor="middle" x="1736" y="-7.5" font-family="Helvetica,sans-Serif" font-size="10.00">Manager.cpp</text>
</a>
</g>
</g>
<!-- Node9&#45;&gt;Node10 -->
<g id="edge9" class="edge">
<title>Node9&#45;&gt;Node10</title>
<path fill="none" stroke="midnightblue" d="M1693.15,-60.02C1702.68,-50.34 1713.67,-39.17 1722.14,-30.58"/>
<polygon fill="midnightblue" stroke="midnightblue" points="1690.41,-57.81 1685.89,-67.4 1695.4,-62.73 1690.41,-57.81"/>
</g>
<!-- Node11 -->
<g id="node11" class="node">
<title>Node11</title>
<g id="a_node11"><a xlink:href="SaveSelectionScene_8cpp.html" target="_top" xlink:title=" ">
<polygon fill="none" stroke="black" points="1393,-0.5 1393,-30.5 1525,-30.5 1525,-0.5 1393,-0.5"/>
<text text-anchor="start" x="1401" y="-18.5" font-family="Helvetica,sans-Serif" font-size="10.00">src/Scenes/SaveSelection</text>
<text text-anchor="middle" x="1459" y="-7.5" font-family="Helvetica,sans-Serif" font-size="10.00">Scene.cpp</text>
</a>
</g>
</g>
<!-- Node9&#45;&gt;Node11 -->
<g id="edge10" class="edge">
<title>Node9&#45;&gt;Node11</title>
<path fill="none" stroke="midnightblue" d="M1616.11,-64.44C1581.58,-53.91 1537.81,-40.55 1505.24,-30.61"/>
<polygon fill="midnightblue" stroke="midnightblue" points="1615.46,-67.9 1626.04,-67.48 1617.5,-61.21 1615.46,-67.9"/>
</g>
<!-- Node9&#45;&gt;Node12 -->
<g id="edge11" class="edge">
<title>Node9&#45;&gt;Node12</title>
<path fill="none" stroke="midnightblue" d="M1647.89,-60.88C1636.34,-51.01 1622.81,-39.43 1612.46,-30.58"/>
<polygon fill="midnightblue" stroke="midnightblue" points="1645.63,-63.56 1655.51,-67.4 1650.18,-58.24 1645.63,-63.56"/>
</g>
<!-- Node9&#45;&gt;Node13 -->
<g id="edge12" class="edge">
<title>Node9&#45;&gt;Node13</title>
<path fill="none" stroke="midnightblue" d="M1728.15,-64.44C1762.84,-53.91 1806.82,-40.55 1839.54,-30.61"/>
<polygon fill="midnightblue" stroke="midnightblue" points="1726.72,-61.22 1718.17,-67.48 1728.76,-67.92 1726.72,-61.22"/>
</g>
<!-- Node15&#45;&gt;Node11 -->
<g id="edge18" class="edge">
<title>Node15&#45;&gt;Node11</title>
<path fill="none" stroke="midnightblue" d="M1472.94,-57.7C1469.86,-48.59 1466.44,-38.49 1463.76,-30.58"/>
<polygon fill="midnightblue" stroke="midnightblue" points="1469.71,-59.05 1476.23,-67.4 1476.34,-56.8 1469.71,-59.05"/>
</g>
<!-- Node16 -->
<g id="node16" class="node">
<title>Node16</title>
<g id="a_node16"><a xlink:href="LoadingScene_8cpp.html" target="_top" xlink:title=" ">
<polygon fill="none" stroke="black" points="1225.5,-6 1225.5,-25 1374.5,-25 1374.5,-6 1225.5,-6"/>
<text text-anchor="middle" x="1300" y="-13" font-family="Helvetica,sans-Serif" font-size="10.00">src/Scenes/LoadingScene.cpp</text>
</a>
</g>
</g>
<!-- Node15&#45;&gt;Node16 -->
<g id="edge17" class="edge">
<title>Node15&#45;&gt;Node16</title>
<path fill="none" stroke="midnightblue" d="M1432.12,-63.95C1396.96,-51.32 1351.1,-34.85 1323.69,-25.01"/>
<polygon fill="midnightblue" stroke="midnightblue" points="1431.13,-67.31 1441.73,-67.4 1433.5,-60.72 1431.13,-67.31"/>
</g>
<!-- Node21&#45;&gt;Node5 -->
<g id="edge28" class="edge">
<title>Node21&#45;&gt;Node5</title>
<path fill="none" stroke="midnightblue" d="M672.92,-129.54C674.82,-117.17 677.21,-101.62 678.67,-92.13"/>
<polygon fill="midnightblue" stroke="midnightblue" points="669.41,-129.32 671.35,-139.73 676.33,-130.38 669.41,-129.32"/>
</g>
<!-- Node21&#45;&gt;Node7 -->
<g id="edge27" class="edge">
<title>Node21&#45;&gt;Node7</title>
<path fill="none" stroke="midnightblue" d="M703.22,-136.44C738.73,-123.54 794.13,-103.42 825.42,-92.06"/>
<polygon fill="midnightblue" stroke="midnightblue" points="701.97,-133.17 693.77,-139.87 704.36,-139.75 701.97,-133.17"/>
</g>
<!-- Node22 -->
<g id="node22" class="node">
<title>Node22</title>
<g id="a_node22"><a xlink:href="HUDController_8cpp.html" target="_top" xlink:title=" ">
<polygon fill="none" stroke="black" points="144,-73 144,-92 308,-92 308,-73 144,-73"/>
<text text-anchor="middle" x="226" y="-80" font-family="Helvetica,sans-Serif" font-size="10.00">src/Controllers/HUDController.cpp</text>
</a>
</g>
</g>
<!-- Node21&#45;&gt;Node22 -->
<g id="edge26" class="edge">
<title>Node21&#45;&gt;Node22</title>
<path fill="none" stroke="midnightblue" d="M622,-137.89C614.98,-136.49 607.81,-135.15 601,-134 475.53,-112.9 442.95,-116.01 317,-98 304.33,-96.19 290.69,-94.09 277.93,-92.07"/>
<polygon fill="midnightblue" stroke="midnightblue" points="621.64,-141.39 632.14,-139.97 623.05,-134.53 621.64,-141.39"/>
</g>
<!-- Node23 -->
<g id="node23" class="node">
<title>Node23</title>
<g id="a_node23"><a xlink:href="HeroUtil_8cpp.html" target="_top" xlink:title=" ">
<polygon fill="none" stroke="black" points="326,-73 326,-92 436,-92 436,-73 326,-73"/>
<text text-anchor="middle" x="381" y="-80" font-family="Helvetica,sans-Serif" font-size="10.00">src/Utils/HeroUtil.cpp</text>
</a>
</g>
</g>
<!-- Node21&#45;&gt;Node23 -->
<g id="edge29" class="edge">
<title>Node21&#45;&gt;Node23</title>
<path fill="none" stroke="midnightblue" d="M621.88,-137.73C576.32,-127.52 506,-111.76 445,-98 436.44,-96.07 427.24,-93.99 418.56,-92.02"/>
<polygon fill="midnightblue" stroke="midnightblue" points="621.25,-141.18 631.78,-139.95 622.78,-134.34 621.25,-141.18"/>
</g>
</g>
</svg>
