<?xml version="1.0" encoding="UTF-8" standalone="no"?>
<!DOCTYPE svg PUBLIC "-//W3C//DTD SVG 1.1//EN"
 "http://www.w3.org/Graphics/SVG/1.1/DTD/svg11.dtd">
<!-- Generated by graphviz version 2.44.0 ()
 -->
<!-- Title: src/Factories/HeroPrefabFactory.cpp Pages: 1 -->
<svg width="1724pt" height="397pt"
 viewBox="0.00 0.00 1723.75 397.00" xmlns="http://www.w3.org/2000/svg" xmlns:xlink="http://www.w3.org/1999/xlink">
<g id="graph0" class="graph" transform="scale(1 1) rotate(0) translate(4 393)">
<title>src/Factories/HeroPrefabFactory.cpp</title>
<!-- Node1 -->
<g id="node1" class="node">
<title>Node1</title>
<g id="a_node1"><a xlink:title=" ">
<polygon fill="#bfbfbf" stroke="black" points="688.25,-358.5 688.25,-388.5 814.25,-388.5 814.25,-358.5 688.25,-358.5"/>
<text text-anchor="start" x="696.25" y="-376.5" font-family="Helvetica,sans-Serif" font-size="10.00">src/Factories/HeroPrefab</text>
<text text-anchor="middle" x="751.25" y="-365.5" font-family="Helvetica,sans-Serif" font-size="10.00">Factory.cpp</text>
</a>
</g>
</g>
<!-- Node2 -->
<g id="node2" class="node">
<title>Node2</title>
<g id="a_node2"><a xlink:href="HeroPrefabFactory_8hpp.html" target="_top" xlink:title=" ">
<polygon fill="none" stroke="black" points="17.25,-230 17.25,-249 133.25,-249 133.25,-230 17.25,-230"/>
<text text-anchor="middle" x="75.25" y="-237" font-family="Helvetica,sans-Serif" font-size="10.00">HeroPrefabFactory.hpp</text>
</a>
</g>
</g>
<!-- Node1&#45;&gt;Node2 -->
<g id="edge1" class="edge">
<title>Node1&#45;&gt;Node2</title>
<path fill="none" stroke="midnightblue" d="M688.04,-373.03C553.11,-373.24 241.65,-368.5 148.25,-322 119.74,-307.8 97.26,-277.24 85.14,-257.84"/>
<polygon fill="midnightblue" stroke="midnightblue" points="88.05,-255.88 79.91,-249.1 82.04,-259.48 88.05,-255.88"/>
</g>
<!-- Node12 -->
<g id="node12" class="node">
<title>Node12</title>
<g id="a_node12"><a xlink:href="Animator_8hpp.html" target="_top" xlink:title=" ">
<polygon fill="none" stroke="black" points="404.25,-168.5 404.25,-187.5 478.25,-187.5 478.25,-168.5 404.25,-168.5"/>
<text text-anchor="middle" x="441.25" y="-175.5" font-family="Helvetica,sans-Serif" font-size="10.00">Animator.hpp</text>
</a>
</g>
</g>
<!-- Node1&#45;&gt;Node12 -->
<g id="edge12" class="edge">
<title>Node1&#45;&gt;Node12</title>
<path fill="none" stroke="midnightblue" d="M687.97,-368.39C615.66,-359.91 500.36,-334 446.25,-255 434.84,-238.34 435.27,-214.5 437.47,-197.98"/>
<polygon fill="midnightblue" stroke="midnightblue" points="440.96,-198.34 439.15,-187.9 434.05,-197.18 440.96,-198.34"/>
</g>
<!-- Node13 -->
<g id="node13" class="node">
<title>Node13</title>
<g id="a_node13"><a xlink:href="Sprite_8hpp.html" target="_top" xlink:title=" ">
<polygon fill="none" stroke="black" points="250.25,-112.5 250.25,-131.5 310.25,-131.5 310.25,-112.5 250.25,-112.5"/>
<text text-anchor="middle" x="280.25" y="-119.5" font-family="Helvetica,sans-Serif" font-size="10.00">Sprite.hpp</text>
</a>
</g>
</g>
<!-- Node1&#45;&gt;Node13 -->
<g id="edge23" class="edge">
<title>Node1&#45;&gt;Node13</title>
<path fill="none" stroke="midnightblue" d="M688.06,-371.17C619.45,-367.86 507.7,-356.98 418.25,-322 319.29,-283.3 270.06,-281.86 220.25,-188 209.4,-167.56 232.12,-148.66 252.64,-136.57"/>
<polygon fill="midnightblue" stroke="midnightblue" points="254.44,-139.57 261.49,-131.67 251.05,-133.45 254.44,-139.57"/>
</g>
<!-- Node14 -->
<g id="node14" class="node">
<title>Node14</title>
<g id="a_node14"><a xlink:href="CircleCollider_8hpp.html" target="_top" xlink:title=" ">
<polygon fill="none" stroke="black" points="642.25,-168.5 642.25,-187.5 734.25,-187.5 734.25,-168.5 642.25,-168.5"/>
<text text-anchor="middle" x="688.25" y="-175.5" font-family="Helvetica,sans-Serif" font-size="10.00">CircleCollider.hpp</text>
</a>
</g>
</g>
<!-- Node1&#45;&gt;Node14 -->
<g id="edge20" class="edge">
<title>Node1&#45;&gt;Node14</title>
<path fill="none" stroke="midnightblue" d="M738.1,-358.32C719.82,-337.54 687.56,-296.71 675.25,-255 669.52,-235.6 675.09,-212.62 680.61,-197.05"/>
<polygon fill="midnightblue" stroke="midnightblue" points="683.93,-198.17 684.29,-187.58 677.4,-195.64 683.93,-198.17"/>
</g>
<!-- Node16 -->
<g id="node16" class="node">
<title>Node16</title>
<g id="a_node16"><a xlink:href="HealthBarFactory_8hpp.html" target="_top" xlink:title=" ">
<polygon fill="none" stroke="black" points="944.25,-297 944.25,-316 1054.25,-316 1054.25,-297 944.25,-297"/>
<text text-anchor="middle" x="999.25" y="-304" font-family="Helvetica,sans-Serif" font-size="10.00">HealthBarFactory.hpp</text>
</a>
</g>
</g>
<!-- Node1&#45;&gt;Node16 -->
<g id="edge24" class="edge">
<title>Node1&#45;&gt;Node16</title>
<path fill="none" stroke="midnightblue" d="M804.76,-358.48C850.27,-346.55 914.76,-329.64 956.8,-318.63"/>
<polygon fill="midnightblue" stroke="midnightblue" points="957.93,-321.95 966.71,-316.03 956.15,-315.18 957.93,-321.95"/>
</g>
<!-- Node19 -->
<g id="node19" class="node">
<title>Node19</title>
<g id="a_node19"><a xlink:href="Layer_8hpp.html" target="_top" xlink:title=" ">
<polygon fill="none" stroke="black" points="1390.75,-297 1390.75,-316 1489.75,-316 1489.75,-297 1390.75,-297"/>
<text text-anchor="middle" x="1440.25" y="-304" font-family="Helvetica,sans-Serif" font-size="10.00">../Enums/Layer.hpp</text>
</a>
</g>
</g>
<!-- Node1&#45;&gt;Node19 -->
<g id="edge33" class="edge">
<title>Node1&#45;&gt;Node19</title>
<path fill="none" stroke="midnightblue" d="M814.7,-370.79C928.76,-366.96 1175.72,-355.27 1381.25,-322 1387.19,-321.04 1393.41,-319.79 1399.49,-318.42"/>
<polygon fill="midnightblue" stroke="midnightblue" points="1400.59,-321.76 1409.52,-316.05 1398.98,-314.94 1400.59,-321.76"/>
</g>
<!-- Node20 -->
<g id="node20" class="node">
<title>Node20</title>
<g id="a_node20"><a xlink:href="SortingLayer_8hpp.html" target="_top" xlink:title=" ">
<polygon fill="none" stroke="black" points="1508.25,-297 1508.25,-316 1638.25,-316 1638.25,-297 1508.25,-297"/>
<text text-anchor="middle" x="1573.25" y="-304" font-family="Helvetica,sans-Serif" font-size="10.00">../Enums/SortingLayer.hpp</text>
</a>
</g>
</g>
<!-- Node1&#45;&gt;Node20 -->
<g id="edge34" class="edge">
<title>Node1&#45;&gt;Node20</title>
<path fill="none" stroke="midnightblue" d="M814.56,-370.92C943.77,-367.1 1246.96,-355.1 1499.25,-322 1507.46,-320.92 1516.14,-319.49 1524.54,-317.95"/>
<polygon fill="midnightblue" stroke="midnightblue" points="1525.45,-321.34 1534.61,-316.03 1524.13,-314.46 1525.45,-321.34"/>
</g>
<!-- Node21 -->
<g id="node21" class="node">
<title>Node21</title>
<g id="a_node21"><a xlink:href="HealAbilityBehaviour_8hpp.html" target="_top" xlink:title=" ">
<polygon fill="none" stroke="black" points="1072.75,-291.5 1072.75,-321.5 1211.75,-321.5 1211.75,-291.5 1072.75,-291.5"/>
<text text-anchor="start" x="1080.75" y="-309.5" font-family="Helvetica,sans-Serif" font-size="10.00">../Scripts/Heroes/HealAbility</text>
<text text-anchor="middle" x="1142.25" y="-298.5" font-family="Helvetica,sans-Serif" font-size="10.00">Behaviour.hpp</text>
</a>
</g>
</g>
<!-- Node1&#45;&gt;Node21 -->
<g id="edge35" class="edge">
<title>Node1&#45;&gt;Node21</title>
<path fill="none" stroke="midnightblue" d="M814.36,-362.68C875.21,-353.13 970.18,-337.98 1062.41,-322.12"/>
<polygon fill="midnightblue" stroke="midnightblue" points="1063.22,-325.54 1072.48,-320.39 1062.03,-318.64 1063.22,-325.54"/>
</g>
<!-- Node23 -->
<g id="node23" class="node">
<title>Node23</title>
<g id="a_node23"><a xlink:href="UserMovementBehaviour_8hpp.html" target="_top" xlink:title=" ">
<polygon fill="none" stroke="black" points="766.75,-291.5 766.75,-321.5 925.75,-321.5 925.75,-291.5 766.75,-291.5"/>
<text text-anchor="start" x="774.75" y="-309.5" font-family="Helvetica,sans-Serif" font-size="10.00">../Scripts/Heroes/UserMovement</text>
<text text-anchor="middle" x="846.25" y="-298.5" font-family="Helvetica,sans-Serif" font-size="10.00">Behaviour.hpp</text>
</a>
</g>
</g>
<!-- Node1&#45;&gt;Node23 -->
<g id="edge40" class="edge">
<title>Node1&#45;&gt;Node23</title>
<path fill="none" stroke="midnightblue" d="M771.87,-358.4C785.19,-349.28 802.71,-337.29 817.41,-327.24"/>
<polygon fill="midnightblue" stroke="midnightblue" points="819.4,-330.11 825.68,-321.58 815.45,-324.33 819.4,-330.11"/>
</g>
<!-- Node28 -->
<g id="node28" class="node">
<title>Node28</title>
<g id="a_node28"><a xlink:href="UserAttackBehaviour_8hpp.html" target="_top" xlink:title=" ">
<polygon fill="none" stroke="black" points="1230.25,-291.5 1230.25,-321.5 1372.25,-321.5 1372.25,-291.5 1230.25,-291.5"/>
<text text-anchor="start" x="1238.25" y="-309.5" font-family="Helvetica,sans-Serif" font-size="10.00">../Scripts/Heroes/UserAttack</text>
<text text-anchor="middle" x="1301.25" y="-298.5" font-family="Helvetica,sans-Serif" font-size="10.00">Behaviour.hpp</text>
</a>
</g>
</g>
<!-- Node1&#45;&gt;Node28 -->
<g id="edge54" class="edge">
<title>Node1&#45;&gt;Node28</title>
<path fill="none" stroke="midnightblue" d="M814.53,-367.16C903.02,-359.38 1068.94,-343.6 1220.25,-322.08"/>
<polygon fill="midnightblue" stroke="midnightblue" points="1220.79,-325.54 1230.2,-320.65 1219.8,-318.61 1220.79,-325.54"/>
</g>
<!-- Node30 -->
<g id="node30" class="node">
<title>Node30</title>
<g id="a_node30"><a xlink:href="AnimatorUtil_8hpp.html" target="_top" xlink:title=" ">
<polygon fill="none" stroke="black" points="228.75,-168.5 228.75,-187.5 347.75,-187.5 347.75,-168.5 228.75,-168.5"/>
<text text-anchor="middle" x="288.25" y="-175.5" font-family="Helvetica,sans-Serif" font-size="10.00">../Utils/AnimatorUtil.hpp</text>
</a>
</g>
</g>
<!-- Node1&#45;&gt;Node30 -->
<g id="edge60" class="edge">
<title>Node1&#45;&gt;Node30</title>
<path fill="none" stroke="midnightblue" d="M688.23,-369.37C630.63,-364.6 544.18,-352.52 475.25,-322 403.21,-290.1 333.63,-225.15 303.66,-195.02"/>
<polygon fill="midnightblue" stroke="midnightblue" points="306.1,-192.51 296.59,-187.83 301.1,-197.41 306.1,-192.51"/>
</g>
<!-- Node31 -->
<g id="node31" class="node">
<title>Node31</title>
<g id="a_node31"><a xlink:href="GameObjectUtil_8hpp.html" target="_top" xlink:title=" ">
<polygon fill="none" stroke="black" points="454.75,-230 454.75,-249 589.75,-249 589.75,-230 454.75,-230"/>
<text text-anchor="middle" x="522.25" y="-237" font-family="Helvetica,sans-Serif" font-size="10.00">../Utils/GameObjectUtil.hpp</text>
</a>
</g>
</g>
<!-- Node1&#45;&gt;Node31 -->
<g id="edge65" class="edge">
<title>Node1&#45;&gt;Node31</title>
<path fill="none" stroke="midnightblue" d="M717.15,-358.41C695.3,-348.96 666.57,-335.77 642.25,-322 605.3,-301.08 564.97,-272.36 541.74,-255.19"/>
<polygon fill="midnightblue" stroke="midnightblue" points="543.55,-252.18 533.44,-249.01 539.37,-257.79 543.55,-252.18"/>
</g>
<!-- Node32 -->
<g id="node32" class="node">
<title>Node32</title>
<g id="a_node32"><a xlink:href="Constants_8hpp.html" target="_top" xlink:title=" ">
<polygon fill="none" stroke="black" points="108.25,-112.5 108.25,-131.5 194.25,-131.5 194.25,-112.5 108.25,-112.5"/>
<text text-anchor="middle" x="151.25" y="-119.5" font-family="Helvetica,sans-Serif" font-size="10.00">../Constants.hpp</text>
</a>
</g>
</g>
<!-- Node1&#45;&gt;Node32 -->
<g id="edge68" class="edge">
<title>Node1&#45;&gt;Node32</title>
<path fill="none" stroke="midnightblue" d="M688.23,-368.77C587.64,-362.17 395.64,-346.74 332.25,-322 284.8,-303.48 274.61,-291.67 239.25,-255 204.5,-218.96 174.73,-167.55 160.39,-140.77"/>
<polygon fill="midnightblue" stroke="midnightblue" points="163.42,-139.01 155.67,-131.79 157.23,-142.27 163.42,-139.01"/>
</g>
<!-- Node33 -->
<g id="node33" class="node">
<title>Node33</title>
<g id="a_node33"><a xlink:title=" ">
<polygon fill="none" stroke="#bfbfbf" points="1656.75,-297 1656.75,-316 1715.75,-316 1715.75,-297 1656.75,-297"/>
<text text-anchor="middle" x="1686.25" y="-304" font-family="Helvetica,sans-Serif" font-size="10.00">stdexcept</text>
</a>
</g>
</g>
<!-- Node1&#45;&gt;Node33 -->
<g id="edge70" class="edge">
<title>Node1&#45;&gt;Node33</title>
<path fill="none" stroke="midnightblue" d="M814.33,-371.39C990.94,-367.91 1487.79,-355.34 1647.25,-322 1650.5,-321.32 1653.85,-320.42 1657.14,-319.39"/>
<polygon fill="midnightblue" stroke="midnightblue" points="1658.45,-322.64 1666.75,-316.05 1656.16,-316.03 1658.45,-322.64"/>
</g>
<!-- Node3 -->
<g id="node3" class="node">
<title>Node3</title>
<g id="a_node3"><a xlink:href="Color_8hpp.html" target="_top" xlink:title=" ">
<polygon fill="none" stroke="black" points="122.75,-56.5 122.75,-75.5 179.75,-75.5 179.75,-56.5 122.75,-56.5"/>
<text text-anchor="middle" x="151.25" y="-63.5" font-family="Helvetica,sans-Serif" font-size="10.00">Color.hpp</text>
</a>
</g>
</g>
<!-- Node2&#45;&gt;Node3 -->
<g id="edge2" class="edge">
<title>Node2&#45;&gt;Node3</title>
<path fill="none" stroke="midnightblue" d="M53.89,-229.92C27.85,-218.08 -11.05,-195.07 3.25,-168 27.02,-123 80.87,-94.26 116.63,-79.38"/>
<polygon fill="midnightblue" stroke="midnightblue" points="118.21,-82.52 126.2,-75.55 115.61,-76.02 118.21,-82.52"/>
</g>
<!-- Node4 -->
<g id="node4" class="node">
<title>Node4</title>
<g id="a_node4"><a xlink:href="GameObject_8hpp.html" target="_top" xlink:title=" ">
<polygon fill="none" stroke="black" points="534.75,-168.5 534.75,-187.5 623.75,-187.5 623.75,-168.5 534.75,-168.5"/>
<text text-anchor="middle" x="579.25" y="-175.5" font-family="Helvetica,sans-Serif" font-size="10.00">GameObject.hpp</text>
</a>
</g>
</g>
<!-- Node2&#45;&gt;Node4 -->
<g id="edge3" class="edge">
<title>Node2&#45;&gt;Node4</title>
<path fill="none" stroke="midnightblue" d="M133.56,-231.62C231.81,-220.02 428.99,-196.74 524.67,-185.44"/>
<polygon fill="midnightblue" stroke="midnightblue" points="525.2,-188.91 534.72,-184.26 524.38,-181.95 525.2,-188.91"/>
</g>
<!-- Node11 -->
<g id="node11" class="node">
<title>Node11</title>
<g id="a_node11"><a xlink:href="HeroName_8hpp.html" target="_top" xlink:title=" ">
<polygon fill="none" stroke="black" points="12.25,-168.5 12.25,-187.5 134.25,-187.5 134.25,-168.5 12.25,-168.5"/>
<text text-anchor="middle" x="73.25" y="-175.5" font-family="Helvetica,sans-Serif" font-size="10.00">../Enums/HeroName.hpp</text>
</a>
</g>
</g>
<!-- Node2&#45;&gt;Node11 -->
<g id="edge11" class="edge">
<title>Node2&#45;&gt;Node11</title>
<path fill="none" stroke="midnightblue" d="M74.97,-229.98C74.68,-221.58 74.24,-208.48 73.88,-197.66"/>
<polygon fill="midnightblue" stroke="midnightblue" points="77.37,-197.39 73.54,-187.51 70.38,-197.62 77.37,-197.39"/>
</g>
<!-- Node5 -->
<g id="node5" class="node">
<title>Node5</title>
<g id="a_node5"><a xlink:href="Component_8hpp.html" target="_top" xlink:title=" ">
<polygon fill="none" stroke="black" points="681.25,-56.5 681.25,-75.5 765.25,-75.5 765.25,-56.5 681.25,-56.5"/>
<text text-anchor="middle" x="723.25" y="-63.5" font-family="Helvetica,sans-Serif" font-size="10.00">Component.hpp</text>
</a>
</g>
</g>
<!-- Node4&#45;&gt;Node5 -->
<g id="edge4" class="edge">
<title>Node4&#45;&gt;Node5</title>
<path fill="none" stroke="midnightblue" d="M587.23,-168.38C599.57,-155.3 624.37,-130.08 648.25,-112 663.84,-100.2 682.73,-88.88 697.65,-80.55"/>
<polygon fill="midnightblue" stroke="midnightblue" points="699.72,-83.4 706.81,-75.53 696.35,-77.27 699.72,-83.4"/>
</g>
<!-- Node6 -->
<g id="node6" class="node">
<title>Node6</title>
<g id="a_node6"><a xlink:title=" ">
<polygon fill="none" stroke="#bfbfbf" points="697.75,-0.5 697.75,-19.5 748.75,-19.5 748.75,-0.5 697.75,-0.5"/>
<text text-anchor="middle" x="723.25" y="-7.5" font-family="Helvetica,sans-Serif" font-size="10.00">memory</text>
</a>
</g>
</g>
<!-- Node4&#45;&gt;Node6 -->
<g id="edge10" class="edge">
<title>Node4&#45;&gt;Node6</title>
<path fill="none" stroke="midnightblue" d="M584.26,-168.28C591.73,-155.51 606.5,-131.16 621.25,-112 641.79,-85.33 648.26,-79.62 672.25,-56 682.77,-45.65 695.18,-34.67 705.12,-26.16"/>
<polygon fill="midnightblue" stroke="midnightblue" points="707.43,-28.78 712.8,-19.65 702.9,-23.45 707.43,-28.78"/>
</g>
<!-- Node7 -->
<g id="node7" class="node">
<title>Node7</title>
<g id="a_node7"><a xlink:href="Transform_8hpp.html" target="_top" xlink:title=" ">
<polygon fill="none" stroke="black" points="656.75,-112.5 656.75,-131.5 735.75,-131.5 735.75,-112.5 656.75,-112.5"/>
<text text-anchor="middle" x="696.25" y="-119.5" font-family="Helvetica,sans-Serif" font-size="10.00">Transform.hpp</text>
</a>
</g>
</g>
<!-- Node4&#45;&gt;Node7 -->
<g id="edge6" class="edge">
<title>Node4&#45;&gt;Node7</title>
<path fill="none" stroke="midnightblue" d="M597.79,-168.44C616.87,-159.64 646.83,-145.81 668.69,-135.72"/>
<polygon fill="midnightblue" stroke="midnightblue" points="670.19,-138.88 677.8,-131.52 667.25,-132.53 670.19,-138.88"/>
</g>
<!-- Node9 -->
<g id="node9" class="node">
<title>Node9</title>
<g id="a_node9"><a xlink:title=" ">
<polygon fill="none" stroke="#bfbfbf" points="259.75,-56.5 259.75,-75.5 300.75,-75.5 300.75,-56.5 259.75,-56.5"/>
<text text-anchor="middle" x="280.25" y="-63.5" font-family="Helvetica,sans-Serif" font-size="10.00">string</text>
</a>
</g>
</g>
<!-- Node4&#45;&gt;Node9 -->
<g id="edge8" class="edge">
<title>Node4&#45;&gt;Node9</title>
<path fill="none" stroke="midnightblue" d="M575.68,-168.17C569.41,-153.85 554.96,-125.78 533.25,-112 496.73,-88.82 370.35,-74.94 311.22,-69.57"/>
<polygon fill="midnightblue" stroke="midnightblue" points="311.26,-66.06 301,-68.66 310.65,-73.03 311.26,-66.06"/>
</g>
<!-- Node10 -->
<g id="node10" class="node">
<title>Node10</title>
<g id="a_node10"><a xlink:title=" ">
<polygon fill="none" stroke="#bfbfbf" points="480.25,-112.5 480.25,-131.5 524.25,-131.5 524.25,-112.5 480.25,-112.5"/>
<text text-anchor="middle" x="502.25" y="-119.5" font-family="Helvetica,sans-Serif" font-size="10.00">vector</text>
</a>
</g>
</g>
<!-- Node4&#45;&gt;Node10 -->
<g id="edge9" class="edge">
<title>Node4&#45;&gt;Node10</title>
<path fill="none" stroke="midnightblue" d="M566.88,-168.32C555.09,-160.06 537.12,-147.45 523.12,-137.63"/>
<polygon fill="midnightblue" stroke="midnightblue" points="524.79,-134.53 514.59,-131.65 520.77,-140.26 524.79,-134.53"/>
</g>
<!-- Node5&#45;&gt;Node6 -->
<g id="edge5" class="edge">
<title>Node5&#45;&gt;Node6</title>
<path fill="none" stroke="midnightblue" d="M723.25,-56.08C723.25,-49.01 723.25,-38.86 723.25,-29.99"/>
<polygon fill="midnightblue" stroke="midnightblue" points="726.75,-29.75 723.25,-19.75 719.75,-29.75 726.75,-29.75"/>
</g>
<!-- Node8 -->
<g id="node8" class="node">
<title>Node8</title>
<g id="a_node8"><a xlink:href="Point_8hpp.html" target="_top" xlink:title=" ">
<polygon fill="none" stroke="black" points="925.75,-56.5 925.75,-75.5 982.75,-75.5 982.75,-56.5 925.75,-56.5"/>
<text text-anchor="middle" x="954.25" y="-63.5" font-family="Helvetica,sans-Serif" font-size="10.00">Point.hpp</text>
</a>
</g>
</g>
<!-- Node7&#45;&gt;Node8 -->
<g id="edge7" class="edge">
<title>Node7&#45;&gt;Node8</title>
<path fill="none" stroke="midnightblue" d="M736,-112.68C784.85,-102.46 867.21,-85.22 915.57,-75.1"/>
<polygon fill="midnightblue" stroke="midnightblue" points="916.57,-78.46 925.64,-72.99 915.14,-71.61 916.57,-78.46"/>
</g>
<!-- Node12&#45;&gt;Node5 -->
<g id="edge13" class="edge">
<title>Node12&#45;&gt;Node5</title>
<path fill="none" stroke="midnightblue" d="M442.65,-168.25C445.41,-154.04 452.95,-126.13 471.25,-112 501.76,-88.44 606.63,-76.15 671.08,-70.67"/>
<polygon fill="midnightblue" stroke="midnightblue" points="671.38,-74.16 681.06,-69.85 670.8,-67.18 671.38,-74.16"/>
</g>
<!-- Node12&#45;&gt;Node6 -->
<g id="edge19" class="edge">
<title>Node12&#45;&gt;Node6</title>
<path fill="none" stroke="midnightblue" d="M440.03,-168.33C438.62,-154.74 437.98,-128.28 451.25,-112 510.7,-39.07 628.2,-18.8 687.39,-13.16"/>
<polygon fill="midnightblue" stroke="midnightblue" points="687.74,-16.65 697.4,-12.3 687.13,-9.67 687.74,-16.65"/>
</g>
<!-- Node12&#45;&gt;Node10 -->
<g id="edge18" class="edge">
<title>Node12&#45;&gt;Node10</title>
<path fill="none" stroke="midnightblue" d="M451.05,-168.32C460.07,-160.34 473.66,-148.31 484.57,-138.65"/>
<polygon fill="midnightblue" stroke="midnightblue" points="487.11,-141.08 492.27,-131.83 482.47,-135.84 487.11,-141.08"/>
</g>
<!-- Node12&#45;&gt;Node13 -->
<g id="edge14" class="edge">
<title>Node12&#45;&gt;Node13</title>
<path fill="none" stroke="midnightblue" d="M415.74,-168.44C388.66,-159.36 345.66,-144.94 315.38,-134.78"/>
<polygon fill="midnightblue" stroke="midnightblue" points="316.24,-131.38 305.64,-131.52 314.01,-138.01 316.24,-131.38"/>
</g>
<!-- Node13&#45;&gt;Node3 -->
<g id="edge16" class="edge">
<title>Node13&#45;&gt;Node3</title>
<path fill="none" stroke="midnightblue" d="M259.81,-112.44C238.58,-103.56 205.15,-89.56 181,-79.45"/>
<polygon fill="midnightblue" stroke="midnightblue" points="182.17,-76.15 171.6,-75.52 179.47,-82.61 182.17,-76.15"/>
</g>
<!-- Node13&#45;&gt;Node5 -->
<g id="edge15" class="edge">
<title>Node13&#45;&gt;Node5</title>
<path fill="none" stroke="midnightblue" d="M310.35,-117.33C384.68,-108.27 577.66,-84.75 671.07,-73.36"/>
<polygon fill="midnightblue" stroke="midnightblue" points="671.65,-76.82 681.15,-72.13 670.8,-69.87 671.65,-76.82"/>
</g>
<!-- Node13&#45;&gt;Node9 -->
<g id="edge17" class="edge">
<title>Node13&#45;&gt;Node9</title>
<path fill="none" stroke="midnightblue" d="M280.25,-112.08C280.25,-105.01 280.25,-94.86 280.25,-85.99"/>
<polygon fill="midnightblue" stroke="midnightblue" points="283.75,-85.75 280.25,-75.75 276.75,-85.75 283.75,-85.75"/>
</g>
<!-- Node15 -->
<g id="node15" class="node">
<title>Node15</title>
<g id="a_node15"><a xlink:href="Collider_8hpp.html" target="_top" xlink:title=" ">
<polygon fill="none" stroke="black" points="753.75,-112.5 753.75,-131.5 820.75,-131.5 820.75,-112.5 753.75,-112.5"/>
<text text-anchor="middle" x="787.25" y="-119.5" font-family="Helvetica,sans-Serif" font-size="10.00">Collider.hpp</text>
</a>
</g>
</g>
<!-- Node14&#45;&gt;Node15 -->
<g id="edge21" class="edge">
<title>Node14&#45;&gt;Node15</title>
<path fill="none" stroke="midnightblue" d="M704.16,-168.32C719.89,-159.74 744.19,-146.49 762.46,-136.52"/>
<polygon fill="midnightblue" stroke="midnightblue" points="764.28,-139.52 771.39,-131.65 760.93,-133.37 764.28,-139.52"/>
</g>
<!-- Node15&#45;&gt;Node5 -->
<g id="edge22" class="edge">
<title>Node15&#45;&gt;Node5</title>
<path fill="none" stroke="midnightblue" d="M776.97,-112.32C767.42,-104.26 752.97,-92.08 741.47,-82.37"/>
<polygon fill="midnightblue" stroke="midnightblue" points="743.62,-79.61 733.72,-75.83 739.11,-84.96 743.62,-79.61"/>
</g>
<!-- Node16&#45;&gt;Node4 -->
<g id="edge25" class="edge">
<title>Node16&#45;&gt;Node4</title>
<path fill="none" stroke="midnightblue" d="M989.29,-296.88C969,-279.85 920.77,-241.97 873.25,-224 775.32,-186.97 741.75,-203.8 634,-188.04"/>
<polygon fill="midnightblue" stroke="midnightblue" points="634.45,-184.57 624.03,-186.52 633.39,-191.49 634.45,-184.57"/>
</g>
<!-- Node16&#45;&gt;Node6 -->
<g id="edge32" class="edge">
<title>Node16&#45;&gt;Node6</title>
<path fill="none" stroke="midnightblue" d="M1036.74,-297C1084.83,-285.72 1163.05,-265.96 1171.25,-255 1227.89,-179.34 1173.91,-109.88 1096.25,-56 1042.15,-18.47 841.38,-12.15 758.94,-11.15"/>
<polygon fill="midnightblue" stroke="midnightblue" points="758.84,-7.65 748.8,-11.05 758.76,-14.65 758.84,-7.65"/>
</g>
<!-- Node17 -->
<g id="node17" class="node">
<title>Node17</title>
<g id="a_node17"><a xlink:href="HealthBehaviour_8hpp.html" target="_top" xlink:title=" ">
<polygon fill="none" stroke="black" points="1034.25,-224.5 1034.25,-254.5 1162.25,-254.5 1162.25,-224.5 1034.25,-224.5"/>
<text text-anchor="start" x="1042.25" y="-242.5" font-family="Helvetica,sans-Serif" font-size="10.00">../Scripts/Common/Health</text>
<text text-anchor="middle" x="1098.25" y="-231.5" font-family="Helvetica,sans-Serif" font-size="10.00">Behaviour.hpp</text>
</a>
</g>
</g>
<!-- Node16&#45;&gt;Node17 -->
<g id="edge26" class="edge">
<title>Node16&#45;&gt;Node17</title>
<path fill="none" stroke="midnightblue" d="M1012.6,-296.73C1026.82,-287.4 1049.78,-272.32 1068.35,-260.13"/>
<polygon fill="midnightblue" stroke="midnightblue" points="1070.35,-263 1076.79,-254.59 1066.51,-257.15 1070.35,-263"/>
</g>
<!-- Node17&#45;&gt;Node6 -->
<g id="edge30" class="edge">
<title>Node17&#45;&gt;Node6</title>
<path fill="none" stroke="midnightblue" d="M1102.15,-224.48C1104.74,-214.42 1107.91,-200.49 1109.25,-188 1115.76,-127.54 1120,-94.89 1073.25,-56 1026.13,-16.8 838.86,-11.39 759.3,-10.89"/>
<polygon fill="midnightblue" stroke="midnightblue" points="758.83,-7.39 748.82,-10.85 758.8,-14.39 758.83,-7.39"/>
</g>
<!-- Node17&#45;&gt;Node12 -->
<g id="edge31" class="edge">
<title>Node17&#45;&gt;Node12</title>
<path fill="none" stroke="midnightblue" d="M1033.88,-233.19C927.96,-224.36 710.31,-205.87 526.25,-188 514.02,-186.81 500.81,-185.45 488.53,-184.15"/>
<polygon fill="midnightblue" stroke="midnightblue" points="488.79,-180.66 478.48,-183.08 488.05,-187.62 488.79,-180.66"/>
</g>
<!-- Node18 -->
<g id="node18" class="node">
<title>Node18</title>
<g id="a_node18"><a xlink:href="BehaviourScript_8hpp.html" target="_top" xlink:title=" ">
<polygon fill="none" stroke="black" points="996.25,-168.5 996.25,-187.5 1100.25,-187.5 1100.25,-168.5 996.25,-168.5"/>
<text text-anchor="middle" x="1048.25" y="-175.5" font-family="Helvetica,sans-Serif" font-size="10.00">BehaviourScript.hpp</text>
</a>
</g>
</g>
<!-- Node17&#45;&gt;Node18 -->
<g id="edge27" class="edge">
<title>Node17&#45;&gt;Node18</title>
<path fill="none" stroke="midnightblue" d="M1086.4,-224.4C1079.14,-215.75 1069.8,-204.64 1062.18,-195.58"/>
<polygon fill="midnightblue" stroke="midnightblue" points="1064.64,-193.06 1055.53,-187.66 1059.28,-197.57 1064.64,-193.06"/>
</g>
<!-- Node18&#45;&gt;Node5 -->
<g id="edge28" class="edge">
<title>Node18&#45;&gt;Node5</title>
<path fill="none" stroke="midnightblue" d="M1020.41,-168.49C991.71,-159.64 945.72,-145.26 906.25,-132 853.52,-114.29 792.75,-92.41 756.2,-79.09"/>
<polygon fill="midnightblue" stroke="midnightblue" points="757.16,-75.71 746.56,-75.57 754.76,-82.29 757.16,-75.71"/>
</g>
<!-- Node18&#45;&gt;Node15 -->
<g id="edge29" class="edge">
<title>Node18&#45;&gt;Node15</title>
<path fill="none" stroke="midnightblue" d="M1006.9,-168.44C958.85,-158.5 879.94,-142.18 830.93,-132.04"/>
<polygon fill="midnightblue" stroke="midnightblue" points="831.45,-128.57 820.94,-129.97 830.03,-135.42 831.45,-128.57"/>
</g>
<!-- Node21&#45;&gt;Node17 -->
<g id="edge39" class="edge">
<title>Node21&#45;&gt;Node17</title>
<path fill="none" stroke="midnightblue" d="M1132.7,-291.4C1127.11,-283.13 1119.92,-272.51 1113.55,-263.1"/>
<polygon fill="midnightblue" stroke="midnightblue" points="1116.28,-260.9 1107.78,-254.58 1110.49,-264.82 1116.28,-260.9"/>
</g>
<!-- Node21&#45;&gt;Node18 -->
<g id="edge36" class="edge">
<title>Node21&#45;&gt;Node18</title>
<path fill="none" stroke="midnightblue" d="M1154.59,-291.47C1168.08,-274.34 1185.96,-245.05 1171.25,-224 1157.23,-203.94 1133.26,-192.8 1110.18,-186.61"/>
<polygon fill="midnightblue" stroke="midnightblue" points="1110.92,-183.19 1100.38,-184.26 1109.28,-190 1110.92,-183.19"/>
</g>
<!-- Node22 -->
<g id="node22" class="node">
<title>Node22</title>
<g id="a_node22"><a xlink:href="CoolDownBehaviour_8hpp.html" target="_top" xlink:title=" ">
<polygon fill="none" stroke="black" points="1256.25,-230 1256.25,-249 1428.25,-249 1428.25,-230 1256.25,-230"/>
<text text-anchor="middle" x="1342.25" y="-237" font-family="Helvetica,sans-Serif" font-size="10.00">../Common/CoolDownBehaviour.hpp</text>
</a>
</g>
</g>
<!-- Node21&#45;&gt;Node22 -->
<g id="edge37" class="edge">
<title>Node21&#45;&gt;Node22</title>
<path fill="none" stroke="midnightblue" d="M1185.65,-291.4C1221.67,-279.69 1272.31,-263.23 1306.15,-252.23"/>
<polygon fill="midnightblue" stroke="midnightblue" points="1307.65,-255.43 1316.08,-249.01 1305.48,-248.77 1307.65,-255.43"/>
</g>
<!-- Node22&#45;&gt;Node18 -->
<g id="edge38" class="edge">
<title>Node22&#45;&gt;Node18</title>
<path fill="none" stroke="midnightblue" d="M1300.13,-229.98C1247.41,-219.3 1157.12,-201.03 1100.18,-189.51"/>
<polygon fill="midnightblue" stroke="midnightblue" points="1100.79,-186.06 1090.3,-187.51 1099.4,-192.92 1100.79,-186.06"/>
</g>
<!-- Node23&#45;&gt;Node6 -->
<g id="edge53" class="edge">
<title>Node23&#45;&gt;Node6</title>
<path fill="none" stroke="midnightblue" d="M866.49,-291.48C902.38,-265.19 975.9,-204.53 1002.25,-132 1009.68,-111.55 998.49,-62.17 992.25,-56 959.96,-24.06 825.03,-14.72 759.41,-12.05"/>
<polygon fill="midnightblue" stroke="midnightblue" points="759.25,-8.54 749.12,-11.66 758.98,-15.53 759.25,-8.54"/>
</g>
<!-- Node23&#45;&gt;Node12 -->
<g id="edge41" class="edge">
<title>Node23&#45;&gt;Node12</title>
<path fill="none" stroke="midnightblue" d="M793.81,-291.48C759.75,-282.02 714.54,-268.78 675.25,-255 640.83,-242.93 633.73,-235.9 599.25,-224 561.18,-210.86 517.03,-198.52 485.1,-190.1"/>
<polygon fill="midnightblue" stroke="midnightblue" points="485.74,-186.65 475.18,-187.51 483.97,-193.42 485.74,-186.65"/>
</g>
<!-- Node23&#45;&gt;Node17 -->
<g id="edge46" class="edge">
<title>Node23&#45;&gt;Node17</title>
<path fill="none" stroke="midnightblue" d="M900.62,-291.48C939.65,-281.41 992.42,-267.8 1033.61,-257.17"/>
<polygon fill="midnightblue" stroke="midnightblue" points="1034.74,-260.5 1043.54,-254.61 1032.99,-253.72 1034.74,-260.5"/>
</g>
<!-- Node23&#45;&gt;Node18 -->
<g id="edge42" class="edge">
<title>Node23&#45;&gt;Node18</title>
<path fill="none" stroke="midnightblue" d="M902.9,-291.42C928.58,-283.35 958.44,-271.49 982.25,-255 1005.28,-239.05 1025.35,-213.27 1037.14,-196.23"/>
<polygon fill="midnightblue" stroke="midnightblue" points="1040.14,-198.04 1042.8,-187.78 1034.32,-194.14 1040.14,-198.04"/>
</g>
<!-- Node24 -->
<g id="node24" class="node">
<title>Node24</title>
<g id="a_node24"><a xlink:href="RigidBody_8hpp.html" target="_top" xlink:title=" ">
<polygon fill="none" stroke="black" points="915.25,-112.5 915.25,-131.5 993.25,-131.5 993.25,-112.5 915.25,-112.5"/>
<text text-anchor="middle" x="954.25" y="-119.5" font-family="Helvetica,sans-Serif" font-size="10.00">RigidBody.hpp</text>
</a>
</g>
</g>
<!-- Node23&#45;&gt;Node24 -->
<g id="edge43" class="edge">
<title>Node23&#45;&gt;Node24</title>
<path fill="none" stroke="midnightblue" d="M854.55,-291.48C873.96,-258.68 922.33,-176.95 943.75,-140.74"/>
<polygon fill="midnightblue" stroke="midnightblue" points="946.95,-142.21 949.03,-131.82 940.93,-138.64 946.95,-142.21"/>
</g>
<!-- Node25 -->
<g id="node25" class="node">
<title>Node25</title>
<g id="a_node25"><a xlink:href="MapNode_8hpp.html" target="_top" xlink:title=" ">
<polygon fill="none" stroke="black" points="684.25,-230 684.25,-249 810.25,-249 810.25,-230 684.25,-230"/>
<text text-anchor="middle" x="747.25" y="-237" font-family="Helvetica,sans-Serif" font-size="10.00">../../Structs/MapNode.hpp</text>
</a>
</g>
</g>
<!-- Node23&#45;&gt;Node25 -->
<g id="edge47" class="edge">
<title>Node23&#45;&gt;Node25</title>
<path fill="none" stroke="midnightblue" d="M824.77,-291.4C808.17,-280.5 785.3,-265.48 768.7,-254.58"/>
<polygon fill="midnightblue" stroke="midnightblue" points="770.49,-251.57 760.21,-249.01 766.65,-257.42 770.49,-251.57"/>
</g>
<!-- Node27 -->
<g id="node27" class="node">
<title>Node27</title>
<g id="a_node27"><a xlink:title=" ">
<polygon fill="none" stroke="#bfbfbf" points="828.75,-230 828.75,-249 863.75,-249 863.75,-230 828.75,-230"/>
<text text-anchor="middle" x="846.25" y="-237" font-family="Helvetica,sans-Serif" font-size="10.00">map</text>
</a>
</g>
</g>
<!-- Node23&#45;&gt;Node27 -->
<g id="edge52" class="edge">
<title>Node23&#45;&gt;Node27</title>
<path fill="none" stroke="midnightblue" d="M846.25,-291.4C846.25,-282.06 846.25,-269.71 846.25,-259.52"/>
<polygon fill="midnightblue" stroke="midnightblue" points="849.75,-259.19 846.25,-249.19 842.75,-259.19 849.75,-259.19"/>
</g>
<!-- Node24&#45;&gt;Node5 -->
<g id="edge44" class="edge">
<title>Node24&#45;&gt;Node5</title>
<path fill="none" stroke="midnightblue" d="M917.65,-112.44C877.52,-103.06 813.05,-87.99 769.47,-77.8"/>
<polygon fill="midnightblue" stroke="midnightblue" points="770.22,-74.38 759.68,-75.52 768.62,-81.2 770.22,-74.38"/>
</g>
<!-- Node24&#45;&gt;Node8 -->
<g id="edge45" class="edge">
<title>Node24&#45;&gt;Node8</title>
<path fill="none" stroke="midnightblue" d="M954.25,-112.08C954.25,-105.01 954.25,-94.86 954.25,-85.99"/>
<polygon fill="midnightblue" stroke="midnightblue" points="957.75,-85.75 954.25,-75.75 950.75,-85.75 957.75,-85.75"/>
</g>
<!-- Node25&#45;&gt;Node4 -->
<g id="edge50" class="edge">
<title>Node25&#45;&gt;Node4</title>
<path fill="none" stroke="midnightblue" d="M723.18,-229.98C694.24,-219.72 645.49,-202.46 612.85,-190.9"/>
<polygon fill="midnightblue" stroke="midnightblue" points="613.87,-187.55 603.28,-187.51 611.54,-194.15 613.87,-187.55"/>
</g>
<!-- Node25&#45;&gt;Node6 -->
<g id="edge49" class="edge">
<title>Node25&#45;&gt;Node6</title>
<path fill="none" stroke="midnightblue" d="M749.87,-229.93C754.47,-215.85 765.1,-187.44 781.25,-168 798.52,-147.21 818.05,-156.11 830.25,-132 834.27,-124.07 833.65,-120.21 830.25,-112 813.99,-72.73 773.67,-41.84 747.43,-25.03"/>
<polygon fill="midnightblue" stroke="midnightblue" points="749.14,-21.97 738.8,-19.68 745.45,-27.92 749.14,-21.97"/>
</g>
<!-- Node25&#45;&gt;Node10 -->
<g id="edge48" class="edge">
<title>Node25&#45;&gt;Node10</title>
<path fill="none" stroke="midnightblue" d="M684.08,-230.83C627.32,-222.77 549.46,-208.39 526.25,-188 512.86,-176.23 506.93,-156.3 504.31,-141.61"/>
<polygon fill="midnightblue" stroke="midnightblue" points="507.76,-141.01 502.88,-131.61 500.83,-142 507.76,-141.01"/>
</g>
<!-- Node26 -->
<g id="node26" class="node">
<title>Node26</title>
<g id="a_node26"><a xlink:href="TileType_8hpp.html" target="_top" xlink:title=" ">
<polygon fill="none" stroke="black" points="790.25,-168.5 790.25,-187.5 902.25,-187.5 902.25,-168.5 790.25,-168.5"/>
<text text-anchor="middle" x="846.25" y="-175.5" font-family="Helvetica,sans-Serif" font-size="10.00">../Enums/TileType.hpp</text>
</a>
</g>
</g>
<!-- Node25&#45;&gt;Node26 -->
<g id="edge51" class="edge">
<title>Node25&#45;&gt;Node26</title>
<path fill="none" stroke="midnightblue" d="M761.44,-229.98C777.61,-220.25 804.28,-204.23 823.4,-192.74"/>
<polygon fill="midnightblue" stroke="midnightblue" points="825.33,-195.66 832.09,-187.51 821.72,-189.66 825.33,-195.66"/>
</g>
<!-- Node28&#45;&gt;Node8 -->
<g id="edge56" class="edge">
<title>Node28&#45;&gt;Node8</title>
<path fill="none" stroke="midnightblue" d="M1372.35,-292.65C1375.7,-292.08 1379.01,-291.53 1382.25,-291 1492.81,-272.92 1694.86,-311.78 1625.25,-224 1545.09,-122.92 1123.8,-80.73 993.01,-69.94"/>
<polygon fill="midnightblue" stroke="midnightblue" points="993.29,-66.45 983.04,-69.13 992.73,-73.43 993.29,-66.45"/>
</g>
<!-- Node28&#45;&gt;Node17 -->
<g id="edge57" class="edge">
<title>Node28&#45;&gt;Node17</title>
<path fill="none" stroke="midnightblue" d="M1257.2,-291.4C1226.35,-281.52 1184.93,-268.25 1152.1,-257.74"/>
<polygon fill="midnightblue" stroke="midnightblue" points="1152.8,-254.29 1142.21,-254.58 1150.67,-260.96 1152.8,-254.29"/>
</g>
<!-- Node28&#45;&gt;Node18 -->
<g id="edge55" class="edge">
<title>Node28&#45;&gt;Node18</title>
<path fill="none" stroke="midnightblue" d="M1364.6,-291.41C1412.27,-277.96 1464.99,-255.14 1437.25,-224 1431.87,-217.96 1219.4,-196.02 1110.8,-185.17"/>
<polygon fill="midnightblue" stroke="midnightblue" points="1110.92,-181.66 1100.62,-184.15 1110.23,-188.63 1110.92,-181.66"/>
</g>
<!-- Node28&#45;&gt;Node22 -->
<g id="edge58" class="edge">
<title>Node28&#45;&gt;Node22</title>
<path fill="none" stroke="midnightblue" d="M1310.15,-291.4C1316.35,-281.56 1324.67,-268.38 1331.28,-257.89"/>
<polygon fill="midnightblue" stroke="midnightblue" points="1334.39,-259.52 1336.77,-249.19 1328.47,-255.79 1334.39,-259.52"/>
</g>
<!-- Node29 -->
<g id="node29" class="node">
<title>Node29</title>
<g id="a_node29"><a xlink:href="LevelMode_8hpp.html" target="_top" xlink:title=" ">
<polygon fill="none" stroke="black" points="1484.75,-230 1484.75,-249 1615.75,-249 1615.75,-230 1484.75,-230"/>
<text text-anchor="middle" x="1550.25" y="-237" font-family="Helvetica,sans-Serif" font-size="10.00">../../Enums/LevelMode.hpp</text>
</a>
</g>
</g>
<!-- Node28&#45;&gt;Node29 -->
<g id="edge59" class="edge">
<title>Node28&#45;&gt;Node29</title>
<path fill="none" stroke="midnightblue" d="M1354.97,-291.48C1400.77,-279.52 1465.7,-262.57 1507.89,-251.56"/>
<polygon fill="midnightblue" stroke="midnightblue" points="1508.79,-254.94 1517.58,-249.03 1507.02,-248.17 1508.79,-254.94"/>
</g>
<!-- Node30&#45;&gt;Node6 -->
<g id="edge62" class="edge">
<title>Node30&#45;&gt;Node6</title>
<path fill="none" stroke="midnightblue" d="M294.66,-168.19C301.1,-159.23 311.2,-144.87 319.25,-132 339.84,-99.1 330,-77.59 362.25,-56 414.93,-20.73 606.96,-13.11 687.41,-11.46"/>
<polygon fill="midnightblue" stroke="midnightblue" points="687.62,-14.95 697.55,-11.27 687.49,-7.95 687.62,-14.95"/>
</g>
<!-- Node30&#45;&gt;Node9 -->
<g id="edge63" class="edge">
<title>Node30&#45;&gt;Node9</title>
<path fill="none" stroke="midnightblue" d="M274.17,-168.26C262.9,-160.35 247.91,-147.58 241.25,-132 233.65,-114.19 247.67,-95.39 260.96,-82.61"/>
<polygon fill="midnightblue" stroke="midnightblue" points="263.42,-85.11 268.54,-75.84 258.75,-79.89 263.42,-85.11"/>
</g>
<!-- Node30&#45;&gt;Node10 -->
<g id="edge64" class="edge">
<title>Node30&#45;&gt;Node10</title>
<path fill="none" stroke="midnightblue" d="M322.16,-168.44C362.82,-158.18 430.44,-141.12 470.24,-131.08"/>
<polygon fill="midnightblue" stroke="midnightblue" points="471.12,-134.46 479.96,-128.62 469.41,-127.68 471.12,-134.46"/>
</g>
<!-- Node30&#45;&gt;Node13 -->
<g id="edge61" class="edge">
<title>Node30&#45;&gt;Node13</title>
<path fill="none" stroke="midnightblue" d="M286.93,-168.08C285.87,-160.93 284.35,-150.64 283.02,-141.69"/>
<polygon fill="midnightblue" stroke="midnightblue" points="286.48,-141.13 281.55,-131.75 279.55,-142.16 286.48,-141.13"/>
</g>
<!-- Node31&#45;&gt;Node4 -->
<g id="edge67" class="edge">
<title>Node31&#45;&gt;Node4</title>
<path fill="none" stroke="midnightblue" d="M530.42,-229.98C539.14,-220.87 553.16,-206.24 563.94,-194.98"/>
<polygon fill="midnightblue" stroke="midnightblue" points="566.71,-197.15 571.1,-187.51 561.66,-192.31 566.71,-197.15"/>
</g>
<!-- Node31&#45;&gt;Node6 -->
<g id="edge66" class="edge">
<title>Node31&#45;&gt;Node6</title>
<path fill="none" stroke="midnightblue" d="M465.61,-229.98C426.55,-220.95 383.61,-202.93 395.25,-168 415.62,-106.89 431.19,-87.74 487.25,-56 551.2,-19.8 638.9,-12.11 687.38,-10.84"/>
<polygon fill="midnightblue" stroke="midnightblue" points="687.74,-14.33 697.67,-10.65 687.61,-7.33 687.74,-14.33"/>
</g>
<!-- Node32&#45;&gt;Node3 -->
<g id="edge69" class="edge">
<title>Node32&#45;&gt;Node3</title>
<path fill="none" stroke="midnightblue" d="M151.25,-112.08C151.25,-105.01 151.25,-94.86 151.25,-85.99"/>
<polygon fill="midnightblue" stroke="midnightblue" points="154.75,-85.75 151.25,-75.75 147.75,-85.75 154.75,-85.75"/>
</g>
</g>
</svg>
