<?xml version="1.0" encoding="UTF-8" standalone="no"?>
<!DOCTYPE svg PUBLIC "-//W3C//DTD SVG 1.1//EN"
 "http://www.w3.org/Graphics/SVG/1.1/DTD/svg11.dtd">
<!-- Generated by graphviz version 2.44.0 ()
 -->
<!-- Title: src/Enums/HeroName.hpp Pages: 1 -->
<!--zoomable 229 -->
<svg id="main" version="1.1" xmlns="http://www.w3.org/2000/svg" xmlns:xlink="http://www.w3.org/1999/xlink" xml:space="preserve" onload="init(evt)">
<style type="text/css"><![CDATA[
.edge:hover path { stroke: red; }
.edge:hover polygon { stroke: red; fill: red; }
]]></style>
<script type="text/javascript"><![CDATA[
var edges = document.getElementsByTagName('g');
if (edges && edges.length) {
  for (var i=0;i<edges.length;i++) {
    if (edges[i].id.substr(0,4)=='edge') {
      edges[i].setAttribute('class','edge');
    }
  }
}
]]></script>
        <defs>
                <circle id="rim" cx="0" cy="0" r="7"/>
                <circle id="rim2" cx="0" cy="0" r="3.5"/>
                <g id="zoomPlus">
                        <use xlink:href="#rim" fill="#404040">
                                <set attributeName="fill" to="#808080" begin="zoomplus.mouseover" end="zoomplus.mouseout"/>
                        </use>
                        <path d="M-4,0h8M0,-4v8" fill="none" stroke="white" stroke-width="1.5" pointer-events="none"/>
                </g>
                <g id="zoomMin">
                        <use xlink:href="#rim" fill="#404040">
                                <set attributeName="fill" to="#808080" begin="zoomminus.mouseover" end="zoomminus.mouseout"/>
                        </use>
                        <path d="M-4,0h8" fill="none" stroke="white" stroke-width="1.5" pointer-events="none"/>
                </g>
                <g id="dirArrow">
                        <path fill="none" stroke="white" stroke-width="1.5" d="M0,-3.0v7 M-2.5,-0.5L0,-3.0L2.5,-0.5"/>
                </g>
               <g id="resetDef">
                       <use xlink:href="#rim2" fill="#404040">
                               <set attributeName="fill" to="#808080" begin="reset.mouseover" end="reset.mouseout"/>
                       </use>
               </g>
        </defs>

<script type="text/javascript">
var viewWidth = 2199;
var viewHeight = 229;
var sectionId = 'dynsection-0';
</script>
<script xlink:href="svgpan.js"/>
<svg id="graph" class="graph">
<g id="viewport">
<title>src/Enums/HeroName.hpp</title>
<!-- Node1 -->
<g id="node1" class="node">
<title>Node1</title>
<g id="a_node1"><a xlink:title=" ">
<polygon fill="#bfbfbf" stroke="black" points="432.5,-201.5 432.5,-220.5 563.5,-220.5 563.5,-201.5 432.5,-201.5"/>
<text text-anchor="middle" x="498" y="-208.5" font-family="Helvetica,sans-Serif" font-size="10.00">src/Enums/HeroName.hpp</text>
</a>
</g>
</g>
<!-- Node2 -->
<g id="node2" class="node">
<title>Node2</title>
<g id="a_node2"><a xlink:href="HeroPrefabFactory_8hpp.html" target="_top" xlink:title=" ">
<polygon fill="none" stroke="black" points="289,-134.5 289,-164.5 415,-164.5 415,-134.5 289,-134.5"/>
<text text-anchor="start" x="297" y="-152.5" font-family="Helvetica,sans-Serif" font-size="10.00">src/Factories/HeroPrefab</text>
<text text-anchor="middle" x="352" y="-141.5" font-family="Helvetica,sans-Serif" font-size="10.00">Factory.hpp</text>
</a>
</g>
</g>
<!-- Node1&#45;&gt;Node2 -->
<g id="edge1" class="edge">
<title>Node1&#45;&gt;Node2</title>
<path fill="none" stroke="midnightblue" d="M467.55,-197.59C443.88,-187.94 411.03,-174.56 386.41,-164.52"/>
<polygon fill="midnightblue" stroke="midnightblue" points="466.5,-200.94 477.08,-201.48 469.14,-194.46 466.5,-200.94"/>
</g>
<!-- Node6 -->
<g id="node6" class="node">
<title>Node6</title>
<g id="a_node6"><a xlink:href="PlayerData_8hpp.html" target="_top" xlink:title=" ">
<polygon fill="none" stroke="black" points="1200.5,-140 1200.5,-159 1333.5,-159 1333.5,-140 1200.5,-140"/>
<text text-anchor="middle" x="1267" y="-147" font-family="Helvetica,sans-Serif" font-size="10.00">src/Structs/PlayerData.hpp</text>
</a>
</g>
</g>
<!-- Node1&#45;&gt;Node6 -->
<g id="edge5" class="edge">
<title>Node1&#45;&gt;Node6</title>
<path fill="none" stroke="midnightblue" d="M573.62,-204.15C723.83,-192.53 1057.58,-166.7 1200.23,-155.67"/>
<polygon fill="midnightblue" stroke="midnightblue" points="573.26,-200.67 563.56,-204.93 573.8,-207.65 573.26,-200.67"/>
</g>
<!-- Node19 -->
<g id="node19" class="node">
<title>Node19</title>
<g id="a_node19"><a xlink:href="HeroUtil_8hpp.html" target="_top" xlink:title=" ">
<polygon fill="none" stroke="black" points="443,-140 443,-159 553,-159 553,-140 443,-140"/>
<text text-anchor="middle" x="498" y="-147" font-family="Helvetica,sans-Serif" font-size="10.00">src/Utils/HeroUtil.hpp</text>
</a>
</g>
</g>
<!-- Node1&#45;&gt;Node19 -->
<g id="edge22" class="edge">
<title>Node1&#45;&gt;Node19</title>
<path fill="none" stroke="midnightblue" d="M498,-191.32C498,-180.5 498,-167.4 498,-159.01"/>
<polygon fill="midnightblue" stroke="midnightblue" points="494.5,-191.48 498,-201.48 501.5,-191.48 494.5,-191.48"/>
</g>
<!-- Node3 -->
<g id="node3" class="node">
<title>Node3</title>
<g id="a_node3"><a xlink:href="HeroPrefabFactory_8cpp.html" target="_top" xlink:title=" ">
<polygon fill="none" stroke="black" points="0,-67.5 0,-97.5 126,-97.5 126,-67.5 0,-67.5"/>
<text text-anchor="start" x="8" y="-85.5" font-family="Helvetica,sans-Serif" font-size="10.00">src/Factories/HeroPrefab</text>
<text text-anchor="middle" x="63" y="-74.5" font-family="Helvetica,sans-Serif" font-size="10.00">Factory.cpp</text>
</a>
</g>
</g>
<!-- Node2&#45;&gt;Node3 -->
<g id="edge2" class="edge">
<title>Node2&#45;&gt;Node3</title>
<path fill="none" stroke="midnightblue" d="M279.76,-132.25C232.39,-121.6 171.07,-107.81 125.74,-97.61"/>
<polygon fill="midnightblue" stroke="midnightblue" points="279.12,-135.7 289.65,-134.48 280.66,-128.87 279.12,-135.7"/>
</g>
<!-- Node4 -->
<g id="node4" class="node">
<title>Node4</title>
<g id="a_node4"><a xlink:href="LevelScene_8cpp.html" target="_top" xlink:title=" ">
<polygon fill="none" stroke="black" points="272.5,-73 272.5,-92 411.5,-92 411.5,-73 272.5,-73"/>
<text text-anchor="middle" x="342" y="-80" font-family="Helvetica,sans-Serif" font-size="10.00">src/Scenes/LevelScene.cpp</text>
</a>
</g>
</g>
<!-- Node2&#45;&gt;Node4 -->
<g id="edge3" class="edge">
<title>Node2&#45;&gt;Node4</title>
<path fill="none" stroke="midnightblue" d="M348.27,-124.25C346.54,-113.02 344.6,-100.38 343.34,-92.19"/>
<polygon fill="midnightblue" stroke="midnightblue" points="344.85,-125.04 349.83,-134.4 351.77,-123.98 344.85,-125.04"/>
</g>
<!-- Node5 -->
<g id="node5" class="node">
<title>Node5</title>
<g id="a_node5"><a xlink:href="MainScene_8cpp.html" target="_top" xlink:title=" ">
<polygon fill="none" stroke="black" points="430,-73 430,-92 566,-92 566,-73 430,-73"/>
<text text-anchor="middle" x="498" y="-80" font-family="Helvetica,sans-Serif" font-size="10.00">src/Scenes/MainScene.cpp</text>
</a>
</g>
</g>
<!-- Node2&#45;&gt;Node5 -->
<g id="edge4" class="edge">
<title>Node2&#45;&gt;Node5</title>
<path fill="none" stroke="midnightblue" d="M392.89,-130.3C421.05,-117.76 457.16,-101.68 478.89,-92.01"/>
<polygon fill="midnightblue" stroke="midnightblue" points="391.39,-127.13 383.68,-134.4 394.24,-133.53 391.39,-127.13"/>
</g>
<!-- Node6&#45;&gt;Node4 -->
<g id="edge13" class="edge">
<title>Node6&#45;&gt;Node4</title>
<path fill="none" stroke="midnightblue" d="M1190,-147.04C1041,-143.53 703.08,-132.18 421,-98 408.68,-96.51 395.38,-94.3 383.27,-92.06"/>
<polygon fill="midnightblue" stroke="midnightblue" points="1190.32,-150.55 1200.4,-147.28 1190.48,-143.55 1190.32,-150.55"/>
</g>
<!-- Node6&#45;&gt;Node5 -->
<g id="edge15" class="edge">
<title>Node6&#45;&gt;Node5</title>
<path fill="none" stroke="midnightblue" d="M1190.34,-145.74C1062.39,-140.51 797.42,-126.96 575,-98 563.13,-96.45 550.32,-94.26 538.62,-92.04"/>
<polygon fill="midnightblue" stroke="midnightblue" points="1190.3,-149.25 1200.43,-146.15 1190.58,-142.25 1190.3,-149.25"/>
</g>
<!-- Node7 -->
<g id="node7" class="node">
<title>Node7</title>
<g id="a_node7"><a xlink:href="LevelController_8cpp.html" target="_top" xlink:title=" ">
<polygon fill="none" stroke="black" points="1502,-73 1502,-92 1668,-92 1668,-73 1502,-73"/>
<text text-anchor="middle" x="1585" y="-80" font-family="Helvetica,sans-Serif" font-size="10.00">src/Controllers/LevelController.cpp</text>
</a>
</g>
</g>
<!-- Node6&#45;&gt;Node7 -->
<g id="edge6" class="edge">
<title>Node6&#45;&gt;Node7</title>
<path fill="none" stroke="midnightblue" d="M1318.96,-137.88C1381.59,-125.08 1485.59,-103.82 1543.26,-92.03"/>
<polygon fill="midnightblue" stroke="midnightblue" points="1318,-134.5 1308.9,-139.94 1319.4,-141.36 1318,-134.5"/>
</g>
<!-- Node8 -->
<g id="node8" class="node">
<title>Node8</title>
<g id="a_node8"><a xlink:href="LevelSelectionController_8cpp.html" target="_top" xlink:title=" ">
<polygon fill="none" stroke="black" points="1686.5,-67.5 1686.5,-97.5 1833.5,-97.5 1833.5,-67.5 1686.5,-67.5"/>
<text text-anchor="start" x="1694.5" y="-85.5" font-family="Helvetica,sans-Serif" font-size="10.00">src/Controllers/LevelSelection</text>
<text text-anchor="middle" x="1760" y="-74.5" font-family="Helvetica,sans-Serif" font-size="10.00">Controller.cpp</text>
</a>
</g>
</g>
<!-- Node6&#45;&gt;Node8 -->
<g id="edge7" class="edge">
<title>Node6&#45;&gt;Node8</title>
<path fill="none" stroke="midnightblue" d="M1343.58,-140.24C1426.06,-131.06 1561.07,-115.26 1677,-98 1680.04,-97.55 1683.14,-97.07 1686.26,-96.58"/>
<polygon fill="midnightblue" stroke="midnightblue" points="1343.09,-136.77 1333.54,-141.35 1343.86,-143.73 1343.09,-136.77"/>
</g>
<!-- Node9 -->
<g id="node9" class="node">
<title>Node9</title>
<g id="a_node9"><a xlink:href="SaveGameManager_8hpp.html" target="_top" xlink:title=" ">
<polygon fill="none" stroke="black" points="1851.5,-67.5 1851.5,-97.5 1988.5,-97.5 1988.5,-67.5 1851.5,-67.5"/>
<text text-anchor="start" x="1859.5" y="-85.5" font-family="Helvetica,sans-Serif" font-size="10.00">src/Persistence/SaveGame</text>
<text text-anchor="middle" x="1920" y="-74.5" font-family="Helvetica,sans-Serif" font-size="10.00">Manager.hpp</text>
</a>
</g>
</g>
<!-- Node6&#45;&gt;Node9 -->
<g id="edge8" class="edge">
<title>Node6&#45;&gt;Node9</title>
<path fill="none" stroke="midnightblue" d="M1343.69,-144.12C1454.16,-137.27 1664.36,-122.26 1842,-98 1845,-97.59 1848.06,-97.14 1851.15,-96.67"/>
<polygon fill="midnightblue" stroke="midnightblue" points="1343.4,-140.63 1333.64,-144.74 1343.83,-147.62 1343.4,-140.63"/>
</g>
<!-- Node12 -->
<g id="node12" class="node">
<title>Node12</title>
<g id="a_node12"><a xlink:href="CheatManager_8cpp.html" target="_top" xlink:title=" ">
<polygon fill="none" stroke="black" points="1939,-0.5 1939,-30.5 2045,-30.5 2045,-0.5 1939,-0.5"/>
<text text-anchor="start" x="1947" y="-18.5" font-family="Helvetica,sans-Serif" font-size="10.00">src/Scripts/Common</text>
<text text-anchor="middle" x="1992" y="-7.5" font-family="Helvetica,sans-Serif" font-size="10.00">/CheatManager.cpp</text>
</a>
</g>
</g>
<!-- Node6&#45;&gt;Node12 -->
<g id="edge17" class="edge">
<title>Node6&#45;&gt;Node12</title>
<path fill="none" stroke="midnightblue" d="M1343.82,-148.97C1522.48,-149.27 1954.07,-145.07 1998,-98 2014.84,-79.95 2006.02,-48.79 1998.64,-30.67"/>
<polygon fill="midnightblue" stroke="midnightblue" points="1343.72,-145.47 1333.71,-148.95 1343.7,-152.47 1343.72,-145.47"/>
</g>
<!-- Node13 -->
<g id="node13" class="node">
<title>Node13</title>
<g id="a_node13"><a xlink:href="GameWonBehaviour_8cpp.html" target="_top" xlink:title=" ">
<polygon fill="none" stroke="black" points="2063.5,-0.5 2063.5,-30.5 2190.5,-30.5 2190.5,-0.5 2063.5,-0.5"/>
<text text-anchor="start" x="2071.5" y="-18.5" font-family="Helvetica,sans-Serif" font-size="10.00">src/Scripts/Common</text>
<text text-anchor="middle" x="2127" y="-7.5" font-family="Helvetica,sans-Serif" font-size="10.00">/GameWonBehaviour.cpp</text>
</a>
</g>
</g>
<!-- Node6&#45;&gt;Node13 -->
<g id="edge18" class="edge">
<title>Node6&#45;&gt;Node13</title>
<path fill="none" stroke="midnightblue" d="M1343.85,-148.72C1509.32,-148.33 1894.22,-142.5 2016,-98 2055.97,-83.39 2094.02,-49.7 2113.5,-30.52"/>
<polygon fill="midnightblue" stroke="midnightblue" points="1343.74,-145.22 1333.75,-148.74 1343.75,-152.22 1343.74,-145.22"/>
</g>
<!-- Node14 -->
<g id="node14" class="node">
<title>Node14</title>
<g id="a_node14"><a xlink:href="LevelSelectionScene_8cpp.html" target="_top" xlink:title=" ">
<polygon fill="none" stroke="black" points="766,-67.5 766,-97.5 900,-97.5 900,-67.5 766,-67.5"/>
<text text-anchor="start" x="774" y="-85.5" font-family="Helvetica,sans-Serif" font-size="10.00">src/Scenes/LevelSelection</text>
<text text-anchor="middle" x="833" y="-74.5" font-family="Helvetica,sans-Serif" font-size="10.00">Scene.cpp</text>
</a>
</g>
</g>
<!-- Node6&#45;&gt;Node14 -->
<g id="edge14" class="edge">
<title>Node6&#45;&gt;Node14</title>
<path fill="none" stroke="midnightblue" d="M1190.23,-138.76C1117.63,-129.3 1005.7,-114.03 909,-98 906.08,-97.52 903.11,-97.01 900.11,-96.49"/>
<polygon fill="midnightblue" stroke="midnightblue" points="1189.84,-142.24 1200.21,-140.06 1190.75,-135.3 1189.84,-142.24"/>
</g>
<!-- Node15 -->
<g id="node15" class="node">
<title>Node15</title>
<g id="a_node15"><a xlink:href="StatsScene_8cpp.html" target="_top" xlink:title=" ">
<polygon fill="none" stroke="black" points="918,-73 918,-92 1056,-92 1056,-73 918,-73"/>
<text text-anchor="middle" x="987" y="-80" font-family="Helvetica,sans-Serif" font-size="10.00">src/Scenes/StatsScene.cpp</text>
</a>
</g>
</g>
<!-- Node6&#45;&gt;Node15 -->
<g id="edge16" class="edge">
<title>Node6&#45;&gt;Node15</title>
<path fill="none" stroke="midnightblue" d="M1220.24,-137.64C1165.07,-124.84 1074.49,-103.81 1023.97,-92.08"/>
<polygon fill="midnightblue" stroke="midnightblue" points="1219.57,-141.08 1230.11,-139.94 1221.16,-134.26 1219.57,-141.08"/>
</g>
<!-- Node16 -->
<g id="node16" class="node">
<title>Node16</title>
<g id="a_node16"><a xlink:href="HealthBehaviour_8cpp.html" target="_top" xlink:title=" ">
<polygon fill="none" stroke="black" points="1074,-67.5 1074,-97.5 1184,-97.5 1184,-67.5 1074,-67.5"/>
<text text-anchor="start" x="1082" y="-85.5" font-family="Helvetica,sans-Serif" font-size="10.00">src/Scripts/Common</text>
<text text-anchor="middle" x="1129" y="-74.5" font-family="Helvetica,sans-Serif" font-size="10.00">/HealthBehaviour.cpp</text>
</a>
</g>
</g>
<!-- Node6&#45;&gt;Node16 -->
<g id="edge19" class="edge">
<title>Node6&#45;&gt;Node16</title>
<path fill="none" stroke="midnightblue" d="M1239.34,-135.47C1216.01,-124.49 1182.69,-108.79 1158.78,-97.53"/>
<polygon fill="midnightblue" stroke="midnightblue" points="1238.14,-138.77 1248.67,-139.87 1241.12,-132.44 1238.14,-138.77"/>
</g>
<!-- Node17 -->
<g id="node17" class="node">
<title>Node17</title>
<g id="a_node17"><a xlink:href="LevelData_8cpp.html" target="_top" xlink:title=" ">
<polygon fill="none" stroke="black" points="1202,-73 1202,-92 1332,-92 1332,-73 1202,-73"/>
<text text-anchor="middle" x="1267" y="-80" font-family="Helvetica,sans-Serif" font-size="10.00">src/Structs/LevelData.cpp</text>
</a>
</g>
</g>
<!-- Node6&#45;&gt;Node17 -->
<g id="edge20" class="edge">
<title>Node6&#45;&gt;Node17</title>
<path fill="none" stroke="midnightblue" d="M1267,-129.54C1267,-117.17 1267,-101.62 1267,-92.13"/>
<polygon fill="midnightblue" stroke="midnightblue" points="1263.5,-129.73 1267,-139.73 1270.5,-129.73 1263.5,-129.73"/>
</g>
<!-- Node18 -->
<g id="node18" class="node">
<title>Node18</title>
<g id="a_node18"><a xlink:href="PlayerData_8cpp.html" target="_top" xlink:title=" ">
<polygon fill="none" stroke="black" points="1350.5,-73 1350.5,-92 1483.5,-92 1483.5,-73 1350.5,-73"/>
<text text-anchor="middle" x="1417" y="-80" font-family="Helvetica,sans-Serif" font-size="10.00">src/Structs/PlayerData.cpp</text>
</a>
</g>
</g>
<!-- Node6&#45;&gt;Node18 -->
<g id="edge21" class="edge">
<title>Node6&#45;&gt;Node18</title>
<path fill="none" stroke="midnightblue" d="M1296.35,-135.78C1326.06,-122.91 1371.18,-103.35 1397,-92.17"/>
<polygon fill="midnightblue" stroke="midnightblue" points="1294.7,-132.68 1286.92,-139.87 1297.49,-139.1 1294.7,-132.68"/>
</g>
<!-- Node10 -->
<g id="node10" class="node">
<title>Node10</title>
<g id="a_node10"><a xlink:href="SaveGameManager_8cpp.html" target="_top" xlink:title=" ">
<polygon fill="none" stroke="black" points="1633.5,-0.5 1633.5,-30.5 1770.5,-30.5 1770.5,-0.5 1633.5,-0.5"/>
<text text-anchor="start" x="1641.5" y="-18.5" font-family="Helvetica,sans-Serif" font-size="10.00">src/Persistence/SaveGame</text>
<text text-anchor="middle" x="1702" y="-7.5" font-family="Helvetica,sans-Serif" font-size="10.00">Manager.cpp</text>
</a>
</g>
</g>
<!-- Node9&#45;&gt;Node10 -->
<g id="edge9" class="edge">
<title>Node9&#45;&gt;Node10</title>
<path fill="none" stroke="midnightblue" d="M1863.25,-64.58C1827.84,-54.02 1782.8,-40.59 1749.33,-30.61"/>
<polygon fill="midnightblue" stroke="midnightblue" points="1862.38,-67.97 1872.97,-67.48 1864.38,-61.26 1862.38,-67.97"/>
</g>
<!-- Node11 -->
<g id="node11" class="node">
<title>Node11</title>
<g id="a_node11"><a xlink:href="SaveSelectionScene_8cpp.html" target="_top" xlink:title=" ">
<polygon fill="none" stroke="black" points="1789,-0.5 1789,-30.5 1921,-30.5 1921,-0.5 1789,-0.5"/>
<text text-anchor="start" x="1797" y="-18.5" font-family="Helvetica,sans-Serif" font-size="10.00">src/Scenes/SaveSelection</text>
<text text-anchor="middle" x="1855" y="-7.5" font-family="Helvetica,sans-Serif" font-size="10.00">Scene.cpp</text>
</a>
</g>
</g>
<!-- Node9&#45;&gt;Node11 -->
<g id="edge10" class="edge">
<title>Node9&#45;&gt;Node11</title>
<path fill="none" stroke="midnightblue" d="M1898.81,-60.31C1889.06,-50.56 1877.76,-39.26 1869.08,-30.58"/>
<polygon fill="midnightblue" stroke="midnightblue" points="1896.35,-62.8 1905.9,-67.4 1901.3,-57.85 1896.35,-62.8"/>
</g>
<!-- Node9&#45;&gt;Node12 -->
<g id="edge11" class="edge">
<title>Node9&#45;&gt;Node12</title>
<path fill="none" stroke="midnightblue" d="M1943.15,-60.6C1954.02,-50.78 1966.7,-39.34 1976.41,-30.58"/>
<polygon fill="midnightblue" stroke="midnightblue" points="1940.7,-58.1 1935.62,-67.4 1945.39,-63.29 1940.7,-58.1"/>
</g>
<!-- Node9&#45;&gt;Node13 -->
<g id="edge12" class="edge">
<title>Node9&#45;&gt;Node13</title>
<path fill="none" stroke="midnightblue" d="M1974.32,-64.44C2007.87,-53.91 2050.41,-40.55 2082.06,-30.61"/>
<polygon fill="midnightblue" stroke="midnightblue" points="1973.15,-61.14 1964.66,-67.48 1975.25,-67.82 1973.15,-61.14"/>
</g>
<!-- Node19&#45;&gt;Node5 -->
<g id="edge24" class="edge">
<title>Node19&#45;&gt;Node5</title>
<path fill="none" stroke="midnightblue" d="M498,-129.54C498,-117.17 498,-101.62 498,-92.13"/>
<polygon fill="midnightblue" stroke="midnightblue" points="494.5,-129.73 498,-139.73 501.5,-129.73 494.5,-129.73"/>
</g>
<!-- Node20 -->
<g id="node20" class="node">
<title>Node20</title>
<g id="a_node20"><a xlink:href="HUDController_8cpp.html" target="_top" xlink:title=" ">
<polygon fill="none" stroke="black" points="584,-73 584,-92 748,-92 748,-73 584,-73"/>
<text text-anchor="middle" x="666" y="-80" font-family="Helvetica,sans-Serif" font-size="10.00">src/Controllers/HUDController.cpp</text>
</a>
</g>
</g>
<!-- Node19&#45;&gt;Node20 -->
<g id="edge23" class="edge">
<title>Node19&#45;&gt;Node20</title>
<path fill="none" stroke="midnightblue" d="M530.04,-136.1C563.39,-123.2 614.75,-103.33 643.87,-92.06"/>
<polygon fill="midnightblue" stroke="midnightblue" points="528.37,-133 520.31,-139.87 530.9,-139.52 528.37,-133"/>
</g>
<!-- Node21 -->
<g id="node21" class="node">
<title>Node21</title>
<g id="a_node21"><a xlink:href="HeroUtil_8cpp.html" target="_top" xlink:title=" ">
<polygon fill="none" stroke="black" points="144,-73 144,-92 254,-92 254,-73 144,-73"/>
<text text-anchor="middle" x="199" y="-80" font-family="Helvetica,sans-Serif" font-size="10.00">src/Utils/HeroUtil.cpp</text>
</a>
</g>
</g>
<!-- Node19&#45;&gt;Node21 -->
<g id="edge25" class="edge">
<title>Node19&#45;&gt;Node21</title>
<path fill="none" stroke="midnightblue" d="M447.58,-137.84C399.97,-127.72 326.59,-112.04 263,-98 254.32,-96.08 244.99,-93.99 236.21,-92"/>
<polygon fill="midnightblue" stroke="midnightblue" points="447.13,-141.32 457.63,-139.97 448.58,-134.47 447.13,-141.32"/>
</g>
</g>
</svg>
        <g id="navigator" transform="translate(0 0)" fill="#404254">
                <rect fill="#f2f5e9" fill-opacity="0.5" stroke="#606060" stroke-width=".5" x="0" y="0" width="60" height="60"/>
                <use id="zoomplus" xlink:href="#zoomPlus" x="17" y="9" onmousedown="handleZoom(evt,'in')"/>
                <use id="zoomminus" xlink:href="#zoomMin" x="42" y="9" onmousedown="handleZoom(evt,'out')"/>
                <use id="reset" xlink:href="#resetDef" x="30" y="36" onmousedown="handleReset()"/>
                <g id="arrowUp" xlink:href="#dirArrow" transform="translate(30 24)" onmousedown="handlePan(0,-1)">
                  <use xlink:href="#rim" fill="#404040">
                        <set attributeName="fill" to="#808080" begin="arrowUp.mouseover" end="arrowUp.mouseout"/>
                  </use>
                  <path fill="none" stroke="white" stroke-width="1.5" d="M0,-3.0v7 M-2.5,-0.5L0,-3.0L2.5,-0.5"/>
                </g>
                <g id="arrowRight" xlink:href="#dirArrow" transform="rotate(90) translate(36 -43)" onmousedown="handlePan(1,0)">
                  <use xlink:href="#rim" fill="#404040">
                        <set attributeName="fill" to="#808080" begin="arrowRight.mouseover" end="arrowRight.mouseout"/>
                  </use>
                  <path fill="none" stroke="white" stroke-width="1.5" d="M0,-3.0v7 M-2.5,-0.5L0,-3.0L2.5,-0.5"/>
                </g>
                <g id="arrowDown" xlink:href="#dirArrow" transform="rotate(180) translate(-30 -48)" onmousedown="handlePan(0,1)">
                  <use xlink:href="#rim" fill="#404040">
                        <set attributeName="fill" to="#808080" begin="arrowDown.mouseover" end="arrowDown.mouseout"/>
                  </use>
                  <path fill="none" stroke="white" stroke-width="1.5" d="M0,-3.0v7 M-2.5,-0.5L0,-3.0L2.5,-0.5"/>
                </g>
                <g id="arrowLeft" xlink:href="#dirArrow" transform="rotate(270) translate(-36 17)" onmousedown="handlePan(-1,0)">
                  <use xlink:href="#rim" fill="#404040">
                        <set attributeName="fill" to="#808080" begin="arrowLeft.mouseover" end="arrowLeft.mouseout"/>
                  </use>
                  <path fill="none" stroke="white" stroke-width="1.5" d="M0,-3.0v7 M-2.5,-0.5L0,-3.0L2.5,-0.5"/>
                </g>
        </g>
        <svg viewBox="0 0 15 15" width="100%" height="30px" preserveAspectRatio="xMaxYMin meet">
         <g id="arrow_out" transform="scale(0.3 0.3)">
          <a xlink:href="HeroName_8hpp__dep__incl_org.svg" target="_base">
           <rect id="button" ry="5" rx="5" y="6" x="6" height="38" width="38"
                fill="#f2f5e9" fill-opacity="0.5" stroke="#606060" stroke-width="1.0"/>
           <path id="arrow"
             d="M 11.500037,31.436501 C 11.940474,20.09759 22.043105,11.32322 32.158766,21.979434 L 37.068811,17.246167 C 37.068811,17.246167 37.088388,32 37.088388,32 L 22.160133,31.978069 C 22.160133,31.978069 26.997745,27.140456 26.997745,27.140456 C 18.528582,18.264221 13.291696,25.230495 11.500037,31.436501 z"
             style="fill:#404040;"/>
          </a>
         </g>
        </svg>
</svg>
