<?xml version="1.0" encoding="UTF-8" standalone="no"?>
<!DOCTYPE svg PUBLIC "-//W3C//DTD SVG 1.1//EN"
 "http://www.w3.org/Graphics/SVG/1.1/DTD/svg11.dtd">
<!-- Generated by graphviz version 2.44.0 ()
 -->
<!-- Title: src/Utils/HeroUtil.cpp Pages: 1 -->
<svg width="191pt" height="140pt"
 viewBox="0.00 0.00 191.00 140.00" xmlns="http://www.w3.org/2000/svg" xmlns:xlink="http://www.w3.org/1999/xlink">
<g id="graph0" class="graph" transform="scale(1 1) rotate(0) translate(4 136)">
<title>src/Utils/HeroUtil.cpp</title>
<!-- Node1 -->
<g id="node1" class="node">
<title>Node1</title>
<g id="a_node1"><a xlink:title=" ">
<polygon fill="#bfbfbf" stroke="black" points="56.5,-112.5 56.5,-131.5 166.5,-131.5 166.5,-112.5 56.5,-112.5"/>
<text text-anchor="middle" x="111.5" y="-119.5" font-family="Helvetica,sans-Serif" font-size="10.00">src/Utils/HeroUtil.cpp</text>
</a>
</g>
</g>
<!-- Node2 -->
<g id="node2" class="node">
<title>Node2</title>
<g id="a_node2"><a xlink:href="HeroUtil_8hpp.html" target="_top" xlink:title=" ">
<polygon fill="none" stroke="black" points="35,-56.5 35,-75.5 106,-75.5 106,-56.5 35,-56.5"/>
<text text-anchor="middle" x="70.5" y="-63.5" font-family="Helvetica,sans-Serif" font-size="10.00">HeroUtil.hpp</text>
</a>
</g>
</g>
<!-- Node1&#45;&gt;Node2 -->
<g id="edge1" class="edge">
<title>Node1&#45;&gt;Node2</title>
<path fill="none" stroke="midnightblue" d="M104.73,-112.08C98.94,-104.46 90.44,-93.26 83.36,-83.94"/>
<polygon fill="midnightblue" stroke="midnightblue" points="85.98,-81.6 77.14,-75.75 80.4,-85.83 85.98,-81.6"/>
</g>
<!-- Node5 -->
<g id="node5" class="node">
<title>Node5</title>
<g id="a_node5"><a xlink:title=" ">
<polygon fill="none" stroke="#bfbfbf" points="124,-56.5 124,-75.5 183,-75.5 183,-56.5 124,-56.5"/>
<text text-anchor="middle" x="153.5" y="-63.5" font-family="Helvetica,sans-Serif" font-size="10.00">stdexcept</text>
</a>
</g>
</g>
<!-- Node1&#45;&gt;Node5 -->
<g id="edge4" class="edge">
<title>Node1&#45;&gt;Node5</title>
<path fill="none" stroke="midnightblue" d="M118.44,-112.08C124.43,-104.38 133.25,-93.03 140.55,-83.65"/>
<polygon fill="midnightblue" stroke="midnightblue" points="143.32,-85.79 146.69,-75.75 137.79,-81.5 143.32,-85.79"/>
</g>
<!-- Node3 -->
<g id="node3" class="node">
<title>Node3</title>
<g id="a_node3"><a xlink:title=" ">
<polygon fill="none" stroke="#bfbfbf" points="0,-0.5 0,-19.5 41,-19.5 41,-0.5 0,-0.5"/>
<text text-anchor="middle" x="20.5" y="-7.5" font-family="Helvetica,sans-Serif" font-size="10.00">string</text>
</a>
</g>
</g>
<!-- Node2&#45;&gt;Node3 -->
<g id="edge2" class="edge">
<title>Node2&#45;&gt;Node3</title>
<path fill="none" stroke="midnightblue" d="M62.24,-56.08C55.04,-48.3 44.39,-36.8 35.65,-27.37"/>
<polygon fill="midnightblue" stroke="midnightblue" points="37.97,-24.71 28.6,-19.75 32.83,-29.47 37.97,-24.71"/>
</g>
<!-- Node4 -->
<g id="node4" class="node">
<title>Node4</title>
<g id="a_node4"><a xlink:href="HeroName_8hpp.html" target="_top" xlink:title=" ">
<polygon fill="none" stroke="black" points="59.5,-0.5 59.5,-19.5 181.5,-19.5 181.5,-0.5 59.5,-0.5"/>
<text text-anchor="middle" x="120.5" y="-7.5" font-family="Helvetica,sans-Serif" font-size="10.00">../Enums/HeroName.hpp</text>
</a>
</g>
</g>
<!-- Node2&#45;&gt;Node4 -->
<g id="edge3" class="edge">
<title>Node2&#45;&gt;Node4</title>
<path fill="none" stroke="midnightblue" d="M78.76,-56.08C85.96,-48.3 96.61,-36.8 105.35,-27.37"/>
<polygon fill="midnightblue" stroke="midnightblue" points="108.17,-29.47 112.4,-19.75 103.03,-24.71 108.17,-29.47"/>
</g>
</g>
</svg>
