<?xml version="1.0" encoding="UTF-8" standalone="no"?>
<!DOCTYPE svg PUBLIC "-//W3C//DTD SVG 1.1//EN"
 "http://www.w3.org/Graphics/SVG/1.1/DTD/svg11.dtd">
<!-- Generated by graphviz version 2.44.0 ()
 -->
<!-- Title: libs/spic&#45;engine/includes/spic&#45;api&#45;headers/IKeyListener.hpp Pages: 1 -->
<!--zoomable 240 -->
<svg id="main" version="1.1" xmlns="http://www.w3.org/2000/svg" xmlns:xlink="http://www.w3.org/1999/xlink" xml:space="preserve" onload="init(evt)">
<style type="text/css"><![CDATA[
.edge:hover path { stroke: red; }
.edge:hover polygon { stroke: red; fill: red; }
]]></style>
<script type="text/javascript"><![CDATA[
var edges = document.getElementsByTagName('g');
if (edges && edges.length) {
  for (var i=0;i<edges.length;i++) {
    if (edges[i].id.substr(0,4)=='edge') {
      edges[i].setAttribute('class','edge');
    }
  }
}
]]></script>
        <defs>
                <circle id="rim" cx="0" cy="0" r="7"/>
                <circle id="rim2" cx="0" cy="0" r="3.5"/>
                <g id="zoomPlus">
                        <use xlink:href="#rim" fill="#404040">
                                <set attributeName="fill" to="#808080" begin="zoomplus.mouseover" end="zoomplus.mouseout"/>
                        </use>
                        <path d="M-4,0h8M0,-4v8" fill="none" stroke="white" stroke-width="1.5" pointer-events="none"/>
                </g>
                <g id="zoomMin">
                        <use xlink:href="#rim" fill="#404040">
                                <set attributeName="fill" to="#808080" begin="zoomminus.mouseover" end="zoomminus.mouseout"/>
                        </use>
                        <path d="M-4,0h8" fill="none" stroke="white" stroke-width="1.5" pointer-events="none"/>
                </g>
                <g id="dirArrow">
                        <path fill="none" stroke="white" stroke-width="1.5" d="M0,-3.0v7 M-2.5,-0.5L0,-3.0L2.5,-0.5"/>
                </g>
               <g id="resetDef">
                       <use xlink:href="#rim2" fill="#404040">
                               <set attributeName="fill" to="#808080" begin="reset.mouseover" end="reset.mouseout"/>
                       </use>
               </g>
        </defs>

<script type="text/javascript">
var viewWidth = 2307;
var viewHeight = 240;
var sectionId = 'dynsection-0';
</script>
<script xlink:href="svgpan.js"/>
<svg id="graph" class="graph">
<g id="viewport">
<title>libs/spic&#45;engine/includes/spic&#45;api&#45;headers/IKeyListener.hpp</title>
<!-- Node1 -->
<g id="node1" class="node">
<title>Node1</title>
<g id="a_node1"><a xlink:title=" ">
<polygon fill="#bfbfbf" stroke="black" points="282.5,-201.5 282.5,-231.5 449.5,-231.5 449.5,-201.5 282.5,-201.5"/>
<text text-anchor="start" x="290.5" y="-219.5" font-family="Helvetica,sans-Serif" font-size="10.00">libs/spic&#45;engine/includes</text>
<text text-anchor="middle" x="366" y="-208.5" font-family="Helvetica,sans-Serif" font-size="10.00">/spic&#45;api&#45;headers/IKeyListener.hpp</text>
</a>
</g>
</g>
<!-- Node2 -->
<g id="node2" class="node">
<title>Node2</title>
<g id="a_node2"><a xlink:href="InputManager_8hpp.html" target="_top" xlink:title=" ">
<polygon fill="none" stroke="black" points="294.5,-67.5 294.5,-97.5 437.5,-97.5 437.5,-67.5 294.5,-67.5"/>
<text text-anchor="start" x="302.5" y="-85.5" font-family="Helvetica,sans-Serif" font-size="10.00">libs/spic&#45;engine/src</text>
<text text-anchor="middle" x="366" y="-74.5" font-family="Helvetica,sans-Serif" font-size="10.00">/Managers/InputManager.hpp</text>
</a>
</g>
</g>
<!-- Node1&#45;&gt;Node2 -->
<g id="edge1" class="edge">
<title>Node1&#45;&gt;Node2</title>
<path fill="none" stroke="midnightblue" d="M366,-191.02C366,-163.51 366,-119.79 366,-97.52"/>
<polygon fill="midnightblue" stroke="midnightblue" points="362.5,-191.37 366,-201.37 369.5,-191.37 362.5,-191.37"/>
</g>
<!-- Node6 -->
<g id="node6" class="node">
<title>Node6</title>
<g id="a_node6"><a xlink:href="Api_8hpp.html" target="_top" xlink:title=" ">
<polygon fill="none" stroke="black" points="150,-67.5 150,-97.5 276,-97.5 276,-67.5 150,-67.5"/>
<text text-anchor="start" x="158" y="-85.5" font-family="Helvetica,sans-Serif" font-size="10.00">libs/spic&#45;engine/includes</text>
<text text-anchor="middle" x="213" y="-74.5" font-family="Helvetica,sans-Serif" font-size="10.00">/spic&#45;api&#45;headers/Api.hpp</text>
</a>
</g>
</g>
<!-- Node1&#45;&gt;Node6 -->
<g id="edge5" class="edge">
<title>Node1&#45;&gt;Node6</title>
<path fill="none" stroke="midnightblue" d="M341.77,-194.59C310.3,-167.44 256.21,-120.78 229.26,-97.52"/>
<polygon fill="midnightblue" stroke="midnightblue" points="339.77,-197.49 349.63,-201.37 344.34,-192.19 339.77,-197.49"/>
</g>
<!-- Node9 -->
<g id="node9" class="node">
<title>Node9</title>
<g id="a_node9"><a xlink:href="Input_8hpp.html" target="_top" xlink:title=" ">
<polygon fill="none" stroke="black" points="1194,-134.5 1194,-164.5 1328,-164.5 1328,-134.5 1194,-134.5"/>
<text text-anchor="start" x="1202" y="-152.5" font-family="Helvetica,sans-Serif" font-size="10.00">libs/spic&#45;engine/includes</text>
<text text-anchor="middle" x="1261" y="-141.5" font-family="Helvetica,sans-Serif" font-size="10.00">/spic&#45;api&#45;headers/Input.hpp</text>
</a>
</g>
</g>
<!-- Node1&#45;&gt;Node9 -->
<g id="edge8" class="edge">
<title>Node1&#45;&gt;Node9</title>
<path fill="none" stroke="midnightblue" d="M459.85,-208.68C641.23,-195.51 1035.92,-166.85 1193.77,-155.38"/>
<polygon fill="midnightblue" stroke="midnightblue" points="459.52,-205.2 449.8,-209.41 460.02,-212.18 459.52,-205.2"/>
</g>
<!-- Node3 -->
<g id="node3" class="node">
<title>Node3</title>
<g id="a_node3"><a xlink:href="Input_8cpp.html" target="_top" xlink:title=" ">
<polygon fill="none" stroke="black" points="1087.5,-0.5 1087.5,-30.5 1188.5,-30.5 1188.5,-0.5 1087.5,-0.5"/>
<text text-anchor="start" x="1095.5" y="-18.5" font-family="Helvetica,sans-Serif" font-size="10.00">libs/spic&#45;engine/src</text>
<text text-anchor="middle" x="1138" y="-7.5" font-family="Helvetica,sans-Serif" font-size="10.00">/Api/Input.cpp</text>
</a>
</g>
</g>
<!-- Node2&#45;&gt;Node3 -->
<g id="edge2" class="edge">
<title>Node2&#45;&gt;Node3</title>
<path fill="none" stroke="midnightblue" d="M448.1,-66.95C693.21,-36.65 974.03,-23.02 1087.11,-18.4"/>
<polygon fill="midnightblue" stroke="midnightblue" points="447.42,-63.51 437.93,-68.22 448.29,-70.46 447.42,-63.51"/>
</g>
<!-- Node4 -->
<g id="node4" class="node">
<title>Node4</title>
<g id="a_node4"><a xlink:href="InputManager_8cpp.html" target="_top" xlink:title=" ">
<polygon fill="none" stroke="black" points="287.5,-0.5 287.5,-30.5 430.5,-30.5 430.5,-0.5 287.5,-0.5"/>
<text text-anchor="start" x="295.5" y="-18.5" font-family="Helvetica,sans-Serif" font-size="10.00">libs/spic&#45;engine/src</text>
<text text-anchor="middle" x="359" y="-7.5" font-family="Helvetica,sans-Serif" font-size="10.00">/Managers/InputManager.cpp</text>
</a>
</g>
</g>
<!-- Node2&#45;&gt;Node4 -->
<g id="edge3" class="edge">
<title>Node2&#45;&gt;Node4</title>
<path fill="none" stroke="midnightblue" d="M363.4,-57.4C362.43,-48.37 361.36,-38.41 360.52,-30.58"/>
<polygon fill="midnightblue" stroke="midnightblue" points="359.93,-57.83 364.48,-67.4 366.89,-57.08 359.93,-57.83"/>
</g>
<!-- Node5 -->
<g id="node5" class="node">
<title>Node5</title>
<g id="a_node5"><a xlink:href="InputSubsystem_8cpp.html" target="_top" xlink:title=" ">
<polygon fill="none" stroke="black" points="448.5,-0.5 448.5,-30.5 613.5,-30.5 613.5,-0.5 448.5,-0.5"/>
<text text-anchor="start" x="456.5" y="-18.5" font-family="Helvetica,sans-Serif" font-size="10.00">libs/spic&#45;engine/src</text>
<text text-anchor="middle" x="531" y="-7.5" font-family="Helvetica,sans-Serif" font-size="10.00">/Subsystems/InputSubsystem.cpp</text>
</a>
</g>
</g>
<!-- Node2&#45;&gt;Node5 -->
<g id="edge4" class="edge">
<title>Node2&#45;&gt;Node5</title>
<path fill="none" stroke="midnightblue" d="M411.23,-63.68C437.69,-53.26 470.63,-40.28 495.27,-30.58"/>
<polygon fill="midnightblue" stroke="midnightblue" points="409.82,-60.47 401.8,-67.4 412.39,-66.99 409.82,-60.47"/>
</g>
<!-- Node7 -->
<g id="node7" class="node">
<title>Node7</title>
<g id="a_node7"><a xlink:href="LevelController_8cpp.html" target="_top" xlink:title=" ">
<polygon fill="none" stroke="black" points="0,-6 0,-25 166,-25 166,-6 0,-6"/>
<text text-anchor="middle" x="83" y="-13" font-family="Helvetica,sans-Serif" font-size="10.00">src/Controllers/LevelController.cpp</text>
</a>
</g>
</g>
<!-- Node6&#45;&gt;Node7 -->
<g id="edge6" class="edge">
<title>Node6&#45;&gt;Node7</title>
<path fill="none" stroke="midnightblue" d="M175.61,-62.8C150.68,-50.34 119.11,-34.56 100.01,-25.01"/>
<polygon fill="midnightblue" stroke="midnightblue" points="174.28,-66.05 184.79,-67.4 177.41,-59.79 174.28,-66.05"/>
</g>
<!-- Node8 -->
<g id="node8" class="node">
<title>Node8</title>
<g id="a_node8"><a xlink:href="main_8cpp.html" target="_top" xlink:title=" ">
<polygon fill="none" stroke="black" points="184,-6 184,-25 256,-25 256,-6 184,-6"/>
<text text-anchor="middle" x="220" y="-13" font-family="Helvetica,sans-Serif" font-size="10.00">src/main.cpp</text>
</a>
</g>
</g>
<!-- Node6&#45;&gt;Node8 -->
<g id="edge7" class="edge">
<title>Node6&#45;&gt;Node8</title>
<path fill="none" stroke="midnightblue" d="M215.61,-57.25C216.82,-46.02 218.18,-33.38 219.06,-25.19"/>
<polygon fill="midnightblue" stroke="midnightblue" points="212.11,-57.08 214.52,-67.4 219.07,-57.83 212.11,-57.08"/>
</g>
<!-- Node9&#45;&gt;Node2 -->
<g id="edge22" class="edge">
<title>Node9&#45;&gt;Node2</title>
<path fill="none" stroke="midnightblue" d="M1183.63,-146.67C1038.66,-142.57 716.42,-130.36 447,-98 444.02,-97.64 440.99,-97.25 437.92,-96.82"/>
<polygon fill="midnightblue" stroke="midnightblue" points="1183.67,-150.17 1193.76,-146.95 1183.86,-143.17 1183.67,-150.17"/>
</g>
<!-- Node9&#45;&gt;Node3 -->
<g id="edge20" class="edge">
<title>Node9&#45;&gt;Node3</title>
<path fill="none" stroke="midnightblue" d="M1338.49,-144.71C1454.08,-138.24 1660.57,-123.28 1683,-98 1692.15,-87.7 1692.28,-77.18 1683,-67 1650.07,-30.88 1318.03,-20.2 1188.95,-17.4"/>
<polygon fill="midnightblue" stroke="midnightblue" points="1338.07,-141.22 1328.28,-145.27 1338.46,-148.21 1338.07,-141.22"/>
</g>
<!-- Node9&#45;&gt;Node6 -->
<g id="edge25" class="edge">
<title>Node9&#45;&gt;Node6</title>
<path fill="none" stroke="midnightblue" d="M1183.76,-148.35C1018.31,-147.19 617.67,-139.87 285,-98 282.09,-97.63 279.12,-97.22 276.13,-96.76"/>
<polygon fill="midnightblue" stroke="midnightblue" points="1183.82,-151.85 1193.84,-148.42 1183.87,-144.85 1183.82,-151.85"/>
</g>
<!-- Node10 -->
<g id="node10" class="node">
<title>Node10</title>
<g id="a_node10"><a xlink:href="CheatManager_8cpp.html" target="_top" xlink:title=" ">
<polygon fill="none" stroke="black" points="1812,-0.5 1812,-30.5 1918,-30.5 1918,-0.5 1812,-0.5"/>
<text text-anchor="start" x="1820" y="-18.5" font-family="Helvetica,sans-Serif" font-size="10.00">src/Scripts/Common</text>
<text text-anchor="middle" x="1865" y="-7.5" font-family="Helvetica,sans-Serif" font-size="10.00">/CheatManager.cpp</text>
</a>
</g>
</g>
<!-- Node9&#45;&gt;Node10 -->
<g id="edge9" class="edge">
<title>Node9&#45;&gt;Node10</title>
<path fill="none" stroke="midnightblue" d="M1338.09,-146.82C1488.21,-142.83 1808.41,-130.57 1846,-98 1865.22,-81.35 1867.04,-49.38 1866.27,-30.81"/>
<polygon fill="midnightblue" stroke="midnightblue" points="1337.92,-143.32 1328.02,-147.08 1338.11,-150.32 1337.92,-143.32"/>
</g>
<!-- Node11 -->
<g id="node11" class="node">
<title>Node11</title>
<g id="a_node11"><a xlink:href="CheatManager_8hpp.html" target="_top" xlink:title=" ">
<polygon fill="none" stroke="black" points="1731,-67.5 1731,-97.5 1837,-97.5 1837,-67.5 1731,-67.5"/>
<text text-anchor="start" x="1739" y="-85.5" font-family="Helvetica,sans-Serif" font-size="10.00">src/Scripts/Common</text>
<text text-anchor="middle" x="1784" y="-74.5" font-family="Helvetica,sans-Serif" font-size="10.00">/CheatManager.hpp</text>
</a>
</g>
</g>
<!-- Node9&#45;&gt;Node11 -->
<g id="edge10" class="edge">
<title>Node9&#45;&gt;Node11</title>
<path fill="none" stroke="midnightblue" d="M1338.36,-142.38C1429.33,-134.61 1584.72,-119.58 1717,-98 1721.46,-97.27 1726.08,-96.44 1730.7,-95.55"/>
<polygon fill="midnightblue" stroke="midnightblue" points="1337.8,-138.91 1328.13,-143.24 1338.39,-145.88 1337.8,-138.91"/>
</g>
<!-- Node13 -->
<g id="node13" class="node">
<title>Node13</title>
<g id="a_node13"><a xlink:href="HealthBehaviour_8cpp.html" target="_top" xlink:title=" ">
<polygon fill="none" stroke="black" points="1893,-67.5 1893,-97.5 2003,-97.5 2003,-67.5 1893,-67.5"/>
<text text-anchor="start" x="1901" y="-85.5" font-family="Helvetica,sans-Serif" font-size="10.00">src/Scripts/Common</text>
<text text-anchor="middle" x="1948" y="-74.5" font-family="Helvetica,sans-Serif" font-size="10.00">/HealthBehaviour.cpp</text>
</a>
</g>
</g>
<!-- Node9&#45;&gt;Node13 -->
<g id="edge13" class="edge">
<title>Node9&#45;&gt;Node13</title>
<path fill="none" stroke="midnightblue" d="M1338.39,-145.3C1455.77,-139.74 1685.63,-126.11 1879,-98 1883.48,-97.35 1888.11,-96.58 1892.75,-95.75"/>
<polygon fill="midnightblue" stroke="midnightblue" points="1337.9,-141.82 1328.07,-145.78 1338.22,-148.81 1337.9,-141.82"/>
</g>
<!-- Node14 -->
<g id="node14" class="node">
<title>Node14</title>
<g id="a_node14"><a xlink:href="HealAbilityBehaviour_8cpp.html" target="_top" xlink:title=" ">
<polygon fill="none" stroke="black" points="2021,-67.5 2021,-97.5 2149,-97.5 2149,-67.5 2021,-67.5"/>
<text text-anchor="start" x="2029" y="-85.5" font-family="Helvetica,sans-Serif" font-size="10.00">src/Scripts/Heroes</text>
<text text-anchor="middle" x="2085" y="-74.5" font-family="Helvetica,sans-Serif" font-size="10.00">/HealAbilityBehaviour.cpp</text>
</a>
</g>
</g>
<!-- Node9&#45;&gt;Node14 -->
<g id="edge14" class="edge">
<title>Node9&#45;&gt;Node14</title>
<path fill="none" stroke="midnightblue" d="M1338.45,-146.58C1475.03,-142.47 1767.38,-130.38 2012,-98 2014.95,-97.61 2017.95,-97.17 2020.98,-96.7"/>
<polygon fill="midnightblue" stroke="midnightblue" points="1337.99,-143.09 1328.1,-146.89 1338.2,-150.09 1337.99,-143.09"/>
</g>
<!-- Node15 -->
<g id="node15" class="node">
<title>Node15</title>
<g id="a_node15"><a xlink:href="UserAttackBehaviour_8cpp.html" target="_top" xlink:title=" ">
<polygon fill="none" stroke="black" points="2167.5,-67.5 2167.5,-97.5 2298.5,-97.5 2298.5,-67.5 2167.5,-67.5"/>
<text text-anchor="start" x="2175.5" y="-85.5" font-family="Helvetica,sans-Serif" font-size="10.00">src/Scripts/Heroes</text>
<text text-anchor="middle" x="2233" y="-74.5" font-family="Helvetica,sans-Serif" font-size="10.00">/UserAttackBehaviour.cpp</text>
</a>
</g>
</g>
<!-- Node9&#45;&gt;Node15 -->
<g id="edge15" class="edge">
<title>Node9&#45;&gt;Node15</title>
<path fill="none" stroke="midnightblue" d="M1338.65,-147.64C1494.54,-145.15 1856.52,-135.46 2158,-98 2161.03,-97.62 2164.12,-97.2 2167.23,-96.74"/>
<polygon fill="midnightblue" stroke="midnightblue" points="1338.17,-144.15 1328.23,-147.8 1338.28,-151.15 1338.17,-144.15"/>
</g>
<!-- Node16 -->
<g id="node16" class="node">
<title>Node16</title>
<g id="a_node16"><a xlink:href="UserMovementBehaviour_8cpp.html" target="_top" xlink:title=" ">
<polygon fill="none" stroke="black" points="456,-67.5 456,-97.5 604,-97.5 604,-67.5 456,-67.5"/>
<text text-anchor="start" x="464" y="-85.5" font-family="Helvetica,sans-Serif" font-size="10.00">src/Scripts/Heroes</text>
<text text-anchor="middle" x="530" y="-74.5" font-family="Helvetica,sans-Serif" font-size="10.00">/UserMovementBehaviour.cpp</text>
</a>
</g>
</g>
<!-- Node9&#45;&gt;Node16 -->
<g id="edge16" class="edge">
<title>Node9&#45;&gt;Node16</title>
<path fill="none" stroke="midnightblue" d="M1183.28,-144.84C1061.4,-138.56 818.06,-123.84 613,-98 610.1,-97.63 607.14,-97.24 604.16,-96.82"/>
<polygon fill="midnightblue" stroke="midnightblue" points="1183.45,-148.35 1193.62,-145.37 1183.81,-141.36 1183.45,-148.35"/>
</g>
<!-- Node17 -->
<g id="node17" class="node">
<title>Node17</title>
<g id="a_node17"><a xlink:href="CloseSceneBehaviour_8cpp.html" target="_top" xlink:title=" ">
<polygon fill="none" stroke="black" points="622,-67.5 622,-97.5 768,-97.5 768,-67.5 622,-67.5"/>
<text text-anchor="start" x="630" y="-85.5" font-family="Helvetica,sans-Serif" font-size="10.00">src/Scripts/Menu/CloseScene</text>
<text text-anchor="middle" x="695" y="-74.5" font-family="Helvetica,sans-Serif" font-size="10.00">Behaviour.cpp</text>
</a>
</g>
</g>
<!-- Node9&#45;&gt;Node17 -->
<g id="edge17" class="edge">
<title>Node9&#45;&gt;Node17</title>
<path fill="none" stroke="midnightblue" d="M1183.71,-142.14C1087.99,-133.87 920.08,-118.09 777,-98 774.14,-97.6 771.22,-97.17 768.28,-96.72"/>
<polygon fill="midnightblue" stroke="midnightblue" points="1183.61,-145.65 1193.88,-143.01 1184.21,-138.67 1183.61,-145.65"/>
</g>
<!-- Node18 -->
<g id="node18" class="node">
<title>Node18</title>
<g id="a_node18"><a xlink:href="PauseSceneBehaviour_8cpp.html" target="_top" xlink:title=" ">
<polygon fill="none" stroke="black" points="786.5,-67.5 786.5,-97.5 935.5,-97.5 935.5,-67.5 786.5,-67.5"/>
<text text-anchor="start" x="794.5" y="-85.5" font-family="Helvetica,sans-Serif" font-size="10.00">src/Scripts/Menu/PauseScene</text>
<text text-anchor="middle" x="861" y="-74.5" font-family="Helvetica,sans-Serif" font-size="10.00">Behaviour.cpp</text>
</a>
</g>
</g>
<!-- Node9&#45;&gt;Node18 -->
<g id="edge18" class="edge">
<title>Node9&#45;&gt;Node18</title>
<path fill="none" stroke="midnightblue" d="M1183.81,-136.53C1119.59,-126.5 1025.79,-111.66 944,-98 941.26,-97.54 938.47,-97.07 935.65,-96.6"/>
<polygon fill="midnightblue" stroke="midnightblue" points="1183.43,-140.02 1193.86,-138.1 1184.51,-133.1 1183.43,-140.02"/>
</g>
<!-- Node19 -->
<g id="node19" class="node">
<title>Node19</title>
<g id="a_node19"><a xlink:href="Button_8cpp.html" target="_top" xlink:title=" ">
<polygon fill="none" stroke="black" points="953.5,-67.5 953.5,-97.5 1054.5,-97.5 1054.5,-67.5 953.5,-67.5"/>
<text text-anchor="start" x="961.5" y="-85.5" font-family="Helvetica,sans-Serif" font-size="10.00">libs/spic&#45;engine/src</text>
<text text-anchor="middle" x="1004" y="-74.5" font-family="Helvetica,sans-Serif" font-size="10.00">/Api/Button.cpp</text>
</a>
</g>
</g>
<!-- Node9&#45;&gt;Node19 -->
<g id="edge19" class="edge">
<title>Node9&#45;&gt;Node19</title>
<path fill="none" stroke="midnightblue" d="M1195.84,-132.02C1151.98,-120.93 1094.99,-106.51 1054.55,-96.29"/>
<polygon fill="midnightblue" stroke="midnightblue" points="1195,-135.42 1205.55,-134.48 1196.71,-128.63 1195,-135.42"/>
</g>
<!-- Node20 -->
<g id="node20" class="node">
<title>Node20</title>
<g id="a_node20"><a xlink:href="ButtonMouseListener_8cpp.html" target="_top" xlink:title=" ">
<polygon fill="none" stroke="black" points="1073,-67.5 1073,-97.5 1247,-97.5 1247,-67.5 1073,-67.5"/>
<text text-anchor="start" x="1081" y="-85.5" font-family="Helvetica,sans-Serif" font-size="10.00">libs/spic&#45;engine/src</text>
<text text-anchor="middle" x="1160" y="-74.5" font-family="Helvetica,sans-Serif" font-size="10.00">/Listeners/ButtonMouseListener.cpp</text>
</a>
</g>
</g>
<!-- Node9&#45;&gt;Node20 -->
<g id="edge21" class="edge">
<title>Node9&#45;&gt;Node20</title>
<path fill="none" stroke="midnightblue" d="M1230.29,-128.73C1214.66,-118.68 1196.03,-106.68 1181.87,-97.58"/>
<polygon fill="midnightblue" stroke="midnightblue" points="1228.78,-131.93 1239.08,-134.4 1232.57,-126.04 1228.78,-131.93"/>
</g>
<!-- Node21 -->
<g id="node21" class="node">
<title>Node21</title>
<g id="a_node21"><a xlink:href="FpsCounterSubsystem_8cpp.html" target="_top" xlink:title=" ">
<polygon fill="none" stroke="black" points="1265,-67.5 1265,-97.5 1459,-97.5 1459,-67.5 1265,-67.5"/>
<text text-anchor="start" x="1273" y="-85.5" font-family="Helvetica,sans-Serif" font-size="10.00">libs/spic&#45;engine/src</text>
<text text-anchor="middle" x="1362" y="-74.5" font-family="Helvetica,sans-Serif" font-size="10.00">/Subsystems/FpsCounterSubsystem.cpp</text>
</a>
</g>
</g>
<!-- Node9&#45;&gt;Node21 -->
<g id="edge23" class="edge">
<title>Node9&#45;&gt;Node21</title>
<path fill="none" stroke="midnightblue" d="M1291.71,-128.73C1307.34,-118.68 1325.97,-106.68 1340.13,-97.58"/>
<polygon fill="midnightblue" stroke="midnightblue" points="1289.43,-126.04 1282.92,-134.4 1293.22,-131.93 1289.43,-126.04"/>
</g>
<!-- Node22 -->
<g id="node22" class="node">
<title>Node22</title>
<g id="a_node22"><a xlink:href="GameSpeedSubsystem_8cpp.html" target="_top" xlink:title=" ">
<polygon fill="none" stroke="black" points="1477.5,-67.5 1477.5,-97.5 1674.5,-97.5 1674.5,-67.5 1477.5,-67.5"/>
<text text-anchor="start" x="1485.5" y="-85.5" font-family="Helvetica,sans-Serif" font-size="10.00">libs/spic&#45;engine/src</text>
<text text-anchor="middle" x="1576" y="-74.5" font-family="Helvetica,sans-Serif" font-size="10.00">/Subsystems/GameSpeedSubsystem.cpp</text>
</a>
</g>
</g>
<!-- Node9&#45;&gt;Node22 -->
<g id="edge24" class="edge">
<title>Node9&#45;&gt;Node22</title>
<path fill="none" stroke="midnightblue" d="M1338.04,-132.6C1390.07,-121.87 1458.11,-107.83 1508.1,-97.51"/>
<polygon fill="midnightblue" stroke="midnightblue" points="1337.28,-129.19 1328.19,-134.64 1338.69,-136.04 1337.28,-129.19"/>
</g>
<!-- Node11&#45;&gt;Node10 -->
<g id="edge12" class="edge">
<title>Node11&#45;&gt;Node10</title>
<path fill="none" stroke="midnightblue" d="M1809.69,-60.88C1822,-51.01 1836.43,-39.43 1847.46,-30.58"/>
<polygon fill="midnightblue" stroke="midnightblue" points="1807.18,-58.41 1801.58,-67.4 1811.57,-63.87 1807.18,-58.41"/>
</g>
<!-- Node12 -->
<g id="node12" class="node">
<title>Node12</title>
<g id="a_node12"><a xlink:href="LevelScene_8cpp.html" target="_top" xlink:title=" ">
<polygon fill="none" stroke="black" points="1654.5,-6 1654.5,-25 1793.5,-25 1793.5,-6 1654.5,-6"/>
<text text-anchor="middle" x="1724" y="-13" font-family="Helvetica,sans-Serif" font-size="10.00">src/Scenes/LevelScene.cpp</text>
</a>
</g>
</g>
<!-- Node11&#45;&gt;Node12 -->
<g id="edge11" class="edge">
<title>Node11&#45;&gt;Node12</title>
<path fill="none" stroke="midnightblue" d="M1764.15,-60C1753.2,-48.13 1740.2,-34.05 1732.03,-25.19"/>
<polygon fill="midnightblue" stroke="midnightblue" points="1761.63,-62.42 1770.98,-67.4 1766.77,-57.67 1761.63,-62.42"/>
</g>
</g>
</svg>
        <g id="navigator" transform="translate(0 0)" fill="#404254">
                <rect fill="#f2f5e9" fill-opacity="0.5" stroke="#606060" stroke-width=".5" x="0" y="0" width="60" height="60"/>
                <use id="zoomplus" xlink:href="#zoomPlus" x="17" y="9" onmousedown="handleZoom(evt,'in')"/>
                <use id="zoomminus" xlink:href="#zoomMin" x="42" y="9" onmousedown="handleZoom(evt,'out')"/>
                <use id="reset" xlink:href="#resetDef" x="30" y="36" onmousedown="handleReset()"/>
                <g id="arrowUp" xlink:href="#dirArrow" transform="translate(30 24)" onmousedown="handlePan(0,-1)">
                  <use xlink:href="#rim" fill="#404040">
                        <set attributeName="fill" to="#808080" begin="arrowUp.mouseover" end="arrowUp.mouseout"/>
                  </use>
                  <path fill="none" stroke="white" stroke-width="1.5" d="M0,-3.0v7 M-2.5,-0.5L0,-3.0L2.5,-0.5"/>
                </g>
                <g id="arrowRight" xlink:href="#dirArrow" transform="rotate(90) translate(36 -43)" onmousedown="handlePan(1,0)">
                  <use xlink:href="#rim" fill="#404040">
                        <set attributeName="fill" to="#808080" begin="arrowRight.mouseover" end="arrowRight.mouseout"/>
                  </use>
                  <path fill="none" stroke="white" stroke-width="1.5" d="M0,-3.0v7 M-2.5,-0.5L0,-3.0L2.5,-0.5"/>
                </g>
                <g id="arrowDown" xlink:href="#dirArrow" transform="rotate(180) translate(-30 -48)" onmousedown="handlePan(0,1)">
                  <use xlink:href="#rim" fill="#404040">
                        <set attributeName="fill" to="#808080" begin="arrowDown.mouseover" end="arrowDown.mouseout"/>
                  </use>
                  <path fill="none" stroke="white" stroke-width="1.5" d="M0,-3.0v7 M-2.5,-0.5L0,-3.0L2.5,-0.5"/>
                </g>
                <g id="arrowLeft" xlink:href="#dirArrow" transform="rotate(270) translate(-36 17)" onmousedown="handlePan(-1,0)">
                  <use xlink:href="#rim" fill="#404040">
                        <set attributeName="fill" to="#808080" begin="arrowLeft.mouseover" end="arrowLeft.mouseout"/>
                  </use>
                  <path fill="none" stroke="white" stroke-width="1.5" d="M0,-3.0v7 M-2.5,-0.5L0,-3.0L2.5,-0.5"/>
                </g>
        </g>
        <svg viewBox="0 0 15 15" width="100%" height="30px" preserveAspectRatio="xMaxYMin meet">
         <g id="arrow_out" transform="scale(0.3 0.3)">
          <a xlink:href="IKeyListener_8hpp__dep__incl_org.svg" target="_base">
           <rect id="button" ry="5" rx="5" y="6" x="6" height="38" width="38"
                fill="#f2f5e9" fill-opacity="0.5" stroke="#606060" stroke-width="1.0"/>
           <path id="arrow"
             d="M 11.500037,31.436501 C 11.940474,20.09759 22.043105,11.32322 32.158766,21.979434 L 37.068811,17.246167 C 37.068811,17.246167 37.088388,32 37.088388,32 L 22.160133,31.978069 C 22.160133,31.978069 26.997745,27.140456 26.997745,27.140456 C 18.528582,18.264221 13.291696,25.230495 11.500037,31.436501 z"
             style="fill:#404040;"/>
          </a>
         </g>
        </svg>
</svg>
