<?xml version="1.0" encoding="UTF-8" standalone="no"?>
<!DOCTYPE svg PUBLIC "-//W3C//DTD SVG 1.1//EN"
 "http://www.w3.org/Graphics/SVG/1.1/DTD/svg11.dtd">
<!-- Generated by graphviz version 2.44.0 ()
 -->
<!-- Title: libs/spic&#45;engine/includes/spic&#45;api&#45;headers/IMouseListener.hpp Pages: 1 -->
<svg width="3009pt" height="262pt"
 viewBox="0.00 0.00 3009.00 262.00" xmlns="http://www.w3.org/2000/svg" xmlns:xlink="http://www.w3.org/1999/xlink">
<g id="graph0" class="graph" transform="scale(1 1) rotate(0) translate(4 258)">
<title>libs/spic&#45;engine/includes/spic&#45;api&#45;headers/IMouseListener.hpp</title>
<!-- Node1 -->
<g id="node1" class="node">
<title>Node1</title>
<g id="a_node1"><a xlink:title=" ">
<polygon fill="#bfbfbf" stroke="black" points="473,-223.5 473,-253.5 652,-253.5 652,-223.5 473,-223.5"/>
<text text-anchor="start" x="481" y="-241.5" font-family="Helvetica,sans-Serif" font-size="10.00">libs/spic&#45;engine/includes</text>
<text text-anchor="middle" x="562.5" y="-230.5" font-family="Helvetica,sans-Serif" font-size="10.00">/spic&#45;api&#45;headers/IMouseListener.hpp</text>
</a>
</g>
</g>
<!-- Node2 -->
<g id="node2" class="node">
<title>Node2</title>
<g id="a_node2"><a xlink:href="ButtonMouseListener_8hpp.html" target="_top" xlink:title=" ">
<polygon fill="none" stroke="black" points="146.5,-151 146.5,-181 320.5,-181 320.5,-151 146.5,-151"/>
<text text-anchor="start" x="154.5" y="-169" font-family="Helvetica,sans-Serif" font-size="10.00">libs/spic&#45;engine/src</text>
<text text-anchor="middle" x="233.5" y="-158" font-family="Helvetica,sans-Serif" font-size="10.00">/Listeners/ButtonMouseListener.hpp</text>
</a>
</g>
</g>
<!-- Node1&#45;&gt;Node2 -->
<g id="edge1" class="edge">
<title>Node1&#45;&gt;Node2</title>
<path fill="none" stroke="midnightblue" d="M487.11,-221.34C430.33,-209.18 353.28,-192.67 299.05,-181.05"/>
<polygon fill="midnightblue" stroke="midnightblue" points="486.6,-224.81 497.11,-223.49 488.06,-217.97 486.6,-224.81"/>
</g>
<!-- Node5 -->
<g id="node5" class="node">
<title>Node5</title>
<g id="a_node5"><a xlink:href="InputManager_8hpp.html" target="_top" xlink:title=" ">
<polygon fill="none" stroke="black" points="339,-73 339,-103 482,-103 482,-73 339,-73"/>
<text text-anchor="start" x="347" y="-91" font-family="Helvetica,sans-Serif" font-size="10.00">libs/spic&#45;engine/src</text>
<text text-anchor="middle" x="410.5" y="-80" font-family="Helvetica,sans-Serif" font-size="10.00">/Managers/InputManager.hpp</text>
</a>
</g>
</g>
<!-- Node1&#45;&gt;Node5 -->
<g id="edge4" class="edge">
<title>Node1&#45;&gt;Node5</title>
<path fill="none" stroke="midnightblue" d="M540.52,-216.02C509.07,-185.3 452.1,-129.65 425.25,-103.41"/>
<polygon fill="midnightblue" stroke="midnightblue" points="538.33,-218.78 547.93,-223.26 543.22,-213.77 538.33,-218.78"/>
</g>
<!-- Node9 -->
<g id="node9" class="node">
<title>Node9</title>
<g id="a_node9"><a xlink:href="Api_8hpp.html" target="_top" xlink:title=" ">
<polygon fill="none" stroke="black" points="538.5,-73 538.5,-103 664.5,-103 664.5,-73 538.5,-73"/>
<text text-anchor="start" x="546.5" y="-91" font-family="Helvetica,sans-Serif" font-size="10.00">libs/spic&#45;engine/includes</text>
<text text-anchor="middle" x="601.5" y="-80" font-family="Helvetica,sans-Serif" font-size="10.00">/spic&#45;api&#45;headers/Api.hpp</text>
</a>
</g>
</g>
<!-- Node1&#45;&gt;Node9 -->
<g id="edge8" class="edge">
<title>Node1&#45;&gt;Node9</title>
<path fill="none" stroke="midnightblue" d="M566.53,-213.17C569.88,-194.39 575.11,-167.83 581.5,-145 585.56,-130.48 591.5,-114.31 595.84,-103.09"/>
<polygon fill="midnightblue" stroke="midnightblue" points="563.05,-212.8 564.79,-223.25 569.94,-213.99 563.05,-212.8"/>
</g>
<!-- Node12 -->
<g id="node12" class="node">
<title>Node12</title>
<g id="a_node12"><a xlink:href="Button__includes_8hpp.html" target="_top" xlink:title=" ">
<polygon fill="none" stroke="black" points="591,-145.5 591,-186.5 714,-186.5 714,-145.5 591,-145.5"/>
<text text-anchor="start" x="599" y="-174.5" font-family="Helvetica,sans-Serif" font-size="10.00">libs/spic&#45;engine/includes</text>
<text text-anchor="start" x="599" y="-163.5" font-family="Helvetica,sans-Serif" font-size="10.00">/spic&#45;api&#45;headers/Button</text>
<text text-anchor="middle" x="652.5" y="-152.5" font-family="Helvetica,sans-Serif" font-size="10.00">_includes.hpp</text>
</a>
</g>
</g>
<!-- Node1&#45;&gt;Node12 -->
<g id="edge11" class="edge">
<title>Node1&#45;&gt;Node12</title>
<path fill="none" stroke="midnightblue" d="M588.76,-216.93C600.97,-207.36 615.44,-196.03 627.49,-186.59"/>
<polygon fill="midnightblue" stroke="midnightblue" points="586.43,-214.31 580.71,-223.23 590.74,-219.82 586.43,-214.31"/>
</g>
<!-- Node13 -->
<g id="node13" class="node">
<title>Node13</title>
<g id="a_node13"><a xlink:href="Input_8hpp.html" target="_top" xlink:title=" ">
<polygon fill="none" stroke="black" points="1120.5,-151 1120.5,-181 1254.5,-181 1254.5,-151 1120.5,-151"/>
<text text-anchor="start" x="1128.5" y="-169" font-family="Helvetica,sans-Serif" font-size="10.00">libs/spic&#45;engine/includes</text>
<text text-anchor="middle" x="1187.5" y="-158" font-family="Helvetica,sans-Serif" font-size="10.00">/spic&#45;api&#45;headers/Input.hpp</text>
</a>
</g>
</g>
<!-- Node1&#45;&gt;Node13 -->
<g id="edge12" class="edge">
<title>Node1&#45;&gt;Node13</title>
<path fill="none" stroke="midnightblue" d="M662.27,-226.25C790.59,-211.77 1010.01,-187.02 1120.19,-174.59"/>
<polygon fill="midnightblue" stroke="midnightblue" points="661.59,-222.8 652.05,-227.4 662.38,-229.76 661.59,-222.8"/>
</g>
<!-- Node3 -->
<g id="node3" class="node">
<title>Node3</title>
<g id="a_node3"><a xlink:href="Button_8cpp.html" target="_top" xlink:title=" ">
<polygon fill="none" stroke="black" points="27,-73 27,-103 128,-103 128,-73 27,-73"/>
<text text-anchor="start" x="35" y="-91" font-family="Helvetica,sans-Serif" font-size="10.00">libs/spic&#45;engine/src</text>
<text text-anchor="middle" x="77.5" y="-80" font-family="Helvetica,sans-Serif" font-size="10.00">/Api/Button.cpp</text>
</a>
</g>
</g>
<!-- Node2&#45;&gt;Node3 -->
<g id="edge2" class="edge">
<title>Node2&#45;&gt;Node3</title>
<path fill="none" stroke="midnightblue" d="M195.22,-146.35C167.76,-132.97 131.34,-115.23 106.32,-103.04"/>
<polygon fill="midnightblue" stroke="midnightblue" points="194,-149.65 204.52,-150.88 197.07,-143.36 194,-149.65"/>
</g>
<!-- Node4 -->
<g id="node4" class="node">
<title>Node4</title>
<g id="a_node4"><a xlink:href="ButtonMouseListener_8cpp.html" target="_top" xlink:title=" ">
<polygon fill="none" stroke="black" points="146.5,-73 146.5,-103 320.5,-103 320.5,-73 146.5,-73"/>
<text text-anchor="start" x="154.5" y="-91" font-family="Helvetica,sans-Serif" font-size="10.00">libs/spic&#45;engine/src</text>
<text text-anchor="middle" x="233.5" y="-80" font-family="Helvetica,sans-Serif" font-size="10.00">/Listeners/ButtonMouseListener.cpp</text>
</a>
</g>
</g>
<!-- Node2&#45;&gt;Node4 -->
<g id="edge3" class="edge">
<title>Node2&#45;&gt;Node4</title>
<path fill="none" stroke="midnightblue" d="M233.5,-140.59C233.5,-128.26 233.5,-113.72 233.5,-103.23"/>
<polygon fill="midnightblue" stroke="midnightblue" points="230,-140.7 233.5,-150.7 237,-140.71 230,-140.7"/>
</g>
<!-- Node6 -->
<g id="node6" class="node">
<title>Node6</title>
<g id="a_node6"><a xlink:href="Input_8cpp.html" target="_top" xlink:title=" ">
<polygon fill="none" stroke="black" points="344,-0.5 344,-30.5 445,-30.5 445,-0.5 344,-0.5"/>
<text text-anchor="start" x="352" y="-18.5" font-family="Helvetica,sans-Serif" font-size="10.00">libs/spic&#45;engine/src</text>
<text text-anchor="middle" x="394.5" y="-7.5" font-family="Helvetica,sans-Serif" font-size="10.00">/Api/Input.cpp</text>
</a>
</g>
</g>
<!-- Node5&#45;&gt;Node6 -->
<g id="edge5" class="edge">
<title>Node5&#45;&gt;Node6</title>
<path fill="none" stroke="midnightblue" d="M404.99,-62.73C402.57,-52.07 399.81,-39.91 397.73,-30.75"/>
<polygon fill="midnightblue" stroke="midnightblue" points="401.64,-63.76 407.26,-72.73 408.46,-62.21 401.64,-63.76"/>
</g>
<!-- Node7 -->
<g id="node7" class="node">
<title>Node7</title>
<g id="a_node7"><a xlink:href="InputManager_8cpp.html" target="_top" xlink:title=" ">
<polygon fill="none" stroke="black" points="0,-0.5 0,-30.5 143,-30.5 143,-0.5 0,-0.5"/>
<text text-anchor="start" x="8" y="-18.5" font-family="Helvetica,sans-Serif" font-size="10.00">libs/spic&#45;engine/src</text>
<text text-anchor="middle" x="71.5" y="-7.5" font-family="Helvetica,sans-Serif" font-size="10.00">/Managers/InputManager.cpp</text>
</a>
</g>
</g>
<!-- Node5&#45;&gt;Node7 -->
<g id="edge6" class="edge">
<title>Node5&#45;&gt;Node7</title>
<path fill="none" stroke="midnightblue" d="M345.11,-70.57C339.84,-69.33 334.58,-68.12 329.5,-67 266.78,-53.13 195.03,-39.24 143.15,-29.55"/>
<polygon fill="midnightblue" stroke="midnightblue" points="344.71,-74.07 355.25,-72.98 346.33,-67.26 344.71,-74.07"/>
</g>
<!-- Node8 -->
<g id="node8" class="node">
<title>Node8</title>
<g id="a_node8"><a xlink:href="InputSubsystem_8cpp.html" target="_top" xlink:title=" ">
<polygon fill="none" stroke="black" points="161,-0.5 161,-30.5 326,-30.5 326,-0.5 161,-0.5"/>
<text text-anchor="start" x="169" y="-18.5" font-family="Helvetica,sans-Serif" font-size="10.00">libs/spic&#45;engine/src</text>
<text text-anchor="middle" x="243.5" y="-7.5" font-family="Helvetica,sans-Serif" font-size="10.00">/Subsystems/InputSubsystem.cpp</text>
</a>
</g>
</g>
<!-- Node5&#45;&gt;Node8 -->
<g id="edge7" class="edge">
<title>Node5&#45;&gt;Node8</title>
<path fill="none" stroke="midnightblue" d="M367.86,-69C339.57,-57.06 302.99,-41.61 276.84,-30.57"/>
<polygon fill="midnightblue" stroke="midnightblue" points="366.53,-72.24 377.11,-72.9 369.25,-65.79 366.53,-72.24"/>
</g>
<!-- Node10 -->
<g id="node10" class="node">
<title>Node10</title>
<g id="a_node10"><a xlink:href="LevelController_8cpp.html" target="_top" xlink:title=" ">
<polygon fill="none" stroke="black" points="463.5,-6 463.5,-25 629.5,-25 629.5,-6 463.5,-6"/>
<text text-anchor="middle" x="546.5" y="-13" font-family="Helvetica,sans-Serif" font-size="10.00">src/Controllers/LevelController.cpp</text>
</a>
</g>
</g>
<!-- Node9&#45;&gt;Node10 -->
<g id="edge9" class="edge">
<title>Node9&#45;&gt;Node10</title>
<path fill="none" stroke="midnightblue" d="M583.95,-64.51C573.59,-51.23 561.06,-35.16 553.44,-25.39"/>
<polygon fill="midnightblue" stroke="midnightblue" points="581.46,-67 590.37,-72.73 586.98,-62.7 581.46,-67"/>
</g>
<!-- Node11 -->
<g id="node11" class="node">
<title>Node11</title>
<g id="a_node11"><a xlink:href="main_8cpp.html" target="_top" xlink:title=" ">
<polygon fill="none" stroke="black" points="647.5,-6 647.5,-25 719.5,-25 719.5,-6 647.5,-6"/>
<text text-anchor="middle" x="683.5" y="-13" font-family="Helvetica,sans-Serif" font-size="10.00">src/main.cpp</text>
</a>
</g>
</g>
<!-- Node9&#45;&gt;Node11 -->
<g id="edge10" class="edge">
<title>Node9&#45;&gt;Node11</title>
<path fill="none" stroke="midnightblue" d="M625.91,-66.01C641.67,-52.46 661.36,-35.53 673.16,-25.39"/>
<polygon fill="midnightblue" stroke="midnightblue" points="623.39,-63.56 618.09,-72.73 627.96,-68.87 623.39,-63.56"/>
</g>
<!-- Node13&#45;&gt;Node3 -->
<g id="edge29" class="edge">
<title>Node13&#45;&gt;Node3</title>
<path fill="none" stroke="midnightblue" d="M1110.05,-161.44C875.35,-150.57 185.08,-118.03 137.5,-109 129.95,-107.57 122.04,-105.42 114.54,-103.06"/>
<polygon fill="midnightblue" stroke="midnightblue" points="1110.06,-164.94 1120.21,-161.91 1110.39,-157.95 1110.06,-164.94"/>
</g>
<!-- Node13&#45;&gt;Node4 -->
<g id="edge31" class="edge">
<title>Node13&#45;&gt;Node4</title>
<path fill="none" stroke="midnightblue" d="M1110.49,-161.36C929.15,-152.57 479.29,-129.39 329.5,-109 318.11,-107.45 306.06,-105.33 294.48,-103.04"/>
<polygon fill="midnightblue" stroke="midnightblue" points="1110.32,-164.86 1120.48,-161.84 1110.66,-157.87 1110.32,-164.86"/>
</g>
<!-- Node13&#45;&gt;Node5 -->
<g id="edge32" class="edge">
<title>Node13&#45;&gt;Node5</title>
<path fill="none" stroke="midnightblue" d="M1110.3,-162.46C982.14,-157.42 717.65,-143.48 496.5,-109 486.35,-107.42 475.63,-105.29 465.32,-103.02"/>
<polygon fill="midnightblue" stroke="midnightblue" points="1110.28,-165.96 1120.41,-162.85 1110.55,-158.97 1110.28,-165.96"/>
</g>
<!-- Node13&#45;&gt;Node6 -->
<g id="edge30" class="edge">
<title>Node13&#45;&gt;Node6</title>
<path fill="none" stroke="midnightblue" d="M1110,-161.54C947.24,-153.82 580.58,-133.91 529.5,-109 506.6,-97.84 510.73,-82.48 490.5,-67 471.21,-52.23 446.98,-39.53 427.69,-30.55"/>
<polygon fill="midnightblue" stroke="midnightblue" points="1110.27,-165.06 1120.42,-162.03 1110.6,-158.06 1110.27,-165.06"/>
</g>
<!-- Node13&#45;&gt;Node9 -->
<g id="edge35" class="edge">
<title>Node13&#45;&gt;Node9</title>
<path fill="none" stroke="midnightblue" d="M1110.32,-160C1010.15,-152.71 830.24,-136.9 678.5,-109 669.67,-107.38 660.36,-105.29 651.38,-103.08"/>
<polygon fill="midnightblue" stroke="midnightblue" points="1110.13,-163.49 1120.35,-160.72 1110.63,-156.51 1110.13,-163.49"/>
</g>
<!-- Node14 -->
<g id="node14" class="node">
<title>Node14</title>
<g id="a_node14"><a xlink:href="CheatManager_8cpp.html" target="_top" xlink:title=" ">
<polygon fill="none" stroke="black" points="737.5,-0.5 737.5,-30.5 843.5,-30.5 843.5,-0.5 737.5,-0.5"/>
<text text-anchor="start" x="745.5" y="-18.5" font-family="Helvetica,sans-Serif" font-size="10.00">src/Scripts/Common</text>
<text text-anchor="middle" x="790.5" y="-7.5" font-family="Helvetica,sans-Serif" font-size="10.00">/CheatManager.cpp</text>
</a>
</g>
</g>
<!-- Node13&#45;&gt;Node14 -->
<g id="edge13" class="edge">
<title>Node13&#45;&gt;Node14</title>
<path fill="none" stroke="midnightblue" d="M1109.91,-161.42C981.78,-154.71 737.48,-138.21 711.5,-109 699.1,-95.05 702.53,-83.37 711.5,-67 720.49,-50.58 737.35,-38.72 753.19,-30.64"/>
<polygon fill="midnightblue" stroke="midnightblue" points="1109.89,-164.93 1120.05,-161.95 1110.25,-157.93 1109.89,-164.93"/>
</g>
<!-- Node15 -->
<g id="node15" class="node">
<title>Node15</title>
<g id="a_node15"><a xlink:href="CheatManager_8hpp.html" target="_top" xlink:title=" ">
<polygon fill="none" stroke="black" points="720.5,-73 720.5,-103 826.5,-103 826.5,-73 720.5,-73"/>
<text text-anchor="start" x="728.5" y="-91" font-family="Helvetica,sans-Serif" font-size="10.00">src/Scripts/Common</text>
<text text-anchor="middle" x="773.5" y="-80" font-family="Helvetica,sans-Serif" font-size="10.00">/CheatManager.hpp</text>
</a>
</g>
</g>
<!-- Node13&#45;&gt;Node15 -->
<g id="edge14" class="edge">
<title>Node13&#45;&gt;Node15</title>
<path fill="none" stroke="midnightblue" d="M1110.09,-156.17C1038.31,-147.17 928.85,-131.34 835.5,-109 828.46,-107.32 821.07,-105.22 813.93,-103.03"/>
<polygon fill="midnightblue" stroke="midnightblue" points="1110.04,-159.69 1120.4,-157.45 1110.9,-152.75 1110.04,-159.69"/>
</g>
<!-- Node18 -->
<g id="node18" class="node">
<title>Node18</title>
<g id="a_node18"><a xlink:href="HealthBehaviour_8cpp.html" target="_top" xlink:title=" ">
<polygon fill="none" stroke="black" points="844.5,-73 844.5,-103 954.5,-103 954.5,-73 844.5,-73"/>
<text text-anchor="start" x="852.5" y="-91" font-family="Helvetica,sans-Serif" font-size="10.00">src/Scripts/Common</text>
<text text-anchor="middle" x="899.5" y="-80" font-family="Helvetica,sans-Serif" font-size="10.00">/HealthBehaviour.cpp</text>
</a>
</g>
</g>
<!-- Node13&#45;&gt;Node18 -->
<g id="edge18" class="edge">
<title>Node13&#45;&gt;Node18</title>
<path fill="none" stroke="midnightblue" d="M1118.35,-148.63C1074.19,-137.92 1015.79,-123.32 964.5,-109 957.9,-107.16 950.96,-105.12 944.17,-103.08"/>
<polygon fill="midnightblue" stroke="midnightblue" points="1117.58,-152.04 1128.12,-150.99 1119.22,-145.24 1117.58,-152.04"/>
</g>
<!-- Node19 -->
<g id="node19" class="node">
<title>Node19</title>
<g id="a_node19"><a xlink:href="MouseColliderScript_8cpp.html" target="_top" xlink:title=" ">
<polygon fill="none" stroke="black" points="973,-73 973,-103 1098,-103 1098,-73 973,-73"/>
<text text-anchor="start" x="981" y="-91" font-family="Helvetica,sans-Serif" font-size="10.00">src/Scripts/Common</text>
<text text-anchor="middle" x="1035.5" y="-80" font-family="Helvetica,sans-Serif" font-size="10.00">/MouseColliderScript.cpp</text>
</a>
</g>
</g>
<!-- Node13&#45;&gt;Node19 -->
<g id="edge19" class="edge">
<title>Node13&#45;&gt;Node19</title>
<path fill="none" stroke="midnightblue" d="M1150.2,-146.35C1123.44,-132.97 1087.96,-115.23 1063.58,-103.04"/>
<polygon fill="midnightblue" stroke="midnightblue" points="1148.76,-149.54 1159.27,-150.88 1151.89,-143.28 1148.76,-149.54"/>
</g>
<!-- Node20 -->
<g id="node20" class="node">
<title>Node20</title>
<g id="a_node20"><a xlink:href="AirstrikeAbilityBehaviour_8cpp.html" target="_top" xlink:title=" ">
<polygon fill="none" stroke="black" points="1116,-73 1116,-103 1259,-103 1259,-73 1116,-73"/>
<text text-anchor="start" x="1124" y="-91" font-family="Helvetica,sans-Serif" font-size="10.00">src/Scripts/Heroes</text>
<text text-anchor="middle" x="1187.5" y="-80" font-family="Helvetica,sans-Serif" font-size="10.00">/AirstrikeAbilityBehaviour.cpp</text>
</a>
</g>
</g>
<!-- Node13&#45;&gt;Node20 -->
<g id="edge20" class="edge">
<title>Node13&#45;&gt;Node20</title>
<path fill="none" stroke="midnightblue" d="M1187.5,-140.59C1187.5,-128.26 1187.5,-113.72 1187.5,-103.23"/>
<polygon fill="midnightblue" stroke="midnightblue" points="1184,-140.7 1187.5,-150.7 1191,-140.71 1184,-140.7"/>
</g>
<!-- Node21 -->
<g id="node21" class="node">
<title>Node21</title>
<g id="a_node21"><a xlink:href="EnemySuicideAbilityBehaviour_8cpp.html" target="_top" xlink:title=" ">
<polygon fill="none" stroke="black" points="1277,-73 1277,-103 1446,-103 1446,-73 1277,-73"/>
<text text-anchor="start" x="1285" y="-91" font-family="Helvetica,sans-Serif" font-size="10.00">src/Scripts/Heroes</text>
<text text-anchor="middle" x="1361.5" y="-80" font-family="Helvetica,sans-Serif" font-size="10.00">/EnemySuicideAbilityBehaviour.cpp</text>
</a>
</g>
</g>
<!-- Node13&#45;&gt;Node21 -->
<g id="edge21" class="edge">
<title>Node13&#45;&gt;Node21</title>
<path fill="none" stroke="midnightblue" d="M1229,-146.87C1259.76,-133.44 1301.08,-115.39 1329.35,-103.04"/>
<polygon fill="midnightblue" stroke="midnightblue" points="1227.58,-143.67 1219.82,-150.88 1230.39,-150.09 1227.58,-143.67"/>
</g>
<!-- Node22 -->
<g id="node22" class="node">
<title>Node22</title>
<g id="a_node22"><a xlink:href="HealAbilityBehaviour_8cpp.html" target="_top" xlink:title=" ">
<polygon fill="none" stroke="black" points="1464.5,-73 1464.5,-103 1592.5,-103 1592.5,-73 1464.5,-73"/>
<text text-anchor="start" x="1472.5" y="-91" font-family="Helvetica,sans-Serif" font-size="10.00">src/Scripts/Heroes</text>
<text text-anchor="middle" x="1528.5" y="-80" font-family="Helvetica,sans-Serif" font-size="10.00">/HealAbilityBehaviour.cpp</text>
</a>
</g>
</g>
<!-- Node13&#45;&gt;Node22 -->
<g id="edge22" class="edge">
<title>Node13&#45;&gt;Node22</title>
<path fill="none" stroke="midnightblue" d="M1264.8,-150.16C1318.48,-139.53 1391.58,-124.42 1455.5,-109 1463.04,-107.18 1470.98,-105.14 1478.73,-103.07"/>
<polygon fill="midnightblue" stroke="midnightblue" points="1263.8,-146.79 1254.66,-152.15 1265.15,-153.65 1263.8,-146.79"/>
</g>
<!-- Node23 -->
<g id="node23" class="node">
<title>Node23</title>
<g id="a_node23"><a xlink:href="IncreaseTowerFireRateAbilityBehaviour_8cpp.html" target="_top" xlink:title=" ">
<polygon fill="none" stroke="black" points="1611,-67.5 1611,-108.5 1758,-108.5 1758,-67.5 1611,-67.5"/>
<text text-anchor="start" x="1619" y="-96.5" font-family="Helvetica,sans-Serif" font-size="10.00">src/Scripts/Heroes</text>
<text text-anchor="start" x="1619" y="-85.5" font-family="Helvetica,sans-Serif" font-size="10.00">/IncreaseTowerFireRateAbility</text>
<text text-anchor="middle" x="1684.5" y="-74.5" font-family="Helvetica,sans-Serif" font-size="10.00">Behaviour.cpp</text>
</a>
</g>
</g>
<!-- Node13&#45;&gt;Node23 -->
<g id="edge23" class="edge">
<title>Node13&#45;&gt;Node23</title>
<path fill="none" stroke="midnightblue" d="M1264.68,-156.94C1348.11,-147.68 1484.82,-130.89 1601.5,-109 1604.56,-108.43 1607.68,-107.81 1610.82,-107.17"/>
<polygon fill="midnightblue" stroke="midnightblue" points="1264.08,-153.49 1254.52,-158.06 1264.84,-160.45 1264.08,-153.49"/>
</g>
<!-- Node24 -->
<g id="node24" class="node">
<title>Node24</title>
<g id="a_node24"><a xlink:href="InvisibilityAbilityBehaviour_8cpp.html" target="_top" xlink:title=" ">
<polygon fill="none" stroke="black" points="1776.5,-73 1776.5,-103 1926.5,-103 1926.5,-73 1776.5,-73"/>
<text text-anchor="start" x="1784.5" y="-91" font-family="Helvetica,sans-Serif" font-size="10.00">src/Scripts/Heroes</text>
<text text-anchor="middle" x="1851.5" y="-80" font-family="Helvetica,sans-Serif" font-size="10.00">/InvisibilityAbilityBehaviour.cpp</text>
</a>
</g>
</g>
<!-- Node13&#45;&gt;Node24 -->
<g id="edge24" class="edge">
<title>Node13&#45;&gt;Node24</title>
<path fill="none" stroke="midnightblue" d="M1265.03,-160.91C1376.68,-154.26 1588.96,-138.73 1767.5,-109 1777.26,-107.37 1787.57,-105.26 1797.5,-103.01"/>
<polygon fill="midnightblue" stroke="midnightblue" points="1264.65,-157.43 1254.87,-161.51 1265.06,-164.42 1264.65,-157.43"/>
</g>
<!-- Node25 -->
<g id="node25" class="node">
<title>Node25</title>
<g id="a_node25"><a xlink:href="UserAttackBehaviour_8cpp.html" target="_top" xlink:title=" ">
<polygon fill="none" stroke="black" points="1945,-73 1945,-103 2076,-103 2076,-73 1945,-73"/>
<text text-anchor="start" x="1953" y="-91" font-family="Helvetica,sans-Serif" font-size="10.00">src/Scripts/Heroes</text>
<text text-anchor="middle" x="2010.5" y="-80" font-family="Helvetica,sans-Serif" font-size="10.00">/UserAttackBehaviour.cpp</text>
</a>
</g>
</g>
<!-- Node13&#45;&gt;Node25 -->
<g id="edge25" class="edge">
<title>Node13&#45;&gt;Node25</title>
<path fill="none" stroke="midnightblue" d="M1264.89,-163.93C1401.3,-161 1693.04,-150.04 1935.5,-109 1944.54,-107.47 1954.06,-105.34 1963.18,-103.04"/>
<polygon fill="midnightblue" stroke="midnightblue" points="1264.47,-160.44 1254.55,-164.15 1264.62,-167.44 1264.47,-160.44"/>
</g>
<!-- Node26 -->
<g id="node26" class="node">
<title>Node26</title>
<g id="a_node26"><a xlink:href="UserMovementBehaviour_8cpp.html" target="_top" xlink:title=" ">
<polygon fill="none" stroke="black" points="2094.5,-73 2094.5,-103 2242.5,-103 2242.5,-73 2094.5,-73"/>
<text text-anchor="start" x="2102.5" y="-91" font-family="Helvetica,sans-Serif" font-size="10.00">src/Scripts/Heroes</text>
<text text-anchor="middle" x="2168.5" y="-80" font-family="Helvetica,sans-Serif" font-size="10.00">/UserMovementBehaviour.cpp</text>
</a>
</g>
</g>
<!-- Node13&#45;&gt;Node26 -->
<g id="edge26" class="edge">
<title>Node13&#45;&gt;Node26</title>
<path fill="none" stroke="midnightblue" d="M1265.1,-164.7C1421.31,-163.08 1784.45,-154.3 2085.5,-109 2095.47,-107.5 2105.99,-105.39 2116.08,-103.09"/>
<polygon fill="midnightblue" stroke="midnightblue" points="1264.63,-161.2 1254.67,-164.8 1264.7,-168.2 1264.63,-161.2"/>
</g>
<!-- Node27 -->
<g id="node27" class="node">
<title>Node27</title>
<g id="a_node27"><a xlink:href="CloseSceneBehaviour_8cpp.html" target="_top" xlink:title=" ">
<polygon fill="none" stroke="black" points="2260.5,-73 2260.5,-103 2406.5,-103 2406.5,-73 2260.5,-73"/>
<text text-anchor="start" x="2268.5" y="-91" font-family="Helvetica,sans-Serif" font-size="10.00">src/Scripts/Menu/CloseScene</text>
<text text-anchor="middle" x="2333.5" y="-80" font-family="Helvetica,sans-Serif" font-size="10.00">Behaviour.cpp</text>
</a>
</g>
</g>
<!-- Node13&#45;&gt;Node27 -->
<g id="edge27" class="edge">
<title>Node13&#45;&gt;Node27</title>
<path fill="none" stroke="midnightblue" d="M1264.73,-165.85C1440.79,-166.72 1885,-162.86 2251.5,-109 2261.5,-107.53 2272.07,-105.4 2282.17,-103.07"/>
<polygon fill="midnightblue" stroke="midnightblue" points="1264.55,-162.35 1254.53,-165.79 1264.51,-169.35 1264.55,-162.35"/>
</g>
<!-- Node28 -->
<g id="node28" class="node">
<title>Node28</title>
<g id="a_node28"><a xlink:href="PauseSceneBehaviour_8cpp.html" target="_top" xlink:title=" ">
<polygon fill="none" stroke="black" points="2425,-73 2425,-103 2574,-103 2574,-73 2425,-73"/>
<text text-anchor="start" x="2433" y="-91" font-family="Helvetica,sans-Serif" font-size="10.00">src/Scripts/Menu/PauseScene</text>
<text text-anchor="middle" x="2499.5" y="-80" font-family="Helvetica,sans-Serif" font-size="10.00">Behaviour.cpp</text>
</a>
</g>
</g>
<!-- Node13&#45;&gt;Node28 -->
<g id="edge28" class="edge">
<title>Node13&#45;&gt;Node28</title>
<path fill="none" stroke="midnightblue" d="M1264.9,-163.38C1498.13,-158.18 2191.77,-140.45 2415.5,-109 2425.89,-107.54 2436.88,-105.38 2447.36,-103.02"/>
<polygon fill="midnightblue" stroke="midnightblue" points="1264.73,-159.88 1254.81,-163.6 1264.89,-166.88 1264.73,-159.88"/>
</g>
<!-- Node29 -->
<g id="node29" class="node">
<title>Node29</title>
<g id="a_node29"><a xlink:href="FpsCounterSubsystem_8cpp.html" target="_top" xlink:title=" ">
<polygon fill="none" stroke="black" points="2591.5,-73 2591.5,-103 2785.5,-103 2785.5,-73 2591.5,-73"/>
<text text-anchor="start" x="2599.5" y="-91" font-family="Helvetica,sans-Serif" font-size="10.00">libs/spic&#45;engine/src</text>
<text text-anchor="middle" x="2688.5" y="-80" font-family="Helvetica,sans-Serif" font-size="10.00">/Subsystems/FpsCounterSubsystem.cpp</text>
</a>
</g>
</g>
<!-- Node13&#45;&gt;Node29 -->
<g id="edge33" class="edge">
<title>Node13&#45;&gt;Node29</title>
<path fill="none" stroke="midnightblue" d="M1264.76,-163.41C1518.51,-157.95 2324.87,-138.65 2583.5,-109 2596.31,-107.53 2609.91,-105.39 2622.92,-103.04"/>
<polygon fill="midnightblue" stroke="midnightblue" points="1264.45,-159.92 1254.53,-163.63 1264.6,-166.91 1264.45,-159.92"/>
</g>
<!-- Node30 -->
<g id="node30" class="node">
<title>Node30</title>
<g id="a_node30"><a xlink:href="GameSpeedSubsystem_8cpp.html" target="_top" xlink:title=" ">
<polygon fill="none" stroke="black" points="2804,-73 2804,-103 3001,-103 3001,-73 2804,-73"/>
<text text-anchor="start" x="2812" y="-91" font-family="Helvetica,sans-Serif" font-size="10.00">libs/spic&#45;engine/src</text>
<text text-anchor="middle" x="2902.5" y="-80" font-family="Helvetica,sans-Serif" font-size="10.00">/Subsystems/GameSpeedSubsystem.cpp</text>
</a>
</g>
</g>
<!-- Node13&#45;&gt;Node30 -->
<g id="edge34" class="edge">
<title>Node13&#45;&gt;Node30</title>
<path fill="none" stroke="midnightblue" d="M1264.89,-163.83C1543.2,-159.36 2492.63,-142.03 2794.5,-109 2807.77,-107.55 2821.86,-105.4 2835.32,-103.03"/>
<polygon fill="midnightblue" stroke="midnightblue" points="1264.83,-160.33 1254.89,-163.98 1264.94,-167.32 1264.83,-160.33"/>
</g>
<!-- Node15&#45;&gt;Node14 -->
<g id="edge17" class="edge">
<title>Node15&#45;&gt;Node14</title>
<path fill="none" stroke="midnightblue" d="M779.35,-62.73C781.92,-52.07 784.85,-39.91 787.06,-30.75"/>
<polygon fill="midnightblue" stroke="midnightblue" points="775.88,-62.19 776.94,-72.73 782.69,-63.83 775.88,-62.19"/>
</g>
<!-- Node16 -->
<g id="node16" class="node">
<title>Node16</title>
<g id="a_node16"><a xlink:href="LevelScene_8cpp.html" target="_top" xlink:title=" ">
<polygon fill="none" stroke="black" points="862,-6 862,-25 1001,-25 1001,-6 862,-6"/>
<text text-anchor="middle" x="931.5" y="-13" font-family="Helvetica,sans-Serif" font-size="10.00">src/Scenes/LevelScene.cpp</text>
</a>
</g>
</g>
<!-- Node15&#45;&gt;Node16 -->
<g id="edge15" class="edge">
<title>Node15&#45;&gt;Node16</title>
<path fill="none" stroke="midnightblue" d="M814.51,-68.7C846.07,-54.62 888.24,-35.8 912.38,-25.03"/>
<polygon fill="midnightblue" stroke="midnightblue" points="812.8,-65.63 805.09,-72.9 815.65,-72.02 812.8,-65.63"/>
</g>
<!-- Node17 -->
<g id="node17" class="node">
<title>Node17</title>
<g id="a_node17"><a xlink:href="LevelSelectionScene_8cpp.html" target="_top" xlink:title=" ">
<polygon fill="none" stroke="black" points="1019.5,-0.5 1019.5,-30.5 1153.5,-30.5 1153.5,-0.5 1019.5,-0.5"/>
<text text-anchor="start" x="1027.5" y="-18.5" font-family="Helvetica,sans-Serif" font-size="10.00">src/Scenes/LevelSelection</text>
<text text-anchor="middle" x="1086.5" y="-7.5" font-family="Helvetica,sans-Serif" font-size="10.00">Scene.cpp</text>
</a>
</g>
</g>
<!-- Node15&#45;&gt;Node17 -->
<g id="edge16" class="edge">
<title>Node15&#45;&gt;Node17</title>
<path fill="none" stroke="midnightblue" d="M824.65,-70C828.31,-68.94 831.95,-67.93 835.5,-67 853.13,-62.4 951.18,-42.97 1019.38,-29.6"/>
<polygon fill="midnightblue" stroke="midnightblue" points="823.57,-66.67 815,-72.9 825.58,-73.37 823.57,-66.67"/>
</g>
</g>
</svg>
