<?xml version="1.0" encoding="UTF-8" standalone="no"?>
<!DOCTYPE svg PUBLIC "-//W3C//DTD SVG 1.1//EN"
 "http://www.w3.org/Graphics/SVG/1.1/DTD/svg11.dtd">
<!-- Generated by graphviz version 2.44.0 ()
 -->
<!-- Title: src/Scripts/Heroes/IncreaseTowerFireRateAbilityBehaviour.cpp Pages: 1 -->
<!--zoomable 408 -->
<svg id="main" version="1.1" xmlns="http://www.w3.org/2000/svg" xmlns:xlink="http://www.w3.org/1999/xlink" xml:space="preserve" onload="init(evt)">
<style type="text/css"><![CDATA[
.edge:hover path { stroke: red; }
.edge:hover polygon { stroke: red; fill: red; }
]]></style>
<script type="text/javascript"><![CDATA[
var edges = document.getElementsByTagName('g');
if (edges && edges.length) {
  for (var i=0;i<edges.length;i++) {
    if (edges[i].id.substr(0,4)=='edge') {
      edges[i].setAttribute('class','edge');
    }
  }
}
]]></script>
        <defs>
                <circle id="rim" cx="0" cy="0" r="7"/>
                <circle id="rim2" cx="0" cy="0" r="3.5"/>
                <g id="zoomPlus">
                        <use xlink:href="#rim" fill="#404040">
                                <set attributeName="fill" to="#808080" begin="zoomplus.mouseover" end="zoomplus.mouseout"/>
                        </use>
                        <path d="M-4,0h8M0,-4v8" fill="none" stroke="white" stroke-width="1.5" pointer-events="none"/>
                </g>
                <g id="zoomMin">
                        <use xlink:href="#rim" fill="#404040">
                                <set attributeName="fill" to="#808080" begin="zoomminus.mouseover" end="zoomminus.mouseout"/>
                        </use>
                        <path d="M-4,0h8" fill="none" stroke="white" stroke-width="1.5" pointer-events="none"/>
                </g>
                <g id="dirArrow">
                        <path fill="none" stroke="white" stroke-width="1.5" d="M0,-3.0v7 M-2.5,-0.5L0,-3.0L2.5,-0.5"/>
                </g>
               <g id="resetDef">
                       <use xlink:href="#rim2" fill="#404040">
                               <set attributeName="fill" to="#808080" begin="reset.mouseover" end="reset.mouseout"/>
                       </use>
               </g>
        </defs>

<script type="text/javascript">
var viewWidth = 1486;
var viewHeight = 408;
var sectionId = 'dynsection-0';
</script>
<script xlink:href="svgpan.js"/>
<svg id="graph" class="graph">
<g id="viewport">
<title>src/Scripts/Heroes/IncreaseTowerFireRateAbilityBehaviour.cpp</title>
<!-- Node1 -->
<g id="node1" class="node">
<title>Node1</title>
<g id="a_node1"><a xlink:title=" ">
<polygon fill="#bfbfbf" stroke="black" points="901.57,-358.5 901.57,-399.5 1048.57,-399.5 1048.57,-358.5 901.57,-358.5"/>
<text text-anchor="start" x="909.57" y="-387.5" font-family="Helvetica,sans-Serif" font-size="10.00">src/Scripts/Heroes</text>
<text text-anchor="start" x="909.57" y="-376.5" font-family="Helvetica,sans-Serif" font-size="10.00">/IncreaseTowerFireRateAbility</text>
<text text-anchor="middle" x="975.07" y="-365.5" font-family="Helvetica,sans-Serif" font-size="10.00">Behaviour.cpp</text>
</a>
</g>
</g>
<!-- Node2 -->
<g id="node2" class="node">
<title>Node2</title>
<g id="a_node2"><a xlink:href="IncreaseTowerFireRateAbilityBehaviour_8hpp.html" target="_top" xlink:title=" ">
<polygon fill="none" stroke="black" points="115.07,-291.5 115.07,-321.5 259.07,-321.5 259.07,-291.5 115.07,-291.5"/>
<text text-anchor="start" x="123.07" y="-309.5" font-family="Helvetica,sans-Serif" font-size="10.00">IncreaseTowerFireRateAbility</text>
<text text-anchor="middle" x="187.07" y="-298.5" font-family="Helvetica,sans-Serif" font-size="10.00">Behaviour.hpp</text>
</a>
</g>
</g>
<!-- Node1&#45;&gt;Node2 -->
<g id="edge1" class="edge">
<title>Node1&#45;&gt;Node2</title>
<path fill="none" stroke="midnightblue" d="M901.29,-371.4C753.84,-358.21 423.69,-328.67 269.44,-314.87"/>
<polygon fill="midnightblue" stroke="midnightblue" points="269.36,-311.35 259.09,-313.94 268.74,-318.32 269.36,-311.35"/>
</g>
<!-- Node14 -->
<g id="node14" class="node">
<title>Node14</title>
<g id="a_node14"><a xlink:href="HeroConstants_8hpp.html" target="_top" xlink:title=" ">
<polygon fill="none" stroke="black" points="1237.57,-297 1237.57,-316 1352.57,-316 1352.57,-297 1237.57,-297"/>
<text text-anchor="middle" x="1295.07" y="-304" font-family="Helvetica,sans-Serif" font-size="10.00">../../HeroConstants.hpp</text>
</a>
</g>
</g>
<!-- Node1&#45;&gt;Node14 -->
<g id="edge20" class="edge">
<title>Node1&#45;&gt;Node14</title>
<path fill="none" stroke="midnightblue" d="M1048.89,-361.74C1109.45,-348.39 1193.5,-329.88 1246.05,-318.3"/>
<polygon fill="midnightblue" stroke="midnightblue" points="1247.12,-321.65 1256.13,-316.08 1245.61,-314.81 1247.12,-321.65"/>
</g>
<!-- Node15 -->
<g id="node15" class="node">
<title>Node15</title>
<g id="a_node15"><a xlink:href="GameObjectUtil_8hpp.html" target="_top" xlink:title=" ">
<polygon fill="none" stroke="black" points="903.57,-230 903.57,-249 1046.57,-249 1046.57,-230 903.57,-230"/>
<text text-anchor="middle" x="975.07" y="-237" font-family="Helvetica,sans-Serif" font-size="10.00">../../Utils/GameObjectUtil.hpp</text>
</a>
</g>
</g>
<!-- Node1&#45;&gt;Node15 -->
<g id="edge21" class="edge">
<title>Node1&#45;&gt;Node15</title>
<path fill="none" stroke="midnightblue" d="M975.07,-358.3C975.07,-331.9 975.07,-285.36 975.07,-259.38"/>
<polygon fill="midnightblue" stroke="midnightblue" points="978.57,-259.04 975.07,-249.04 971.57,-259.04 978.57,-259.04"/>
</g>
<!-- Node16 -->
<g id="node16" class="node">
<title>Node16</title>
<g id="a_node16"><a xlink:href="GameObject_8hpp.html" target="_top" xlink:title=" ">
<polygon fill="none" stroke="black" points="864.57,-168.5 864.57,-187.5 953.57,-187.5 953.57,-168.5 864.57,-168.5"/>
<text text-anchor="middle" x="909.07" y="-175.5" font-family="Helvetica,sans-Serif" font-size="10.00">GameObject.hpp</text>
</a>
</g>
</g>
<!-- Node1&#45;&gt;Node16 -->
<g id="edge46" class="edge">
<title>Node1&#45;&gt;Node16</title>
<path fill="none" stroke="midnightblue" d="M956.82,-358.11C937.16,-335.22 907.09,-295.54 895.07,-255 889.3,-235.56 895.22,-212.59 901.04,-197.03"/>
<polygon fill="midnightblue" stroke="midnightblue" points="904.36,-198.15 904.91,-187.57 897.88,-195.5 904.36,-198.15"/>
</g>
<!-- Node19 -->
<g id="node19" class="node">
<title>Node19</title>
<g id="a_node19"><a xlink:href="Layer_8hpp.html" target="_top" xlink:title=" ">
<polygon fill="none" stroke="black" points="1370.57,-297 1370.57,-316 1477.57,-316 1477.57,-297 1370.57,-297"/>
<text text-anchor="middle" x="1424.07" y="-304" font-family="Helvetica,sans-Serif" font-size="10.00">../../Enums/Layer.hpp</text>
</a>
</g>
</g>
<!-- Node1&#45;&gt;Node19 -->
<g id="edge30" class="edge">
<title>Node1&#45;&gt;Node19</title>
<path fill="none" stroke="midnightblue" d="M1048.85,-369.24C1126.95,-359.52 1253.67,-342.48 1362.07,-322 1367.91,-320.9 1374.04,-319.61 1380.07,-318.28"/>
<polygon fill="midnightblue" stroke="midnightblue" points="1381.1,-321.64 1390.07,-316.01 1379.54,-314.81 1381.1,-321.64"/>
</g>
<!-- Node20 -->
<g id="node20" class="node">
<title>Node20</title>
<g id="a_node20"><a xlink:href="AudioSourcePrefabFactory_8hpp.html" target="_top" xlink:title=" ">
<polygon fill="none" stroke="black" points="709.57,-224.5 709.57,-254.5 840.57,-254.5 840.57,-224.5 709.57,-224.5"/>
<text text-anchor="start" x="717.57" y="-242.5" font-family="Helvetica,sans-Serif" font-size="10.00">../../Factories/AudioSource</text>
<text text-anchor="middle" x="775.07" y="-231.5" font-family="Helvetica,sans-Serif" font-size="10.00">PrefabFactory.hpp</text>
</a>
</g>
</g>
<!-- Node1&#45;&gt;Node20 -->
<g id="edge31" class="edge">
<title>Node1&#45;&gt;Node20</title>
<path fill="none" stroke="midnightblue" d="M927.25,-358.42C906.14,-348.8 881.53,-336.22 861.07,-322 835.88,-304.48 810.85,-279.71 794.34,-262.09"/>
<polygon fill="midnightblue" stroke="midnightblue" points="796.74,-259.52 787.39,-254.54 791.59,-264.27 796.74,-259.52"/>
</g>
<!-- Node23 -->
<g id="node23" class="node">
<title>Node23</title>
<g id="a_node23"><a xlink:href="AttackBehaviour_8hpp.html" target="_top" xlink:title=" ">
<polygon fill="none" stroke="black" points="452.07,-297 452.07,-316 608.07,-316 608.07,-297 452.07,-297"/>
<text text-anchor="middle" x="530.07" y="-304" font-family="Helvetica,sans-Serif" font-size="10.00">../Common/AttackBehaviour.hpp</text>
</a>
</g>
</g>
<!-- Node1&#45;&gt;Node23 -->
<g id="edge38" class="edge">
<title>Node1&#45;&gt;Node23</title>
<path fill="none" stroke="midnightblue" d="M901.34,-366.32C815.59,-352.73 675.44,-330.53 594.08,-317.64"/>
<polygon fill="midnightblue" stroke="midnightblue" points="594.4,-314.15 583.97,-316.04 593.3,-321.06 594.4,-314.15"/>
</g>
<!-- Node25 -->
<g id="node25" class="node">
<title>Node25</title>
<g id="a_node25"><a xlink:href="Input_8hpp.html" target="_top" xlink:title=" ">
<polygon fill="none" stroke="black" points="1197.07,-112.5 1197.07,-131.5 1253.07,-131.5 1253.07,-112.5 1197.07,-112.5"/>
<text text-anchor="middle" x="1225.07" y="-119.5" font-family="Helvetica,sans-Serif" font-size="10.00">Input.hpp</text>
</a>
</g>
</g>
<!-- Node1&#45;&gt;Node25 -->
<g id="edge47" class="edge">
<title>Node1&#45;&gt;Node25</title>
<path fill="none" stroke="midnightblue" d="M1001.9,-358.44C1016.5,-347.75 1034.84,-334.23 1051.07,-322 1090.05,-292.63 1104.34,-290.27 1138.07,-255 1163.21,-228.71 1165.08,-218.39 1185.07,-188 1195.51,-172.12 1206.81,-153.63 1214.73,-140.44"/>
<polygon fill="midnightblue" stroke="midnightblue" points="1217.93,-141.9 1220.05,-131.52 1211.92,-138.31 1217.93,-141.9"/>
</g>
<!-- Node28 -->
<g id="node28" class="node">
<title>Node28</title>
<g id="a_node28"><a xlink:href="Engine_8hpp.html" target="_top" xlink:title=" ">
<polygon fill="none" stroke="black" points="1065.07,-230 1065.07,-249 1129.07,-249 1129.07,-230 1065.07,-230"/>
<text text-anchor="middle" x="1097.07" y="-237" font-family="Helvetica,sans-Serif" font-size="10.00">Engine.hpp</text>
</a>
</g>
</g>
<!-- Node1&#45;&gt;Node28 -->
<g id="edge52" class="edge">
<title>Node1&#45;&gt;Node28</title>
<path fill="none" stroke="midnightblue" d="M992.55,-358.3C1016.82,-330.95 1060.27,-281.98 1082.74,-256.65"/>
<polygon fill="midnightblue" stroke="midnightblue" points="1085.47,-258.84 1089.49,-249.04 1080.24,-254.2 1085.47,-258.84"/>
</g>
<!-- Node3 -->
<g id="node3" class="node">
<title>Node3</title>
<g id="a_node3"><a xlink:href="BehaviourScript_8hpp.html" target="_top" xlink:title=" ">
<polygon fill="none" stroke="black" points="203.07,-168.5 203.07,-187.5 307.07,-187.5 307.07,-168.5 203.07,-168.5"/>
<text text-anchor="middle" x="255.07" y="-175.5" font-family="Helvetica,sans-Serif" font-size="10.00">BehaviourScript.hpp</text>
</a>
</g>
</g>
<!-- Node2&#45;&gt;Node3 -->
<g id="edge2" class="edge">
<title>Node2&#45;&gt;Node3</title>
<path fill="none" stroke="midnightblue" d="M114.86,-297.14C51.51,-286.89 -25.54,-265.51 9.07,-224 32.03,-196.46 127.76,-185.73 192.8,-181.57"/>
<polygon fill="midnightblue" stroke="midnightblue" points="193.19,-185.06 202.96,-180.96 192.77,-178.07 193.19,-185.06"/>
</g>
<!-- Node7 -->
<g id="node7" class="node">
<title>Node7</title>
<g id="a_node7"><a xlink:href="CoolDownBehaviour_8hpp.html" target="_top" xlink:title=" ">
<polygon fill="none" stroke="black" points="192.07,-230 192.07,-249 364.07,-249 364.07,-230 192.07,-230"/>
<text text-anchor="middle" x="278.07" y="-237" font-family="Helvetica,sans-Serif" font-size="10.00">../Common/CoolDownBehaviour.hpp</text>
</a>
</g>
</g>
<!-- Node2&#45;&gt;Node7 -->
<g id="edge7" class="edge">
<title>Node2&#45;&gt;Node7</title>
<path fill="none" stroke="midnightblue" d="M206.81,-291.4C221.93,-280.6 242.71,-265.76 257.93,-254.89"/>
<polygon fill="midnightblue" stroke="midnightblue" points="260.06,-257.67 266.16,-249.01 255.99,-251.97 260.06,-257.67"/>
</g>
<!-- Node8 -->
<g id="node8" class="node">
<title>Node8</title>
<g id="a_node8"><a xlink:href="HealthBehaviour_8hpp.html" target="_top" xlink:title=" ">
<polygon fill="none" stroke="black" points="18.07,-230 18.07,-249 174.07,-249 174.07,-230 18.07,-230"/>
<text text-anchor="middle" x="96.07" y="-237" font-family="Helvetica,sans-Serif" font-size="10.00">../Common/HealthBehaviour.hpp</text>
</a>
</g>
</g>
<!-- Node2&#45;&gt;Node8 -->
<g id="edge9" class="edge">
<title>Node2&#45;&gt;Node8</title>
<path fill="none" stroke="midnightblue" d="M167.32,-291.4C152.2,-280.6 131.43,-265.76 116.21,-254.89"/>
<polygon fill="midnightblue" stroke="midnightblue" points="118.15,-251.97 107.98,-249.01 114.08,-257.67 118.15,-251.97"/>
</g>
<!-- Node4 -->
<g id="node4" class="node">
<title>Node4</title>
<g id="a_node4"><a xlink:href="Component_8hpp.html" target="_top" xlink:title=" ">
<polygon fill="none" stroke="black" points="382.07,-56.5 382.07,-75.5 466.07,-75.5 466.07,-56.5 382.07,-56.5"/>
<text text-anchor="middle" x="424.07" y="-63.5" font-family="Helvetica,sans-Serif" font-size="10.00">Component.hpp</text>
</a>
</g>
</g>
<!-- Node3&#45;&gt;Node4 -->
<g id="edge3" class="edge">
<title>Node3&#45;&gt;Node4</title>
<path fill="none" stroke="midnightblue" d="M250.88,-168.38C244.98,-154.85 236.29,-128.48 249.07,-112 264.08,-92.64 325.92,-80.15 371.85,-73.36"/>
<polygon fill="midnightblue" stroke="midnightblue" points="372.57,-76.79 381.97,-71.91 371.58,-69.86 372.57,-76.79"/>
</g>
<!-- Node6 -->
<g id="node6" class="node">
<title>Node6</title>
<g id="a_node6"><a xlink:href="Collider_8hpp.html" target="_top" xlink:title=" ">
<polygon fill="none" stroke="black" points="258.57,-112.5 258.57,-131.5 325.57,-131.5 325.57,-112.5 258.57,-112.5"/>
<text text-anchor="middle" x="292.07" y="-119.5" font-family="Helvetica,sans-Serif" font-size="10.00">Collider.hpp</text>
</a>
</g>
</g>
<!-- Node3&#45;&gt;Node6 -->
<g id="edge5" class="edge">
<title>Node3&#45;&gt;Node6</title>
<path fill="none" stroke="midnightblue" d="M261.18,-168.08C266.35,-160.53 273.92,-149.49 280.26,-140.23"/>
<polygon fill="midnightblue" stroke="midnightblue" points="283.31,-141.98 286.07,-131.75 277.53,-138.02 283.31,-141.98"/>
</g>
<!-- Node5 -->
<g id="node5" class="node">
<title>Node5</title>
<g id="a_node5"><a xlink:title=" ">
<polygon fill="none" stroke="#bfbfbf" points="544.57,-0.5 544.57,-19.5 595.57,-19.5 595.57,-0.5 544.57,-0.5"/>
<text text-anchor="middle" x="570.07" y="-7.5" font-family="Helvetica,sans-Serif" font-size="10.00">memory</text>
</a>
</g>
</g>
<!-- Node4&#45;&gt;Node5 -->
<g id="edge4" class="edge">
<title>Node4&#45;&gt;Node5</title>
<path fill="none" stroke="midnightblue" d="M447.2,-56.44C471.55,-47.44 510.08,-33.19 537.49,-23.05"/>
<polygon fill="midnightblue" stroke="midnightblue" points="538.88,-26.27 547.04,-19.52 536.45,-19.7 538.88,-26.27"/>
</g>
<!-- Node6&#45;&gt;Node4 -->
<g id="edge6" class="edge">
<title>Node6&#45;&gt;Node4</title>
<path fill="none" stroke="midnightblue" d="M312.98,-112.44C334.81,-103.52 369.22,-89.44 393.96,-79.32"/>
<polygon fill="midnightblue" stroke="midnightblue" points="395.32,-82.54 403.25,-75.52 392.67,-76.06 395.32,-82.54"/>
</g>
<!-- Node7&#45;&gt;Node3 -->
<g id="edge8" class="edge">
<title>Node7&#45;&gt;Node3</title>
<path fill="none" stroke="midnightblue" d="M274.77,-229.98C271.46,-221.4 266.25,-207.93 262.02,-196.98"/>
<polygon fill="midnightblue" stroke="midnightblue" points="265.23,-195.57 258.36,-187.51 258.7,-198.1 265.23,-195.57"/>
</g>
<!-- Node8&#45;&gt;Node3 -->
<g id="edge10" class="edge">
<title>Node8&#45;&gt;Node3</title>
<path fill="none" stroke="midnightblue" d="M118.85,-229.98C146.12,-219.77 191.98,-202.61 222.87,-191.05"/>
<polygon fill="midnightblue" stroke="midnightblue" points="224.19,-194.29 232.33,-187.51 221.74,-187.74 224.19,-194.29"/>
</g>
<!-- Node8&#45;&gt;Node5 -->
<g id="edge11" class="edge">
<title>Node8&#45;&gt;Node5</title>
<path fill="none" stroke="midnightblue" d="M104.05,-229.84C124.66,-207.86 182.07,-149 239.07,-112 334.78,-49.87 470.66,-24.34 534.43,-15.3"/>
<polygon fill="midnightblue" stroke="midnightblue" points="534.96,-18.76 544.39,-13.94 534.01,-11.82 534.96,-18.76"/>
</g>
<!-- Node9 -->
<g id="node9" class="node">
<title>Node9</title>
<g id="a_node9"><a xlink:href="Animator_8hpp.html" target="_top" xlink:title=" ">
<polygon fill="none" stroke="black" points="413.07,-168.5 413.07,-187.5 487.07,-187.5 487.07,-168.5 413.07,-168.5"/>
<text text-anchor="middle" x="450.07" y="-175.5" font-family="Helvetica,sans-Serif" font-size="10.00">Animator.hpp</text>
</a>
</g>
</g>
<!-- Node8&#45;&gt;Node9 -->
<g id="edge12" class="edge">
<title>Node8&#45;&gt;Node9</title>
<path fill="none" stroke="midnightblue" d="M146.79,-229.98C215.2,-218.48 336.14,-198.15 402.76,-186.95"/>
<polygon fill="midnightblue" stroke="midnightblue" points="403.68,-190.35 412.97,-185.24 402.52,-183.44 403.68,-190.35"/>
</g>
<!-- Node9&#45;&gt;Node4 -->
<g id="edge13" class="edge">
<title>Node9&#45;&gt;Node4</title>
<path fill="none" stroke="midnightblue" d="M444.61,-168.44C439.33,-159.67 431.62,-145.45 428.07,-132 424.05,-116.78 423.22,-98.89 423.3,-85.74"/>
<polygon fill="midnightblue" stroke="midnightblue" points="426.8,-85.66 423.54,-75.58 419.8,-85.49 426.8,-85.66"/>
</g>
<!-- Node9&#45;&gt;Node5 -->
<g id="edge19" class="edge">
<title>Node9&#45;&gt;Node5</title>
<path fill="none" stroke="midnightblue" d="M437.05,-168.37C407.78,-147.93 341.71,-95.33 373.07,-56 392.87,-31.17 483.17,-18.96 534.37,-13.93"/>
<polygon fill="midnightblue" stroke="midnightblue" points="534.73,-17.41 544.36,-12.99 534.08,-10.44 534.73,-17.41"/>
</g>
<!-- Node10 -->
<g id="node10" class="node">
<title>Node10</title>
<g id="a_node10"><a xlink:href="Sprite_8hpp.html" target="_top" xlink:title=" ">
<polygon fill="none" stroke="black" points="470.07,-112.5 470.07,-131.5 530.07,-131.5 530.07,-112.5 470.07,-112.5"/>
<text text-anchor="middle" x="500.07" y="-119.5" font-family="Helvetica,sans-Serif" font-size="10.00">Sprite.hpp</text>
</a>
</g>
</g>
<!-- Node9&#45;&gt;Node10 -->
<g id="edge14" class="edge">
<title>Node9&#45;&gt;Node10</title>
<path fill="none" stroke="midnightblue" d="M458.33,-168.08C465.53,-160.3 476.18,-148.8 484.91,-139.37"/>
<polygon fill="midnightblue" stroke="midnightblue" points="487.74,-141.47 491.97,-131.75 482.6,-136.71 487.74,-141.47"/>
</g>
<!-- Node13 -->
<g id="node13" class="node">
<title>Node13</title>
<g id="a_node13"><a xlink:title=" ">
<polygon fill="none" stroke="#bfbfbf" points="808.07,-112.5 808.07,-131.5 852.07,-131.5 852.07,-112.5 808.07,-112.5"/>
<text text-anchor="middle" x="830.07" y="-119.5" font-family="Helvetica,sans-Serif" font-size="10.00">vector</text>
</a>
</g>
</g>
<!-- Node9&#45;&gt;Node13 -->
<g id="edge18" class="edge">
<title>Node9&#45;&gt;Node13</title>
<path fill="none" stroke="midnightblue" d="M487.2,-171.72C561.63,-161.15 727.93,-137.51 797.98,-127.56"/>
<polygon fill="midnightblue" stroke="midnightblue" points="798.58,-131.01 807.99,-126.14 797.59,-124.08 798.58,-131.01"/>
</g>
<!-- Node10&#45;&gt;Node4 -->
<g id="edge15" class="edge">
<title>Node10&#45;&gt;Node4</title>
<path fill="none" stroke="midnightblue" d="M487.86,-112.32C476.29,-104.11 458.69,-91.6 444.91,-81.81"/>
<polygon fill="midnightblue" stroke="midnightblue" points="446.68,-78.77 436.5,-75.83 442.63,-84.48 446.68,-78.77"/>
</g>
<!-- Node11 -->
<g id="node11" class="node">
<title>Node11</title>
<g id="a_node11"><a xlink:href="Color_8hpp.html" target="_top" xlink:title=" ">
<polygon fill="none" stroke="black" points="484.57,-56.5 484.57,-75.5 541.57,-75.5 541.57,-56.5 484.57,-56.5"/>
<text text-anchor="middle" x="513.07" y="-63.5" font-family="Helvetica,sans-Serif" font-size="10.00">Color.hpp</text>
</a>
</g>
</g>
<!-- Node10&#45;&gt;Node11 -->
<g id="edge16" class="edge">
<title>Node10&#45;&gt;Node11</title>
<path fill="none" stroke="midnightblue" d="M502.22,-112.08C503.94,-104.93 506.42,-94.64 508.57,-85.69"/>
<polygon fill="midnightblue" stroke="midnightblue" points="512.02,-86.29 510.96,-75.75 505.22,-84.65 512.02,-86.29"/>
</g>
<!-- Node12 -->
<g id="node12" class="node">
<title>Node12</title>
<g id="a_node12"><a xlink:title=" ">
<polygon fill="none" stroke="#bfbfbf" points="684.57,-56.5 684.57,-75.5 725.57,-75.5 725.57,-56.5 684.57,-56.5"/>
<text text-anchor="middle" x="705.07" y="-63.5" font-family="Helvetica,sans-Serif" font-size="10.00">string</text>
</a>
</g>
</g>
<!-- Node10&#45;&gt;Node12 -->
<g id="edge17" class="edge">
<title>Node10&#45;&gt;Node12</title>
<path fill="none" stroke="midnightblue" d="M530.32,-113.03C569.07,-102.83 635.84,-85.23 674.67,-75.01"/>
<polygon fill="midnightblue" stroke="midnightblue" points="675.59,-78.39 684.36,-72.45 673.8,-71.62 675.59,-78.39"/>
</g>
<!-- Node15&#45;&gt;Node5 -->
<g id="edge22" class="edge">
<title>Node15&#45;&gt;Node5</title>
<path fill="none" stroke="midnightblue" d="M1014.06,-229.98C1063.57,-218.77 1143.62,-199.19 1152.07,-188 1169.14,-165.38 1138.26,-127.8 1125.07,-112 1097.95,-79.52 1087.65,-70.96 1048.07,-56 967.09,-25.4 702.84,-14.83 606.03,-11.93"/>
<polygon fill="midnightblue" stroke="midnightblue" points="605.96,-8.43 595.87,-11.64 605.76,-15.43 605.96,-8.43"/>
</g>
<!-- Node15&#45;&gt;Node16 -->
<g id="edge23" class="edge">
<title>Node15&#45;&gt;Node16</title>
<path fill="none" stroke="midnightblue" d="M965.61,-229.98C955.32,-220.7 938.65,-205.67 926.07,-194.33"/>
<polygon fill="midnightblue" stroke="midnightblue" points="928.28,-191.61 918.51,-187.51 923.59,-196.8 928.28,-191.61"/>
</g>
<!-- Node16&#45;&gt;Node4 -->
<g id="edge24" class="edge">
<title>Node16&#45;&gt;Node4</title>
<path fill="none" stroke="midnightblue" d="M864.29,-169.15C861.51,-168.74 858.75,-168.35 856.07,-168 768.67,-156.61 535.18,-179.72 461.07,-132 444.55,-121.36 434.64,-100.6 429.29,-85.39"/>
<polygon fill="midnightblue" stroke="midnightblue" points="432.52,-84.01 426.17,-75.52 425.84,-86.11 432.52,-84.01"/>
</g>
<!-- Node16&#45;&gt;Node5 -->
<g id="edge29" class="edge">
<title>Node16&#45;&gt;Node5</title>
<path fill="none" stroke="midnightblue" d="M923.73,-168.4C935.48,-160.58 951.1,-147.86 958.07,-132 966.85,-112.01 955.75,-64.05 947.07,-56 922.28,-33.01 695.09,-17.97 605.84,-12.9"/>
<polygon fill="midnightblue" stroke="midnightblue" points="605.84,-9.39 595.66,-12.33 605.45,-16.38 605.84,-9.39"/>
</g>
<!-- Node16&#45;&gt;Node12 -->
<g id="edge27" class="edge">
<title>Node16&#45;&gt;Node12</title>
<path fill="none" stroke="midnightblue" d="M883.9,-168.47C861.14,-160.35 827.01,-147.14 799.07,-132 771.64,-117.13 742.43,-96 723.99,-81.91"/>
<polygon fill="midnightblue" stroke="midnightblue" points="725.9,-78.97 715.85,-75.62 721.62,-84.51 725.9,-78.97"/>
</g>
<!-- Node16&#45;&gt;Node13 -->
<g id="edge28" class="edge">
<title>Node16&#45;&gt;Node13</title>
<path fill="none" stroke="midnightblue" d="M896.38,-168.32C884.17,-159.98 865.49,-147.21 851.07,-137.35"/>
<polygon fill="midnightblue" stroke="midnightblue" points="852.96,-134.41 842.73,-131.65 849.01,-140.19 852.96,-134.41"/>
</g>
<!-- Node17 -->
<g id="node17" class="node">
<title>Node17</title>
<g id="a_node17"><a xlink:href="Transform_8hpp.html" target="_top" xlink:title=" ">
<polygon fill="none" stroke="black" points="869.57,-112.5 869.57,-131.5 948.57,-131.5 948.57,-112.5 869.57,-112.5"/>
<text text-anchor="middle" x="909.07" y="-119.5" font-family="Helvetica,sans-Serif" font-size="10.00">Transform.hpp</text>
</a>
</g>
</g>
<!-- Node16&#45;&gt;Node17 -->
<g id="edge25" class="edge">
<title>Node16&#45;&gt;Node17</title>
<path fill="none" stroke="midnightblue" d="M909.07,-168.08C909.07,-161.01 909.07,-150.86 909.07,-141.99"/>
<polygon fill="midnightblue" stroke="midnightblue" points="912.57,-141.75 909.07,-131.75 905.57,-141.75 912.57,-141.75"/>
</g>
<!-- Node18 -->
<g id="node18" class="node">
<title>Node18</title>
<g id="a_node18"><a xlink:href="Point_8hpp.html" target="_top" xlink:title=" ">
<polygon fill="none" stroke="black" points="880.57,-56.5 880.57,-75.5 937.57,-75.5 937.57,-56.5 880.57,-56.5"/>
<text text-anchor="middle" x="909.07" y="-63.5" font-family="Helvetica,sans-Serif" font-size="10.00">Point.hpp</text>
</a>
</g>
</g>
<!-- Node17&#45;&gt;Node18 -->
<g id="edge26" class="edge">
<title>Node17&#45;&gt;Node18</title>
<path fill="none" stroke="midnightblue" d="M909.07,-112.08C909.07,-105.01 909.07,-94.86 909.07,-85.99"/>
<polygon fill="midnightblue" stroke="midnightblue" points="912.57,-85.75 909.07,-75.75 905.57,-85.75 912.57,-85.75"/>
</g>
<!-- Node20&#45;&gt;Node5 -->
<g id="edge32" class="edge">
<title>Node20&#45;&gt;Node5</title>
<path fill="none" stroke="midnightblue" d="M739.56,-224.47C702.6,-207.98 645.88,-177.03 615.07,-132 592.79,-99.44 579.87,-54.44 573.98,-29.51"/>
<polygon fill="midnightblue" stroke="midnightblue" points="577.35,-28.58 571.75,-19.58 570.52,-30.11 577.35,-28.58"/>
</g>
<!-- Node20&#45;&gt;Node16 -->
<g id="edge33" class="edge">
<title>Node20&#45;&gt;Node16</title>
<path fill="none" stroke="midnightblue" d="M806.83,-224.4C829.11,-214.51 858.66,-201.38 880.26,-191.79"/>
<polygon fill="midnightblue" stroke="midnightblue" points="881.85,-194.91 889.57,-187.66 879.01,-188.52 881.85,-194.91"/>
</g>
<!-- Node21 -->
<g id="node21" class="node">
<title>Node21</title>
<g id="a_node21"><a xlink:href="AudioSource_8hpp.html" target="_top" xlink:title=" ">
<polygon fill="none" stroke="black" points="624.07,-112.5 624.07,-131.5 714.07,-131.5 714.07,-112.5 624.07,-112.5"/>
<text text-anchor="middle" x="669.07" y="-119.5" font-family="Helvetica,sans-Serif" font-size="10.00">AudioSource.hpp</text>
</a>
</g>
</g>
<!-- Node20&#45;&gt;Node21 -->
<g id="edge34" class="edge">
<title>Node20&#45;&gt;Node21</title>
<path fill="none" stroke="midnightblue" d="M743.19,-224.34C726.97,-215.79 707.99,-203.53 695.07,-188 683.9,-174.58 677.08,-155.77 673.25,-141.83"/>
<polygon fill="midnightblue" stroke="midnightblue" points="676.59,-140.76 670.78,-131.89 669.79,-142.44 676.59,-140.76"/>
</g>
<!-- Node22 -->
<g id="node22" class="node">
<title>Node22</title>
<g id="a_node22"><a xlink:href="AudioClipName_8hpp.html" target="_top" xlink:title=" ">
<polygon fill="none" stroke="black" points="703.57,-168.5 703.57,-187.5 846.57,-187.5 846.57,-168.5 703.57,-168.5"/>
<text text-anchor="middle" x="775.07" y="-175.5" font-family="Helvetica,sans-Serif" font-size="10.00">../Enums/AudioClipName.hpp</text>
</a>
</g>
</g>
<!-- Node20&#45;&gt;Node22 -->
<g id="edge37" class="edge">
<title>Node20&#45;&gt;Node22</title>
<path fill="none" stroke="midnightblue" d="M775.07,-224.4C775.07,-216.47 775.07,-206.46 775.07,-197.86"/>
<polygon fill="midnightblue" stroke="midnightblue" points="778.57,-197.66 775.07,-187.66 771.57,-197.66 778.57,-197.66"/>
</g>
<!-- Node21&#45;&gt;Node4 -->
<g id="edge35" class="edge">
<title>Node21&#45;&gt;Node4</title>
<path fill="none" stroke="midnightblue" d="M630.25,-112.44C587.51,-103.02 518.74,-87.87 472.5,-77.68"/>
<polygon fill="midnightblue" stroke="midnightblue" points="473.23,-74.25 462.71,-75.52 471.72,-81.09 473.23,-74.25"/>
</g>
<!-- Node21&#45;&gt;Node12 -->
<g id="edge36" class="edge">
<title>Node21&#45;&gt;Node12</title>
<path fill="none" stroke="midnightblue" d="M675.01,-112.08C680.05,-104.53 687.41,-93.49 693.58,-84.23"/>
<polygon fill="midnightblue" stroke="midnightblue" points="696.6,-86.01 699.24,-75.75 690.78,-82.13 696.6,-86.01"/>
</g>
<!-- Node23&#45;&gt;Node3 -->
<g id="edge39" class="edge">
<title>Node23&#45;&gt;Node3</title>
<path fill="none" stroke="midnightblue" d="M503.98,-296.85C479.16,-288.07 441.24,-273.2 411.07,-255 392.41,-243.74 391.94,-234.91 373.07,-224 348.49,-209.79 318.58,-198.44 295.03,-190.69"/>
<polygon fill="midnightblue" stroke="midnightblue" points="295.95,-187.31 285.36,-187.6 293.81,-193.98 295.95,-187.31"/>
</g>
<!-- Node23&#45;&gt;Node7 -->
<g id="edge40" class="edge">
<title>Node23&#45;&gt;Node7</title>
<path fill="none" stroke="midnightblue" d="M496.87,-296.94C451.73,-285.29 370.94,-264.45 321.17,-251.62"/>
<polygon fill="midnightblue" stroke="midnightblue" points="321.9,-248.19 311.35,-249.08 320.16,-254.97 321.9,-248.19"/>
</g>
<!-- Node23&#45;&gt;Node8 -->
<g id="edge41" class="edge">
<title>Node23&#45;&gt;Node8</title>
<path fill="none" stroke="midnightblue" d="M468.9,-296.99C399.53,-287.24 283.07,-270.61 183.07,-255 174.39,-253.64 165.22,-252.17 156.23,-250.69"/>
<polygon fill="midnightblue" stroke="midnightblue" points="156.62,-247.21 146.19,-249.03 155.48,-254.12 156.62,-247.21"/>
</g>
<!-- Node23&#45;&gt;Node9 -->
<g id="edge43" class="edge">
<title>Node23&#45;&gt;Node9</title>
<path fill="none" stroke="midnightblue" d="M537.45,-296.99C550.04,-281.41 572.82,-247.71 557.07,-224 543.68,-203.84 519.3,-192.69 497.19,-186.54"/>
<polygon fill="midnightblue" stroke="midnightblue" points="497.79,-183.08 487.24,-184.04 496.09,-189.87 497.79,-183.08"/>
</g>
<!-- Node23&#45;&gt;Node12 -->
<g id="edge45" class="edge">
<title>Node23&#45;&gt;Node12</title>
<path fill="none" stroke="midnightblue" d="M539.62,-296.71C549.34,-287.27 564.2,-271.41 573.07,-255 604.57,-196.73 572.58,-162.82 615.07,-112 630.43,-93.63 655.15,-82.03 674.8,-75.21"/>
<polygon fill="midnightblue" stroke="midnightblue" points="676.09,-78.48 684.54,-72.08 673.95,-71.81 676.09,-78.48"/>
</g>
<!-- Node23&#45;&gt;Node18 -->
<g id="edge44" class="edge">
<title>Node23&#45;&gt;Node18</title>
<path fill="none" stroke="midnightblue" d="M540.65,-296.98C553.03,-286.99 574.12,-269.89 592.07,-255 638.19,-216.74 645.53,-201.72 695.07,-168 738.47,-138.46 751.6,-134.41 799.07,-112 824.63,-99.93 854.34,-87.89 876.44,-79.3"/>
<polygon fill="midnightblue" stroke="midnightblue" points="877.94,-82.48 886.01,-75.62 875.42,-75.94 877.94,-82.48"/>
</g>
<!-- Node24 -->
<g id="node24" class="node">
<title>Node24</title>
<g id="a_node24"><a xlink:href="BulletType_8hpp.html" target="_top" xlink:title=" ">
<polygon fill="none" stroke="black" points="420.07,-230 420.07,-249 548.07,-249 548.07,-230 420.07,-230"/>
<text text-anchor="middle" x="484.07" y="-237" font-family="Helvetica,sans-Serif" font-size="10.00">../../Enums/BulletType.hpp</text>
</a>
</g>
</g>
<!-- Node23&#45;&gt;Node24 -->
<g id="edge42" class="edge">
<title>Node23&#45;&gt;Node24</title>
<path fill="none" stroke="midnightblue" d="M523.87,-296.73C516.76,-286.7 504.96,-270.01 496.04,-257.42"/>
<polygon fill="midnightblue" stroke="midnightblue" points="498.81,-255.27 490.17,-249.13 493.09,-259.31 498.81,-255.27"/>
</g>
<!-- Node25&#45;&gt;Node12 -->
<g id="edge51" class="edge">
<title>Node25&#45;&gt;Node12</title>
<path fill="none" stroke="midnightblue" d="M1196.74,-118.06C1106.94,-108.73 829.03,-79.87 735.87,-70.2"/>
<polygon fill="midnightblue" stroke="midnightblue" points="736,-66.69 725.69,-69.14 735.28,-73.66 736,-66.69"/>
</g>
<!-- Node25&#45;&gt;Node18 -->
<g id="edge48" class="edge">
<title>Node25&#45;&gt;Node18</title>
<path fill="none" stroke="midnightblue" d="M1197.03,-116.21C1140.51,-106.55 1012.81,-84.73 948.15,-73.68"/>
<polygon fill="midnightblue" stroke="midnightblue" points="948.41,-70.17 937.96,-71.94 947.23,-77.07 948.41,-70.17"/>
</g>
<!-- Node26 -->
<g id="node26" class="node">
<title>Node26</title>
<g id="a_node26"><a xlink:href="IKeyListener_8hpp.html" target="_top" xlink:title=" ">
<polygon fill="none" stroke="black" points="1197.57,-56.5 1197.57,-75.5 1286.57,-75.5 1286.57,-56.5 1197.57,-56.5"/>
<text text-anchor="middle" x="1242.07" y="-63.5" font-family="Helvetica,sans-Serif" font-size="10.00">IKeyListener.hpp</text>
</a>
</g>
</g>
<!-- Node25&#45;&gt;Node26 -->
<g id="edge49" class="edge">
<title>Node25&#45;&gt;Node26</title>
<path fill="none" stroke="midnightblue" d="M1227.88,-112.08C1230.15,-104.85 1233.44,-94.41 1236.28,-85.4"/>
<polygon fill="midnightblue" stroke="midnightblue" points="1239.65,-86.34 1239.31,-75.75 1232.97,-84.24 1239.65,-86.34"/>
</g>
<!-- Node27 -->
<g id="node27" class="node">
<title>Node27</title>
<g id="a_node27"><a xlink:href="IMouseListener_8hpp.html" target="_top" xlink:title=" ">
<polygon fill="none" stroke="black" points="1304.07,-56.5 1304.07,-75.5 1406.07,-75.5 1406.07,-56.5 1304.07,-56.5"/>
<text text-anchor="middle" x="1355.07" y="-63.5" font-family="Helvetica,sans-Serif" font-size="10.00">IMouseListener.hpp</text>
</a>
</g>
</g>
<!-- Node25&#45;&gt;Node27 -->
<g id="edge50" class="edge">
<title>Node25&#45;&gt;Node27</title>
<path fill="none" stroke="midnightblue" d="M1245.67,-112.44C1267.06,-103.56 1300.75,-89.56 1325.09,-79.45"/>
<polygon fill="midnightblue" stroke="midnightblue" points="1326.67,-82.58 1334.57,-75.52 1323.99,-76.12 1326.67,-82.58"/>
</g>
<!-- Node29 -->
<g id="node29" class="node">
<title>Node29</title>
<g id="a_node29"><a xlink:href="EngineConfig_8hpp.html" target="_top" xlink:title=" ">
<polygon fill="none" stroke="black" points="1051.57,-168.5 1051.57,-187.5 1142.57,-187.5 1142.57,-168.5 1051.57,-168.5"/>
<text text-anchor="middle" x="1097.07" y="-175.5" font-family="Helvetica,sans-Serif" font-size="10.00">EngineConfig.hpp</text>
</a>
</g>
</g>
<!-- Node28&#45;&gt;Node29 -->
<g id="edge53" class="edge">
<title>Node28&#45;&gt;Node29</title>
<path fill="none" stroke="midnightblue" d="M1097.07,-229.98C1097.07,-221.58 1097.07,-208.48 1097.07,-197.66"/>
<polygon fill="midnightblue" stroke="midnightblue" points="1100.57,-197.51 1097.07,-187.51 1093.57,-197.51 1100.57,-197.51"/>
</g>
<!-- Node31 -->
<g id="node31" class="node">
<title>Node31</title>
<g id="a_node31"><a xlink:href="Scene_8hpp.html" target="_top" xlink:title=" ">
<polygon fill="none" stroke="black" points="971.07,-168.5 971.07,-187.5 1033.07,-187.5 1033.07,-168.5 971.07,-168.5"/>
<text text-anchor="middle" x="1002.07" y="-175.5" font-family="Helvetica,sans-Serif" font-size="10.00">Scene.hpp</text>
</a>
</g>
</g>
<!-- Node28&#45;&gt;Node31 -->
<g id="edge56" class="edge">
<title>Node28&#45;&gt;Node31</title>
<path fill="none" stroke="midnightblue" d="M1083.46,-229.98C1068.01,-220.3 1042.58,-204.37 1024.25,-192.89"/>
<polygon fill="midnightblue" stroke="midnightblue" points="1025.99,-189.85 1015.66,-187.51 1022.27,-195.78 1025.99,-189.85"/>
</g>
<!-- Node30 -->
<g id="node30" class="node">
<title>Node30</title>
<g id="a_node30"><a xlink:href="WindowConfig_8hpp.html" target="_top" xlink:title=" ">
<polygon fill="none" stroke="black" points="1005.07,-112.5 1005.07,-131.5 1101.07,-131.5 1101.07,-112.5 1005.07,-112.5"/>
<text text-anchor="middle" x="1053.07" y="-119.5" font-family="Helvetica,sans-Serif" font-size="10.00">WindowConfig.hpp</text>
</a>
</g>
</g>
<!-- Node29&#45;&gt;Node30 -->
<g id="edge54" class="edge">
<title>Node29&#45;&gt;Node30</title>
<path fill="none" stroke="midnightblue" d="M1089.8,-168.08C1083.52,-160.38 1074.28,-149.03 1066.64,-139.65"/>
<polygon fill="midnightblue" stroke="midnightblue" points="1069.23,-137.29 1060.2,-131.75 1063.8,-141.71 1069.23,-137.29"/>
</g>
<!-- Node30&#45;&gt;Node12 -->
<g id="edge55" class="edge">
<title>Node30&#45;&gt;Node12</title>
<path fill="none" stroke="midnightblue" d="M1005.05,-113.55C932.4,-102.28 796.61,-81.21 735.85,-71.78"/>
<polygon fill="midnightblue" stroke="midnightblue" points="736.16,-68.28 725.74,-70.21 735.09,-75.2 736.16,-68.28"/>
</g>
<!-- Node31&#45;&gt;Node5 -->
<g id="edge58" class="edge">
<title>Node31&#45;&gt;Node5</title>
<path fill="none" stroke="midnightblue" d="M1032.44,-168.47C1061.12,-159.72 1101.06,-145.52 1110.07,-132 1115,-124.6 1115.1,-119.33 1110.07,-112 1052.59,-28.18 716.55,-13.92 605.6,-11.5"/>
<polygon fill="midnightblue" stroke="midnightblue" points="605.65,-8 595.58,-11.3 605.51,-15 605.65,-8"/>
</g>
<!-- Node31&#45;&gt;Node13 -->
<g id="edge57" class="edge">
<title>Node31&#45;&gt;Node13</title>
<path fill="none" stroke="midnightblue" d="M974.82,-168.44C944.22,-158.84 894.61,-143.26 862.16,-133.07"/>
<polygon fill="midnightblue" stroke="midnightblue" points="862.86,-129.63 852.27,-129.97 860.77,-136.31 862.86,-129.63"/>
</g>
</g>
</svg>
        <g id="navigator" transform="translate(0 0)" fill="#404254">
                <rect fill="#f2f5e9" fill-opacity="0.5" stroke="#606060" stroke-width=".5" x="0" y="0" width="60" height="60"/>
                <use id="zoomplus" xlink:href="#zoomPlus" x="17" y="9" onmousedown="handleZoom(evt,'in')"/>
                <use id="zoomminus" xlink:href="#zoomMin" x="42" y="9" onmousedown="handleZoom(evt,'out')"/>
                <use id="reset" xlink:href="#resetDef" x="30" y="36" onmousedown="handleReset()"/>
                <g id="arrowUp" xlink:href="#dirArrow" transform="translate(30 24)" onmousedown="handlePan(0,-1)">
                  <use xlink:href="#rim" fill="#404040">
                        <set attributeName="fill" to="#808080" begin="arrowUp.mouseover" end="arrowUp.mouseout"/>
                  </use>
                  <path fill="none" stroke="white" stroke-width="1.5" d="M0,-3.0v7 M-2.5,-0.5L0,-3.0L2.5,-0.5"/>
                </g>
                <g id="arrowRight" xlink:href="#dirArrow" transform="rotate(90) translate(36 -43)" onmousedown="handlePan(1,0)">
                  <use xlink:href="#rim" fill="#404040">
                        <set attributeName="fill" to="#808080" begin="arrowRight.mouseover" end="arrowRight.mouseout"/>
                  </use>
                  <path fill="none" stroke="white" stroke-width="1.5" d="M0,-3.0v7 M-2.5,-0.5L0,-3.0L2.5,-0.5"/>
                </g>
                <g id="arrowDown" xlink:href="#dirArrow" transform="rotate(180) translate(-30 -48)" onmousedown="handlePan(0,1)">
                  <use xlink:href="#rim" fill="#404040">
                        <set attributeName="fill" to="#808080" begin="arrowDown.mouseover" end="arrowDown.mouseout"/>
                  </use>
                  <path fill="none" stroke="white" stroke-width="1.5" d="M0,-3.0v7 M-2.5,-0.5L0,-3.0L2.5,-0.5"/>
                </g>
                <g id="arrowLeft" xlink:href="#dirArrow" transform="rotate(270) translate(-36 17)" onmousedown="handlePan(-1,0)">
                  <use xlink:href="#rim" fill="#404040">
                        <set attributeName="fill" to="#808080" begin="arrowLeft.mouseover" end="arrowLeft.mouseout"/>
                  </use>
                  <path fill="none" stroke="white" stroke-width="1.5" d="M0,-3.0v7 M-2.5,-0.5L0,-3.0L2.5,-0.5"/>
                </g>
        </g>
        <svg viewBox="0 0 15 15" width="100%" height="30px" preserveAspectRatio="xMaxYMin meet">
         <g id="arrow_out" transform="scale(0.3 0.3)">
          <a xlink:href="IncreaseTowerFireRateAbilityBehaviour_8cpp__incl_org.svg" target="_base">
           <rect id="button" ry="5" rx="5" y="6" x="6" height="38" width="38"
                fill="#f2f5e9" fill-opacity="0.5" stroke="#606060" stroke-width="1.0"/>
           <path id="arrow"
             d="M 11.500037,31.436501 C 11.940474,20.09759 22.043105,11.32322 32.158766,21.979434 L 37.068811,17.246167 C 37.068811,17.246167 37.088388,32 37.088388,32 L 22.160133,31.978069 C 22.160133,31.978069 26.997745,27.140456 26.997745,27.140456 C 18.528582,18.264221 13.291696,25.230495 11.500037,31.436501 z"
             style="fill:#404040;"/>
          </a>
         </g>
        </svg>
</svg>
