<?xml version="1.0" encoding="UTF-8" standalone="no"?>
<!DOCTYPE svg PUBLIC "-//W3C//DTD SVG 1.1//EN"
 "http://www.w3.org/Graphics/SVG/1.1/DTD/svg11.dtd">
<!-- Generated by graphviz version 2.44.0 ()
 -->
<!-- Title: src/Scripts/Heroes/IncreaseTowerFireRateAbilityBehaviour.hpp Pages: 1 -->
<svg width="300pt" height="128pt"
 viewBox="0.00 0.00 299.50 128.00" xmlns="http://www.w3.org/2000/svg" xmlns:xlink="http://www.w3.org/1999/xlink">
<g id="graph0" class="graph" transform="scale(1 1) rotate(0) translate(4 124)">
<title>src/Scripts/Heroes/IncreaseTowerFireRateAbilityBehaviour.hpp</title>
<!-- Node1 -->
<g id="node1" class="node">
<title>Node1</title>
<g id="a_node1"><a xlink:title=" ">
<polygon fill="#bfbfbf" stroke="black" points="66.5,-78.5 66.5,-119.5 213.5,-119.5 213.5,-78.5 66.5,-78.5"/>
<text text-anchor="start" x="74.5" y="-107.5" font-family="Helvetica,sans-Serif" font-size="10.00">src/Scripts/Heroes</text>
<text text-anchor="start" x="74.5" y="-96.5" font-family="Helvetica,sans-Serif" font-size="10.00">/IncreaseTowerFireRateAbility</text>
<text text-anchor="middle" x="140" y="-85.5" font-family="Helvetica,sans-Serif" font-size="10.00">Behaviour.hpp</text>
</a>
</g>
</g>
<!-- Node2 -->
<g id="node2" class="node">
<title>Node2</title>
<g id="a_node2"><a xlink:href="HeroPrefabFactory_8cpp.html" target="_top" xlink:title=" ">
<polygon fill="none" stroke="black" points="0,-6 0,-36 126,-36 126,-6 0,-6"/>
<text text-anchor="start" x="8" y="-24" font-family="Helvetica,sans-Serif" font-size="10.00">src/Factories/HeroPrefab</text>
<text text-anchor="middle" x="63" y="-13" font-family="Helvetica,sans-Serif" font-size="10.00">Factory.cpp</text>
</a>
</g>
</g>
<!-- Node1&#45;&gt;Node2 -->
<g id="edge1" class="edge">
<title>Node1&#45;&gt;Node2</title>
<path fill="none" stroke="midnightblue" d="M112.97,-71.32C101,-59.51 87.4,-46.08 77.41,-36.23"/>
<polygon fill="midnightblue" stroke="midnightblue" points="110.59,-73.89 120.17,-78.43 115.51,-68.91 110.59,-73.89"/>
</g>
<!-- Node3 -->
<g id="node3" class="node">
<title>Node3</title>
<g id="a_node3"><a xlink:href="IncreaseTowerFireRateAbilityBehaviour_8cpp.html" target="_top" xlink:title=" ">
<polygon fill="none" stroke="black" points="144.5,-0.5 144.5,-41.5 291.5,-41.5 291.5,-0.5 144.5,-0.5"/>
<text text-anchor="start" x="152.5" y="-29.5" font-family="Helvetica,sans-Serif" font-size="10.00">src/Scripts/Heroes</text>
<text text-anchor="start" x="152.5" y="-18.5" font-family="Helvetica,sans-Serif" font-size="10.00">/IncreaseTowerFireRateAbility</text>
<text text-anchor="middle" x="218" y="-7.5" font-family="Helvetica,sans-Serif" font-size="10.00">Behaviour.cpp</text>
</a>
</g>
</g>
<!-- Node1&#45;&gt;Node3 -->
<g id="edge2" class="edge">
<title>Node1&#45;&gt;Node3</title>
<path fill="none" stroke="midnightblue" d="M167.5,-71.2C177.55,-61.42 188.71,-50.54 197.98,-41.51"/>
<polygon fill="midnightblue" stroke="midnightblue" points="164.81,-68.94 160.09,-78.43 169.69,-73.96 164.81,-68.94"/>
</g>
</g>
</svg>
