<?xml version="1.0" encoding="UTF-8" standalone="no"?>
<!DOCTYPE svg PUBLIC "-//W3C//DTD SVG 1.1//EN"
 "http://www.w3.org/Graphics/SVG/1.1/DTD/svg11.dtd">
<!-- Generated by graphviz version 2.44.0 ()
 -->
<!-- Title: src/Scripts/Heroes/IncreaseTowerFireRateAbilityBehaviour.hpp Pages: 1 -->
<svg width="487pt" height="386pt"
 viewBox="0.00 0.00 486.50 386.00" xmlns="http://www.w3.org/2000/svg" xmlns:xlink="http://www.w3.org/1999/xlink">
<g id="graph0" class="graph" transform="scale(1 1) rotate(0) translate(4 382)">
<title>src/Scripts/Heroes/IncreaseTowerFireRateAbilityBehaviour.hpp</title>
<!-- Node1 -->
<g id="node1" class="node">
<title>Node1</title>
<g id="a_node1"><a xlink:title=" ">
<polygon fill="#bfbfbf" stroke="black" points="290.5,-336.5 290.5,-377.5 437.5,-377.5 437.5,-336.5 290.5,-336.5"/>
<text text-anchor="start" x="298.5" y="-365.5" font-family="Helvetica,sans-Serif" font-size="10.00">src/Scripts/Heroes</text>
<text text-anchor="start" x="298.5" y="-354.5" font-family="Helvetica,sans-Serif" font-size="10.00">/IncreaseTowerFireRateAbility</text>
<text text-anchor="middle" x="364" y="-343.5" font-family="Helvetica,sans-Serif" font-size="10.00">Behaviour.hpp</text>
</a>
</g>
</g>
<!-- Node2 -->
<g id="node2" class="node">
<title>Node2</title>
<g id="a_node2"><a xlink:href="AudioSource_8hpp.html" target="_top" xlink:title=" ">
<polygon fill="none" stroke="black" points="335,-112.5 335,-131.5 425,-131.5 425,-112.5 335,-112.5"/>
<text text-anchor="middle" x="380" y="-119.5" font-family="Helvetica,sans-Serif" font-size="10.00">AudioSource.hpp</text>
</a>
</g>
</g>
<!-- Node1&#45;&gt;Node2 -->
<g id="edge1" class="edge">
<title>Node1&#45;&gt;Node2</title>
<path fill="none" stroke="midnightblue" d="M371.99,-336.15C381.44,-310.55 395.6,-264.51 393,-224 391.15,-195.11 386.35,-161.85 383.13,-141.63"/>
<polygon fill="midnightblue" stroke="midnightblue" points="386.55,-140.91 381.49,-131.61 379.65,-142.04 386.55,-140.91"/>
</g>
<!-- Node6 -->
<g id="node6" class="node">
<title>Node6</title>
<g id="a_node6"><a xlink:href="AbilityBehaviour_8hpp.html" target="_top" xlink:title=" ">
<polygon fill="none" stroke="black" points="201,-280.5 201,-299.5 305,-299.5 305,-280.5 201,-280.5"/>
<text text-anchor="middle" x="253" y="-287.5" font-family="Helvetica,sans-Serif" font-size="10.00">AbilityBehaviour.hpp</text>
</a>
</g>
</g>
<!-- Node1&#45;&gt;Node6 -->
<g id="edge5" class="edge">
<title>Node1&#45;&gt;Node6</title>
<path fill="none" stroke="midnightblue" d="M330.7,-336.5C313.35,-326.34 292.54,-314.16 276.83,-304.95"/>
<polygon fill="midnightblue" stroke="midnightblue" points="278.17,-301.69 267.78,-299.65 274.64,-307.73 278.17,-301.69"/>
</g>
<!-- Node3 -->
<g id="node3" class="node">
<title>Node3</title>
<g id="a_node3"><a xlink:href="Component_8hpp.html" target="_top" xlink:title=" ">
<polygon fill="none" stroke="black" points="141,-56.5 141,-75.5 225,-75.5 225,-56.5 141,-56.5"/>
<text text-anchor="middle" x="183" y="-63.5" font-family="Helvetica,sans-Serif" font-size="10.00">Component.hpp</text>
</a>
</g>
</g>
<!-- Node2&#45;&gt;Node3 -->
<g id="edge2" class="edge">
<title>Node2&#45;&gt;Node3</title>
<path fill="none" stroke="midnightblue" d="M348.78,-112.44C315.07,-103.2 261.2,-88.44 224.07,-78.26"/>
<polygon fill="midnightblue" stroke="midnightblue" points="224.64,-74.78 214.07,-75.52 222.79,-81.54 224.64,-74.78"/>
</g>
<!-- Node5 -->
<g id="node5" class="node">
<title>Node5</title>
<g id="a_node5"><a xlink:title=" ">
<polygon fill="none" stroke="#bfbfbf" points="346.5,-56.5 346.5,-75.5 387.5,-75.5 387.5,-56.5 346.5,-56.5"/>
<text text-anchor="middle" x="367" y="-63.5" font-family="Helvetica,sans-Serif" font-size="10.00">string</text>
</a>
</g>
</g>
<!-- Node2&#45;&gt;Node5 -->
<g id="edge4" class="edge">
<title>Node2&#45;&gt;Node5</title>
<path fill="none" stroke="midnightblue" d="M377.85,-112.08C376.13,-104.93 373.65,-94.64 371.5,-85.69"/>
<polygon fill="midnightblue" stroke="midnightblue" points="374.85,-84.65 369.11,-75.75 368.04,-86.29 374.85,-84.65"/>
</g>
<!-- Node4 -->
<g id="node4" class="node">
<title>Node4</title>
<g id="a_node4"><a xlink:title=" ">
<polygon fill="none" stroke="#bfbfbf" points="427.5,-0.5 427.5,-19.5 478.5,-19.5 478.5,-0.5 427.5,-0.5"/>
<text text-anchor="middle" x="453" y="-7.5" font-family="Helvetica,sans-Serif" font-size="10.00">memory</text>
</a>
</g>
</g>
<!-- Node3&#45;&gt;Node4 -->
<g id="edge3" class="edge">
<title>Node3&#45;&gt;Node4</title>
<path fill="none" stroke="midnightblue" d="M225.19,-56.56C278.08,-45.98 367.82,-28.04 417.41,-18.12"/>
<polygon fill="midnightblue" stroke="midnightblue" points="418.24,-21.52 427.36,-16.13 416.86,-14.66 418.24,-21.52"/>
</g>
<!-- Node7 -->
<g id="node7" class="node">
<title>Node7</title>
<g id="a_node7"><a xlink:href="BehaviourScript_8hpp.html" target="_top" xlink:title=" ">
<polygon fill="none" stroke="black" points="53,-168.5 53,-187.5 157,-187.5 157,-168.5 53,-168.5"/>
<text text-anchor="middle" x="105" y="-175.5" font-family="Helvetica,sans-Serif" font-size="10.00">BehaviourScript.hpp</text>
</a>
</g>
</g>
<!-- Node6&#45;&gt;Node7 -->
<g id="edge6" class="edge">
<title>Node6&#45;&gt;Node7</title>
<path fill="none" stroke="midnightblue" d="M244.62,-280.4C231.66,-267.36 205.68,-242.17 181,-224 164.94,-212.18 145.59,-200.76 130.44,-192.38"/>
<polygon fill="midnightblue" stroke="midnightblue" points="132.07,-189.28 121.61,-187.58 128.72,-195.43 132.07,-189.28"/>
</g>
<!-- Node9 -->
<g id="node9" class="node">
<title>Node9</title>
<g id="a_node9"><a xlink:href="CoolDownBehaviour_8hpp.html" target="_top" xlink:title=" ">
<polygon fill="none" stroke="black" points="0,-224.5 0,-243.5 172,-243.5 172,-224.5 0,-224.5"/>
<text text-anchor="middle" x="86" y="-231.5" font-family="Helvetica,sans-Serif" font-size="10.00">../Common/CoolDownBehaviour.hpp</text>
</a>
</g>
</g>
<!-- Node6&#45;&gt;Node9 -->
<g id="edge10" class="edge">
<title>Node6&#45;&gt;Node9</title>
<path fill="none" stroke="midnightblue" d="M226.54,-280.44C198.32,-271.32 153.46,-256.81 122.03,-246.65"/>
<polygon fill="midnightblue" stroke="midnightblue" points="122.93,-243.26 112.34,-243.52 120.78,-249.92 122.93,-243.26"/>
</g>
<!-- Node10 -->
<g id="node10" class="node">
<title>Node10</title>
<g id="a_node10"><a xlink:href="HealthBehaviour_8hpp.html" target="_top" xlink:title=" ">
<polygon fill="none" stroke="black" points="228,-224.5 228,-243.5 384,-243.5 384,-224.5 228,-224.5"/>
<text text-anchor="middle" x="306" y="-231.5" font-family="Helvetica,sans-Serif" font-size="10.00">../Common/HealthBehaviour.hpp</text>
</a>
</g>
</g>
<!-- Node6&#45;&gt;Node10 -->
<g id="edge12" class="edge">
<title>Node6&#45;&gt;Node10</title>
<path fill="none" stroke="midnightblue" d="M261.75,-280.08C269.47,-272.22 280.9,-260.57 290.22,-251.08"/>
<polygon fill="midnightblue" stroke="midnightblue" points="292.9,-253.34 297.41,-243.75 287.91,-248.44 292.9,-253.34"/>
</g>
<!-- Node7&#45;&gt;Node3 -->
<g id="edge7" class="edge">
<title>Node7&#45;&gt;Node3</title>
<path fill="none" stroke="midnightblue" d="M91.92,-168.29C74.71,-155.74 48.18,-131.89 62,-112 77.58,-89.58 105.74,-78.31 130.97,-72.65"/>
<polygon fill="midnightblue" stroke="midnightblue" points="131.71,-76.07 140.83,-70.68 130.33,-69.21 131.71,-76.07"/>
</g>
<!-- Node8 -->
<g id="node8" class="node">
<title>Node8</title>
<g id="a_node8"><a xlink:href="Collider_8hpp.html" target="_top" xlink:title=" ">
<polygon fill="none" stroke="black" points="71.5,-112.5 71.5,-131.5 138.5,-131.5 138.5,-112.5 71.5,-112.5"/>
<text text-anchor="middle" x="105" y="-119.5" font-family="Helvetica,sans-Serif" font-size="10.00">Collider.hpp</text>
</a>
</g>
</g>
<!-- Node7&#45;&gt;Node8 -->
<g id="edge8" class="edge">
<title>Node7&#45;&gt;Node8</title>
<path fill="none" stroke="midnightblue" d="M105,-168.08C105,-161.01 105,-150.86 105,-141.99"/>
<polygon fill="midnightblue" stroke="midnightblue" points="108.5,-141.75 105,-131.75 101.5,-141.75 108.5,-141.75"/>
</g>
<!-- Node8&#45;&gt;Node3 -->
<g id="edge9" class="edge">
<title>Node8&#45;&gt;Node3</title>
<path fill="none" stroke="midnightblue" d="M117.53,-112.32C129.59,-103.98 148.03,-91.21 162.27,-81.35"/>
<polygon fill="midnightblue" stroke="midnightblue" points="164.27,-84.22 170.5,-75.65 160.28,-78.47 164.27,-84.22"/>
</g>
<!-- Node9&#45;&gt;Node7 -->
<g id="edge11" class="edge">
<title>Node9&#45;&gt;Node7</title>
<path fill="none" stroke="midnightblue" d="M89.14,-224.08C91.68,-216.85 95.36,-206.41 98.53,-197.4"/>
<polygon fill="midnightblue" stroke="midnightblue" points="101.9,-198.35 101.92,-187.75 95.3,-196.02 101.9,-198.35"/>
</g>
<!-- Node10&#45;&gt;Node4 -->
<g id="edge14" class="edge">
<title>Node10&#45;&gt;Node4</title>
<path fill="none" stroke="midnightblue" d="M326.85,-224.42C359.04,-210.11 420.6,-178.29 454,-132 474.2,-104.01 476.2,-89.96 470,-56 468.31,-46.76 464.83,-36.95 461.45,-28.85"/>
<polygon fill="midnightblue" stroke="midnightblue" points="464.63,-27.4 457.37,-19.69 458.24,-30.25 464.63,-27.4"/>
</g>
<!-- Node10&#45;&gt;Node7 -->
<g id="edge13" class="edge">
<title>Node10&#45;&gt;Node7</title>
<path fill="none" stroke="midnightblue" d="M274.15,-224.44C239.6,-215.16 184.32,-200.31 146.42,-190.13"/>
<polygon fill="midnightblue" stroke="midnightblue" points="147.27,-186.73 136.7,-187.52 145.45,-193.49 147.27,-186.73"/>
</g>
<!-- Node11 -->
<g id="node11" class="node">
<title>Node11</title>
<g id="a_node11"><a xlink:href="Animator_8hpp.html" target="_top" xlink:title=" ">
<polygon fill="none" stroke="black" points="250,-168.5 250,-187.5 324,-187.5 324,-168.5 250,-168.5"/>
<text text-anchor="middle" x="287" y="-175.5" font-family="Helvetica,sans-Serif" font-size="10.00">Animator.hpp</text>
</a>
</g>
</g>
<!-- Node10&#45;&gt;Node11 -->
<g id="edge15" class="edge">
<title>Node10&#45;&gt;Node11</title>
<path fill="none" stroke="midnightblue" d="M302.86,-224.08C300.32,-216.85 296.64,-206.41 293.47,-197.4"/>
<polygon fill="midnightblue" stroke="midnightblue" points="296.7,-196.02 290.08,-187.75 290.1,-198.35 296.7,-196.02"/>
</g>
<!-- Node11&#45;&gt;Node3 -->
<g id="edge16" class="edge">
<title>Node11&#45;&gt;Node3</title>
<path fill="none" stroke="midnightblue" d="M249.93,-170.56C227.49,-164.58 200.5,-153.25 186,-132 176.85,-118.6 177.03,-99.78 178.94,-85.84"/>
<polygon fill="midnightblue" stroke="midnightblue" points="182.4,-86.35 180.7,-75.9 175.51,-85.13 182.4,-86.35"/>
</g>
<!-- Node11&#45;&gt;Node4 -->
<g id="edge22" class="edge">
<title>Node11&#45;&gt;Node4</title>
<path fill="none" stroke="midnightblue" d="M324.28,-176.16C358.09,-173.28 406.71,-163.45 434,-132 458.89,-103.32 458.3,-55.78 455.67,-29.64"/>
<polygon fill="midnightblue" stroke="midnightblue" points="459.12,-29.08 454.44,-19.57 452.18,-29.92 459.12,-29.08"/>
</g>
<!-- Node12 -->
<g id="node12" class="node">
<title>Node12</title>
<g id="a_node12"><a xlink:href="Sprite_8hpp.html" target="_top" xlink:title=" ">
<polygon fill="none" stroke="black" points="257,-112.5 257,-131.5 317,-131.5 317,-112.5 257,-112.5"/>
<text text-anchor="middle" x="287" y="-119.5" font-family="Helvetica,sans-Serif" font-size="10.00">Sprite.hpp</text>
</a>
</g>
</g>
<!-- Node11&#45;&gt;Node12 -->
<g id="edge17" class="edge">
<title>Node11&#45;&gt;Node12</title>
<path fill="none" stroke="midnightblue" d="M287,-168.08C287,-161.01 287,-150.86 287,-141.99"/>
<polygon fill="midnightblue" stroke="midnightblue" points="290.5,-141.75 287,-131.75 283.5,-141.75 290.5,-141.75"/>
</g>
<!-- Node14 -->
<g id="node14" class="node">
<title>Node14</title>
<g id="a_node14"><a xlink:title=" ">
<polygon fill="none" stroke="#bfbfbf" points="195,-112.5 195,-131.5 239,-131.5 239,-112.5 195,-112.5"/>
<text text-anchor="middle" x="217" y="-119.5" font-family="Helvetica,sans-Serif" font-size="10.00">vector</text>
</a>
</g>
</g>
<!-- Node11&#45;&gt;Node14 -->
<g id="edge21" class="edge">
<title>Node11&#45;&gt;Node14</title>
<path fill="none" stroke="midnightblue" d="M275.75,-168.32C265.2,-160.18 249.2,-147.84 236.56,-138.09"/>
<polygon fill="midnightblue" stroke="midnightblue" points="238.51,-135.17 228.45,-131.83 234.23,-140.71 238.51,-135.17"/>
</g>
<!-- Node12&#45;&gt;Node3 -->
<g id="edge18" class="edge">
<title>Node12&#45;&gt;Node3</title>
<path fill="none" stroke="midnightblue" d="M270.29,-112.32C253.69,-103.7 228,-90.36 208.78,-80.39"/>
<polygon fill="midnightblue" stroke="midnightblue" points="210.16,-77.16 199.67,-75.65 206.93,-83.37 210.16,-77.16"/>
</g>
<!-- Node12&#45;&gt;Node5 -->
<g id="edge20" class="edge">
<title>Node12&#45;&gt;Node5</title>
<path fill="none" stroke="midnightblue" d="M299.85,-112.32C312.22,-103.98 331.13,-91.21 345.74,-81.35"/>
<polygon fill="midnightblue" stroke="midnightblue" points="347.85,-84.15 354.18,-75.65 343.93,-78.35 347.85,-84.15"/>
</g>
<!-- Node13 -->
<g id="node13" class="node">
<title>Node13</title>
<g id="a_node13"><a xlink:href="Color_8hpp.html" target="_top" xlink:title=" ">
<polygon fill="none" stroke="black" points="258.5,-56.5 258.5,-75.5 315.5,-75.5 315.5,-56.5 258.5,-56.5"/>
<text text-anchor="middle" x="287" y="-63.5" font-family="Helvetica,sans-Serif" font-size="10.00">Color.hpp</text>
</a>
</g>
</g>
<!-- Node12&#45;&gt;Node13 -->
<g id="edge19" class="edge">
<title>Node12&#45;&gt;Node13</title>
<path fill="none" stroke="midnightblue" d="M287,-112.08C287,-105.01 287,-94.86 287,-85.99"/>
<polygon fill="midnightblue" stroke="midnightblue" points="290.5,-85.75 287,-75.75 283.5,-85.75 290.5,-85.75"/>
</g>
</g>
</svg>
