<?xml version="1.0" encoding="UTF-8" standalone="no"?>
<!DOCTYPE svg PUBLIC "-//W3C//DTD SVG 1.1//EN"
 "http://www.w3.org/Graphics/SVG/1.1/DTD/svg11.dtd">
<!-- Generated by graphviz version 2.44.0 ()
 -->
<!-- Title: src/Scripts/Heroes/IncreaseTowerFireRateAbilityBehaviour.hpp Pages: 1 -->
<svg width="582pt" height="128pt"
 viewBox="0.00 0.00 582.00 128.00" xmlns="http://www.w3.org/2000/svg" xmlns:xlink="http://www.w3.org/1999/xlink">
<g id="graph0" class="graph" transform="scale(1 1) rotate(0) translate(4 124)">
<title>src/Scripts/Heroes/IncreaseTowerFireRateAbilityBehaviour.hpp</title>
<!-- Node1 -->
<g id="node1" class="node">
<title>Node1</title>
<g id="a_node1"><a xlink:title=" ">
<polygon fill="#bfbfbf" stroke="black" points="218.5,-78.5 218.5,-119.5 365.5,-119.5 365.5,-78.5 218.5,-78.5"/>
<text text-anchor="start" x="226.5" y="-107.5" font-family="Helvetica,sans-Serif" font-size="10.00">src/Scripts/Heroes</text>
<text text-anchor="start" x="226.5" y="-96.5" font-family="Helvetica,sans-Serif" font-size="10.00">/IncreaseTowerFireRateAbility</text>
<text text-anchor="middle" x="292" y="-85.5" font-family="Helvetica,sans-Serif" font-size="10.00">Behaviour.hpp</text>
</a>
</g>
</g>
<!-- Node2 -->
<g id="node2" class="node">
<title>Node2</title>
<g id="a_node2"><a xlink:href="HeroPrefabFactory_8cpp.html" target="_top" xlink:title=" ">
<polygon fill="none" stroke="black" points="0,-6 0,-36 126,-36 126,-6 0,-6"/>
<text text-anchor="start" x="8" y="-24" font-family="Helvetica,sans-Serif" font-size="10.00">src/Factories/HeroPrefab</text>
<text text-anchor="middle" x="63" y="-13" font-family="Helvetica,sans-Serif" font-size="10.00">Factory.cpp</text>
</a>
</g>
</g>
<!-- Node1&#45;&gt;Node2 -->
<g id="edge1" class="edge">
<title>Node1&#45;&gt;Node2</title>
<path fill="none" stroke="midnightblue" d="M223.47,-75.26C185.15,-62.54 138.58,-47.08 105.51,-36.11"/>
<polygon fill="midnightblue" stroke="midnightblue" points="222.43,-78.6 233.03,-78.43 224.64,-71.96 222.43,-78.6"/>
</g>
<!-- Node3 -->
<g id="node3" class="node">
<title>Node3</title>
<g id="a_node3"><a xlink:href="MainScene_8cpp.html" target="_top" xlink:title=" ">
<polygon fill="none" stroke="black" points="144,-11.5 144,-30.5 280,-30.5 280,-11.5 144,-11.5"/>
<text text-anchor="middle" x="212" y="-18.5" font-family="Helvetica,sans-Serif" font-size="10.00">src/Scenes/MainScene.cpp</text>
</a>
</g>
</g>
<!-- Node1&#45;&gt;Node3 -->
<g id="edge2" class="edge">
<title>Node1&#45;&gt;Node3</title>
<path fill="none" stroke="midnightblue" d="M263.82,-71.23C248.8,-56.96 231.34,-40.37 221,-30.55"/>
<polygon fill="midnightblue" stroke="midnightblue" points="261.74,-74.08 271.4,-78.43 266.56,-69 261.74,-74.08"/>
</g>
<!-- Node4 -->
<g id="node4" class="node">
<title>Node4</title>
<g id="a_node4"><a xlink:href="IncreaseTowerFireRateAbilityBehaviour_8cpp.html" target="_top" xlink:title=" ">
<polygon fill="none" stroke="black" points="298.5,-0.5 298.5,-41.5 445.5,-41.5 445.5,-0.5 298.5,-0.5"/>
<text text-anchor="start" x="306.5" y="-29.5" font-family="Helvetica,sans-Serif" font-size="10.00">src/Scripts/Heroes</text>
<text text-anchor="start" x="306.5" y="-18.5" font-family="Helvetica,sans-Serif" font-size="10.00">/IncreaseTowerFireRateAbility</text>
<text text-anchor="middle" x="372" y="-7.5" font-family="Helvetica,sans-Serif" font-size="10.00">Behaviour.cpp</text>
</a>
</g>
</g>
<!-- Node1&#45;&gt;Node4 -->
<g id="edge3" class="edge">
<title>Node1&#45;&gt;Node4</title>
<path fill="none" stroke="midnightblue" d="M319.9,-71.49C330.28,-61.63 341.87,-50.63 351.47,-41.51"/>
<polygon fill="midnightblue" stroke="midnightblue" points="317.44,-69 312.6,-78.43 322.26,-74.08 317.44,-69"/>
</g>
<!-- Node5 -->
<g id="node5" class="node">
<title>Node5</title>
<g id="a_node5"><a xlink:href="HeroUtil_8cpp.html" target="_top" xlink:title=" ">
<polygon fill="none" stroke="black" points="464,-11.5 464,-30.5 574,-30.5 574,-11.5 464,-11.5"/>
<text text-anchor="middle" x="519" y="-18.5" font-family="Helvetica,sans-Serif" font-size="10.00">src/Utils/HeroUtil.cpp</text>
</a>
</g>
</g>
<!-- Node1&#45;&gt;Node5 -->
<g id="edge4" class="edge">
<title>Node1&#45;&gt;Node5</title>
<path fill="none" stroke="midnightblue" d="M360.15,-75.18C405.09,-60.14 461.37,-41.29 493.46,-30.55"/>
<polygon fill="midnightblue" stroke="midnightblue" points="358.83,-71.93 350.46,-78.43 361.05,-78.57 358.83,-71.93"/>
</g>
</g>
</svg>
