<?xml version="1.0" encoding="UTF-8" standalone="no"?>
<!DOCTYPE svg PUBLIC "-//W3C//DTD SVG 1.1//EN"
 "http://www.w3.org/Graphics/SVG/1.1/DTD/svg11.dtd">
<!-- Generated by graphviz version 2.44.0 ()
 -->
<!-- Title: Graphical Class Hierarchy Pages: 1 -->
<svg width="448pt" height="1176pt"
 viewBox="0.00 0.00 448.00 1176.00" xmlns="http://www.w3.org/2000/svg" xmlns:xlink="http://www.w3.org/1999/xlink">
<g id="graph0" class="graph" transform="scale(1 1) rotate(0) translate(4 1172)">
<title>Graphical Class Hierarchy</title>
<!-- Node0 -->
<g id="node1" class="node">
<title>Node0</title>
<g id="a_node1"><a xlink:href="classspic_1_1Component.html" target="_top" xlink:title="Base class for all components. @spicapi.">
<polygon fill="none" stroke="black" points="0,-566.5 0,-585.5 89,-585.5 89,-566.5 0,-566.5"/>
<text text-anchor="middle" x="44.5" y="-573.5" font-family="Helvetica,sans-Serif" font-size="10.00">spic::Component</text>
</a>
</g>
</g>
<!-- Node1 -->
<g id="node2" class="node">
<title>Node1</title>
<g id="a_node2"><a xlink:href="classspic_1_1Animator.html" target="_top" xlink:title="A component which can play animated sequences of sprites. @spicapi.">
<polygon fill="none" stroke="black" points="140,-661.5 140,-680.5 218,-680.5 218,-661.5 140,-661.5"/>
<text text-anchor="middle" x="179" y="-668.5" font-family="Helvetica,sans-Serif" font-size="10.00">spic::Animator</text>
</a>
</g>
</g>
<!-- Node0&#45;&gt;Node1 -->
<g id="edge1" class="edge">
<title>Node0&#45;&gt;Node1</title>
<path fill="none" stroke="midnightblue" d="M60.14,-593.79C74.95,-610.78 99.27,-636.1 125,-652 130.99,-655.7 137.8,-658.82 144.5,-661.4"/>
<polygon fill="midnightblue" stroke="midnightblue" points="62.45,-591.1 53.3,-585.75 57.12,-595.64 62.45,-591.1"/>
</g>
<!-- Node2 -->
<g id="node3" class="node">
<title>Node2</title>
<g id="a_node3"><a xlink:href="classspic_1_1AudioSource.html" target="_top" xlink:title="Component which can play audio. @spicapi.">
<polygon fill="none" stroke="black" points="131.5,-623.5 131.5,-642.5 226.5,-642.5 226.5,-623.5 131.5,-623.5"/>
<text text-anchor="middle" x="179" y="-630.5" font-family="Helvetica,sans-Serif" font-size="10.00">spic::AudioSource</text>
</a>
</g>
</g>
<!-- Node0&#45;&gt;Node2 -->
<g id="edge2" class="edge">
<title>Node0&#45;&gt;Node2</title>
<path fill="none" stroke="midnightblue" d="M73.5,-590.24C88.59,-597.7 107.63,-606.76 125,-614 132.94,-617.31 141.68,-620.59 149.74,-623.47"/>
<polygon fill="midnightblue" stroke="midnightblue" points="74.72,-586.94 64.21,-585.61 71.6,-593.2 74.72,-586.94"/>
</g>
<!-- Node3 -->
<g id="node4" class="node">
<title>Node3</title>
<g id="a_node4"><a xlink:href="classspic_1_1BehaviourScript.html" target="_top" xlink:title=" ">
<polygon fill="none" stroke="black" points="125,-585.5 125,-604.5 233,-604.5 233,-585.5 125,-585.5"/>
<text text-anchor="middle" x="179" y="-592.5" font-family="Helvetica,sans-Serif" font-size="10.00">spic::BehaviourScript</text>
</a>
</g>
</g>
<!-- Node0&#45;&gt;Node3 -->
<g id="edge3" class="edge">
<title>Node0&#45;&gt;Node3</title>
<path fill="none" stroke="midnightblue" d="M99.27,-583.71C107.62,-584.91 116.25,-586.15 124.6,-587.34"/>
<polygon fill="midnightblue" stroke="midnightblue" points="99.65,-580.23 89.25,-582.27 98.65,-587.16 99.65,-580.23"/>
</g>
<!-- Node32 -->
<g id="node33" class="node">
<title>Node32</title>
<g id="a_node33"><a xlink:href="classspic_1_1Collider.html" target="_top" xlink:title="The base class for all colliders. @spicapi.">
<polygon fill="none" stroke="black" points="143.5,-547.5 143.5,-566.5 214.5,-566.5 214.5,-547.5 143.5,-547.5"/>
<text text-anchor="middle" x="179" y="-554.5" font-family="Helvetica,sans-Serif" font-size="10.00">spic::Collider</text>
</a>
</g>
</g>
<!-- Node0&#45;&gt;Node32 -->
<g id="edge32" class="edge">
<title>Node0&#45;&gt;Node32</title>
<path fill="none" stroke="midnightblue" d="M99.3,-568.28C114.07,-566.17 129.69,-563.93 143.1,-562.01"/>
<polygon fill="midnightblue" stroke="midnightblue" points="98.65,-564.84 89.25,-569.73 99.65,-571.77 98.65,-564.84"/>
</g>
<!-- Node35 -->
<g id="node36" class="node">
<title>Node35</title>
<g id="a_node36"><a xlink:href="classspic_1_1RigidBody.html" target="_top" xlink:title="A component representing a rigid body. @spicapi.">
<polygon fill="none" stroke="black" points="137.5,-509.5 137.5,-528.5 220.5,-528.5 220.5,-509.5 137.5,-509.5"/>
<text text-anchor="middle" x="179" y="-516.5" font-family="Helvetica,sans-Serif" font-size="10.00">spic::RigidBody</text>
</a>
</g>
</g>
<!-- Node0&#45;&gt;Node35 -->
<g id="edge35" class="edge">
<title>Node0&#45;&gt;Node35</title>
<path fill="none" stroke="midnightblue" d="M73.5,-561.76C88.59,-554.3 107.63,-545.24 125,-538 132.94,-534.69 141.68,-531.41 149.74,-528.53"/>
<polygon fill="midnightblue" stroke="midnightblue" points="71.6,-558.8 64.21,-566.39 74.72,-565.06 71.6,-558.8"/>
</g>
<!-- Node36 -->
<g id="node37" class="node">
<title>Node36</title>
<g id="a_node37"><a xlink:href="classspic_1_1Sprite.html" target="_top" xlink:title="A component representing a sprite (small image) @spicapi.">
<polygon fill="none" stroke="black" points="146.5,-471.5 146.5,-490.5 211.5,-490.5 211.5,-471.5 146.5,-471.5"/>
<text text-anchor="middle" x="179" y="-478.5" font-family="Helvetica,sans-Serif" font-size="10.00">spic::Sprite</text>
</a>
</g>
</g>
<!-- Node0&#45;&gt;Node36 -->
<g id="edge36" class="edge">
<title>Node0&#45;&gt;Node36</title>
<path fill="none" stroke="midnightblue" d="M60.14,-558.21C74.95,-541.22 99.27,-515.9 125,-500 131.57,-495.94 139.13,-492.58 146.45,-489.87"/>
<polygon fill="midnightblue" stroke="midnightblue" points="57.12,-556.36 53.3,-566.25 62.45,-560.9 57.12,-556.36"/>
</g>
<!-- Node4 -->
<g id="node5" class="node">
<title>Node4</title>
<g id="a_node5"><a xlink:href="classgame_1_1AirstrikeAbilityBehaviour.html" target="_top" xlink:title="A script for handling the airstrike ability for Franklin D Roosevelt.">
<polygon fill="none" stroke="black" points="279,-1148.5 279,-1167.5 430,-1167.5 430,-1148.5 279,-1148.5"/>
<text text-anchor="middle" x="354.5" y="-1155.5" font-family="Helvetica,sans-Serif" font-size="10.00">game::AirstrikeAbilityBehaviour</text>
</a>
</g>
</g>
<!-- Node3&#45;&gt;Node4 -->
<g id="edge4" class="edge">
<title>Node3&#45;&gt;Node4</title>
<path fill="none" stroke="midnightblue" d="M230,-610.57C231.07,-611.64 232.08,-612.78 233,-614 303.54,-707.27 192.86,-1050.24 269,-1139 272.23,-1142.77 276.03,-1145.88 280.21,-1148.44"/>
<polygon fill="midnightblue" stroke="midnightblue" points="232.09,-607.77 222,-604.54 227.87,-613.36 232.09,-607.77"/>
</g>
<!-- Node5 -->
<g id="node6" class="node">
<title>Node5</title>
<g id="a_node6"><a xlink:href="classgame_1_1AttackBehaviour.html" target="_top" xlink:title="A script to attack other game objects containing a health script.">
<polygon fill="none" stroke="black" points="296,-1110.5 296,-1129.5 413,-1129.5 413,-1110.5 296,-1110.5"/>
<text text-anchor="middle" x="354.5" y="-1117.5" font-family="Helvetica,sans-Serif" font-size="10.00">game::AttackBehaviour</text>
</a>
</g>
</g>
<!-- Node3&#45;&gt;Node5 -->
<g id="edge5" class="edge">
<title>Node3&#45;&gt;Node5</title>
<path fill="none" stroke="midnightblue" d="M229.99,-610.58C231.07,-611.65 232.08,-612.78 233,-614 298.69,-700.38 198.12,-1018.83 269,-1101 275.97,-1109.08 285.58,-1114.15 295.82,-1117.24"/>
<polygon fill="midnightblue" stroke="midnightblue" points="232.07,-607.77 221.98,-604.55 227.86,-613.36 232.07,-607.77"/>
</g>
<!-- Node6 -->
<g id="node7" class="node">
<title>Node6</title>
<g id="a_node7"><a xlink:href="classgame_1_1BulletBehaviour.html" target="_top" xlink:title="A script to that handles bullets.">
<polygon fill="none" stroke="black" points="298,-1072.5 298,-1091.5 411,-1091.5 411,-1072.5 298,-1072.5"/>
<text text-anchor="middle" x="354.5" y="-1079.5" font-family="Helvetica,sans-Serif" font-size="10.00">game::BulletBehaviour</text>
</a>
</g>
</g>
<!-- Node3&#45;&gt;Node6 -->
<g id="edge6" class="edge">
<title>Node3&#45;&gt;Node6</title>
<path fill="none" stroke="midnightblue" d="M229.98,-610.59C231.06,-611.65 232.07,-612.79 233,-614 293.84,-693.49 203.39,-987.4 269,-1063 276.39,-1071.52 286.71,-1076.67 297.59,-1079.71"/>
<polygon fill="midnightblue" stroke="midnightblue" points="232.05,-607.77 221.95,-604.57 227.85,-613.37 232.05,-607.77"/>
</g>
<!-- Node7 -->
<g id="node8" class="node">
<title>Node7</title>
<g id="a_node8"><a xlink:href="classgame_1_1CheatManager.html" target="_top" xlink:title="A script to handle different cheats.">
<polygon fill="none" stroke="black" points="300.5,-1034.5 300.5,-1053.5 408.5,-1053.5 408.5,-1034.5 300.5,-1034.5"/>
<text text-anchor="middle" x="354.5" y="-1041.5" font-family="Helvetica,sans-Serif" font-size="10.00">game::CheatManager</text>
</a>
</g>
</g>
<!-- Node3&#45;&gt;Node7 -->
<g id="edge7" class="edge">
<title>Node3&#45;&gt;Node7</title>
<path fill="none" stroke="midnightblue" d="M229.96,-610.6C231.05,-611.66 232.07,-612.79 233,-614 288.99,-686.6 208.65,-955.98 269,-1025 277.02,-1034.17 288.42,-1039.44 300.26,-1042.36"/>
<polygon fill="midnightblue" stroke="midnightblue" points="232.03,-607.77 221.93,-604.59 227.84,-613.38 232.03,-607.77"/>
</g>
<!-- Node8 -->
<g id="node9" class="node">
<title>Node8</title>
<g id="a_node9"><a xlink:href="classgame_1_1CloseSceneBehaviour.html" target="_top" xlink:title="A script to close the scene when pressing the ESC ky.">
<polygon fill="none" stroke="black" points="284,-996.5 284,-1015.5 425,-1015.5 425,-996.5 284,-996.5"/>
<text text-anchor="middle" x="354.5" y="-1003.5" font-family="Helvetica,sans-Serif" font-size="10.00">game::CloseSceneBehaviour</text>
</a>
</g>
</g>
<!-- Node3&#45;&gt;Node8 -->
<g id="edge8" class="edge">
<title>Node3&#45;&gt;Node8</title>
<path fill="none" stroke="midnightblue" d="M229.95,-610.61C231.04,-611.67 232.06,-612.79 233,-614 284.15,-679.71 213.91,-924.55 269,-987 273.18,-991.74 278.26,-995.43 283.84,-998.29"/>
<polygon fill="midnightblue" stroke="midnightblue" points="232.01,-607.78 221.89,-604.62 227.83,-613.39 232.01,-607.78"/>
</g>
<!-- Node9 -->
<g id="node10" class="node">
<title>Node9</title>
<g id="a_node10"><a xlink:href="classgame_1_1ConfettiBehaviour.html" target="_top" xlink:title=" ">
<polygon fill="none" stroke="black" points="293.5,-958.5 293.5,-977.5 415.5,-977.5 415.5,-958.5 293.5,-958.5"/>
<text text-anchor="middle" x="354.5" y="-965.5" font-family="Helvetica,sans-Serif" font-size="10.00">game::ConfettiBehaviour</text>
</a>
</g>
</g>
<!-- Node3&#45;&gt;Node9 -->
<g id="edge9" class="edge">
<title>Node3&#45;&gt;Node9</title>
<path fill="none" stroke="midnightblue" d="M229.87,-610.56C230.99,-611.63 232.04,-612.78 233,-614 325.62,-731.67 169.32,-837.25 269,-949 275.51,-956.29 284.16,-961.11 293.44,-964.23"/>
<polygon fill="midnightblue" stroke="midnightblue" points="231.73,-607.59 221.6,-604.5 227.6,-613.23 231.73,-607.59"/>
</g>
<!-- Node10 -->
<g id="node11" class="node">
<title>Node10</title>
<g id="a_node11"><a xlink:href="classgame_1_1CoolDownBehaviour.html" target="_top" xlink:title="A script to handle a cool down for other scripts.">
<polygon fill="none" stroke="black" points="288,-920.5 288,-939.5 421,-939.5 421,-920.5 288,-920.5"/>
<text text-anchor="middle" x="354.5" y="-927.5" font-family="Helvetica,sans-Serif" font-size="10.00">game::CoolDownBehaviour</text>
</a>
</g>
</g>
<!-- Node3&#45;&gt;Node10 -->
<g id="edge10" class="edge">
<title>Node3&#45;&gt;Node10</title>
<path fill="none" stroke="midnightblue" d="M229.85,-610.58C230.97,-611.64 232.03,-612.78 233,-614 315.94,-717.92 179.82,-812.37 269,-911 274.14,-916.69 280.59,-920.86 287.62,-923.9"/>
<polygon fill="midnightblue" stroke="midnightblue" points="231.69,-607.59 221.55,-604.54 227.58,-613.25 231.69,-607.59"/>
</g>
<!-- Node11 -->
<g id="node12" class="node">
<title>Node11</title>
<g id="a_node12"><a xlink:href="classgame_1_1DamageBehaviour.html" target="_top" xlink:title="A script that handles damage on health scripts.">
<polygon fill="none" stroke="black" points="292,-882.5 292,-901.5 417,-901.5 417,-882.5 292,-882.5"/>
<text text-anchor="middle" x="354.5" y="-889.5" font-family="Helvetica,sans-Serif" font-size="10.00">game::DamageBehaviour</text>
</a>
</g>
</g>
<!-- Node3&#45;&gt;Node11 -->
<g id="edge11" class="edge">
<title>Node3&#45;&gt;Node11</title>
<path fill="none" stroke="midnightblue" d="M229.82,-610.6C230.95,-611.66 232.02,-612.79 233,-614 306.29,-704.2 190.3,-787.48 269,-873 275.21,-879.75 283.26,-884.36 291.92,-887.47"/>
<polygon fill="midnightblue" stroke="midnightblue" points="231.64,-607.6 221.48,-604.6 227.55,-613.28 231.64,-607.6"/>
</g>
<!-- Node12 -->
<g id="node13" class="node">
<title>Node12</title>
<g id="a_node13"><a xlink:href="classgame_1_1EnemyInvisibleBehaviour.html" target="_top" xlink:title=" ">
<polygon fill="none" stroke="black" points="277.5,-844.5 277.5,-863.5 431.5,-863.5 431.5,-844.5 277.5,-844.5"/>
<text text-anchor="middle" x="354.5" y="-851.5" font-family="Helvetica,sans-Serif" font-size="10.00">game::EnemyInvisibleBehaviour</text>
</a>
</g>
</g>
<!-- Node3&#45;&gt;Node12 -->
<g id="edge12" class="edge">
<title>Node3&#45;&gt;Node12</title>
<path fill="none" stroke="midnightblue" d="M229.36,-610.25C230.66,-611.41 231.88,-612.66 233,-614 296.65,-690.5 200.76,-762.56 269,-835 272.51,-838.72 276.57,-841.79 280.98,-844.31"/>
<polygon fill="midnightblue" stroke="midnightblue" points="231.34,-607.36 221.13,-604.52 227.34,-613.11 231.34,-607.36"/>
</g>
<!-- Node13 -->
<g id="node14" class="node">
<title>Node13</title>
<g id="a_node14"><a xlink:href="classgame_1_1EnemyMedicBehaviour.html" target="_top" xlink:title="A behaviour that heals other enemies in a certain range.">
<polygon fill="none" stroke="black" points="282.5,-806.5 282.5,-825.5 426.5,-825.5 426.5,-806.5 282.5,-806.5"/>
<text text-anchor="middle" x="354.5" y="-813.5" font-family="Helvetica,sans-Serif" font-size="10.00">game::EnemyMedicBehaviour</text>
</a>
</g>
</g>
<!-- Node3&#45;&gt;Node13 -->
<g id="edge13" class="edge">
<title>Node3&#45;&gt;Node13</title>
<path fill="none" stroke="midnightblue" d="M229.3,-610.3C230.62,-611.44 231.86,-612.68 233,-614 287.06,-676.84 211.18,-737.6 269,-797 272.88,-800.99 277.4,-804.22 282.31,-806.83"/>
<polygon fill="midnightblue" stroke="midnightblue" points="231.24,-607.38 221.01,-604.63 227.29,-613.16 231.24,-607.38"/>
</g>
<!-- Node14 -->
<g id="node15" class="node">
<title>Node14</title>
<g id="a_node15"><a xlink:href="classgame_1_1EnemyMovementBehaviour.html" target="_top" xlink:title="A script to handle movement for the enemy.">
<polygon fill="none" stroke="black" points="272.5,-768.5 272.5,-787.5 436.5,-787.5 436.5,-768.5 272.5,-768.5"/>
<text text-anchor="middle" x="354.5" y="-775.5" font-family="Helvetica,sans-Serif" font-size="10.00">game::EnemyMovementBehaviour</text>
</a>
</g>
</g>
<!-- Node3&#45;&gt;Node14 -->
<g id="edge14" class="edge">
<title>Node3&#45;&gt;Node14</title>
<path fill="none" stroke="midnightblue" d="M229.06,-610.24C230.46,-611.4 231.78,-612.65 233,-614 277.53,-663.26 221.53,-712.57 269,-759 272.87,-762.78 277.32,-765.88 282.12,-768.41"/>
<polygon fill="midnightblue" stroke="midnightblue" points="230.59,-607.06 220.31,-604.51 226.76,-612.91 230.59,-607.06"/>
</g>
<!-- Node15 -->
<g id="node16" class="node">
<title>Node15</title>
<g id="a_node16"><a xlink:href="classgame_1_1EnemySpeedBoostBehaviour.html" target="_top" xlink:title="A behaviour script to boost other enemies in a certain range.">
<polygon fill="none" stroke="black" points="269,-730.5 269,-749.5 440,-749.5 440,-730.5 269,-730.5"/>
<text text-anchor="middle" x="354.5" y="-737.5" font-family="Helvetica,sans-Serif" font-size="10.00">game::EnemySpeedBoostBehaviour</text>
</a>
</g>
</g>
<!-- Node3&#45;&gt;Node15 -->
<g id="edge15" class="edge">
<title>Node3&#45;&gt;Node15</title>
<path fill="none" stroke="midnightblue" d="M228.36,-609.93C230,-611.18 231.56,-612.53 233,-614 268.13,-649.83 231.74,-687.4 269,-721 273.24,-724.83 278.09,-727.94 283.26,-730.46"/>
<polygon fill="midnightblue" stroke="midnightblue" points="229.84,-606.74 219.48,-604.51 226.19,-612.71 229.84,-606.74"/>
</g>
<!-- Node16 -->
<g id="node17" class="node">
<title>Node16</title>
<g id="a_node17"><a xlink:href="classgame_1_1EnemySuicideAbilityBehaviour.html" target="_top" xlink:title="A script for handling the Enemy Suidcide ability for Joseph Stalin.">
<polygon fill="none" stroke="black" points="288,-681 288,-711 421,-711 421,-681 288,-681"/>
<text text-anchor="start" x="296" y="-699" font-family="Helvetica,sans-Serif" font-size="10.00">game::EnemySuicideAbility</text>
<text text-anchor="middle" x="354.5" y="-688" font-family="Helvetica,sans-Serif" font-size="10.00">Behaviour</text>
</a>
</g>
</g>
<!-- Node3&#45;&gt;Node16 -->
<g id="edge16" class="edge">
<title>Node3&#45;&gt;Node16</title>
<path fill="none" stroke="midnightblue" d="M225.76,-609.06C228.31,-610.55 230.75,-612.19 233,-614 256.38,-632.74 245.1,-652.92 269,-671 274.73,-675.34 281.21,-678.93 287.97,-681.89"/>
<polygon fill="midnightblue" stroke="midnightblue" points="227.27,-605.9 216.76,-604.55 224.13,-612.16 227.27,-605.9"/>
</g>
<!-- Node17 -->
<g id="node18" class="node">
<title>Node17</title>
<g id="a_node18"><a xlink:href="classgame_1_1EnemyTroopTruckBehaviour.html" target="_top" xlink:title="A behaviour script that spawns a given amount of enemies when the current entity dies.">
<polygon fill="none" stroke="black" points="271,-642.5 271,-661.5 438,-661.5 438,-642.5 271,-642.5"/>
<text text-anchor="middle" x="354.5" y="-649.5" font-family="Helvetica,sans-Serif" font-size="10.00">game::EnemyTroopTruckBehaviour</text>
</a>
</g>
</g>
<!-- Node3&#45;&gt;Node17 -->
<g id="edge17" class="edge">
<title>Node3&#45;&gt;Node17</title>
<path fill="none" stroke="midnightblue" d="M218.35,-608.02C223.32,-609.92 228.31,-611.93 233,-614 249.56,-621.29 252.03,-626.74 269,-633 279.16,-636.75 290.29,-639.89 301.03,-642.47"/>
<polygon fill="midnightblue" stroke="midnightblue" points="219.49,-604.71 208.9,-604.52 217.06,-611.27 219.49,-604.71"/>
</g>
<!-- Node18 -->
<g id="node19" class="node">
<title>Node18</title>
<g id="a_node19"><a xlink:href="classgame_1_1EnemyValue.html" target="_top" xlink:title=" ">
<polygon fill="none" stroke="black" points="305,-604.5 305,-623.5 404,-623.5 404,-604.5 305,-604.5"/>
<text text-anchor="middle" x="354.5" y="-611.5" font-family="Helvetica,sans-Serif" font-size="10.00">game::EnemyValue</text>
</a>
</g>
</g>
<!-- Node3&#45;&gt;Node18 -->
<g id="edge18" class="edge">
<title>Node3&#45;&gt;Node18</title>
<path fill="none" stroke="midnightblue" d="M243.56,-601.96C263.82,-604.18 285.9,-606.6 304.92,-608.68"/>
<polygon fill="midnightblue" stroke="midnightblue" points="243.79,-598.47 233.47,-600.86 243.03,-605.42 243.79,-598.47"/>
</g>
<!-- Node19 -->
<g id="node20" class="node">
<title>Node19</title>
<g id="a_node20"><a xlink:href="classgame_1_1GameLostBehaviour.html" target="_top" xlink:title="The script the handle the game lost screen.">
<polygon fill="none" stroke="black" points="287.5,-566.5 287.5,-585.5 421.5,-585.5 421.5,-566.5 287.5,-566.5"/>
<text text-anchor="middle" x="354.5" y="-573.5" font-family="Helvetica,sans-Serif" font-size="10.00">game::GameLostBehaviour</text>
</a>
</g>
</g>
<!-- Node3&#45;&gt;Node19 -->
<g id="edge19" class="edge">
<title>Node3&#45;&gt;Node19</title>
<path fill="none" stroke="midnightblue" d="M243.65,-588.03C257.89,-586.47 273.02,-584.81 287.35,-583.24"/>
<polygon fill="midnightblue" stroke="midnightblue" points="243.03,-584.58 233.47,-589.14 243.79,-591.53 243.03,-584.58"/>
</g>
<!-- Node20 -->
<g id="node21" class="node">
<title>Node20</title>
<g id="a_node21"><a xlink:href="classgame_1_1GameWonBehaviour.html" target="_top" xlink:title="A script that handles the game won screen.">
<polygon fill="none" stroke="black" points="287.5,-528.5 287.5,-547.5 421.5,-547.5 421.5,-528.5 287.5,-528.5"/>
<text text-anchor="middle" x="354.5" y="-535.5" font-family="Helvetica,sans-Serif" font-size="10.00">game::GameWonBehaviour</text>
</a>
</g>
</g>
<!-- Node3&#45;&gt;Node20 -->
<g id="edge20" class="edge">
<title>Node3&#45;&gt;Node20</title>
<path fill="none" stroke="midnightblue" d="M218.35,-581.98C223.32,-580.08 228.31,-578.07 233,-576 249.56,-568.71 252.03,-563.26 269,-557 279.16,-553.25 290.29,-550.11 301.03,-547.53"/>
<polygon fill="midnightblue" stroke="midnightblue" points="217.06,-578.73 208.9,-585.48 219.49,-585.29 217.06,-578.73"/>
</g>
<!-- Node21 -->
<g id="node22" class="node">
<title>Node21</title>
<g id="a_node22"><a xlink:href="classgame_1_1HealAbilityBehaviour.html" target="_top" xlink:title="A script to heal a hero when activated.">
<polygon fill="none" stroke="black" points="287,-490.5 287,-509.5 422,-509.5 422,-490.5 287,-490.5"/>
<text text-anchor="middle" x="354.5" y="-497.5" font-family="Helvetica,sans-Serif" font-size="10.00">game::HealAbilityBehaviour</text>
</a>
</g>
</g>
<!-- Node3&#45;&gt;Node21 -->
<g id="edge21" class="edge">
<title>Node3&#45;&gt;Node21</title>
<path fill="none" stroke="midnightblue" d="M225.76,-580.94C228.31,-579.45 230.75,-577.81 233,-576 256.38,-557.26 244.52,-536.27 269,-519 274.41,-515.19 280.45,-512.12 286.75,-509.66"/>
<polygon fill="midnightblue" stroke="midnightblue" points="224.13,-577.84 216.76,-585.45 227.27,-584.1 224.13,-577.84"/>
</g>
<!-- Node22 -->
<g id="node23" class="node">
<title>Node22</title>
<g id="a_node23"><a xlink:href="classgame_1_1HealthBarBehaviour.html" target="_top" xlink:title="A script to render a health bar linked to a health behaviour.">
<polygon fill="none" stroke="black" points="288.5,-452.5 288.5,-471.5 420.5,-471.5 420.5,-452.5 288.5,-452.5"/>
<text text-anchor="middle" x="354.5" y="-459.5" font-family="Helvetica,sans-Serif" font-size="10.00">game::HealthBarBehaviour</text>
</a>
</g>
</g>
<!-- Node3&#45;&gt;Node22 -->
<g id="edge22" class="edge">
<title>Node3&#45;&gt;Node22</title>
<path fill="none" stroke="midnightblue" d="M227.77,-580.37C229.63,-579.04 231.39,-577.59 233,-576 265.21,-544.36 234.9,-510.6 269,-481 274.68,-476.07 281.36,-472.34 288.44,-469.54"/>
<polygon fill="midnightblue" stroke="midnightblue" points="225.93,-577.4 219.08,-585.48 229.48,-583.43 225.93,-577.4"/>
</g>
<!-- Node23 -->
<g id="node24" class="node">
<title>Node23</title>
<g id="a_node24"><a xlink:href="classgame_1_1HealthBehaviour.html" target="_top" xlink:title="A script to handle health on a entity.">
<polygon fill="none" stroke="black" points="296,-414.5 296,-433.5 413,-433.5 413,-414.5 296,-414.5"/>
<text text-anchor="middle" x="354.5" y="-421.5" font-family="Helvetica,sans-Serif" font-size="10.00">game::HealthBehaviour</text>
</a>
</g>
</g>
<!-- Node3&#45;&gt;Node23 -->
<g id="edge23" class="edge">
<title>Node3&#45;&gt;Node23</title>
<path fill="none" stroke="midnightblue" d="M229.03,-579.73C230.44,-578.57 231.77,-577.33 233,-576 274.54,-531 224.77,-485.36 269,-443 276.38,-435.93 285.81,-431.27 295.67,-428.25"/>
<polygon fill="midnightblue" stroke="midnightblue" points="226.72,-577.05 220.23,-585.42 230.53,-582.92 226.72,-577.05"/>
</g>
<!-- Node24 -->
<g id="node25" class="node">
<title>Node24</title>
<g id="a_node25"><a xlink:href="classgame_1_1IncreaseTowerFireRateAbilityBehaviour.html" target="_top" xlink:title="A script for handling the Tower Fire Rate Ability for Winston Churchill.">
<polygon fill="none" stroke="black" points="281.5,-365 281.5,-395 427.5,-395 427.5,-365 281.5,-365"/>
<text text-anchor="start" x="289.5" y="-383" font-family="Helvetica,sans-Serif" font-size="10.00">game::IncreaseTowerFireRate</text>
<text text-anchor="middle" x="354.5" y="-372" font-family="Helvetica,sans-Serif" font-size="10.00">AbilityBehaviour</text>
</a>
</g>
</g>
<!-- Node3&#45;&gt;Node24 -->
<g id="edge24" class="edge">
<title>Node3&#45;&gt;Node24</title>
<path fill="none" stroke="midnightblue" d="M229.2,-579.75C230.56,-578.59 231.83,-577.34 233,-576 284.04,-517.46 216.33,-462.07 269,-405 272.63,-401.07 276.85,-397.74 281.43,-394.93"/>
<polygon fill="midnightblue" stroke="midnightblue" points="227.04,-576.98 220.7,-585.47 230.95,-582.79 227.04,-576.98"/>
</g>
<!-- Node25 -->
<g id="node26" class="node">
<title>Node25</title>
<g id="a_node26"><a xlink:href="classgame_1_1IncreaseTowerRangeAbilityBehaviour.html" target="_top" xlink:title="A script for handling the Tower Range ability for Franklin D Roosevelt.">
<polygon fill="none" stroke="black" points="286,-316 286,-346 423,-346 423,-316 286,-316"/>
<text text-anchor="start" x="294" y="-334" font-family="Helvetica,sans-Serif" font-size="10.00">game::IncreaseTowerRange</text>
<text text-anchor="middle" x="354.5" y="-323" font-family="Helvetica,sans-Serif" font-size="10.00">AbilityBehaviour</text>
</a>
</g>
</g>
<!-- Node3&#45;&gt;Node25 -->
<g id="edge25" class="edge">
<title>Node3&#45;&gt;Node25</title>
<path fill="none" stroke="midnightblue" d="M229.36,-579.75C230.66,-578.59 231.88,-577.34 233,-576 296.4,-499.86 203.47,-430.31 269,-356 273.65,-350.72 279.36,-346.53 285.6,-343.21"/>
<polygon fill="midnightblue" stroke="midnightblue" points="227.34,-576.89 221.13,-585.47 231.34,-582.64 227.34,-576.89"/>
</g>
<!-- Node26 -->
<g id="node27" class="node">
<title>Node26</title>
<g id="a_node27"><a xlink:href="classgame_1_1InvisibilityAbilityBehaviour.html" target="_top" xlink:title="A script for handling the invisibility ability for Bernard IJzerdraat.">
<polygon fill="none" stroke="black" points="297.5,-267 297.5,-297 411.5,-297 411.5,-267 297.5,-267"/>
<text text-anchor="start" x="305.5" y="-285" font-family="Helvetica,sans-Serif" font-size="10.00">game::InvisibilityAbility</text>
<text text-anchor="middle" x="354.5" y="-274" font-family="Helvetica,sans-Serif" font-size="10.00">Behaviour</text>
</a>
</g>
</g>
<!-- Node3&#45;&gt;Node26 -->
<g id="edge26" class="edge">
<title>Node3&#45;&gt;Node26</title>
<path fill="none" stroke="midnightblue" d="M229.83,-579.41C230.96,-578.35 232.02,-577.21 233,-576 308.83,-482.19 190.55,-398.62 269,-307 276.36,-298.4 286.53,-292.68 297.26,-288.9"/>
<polygon fill="midnightblue" stroke="midnightblue" points="227.56,-576.73 221.5,-585.42 231.66,-582.4 227.56,-576.73"/>
</g>
<!-- Node27 -->
<g id="node28" class="node">
<title>Node27</title>
<g id="a_node28"><a xlink:href="classgame_1_1LevelController.html" target="_top" xlink:title="A controller to handle changes in the Level.">
<polygon fill="none" stroke="black" points="299.5,-228.5 299.5,-247.5 409.5,-247.5 409.5,-228.5 299.5,-228.5"/>
<text text-anchor="middle" x="354.5" y="-235.5" font-family="Helvetica,sans-Serif" font-size="10.00">game::LevelController</text>
</a>
</g>
</g>
<!-- Node3&#45;&gt;Node27 -->
<g id="edge27" class="edge">
<title>Node3&#45;&gt;Node27</title>
<path fill="none" stroke="midnightblue" d="M229.86,-579.43C230.98,-578.36 232.03,-577.22 233,-576 321.29,-464.48 174.62,-364.41 269,-258 276.8,-249.2 287.7,-243.91 299.07,-240.8"/>
<polygon fill="midnightblue" stroke="midnightblue" points="227.59,-576.76 221.57,-585.48 231.72,-582.41 227.59,-576.76"/>
</g>
<!-- Node28 -->
<g id="node29" class="node">
<title>Node28</title>
<g id="a_node29"><a xlink:href="classgame_1_1LevelSelectionController.html" target="_top" xlink:title="A script to handle level loading and selection.">
<polygon fill="none" stroke="black" points="279,-190.5 279,-209.5 430,-209.5 430,-190.5 279,-190.5"/>
<text text-anchor="middle" x="354.5" y="-197.5" font-family="Helvetica,sans-Serif" font-size="10.00">game::LevelSelectionController</text>
</a>
</g>
</g>
<!-- Node3&#45;&gt;Node28 -->
<g id="edge28" class="edge">
<title>Node3&#45;&gt;Node28</title>
<path fill="none" stroke="#8b1a1a" d="M229.94,-579.39C231.04,-578.33 232.06,-577.2 233,-576 282.11,-513.18 216.12,-278.68 269,-219 272.29,-215.29 276.14,-212.21 280.34,-209.68"/>
<polygon fill="#8b1a1a" stroke="#8b1a1a" points="227.82,-576.6 221.88,-585.37 231.99,-582.22 227.82,-576.6"/>
</g>
<!-- Node29 -->
<g id="node30" class="node">
<title>Node29</title>
<g id="a_node30"><a xlink:href="classgame_1_1PauseSceneBehaviour.html" target="_top" xlink:title="A script to pause the game when pressing the ESC key.">
<polygon fill="none" stroke="black" points="282.5,-152.5 282.5,-171.5 426.5,-171.5 426.5,-152.5 282.5,-152.5"/>
<text text-anchor="middle" x="354.5" y="-159.5" font-family="Helvetica,sans-Serif" font-size="10.00">game::PauseSceneBehaviour</text>
</a>
</g>
</g>
<!-- Node3&#45;&gt;Node29 -->
<g id="edge29" class="edge">
<title>Node3&#45;&gt;Node29</title>
<path fill="none" stroke="midnightblue" d="M229.96,-579.4C231.05,-578.34 232.07,-577.21 233,-576 286.95,-506.3 210.86,-247.25 269,-181 272.77,-176.71 277.28,-173.27 282.23,-170.53"/>
<polygon fill="midnightblue" stroke="midnightblue" points="227.84,-576.61 221.91,-585.4 232.02,-582.23 227.84,-576.61"/>
</g>
<!-- Node30 -->
<g id="node31" class="node">
<title>Node30</title>
<g id="a_node31"><a xlink:href="classgame_1_1UserAttackBehaviour.html" target="_top" xlink:title="A script to let the user attack.">
<polygon fill="none" stroke="black" points="285.5,-114.5 285.5,-133.5 423.5,-133.5 423.5,-114.5 285.5,-114.5"/>
<text text-anchor="middle" x="354.5" y="-121.5" font-family="Helvetica,sans-Serif" font-size="10.00">game::UserAttackBehaviour</text>
</a>
</g>
</g>
<!-- Node3&#45;&gt;Node30 -->
<g id="edge30" class="edge">
<title>Node3&#45;&gt;Node30</title>
<path fill="none" stroke="midnightblue" d="M229.97,-579.41C231.06,-578.35 232.07,-577.21 233,-576 291.8,-499.41 205.6,-215.83 269,-143 273.54,-137.78 279.18,-133.83 285.37,-130.85"/>
<polygon fill="midnightblue" stroke="midnightblue" points="227.85,-576.63 221.94,-585.42 232.04,-582.23 227.85,-576.63"/>
</g>
<!-- Node31 -->
<g id="node32" class="node">
<title>Node31</title>
<g id="a_node32"><a xlink:href="classgame_1_1UserMovementBehaviour.html" target="_top" xlink:title="A script to allow the user to move the hero thru the level.">
<polygon fill="none" stroke="black" points="277,-76.5 277,-95.5 432,-95.5 432,-76.5 277,-76.5"/>
<text text-anchor="middle" x="354.5" y="-83.5" font-family="Helvetica,sans-Serif" font-size="10.00">game::UserMovementBehaviour</text>
</a>
</g>
</g>
<!-- Node3&#45;&gt;Node31 -->
<g id="edge31" class="edge">
<title>Node3&#45;&gt;Node31</title>
<path fill="none" stroke="midnightblue" d="M229.98,-579.42C231.06,-578.35 232.07,-577.21 233,-576 296.65,-492.52 200.34,-184.4 269,-105 272.25,-101.25 276.06,-98.15 280.24,-95.59"/>
<polygon fill="midnightblue" stroke="midnightblue" points="227.86,-576.63 221.97,-585.44 232.06,-582.23 227.86,-576.63"/>
</g>
<!-- Node33 -->
<g id="node34" class="node">
<title>Node33</title>
<g id="a_node34"><a xlink:href="classspic_1_1BoxCollider.html" target="_top" xlink:title="A collider which represents a rectangular collision area. @spicapi.">
<polygon fill="none" stroke="black" points="310.5,-38.5 310.5,-57.5 398.5,-57.5 398.5,-38.5 310.5,-38.5"/>
<text text-anchor="middle" x="354.5" y="-45.5" font-family="Helvetica,sans-Serif" font-size="10.00">spic::BoxCollider</text>
</a>
</g>
</g>
<!-- Node32&#45;&gt;Node33 -->
<g id="edge33" class="edge">
<title>Node32&#45;&gt;Node33</title>
<path fill="none" stroke="midnightblue" d="M223.51,-546.51C227.13,-544.21 230.4,-541.41 233,-538 296.65,-454.52 200.34,-146.4 269,-67 279.23,-55.17 295.09,-49.82 310.32,-47.63"/>
<polygon fill="midnightblue" stroke="midnightblue" points="221.9,-543.4 214.53,-551.01 225.04,-549.65 221.9,-543.4"/>
</g>
<!-- Node34 -->
<g id="node35" class="node">
<title>Node34</title>
<g id="a_node35"><a xlink:href="classspic_1_1CircleCollider.html" target="_top" xlink:title="A collider which represents a circular collision area. @spicapi.">
<polygon fill="none" stroke="black" points="306.5,-0.5 306.5,-19.5 402.5,-19.5 402.5,-0.5 306.5,-0.5"/>
<text text-anchor="middle" x="354.5" y="-7.5" font-family="Helvetica,sans-Serif" font-size="10.00">spic::CircleCollider</text>
</a>
</g>
</g>
<!-- Node32&#45;&gt;Node34 -->
<g id="edge34" class="edge">
<title>Node32&#45;&gt;Node34</title>
<path fill="none" stroke="midnightblue" d="M223.53,-546.52C227.15,-544.22 230.41,-541.42 233,-538 301.5,-447.63 195.08,-114.98 269,-29 278.31,-18.17 292.35,-12.76 306.32,-10.24"/>
<polygon fill="midnightblue" stroke="midnightblue" points="221.92,-543.41 214.56,-551.03 225.06,-549.67 221.92,-543.41"/>
</g>
</g>
</svg>
