<?xml version="1.0" encoding="UTF-8" standalone="no"?>
<!DOCTYPE svg PUBLIC "-//W3C//DTD SVG 1.1//EN"
 "http://www.w3.org/Graphics/SVG/1.1/DTD/svg11.dtd">
<!-- Generated by graphviz version 2.44.0 ()
 -->
<!-- Title: Graphical Class Hierarchy Pages: 1 -->
<svg width="441pt" height="750pt"
 viewBox="0.00 0.00 441.00 750.00" xmlns="http://www.w3.org/2000/svg" xmlns:xlink="http://www.w3.org/1999/xlink">
<g id="graph0" class="graph" transform="scale(1 1) rotate(0) translate(4 746)">
<title>Graphical Class Hierarchy</title>
<!-- Node0 -->
<g id="node1" class="node">
<title>Node0</title>
<g id="a_node1"><a xlink:href="classspic_1_1Component.html" target="_top" xlink:title="Base class for all components. @spicapi.">
<polygon fill="none" stroke="black" points="0,-342.5 0,-361.5 89,-361.5 89,-342.5 0,-342.5"/>
<text text-anchor="middle" x="44.5" y="-349.5" font-family="Helvetica,sans-Serif" font-size="10.00">spic::Component</text>
</a>
</g>
</g>
<!-- Node1 -->
<g id="node2" class="node">
<title>Node1</title>
<g id="a_node2"><a xlink:href="classspic_1_1Animator.html" target="_top" xlink:title="A component which can play animated sequences of sprites. @spicapi.">
<polygon fill="none" stroke="black" points="140,-437.5 140,-456.5 218,-456.5 218,-437.5 140,-437.5"/>
<text text-anchor="middle" x="179" y="-444.5" font-family="Helvetica,sans-Serif" font-size="10.00">spic::Animator</text>
</a>
</g>
</g>
<!-- Node0&#45;&gt;Node1 -->
<g id="edge1" class="edge">
<title>Node0&#45;&gt;Node1</title>
<path fill="none" stroke="midnightblue" d="M60.14,-369.79C74.95,-386.78 99.27,-412.1 125,-428 130.99,-431.7 137.8,-434.82 144.5,-437.4"/>
<polygon fill="midnightblue" stroke="midnightblue" points="62.45,-367.1 53.3,-361.75 57.12,-371.64 62.45,-367.1"/>
</g>
<!-- Node2 -->
<g id="node3" class="node">
<title>Node2</title>
<g id="a_node3"><a xlink:href="classspic_1_1AudioSource.html" target="_top" xlink:title="Component which can play audio. @spicapi.">
<polygon fill="none" stroke="black" points="131.5,-399.5 131.5,-418.5 226.5,-418.5 226.5,-399.5 131.5,-399.5"/>
<text text-anchor="middle" x="179" y="-406.5" font-family="Helvetica,sans-Serif" font-size="10.00">spic::AudioSource</text>
</a>
</g>
</g>
<!-- Node0&#45;&gt;Node2 -->
<g id="edge2" class="edge">
<title>Node0&#45;&gt;Node2</title>
<path fill="none" stroke="midnightblue" d="M73.5,-366.24C88.59,-373.7 107.63,-382.76 125,-390 132.94,-393.31 141.68,-396.59 149.74,-399.47"/>
<polygon fill="midnightblue" stroke="midnightblue" points="74.72,-362.94 64.21,-361.61 71.6,-369.2 74.72,-362.94"/>
</g>
<!-- Node3 -->
<g id="node4" class="node">
<title>Node3</title>
<g id="a_node4"><a xlink:href="classspic_1_1BehaviourScript.html" target="_top" xlink:title=" ">
<polygon fill="none" stroke="black" points="125,-361.5 125,-380.5 233,-380.5 233,-361.5 125,-361.5"/>
<text text-anchor="middle" x="179" y="-368.5" font-family="Helvetica,sans-Serif" font-size="10.00">spic::BehaviourScript</text>
</a>
</g>
</g>
<!-- Node0&#45;&gt;Node3 -->
<g id="edge3" class="edge">
<title>Node0&#45;&gt;Node3</title>
<path fill="none" stroke="midnightblue" d="M99.27,-359.71C107.62,-360.91 116.25,-362.15 124.6,-363.34"/>
<polygon fill="midnightblue" stroke="midnightblue" points="99.65,-356.23 89.25,-358.27 98.65,-363.16 99.65,-356.23"/>
</g>
<!-- Node22 -->
<g id="node23" class="node">
<title>Node22</title>
<g id="a_node23"><a xlink:href="classspic_1_1Collider.html" target="_top" xlink:title="The base class for all colliders. @spicapi.">
<polygon fill="none" stroke="black" points="143.5,-323.5 143.5,-342.5 214.5,-342.5 214.5,-323.5 143.5,-323.5"/>
<text text-anchor="middle" x="179" y="-330.5" font-family="Helvetica,sans-Serif" font-size="10.00">spic::Collider</text>
</a>
</g>
</g>
<!-- Node0&#45;&gt;Node22 -->
<g id="edge22" class="edge">
<title>Node0&#45;&gt;Node22</title>
<path fill="none" stroke="midnightblue" d="M99.3,-344.28C114.07,-342.17 129.69,-339.93 143.1,-338.01"/>
<polygon fill="midnightblue" stroke="midnightblue" points="98.65,-340.84 89.25,-345.73 99.65,-347.77 98.65,-340.84"/>
</g>
<!-- Node25 -->
<g id="node26" class="node">
<title>Node25</title>
<g id="a_node26"><a xlink:href="classspic_1_1RigidBody.html" target="_top" xlink:title="A component representing a rigid body. @spicapi.">
<polygon fill="none" stroke="black" points="137.5,-285.5 137.5,-304.5 220.5,-304.5 220.5,-285.5 137.5,-285.5"/>
<text text-anchor="middle" x="179" y="-292.5" font-family="Helvetica,sans-Serif" font-size="10.00">spic::RigidBody</text>
</a>
</g>
</g>
<!-- Node0&#45;&gt;Node25 -->
<g id="edge25" class="edge">
<title>Node0&#45;&gt;Node25</title>
<path fill="none" stroke="midnightblue" d="M73.5,-337.76C88.59,-330.3 107.63,-321.24 125,-314 132.94,-310.69 141.68,-307.41 149.74,-304.53"/>
<polygon fill="midnightblue" stroke="midnightblue" points="71.6,-334.8 64.21,-342.39 74.72,-341.06 71.6,-334.8"/>
</g>
<!-- Node26 -->
<g id="node27" class="node">
<title>Node26</title>
<g id="a_node27"><a xlink:href="classspic_1_1Sprite.html" target="_top" xlink:title="A component representing a sprite (small image) @spicapi.">
<polygon fill="none" stroke="black" points="146.5,-247.5 146.5,-266.5 211.5,-266.5 211.5,-247.5 146.5,-247.5"/>
<text text-anchor="middle" x="179" y="-254.5" font-family="Helvetica,sans-Serif" font-size="10.00">spic::Sprite</text>
</a>
</g>
</g>
<!-- Node0&#45;&gt;Node26 -->
<g id="edge26" class="edge">
<title>Node0&#45;&gt;Node26</title>
<path fill="none" stroke="midnightblue" d="M60.14,-334.21C74.95,-317.22 99.27,-291.9 125,-276 131.57,-271.94 139.13,-268.58 146.45,-265.87"/>
<polygon fill="midnightblue" stroke="midnightblue" points="57.12,-332.36 53.3,-342.25 62.45,-336.9 57.12,-332.36"/>
</g>
<!-- Node4 -->
<g id="node5" class="node">
<title>Node4</title>
<g id="a_node5"><a xlink:href="classgame_1_1AttackBehaviour.html" target="_top" xlink:title="A script to attack other game objects containing a health script.">
<polygon fill="none" stroke="black" points="292.5,-722.5 292.5,-741.5 409.5,-741.5 409.5,-722.5 292.5,-722.5"/>
<text text-anchor="middle" x="351" y="-729.5" font-family="Helvetica,sans-Serif" font-size="10.00">game::AttackBehaviour</text>
</a>
</g>
</g>
<!-- Node3&#45;&gt;Node4 -->
<g id="edge4" class="edge">
<title>Node3&#45;&gt;Node4</title>
<path fill="none" stroke="midnightblue" d="M229.86,-386.56C230.98,-387.63 232.03,-388.78 233,-390 322.56,-503.33 173.14,-604.95 269,-713 275.23,-720.02 283.52,-724.7 292.42,-727.78"/>
<polygon fill="midnightblue" stroke="midnightblue" points="231.72,-383.59 221.58,-380.51 227.59,-389.24 231.72,-383.59"/>
</g>
<!-- Node5 -->
<g id="node6" class="node">
<title>Node5</title>
<g id="a_node6"><a xlink:href="classgame_1_1BulletBehaviour.html" target="_top" xlink:title="A script to that handles bullets.">
<polygon fill="none" stroke="black" points="294.5,-684.5 294.5,-703.5 407.5,-703.5 407.5,-684.5 294.5,-684.5"/>
<text text-anchor="middle" x="351" y="-691.5" font-family="Helvetica,sans-Serif" font-size="10.00">game::BulletBehaviour</text>
</a>
</g>
</g>
<!-- Node3&#45;&gt;Node5 -->
<g id="edge5" class="edge">
<title>Node3&#45;&gt;Node5</title>
<path fill="none" stroke="midnightblue" d="M229.84,-386.58C230.97,-387.65 232.03,-388.78 233,-390 312.89,-489.59 183.57,-580.12 269,-675 275.67,-682.41 284.63,-687.2 294.16,-690.25"/>
<polygon fill="midnightblue" stroke="midnightblue" points="231.68,-383.59 221.53,-380.56 227.57,-389.26 231.68,-383.59"/>
</g>
<!-- Node6 -->
<g id="node7" class="node">
<title>Node6</title>
<g id="a_node7"><a xlink:href="classgame_1_1CheatManager.html" target="_top" xlink:title="A script to handle different cheats.">
<polygon fill="none" stroke="black" points="297,-646.5 297,-665.5 405,-665.5 405,-646.5 297,-646.5"/>
<text text-anchor="middle" x="351" y="-653.5" font-family="Helvetica,sans-Serif" font-size="10.00">game::CheatManager</text>
</a>
</g>
</g>
<!-- Node3&#45;&gt;Node6 -->
<g id="edge6" class="edge">
<title>Node3&#45;&gt;Node6</title>
<path fill="none" stroke="midnightblue" d="M229.81,-386.61C230.94,-387.66 232.01,-388.79 233,-390 303.24,-475.87 193.99,-555.27 269,-637 276.33,-644.98 286.31,-649.92 296.77,-652.91"/>
<polygon fill="midnightblue" stroke="midnightblue" points="231.62,-383.6 221.46,-380.62 227.54,-389.29 231.62,-383.6"/>
</g>
<!-- Node7 -->
<g id="node8" class="node">
<title>Node7</title>
<g id="a_node8"><a xlink:href="classgame_1_1CloseSceneBehaviour.html" target="_top" xlink:title="A script to close the scene when pressing the ESC ky.">
<polygon fill="none" stroke="black" points="280.5,-608.5 280.5,-627.5 421.5,-627.5 421.5,-608.5 280.5,-608.5"/>
<text text-anchor="middle" x="351" y="-615.5" font-family="Helvetica,sans-Serif" font-size="10.00">game::CloseSceneBehaviour</text>
</a>
</g>
</g>
<!-- Node3&#45;&gt;Node7 -->
<g id="edge7" class="edge">
<title>Node3&#45;&gt;Node7</title>
<path fill="none" stroke="midnightblue" d="M229.34,-386.26C230.65,-387.42 231.88,-388.66 233,-390 293.62,-462.18 204.37,-530.39 269,-599 272.57,-602.79 276.73,-605.88 281.25,-608.41"/>
<polygon fill="midnightblue" stroke="midnightblue" points="231.31,-383.37 221.1,-380.55 227.33,-389.12 231.31,-383.37"/>
</g>
<!-- Node8 -->
<g id="node9" class="node">
<title>Node8</title>
<g id="a_node9"><a xlink:href="classgame_1_1ConfettiBehaviour.html" target="_top" xlink:title=" ">
<polygon fill="none" stroke="black" points="290,-570.5 290,-589.5 412,-589.5 412,-570.5 290,-570.5"/>
<text text-anchor="middle" x="351" y="-577.5" font-family="Helvetica,sans-Serif" font-size="10.00">game::ConfettiBehaviour</text>
</a>
</g>
</g>
<!-- Node3&#45;&gt;Node8 -->
<g id="edge8" class="edge">
<title>Node3&#45;&gt;Node8</title>
<path fill="none" stroke="midnightblue" d="M229.2,-386.25C230.56,-387.41 231.83,-388.66 233,-390 284.04,-448.54 214.71,-505.46 269,-561 274.75,-566.89 281.96,-571.1 289.69,-574.08"/>
<polygon fill="midnightblue" stroke="midnightblue" points="230.95,-383.21 220.7,-380.53 227.04,-389.02 230.95,-383.21"/>
</g>
<!-- Node9 -->
<g id="node10" class="node">
<title>Node9</title>
<g id="a_node10"><a xlink:href="classgame_1_1CoolDownBehaviour.html" target="_top" xlink:title="A script to handle a cool down for other scripts.">
<polygon fill="none" stroke="black" points="284.5,-532.5 284.5,-551.5 417.5,-551.5 417.5,-532.5 284.5,-532.5"/>
<text text-anchor="middle" x="351" y="-539.5" font-family="Helvetica,sans-Serif" font-size="10.00">game::CoolDownBehaviour</text>
</a>
</g>
</g>
<!-- Node3&#45;&gt;Node9 -->
<g id="edge9" class="edge">
<title>Node3&#45;&gt;Node9</title>
<path fill="none" stroke="midnightblue" d="M229.03,-386.27C230.44,-387.43 231.77,-388.67 233,-390 274.54,-435 224.97,-480.44 269,-523 273.47,-527.32 278.72,-530.72 284.36,-533.39"/>
<polygon fill="midnightblue" stroke="midnightblue" points="230.53,-383.08 220.23,-380.58 226.72,-388.95 230.53,-383.08"/>
</g>
<!-- Node10 -->
<g id="node11" class="node">
<title>Node10</title>
<g id="a_node11"><a xlink:href="classgame_1_1DamageBehaviour.html" target="_top" xlink:title="A script that handles damage on health scripts.">
<polygon fill="none" stroke="black" points="288.5,-494.5 288.5,-513.5 413.5,-513.5 413.5,-494.5 288.5,-494.5"/>
<text text-anchor="middle" x="351" y="-501.5" font-family="Helvetica,sans-Serif" font-size="10.00">game::DamageBehaviour</text>
</a>
</g>
</g>
<!-- Node3&#45;&gt;Node10 -->
<g id="edge10" class="edge">
<title>Node3&#45;&gt;Node10</title>
<path fill="none" stroke="midnightblue" d="M227.77,-385.63C229.63,-386.96 231.39,-388.41 233,-390 265.21,-421.64 235.04,-455.24 269,-485 274.65,-489.95 281.35,-493.67 288.43,-496.46"/>
<polygon fill="midnightblue" stroke="midnightblue" points="229.48,-382.57 219.08,-380.52 225.93,-388.6 229.48,-382.57"/>
</g>
<!-- Node11 -->
<g id="node12" class="node">
<title>Node11</title>
<g id="a_node12"><a xlink:href="classgame_1_1EnemyMovementBehaviour.html" target="_top" xlink:title="A script to handle movement for the enemy.">
<polygon fill="none" stroke="black" points="269,-456.5 269,-475.5 433,-475.5 433,-456.5 269,-456.5"/>
<text text-anchor="middle" x="351" y="-463.5" font-family="Helvetica,sans-Serif" font-size="10.00">game::EnemyMovementBehaviour</text>
</a>
</g>
</g>
<!-- Node3&#45;&gt;Node11 -->
<g id="edge11" class="edge">
<title>Node3&#45;&gt;Node11</title>
<path fill="none" stroke="midnightblue" d="M225.76,-385.06C228.31,-386.55 230.75,-388.19 233,-390 256.38,-408.74 244.6,-429.62 269,-447 274.41,-450.85 280.49,-453.94 286.83,-456.4"/>
<polygon fill="midnightblue" stroke="midnightblue" points="227.27,-381.9 216.76,-380.55 224.13,-388.16 227.27,-381.9"/>
</g>
<!-- Node12 -->
<g id="node13" class="node">
<title>Node12</title>
<g id="a_node13"><a xlink:href="classgame_1_1GameLostBehaviour.html" target="_top" xlink:title="The script the handle the game lost screen.">
<polygon fill="none" stroke="black" points="284,-418.5 284,-437.5 418,-437.5 418,-418.5 284,-418.5"/>
<text text-anchor="middle" x="351" y="-425.5" font-family="Helvetica,sans-Serif" font-size="10.00">game::GameLostBehaviour</text>
</a>
</g>
</g>
<!-- Node3&#45;&gt;Node12 -->
<g id="edge12" class="edge">
<title>Node3&#45;&gt;Node12</title>
<path fill="none" stroke="midnightblue" d="M218.35,-384.02C223.32,-385.92 228.31,-387.93 233,-390 249.56,-397.29 252.06,-402.66 269,-409 278.88,-412.69 289.71,-415.83 300.14,-418.42"/>
<polygon fill="midnightblue" stroke="midnightblue" points="219.49,-380.71 208.9,-380.52 217.06,-387.27 219.49,-380.71"/>
</g>
<!-- Node13 -->
<g id="node14" class="node">
<title>Node13</title>
<g id="a_node14"><a xlink:href="classgame_1_1GameWonBehaviour.html" target="_top" xlink:title="A script that handles the game won screen.">
<polygon fill="none" stroke="black" points="284,-380.5 284,-399.5 418,-399.5 418,-380.5 284,-380.5"/>
<text text-anchor="middle" x="351" y="-387.5" font-family="Helvetica,sans-Serif" font-size="10.00">game::GameWonBehaviour</text>
</a>
</g>
</g>
<!-- Node3&#45;&gt;Node13 -->
<g id="edge13" class="edge">
<title>Node3&#45;&gt;Node13</title>
<path fill="none" stroke="midnightblue" d="M243.63,-378.11C256.72,-379.57 270.52,-381.12 283.7,-382.59"/>
<polygon fill="midnightblue" stroke="midnightblue" points="243.65,-374.59 233.32,-376.96 242.87,-381.55 243.65,-374.59"/>
</g>
<!-- Node14 -->
<g id="node15" class="node">
<title>Node14</title>
<g id="a_node15"><a xlink:href="classgame_1_1HealAbilityBehaviour.html" target="_top" xlink:title="A script to heal a hero when activated.">
<polygon fill="none" stroke="black" points="283.5,-342.5 283.5,-361.5 418.5,-361.5 418.5,-342.5 283.5,-342.5"/>
<text text-anchor="middle" x="351" y="-349.5" font-family="Helvetica,sans-Serif" font-size="10.00">game::HealAbilityBehaviour</text>
</a>
</g>
</g>
<!-- Node3&#45;&gt;Node14 -->
<g id="edge14" class="edge">
<title>Node3&#45;&gt;Node14</title>
<path fill="none" stroke="midnightblue" d="M243.57,-363.9C256.57,-362.44 270.29,-360.91 283.39,-359.44"/>
<polygon fill="midnightblue" stroke="midnightblue" points="242.87,-360.45 233.32,-365.04 243.65,-367.41 242.87,-360.45"/>
</g>
<!-- Node15 -->
<g id="node16" class="node">
<title>Node15</title>
<g id="a_node16"><a xlink:href="classgame_1_1HealthBehaviour.html" target="_top" xlink:title="A script to handle health on a entity.">
<polygon fill="none" stroke="black" points="292.5,-304.5 292.5,-323.5 409.5,-323.5 409.5,-304.5 292.5,-304.5"/>
<text text-anchor="middle" x="351" y="-311.5" font-family="Helvetica,sans-Serif" font-size="10.00">game::HealthBehaviour</text>
</a>
</g>
</g>
<!-- Node3&#45;&gt;Node15 -->
<g id="edge15" class="edge">
<title>Node3&#45;&gt;Node15</title>
<path fill="none" stroke="midnightblue" d="M218.35,-357.98C223.32,-356.08 228.31,-354.07 233,-352 249.56,-344.71 252.06,-339.34 269,-333 278.88,-329.31 289.71,-326.17 300.14,-323.58"/>
<polygon fill="midnightblue" stroke="midnightblue" points="217.06,-354.73 208.9,-361.48 219.49,-361.29 217.06,-354.73"/>
</g>
<!-- Node16 -->
<g id="node17" class="node">
<title>Node16</title>
<g id="a_node17"><a xlink:href="classgame_1_1LevelController.html" target="_top" xlink:title="A controller to handle changes in the Level.">
<polygon fill="none" stroke="black" points="296,-266.5 296,-285.5 406,-285.5 406,-266.5 296,-266.5"/>
<text text-anchor="middle" x="351" y="-273.5" font-family="Helvetica,sans-Serif" font-size="10.00">game::LevelController</text>
</a>
</g>
</g>
<!-- Node3&#45;&gt;Node16 -->
<g id="edge16" class="edge">
<title>Node3&#45;&gt;Node16</title>
<path fill="none" stroke="midnightblue" d="M225.76,-356.94C228.31,-355.45 230.75,-353.81 233,-352 256.38,-333.26 244.6,-312.38 269,-295 276.88,-289.39 286.19,-285.41 295.63,-282.6"/>
<polygon fill="midnightblue" stroke="midnightblue" points="224.13,-353.84 216.76,-361.45 227.27,-360.1 224.13,-353.84"/>
</g>
<!-- Node17 -->
<g id="node18" class="node">
<title>Node17</title>
<g id="a_node18"><a xlink:href="classgame_1_1LevelSelectionController.html" target="_top" xlink:title="A script to handle level loading and selection.">
<polygon fill="none" stroke="black" points="275.5,-228.5 275.5,-247.5 426.5,-247.5 426.5,-228.5 275.5,-228.5"/>
<text text-anchor="middle" x="351" y="-235.5" font-family="Helvetica,sans-Serif" font-size="10.00">game::LevelSelectionController</text>
</a>
</g>
</g>
<!-- Node3&#45;&gt;Node17 -->
<g id="edge17" class="edge">
<title>Node3&#45;&gt;Node17</title>
<path fill="none" stroke="#8b1a1a" d="M227.77,-356.37C229.63,-355.04 231.39,-353.59 233,-352 265.21,-320.36 235.04,-286.76 269,-257 273.35,-253.19 278.31,-250.11 283.6,-247.62"/>
<polygon fill="#8b1a1a" stroke="#8b1a1a" points="225.93,-353.4 219.08,-361.48 229.48,-359.43 225.93,-353.4"/>
</g>
<!-- Node18 -->
<g id="node19" class="node">
<title>Node18</title>
<g id="a_node19"><a xlink:href="classgame_1_1PauseSceneBehaviour.html" target="_top" xlink:title="A script to pause the game when pressing the ESC key.">
<polygon fill="none" stroke="black" points="279,-190.5 279,-209.5 423,-209.5 423,-190.5 279,-190.5"/>
<text text-anchor="middle" x="351" y="-197.5" font-family="Helvetica,sans-Serif" font-size="10.00">game::PauseSceneBehaviour</text>
</a>
</g>
</g>
<!-- Node3&#45;&gt;Node18 -->
<g id="edge18" class="edge">
<title>Node3&#45;&gt;Node18</title>
<path fill="none" stroke="midnightblue" d="M229.03,-355.73C230.44,-354.57 231.77,-353.33 233,-352 274.54,-307 224.97,-261.56 269,-219 272.95,-215.19 277.51,-212.08 282.41,-209.57"/>
<polygon fill="midnightblue" stroke="midnightblue" points="226.72,-353.05 220.23,-361.42 230.53,-358.92 226.72,-353.05"/>
</g>
<!-- Node19 -->
<g id="node20" class="node">
<title>Node19</title>
<g id="a_node20"><a xlink:href="classgame_1_1SaveGameController.html" target="_top" xlink:title="A controller to handle saving the game.">
<polygon fill="none" stroke="black" points="283.5,-152.5 283.5,-171.5 418.5,-171.5 418.5,-152.5 283.5,-152.5"/>
<text text-anchor="middle" x="351" y="-159.5" font-family="Helvetica,sans-Serif" font-size="10.00">game::SaveGameController</text>
</a>
</g>
</g>
<!-- Node3&#45;&gt;Node19 -->
<g id="edge19" class="edge">
<title>Node3&#45;&gt;Node19</title>
<path fill="none" stroke="midnightblue" d="M229.2,-355.75C230.56,-354.59 231.83,-353.34 233,-352 284.04,-293.46 214.71,-236.54 269,-181 273.14,-176.76 278.03,-173.4 283.33,-170.73"/>
<polygon fill="midnightblue" stroke="midnightblue" points="227.04,-352.98 220.7,-361.47 230.95,-358.79 227.04,-352.98"/>
</g>
<!-- Node20 -->
<g id="node21" class="node">
<title>Node20</title>
<g id="a_node21"><a xlink:href="classgame_1_1UserAttackBehaviour.html" target="_top" xlink:title="A script to let the user attack.">
<polygon fill="none" stroke="black" points="282,-114.5 282,-133.5 420,-133.5 420,-114.5 282,-114.5"/>
<text text-anchor="middle" x="351" y="-121.5" font-family="Helvetica,sans-Serif" font-size="10.00">game::UserAttackBehaviour</text>
</a>
</g>
</g>
<!-- Node3&#45;&gt;Node20 -->
<g id="edge20" class="edge">
<title>Node3&#45;&gt;Node20</title>
<path fill="none" stroke="midnightblue" d="M229.34,-355.74C230.65,-354.58 231.88,-353.34 233,-352 293.62,-279.82 204.37,-211.61 269,-143 272.66,-139.11 276.96,-135.95 281.63,-133.38"/>
<polygon fill="midnightblue" stroke="midnightblue" points="227.33,-352.88 221.1,-361.45 231.31,-358.63 227.33,-352.88"/>
</g>
<!-- Node21 -->
<g id="node22" class="node">
<title>Node21</title>
<g id="a_node22"><a xlink:href="classgame_1_1UserMovementBehaviour.html" target="_top" xlink:title="A script to allow the user to move the hero thru the level.">
<polygon fill="none" stroke="black" points="273.5,-76.5 273.5,-95.5 428.5,-95.5 428.5,-76.5 273.5,-76.5"/>
<text text-anchor="middle" x="351" y="-83.5" font-family="Helvetica,sans-Serif" font-size="10.00">game::UserMovementBehaviour</text>
</a>
</g>
</g>
<!-- Node3&#45;&gt;Node21 -->
<g id="edge21" class="edge">
<title>Node3&#45;&gt;Node21</title>
<path fill="none" stroke="midnightblue" d="M229.81,-355.39C230.94,-354.34 232.01,-353.21 233,-352 303.24,-266.13 193.99,-186.73 269,-105 272.42,-101.28 276.42,-98.21 280.77,-95.7"/>
<polygon fill="midnightblue" stroke="midnightblue" points="227.54,-352.71 221.46,-361.38 231.62,-358.4 227.54,-352.71"/>
</g>
<!-- Node23 -->
<g id="node24" class="node">
<title>Node23</title>
<g id="a_node24"><a xlink:href="classspic_1_1BoxCollider.html" target="_top" xlink:title="A collider which represents a rectangular collision area. @spicapi.">
<polygon fill="none" stroke="black" points="307,-38.5 307,-57.5 395,-57.5 395,-38.5 307,-38.5"/>
<text text-anchor="middle" x="351" y="-45.5" font-family="Helvetica,sans-Serif" font-size="10.00">spic::BoxCollider</text>
</a>
</g>
</g>
<!-- Node22&#45;&gt;Node23 -->
<g id="edge23" class="edge">
<title>Node22&#45;&gt;Node23</title>
<path fill="none" stroke="midnightblue" d="M223.71,-322.05C227.21,-319.84 230.39,-317.19 233,-314 303.24,-228.13 193.99,-148.73 269,-67 278.67,-56.46 292.97,-51.24 306.88,-48.79"/>
<polygon fill="midnightblue" stroke="midnightblue" points="221.87,-319.05 214.51,-326.67 225.02,-325.31 221.87,-319.05"/>
</g>
<!-- Node24 -->
<g id="node25" class="node">
<title>Node24</title>
<g id="a_node25"><a xlink:href="classspic_1_1CircleCollider.html" target="_top" xlink:title="A collider which represents a circular collision area. @spicapi.">
<polygon fill="none" stroke="black" points="303,-0.5 303,-19.5 399,-19.5 399,-0.5 303,-0.5"/>
<text text-anchor="middle" x="351" y="-7.5" font-family="Helvetica,sans-Serif" font-size="10.00">spic::CircleCollider</text>
</a>
</g>
</g>
<!-- Node22&#45;&gt;Node24 -->
<g id="edge24" class="edge">
<title>Node22&#45;&gt;Node24</title>
<path fill="none" stroke="midnightblue" d="M223.78,-322.1C227.26,-319.88 230.42,-317.21 233,-314 312.89,-214.41 183.57,-123.88 269,-29 277.7,-19.34 290.29,-14.12 302.97,-11.42"/>
<polygon fill="midnightblue" stroke="midnightblue" points="221.94,-319.1 214.59,-326.73 225.1,-325.35 221.94,-319.1"/>
</g>
</g>
</svg>
