<?xml version="1.0" encoding="UTF-8" standalone="no"?>
<!DOCTYPE svg PUBLIC "-//W3C//DTD SVG 1.1//EN"
 "http://www.w3.org/Graphics/SVG/1.1/DTD/svg11.dtd">
<!-- Generated by graphviz version 2.44.0 ()
 -->
<!-- Title: Graphical Class Hierarchy Pages: 1 -->
<svg width="441pt" height="788pt"
 viewBox="0.00 0.00 441.00 788.00" xmlns="http://www.w3.org/2000/svg" xmlns:xlink="http://www.w3.org/1999/xlink">
<g id="graph0" class="graph" transform="scale(1 1) rotate(0) translate(4 784)">
<title>Graphical Class Hierarchy</title>
<!-- Node0 -->
<g id="node1" class="node">
<title>Node0</title>
<g id="a_node1"><a xlink:href="classspic_1_1Component.html" target="_top" xlink:title="Base class for all components. @spicapi.">
<polygon fill="none" stroke="black" points="0,-361.5 0,-380.5 89,-380.5 89,-361.5 0,-361.5"/>
<text text-anchor="middle" x="44.5" y="-368.5" font-family="Helvetica,sans-Serif" font-size="10.00">spic::Component</text>
</a>
</g>
</g>
<!-- Node1 -->
<g id="node2" class="node">
<title>Node1</title>
<g id="a_node2"><a xlink:href="classspic_1_1Animator.html" target="_top" xlink:title="A component which can play animated sequences of sprites. @spicapi.">
<polygon fill="none" stroke="black" points="140,-456.5 140,-475.5 218,-475.5 218,-456.5 140,-456.5"/>
<text text-anchor="middle" x="179" y="-463.5" font-family="Helvetica,sans-Serif" font-size="10.00">spic::Animator</text>
</a>
</g>
</g>
<!-- Node0&#45;&gt;Node1 -->
<g id="edge1" class="edge">
<title>Node0&#45;&gt;Node1</title>
<path fill="none" stroke="midnightblue" d="M60.14,-388.79C74.95,-405.78 99.27,-431.1 125,-447 130.99,-450.7 137.8,-453.82 144.5,-456.4"/>
<polygon fill="midnightblue" stroke="midnightblue" points="62.45,-386.1 53.3,-380.75 57.12,-390.64 62.45,-386.1"/>
</g>
<!-- Node2 -->
<g id="node3" class="node">
<title>Node2</title>
<g id="a_node3"><a xlink:href="classspic_1_1AudioSource.html" target="_top" xlink:title="Component which can play audio. @spicapi.">
<polygon fill="none" stroke="black" points="131.5,-418.5 131.5,-437.5 226.5,-437.5 226.5,-418.5 131.5,-418.5"/>
<text text-anchor="middle" x="179" y="-425.5" font-family="Helvetica,sans-Serif" font-size="10.00">spic::AudioSource</text>
</a>
</g>
</g>
<!-- Node0&#45;&gt;Node2 -->
<g id="edge2" class="edge">
<title>Node0&#45;&gt;Node2</title>
<path fill="none" stroke="midnightblue" d="M73.5,-385.24C88.59,-392.7 107.63,-401.76 125,-409 132.94,-412.31 141.68,-415.59 149.74,-418.47"/>
<polygon fill="midnightblue" stroke="midnightblue" points="74.72,-381.94 64.21,-380.61 71.6,-388.2 74.72,-381.94"/>
</g>
<!-- Node3 -->
<g id="node4" class="node">
<title>Node3</title>
<g id="a_node4"><a xlink:href="classspic_1_1BehaviourScript.html" target="_top" xlink:title=" ">
<polygon fill="none" stroke="black" points="125,-380.5 125,-399.5 233,-399.5 233,-380.5 125,-380.5"/>
<text text-anchor="middle" x="179" y="-387.5" font-family="Helvetica,sans-Serif" font-size="10.00">spic::BehaviourScript</text>
</a>
</g>
</g>
<!-- Node0&#45;&gt;Node3 -->
<g id="edge3" class="edge">
<title>Node0&#45;&gt;Node3</title>
<path fill="none" stroke="midnightblue" d="M99.27,-378.71C107.62,-379.91 116.25,-381.15 124.6,-382.34"/>
<polygon fill="midnightblue" stroke="midnightblue" points="99.65,-375.23 89.25,-377.27 98.65,-382.16 99.65,-375.23"/>
</g>
<!-- Node23 -->
<g id="node24" class="node">
<title>Node23</title>
<g id="a_node24"><a xlink:href="classspic_1_1Collider.html" target="_top" xlink:title="The base class for all colliders. @spicapi.">
<polygon fill="none" stroke="black" points="143.5,-342.5 143.5,-361.5 214.5,-361.5 214.5,-342.5 143.5,-342.5"/>
<text text-anchor="middle" x="179" y="-349.5" font-family="Helvetica,sans-Serif" font-size="10.00">spic::Collider</text>
</a>
</g>
</g>
<!-- Node0&#45;&gt;Node23 -->
<g id="edge23" class="edge">
<title>Node0&#45;&gt;Node23</title>
<path fill="none" stroke="midnightblue" d="M99.3,-363.28C114.07,-361.17 129.69,-358.93 143.1,-357.01"/>
<polygon fill="midnightblue" stroke="midnightblue" points="98.65,-359.84 89.25,-364.73 99.65,-366.77 98.65,-359.84"/>
</g>
<!-- Node26 -->
<g id="node27" class="node">
<title>Node26</title>
<g id="a_node27"><a xlink:href="classspic_1_1RigidBody.html" target="_top" xlink:title="A component representing a rigid body. @spicapi.">
<polygon fill="none" stroke="black" points="137.5,-304.5 137.5,-323.5 220.5,-323.5 220.5,-304.5 137.5,-304.5"/>
<text text-anchor="middle" x="179" y="-311.5" font-family="Helvetica,sans-Serif" font-size="10.00">spic::RigidBody</text>
</a>
</g>
</g>
<!-- Node0&#45;&gt;Node26 -->
<g id="edge26" class="edge">
<title>Node0&#45;&gt;Node26</title>
<path fill="none" stroke="midnightblue" d="M73.5,-356.76C88.59,-349.3 107.63,-340.24 125,-333 132.94,-329.69 141.68,-326.41 149.74,-323.53"/>
<polygon fill="midnightblue" stroke="midnightblue" points="71.6,-353.8 64.21,-361.39 74.72,-360.06 71.6,-353.8"/>
</g>
<!-- Node27 -->
<g id="node28" class="node">
<title>Node27</title>
<g id="a_node28"><a xlink:href="classspic_1_1Sprite.html" target="_top" xlink:title="A component representing a sprite (small image) @spicapi.">
<polygon fill="none" stroke="black" points="146.5,-266.5 146.5,-285.5 211.5,-285.5 211.5,-266.5 146.5,-266.5"/>
<text text-anchor="middle" x="179" y="-273.5" font-family="Helvetica,sans-Serif" font-size="10.00">spic::Sprite</text>
</a>
</g>
</g>
<!-- Node0&#45;&gt;Node27 -->
<g id="edge27" class="edge">
<title>Node0&#45;&gt;Node27</title>
<path fill="none" stroke="midnightblue" d="M60.14,-353.21C74.95,-336.22 99.27,-310.9 125,-295 131.57,-290.94 139.13,-287.58 146.45,-284.87"/>
<polygon fill="midnightblue" stroke="midnightblue" points="57.12,-351.36 53.3,-361.25 62.45,-355.9 57.12,-351.36"/>
</g>
<!-- Node4 -->
<g id="node5" class="node">
<title>Node4</title>
<g id="a_node5"><a xlink:href="classgame_1_1AttackBehaviour.html" target="_top" xlink:title="A script to attack other game objects containing a health script.">
<polygon fill="none" stroke="black" points="292.5,-760.5 292.5,-779.5 409.5,-779.5 409.5,-760.5 292.5,-760.5"/>
<text text-anchor="middle" x="351" y="-767.5" font-family="Helvetica,sans-Serif" font-size="10.00">game::AttackBehaviour</text>
</a>
</g>
</g>
<!-- Node3&#45;&gt;Node4 -->
<g id="edge4" class="edge">
<title>Node3&#45;&gt;Node4</title>
<path fill="none" stroke="midnightblue" d="M229.94,-405.62C231.03,-406.67 232.06,-407.8 233,-409 327.4,-529.2 167.92,-636.36 269,-751 275.21,-758.04 283.49,-762.73 292.38,-765.81"/>
<polygon fill="midnightblue" stroke="midnightblue" points="231.98,-402.78 221.86,-399.64 227.82,-408.4 231.98,-402.78"/>
</g>
<!-- Node5 -->
<g id="node6" class="node">
<title>Node5</title>
<g id="a_node6"><a xlink:href="classgame_1_1BulletBehaviour.html" target="_top" xlink:title="A script to that handles bullets.">
<polygon fill="none" stroke="black" points="294.5,-722.5 294.5,-741.5 407.5,-741.5 407.5,-722.5 294.5,-722.5"/>
<text text-anchor="middle" x="351" y="-729.5" font-family="Helvetica,sans-Serif" font-size="10.00">game::BulletBehaviour</text>
</a>
</g>
</g>
<!-- Node3&#45;&gt;Node5 -->
<g id="edge5" class="edge">
<title>Node3&#45;&gt;Node5</title>
<path fill="none" stroke="midnightblue" d="M229.85,-405.57C230.98,-406.64 232.03,-407.78 233,-409 317.73,-515.45 178.36,-611.54 269,-713 275.64,-720.43 284.58,-725.24 294.11,-728.29"/>
<polygon fill="midnightblue" stroke="midnightblue" points="231.7,-402.59 221.56,-399.53 227.58,-408.25 231.7,-402.59"/>
</g>
<!-- Node6 -->
<g id="node7" class="node">
<title>Node6</title>
<g id="a_node7"><a xlink:href="classgame_1_1CheatManager.html" target="_top" xlink:title="A script to handle different cheats.">
<polygon fill="none" stroke="black" points="297,-684.5 297,-703.5 405,-703.5 405,-684.5 297,-684.5"/>
<text text-anchor="middle" x="351" y="-691.5" font-family="Helvetica,sans-Serif" font-size="10.00">game::CheatManager</text>
</a>
</g>
</g>
<!-- Node3&#45;&gt;Node6 -->
<g id="edge6" class="edge">
<title>Node3&#45;&gt;Node6</title>
<path fill="none" stroke="midnightblue" d="M229.82,-405.59C230.96,-406.66 232.02,-407.79 233,-409 308.07,-501.72 188.78,-586.7 269,-675 276.28,-683.02 286.25,-687.97 296.71,-690.96"/>
<polygon fill="midnightblue" stroke="midnightblue" points="231.65,-402.6 221.49,-399.58 227.56,-408.27 231.65,-402.6"/>
</g>
<!-- Node7 -->
<g id="node8" class="node">
<title>Node7</title>
<g id="a_node8"><a xlink:href="classgame_1_1CloseSceneBehaviour.html" target="_top" xlink:title="A script to close the scene when pressing the ESC ky.">
<polygon fill="none" stroke="black" points="280.5,-646.5 280.5,-665.5 421.5,-665.5 421.5,-646.5 280.5,-646.5"/>
<text text-anchor="middle" x="351" y="-653.5" font-family="Helvetica,sans-Serif" font-size="10.00">game::CloseSceneBehaviour</text>
</a>
</g>
</g>
<!-- Node3&#45;&gt;Node7 -->
<g id="edge7" class="edge">
<title>Node3&#45;&gt;Node7</title>
<path fill="none" stroke="midnightblue" d="M229.37,-405.24C230.67,-406.4 231.89,-407.65 233,-409 298.43,-488.02 199.18,-561.83 269,-637 272.54,-640.81 276.68,-643.92 281.2,-646.46"/>
<polygon fill="midnightblue" stroke="midnightblue" points="231.36,-402.36 221.15,-399.51 227.35,-408.1 231.36,-402.36"/>
</g>
<!-- Node8 -->
<g id="node9" class="node">
<title>Node8</title>
<g id="a_node9"><a xlink:href="classgame_1_1ConfettiBehaviour.html" target="_top" xlink:title=" ">
<polygon fill="none" stroke="black" points="290,-608.5 290,-627.5 412,-627.5 412,-608.5 290,-608.5"/>
<text text-anchor="middle" x="351" y="-615.5" font-family="Helvetica,sans-Serif" font-size="10.00">game::ConfettiBehaviour</text>
</a>
</g>
</g>
<!-- Node3&#45;&gt;Node8 -->
<g id="edge8" class="edge">
<title>Node3&#45;&gt;Node8</title>
<path fill="none" stroke="midnightblue" d="M229.32,-405.29C230.63,-406.44 231.87,-407.67 233,-409 288.82,-474.35 209.55,-536.93 269,-599 274.79,-605.05 282.12,-609.33 289.99,-612.34"/>
<polygon fill="midnightblue" stroke="midnightblue" points="231.26,-402.38 221.04,-399.6 227.3,-408.15 231.26,-402.38"/>
</g>
<!-- Node9 -->
<g id="node10" class="node">
<title>Node9</title>
<g id="a_node10"><a xlink:href="classgame_1_1CoolDownBehaviour.html" target="_top" xlink:title="A script to handle a cool down for other scripts.">
<polygon fill="none" stroke="black" points="284.5,-570.5 284.5,-589.5 417.5,-589.5 417.5,-570.5 284.5,-570.5"/>
<text text-anchor="middle" x="351" y="-577.5" font-family="Helvetica,sans-Serif" font-size="10.00">game::CoolDownBehaviour</text>
</a>
</g>
</g>
<!-- Node3&#45;&gt;Node9 -->
<g id="edge9" class="edge">
<title>Node3&#45;&gt;Node9</title>
<path fill="none" stroke="midnightblue" d="M229.16,-405.29C230.53,-406.44 231.81,-407.67 233,-409 279.27,-460.75 219.86,-511.96 269,-561 273.4,-565.39 278.6,-568.84 284.22,-571.54"/>
<polygon fill="midnightblue" stroke="midnightblue" points="230.88,-402.23 220.61,-399.61 227,-408.06 230.88,-402.23"/>
</g>
<!-- Node10 -->
<g id="node11" class="node">
<title>Node10</title>
<g id="a_node11"><a xlink:href="classgame_1_1DamageBehaviour.html" target="_top" xlink:title="A script that handles damage on health scripts.">
<polygon fill="none" stroke="black" points="288.5,-532.5 288.5,-551.5 413.5,-551.5 413.5,-532.5 288.5,-532.5"/>
<text text-anchor="middle" x="351" y="-539.5" font-family="Helvetica,sans-Serif" font-size="10.00">game::DamageBehaviour</text>
</a>
</g>
</g>
<!-- Node3&#45;&gt;Node10 -->
<g id="edge10" class="edge">
<title>Node3&#45;&gt;Node10</title>
<path fill="none" stroke="midnightblue" d="M228.48,-404.97C230.09,-406.21 231.6,-407.55 233,-409 269.84,-447.28 230.04,-486.87 269,-523 274.51,-528.11 281.12,-531.92 288.16,-534.76"/>
<polygon fill="midnightblue" stroke="midnightblue" points="230.16,-401.89 219.82,-399.58 226.46,-407.83 230.16,-401.89"/>
</g>
<!-- Node11 -->
<g id="node12" class="node">
<title>Node11</title>
<g id="a_node12"><a xlink:href="classgame_1_1EnemyMovementBehaviour.html" target="_top" xlink:title="A script to handle movement for the enemy.">
<polygon fill="none" stroke="black" points="269,-494.5 269,-513.5 433,-513.5 433,-494.5 269,-494.5"/>
<text text-anchor="middle" x="351" y="-501.5" font-family="Helvetica,sans-Serif" font-size="10.00">game::EnemyMovementBehaviour</text>
</a>
</g>
</g>
<!-- Node3&#45;&gt;Node11 -->
<g id="edge11" class="edge">
<title>Node3&#45;&gt;Node11</title>
<path fill="none" stroke="midnightblue" d="M227.41,-404.65C229.39,-405.98 231.26,-407.43 233,-409 260.69,-434.1 239.92,-461.52 269,-485 273.72,-488.81 279.07,-491.88 284.72,-494.36"/>
<polygon fill="midnightblue" stroke="midnightblue" points="228.7,-401.36 218.26,-399.56 225.3,-407.48 228.7,-401.36"/>
</g>
<!-- Node12 -->
<g id="node13" class="node">
<title>Node12</title>
<g id="a_node13"><a xlink:href="classgame_1_1GameLostBehaviour.html" target="_top" xlink:title="The script the handle the game lost screen.">
<polygon fill="none" stroke="black" points="284,-456.5 284,-475.5 418,-475.5 418,-456.5 284,-456.5"/>
<text text-anchor="middle" x="351" y="-463.5" font-family="Helvetica,sans-Serif" font-size="10.00">game::GameLostBehaviour</text>
</a>
</g>
</g>
<!-- Node3&#45;&gt;Node12 -->
<g id="edge12" class="edge">
<title>Node3&#45;&gt;Node12</title>
<path fill="none" stroke="midnightblue" d="M223.6,-403.7C226.87,-405.31 230.05,-407.07 233,-409 252.48,-421.72 248.83,-435.41 269,-447 275.76,-450.89 283.28,-453.98 290.92,-456.44"/>
<polygon fill="midnightblue" stroke="midnightblue" points="224.77,-400.4 214.21,-399.59 221.96,-406.81 224.77,-400.4"/>
</g>
<!-- Node13 -->
<g id="node14" class="node">
<title>Node13</title>
<g id="a_node14"><a xlink:href="classgame_1_1GameWonBehaviour.html" target="_top" xlink:title="A script that handles the game won screen.">
<polygon fill="none" stroke="black" points="284,-418.5 284,-437.5 418,-437.5 418,-418.5 284,-418.5"/>
<text text-anchor="middle" x="351" y="-425.5" font-family="Helvetica,sans-Serif" font-size="10.00">game::GameWonBehaviour</text>
</a>
</g>
</g>
<!-- Node3&#45;&gt;Node13 -->
<g id="edge13" class="edge">
<title>Node3&#45;&gt;Node13</title>
<path fill="none" stroke="midnightblue" d="M232.9,-401.82C256.87,-407.18 284.82,-413.43 307.41,-418.48"/>
<polygon fill="midnightblue" stroke="midnightblue" points="233.42,-398.35 222.9,-399.59 231.89,-405.19 233.42,-398.35"/>
</g>
<!-- Node14 -->
<g id="node15" class="node">
<title>Node14</title>
<g id="a_node15"><a xlink:href="classgame_1_1HealAbilityBehaviour.html" target="_top" xlink:title="A script to heal a hero when activated.">
<polygon fill="none" stroke="black" points="283.5,-380.5 283.5,-399.5 418.5,-399.5 418.5,-380.5 283.5,-380.5"/>
<text text-anchor="middle" x="351" y="-387.5" font-family="Helvetica,sans-Serif" font-size="10.00">game::HealAbilityBehaviour</text>
</a>
</g>
</g>
<!-- Node3&#45;&gt;Node14 -->
<g id="edge14" class="edge">
<title>Node3&#45;&gt;Node14</title>
<path fill="none" stroke="midnightblue" d="M243.57,-390C256.57,-390 270.29,-390 283.39,-390"/>
<polygon fill="midnightblue" stroke="midnightblue" points="243.32,-386.5 233.32,-390 243.32,-393.5 243.32,-386.5"/>
</g>
<!-- Node15 -->
<g id="node16" class="node">
<title>Node15</title>
<g id="a_node16"><a xlink:href="classgame_1_1HealthBarBehaviour.html" target="_top" xlink:title=" ">
<polygon fill="none" stroke="black" points="285,-342.5 285,-361.5 417,-361.5 417,-342.5 285,-342.5"/>
<text text-anchor="middle" x="351" y="-349.5" font-family="Helvetica,sans-Serif" font-size="10.00">game::HealthBarBehaviour</text>
</a>
</g>
</g>
<!-- Node3&#45;&gt;Node15 -->
<g id="edge15" class="edge">
<title>Node3&#45;&gt;Node15</title>
<path fill="none" stroke="midnightblue" d="M232.9,-378.18C256.87,-372.82 284.82,-366.57 307.41,-361.52"/>
<polygon fill="midnightblue" stroke="midnightblue" points="231.89,-374.81 222.9,-380.41 233.42,-381.65 231.89,-374.81"/>
</g>
<!-- Node16 -->
<g id="node17" class="node">
<title>Node16</title>
<g id="a_node17"><a xlink:href="classgame_1_1HealthBehaviour.html" target="_top" xlink:title="A script to handle health on a entity.">
<polygon fill="none" stroke="black" points="292.5,-304.5 292.5,-323.5 409.5,-323.5 409.5,-304.5 292.5,-304.5"/>
<text text-anchor="middle" x="351" y="-311.5" font-family="Helvetica,sans-Serif" font-size="10.00">game::HealthBehaviour</text>
</a>
</g>
</g>
<!-- Node3&#45;&gt;Node16 -->
<g id="edge16" class="edge">
<title>Node3&#45;&gt;Node16</title>
<path fill="none" stroke="midnightblue" d="M223.6,-376.3C226.87,-374.69 230.05,-372.93 233,-371 252.48,-358.28 248.83,-344.59 269,-333 276.14,-328.9 284.11,-325.68 292.2,-323.16"/>
<polygon fill="midnightblue" stroke="midnightblue" points="221.96,-373.19 214.21,-380.41 224.77,-379.6 221.96,-373.19"/>
</g>
<!-- Node17 -->
<g id="node18" class="node">
<title>Node17</title>
<g id="a_node18"><a xlink:href="classgame_1_1LevelController.html" target="_top" xlink:title="A controller to handle changes in the Level.">
<polygon fill="none" stroke="black" points="296,-266.5 296,-285.5 406,-285.5 406,-266.5 296,-266.5"/>
<text text-anchor="middle" x="351" y="-273.5" font-family="Helvetica,sans-Serif" font-size="10.00">game::LevelController</text>
</a>
</g>
</g>
<!-- Node3&#45;&gt;Node17 -->
<g id="edge17" class="edge">
<title>Node3&#45;&gt;Node17</title>
<path fill="none" stroke="midnightblue" d="M227.41,-375.35C229.39,-374.02 231.26,-372.57 233,-371 260.69,-345.9 239.92,-318.48 269,-295 276.75,-288.74 286.21,-284.47 295.89,-281.58"/>
<polygon fill="midnightblue" stroke="midnightblue" points="225.3,-372.52 218.26,-380.44 228.7,-378.64 225.3,-372.52"/>
</g>
<!-- Node18 -->
<g id="node19" class="node">
<title>Node18</title>
<g id="a_node19"><a xlink:href="classgame_1_1LevelSelectionController.html" target="_top" xlink:title="A script to handle level loading and selection.">
<polygon fill="none" stroke="black" points="275.5,-228.5 275.5,-247.5 426.5,-247.5 426.5,-228.5 275.5,-228.5"/>
<text text-anchor="middle" x="351" y="-235.5" font-family="Helvetica,sans-Serif" font-size="10.00">game::LevelSelectionController</text>
</a>
</g>
</g>
<!-- Node3&#45;&gt;Node18 -->
<g id="edge18" class="edge">
<title>Node3&#45;&gt;Node18</title>
<path fill="none" stroke="#8b1a1a" d="M228.48,-375.03C230.09,-373.79 231.6,-372.45 233,-371 269.84,-332.72 230.04,-293.13 269,-257 273.13,-253.17 277.88,-250.07 282.97,-247.56"/>
<polygon fill="#8b1a1a" stroke="#8b1a1a" points="226.46,-372.17 219.82,-380.42 230.16,-378.11 226.46,-372.17"/>
</g>
<!-- Node19 -->
<g id="node20" class="node">
<title>Node19</title>
<g id="a_node20"><a xlink:href="classgame_1_1PauseSceneBehaviour.html" target="_top" xlink:title="A script to pause the game when pressing the ESC key.">
<polygon fill="none" stroke="black" points="279,-190.5 279,-209.5 423,-209.5 423,-190.5 279,-190.5"/>
<text text-anchor="middle" x="351" y="-197.5" font-family="Helvetica,sans-Serif" font-size="10.00">game::PauseSceneBehaviour</text>
</a>
</g>
</g>
<!-- Node3&#45;&gt;Node19 -->
<g id="edge19" class="edge">
<title>Node3&#45;&gt;Node19</title>
<path fill="none" stroke="midnightblue" d="M229.16,-374.71C230.53,-373.56 231.81,-372.33 233,-371 279.27,-319.25 219.86,-268.04 269,-219 272.78,-215.23 277.16,-212.14 281.89,-209.64"/>
<polygon fill="midnightblue" stroke="midnightblue" points="227,-371.94 220.61,-380.39 230.88,-377.77 227,-371.94"/>
</g>
<!-- Node20 -->
<g id="node21" class="node">
<title>Node20</title>
<g id="a_node21"><a xlink:href="classgame_1_1SaveGameController.html" target="_top" xlink:title="A controller to handle saving the game.">
<polygon fill="none" stroke="black" points="283.5,-152.5 283.5,-171.5 418.5,-171.5 418.5,-152.5 283.5,-152.5"/>
<text text-anchor="middle" x="351" y="-159.5" font-family="Helvetica,sans-Serif" font-size="10.00">game::SaveGameController</text>
</a>
</g>
</g>
<!-- Node3&#45;&gt;Node20 -->
<g id="edge20" class="edge">
<title>Node3&#45;&gt;Node20</title>
<path fill="none" stroke="midnightblue" d="M229.32,-374.71C230.63,-373.56 231.87,-372.33 233,-371 288.82,-305.65 209.55,-243.07 269,-181 273.1,-176.72 277.96,-173.33 283.24,-170.64"/>
<polygon fill="midnightblue" stroke="midnightblue" points="227.3,-371.85 221.04,-380.4 231.26,-377.62 227.3,-371.85"/>
</g>
<!-- Node21 -->
<g id="node22" class="node">
<title>Node21</title>
<g id="a_node22"><a xlink:href="classgame_1_1UserAttackBehaviour.html" target="_top" xlink:title="A script to let the user attack.">
<polygon fill="none" stroke="black" points="282,-114.5 282,-133.5 420,-133.5 420,-114.5 282,-114.5"/>
<text text-anchor="middle" x="351" y="-121.5" font-family="Helvetica,sans-Serif" font-size="10.00">game::UserAttackBehaviour</text>
</a>
</g>
</g>
<!-- Node3&#45;&gt;Node21 -->
<g id="edge21" class="edge">
<title>Node3&#45;&gt;Node21</title>
<path fill="none" stroke="midnightblue" d="M229.37,-374.76C230.67,-373.6 231.89,-372.35 233,-371 298.43,-291.98 199.18,-218.17 269,-143 272.74,-138.98 277.15,-135.73 281.95,-133.12"/>
<polygon fill="midnightblue" stroke="midnightblue" points="227.35,-371.9 221.15,-380.49 231.36,-377.64 227.35,-371.9"/>
</g>
<!-- Node22 -->
<g id="node23" class="node">
<title>Node22</title>
<g id="a_node23"><a xlink:href="classgame_1_1UserMovementBehaviour.html" target="_top" xlink:title="A script to allow the user to move the hero thru the level.">
<polygon fill="none" stroke="black" points="273.5,-76.5 273.5,-95.5 428.5,-95.5 428.5,-76.5 273.5,-76.5"/>
<text text-anchor="middle" x="351" y="-83.5" font-family="Helvetica,sans-Serif" font-size="10.00">game::UserMovementBehaviour</text>
</a>
</g>
</g>
<!-- Node3&#45;&gt;Node22 -->
<g id="edge22" class="edge">
<title>Node3&#45;&gt;Node22</title>
<path fill="none" stroke="midnightblue" d="M229.82,-374.41C230.96,-373.34 232.02,-372.21 233,-371 308.07,-278.28 188.78,-193.3 269,-105 272.4,-101.26 276.38,-98.18 280.73,-95.67"/>
<polygon fill="midnightblue" stroke="midnightblue" points="227.56,-371.73 221.49,-380.42 231.65,-377.4 227.56,-371.73"/>
</g>
<!-- Node24 -->
<g id="node25" class="node">
<title>Node24</title>
<g id="a_node25"><a xlink:href="classspic_1_1BoxCollider.html" target="_top" xlink:title="A collider which represents a rectangular collision area. @spicapi.">
<polygon fill="none" stroke="black" points="307,-38.5 307,-57.5 395,-57.5 395,-38.5 307,-38.5"/>
<text text-anchor="middle" x="351" y="-45.5" font-family="Helvetica,sans-Serif" font-size="10.00">spic::BoxCollider</text>
</a>
</g>
</g>
<!-- Node23&#45;&gt;Node24 -->
<g id="edge24" class="edge">
<title>Node23&#45;&gt;Node24</title>
<path fill="none" stroke="midnightblue" d="M223.75,-341.07C227.24,-338.86 230.41,-336.2 233,-333 308.07,-240.28 188.78,-155.3 269,-67 278.62,-56.42 292.91,-51.18 306.82,-48.73"/>
<polygon fill="midnightblue" stroke="midnightblue" points="221.91,-338.08 214.55,-345.7 225.06,-344.33 221.91,-338.08"/>
</g>
<!-- Node25 -->
<g id="node26" class="node">
<title>Node25</title>
<g id="a_node26"><a xlink:href="classspic_1_1CircleCollider.html" target="_top" xlink:title="A collider which represents a circular collision area. @spicapi.">
<polygon fill="none" stroke="black" points="303,-0.5 303,-19.5 399,-19.5 399,-0.5 303,-0.5"/>
<text text-anchor="middle" x="351" y="-7.5" font-family="Helvetica,sans-Serif" font-size="10.00">spic::CircleCollider</text>
</a>
</g>
</g>
<!-- Node23&#45;&gt;Node25 -->
<g id="edge25" class="edge">
<title>Node23&#45;&gt;Node25</title>
<path fill="none" stroke="midnightblue" d="M223.8,-341.12C227.28,-338.9 230.44,-336.22 233,-333 317.73,-226.55 178.36,-130.46 269,-29 277.66,-19.31 290.24,-14.08 302.92,-11.38"/>
<polygon fill="midnightblue" stroke="midnightblue" points="221.97,-338.12 214.63,-345.76 225.13,-344.37 221.97,-338.12"/>
</g>
</g>
</svg>
