<?xml version="1.0" encoding="UTF-8" standalone="no"?>
<!DOCTYPE svg PUBLIC "-//W3C//DTD SVG 1.1//EN"
 "http://www.w3.org/Graphics/SVG/1.1/DTD/svg11.dtd">
<!-- Generated by graphviz version 2.44.0 ()
 -->
<!-- Title: Graphical Class Hierarchy Pages: 1 -->
<svg width="312pt" height="294pt"
 viewBox="0.00 0.00 312.00 294.00" xmlns="http://www.w3.org/2000/svg" xmlns:xlink="http://www.w3.org/1999/xlink">
<g id="graph0" class="graph" transform="scale(1 1) rotate(0) translate(4 290)">
<title>Graphical Class Hierarchy</title>
<!-- Node0 -->
<g id="node1" class="node">
<title>Node0</title>
<g id="a_node1"><a xlink:href="classengine_1_1ISubsystem.html" target="_top" xlink:title="Interface for subsystems.">
<polygon fill="none" stroke="black" points="0,-133.5 0,-152.5 101,-152.5 101,-133.5 0,-133.5"/>
<text text-anchor="middle" x="50.5" y="-140.5" font-family="Helvetica,sans-Serif" font-size="10.00">engine::ISubsystem</text>
</a>
</g>
</g>
<!-- Node1 -->
<g id="node2" class="node">
<title>Node1</title>
<g id="a_node2"><a xlink:href="classengine_1_1AnimatorSubsystem.html" target="_top" xlink:title="Subsystem to handle Animator components.">
<polygon fill="none" stroke="black" points="152,-266.5 152,-285.5 289,-285.5 289,-266.5 152,-266.5"/>
<text text-anchor="middle" x="220.5" y="-273.5" font-family="Helvetica,sans-Serif" font-size="10.00">engine::AnimatorSubsystem</text>
</a>
</g>
</g>
<!-- Node0&#45;&gt;Node1 -->
<g id="edge1" class="edge">
<title>Node0&#45;&gt;Node1</title>
<path fill="none" stroke="midnightblue" d="M60.32,-161.85C73.34,-187.54 100.2,-233.06 137,-257 142.91,-260.85 149.51,-263.92 156.32,-266.37"/>
<polygon fill="midnightblue" stroke="midnightblue" points="63.41,-160.21 55.87,-152.77 57.12,-163.29 63.41,-160.21"/>
</g>
<!-- Node2 -->
<g id="node3" class="node">
<title>Node2</title>
<g id="a_node3"><a xlink:href="classengine_1_1AudioSubsystem.html" target="_top" xlink:title="Subsystem to handle AudioSource components.">
<polygon fill="none" stroke="black" points="159,-228.5 159,-247.5 282,-247.5 282,-228.5 159,-228.5"/>
<text text-anchor="middle" x="220.5" y="-235.5" font-family="Helvetica,sans-Serif" font-size="10.00">engine::AudioSubsystem</text>
</a>
</g>
</g>
<!-- Node0&#45;&gt;Node2 -->
<g id="edge2" class="edge">
<title>Node0&#45;&gt;Node2</title>
<path fill="none" stroke="midnightblue" d="M66.18,-160.39C81.91,-177.87 108.49,-204.28 137,-219 144.44,-222.84 152.66,-225.92 160.94,-228.37"/>
<polygon fill="midnightblue" stroke="midnightblue" points="68.59,-157.83 59.37,-152.61 63.33,-162.44 68.59,-157.83"/>
</g>
<!-- Node3 -->
<g id="node4" class="node">
<title>Node3</title>
<g id="a_node4"><a xlink:href="classengine_1_1BehaviourScriptSubsystem.html" target="_top" xlink:title="Subsystem to handle BehaviourScript components.">
<polygon fill="none" stroke="black" points="137,-190.5 137,-209.5 304,-209.5 304,-190.5 137,-190.5"/>
<text text-anchor="middle" x="220.5" y="-197.5" font-family="Helvetica,sans-Serif" font-size="10.00">engine::BehaviourScriptSubsystem</text>
</a>
</g>
</g>
<!-- Node0&#45;&gt;Node3 -->
<g id="edge3" class="edge">
<title>Node0&#45;&gt;Node3</title>
<path fill="none" stroke="midnightblue" d="M79.18,-156.93C95.66,-164.81 117.17,-174.38 137,-181 147.87,-184.63 159.78,-187.81 171.08,-190.48"/>
<polygon fill="midnightblue" stroke="midnightblue" points="80.63,-153.74 70.1,-152.52 77.57,-160.04 80.63,-153.74"/>
</g>
<!-- Node4 -->
<g id="node5" class="node">
<title>Node4</title>
<g id="a_node5"><a xlink:href="classengine_1_1FpsCounterSubsystem.html" target="_top" xlink:title="Subsystem to handle show the FPS counter in the top right corner.">
<polygon fill="none" stroke="black" points="146,-152.5 146,-171.5 295,-171.5 295,-152.5 146,-152.5"/>
<text text-anchor="middle" x="220.5" y="-159.5" font-family="Helvetica,sans-Serif" font-size="10.00">engine::FpsCounterSubsystem</text>
</a>
</g>
</g>
<!-- Node0&#45;&gt;Node4 -->
<g id="edge4" class="edge">
<title>Node0&#45;&gt;Node4</title>
<path fill="none" stroke="midnightblue" d="M111.47,-149.78C122.59,-151.04 134.32,-152.37 145.8,-153.66"/>
<polygon fill="midnightblue" stroke="midnightblue" points="111.78,-146.3 101.45,-148.65 110.99,-153.25 111.78,-146.3"/>
</g>
<!-- Node5 -->
<g id="node6" class="node">
<title>Node5</title>
<g id="a_node6"><a xlink:href="classengine_1_1GameSpeedSubsystem.html" target="_top" xlink:title="Subsystem to handle game speed changes.">
<polygon fill="none" stroke="black" points="144.5,-114.5 144.5,-133.5 296.5,-133.5 296.5,-114.5 144.5,-114.5"/>
<text text-anchor="middle" x="220.5" y="-121.5" font-family="Helvetica,sans-Serif" font-size="10.00">engine::GameSpeedSubsystem</text>
</a>
</g>
</g>
<!-- Node0&#45;&gt;Node5 -->
<g id="edge5" class="edge">
<title>Node0&#45;&gt;Node5</title>
<path fill="none" stroke="midnightblue" d="M111.44,-136.22C122.07,-135.02 133.25,-133.75 144.23,-132.51"/>
<polygon fill="midnightblue" stroke="midnightblue" points="110.99,-132.75 101.45,-137.35 111.78,-139.7 110.99,-132.75"/>
</g>
<!-- Node6 -->
<g id="node7" class="node">
<title>Node6</title>
<g id="a_node7"><a xlink:href="classengine_1_1InputSubsystem.html" target="_top" xlink:title="Subsystem to handle Input from the mouse and keyboard.">
<polygon fill="none" stroke="black" points="160.5,-76.5 160.5,-95.5 280.5,-95.5 280.5,-76.5 160.5,-76.5"/>
<text text-anchor="middle" x="220.5" y="-83.5" font-family="Helvetica,sans-Serif" font-size="10.00">engine::InputSubsystem</text>
</a>
</g>
</g>
<!-- Node0&#45;&gt;Node6 -->
<g id="edge6" class="edge">
<title>Node0&#45;&gt;Node6</title>
<path fill="none" stroke="midnightblue" d="M79.18,-129.07C95.66,-121.19 117.17,-111.62 137,-105 147.87,-101.37 159.78,-98.19 171.08,-95.52"/>
<polygon fill="midnightblue" stroke="midnightblue" points="77.57,-125.96 70.1,-133.48 80.63,-132.26 77.57,-125.96"/>
</g>
<!-- Node7 -->
<g id="node8" class="node">
<title>Node7</title>
<g id="a_node8"><a xlink:href="classengine_1_1PhysicsSubsystem.html" target="_top" xlink:title="Subsystem to handle RigidBody and Collider components.">
<polygon fill="none" stroke="black" points="154,-38.5 154,-57.5 287,-57.5 287,-38.5 154,-38.5"/>
<text text-anchor="middle" x="220.5" y="-45.5" font-family="Helvetica,sans-Serif" font-size="10.00">engine::PhysicsSubsystem</text>
</a>
</g>
</g>
<!-- Node0&#45;&gt;Node7 -->
<g id="edge7" class="edge">
<title>Node0&#45;&gt;Node7</title>
<path fill="none" stroke="midnightblue" d="M66.18,-125.61C81.91,-108.13 108.49,-81.72 137,-67 144.44,-63.16 152.66,-60.08 160.94,-57.63"/>
<polygon fill="midnightblue" stroke="midnightblue" points="63.33,-123.56 59.37,-133.39 68.59,-128.17 63.33,-123.56"/>
</g>
<!-- Node8 -->
<g id="node9" class="node">
<title>Node8</title>
<g id="a_node9"><a xlink:href="classengine_1_1RenderSubsystem.html" target="_top" xlink:title="Subsystem to handle Sprite components and Text objects.">
<polygon fill="none" stroke="black" points="156,-0.5 156,-19.5 285,-19.5 285,-0.5 156,-0.5"/>
<text text-anchor="middle" x="220.5" y="-7.5" font-family="Helvetica,sans-Serif" font-size="10.00">engine::RenderSubsystem</text>
</a>
</g>
</g>
<!-- Node0&#45;&gt;Node8 -->
<g id="edge8" class="edge">
<title>Node0&#45;&gt;Node8</title>
<path fill="none" stroke="midnightblue" d="M60.32,-124.15C73.34,-98.46 100.2,-52.94 137,-29 142.91,-25.15 149.51,-22.08 156.32,-19.63"/>
<polygon fill="midnightblue" stroke="midnightblue" points="57.12,-122.71 55.87,-133.23 63.41,-125.79 57.12,-122.71"/>
</g>
</g>
</svg>
