<?xml version="1.0" encoding="UTF-8" standalone="no"?>
<!DOCTYPE svg PUBLIC "-//W3C//DTD SVG 1.1//EN"
 "http://www.w3.org/Graphics/SVG/1.1/DTD/svg11.dtd">
<!-- Generated by graphviz version 2.44.0 ()
 -->
<!-- Title: Graphical Class Hierarchy Pages: 1 -->
<svg width="381pt" height="332pt"
 viewBox="0.00 0.00 381.00 332.00" xmlns="http://www.w3.org/2000/svg" xmlns:xlink="http://www.w3.org/1999/xlink">
<g id="graph0" class="graph" transform="scale(1 1) rotate(0) translate(4 328)">
<title>Graphical Class Hierarchy</title>
<!-- Node0 -->
<g id="node1" class="node">
<title>Node0</title>
<g id="a_node1"><a xlink:href="classspic_1_1Scene.html" target="_top" xlink:title="Class representing a scene which can be rendered by the Camera. @spicapi.">
<polygon fill="none" stroke="black" points="0,-171.5 0,-190.5 67,-190.5 67,-171.5 0,-171.5"/>
<text text-anchor="middle" x="33.5" y="-178.5" font-family="Helvetica,sans-Serif" font-size="10.00">spic::Scene</text>
</a>
</g>
</g>
<!-- Node1 -->
<g id="node2" class="node">
<title>Node1</title>
<g id="a_node2"><a xlink:href="classgame_1_1LevelScene.html" target="_top" xlink:title="A scene that contains a level to play.">
<polygon fill="none" stroke="black" points="103,-190.5 103,-209.5 200,-209.5 200,-190.5 103,-190.5"/>
<text text-anchor="middle" x="151.5" y="-197.5" font-family="Helvetica,sans-Serif" font-size="10.00">game::LevelScene</text>
</a>
</g>
</g>
<!-- Node0&#45;&gt;Node1 -->
<g id="edge1" class="edge">
<title>Node0&#45;&gt;Node1</title>
<path fill="none" stroke="midnightblue" d="M77.1,-187.98C85.52,-189.36 94.4,-190.81 102.97,-192.22"/>
<polygon fill="midnightblue" stroke="midnightblue" points="77.56,-184.51 67.12,-186.34 76.42,-191.41 77.56,-184.51"/>
</g>
<!-- Node2 -->
<g id="node3" class="node">
<title>Node2</title>
<g id="a_node3"><a xlink:href="classgame_1_1MenuScene.html" target="_top" xlink:title="A abstract scene to use for the scene that require menu functionality.">
<polygon fill="none" stroke="black" points="103,-152.5 103,-171.5 200,-171.5 200,-152.5 103,-152.5"/>
<text text-anchor="middle" x="151.5" y="-159.5" font-family="Helvetica,sans-Serif" font-size="10.00">game::MenuScene</text>
</a>
</g>
</g>
<!-- Node0&#45;&gt;Node2 -->
<g id="edge2" class="edge">
<title>Node0&#45;&gt;Node2</title>
<path fill="none" stroke="midnightblue" d="M77.1,-174.02C85.52,-172.64 94.4,-171.19 102.97,-169.78"/>
<polygon fill="midnightblue" stroke="midnightblue" points="76.42,-170.59 67.12,-175.66 77.56,-177.49 76.42,-170.59"/>
</g>
<!-- Node3 -->
<g id="node4" class="node">
<title>Node3</title>
<g id="a_node4"><a xlink:href="classgame_1_1CreditScene.html" target="_top" xlink:title="A scene that contains credits to the developers.">
<polygon fill="none" stroke="black" points="255.5,-304.5 255.5,-323.5 353.5,-323.5 353.5,-304.5 255.5,-304.5"/>
<text text-anchor="middle" x="304.5" y="-311.5" font-family="Helvetica,sans-Serif" font-size="10.00">game::CreditScene</text>
</a>
</g>
</g>
<!-- Node2&#45;&gt;Node3 -->
<g id="edge3" class="edge">
<title>Node2&#45;&gt;Node3</title>
<path fill="none" stroke="midnightblue" d="M196.11,-177.36C197.49,-178.49 198.8,-179.7 200,-181 236.14,-219.95 197.84,-258.03 236,-295 241.42,-300.25 248.17,-304.08 255.3,-306.85"/>
<polygon fill="midnightblue" stroke="midnightblue" points="197.79,-174.28 187.5,-171.74 193.96,-180.14 197.79,-174.28"/>
</g>
<!-- Node4 -->
<g id="node5" class="node">
<title>Node4</title>
<g id="a_node5"><a xlink:href="classgame_1_1GameOverScene.html" target="_top" xlink:title="A scene that contains a game over screen.">
<polygon fill="none" stroke="black" points="244.5,-266.5 244.5,-285.5 364.5,-285.5 364.5,-266.5 244.5,-266.5"/>
<text text-anchor="middle" x="304.5" y="-273.5" font-family="Helvetica,sans-Serif" font-size="10.00">game::GameOverScene</text>
</a>
</g>
</g>
<!-- Node2&#45;&gt;Node4 -->
<g id="edge4" class="edge">
<title>Node2&#45;&gt;Node4</title>
<path fill="none" stroke="midnightblue" d="M194.74,-176.75C196.6,-178.05 198.37,-179.47 200,-181 227.23,-206.6 207.45,-232.88 236,-257 240.56,-260.85 245.84,-263.92 251.41,-266.37"/>
<polygon fill="midnightblue" stroke="midnightblue" points="196.48,-173.71 186.08,-171.7 192.95,-179.76 196.48,-173.71"/>
</g>
<!-- Node5 -->
<g id="node6" class="node">
<title>Node5</title>
<g id="a_node6"><a xlink:href="classgame_1_1HelpScene.html" target="_top" xlink:title="A scene that contains help for the user.">
<polygon fill="none" stroke="black" points="258,-228.5 258,-247.5 351,-247.5 351,-228.5 258,-228.5"/>
<text text-anchor="middle" x="304.5" y="-235.5" font-family="Helvetica,sans-Serif" font-size="10.00">game::HelpScene</text>
</a>
</g>
</g>
<!-- Node2&#45;&gt;Node5 -->
<g id="edge5" class="edge">
<title>Node2&#45;&gt;Node5</title>
<path fill="none" stroke="midnightblue" d="M191.34,-175.87C194.36,-177.44 197.28,-179.15 200,-181 219.25,-194.07 216.09,-206.97 236,-219 242.67,-223.03 250.22,-226.23 257.8,-228.77"/>
<polygon fill="midnightblue" stroke="midnightblue" points="192.68,-172.63 182.14,-171.56 189.71,-178.97 192.68,-172.63"/>
</g>
<!-- Node6 -->
<g id="node7" class="node">
<title>Node6</title>
<g id="a_node7"><a xlink:href="classgame_1_1LevelSelectionScene.html" target="_top" xlink:title="A scene that contains all the levels.">
<polygon fill="none" stroke="black" points="236,-190.5 236,-209.5 373,-209.5 373,-190.5 236,-190.5"/>
<text text-anchor="middle" x="304.5" y="-197.5" font-family="Helvetica,sans-Serif" font-size="10.00">game::LevelSelectionScene</text>
</a>
</g>
</g>
<!-- Node2&#45;&gt;Node6 -->
<g id="edge6" class="edge">
<title>Node2&#45;&gt;Node6</title>
<path fill="none" stroke="midnightblue" d="M200.34,-174.04C221.44,-179.35 245.88,-185.5 265.67,-190.48"/>
<polygon fill="midnightblue" stroke="midnightblue" points="201.16,-170.64 190.6,-171.59 199.45,-177.42 201.16,-170.64"/>
</g>
<!-- Node7 -->
<g id="node8" class="node">
<title>Node7</title>
<g id="a_node8"><a xlink:href="classgame_1_1LoadingScene.html" target="_top" xlink:title="Scene for the loading screen of the game.">
<polygon fill="none" stroke="black" points="251,-152.5 251,-171.5 358,-171.5 358,-152.5 251,-152.5"/>
<text text-anchor="middle" x="304.5" y="-159.5" font-family="Helvetica,sans-Serif" font-size="10.00">game::LoadingScene</text>
</a>
</g>
</g>
<!-- Node2&#45;&gt;Node7 -->
<g id="edge7" class="edge">
<title>Node2&#45;&gt;Node7</title>
<path fill="none" stroke="midnightblue" d="M210.28,-162C223.6,-162 237.7,-162 250.79,-162"/>
<polygon fill="midnightblue" stroke="midnightblue" points="210.28,-158.5 200.28,-162 210.28,-165.5 210.28,-158.5"/>
</g>
<!-- Node8 -->
<g id="node9" class="node">
<title>Node8</title>
<g id="a_node9"><a xlink:href="classgame_1_1MainScene.html" target="_top" xlink:title="A scene that show the title of the game and some information.">
<polygon fill="none" stroke="black" points="257.5,-114.5 257.5,-133.5 351.5,-133.5 351.5,-114.5 257.5,-114.5"/>
<text text-anchor="middle" x="304.5" y="-121.5" font-family="Helvetica,sans-Serif" font-size="10.00">game::MainScene</text>
</a>
</g>
</g>
<!-- Node2&#45;&gt;Node8 -->
<g id="edge8" class="edge">
<title>Node2&#45;&gt;Node8</title>
<path fill="none" stroke="midnightblue" d="M200.34,-149.96C221.44,-144.65 245.88,-138.5 265.67,-133.52"/>
<polygon fill="midnightblue" stroke="midnightblue" points="199.45,-146.58 190.6,-152.41 201.16,-153.36 199.45,-146.58"/>
</g>
<!-- Node9 -->
<g id="node10" class="node">
<title>Node9</title>
<g id="a_node10"><a xlink:href="classgame_1_1PauseScene.html" target="_top" xlink:title="A scene that contains functionality for pausing the game.">
<polygon fill="none" stroke="black" points="254,-76.5 254,-95.5 355,-95.5 355,-76.5 254,-76.5"/>
<text text-anchor="middle" x="304.5" y="-83.5" font-family="Helvetica,sans-Serif" font-size="10.00">game::PauseScene</text>
</a>
</g>
</g>
<!-- Node2&#45;&gt;Node9 -->
<g id="edge9" class="edge">
<title>Node2&#45;&gt;Node9</title>
<path fill="none" stroke="midnightblue" d="M172.09,-145.9C188.34,-133.24 212.52,-115.96 236,-105 243.94,-101.29 252.76,-98.17 261.32,-95.59"/>
<polygon fill="midnightblue" stroke="midnightblue" points="169.58,-143.43 163.93,-152.39 173.93,-148.91 169.58,-143.43"/>
</g>
<!-- Node10 -->
<g id="node11" class="node">
<title>Node10</title>
<g id="a_node11"><a xlink:href="classgame_1_1SaveSelectionScene.html" target="_top" xlink:title="Scene for selection which save the user wants to play.">
<polygon fill="none" stroke="black" points="236.5,-38.5 236.5,-57.5 372.5,-57.5 372.5,-38.5 236.5,-38.5"/>
<text text-anchor="middle" x="304.5" y="-45.5" font-family="Helvetica,sans-Serif" font-size="10.00">game::SaveSelectionScene</text>
</a>
</g>
</g>
<!-- Node2&#45;&gt;Node10 -->
<g id="edge10" class="edge">
<title>Node2&#45;&gt;Node10</title>
<path fill="none" stroke="midnightblue" d="M163.78,-143.72C178,-122.2 204.44,-86.88 236,-67 242.18,-63.11 249.17,-60 256.25,-57.51"/>
<polygon fill="midnightblue" stroke="midnightblue" points="160.75,-141.97 158.29,-152.28 166.64,-145.75 160.75,-141.97"/>
</g>
<!-- Node11 -->
<g id="node12" class="node">
<title>Node11</title>
<g id="a_node12"><a xlink:href="classgame_1_1VictoryScene.html" target="_top" xlink:title="A scene that contains a victory screen.">
<polygon fill="none" stroke="black" points="253,-0.5 253,-19.5 356,-19.5 356,-0.5 253,-0.5"/>
<text text-anchor="middle" x="304.5" y="-7.5" font-family="Helvetica,sans-Serif" font-size="10.00">game::VictoryScene</text>
</a>
</g>
</g>
<!-- Node2&#45;&gt;Node11 -->
<g id="edge11" class="edge">
<title>Node2&#45;&gt;Node11</title>
<path fill="none" stroke="midnightblue" d="M159.33,-142.81C170.66,-113.75 196.14,-58.82 236,-29 241.17,-25.13 247.09,-22.06 253.23,-19.6"/>
<polygon fill="midnightblue" stroke="midnightblue" points="156.02,-141.66 155.79,-152.25 162.58,-144.12 156.02,-141.66"/>
</g>
</g>
</svg>
