<?xml version="1.0" encoding="UTF-8" standalone="no"?>
<!DOCTYPE svg PUBLIC "-//W3C//DTD SVG 1.1//EN"
 "http://www.w3.org/Graphics/SVG/1.1/DTD/svg11.dtd">
<!-- Generated by graphviz version 2.44.0 ()
 -->
<!-- Title: Graphical Class Hierarchy Pages: 1 -->
<svg width="448pt" height="902pt"
 viewBox="0.00 0.00 448.00 902.00" xmlns="http://www.w3.org/2000/svg" xmlns:xlink="http://www.w3.org/1999/xlink">
<g id="graph0" class="graph" transform="scale(1 1) rotate(0) translate(4 898)">
<title>Graphical Class Hierarchy</title>
<!-- Node0 -->
<g id="node1" class="node">
<title>Node0</title>
<g id="a_node1"><a xlink:href="classspic_1_1Component.html" target="_top" xlink:title="Base class for all components. @spicapi.">
<polygon fill="none" stroke="black" points="0,-418.5 0,-437.5 89,-437.5 89,-418.5 0,-418.5"/>
<text text-anchor="middle" x="44.5" y="-425.5" font-family="Helvetica,sans-Serif" font-size="10.00">spic::Component</text>
</a>
</g>
</g>
<!-- Node1 -->
<g id="node2" class="node">
<title>Node1</title>
<g id="a_node2"><a xlink:href="classspic_1_1Animator.html" target="_top" xlink:title="A component which can play animated sequences of sprites. @spicapi.">
<polygon fill="none" stroke="black" points="140,-513.5 140,-532.5 218,-532.5 218,-513.5 140,-513.5"/>
<text text-anchor="middle" x="179" y="-520.5" font-family="Helvetica,sans-Serif" font-size="10.00">spic::Animator</text>
</a>
</g>
</g>
<!-- Node0&#45;&gt;Node1 -->
<g id="edge1" class="edge">
<title>Node0&#45;&gt;Node1</title>
<path fill="none" stroke="midnightblue" d="M60.14,-445.79C74.95,-462.78 99.27,-488.1 125,-504 130.99,-507.7 137.8,-510.82 144.5,-513.4"/>
<polygon fill="midnightblue" stroke="midnightblue" points="62.45,-443.1 53.3,-437.75 57.12,-447.64 62.45,-443.1"/>
</g>
<!-- Node2 -->
<g id="node3" class="node">
<title>Node2</title>
<g id="a_node3"><a xlink:href="classspic_1_1AudioSource.html" target="_top" xlink:title="Component which can play audio. @spicapi.">
<polygon fill="none" stroke="black" points="131.5,-475.5 131.5,-494.5 226.5,-494.5 226.5,-475.5 131.5,-475.5"/>
<text text-anchor="middle" x="179" y="-482.5" font-family="Helvetica,sans-Serif" font-size="10.00">spic::AudioSource</text>
</a>
</g>
</g>
<!-- Node0&#45;&gt;Node2 -->
<g id="edge2" class="edge">
<title>Node0&#45;&gt;Node2</title>
<path fill="none" stroke="midnightblue" d="M73.5,-442.24C88.59,-449.7 107.63,-458.76 125,-466 132.94,-469.31 141.68,-472.59 149.74,-475.47"/>
<polygon fill="midnightblue" stroke="midnightblue" points="74.72,-438.94 64.21,-437.61 71.6,-445.2 74.72,-438.94"/>
</g>
<!-- Node3 -->
<g id="node4" class="node">
<title>Node3</title>
<g id="a_node4"><a xlink:href="classspic_1_1BehaviourScript.html" target="_top" xlink:title=" ">
<polygon fill="none" stroke="black" points="125,-437.5 125,-456.5 233,-456.5 233,-437.5 125,-437.5"/>
<text text-anchor="middle" x="179" y="-444.5" font-family="Helvetica,sans-Serif" font-size="10.00">spic::BehaviourScript</text>
</a>
</g>
</g>
<!-- Node0&#45;&gt;Node3 -->
<g id="edge3" class="edge">
<title>Node0&#45;&gt;Node3</title>
<path fill="none" stroke="midnightblue" d="M99.27,-435.71C107.62,-436.91 116.25,-438.15 124.6,-439.34"/>
<polygon fill="midnightblue" stroke="midnightblue" points="99.65,-432.23 89.25,-434.27 98.65,-439.16 99.65,-432.23"/>
</g>
<!-- Node26 -->
<g id="node27" class="node">
<title>Node26</title>
<g id="a_node27"><a xlink:href="classspic_1_1Collider.html" target="_top" xlink:title="The base class for all colliders. @spicapi.">
<polygon fill="none" stroke="black" points="143.5,-399.5 143.5,-418.5 214.5,-418.5 214.5,-399.5 143.5,-399.5"/>
<text text-anchor="middle" x="179" y="-406.5" font-family="Helvetica,sans-Serif" font-size="10.00">spic::Collider</text>
</a>
</g>
</g>
<!-- Node0&#45;&gt;Node26 -->
<g id="edge26" class="edge">
<title>Node0&#45;&gt;Node26</title>
<path fill="none" stroke="midnightblue" d="M99.3,-420.28C114.07,-418.17 129.69,-415.93 143.1,-414.01"/>
<polygon fill="midnightblue" stroke="midnightblue" points="98.65,-416.84 89.25,-421.73 99.65,-423.77 98.65,-416.84"/>
</g>
<!-- Node29 -->
<g id="node30" class="node">
<title>Node29</title>
<g id="a_node30"><a xlink:href="classspic_1_1RigidBody.html" target="_top" xlink:title="A component representing a rigid body. @spicapi.">
<polygon fill="none" stroke="black" points="137.5,-361.5 137.5,-380.5 220.5,-380.5 220.5,-361.5 137.5,-361.5"/>
<text text-anchor="middle" x="179" y="-368.5" font-family="Helvetica,sans-Serif" font-size="10.00">spic::RigidBody</text>
</a>
</g>
</g>
<!-- Node0&#45;&gt;Node29 -->
<g id="edge29" class="edge">
<title>Node0&#45;&gt;Node29</title>
<path fill="none" stroke="midnightblue" d="M73.5,-413.76C88.59,-406.3 107.63,-397.24 125,-390 132.94,-386.69 141.68,-383.41 149.74,-380.53"/>
<polygon fill="midnightblue" stroke="midnightblue" points="71.6,-410.8 64.21,-418.39 74.72,-417.06 71.6,-410.8"/>
</g>
<!-- Node30 -->
<g id="node31" class="node">
<title>Node30</title>
<g id="a_node31"><a xlink:href="classspic_1_1Sprite.html" target="_top" xlink:title="A component representing a sprite (small image) @spicapi.">
<polygon fill="none" stroke="black" points="146.5,-323.5 146.5,-342.5 211.5,-342.5 211.5,-323.5 146.5,-323.5"/>
<text text-anchor="middle" x="179" y="-330.5" font-family="Helvetica,sans-Serif" font-size="10.00">spic::Sprite</text>
</a>
</g>
</g>
<!-- Node0&#45;&gt;Node30 -->
<g id="edge30" class="edge">
<title>Node0&#45;&gt;Node30</title>
<path fill="none" stroke="midnightblue" d="M60.14,-410.21C74.95,-393.22 99.27,-367.9 125,-352 131.57,-347.94 139.13,-344.58 146.45,-341.87"/>
<polygon fill="midnightblue" stroke="midnightblue" points="57.12,-408.36 53.3,-418.25 62.45,-412.9 57.12,-408.36"/>
</g>
<!-- Node4 -->
<g id="node5" class="node">
<title>Node4</title>
<g id="a_node5"><a xlink:href="classgame_1_1AttackBehaviour.html" target="_top" xlink:title="A script to attack other game objects containing a health script.">
<polygon fill="none" stroke="black" points="296,-874.5 296,-893.5 413,-893.5 413,-874.5 296,-874.5"/>
<text text-anchor="middle" x="354.5" y="-881.5" font-family="Helvetica,sans-Serif" font-size="10.00">game::AttackBehaviour</text>
</a>
</g>
</g>
<!-- Node3&#45;&gt;Node4 -->
<g id="edge4" class="edge">
<title>Node3&#45;&gt;Node4</title>
<path fill="none" stroke="midnightblue" d="M229.96,-462.6C231.05,-463.66 232.07,-464.79 233,-466 287.46,-536.42 210.31,-798.06 269,-865 276.04,-873.03 285.67,-878.06 295.92,-881.15"/>
<polygon fill="midnightblue" stroke="midnightblue" points="232.02,-459.77 221.92,-456.6 227.84,-465.38 232.02,-459.77"/>
</g>
<!-- Node5 -->
<g id="node6" class="node">
<title>Node5</title>
<g id="a_node6"><a xlink:href="classgame_1_1BulletBehaviour.html" target="_top" xlink:title="A script to that handles bullets.">
<polygon fill="none" stroke="black" points="298,-836.5 298,-855.5 411,-855.5 411,-836.5 298,-836.5"/>
<text text-anchor="middle" x="354.5" y="-843.5" font-family="Helvetica,sans-Serif" font-size="10.00">game::BulletBehaviour</text>
</a>
</g>
</g>
<!-- Node3&#45;&gt;Node5 -->
<g id="edge5" class="edge">
<title>Node3&#45;&gt;Node5</title>
<path fill="none" stroke="midnightblue" d="M229.95,-462.61C231.04,-463.67 232.06,-464.8 233,-466 282.62,-529.54 215.57,-766.63 269,-827 276.47,-835.44 286.82,-840.57 297.72,-843.6"/>
<polygon fill="midnightblue" stroke="midnightblue" points="232,-459.78 221.88,-456.63 227.82,-465.4 232,-459.78"/>
</g>
<!-- Node6 -->
<g id="node7" class="node">
<title>Node6</title>
<g id="a_node7"><a xlink:href="classgame_1_1CheatManager.html" target="_top" xlink:title="A script to handle different cheats.">
<polygon fill="none" stroke="black" points="300.5,-798.5 300.5,-817.5 408.5,-817.5 408.5,-798.5 300.5,-798.5"/>
<text text-anchor="middle" x="354.5" y="-805.5" font-family="Helvetica,sans-Serif" font-size="10.00">game::CheatManager</text>
</a>
</g>
</g>
<!-- Node3&#45;&gt;Node6 -->
<g id="edge6" class="edge">
<title>Node3&#45;&gt;Node6</title>
<path fill="none" stroke="midnightblue" d="M229.86,-462.56C230.98,-463.63 232.03,-464.78 233,-466 322.56,-579.33 172.64,-681.39 269,-789 277.12,-798.07 288.57,-803.31 300.42,-806.22"/>
<polygon fill="midnightblue" stroke="midnightblue" points="231.72,-459.59 221.58,-456.51 227.59,-465.24 231.72,-459.59"/>
</g>
<!-- Node7 -->
<g id="node8" class="node">
<title>Node7</title>
<g id="a_node8"><a xlink:href="classgame_1_1CloseSceneBehaviour.html" target="_top" xlink:title="A script to close the scene when pressing the ESC ky.">
<polygon fill="none" stroke="black" points="284,-760.5 284,-779.5 425,-779.5 425,-760.5 284,-760.5"/>
<text text-anchor="middle" x="354.5" y="-767.5" font-family="Helvetica,sans-Serif" font-size="10.00">game::CloseSceneBehaviour</text>
</a>
</g>
</g>
<!-- Node3&#45;&gt;Node7 -->
<g id="edge7" class="edge">
<title>Node3&#45;&gt;Node7</title>
<path fill="none" stroke="midnightblue" d="M229.84,-462.58C230.97,-463.65 232.03,-464.78 233,-466 312.89,-565.59 183.13,-656.51 269,-751 273.25,-755.67 278.38,-759.33 283.98,-762.16"/>
<polygon fill="midnightblue" stroke="midnightblue" points="231.68,-459.59 221.53,-456.56 227.57,-465.26 231.68,-459.59"/>
</g>
<!-- Node8 -->
<g id="node9" class="node">
<title>Node8</title>
<g id="a_node9"><a xlink:href="classgame_1_1ConfettiBehaviour.html" target="_top" xlink:title=" ">
<polygon fill="none" stroke="black" points="293.5,-722.5 293.5,-741.5 415.5,-741.5 415.5,-722.5 293.5,-722.5"/>
<text text-anchor="middle" x="354.5" y="-729.5" font-family="Helvetica,sans-Serif" font-size="10.00">game::ConfettiBehaviour</text>
</a>
</g>
</g>
<!-- Node3&#45;&gt;Node8 -->
<g id="edge8" class="edge">
<title>Node3&#45;&gt;Node8</title>
<path fill="none" stroke="midnightblue" d="M229.81,-462.61C230.94,-463.66 232.01,-464.79 233,-466 303.24,-551.87 193.61,-631.61 269,-713 275.54,-720.06 284.09,-724.78 293.24,-727.88"/>
<polygon fill="midnightblue" stroke="midnightblue" points="231.62,-459.6 221.46,-456.62 227.54,-465.29 231.62,-459.6"/>
</g>
<!-- Node9 -->
<g id="node10" class="node">
<title>Node9</title>
<g id="a_node10"><a xlink:href="classgame_1_1CoolDownBehaviour.html" target="_top" xlink:title="A script to handle a cool down for other scripts.">
<polygon fill="none" stroke="black" points="288,-684.5 288,-703.5 421,-703.5 421,-684.5 288,-684.5"/>
<text text-anchor="middle" x="354.5" y="-691.5" font-family="Helvetica,sans-Serif" font-size="10.00">game::CoolDownBehaviour</text>
</a>
</g>
</g>
<!-- Node3&#45;&gt;Node9 -->
<g id="edge9" class="edge">
<title>Node3&#45;&gt;Node9</title>
<path fill="none" stroke="midnightblue" d="M229.34,-462.26C230.65,-463.42 231.88,-464.66 233,-466 293.62,-538.18 204.06,-606.69 269,-675 274.28,-680.56 280.82,-684.66 287.89,-687.65"/>
<polygon fill="midnightblue" stroke="midnightblue" points="231.31,-459.37 221.1,-456.55 227.33,-465.12 231.31,-459.37"/>
</g>
<!-- Node10 -->
<g id="node11" class="node">
<title>Node10</title>
<g id="a_node11"><a xlink:href="classgame_1_1DamageBehaviour.html" target="_top" xlink:title="A script that handles damage on health scripts.">
<polygon fill="none" stroke="black" points="292,-646.5 292,-665.5 417,-665.5 417,-646.5 292,-646.5"/>
<text text-anchor="middle" x="354.5" y="-653.5" font-family="Helvetica,sans-Serif" font-size="10.00">game::DamageBehaviour</text>
</a>
</g>
</g>
<!-- Node3&#45;&gt;Node10 -->
<g id="edge10" class="edge">
<title>Node3&#45;&gt;Node10</title>
<path fill="none" stroke="midnightblue" d="M229.2,-462.25C230.56,-463.41 231.83,-464.66 233,-466 284.04,-524.54 214.46,-581.71 269,-637 275.34,-643.42 283.34,-647.88 291.89,-650.94"/>
<polygon fill="midnightblue" stroke="midnightblue" points="230.95,-459.21 220.7,-456.53 227.04,-465.02 230.95,-459.21"/>
</g>
<!-- Node11 -->
<g id="node12" class="node">
<title>Node11</title>
<g id="a_node12"><a xlink:href="classgame_1_1EnemyInvisibleBehaviour.html" target="_top" xlink:title=" ">
<polygon fill="none" stroke="black" points="277.5,-608.5 277.5,-627.5 431.5,-627.5 431.5,-608.5 277.5,-608.5"/>
<text text-anchor="middle" x="354.5" y="-615.5" font-family="Helvetica,sans-Serif" font-size="10.00">game::EnemyInvisibleBehaviour</text>
</a>
</g>
</g>
<!-- Node3&#45;&gt;Node11 -->
<g id="edge11" class="edge">
<title>Node3&#45;&gt;Node11</title>
<path fill="none" stroke="midnightblue" d="M229.03,-462.27C230.44,-463.43 231.77,-464.67 233,-466 274.54,-511 224.77,-556.64 269,-599 272.91,-602.74 277.39,-605.81 282.2,-608.32"/>
<polygon fill="midnightblue" stroke="midnightblue" points="230.53,-459.08 220.23,-456.58 226.72,-464.95 230.53,-459.08"/>
</g>
<!-- Node12 -->
<g id="node13" class="node">
<title>Node12</title>
<g id="a_node13"><a xlink:href="classgame_1_1EnemyMedicBehaviour.html" target="_top" xlink:title="A behaviour that heals other enemies in a certain range.">
<polygon fill="none" stroke="black" points="282.5,-570.5 282.5,-589.5 426.5,-589.5 426.5,-570.5 282.5,-570.5"/>
<text text-anchor="middle" x="354.5" y="-577.5" font-family="Helvetica,sans-Serif" font-size="10.00">game::EnemyMedicBehaviour</text>
</a>
</g>
</g>
<!-- Node3&#45;&gt;Node12 -->
<g id="edge12" class="edge">
<title>Node3&#45;&gt;Node12</title>
<path fill="none" stroke="midnightblue" d="M227.77,-461.63C229.63,-462.96 231.39,-464.41 233,-466 265.21,-497.64 234.9,-531.4 269,-561 273.43,-564.84 278.47,-567.96 283.83,-570.47"/>
<polygon fill="midnightblue" stroke="midnightblue" points="229.48,-458.57 219.08,-456.52 225.93,-464.6 229.48,-458.57"/>
</g>
<!-- Node13 -->
<g id="node14" class="node">
<title>Node13</title>
<g id="a_node14"><a xlink:href="classgame_1_1EnemyMovementBehaviour.html" target="_top" xlink:title="A script to handle movement for the enemy.">
<polygon fill="none" stroke="black" points="272.5,-532.5 272.5,-551.5 436.5,-551.5 436.5,-532.5 272.5,-532.5"/>
<text text-anchor="middle" x="354.5" y="-539.5" font-family="Helvetica,sans-Serif" font-size="10.00">game::EnemyMovementBehaviour</text>
</a>
</g>
</g>
<!-- Node3&#45;&gt;Node13 -->
<g id="edge13" class="edge">
<title>Node3&#45;&gt;Node13</title>
<path fill="none" stroke="midnightblue" d="M225.76,-461.06C228.31,-462.55 230.75,-464.19 233,-466 256.38,-484.74 244.52,-505.73 269,-523 274.41,-526.81 280.45,-529.88 286.75,-532.34"/>
<polygon fill="midnightblue" stroke="midnightblue" points="227.27,-457.9 216.76,-456.55 224.13,-464.16 227.27,-457.9"/>
</g>
<!-- Node14 -->
<g id="node15" class="node">
<title>Node14</title>
<g id="a_node15"><a xlink:href="classgame_1_1EnemySpeedBoostBehaviour.html" target="_top" xlink:title="A behaviour script to boost other enemies in a certain range.">
<polygon fill="none" stroke="black" points="269,-494.5 269,-513.5 440,-513.5 440,-494.5 269,-494.5"/>
<text text-anchor="middle" x="354.5" y="-501.5" font-family="Helvetica,sans-Serif" font-size="10.00">game::EnemySpeedBoostBehaviour</text>
</a>
</g>
</g>
<!-- Node3&#45;&gt;Node14 -->
<g id="edge14" class="edge">
<title>Node3&#45;&gt;Node14</title>
<path fill="none" stroke="midnightblue" d="M218.35,-460.02C223.32,-461.92 228.31,-463.93 233,-466 249.56,-473.29 252.03,-478.74 269,-485 279.16,-488.75 290.29,-491.89 301.03,-494.47"/>
<polygon fill="midnightblue" stroke="midnightblue" points="219.49,-456.71 208.9,-456.52 217.06,-463.27 219.49,-456.71"/>
</g>
<!-- Node15 -->
<g id="node16" class="node">
<title>Node15</title>
<g id="a_node16"><a xlink:href="classgame_1_1EnemyTroopTruckBehaviour.html" target="_top" xlink:title="A behaviour script that spawns a given amount of enemies when the current entity dies.">
<polygon fill="none" stroke="black" points="271,-456.5 271,-475.5 438,-475.5 438,-456.5 271,-456.5"/>
<text text-anchor="middle" x="354.5" y="-463.5" font-family="Helvetica,sans-Serif" font-size="10.00">game::EnemyTroopTruckBehaviour</text>
</a>
</g>
</g>
<!-- Node3&#45;&gt;Node15 -->
<g id="edge15" class="edge">
<title>Node3&#45;&gt;Node15</title>
<path fill="none" stroke="midnightblue" d="M243.68,-453.97C252.52,-454.94 261.72,-455.95 270.85,-456.95"/>
<polygon fill="midnightblue" stroke="midnightblue" points="243.79,-450.47 233.47,-452.86 243.03,-457.42 243.79,-450.47"/>
</g>
<!-- Node16 -->
<g id="node17" class="node">
<title>Node16</title>
<g id="a_node17"><a xlink:href="classgame_1_1GameLostBehaviour.html" target="_top" xlink:title="The script the handle the game lost screen.">
<polygon fill="none" stroke="black" points="287.5,-418.5 287.5,-437.5 421.5,-437.5 421.5,-418.5 287.5,-418.5"/>
<text text-anchor="middle" x="354.5" y="-425.5" font-family="Helvetica,sans-Serif" font-size="10.00">game::GameLostBehaviour</text>
</a>
</g>
</g>
<!-- Node3&#45;&gt;Node16 -->
<g id="edge16" class="edge">
<title>Node3&#45;&gt;Node16</title>
<path fill="none" stroke="midnightblue" d="M243.65,-440.03C257.89,-438.47 273.02,-436.81 287.35,-435.24"/>
<polygon fill="midnightblue" stroke="midnightblue" points="243.03,-436.58 233.47,-441.14 243.79,-443.53 243.03,-436.58"/>
</g>
<!-- Node17 -->
<g id="node18" class="node">
<title>Node17</title>
<g id="a_node18"><a xlink:href="classgame_1_1GameWonBehaviour.html" target="_top" xlink:title="A script that handles the game won screen.">
<polygon fill="none" stroke="black" points="287.5,-380.5 287.5,-399.5 421.5,-399.5 421.5,-380.5 287.5,-380.5"/>
<text text-anchor="middle" x="354.5" y="-387.5" font-family="Helvetica,sans-Serif" font-size="10.00">game::GameWonBehaviour</text>
</a>
</g>
</g>
<!-- Node3&#45;&gt;Node17 -->
<g id="edge17" class="edge">
<title>Node3&#45;&gt;Node17</title>
<path fill="none" stroke="midnightblue" d="M218.35,-433.98C223.32,-432.08 228.31,-430.07 233,-428 249.56,-420.71 252.03,-415.26 269,-409 279.16,-405.25 290.29,-402.11 301.03,-399.53"/>
<polygon fill="midnightblue" stroke="midnightblue" points="217.06,-430.73 208.9,-437.48 219.49,-437.29 217.06,-430.73"/>
</g>
<!-- Node18 -->
<g id="node19" class="node">
<title>Node18</title>
<g id="a_node19"><a xlink:href="classgame_1_1HealAbilityBehaviour.html" target="_top" xlink:title="A script to heal a hero when activated.">
<polygon fill="none" stroke="black" points="287,-342.5 287,-361.5 422,-361.5 422,-342.5 287,-342.5"/>
<text text-anchor="middle" x="354.5" y="-349.5" font-family="Helvetica,sans-Serif" font-size="10.00">game::HealAbilityBehaviour</text>
</a>
</g>
</g>
<!-- Node3&#45;&gt;Node18 -->
<g id="edge18" class="edge">
<title>Node3&#45;&gt;Node18</title>
<path fill="none" stroke="midnightblue" d="M225.76,-432.94C228.31,-431.45 230.75,-429.81 233,-428 256.38,-409.26 244.52,-388.27 269,-371 274.41,-367.19 280.45,-364.12 286.75,-361.66"/>
<polygon fill="midnightblue" stroke="midnightblue" points="224.13,-429.84 216.76,-437.45 227.27,-436.1 224.13,-429.84"/>
</g>
<!-- Node19 -->
<g id="node20" class="node">
<title>Node19</title>
<g id="a_node20"><a xlink:href="classgame_1_1HealthBarBehaviour.html" target="_top" xlink:title="A script to render a health bar linked to a health behaviour.">
<polygon fill="none" stroke="black" points="288.5,-304.5 288.5,-323.5 420.5,-323.5 420.5,-304.5 288.5,-304.5"/>
<text text-anchor="middle" x="354.5" y="-311.5" font-family="Helvetica,sans-Serif" font-size="10.00">game::HealthBarBehaviour</text>
</a>
</g>
</g>
<!-- Node3&#45;&gt;Node19 -->
<g id="edge19" class="edge">
<title>Node3&#45;&gt;Node19</title>
<path fill="none" stroke="midnightblue" d="M227.77,-432.37C229.63,-431.04 231.39,-429.59 233,-428 265.21,-396.36 234.9,-362.6 269,-333 274.68,-328.07 281.36,-324.34 288.44,-321.54"/>
<polygon fill="midnightblue" stroke="midnightblue" points="225.93,-429.4 219.08,-437.48 229.48,-435.43 225.93,-429.4"/>
</g>
<!-- Node20 -->
<g id="node21" class="node">
<title>Node20</title>
<g id="a_node21"><a xlink:href="classgame_1_1HealthBehaviour.html" target="_top" xlink:title="A script to handle health on a entity.">
<polygon fill="none" stroke="black" points="296,-266.5 296,-285.5 413,-285.5 413,-266.5 296,-266.5"/>
<text text-anchor="middle" x="354.5" y="-273.5" font-family="Helvetica,sans-Serif" font-size="10.00">game::HealthBehaviour</text>
</a>
</g>
</g>
<!-- Node3&#45;&gt;Node20 -->
<g id="edge20" class="edge">
<title>Node3&#45;&gt;Node20</title>
<path fill="none" stroke="midnightblue" d="M229.03,-431.73C230.44,-430.57 231.77,-429.33 233,-428 274.54,-383 224.77,-337.36 269,-295 276.38,-287.93 285.81,-283.27 295.67,-280.25"/>
<polygon fill="midnightblue" stroke="midnightblue" points="226.72,-429.05 220.23,-437.42 230.53,-434.92 226.72,-429.05"/>
</g>
<!-- Node21 -->
<g id="node22" class="node">
<title>Node21</title>
<g id="a_node22"><a xlink:href="classgame_1_1LevelController.html" target="_top" xlink:title="A controller to handle changes in the Level.">
<polygon fill="none" stroke="black" points="299.5,-228.5 299.5,-247.5 409.5,-247.5 409.5,-228.5 299.5,-228.5"/>
<text text-anchor="middle" x="354.5" y="-235.5" font-family="Helvetica,sans-Serif" font-size="10.00">game::LevelController</text>
</a>
</g>
</g>
<!-- Node3&#45;&gt;Node21 -->
<g id="edge21" class="edge">
<title>Node3&#45;&gt;Node21</title>
<path fill="none" stroke="midnightblue" d="M229.2,-431.75C230.56,-430.59 231.83,-429.34 233,-428 284.04,-369.46 214.46,-312.29 269,-257 277.13,-248.76 288.01,-243.75 299.26,-240.79"/>
<polygon fill="midnightblue" stroke="midnightblue" points="227.04,-428.98 220.7,-437.47 230.95,-434.79 227.04,-428.98"/>
</g>
<!-- Node22 -->
<g id="node23" class="node">
<title>Node22</title>
<g id="a_node23"><a xlink:href="classgame_1_1LevelSelectionController.html" target="_top" xlink:title="A script to handle level loading and selection.">
<polygon fill="none" stroke="black" points="279,-190.5 279,-209.5 430,-209.5 430,-190.5 279,-190.5"/>
<text text-anchor="middle" x="354.5" y="-197.5" font-family="Helvetica,sans-Serif" font-size="10.00">game::LevelSelectionController</text>
</a>
</g>
</g>
<!-- Node3&#45;&gt;Node22 -->
<g id="edge22" class="edge">
<title>Node3&#45;&gt;Node22</title>
<path fill="none" stroke="#8b1a1a" d="M229.34,-431.74C230.65,-430.58 231.88,-429.34 233,-428 293.62,-355.82 204.06,-287.31 269,-219 272.63,-215.19 276.84,-212.06 281.41,-209.5"/>
<polygon fill="#8b1a1a" stroke="#8b1a1a" points="227.33,-428.88 221.1,-437.45 231.31,-434.63 227.33,-428.88"/>
</g>
<!-- Node23 -->
<g id="node24" class="node">
<title>Node23</title>
<g id="a_node24"><a xlink:href="classgame_1_1PauseSceneBehaviour.html" target="_top" xlink:title="A script to pause the game when pressing the ESC key.">
<polygon fill="none" stroke="black" points="282.5,-152.5 282.5,-171.5 426.5,-171.5 426.5,-152.5 282.5,-152.5"/>
<text text-anchor="middle" x="354.5" y="-159.5" font-family="Helvetica,sans-Serif" font-size="10.00">game::PauseSceneBehaviour</text>
</a>
</g>
</g>
<!-- Node3&#45;&gt;Node23 -->
<g id="edge23" class="edge">
<title>Node3&#45;&gt;Node23</title>
<path fill="none" stroke="midnightblue" d="M229.81,-431.39C230.94,-430.34 232.01,-429.21 233,-428 303.24,-342.13 193.61,-262.39 269,-181 272.88,-176.81 277.48,-173.44 282.48,-170.75"/>
<polygon fill="midnightblue" stroke="midnightblue" points="227.54,-428.71 221.46,-437.38 231.62,-434.4 227.54,-428.71"/>
</g>
<!-- Node24 -->
<g id="node25" class="node">
<title>Node24</title>
<g id="a_node25"><a xlink:href="classgame_1_1UserAttackBehaviour.html" target="_top" xlink:title="A script to let the user attack.">
<polygon fill="none" stroke="black" points="285.5,-114.5 285.5,-133.5 423.5,-133.5 423.5,-114.5 285.5,-114.5"/>
<text text-anchor="middle" x="354.5" y="-121.5" font-family="Helvetica,sans-Serif" font-size="10.00">game::UserAttackBehaviour</text>
</a>
</g>
</g>
<!-- Node3&#45;&gt;Node24 -->
<g id="edge24" class="edge">
<title>Node3&#45;&gt;Node24</title>
<path fill="none" stroke="midnightblue" d="M229.84,-431.42C230.97,-430.35 232.03,-429.22 233,-428 312.89,-328.41 183.13,-237.49 269,-143 273.55,-137.99 279.11,-134.16 285.19,-131.24"/>
<polygon fill="midnightblue" stroke="midnightblue" points="227.57,-428.74 221.53,-437.44 231.68,-434.41 227.57,-428.74"/>
</g>
<!-- Node25 -->
<g id="node26" class="node">
<title>Node25</title>
<g id="a_node26"><a xlink:href="classgame_1_1UserMovementBehaviour.html" target="_top" xlink:title="A script to allow the user to move the hero thru the level.">
<polygon fill="none" stroke="black" points="277,-76.5 277,-95.5 432,-95.5 432,-76.5 277,-76.5"/>
<text text-anchor="middle" x="354.5" y="-83.5" font-family="Helvetica,sans-Serif" font-size="10.00">game::UserMovementBehaviour</text>
</a>
</g>
</g>
<!-- Node3&#45;&gt;Node25 -->
<g id="edge25" class="edge">
<title>Node3&#45;&gt;Node25</title>
<path fill="none" stroke="midnightblue" d="M229.86,-431.44C230.98,-430.37 232.03,-429.22 233,-428 322.56,-314.67 172.64,-212.61 269,-105 272.31,-101.3 276.17,-98.24 280.39,-95.72"/>
<polygon fill="midnightblue" stroke="midnightblue" points="227.59,-428.76 221.58,-437.49 231.72,-434.41 227.59,-428.76"/>
</g>
<!-- Node27 -->
<g id="node28" class="node">
<title>Node27</title>
<g id="a_node28"><a xlink:href="classspic_1_1BoxCollider.html" target="_top" xlink:title="A collider which represents a rectangular collision area. @spicapi.">
<polygon fill="none" stroke="black" points="310.5,-38.5 310.5,-57.5 398.5,-57.5 398.5,-38.5 310.5,-38.5"/>
<text text-anchor="middle" x="354.5" y="-45.5" font-family="Helvetica,sans-Serif" font-size="10.00">spic::BoxCollider</text>
</a>
</g>
</g>
<!-- Node26&#45;&gt;Node27 -->
<g id="edge27" class="edge">
<title>Node26&#45;&gt;Node27</title>
<path fill="none" stroke="midnightblue" d="M223.82,-398.14C227.3,-395.91 230.45,-393.23 233,-390 322.56,-276.67 172.64,-174.61 269,-67 279.33,-55.46 295.03,-50.13 310.1,-47.88"/>
<polygon fill="midnightblue" stroke="midnightblue" points="221.99,-395.14 214.65,-402.78 225.16,-401.38 221.99,-395.14"/>
</g>
<!-- Node28 -->
<g id="node29" class="node">
<title>Node28</title>
<g id="a_node29"><a xlink:href="classspic_1_1CircleCollider.html" target="_top" xlink:title="A collider which represents a circular collision area. @spicapi.">
<polygon fill="none" stroke="black" points="306.5,-0.5 306.5,-19.5 402.5,-19.5 402.5,-0.5 306.5,-0.5"/>
<text text-anchor="middle" x="354.5" y="-7.5" font-family="Helvetica,sans-Serif" font-size="10.00">spic::CircleCollider</text>
</a>
</g>
</g>
<!-- Node26&#45;&gt;Node28 -->
<g id="edge28" class="edge">
<title>Node26&#45;&gt;Node28</title>
<path fill="none" stroke="midnightblue" d="M223.86,-398.17C227.33,-395.94 230.47,-393.24 233,-390 282.62,-326.46 215.57,-89.37 269,-29 278.37,-18.42 292.25,-13.04 306.07,-10.48"/>
<polygon fill="midnightblue" stroke="midnightblue" points="222.03,-395.17 214.71,-402.82 225.21,-401.41 222.03,-395.17"/>
</g>
</g>
</svg>
