<?xml version="1.0" encoding="UTF-8" standalone="no"?>
<!DOCTYPE svg PUBLIC "-//W3C//DTD SVG 1.1//EN"
 "http://www.w3.org/Graphics/SVG/1.1/DTD/svg11.dtd">
<!-- Generated by graphviz version 2.44.0 ()
 -->
<!-- Title: libs/spic&#45;engine/src/Managers/InputManager.hpp Pages: 1 -->
<svg width="625pt" height="151pt"
 viewBox="0.00 0.00 624.50 151.00" xmlns="http://www.w3.org/2000/svg" xmlns:xlink="http://www.w3.org/1999/xlink">
<g id="graph0" class="graph" transform="scale(1 1) rotate(0) translate(4 147)">
<title>libs/spic&#45;engine/src/Managers/InputManager.hpp</title>
<!-- Node1 -->
<g id="node1" class="node">
<title>Node1</title>
<g id="a_node1"><a xlink:title=" ">
<polygon fill="#bfbfbf" stroke="black" points="226,-112.5 226,-142.5 369,-142.5 369,-112.5 226,-112.5"/>
<text text-anchor="start" x="234" y="-130.5" font-family="Helvetica,sans-Serif" font-size="10.00">libs/spic&#45;engine/src</text>
<text text-anchor="middle" x="297.5" y="-119.5" font-family="Helvetica,sans-Serif" font-size="10.00">/Managers/InputManager.hpp</text>
</a>
</g>
</g>
<!-- Node2 -->
<g id="node2" class="node">
<title>Node2</title>
<g id="a_node2"><a xlink:href="Point_8hpp.html" target="_top" xlink:title=" ">
<polygon fill="none" stroke="black" points="0,-0.5 0,-19.5 57,-19.5 57,-0.5 0,-0.5"/>
<text text-anchor="middle" x="28.5" y="-7.5" font-family="Helvetica,sans-Serif" font-size="10.00">Point.hpp</text>
</a>
</g>
</g>
<!-- Node1&#45;&gt;Node2 -->
<g id="edge1" class="edge">
<title>Node1&#45;&gt;Node2</title>
<path fill="none" stroke="midnightblue" d="M230,-112.45C196.7,-104.17 156.5,-92.13 122.5,-76 94,-62.48 64.64,-40.68 46.49,-26.1"/>
<polygon fill="midnightblue" stroke="midnightblue" points="48.49,-23.22 38.53,-19.6 44.05,-28.63 48.49,-23.22"/>
</g>
<!-- Node3 -->
<g id="node3" class="node">
<title>Node3</title>
<g id="a_node3"><a xlink:href="Input_8hpp.html" target="_top" xlink:title=" ">
<polygon fill="none" stroke="black" points="147.5,-56.5 147.5,-75.5 203.5,-75.5 203.5,-56.5 147.5,-56.5"/>
<text text-anchor="middle" x="175.5" y="-63.5" font-family="Helvetica,sans-Serif" font-size="10.00">Input.hpp</text>
</a>
</g>
</g>
<!-- Node1&#45;&gt;Node3 -->
<g id="edge2" class="edge">
<title>Node1&#45;&gt;Node3</title>
<path fill="none" stroke="midnightblue" d="M268.59,-112.4C248.48,-102.59 221.88,-89.62 202.26,-80.05"/>
<polygon fill="midnightblue" stroke="midnightblue" points="203.77,-76.9 193.25,-75.66 200.71,-83.19 203.77,-76.9"/>
</g>
<!-- Node4 -->
<g id="node4" class="node">
<title>Node4</title>
<g id="a_node4"><a xlink:href="IKeyListener_8hpp.html" target="_top" xlink:title=" ">
<polygon fill="none" stroke="black" points="75,-0.5 75,-19.5 164,-19.5 164,-0.5 75,-0.5"/>
<text text-anchor="middle" x="119.5" y="-7.5" font-family="Helvetica,sans-Serif" font-size="10.00">IKeyListener.hpp</text>
</a>
</g>
</g>
<!-- Node1&#45;&gt;Node4 -->
<g id="edge8" class="edge">
<title>Node1&#45;&gt;Node4</title>
<path fill="none" stroke="midnightblue" d="M225.9,-118.83C195.33,-112.1 161.47,-99.51 138.5,-76 126.57,-63.79 122.06,-44.52 120.39,-30.13"/>
<polygon fill="midnightblue" stroke="midnightblue" points="123.86,-29.55 119.58,-19.86 116.88,-30.11 123.86,-29.55"/>
</g>
<!-- Node5 -->
<g id="node5" class="node">
<title>Node5</title>
<g id="a_node5"><a xlink:href="IMouseListener_8hpp.html" target="_top" xlink:title=" ">
<polygon fill="none" stroke="black" points="241.5,-0.5 241.5,-19.5 343.5,-19.5 343.5,-0.5 241.5,-0.5"/>
<text text-anchor="middle" x="292.5" y="-7.5" font-family="Helvetica,sans-Serif" font-size="10.00">IMouseListener.hpp</text>
</a>
</g>
</g>
<!-- Node1&#45;&gt;Node5 -->
<g id="edge7" class="edge">
<title>Node1&#45;&gt;Node5</title>
<path fill="none" stroke="midnightblue" d="M279.08,-112.29C268.84,-103.18 257.07,-90.38 251.5,-76 244.41,-57.69 259.01,-38.96 272.71,-26.34"/>
<polygon fill="midnightblue" stroke="midnightblue" points="275.19,-28.82 280.51,-19.66 270.64,-23.51 275.19,-28.82"/>
</g>
<!-- Node7 -->
<g id="node7" class="node">
<title>Node7</title>
<g id="a_node7"><a xlink:title=" ">
<polygon fill="none" stroke="#bfbfbf" points="260,-56.5 260,-75.5 335,-75.5 335,-56.5 260,-56.5"/>
<text text-anchor="middle" x="297.5" y="-63.5" font-family="Helvetica,sans-Serif" font-size="10.00">SDL_stdinc.h</text>
</a>
</g>
</g>
<!-- Node1&#45;&gt;Node7 -->
<g id="edge9" class="edge">
<title>Node1&#45;&gt;Node7</title>
<path fill="none" stroke="midnightblue" d="M297.5,-112.4C297.5,-104.47 297.5,-94.46 297.5,-85.86"/>
<polygon fill="midnightblue" stroke="midnightblue" points="301,-85.66 297.5,-75.66 294,-85.66 301,-85.66"/>
</g>
<!-- Node8 -->
<g id="node8" class="node">
<title>Node8</title>
<g id="a_node8"><a xlink:title=" ">
<polygon fill="none" stroke="#bfbfbf" points="353.5,-56.5 353.5,-75.5 431.5,-75.5 431.5,-56.5 353.5,-56.5"/>
<text text-anchor="middle" x="392.5" y="-63.5" font-family="Helvetica,sans-Serif" font-size="10.00">SDL_events.h</text>
</a>
</g>
</g>
<!-- Node1&#45;&gt;Node8 -->
<g id="edge10" class="edge">
<title>Node1&#45;&gt;Node8</title>
<path fill="none" stroke="midnightblue" d="M320.01,-112.4C335.1,-102.95 354.89,-90.56 369.97,-81.11"/>
<polygon fill="midnightblue" stroke="midnightblue" points="372.06,-83.93 378.68,-75.66 368.34,-78 372.06,-83.93"/>
</g>
<!-- Node9 -->
<g id="node9" class="node">
<title>Node9</title>
<g id="a_node9"><a xlink:title=" ">
<polygon fill="none" stroke="#bfbfbf" points="450,-56.5 450,-75.5 485,-75.5 485,-56.5 450,-56.5"/>
<text text-anchor="middle" x="467.5" y="-63.5" font-family="Helvetica,sans-Serif" font-size="10.00">map</text>
</a>
</g>
</g>
<!-- Node1&#45;&gt;Node9 -->
<g id="edge11" class="edge">
<title>Node1&#45;&gt;Node9</title>
<path fill="none" stroke="midnightblue" d="M337.79,-112.4C369.44,-101.32 412.67,-86.19 440.34,-76.51"/>
<polygon fill="midnightblue" stroke="midnightblue" points="441.49,-79.81 449.78,-73.2 439.18,-73.2 441.49,-79.81"/>
</g>
<!-- Node10 -->
<g id="node10" class="node">
<title>Node10</title>
<g id="a_node10"><a xlink:title=" ">
<polygon fill="none" stroke="#bfbfbf" points="503,-56.5 503,-75.5 554,-75.5 554,-56.5 503,-56.5"/>
<text text-anchor="middle" x="528.5" y="-63.5" font-family="Helvetica,sans-Serif" font-size="10.00">memory</text>
</a>
</g>
</g>
<!-- Node1&#45;&gt;Node10 -->
<g id="edge12" class="edge">
<title>Node1&#45;&gt;Node10</title>
<path fill="none" stroke="midnightblue" d="M352.73,-112.47C389.92,-102.99 440.34,-90.08 493.02,-76.37"/>
<polygon fill="midnightblue" stroke="midnightblue" points="494.09,-79.71 502.89,-73.8 492.33,-72.94 494.09,-79.71"/>
</g>
<!-- Node11 -->
<g id="node11" class="node">
<title>Node11</title>
<g id="a_node11"><a xlink:title=" ">
<polygon fill="none" stroke="#bfbfbf" points="572.5,-56.5 572.5,-75.5 616.5,-75.5 616.5,-56.5 572.5,-56.5"/>
<text text-anchor="middle" x="594.5" y="-63.5" font-family="Helvetica,sans-Serif" font-size="10.00">vector</text>
</a>
</g>
</g>
<!-- Node1&#45;&gt;Node11 -->
<g id="edge13" class="edge">
<title>Node1&#45;&gt;Node11</title>
<path fill="none" stroke="midnightblue" d="M369.02,-114.82C420.38,-105.99 491.41,-92.9 562.23,-76.13"/>
<polygon fill="midnightblue" stroke="midnightblue" points="563.31,-79.47 572.22,-73.74 561.68,-72.67 563.31,-79.47"/>
</g>
<!-- Node3&#45;&gt;Node2 -->
<g id="edge3" class="edge">
<title>Node3&#45;&gt;Node2</title>
<path fill="none" stroke="midnightblue" d="M152.21,-56.44C127.69,-47.44 88.9,-33.19 61.3,-23.05"/>
<polygon fill="midnightblue" stroke="midnightblue" points="62.28,-19.68 51.68,-19.52 59.86,-26.25 62.28,-19.68"/>
</g>
<!-- Node3&#45;&gt;Node4 -->
<g id="edge4" class="edge">
<title>Node3&#45;&gt;Node4</title>
<path fill="none" stroke="midnightblue" d="M166.5,-56.32C158.31,-48.42 145.99,-36.55 136.03,-26.94"/>
<polygon fill="midnightblue" stroke="midnightblue" points="138.29,-24.26 128.66,-19.83 133.43,-29.29 138.29,-24.26"/>
</g>
<!-- Node3&#45;&gt;Node5 -->
<g id="edge5" class="edge">
<title>Node3&#45;&gt;Node5</title>
<path fill="none" stroke="midnightblue" d="M194.04,-56.44C213.12,-47.64 243.07,-33.81 264.94,-23.72"/>
<polygon fill="midnightblue" stroke="midnightblue" points="266.43,-26.88 274.05,-19.52 263.5,-20.53 266.43,-26.88"/>
</g>
<!-- Node6 -->
<g id="node6" class="node">
<title>Node6</title>
<g id="a_node6"><a xlink:title=" ">
<polygon fill="none" stroke="#bfbfbf" points="182,-0.5 182,-19.5 223,-19.5 223,-0.5 182,-0.5"/>
<text text-anchor="middle" x="202.5" y="-7.5" font-family="Helvetica,sans-Serif" font-size="10.00">string</text>
</a>
</g>
</g>
<!-- Node3&#45;&gt;Node6 -->
<g id="edge6" class="edge">
<title>Node3&#45;&gt;Node6</title>
<path fill="none" stroke="midnightblue" d="M179.96,-56.08C183.65,-48.69 189.02,-37.95 193.59,-28.81"/>
<polygon fill="midnightblue" stroke="midnightblue" points="196.78,-30.26 198.12,-19.75 190.52,-27.13 196.78,-30.26"/>
</g>
</g>
</svg>
