<?xml version="1.0" encoding="UTF-8" standalone="no"?>
<!DOCTYPE svg PUBLIC "-//W3C//DTD SVG 1.1//EN"
 "http://www.w3.org/Graphics/SVG/1.1/DTD/svg11.dtd">
<!-- Generated by graphviz version 2.44.0 ()
 -->
<!-- Title: libs/spic&#45;engine/includes/spic&#45;api&#45;headers/Input.hpp Pages: 1 -->
<!--zoomable 184 -->
<svg id="main" version="1.1" xmlns="http://www.w3.org/2000/svg" xmlns:xlink="http://www.w3.org/1999/xlink" xml:space="preserve" onload="init(evt)">
<style type="text/css"><![CDATA[
.edge:hover path { stroke: red; }
.edge:hover polygon { stroke: red; fill: red; }
]]></style>
<script type="text/javascript"><![CDATA[
var edges = document.getElementsByTagName('g');
if (edges && edges.length) {
  for (var i=0;i<edges.length;i++) {
    if (edges[i].id.substr(0,4)=='edge') {
      edges[i].setAttribute('class','edge');
    }
  }
}
]]></script>
        <defs>
                <circle id="rim" cx="0" cy="0" r="7"/>
                <circle id="rim2" cx="0" cy="0" r="3.5"/>
                <g id="zoomPlus">
                        <use xlink:href="#rim" fill="#404040">
                                <set attributeName="fill" to="#808080" begin="zoomplus.mouseover" end="zoomplus.mouseout"/>
                        </use>
                        <path d="M-4,0h8M0,-4v8" fill="none" stroke="white" stroke-width="1.5" pointer-events="none"/>
                </g>
                <g id="zoomMin">
                        <use xlink:href="#rim" fill="#404040">
                                <set attributeName="fill" to="#808080" begin="zoomminus.mouseover" end="zoomminus.mouseout"/>
                        </use>
                        <path d="M-4,0h8" fill="none" stroke="white" stroke-width="1.5" pointer-events="none"/>
                </g>
                <g id="dirArrow">
                        <path fill="none" stroke="white" stroke-width="1.5" d="M0,-3.0v7 M-2.5,-0.5L0,-3.0L2.5,-0.5"/>
                </g>
               <g id="resetDef">
                       <use xlink:href="#rim2" fill="#404040">
                               <set attributeName="fill" to="#808080" begin="reset.mouseover" end="reset.mouseout"/>
                       </use>
               </g>
        </defs>

<script type="text/javascript">
var viewWidth = 3112;
var viewHeight = 184;
var sectionId = 'dynsection-1';
</script>
<script xlink:href="svgpan.js"/>
<svg id="graph" class="graph">
<g id="viewport">
<title>libs/spic&#45;engine/includes/spic&#45;api&#45;headers/Input.hpp</title>
<!-- Node1 -->
<g id="node1" class="node">
<title>Node1</title>
<g id="a_node1"><a xlink:title=" ">
<polygon fill="#bfbfbf" stroke="black" points="1428,-145.5 1428,-175.5 1562,-175.5 1562,-145.5 1428,-145.5"/>
<text text-anchor="start" x="1436" y="-163.5" font-family="Helvetica,sans-Serif" font-size="10.00">libs/spic&#45;engine/includes</text>
<text text-anchor="middle" x="1495" y="-152.5" font-family="Helvetica,sans-Serif" font-size="10.00">/spic&#45;api&#45;headers/Input.hpp</text>
</a>
</g>
</g>
<!-- Node2 -->
<g id="node2" class="node">
<title>Node2</title>
<g id="a_node2"><a xlink:href="CheatManager_8cpp.html" target="_top" xlink:title=" ">
<polygon fill="none" stroke="black" points="0,-0.5 0,-30.5 106,-30.5 106,-0.5 0,-0.5"/>
<text text-anchor="start" x="8" y="-18.5" font-family="Helvetica,sans-Serif" font-size="10.00">src/Scripts/Common</text>
<text text-anchor="middle" x="53" y="-7.5" font-family="Helvetica,sans-Serif" font-size="10.00">/CheatManager.cpp</text>
</a>
</g>
</g>
<!-- Node1&#45;&gt;Node2 -->
<g id="edge1" class="edge">
<title>Node1&#45;&gt;Node2</title>
<path fill="none" stroke="midnightblue" d="M1417.4,-158.57C1134.83,-154.95 174.26,-140.36 117,-109 85.66,-91.83 66.42,-51.94 58,-30.59"/>
<polygon fill="midnightblue" stroke="midnightblue" points="1417.52,-162.07 1427.57,-158.7 1417.61,-155.07 1417.52,-162.07"/>
</g>
<!-- Node3 -->
<g id="node3" class="node">
<title>Node3</title>
<g id="a_node3"><a xlink:href="CheatManager_8hpp.html" target="_top" xlink:title=" ">
<polygon fill="none" stroke="black" points="126,-73 126,-103 232,-103 232,-73 126,-73"/>
<text text-anchor="start" x="134" y="-91" font-family="Helvetica,sans-Serif" font-size="10.00">src/Scripts/Common</text>
<text text-anchor="middle" x="179" y="-80" font-family="Helvetica,sans-Serif" font-size="10.00">/CheatManager.hpp</text>
</a>
</g>
</g>
<!-- Node1&#45;&gt;Node3 -->
<g id="edge2" class="edge">
<title>Node1&#45;&gt;Node3</title>
<path fill="none" stroke="midnightblue" d="M1417.49,-159.13C1180.62,-157.56 468.62,-149.51 241,-109 233.09,-107.59 224.8,-105.43 216.95,-103.03"/>
<polygon fill="midnightblue" stroke="midnightblue" points="1417.71,-162.63 1427.74,-159.19 1417.76,-155.63 1417.71,-162.63"/>
</g>
<!-- Node6 -->
<g id="node6" class="node">
<title>Node6</title>
<g id="a_node6"><a xlink:href="HealthBehaviour_8cpp.html" target="_top" xlink:title=" ">
<polygon fill="none" stroke="black" points="250,-73 250,-103 360,-103 360,-73 250,-73"/>
<text text-anchor="start" x="258" y="-91" font-family="Helvetica,sans-Serif" font-size="10.00">src/Scripts/Common</text>
<text text-anchor="middle" x="305" y="-80" font-family="Helvetica,sans-Serif" font-size="10.00">/HealthBehaviour.cpp</text>
</a>
</g>
</g>
<!-- Node1&#45;&gt;Node6 -->
<g id="edge6" class="edge">
<title>Node1&#45;&gt;Node6</title>
<path fill="none" stroke="midnightblue" d="M1417.57,-158.62C1197.46,-155.72 571.05,-144.49 369,-109 360.97,-107.59 352.55,-105.46 344.55,-103.1"/>
<polygon fill="midnightblue" stroke="midnightblue" points="1417.7,-162.13 1427.74,-158.76 1417.79,-155.13 1417.7,-162.13"/>
</g>
<!-- Node7 -->
<g id="node7" class="node">
<title>Node7</title>
<g id="a_node7"><a xlink:href="MouseColliderScript_8cpp.html" target="_top" xlink:title=" ">
<polygon fill="none" stroke="black" points="378.5,-73 378.5,-103 503.5,-103 503.5,-73 378.5,-73"/>
<text text-anchor="start" x="386.5" y="-91" font-family="Helvetica,sans-Serif" font-size="10.00">src/Scripts/Common</text>
<text text-anchor="middle" x="441" y="-80" font-family="Helvetica,sans-Serif" font-size="10.00">/MouseColliderScript.cpp</text>
</a>
</g>
</g>
<!-- Node1&#45;&gt;Node7 -->
<g id="edge7" class="edge">
<title>Node1&#45;&gt;Node7</title>
<path fill="none" stroke="midnightblue" d="M1417.87,-157.76C1217.84,-152.9 685.92,-137.59 512,-109 503.15,-107.55 493.84,-105.39 484.97,-103.03"/>
<polygon fill="midnightblue" stroke="midnightblue" points="1417.92,-161.26 1428,-158.01 1418.09,-154.27 1417.92,-161.26"/>
</g>
<!-- Node8 -->
<g id="node8" class="node">
<title>Node8</title>
<g id="a_node8"><a xlink:href="AirstrikeAbilityBehaviour_8cpp.html" target="_top" xlink:title=" ">
<polygon fill="none" stroke="black" points="521.5,-73 521.5,-103 664.5,-103 664.5,-73 521.5,-73"/>
<text text-anchor="start" x="529.5" y="-91" font-family="Helvetica,sans-Serif" font-size="10.00">src/Scripts/Heroes</text>
<text text-anchor="middle" x="593" y="-80" font-family="Helvetica,sans-Serif" font-size="10.00">/AirstrikeAbilityBehaviour.cpp</text>
</a>
</g>
</g>
<!-- Node1&#45;&gt;Node8 -->
<g id="edge8" class="edge">
<title>Node1&#45;&gt;Node8</title>
<path fill="none" stroke="midnightblue" d="M1417.75,-159.46C1271.5,-158.36 944.5,-150.91 673,-109 663.24,-107.49 652.93,-105.35 643.07,-103.01"/>
<polygon fill="midnightblue" stroke="midnightblue" points="1417.94,-162.97 1427.96,-159.53 1417.99,-155.97 1417.94,-162.97"/>
</g>
<!-- Node9 -->
<g id="node9" class="node">
<title>Node9</title>
<g id="a_node9"><a xlink:href="EnemySuicideAbilityBehaviour_8cpp.html" target="_top" xlink:title=" ">
<polygon fill="none" stroke="black" points="682.5,-73 682.5,-103 851.5,-103 851.5,-73 682.5,-73"/>
<text text-anchor="start" x="690.5" y="-91" font-family="Helvetica,sans-Serif" font-size="10.00">src/Scripts/Heroes</text>
<text text-anchor="middle" x="767" y="-80" font-family="Helvetica,sans-Serif" font-size="10.00">/EnemySuicideAbilityBehaviour.cpp</text>
</a>
</g>
</g>
<!-- Node1&#45;&gt;Node9 -->
<g id="edge9" class="edge">
<title>Node1&#45;&gt;Node9</title>
<path fill="none" stroke="midnightblue" d="M1417.41,-156.58C1297.54,-151.32 1060.34,-138.02 861,-109 850.02,-107.4 838.4,-105.28 827.22,-103.02"/>
<polygon fill="midnightblue" stroke="midnightblue" points="1417.44,-160.08 1427.58,-157.01 1417.74,-153.09 1417.44,-160.08"/>
</g>
<!-- Node10 -->
<g id="node10" class="node">
<title>Node10</title>
<g id="a_node10"><a xlink:href="HealAbilityBehaviour_8cpp.html" target="_top" xlink:title=" ">
<polygon fill="none" stroke="black" points="870,-73 870,-103 998,-103 998,-73 870,-73"/>
<text text-anchor="start" x="878" y="-91" font-family="Helvetica,sans-Serif" font-size="10.00">src/Scripts/Heroes</text>
<text text-anchor="middle" x="934" y="-80" font-family="Helvetica,sans-Serif" font-size="10.00">/HealAbilityBehaviour.cpp</text>
</a>
</g>
</g>
<!-- Node1&#45;&gt;Node10 -->
<g id="edge10" class="edge">
<title>Node1&#45;&gt;Node10</title>
<path fill="none" stroke="midnightblue" d="M1417.82,-155.44C1321.14,-149.45 1150.72,-135.94 1007,-109 998.48,-107.4 989.49,-105.3 980.86,-103.06"/>
<polygon fill="midnightblue" stroke="midnightblue" points="1417.61,-158.93 1427.8,-156.05 1418.03,-151.95 1417.61,-158.93"/>
</g>
<!-- Node11 -->
<g id="node11" class="node">
<title>Node11</title>
<g id="a_node11"><a xlink:href="IncreaseTowerFireRateAbilityBehaviour_8cpp.html" target="_top" xlink:title=" ">
<polygon fill="none" stroke="black" points="1016.5,-67.5 1016.5,-108.5 1163.5,-108.5 1163.5,-67.5 1016.5,-67.5"/>
<text text-anchor="start" x="1024.5" y="-96.5" font-family="Helvetica,sans-Serif" font-size="10.00">src/Scripts/Heroes</text>
<text text-anchor="start" x="1024.5" y="-85.5" font-family="Helvetica,sans-Serif" font-size="10.00">/IncreaseTowerFireRateAbility</text>
<text text-anchor="middle" x="1090" y="-74.5" font-family="Helvetica,sans-Serif" font-size="10.00">Behaviour.cpp</text>
</a>
</g>
</g>
<!-- Node1&#45;&gt;Node11 -->
<g id="edge11" class="edge">
<title>Node1&#45;&gt;Node11</title>
<path fill="none" stroke="midnightblue" d="M1417.58,-149.15C1352.16,-139.98 1256.11,-125.5 1173,-109 1169.95,-108.39 1166.84,-107.75 1163.7,-107.09"/>
<polygon fill="midnightblue" stroke="midnightblue" points="1417.42,-152.66 1427.81,-150.58 1418.39,-145.73 1417.42,-152.66"/>
</g>
<!-- Node12 -->
<g id="node12" class="node">
<title>Node12</title>
<g id="a_node12"><a xlink:href="InvisibilityAbilityBehaviour_8cpp.html" target="_top" xlink:title=" ">
<polygon fill="none" stroke="black" points="1182,-73 1182,-103 1332,-103 1332,-73 1182,-73"/>
<text text-anchor="start" x="1190" y="-91" font-family="Helvetica,sans-Serif" font-size="10.00">src/Scripts/Heroes</text>
<text text-anchor="middle" x="1257" y="-80" font-family="Helvetica,sans-Serif" font-size="10.00">/InvisibilityAbilityBehaviour.cpp</text>
</a>
</g>
</g>
<!-- Node1&#45;&gt;Node12 -->
<g id="edge12" class="edge">
<title>Node1&#45;&gt;Node12</title>
<path fill="none" stroke="midnightblue" d="M1437.91,-142.59C1397.18,-130.52 1343.03,-114.48 1304.62,-103.11"/>
<polygon fill="midnightblue" stroke="midnightblue" points="1437.11,-146 1447.69,-145.49 1439.1,-139.29 1437.11,-146"/>
</g>
<!-- Node13 -->
<g id="node13" class="node">
<title>Node13</title>
<g id="a_node13"><a xlink:href="UserAttackBehaviour_8cpp.html" target="_top" xlink:title=" ">
<polygon fill="none" stroke="black" points="1350.5,-73 1350.5,-103 1481.5,-103 1481.5,-73 1350.5,-73"/>
<text text-anchor="start" x="1358.5" y="-91" font-family="Helvetica,sans-Serif" font-size="10.00">src/Scripts/Heroes</text>
<text text-anchor="middle" x="1416" y="-80" font-family="Helvetica,sans-Serif" font-size="10.00">/UserAttackBehaviour.cpp</text>
</a>
</g>
</g>
<!-- Node1&#45;&gt;Node13 -->
<g id="edge13" class="edge">
<title>Node1&#45;&gt;Node13</title>
<path fill="none" stroke="midnightblue" d="M1471.43,-138.46C1458.59,-127 1443.05,-113.14 1431.69,-103"/>
<polygon fill="midnightblue" stroke="midnightblue" points="1469.22,-141.19 1479.01,-145.23 1473.88,-135.96 1469.22,-141.19"/>
</g>
<!-- Node14 -->
<g id="node14" class="node">
<title>Node14</title>
<g id="a_node14"><a xlink:href="UserMovementBehaviour_8cpp.html" target="_top" xlink:title=" ">
<polygon fill="none" stroke="black" points="1500,-73 1500,-103 1648,-103 1648,-73 1500,-73"/>
<text text-anchor="start" x="1508" y="-91" font-family="Helvetica,sans-Serif" font-size="10.00">src/Scripts/Heroes</text>
<text text-anchor="middle" x="1574" y="-80" font-family="Helvetica,sans-Serif" font-size="10.00">/UserMovementBehaviour.cpp</text>
</a>
</g>
</g>
<!-- Node1&#45;&gt;Node14 -->
<g id="edge14" class="edge">
<title>Node1&#45;&gt;Node14</title>
<path fill="none" stroke="midnightblue" d="M1518.57,-138.46C1531.41,-127 1546.95,-113.14 1558.31,-103"/>
<polygon fill="midnightblue" stroke="midnightblue" points="1516.12,-135.96 1510.99,-145.23 1520.78,-141.19 1516.12,-135.96"/>
</g>
<!-- Node15 -->
<g id="node15" class="node">
<title>Node15</title>
<g id="a_node15"><a xlink:href="CloseSceneBehaviour_8cpp.html" target="_top" xlink:title=" ">
<polygon fill="none" stroke="black" points="1666,-73 1666,-103 1812,-103 1812,-73 1666,-73"/>
<text text-anchor="start" x="1674" y="-91" font-family="Helvetica,sans-Serif" font-size="10.00">src/Scripts/Menu/CloseScene</text>
<text text-anchor="middle" x="1739" y="-80" font-family="Helvetica,sans-Serif" font-size="10.00">Behaviour.cpp</text>
</a>
</g>
</g>
<!-- Node1&#45;&gt;Node15 -->
<g id="edge15" class="edge">
<title>Node1&#45;&gt;Node15</title>
<path fill="none" stroke="midnightblue" d="M1553.27,-142.66C1595.05,-130.59 1650.72,-114.51 1690.18,-103.11"/>
<polygon fill="midnightblue" stroke="midnightblue" points="1552.13,-139.35 1543.5,-145.49 1554.08,-146.07 1552.13,-139.35"/>
</g>
<!-- Node16 -->
<g id="node16" class="node">
<title>Node16</title>
<g id="a_node16"><a xlink:href="PauseSceneBehaviour_8cpp.html" target="_top" xlink:title=" ">
<polygon fill="none" stroke="black" points="1830.5,-73 1830.5,-103 1979.5,-103 1979.5,-73 1830.5,-73"/>
<text text-anchor="start" x="1838.5" y="-91" font-family="Helvetica,sans-Serif" font-size="10.00">src/Scripts/Menu/PauseScene</text>
<text text-anchor="middle" x="1905" y="-80" font-family="Helvetica,sans-Serif" font-size="10.00">Behaviour.cpp</text>
</a>
</g>
</g>
<!-- Node1&#45;&gt;Node16 -->
<g id="edge16" class="edge">
<title>Node1&#45;&gt;Node16</title>
<path fill="none" stroke="midnightblue" d="M1572.03,-149.34C1638.28,-140.18 1736.27,-125.62 1821,-109 1829.97,-107.24 1839.44,-105.18 1848.65,-103.07"/>
<polygon fill="midnightblue" stroke="midnightblue" points="1571.51,-145.88 1562.08,-150.71 1572.46,-152.81 1571.51,-145.88"/>
</g>
<!-- Node17 -->
<g id="node17" class="node">
<title>Node17</title>
<g id="a_node17"><a xlink:href="Button_8cpp.html" target="_top" xlink:title=" ">
<polygon fill="none" stroke="black" points="1997.5,-73 1997.5,-103 2098.5,-103 2098.5,-73 1997.5,-73"/>
<text text-anchor="start" x="2005.5" y="-91" font-family="Helvetica,sans-Serif" font-size="10.00">libs/spic&#45;engine/src</text>
<text text-anchor="middle" x="2048" y="-80" font-family="Helvetica,sans-Serif" font-size="10.00">/Api/Button.cpp</text>
</a>
</g>
</g>
<!-- Node1&#45;&gt;Node17 -->
<g id="edge17" class="edge">
<title>Node1&#45;&gt;Node17</title>
<path fill="none" stroke="midnightblue" d="M1572.41,-156.82C1670.19,-152.25 1843.19,-140.15 1988,-109 1995.19,-107.45 2002.73,-105.35 2009.94,-103.08"/>
<polygon fill="midnightblue" stroke="midnightblue" points="1572.14,-153.33 1562.31,-157.28 1572.46,-160.32 1572.14,-153.33"/>
</g>
<!-- Node18 -->
<g id="node18" class="node">
<title>Node18</title>
<g id="a_node18"><a xlink:href="Input_8cpp.html" target="_top" xlink:title=" ">
<polygon fill="none" stroke="black" points="2114.5,-0.5 2114.5,-30.5 2215.5,-30.5 2215.5,-0.5 2114.5,-0.5"/>
<text text-anchor="start" x="2122.5" y="-18.5" font-family="Helvetica,sans-Serif" font-size="10.00">libs/spic&#45;engine/src</text>
<text text-anchor="middle" x="2165" y="-7.5" font-family="Helvetica,sans-Serif" font-size="10.00">/Api/Input.cpp</text>
</a>
</g>
</g>
<!-- Node1&#45;&gt;Node18 -->
<g id="edge18" class="edge">
<title>Node1&#45;&gt;Node18</title>
<path fill="none" stroke="midnightblue" d="M1572.46,-156.96C1726.93,-151.35 2062.34,-136.17 2107,-109 2136.47,-91.07 2153.35,-51.88 2160.65,-30.72"/>
<polygon fill="midnightblue" stroke="midnightblue" points="1571.97,-153.48 1562.1,-157.33 1572.22,-160.47 1571.97,-153.48"/>
</g>
<!-- Node19 -->
<g id="node19" class="node">
<title>Node19</title>
<g id="a_node19"><a xlink:href="ButtonMouseListener_8cpp.html" target="_top" xlink:title=" ">
<polygon fill="none" stroke="black" points="2155,-73 2155,-103 2329,-103 2329,-73 2155,-73"/>
<text text-anchor="start" x="2163" y="-91" font-family="Helvetica,sans-Serif" font-size="10.00">libs/spic&#45;engine/src</text>
<text text-anchor="middle" x="2242" y="-80" font-family="Helvetica,sans-Serif" font-size="10.00">/Listeners/ButtonMouseListener.cpp</text>
</a>
</g>
</g>
<!-- Node1&#45;&gt;Node19 -->
<g id="edge19" class="edge">
<title>Node1&#45;&gt;Node19</title>
<path fill="none" stroke="midnightblue" d="M1572.56,-156.38C1694.15,-150.84 1936.88,-137.09 2141,-109 2152.69,-107.39 2165.06,-105.28 2176.99,-103.04"/>
<polygon fill="midnightblue" stroke="midnightblue" points="1572.07,-152.9 1562.24,-156.85 1572.38,-159.89 1572.07,-152.9"/>
</g>
<!-- Node20 -->
<g id="node20" class="node">
<title>Node20</title>
<g id="a_node20"><a xlink:href="InputManager_8hpp.html" target="_top" xlink:title=" ">
<polygon fill="none" stroke="black" points="2347.5,-73 2347.5,-103 2490.5,-103 2490.5,-73 2347.5,-73"/>
<text text-anchor="start" x="2355.5" y="-91" font-family="Helvetica,sans-Serif" font-size="10.00">libs/spic&#45;engine/src</text>
<text text-anchor="middle" x="2419" y="-80" font-family="Helvetica,sans-Serif" font-size="10.00">/Managers/InputManager.hpp</text>
</a>
</g>
</g>
<!-- Node1&#45;&gt;Node20 -->
<g id="edge20" class="edge">
<title>Node1&#45;&gt;Node20</title>
<path fill="none" stroke="midnightblue" d="M1572.51,-159.56C1721.62,-158.64 2058.43,-151.52 2338,-109 2347.88,-107.5 2358.32,-105.35 2368.3,-103.02"/>
<polygon fill="midnightblue" stroke="midnightblue" points="1572.08,-156.06 1562.1,-159.62 1572.12,-163.06 1572.08,-156.06"/>
</g>
<!-- Node23 -->
<g id="node23" class="node">
<title>Node23</title>
<g id="a_node23"><a xlink:href="FpsCounterSubsystem_8cpp.html" target="_top" xlink:title=" ">
<polygon fill="none" stroke="black" points="2509,-73 2509,-103 2703,-103 2703,-73 2509,-73"/>
<text text-anchor="start" x="2517" y="-91" font-family="Helvetica,sans-Serif" font-size="10.00">libs/spic&#45;engine/src</text>
<text text-anchor="middle" x="2606" y="-80" font-family="Helvetica,sans-Serif" font-size="10.00">/Subsystems/FpsCounterSubsystem.cpp</text>
</a>
</g>
</g>
<!-- Node1&#45;&gt;Node23 -->
<g id="edge24" class="edge">
<title>Node1&#45;&gt;Node23</title>
<path fill="none" stroke="midnightblue" d="M1572.27,-159.15C1741.04,-157.6 2155.05,-149.61 2499,-109 2511.86,-107.48 2525.49,-105.34 2538.57,-103.03"/>
<polygon fill="midnightblue" stroke="midnightblue" points="1572.2,-155.65 1562.23,-159.23 1572.26,-162.65 1572.2,-155.65"/>
</g>
<!-- Node24 -->
<g id="node24" class="node">
<title>Node24</title>
<g id="a_node24"><a xlink:href="GameSpeedSubsystem_8cpp.html" target="_top" xlink:title=" ">
<polygon fill="none" stroke="black" points="2721.5,-73 2721.5,-103 2918.5,-103 2918.5,-73 2721.5,-73"/>
<text text-anchor="start" x="2729.5" y="-91" font-family="Helvetica,sans-Serif" font-size="10.00">libs/spic&#45;engine/src</text>
<text text-anchor="middle" x="2820" y="-80" font-family="Helvetica,sans-Serif" font-size="10.00">/Subsystems/GameSpeedSubsystem.cpp</text>
</a>
</g>
</g>
<!-- Node1&#45;&gt;Node24 -->
<g id="edge25" class="edge">
<title>Node1&#45;&gt;Node24</title>
<path fill="none" stroke="midnightblue" d="M1572.25,-160.08C1765.17,-160.71 2283.38,-157.33 2712,-109 2725.17,-107.51 2739.15,-105.36 2752.53,-103.01"/>
<polygon fill="midnightblue" stroke="midnightblue" points="1572.22,-156.58 1562.21,-160.04 1572.2,-163.58 1572.22,-156.58"/>
</g>
<!-- Node25 -->
<g id="node25" class="node">
<title>Node25</title>
<g id="a_node25"><a xlink:href="Api_8hpp.html" target="_top" xlink:title=" ">
<polygon fill="none" stroke="black" points="2937,-73 2937,-103 3063,-103 3063,-73 2937,-73"/>
<text text-anchor="start" x="2945" y="-91" font-family="Helvetica,sans-Serif" font-size="10.00">libs/spic&#45;engine/includes</text>
<text text-anchor="middle" x="3000" y="-80" font-family="Helvetica,sans-Serif" font-size="10.00">/spic&#45;api&#45;headers/Api.hpp</text>
</a>
</g>
</g>
<!-- Node1&#45;&gt;Node25 -->
<g id="edge26" class="edge">
<title>Node1&#45;&gt;Node25</title>
<path fill="none" stroke="midnightblue" d="M1572.24,-159.17C1830.61,-157.71 2663.21,-149.85 2928,-109 2937.1,-107.6 2946.7,-105.43 2955.8,-103.04"/>
<polygon fill="midnightblue" stroke="midnightblue" points="1572.18,-155.67 1562.2,-159.23 1572.22,-162.67 1572.18,-155.67"/>
</g>
<!-- Node3&#45;&gt;Node2 -->
<g id="edge5" class="edge">
<title>Node3&#45;&gt;Node2</title>
<path fill="none" stroke="midnightblue" d="M144.86,-67.9C123.81,-56.12 97.28,-41.28 78.15,-30.57"/>
<polygon fill="midnightblue" stroke="midnightblue" points="143.37,-71.07 153.8,-72.9 146.79,-64.97 143.37,-71.07"/>
</g>
<!-- Node4 -->
<g id="node4" class="node">
<title>Node4</title>
<g id="a_node4"><a xlink:href="LevelScene_8cpp.html" target="_top" xlink:title=" ">
<polygon fill="none" stroke="black" points="124.5,-6 124.5,-25 263.5,-25 263.5,-6 124.5,-6"/>
<text text-anchor="middle" x="194" y="-13" font-family="Helvetica,sans-Serif" font-size="10.00">src/Scenes/LevelScene.cpp</text>
</a>
</g>
</g>
<!-- Node3&#45;&gt;Node4 -->
<g id="edge3" class="edge">
<title>Node3&#45;&gt;Node4</title>
<path fill="none" stroke="midnightblue" d="M184.19,-62.59C186.93,-49.71 190.13,-34.7 192.11,-25.39"/>
<polygon fill="midnightblue" stroke="midnightblue" points="180.69,-62.22 182.04,-72.73 187.54,-63.68 180.69,-62.22"/>
</g>
<!-- Node5 -->
<g id="node5" class="node">
<title>Node5</title>
<g id="a_node5"><a xlink:href="LevelSelectionScene_8cpp.html" target="_top" xlink:title=" ">
<polygon fill="none" stroke="black" points="282,-0.5 282,-30.5 416,-30.5 416,-0.5 282,-0.5"/>
<text text-anchor="start" x="290" y="-18.5" font-family="Helvetica,sans-Serif" font-size="10.00">src/Scenes/LevelSelection</text>
<text text-anchor="middle" x="349" y="-7.5" font-family="Helvetica,sans-Serif" font-size="10.00">Scene.cpp</text>
</a>
</g>
</g>
<!-- Node3&#45;&gt;Node5 -->
<g id="edge4" class="edge">
<title>Node3&#45;&gt;Node5</title>
<path fill="none" stroke="midnightblue" d="M222.41,-69C251.2,-57.06 288.44,-41.61 315.07,-30.57"/>
<polygon fill="midnightblue" stroke="midnightblue" points="220.89,-65.84 212.99,-72.9 223.57,-72.3 220.89,-65.84"/>
</g>
<!-- Node20&#45;&gt;Node18 -->
<g id="edge21" class="edge">
<title>Node20&#45;&gt;Node18</title>
<path fill="none" stroke="midnightblue" d="M2358.62,-70.24C2315.09,-58.16 2256.99,-42.03 2215.82,-30.61"/>
<polygon fill="midnightblue" stroke="midnightblue" points="2357.94,-73.69 2368.51,-72.99 2359.81,-66.94 2357.94,-73.69"/>
</g>
<!-- Node21 -->
<g id="node21" class="node">
<title>Node21</title>
<g id="a_node21"><a xlink:href="InputManager_8cpp.html" target="_top" xlink:title=" ">
<polygon fill="none" stroke="black" points="2271.5,-0.5 2271.5,-30.5 2414.5,-30.5 2414.5,-0.5 2271.5,-0.5"/>
<text text-anchor="start" x="2279.5" y="-18.5" font-family="Helvetica,sans-Serif" font-size="10.00">libs/spic&#45;engine/src</text>
<text text-anchor="middle" x="2343" y="-7.5" font-family="Helvetica,sans-Serif" font-size="10.00">/Managers/InputManager.cpp</text>
</a>
</g>
</g>
<!-- Node20&#45;&gt;Node21 -->
<g id="edge22" class="edge">
<title>Node20&#45;&gt;Node21</title>
<path fill="none" stroke="midnightblue" d="M2395.97,-65.64C2383.69,-54.24 2368.92,-40.54 2358.1,-30.5"/>
<polygon fill="midnightblue" stroke="midnightblue" points="2393.91,-68.5 2403.62,-72.73 2398.67,-63.37 2393.91,-68.5"/>
</g>
<!-- Node22 -->
<g id="node22" class="node">
<title>Node22</title>
<g id="a_node22"><a xlink:href="InputSubsystem_8cpp.html" target="_top" xlink:title=" ">
<polygon fill="none" stroke="black" points="2432.5,-0.5 2432.5,-30.5 2597.5,-30.5 2597.5,-0.5 2432.5,-0.5"/>
<text text-anchor="start" x="2440.5" y="-18.5" font-family="Helvetica,sans-Serif" font-size="10.00">libs/spic&#45;engine/src</text>
<text text-anchor="middle" x="2515" y="-7.5" font-family="Helvetica,sans-Serif" font-size="10.00">/Subsystems/InputSubsystem.cpp</text>
</a>
</g>
</g>
<!-- Node20&#45;&gt;Node22 -->
<g id="edge23" class="edge">
<title>Node20&#45;&gt;Node22</title>
<path fill="none" stroke="midnightblue" d="M2446.77,-66.61C2462.54,-55.03 2481.87,-40.83 2495.93,-30.5"/>
<polygon fill="midnightblue" stroke="midnightblue" points="2444.42,-63.99 2438.43,-72.73 2448.56,-69.64 2444.42,-63.99"/>
</g>
<!-- Node26 -->
<g id="node26" class="node">
<title>Node26</title>
<g id="a_node26"><a xlink:href="LevelController_8cpp.html" target="_top" xlink:title=" ">
<polygon fill="none" stroke="black" points="2848,-6 2848,-25 3014,-25 3014,-6 2848,-6"/>
<text text-anchor="middle" x="2931" y="-13" font-family="Helvetica,sans-Serif" font-size="10.00">src/Controllers/LevelController.cpp</text>
</a>
</g>
</g>
<!-- Node25&#45;&gt;Node26 -->
<g id="edge27" class="edge">
<title>Node25&#45;&gt;Node26</title>
<path fill="none" stroke="midnightblue" d="M2978.72,-65.26C2965.59,-51.84 2949.45,-35.35 2939.7,-25.39"/>
<polygon fill="midnightblue" stroke="midnightblue" points="2976.54,-68.03 2986.04,-72.73 2981.54,-63.14 2976.54,-68.03"/>
</g>
<!-- Node27 -->
<g id="node27" class="node">
<title>Node27</title>
<g id="a_node27"><a xlink:href="main_8cpp.html" target="_top" xlink:title=" ">
<polygon fill="none" stroke="black" points="3032,-6 3032,-25 3104,-25 3104,-6 3032,-6"/>
<text text-anchor="middle" x="3068" y="-13" font-family="Helvetica,sans-Serif" font-size="10.00">src/main.cpp</text>
</a>
</g>
</g>
<!-- Node25&#45;&gt;Node27 -->
<g id="edge28" class="edge">
<title>Node25&#45;&gt;Node27</title>
<path fill="none" stroke="midnightblue" d="M3020.97,-65.26C3033.91,-51.84 3049.82,-35.35 3059.42,-25.39"/>
<polygon fill="midnightblue" stroke="midnightblue" points="3018.18,-63.11 3013.76,-72.73 3023.22,-67.97 3018.18,-63.11"/>
</g>
</g>
</svg>
        <g id="navigator" transform="translate(0 0)" fill="#404254">
                <rect fill="#f2f5e9" fill-opacity="0.5" stroke="#606060" stroke-width=".5" x="0" y="0" width="60" height="60"/>
                <use id="zoomplus" xlink:href="#zoomPlus" x="17" y="9" onmousedown="handleZoom(evt,'in')"/>
                <use id="zoomminus" xlink:href="#zoomMin" x="42" y="9" onmousedown="handleZoom(evt,'out')"/>
                <use id="reset" xlink:href="#resetDef" x="30" y="36" onmousedown="handleReset()"/>
                <g id="arrowUp" xlink:href="#dirArrow" transform="translate(30 24)" onmousedown="handlePan(0,-1)">
                  <use xlink:href="#rim" fill="#404040">
                        <set attributeName="fill" to="#808080" begin="arrowUp.mouseover" end="arrowUp.mouseout"/>
                  </use>
                  <path fill="none" stroke="white" stroke-width="1.5" d="M0,-3.0v7 M-2.5,-0.5L0,-3.0L2.5,-0.5"/>
                </g>
                <g id="arrowRight" xlink:href="#dirArrow" transform="rotate(90) translate(36 -43)" onmousedown="handlePan(1,0)">
                  <use xlink:href="#rim" fill="#404040">
                        <set attributeName="fill" to="#808080" begin="arrowRight.mouseover" end="arrowRight.mouseout"/>
                  </use>
                  <path fill="none" stroke="white" stroke-width="1.5" d="M0,-3.0v7 M-2.5,-0.5L0,-3.0L2.5,-0.5"/>
                </g>
                <g id="arrowDown" xlink:href="#dirArrow" transform="rotate(180) translate(-30 -48)" onmousedown="handlePan(0,1)">
                  <use xlink:href="#rim" fill="#404040">
                        <set attributeName="fill" to="#808080" begin="arrowDown.mouseover" end="arrowDown.mouseout"/>
                  </use>
                  <path fill="none" stroke="white" stroke-width="1.5" d="M0,-3.0v7 M-2.5,-0.5L0,-3.0L2.5,-0.5"/>
                </g>
                <g id="arrowLeft" xlink:href="#dirArrow" transform="rotate(270) translate(-36 17)" onmousedown="handlePan(-1,0)">
                  <use xlink:href="#rim" fill="#404040">
                        <set attributeName="fill" to="#808080" begin="arrowLeft.mouseover" end="arrowLeft.mouseout"/>
                  </use>
                  <path fill="none" stroke="white" stroke-width="1.5" d="M0,-3.0v7 M-2.5,-0.5L0,-3.0L2.5,-0.5"/>
                </g>
        </g>
        <svg viewBox="0 0 15 15" width="100%" height="30px" preserveAspectRatio="xMaxYMin meet">
         <g id="arrow_out" transform="scale(0.3 0.3)">
          <a xlink:href="Input_8hpp__dep__incl_org.svg" target="_base">
           <rect id="button" ry="5" rx="5" y="6" x="6" height="38" width="38"
                fill="#f2f5e9" fill-opacity="0.5" stroke="#606060" stroke-width="1.0"/>
           <path id="arrow"
             d="M 11.500037,31.436501 C 11.940474,20.09759 22.043105,11.32322 32.158766,21.979434 L 37.068811,17.246167 C 37.068811,17.246167 37.088388,32 37.088388,32 L 22.160133,31.978069 C 22.160133,31.978069 26.997745,27.140456 26.997745,27.140456 C 18.528582,18.264221 13.291696,25.230495 11.500037,31.436501 z"
             style="fill:#404040;"/>
          </a>
         </g>
        </svg>
</svg>
