<?xml version="1.0" encoding="UTF-8" standalone="no"?>
<!DOCTYPE svg PUBLIC "-//W3C//DTD SVG 1.1//EN"
 "http://www.w3.org/Graphics/SVG/1.1/DTD/svg11.dtd">
<!-- Generated by graphviz version 2.44.0 ()
 -->
<!-- Title: libs/spic&#45;engine/src/Managers/InputManager.cpp Pages: 1 -->
<svg width="797pt" height="263pt"
 viewBox="0.00 0.00 797.00 263.00" xmlns="http://www.w3.org/2000/svg" xmlns:xlink="http://www.w3.org/1999/xlink">
<g id="graph0" class="graph" transform="scale(1 1) rotate(0) translate(4 259)">
<title>libs/spic&#45;engine/src/Managers/InputManager.cpp</title>
<!-- Node1 -->
<g id="node1" class="node">
<title>Node1</title>
<g id="a_node1"><a xlink:title=" ">
<polygon fill="#bfbfbf" stroke="black" points="533.5,-224.5 533.5,-254.5 676.5,-254.5 676.5,-224.5 533.5,-224.5"/>
<text text-anchor="start" x="541.5" y="-242.5" font-family="Helvetica,sans-Serif" font-size="10.00">libs/spic&#45;engine/src</text>
<text text-anchor="middle" x="605" y="-231.5" font-family="Helvetica,sans-Serif" font-size="10.00">/Managers/InputManager.cpp</text>
</a>
</g>
</g>
<!-- Node2 -->
<g id="node2" class="node">
<title>Node2</title>
<g id="a_node2"><a xlink:href="InputManager_8hpp.html" target="_top" xlink:title=" ">
<polygon fill="none" stroke="black" points="235,-112.5 235,-131.5 329,-131.5 329,-112.5 235,-112.5"/>
<text text-anchor="middle" x="282" y="-119.5" font-family="Helvetica,sans-Serif" font-size="10.00">InputManager.hpp</text>
</a>
</g>
</g>
<!-- Node1&#45;&gt;Node2 -->
<g id="edge1" class="edge">
<title>Node1&#45;&gt;Node2</title>
<path fill="none" stroke="midnightblue" d="M565.72,-224.45C501.67,-201.55 375.86,-156.56 315.65,-135.03"/>
<polygon fill="midnightblue" stroke="midnightblue" points="316.48,-131.61 305.89,-131.54 314.13,-138.21 316.48,-131.61"/>
</g>
<!-- Node13 -->
<g id="node13" class="node">
<title>Node13</title>
<g id="a_node13"><a xlink:href="Camera_8hpp.html" target="_top" xlink:title=" ">
<polygon fill="none" stroke="black" points="602,-168.5 602,-187.5 670,-187.5 670,-168.5 602,-168.5"/>
<text text-anchor="middle" x="636" y="-175.5" font-family="Helvetica,sans-Serif" font-size="10.00">Camera.hpp</text>
</a>
</g>
</g>
<!-- Node1&#45;&gt;Node13 -->
<g id="edge15" class="edge">
<title>Node1&#45;&gt;Node13</title>
<path fill="none" stroke="midnightblue" d="M612.35,-224.4C616.67,-216.11 622.17,-205.55 626.77,-196.71"/>
<polygon fill="midnightblue" stroke="midnightblue" points="629.97,-198.14 631.49,-187.66 623.76,-194.91 629.97,-198.14"/>
</g>
<!-- Node14 -->
<g id="node14" class="node">
<title>Node14</title>
<g id="a_node14"><a xlink:href="GameObject_8hpp.html" target="_top" xlink:title=" ">
<polygon fill="none" stroke="black" points="560.5,-112.5 560.5,-131.5 649.5,-131.5 649.5,-112.5 560.5,-112.5"/>
<text text-anchor="middle" x="605" y="-119.5" font-family="Helvetica,sans-Serif" font-size="10.00">GameObject.hpp</text>
</a>
</g>
</g>
<!-- Node1&#45;&gt;Node14 -->
<g id="edge25" class="edge">
<title>Node1&#45;&gt;Node14</title>
<path fill="none" stroke="midnightblue" d="M600.03,-224.24C595.69,-210.03 590.44,-187.57 593,-168 594.16,-159.18 596.53,-149.63 598.87,-141.61"/>
<polygon fill="midnightblue" stroke="midnightblue" points="602.29,-142.42 601.91,-131.83 595.6,-140.34 602.29,-142.42"/>
</g>
<!-- Node18 -->
<g id="node18" class="node">
<title>Node18</title>
<g id="a_node18"><a xlink:title=" ">
<polygon fill="none" stroke="#bfbfbf" points="688,-168.5 688,-187.5 744,-187.5 744,-168.5 688,-168.5"/>
<text text-anchor="middle" x="716" y="-175.5" font-family="Helvetica,sans-Serif" font-size="10.00">algorithm</text>
</a>
</g>
</g>
<!-- Node1&#45;&gt;Node18 -->
<g id="edge26" class="edge">
<title>Node1&#45;&gt;Node18</title>
<path fill="none" stroke="midnightblue" d="M631.31,-224.4C649.26,-214.77 672.92,-202.09 690.67,-192.58"/>
<polygon fill="midnightblue" stroke="midnightblue" points="692.69,-195.47 699.85,-187.66 689.38,-189.3 692.69,-195.47"/>
</g>
<!-- Node3 -->
<g id="node3" class="node">
<title>Node3</title>
<g id="a_node3"><a xlink:href="Point_8hpp.html" target="_top" xlink:title=" ">
<polygon fill="none" stroke="black" points="316.5,-0.5 316.5,-19.5 373.5,-19.5 373.5,-0.5 316.5,-0.5"/>
<text text-anchor="middle" x="345" y="-7.5" font-family="Helvetica,sans-Serif" font-size="10.00">Point.hpp</text>
</a>
</g>
</g>
<!-- Node2&#45;&gt;Node3 -->
<g id="edge2" class="edge">
<title>Node2&#45;&gt;Node3</title>
<path fill="none" stroke="midnightblue" d="M286.94,-112.37C297.29,-94.3 321.42,-52.18 335.09,-28.31"/>
<polygon fill="midnightblue" stroke="midnightblue" points="338.15,-30.01 340.08,-19.59 332.07,-26.53 338.15,-30.01"/>
</g>
<!-- Node4 -->
<g id="node4" class="node">
<title>Node4</title>
<g id="a_node4"><a xlink:href="Input_8hpp.html" target="_top" xlink:title=" ">
<polygon fill="none" stroke="black" points="226,-56.5 226,-75.5 282,-75.5 282,-56.5 226,-56.5"/>
<text text-anchor="middle" x="254" y="-63.5" font-family="Helvetica,sans-Serif" font-size="10.00">Input.hpp</text>
</a>
</g>
</g>
<!-- Node2&#45;&gt;Node4 -->
<g id="edge3" class="edge">
<title>Node2&#45;&gt;Node4</title>
<path fill="none" stroke="midnightblue" d="M277.38,-112.08C273.54,-104.69 267.98,-93.95 263.24,-84.81"/>
<polygon fill="midnightblue" stroke="midnightblue" points="266.25,-83.02 258.54,-75.75 260.03,-86.24 266.25,-83.02"/>
</g>
<!-- Node5 -->
<g id="node5" class="node">
<title>Node5</title>
<g id="a_node5"><a xlink:href="IKeyListener_8hpp.html" target="_top" xlink:title=" ">
<polygon fill="none" stroke="black" points="209.5,-0.5 209.5,-19.5 298.5,-19.5 298.5,-0.5 209.5,-0.5"/>
<text text-anchor="middle" x="254" y="-7.5" font-family="Helvetica,sans-Serif" font-size="10.00">IKeyListener.hpp</text>
</a>
</g>
</g>
<!-- Node2&#45;&gt;Node5 -->
<g id="edge9" class="edge">
<title>Node2&#45;&gt;Node5</title>
<path fill="none" stroke="midnightblue" d="M260.19,-112.45C245.06,-105.22 226.05,-93.26 217,-76 208.03,-58.89 221.99,-39.71 235.25,-26.65"/>
<polygon fill="midnightblue" stroke="midnightblue" points="237.8,-29.06 242.8,-19.72 233.06,-23.9 237.8,-29.06"/>
</g>
<!-- Node6 -->
<g id="node6" class="node">
<title>Node6</title>
<g id="a_node6"><a xlink:href="IMouseListener_8hpp.html" target="_top" xlink:title=" ">
<polygon fill="none" stroke="black" points="90,-0.5 90,-19.5 192,-19.5 192,-0.5 90,-0.5"/>
<text text-anchor="middle" x="141" y="-7.5" font-family="Helvetica,sans-Serif" font-size="10.00">IMouseListener.hpp</text>
</a>
</g>
</g>
<!-- Node2&#45;&gt;Node6 -->
<g id="edge8" class="edge">
<title>Node2&#45;&gt;Node6</title>
<path fill="none" stroke="midnightblue" d="M266.78,-112.45C252.03,-103.92 229.26,-90.08 211,-76 191.02,-60.6 170.06,-40.54 156.35,-26.81"/>
<polygon fill="midnightblue" stroke="midnightblue" points="158.69,-24.2 149.17,-19.53 153.7,-29.11 158.69,-24.2"/>
</g>
<!-- Node8 -->
<g id="node8" class="node">
<title>Node8</title>
<g id="a_node8"><a xlink:title=" ">
<polygon fill="none" stroke="#bfbfbf" points="338.5,-56.5 338.5,-75.5 413.5,-75.5 413.5,-56.5 338.5,-56.5"/>
<text text-anchor="middle" x="376" y="-63.5" font-family="Helvetica,sans-Serif" font-size="10.00">SDL_stdinc.h</text>
</a>
</g>
</g>
<!-- Node2&#45;&gt;Node8 -->
<g id="edge10" class="edge">
<title>Node2&#45;&gt;Node8</title>
<path fill="none" stroke="midnightblue" d="M297.1,-112.32C311.9,-103.82 334.69,-90.73 351.98,-80.8"/>
<polygon fill="midnightblue" stroke="midnightblue" points="354.01,-83.67 360.93,-75.65 350.52,-77.6 354.01,-83.67"/>
</g>
<!-- Node9 -->
<g id="node9" class="node">
<title>Node9</title>
<g id="a_node9"><a xlink:title=" ">
<polygon fill="none" stroke="#bfbfbf" points="0,-56.5 0,-75.5 78,-75.5 78,-56.5 0,-56.5"/>
<text text-anchor="middle" x="39" y="-63.5" font-family="Helvetica,sans-Serif" font-size="10.00">SDL_events.h</text>
</a>
</g>
</g>
<!-- Node2&#45;&gt;Node9 -->
<g id="edge11" class="edge">
<title>Node2&#45;&gt;Node9</title>
<path fill="none" stroke="midnightblue" d="M243.5,-112.44C201.19,-103.04 133.18,-87.93 87.33,-77.74"/>
<polygon fill="midnightblue" stroke="midnightblue" points="87.85,-74.27 77.32,-75.52 86.33,-81.1 87.85,-74.27"/>
</g>
<!-- Node10 -->
<g id="node10" class="node">
<title>Node10</title>
<g id="a_node10"><a xlink:title=" ">
<polygon fill="none" stroke="#bfbfbf" points="96.5,-56.5 96.5,-75.5 131.5,-75.5 131.5,-56.5 96.5,-56.5"/>
<text text-anchor="middle" x="114" y="-63.5" font-family="Helvetica,sans-Serif" font-size="10.00">map</text>
</a>
</g>
</g>
<!-- Node2&#45;&gt;Node10 -->
<g id="edge12" class="edge">
<title>Node2&#45;&gt;Node10</title>
<path fill="none" stroke="midnightblue" d="M255.38,-112.44C224.29,-102.45 173.12,-86 141.61,-75.87"/>
<polygon fill="midnightblue" stroke="midnightblue" points="142.33,-72.43 131.73,-72.7 140.18,-79.09 142.33,-72.43"/>
</g>
<!-- Node11 -->
<g id="node11" class="node">
<title>Node11</title>
<g id="a_node11"><a xlink:title=" ">
<polygon fill="none" stroke="#bfbfbf" points="651.5,-0.5 651.5,-19.5 702.5,-19.5 702.5,-0.5 651.5,-0.5"/>
<text text-anchor="middle" x="677" y="-7.5" font-family="Helvetica,sans-Serif" font-size="10.00">memory</text>
</a>
</g>
</g>
<!-- Node2&#45;&gt;Node11 -->
<g id="edge13" class="edge">
<title>Node2&#45;&gt;Node11</title>
<path fill="none" stroke="midnightblue" d="M313.66,-112.42C342.39,-104.27 385.67,-91.04 422,-76 440,-68.55 442.63,-62.49 461,-56 522.56,-34.25 597.9,-21.51 641.38,-15.43"/>
<polygon fill="midnightblue" stroke="midnightblue" points="642.02,-18.88 651.46,-14.06 641.08,-11.94 642.02,-18.88"/>
</g>
<!-- Node12 -->
<g id="node12" class="node">
<title>Node12</title>
<g id="a_node12"><a xlink:title=" ">
<polygon fill="none" stroke="#bfbfbf" points="470,-56.5 470,-75.5 514,-75.5 514,-56.5 470,-56.5"/>
<text text-anchor="middle" x="492" y="-63.5" font-family="Helvetica,sans-Serif" font-size="10.00">vector</text>
</a>
</g>
</g>
<!-- Node2&#45;&gt;Node12 -->
<g id="edge14" class="edge">
<title>Node2&#45;&gt;Node12</title>
<path fill="none" stroke="midnightblue" d="M315.28,-112.44C354.98,-102.23 420.9,-85.28 460.02,-75.22"/>
<polygon fill="midnightblue" stroke="midnightblue" points="461.02,-78.58 469.83,-72.7 459.28,-71.8 461.02,-78.58"/>
</g>
<!-- Node4&#45;&gt;Node3 -->
<g id="edge4" class="edge">
<title>Node4&#45;&gt;Node3</title>
<path fill="none" stroke="midnightblue" d="M268.62,-56.32C282.95,-47.82 305.01,-34.73 321.75,-24.8"/>
<polygon fill="midnightblue" stroke="midnightblue" points="323.6,-27.77 330.42,-19.65 320.03,-21.75 323.6,-27.77"/>
</g>
<!-- Node4&#45;&gt;Node5 -->
<g id="edge5" class="edge">
<title>Node4&#45;&gt;Node5</title>
<path fill="none" stroke="midnightblue" d="M254,-56.08C254,-49.01 254,-38.86 254,-29.99"/>
<polygon fill="midnightblue" stroke="midnightblue" points="257.5,-29.75 254,-19.75 250.5,-29.75 257.5,-29.75"/>
</g>
<!-- Node4&#45;&gt;Node6 -->
<g id="edge6" class="edge">
<title>Node4&#45;&gt;Node6</title>
<path fill="none" stroke="midnightblue" d="M236.09,-56.44C217.75,-47.68 188.99,-33.94 167.91,-23.86"/>
<polygon fill="midnightblue" stroke="midnightblue" points="169.35,-20.67 158.82,-19.52 166.33,-26.99 169.35,-20.67"/>
</g>
<!-- Node7 -->
<g id="node7" class="node">
<title>Node7</title>
<g id="a_node7"><a xlink:title=" ">
<polygon fill="none" stroke="#bfbfbf" points="492.5,-0.5 492.5,-19.5 533.5,-19.5 533.5,-0.5 492.5,-0.5"/>
<text text-anchor="middle" x="513" y="-7.5" font-family="Helvetica,sans-Serif" font-size="10.00">string</text>
</a>
</g>
</g>
<!-- Node4&#45;&gt;Node7 -->
<g id="edge7" class="edge">
<title>Node4&#45;&gt;Node7</title>
<path fill="none" stroke="midnightblue" d="M282.21,-59.12C331.17,-48.91 431.49,-28 482.2,-17.42"/>
<polygon fill="midnightblue" stroke="midnightblue" points="483.15,-20.8 492.23,-15.33 481.73,-13.95 483.15,-20.8"/>
</g>
<!-- Node13&#45;&gt;Node14 -->
<g id="edge16" class="edge">
<title>Node13&#45;&gt;Node14</title>
<path fill="none" stroke="midnightblue" d="M630.88,-168.08C626.59,-160.61 620.34,-149.72 615.06,-140.52"/>
<polygon fill="midnightblue" stroke="midnightblue" points="618.04,-138.68 610.02,-131.75 611.97,-142.17 618.04,-138.68"/>
</g>
<!-- Node17 -->
<g id="node17" class="node">
<title>Node17</title>
<g id="a_node17"><a xlink:href="Color_8hpp.html" target="_top" xlink:title=" ">
<polygon fill="none" stroke="black" points="667.5,-112.5 667.5,-131.5 724.5,-131.5 724.5,-112.5 667.5,-112.5"/>
<text text-anchor="middle" x="696" y="-119.5" font-family="Helvetica,sans-Serif" font-size="10.00">Color.hpp</text>
</a>
</g>
</g>
<!-- Node13&#45;&gt;Node17 -->
<g id="edge24" class="edge">
<title>Node13&#45;&gt;Node17</title>
<path fill="none" stroke="midnightblue" d="M645.64,-168.32C654.51,-160.34 667.87,-148.31 678.61,-138.65"/>
<polygon fill="midnightblue" stroke="midnightblue" points="681.09,-141.13 686.18,-131.83 676.41,-135.92 681.09,-141.13"/>
</g>
<!-- Node14&#45;&gt;Node7 -->
<g id="edge21" class="edge">
<title>Node14&#45;&gt;Node7</title>
<path fill="none" stroke="midnightblue" d="M610.74,-112.24C618.63,-98.98 630.6,-73.52 619,-56 602.39,-30.91 568.68,-19.77 543.71,-14.84"/>
<polygon fill="midnightblue" stroke="midnightblue" points="544.07,-11.36 533.62,-13.09 542.87,-18.25 544.07,-11.36"/>
</g>
<!-- Node14&#45;&gt;Node11 -->
<g id="edge23" class="edge">
<title>Node14&#45;&gt;Node11</title>
<path fill="none" stroke="midnightblue" d="M617.16,-112.24C627.88,-103.97 643.28,-90.66 653,-76 662.45,-61.75 668.81,-43.27 672.59,-29.67"/>
<polygon fill="midnightblue" stroke="midnightblue" points="676.09,-30.14 675.18,-19.58 669.3,-28.4 676.09,-30.14"/>
</g>
<!-- Node14&#45;&gt;Node12 -->
<g id="edge22" class="edge">
<title>Node14&#45;&gt;Node12</title>
<path fill="none" stroke="midnightblue" d="M587.09,-112.44C568.75,-103.68 539.99,-89.94 518.91,-79.86"/>
<polygon fill="midnightblue" stroke="midnightblue" points="520.35,-76.67 509.82,-75.52 517.33,-82.99 520.35,-76.67"/>
</g>
<!-- Node15 -->
<g id="node15" class="node">
<title>Node15</title>
<g id="a_node15"><a xlink:href="Component_8hpp.html" target="_top" xlink:title=" ">
<polygon fill="none" stroke="black" points="705,-56.5 705,-75.5 789,-75.5 789,-56.5 705,-56.5"/>
<text text-anchor="middle" x="747" y="-63.5" font-family="Helvetica,sans-Serif" font-size="10.00">Component.hpp</text>
</a>
</g>
</g>
<!-- Node14&#45;&gt;Node15 -->
<g id="edge17" class="edge">
<title>Node14&#45;&gt;Node15</title>
<path fill="none" stroke="midnightblue" d="M627.5,-112.44C651.08,-103.48 688.32,-89.31 714.96,-79.18"/>
<polygon fill="midnightblue" stroke="midnightblue" points="716.5,-82.34 724.6,-75.52 714.01,-75.8 716.5,-82.34"/>
</g>
<!-- Node16 -->
<g id="node16" class="node">
<title>Node16</title>
<g id="a_node16"><a xlink:href="Transform_8hpp.html" target="_top" xlink:title=" ">
<polygon fill="none" stroke="black" points="531.5,-56.5 531.5,-75.5 610.5,-75.5 610.5,-56.5 531.5,-56.5"/>
<text text-anchor="middle" x="571" y="-63.5" font-family="Helvetica,sans-Serif" font-size="10.00">Transform.hpp</text>
</a>
</g>
</g>
<!-- Node14&#45;&gt;Node16 -->
<g id="edge19" class="edge">
<title>Node14&#45;&gt;Node16</title>
<path fill="none" stroke="midnightblue" d="M599.39,-112.08C594.63,-104.53 587.68,-93.49 581.85,-84.23"/>
<polygon fill="midnightblue" stroke="midnightblue" points="584.8,-82.35 576.51,-75.75 578.88,-86.08 584.8,-82.35"/>
</g>
<!-- Node15&#45;&gt;Node11 -->
<g id="edge18" class="edge">
<title>Node15&#45;&gt;Node11</title>
<path fill="none" stroke="midnightblue" d="M735.75,-56.32C725.2,-48.18 709.2,-35.84 696.56,-26.09"/>
<polygon fill="midnightblue" stroke="midnightblue" points="698.51,-23.17 688.45,-19.83 694.23,-28.71 698.51,-23.17"/>
</g>
<!-- Node16&#45;&gt;Node3 -->
<g id="edge20" class="edge">
<title>Node16&#45;&gt;Node3</title>
<path fill="none" stroke="midnightblue" d="M535.19,-56.44C493.91,-46.58 426.31,-30.43 383.8,-20.27"/>
<polygon fill="midnightblue" stroke="midnightblue" points="384.37,-16.81 373.83,-17.89 382.74,-23.62 384.37,-16.81"/>
</g>
</g>
</svg>
