<?xml version="1.0" encoding="UTF-8" standalone="no"?>
<!DOCTYPE svg PUBLIC "-//W3C//DTD SVG 1.1//EN"
 "http://www.w3.org/Graphics/SVG/1.1/DTD/svg11.dtd">
<!-- Generated by graphviz version 2.44.0 ()
 -->
<!-- Title: libs/spic&#45;engine/src/Managers/InputManager.cpp Pages: 1 -->
<svg width="625pt" height="207pt"
 viewBox="0.00 0.00 624.50 207.00" xmlns="http://www.w3.org/2000/svg" xmlns:xlink="http://www.w3.org/1999/xlink">
<g id="graph0" class="graph" transform="scale(1 1) rotate(0) translate(4 203)">
<title>libs/spic&#45;engine/src/Managers/InputManager.cpp</title>
<!-- Node1 -->
<g id="node1" class="node">
<title>Node1</title>
<g id="a_node1"><a xlink:title=" ">
<polygon fill="#bfbfbf" stroke="black" points="272,-168.5 272,-198.5 415,-198.5 415,-168.5 272,-168.5"/>
<text text-anchor="start" x="280" y="-186.5" font-family="Helvetica,sans-Serif" font-size="10.00">libs/spic&#45;engine/src</text>
<text text-anchor="middle" x="343.5" y="-175.5" font-family="Helvetica,sans-Serif" font-size="10.00">/Managers/InputManager.cpp</text>
</a>
</g>
</g>
<!-- Node2 -->
<g id="node2" class="node">
<title>Node2</title>
<g id="a_node2"><a xlink:href="InputManager_8hpp.html" target="_top" xlink:title=" ">
<polygon fill="none" stroke="black" points="250.5,-112.5 250.5,-131.5 344.5,-131.5 344.5,-112.5 250.5,-112.5"/>
<text text-anchor="middle" x="297.5" y="-119.5" font-family="Helvetica,sans-Serif" font-size="10.00">InputManager.hpp</text>
</a>
</g>
</g>
<!-- Node1&#45;&gt;Node2 -->
<g id="edge1" class="edge">
<title>Node1&#45;&gt;Node2</title>
<path fill="none" stroke="midnightblue" d="M332.6,-168.4C325.91,-159.75 317.32,-148.64 310.32,-139.58"/>
<polygon fill="midnightblue" stroke="midnightblue" points="313.08,-137.43 304.19,-131.66 307.54,-141.71 313.08,-137.43"/>
</g>
<!-- Node13 -->
<g id="node13" class="node">
<title>Node13</title>
<g id="a_node13"><a xlink:title=" ">
<polygon fill="none" stroke="#bfbfbf" points="362.5,-112.5 362.5,-131.5 418.5,-131.5 418.5,-112.5 362.5,-112.5"/>
<text text-anchor="middle" x="390.5" y="-119.5" font-family="Helvetica,sans-Serif" font-size="10.00">algorithm</text>
</a>
</g>
</g>
<!-- Node1&#45;&gt;Node13 -->
<g id="edge15" class="edge">
<title>Node1&#45;&gt;Node13</title>
<path fill="none" stroke="midnightblue" d="M354.64,-168.4C361.47,-159.75 370.24,-148.64 377.41,-139.58"/>
<polygon fill="midnightblue" stroke="midnightblue" points="380.21,-141.67 383.66,-131.66 374.72,-137.34 380.21,-141.67"/>
</g>
<!-- Node3 -->
<g id="node3" class="node">
<title>Node3</title>
<g id="a_node3"><a xlink:href="Point_8hpp.html" target="_top" xlink:title=" ">
<polygon fill="none" stroke="black" points="0,-0.5 0,-19.5 57,-19.5 57,-0.5 0,-0.5"/>
<text text-anchor="middle" x="28.5" y="-7.5" font-family="Helvetica,sans-Serif" font-size="10.00">Point.hpp</text>
</a>
</g>
</g>
<!-- Node2&#45;&gt;Node3 -->
<g id="edge2" class="edge">
<title>Node2&#45;&gt;Node3</title>
<path fill="none" stroke="midnightblue" d="M250.37,-113.71C214.01,-106.97 163.06,-95.07 121.5,-76 93.04,-62.94 64.06,-41.03 46.18,-26.3"/>
<polygon fill="midnightblue" stroke="midnightblue" points="48.26,-23.47 38.35,-19.72 43.75,-28.83 48.26,-23.47"/>
</g>
<!-- Node4 -->
<g id="node4" class="node">
<title>Node4</title>
<g id="a_node4"><a xlink:href="Input_8hpp.html" target="_top" xlink:title=" ">
<polygon fill="none" stroke="black" points="147.5,-56.5 147.5,-75.5 203.5,-75.5 203.5,-56.5 147.5,-56.5"/>
<text text-anchor="middle" x="175.5" y="-63.5" font-family="Helvetica,sans-Serif" font-size="10.00">Input.hpp</text>
</a>
</g>
</g>
<!-- Node2&#45;&gt;Node4 -->
<g id="edge3" class="edge">
<title>Node2&#45;&gt;Node4</title>
<path fill="none" stroke="midnightblue" d="M278.17,-112.44C258.18,-103.6 226.76,-89.69 203.94,-79.59"/>
<polygon fill="midnightblue" stroke="midnightblue" points="205.3,-76.36 194.74,-75.52 202.47,-82.76 205.3,-76.36"/>
</g>
<!-- Node5 -->
<g id="node5" class="node">
<title>Node5</title>
<g id="a_node5"><a xlink:href="IKeyListener_8hpp.html" target="_top" xlink:title=" ">
<polygon fill="none" stroke="black" points="75,-0.5 75,-19.5 164,-19.5 164,-0.5 75,-0.5"/>
<text text-anchor="middle" x="119.5" y="-7.5" font-family="Helvetica,sans-Serif" font-size="10.00">IKeyListener.hpp</text>
</a>
</g>
</g>
<!-- Node2&#45;&gt;Node5 -->
<g id="edge9" class="edge">
<title>Node2&#45;&gt;Node5</title>
<path fill="none" stroke="midnightblue" d="M250.41,-119.47C215.13,-115.83 168.04,-105.29 138.5,-76 126.38,-63.98 121.89,-44.69 120.28,-30.24"/>
<polygon fill="midnightblue" stroke="midnightblue" points="123.75,-29.63 119.52,-19.92 116.77,-30.15 123.75,-29.63"/>
</g>
<!-- Node6 -->
<g id="node6" class="node">
<title>Node6</title>
<g id="a_node6"><a xlink:href="IMouseListener_8hpp.html" target="_top" xlink:title=" ">
<polygon fill="none" stroke="black" points="241.5,-0.5 241.5,-19.5 343.5,-19.5 343.5,-0.5 241.5,-0.5"/>
<text text-anchor="middle" x="292.5" y="-7.5" font-family="Helvetica,sans-Serif" font-size="10.00">IMouseListener.hpp</text>
</a>
</g>
</g>
<!-- Node2&#45;&gt;Node6 -->
<g id="edge8" class="edge">
<title>Node2&#45;&gt;Node6</title>
<path fill="none" stroke="midnightblue" d="M283.71,-112.19C272.67,-104.24 258,-91.45 251.5,-76 243.85,-57.8 258.74,-38.93 272.67,-26.24"/>
<polygon fill="midnightblue" stroke="midnightblue" points="275.21,-28.67 280.58,-19.53 270.69,-23.33 275.21,-28.67"/>
</g>
<!-- Node8 -->
<g id="node8" class="node">
<title>Node8</title>
<g id="a_node8"><a xlink:title=" ">
<polygon fill="none" stroke="#bfbfbf" points="260,-56.5 260,-75.5 335,-75.5 335,-56.5 260,-56.5"/>
<text text-anchor="middle" x="297.5" y="-63.5" font-family="Helvetica,sans-Serif" font-size="10.00">SDL_stdinc.h</text>
</a>
</g>
</g>
<!-- Node2&#45;&gt;Node8 -->
<g id="edge10" class="edge">
<title>Node2&#45;&gt;Node8</title>
<path fill="none" stroke="midnightblue" d="M297.5,-112.08C297.5,-105.01 297.5,-94.86 297.5,-85.99"/>
<polygon fill="midnightblue" stroke="midnightblue" points="301,-85.75 297.5,-75.75 294,-85.75 301,-85.75"/>
</g>
<!-- Node9 -->
<g id="node9" class="node">
<title>Node9</title>
<g id="a_node9"><a xlink:title=" ">
<polygon fill="none" stroke="#bfbfbf" points="353.5,-56.5 353.5,-75.5 431.5,-75.5 431.5,-56.5 353.5,-56.5"/>
<text text-anchor="middle" x="392.5" y="-63.5" font-family="Helvetica,sans-Serif" font-size="10.00">SDL_events.h</text>
</a>
</g>
</g>
<!-- Node2&#45;&gt;Node9 -->
<g id="edge11" class="edge">
<title>Node2&#45;&gt;Node9</title>
<path fill="none" stroke="midnightblue" d="M312.76,-112.32C327.72,-103.82 350.75,-90.73 368.23,-80.8"/>
<polygon fill="midnightblue" stroke="midnightblue" points="370.31,-83.64 377.27,-75.65 366.85,-77.55 370.31,-83.64"/>
</g>
<!-- Node10 -->
<g id="node10" class="node">
<title>Node10</title>
<g id="a_node10"><a xlink:title=" ">
<polygon fill="none" stroke="#bfbfbf" points="450,-56.5 450,-75.5 485,-75.5 485,-56.5 450,-56.5"/>
<text text-anchor="middle" x="467.5" y="-63.5" font-family="Helvetica,sans-Serif" font-size="10.00">map</text>
</a>
</g>
</g>
<!-- Node2&#45;&gt;Node10 -->
<g id="edge12" class="edge">
<title>Node2&#45;&gt;Node10</title>
<path fill="none" stroke="midnightblue" d="M325.23,-112.43C352.15,-104.07 394.42,-90.86 440.02,-76.12"/>
<polygon fill="midnightblue" stroke="midnightblue" points="441.36,-79.36 449.8,-72.95 439.2,-72.7 441.36,-79.36"/>
</g>
<!-- Node11 -->
<g id="node11" class="node">
<title>Node11</title>
<g id="a_node11"><a xlink:title=" ">
<polygon fill="none" stroke="#bfbfbf" points="503,-56.5 503,-75.5 554,-75.5 554,-56.5 503,-56.5"/>
<text text-anchor="middle" x="528.5" y="-63.5" font-family="Helvetica,sans-Serif" font-size="10.00">memory</text>
</a>
</g>
</g>
<!-- Node2&#45;&gt;Node11 -->
<g id="edge13" class="edge">
<title>Node2&#45;&gt;Node11</title>
<path fill="none" stroke="midnightblue" d="M336.84,-112.43C374.57,-104.12 433.39,-90.92 492.95,-76.33"/>
<polygon fill="midnightblue" stroke="midnightblue" points="494.03,-79.66 502.9,-73.88 492.36,-72.87 494.03,-79.66"/>
</g>
<!-- Node12 -->
<g id="node12" class="node">
<title>Node12</title>
<g id="a_node12"><a xlink:title=" ">
<polygon fill="none" stroke="#bfbfbf" points="572.5,-56.5 572.5,-75.5 616.5,-75.5 616.5,-56.5 572.5,-56.5"/>
<text text-anchor="middle" x="594.5" y="-63.5" font-family="Helvetica,sans-Serif" font-size="10.00">vector</text>
</a>
</g>
</g>
<!-- Node2&#45;&gt;Node12 -->
<g id="edge14" class="edge">
<title>Node2&#45;&gt;Node12</title>
<path fill="none" stroke="midnightblue" d="M344.67,-113.32C409.11,-102.79 520.65,-84.41 562.25,-75.95"/>
<polygon fill="midnightblue" stroke="midnightblue" points="563.19,-79.33 572.23,-73.8 561.72,-72.49 563.19,-79.33"/>
</g>
<!-- Node4&#45;&gt;Node3 -->
<g id="edge4" class="edge">
<title>Node4&#45;&gt;Node3</title>
<path fill="none" stroke="midnightblue" d="M152.21,-56.44C127.69,-47.44 88.9,-33.19 61.3,-23.05"/>
<polygon fill="midnightblue" stroke="midnightblue" points="62.28,-19.68 51.68,-19.52 59.86,-26.25 62.28,-19.68"/>
</g>
<!-- Node4&#45;&gt;Node5 -->
<g id="edge5" class="edge">
<title>Node4&#45;&gt;Node5</title>
<path fill="none" stroke="midnightblue" d="M166.5,-56.32C158.31,-48.42 145.99,-36.55 136.03,-26.94"/>
<polygon fill="midnightblue" stroke="midnightblue" points="138.29,-24.26 128.66,-19.83 133.43,-29.29 138.29,-24.26"/>
</g>
<!-- Node4&#45;&gt;Node6 -->
<g id="edge6" class="edge">
<title>Node4&#45;&gt;Node6</title>
<path fill="none" stroke="midnightblue" d="M194.04,-56.44C213.12,-47.64 243.07,-33.81 264.94,-23.72"/>
<polygon fill="midnightblue" stroke="midnightblue" points="266.43,-26.88 274.05,-19.52 263.5,-20.53 266.43,-26.88"/>
</g>
<!-- Node7 -->
<g id="node7" class="node">
<title>Node7</title>
<g id="a_node7"><a xlink:title=" ">
<polygon fill="none" stroke="#bfbfbf" points="182,-0.5 182,-19.5 223,-19.5 223,-0.5 182,-0.5"/>
<text text-anchor="middle" x="202.5" y="-7.5" font-family="Helvetica,sans-Serif" font-size="10.00">string</text>
</a>
</g>
</g>
<!-- Node4&#45;&gt;Node7 -->
<g id="edge7" class="edge">
<title>Node4&#45;&gt;Node7</title>
<path fill="none" stroke="midnightblue" d="M179.96,-56.08C183.65,-48.69 189.02,-37.95 193.59,-28.81"/>
<polygon fill="midnightblue" stroke="midnightblue" points="196.78,-30.26 198.12,-19.75 190.52,-27.13 196.78,-30.26"/>
</g>
</g>
</svg>
