<?xml version="1.0" encoding="UTF-8" standalone="no"?>
<!DOCTYPE svg PUBLIC "-//W3C//DTD SVG 1.1//EN"
 "http://www.w3.org/Graphics/SVG/1.1/DTD/svg11.dtd">
<!-- Generated by graphviz version 2.44.0 ()
 -->
<!-- Title: src/Scripts/Heroes/InvisibilityAbilityBehaviour.cpp Pages: 1 -->
<!--zoomable 386 -->
<svg id="main" version="1.1" xmlns="http://www.w3.org/2000/svg" xmlns:xlink="http://www.w3.org/1999/xlink" xml:space="preserve" onload="init(evt)">
<style type="text/css"><![CDATA[
.edge:hover path { stroke: red; }
.edge:hover polygon { stroke: red; fill: red; }
]]></style>
<script type="text/javascript"><![CDATA[
var edges = document.getElementsByTagName('g');
if (edges && edges.length) {
  for (var i=0;i<edges.length;i++) {
    if (edges[i].id.substr(0,4)=='edge') {
      edges[i].setAttribute('class','edge');
    }
  }
}
]]></script>
        <defs>
                <circle id="rim" cx="0" cy="0" r="7"/>
                <circle id="rim2" cx="0" cy="0" r="3.5"/>
                <g id="zoomPlus">
                        <use xlink:href="#rim" fill="#404040">
                                <set attributeName="fill" to="#808080" begin="zoomplus.mouseover" end="zoomplus.mouseout"/>
                        </use>
                        <path d="M-4,0h8M0,-4v8" fill="none" stroke="white" stroke-width="1.5" pointer-events="none"/>
                </g>
                <g id="zoomMin">
                        <use xlink:href="#rim" fill="#404040">
                                <set attributeName="fill" to="#808080" begin="zoomminus.mouseover" end="zoomminus.mouseout"/>
                        </use>
                        <path d="M-4,0h8" fill="none" stroke="white" stroke-width="1.5" pointer-events="none"/>
                </g>
                <g id="dirArrow">
                        <path fill="none" stroke="white" stroke-width="1.5" d="M0,-3.0v7 M-2.5,-0.5L0,-3.0L2.5,-0.5"/>
                </g>
               <g id="resetDef">
                       <use xlink:href="#rim2" fill="#404040">
                               <set attributeName="fill" to="#808080" begin="reset.mouseover" end="reset.mouseout"/>
                       </use>
               </g>
        </defs>

<script type="text/javascript">
var viewWidth = 1109;
var viewHeight = 386;
var sectionId = 'dynsection-0';
</script>
<script xlink:href="svgpan.js"/>
<svg id="graph" class="graph">
<g id="viewport">
<title>src/Scripts/Heroes/InvisibilityAbilityBehaviour.cpp</title>
<!-- Node1 -->
<g id="node1" class="node">
<title>Node1</title>
<g id="a_node1"><a xlink:title=" ">
<polygon fill="#bfbfbf" stroke="black" points="573.97,-347.5 573.97,-377.5 723.97,-377.5 723.97,-347.5 573.97,-347.5"/>
<text text-anchor="start" x="581.97" y="-365.5" font-family="Helvetica,sans-Serif" font-size="10.00">src/Scripts/Heroes</text>
<text text-anchor="middle" x="648.97" y="-354.5" font-family="Helvetica,sans-Serif" font-size="10.00">/InvisibilityAbilityBehaviour.cpp</text>
</a>
</g>
</g>
<!-- Node2 -->
<g id="node2" class="node">
<title>Node2</title>
<g id="a_node2"><a xlink:href="InvisibilityAbilityBehaviour_8hpp.html" target="_top" xlink:title=" ">
<polygon fill="none" stroke="black" points="182.47,-291.5 182.47,-310.5 329.47,-310.5 329.47,-291.5 182.47,-291.5"/>
<text text-anchor="middle" x="255.97" y="-298.5" font-family="Helvetica,sans-Serif" font-size="10.00">InvisibilityAbilityBehaviour.hpp</text>
</a>
</g>
</g>
<!-- Node1&#45;&gt;Node2 -->
<g id="edge1" class="edge">
<title>Node1&#45;&gt;Node2</title>
<path fill="none" stroke="midnightblue" d="M573.66,-350.1C500.91,-339.08 391.78,-322.56 322.24,-312.03"/>
<polygon fill="midnightblue" stroke="midnightblue" points="322.69,-308.56 312.27,-310.52 321.64,-315.48 322.69,-308.56"/>
</g>
<!-- Node14 -->
<g id="node14" class="node">
<title>Node14</title>
<g id="a_node14"><a xlink:href="HeroConstants_8hpp.html" target="_top" xlink:title=" ">
<polygon fill="none" stroke="black" points="784.47,-291.5 784.47,-310.5 899.47,-310.5 899.47,-291.5 784.47,-291.5"/>
<text text-anchor="middle" x="841.97" y="-298.5" font-family="Helvetica,sans-Serif" font-size="10.00">../../HeroConstants.hpp</text>
</a>
</g>
</g>
<!-- Node1&#45;&gt;Node14 -->
<g id="edge20" class="edge">
<title>Node1&#45;&gt;Node14</title>
<path fill="none" stroke="midnightblue" d="M694.71,-347.4C728.21,-337.07 773.11,-323.23 804.49,-313.56"/>
<polygon fill="midnightblue" stroke="midnightblue" points="805.65,-316.86 814.17,-310.57 803.58,-310.17 805.65,-316.86"/>
</g>
<!-- Node15 -->
<g id="node15" class="node">
<title>Node15</title>
<g id="a_node15"><a xlink:title=" ">
<polygon fill="none" stroke="#bfbfbf" points="917.47,-291.5 917.47,-310.5 976.47,-310.5 976.47,-291.5 917.47,-291.5"/>
<text text-anchor="middle" x="946.97" y="-298.5" font-family="Helvetica,sans-Serif" font-size="10.00">stdexcept</text>
</a>
</g>
</g>
<!-- Node1&#45;&gt;Node15 -->
<g id="edge21" class="edge">
<title>Node1&#45;&gt;Node15</title>
<path fill="none" stroke="midnightblue" d="M724.23,-347.72C773.8,-338.45 840.35,-325.63 907.26,-311.31"/>
<polygon fill="midnightblue" stroke="midnightblue" points="908.09,-314.71 917.13,-309.19 906.62,-307.87 908.09,-314.71"/>
</g>
<!-- Node16 -->
<g id="node16" class="node">
<title>Node16</title>
<g id="a_node16"><a xlink:href="GameObject_8hpp.html" target="_top" xlink:title=" ">
<polygon fill="none" stroke="black" points="435.47,-112.5 435.47,-131.5 524.47,-131.5 524.47,-112.5 435.47,-112.5"/>
<text text-anchor="middle" x="479.97" y="-119.5" font-family="Helvetica,sans-Serif" font-size="10.00">GameObject.hpp</text>
</a>
</g>
</g>
<!-- Node1&#45;&gt;Node16 -->
<g id="edge22" class="edge">
<title>Node1&#45;&gt;Node16</title>
<path fill="none" stroke="midnightblue" d="M633.52,-347.24C612.72,-327.61 575.2,-290.64 547.97,-255 530.3,-231.86 527.5,-224.78 513.97,-199 503.82,-179.66 493.81,-156.67 487.31,-141.07"/>
<polygon fill="midnightblue" stroke="midnightblue" points="490.45,-139.52 483.41,-131.6 483.98,-142.18 490.45,-139.52"/>
</g>
<!-- Node19 -->
<g id="node19" class="node">
<title>Node19</title>
<g id="a_node19"><a xlink:href="Engine_8hpp.html" target="_top" xlink:title=" ">
<polygon fill="none" stroke="black" points="556.97,-235.5 556.97,-254.5 620.97,-254.5 620.97,-235.5 556.97,-235.5"/>
<text text-anchor="middle" x="588.97" y="-242.5" font-family="Helvetica,sans-Serif" font-size="10.00">Engine.hpp</text>
</a>
</g>
</g>
<!-- Node1&#45;&gt;Node19 -->
<g id="edge29" class="edge">
<title>Node1&#45;&gt;Node19</title>
<path fill="none" stroke="midnightblue" d="M641.62,-347.34C630.66,-326.24 610.06,-286.6 598.14,-263.65"/>
<polygon fill="midnightblue" stroke="midnightblue" points="601.19,-261.93 593.48,-254.67 594.98,-265.16 601.19,-261.93"/>
</g>
<!-- Node23 -->
<g id="node23" class="node">
<title>Node23</title>
<g id="a_node23"><a xlink:href="Input_8hpp.html" target="_top" xlink:title=" ">
<polygon fill="none" stroke="black" points="964.97,-112.5 964.97,-131.5 1020.97,-131.5 1020.97,-112.5 964.97,-112.5"/>
<text text-anchor="middle" x="992.97" y="-119.5" font-family="Helvetica,sans-Serif" font-size="10.00">Input.hpp</text>
</a>
</g>
</g>
<!-- Node1&#45;&gt;Node23 -->
<g id="edge36" class="edge">
<title>Node1&#45;&gt;Node23</title>
<path fill="none" stroke="midnightblue" d="M669.21,-347.47C729.89,-305.4 909.98,-180.54 971.83,-137.66"/>
<polygon fill="midnightblue" stroke="midnightblue" points="974.17,-140.3 980.39,-131.72 970.18,-134.54 974.17,-140.3"/>
</g>
<!-- Node26 -->
<g id="node26" class="node">
<title>Node26</title>
<g id="a_node26"><a xlink:href="GameObjectUtil_8hpp.html" target="_top" xlink:title=" ">
<polygon fill="none" stroke="black" points="284.47,-174 284.47,-193 427.47,-193 427.47,-174 284.47,-174"/>
<text text-anchor="middle" x="355.97" y="-181" font-family="Helvetica,sans-Serif" font-size="10.00">../../Utils/GameObjectUtil.hpp</text>
</a>
</g>
</g>
<!-- Node1&#45;&gt;Node26 -->
<g id="edge41" class="edge">
<title>Node1&#45;&gt;Node26</title>
<path fill="none" stroke="midnightblue" d="M573.92,-347.97C543.26,-340.24 508.4,-328.49 479.97,-311 440.34,-286.62 440.67,-268.1 407.97,-235 396.39,-223.27 383.05,-210.33 372.78,-200.48"/>
<polygon fill="midnightblue" stroke="midnightblue" points="374.94,-197.7 365.29,-193.33 370.1,-202.76 374.94,-197.7"/>
</g>
<!-- Node27 -->
<g id="node27" class="node">
<title>Node27</title>
<g id="a_node27"><a xlink:href="Layer_8hpp.html" target="_top" xlink:title=" ">
<polygon fill="none" stroke="black" points="994.47,-291.5 994.47,-310.5 1101.47,-310.5 1101.47,-291.5 994.47,-291.5"/>
<text text-anchor="middle" x="1047.97" y="-298.5" font-family="Helvetica,sans-Serif" font-size="10.00">../../Enums/Layer.hpp</text>
</a>
</g>
</g>
<!-- Node1&#45;&gt;Node27 -->
<g id="edge44" class="edge">
<title>Node1&#45;&gt;Node27</title>
<path fill="none" stroke="midnightblue" d="M724.02,-350.31C799.11,-339.11 913.37,-322.07 984.21,-311.51"/>
<polygon fill="midnightblue" stroke="midnightblue" points="984.96,-314.94 994.33,-310 983.93,-308.01 984.96,-314.94"/>
</g>
<!-- Node28 -->
<g id="node28" class="node">
<title>Node28</title>
<g id="a_node28"><a xlink:href="AudioSourcePrefabFactory_8hpp.html" target="_top" xlink:title=" ">
<polygon fill="none" stroke="black" points="522.47,-168.5 522.47,-198.5 653.47,-198.5 653.47,-168.5 522.47,-168.5"/>
<text text-anchor="start" x="530.47" y="-186.5" font-family="Helvetica,sans-Serif" font-size="10.00">../../Factories/AudioSource</text>
<text text-anchor="middle" x="587.97" y="-175.5" font-family="Helvetica,sans-Serif" font-size="10.00">PrefabFactory.hpp</text>
</a>
</g>
</g>
<!-- Node1&#45;&gt;Node28 -->
<g id="edge45" class="edge">
<title>Node1&#45;&gt;Node28</title>
<path fill="none" stroke="midnightblue" d="M649.28,-347.14C649.27,-322.93 646.96,-272.9 629.97,-235 625.31,-224.59 617.87,-214.61 610.55,-206.3"/>
<polygon fill="midnightblue" stroke="midnightblue" points="613.03,-203.83 603.65,-198.9 607.91,-208.6 613.03,-203.83"/>
</g>
<!-- Node3 -->
<g id="node3" class="node">
<title>Node3</title>
<g id="a_node3"><a xlink:href="BehaviourScript_8hpp.html" target="_top" xlink:title=" ">
<polygon fill="none" stroke="black" points="147.97,-174 147.97,-193 251.97,-193 251.97,-174 147.97,-174"/>
<text text-anchor="middle" x="199.97" y="-181" font-family="Helvetica,sans-Serif" font-size="10.00">BehaviourScript.hpp</text>
</a>
</g>
</g>
<!-- Node2&#45;&gt;Node3 -->
<g id="edge2" class="edge">
<title>Node2&#45;&gt;Node3</title>
<path fill="none" stroke="midnightblue" d="M246.45,-291.26C237.79,-282.79 225.28,-269.18 217.97,-255 209.49,-238.53 204.82,-217.8 202.38,-203.09"/>
<polygon fill="midnightblue" stroke="midnightblue" points="205.84,-202.57 200.92,-193.19 198.91,-203.59 205.84,-202.57"/>
</g>
<!-- Node7 -->
<g id="node7" class="node">
<title>Node7</title>
<g id="a_node7"><a xlink:href="CoolDownBehaviour_8hpp.html" target="_top" xlink:title=" ">
<polygon fill="none" stroke="black" points="226.97,-235.5 226.97,-254.5 398.97,-254.5 398.97,-235.5 226.97,-235.5"/>
<text text-anchor="middle" x="312.97" y="-242.5" font-family="Helvetica,sans-Serif" font-size="10.00">../Common/CoolDownBehaviour.hpp</text>
</a>
</g>
</g>
<!-- Node2&#45;&gt;Node7 -->
<g id="edge7" class="edge">
<title>Node2&#45;&gt;Node7</title>
<path fill="none" stroke="midnightblue" d="M265.13,-291.32C273.47,-283.42 286,-271.55 296.15,-261.94"/>
<polygon fill="midnightblue" stroke="midnightblue" points="298.8,-264.25 303.65,-254.83 293.98,-259.17 298.8,-264.25"/>
</g>
<!-- Node8 -->
<g id="node8" class="node">
<title>Node8</title>
<g id="a_node8"><a xlink:href="HealthBehaviour_8hpp.html" target="_top" xlink:title=" ">
<polygon fill="none" stroke="black" points="14.97,-235.5 14.97,-254.5 170.97,-254.5 170.97,-235.5 14.97,-235.5"/>
<text text-anchor="middle" x="92.97" y="-242.5" font-family="Helvetica,sans-Serif" font-size="10.00">../Common/HealthBehaviour.hpp</text>
</a>
</g>
</g>
<!-- Node2&#45;&gt;Node8 -->
<g id="edge9" class="edge">
<title>Node2&#45;&gt;Node8</title>
<path fill="none" stroke="midnightblue" d="M230.14,-291.44C202.72,-282.36 159.2,-267.94 128.54,-257.78"/>
<polygon fill="midnightblue" stroke="midnightblue" points="129.27,-254.34 118.68,-254.52 127.07,-260.98 129.27,-254.34"/>
</g>
<!-- Node4 -->
<g id="node4" class="node">
<title>Node4</title>
<g id="a_node4"><a xlink:href="Component_8hpp.html" target="_top" xlink:title=" ">
<polygon fill="none" stroke="black" points="215.97,-56.5 215.97,-75.5 299.97,-75.5 299.97,-56.5 215.97,-56.5"/>
<text text-anchor="middle" x="257.97" y="-63.5" font-family="Helvetica,sans-Serif" font-size="10.00">Component.hpp</text>
</a>
</g>
</g>
<!-- Node3&#45;&gt;Node4 -->
<g id="edge3" class="edge">
<title>Node3&#45;&gt;Node4</title>
<path fill="none" stroke="midnightblue" d="M206.4,-173.9C213.53,-164.12 225.05,-147.48 232.97,-132 240.72,-116.86 247.5,-98.74 252.04,-85.48"/>
<polygon fill="midnightblue" stroke="midnightblue" points="255.47,-86.26 255.29,-75.66 248.82,-84.05 255.47,-86.26"/>
</g>
<!-- Node6 -->
<g id="node6" class="node">
<title>Node6</title>
<g id="a_node6"><a xlink:href="Collider_8hpp.html" target="_top" xlink:title=" ">
<polygon fill="none" stroke="black" points="156.47,-112.5 156.47,-131.5 223.47,-131.5 223.47,-112.5 156.47,-112.5"/>
<text text-anchor="middle" x="189.97" y="-119.5" font-family="Helvetica,sans-Serif" font-size="10.00">Collider.hpp</text>
</a>
</g>
</g>
<!-- Node3&#45;&gt;Node6 -->
<g id="edge5" class="edge">
<title>Node3&#45;&gt;Node6</title>
<path fill="none" stroke="midnightblue" d="M198.54,-173.98C197.13,-165.58 194.93,-152.48 193.11,-141.66"/>
<polygon fill="midnightblue" stroke="midnightblue" points="196.51,-140.79 191.4,-131.51 189.61,-141.95 196.51,-140.79"/>
</g>
<!-- Node5 -->
<g id="node5" class="node">
<title>Node5</title>
<g id="a_node5"><a xlink:title=" ">
<polygon fill="none" stroke="#bfbfbf" points="302.47,-0.5 302.47,-19.5 353.47,-19.5 353.47,-0.5 302.47,-0.5"/>
<text text-anchor="middle" x="327.97" y="-7.5" font-family="Helvetica,sans-Serif" font-size="10.00">memory</text>
</a>
</g>
</g>
<!-- Node4&#45;&gt;Node5 -->
<g id="edge4" class="edge">
<title>Node4&#45;&gt;Node5</title>
<path fill="none" stroke="midnightblue" d="M269.22,-56.32C279.77,-48.18 295.77,-35.84 308.41,-26.09"/>
<polygon fill="midnightblue" stroke="midnightblue" points="310.74,-28.71 316.52,-19.83 306.47,-23.17 310.74,-28.71"/>
</g>
<!-- Node6&#45;&gt;Node4 -->
<g id="edge6" class="edge">
<title>Node6&#45;&gt;Node4</title>
<path fill="none" stroke="midnightblue" d="M200.9,-112.32C211.15,-104.18 226.69,-91.84 238.97,-82.09"/>
<polygon fill="midnightblue" stroke="midnightblue" points="241.19,-84.79 246.85,-75.83 236.84,-79.31 241.19,-84.79"/>
</g>
<!-- Node7&#45;&gt;Node3 -->
<g id="edge8" class="edge">
<title>Node7&#45;&gt;Node3</title>
<path fill="none" stroke="midnightblue" d="M296.78,-235.48C278.07,-225.62 247.05,-209.29 225.17,-197.77"/>
<polygon fill="midnightblue" stroke="midnightblue" points="226.61,-194.57 216.13,-193.01 223.35,-200.77 226.61,-194.57"/>
</g>
<!-- Node8&#45;&gt;Node3 -->
<g id="edge10" class="edge">
<title>Node8&#45;&gt;Node3</title>
<path fill="none" stroke="midnightblue" d="M108.3,-235.48C125.94,-225.67 155.13,-209.43 175.83,-197.92"/>
<polygon fill="midnightblue" stroke="midnightblue" points="177.63,-200.93 184.67,-193.01 174.23,-194.81 177.63,-200.93"/>
</g>
<!-- Node8&#45;&gt;Node5 -->
<g id="edge11" class="edge">
<title>Node8&#45;&gt;Node5</title>
<path fill="none" stroke="midnightblue" d="M81.79,-235.42C71.55,-227.07 56.57,-213.55 46.97,-199 11.35,-145.02 -22.33,-104.93 19.97,-56 54.84,-15.67 218.9,-10.78 292.31,-10.65"/>
<polygon fill="midnightblue" stroke="midnightblue" points="292.46,-14.15 302.46,-10.66 292.46,-7.15 292.46,-14.15"/>
</g>
<!-- Node9 -->
<g id="node9" class="node">
<title>Node9</title>
<g id="a_node9"><a xlink:href="Animator_8hpp.html" target="_top" xlink:title=" ">
<polygon fill="none" stroke="black" points="55.97,-174 55.97,-193 129.97,-193 129.97,-174 55.97,-174"/>
<text text-anchor="middle" x="92.97" y="-181" font-family="Helvetica,sans-Serif" font-size="10.00">Animator.hpp</text>
</a>
</g>
</g>
<!-- Node8&#45;&gt;Node9 -->
<g id="edge12" class="edge">
<title>Node8&#45;&gt;Node9</title>
<path fill="none" stroke="midnightblue" d="M92.97,-235.48C92.97,-227.08 92.97,-213.98 92.97,-203.16"/>
<polygon fill="midnightblue" stroke="midnightblue" points="96.47,-203.01 92.97,-193.01 89.47,-203.01 96.47,-203.01"/>
</g>
<!-- Node9&#45;&gt;Node4 -->
<g id="edge13" class="edge">
<title>Node9&#45;&gt;Node4</title>
<path fill="none" stroke="midnightblue" d="M97.5,-173.94C105.6,-159.35 123.92,-129.57 146.97,-112 166.98,-96.75 192.87,-85.87 214.61,-78.63"/>
<polygon fill="midnightblue" stroke="midnightblue" points="215.8,-81.92 224.27,-75.55 213.68,-75.25 215.8,-81.92"/>
</g>
<!-- Node9&#45;&gt;Node5 -->
<g id="edge19" class="edge">
<title>Node9&#45;&gt;Node5</title>
<path fill="none" stroke="midnightblue" d="M75.37,-173.87C60.45,-165.48 40.09,-151.18 30.97,-132 24.09,-117.53 14.2,-76.31 31.97,-56 65.43,-17.77 220.36,-11.69 291.76,-10.95"/>
<polygon fill="midnightblue" stroke="midnightblue" points="292.09,-14.44 302.07,-10.87 292.04,-7.44 292.09,-14.44"/>
</g>
<!-- Node10 -->
<g id="node10" class="node">
<title>Node10</title>
<g id="a_node10"><a xlink:href="Sprite_8hpp.html" target="_top" xlink:title=" ">
<polygon fill="none" stroke="black" points="39.97,-112.5 39.97,-131.5 99.97,-131.5 99.97,-112.5 39.97,-112.5"/>
<text text-anchor="middle" x="69.97" y="-119.5" font-family="Helvetica,sans-Serif" font-size="10.00">Sprite.hpp</text>
</a>
</g>
</g>
<!-- Node9&#45;&gt;Node10 -->
<g id="edge14" class="edge">
<title>Node9&#45;&gt;Node10</title>
<path fill="none" stroke="midnightblue" d="M89.68,-173.98C86.36,-165.4 81.15,-151.93 76.92,-140.98"/>
<polygon fill="midnightblue" stroke="midnightblue" points="80.13,-139.57 73.26,-131.51 73.6,-142.1 80.13,-139.57"/>
</g>
<!-- Node13 -->
<g id="node13" class="node">
<title>Node13</title>
<g id="a_node13"><a xlink:title=" ">
<polygon fill="none" stroke="#bfbfbf" points="355.97,-56.5 355.97,-75.5 399.97,-75.5 399.97,-56.5 355.97,-56.5"/>
<text text-anchor="middle" x="377.97" y="-63.5" font-family="Helvetica,sans-Serif" font-size="10.00">vector</text>
</a>
</g>
</g>
<!-- Node9&#45;&gt;Node13 -->
<g id="edge18" class="edge">
<title>Node9&#45;&gt;Node13</title>
<path fill="none" stroke="midnightblue" d="M118.48,-173.94C146.71,-164.33 193.44,-147.96 232.97,-132 274.57,-115.2 321.83,-93.52 350.77,-79.93"/>
<polygon fill="midnightblue" stroke="midnightblue" points="352.3,-83.08 359.85,-75.65 349.31,-76.75 352.3,-83.08"/>
</g>
<!-- Node10&#45;&gt;Node4 -->
<g id="edge15" class="edge">
<title>Node10&#45;&gt;Node4</title>
<path fill="none" stroke="midnightblue" d="M99.76,-112.44C131.8,-103.24 182.91,-88.56 218.33,-78.39"/>
<polygon fill="midnightblue" stroke="midnightblue" points="219.68,-81.64 228.32,-75.52 217.75,-74.91 219.68,-81.64"/>
</g>
<!-- Node11 -->
<g id="node11" class="node">
<title>Node11</title>
<g id="a_node11"><a xlink:href="Color_8hpp.html" target="_top" xlink:title=" ">
<polygon fill="none" stroke="black" points="41.47,-56.5 41.47,-75.5 98.47,-75.5 98.47,-56.5 41.47,-56.5"/>
<text text-anchor="middle" x="69.97" y="-63.5" font-family="Helvetica,sans-Serif" font-size="10.00">Color.hpp</text>
</a>
</g>
</g>
<!-- Node10&#45;&gt;Node11 -->
<g id="edge16" class="edge">
<title>Node10&#45;&gt;Node11</title>
<path fill="none" stroke="midnightblue" d="M69.97,-112.08C69.97,-105.01 69.97,-94.86 69.97,-85.99"/>
<polygon fill="midnightblue" stroke="midnightblue" points="73.47,-85.75 69.97,-75.75 66.47,-85.75 73.47,-85.75"/>
</g>
<!-- Node12 -->
<g id="node12" class="node">
<title>Node12</title>
<g id="a_node12"><a xlink:title=" ">
<polygon fill="none" stroke="#bfbfbf" points="591.47,-56.5 591.47,-75.5 632.47,-75.5 632.47,-56.5 591.47,-56.5"/>
<text text-anchor="middle" x="611.97" y="-63.5" font-family="Helvetica,sans-Serif" font-size="10.00">string</text>
</a>
</g>
</g>
<!-- Node10&#45;&gt;Node12 -->
<g id="edge17" class="edge">
<title>Node10&#45;&gt;Node12</title>
<path fill="none" stroke="midnightblue" d="M100.3,-117.21C114.47,-115.51 131.57,-113.54 146.97,-112 337.14,-93.04 390.29,-112.35 581.12,-75.99"/>
<polygon fill="midnightblue" stroke="midnightblue" points="582.05,-79.38 591.2,-74.04 580.72,-72.5 582.05,-79.38"/>
</g>
<!-- Node16&#45;&gt;Node4 -->
<g id="edge23" class="edge">
<title>Node16&#45;&gt;Node4</title>
<path fill="none" stroke="midnightblue" d="M444.8,-112.44C406.39,-103.1 344.8,-88.12 302.92,-77.93"/>
<polygon fill="midnightblue" stroke="midnightblue" points="303.53,-74.48 292.98,-75.52 301.87,-81.28 303.53,-74.48"/>
</g>
<!-- Node16&#45;&gt;Node5 -->
<g id="edge28" class="edge">
<title>Node16&#45;&gt;Node5</title>
<path fill="none" stroke="midnightblue" d="M474.36,-112.4C465.18,-98.9 445.81,-72.56 423.97,-56 405.62,-42.07 382.26,-31.01 363.18,-23.33"/>
<polygon fill="midnightblue" stroke="midnightblue" points="364.23,-19.99 353.64,-19.63 361.7,-26.51 364.23,-19.99"/>
</g>
<!-- Node16&#45;&gt;Node12 -->
<g id="edge26" class="edge">
<title>Node16&#45;&gt;Node12</title>
<path fill="none" stroke="midnightblue" d="M500.89,-112.44C522.71,-103.52 557.12,-89.44 581.86,-79.32"/>
<polygon fill="midnightblue" stroke="midnightblue" points="583.22,-82.54 591.15,-75.52 580.57,-76.06 583.22,-82.54"/>
</g>
<!-- Node16&#45;&gt;Node13 -->
<g id="edge27" class="edge">
<title>Node16&#45;&gt;Node13</title>
<path fill="none" stroke="midnightblue" d="M463.58,-112.32C447.3,-103.7 422.1,-90.36 403.26,-80.39"/>
<polygon fill="midnightblue" stroke="midnightblue" points="404.8,-77.24 394.32,-75.65 401.52,-83.43 404.8,-77.24"/>
</g>
<!-- Node17 -->
<g id="node17" class="node">
<title>Node17</title>
<g id="a_node17"><a xlink:href="Transform_8hpp.html" target="_top" xlink:title=" ">
<polygon fill="none" stroke="black" points="494.47,-56.5 494.47,-75.5 573.47,-75.5 573.47,-56.5 494.47,-56.5"/>
<text text-anchor="middle" x="533.97" y="-63.5" font-family="Helvetica,sans-Serif" font-size="10.00">Transform.hpp</text>
</a>
</g>
</g>
<!-- Node16&#45;&gt;Node17 -->
<g id="edge24" class="edge">
<title>Node16&#45;&gt;Node17</title>
<path fill="none" stroke="midnightblue" d="M488.89,-112.08C496.75,-104.22 508.4,-92.57 517.89,-83.08"/>
<polygon fill="midnightblue" stroke="midnightblue" points="520.63,-85.3 525.22,-75.75 515.68,-80.35 520.63,-85.3"/>
</g>
<!-- Node18 -->
<g id="node18" class="node">
<title>Node18</title>
<g id="a_node18"><a xlink:href="Point_8hpp.html" target="_top" xlink:title=" ">
<polygon fill="none" stroke="black" points="734.47,-0.5 734.47,-19.5 791.47,-19.5 791.47,-0.5 734.47,-0.5"/>
<text text-anchor="middle" x="762.97" y="-7.5" font-family="Helvetica,sans-Serif" font-size="10.00">Point.hpp</text>
</a>
</g>
</g>
<!-- Node17&#45;&gt;Node18 -->
<g id="edge25" class="edge">
<title>Node17&#45;&gt;Node18</title>
<path fill="none" stroke="midnightblue" d="M570.26,-56.44C612.41,-46.5 681.64,-30.18 724.64,-20.04"/>
<polygon fill="midnightblue" stroke="midnightblue" points="725.52,-23.43 734.45,-17.73 723.92,-16.61 725.52,-23.43"/>
</g>
<!-- Node20 -->
<g id="node20" class="node">
<title>Node20</title>
<g id="a_node20"><a xlink:href="EngineConfig_8hpp.html" target="_top" xlink:title=" ">
<polygon fill="none" stroke="black" points="671.47,-174 671.47,-193 762.47,-193 762.47,-174 671.47,-174"/>
<text text-anchor="middle" x="716.97" y="-181" font-family="Helvetica,sans-Serif" font-size="10.00">EngineConfig.hpp</text>
</a>
</g>
</g>
<!-- Node19&#45;&gt;Node20 -->
<g id="edge30" class="edge">
<title>Node19&#45;&gt;Node20</title>
<path fill="none" stroke="midnightblue" d="M607.31,-235.48C628.79,-225.49 664.59,-208.85 689.42,-197.31"/>
<polygon fill="midnightblue" stroke="midnightblue" points="691.07,-200.4 698.67,-193.01 688.12,-194.05 691.07,-200.4"/>
</g>
<!-- Node22 -->
<g id="node22" class="node">
<title>Node22</title>
<g id="a_node22"><a xlink:href="Scene_8hpp.html" target="_top" xlink:title=" ">
<polygon fill="none" stroke="black" points="355.97,-112.5 355.97,-131.5 417.97,-131.5 417.97,-112.5 355.97,-112.5"/>
<text text-anchor="middle" x="386.97" y="-119.5" font-family="Helvetica,sans-Serif" font-size="10.00">Scene.hpp</text>
</a>
</g>
</g>
<!-- Node19&#45;&gt;Node22 -->
<g id="edge33" class="edge">
<title>Node19&#45;&gt;Node22</title>
<path fill="none" stroke="midnightblue" d="M574.77,-235.49C540.37,-214.89 452.34,-162.15 410.17,-136.89"/>
<polygon fill="midnightblue" stroke="midnightblue" points="411.81,-133.8 401.43,-131.66 408.21,-139.8 411.81,-133.8"/>
</g>
<!-- Node21 -->
<g id="node21" class="node">
<title>Node21</title>
<g id="a_node21"><a xlink:href="WindowConfig_8hpp.html" target="_top" xlink:title=" ">
<polygon fill="none" stroke="black" points="850.97,-112.5 850.97,-131.5 946.97,-131.5 946.97,-112.5 850.97,-112.5"/>
<text text-anchor="middle" x="898.97" y="-119.5" font-family="Helvetica,sans-Serif" font-size="10.00">WindowConfig.hpp</text>
</a>
</g>
</g>
<!-- Node20&#45;&gt;Node21 -->
<g id="edge31" class="edge">
<title>Node20&#45;&gt;Node21</title>
<path fill="none" stroke="midnightblue" d="M743.05,-173.98C774.54,-163.68 827.67,-146.31 863.03,-134.75"/>
<polygon fill="midnightblue" stroke="midnightblue" points="864.53,-137.94 872.94,-131.51 862.35,-131.29 864.53,-137.94"/>
</g>
<!-- Node21&#45;&gt;Node12 -->
<g id="edge32" class="edge">
<title>Node21&#45;&gt;Node12</title>
<path fill="none" stroke="midnightblue" d="M853.5,-112.44C794.47,-101.34 693.06,-82.26 642.5,-72.74"/>
<polygon fill="midnightblue" stroke="midnightblue" points="642.99,-69.27 632.51,-70.86 641.69,-76.15 642.99,-69.27"/>
</g>
<!-- Node22&#45;&gt;Node5 -->
<g id="edge35" class="edge">
<title>Node22&#45;&gt;Node5</title>
<path fill="none" stroke="midnightblue" d="M394.51,-112.1C404.55,-99.11 419.85,-74.48 408.97,-56 399.08,-39.19 380.4,-28.21 363.47,-21.31"/>
<polygon fill="midnightblue" stroke="midnightblue" points="364.37,-17.91 353.78,-17.71 361.93,-24.47 364.37,-17.91"/>
</g>
<!-- Node22&#45;&gt;Node13 -->
<g id="edge34" class="edge">
<title>Node22&#45;&gt;Node13</title>
<path fill="none" stroke="midnightblue" d="M385.49,-112.08C384.29,-104.93 382.58,-94.64 381.09,-85.69"/>
<polygon fill="midnightblue" stroke="midnightblue" points="384.53,-85.04 379.43,-75.75 377.62,-86.19 384.53,-85.04"/>
</g>
<!-- Node23&#45;&gt;Node12 -->
<g id="edge40" class="edge">
<title>Node23&#45;&gt;Node12</title>
<path fill="none" stroke="midnightblue" d="M964.76,-113.8C961.8,-113.15 958.83,-112.53 955.97,-112 841.19,-90.6 702.98,-75.8 642.65,-69.88"/>
<polygon fill="midnightblue" stroke="midnightblue" points="642.94,-66.4 632.65,-68.91 642.26,-73.36 642.94,-66.4"/>
</g>
<!-- Node23&#45;&gt;Node18 -->
<g id="edge37" class="edge">
<title>Node23&#45;&gt;Node18</title>
<path fill="none" stroke="midnightblue" d="M1000.14,-112.42C1010.48,-98.95 1026.91,-72.67 1012.97,-56 986.51,-24.35 865.21,-14.93 801.82,-12.15"/>
<polygon fill="midnightblue" stroke="midnightblue" points="801.93,-8.65 791.79,-11.74 801.64,-15.64 801.93,-8.65"/>
</g>
<!-- Node24 -->
<g id="node24" class="node">
<title>Node24</title>
<g id="a_node24"><a xlink:href="IKeyListener_8hpp.html" target="_top" xlink:title=" ">
<polygon fill="none" stroke="black" points="795.47,-56.5 795.47,-75.5 884.47,-75.5 884.47,-56.5 795.47,-56.5"/>
<text text-anchor="middle" x="839.97" y="-63.5" font-family="Helvetica,sans-Serif" font-size="10.00">IKeyListener.hpp</text>
</a>
</g>
</g>
<!-- Node23&#45;&gt;Node24 -->
<g id="edge38" class="edge">
<title>Node23&#45;&gt;Node24</title>
<path fill="none" stroke="midnightblue" d="M968.73,-112.44C943.1,-103.4 902.49,-89.06 873.73,-78.92"/>
<polygon fill="midnightblue" stroke="midnightblue" points="874.7,-75.54 864.1,-75.52 872.37,-82.15 874.7,-75.54"/>
</g>
<!-- Node25 -->
<g id="node25" class="node">
<title>Node25</title>
<g id="a_node25"><a xlink:href="IMouseListener_8hpp.html" target="_top" xlink:title=" ">
<polygon fill="none" stroke="black" points="901.97,-56.5 901.97,-75.5 1003.97,-75.5 1003.97,-56.5 901.97,-56.5"/>
<text text-anchor="middle" x="952.97" y="-63.5" font-family="Helvetica,sans-Serif" font-size="10.00">IMouseListener.hpp</text>
</a>
</g>
</g>
<!-- Node23&#45;&gt;Node25 -->
<g id="edge39" class="edge">
<title>Node23&#45;&gt;Node25</title>
<path fill="none" stroke="midnightblue" d="M986.37,-112.08C980.72,-104.46 972.43,-93.26 965.52,-83.94"/>
<polygon fill="midnightblue" stroke="midnightblue" points="968.22,-81.7 959.45,-75.75 962.59,-85.87 968.22,-81.7"/>
</g>
<!-- Node26&#45;&gt;Node5 -->
<g id="edge42" class="edge">
<title>Node26&#45;&gt;Node5</title>
<path fill="none" stroke="midnightblue" d="M354.39,-173.93C352.55,-163.89 349.45,-146.76 346.97,-132 340.9,-95.77 334.37,-53.35 330.77,-29.58"/>
<polygon fill="midnightblue" stroke="midnightblue" points="334.2,-28.88 329.25,-19.52 327.28,-29.93 334.2,-28.88"/>
</g>
<!-- Node26&#45;&gt;Node16 -->
<g id="edge43" class="edge">
<title>Node26&#45;&gt;Node16</title>
<path fill="none" stroke="midnightblue" d="M373.74,-173.98C394.46,-164.03 428.92,-147.49 452.96,-135.96"/>
<polygon fill="midnightblue" stroke="midnightblue" points="454.74,-138.99 462.24,-131.51 451.71,-132.68 454.74,-138.99"/>
</g>
<!-- Node28&#45;&gt;Node5 -->
<g id="edge46" class="edge">
<title>Node28&#45;&gt;Node5</title>
<path fill="none" stroke="midnightblue" d="M610.35,-168.35C622.14,-159.5 635.48,-146.95 641.97,-132 655.42,-101.01 664.1,-81.52 641.97,-56 606.3,-14.85 438.34,-10.42 363.78,-10.54"/>
<polygon fill="midnightblue" stroke="midnightblue" points="363.47,-7.04 353.48,-10.58 363.5,-14.04 363.47,-7.04"/>
</g>
<!-- Node28&#45;&gt;Node16 -->
<g id="edge47" class="edge">
<title>Node28&#45;&gt;Node16</title>
<path fill="none" stroke="midnightblue" d="M562.38,-168.4C544.9,-158.77 521.88,-146.09 504.62,-136.58"/>
<polygon fill="midnightblue" stroke="midnightblue" points="506.14,-133.42 495.69,-131.66 502.76,-139.55 506.14,-133.42"/>
</g>
<!-- Node29 -->
<g id="node29" class="node">
<title>Node29</title>
<g id="a_node29"><a xlink:href="AudioSource_8hpp.html" target="_top" xlink:title=" ">
<polygon fill="none" stroke="black" points="542.97,-112.5 542.97,-131.5 632.97,-131.5 632.97,-112.5 542.97,-112.5"/>
<text text-anchor="middle" x="587.97" y="-119.5" font-family="Helvetica,sans-Serif" font-size="10.00">AudioSource.hpp</text>
</a>
</g>
</g>
<!-- Node28&#45;&gt;Node29 -->
<g id="edge48" class="edge">
<title>Node28&#45;&gt;Node29</title>
<path fill="none" stroke="midnightblue" d="M587.97,-168.4C587.97,-160.47 587.97,-150.46 587.97,-141.86"/>
<polygon fill="midnightblue" stroke="midnightblue" points="591.47,-141.66 587.97,-131.66 584.47,-141.66 591.47,-141.66"/>
</g>
<!-- Node30 -->
<g id="node30" class="node">
<title>Node30</title>
<g id="a_node30"><a xlink:href="AudioClipName_8hpp.html" target="_top" xlink:title=" ">
<polygon fill="none" stroke="black" points="689.47,-112.5 689.47,-131.5 832.47,-131.5 832.47,-112.5 689.47,-112.5"/>
<text text-anchor="middle" x="760.97" y="-119.5" font-family="Helvetica,sans-Serif" font-size="10.00">../Enums/AudioClipName.hpp</text>
</a>
</g>
</g>
<!-- Node28&#45;&gt;Node30 -->
<g id="edge51" class="edge">
<title>Node28&#45;&gt;Node30</title>
<path fill="none" stroke="midnightblue" d="M628.97,-168.4C658.6,-158.21 698.2,-144.59 726.27,-134.93"/>
<polygon fill="midnightblue" stroke="midnightblue" points="727.73,-138.13 736.05,-131.57 725.46,-131.51 727.73,-138.13"/>
</g>
<!-- Node29&#45;&gt;Node4 -->
<g id="edge49" class="edge">
<title>Node29&#45;&gt;Node4</title>
<path fill="none" stroke="midnightblue" d="M542.89,-113.47C539.87,-112.97 536.88,-112.48 533.97,-112 455.96,-99.14 365.5,-84.43 310.01,-75.43"/>
<polygon fill="midnightblue" stroke="midnightblue" points="310.49,-71.96 300.06,-73.82 309.37,-78.87 310.49,-71.96"/>
</g>
<!-- Node29&#45;&gt;Node12 -->
<g id="edge50" class="edge">
<title>Node29&#45;&gt;Node12</title>
<path fill="none" stroke="midnightblue" d="M591.94,-112.08C595.19,-104.77 599.89,-94.18 603.93,-85.1"/>
<polygon fill="midnightblue" stroke="midnightblue" points="607.22,-86.31 608.08,-75.75 600.82,-83.47 607.22,-86.31"/>
</g>
</g>
</svg>
        <g id="navigator" transform="translate(0 0)" fill="#404254">
                <rect fill="#f2f5e9" fill-opacity="0.5" stroke="#606060" stroke-width=".5" x="0" y="0" width="60" height="60"/>
                <use id="zoomplus" xlink:href="#zoomPlus" x="17" y="9" onmousedown="handleZoom(evt,'in')"/>
                <use id="zoomminus" xlink:href="#zoomMin" x="42" y="9" onmousedown="handleZoom(evt,'out')"/>
                <use id="reset" xlink:href="#resetDef" x="30" y="36" onmousedown="handleReset()"/>
                <g id="arrowUp" xlink:href="#dirArrow" transform="translate(30 24)" onmousedown="handlePan(0,-1)">
                  <use xlink:href="#rim" fill="#404040">
                        <set attributeName="fill" to="#808080" begin="arrowUp.mouseover" end="arrowUp.mouseout"/>
                  </use>
                  <path fill="none" stroke="white" stroke-width="1.5" d="M0,-3.0v7 M-2.5,-0.5L0,-3.0L2.5,-0.5"/>
                </g>
                <g id="arrowRight" xlink:href="#dirArrow" transform="rotate(90) translate(36 -43)" onmousedown="handlePan(1,0)">
                  <use xlink:href="#rim" fill="#404040">
                        <set attributeName="fill" to="#808080" begin="arrowRight.mouseover" end="arrowRight.mouseout"/>
                  </use>
                  <path fill="none" stroke="white" stroke-width="1.5" d="M0,-3.0v7 M-2.5,-0.5L0,-3.0L2.5,-0.5"/>
                </g>
                <g id="arrowDown" xlink:href="#dirArrow" transform="rotate(180) translate(-30 -48)" onmousedown="handlePan(0,1)">
                  <use xlink:href="#rim" fill="#404040">
                        <set attributeName="fill" to="#808080" begin="arrowDown.mouseover" end="arrowDown.mouseout"/>
                  </use>
                  <path fill="none" stroke="white" stroke-width="1.5" d="M0,-3.0v7 M-2.5,-0.5L0,-3.0L2.5,-0.5"/>
                </g>
                <g id="arrowLeft" xlink:href="#dirArrow" transform="rotate(270) translate(-36 17)" onmousedown="handlePan(-1,0)">
                  <use xlink:href="#rim" fill="#404040">
                        <set attributeName="fill" to="#808080" begin="arrowLeft.mouseover" end="arrowLeft.mouseout"/>
                  </use>
                  <path fill="none" stroke="white" stroke-width="1.5" d="M0,-3.0v7 M-2.5,-0.5L0,-3.0L2.5,-0.5"/>
                </g>
        </g>
        <svg viewBox="0 0 15 15" width="100%" height="30px" preserveAspectRatio="xMaxYMin meet">
         <g id="arrow_out" transform="scale(0.3 0.3)">
          <a xlink:href="InvisibilityAbilityBehaviour_8cpp__incl_org.svg" target="_base">
           <rect id="button" ry="5" rx="5" y="6" x="6" height="38" width="38"
                fill="#f2f5e9" fill-opacity="0.5" stroke="#606060" stroke-width="1.0"/>
           <path id="arrow"
             d="M 11.500037,31.436501 C 11.940474,20.09759 22.043105,11.32322 32.158766,21.979434 L 37.068811,17.246167 C 37.068811,17.246167 37.088388,32 37.088388,32 L 22.160133,31.978069 C 22.160133,31.978069 26.997745,27.140456 26.997745,27.140456 C 18.528582,18.264221 13.291696,25.230495 11.500037,31.436501 z"
             style="fill:#404040;"/>
          </a>
         </g>
        </svg>
</svg>
