<?xml version="1.0" encoding="UTF-8" standalone="no"?>
<!DOCTYPE svg PUBLIC "-//W3C//DTD SVG 1.1//EN"
 "http://www.w3.org/Graphics/SVG/1.1/DTD/svg11.dtd">
<!-- Generated by graphviz version 2.44.0 ()
 -->
<!-- Title: src/Scripts/Heroes/InvisibilityAbilityBehaviour.cpp Pages: 1 -->
<!--zoomable 442 -->
<svg id="main" version="1.1" xmlns="http://www.w3.org/2000/svg" xmlns:xlink="http://www.w3.org/1999/xlink" xml:space="preserve" onload="init(evt)">
<style type="text/css"><![CDATA[
.edge:hover path { stroke: red; }
.edge:hover polygon { stroke: red; fill: red; }
]]></style>
<script type="text/javascript"><![CDATA[
var edges = document.getElementsByTagName('g');
if (edges && edges.length) {
  for (var i=0;i<edges.length;i++) {
    if (edges[i].id.substr(0,4)=='edge') {
      edges[i].setAttribute('class','edge');
    }
  }
}
]]></script>
        <defs>
                <circle id="rim" cx="0" cy="0" r="7"/>
                <circle id="rim2" cx="0" cy="0" r="3.5"/>
                <g id="zoomPlus">
                        <use xlink:href="#rim" fill="#404040">
                                <set attributeName="fill" to="#808080" begin="zoomplus.mouseover" end="zoomplus.mouseout"/>
                        </use>
                        <path d="M-4,0h8M0,-4v8" fill="none" stroke="white" stroke-width="1.5" pointer-events="none"/>
                </g>
                <g id="zoomMin">
                        <use xlink:href="#rim" fill="#404040">
                                <set attributeName="fill" to="#808080" begin="zoomminus.mouseover" end="zoomminus.mouseout"/>
                        </use>
                        <path d="M-4,0h8" fill="none" stroke="white" stroke-width="1.5" pointer-events="none"/>
                </g>
                <g id="dirArrow">
                        <path fill="none" stroke="white" stroke-width="1.5" d="M0,-3.0v7 M-2.5,-0.5L0,-3.0L2.5,-0.5"/>
                </g>
               <g id="resetDef">
                       <use xlink:href="#rim2" fill="#404040">
                               <set attributeName="fill" to="#808080" begin="reset.mouseover" end="reset.mouseout"/>
                       </use>
               </g>
        </defs>

<script type="text/javascript">
var viewWidth = 1068;
var viewHeight = 442;
var sectionId = 'dynsection-0';
</script>
<script xlink:href="svgpan.js"/>
<svg id="graph" class="graph">
<g id="viewport">
<title>src/Scripts/Heroes/InvisibilityAbilityBehaviour.cpp</title>
<!-- Node1 -->
<g id="node1" class="node">
<title>Node1</title>
<g id="a_node1"><a xlink:title=" ">
<polygon fill="#bfbfbf" stroke="black" points="513.54,-403.5 513.54,-433.5 663.54,-433.5 663.54,-403.5 513.54,-403.5"/>
<text text-anchor="start" x="521.54" y="-421.5" font-family="Helvetica,sans-Serif" font-size="10.00">src/Scripts/Heroes</text>
<text text-anchor="middle" x="588.54" y="-410.5" font-family="Helvetica,sans-Serif" font-size="10.00">/InvisibilityAbilityBehaviour.cpp</text>
</a>
</g>
</g>
<!-- Node2 -->
<g id="node2" class="node">
<title>Node2</title>
<g id="a_node2"><a xlink:href="InvisibilityAbilityBehaviour_8hpp.html" target="_top" xlink:title=" ">
<polygon fill="none" stroke="black" points="187.04,-347.5 187.04,-366.5 334.04,-366.5 334.04,-347.5 187.04,-347.5"/>
<text text-anchor="middle" x="260.54" y="-354.5" font-family="Helvetica,sans-Serif" font-size="10.00">InvisibilityAbilityBehaviour.hpp</text>
</a>
</g>
</g>
<!-- Node1&#45;&gt;Node2 -->
<g id="edge1" class="edge">
<title>Node1&#45;&gt;Node2</title>
<path fill="none" stroke="midnightblue" d="M513.29,-403.85C453.77,-393.05 371.92,-378.2 317.69,-368.37"/>
<polygon fill="midnightblue" stroke="midnightblue" points="318.02,-364.87 307.56,-366.53 316.77,-371.76 318.02,-364.87"/>
</g>
<!-- Node15 -->
<g id="node15" class="node">
<title>Node15</title>
<g id="a_node15"><a xlink:href="GameObject_8hpp.html" target="_top" xlink:title=" ">
<polygon fill="none" stroke="black" points="436.04,-112.5 436.04,-131.5 525.04,-131.5 525.04,-112.5 436.04,-112.5"/>
<text text-anchor="middle" x="480.54" y="-119.5" font-family="Helvetica,sans-Serif" font-size="10.00">GameObject.hpp</text>
</a>
</g>
</g>
<!-- Node1&#45;&gt;Node15 -->
<g id="edge21" class="edge">
<title>Node1&#45;&gt;Node15</title>
<path fill="none" stroke="midnightblue" d="M563.57,-403.48C533.66,-384.63 487.54,-348.08 487.54,-302 487.54,-302 487.54,-302 487.54,-244 487.54,-207.83 484.38,-165.69 482.31,-141.9"/>
<polygon fill="midnightblue" stroke="midnightblue" points="485.78,-141.44 481.4,-131.8 478.81,-142.07 485.78,-141.44"/>
</g>
<!-- Node18 -->
<g id="node18" class="node">
<title>Node18</title>
<g id="a_node18"><a xlink:href="Engine_8hpp.html" target="_top" xlink:title=" ">
<polygon fill="none" stroke="black" points="515.54,-235.5 515.54,-254.5 579.54,-254.5 579.54,-235.5 515.54,-235.5"/>
<text text-anchor="middle" x="547.54" y="-242.5" font-family="Helvetica,sans-Serif" font-size="10.00">Engine.hpp</text>
</a>
</g>
</g>
<!-- Node1&#45;&gt;Node18 -->
<g id="edge28" class="edge">
<title>Node1&#45;&gt;Node18</title>
<path fill="none" stroke="midnightblue" d="M585.18,-403.47C577.83,-372.7 560.29,-299.33 552.01,-264.7"/>
<polygon fill="midnightblue" stroke="midnightblue" points="555.32,-263.47 549.59,-254.56 548.51,-265.1 555.32,-263.47"/>
</g>
<!-- Node22 -->
<g id="node22" class="node">
<title>Node22</title>
<g id="a_node22"><a xlink:href="Input_8hpp.html" target="_top" xlink:title=" ">
<polygon fill="none" stroke="black" points="965.54,-112.5 965.54,-131.5 1021.54,-131.5 1021.54,-112.5 965.54,-112.5"/>
<text text-anchor="middle" x="993.54" y="-119.5" font-family="Helvetica,sans-Serif" font-size="10.00">Input.hpp</text>
</a>
</g>
</g>
<!-- Node1&#45;&gt;Node22 -->
<g id="edge35" class="edge">
<title>Node1&#45;&gt;Node22</title>
<path fill="none" stroke="midnightblue" d="M663.55,-405.91C721.38,-392.22 791.54,-363.03 791.54,-302 791.54,-302 791.54,-302 791.54,-244 791.54,-205.07 903.37,-157.08 960.62,-135.07"/>
<polygon fill="midnightblue" stroke="midnightblue" points="961.87,-138.34 969.97,-131.52 959.38,-131.8 961.87,-138.34"/>
</g>
<!-- Node25 -->
<g id="node25" class="node">
<title>Node25</title>
<g id="a_node25"><a xlink:href="GameObjectUtil_8hpp.html" target="_top" xlink:title=" ">
<polygon fill="none" stroke="black" points="293.54,-174 293.54,-193 421.54,-193 421.54,-174 293.54,-174"/>
<text text-anchor="middle" x="357.54" y="-181" font-family="Helvetica,sans-Serif" font-size="10.00">Utils/GameObjectUtil.hpp</text>
</a>
</g>
</g>
<!-- Node1&#45;&gt;Node25 -->
<g id="edge40" class="edge">
<title>Node1&#45;&gt;Node25</title>
<path fill="none" stroke="midnightblue" d="M537.21,-403.42C515.57,-395.48 491.34,-383.73 473.54,-367 425.45,-321.8 443.77,-288.79 405.54,-235 396.56,-222.37 384.55,-209.73 374.78,-200.26"/>
<polygon fill="midnightblue" stroke="midnightblue" points="376.9,-197.44 367.23,-193.11 372.09,-202.53 376.9,-197.44"/>
</g>
<!-- Node26 -->
<g id="node26" class="node">
<title>Node26</title>
<g id="a_node26"><a xlink:href="Layer_8hpp.html" target="_top" xlink:title=" ">
<polygon fill="none" stroke="black" points="820.04,-347.5 820.04,-366.5 927.04,-366.5 927.04,-347.5 820.04,-347.5"/>
<text text-anchor="middle" x="873.54" y="-354.5" font-family="Helvetica,sans-Serif" font-size="10.00">../../Enums/Layer.hpp</text>
</a>
</g>
</g>
<!-- Node1&#45;&gt;Node26 -->
<g id="edge43" class="edge">
<title>Node1&#45;&gt;Node26</title>
<path fill="none" stroke="midnightblue" d="M655.72,-403.47C706.93,-392.78 776.35,-378.29 822.93,-368.57"/>
<polygon fill="midnightblue" stroke="midnightblue" points="823.72,-371.98 832.8,-366.51 822.29,-365.12 823.72,-371.98"/>
</g>
<!-- Node27 -->
<g id="node27" class="node">
<title>Node27</title>
<g id="a_node27"><a xlink:href="AudioSourcePrefabFactory_8hpp.html" target="_top" xlink:title=" ">
<polygon fill="none" stroke="black" points="523.04,-168.5 523.04,-198.5 654.04,-198.5 654.04,-168.5 523.04,-168.5"/>
<text text-anchor="start" x="531.04" y="-186.5" font-family="Helvetica,sans-Serif" font-size="10.00">../../Factories/AudioSource</text>
<text text-anchor="middle" x="588.54" y="-175.5" font-family="Helvetica,sans-Serif" font-size="10.00">PrefabFactory.hpp</text>
</a>
</g>
</g>
<!-- Node1&#45;&gt;Node27 -->
<g id="edge44" class="edge">
<title>Node1&#45;&gt;Node27</title>
<path fill="none" stroke="midnightblue" d="M588.54,-403.28C588.54,-364.59 588.54,-257.15 588.54,-208.72"/>
<polygon fill="midnightblue" stroke="midnightblue" points="592.04,-208.54 588.54,-198.54 585.04,-208.54 592.04,-208.54"/>
</g>
<!-- Node30 -->
<g id="node30" class="node">
<title>Node30</title>
<g id="a_node30"><a xlink:href="HeroConstants_8hpp.html" target="_top" xlink:title=" ">
<polygon fill="none" stroke="black" points="945.04,-347.5 945.04,-366.5 1060.04,-366.5 1060.04,-347.5 945.04,-347.5"/>
<text text-anchor="middle" x="1002.54" y="-354.5" font-family="Helvetica,sans-Serif" font-size="10.00">../../HeroConstants.hpp</text>
</a>
</g>
</g>
<!-- Node1&#45;&gt;Node30 -->
<g id="edge51" class="edge">
<title>Node1&#45;&gt;Node30</title>
<path fill="none" stroke="midnightblue" d="M663.99,-406.66C741.29,-395.55 860.36,-378.43 934.75,-367.74"/>
<polygon fill="midnightblue" stroke="midnightblue" points="935.54,-371.17 944.94,-366.28 934.54,-364.24 935.54,-371.17"/>
</g>
<!-- Node3 -->
<g id="node3" class="node">
<title>Node3</title>
<g id="a_node3"><a xlink:href="AbilityBehaviour_8hpp.html" target="_top" xlink:title=" ">
<polygon fill="none" stroke="black" points="175.54,-291.5 175.54,-310.5 279.54,-310.5 279.54,-291.5 175.54,-291.5"/>
<text text-anchor="middle" x="227.54" y="-298.5" font-family="Helvetica,sans-Serif" font-size="10.00">AbilityBehaviour.hpp</text>
</a>
</g>
</g>
<!-- Node2&#45;&gt;Node3 -->
<g id="edge2" class="edge">
<title>Node2&#45;&gt;Node3</title>
<path fill="none" stroke="midnightblue" d="M255.09,-347.08C250.53,-339.61 243.87,-328.72 238.25,-319.52"/>
<polygon fill="midnightblue" stroke="midnightblue" points="241.09,-317.46 232.89,-310.75 235.12,-321.11 241.09,-317.46"/>
</g>
<!-- Node4 -->
<g id="node4" class="node">
<title>Node4</title>
<g id="a_node4"><a xlink:href="BehaviourScript_8hpp.html" target="_top" xlink:title=" ">
<polygon fill="none" stroke="black" points="144.54,-174 144.54,-193 248.54,-193 248.54,-174 144.54,-174"/>
<text text-anchor="middle" x="196.54" y="-181" font-family="Helvetica,sans-Serif" font-size="10.00">BehaviourScript.hpp</text>
</a>
</g>
</g>
<!-- Node3&#45;&gt;Node4 -->
<g id="edge3" class="edge">
<title>Node3&#45;&gt;Node4</title>
<path fill="none" stroke="midnightblue" d="M225.21,-291.32C220.21,-272.67 208.33,-228.44 201.54,-203.13"/>
<polygon fill="midnightblue" stroke="midnightblue" points="204.87,-202.03 198.9,-193.28 198.11,-203.85 204.87,-202.03"/>
</g>
<!-- Node8 -->
<g id="node8" class="node">
<title>Node8</title>
<g id="a_node8"><a xlink:href="CoolDownBehaviour_8hpp.html" target="_top" xlink:title=" ">
<polygon fill="none" stroke="black" points="224.54,-235.5 224.54,-254.5 396.54,-254.5 396.54,-235.5 224.54,-235.5"/>
<text text-anchor="middle" x="310.54" y="-242.5" font-family="Helvetica,sans-Serif" font-size="10.00">../Common/CoolDownBehaviour.hpp</text>
</a>
</g>
</g>
<!-- Node3&#45;&gt;Node8 -->
<g id="edge8" class="edge">
<title>Node3&#45;&gt;Node8</title>
<path fill="none" stroke="midnightblue" d="M240.88,-291.32C253.7,-282.98 273.33,-270.21 288.48,-260.35"/>
<polygon fill="midnightblue" stroke="midnightblue" points="290.76,-263.04 297.24,-254.65 286.95,-257.17 290.76,-263.04"/>
</g>
<!-- Node9 -->
<g id="node9" class="node">
<title>Node9</title>
<g id="a_node9"><a xlink:href="HealthBehaviour_8hpp.html" target="_top" xlink:title=" ">
<polygon fill="none" stroke="black" points="12.54,-235.5 12.54,-254.5 168.54,-254.5 168.54,-235.5 12.54,-235.5"/>
<text text-anchor="middle" x="90.54" y="-242.5" font-family="Helvetica,sans-Serif" font-size="10.00">../Common/HealthBehaviour.hpp</text>
</a>
</g>
</g>
<!-- Node3&#45;&gt;Node9 -->
<g id="edge10" class="edge">
<title>Node3&#45;&gt;Node9</title>
<path fill="none" stroke="midnightblue" d="M205.83,-291.44C183.19,-282.52 147.47,-268.44 121.79,-258.32"/>
<polygon fill="midnightblue" stroke="midnightblue" points="122.73,-254.93 112.15,-254.52 120.17,-261.44 122.73,-254.93"/>
</g>
<!-- Node5 -->
<g id="node5" class="node">
<title>Node5</title>
<g id="a_node5"><a xlink:href="Component_8hpp.html" target="_top" xlink:title=" ">
<polygon fill="none" stroke="black" points="216.54,-56.5 216.54,-75.5 300.54,-75.5 300.54,-56.5 216.54,-56.5"/>
<text text-anchor="middle" x="258.54" y="-63.5" font-family="Helvetica,sans-Serif" font-size="10.00">Component.hpp</text>
</a>
</g>
</g>
<!-- Node4&#45;&gt;Node5 -->
<g id="edge4" class="edge">
<title>Node4&#45;&gt;Node5</title>
<path fill="none" stroke="midnightblue" d="M204.13,-173.68C212.22,-163.97 225,-147.64 233.54,-132 241.69,-117.08 248.43,-98.94 252.85,-85.61"/>
<polygon fill="midnightblue" stroke="midnightblue" points="256.29,-86.32 256,-75.73 249.63,-84.2 256.29,-86.32"/>
</g>
<!-- Node7 -->
<g id="node7" class="node">
<title>Node7</title>
<g id="a_node7"><a xlink:href="Collider_8hpp.html" target="_top" xlink:title=" ">
<polygon fill="none" stroke="black" points="157.04,-112.5 157.04,-131.5 224.04,-131.5 224.04,-112.5 157.04,-112.5"/>
<text text-anchor="middle" x="190.54" y="-119.5" font-family="Helvetica,sans-Serif" font-size="10.00">Collider.hpp</text>
</a>
</g>
</g>
<!-- Node4&#45;&gt;Node7 -->
<g id="edge6" class="edge">
<title>Node4&#45;&gt;Node7</title>
<path fill="none" stroke="midnightblue" d="M195.68,-173.98C194.83,-165.58 193.51,-152.48 192.42,-141.66"/>
<polygon fill="midnightblue" stroke="midnightblue" points="195.88,-141.11 191.4,-131.51 188.92,-141.81 195.88,-141.11"/>
</g>
<!-- Node6 -->
<g id="node6" class="node">
<title>Node6</title>
<g id="a_node6"><a xlink:title=" ">
<polygon fill="none" stroke="#bfbfbf" points="303.04,-0.5 303.04,-19.5 354.04,-19.5 354.04,-0.5 303.04,-0.5"/>
<text text-anchor="middle" x="328.54" y="-7.5" font-family="Helvetica,sans-Serif" font-size="10.00">memory</text>
</a>
</g>
</g>
<!-- Node5&#45;&gt;Node6 -->
<g id="edge5" class="edge">
<title>Node5&#45;&gt;Node6</title>
<path fill="none" stroke="midnightblue" d="M269.79,-56.32C280.34,-48.18 296.34,-35.84 308.98,-26.09"/>
<polygon fill="midnightblue" stroke="midnightblue" points="311.31,-28.71 317.09,-19.83 307.03,-23.17 311.31,-28.71"/>
</g>
<!-- Node7&#45;&gt;Node5 -->
<g id="edge7" class="edge">
<title>Node7&#45;&gt;Node5</title>
<path fill="none" stroke="midnightblue" d="M201.47,-112.32C211.71,-104.18 227.26,-91.84 239.54,-82.09"/>
<polygon fill="midnightblue" stroke="midnightblue" points="241.76,-84.79 247.42,-75.83 237.41,-79.31 241.76,-84.79"/>
</g>
<!-- Node8&#45;&gt;Node4 -->
<g id="edge9" class="edge">
<title>Node8&#45;&gt;Node4</title>
<path fill="none" stroke="midnightblue" d="M294.21,-235.48C275.33,-225.62 244.03,-209.29 221.96,-197.77"/>
<polygon fill="midnightblue" stroke="midnightblue" points="223.33,-194.53 212.84,-193.01 220.09,-200.74 223.33,-194.53"/>
</g>
<!-- Node9&#45;&gt;Node4 -->
<g id="edge11" class="edge">
<title>Node9&#45;&gt;Node4</title>
<path fill="none" stroke="midnightblue" d="M105.73,-235.48C123.2,-225.67 152.12,-209.43 172.62,-197.92"/>
<polygon fill="midnightblue" stroke="midnightblue" points="174.37,-200.96 181.38,-193.01 170.95,-194.85 174.37,-200.96"/>
</g>
<!-- Node9&#45;&gt;Node6 -->
<g id="edge12" class="edge">
<title>Node9&#45;&gt;Node6</title>
<path fill="none" stroke="midnightblue" d="M78.47,-235.3C67.86,-227.06 52.71,-213.78 43.54,-199 9.6,-144.3 -21.56,-104.7 20.54,-56 55.4,-15.67 219.47,-10.78 292.88,-10.65"/>
<polygon fill="midnightblue" stroke="midnightblue" points="293.02,-14.15 303.03,-10.66 293.03,-7.15 293.02,-14.15"/>
</g>
<!-- Node10 -->
<g id="node10" class="node">
<title>Node10</title>
<g id="a_node10"><a xlink:href="Animator_8hpp.html" target="_top" xlink:title=" ">
<polygon fill="none" stroke="black" points="52.54,-174 52.54,-193 126.54,-193 126.54,-174 52.54,-174"/>
<text text-anchor="middle" x="89.54" y="-181" font-family="Helvetica,sans-Serif" font-size="10.00">Animator.hpp</text>
</a>
</g>
</g>
<!-- Node9&#45;&gt;Node10 -->
<g id="edge13" class="edge">
<title>Node9&#45;&gt;Node10</title>
<path fill="none" stroke="midnightblue" d="M90.4,-235.48C90.26,-227.08 90.04,-213.98 89.85,-203.16"/>
<polygon fill="midnightblue" stroke="midnightblue" points="93.35,-202.95 89.68,-193.01 86.35,-203.07 93.35,-202.95"/>
</g>
<!-- Node10&#45;&gt;Node5 -->
<g id="edge14" class="edge">
<title>Node10&#45;&gt;Node5</title>
<path fill="none" stroke="midnightblue" d="M94.56,-173.95C103.5,-159.4 123.53,-129.65 147.54,-112 168.03,-96.94 194.27,-86 216.09,-78.68"/>
<polygon fill="midnightblue" stroke="midnightblue" points="217.32,-81.96 225.77,-75.57 215.18,-75.3 217.32,-81.96"/>
</g>
<!-- Node10&#45;&gt;Node6 -->
<g id="edge20" class="edge">
<title>Node10&#45;&gt;Node6</title>
<path fill="none" stroke="midnightblue" d="M73.58,-173.92C59.57,-165.37 40.11,-150.83 31.54,-132 24.85,-117.31 15.3,-75.7 32.54,-56 66,-17.77 220.93,-11.69 292.33,-10.95"/>
<polygon fill="midnightblue" stroke="midnightblue" points="292.66,-14.44 302.64,-10.87 292.61,-7.44 292.66,-14.44"/>
</g>
<!-- Node11 -->
<g id="node11" class="node">
<title>Node11</title>
<g id="a_node11"><a xlink:href="Sprite_8hpp.html" target="_top" xlink:title=" ">
<polygon fill="none" stroke="black" points="40.54,-112.5 40.54,-131.5 100.54,-131.5 100.54,-112.5 40.54,-112.5"/>
<text text-anchor="middle" x="70.54" y="-119.5" font-family="Helvetica,sans-Serif" font-size="10.00">Sprite.hpp</text>
</a>
</g>
</g>
<!-- Node10&#45;&gt;Node11 -->
<g id="edge15" class="edge">
<title>Node10&#45;&gt;Node11</title>
<path fill="none" stroke="midnightblue" d="M86.82,-173.98C84.11,-165.49 79.87,-152.2 76.39,-141.32"/>
<polygon fill="midnightblue" stroke="midnightblue" points="79.63,-139.97 73.26,-131.51 72.97,-142.1 79.63,-139.97"/>
</g>
<!-- Node14 -->
<g id="node14" class="node">
<title>Node14</title>
<g id="a_node14"><a xlink:title=" ">
<polygon fill="none" stroke="#bfbfbf" points="356.54,-56.5 356.54,-75.5 400.54,-75.5 400.54,-56.5 356.54,-56.5"/>
<text text-anchor="middle" x="378.54" y="-63.5" font-family="Helvetica,sans-Serif" font-size="10.00">vector</text>
</a>
</g>
</g>
<!-- Node10&#45;&gt;Node14 -->
<g id="edge19" class="edge">
<title>Node10&#45;&gt;Node14</title>
<path fill="none" stroke="midnightblue" d="M116.06,-173.94C145.14,-164.39 193.06,-148.14 233.54,-132 275.21,-115.39 322.45,-93.65 351.37,-80.01"/>
<polygon fill="midnightblue" stroke="midnightblue" points="352.9,-83.15 360.44,-75.71 349.9,-76.83 352.9,-83.15"/>
</g>
<!-- Node11&#45;&gt;Node5 -->
<g id="edge16" class="edge">
<title>Node11&#45;&gt;Node5</title>
<path fill="none" stroke="midnightblue" d="M100.33,-112.44C132.37,-103.24 183.47,-88.56 218.89,-78.39"/>
<polygon fill="midnightblue" stroke="midnightblue" points="220.25,-81.64 228.89,-75.52 218.31,-74.91 220.25,-81.64"/>
</g>
<!-- Node12 -->
<g id="node12" class="node">
<title>Node12</title>
<g id="a_node12"><a xlink:href="Color_8hpp.html" target="_top" xlink:title=" ">
<polygon fill="none" stroke="black" points="42.04,-56.5 42.04,-75.5 99.04,-75.5 99.04,-56.5 42.04,-56.5"/>
<text text-anchor="middle" x="70.54" y="-63.5" font-family="Helvetica,sans-Serif" font-size="10.00">Color.hpp</text>
</a>
</g>
</g>
<!-- Node11&#45;&gt;Node12 -->
<g id="edge17" class="edge">
<title>Node11&#45;&gt;Node12</title>
<path fill="none" stroke="midnightblue" d="M70.54,-112.08C70.54,-105.01 70.54,-94.86 70.54,-85.99"/>
<polygon fill="midnightblue" stroke="midnightblue" points="74.04,-85.75 70.54,-75.75 67.04,-85.75 74.04,-85.75"/>
</g>
<!-- Node13 -->
<g id="node13" class="node">
<title>Node13</title>
<g id="a_node13"><a xlink:title=" ">
<polygon fill="none" stroke="#bfbfbf" points="592.04,-56.5 592.04,-75.5 633.04,-75.5 633.04,-56.5 592.04,-56.5"/>
<text text-anchor="middle" x="612.54" y="-63.5" font-family="Helvetica,sans-Serif" font-size="10.00">string</text>
</a>
</g>
</g>
<!-- Node11&#45;&gt;Node13 -->
<g id="edge18" class="edge">
<title>Node11&#45;&gt;Node13</title>
<path fill="none" stroke="midnightblue" d="M100.87,-117.21C115.04,-115.51 132.14,-113.54 147.54,-112 337.71,-93.04 390.86,-112.35 581.69,-75.99"/>
<polygon fill="midnightblue" stroke="midnightblue" points="582.62,-79.38 591.77,-74.04 581.29,-72.5 582.62,-79.38"/>
</g>
<!-- Node15&#45;&gt;Node5 -->
<g id="edge22" class="edge">
<title>Node15&#45;&gt;Node5</title>
<path fill="none" stroke="midnightblue" d="M445.36,-112.44C406.96,-103.1 345.36,-88.12 303.49,-77.93"/>
<polygon fill="midnightblue" stroke="midnightblue" points="304.1,-74.48 293.55,-75.52 302.44,-81.28 304.1,-74.48"/>
</g>
<!-- Node15&#45;&gt;Node6 -->
<g id="edge27" class="edge">
<title>Node15&#45;&gt;Node6</title>
<path fill="none" stroke="midnightblue" d="M474.92,-112.4C465.75,-98.9 446.38,-72.56 424.54,-56 406.18,-42.07 382.82,-31.01 363.75,-23.33"/>
<polygon fill="midnightblue" stroke="midnightblue" points="364.8,-19.99 354.21,-19.63 362.26,-26.51 364.8,-19.99"/>
</g>
<!-- Node15&#45;&gt;Node13 -->
<g id="edge25" class="edge">
<title>Node15&#45;&gt;Node13</title>
<path fill="none" stroke="midnightblue" d="M501.46,-112.44C523.28,-103.52 557.69,-89.44 582.43,-79.32"/>
<polygon fill="midnightblue" stroke="midnightblue" points="583.79,-82.54 591.72,-75.52 581.14,-76.06 583.79,-82.54"/>
</g>
<!-- Node15&#45;&gt;Node14 -->
<g id="edge26" class="edge">
<title>Node15&#45;&gt;Node14</title>
<path fill="none" stroke="midnightblue" d="M464.15,-112.32C447.87,-103.7 422.67,-90.36 403.82,-80.39"/>
<polygon fill="midnightblue" stroke="midnightblue" points="405.36,-77.24 394.89,-75.65 402.09,-83.43 405.36,-77.24"/>
</g>
<!-- Node16 -->
<g id="node16" class="node">
<title>Node16</title>
<g id="a_node16"><a xlink:href="Transform_8hpp.html" target="_top" xlink:title=" ">
<polygon fill="none" stroke="black" points="495.04,-56.5 495.04,-75.5 574.04,-75.5 574.04,-56.5 495.04,-56.5"/>
<text text-anchor="middle" x="534.54" y="-63.5" font-family="Helvetica,sans-Serif" font-size="10.00">Transform.hpp</text>
</a>
</g>
</g>
<!-- Node15&#45;&gt;Node16 -->
<g id="edge23" class="edge">
<title>Node15&#45;&gt;Node16</title>
<path fill="none" stroke="midnightblue" d="M489.46,-112.08C497.32,-104.22 508.97,-92.57 518.46,-83.08"/>
<polygon fill="midnightblue" stroke="midnightblue" points="521.19,-85.3 525.79,-75.75 516.24,-80.35 521.19,-85.3"/>
</g>
<!-- Node17 -->
<g id="node17" class="node">
<title>Node17</title>
<g id="a_node17"><a xlink:href="Point_8hpp.html" target="_top" xlink:title=" ">
<polygon fill="none" stroke="black" points="735.04,-0.5 735.04,-19.5 792.04,-19.5 792.04,-0.5 735.04,-0.5"/>
<text text-anchor="middle" x="763.54" y="-7.5" font-family="Helvetica,sans-Serif" font-size="10.00">Point.hpp</text>
</a>
</g>
</g>
<!-- Node16&#45;&gt;Node17 -->
<g id="edge24" class="edge">
<title>Node16&#45;&gt;Node17</title>
<path fill="none" stroke="midnightblue" d="M570.83,-56.44C612.97,-46.5 682.21,-30.18 725.21,-20.04"/>
<polygon fill="midnightblue" stroke="midnightblue" points="726.09,-23.43 735.02,-17.73 724.48,-16.61 726.09,-23.43"/>
</g>
<!-- Node19 -->
<g id="node19" class="node">
<title>Node19</title>
<g id="a_node19"><a xlink:href="EngineConfig_8hpp.html" target="_top" xlink:title=" ">
<polygon fill="none" stroke="black" points="672.04,-174 672.04,-193 763.04,-193 763.04,-174 672.04,-174"/>
<text text-anchor="middle" x="717.54" y="-181" font-family="Helvetica,sans-Serif" font-size="10.00">EngineConfig.hpp</text>
</a>
</g>
</g>
<!-- Node18&#45;&gt;Node19 -->
<g id="edge29" class="edge">
<title>Node18&#45;&gt;Node19</title>
<path fill="none" stroke="midnightblue" d="M571.9,-235.48C601.18,-225.22 650.51,-207.96 683.54,-196.4"/>
<polygon fill="midnightblue" stroke="midnightblue" points="684.95,-199.62 693.23,-193.01 682.63,-193.01 684.95,-199.62"/>
</g>
<!-- Node21 -->
<g id="node21" class="node">
<title>Node21</title>
<g id="a_node21"><a xlink:href="Scene_8hpp.html" target="_top" xlink:title=" ">
<polygon fill="none" stroke="black" points="356.54,-112.5 356.54,-131.5 418.54,-131.5 418.54,-112.5 356.54,-112.5"/>
<text text-anchor="middle" x="387.54" y="-119.5" font-family="Helvetica,sans-Serif" font-size="10.00">Scene.hpp</text>
</a>
</g>
</g>
<!-- Node18&#45;&gt;Node21 -->
<g id="edge32" class="edge">
<title>Node18&#45;&gt;Node21</title>
<path fill="none" stroke="midnightblue" d="M536.29,-235.49C509.39,-215.15 441.06,-163.48 407.19,-137.86"/>
<polygon fill="midnightblue" stroke="midnightblue" points="409.08,-134.9 398.99,-131.66 404.86,-140.48 409.08,-134.9"/>
</g>
<!-- Node20 -->
<g id="node20" class="node">
<title>Node20</title>
<g id="a_node20"><a xlink:href="WindowConfig_8hpp.html" target="_top" xlink:title=" ">
<polygon fill="none" stroke="black" points="851.54,-112.5 851.54,-131.5 947.54,-131.5 947.54,-112.5 851.54,-112.5"/>
<text text-anchor="middle" x="899.54" y="-119.5" font-family="Helvetica,sans-Serif" font-size="10.00">WindowConfig.hpp</text>
</a>
</g>
</g>
<!-- Node19&#45;&gt;Node20 -->
<g id="edge30" class="edge">
<title>Node19&#45;&gt;Node20</title>
<path fill="none" stroke="midnightblue" d="M743.62,-173.98C775.11,-163.68 828.24,-146.31 863.6,-134.75"/>
<polygon fill="midnightblue" stroke="midnightblue" points="865.09,-137.94 873.51,-131.51 862.92,-131.29 865.09,-137.94"/>
</g>
<!-- Node20&#45;&gt;Node13 -->
<g id="edge31" class="edge">
<title>Node20&#45;&gt;Node13</title>
<path fill="none" stroke="midnightblue" d="M854.06,-112.44C795.04,-101.34 693.63,-82.26 643.06,-72.74"/>
<polygon fill="midnightblue" stroke="midnightblue" points="643.55,-69.27 633.08,-70.86 642.26,-76.15 643.55,-69.27"/>
</g>
<!-- Node21&#45;&gt;Node6 -->
<g id="edge34" class="edge">
<title>Node21&#45;&gt;Node6</title>
<path fill="none" stroke="midnightblue" d="M395.08,-112.1C405.12,-99.11 420.42,-74.48 409.54,-56 399.65,-39.19 380.97,-28.21 364.04,-21.31"/>
<polygon fill="midnightblue" stroke="midnightblue" points="364.94,-17.91 354.35,-17.71 362.5,-24.47 364.94,-17.91"/>
</g>
<!-- Node21&#45;&gt;Node14 -->
<g id="edge33" class="edge">
<title>Node21&#45;&gt;Node14</title>
<path fill="none" stroke="midnightblue" d="M386.05,-112.08C384.86,-104.93 383.15,-94.64 381.66,-85.69"/>
<polygon fill="midnightblue" stroke="midnightblue" points="385.1,-85.04 380,-75.75 378.19,-86.19 385.1,-85.04"/>
</g>
<!-- Node22&#45;&gt;Node13 -->
<g id="edge39" class="edge">
<title>Node22&#45;&gt;Node13</title>
<path fill="none" stroke="midnightblue" d="M965.33,-113.8C962.37,-113.15 959.4,-112.53 956.54,-112 841.75,-90.6 703.55,-75.8 643.22,-69.88"/>
<polygon fill="midnightblue" stroke="midnightblue" points="643.5,-66.4 633.21,-68.91 642.83,-73.36 643.5,-66.4"/>
</g>
<!-- Node22&#45;&gt;Node17 -->
<g id="edge36" class="edge">
<title>Node22&#45;&gt;Node17</title>
<path fill="none" stroke="midnightblue" d="M1000.7,-112.42C1011.05,-98.95 1027.47,-72.67 1013.54,-56 987.08,-24.35 865.78,-14.93 802.38,-12.15"/>
<polygon fill="midnightblue" stroke="midnightblue" points="802.5,-8.65 792.36,-11.74 802.21,-15.64 802.5,-8.65"/>
</g>
<!-- Node23 -->
<g id="node23" class="node">
<title>Node23</title>
<g id="a_node23"><a xlink:href="IKeyListener_8hpp.html" target="_top" xlink:title=" ">
<polygon fill="none" stroke="black" points="796.04,-56.5 796.04,-75.5 885.04,-75.5 885.04,-56.5 796.04,-56.5"/>
<text text-anchor="middle" x="840.54" y="-63.5" font-family="Helvetica,sans-Serif" font-size="10.00">IKeyListener.hpp</text>
</a>
</g>
</g>
<!-- Node22&#45;&gt;Node23 -->
<g id="edge37" class="edge">
<title>Node22&#45;&gt;Node23</title>
<path fill="none" stroke="midnightblue" d="M969.3,-112.44C943.67,-103.4 903.05,-89.06 874.3,-78.92"/>
<polygon fill="midnightblue" stroke="midnightblue" points="875.26,-75.54 864.67,-75.52 872.94,-82.15 875.26,-75.54"/>
</g>
<!-- Node24 -->
<g id="node24" class="node">
<title>Node24</title>
<g id="a_node24"><a xlink:href="IMouseListener_8hpp.html" target="_top" xlink:title=" ">
<polygon fill="none" stroke="black" points="902.54,-56.5 902.54,-75.5 1004.54,-75.5 1004.54,-56.5 902.54,-56.5"/>
<text text-anchor="middle" x="953.54" y="-63.5" font-family="Helvetica,sans-Serif" font-size="10.00">IMouseListener.hpp</text>
</a>
</g>
</g>
<!-- Node22&#45;&gt;Node24 -->
<g id="edge38" class="edge">
<title>Node22&#45;&gt;Node24</title>
<path fill="none" stroke="midnightblue" d="M986.93,-112.08C981.28,-104.46 973,-93.26 966.09,-83.94"/>
<polygon fill="midnightblue" stroke="midnightblue" points="968.79,-81.7 960.02,-75.75 963.16,-85.87 968.79,-81.7"/>
</g>
<!-- Node25&#45;&gt;Node6 -->
<g id="edge41" class="edge">
<title>Node25&#45;&gt;Node6</title>
<path fill="none" stroke="midnightblue" d="M355.74,-173.94C353.65,-163.91 350.16,-146.78 347.54,-132 341.12,-95.83 334.72,-53.38 331.23,-29.6"/>
<polygon fill="midnightblue" stroke="midnightblue" points="334.66,-28.92 329.76,-19.53 327.74,-29.93 334.66,-28.92"/>
</g>
<!-- Node25&#45;&gt;Node15 -->
<g id="edge42" class="edge">
<title>Node25&#45;&gt;Node15</title>
<path fill="none" stroke="midnightblue" d="M375.16,-173.98C395.71,-164.03 429.9,-147.49 453.75,-135.96"/>
<polygon fill="midnightblue" stroke="midnightblue" points="455.47,-139.01 462.95,-131.51 452.42,-132.71 455.47,-139.01"/>
</g>
<!-- Node27&#45;&gt;Node6 -->
<g id="edge45" class="edge">
<title>Node27&#45;&gt;Node6</title>
<path fill="none" stroke="midnightblue" d="M610.91,-168.35C622.71,-159.5 636.05,-146.95 642.54,-132 655.99,-101.01 664.67,-81.52 642.54,-56 606.87,-14.85 438.91,-10.42 364.35,-10.54"/>
<polygon fill="midnightblue" stroke="midnightblue" points="364.03,-7.04 354.05,-10.58 364.07,-14.04 364.03,-7.04"/>
</g>
<!-- Node27&#45;&gt;Node15 -->
<g id="edge46" class="edge">
<title>Node27&#45;&gt;Node15</title>
<path fill="none" stroke="midnightblue" d="M562.95,-168.4C545.47,-158.77 522.45,-146.09 505.18,-136.58"/>
<polygon fill="midnightblue" stroke="midnightblue" points="506.7,-133.42 496.26,-131.66 503.32,-139.55 506.7,-133.42"/>
</g>
<!-- Node28 -->
<g id="node28" class="node">
<title>Node28</title>
<g id="a_node28"><a xlink:href="AudioSource_8hpp.html" target="_top" xlink:title=" ">
<polygon fill="none" stroke="black" points="543.54,-112.5 543.54,-131.5 633.54,-131.5 633.54,-112.5 543.54,-112.5"/>
<text text-anchor="middle" x="588.54" y="-119.5" font-family="Helvetica,sans-Serif" font-size="10.00">AudioSource.hpp</text>
</a>
</g>
</g>
<!-- Node27&#45;&gt;Node28 -->
<g id="edge47" class="edge">
<title>Node27&#45;&gt;Node28</title>
<path fill="none" stroke="midnightblue" d="M588.54,-168.4C588.54,-160.47 588.54,-150.46 588.54,-141.86"/>
<polygon fill="midnightblue" stroke="midnightblue" points="592.04,-141.66 588.54,-131.66 585.04,-141.66 592.04,-141.66"/>
</g>
<!-- Node29 -->
<g id="node29" class="node">
<title>Node29</title>
<g id="a_node29"><a xlink:href="AudioClipName_8hpp.html" target="_top" xlink:title=" ">
<polygon fill="none" stroke="black" points="690.04,-112.5 690.04,-131.5 833.04,-131.5 833.04,-112.5 690.04,-112.5"/>
<text text-anchor="middle" x="761.54" y="-119.5" font-family="Helvetica,sans-Serif" font-size="10.00">../Enums/AudioClipName.hpp</text>
</a>
</g>
</g>
<!-- Node27&#45;&gt;Node29 -->
<g id="edge50" class="edge">
<title>Node27&#45;&gt;Node29</title>
<path fill="none" stroke="midnightblue" d="M629.54,-168.4C659.17,-158.21 698.77,-144.59 726.84,-134.93"/>
<polygon fill="midnightblue" stroke="midnightblue" points="728.3,-138.13 736.62,-131.57 726.02,-131.51 728.3,-138.13"/>
</g>
<!-- Node28&#45;&gt;Node5 -->
<g id="edge48" class="edge">
<title>Node28&#45;&gt;Node5</title>
<path fill="none" stroke="midnightblue" d="M543.46,-113.47C540.44,-112.97 537.45,-112.48 534.54,-112 456.52,-99.14 366.07,-84.43 310.57,-75.43"/>
<polygon fill="midnightblue" stroke="midnightblue" points="311.06,-71.96 300.63,-73.82 309.94,-78.87 311.06,-71.96"/>
</g>
<!-- Node28&#45;&gt;Node13 -->
<g id="edge49" class="edge">
<title>Node28&#45;&gt;Node13</title>
<path fill="none" stroke="midnightblue" d="M592.5,-112.08C595.75,-104.77 600.46,-94.18 604.49,-85.1"/>
<polygon fill="midnightblue" stroke="midnightblue" points="607.79,-86.31 608.65,-75.75 601.39,-83.47 607.79,-86.31"/>
</g>
</g>
</svg>
        <g id="navigator" transform="translate(0 0)" fill="#404254">
                <rect fill="#f2f5e9" fill-opacity="0.5" stroke="#606060" stroke-width=".5" x="0" y="0" width="60" height="60"/>
                <use id="zoomplus" xlink:href="#zoomPlus" x="17" y="9" onmousedown="handleZoom(evt,'in')"/>
                <use id="zoomminus" xlink:href="#zoomMin" x="42" y="9" onmousedown="handleZoom(evt,'out')"/>
                <use id="reset" xlink:href="#resetDef" x="30" y="36" onmousedown="handleReset()"/>
                <g id="arrowUp" xlink:href="#dirArrow" transform="translate(30 24)" onmousedown="handlePan(0,-1)">
                  <use xlink:href="#rim" fill="#404040">
                        <set attributeName="fill" to="#808080" begin="arrowUp.mouseover" end="arrowUp.mouseout"/>
                  </use>
                  <path fill="none" stroke="white" stroke-width="1.5" d="M0,-3.0v7 M-2.5,-0.5L0,-3.0L2.5,-0.5"/>
                </g>
                <g id="arrowRight" xlink:href="#dirArrow" transform="rotate(90) translate(36 -43)" onmousedown="handlePan(1,0)">
                  <use xlink:href="#rim" fill="#404040">
                        <set attributeName="fill" to="#808080" begin="arrowRight.mouseover" end="arrowRight.mouseout"/>
                  </use>
                  <path fill="none" stroke="white" stroke-width="1.5" d="M0,-3.0v7 M-2.5,-0.5L0,-3.0L2.5,-0.5"/>
                </g>
                <g id="arrowDown" xlink:href="#dirArrow" transform="rotate(180) translate(-30 -48)" onmousedown="handlePan(0,1)">
                  <use xlink:href="#rim" fill="#404040">
                        <set attributeName="fill" to="#808080" begin="arrowDown.mouseover" end="arrowDown.mouseout"/>
                  </use>
                  <path fill="none" stroke="white" stroke-width="1.5" d="M0,-3.0v7 M-2.5,-0.5L0,-3.0L2.5,-0.5"/>
                </g>
                <g id="arrowLeft" xlink:href="#dirArrow" transform="rotate(270) translate(-36 17)" onmousedown="handlePan(-1,0)">
                  <use xlink:href="#rim" fill="#404040">
                        <set attributeName="fill" to="#808080" begin="arrowLeft.mouseover" end="arrowLeft.mouseout"/>
                  </use>
                  <path fill="none" stroke="white" stroke-width="1.5" d="M0,-3.0v7 M-2.5,-0.5L0,-3.0L2.5,-0.5"/>
                </g>
        </g>
        <svg viewBox="0 0 15 15" width="100%" height="30px" preserveAspectRatio="xMaxYMin meet">
         <g id="arrow_out" transform="scale(0.3 0.3)">
          <a xlink:href="InvisibilityAbilityBehaviour_8cpp__incl_org.svg" target="_base">
           <rect id="button" ry="5" rx="5" y="6" x="6" height="38" width="38"
                fill="#f2f5e9" fill-opacity="0.5" stroke="#606060" stroke-width="1.0"/>
           <path id="arrow"
             d="M 11.500037,31.436501 C 11.940474,20.09759 22.043105,11.32322 32.158766,21.979434 L 37.068811,17.246167 C 37.068811,17.246167 37.088388,32 37.088388,32 L 22.160133,31.978069 C 22.160133,31.978069 26.997745,27.140456 26.997745,27.140456 C 18.528582,18.264221 13.291696,25.230495 11.500037,31.436501 z"
             style="fill:#404040;"/>
          </a>
         </g>
        </svg>
</svg>
