<?xml version="1.0" encoding="UTF-8" standalone="no"?>
<!DOCTYPE svg PUBLIC "-//W3C//DTD SVG 1.1//EN"
 "http://www.w3.org/Graphics/SVG/1.1/DTD/svg11.dtd">
<!-- Generated by graphviz version 2.44.0 ()
 -->
<!-- Title: src/Enums/Layer.hpp Pages: 1 -->
<svg width="2368pt" height="95pt"
 viewBox="0.00 0.00 2367.50 95.00" xmlns="http://www.w3.org/2000/svg" xmlns:xlink="http://www.w3.org/1999/xlink">
<g id="graph0" class="graph" transform="scale(1 1) rotate(0) translate(4 91)">
<title>src/Enums/Layer.hpp</title>
<!-- Node1 -->
<g id="node1" class="node">
<title>Node1</title>
<g id="a_node1"><a xlink:title=" ">
<polygon fill="#bfbfbf" stroke="black" points="1110,-67.5 1110,-86.5 1218,-86.5 1218,-67.5 1110,-67.5"/>
<text text-anchor="middle" x="1164" y="-74.5" font-family="Helvetica,sans-Serif" font-size="10.00">src/Enums/Layer.hpp</text>
</a>
</g>
</g>
<!-- Node2 -->
<g id="node2" class="node">
<title>Node2</title>
<g id="a_node2"><a xlink:href="LevelController_8cpp.html" target="_top" xlink:title=" ">
<polygon fill="none" stroke="black" points="0,-6 0,-25 166,-25 166,-6 0,-6"/>
<text text-anchor="middle" x="83" y="-13" font-family="Helvetica,sans-Serif" font-size="10.00">src/Controllers/LevelController.cpp</text>
</a>
</g>
</g>
<!-- Node1&#45;&gt;Node2 -->
<g id="edge1" class="edge">
<title>Node1&#45;&gt;Node2</title>
<path fill="none" stroke="midnightblue" d="M1099.97,-75.54C942.31,-73.88 522.84,-66.22 175,-31 160.52,-29.53 144.85,-27.31 130.62,-25.03"/>
<polygon fill="midnightblue" stroke="midnightblue" points="1099.94,-79.04 1109.98,-75.64 1100.01,-72.04 1099.94,-79.04"/>
</g>
<!-- Node3 -->
<g id="node3" class="node">
<title>Node3</title>
<g id="a_node3"><a xlink:href="AudioSourcePrefabFactory_8cpp.html" target="_top" xlink:title=" ">
<polygon fill="none" stroke="black" points="184,-0.5 184,-30.5 316,-30.5 316,-0.5 184,-0.5"/>
<text text-anchor="start" x="192" y="-18.5" font-family="Helvetica,sans-Serif" font-size="10.00">src/Factories/AudioSource</text>
<text text-anchor="middle" x="250" y="-7.5" font-family="Helvetica,sans-Serif" font-size="10.00">PrefabFactory.cpp</text>
</a>
</g>
</g>
<!-- Node1&#45;&gt;Node3 -->
<g id="edge2" class="edge">
<title>Node1&#45;&gt;Node3</title>
<path fill="none" stroke="midnightblue" d="M1099.6,-75.56C958.64,-73.92 612.43,-66.32 325,-31 322.1,-30.64 319.15,-30.24 316.18,-29.81"/>
<polygon fill="midnightblue" stroke="midnightblue" points="1099.75,-79.06 1109.79,-75.67 1099.83,-72.06 1099.75,-79.06"/>
</g>
<!-- Node4 -->
<g id="node4" class="node">
<title>Node4</title>
<g id="a_node4"><a xlink:href="BackgroundPrefabFactory_8cpp.html" target="_top" xlink:title=" ">
<polygon fill="none" stroke="black" points="334,-0.5 334,-30.5 462,-30.5 462,-0.5 334,-0.5"/>
<text text-anchor="start" x="342" y="-18.5" font-family="Helvetica,sans-Serif" font-size="10.00">src/Factories/Background</text>
<text text-anchor="middle" x="398" y="-7.5" font-family="Helvetica,sans-Serif" font-size="10.00">PrefabFactory.cpp</text>
</a>
</g>
</g>
<!-- Node1&#45;&gt;Node4 -->
<g id="edge3" class="edge">
<title>Node1&#45;&gt;Node4</title>
<path fill="none" stroke="midnightblue" d="M1099.51,-74.64C976.7,-71.41 700.99,-61.18 471,-31 468.05,-30.61 465.05,-30.18 462.02,-29.71"/>
<polygon fill="midnightblue" stroke="midnightblue" points="1099.76,-78.14 1109.85,-74.9 1099.94,-71.14 1099.76,-78.14"/>
</g>
<!-- Node5 -->
<g id="node5" class="node">
<title>Node5</title>
<g id="a_node5"><a xlink:href="BulletFactory_8cpp.html" target="_top" xlink:title=" ">
<polygon fill="none" stroke="black" points="480,-6 480,-25 632,-25 632,-6 480,-6"/>
<text text-anchor="middle" x="556" y="-13" font-family="Helvetica,sans-Serif" font-size="10.00">src/Factories/BulletFactory.cpp</text>
</a>
</g>
</g>
<!-- Node1&#45;&gt;Node5 -->
<g id="edge4" class="edge">
<title>Node1&#45;&gt;Node5</title>
<path fill="none" stroke="midnightblue" d="M1099.5,-72.18C1000.58,-65.94 805.57,-52.08 641,-31 628.23,-29.36 614.45,-27.19 601.77,-25.03"/>
<polygon fill="midnightblue" stroke="midnightblue" points="1099.43,-75.68 1109.63,-72.82 1099.87,-68.7 1099.43,-75.68"/>
</g>
<!-- Node6 -->
<g id="node6" class="node">
<title>Node6</title>
<g id="a_node6"><a xlink:href="ButtonPrefabFactory_8cpp.html" target="_top" xlink:title=" ">
<polygon fill="none" stroke="black" points="650,-0.5 650,-30.5 784,-30.5 784,-0.5 650,-0.5"/>
<text text-anchor="start" x="658" y="-18.5" font-family="Helvetica,sans-Serif" font-size="10.00">src/Factories/ButtonPrefab</text>
<text text-anchor="middle" x="717" y="-7.5" font-family="Helvetica,sans-Serif" font-size="10.00">Factory.cpp</text>
</a>
</g>
</g>
<!-- Node1&#45;&gt;Node6 -->
<g id="edge5" class="edge">
<title>Node1&#45;&gt;Node6</title>
<path fill="none" stroke="midnightblue" d="M1099.66,-69.53C1025.53,-61.78 900.15,-47.7 793,-31 790.08,-30.54 787.1,-30.06 784.09,-29.56"/>
<polygon fill="midnightblue" stroke="midnightblue" points="1099.46,-73.03 1109.77,-70.59 1100.19,-66.07 1099.46,-73.03"/>
</g>
<!-- Node7 -->
<g id="node7" class="node">
<title>Node7</title>
<g id="a_node7"><a xlink:href="EnemyPrefabFactory_8cpp.html" target="_top" xlink:title=" ">
<polygon fill="none" stroke="black" points="802,-0.5 802,-30.5 936,-30.5 936,-0.5 802,-0.5"/>
<text text-anchor="start" x="810" y="-18.5" font-family="Helvetica,sans-Serif" font-size="10.00">src/Factories/EnemyPrefab</text>
<text text-anchor="middle" x="869" y="-7.5" font-family="Helvetica,sans-Serif" font-size="10.00">Factory.cpp</text>
</a>
</g>
</g>
<!-- Node1&#45;&gt;Node7 -->
<g id="edge6" class="edge">
<title>Node1&#45;&gt;Node7</title>
<path fill="none" stroke="midnightblue" d="M1111.68,-65.45C1062.78,-55.58 989.5,-40.8 936.26,-30.07"/>
<polygon fill="midnightblue" stroke="midnightblue" points="1111.24,-68.93 1121.73,-67.48 1112.62,-62.07 1111.24,-68.93"/>
</g>
<!-- Node8 -->
<g id="node8" class="node">
<title>Node8</title>
<g id="a_node8"><a xlink:href="HeroPrefabFactory_8cpp.html" target="_top" xlink:title=" ">
<polygon fill="none" stroke="black" points="954,-0.5 954,-30.5 1080,-30.5 1080,-0.5 954,-0.5"/>
<text text-anchor="start" x="962" y="-18.5" font-family="Helvetica,sans-Serif" font-size="10.00">src/Factories/HeroPrefab</text>
<text text-anchor="middle" x="1017" y="-7.5" font-family="Helvetica,sans-Serif" font-size="10.00">Factory.cpp</text>
</a>
</g>
</g>
<!-- Node1&#45;&gt;Node8 -->
<g id="edge7" class="edge">
<title>Node1&#45;&gt;Node8</title>
<path fill="none" stroke="midnightblue" d="M1133.66,-63.72C1109.8,-54.06 1076.55,-40.6 1051.64,-30.52"/>
<polygon fill="midnightblue" stroke="midnightblue" points="1132.36,-66.97 1142.94,-67.48 1134.98,-60.48 1132.36,-66.97"/>
</g>
<!-- Node9 -->
<g id="node9" class="node">
<title>Node9</title>
<g id="a_node9"><a xlink:href="TowerPrefabFactory_8cpp.html" target="_top" xlink:title=" ">
<polygon fill="none" stroke="black" points="1098,-0.5 1098,-30.5 1230,-30.5 1230,-0.5 1098,-0.5"/>
<text text-anchor="start" x="1106" y="-18.5" font-family="Helvetica,sans-Serif" font-size="10.00">src/Factories/TowerPrefab</text>
<text text-anchor="middle" x="1164" y="-7.5" font-family="Helvetica,sans-Serif" font-size="10.00">Factory.cpp</text>
</a>
</g>
</g>
<!-- Node1&#45;&gt;Node9 -->
<g id="edge8" class="edge">
<title>Node1&#45;&gt;Node9</title>
<path fill="none" stroke="midnightblue" d="M1164,-57.23C1164,-48.59 1164,-38.5 1164,-30.52"/>
<polygon fill="midnightblue" stroke="midnightblue" points="1160.5,-57.48 1164,-67.48 1167.5,-57.48 1160.5,-57.48"/>
</g>
<!-- Node10 -->
<g id="node10" class="node">
<title>Node10</title>
<g id="a_node10"><a xlink:href="CreditScene_8cpp.html" target="_top" xlink:title=" ">
<polygon fill="none" stroke="black" points="1248,-6 1248,-25 1388,-25 1388,-6 1248,-6"/>
<text text-anchor="middle" x="1318" y="-13" font-family="Helvetica,sans-Serif" font-size="10.00">src/Scenes/CreditScene.cpp</text>
</a>
</g>
</g>
<!-- Node1&#45;&gt;Node10 -->
<g id="edge9" class="edge">
<title>Node1&#45;&gt;Node10</title>
<path fill="none" stroke="midnightblue" d="M1195.62,-63.78C1225.55,-52.22 1269.69,-35.16 1295.98,-25.01"/>
<polygon fill="midnightblue" stroke="midnightblue" points="1194.13,-60.61 1186.06,-67.48 1196.65,-67.14 1194.13,-60.61"/>
</g>
<!-- Node11 -->
<g id="node11" class="node">
<title>Node11</title>
<g id="a_node11"><a xlink:href="GameOverScene_8cpp.html" target="_top" xlink:title=" ">
<polygon fill="none" stroke="black" points="1406,-6 1406,-25 1568,-25 1568,-6 1406,-6"/>
<text text-anchor="middle" x="1487" y="-13" font-family="Helvetica,sans-Serif" font-size="10.00">src/Scenes/GameOverScene.cpp</text>
</a>
</g>
</g>
<!-- Node1&#45;&gt;Node11 -->
<g id="edge10" class="edge">
<title>Node1&#45;&gt;Node11</title>
<path fill="none" stroke="midnightblue" d="M1220.37,-65.62C1282.92,-54.09 1382.68,-35.72 1440.81,-25.01"/>
<polygon fill="midnightblue" stroke="midnightblue" points="1219.48,-62.22 1210.28,-67.48 1220.75,-69.11 1219.48,-62.22"/>
</g>
<!-- Node12 -->
<g id="node12" class="node">
<title>Node12</title>
<g id="a_node12"><a xlink:href="HelpScene_8cpp.html" target="_top" xlink:title=" ">
<polygon fill="none" stroke="black" points="1586.5,-6 1586.5,-25 1721.5,-25 1721.5,-6 1586.5,-6"/>
<text text-anchor="middle" x="1654" y="-13" font-family="Helvetica,sans-Serif" font-size="10.00">src/Scenes/HelpScene.cpp</text>
</a>
</g>
</g>
<!-- Node1&#45;&gt;Node12 -->
<g id="edge11" class="edge">
<title>Node1&#45;&gt;Node12</title>
<path fill="none" stroke="midnightblue" d="M1228.39,-70.54C1309.8,-63.29 1454.19,-49.23 1577,-31 1588.3,-29.32 1600.48,-27.18 1611.74,-25.07"/>
<polygon fill="midnightblue" stroke="midnightblue" points="1227.94,-67.07 1218.29,-71.44 1228.56,-74.04 1227.94,-67.07"/>
</g>
<!-- Node13 -->
<g id="node13" class="node">
<title>Node13</title>
<g id="a_node13"><a xlink:href="LevelScene_8cpp.html" target="_top" xlink:title=" ">
<polygon fill="none" stroke="black" points="1739.5,-6 1739.5,-25 1878.5,-25 1878.5,-6 1739.5,-6"/>
<text text-anchor="middle" x="1809" y="-13" font-family="Helvetica,sans-Serif" font-size="10.00">src/Scenes/LevelScene.cpp</text>
</a>
</g>
</g>
<!-- Node1&#45;&gt;Node13 -->
<g id="edge12" class="edge">
<title>Node1&#45;&gt;Node13</title>
<path fill="none" stroke="midnightblue" d="M1228.3,-73.09C1333.67,-67.83 1549.57,-55 1731,-31 1742.88,-29.43 1755.69,-27.25 1767.43,-25.06"/>
<polygon fill="midnightblue" stroke="midnightblue" points="1227.96,-69.6 1218.14,-73.59 1228.3,-76.6 1227.96,-69.6"/>
</g>
<!-- Node14 -->
<g id="node14" class="node">
<title>Node14</title>
<g id="a_node14"><a xlink:href="MenuScene_8cpp.html" target="_top" xlink:title=" ">
<polygon fill="none" stroke="black" points="1896.5,-6 1896.5,-25 2035.5,-25 2035.5,-6 1896.5,-6"/>
<text text-anchor="middle" x="1966" y="-13" font-family="Helvetica,sans-Serif" font-size="10.00">src/Scenes/MenuScene.cpp</text>
</a>
</g>
</g>
<!-- Node1&#45;&gt;Node14 -->
<g id="edge13" class="edge">
<title>Node1&#45;&gt;Node14</title>
<path fill="none" stroke="midnightblue" d="M1228.55,-74.62C1355.37,-71.33 1645.77,-60.93 1888,-31 1900.17,-29.5 1913.3,-27.29 1925.26,-25.04"/>
<polygon fill="midnightblue" stroke="midnightblue" points="1228.16,-71.13 1218.25,-74.88 1228.33,-78.13 1228.16,-71.13"/>
</g>
<!-- Node15 -->
<g id="node15" class="node">
<title>Node15</title>
<g id="a_node15"><a xlink:href="PauseScene_8cpp.html" target="_top" xlink:title=" ">
<polygon fill="none" stroke="black" points="2053.5,-6 2053.5,-25 2196.5,-25 2196.5,-6 2053.5,-6"/>
<text text-anchor="middle" x="2125" y="-13" font-family="Helvetica,sans-Serif" font-size="10.00">src/Scenes/PauseScene.cpp</text>
</a>
</g>
</g>
<!-- Node1&#45;&gt;Node15 -->
<g id="edge14" class="edge">
<title>Node1&#45;&gt;Node15</title>
<path fill="none" stroke="midnightblue" d="M1228.19,-75.54C1373.89,-73.87 1740.62,-66.21 2045,-31 2057.62,-29.54 2071.25,-27.31 2083.63,-25.04"/>
<polygon fill="midnightblue" stroke="midnightblue" points="1228.04,-72.04 1218.08,-75.65 1228.12,-79.04 1228.04,-72.04"/>
</g>
<!-- Node16 -->
<g id="node16" class="node">
<title>Node16</title>
<g id="a_node16"><a xlink:href="VictoryScene_8cpp.html" target="_top" xlink:title=" ">
<polygon fill="none" stroke="black" points="2214.5,-6 2214.5,-25 2359.5,-25 2359.5,-6 2214.5,-6"/>
<text text-anchor="middle" x="2287" y="-13" font-family="Helvetica,sans-Serif" font-size="10.00">src/Scenes/VictoryScene.cpp</text>
</a>
</g>
</g>
<!-- Node1&#45;&gt;Node16 -->
<g id="edge15" class="edge">
<title>Node1&#45;&gt;Node16</title>
<path fill="none" stroke="midnightblue" d="M1228.54,-76.21C1392.42,-76.1 1837.72,-71.73 2206,-31 2218.92,-29.57 2232.89,-27.33 2245.53,-25.03"/>
<polygon fill="midnightblue" stroke="midnightblue" points="1228.16,-72.71 1218.16,-76.21 1228.16,-79.71 1228.16,-72.71"/>
</g>
</g>
</svg>
