<?xml version="1.0" encoding="UTF-8" standalone="no"?>
<!DOCTYPE svg PUBLIC "-//W3C//DTD SVG 1.1//EN"
 "http://www.w3.org/Graphics/SVG/1.1/DTD/svg11.dtd">
<!-- Generated by graphviz version 2.44.0 ()
 -->
<!-- Title: src/Enums/Layer.hpp Pages: 1 -->
<svg width="2556pt" height="95pt"
 viewBox="0.00 0.00 2555.50 95.00" xmlns="http://www.w3.org/2000/svg" xmlns:xlink="http://www.w3.org/1999/xlink">
<g id="graph0" class="graph" transform="scale(1 1) rotate(0) translate(4 91)">
<title>src/Enums/Layer.hpp</title>
<!-- Node1 -->
<g id="node1" class="node">
<title>Node1</title>
<g id="a_node1"><a xlink:title=" ">
<polygon fill="#bfbfbf" stroke="black" points="1224,-67.5 1224,-86.5 1332,-86.5 1332,-67.5 1224,-67.5"/>
<text text-anchor="middle" x="1278" y="-74.5" font-family="Helvetica,sans-Serif" font-size="10.00">src/Enums/Layer.hpp</text>
</a>
</g>
</g>
<!-- Node2 -->
<g id="node2" class="node">
<title>Node2</title>
<g id="a_node2"><a xlink:href="LevelController_8cpp.html" target="_top" xlink:title=" ">
<polygon fill="none" stroke="black" points="0,-6 0,-25 166,-25 166,-6 0,-6"/>
<text text-anchor="middle" x="83" y="-13" font-family="Helvetica,sans-Serif" font-size="10.00">src/Controllers/LevelController.cpp</text>
</a>
</g>
</g>
<!-- Node1&#45;&gt;Node2 -->
<g id="edge1" class="edge">
<title>Node1&#45;&gt;Node2</title>
<path fill="none" stroke="midnightblue" d="M1213.88,-75.97C1044.01,-75.33 568.43,-69.9 175,-31 160.36,-29.55 144.5,-27.3 130.14,-25"/>
<polygon fill="midnightblue" stroke="midnightblue" points="1213.89,-79.47 1223.9,-76 1213.91,-72.47 1213.89,-79.47"/>
</g>
<!-- Node3 -->
<g id="node3" class="node">
<title>Node3</title>
<g id="a_node3"><a xlink:href="AudioSourcePrefabFactory_8cpp.html" target="_top" xlink:title=" ">
<polygon fill="none" stroke="black" points="184,-0.5 184,-30.5 316,-30.5 316,-0.5 184,-0.5"/>
<text text-anchor="start" x="192" y="-18.5" font-family="Helvetica,sans-Serif" font-size="10.00">src/Factories/AudioSource</text>
<text text-anchor="middle" x="250" y="-7.5" font-family="Helvetica,sans-Serif" font-size="10.00">PrefabFactory.cpp</text>
</a>
</g>
</g>
<!-- Node1&#45;&gt;Node3 -->
<g id="edge2" class="edge">
<title>Node1&#45;&gt;Node3</title>
<path fill="none" stroke="midnightblue" d="M1213.55,-76.14C1059.42,-75.8 657.59,-70.79 325,-31 322.1,-30.65 319.15,-30.26 316.17,-29.83"/>
<polygon fill="midnightblue" stroke="midnightblue" points="1213.77,-79.65 1223.78,-76.16 1213.78,-72.65 1213.77,-79.65"/>
</g>
<!-- Node4 -->
<g id="node4" class="node">
<title>Node4</title>
<g id="a_node4"><a xlink:href="BackgroundPrefabFactory_8cpp.html" target="_top" xlink:title=" ">
<polygon fill="none" stroke="black" points="334,-0.5 334,-30.5 462,-30.5 462,-0.5 334,-0.5"/>
<text text-anchor="start" x="342" y="-18.5" font-family="Helvetica,sans-Serif" font-size="10.00">src/Factories/Background</text>
<text text-anchor="middle" x="398" y="-7.5" font-family="Helvetica,sans-Serif" font-size="10.00">PrefabFactory.cpp</text>
</a>
</g>
</g>
<!-- Node1&#45;&gt;Node4 -->
<g id="edge3" class="edge">
<title>Node1&#45;&gt;Node4</title>
<path fill="none" stroke="midnightblue" d="M1213.61,-75.47C1076.5,-73.68 745.75,-65.77 471,-31 468.05,-30.63 465.04,-30.2 462.01,-29.74"/>
<polygon fill="midnightblue" stroke="midnightblue" points="1213.89,-78.98 1223.93,-75.6 1213.98,-71.98 1213.89,-78.98"/>
</g>
<!-- Node5 -->
<g id="node5" class="node">
<title>Node5</title>
<g id="a_node5"><a xlink:href="BulletFactory_8cpp.html" target="_top" xlink:title=" ">
<polygon fill="none" stroke="black" points="480,-6 480,-25 632,-25 632,-6 480,-6"/>
<text text-anchor="middle" x="556" y="-13" font-family="Helvetica,sans-Serif" font-size="10.00">src/Factories/BulletFactory.cpp</text>
</a>
</g>
</g>
<!-- Node1&#45;&gt;Node5 -->
<g id="edge4" class="edge">
<title>Node1&#45;&gt;Node5</title>
<path fill="none" stroke="midnightblue" d="M1213.66,-73.55C1098.49,-68.7 849.62,-56.1 641,-31 627.92,-29.43 613.79,-27.22 600.87,-25"/>
<polygon fill="midnightblue" stroke="midnightblue" points="1213.58,-77.05 1223.72,-73.97 1213.87,-70.06 1213.58,-77.05"/>
</g>
<!-- Node6 -->
<g id="node6" class="node">
<title>Node6</title>
<g id="a_node6"><a xlink:href="ButtonPrefabFactory_8cpp.html" target="_top" xlink:title=" ">
<polygon fill="none" stroke="black" points="650,-0.5 650,-30.5 784,-30.5 784,-0.5 650,-0.5"/>
<text text-anchor="start" x="658" y="-18.5" font-family="Helvetica,sans-Serif" font-size="10.00">src/Factories/ButtonPrefab</text>
<text text-anchor="middle" x="717" y="-7.5" font-family="Helvetica,sans-Serif" font-size="10.00">Factory.cpp</text>
</a>
</g>
</g>
<!-- Node1&#45;&gt;Node6 -->
<g id="edge5" class="edge">
<title>Node1&#45;&gt;Node6</title>
<path fill="none" stroke="midnightblue" d="M1213.88,-72.02C1120.83,-65.8 943.11,-52.23 793,-31 790.07,-30.59 787.09,-30.14 784.08,-29.66"/>
<polygon fill="midnightblue" stroke="midnightblue" points="1213.77,-75.52 1223.98,-72.69 1214.23,-68.53 1213.77,-75.52"/>
</g>
<!-- Node7 -->
<g id="node7" class="node">
<title>Node7</title>
<g id="a_node7"><a xlink:href="EnemyPrefabFactory_8cpp.html" target="_top" xlink:title=" ">
<polygon fill="none" stroke="black" points="802,-0.5 802,-30.5 936,-30.5 936,-0.5 802,-0.5"/>
<text text-anchor="start" x="810" y="-18.5" font-family="Helvetica,sans-Serif" font-size="10.00">src/Factories/EnemyPrefab</text>
<text text-anchor="middle" x="869" y="-7.5" font-family="Helvetica,sans-Serif" font-size="10.00">Factory.cpp</text>
</a>
</g>
</g>
<!-- Node1&#45;&gt;Node7 -->
<g id="edge6" class="edge">
<title>Node1&#45;&gt;Node7</title>
<path fill="none" stroke="midnightblue" d="M1213.93,-68.39C1146.77,-60.16 1038.24,-46.18 945,-31 942.08,-30.53 939.11,-30.02 936.1,-29.51"/>
<polygon fill="midnightblue" stroke="midnightblue" points="1213.59,-71.87 1223.94,-69.61 1214.44,-64.92 1213.59,-71.87"/>
</g>
<!-- Node8 -->
<g id="node8" class="node">
<title>Node8</title>
<g id="a_node8"><a xlink:href="HealthBarFactory_8cpp.html" target="_top" xlink:title=" ">
<polygon fill="none" stroke="black" points="954,-6 954,-25 1124,-25 1124,-6 954,-6"/>
<text text-anchor="middle" x="1039" y="-13" font-family="Helvetica,sans-Serif" font-size="10.00">src/Factories/HealthBarFactory.cpp</text>
</a>
</g>
</g>
<!-- Node1&#45;&gt;Node8 -->
<g id="edge7" class="edge">
<title>Node1&#45;&gt;Node8</title>
<path fill="none" stroke="midnightblue" d="M1233.98,-65.04C1187.58,-53.49 1115.48,-35.54 1073.18,-25.01"/>
<polygon fill="midnightblue" stroke="midnightblue" points="1233.21,-68.46 1243.76,-67.48 1234.9,-61.66 1233.21,-68.46"/>
</g>
<!-- Node9 -->
<g id="node9" class="node">
<title>Node9</title>
<g id="a_node9"><a xlink:href="HeroPrefabFactory_8cpp.html" target="_top" xlink:title=" ">
<polygon fill="none" stroke="black" points="1142,-0.5 1142,-30.5 1268,-30.5 1268,-0.5 1142,-0.5"/>
<text text-anchor="start" x="1150" y="-18.5" font-family="Helvetica,sans-Serif" font-size="10.00">src/Factories/HeroPrefab</text>
<text text-anchor="middle" x="1205" y="-7.5" font-family="Helvetica,sans-Serif" font-size="10.00">Factory.cpp</text>
</a>
</g>
</g>
<!-- Node1&#45;&gt;Node9 -->
<g id="edge8" class="edge">
<title>Node1&#45;&gt;Node9</title>
<path fill="none" stroke="midnightblue" d="M1259.5,-60.92C1248.04,-51.58 1233.42,-39.66 1222.2,-30.52"/>
<polygon fill="midnightblue" stroke="midnightblue" points="1257.58,-63.87 1267.54,-67.48 1262,-58.44 1257.58,-63.87"/>
</g>
<!-- Node10 -->
<g id="node10" class="node">
<title>Node10</title>
<g id="a_node10"><a xlink:href="TowerPrefabFactory_8cpp.html" target="_top" xlink:title=" ">
<polygon fill="none" stroke="black" points="1286,-0.5 1286,-30.5 1418,-30.5 1418,-0.5 1286,-0.5"/>
<text text-anchor="start" x="1294" y="-18.5" font-family="Helvetica,sans-Serif" font-size="10.00">src/Factories/TowerPrefab</text>
<text text-anchor="middle" x="1352" y="-7.5" font-family="Helvetica,sans-Serif" font-size="10.00">Factory.cpp</text>
</a>
</g>
</g>
<!-- Node1&#45;&gt;Node10 -->
<g id="edge9" class="edge">
<title>Node1&#45;&gt;Node10</title>
<path fill="none" stroke="midnightblue" d="M1296.41,-61.2C1308.08,-51.81 1323.08,-39.75 1334.56,-30.52"/>
<polygon fill="midnightblue" stroke="midnightblue" points="1294.2,-58.48 1288.6,-67.48 1298.59,-63.94 1294.2,-58.48"/>
</g>
<!-- Node11 -->
<g id="node11" class="node">
<title>Node11</title>
<g id="a_node11"><a xlink:href="CreditScene_8cpp.html" target="_top" xlink:title=" ">
<polygon fill="none" stroke="black" points="1436,-6 1436,-25 1576,-25 1576,-6 1436,-6"/>
<text text-anchor="middle" x="1506" y="-13" font-family="Helvetica,sans-Serif" font-size="10.00">src/Scenes/CreditScene.cpp</text>
</a>
</g>
</g>
<!-- Node1&#45;&gt;Node11 -->
<g id="edge10" class="edge">
<title>Node1&#45;&gt;Node11</title>
<path fill="none" stroke="midnightblue" d="M1320.55,-64.9C1364.83,-53.34 1433.21,-35.5 1473.39,-25.01"/>
<polygon fill="midnightblue" stroke="midnightblue" points="1319.46,-61.56 1310.67,-67.48 1321.23,-68.34 1319.46,-61.56"/>
</g>
<!-- Node12 -->
<g id="node12" class="node">
<title>Node12</title>
<g id="a_node12"><a xlink:href="GameOverScene_8cpp.html" target="_top" xlink:title=" ">
<polygon fill="none" stroke="black" points="1594,-6 1594,-25 1756,-25 1756,-6 1594,-6"/>
<text text-anchor="middle" x="1675" y="-13" font-family="Helvetica,sans-Serif" font-size="10.00">src/Scenes/GameOverScene.cpp</text>
</a>
</g>
</g>
<!-- Node1&#45;&gt;Node12 -->
<g id="edge11" class="edge">
<title>Node1&#45;&gt;Node12</title>
<path fill="none" stroke="midnightblue" d="M1342.15,-66.87C1404.29,-57.96 1501.15,-43.9 1585,-31 1597.2,-29.12 1610.32,-27.04 1622.67,-25.06"/>
<polygon fill="midnightblue" stroke="midnightblue" points="1341.51,-63.42 1332.1,-68.31 1342.5,-70.35 1341.51,-63.42"/>
</g>
<!-- Node13 -->
<g id="node13" class="node">
<title>Node13</title>
<g id="a_node13"><a xlink:href="HelpScene_8cpp.html" target="_top" xlink:title=" ">
<polygon fill="none" stroke="black" points="1774.5,-6 1774.5,-25 1909.5,-25 1909.5,-6 1774.5,-6"/>
<text text-anchor="middle" x="1842" y="-13" font-family="Helvetica,sans-Serif" font-size="10.00">src/Scenes/HelpScene.cpp</text>
</a>
</g>
</g>
<!-- Node1&#45;&gt;Node13 -->
<g id="edge12" class="edge">
<title>Node1&#45;&gt;Node13</title>
<path fill="none" stroke="midnightblue" d="M1342.38,-71.99C1435.8,-65.72 1614.25,-52.11 1765,-31 1776.59,-29.38 1789.08,-27.21 1800.56,-25.04"/>
<polygon fill="midnightblue" stroke="midnightblue" points="1341.99,-68.5 1332.24,-72.66 1342.45,-75.49 1341.99,-68.5"/>
</g>
<!-- Node14 -->
<g id="node14" class="node">
<title>Node14</title>
<g id="a_node14"><a xlink:href="LevelScene_8cpp.html" target="_top" xlink:title=" ">
<polygon fill="none" stroke="black" points="1927.5,-6 1927.5,-25 2066.5,-25 2066.5,-6 1927.5,-6"/>
<text text-anchor="middle" x="1997" y="-13" font-family="Helvetica,sans-Serif" font-size="10.00">src/Scenes/LevelScene.cpp</text>
</a>
</g>
</g>
<!-- Node1&#45;&gt;Node14 -->
<g id="edge13" class="edge">
<title>Node1&#45;&gt;Node14</title>
<path fill="none" stroke="midnightblue" d="M1342.34,-73.9C1458.1,-69.6 1709,-57.8 1919,-31 1931.02,-29.47 1944,-27.27 1955.85,-25.06"/>
<polygon fill="midnightblue" stroke="midnightblue" points="1342.1,-70.41 1332.23,-74.27 1342.35,-77.41 1342.1,-70.41"/>
</g>
<!-- Node15 -->
<g id="node15" class="node">
<title>Node15</title>
<g id="a_node15"><a xlink:href="MenuScene_8cpp.html" target="_top" xlink:title=" ">
<polygon fill="none" stroke="black" points="2084.5,-6 2084.5,-25 2223.5,-25 2223.5,-6 2084.5,-6"/>
<text text-anchor="middle" x="2154" y="-13" font-family="Helvetica,sans-Serif" font-size="10.00">src/Scenes/MenuScene.cpp</text>
</a>
</g>
</g>
<!-- Node1&#45;&gt;Node15 -->
<g id="edge14" class="edge">
<title>Node1&#45;&gt;Node15</title>
<path fill="none" stroke="midnightblue" d="M1342.64,-75.14C1478.77,-72.73 1804.78,-63.72 2076,-31 2088.31,-29.52 2101.6,-27.28 2113.67,-25.01"/>
<polygon fill="midnightblue" stroke="midnightblue" points="1342.33,-71.65 1332.39,-75.32 1342.45,-78.65 1342.33,-71.65"/>
</g>
<!-- Node16 -->
<g id="node16" class="node">
<title>Node16</title>
<g id="a_node16"><a xlink:href="PauseScene_8cpp.html" target="_top" xlink:title=" ">
<polygon fill="none" stroke="black" points="2241.5,-6 2241.5,-25 2384.5,-25 2384.5,-6 2241.5,-6"/>
<text text-anchor="middle" x="2313" y="-13" font-family="Helvetica,sans-Serif" font-size="10.00">src/Scenes/PauseScene.cpp</text>
</a>
</g>
</g>
<!-- Node1&#45;&gt;Node16 -->
<g id="edge15" class="edge">
<title>Node1&#45;&gt;Node16</title>
<path fill="none" stroke="midnightblue" d="M1342.28,-75.9C1496.46,-75.02 1899.28,-68.94 2233,-31 2245.62,-29.57 2259.26,-27.35 2271.63,-25.07"/>
<polygon fill="midnightblue" stroke="midnightblue" points="1342.03,-72.4 1332.05,-75.95 1342.07,-79.4 1342.03,-72.4"/>
</g>
<!-- Node17 -->
<g id="node17" class="node">
<title>Node17</title>
<g id="a_node17"><a xlink:href="VictoryScene_8cpp.html" target="_top" xlink:title=" ">
<polygon fill="none" stroke="black" points="2402.5,-6 2402.5,-25 2547.5,-25 2547.5,-6 2402.5,-6"/>
<text text-anchor="middle" x="2475" y="-13" font-family="Helvetica,sans-Serif" font-size="10.00">src/Scenes/VictoryScene.cpp</text>
</a>
</g>
</g>
<!-- Node1&#45;&gt;Node17 -->
<g id="edge16" class="edge">
<title>Node1&#45;&gt;Node17</title>
<path fill="none" stroke="midnightblue" d="M1342.31,-76.48C1513.77,-77.08 1995.89,-74.45 2394,-31 2406.92,-29.59 2420.89,-27.35 2433.53,-25.05"/>
<polygon fill="midnightblue" stroke="midnightblue" points="1342.21,-72.98 1332.2,-76.44 1342.18,-79.98 1342.21,-72.98"/>
</g>
</g>
</svg>
