<?xml version="1.0" encoding="UTF-8" standalone="no"?>
<!DOCTYPE svg PUBLIC "-//W3C//DTD SVG 1.1//EN"
 "http://www.w3.org/Graphics/SVG/1.1/DTD/svg11.dtd">
<!-- Generated by graphviz version 2.44.0 ()
 -->
<!-- Title: src/Persistence/LevelManager.hpp Pages: 1 -->
<svg width="295pt" height="196pt"
 viewBox="0.00 0.00 294.50 196.00" xmlns="http://www.w3.org/2000/svg" xmlns:xlink="http://www.w3.org/1999/xlink">
<g id="graph0" class="graph" transform="scale(1 1) rotate(0) translate(4 192)">
<title>src/Persistence/LevelManager.hpp</title>
<!-- Node1 -->
<g id="node1" class="node">
<title>Node1</title>
<g id="a_node1"><a xlink:title=" ">
<polygon fill="#bfbfbf" stroke="black" points="0,-168.5 0,-187.5 167,-187.5 167,-168.5 0,-168.5"/>
<text text-anchor="middle" x="83.5" y="-175.5" font-family="Helvetica,sans-Serif" font-size="10.00">src/Persistence/LevelManager.hpp</text>
</a>
</g>
</g>
<!-- Node2 -->
<g id="node2" class="node">
<title>Node2</title>
<g id="a_node2"><a xlink:href="LevelWithTiles_8hpp.html" target="_top" xlink:title=" ">
<polygon fill="none" stroke="black" points="131,-112.5 131,-131.5 272,-131.5 272,-112.5 131,-112.5"/>
<text text-anchor="middle" x="201.5" y="-119.5" font-family="Helvetica,sans-Serif" font-size="10.00">../Structs/LevelWithTiles.hpp</text>
</a>
</g>
</g>
<!-- Node1&#45;&gt;Node2 -->
<g id="edge1" class="edge">
<title>Node1&#45;&gt;Node2</title>
<path fill="none" stroke="midnightblue" d="M102.2,-168.44C121.44,-159.64 151.65,-145.81 173.7,-135.72"/>
<polygon fill="midnightblue" stroke="midnightblue" points="175.25,-138.86 182.89,-131.52 172.34,-132.5 175.25,-138.86"/>
</g>
<!-- Node3 -->
<g id="node3" class="node">
<title>Node3</title>
<g id="a_node3"><a xlink:href="Level_8hpp.html" target="_top" xlink:title=" ">
<polygon fill="none" stroke="black" points="93,-56.5 93,-75.5 152,-75.5 152,-56.5 93,-56.5"/>
<text text-anchor="middle" x="122.5" y="-63.5" font-family="Helvetica,sans-Serif" font-size="10.00">Level.hpp</text>
</a>
</g>
</g>
<!-- Node1&#45;&gt;Node3 -->
<g id="edge9" class="edge">
<title>Node1&#45;&gt;Node3</title>
<path fill="none" stroke="midnightblue" d="M86.56,-168.37C92.88,-150.54 107.5,-109.3 116.02,-85.27"/>
<polygon fill="midnightblue" stroke="midnightblue" points="119.41,-86.19 119.45,-75.59 112.81,-83.85 119.41,-86.19"/>
</g>
<!-- Node4 -->
<g id="node4" class="node">
<title>Node4</title>
<g id="a_node4"><a xlink:title=" ">
<polygon fill="none" stroke="#bfbfbf" points="26,-0.5 26,-19.5 67,-19.5 67,-0.5 26,-0.5"/>
<text text-anchor="middle" x="46.5" y="-7.5" font-family="Helvetica,sans-Serif" font-size="10.00">string</text>
</a>
</g>
</g>
<!-- Node1&#45;&gt;Node4 -->
<g id="edge10" class="edge">
<title>Node1&#45;&gt;Node4</title>
<path fill="none" stroke="midnightblue" d="M81.51,-168.08C75.69,-141.95 58.58,-65.21 50.64,-29.58"/>
<polygon fill="midnightblue" stroke="midnightblue" points="54,-28.57 48.41,-19.57 47.17,-30.09 54,-28.57"/>
</g>
<!-- Node5 -->
<g id="node5" class="node">
<title>Node5</title>
<g id="a_node5"><a xlink:title=" ">
<polygon fill="none" stroke="#bfbfbf" points="95,-0.5 95,-19.5 130,-19.5 130,-0.5 95,-0.5"/>
<text text-anchor="middle" x="112.5" y="-7.5" font-family="Helvetica,sans-Serif" font-size="10.00">map</text>
</a>
</g>
</g>
<!-- Node1&#45;&gt;Node5 -->
<g id="edge11" class="edge">
<title>Node1&#45;&gt;Node5</title>
<path fill="none" stroke="midnightblue" d="M81.85,-168.25C78.38,-148 71.58,-96.51 83.5,-56 86.51,-45.76 92.65,-35.66 98.51,-27.63"/>
<polygon fill="midnightblue" stroke="midnightblue" points="101.43,-29.58 104.83,-19.54 95.91,-25.27 101.43,-29.58"/>
</g>
<!-- Node2&#45;&gt;Node3 -->
<g id="edge2" class="edge">
<title>Node2&#45;&gt;Node3</title>
<path fill="none" stroke="midnightblue" d="M188.81,-112.32C176.6,-103.98 157.92,-91.21 143.5,-81.35"/>
<polygon fill="midnightblue" stroke="midnightblue" points="145.39,-78.41 135.16,-75.65 141.44,-84.19 145.39,-78.41"/>
</g>
<!-- Node7 -->
<g id="node7" class="node">
<title>Node7</title>
<g id="a_node7"><a xlink:href="Tile_8hpp.html" target="_top" xlink:title=" ">
<polygon fill="none" stroke="black" points="232.5,-56.5 232.5,-75.5 282.5,-75.5 282.5,-56.5 232.5,-56.5"/>
<text text-anchor="middle" x="257.5" y="-63.5" font-family="Helvetica,sans-Serif" font-size="10.00">Tile.hpp</text>
</a>
</g>
</g>
<!-- Node2&#45;&gt;Node7 -->
<g id="edge6" class="edge">
<title>Node2&#45;&gt;Node7</title>
<path fill="none" stroke="midnightblue" d="M210.5,-112.32C218.69,-104.42 231.01,-92.55 240.97,-82.94"/>
<polygon fill="midnightblue" stroke="midnightblue" points="243.57,-85.29 248.34,-75.83 238.71,-80.26 243.57,-85.29"/>
</g>
<!-- Node8 -->
<g id="node8" class="node">
<title>Node8</title>
<g id="a_node8"><a xlink:title=" ">
<polygon fill="none" stroke="#bfbfbf" points="170.5,-56.5 170.5,-75.5 214.5,-75.5 214.5,-56.5 170.5,-56.5"/>
<text text-anchor="middle" x="192.5" y="-63.5" font-family="Helvetica,sans-Serif" font-size="10.00">vector</text>
</a>
</g>
</g>
<!-- Node2&#45;&gt;Node8 -->
<g id="edge8" class="edge">
<title>Node2&#45;&gt;Node8</title>
<path fill="none" stroke="midnightblue" d="M200.01,-112.08C198.82,-104.93 197.11,-94.64 195.62,-85.69"/>
<polygon fill="midnightblue" stroke="midnightblue" points="199.05,-85.04 193.96,-75.75 192.15,-86.19 199.05,-85.04"/>
</g>
<!-- Node3&#45;&gt;Node4 -->
<g id="edge3" class="edge">
<title>Node3&#45;&gt;Node4</title>
<path fill="none" stroke="midnightblue" d="M110.29,-56.32C98.72,-48.11 81.12,-35.6 67.34,-25.81"/>
<polygon fill="midnightblue" stroke="midnightblue" points="69.11,-22.77 58.93,-19.83 65.06,-28.48 69.11,-22.77"/>
</g>
<!-- Node3&#45;&gt;Node5 -->
<g id="edge4" class="edge">
<title>Node3&#45;&gt;Node5</title>
<path fill="none" stroke="midnightblue" d="M120.85,-56.08C119.52,-48.93 117.62,-38.64 115.96,-29.69"/>
<polygon fill="midnightblue" stroke="midnightblue" points="119.38,-28.95 114.12,-19.75 112.5,-30.22 119.38,-28.95"/>
</g>
<!-- Node6 -->
<g id="node6" class="node">
<title>Node6</title>
<g id="a_node6"><a xlink:href="TileType_8hpp.html" target="_top" xlink:title=" ">
<polygon fill="none" stroke="black" points="174.5,-0.5 174.5,-19.5 286.5,-19.5 286.5,-0.5 174.5,-0.5"/>
<text text-anchor="middle" x="230.5" y="-7.5" font-family="Helvetica,sans-Serif" font-size="10.00">../Enums/TileType.hpp</text>
</a>
</g>
</g>
<!-- Node3&#45;&gt;Node6 -->
<g id="edge5" class="edge">
<title>Node3&#45;&gt;Node6</title>
<path fill="none" stroke="midnightblue" d="M139.85,-56.32C157.17,-47.66 184.02,-34.24 204,-24.25"/>
<polygon fill="midnightblue" stroke="midnightblue" points="205.81,-27.26 213.19,-19.65 202.68,-21 205.81,-27.26"/>
</g>
<!-- Node7&#45;&gt;Node6 -->
<g id="edge7" class="edge">
<title>Node7&#45;&gt;Node6</title>
<path fill="none" stroke="midnightblue" d="M253.04,-56.08C249.35,-48.69 243.98,-37.95 239.41,-28.81"/>
<polygon fill="midnightblue" stroke="midnightblue" points="242.48,-27.13 234.88,-19.75 236.22,-30.26 242.48,-27.13"/>
</g>
</g>
</svg>
