<?xml version="1.0" encoding="UTF-8" standalone="no"?>
<!DOCTYPE svg PUBLIC "-//W3C//DTD SVG 1.1//EN"
 "http://www.w3.org/Graphics/SVG/1.1/DTD/svg11.dtd">
<!-- Generated by graphviz version 2.44.0 ()
 -->
<!-- Title: src/Structs/LevelWithTiles.hpp Pages: 1 -->
<svg width="1345pt" height="229pt"
 viewBox="0.00 0.00 1344.50 229.00" xmlns="http://www.w3.org/2000/svg" xmlns:xlink="http://www.w3.org/1999/xlink">
<g id="graph0" class="graph" transform="scale(1 1) rotate(0) translate(4 225)">
<title>src/Structs/LevelWithTiles.hpp</title>
<!-- Node1 -->
<g id="node1" class="node">
<title>Node1</title>
<g id="a_node1"><a xlink:title=" ">
<polygon fill="#bfbfbf" stroke="black" points="842,-201.5 842,-220.5 992,-220.5 992,-201.5 842,-201.5"/>
<text text-anchor="middle" x="917" y="-208.5" font-family="Helvetica,sans-Serif" font-size="10.00">src/Structs/LevelWithTiles.hpp</text>
</a>
</g>
</g>
<!-- Node2 -->
<g id="node2" class="node">
<title>Node2</title>
<g id="a_node2"><a xlink:href="LevelController_8hpp.html" target="_top" xlink:title=" ">
<polygon fill="none" stroke="black" points="341,-140 341,-159 507,-159 507,-140 341,-140"/>
<text text-anchor="middle" x="424" y="-147" font-family="Helvetica,sans-Serif" font-size="10.00">src/Controllers/LevelController.hpp</text>
</a>
</g>
</g>
<!-- Node1&#45;&gt;Node2 -->
<g id="edge1" class="edge">
<title>Node1&#45;&gt;Node2</title>
<path fill="none" stroke="midnightblue" d="M836.22,-200.25C741.17,-188.78 584.86,-169.91 494.5,-159.01"/>
<polygon fill="midnightblue" stroke="midnightblue" points="836.02,-203.75 846.37,-201.48 836.86,-196.8 836.02,-203.75"/>
</g>
<!-- Node9 -->
<g id="node9" class="node">
<title>Node9</title>
<g id="a_node9"><a xlink:href="LevelSelectionController_8hpp.html" target="_top" xlink:title=" ">
<polygon fill="none" stroke="black" points="894.5,-134.5 894.5,-164.5 1041.5,-164.5 1041.5,-134.5 894.5,-134.5"/>
<text text-anchor="start" x="902.5" y="-152.5" font-family="Helvetica,sans-Serif" font-size="10.00">src/Controllers/LevelSelection</text>
<text text-anchor="middle" x="968" y="-141.5" font-family="Helvetica,sans-Serif" font-size="10.00">Controller.hpp</text>
</a>
</g>
</g>
<!-- Node1&#45;&gt;Node9 -->
<g id="edge8" class="edge">
<title>Node1&#45;&gt;Node9</title>
<path fill="none" stroke="midnightblue" d="M930.88,-193.81C938.73,-184.65 948.45,-173.3 955.98,-164.52"/>
<polygon fill="midnightblue" stroke="midnightblue" points="928.16,-191.6 924.31,-201.48 933.47,-196.16 928.16,-191.6"/>
</g>
<!-- Node11 -->
<g id="node11" class="node">
<title>Node11</title>
<g id="a_node11"><a xlink:href="LevelScene_8hpp.html" target="_top" xlink:title=" ">
<polygon fill="none" stroke="black" points="847.5,-73 847.5,-92 986.5,-92 986.5,-73 847.5,-73"/>
<text text-anchor="middle" x="917" y="-80" font-family="Helvetica,sans-Serif" font-size="10.00">src/Scenes/LevelScene.hpp</text>
</a>
</g>
</g>
<!-- Node1&#45;&gt;Node11 -->
<g id="edge16" class="edge">
<title>Node1&#45;&gt;Node11</title>
<path fill="none" stroke="midnightblue" d="M901.55,-193.55C895.1,-185.57 888.34,-175.46 885,-165 880.81,-151.88 881.16,-147.23 885,-134 889.74,-117.65 901.54,-101.52 909.41,-92.04"/>
<polygon fill="midnightblue" stroke="midnightblue" points="899.06,-196.02 908.25,-201.29 904.35,-191.44 899.06,-196.02"/>
</g>
<!-- Node13 -->
<g id="node13" class="node">
<title>Node13</title>
<g id="a_node13"><a xlink:href="LevelManager_8hpp.html" target="_top" xlink:title=" ">
<polygon fill="none" stroke="black" points="1059.5,-140 1059.5,-159 1226.5,-159 1226.5,-140 1059.5,-140"/>
<text text-anchor="middle" x="1143" y="-147" font-family="Helvetica,sans-Serif" font-size="10.00">src/Persistence/LevelManager.hpp</text>
</a>
</g>
</g>
<!-- Node1&#45;&gt;Node13 -->
<g id="edge13" class="edge">
<title>Node1&#45;&gt;Node13</title>
<path fill="none" stroke="midnightblue" d="M959.18,-198.9C1003.07,-187.34 1070.85,-169.5 1110.68,-159.01"/>
<polygon fill="midnightblue" stroke="midnightblue" points="958.16,-195.54 949.38,-201.48 959.94,-202.31 958.16,-195.54"/>
</g>
<!-- Node3 -->
<g id="node3" class="node">
<title>Node3</title>
<g id="a_node3"><a xlink:href="LevelController_8cpp.html" target="_top" xlink:title=" ">
<polygon fill="none" stroke="black" points="0,-73 0,-92 166,-92 166,-73 0,-73"/>
<text text-anchor="middle" x="83" y="-80" font-family="Helvetica,sans-Serif" font-size="10.00">src/Controllers/LevelController.cpp</text>
</a>
</g>
</g>
<!-- Node2&#45;&gt;Node3 -->
<g id="edge2" class="edge">
<title>Node2&#45;&gt;Node3</title>
<path fill="none" stroke="midnightblue" d="M369.11,-138.04C302.04,-125.25 189.85,-103.87 127.76,-92.03"/>
<polygon fill="midnightblue" stroke="midnightblue" points="368.59,-141.5 379.07,-139.94 369.9,-134.62 368.59,-141.5"/>
</g>
<!-- Node4 -->
<g id="node4" class="node">
<title>Node4</title>
<g id="a_node4"><a xlink:href="LevelScene_8cpp.html" target="_top" xlink:title=" ">
<polygon fill="none" stroke="black" points="408.5,-6 408.5,-25 547.5,-25 547.5,-6 408.5,-6"/>
<text text-anchor="middle" x="478" y="-13" font-family="Helvetica,sans-Serif" font-size="10.00">src/Scenes/LevelScene.cpp</text>
</a>
</g>
</g>
<!-- Node2&#45;&gt;Node4 -->
<g id="edge3" class="edge">
<title>Node2&#45;&gt;Node4</title>
<path fill="none" stroke="midnightblue" d="M330.49,-142.03C257.6,-133.37 174.68,-113.31 213,-67 237.37,-37.55 338.42,-25.12 408.45,-19.98"/>
<polygon fill="midnightblue" stroke="midnightblue" points="330.36,-145.53 340.69,-143.17 331.14,-138.58 330.36,-145.53"/>
</g>
<!-- Node5 -->
<g id="node5" class="node">
<title>Node5</title>
<g id="a_node5"><a xlink:href="CheatManager_8cpp.html" target="_top" xlink:title=" ">
<polygon fill="none" stroke="black" points="222,-67.5 222,-97.5 328,-97.5 328,-67.5 222,-67.5"/>
<text text-anchor="start" x="230" y="-85.5" font-family="Helvetica,sans-Serif" font-size="10.00">src/Scripts/Common</text>
<text text-anchor="middle" x="275" y="-74.5" font-family="Helvetica,sans-Serif" font-size="10.00">/CheatManager.cpp</text>
</a>
</g>
</g>
<!-- Node2&#45;&gt;Node5 -->
<g id="edge4" class="edge">
<title>Node2&#45;&gt;Node5</title>
<path fill="none" stroke="midnightblue" d="M394.81,-135.77C369.59,-124.77 333.21,-108.89 307.16,-97.53"/>
<polygon fill="midnightblue" stroke="midnightblue" points="393.65,-139.08 404.21,-139.87 396.45,-132.66 393.65,-139.08"/>
</g>
<!-- Node6 -->
<g id="node6" class="node">
<title>Node6</title>
<g id="a_node6"><a xlink:href="EnemyMovementBehaviour_8cpp.html" target="_top" xlink:title=" ">
<polygon fill="none" stroke="black" points="346,-67.5 346,-97.5 502,-97.5 502,-67.5 346,-67.5"/>
<text text-anchor="start" x="354" y="-85.5" font-family="Helvetica,sans-Serif" font-size="10.00">src/Scripts/Enemies</text>
<text text-anchor="middle" x="424" y="-74.5" font-family="Helvetica,sans-Serif" font-size="10.00">/EnemyMovementBehaviour.cpp</text>
</a>
</g>
</g>
<!-- Node2&#45;&gt;Node6 -->
<g id="edge5" class="edge">
<title>Node2&#45;&gt;Node6</title>
<path fill="none" stroke="midnightblue" d="M424,-129.41C424,-119.22 424,-106.9 424,-97.59"/>
<polygon fill="midnightblue" stroke="midnightblue" points="420.5,-129.73 424,-139.73 427.5,-129.73 420.5,-129.73"/>
</g>
<!-- Node7 -->
<g id="node7" class="node">
<title>Node7</title>
<g id="a_node7"><a xlink:href="EnemyTroopTruckBehaviour_8cpp.html" target="_top" xlink:title=" ">
<polygon fill="none" stroke="black" points="520,-67.5 520,-97.5 680,-97.5 680,-67.5 520,-67.5"/>
<text text-anchor="start" x="528" y="-85.5" font-family="Helvetica,sans-Serif" font-size="10.00">src/Scripts/Enemies</text>
<text text-anchor="middle" x="600" y="-74.5" font-family="Helvetica,sans-Serif" font-size="10.00">/EnemyTroopTruckBehaviour.cpp</text>
</a>
</g>
</g>
<!-- Node2&#45;&gt;Node7 -->
<g id="edge6" class="edge">
<title>Node2&#45;&gt;Node7</title>
<path fill="none" stroke="midnightblue" d="M456.91,-136.35C486.74,-125.33 530.7,-109.09 562.02,-97.53"/>
<polygon fill="midnightblue" stroke="midnightblue" points="455.54,-133.12 447.37,-139.87 457.96,-139.69 455.54,-133.12"/>
</g>
<!-- Node8 -->
<g id="node8" class="node">
<title>Node8</title>
<g id="a_node8"><a xlink:href="UserAttackBehaviour_8cpp.html" target="_top" xlink:title=" ">
<polygon fill="none" stroke="black" points="698.5,-67.5 698.5,-97.5 829.5,-97.5 829.5,-67.5 698.5,-67.5"/>
<text text-anchor="start" x="706.5" y="-85.5" font-family="Helvetica,sans-Serif" font-size="10.00">src/Scripts/Heroes</text>
<text text-anchor="middle" x="764" y="-74.5" font-family="Helvetica,sans-Serif" font-size="10.00">/UserAttackBehaviour.cpp</text>
</a>
</g>
</g>
<!-- Node2&#45;&gt;Node8 -->
<g id="edge7" class="edge">
<title>Node2&#45;&gt;Node8</title>
<path fill="none" stroke="midnightblue" d="M479,-138.06C532.6,-127.88 616.41,-111.93 689,-98 692,-97.43 695.06,-96.84 698.15,-96.24"/>
<polygon fill="midnightblue" stroke="midnightblue" points="478.19,-134.65 469.02,-139.96 479.5,-141.53 478.19,-134.65"/>
</g>
<!-- Node10 -->
<g id="node10" class="node">
<title>Node10</title>
<g id="a_node10"><a xlink:href="LevelSelectionController_8cpp.html" target="_top" xlink:title=" ">
<polygon fill="none" stroke="black" points="1004.5,-67.5 1004.5,-97.5 1151.5,-97.5 1151.5,-67.5 1004.5,-67.5"/>
<text text-anchor="start" x="1012.5" y="-85.5" font-family="Helvetica,sans-Serif" font-size="10.00">src/Controllers/LevelSelection</text>
<text text-anchor="middle" x="1078" y="-74.5" font-family="Helvetica,sans-Serif" font-size="10.00">Controller.cpp</text>
</a>
</g>
</g>
<!-- Node9&#45;&gt;Node10 -->
<g id="edge9" class="edge">
<title>Node9&#45;&gt;Node10</title>
<path fill="none" stroke="midnightblue" d="M1000.5,-129.3C1017.71,-119.12 1038.48,-106.85 1054.18,-97.58"/>
<polygon fill="midnightblue" stroke="midnightblue" points="998.7,-126.3 991.87,-134.4 1002.26,-132.32 998.7,-126.3"/>
</g>
<!-- Node9&#45;&gt;Node11 -->
<g id="edge10" class="edge">
<title>Node9&#45;&gt;Node11</title>
<path fill="none" stroke="midnightblue" d="M950.59,-126.32C941.4,-114.6 930.64,-100.88 923.82,-92.19"/>
<polygon fill="midnightblue" stroke="midnightblue" points="948.01,-128.69 956.93,-134.4 953.51,-124.37 948.01,-128.69"/>
</g>
<!-- Node11&#45;&gt;Node4 -->
<g id="edge11" class="edge">
<title>Node11&#45;&gt;Node4</title>
<path fill="none" stroke="midnightblue" d="M862.48,-71.18C854.28,-69.72 845.93,-68.28 838,-67 735.98,-50.49 617.18,-34.44 544.81,-25.01"/>
<polygon fill="midnightblue" stroke="midnightblue" points="861.89,-74.63 872.35,-72.97 863.13,-67.74 861.89,-74.63"/>
</g>
<!-- Node12 -->
<g id="node12" class="node">
<title>Node12</title>
<g id="a_node12"><a xlink:href="LevelSelectionScene_8cpp.html" target="_top" xlink:title=" ">
<polygon fill="none" stroke="black" points="850,-0.5 850,-30.5 984,-30.5 984,-0.5 850,-0.5"/>
<text text-anchor="start" x="858" y="-18.5" font-family="Helvetica,sans-Serif" font-size="10.00">src/Scenes/LevelSelection</text>
<text text-anchor="middle" x="917" y="-7.5" font-family="Helvetica,sans-Serif" font-size="10.00">Scene.cpp</text>
</a>
</g>
</g>
<!-- Node11&#45;&gt;Node12 -->
<g id="edge12" class="edge">
<title>Node11&#45;&gt;Node12</title>
<path fill="none" stroke="midnightblue" d="M917,-62.41C917,-52.22 917,-39.9 917,-30.59"/>
<polygon fill="midnightblue" stroke="midnightblue" points="913.5,-62.73 917,-72.73 920.5,-62.73 913.5,-62.73"/>
</g>
<!-- Node13&#45;&gt;Node10 -->
<g id="edge14" class="edge">
<title>Node13&#45;&gt;Node10</title>
<path fill="none" stroke="midnightblue" d="M1127.12,-132.62C1116.41,-121.91 1102.4,-107.9 1092.09,-97.59"/>
<polygon fill="midnightblue" stroke="midnightblue" points="1124.69,-135.14 1134.23,-139.73 1129.64,-130.19 1124.69,-135.14"/>
</g>
<!-- Node14 -->
<g id="node14" class="node">
<title>Node14</title>
<g id="a_node14"><a xlink:href="LevelManager_8cpp.html" target="_top" xlink:title=" ">
<polygon fill="none" stroke="black" points="1169.5,-73 1169.5,-92 1336.5,-92 1336.5,-73 1169.5,-73"/>
<text text-anchor="middle" x="1253" y="-80" font-family="Helvetica,sans-Serif" font-size="10.00">src/Persistence/LevelManager.cpp</text>
</a>
</g>
</g>
<!-- Node13&#45;&gt;Node14 -->
<g id="edge15" class="edge">
<title>Node13&#45;&gt;Node14</title>
<path fill="none" stroke="midnightblue" d="M1166.5,-134.62C1188.29,-121.74 1220.04,-102.98 1238.4,-92.13"/>
<polygon fill="midnightblue" stroke="midnightblue" points="1164.66,-131.63 1157.84,-139.73 1168.22,-137.66 1164.66,-131.63"/>
</g>
</g>
</svg>
