<?xml version="1.0" encoding="UTF-8" standalone="no"?>
<!DOCTYPE svg PUBLIC "-//W3C//DTD SVG 1.1//EN"
 "http://www.w3.org/Graphics/SVG/1.1/DTD/svg11.dtd">
<!-- Generated by graphviz version 2.44.0 ()
 -->
<!-- Title: src/Controllers/LevelController.hpp Pages: 1 -->
<svg width="1351pt" height="375pt"
 viewBox="0.00 0.00 1351.00 375.00" xmlns="http://www.w3.org/2000/svg" xmlns:xlink="http://www.w3.org/1999/xlink">
<g id="graph0" class="graph" transform="scale(1 1) rotate(0) translate(4 371)">
<title>src/Controllers/LevelController.hpp</title>
<!-- Node1 -->
<g id="node1" class="node">
<title>Node1</title>
<g id="a_node1"><a xlink:title=" ">
<polygon fill="#bfbfbf" stroke="black" points="767.5,-347.5 767.5,-366.5 933.5,-366.5 933.5,-347.5 767.5,-347.5"/>
<text text-anchor="middle" x="850.5" y="-354.5" font-family="Helvetica,sans-Serif" font-size="10.00">src/Controllers/LevelController.hpp</text>
</a>
</g>
</g>
<!-- Node2 -->
<g id="node2" class="node">
<title>Node2</title>
<g id="a_node2"><a xlink:title=" ">
<polygon fill="none" stroke="#bfbfbf" points="290,-168.5 290,-187.5 325,-187.5 325,-168.5 290,-168.5"/>
<text text-anchor="middle" x="307.5" y="-175.5" font-family="Helvetica,sans-Serif" font-size="10.00">map</text>
</a>
</g>
</g>
<!-- Node1&#45;&gt;Node2 -->
<g id="edge1" class="edge">
<title>Node1&#45;&gt;Node2</title>
<path fill="none" stroke="midnightblue" d="M767.39,-353.91C630.9,-349.72 371.17,-338.24 339.5,-311 306.67,-282.76 304.48,-227.12 305.86,-197.92"/>
<polygon fill="midnightblue" stroke="midnightblue" points="309.36,-198.02 306.53,-187.81 302.37,-197.55 309.36,-198.02"/>
</g>
<!-- Node3 -->
<g id="node3" class="node">
<title>Node3</title>
<g id="a_node3"><a xlink:title=" ">
<polygon fill="none" stroke="#bfbfbf" points="784.5,-112.5 784.5,-131.5 828.5,-131.5 828.5,-112.5 784.5,-112.5"/>
<text text-anchor="middle" x="806.5" y="-119.5" font-family="Helvetica,sans-Serif" font-size="10.00">vector</text>
</a>
</g>
</g>
<!-- Node1&#45;&gt;Node3 -->
<g id="edge2" class="edge">
<title>Node1&#45;&gt;Node3</title>
<path fill="none" stroke="midnightblue" d="M848.22,-347.41C845.87,-338.38 842.17,-323.75 839.5,-311 826.6,-249.5 814.7,-175.95 809.4,-141.95"/>
<polygon fill="midnightblue" stroke="midnightblue" points="812.8,-141.01 807.81,-131.66 805.88,-142.08 812.8,-141.01"/>
</g>
<!-- Node4 -->
<g id="node4" class="node">
<title>Node4</title>
<g id="a_node4"><a xlink:title=" ">
<polygon fill="none" stroke="#bfbfbf" points="669,-0.5 669,-19.5 720,-19.5 720,-0.5 669,-0.5"/>
<text text-anchor="middle" x="694.5" y="-7.5" font-family="Helvetica,sans-Serif" font-size="10.00">memory</text>
</a>
</g>
</g>
<!-- Node1&#45;&gt;Node4 -->
<g id="edge3" class="edge">
<title>Node1&#45;&gt;Node4</title>
<path fill="none" stroke="midnightblue" d="M896.06,-347.44C923.03,-340.75 956.83,-329.42 982.5,-311 1076.71,-243.42 1118.5,-138.95 1037.5,-56 995.57,-13.06 810.07,-9.74 730.71,-10.35"/>
<polygon fill="midnightblue" stroke="midnightblue" points="730.21,-6.85 720.25,-10.46 730.28,-13.85 730.21,-6.85"/>
</g>
<!-- Node5 -->
<g id="node5" class="node">
<title>Node5</title>
<g id="a_node5"><a xlink:title=" ">
<polygon fill="none" stroke="#bfbfbf" points="333,-56.5 333,-75.5 374,-75.5 374,-56.5 333,-56.5"/>
<text text-anchor="middle" x="353.5" y="-63.5" font-family="Helvetica,sans-Serif" font-size="10.00">string</text>
</a>
</g>
</g>
<!-- Node1&#45;&gt;Node5 -->
<g id="edge4" class="edge">
<title>Node1&#45;&gt;Node5</title>
<path fill="none" stroke="midnightblue" d="M767.31,-353.66C625.83,-347.39 353.5,-324.43 353.5,-240.5 353.5,-240.5 353.5,-240.5 353.5,-177 353.5,-144.95 353.5,-107.64 353.5,-85.75"/>
<polygon fill="midnightblue" stroke="midnightblue" points="357,-85.56 353.5,-75.56 350,-85.56 357,-85.56"/>
</g>
<!-- Node6 -->
<g id="node6" class="node">
<title>Node6</title>
<g id="a_node6"><a xlink:title=" ">
<polygon fill="none" stroke="#bfbfbf" points="1104.5,-291.5 1104.5,-310.5 1142.5,-310.5 1142.5,-291.5 1104.5,-291.5"/>
<text text-anchor="middle" x="1123.5" y="-298.5" font-family="Helvetica,sans-Serif" font-size="10.00">tuple</text>
</a>
</g>
</g>
<!-- Node1&#45;&gt;Node6 -->
<g id="edge5" class="edge">
<title>Node1&#45;&gt;Node6</title>
<path fill="none" stroke="midnightblue" d="M902.72,-347.46C951.51,-339.19 1026.25,-325.76 1090.5,-311 1091.77,-310.71 1093.06,-310.4 1094.37,-310.08"/>
<polygon fill="midnightblue" stroke="midnightblue" points="1095.56,-313.39 1104.37,-307.5 1093.81,-306.61 1095.56,-313.39"/>
</g>
<!-- Node7 -->
<g id="node7" class="node">
<title>Node7</title>
<g id="a_node7"><a xlink:title=" ">
<polygon fill="none" stroke="#bfbfbf" points="1161,-291.5 1161,-310.5 1202,-310.5 1202,-291.5 1161,-291.5"/>
<text text-anchor="middle" x="1181.5" y="-298.5" font-family="Helvetica,sans-Serif" font-size="10.00">stack</text>
</a>
</g>
</g>
<!-- Node1&#45;&gt;Node7 -->
<g id="edge6" class="edge">
<title>Node1&#45;&gt;Node7</title>
<path fill="none" stroke="midnightblue" d="M928.08,-347.5C986.81,-340.35 1069.58,-328.75 1151.02,-310.81"/>
<polygon fill="midnightblue" stroke="midnightblue" points="1151.95,-314.19 1160.95,-308.59 1150.42,-307.36 1151.95,-314.19"/>
</g>
<!-- Node8 -->
<g id="node8" class="node">
<title>Node8</title>
<g id="a_node8"><a xlink:href="BehaviourScript_8hpp.html" target="_top" xlink:title=" ">
<polygon fill="none" stroke="black" points="649.5,-168.5 649.5,-187.5 753.5,-187.5 753.5,-168.5 649.5,-168.5"/>
<text text-anchor="middle" x="701.5" y="-175.5" font-family="Helvetica,sans-Serif" font-size="10.00">BehaviourScript.hpp</text>
</a>
</g>
</g>
<!-- Node1&#45;&gt;Node8 -->
<g id="edge7" class="edge">
<title>Node1&#45;&gt;Node8</title>
<path fill="none" stroke="midnightblue" d="M827.13,-347.46C793.46,-333.76 732.41,-303.4 705.5,-255 695.79,-237.53 696.16,-214.17 698.08,-197.98"/>
<polygon fill="midnightblue" stroke="midnightblue" points="701.61,-198.05 699.64,-187.64 694.69,-197.01 701.61,-198.05"/>
</g>
<!-- Node11 -->
<g id="node11" class="node">
<title>Node11</title>
<g id="a_node11"><a xlink:href="Button_8hpp.html" target="_top" xlink:title=" ">
<polygon fill="none" stroke="black" points="849,-291.5 849,-310.5 912,-310.5 912,-291.5 849,-291.5"/>
<text text-anchor="middle" x="880.5" y="-298.5" font-family="Helvetica,sans-Serif" font-size="10.00">Button.hpp</text>
</a>
</g>
</g>
<!-- Node1&#45;&gt;Node11 -->
<g id="edge12" class="edge">
<title>Node1&#45;&gt;Node11</title>
<path fill="none" stroke="midnightblue" d="M855.45,-347.08C859.6,-339.61 865.65,-328.72 870.77,-319.52"/>
<polygon fill="midnightblue" stroke="midnightblue" points="873.84,-321.19 875.64,-310.75 867.72,-317.79 873.84,-321.19"/>
</g>
<!-- Node13 -->
<g id="node13" class="node">
<title>Node13</title>
<g id="a_node13"><a xlink:href="GameObject_8hpp.html" target="_top" xlink:title=" ">
<polygon fill="none" stroke="black" points="850,-168.5 850,-187.5 939,-187.5 939,-168.5 850,-168.5"/>
<text text-anchor="middle" x="894.5" y="-175.5" font-family="Helvetica,sans-Serif" font-size="10.00">GameObject.hpp</text>
</a>
</g>
</g>
<!-- Node1&#45;&gt;Node13 -->
<g id="edge22" class="edge">
<title>Node1&#45;&gt;Node13</title>
<path fill="none" stroke="midnightblue" d="M878.94,-347.47C916.67,-334.44 981.72,-305.6 1009.5,-255 1016.13,-242.92 1017.27,-235.38 1009.5,-224 995.81,-203.95 971.73,-192.83 949.13,-186.67"/>
<polygon fill="midnightblue" stroke="midnightblue" points="949.78,-183.22 939.23,-184.24 948.11,-190.02 949.78,-183.22"/>
</g>
<!-- Node17 -->
<g id="node17" class="node">
<title>Node17</title>
<g id="a_node17"><a xlink:href="LevelWithTiles_8hpp.html" target="_top" xlink:title=" ">
<polygon fill="none" stroke="black" points="137,-291.5 137,-310.5 278,-310.5 278,-291.5 137,-291.5"/>
<text text-anchor="middle" x="207.5" y="-298.5" font-family="Helvetica,sans-Serif" font-size="10.00">../Structs/LevelWithTiles.hpp</text>
</a>
</g>
</g>
<!-- Node1&#45;&gt;Node17 -->
<g id="edge23" class="edge">
<title>Node1&#45;&gt;Node17</title>
<path fill="none" stroke="midnightblue" d="M767.23,-349.66C659.13,-341.33 464.65,-325.99 298.5,-311 295.08,-310.69 291.58,-310.37 288.05,-310.04"/>
<polygon fill="midnightblue" stroke="midnightblue" points="288.32,-306.55 278.03,-309.1 287.66,-313.52 288.32,-306.55"/>
</g>
<!-- Node22 -->
<g id="node22" class="node">
<title>Node22</title>
<g id="a_node22"><a xlink:href="LevelData_8hpp.html" target="_top" xlink:title=" ">
<polygon fill="none" stroke="black" points="534,-291.5 534,-310.5 655,-310.5 655,-291.5 534,-291.5"/>
<text text-anchor="middle" x="594.5" y="-298.5" font-family="Helvetica,sans-Serif" font-size="10.00">../Structs/LevelData.hpp</text>
</a>
</g>
</g>
<!-- Node1&#45;&gt;Node22 -->
<g id="edge34" class="edge">
<title>Node1&#45;&gt;Node22</title>
<path fill="none" stroke="midnightblue" d="M809.94,-347.44C765.18,-338 693.12,-322.8 644.8,-312.61"/>
<polygon fill="midnightblue" stroke="midnightblue" points="645.38,-309.16 634.87,-310.52 643.94,-316.01 645.38,-309.16"/>
</g>
<!-- Node30 -->
<g id="node30" class="node">
<title>Node30</title>
<g id="a_node30"><a xlink:href="LevelMode_8hpp.html" target="_top" xlink:title=" ">
<polygon fill="none" stroke="black" points="1220,-291.5 1220,-310.5 1343,-310.5 1343,-291.5 1220,-291.5"/>
<text text-anchor="middle" x="1281.5" y="-298.5" font-family="Helvetica,sans-Serif" font-size="10.00">../Enums/LevelMode.hpp</text>
</a>
</g>
</g>
<!-- Node1&#45;&gt;Node30 -->
<g id="edge57" class="edge">
<title>Node1&#45;&gt;Node30</title>
<path fill="none" stroke="midnightblue" d="M919.38,-347.49C989.83,-338.78 1102.75,-324.75 1209.67,-311.23"/>
<polygon fill="midnightblue" stroke="midnightblue" points="1210.18,-314.69 1219.67,-309.96 1209.3,-307.75 1210.18,-314.69"/>
</g>
<!-- Node9 -->
<g id="node9" class="node">
<title>Node9</title>
<g id="a_node9"><a xlink:href="Component_8hpp.html" target="_top" xlink:title=" ">
<polygon fill="none" stroke="black" points="652.5,-56.5 652.5,-75.5 736.5,-75.5 736.5,-56.5 652.5,-56.5"/>
<text text-anchor="middle" x="694.5" y="-63.5" font-family="Helvetica,sans-Serif" font-size="10.00">Component.hpp</text>
</a>
</g>
</g>
<!-- Node8&#45;&gt;Node9 -->
<g id="edge8" class="edge">
<title>Node8&#45;&gt;Node9</title>
<path fill="none" stroke="midnightblue" d="M711.6,-168.49C724.68,-156.36 744.87,-133.22 736.5,-112 731.99,-100.55 723.03,-90.29 714.55,-82.47"/>
<polygon fill="midnightblue" stroke="midnightblue" points="716.59,-79.61 706.71,-75.76 712.03,-84.93 716.59,-79.61"/>
</g>
<!-- Node10 -->
<g id="node10" class="node">
<title>Node10</title>
<g id="a_node10"><a xlink:href="Collider_8hpp.html" target="_top" xlink:title=" ">
<polygon fill="none" stroke="black" points="661,-112.5 661,-131.5 728,-131.5 728,-112.5 661,-112.5"/>
<text text-anchor="middle" x="694.5" y="-119.5" font-family="Helvetica,sans-Serif" font-size="10.00">Collider.hpp</text>
</a>
</g>
</g>
<!-- Node8&#45;&gt;Node10 -->
<g id="edge10" class="edge">
<title>Node8&#45;&gt;Node10</title>
<path fill="none" stroke="midnightblue" d="M700.34,-168.08C699.42,-160.93 698.08,-150.64 696.92,-141.69"/>
<polygon fill="midnightblue" stroke="midnightblue" points="700.39,-141.22 695.63,-131.75 693.45,-142.12 700.39,-141.22"/>
</g>
<!-- Node9&#45;&gt;Node4 -->
<g id="edge9" class="edge">
<title>Node9&#45;&gt;Node4</title>
<path fill="none" stroke="midnightblue" d="M694.5,-56.08C694.5,-49.01 694.5,-38.86 694.5,-29.99"/>
<polygon fill="midnightblue" stroke="midnightblue" points="698,-29.75 694.5,-19.75 691,-29.75 698,-29.75"/>
</g>
<!-- Node10&#45;&gt;Node9 -->
<g id="edge11" class="edge">
<title>Node10&#45;&gt;Node9</title>
<path fill="none" stroke="midnightblue" d="M694.5,-112.08C694.5,-105.01 694.5,-94.86 694.5,-85.99"/>
<polygon fill="midnightblue" stroke="midnightblue" points="698,-85.75 694.5,-75.75 691,-85.75 698,-85.75"/>
</g>
<!-- Node12 -->
<g id="node12" class="node">
<title>Node12</title>
<g id="a_node12"><a xlink:href="UIObject_8hpp.html" target="_top" xlink:title=" ">
<polygon fill="none" stroke="black" points="926.5,-230 926.5,-249 1000.5,-249 1000.5,-230 926.5,-230"/>
<text text-anchor="middle" x="963.5" y="-237" font-family="Helvetica,sans-Serif" font-size="10.00">UIObject.hpp</text>
</a>
</g>
</g>
<!-- Node11&#45;&gt;Node12 -->
<g id="edge13" class="edge">
<title>Node11&#45;&gt;Node12</title>
<path fill="none" stroke="midnightblue" d="M892.39,-291.48C905.7,-281.93 927.5,-266.31 943.46,-254.87"/>
<polygon fill="midnightblue" stroke="midnightblue" points="945.54,-257.68 951.63,-249.01 941.46,-251.99 945.54,-257.68"/>
</g>
<!-- Node16 -->
<g id="node16" class="node">
<title>Node16</title>
<g id="a_node16"><a xlink:title=" ">
<polygon fill="none" stroke="#bfbfbf" points="849,-230 849,-249 908,-249 908,-230 849,-230"/>
<text text-anchor="middle" x="878.5" y="-237" font-family="Helvetica,sans-Serif" font-size="10.00">functional</text>
</a>
</g>
</g>
<!-- Node11&#45;&gt;Node16 -->
<g id="edge21" class="edge">
<title>Node11&#45;&gt;Node16</title>
<path fill="none" stroke="midnightblue" d="M880.21,-291.48C879.93,-283.08 879.49,-269.98 879.13,-259.16"/>
<polygon fill="midnightblue" stroke="midnightblue" points="882.62,-258.89 878.79,-249.01 875.62,-259.12 882.62,-258.89"/>
</g>
<!-- Node12&#45;&gt;Node13 -->
<g id="edge14" class="edge">
<title>Node12&#45;&gt;Node13</title>
<path fill="none" stroke="midnightblue" d="M953.61,-229.98C942.85,-220.7 925.43,-205.67 912.28,-194.33"/>
<polygon fill="midnightblue" stroke="midnightblue" points="914.23,-191.39 904.37,-187.51 909.66,-196.69 914.23,-191.39"/>
</g>
<!-- Node13&#45;&gt;Node3 -->
<g id="edge19" class="edge">
<title>Node13&#45;&gt;Node3</title>
<path fill="none" stroke="midnightblue" d="M880.36,-168.32C866.63,-159.9 845.56,-146.97 829.44,-137.07"/>
<polygon fill="midnightblue" stroke="midnightblue" points="830.96,-133.9 820.6,-131.65 827.3,-139.87 830.96,-133.9"/>
</g>
<!-- Node13&#45;&gt;Node4 -->
<g id="edge20" class="edge">
<title>Node13&#45;&gt;Node4</title>
<path fill="none" stroke="midnightblue" d="M939.11,-172.16C964.87,-166.82 995.3,-155.59 1011.5,-132 1023.24,-114.91 1017.61,-72.31 1000.5,-56 962.34,-19.63 802.71,-12.58 730.39,-11.27"/>
<polygon fill="midnightblue" stroke="midnightblue" points="730.43,-7.77 720.38,-11.11 730.32,-14.77 730.43,-7.77"/>
</g>
<!-- Node13&#45;&gt;Node5 -->
<g id="edge18" class="edge">
<title>Node13&#45;&gt;Node5</title>
<path fill="none" stroke="midnightblue" d="M889.89,-168.39C881.59,-153.87 862.63,-124.82 837.5,-112 817.24,-101.66 487.76,-76.82 384.32,-69.23"/>
<polygon fill="midnightblue" stroke="midnightblue" points="384.44,-65.73 374.21,-68.5 383.93,-72.71 384.44,-65.73"/>
</g>
<!-- Node13&#45;&gt;Node9 -->
<g id="edge15" class="edge">
<title>Node13&#45;&gt;Node9</title>
<path fill="none" stroke="midnightblue" d="M893.83,-168.44C892.26,-154.51 887.12,-126.98 870.5,-112 836.74,-81.56 785.21,-71.13 746.62,-67.83"/>
<polygon fill="midnightblue" stroke="midnightblue" points="746.83,-64.34 736.61,-67.11 746.33,-71.32 746.83,-64.34"/>
</g>
<!-- Node14 -->
<g id="node14" class="node">
<title>Node14</title>
<g id="a_node14"><a xlink:href="Transform_8hpp.html" target="_top" xlink:title=" ">
<polygon fill="none" stroke="black" points="923,-112.5 923,-131.5 1002,-131.5 1002,-112.5 923,-112.5"/>
<text text-anchor="middle" x="962.5" y="-119.5" font-family="Helvetica,sans-Serif" font-size="10.00">Transform.hpp</text>
</a>
</g>
</g>
<!-- Node13&#45;&gt;Node14 -->
<g id="edge16" class="edge">
<title>Node13&#45;&gt;Node14</title>
<path fill="none" stroke="midnightblue" d="M905.43,-168.32C915.67,-160.18 931.22,-147.84 943.5,-138.09"/>
<polygon fill="midnightblue" stroke="midnightblue" points="945.72,-140.79 951.38,-131.83 941.37,-135.31 945.72,-140.79"/>
</g>
<!-- Node15 -->
<g id="node15" class="node">
<title>Node15</title>
<g id="a_node15"><a xlink:href="Point_8hpp.html" target="_top" xlink:title=" ">
<polygon fill="none" stroke="black" points="934,-56.5 934,-75.5 991,-75.5 991,-56.5 934,-56.5"/>
<text text-anchor="middle" x="962.5" y="-63.5" font-family="Helvetica,sans-Serif" font-size="10.00">Point.hpp</text>
</a>
</g>
</g>
<!-- Node14&#45;&gt;Node15 -->
<g id="edge17" class="edge">
<title>Node14&#45;&gt;Node15</title>
<path fill="none" stroke="midnightblue" d="M962.5,-112.08C962.5,-105.01 962.5,-94.86 962.5,-85.99"/>
<polygon fill="midnightblue" stroke="midnightblue" points="966,-85.75 962.5,-75.75 959,-85.75 966,-85.75"/>
</g>
<!-- Node17&#45;&gt;Node3 -->
<g id="edge33" class="edge">
<title>Node17&#45;&gt;Node3</title>
<path fill="none" stroke="midnightblue" d="M214.89,-291.45C222.24,-282.69 233.52,-268.48 241.5,-255 263.08,-218.53 245.87,-192.42 280.5,-168 322.04,-138.71 685.95,-137.24 736.5,-132 748.94,-130.71 762.59,-129.02 774.51,-127.45"/>
<polygon fill="midnightblue" stroke="midnightblue" points="775.02,-130.91 784.46,-126.11 774.09,-123.97 775.02,-130.91"/>
</g>
<!-- Node18 -->
<g id="node18" class="node">
<title>Node18</title>
<g id="a_node18"><a xlink:href="Level_8hpp.html" target="_top" xlink:title=" ">
<polygon fill="none" stroke="black" points="174,-230 174,-249 233,-249 233,-230 174,-230"/>
<text text-anchor="middle" x="203.5" y="-237" font-family="Helvetica,sans-Serif" font-size="10.00">Level.hpp</text>
</a>
</g>
</g>
<!-- Node17&#45;&gt;Node18 -->
<g id="edge24" class="edge">
<title>Node17&#45;&gt;Node18</title>
<path fill="none" stroke="midnightblue" d="M206.93,-291.48C206.36,-283.08 205.48,-269.98 204.75,-259.16"/>
<polygon fill="midnightblue" stroke="midnightblue" points="208.24,-258.75 204.07,-249.01 201.25,-259.22 208.24,-258.75"/>
</g>
<!-- Node21 -->
<g id="node21" class="node">
<title>Node21</title>
<g id="a_node21"><a xlink:href="Tile_8hpp.html" target="_top" xlink:title=" ">
<polygon fill="none" stroke="black" points="107.5,-168.5 107.5,-187.5 157.5,-187.5 157.5,-168.5 107.5,-168.5"/>
<text text-anchor="middle" x="132.5" y="-175.5" font-family="Helvetica,sans-Serif" font-size="10.00">Tile.hpp</text>
</a>
</g>
</g>
<!-- Node17&#45;&gt;Node21 -->
<g id="edge31" class="edge">
<title>Node17&#45;&gt;Node21</title>
<path fill="none" stroke="midnightblue" d="M197.17,-291.22C187.69,-282.72 173.75,-269.09 164.5,-255 152.63,-236.91 143.62,-213.69 138.24,-197.71"/>
<polygon fill="midnightblue" stroke="midnightblue" points="141.49,-196.39 135.09,-187.95 134.83,-198.54 141.49,-196.39"/>
</g>
<!-- Node18&#45;&gt;Node2 -->
<g id="edge26" class="edge">
<title>Node18&#45;&gt;Node2</title>
<path fill="none" stroke="midnightblue" d="M218.4,-229.98C235.47,-220.21 263.66,-204.08 283.76,-192.58"/>
<polygon fill="midnightblue" stroke="midnightblue" points="285.69,-195.51 292.63,-187.51 282.21,-189.44 285.69,-195.51"/>
</g>
<!-- Node18&#45;&gt;Node5 -->
<g id="edge25" class="edge">
<title>Node18&#45;&gt;Node5</title>
<path fill="none" stroke="midnightblue" d="M208,-229.79C215.34,-216 230.73,-188.58 247.5,-168 274.84,-134.45 312.7,-100.86 334.99,-82.11"/>
<polygon fill="midnightblue" stroke="midnightblue" points="337.27,-84.77 342.72,-75.69 332.79,-79.39 337.27,-84.77"/>
</g>
<!-- Node19 -->
<g id="node19" class="node">
<title>Node19</title>
<g id="a_node19"><a xlink:href="TileType_8hpp.html" target="_top" xlink:title=" ">
<polygon fill="none" stroke="black" points="79.5,-112.5 79.5,-131.5 191.5,-131.5 191.5,-112.5 79.5,-112.5"/>
<text text-anchor="middle" x="135.5" y="-119.5" font-family="Helvetica,sans-Serif" font-size="10.00">../Enums/TileType.hpp</text>
</a>
</g>
</g>
<!-- Node18&#45;&gt;Node19 -->
<g id="edge27" class="edge">
<title>Node18&#45;&gt;Node19</title>
<path fill="none" stroke="midnightblue" d="M199.27,-229.63C192.72,-216.08 179.5,-189.54 166.5,-168 160.74,-158.46 153.73,-148.2 147.84,-139.88"/>
<polygon fill="midnightblue" stroke="midnightblue" points="150.68,-137.83 142,-131.76 145,-141.92 150.68,-137.83"/>
</g>
<!-- Node20 -->
<g id="node20" class="node">
<title>Node20</title>
<g id="a_node20"><a xlink:href="TilesAmount_8hpp.html" target="_top" xlink:title=" ">
<polygon fill="none" stroke="black" points="0,-168.5 0,-187.5 89,-187.5 89,-168.5 0,-168.5"/>
<text text-anchor="middle" x="44.5" y="-175.5" font-family="Helvetica,sans-Serif" font-size="10.00">TilesAmount.hpp</text>
</a>
</g>
</g>
<!-- Node18&#45;&gt;Node20 -->
<g id="edge28" class="edge">
<title>Node18&#45;&gt;Node20</title>
<path fill="none" stroke="midnightblue" d="M180.72,-229.98C153.45,-219.77 107.59,-202.61 76.7,-191.05"/>
<polygon fill="midnightblue" stroke="midnightblue" points="77.83,-187.74 67.24,-187.51 75.38,-194.29 77.83,-187.74"/>
</g>
<!-- Node20&#45;&gt;Node5 -->
<g id="edge29" class="edge">
<title>Node20&#45;&gt;Node5</title>
<path fill="none" stroke="midnightblue" d="M45.31,-168.24C47.12,-154.03 52.84,-126.11 70.5,-112 109.07,-81.19 257.91,-71.11 322.87,-68.13"/>
<polygon fill="midnightblue" stroke="midnightblue" points="323.07,-71.62 332.91,-67.7 322.77,-64.63 323.07,-71.62"/>
</g>
<!-- Node20&#45;&gt;Node19 -->
<g id="edge30" class="edge">
<title>Node20&#45;&gt;Node19</title>
<path fill="none" stroke="midnightblue" d="M59.12,-168.32C73.45,-159.82 95.51,-146.73 112.25,-136.8"/>
<polygon fill="midnightblue" stroke="midnightblue" points="114.1,-139.77 120.92,-131.65 110.53,-133.75 114.1,-139.77"/>
</g>
<!-- Node21&#45;&gt;Node19 -->
<g id="edge32" class="edge">
<title>Node21&#45;&gt;Node19</title>
<path fill="none" stroke="midnightblue" d="M133,-168.08C133.39,-161.01 133.95,-150.86 134.45,-141.99"/>
<polygon fill="midnightblue" stroke="midnightblue" points="137.95,-141.93 135.01,-131.75 130.96,-141.54 137.95,-141.93"/>
</g>
<!-- Node23 -->
<g id="node23" class="node">
<title>Node23</title>
<g id="a_node23"><a xlink:href="WaveData_8hpp.html" target="_top" xlink:title=" ">
<polygon fill="none" stroke="black" points="432.5,-230 432.5,-249 512.5,-249 512.5,-230 432.5,-230"/>
<text text-anchor="middle" x="472.5" y="-237" font-family="Helvetica,sans-Serif" font-size="10.00">WaveData.hpp</text>
</a>
</g>
</g>
<!-- Node22&#45;&gt;Node23 -->
<g id="edge35" class="edge">
<title>Node22&#45;&gt;Node23</title>
<path fill="none" stroke="midnightblue" d="M577.02,-291.48C556.64,-281.53 522.72,-264.99 499.08,-253.46"/>
<polygon fill="midnightblue" stroke="midnightblue" points="500.47,-250.25 489.95,-249.01 497.4,-256.54 500.47,-250.25"/>
</g>
<!-- Node24 -->
<g id="node24" class="node">
<title>Node24</title>
<g id="a_node24"><a xlink:title=" ">
<polygon fill="none" stroke="#bfbfbf" points="382,-168.5 382,-187.5 425,-187.5 425,-168.5 382,-168.5"/>
<text text-anchor="middle" x="403.5" y="-175.5" font-family="Helvetica,sans-Serif" font-size="10.00">queue</text>
</a>
</g>
</g>
<!-- Node22&#45;&gt;Node24 -->
<g id="edge56" class="edge">
<title>Node22&#45;&gt;Node24</title>
<path fill="none" stroke="midnightblue" d="M533.59,-298.77C497.06,-294.81 452.26,-283.76 423.5,-255 408.53,-240.03 404.36,-215.28 403.4,-198.11"/>
<polygon fill="midnightblue" stroke="midnightblue" points="406.88,-197.56 403.15,-187.65 399.89,-197.73 406.88,-197.56"/>
</g>
<!-- Node25 -->
<g id="node25" class="node">
<title>Node25</title>
<g id="a_node25"><a xlink:href="MapNode_8hpp.html" target="_top" xlink:title=" ">
<polygon fill="none" stroke="black" points="715,-230 715,-249 792,-249 792,-230 715,-230"/>
<text text-anchor="middle" x="753.5" y="-237" font-family="Helvetica,sans-Serif" font-size="10.00">MapNode.hpp</text>
</a>
</g>
</g>
<!-- Node22&#45;&gt;Node25 -->
<g id="edge40" class="edge">
<title>Node22&#45;&gt;Node25</title>
<path fill="none" stroke="midnightblue" d="M617.28,-291.48C644.55,-281.27 690.41,-264.11 721.3,-252.55"/>
<polygon fill="midnightblue" stroke="midnightblue" points="722.62,-255.79 730.76,-249.01 720.17,-249.24 722.62,-255.79"/>
</g>
<!-- Node26 -->
<g id="node26" class="node">
<title>Node26</title>
<g id="a_node26"><a xlink:href="HealthBehaviour_8hpp.html" target="_top" xlink:title=" ">
<polygon fill="none" stroke="black" points="530.5,-224.5 530.5,-254.5 658.5,-254.5 658.5,-224.5 530.5,-224.5"/>
<text text-anchor="start" x="538.5" y="-242.5" font-family="Helvetica,sans-Serif" font-size="10.00">../Scripts/Common/Health</text>
<text text-anchor="middle" x="594.5" y="-231.5" font-family="Helvetica,sans-Serif" font-size="10.00">Behaviour.hpp</text>
</a>
</g>
</g>
<!-- Node22&#45;&gt;Node26 -->
<g id="edge45" class="edge">
<title>Node22&#45;&gt;Node26</title>
<path fill="none" stroke="midnightblue" d="M594.5,-291.48C594.5,-284.47 594.5,-274.19 594.5,-264.7"/>
<polygon fill="midnightblue" stroke="midnightblue" points="598,-264.52 594.5,-254.52 591,-264.52 598,-264.52"/>
</g>
<!-- Node23&#45;&gt;Node2 -->
<g id="edge36" class="edge">
<title>Node23&#45;&gt;Node2</title>
<path fill="none" stroke="midnightblue" d="M448.86,-229.98C418.63,-219.07 366.39,-200.24 334.58,-188.77"/>
<polygon fill="midnightblue" stroke="midnightblue" points="335.63,-185.42 325.03,-185.32 333.25,-192.01 335.63,-185.42"/>
</g>
<!-- Node23&#45;&gt;Node4 -->
<g id="edge37" class="edge">
<title>Node23&#45;&gt;Node4</title>
<path fill="none" stroke="midnightblue" d="M469.89,-229.93C461.74,-201.27 439.86,-107.65 484.5,-56 506.84,-30.15 604.83,-18.25 658.7,-13.57"/>
<polygon fill="midnightblue" stroke="midnightblue" points="659.17,-17.05 668.85,-12.73 658.6,-10.07 659.17,-17.05"/>
</g>
<!-- Node23&#45;&gt;Node13 -->
<g id="edge39" class="edge">
<title>Node23&#45;&gt;Node13</title>
<path fill="none" stroke="midnightblue" d="M498.49,-229.93C505.86,-227.74 513.94,-225.56 521.5,-224 633.22,-200.9 766.39,-188.36 839.55,-182.73"/>
<polygon fill="midnightblue" stroke="midnightblue" points="840.19,-186.19 849.9,-181.95 839.66,-179.21 840.19,-186.19"/>
</g>
<!-- Node23&#45;&gt;Node24 -->
<g id="edge38" class="edge">
<title>Node23&#45;&gt;Node24</title>
<path fill="none" stroke="midnightblue" d="M462.61,-229.98C451.85,-220.7 434.43,-205.67 421.28,-194.33"/>
<polygon fill="midnightblue" stroke="midnightblue" points="423.23,-191.39 413.37,-187.51 418.66,-196.69 423.23,-191.39"/>
</g>
<!-- Node25&#45;&gt;Node3 -->
<g id="edge41" class="edge">
<title>Node25&#45;&gt;Node3</title>
<path fill="none" stroke="midnightblue" d="M757.48,-229.82C766.12,-211.01 786.7,-166.15 798.26,-140.96"/>
<polygon fill="midnightblue" stroke="midnightblue" points="801.48,-142.33 802.47,-131.78 795.12,-139.41 801.48,-142.33"/>
</g>
<!-- Node25&#45;&gt;Node4 -->
<g id="edge42" class="edge">
<title>Node25&#45;&gt;Node4</title>
<path fill="none" stroke="midnightblue" d="M792.29,-232.73C832.68,-225.76 897.12,-211.88 948.5,-188 987.53,-169.86 1007.74,-170.23 1027.5,-132 1036.54,-114.51 1033.15,-69.59 1019.5,-56 979.41,-16.08 805.83,-11.02 730.08,-10.75"/>
<polygon fill="midnightblue" stroke="midnightblue" points="730.07,-7.25 720.07,-10.74 730.06,-14.25 730.07,-7.25"/>
</g>
<!-- Node25&#45;&gt;Node13 -->
<g id="edge43" class="edge">
<title>Node25&#45;&gt;Node13</title>
<path fill="none" stroke="midnightblue" d="M773.7,-229.98C797.57,-219.9 837.5,-203.05 864.87,-191.5"/>
<polygon fill="midnightblue" stroke="midnightblue" points="866.48,-194.62 874.34,-187.51 863.76,-188.17 866.48,-194.62"/>
</g>
<!-- Node25&#45;&gt;Node19 -->
<g id="edge44" class="edge">
<title>Node25&#45;&gt;Node19</title>
<path fill="none" stroke="midnightblue" d="M718.14,-229.9C659.32,-215.77 537.54,-187.29 433.5,-168 354.23,-153.3 262.42,-139.99 201.89,-131.73"/>
<polygon fill="midnightblue" stroke="midnightblue" points="202.09,-128.22 191.71,-130.34 201.15,-135.16 202.09,-128.22"/>
</g>
<!-- Node26&#45;&gt;Node4 -->
<g id="edge47" class="edge">
<title>Node26&#45;&gt;Node4</title>
<path fill="none" stroke="midnightblue" d="M576.54,-224.35C537.78,-192.12 453.28,-111.75 498.5,-56 518.37,-31.51 607.8,-19.17 658.72,-14.04"/>
<polygon fill="midnightblue" stroke="midnightblue" points="659.34,-17.49 668.96,-13.05 658.67,-10.52 659.34,-17.49"/>
</g>
<!-- Node26&#45;&gt;Node8 -->
<g id="edge46" class="edge">
<title>Node26&#45;&gt;Node8</title>
<path fill="none" stroke="midnightblue" d="M619.86,-224.4C637.17,-214.77 659.98,-202.09 677.08,-192.58"/>
<polygon fill="midnightblue" stroke="midnightblue" points="678.89,-195.58 685.93,-187.66 675.49,-189.46 678.89,-195.58"/>
</g>
<!-- Node27 -->
<g id="node27" class="node">
<title>Node27</title>
<g id="a_node27"><a xlink:href="Animator_8hpp.html" target="_top" xlink:title=" ">
<polygon fill="none" stroke="black" points="557.5,-168.5 557.5,-187.5 631.5,-187.5 631.5,-168.5 557.5,-168.5"/>
<text text-anchor="middle" x="594.5" y="-175.5" font-family="Helvetica,sans-Serif" font-size="10.00">Animator.hpp</text>
</a>
</g>
</g>
<!-- Node26&#45;&gt;Node27 -->
<g id="edge48" class="edge">
<title>Node26&#45;&gt;Node27</title>
<path fill="none" stroke="midnightblue" d="M594.5,-224.4C594.5,-216.47 594.5,-206.46 594.5,-197.86"/>
<polygon fill="midnightblue" stroke="midnightblue" points="598,-197.66 594.5,-187.66 591,-197.66 598,-197.66"/>
</g>
<!-- Node27&#45;&gt;Node3 -->
<g id="edge54" class="edge">
<title>Node27&#45;&gt;Node3</title>
<path fill="none" stroke="midnightblue" d="M628.09,-168.44C668.28,-158.21 735.08,-141.19 774.53,-131.14"/>
<polygon fill="midnightblue" stroke="midnightblue" points="775.59,-134.48 784.42,-128.62 773.86,-127.7 775.59,-134.48"/>
</g>
<!-- Node27&#45;&gt;Node4 -->
<g id="edge55" class="edge">
<title>Node27&#45;&gt;Node4</title>
<path fill="none" stroke="midnightblue" d="M596.51,-168.42C601.68,-147.63 616.91,-93.54 643.5,-56 651.71,-44.41 663.47,-33.77 673.63,-25.75"/>
<polygon fill="midnightblue" stroke="midnightblue" points="675.8,-28.5 681.67,-19.67 671.58,-22.91 675.8,-28.5"/>
</g>
<!-- Node27&#45;&gt;Node9 -->
<g id="edge49" class="edge">
<title>Node27&#45;&gt;Node9</title>
<path fill="none" stroke="midnightblue" d="M601.76,-168.48C612.49,-155.97 633.26,-131.93 651.5,-112 660.46,-102.22 670.71,-91.47 678.96,-82.93"/>
<polygon fill="midnightblue" stroke="midnightblue" points="681.69,-85.14 686.15,-75.52 676.67,-80.26 681.69,-85.14"/>
</g>
<!-- Node28 -->
<g id="node28" class="node">
<title>Node28</title>
<g id="a_node28"><a xlink:href="Sprite_8hpp.html" target="_top" xlink:title=" ">
<polygon fill="none" stroke="black" points="506.5,-112.5 506.5,-131.5 566.5,-131.5 566.5,-112.5 506.5,-112.5"/>
<text text-anchor="middle" x="536.5" y="-119.5" font-family="Helvetica,sans-Serif" font-size="10.00">Sprite.hpp</text>
</a>
</g>
</g>
<!-- Node27&#45;&gt;Node28 -->
<g id="edge50" class="edge">
<title>Node27&#45;&gt;Node28</title>
<path fill="none" stroke="midnightblue" d="M585.18,-168.32C576.61,-160.34 563.69,-148.31 553.31,-138.65"/>
<polygon fill="midnightblue" stroke="midnightblue" points="555.69,-136.09 545.99,-131.83 550.92,-141.21 555.69,-136.09"/>
</g>
<!-- Node28&#45;&gt;Node5 -->
<g id="edge53" class="edge">
<title>Node28&#45;&gt;Node5</title>
<path fill="none" stroke="midnightblue" d="M507.5,-112.44C473.8,-102.5 418.43,-86.16 384.07,-76.02"/>
<polygon fill="midnightblue" stroke="midnightblue" points="384.71,-72.56 374.13,-73.09 382.73,-79.27 384.71,-72.56"/>
</g>
<!-- Node28&#45;&gt;Node9 -->
<g id="edge51" class="edge">
<title>Node28&#45;&gt;Node9</title>
<path fill="none" stroke="midnightblue" d="M561.54,-112.44C588.12,-103.36 630.31,-88.94 660.02,-78.78"/>
<polygon fill="midnightblue" stroke="midnightblue" points="661.25,-82.06 669.58,-75.52 658.99,-75.44 661.25,-82.06"/>
</g>
<!-- Node29 -->
<g id="node29" class="node">
<title>Node29</title>
<g id="a_node29"><a xlink:href="Color_8hpp.html" target="_top" xlink:title=" ">
<polygon fill="none" stroke="black" points="508,-56.5 508,-75.5 565,-75.5 565,-56.5 508,-56.5"/>
<text text-anchor="middle" x="536.5" y="-63.5" font-family="Helvetica,sans-Serif" font-size="10.00">Color.hpp</text>
</a>
</g>
</g>
<!-- Node28&#45;&gt;Node29 -->
<g id="edge52" class="edge">
<title>Node28&#45;&gt;Node29</title>
<path fill="none" stroke="midnightblue" d="M536.5,-112.08C536.5,-105.01 536.5,-94.86 536.5,-85.99"/>
<polygon fill="midnightblue" stroke="midnightblue" points="540,-85.75 536.5,-75.75 533,-85.75 540,-85.75"/>
</g>
</g>
</svg>
