<?xml version="1.0" encoding="UTF-8" standalone="no"?>
<!DOCTYPE svg PUBLIC "-//W3C//DTD SVG 1.1//EN"
 "http://www.w3.org/Graphics/SVG/1.1/DTD/svg11.dtd">
<!-- Generated by graphviz version 2.44.0 ()
 -->
<!-- Title: src/Controllers/LevelSelectionController.hpp Pages: 1 -->
<svg width="590pt" height="173pt"
 viewBox="0.00 0.00 589.50 173.00" xmlns="http://www.w3.org/2000/svg" xmlns:xlink="http://www.w3.org/1999/xlink">
<g id="graph0" class="graph" transform="scale(1 1) rotate(0) translate(4 169)">
<title>src/Controllers/LevelSelectionController.hpp</title>
<!-- Node1 -->
<g id="node1" class="node">
<title>Node1</title>
<g id="a_node1"><a xlink:title=" ">
<polygon fill="#bfbfbf" stroke="black" points="161,-134.5 161,-164.5 308,-164.5 308,-134.5 161,-134.5"/>
<text text-anchor="start" x="169" y="-152.5" font-family="Helvetica,sans-Serif" font-size="10.00">src/Controllers/LevelSelection</text>
<text text-anchor="middle" x="234.5" y="-141.5" font-family="Helvetica,sans-Serif" font-size="10.00">Controller.hpp</text>
</a>
</g>
</g>
<!-- Node2 -->
<g id="node2" class="node">
<title>Node2</title>
<g id="a_node2"><a xlink:href="LevelSelectionController_8cpp.html" target="_top" xlink:title=" ">
<polygon fill="none" stroke="black" points="0,-67.5 0,-97.5 147,-97.5 147,-67.5 0,-67.5"/>
<text text-anchor="start" x="8" y="-85.5" font-family="Helvetica,sans-Serif" font-size="10.00">src/Controllers/LevelSelection</text>
<text text-anchor="middle" x="73.5" y="-74.5" font-family="Helvetica,sans-Serif" font-size="10.00">Controller.cpp</text>
</a>
</g>
</g>
<!-- Node1&#45;&gt;Node2 -->
<g id="edge1" class="edge">
<title>Node1&#45;&gt;Node2</title>
<path fill="none" stroke="midnightblue" d="M190.02,-130.54C164.26,-120.14 132.3,-107.24 108.37,-97.58"/>
<polygon fill="midnightblue" stroke="midnightblue" points="188.98,-133.9 199.57,-134.4 191.6,-127.41 188.98,-133.9"/>
</g>
<!-- Node3 -->
<g id="node3" class="node">
<title>Node3</title>
<g id="a_node3"><a xlink:href="LevelScene_8hpp.html" target="_top" xlink:title=" ">
<polygon fill="none" stroke="black" points="165,-73 165,-92 304,-92 304,-73 165,-73"/>
<text text-anchor="middle" x="234.5" y="-80" font-family="Helvetica,sans-Serif" font-size="10.00">src/Scenes/LevelScene.hpp</text>
</a>
</g>
</g>
<!-- Node1&#45;&gt;Node3 -->
<g id="edge2" class="edge">
<title>Node1&#45;&gt;Node3</title>
<path fill="none" stroke="midnightblue" d="M234.5,-124.25C234.5,-113.02 234.5,-100.38 234.5,-92.19"/>
<polygon fill="midnightblue" stroke="midnightblue" points="231,-124.4 234.5,-134.4 238,-124.4 231,-124.4"/>
</g>
<!-- Node6 -->
<g id="node6" class="node">
<title>Node6</title>
<g id="a_node6"><a xlink:href="LevelSelectionScene_8hpp.html" target="_top" xlink:title=" ">
<polygon fill="none" stroke="black" points="322.5,-67.5 322.5,-97.5 456.5,-97.5 456.5,-67.5 322.5,-67.5"/>
<text text-anchor="start" x="330.5" y="-85.5" font-family="Helvetica,sans-Serif" font-size="10.00">src/Scenes/LevelSelection</text>
<text text-anchor="middle" x="389.5" y="-74.5" font-family="Helvetica,sans-Serif" font-size="10.00">Scene.hpp</text>
</a>
</g>
</g>
<!-- Node1&#45;&gt;Node6 -->
<g id="edge5" class="edge">
<title>Node1&#45;&gt;Node6</title>
<path fill="none" stroke="midnightblue" d="M277.65,-130.41C302.39,-120.03 333,-107.2 355.93,-97.58"/>
<polygon fill="midnightblue" stroke="midnightblue" points="276,-127.3 268.13,-134.4 278.71,-133.76 276,-127.3"/>
</g>
<!-- Node4 -->
<g id="node4" class="node">
<title>Node4</title>
<g id="a_node4"><a xlink:href="LevelScene_8cpp.html" target="_top" xlink:title=" ">
<polygon fill="none" stroke="black" points="12,-6 12,-25 151,-25 151,-6 12,-6"/>
<text text-anchor="middle" x="81.5" y="-13" font-family="Helvetica,sans-Serif" font-size="10.00">src/Scenes/LevelScene.cpp</text>
</a>
</g>
</g>
<!-- Node3&#45;&gt;Node4 -->
<g id="edge3" class="edge">
<title>Node3&#45;&gt;Node4</title>
<path fill="none" stroke="midnightblue" d="M204.96,-68.95C174.66,-56.08 128.35,-36.4 101.9,-25.17"/>
<polygon fill="midnightblue" stroke="midnightblue" points="203.61,-72.18 214.18,-72.87 206.35,-65.74 203.61,-72.18"/>
</g>
<!-- Node5 -->
<g id="node5" class="node">
<title>Node5</title>
<g id="a_node5"><a xlink:href="LevelSelectionScene_8cpp.html" target="_top" xlink:title=" ">
<polygon fill="none" stroke="black" points="169.5,-0.5 169.5,-30.5 303.5,-30.5 303.5,-0.5 169.5,-0.5"/>
<text text-anchor="start" x="177.5" y="-18.5" font-family="Helvetica,sans-Serif" font-size="10.00">src/Scenes/LevelSelection</text>
<text text-anchor="middle" x="236.5" y="-7.5" font-family="Helvetica,sans-Serif" font-size="10.00">Scene.cpp</text>
</a>
</g>
</g>
<!-- Node3&#45;&gt;Node5 -->
<g id="edge4" class="edge">
<title>Node3&#45;&gt;Node5</title>
<path fill="none" stroke="midnightblue" d="M235.09,-62.41C235.4,-52.22 235.78,-39.9 236.07,-30.59"/>
<polygon fill="midnightblue" stroke="midnightblue" points="231.58,-62.63 234.77,-72.73 238.58,-62.85 231.58,-62.63"/>
</g>
<!-- Node6&#45;&gt;Node5 -->
<g id="edge6" class="edge">
<title>Node6&#45;&gt;Node5</title>
<path fill="none" stroke="midnightblue" d="M346.91,-63.41C322.48,-53.03 292.28,-40.2 269.63,-30.58"/>
<polygon fill="midnightblue" stroke="midnightblue" points="345.73,-66.71 356.3,-67.4 348.47,-60.26 345.73,-66.71"/>
</g>
<!-- Node7 -->
<g id="node7" class="node">
<title>Node7</title>
<g id="a_node7"><a xlink:href="MainScene_8cpp.html" target="_top" xlink:title=" ">
<polygon fill="none" stroke="black" points="321.5,-6 321.5,-25 457.5,-25 457.5,-6 321.5,-6"/>
<text text-anchor="middle" x="389.5" y="-13" font-family="Helvetica,sans-Serif" font-size="10.00">src/Scenes/MainScene.cpp</text>
</a>
</g>
</g>
<!-- Node6&#45;&gt;Node7 -->
<g id="edge7" class="edge">
<title>Node6&#45;&gt;Node7</title>
<path fill="none" stroke="midnightblue" d="M389.5,-57.25C389.5,-46.02 389.5,-33.38 389.5,-25.19"/>
<polygon fill="midnightblue" stroke="midnightblue" points="386,-57.4 389.5,-67.4 393,-57.4 386,-57.4"/>
</g>
<!-- Node8 -->
<g id="node8" class="node">
<title>Node8</title>
<g id="a_node8"><a xlink:href="CheatManager_8cpp.html" target="_top" xlink:title=" ">
<polygon fill="none" stroke="black" points="475.5,-0.5 475.5,-30.5 581.5,-30.5 581.5,-0.5 475.5,-0.5"/>
<text text-anchor="start" x="483.5" y="-18.5" font-family="Helvetica,sans-Serif" font-size="10.00">src/Scripts/Common</text>
<text text-anchor="middle" x="528.5" y="-7.5" font-family="Helvetica,sans-Serif" font-size="10.00">/CheatManager.cpp</text>
</a>
</g>
</g>
<!-- Node6&#45;&gt;Node8 -->
<g id="edge8" class="edge">
<title>Node6&#45;&gt;Node8</title>
<path fill="none" stroke="midnightblue" d="M428.78,-63.13C450.87,-52.8 478.01,-40.11 498.4,-30.58"/>
<polygon fill="midnightblue" stroke="midnightblue" points="427.24,-59.99 419.66,-67.4 430.2,-66.33 427.24,-59.99"/>
</g>
</g>
</svg>
