<?xml version="1.0" encoding="UTF-8" standalone="no"?>
<!DOCTYPE svg PUBLIC "-//W3C//DTD SVG 1.1//EN"
 "http://www.w3.org/Graphics/SVG/1.1/DTD/svg11.dtd">
<!-- Generated by graphviz version 2.44.0 ()
 -->
<!-- Title: src/Structs/LevelWithTiles.hpp Pages: 1 -->
<svg width="286pt" height="196pt"
 viewBox="0.00 0.00 285.86 196.00" xmlns="http://www.w3.org/2000/svg" xmlns:xlink="http://www.w3.org/1999/xlink">
<g id="graph0" class="graph" transform="scale(1 1) rotate(0) translate(4 192)">
<title>src/Structs/LevelWithTiles.hpp</title>
<!-- Node1 -->
<g id="node1" class="node">
<title>Node1</title>
<g id="a_node1"><a xlink:title=" ">
<polygon fill="#bfbfbf" stroke="black" points="127.86,-168.5 127.86,-187.5 277.86,-187.5 277.86,-168.5 127.86,-168.5"/>
<text text-anchor="middle" x="202.86" y="-175.5" font-family="Helvetica,sans-Serif" font-size="10.00">src/Structs/LevelWithTiles.hpp</text>
</a>
</g>
</g>
<!-- Node2 -->
<g id="node2" class="node">
<title>Node2</title>
<g id="a_node2"><a xlink:href="Level_8hpp.html" target="_top" xlink:title=" ">
<polygon fill="none" stroke="black" points="81.36,-112.5 81.36,-131.5 140.36,-131.5 140.36,-112.5 81.36,-112.5"/>
<text text-anchor="middle" x="110.86" y="-119.5" font-family="Helvetica,sans-Serif" font-size="10.00">Level.hpp</text>
</a>
</g>
</g>
<!-- Node1&#45;&gt;Node2 -->
<g id="edge1" class="edge">
<title>Node1&#45;&gt;Node2</title>
<path fill="none" stroke="midnightblue" d="M188.08,-168.32C173.6,-159.82 151.29,-146.73 134.37,-136.8"/>
<polygon fill="midnightblue" stroke="midnightblue" points="136,-133.7 125.61,-131.65 132.46,-139.74 136,-133.7"/>
</g>
<!-- Node7 -->
<g id="node7" class="node">
<title>Node7</title>
<g id="a_node7"><a xlink:href="Tile_8hpp.html" target="_top" xlink:title=" ">
<polygon fill="none" stroke="black" points="211.86,-56.5 211.86,-75.5 261.86,-75.5 261.86,-56.5 211.86,-56.5"/>
<text text-anchor="middle" x="236.86" y="-63.5" font-family="Helvetica,sans-Serif" font-size="10.00">Tile.hpp</text>
</a>
</g>
</g>
<!-- Node1&#45;&gt;Node7 -->
<g id="edge8" class="edge">
<title>Node1&#45;&gt;Node7</title>
<path fill="none" stroke="midnightblue" d="M205.34,-168.14C208.87,-155.6 215.62,-131.97 221.86,-112 224.63,-103.15 227.87,-93.37 230.62,-85.2"/>
<polygon fill="midnightblue" stroke="midnightblue" points="233.99,-86.19 233.89,-75.6 227.36,-83.94 233.99,-86.19"/>
</g>
<!-- Node8 -->
<g id="node8" class="node">
<title>Node8</title>
<g id="a_node8"><a xlink:title=" ">
<polygon fill="none" stroke="#bfbfbf" points="230.86,-112.5 230.86,-131.5 274.86,-131.5 274.86,-112.5 230.86,-112.5"/>
<text text-anchor="middle" x="252.86" y="-119.5" font-family="Helvetica,sans-Serif" font-size="10.00">vector</text>
</a>
</g>
</g>
<!-- Node1&#45;&gt;Node8 -->
<g id="edge10" class="edge">
<title>Node1&#45;&gt;Node8</title>
<path fill="none" stroke="midnightblue" d="M211.12,-168.08C218.33,-160.3 228.97,-148.8 237.71,-139.37"/>
<polygon fill="midnightblue" stroke="midnightblue" points="240.53,-141.47 244.76,-131.75 235.4,-136.71 240.53,-141.47"/>
</g>
<!-- Node3 -->
<g id="node3" class="node">
<title>Node3</title>
<g id="a_node3"><a xlink:title=" ">
<polygon fill="none" stroke="#bfbfbf" points="16.36,-0.5 16.36,-19.5 57.36,-19.5 57.36,-0.5 16.36,-0.5"/>
<text text-anchor="middle" x="36.86" y="-7.5" font-family="Helvetica,sans-Serif" font-size="10.00">string</text>
</a>
</g>
</g>
<!-- Node2&#45;&gt;Node3 -->
<g id="edge2" class="edge">
<title>Node2&#45;&gt;Node3</title>
<path fill="none" stroke="midnightblue" d="M81.12,-117.48C55.81,-112.74 20.92,-101.68 3.86,-76 -6.67,-60.14 6.58,-40.47 19.29,-26.94"/>
<polygon fill="midnightblue" stroke="midnightblue" points="21.89,-29.29 26.53,-19.77 16.97,-24.32 21.89,-29.29"/>
</g>
<!-- Node4 -->
<g id="node4" class="node">
<title>Node4</title>
<g id="a_node4"><a xlink:title=" ">
<polygon fill="none" stroke="#bfbfbf" points="13.36,-56.5 13.36,-75.5 48.36,-75.5 48.36,-56.5 13.36,-56.5"/>
<text text-anchor="middle" x="30.86" y="-63.5" font-family="Helvetica,sans-Serif" font-size="10.00">map</text>
</a>
</g>
</g>
<!-- Node2&#45;&gt;Node4 -->
<g id="edge3" class="edge">
<title>Node2&#45;&gt;Node4</title>
<path fill="none" stroke="midnightblue" d="M98.01,-112.32C85.65,-103.98 66.73,-91.21 52.13,-81.35"/>
<polygon fill="midnightblue" stroke="midnightblue" points="53.93,-78.35 43.68,-75.65 50.02,-84.15 53.93,-78.35"/>
</g>
<!-- Node5 -->
<g id="node5" class="node">
<title>Node5</title>
<g id="a_node5"><a xlink:href="TileType_8hpp.html" target="_top" xlink:title=" ">
<polygon fill="none" stroke="black" points="127.86,-0.5 127.86,-19.5 239.86,-19.5 239.86,-0.5 127.86,-0.5"/>
<text text-anchor="middle" x="183.86" y="-7.5" font-family="Helvetica,sans-Serif" font-size="10.00">../Enums/TileType.hpp</text>
</a>
</g>
</g>
<!-- Node2&#45;&gt;Node5 -->
<g id="edge4" class="edge">
<title>Node2&#45;&gt;Node5</title>
<path fill="none" stroke="midnightblue" d="M125,-112.34C136.98,-104.31 153.77,-91.32 163.86,-76 173.1,-61.98 178.25,-43.48 181,-29.81"/>
<polygon fill="midnightblue" stroke="midnightblue" points="184.5,-30.11 182.78,-19.66 177.6,-28.9 184.5,-30.11"/>
</g>
<!-- Node6 -->
<g id="node6" class="node">
<title>Node6</title>
<g id="a_node6"><a xlink:href="TilesAmount_8hpp.html" target="_top" xlink:title=" ">
<polygon fill="none" stroke="black" points="66.36,-56.5 66.36,-75.5 155.36,-75.5 155.36,-56.5 66.36,-56.5"/>
<text text-anchor="middle" x="110.86" y="-63.5" font-family="Helvetica,sans-Serif" font-size="10.00">TilesAmount.hpp</text>
</a>
</g>
</g>
<!-- Node2&#45;&gt;Node6 -->
<g id="edge5" class="edge">
<title>Node2&#45;&gt;Node6</title>
<path fill="none" stroke="midnightblue" d="M110.86,-112.08C110.86,-105.01 110.86,-94.86 110.86,-85.99"/>
<polygon fill="midnightblue" stroke="midnightblue" points="114.36,-85.75 110.86,-75.75 107.36,-85.75 114.36,-85.75"/>
</g>
<!-- Node6&#45;&gt;Node3 -->
<g id="edge6" class="edge">
<title>Node6&#45;&gt;Node3</title>
<path fill="none" stroke="midnightblue" d="M98.97,-56.32C87.71,-48.11 70.58,-35.6 57.15,-25.81"/>
<polygon fill="midnightblue" stroke="midnightblue" points="59.11,-22.9 48.97,-19.83 54.98,-28.56 59.11,-22.9"/>
</g>
<!-- Node6&#45;&gt;Node5 -->
<g id="edge7" class="edge">
<title>Node6&#45;&gt;Node5</title>
<path fill="none" stroke="midnightblue" d="M122.59,-56.32C133.7,-48.11 150.61,-35.6 163.85,-25.81"/>
<polygon fill="midnightblue" stroke="midnightblue" points="165.96,-28.59 171.92,-19.83 161.8,-22.97 165.96,-28.59"/>
</g>
<!-- Node7&#45;&gt;Node5 -->
<g id="edge9" class="edge">
<title>Node7&#45;&gt;Node5</title>
<path fill="none" stroke="midnightblue" d="M228.11,-56.08C220.39,-48.22 208.96,-36.57 199.65,-27.08"/>
<polygon fill="midnightblue" stroke="midnightblue" points="201.96,-24.44 192.45,-19.75 196.96,-29.34 201.96,-24.44"/>
</g>
</g>
</svg>
