<?xml version="1.0" encoding="UTF-8" standalone="no"?>
<!DOCTYPE svg PUBLIC "-//W3C//DTD SVG 1.1//EN"
 "http://www.w3.org/Graphics/SVG/1.1/DTD/svg11.dtd">
<!-- Generated by graphviz version 2.44.0 ()
 -->
<!-- Title: src/Structs/Level.hpp Pages: 1 -->
<svg width="1602pt" height="285pt"
 viewBox="0.00 0.00 1601.50 285.00" xmlns="http://www.w3.org/2000/svg" xmlns:xlink="http://www.w3.org/1999/xlink">
<g id="graph0" class="graph" transform="scale(1 1) rotate(0) translate(4 281)">
<title>src/Structs/Level.hpp</title>
<!-- Node1 -->
<g id="node1" class="node">
<title>Node1</title>
<g id="a_node1"><a xlink:title=" ">
<polygon fill="#bfbfbf" stroke="black" points="363.5,-257.5 363.5,-276.5 473.5,-276.5 473.5,-257.5 363.5,-257.5"/>
<text text-anchor="middle" x="418.5" y="-264.5" font-family="Helvetica,sans-Serif" font-size="10.00">src/Structs/Level.hpp</text>
</a>
</g>
</g>
<!-- Node2 -->
<g id="node2" class="node">
<title>Node2</title>
<g id="a_node2"><a xlink:href="LevelSelectionController_8hpp.html" target="_top" xlink:title=" ">
<polygon fill="none" stroke="black" points="346,-134.5 346,-164.5 493,-164.5 493,-134.5 346,-134.5"/>
<text text-anchor="start" x="354" y="-152.5" font-family="Helvetica,sans-Serif" font-size="10.00">src/Controllers/LevelSelection</text>
<text text-anchor="middle" x="419.5" y="-141.5" font-family="Helvetica,sans-Serif" font-size="10.00">Controller.hpp</text>
</a>
</g>
</g>
<!-- Node1&#45;&gt;Node2 -->
<g id="edge1" class="edge">
<title>Node1&#45;&gt;Node2</title>
<path fill="none" stroke="midnightblue" d="M418.66,-247.07C418.86,-223.9 419.2,-185.22 419.38,-164.55"/>
<polygon fill="midnightblue" stroke="midnightblue" points="415.16,-247.29 418.58,-257.32 422.16,-247.35 415.16,-247.29"/>
</g>
<!-- Node7 -->
<g id="node7" class="node">
<title>Node7</title>
<g id="a_node7"><a xlink:href="LevelManager_8hpp.html" target="_top" xlink:title=" ">
<polygon fill="none" stroke="black" points="161,-140 161,-159 328,-159 328,-140 161,-140"/>
<text text-anchor="middle" x="244.5" y="-147" font-family="Helvetica,sans-Serif" font-size="10.00">src/Persistence/LevelManager.hpp</text>
</a>
</g>
</g>
<!-- Node1&#45;&gt;Node7 -->
<g id="edge6" class="edge">
<title>Node1&#45;&gt;Node7</title>
<path fill="none" stroke="midnightblue" d="M396.98,-251.72C360.51,-227.51 287.6,-179.11 257.73,-159.28"/>
<polygon fill="midnightblue" stroke="midnightblue" points="395.15,-254.7 405.42,-257.32 399.03,-248.87 395.15,-254.7"/>
</g>
<!-- Node9 -->
<g id="node9" class="node">
<title>Node9</title>
<g id="a_node9"><a xlink:href="LevelWithTiles_8hpp.html" target="_top" xlink:title=" ">
<polygon fill="none" stroke="black" points="446.5,-201.5 446.5,-220.5 596.5,-220.5 596.5,-201.5 446.5,-201.5"/>
<text text-anchor="middle" x="521.5" y="-208.5" font-family="Helvetica,sans-Serif" font-size="10.00">src/Structs/LevelWithTiles.hpp</text>
</a>
</g>
</g>
<!-- Node1&#45;&gt;Node9 -->
<g id="edge9" class="edge">
<title>Node1&#45;&gt;Node9</title>
<path fill="none" stroke="midnightblue" d="M444.08,-252.59C463.12,-242.61 488.56,-229.27 504.99,-220.65"/>
<polygon fill="midnightblue" stroke="midnightblue" points="442.28,-249.58 435.05,-257.32 445.53,-255.78 442.28,-249.58"/>
</g>
<!-- Node3 -->
<g id="node3" class="node">
<title>Node3</title>
<g id="a_node3"><a xlink:href="LevelSelectionController_8cpp.html" target="_top" xlink:title=" ">
<polygon fill="none" stroke="black" points="185,-67.5 185,-97.5 332,-97.5 332,-67.5 185,-67.5"/>
<text text-anchor="start" x="193" y="-85.5" font-family="Helvetica,sans-Serif" font-size="10.00">src/Controllers/LevelSelection</text>
<text text-anchor="middle" x="258.5" y="-74.5" font-family="Helvetica,sans-Serif" font-size="10.00">Controller.cpp</text>
</a>
</g>
</g>
<!-- Node2&#45;&gt;Node3 -->
<g id="edge2" class="edge">
<title>Node2&#45;&gt;Node3</title>
<path fill="none" stroke="midnightblue" d="M375.02,-130.54C349.26,-120.14 317.3,-107.24 293.37,-97.58"/>
<polygon fill="midnightblue" stroke="midnightblue" points="373.98,-133.9 384.57,-134.4 376.6,-127.41 373.98,-133.9"/>
</g>
<!-- Node4 -->
<g id="node4" class="node">
<title>Node4</title>
<g id="a_node4"><a xlink:href="LevelScene_8hpp.html" target="_top" xlink:title=" ">
<polygon fill="none" stroke="black" points="350,-73 350,-92 489,-92 489,-73 350,-73"/>
<text text-anchor="middle" x="419.5" y="-80" font-family="Helvetica,sans-Serif" font-size="10.00">src/Scenes/LevelScene.hpp</text>
</a>
</g>
</g>
<!-- Node2&#45;&gt;Node4 -->
<g id="edge3" class="edge">
<title>Node2&#45;&gt;Node4</title>
<path fill="none" stroke="midnightblue" d="M419.5,-124.25C419.5,-113.02 419.5,-100.38 419.5,-92.19"/>
<polygon fill="midnightblue" stroke="midnightblue" points="416,-124.4 419.5,-134.4 423,-124.4 416,-124.4"/>
</g>
<!-- Node5 -->
<g id="node5" class="node">
<title>Node5</title>
<g id="a_node5"><a xlink:href="LevelScene_8cpp.html" target="_top" xlink:title=" ">
<polygon fill="none" stroke="black" points="296,-6 296,-25 435,-25 435,-6 296,-6"/>
<text text-anchor="middle" x="365.5" y="-13" font-family="Helvetica,sans-Serif" font-size="10.00">src/Scenes/LevelScene.cpp</text>
</a>
</g>
</g>
<!-- Node4&#45;&gt;Node5 -->
<g id="edge4" class="edge">
<title>Node4&#45;&gt;Node5</title>
<path fill="none" stroke="midnightblue" d="M405.6,-64.77C395.07,-52.1 381.04,-35.2 372.67,-25.13"/>
<polygon fill="midnightblue" stroke="midnightblue" points="403.13,-67.28 412.22,-72.73 408.52,-62.81 403.13,-67.28"/>
</g>
<!-- Node6 -->
<g id="node6" class="node">
<title>Node6</title>
<g id="a_node6"><a xlink:href="LevelSelectionScene_8cpp.html" target="_top" xlink:title=" ">
<polygon fill="none" stroke="black" points="143.5,-0.5 143.5,-30.5 277.5,-30.5 277.5,-0.5 143.5,-0.5"/>
<text text-anchor="start" x="151.5" y="-18.5" font-family="Helvetica,sans-Serif" font-size="10.00">src/Scenes/LevelSelection</text>
<text text-anchor="middle" x="210.5" y="-7.5" font-family="Helvetica,sans-Serif" font-size="10.00">Scene.cpp</text>
</a>
</g>
</g>
<!-- Node4&#45;&gt;Node6 -->
<g id="edge5" class="edge">
<title>Node4&#45;&gt;Node6</title>
<path fill="none" stroke="midnightblue" d="M381.8,-69.77C346.36,-58.75 293.28,-42.24 255.61,-30.53"/>
<polygon fill="midnightblue" stroke="midnightblue" points="381.16,-73.24 391.75,-72.87 383.24,-66.56 381.16,-73.24"/>
</g>
<!-- Node7&#45;&gt;Node3 -->
<g id="edge7" class="edge">
<title>Node7&#45;&gt;Node3</title>
<path fill="none" stroke="midnightblue" d="M248.54,-129.74C250.75,-119.49 253.44,-107 255.47,-97.59"/>
<polygon fill="midnightblue" stroke="midnightblue" points="245.07,-129.22 246.39,-139.73 251.92,-130.69 245.07,-129.22"/>
</g>
<!-- Node8 -->
<g id="node8" class="node">
<title>Node8</title>
<g id="a_node8"><a xlink:href="LevelManager_8cpp.html" target="_top" xlink:title=" ">
<polygon fill="none" stroke="black" points="0,-73 0,-92 167,-92 167,-73 0,-73"/>
<text text-anchor="middle" x="83.5" y="-80" font-family="Helvetica,sans-Serif" font-size="10.00">src/Persistence/LevelManager.cpp</text>
</a>
</g>
</g>
<!-- Node7&#45;&gt;Node8 -->
<g id="edge8" class="edge">
<title>Node7&#45;&gt;Node8</title>
<path fill="none" stroke="midnightblue" d="M213.8,-136.1C181.83,-123.2 132.61,-103.33 104.71,-92.06"/>
<polygon fill="midnightblue" stroke="midnightblue" points="212.54,-139.37 223.12,-139.87 215.16,-132.88 212.54,-139.37"/>
</g>
<!-- Node9&#45;&gt;Node2 -->
<g id="edge22" class="edge">
<title>Node9&#45;&gt;Node2</title>
<path fill="none" stroke="midnightblue" d="M497.97,-196.28C481.65,-186.75 459.97,-174.11 443.54,-164.52"/>
<polygon fill="midnightblue" stroke="midnightblue" points="496.48,-199.46 506.89,-201.48 500.01,-193.41 496.48,-199.46"/>
</g>
<!-- Node9&#45;&gt;Node4 -->
<g id="edge24" class="edge">
<title>Node9&#45;&gt;Node4</title>
<path fill="none" stroke="midnightblue" d="M520.42,-191.05C518.63,-174.56 513.91,-150.74 501.5,-134 486.66,-113.99 461.32,-100.17 442.72,-92.1"/>
<polygon fill="midnightblue" stroke="midnightblue" points="516.94,-191.44 521.25,-201.12 523.92,-190.87 516.94,-191.44"/>
</g>
<!-- Node9&#45;&gt;Node7 -->
<g id="edge23" class="edge">
<title>Node9&#45;&gt;Node7</title>
<path fill="none" stroke="midnightblue" d="M471.83,-199.33C418.11,-187.79 333.55,-169.63 284.11,-159.01"/>
<polygon fill="midnightblue" stroke="midnightblue" points="471.3,-202.8 481.81,-201.48 472.77,-195.95 471.3,-202.8"/>
</g>
<!-- Node10 -->
<g id="node10" class="node">
<title>Node10</title>
<g id="a_node10"><a xlink:href="HUDController_8hpp.html" target="_top" xlink:title=" ">
<polygon fill="none" stroke="black" points="749.5,-140 749.5,-159 913.5,-159 913.5,-140 749.5,-140"/>
<text text-anchor="middle" x="831.5" y="-147" font-family="Helvetica,sans-Serif" font-size="10.00">src/Controllers/HUDController.hpp</text>
</a>
</g>
</g>
<!-- Node9&#45;&gt;Node10 -->
<g id="edge10" class="edge">
<title>Node9&#45;&gt;Node10</title>
<path fill="none" stroke="midnightblue" d="M575.97,-199.55C636.03,-188.02 731.5,-169.69 787.17,-159.01"/>
<polygon fill="midnightblue" stroke="midnightblue" points="575.08,-196.15 565.92,-201.48 576.4,-203.03 575.08,-196.15"/>
</g>
<!-- Node12 -->
<g id="node12" class="node">
<title>Node12</title>
<g id="a_node12"><a xlink:href="LevelController_8hpp.html" target="_top" xlink:title=" ">
<polygon fill="none" stroke="black" points="748.5,-73 748.5,-92 914.5,-92 914.5,-73 748.5,-73"/>
<text text-anchor="middle" x="831.5" y="-80" font-family="Helvetica,sans-Serif" font-size="10.00">src/Controllers/LevelController.hpp</text>
</a>
</g>
</g>
<!-- Node9&#45;&gt;Node12 -->
<g id="edge21" class="edge">
<title>Node9&#45;&gt;Node12</title>
<path fill="none" stroke="midnightblue" d="M552.19,-197.48C615.01,-171.84 756.85,-113.96 810.45,-92.09"/>
<polygon fill="midnightblue" stroke="midnightblue" points="550.74,-194.29 542.81,-201.31 553.39,-200.77 550.74,-194.29"/>
</g>
<!-- Node11 -->
<g id="node11" class="node">
<title>Node11</title>
<g id="a_node11"><a xlink:href="HUDController_8cpp.html" target="_top" xlink:title=" ">
<polygon fill="none" stroke="black" points="1429.5,-6 1429.5,-25 1593.5,-25 1593.5,-6 1429.5,-6"/>
<text text-anchor="middle" x="1511.5" y="-13" font-family="Helvetica,sans-Serif" font-size="10.00">src/Controllers/HUDController.cpp</text>
</a>
</g>
</g>
<!-- Node10&#45;&gt;Node11 -->
<g id="edge11" class="edge">
<title>Node10&#45;&gt;Node11</title>
<path fill="none" stroke="midnightblue" d="M885.5,-138.02C1016.21,-112.64 1347.68,-48.3 1467.46,-25.05"/>
<polygon fill="midnightblue" stroke="midnightblue" points="884.48,-134.65 875.33,-139.99 885.82,-141.52 884.48,-134.65"/>
</g>
<!-- Node10&#45;&gt;Node12 -->
<g id="edge12" class="edge">
<title>Node10&#45;&gt;Node12</title>
<path fill="none" stroke="midnightblue" d="M831.5,-129.54C831.5,-117.17 831.5,-101.62 831.5,-92.13"/>
<polygon fill="midnightblue" stroke="midnightblue" points="828,-129.73 831.5,-139.73 835,-129.73 828,-129.73"/>
</g>
<!-- Node12&#45;&gt;Node5 -->
<g id="edge15" class="edge">
<title>Node12&#45;&gt;Node5</title>
<path fill="none" stroke="midnightblue" d="M747.19,-71.77C668.67,-62.41 548.44,-47.31 444.5,-31 433.2,-29.23 421.04,-27.1 409.72,-25.03"/>
<polygon fill="midnightblue" stroke="midnightblue" points="747.16,-75.29 757.51,-73 747.99,-68.34 747.16,-75.29"/>
</g>
<!-- Node12&#45;&gt;Node11 -->
<g id="edge13" class="edge">
<title>Node12&#45;&gt;Node11</title>
<path fill="none" stroke="midnightblue" d="M924.9,-75.59C1041.23,-67.75 1245.96,-52.36 1420.5,-31 1434,-29.35 1448.56,-27.19 1462,-25.05"/>
<polygon fill="midnightblue" stroke="midnightblue" points="924.35,-72.12 914.61,-76.28 924.82,-79.1 924.35,-72.12"/>
</g>
<!-- Node13 -->
<g id="node13" class="node">
<title>Node13</title>
<g id="a_node13"><a xlink:href="LevelController_8cpp.html" target="_top" xlink:title=" ">
<polygon fill="none" stroke="black" points="1245.5,-6 1245.5,-25 1411.5,-25 1411.5,-6 1245.5,-6"/>
<text text-anchor="middle" x="1328.5" y="-13" font-family="Helvetica,sans-Serif" font-size="10.00">src/Controllers/LevelController.cpp</text>
</a>
</g>
</g>
<!-- Node12&#45;&gt;Node13 -->
<g id="edge14" class="edge">
<title>Node12&#45;&gt;Node13</title>
<path fill="none" stroke="midnightblue" d="M915.51,-71.83C997.49,-62.2 1125.7,-46.63 1236.5,-31 1249.31,-29.19 1263.1,-27.1 1276,-25.07"/>
<polygon fill="midnightblue" stroke="midnightblue" points="915.02,-68.36 905.5,-73 915.84,-75.31 915.02,-68.36"/>
</g>
<!-- Node14 -->
<g id="node14" class="node">
<title>Node14</title>
<g id="a_node14"><a xlink:href="CheatManager_8cpp.html" target="_top" xlink:title=" ">
<polygon fill="none" stroke="black" points="453.5,-0.5 453.5,-30.5 559.5,-30.5 559.5,-0.5 453.5,-0.5"/>
<text text-anchor="start" x="461.5" y="-18.5" font-family="Helvetica,sans-Serif" font-size="10.00">src/Scripts/Common</text>
<text text-anchor="middle" x="506.5" y="-7.5" font-family="Helvetica,sans-Serif" font-size="10.00">/CheatManager.cpp</text>
</a>
</g>
</g>
<!-- Node12&#45;&gt;Node14 -->
<g id="edge16" class="edge">
<title>Node12&#45;&gt;Node14</title>
<path fill="none" stroke="midnightblue" d="M773.92,-71.13C720.54,-61.35 638.99,-46 568.5,-31 565.58,-30.38 562.59,-29.73 559.57,-29.06"/>
<polygon fill="midnightblue" stroke="midnightblue" points="773.41,-74.59 783.87,-72.95 774.66,-67.71 773.41,-74.59"/>
</g>
<!-- Node15 -->
<g id="node15" class="node">
<title>Node15</title>
<g id="a_node15"><a xlink:href="EnemyMovementBehaviour_8cpp.html" target="_top" xlink:title=" ">
<polygon fill="none" stroke="black" points="577.5,-0.5 577.5,-30.5 733.5,-30.5 733.5,-0.5 577.5,-0.5"/>
<text text-anchor="start" x="585.5" y="-18.5" font-family="Helvetica,sans-Serif" font-size="10.00">src/Scripts/Enemies</text>
<text text-anchor="middle" x="655.5" y="-7.5" font-family="Helvetica,sans-Serif" font-size="10.00">/EnemyMovementBehaviour.cpp</text>
</a>
</g>
</g>
<!-- Node12&#45;&gt;Node15 -->
<g id="edge17" class="edge">
<title>Node12&#45;&gt;Node15</title>
<path fill="none" stroke="midnightblue" d="M798.59,-69.35C768.76,-58.33 724.8,-42.09 693.48,-30.53"/>
<polygon fill="midnightblue" stroke="midnightblue" points="797.54,-72.69 808.13,-72.87 799.96,-66.12 797.54,-72.69"/>
</g>
<!-- Node16 -->
<g id="node16" class="node">
<title>Node16</title>
<g id="a_node16"><a xlink:href="EnemyTroopTruckBehaviour_8cpp.html" target="_top" xlink:title=" ">
<polygon fill="none" stroke="black" points="751.5,-0.5 751.5,-30.5 911.5,-30.5 911.5,-0.5 751.5,-0.5"/>
<text text-anchor="start" x="759.5" y="-18.5" font-family="Helvetica,sans-Serif" font-size="10.00">src/Scripts/Enemies</text>
<text text-anchor="middle" x="831.5" y="-7.5" font-family="Helvetica,sans-Serif" font-size="10.00">/EnemyTroopTruckBehaviour.cpp</text>
</a>
</g>
</g>
<!-- Node12&#45;&gt;Node16 -->
<g id="edge18" class="edge">
<title>Node12&#45;&gt;Node16</title>
<path fill="none" stroke="midnightblue" d="M831.5,-62.41C831.5,-52.22 831.5,-39.9 831.5,-30.59"/>
<polygon fill="midnightblue" stroke="midnightblue" points="828,-62.73 831.5,-72.73 835,-62.73 828,-62.73"/>
</g>
<!-- Node17 -->
<g id="node17" class="node">
<title>Node17</title>
<g id="a_node17"><a xlink:href="UserAttackBehaviour_8cpp.html" target="_top" xlink:title=" ">
<polygon fill="none" stroke="black" points="930,-0.5 930,-30.5 1061,-30.5 1061,-0.5 930,-0.5"/>
<text text-anchor="start" x="938" y="-18.5" font-family="Helvetica,sans-Serif" font-size="10.00">src/Scripts/Heroes</text>
<text text-anchor="middle" x="995.5" y="-7.5" font-family="Helvetica,sans-Serif" font-size="10.00">/UserAttackBehaviour.cpp</text>
</a>
</g>
</g>
<!-- Node12&#45;&gt;Node17 -->
<g id="edge19" class="edge">
<title>Node12&#45;&gt;Node17</title>
<path fill="none" stroke="midnightblue" d="M862.89,-69.06C890.67,-58.05 931.18,-41.99 960.11,-30.53"/>
<polygon fill="midnightblue" stroke="midnightblue" points="861.28,-65.93 853.28,-72.87 863.86,-72.44 861.28,-65.93"/>
</g>
<!-- Node18 -->
<g id="node18" class="node">
<title>Node18</title>
<g id="a_node18"><a xlink:href="UserMovementBehaviour_8cpp.html" target="_top" xlink:title=" ">
<polygon fill="none" stroke="black" points="1079.5,-0.5 1079.5,-30.5 1227.5,-30.5 1227.5,-0.5 1079.5,-0.5"/>
<text text-anchor="start" x="1087.5" y="-18.5" font-family="Helvetica,sans-Serif" font-size="10.00">src/Scripts/Heroes</text>
<text text-anchor="middle" x="1153.5" y="-7.5" font-family="Helvetica,sans-Serif" font-size="10.00">/UserMovementBehaviour.cpp</text>
</a>
</g>
</g>
<!-- Node12&#45;&gt;Node18 -->
<g id="edge20" class="edge">
<title>Node12&#45;&gt;Node18</title>
<path fill="none" stroke="midnightblue" d="M884.05,-70.89C938.49,-59.9 1023.83,-42.68 1083.85,-30.56"/>
<polygon fill="midnightblue" stroke="midnightblue" points="883.04,-67.53 873.93,-72.94 884.42,-74.39 883.04,-67.53"/>
</g>
</g>
</svg>
