<?xml version="1.0" encoding="UTF-8" standalone="no"?>
<!DOCTYPE svg PUBLIC "-//W3C//DTD SVG 1.1//EN"
 "http://www.w3.org/Graphics/SVG/1.1/DTD/svg11.dtd">
<!-- Generated by graphviz version 2.44.0 ()
 -->
<!-- Title: src/Structs/LevelWithTiles.hpp Pages: 1 -->
<svg width="1597pt" height="229pt"
 viewBox="0.00 0.00 1596.50 229.00" xmlns="http://www.w3.org/2000/svg" xmlns:xlink="http://www.w3.org/1999/xlink">
<g id="graph0" class="graph" transform="scale(1 1) rotate(0) translate(4 225)">
<title>src/Structs/LevelWithTiles.hpp</title>
<!-- Node1 -->
<g id="node1" class="node">
<title>Node1</title>
<g id="a_node1"><a xlink:title=" ">
<polygon fill="#bfbfbf" stroke="black" points="992,-201.5 992,-220.5 1142,-220.5 1142,-201.5 992,-201.5"/>
<text text-anchor="middle" x="1067" y="-208.5" font-family="Helvetica,sans-Serif" font-size="10.00">src/Structs/LevelWithTiles.hpp</text>
</a>
</g>
</g>
<!-- Node2 -->
<g id="node2" class="node">
<title>Node2</title>
<g id="a_node2"><a xlink:href="HUDController_8hpp.html" target="_top" xlink:title=" ">
<polygon fill="none" stroke="black" points="662,-140 662,-159 826,-159 826,-140 662,-140"/>
<text text-anchor="middle" x="744" y="-147" font-family="Helvetica,sans-Serif" font-size="10.00">src/Controllers/HUDController.hpp</text>
</a>
</g>
</g>
<!-- Node1&#45;&gt;Node2 -->
<g id="edge1" class="edge">
<title>Node1&#45;&gt;Node2</title>
<path fill="none" stroke="midnightblue" d="M1010.63,-199.62C948.08,-188.09 848.32,-169.72 790.19,-159.01"/>
<polygon fill="midnightblue" stroke="midnightblue" points="1010.25,-203.11 1020.72,-201.48 1011.52,-196.22 1010.25,-203.11"/>
</g>
<!-- Node4 -->
<g id="node4" class="node">
<title>Node4</title>
<g id="a_node4"><a xlink:href="LevelController_8hpp.html" target="_top" xlink:title=" ">
<polygon fill="none" stroke="black" points="661,-73 661,-92 827,-92 827,-73 661,-73"/>
<text text-anchor="middle" x="744" y="-80" font-family="Helvetica,sans-Serif" font-size="10.00">src/Controllers/LevelController.hpp</text>
</a>
</g>
</g>
<!-- Node1&#45;&gt;Node4 -->
<g id="edge12" class="edge">
<title>Node1&#45;&gt;Node4</title>
<path fill="none" stroke="midnightblue" d="M1035.71,-197.75C970.63,-172.26 822.06,-114.07 765.98,-92.11"/>
<polygon fill="midnightblue" stroke="midnightblue" points="1034.47,-201.02 1045.05,-201.4 1037.02,-194.5 1034.47,-201.02"/>
</g>
<!-- Node12 -->
<g id="node12" class="node">
<title>Node12</title>
<g id="a_node12"><a xlink:href="LevelSelectionController_8hpp.html" target="_top" xlink:title=" ">
<polygon fill="none" stroke="black" points="1095.5,-134.5 1095.5,-164.5 1242.5,-164.5 1242.5,-134.5 1095.5,-134.5"/>
<text text-anchor="start" x="1103.5" y="-152.5" font-family="Helvetica,sans-Serif" font-size="10.00">src/Controllers/LevelSelection</text>
<text text-anchor="middle" x="1169" y="-141.5" font-family="Helvetica,sans-Serif" font-size="10.00">Controller.hpp</text>
</a>
</g>
</g>
<!-- Node1&#45;&gt;Node12 -->
<g id="edge13" class="edge">
<title>Node1&#45;&gt;Node12</title>
<path fill="none" stroke="midnightblue" d="M1090.53,-196.28C1106.85,-186.75 1128.53,-174.11 1144.96,-164.52"/>
<polygon fill="midnightblue" stroke="midnightblue" points="1088.49,-193.41 1081.61,-201.48 1092.02,-199.46 1088.49,-193.41"/>
</g>
<!-- Node14 -->
<g id="node14" class="node">
<title>Node14</title>
<g id="a_node14"><a xlink:href="LevelScene_8hpp.html" target="_top" xlink:title=" ">
<polygon fill="none" stroke="black" points="1099.5,-73 1099.5,-92 1238.5,-92 1238.5,-73 1099.5,-73"/>
<text text-anchor="middle" x="1169" y="-80" font-family="Helvetica,sans-Serif" font-size="10.00">src/Scenes/LevelScene.hpp</text>
</a>
</g>
</g>
<!-- Node1&#45;&gt;Node14 -->
<g id="edge21" class="edge">
<title>Node1&#45;&gt;Node14</title>
<path fill="none" stroke="midnightblue" d="M1068.08,-191.05C1069.87,-174.56 1074.59,-150.74 1087,-134 1101.84,-113.99 1127.18,-100.17 1145.78,-92.1"/>
<polygon fill="midnightblue" stroke="midnightblue" points="1064.58,-190.87 1067.25,-201.12 1071.56,-191.44 1064.58,-190.87"/>
</g>
<!-- Node16 -->
<g id="node16" class="node">
<title>Node16</title>
<g id="a_node16"><a xlink:href="LevelManager_8hpp.html" target="_top" xlink:title=" ">
<polygon fill="none" stroke="black" points="1260.5,-140 1260.5,-159 1427.5,-159 1427.5,-140 1260.5,-140"/>
<text text-anchor="middle" x="1344" y="-147" font-family="Helvetica,sans-Serif" font-size="10.00">src/Persistence/LevelManager.hpp</text>
</a>
</g>
</g>
<!-- Node1&#45;&gt;Node16 -->
<g id="edge18" class="edge">
<title>Node1&#45;&gt;Node16</title>
<path fill="none" stroke="midnightblue" d="M1116.67,-199.33C1170.39,-187.79 1254.95,-169.63 1304.39,-159.01"/>
<polygon fill="midnightblue" stroke="midnightblue" points="1115.73,-195.95 1106.69,-201.48 1117.2,-202.8 1115.73,-195.95"/>
</g>
<!-- Node3 -->
<g id="node3" class="node">
<title>Node3</title>
<g id="a_node3"><a xlink:href="HUDController_8cpp.html" target="_top" xlink:title=" ">
<polygon fill="none" stroke="black" points="0,-6 0,-25 164,-25 164,-6 0,-6"/>
<text text-anchor="middle" x="82" y="-13" font-family="Helvetica,sans-Serif" font-size="10.00">src/Controllers/HUDController.cpp</text>
</a>
</g>
</g>
<!-- Node2&#45;&gt;Node3 -->
<g id="edge2" class="edge">
<title>Node2&#45;&gt;Node3</title>
<path fill="none" stroke="midnightblue" d="M691.43,-138.02C564.18,-112.64 241.49,-48.3 124.87,-25.05"/>
<polygon fill="midnightblue" stroke="midnightblue" points="690.84,-141.47 701.33,-139.99 692.21,-134.6 690.84,-141.47"/>
</g>
<!-- Node2&#45;&gt;Node4 -->
<g id="edge3" class="edge">
<title>Node2&#45;&gt;Node4</title>
<path fill="none" stroke="midnightblue" d="M744,-129.54C744,-117.17 744,-101.62 744,-92.13"/>
<polygon fill="midnightblue" stroke="midnightblue" points="740.5,-129.73 744,-139.73 747.5,-129.73 740.5,-129.73"/>
</g>
<!-- Node4&#45;&gt;Node3 -->
<g id="edge4" class="edge">
<title>Node4&#45;&gt;Node3</title>
<path fill="none" stroke="midnightblue" d="M650.57,-75.25C537.31,-67.21 340.78,-51.76 173,-31 159.5,-29.33 144.94,-27.17 131.5,-25.03"/>
<polygon fill="midnightblue" stroke="midnightblue" points="650.37,-78.74 660.59,-75.96 650.86,-71.76 650.37,-78.74"/>
</g>
<!-- Node5 -->
<g id="node5" class="node">
<title>Node5</title>
<g id="a_node5"><a xlink:href="LevelController_8cpp.html" target="_top" xlink:title=" ">
<polygon fill="none" stroke="black" points="182,-6 182,-25 348,-25 348,-6 182,-6"/>
<text text-anchor="middle" x="265" y="-13" font-family="Helvetica,sans-Serif" font-size="10.00">src/Controllers/LevelController.cpp</text>
</a>
</g>
</g>
<!-- Node4&#45;&gt;Node5 -->
<g id="edge5" class="edge">
<title>Node4&#45;&gt;Node5</title>
<path fill="none" stroke="midnightblue" d="M664.09,-71.7C585.78,-61.95 463.06,-46.28 357,-31 344.2,-29.16 330.41,-27.05 317.51,-25.02"/>
<polygon fill="midnightblue" stroke="midnightblue" points="664.01,-75.22 674.36,-72.98 664.87,-68.27 664.01,-75.22"/>
</g>
<!-- Node6 -->
<g id="node6" class="node">
<title>Node6</title>
<g id="a_node6"><a xlink:href="LevelScene_8cpp.html" target="_top" xlink:title=" ">
<polygon fill="none" stroke="black" points="1158.5,-6 1158.5,-25 1297.5,-25 1297.5,-6 1158.5,-6"/>
<text text-anchor="middle" x="1228" y="-13" font-family="Helvetica,sans-Serif" font-size="10.00">src/Scenes/LevelScene.cpp</text>
</a>
</g>
</g>
<!-- Node4&#45;&gt;Node6 -->
<g id="edge6" class="edge">
<title>Node4&#45;&gt;Node6</title>
<path fill="none" stroke="midnightblue" d="M833.4,-71.85C915.6,-62.62 1040.76,-47.67 1149,-31 1160.44,-29.24 1172.76,-27.1 1184.2,-25"/>
<polygon fill="midnightblue" stroke="midnightblue" points="832.89,-68.38 823.34,-72.97 833.67,-75.34 832.89,-68.38"/>
</g>
<!-- Node7 -->
<g id="node7" class="node">
<title>Node7</title>
<g id="a_node7"><a xlink:href="CheatManager_8cpp.html" target="_top" xlink:title=" ">
<polygon fill="none" stroke="black" points="366,-0.5 366,-30.5 472,-30.5 472,-0.5 366,-0.5"/>
<text text-anchor="start" x="374" y="-18.5" font-family="Helvetica,sans-Serif" font-size="10.00">src/Scripts/Common</text>
<text text-anchor="middle" x="419" y="-7.5" font-family="Helvetica,sans-Serif" font-size="10.00">/CheatManager.cpp</text>
</a>
</g>
</g>
<!-- Node4&#45;&gt;Node7 -->
<g id="edge7" class="edge">
<title>Node4&#45;&gt;Node7</title>
<path fill="none" stroke="midnightblue" d="M686.42,-71.13C633.04,-61.35 551.49,-46 481,-31 478.08,-30.38 475.09,-29.73 472.07,-29.06"/>
<polygon fill="midnightblue" stroke="midnightblue" points="685.91,-74.59 696.37,-72.95 687.16,-67.71 685.91,-74.59"/>
</g>
<!-- Node8 -->
<g id="node8" class="node">
<title>Node8</title>
<g id="a_node8"><a xlink:href="EnemyMovementBehaviour_8cpp.html" target="_top" xlink:title=" ">
<polygon fill="none" stroke="black" points="490,-0.5 490,-30.5 646,-30.5 646,-0.5 490,-0.5"/>
<text text-anchor="start" x="498" y="-18.5" font-family="Helvetica,sans-Serif" font-size="10.00">src/Scripts/Enemies</text>
<text text-anchor="middle" x="568" y="-7.5" font-family="Helvetica,sans-Serif" font-size="10.00">/EnemyMovementBehaviour.cpp</text>
</a>
</g>
</g>
<!-- Node4&#45;&gt;Node8 -->
<g id="edge8" class="edge">
<title>Node4&#45;&gt;Node8</title>
<path fill="none" stroke="midnightblue" d="M711.09,-69.35C681.26,-58.33 637.3,-42.09 605.98,-30.53"/>
<polygon fill="midnightblue" stroke="midnightblue" points="710.04,-72.69 720.63,-72.87 712.46,-66.12 710.04,-72.69"/>
</g>
<!-- Node9 -->
<g id="node9" class="node">
<title>Node9</title>
<g id="a_node9"><a xlink:href="EnemyTroopTruckBehaviour_8cpp.html" target="_top" xlink:title=" ">
<polygon fill="none" stroke="black" points="664,-0.5 664,-30.5 824,-30.5 824,-0.5 664,-0.5"/>
<text text-anchor="start" x="672" y="-18.5" font-family="Helvetica,sans-Serif" font-size="10.00">src/Scripts/Enemies</text>
<text text-anchor="middle" x="744" y="-7.5" font-family="Helvetica,sans-Serif" font-size="10.00">/EnemyTroopTruckBehaviour.cpp</text>
</a>
</g>
</g>
<!-- Node4&#45;&gt;Node9 -->
<g id="edge9" class="edge">
<title>Node4&#45;&gt;Node9</title>
<path fill="none" stroke="midnightblue" d="M744,-62.41C744,-52.22 744,-39.9 744,-30.59"/>
<polygon fill="midnightblue" stroke="midnightblue" points="740.5,-62.73 744,-72.73 747.5,-62.73 740.5,-62.73"/>
</g>
<!-- Node10 -->
<g id="node10" class="node">
<title>Node10</title>
<g id="a_node10"><a xlink:href="UserAttackBehaviour_8cpp.html" target="_top" xlink:title=" ">
<polygon fill="none" stroke="black" points="842.5,-0.5 842.5,-30.5 973.5,-30.5 973.5,-0.5 842.5,-0.5"/>
<text text-anchor="start" x="850.5" y="-18.5" font-family="Helvetica,sans-Serif" font-size="10.00">src/Scripts/Heroes</text>
<text text-anchor="middle" x="908" y="-7.5" font-family="Helvetica,sans-Serif" font-size="10.00">/UserAttackBehaviour.cpp</text>
</a>
</g>
</g>
<!-- Node4&#45;&gt;Node10 -->
<g id="edge10" class="edge">
<title>Node4&#45;&gt;Node10</title>
<path fill="none" stroke="midnightblue" d="M775.39,-69.06C803.17,-58.05 843.68,-41.99 872.61,-30.53"/>
<polygon fill="midnightblue" stroke="midnightblue" points="773.78,-65.93 765.78,-72.87 776.36,-72.44 773.78,-65.93"/>
</g>
<!-- Node11 -->
<g id="node11" class="node">
<title>Node11</title>
<g id="a_node11"><a xlink:href="UserMovementBehaviour_8cpp.html" target="_top" xlink:title=" ">
<polygon fill="none" stroke="black" points="992,-0.5 992,-30.5 1140,-30.5 1140,-0.5 992,-0.5"/>
<text text-anchor="start" x="1000" y="-18.5" font-family="Helvetica,sans-Serif" font-size="10.00">src/Scripts/Heroes</text>
<text text-anchor="middle" x="1066" y="-7.5" font-family="Helvetica,sans-Serif" font-size="10.00">/UserMovementBehaviour.cpp</text>
</a>
</g>
</g>
<!-- Node4&#45;&gt;Node11 -->
<g id="edge11" class="edge">
<title>Node4&#45;&gt;Node11</title>
<path fill="none" stroke="midnightblue" d="M796.55,-70.89C850.99,-59.9 936.33,-42.68 996.35,-30.56"/>
<polygon fill="midnightblue" stroke="midnightblue" points="795.54,-67.53 786.43,-72.94 796.92,-74.39 795.54,-67.53"/>
</g>
<!-- Node13 -->
<g id="node13" class="node">
<title>Node13</title>
<g id="a_node13"><a xlink:href="LevelSelectionController_8cpp.html" target="_top" xlink:title=" ">
<polygon fill="none" stroke="black" points="1256.5,-67.5 1256.5,-97.5 1403.5,-97.5 1403.5,-67.5 1256.5,-67.5"/>
<text text-anchor="start" x="1264.5" y="-85.5" font-family="Helvetica,sans-Serif" font-size="10.00">src/Controllers/LevelSelection</text>
<text text-anchor="middle" x="1330" y="-74.5" font-family="Helvetica,sans-Serif" font-size="10.00">Controller.cpp</text>
</a>
</g>
</g>
<!-- Node12&#45;&gt;Node13 -->
<g id="edge14" class="edge">
<title>Node12&#45;&gt;Node13</title>
<path fill="none" stroke="midnightblue" d="M1213.48,-130.54C1239.24,-120.14 1271.2,-107.24 1295.13,-97.58"/>
<polygon fill="midnightblue" stroke="midnightblue" points="1211.9,-127.41 1203.93,-134.4 1214.52,-133.9 1211.9,-127.41"/>
</g>
<!-- Node12&#45;&gt;Node14 -->
<g id="edge15" class="edge">
<title>Node12&#45;&gt;Node14</title>
<path fill="none" stroke="midnightblue" d="M1169,-124.25C1169,-113.02 1169,-100.38 1169,-92.19"/>
<polygon fill="midnightblue" stroke="midnightblue" points="1165.5,-124.4 1169,-134.4 1172.5,-124.4 1165.5,-124.4"/>
</g>
<!-- Node14&#45;&gt;Node6 -->
<g id="edge16" class="edge">
<title>Node14&#45;&gt;Node6</title>
<path fill="none" stroke="midnightblue" d="M1183.85,-65.13C1195.39,-52.42 1210.94,-35.3 1220.17,-25.13"/>
<polygon fill="midnightblue" stroke="midnightblue" points="1181.09,-62.98 1176.96,-72.73 1186.27,-67.68 1181.09,-62.98"/>
</g>
<!-- Node15 -->
<g id="node15" class="node">
<title>Node15</title>
<g id="a_node15"><a xlink:href="LevelSelectionScene_8cpp.html" target="_top" xlink:title=" ">
<polygon fill="none" stroke="black" points="1316,-0.5 1316,-30.5 1450,-30.5 1450,-0.5 1316,-0.5"/>
<text text-anchor="start" x="1324" y="-18.5" font-family="Helvetica,sans-Serif" font-size="10.00">src/Scenes/LevelSelection</text>
<text text-anchor="middle" x="1383" y="-7.5" font-family="Helvetica,sans-Serif" font-size="10.00">Scene.cpp</text>
</a>
</g>
</g>
<!-- Node14&#45;&gt;Node15 -->
<g id="edge17" class="edge">
<title>Node14&#45;&gt;Node15</title>
<path fill="none" stroke="midnightblue" d="M1207.14,-69.92C1243.42,-58.9 1298.08,-42.29 1336.82,-30.53"/>
<polygon fill="midnightblue" stroke="midnightblue" points="1205.97,-66.61 1197.42,-72.87 1208,-73.31 1205.97,-66.61"/>
</g>
<!-- Node16&#45;&gt;Node13 -->
<g id="edge19" class="edge">
<title>Node16&#45;&gt;Node13</title>
<path fill="none" stroke="midnightblue" d="M1339.96,-129.74C1337.75,-119.49 1335.06,-107 1333.03,-97.59"/>
<polygon fill="midnightblue" stroke="midnightblue" points="1336.58,-130.69 1342.11,-139.73 1343.43,-129.22 1336.58,-130.69"/>
</g>
<!-- Node17 -->
<g id="node17" class="node">
<title>Node17</title>
<g id="a_node17"><a xlink:href="LevelManager_8cpp.html" target="_top" xlink:title=" ">
<polygon fill="none" stroke="black" points="1421.5,-73 1421.5,-92 1588.5,-92 1588.5,-73 1421.5,-73"/>
<text text-anchor="middle" x="1505" y="-80" font-family="Helvetica,sans-Serif" font-size="10.00">src/Persistence/LevelManager.cpp</text>
</a>
</g>
</g>
<!-- Node16&#45;&gt;Node17 -->
<g id="edge20" class="edge">
<title>Node16&#45;&gt;Node17</title>
<path fill="none" stroke="midnightblue" d="M1374.7,-136.1C1406.67,-123.2 1455.89,-103.33 1483.79,-92.06"/>
<polygon fill="midnightblue" stroke="midnightblue" points="1373.34,-132.88 1365.38,-139.87 1375.96,-139.37 1373.34,-132.88"/>
</g>
</g>
</svg>
