<?xml version="1.0" encoding="UTF-8" standalone="no"?>
<!DOCTYPE svg PUBLIC "-//W3C//DTD SVG 1.1//EN"
 "http://www.w3.org/Graphics/SVG/1.1/DTD/svg11.dtd">
<!-- Generated by graphviz version 2.44.0 ()
 -->
<!-- Title: src/Structs/LevelData.cpp Pages: 1 -->
<!--zoomable 386 -->
<svg id="main" version="1.1" xmlns="http://www.w3.org/2000/svg" xmlns:xlink="http://www.w3.org/1999/xlink" xml:space="preserve" onload="init(evt)">
<style type="text/css"><![CDATA[
.edge:hover path { stroke: red; }
.edge:hover polygon { stroke: red; fill: red; }
]]></style>
<script type="text/javascript"><![CDATA[
var edges = document.getElementsByTagName('g');
if (edges && edges.length) {
  for (var i=0;i<edges.length;i++) {
    if (edges[i].id.substr(0,4)=='edge') {
      edges[i].setAttribute('class','edge');
    }
  }
}
]]></script>
        <defs>
                <circle id="rim" cx="0" cy="0" r="7"/>
                <circle id="rim2" cx="0" cy="0" r="3.5"/>
                <g id="zoomPlus">
                        <use xlink:href="#rim" fill="#404040">
                                <set attributeName="fill" to="#808080" begin="zoomplus.mouseover" end="zoomplus.mouseout"/>
                        </use>
                        <path d="M-4,0h8M0,-4v8" fill="none" stroke="white" stroke-width="1.5" pointer-events="none"/>
                </g>
                <g id="zoomMin">
                        <use xlink:href="#rim" fill="#404040">
                                <set attributeName="fill" to="#808080" begin="zoomminus.mouseover" end="zoomminus.mouseout"/>
                        </use>
                        <path d="M-4,0h8" fill="none" stroke="white" stroke-width="1.5" pointer-events="none"/>
                </g>
                <g id="dirArrow">
                        <path fill="none" stroke="white" stroke-width="1.5" d="M0,-3.0v7 M-2.5,-0.5L0,-3.0L2.5,-0.5"/>
                </g>
               <g id="resetDef">
                       <use xlink:href="#rim2" fill="#404040">
                               <set attributeName="fill" to="#808080" begin="reset.mouseover" end="reset.mouseout"/>
                       </use>
               </g>
        </defs>

<script type="text/javascript">
var viewWidth = 819;
var viewHeight = 386;
var sectionId = 'dynsection-0';
</script>
<script xlink:href="svgpan.js"/>
<svg id="graph" class="graph">
<g id="viewport">
<title>src/Structs/LevelData.cpp</title>
<!-- Node1 -->
<g id="node1" class="node">
<title>Node1</title>
<g id="a_node1"><a xlink:title=" ">
<polygon fill="#bfbfbf" stroke="black" points="316,-358.5 316,-377.5 446,-377.5 446,-358.5 316,-358.5"/>
<text text-anchor="middle" x="381" y="-365.5" font-family="Helvetica,sans-Serif" font-size="10.00">src/Structs/LevelData.cpp</text>
</a>
</g>
</g>
<!-- Node2 -->
<g id="node2" class="node">
<title>Node2</title>
<g id="a_node2"><a xlink:href="LevelData_8hpp.html" target="_top" xlink:title=" ">
<polygon fill="none" stroke="black" points="487.5,-297 487.5,-316 566.5,-316 566.5,-297 487.5,-297"/>
<text text-anchor="middle" x="527" y="-304" font-family="Helvetica,sans-Serif" font-size="10.00">LevelData.hpp</text>
</a>
</g>
</g>
<!-- Node1&#45;&gt;Node2 -->
<g id="edge1" class="edge">
<title>Node1&#45;&gt;Node2</title>
<path fill="none" stroke="midnightblue" d="M401.92,-358.48C426.75,-348.36 468.34,-331.4 496.69,-319.85"/>
<polygon fill="midnightblue" stroke="midnightblue" points="498.18,-323.02 506.12,-316.01 495.54,-316.54 498.18,-323.02"/>
</g>
<!-- Node22 -->
<g id="node22" class="node">
<title>Node22</title>
<g id="a_node22"><a xlink:href="Constants_8hpp.html" target="_top" xlink:title=" ">
<polygon fill="none" stroke="black" points="695,-297 695,-316 781,-316 781,-297 695,-297"/>
<text text-anchor="middle" x="738" y="-304" font-family="Helvetica,sans-Serif" font-size="10.00">../Constants.hpp</text>
</a>
</g>
</g>
<!-- Node1&#45;&gt;Node22 -->
<g id="edge35" class="edge">
<title>Node1&#45;&gt;Node22</title>
<path fill="none" stroke="midnightblue" d="M432.15,-358.48C499.27,-347.29 616.51,-327.75 684.69,-316.39"/>
<polygon fill="midnightblue" stroke="midnightblue" points="685.5,-319.8 694.79,-314.7 684.35,-312.89 685.5,-319.8"/>
</g>
<!-- Node23 -->
<g id="node23" class="node">
<title>Node23</title>
<g id="a_node23"><a xlink:href="EnemyValue_8hpp.html" target="_top" xlink:title=" ">
<polygon fill="none" stroke="black" points="26.5,-291.5 26.5,-321.5 121.5,-321.5 121.5,-291.5 26.5,-291.5"/>
<text text-anchor="start" x="34.5" y="-309.5" font-family="Helvetica,sans-Serif" font-size="10.00">../Scripts/Enemies</text>
<text text-anchor="middle" x="74" y="-298.5" font-family="Helvetica,sans-Serif" font-size="10.00">/EnemyValue.hpp</text>
</a>
</g>
</g>
<!-- Node1&#45;&gt;Node23 -->
<g id="edge37" class="edge">
<title>Node1&#45;&gt;Node23</title>
<path fill="none" stroke="midnightblue" d="M337.01,-358.48C283.02,-348.01 191.31,-330.24 131.7,-318.68"/>
<polygon fill="midnightblue" stroke="midnightblue" points="132.17,-315.21 121.69,-316.74 130.84,-322.08 132.17,-315.21"/>
</g>
<!-- Node24 -->
<g id="node24" class="node">
<title>Node24</title>
<g id="a_node24"><a xlink:href="EnemyTroopTruckBehaviour_8hpp.html" target="_top" xlink:title=" ">
<polygon fill="none" stroke="black" points="210,-291.5 210,-321.5 370,-321.5 370,-291.5 210,-291.5"/>
<text text-anchor="start" x="218" y="-309.5" font-family="Helvetica,sans-Serif" font-size="10.00">../Scripts/Enemies</text>
<text text-anchor="middle" x="290" y="-298.5" font-family="Helvetica,sans-Serif" font-size="10.00">/EnemyTroopTruckBehaviour.hpp</text>
</a>
</g>
</g>
<!-- Node1&#45;&gt;Node24 -->
<g id="edge39" class="edge">
<title>Node1&#45;&gt;Node24</title>
<path fill="none" stroke="midnightblue" d="M367.96,-358.48C355.52,-350.34 336.33,-337.79 320.1,-327.18"/>
<polygon fill="midnightblue" stroke="midnightblue" points="321.73,-324.07 311.45,-321.52 317.9,-329.92 321.73,-324.07"/>
</g>
<!-- Node3 -->
<g id="node3" class="node">
<title>Node3</title>
<g id="a_node3"><a xlink:href="WaveData_8hpp.html" target="_top" xlink:title=" ">
<polygon fill="none" stroke="black" points="685,-230 685,-249 765,-249 765,-230 685,-230"/>
<text text-anchor="middle" x="725" y="-237" font-family="Helvetica,sans-Serif" font-size="10.00">WaveData.hpp</text>
</a>
</g>
</g>
<!-- Node2&#45;&gt;Node3 -->
<g id="edge2" class="edge">
<title>Node2&#45;&gt;Node3</title>
<path fill="none" stroke="midnightblue" d="M553.29,-296.87C588.23,-285.4 650.08,-265.09 689.24,-252.24"/>
<polygon fill="midnightblue" stroke="midnightblue" points="690.5,-255.51 698.91,-249.06 688.32,-248.86 690.5,-255.51"/>
</g>
<!-- Node6 -->
<g id="node6" class="node">
<title>Node6</title>
<g id="a_node6"><a xlink:title=" ">
<polygon fill="none" stroke="#bfbfbf" points="668.5,-168.5 668.5,-187.5 711.5,-187.5 711.5,-168.5 668.5,-168.5"/>
<text text-anchor="middle" x="690" y="-175.5" font-family="Helvetica,sans-Serif" font-size="10.00">queue</text>
</a>
</g>
</g>
<!-- Node2&#45;&gt;Node6 -->
<g id="edge34" class="edge">
<title>Node2&#45;&gt;Node6</title>
<path fill="none" stroke="midnightblue" d="M556.79,-296.88C580.66,-288.89 614.01,-275.16 638,-255 657.26,-238.82 672.49,-213.82 681.36,-196.95"/>
<polygon fill="midnightblue" stroke="midnightblue" points="684.68,-198.16 686.05,-187.65 678.42,-195.01 684.68,-198.16"/>
</g>
<!-- Node13 -->
<g id="node13" class="node">
<title>Node13</title>
<g id="a_node13"><a xlink:href="MapNode_8hpp.html" target="_top" xlink:title=" ">
<polygon fill="none" stroke="black" points="551.5,-230 551.5,-249 628.5,-249 628.5,-230 551.5,-230"/>
<text text-anchor="middle" x="590" y="-237" font-family="Helvetica,sans-Serif" font-size="10.00">MapNode.hpp</text>
</a>
</g>
</g>
<!-- Node2&#45;&gt;Node13 -->
<g id="edge14" class="edge">
<title>Node2&#45;&gt;Node13</title>
<path fill="none" stroke="midnightblue" d="M535.5,-296.73C545.51,-286.4 562.34,-269.04 574.66,-256.33"/>
<polygon fill="midnightblue" stroke="midnightblue" points="577.19,-258.74 581.64,-249.13 572.17,-253.87 577.19,-258.74"/>
</g>
<!-- Node15 -->
<g id="node15" class="node">
<title>Node15</title>
<g id="a_node15"><a xlink:href="LevelMode_8hpp.html" target="_top" xlink:title=" ">
<polygon fill="none" stroke="black" points="410.5,-230 410.5,-249 533.5,-249 533.5,-230 410.5,-230"/>
<text text-anchor="middle" x="472" y="-237" font-family="Helvetica,sans-Serif" font-size="10.00">../Enums/LevelMode.hpp</text>
</a>
</g>
</g>
<!-- Node2&#45;&gt;Node15 -->
<g id="edge19" class="edge">
<title>Node2&#45;&gt;Node15</title>
<path fill="none" stroke="midnightblue" d="M519.58,-296.73C511.01,-286.6 496.7,-269.69 486.01,-257.06"/>
<polygon fill="midnightblue" stroke="midnightblue" points="488.43,-254.5 479.3,-249.13 483.09,-259.02 488.43,-254.5"/>
</g>
<!-- Node16 -->
<g id="node16" class="node">
<title>Node16</title>
<g id="a_node16"><a xlink:href="HealthBehaviour_8hpp.html" target="_top" xlink:title=" ">
<polygon fill="none" stroke="black" points="226,-224.5 226,-254.5 354,-254.5 354,-224.5 226,-224.5"/>
<text text-anchor="start" x="234" y="-242.5" font-family="Helvetica,sans-Serif" font-size="10.00">../Scripts/Common/Health</text>
<text text-anchor="middle" x="290" y="-231.5" font-family="Helvetica,sans-Serif" font-size="10.00">Behaviour.hpp</text>
</a>
</g>
</g>
<!-- Node2&#45;&gt;Node16 -->
<g id="edge20" class="edge">
<title>Node2&#45;&gt;Node16</title>
<path fill="none" stroke="midnightblue" d="M495.53,-296.87C458.81,-286.8 397.25,-269.91 351.05,-257.24"/>
<polygon fill="midnightblue" stroke="midnightblue" points="351.72,-253.8 341.15,-254.53 349.87,-260.55 351.72,-253.8"/>
</g>
<!-- Node4 -->
<g id="node4" class="node">
<title>Node4</title>
<g id="a_node4"><a xlink:title=" ">
<polygon fill="none" stroke="#bfbfbf" points="729.5,-168.5 729.5,-187.5 764.5,-187.5 764.5,-168.5 729.5,-168.5"/>
<text text-anchor="middle" x="747" y="-175.5" font-family="Helvetica,sans-Serif" font-size="10.00">map</text>
</a>
</g>
</g>
<!-- Node3&#45;&gt;Node4 -->
<g id="edge3" class="edge">
<title>Node3&#45;&gt;Node4</title>
<path fill="none" stroke="midnightblue" d="M728.15,-229.98C731.32,-221.4 736.3,-207.93 740.35,-196.98"/>
<polygon fill="midnightblue" stroke="midnightblue" points="743.67,-198.1 743.85,-187.51 737.1,-195.67 743.67,-198.1"/>
</g>
<!-- Node5 -->
<g id="node5" class="node">
<title>Node5</title>
<g id="a_node5"><a xlink:title=" ">
<polygon fill="none" stroke="#bfbfbf" points="477.5,-0.5 477.5,-19.5 528.5,-19.5 528.5,-0.5 477.5,-0.5"/>
<text text-anchor="middle" x="503" y="-7.5" font-family="Helvetica,sans-Serif" font-size="10.00">memory</text>
</a>
</g>
</g>
<!-- Node3&#45;&gt;Node5 -->
<g id="edge4" class="edge">
<title>Node3&#45;&gt;Node5</title>
<path fill="none" stroke="midnightblue" d="M736.78,-229.88C748.23,-220.8 765.16,-205.43 774,-188 800.8,-135.13 831.56,-101.01 793,-56 760.68,-18.28 609.35,-11.91 539.06,-11.02"/>
<polygon fill="midnightblue" stroke="midnightblue" points="538.93,-7.52 528.9,-10.92 538.86,-14.52 538.93,-7.52"/>
</g>
<!-- Node3&#45;&gt;Node6 -->
<g id="edge5" class="edge">
<title>Node3&#45;&gt;Node6</title>
<path fill="none" stroke="midnightblue" d="M719.99,-229.98C714.84,-221.23 706.69,-207.37 700.18,-196.31"/>
<polygon fill="midnightblue" stroke="midnightblue" points="703.09,-194.35 695.01,-187.51 697.06,-197.9 703.09,-194.35"/>
</g>
<!-- Node7 -->
<g id="node7" class="node">
<title>Node7</title>
<g id="a_node7"><a xlink:href="GameObject_8hpp.html" target="_top" xlink:title=" ">
<polygon fill="none" stroke="black" points="522.5,-168.5 522.5,-187.5 611.5,-187.5 611.5,-168.5 522.5,-168.5"/>
<text text-anchor="middle" x="567" y="-175.5" font-family="Helvetica,sans-Serif" font-size="10.00">GameObject.hpp</text>
</a>
</g>
</g>
<!-- Node3&#45;&gt;Node7 -->
<g id="edge6" class="edge">
<title>Node3&#45;&gt;Node7</title>
<path fill="none" stroke="midnightblue" d="M702.36,-229.98C675.26,-219.77 629.69,-202.61 599,-191.05"/>
<polygon fill="midnightblue" stroke="midnightblue" points="600.19,-187.76 589.6,-187.51 597.72,-194.31 600.19,-187.76"/>
</g>
<!-- Node7&#45;&gt;Node5 -->
<g id="edge13" class="edge">
<title>Node7&#45;&gt;Node5</title>
<path fill="none" stroke="midnightblue" d="M610.07,-168.49C630.4,-162.07 652.82,-150.99 665,-132 675.95,-114.92 668.86,-72.36 654,-56 624.66,-23.71 573.26,-14.19 538.69,-11.6"/>
<polygon fill="midnightblue" stroke="midnightblue" points="538.73,-8.09 528.54,-11 538.31,-15.08 538.73,-8.09"/>
</g>
<!-- Node8 -->
<g id="node8" class="node">
<title>Node8</title>
<g id="a_node8"><a xlink:href="Component_8hpp.html" target="_top" xlink:title=" ">
<polygon fill="none" stroke="black" points="220,-56.5 220,-75.5 304,-75.5 304,-56.5 220,-56.5"/>
<text text-anchor="middle" x="262" y="-63.5" font-family="Helvetica,sans-Serif" font-size="10.00">Component.hpp</text>
</a>
</g>
</g>
<!-- Node7&#45;&gt;Node8 -->
<g id="edge7" class="edge">
<title>Node7&#45;&gt;Node8</title>
<path fill="none" stroke="midnightblue" d="M559.58,-168.23C547.02,-154.01 520.07,-126.07 491,-112 434.43,-84.62 362.34,-73.9 314.3,-69.7"/>
<polygon fill="midnightblue" stroke="midnightblue" points="314.38,-66.2 304.13,-68.88 313.82,-73.17 314.38,-66.2"/>
</g>
<!-- Node9 -->
<g id="node9" class="node">
<title>Node9</title>
<g id="a_node9"><a xlink:href="Transform_8hpp.html" target="_top" xlink:title=" ">
<polygon fill="none" stroke="black" points="576.5,-112.5 576.5,-131.5 655.5,-131.5 655.5,-112.5 576.5,-112.5"/>
<text text-anchor="middle" x="616" y="-119.5" font-family="Helvetica,sans-Serif" font-size="10.00">Transform.hpp</text>
</a>
</g>
</g>
<!-- Node7&#45;&gt;Node9 -->
<g id="edge9" class="edge">
<title>Node7&#45;&gt;Node9</title>
<path fill="none" stroke="midnightblue" d="M575.09,-168.08C582.16,-160.3 592.59,-148.8 601.15,-139.37"/>
<polygon fill="midnightblue" stroke="midnightblue" points="603.93,-141.51 608.06,-131.75 598.75,-136.8 603.93,-141.51"/>
</g>
<!-- Node11 -->
<g id="node11" class="node">
<title>Node11</title>
<g id="a_node11"><a xlink:title=" ">
<polygon fill="none" stroke="#bfbfbf" points="448.5,-56.5 448.5,-75.5 489.5,-75.5 489.5,-56.5 448.5,-56.5"/>
<text text-anchor="middle" x="469" y="-63.5" font-family="Helvetica,sans-Serif" font-size="10.00">string</text>
</a>
</g>
</g>
<!-- Node7&#45;&gt;Node11 -->
<g id="edge11" class="edge">
<title>Node7&#45;&gt;Node11</title>
<path fill="none" stroke="midnightblue" d="M562.44,-168.43C555.28,-155.42 540.51,-130.27 524,-112 513.82,-100.73 500.71,-89.9 489.85,-81.68"/>
<polygon fill="midnightblue" stroke="midnightblue" points="491.84,-78.8 481.71,-75.7 487.7,-84.44 491.84,-78.8"/>
</g>
<!-- Node12 -->
<g id="node12" class="node">
<title>Node12</title>
<g id="a_node12"><a xlink:title=" ">
<polygon fill="none" stroke="#bfbfbf" points="438,-112.5 438,-131.5 482,-131.5 482,-112.5 438,-112.5"/>
<text text-anchor="middle" x="460" y="-119.5" font-family="Helvetica,sans-Serif" font-size="10.00">vector</text>
</a>
</g>
</g>
<!-- Node7&#45;&gt;Node12 -->
<g id="edge12" class="edge">
<title>Node7&#45;&gt;Node12</title>
<path fill="none" stroke="midnightblue" d="M549.81,-168.32C532.65,-159.66 506.05,-146.24 486.25,-136.25"/>
<polygon fill="midnightblue" stroke="midnightblue" points="487.65,-133.04 477.15,-131.65 484.5,-139.28 487.65,-133.04"/>
</g>
<!-- Node8&#45;&gt;Node5 -->
<g id="edge8" class="edge">
<title>Node8&#45;&gt;Node5</title>
<path fill="none" stroke="midnightblue" d="M300.19,-56.44C346.12,-46.15 422.61,-29.01 467.37,-18.98"/>
<polygon fill="midnightblue" stroke="midnightblue" points="468.23,-22.38 477.22,-16.78 466.7,-15.55 468.23,-22.38"/>
</g>
<!-- Node10 -->
<g id="node10" class="node">
<title>Node10</title>
<g id="a_node10"><a xlink:href="Point_8hpp.html" target="_top" xlink:title=" ">
<polygon fill="none" stroke="black" points="587.5,-56.5 587.5,-75.5 644.5,-75.5 644.5,-56.5 587.5,-56.5"/>
<text text-anchor="middle" x="616" y="-63.5" font-family="Helvetica,sans-Serif" font-size="10.00">Point.hpp</text>
</a>
</g>
</g>
<!-- Node9&#45;&gt;Node10 -->
<g id="edge10" class="edge">
<title>Node9&#45;&gt;Node10</title>
<path fill="none" stroke="midnightblue" d="M616,-112.08C616,-105.01 616,-94.86 616,-85.99"/>
<polygon fill="midnightblue" stroke="midnightblue" points="619.5,-85.75 616,-75.75 612.5,-85.75 619.5,-85.75"/>
</g>
<!-- Node13&#45;&gt;Node5 -->
<g id="edge16" class="edge">
<title>Node13&#45;&gt;Node5</title>
<path fill="none" stroke="midnightblue" d="M597.9,-229.95C610.58,-216.38 636.44,-189.26 660,-168 712.74,-120.42 819.93,-110.18 774,-56 744.22,-20.86 605.08,-13.13 538.58,-11.45"/>
<polygon fill="midnightblue" stroke="midnightblue" points="538.63,-7.95 528.56,-11.23 538.48,-14.95 538.63,-7.95"/>
</g>
<!-- Node13&#45;&gt;Node7 -->
<g id="edge17" class="edge">
<title>Node13&#45;&gt;Node7</title>
<path fill="none" stroke="midnightblue" d="M586.7,-229.98C583.39,-221.4 578.18,-207.93 573.95,-196.98"/>
<polygon fill="midnightblue" stroke="midnightblue" points="577.16,-195.57 570.29,-187.51 570.63,-198.1 577.16,-195.57"/>
</g>
<!-- Node13&#45;&gt;Node12 -->
<g id="edge15" class="edge">
<title>Node13&#45;&gt;Node12</title>
<path fill="none" stroke="midnightblue" d="M574.21,-229.84C558.14,-220.63 532.97,-205.05 514,-188 497.71,-173.36 482.05,-153.69 471.83,-139.83"/>
<polygon fill="midnightblue" stroke="midnightblue" points="474.64,-137.74 465.95,-131.68 468.96,-141.84 474.64,-137.74"/>
</g>
<!-- Node14 -->
<g id="node14" class="node">
<title>Node14</title>
<g id="a_node14"><a xlink:href="TileType_8hpp.html" target="_top" xlink:title=" ">
<polygon fill="none" stroke="black" points="354,-168.5 354,-187.5 466,-187.5 466,-168.5 354,-168.5"/>
<text text-anchor="middle" x="410" y="-175.5" font-family="Helvetica,sans-Serif" font-size="10.00">../Enums/TileType.hpp</text>
</a>
</g>
</g>
<!-- Node13&#45;&gt;Node14 -->
<g id="edge18" class="edge">
<title>Node13&#45;&gt;Node14</title>
<path fill="none" stroke="midnightblue" d="M564.21,-229.98C533.07,-219.68 480.52,-202.31 445.55,-190.75"/>
<polygon fill="midnightblue" stroke="midnightblue" points="446.34,-187.32 435.74,-187.51 444.14,-193.97 446.34,-187.32"/>
</g>
<!-- Node16&#45;&gt;Node5 -->
<g id="edge25" class="edge">
<title>Node16&#45;&gt;Node5</title>
<path fill="none" stroke="midnightblue" d="M250.64,-224.42C201.97,-204.48 128.18,-164.52 151,-112 165.54,-78.55 178.18,-71.93 211,-56 255.57,-34.37 399.13,-19.76 466.92,-13.89"/>
<polygon fill="midnightblue" stroke="midnightblue" points="467.45,-17.36 477.12,-13.03 466.86,-10.38 467.45,-17.36"/>
</g>
<!-- Node17 -->
<g id="node17" class="node">
<title>Node17</title>
<g id="a_node17"><a xlink:href="BehaviourScript_8hpp.html" target="_top" xlink:title=" ">
<polygon fill="none" stroke="black" points="0,-168.5 0,-187.5 104,-187.5 104,-168.5 0,-168.5"/>
<text text-anchor="middle" x="52" y="-175.5" font-family="Helvetica,sans-Serif" font-size="10.00">BehaviourScript.hpp</text>
</a>
</g>
</g>
<!-- Node16&#45;&gt;Node17 -->
<g id="edge21" class="edge">
<title>Node16&#45;&gt;Node17</title>
<path fill="none" stroke="midnightblue" d="M233.9,-224.47C191.76,-213.94 134.86,-199.72 95.99,-190"/>
<polygon fill="midnightblue" stroke="midnightblue" points="96.58,-186.54 86.03,-187.51 94.88,-193.33 96.58,-186.54"/>
</g>
<!-- Node19 -->
<g id="node19" class="node">
<title>Node19</title>
<g id="a_node19"><a xlink:href="Animator_8hpp.html" target="_top" xlink:title=" ">
<polygon fill="none" stroke="black" points="262,-168.5 262,-187.5 336,-187.5 336,-168.5 262,-168.5"/>
<text text-anchor="middle" x="299" y="-175.5" font-family="Helvetica,sans-Serif" font-size="10.00">Animator.hpp</text>
</a>
</g>
</g>
<!-- Node16&#45;&gt;Node19 -->
<g id="edge26" class="edge">
<title>Node16&#45;&gt;Node19</title>
<path fill="none" stroke="midnightblue" d="M292.13,-224.4C293.35,-216.38 294.88,-206.23 296.19,-197.57"/>
<polygon fill="midnightblue" stroke="midnightblue" points="299.66,-198.07 297.69,-187.66 292.73,-197.02 299.66,-198.07"/>
</g>
<!-- Node17&#45;&gt;Node8 -->
<g id="edge22" class="edge">
<title>Node17&#45;&gt;Node8</title>
<path fill="none" stroke="midnightblue" d="M104.23,-176.68C144.62,-173.76 199.62,-163.59 236,-132 249.6,-120.19 256.17,-100.26 259.29,-85.58"/>
<polygon fill="midnightblue" stroke="midnightblue" points="262.76,-86.06 261.06,-75.6 255.87,-84.83 262.76,-86.06"/>
</g>
<!-- Node18 -->
<g id="node18" class="node">
<title>Node18</title>
<g id="a_node18"><a xlink:href="Collider_8hpp.html" target="_top" xlink:title=" ">
<polygon fill="none" stroke="black" points="160.5,-112.5 160.5,-131.5 227.5,-131.5 227.5,-112.5 160.5,-112.5"/>
<text text-anchor="middle" x="194" y="-119.5" font-family="Helvetica,sans-Serif" font-size="10.00">Collider.hpp</text>
</a>
</g>
</g>
<!-- Node17&#45;&gt;Node18 -->
<g id="edge23" class="edge">
<title>Node17&#45;&gt;Node18</title>
<path fill="none" stroke="midnightblue" d="M74.5,-168.44C98.08,-159.48 135.32,-145.31 161.96,-135.18"/>
<polygon fill="midnightblue" stroke="midnightblue" points="163.5,-138.34 171.6,-131.52 161.01,-131.8 163.5,-138.34"/>
</g>
<!-- Node18&#45;&gt;Node8 -->
<g id="edge24" class="edge">
<title>Node18&#45;&gt;Node8</title>
<path fill="none" stroke="midnightblue" d="M204.93,-112.32C215.17,-104.18 230.72,-91.84 243,-82.09"/>
<polygon fill="midnightblue" stroke="midnightblue" points="245.22,-84.79 250.88,-75.83 240.87,-79.31 245.22,-84.79"/>
</g>
<!-- Node19&#45;&gt;Node5 -->
<g id="edge33" class="edge">
<title>Node19&#45;&gt;Node5</title>
<path fill="none" stroke="midnightblue" d="M304.66,-168.3C313.5,-155.12 331.6,-129.76 351,-112 391.24,-75.16 446.11,-42.19 477.73,-24.54"/>
<polygon fill="midnightblue" stroke="midnightblue" points="479.68,-27.46 486.75,-19.57 476.31,-21.33 479.68,-27.46"/>
</g>
<!-- Node19&#45;&gt;Node8 -->
<g id="edge27" class="edge">
<title>Node19&#45;&gt;Node8</title>
<path fill="none" stroke="midnightblue" d="M296.1,-168.37C290.1,-150.54 276.23,-109.3 268.15,-85.27"/>
<polygon fill="midnightblue" stroke="midnightblue" points="271.4,-83.95 264.89,-75.59 264.76,-86.19 271.4,-83.95"/>
</g>
<!-- Node19&#45;&gt;Node12 -->
<g id="edge32" class="edge">
<title>Node19&#45;&gt;Node12</title>
<path fill="none" stroke="midnightblue" d="M324.51,-168.44C352.55,-159.04 397.64,-143.91 428.03,-133.72"/>
<polygon fill="midnightblue" stroke="midnightblue" points="429.35,-136.97 437.72,-130.47 427.13,-130.33 429.35,-136.97"/>
</g>
<!-- Node20 -->
<g id="node20" class="node">
<title>Node20</title>
<g id="a_node20"><a xlink:href="Sprite_8hpp.html" target="_top" xlink:title=" ">
<polygon fill="none" stroke="black" points="360,-112.5 360,-131.5 420,-131.5 420,-112.5 360,-112.5"/>
<text text-anchor="middle" x="390" y="-119.5" font-family="Helvetica,sans-Serif" font-size="10.00">Sprite.hpp</text>
</a>
</g>
</g>
<!-- Node19&#45;&gt;Node20 -->
<g id="edge28" class="edge">
<title>Node19&#45;&gt;Node20</title>
<path fill="none" stroke="midnightblue" d="M313.62,-168.32C327.95,-159.82 350.01,-146.73 366.75,-136.8"/>
<polygon fill="midnightblue" stroke="midnightblue" points="368.6,-139.77 375.42,-131.65 365.03,-133.75 368.6,-139.77"/>
</g>
<!-- Node20&#45;&gt;Node8 -->
<g id="edge29" class="edge">
<title>Node20&#45;&gt;Node8</title>
<path fill="none" stroke="midnightblue" d="M369.72,-112.44C348.65,-103.56 315.48,-89.56 291.51,-79.45"/>
<polygon fill="midnightblue" stroke="midnightblue" points="292.76,-76.18 282.19,-75.52 290.04,-82.63 292.76,-76.18"/>
</g>
<!-- Node20&#45;&gt;Node11 -->
<g id="edge31" class="edge">
<title>Node20&#45;&gt;Node11</title>
<path fill="none" stroke="midnightblue" d="M402.69,-112.32C414.9,-103.98 433.58,-91.21 448,-81.35"/>
<polygon fill="midnightblue" stroke="midnightblue" points="450.06,-84.19 456.34,-75.65 446.11,-78.41 450.06,-84.19"/>
</g>
<!-- Node21 -->
<g id="node21" class="node">
<title>Node21</title>
<g id="a_node21"><a xlink:href="Color_8hpp.html" target="_top" xlink:title=" ">
<polygon fill="none" stroke="black" points="707.5,-56.5 707.5,-75.5 764.5,-75.5 764.5,-56.5 707.5,-56.5"/>
<text text-anchor="middle" x="736" y="-63.5" font-family="Helvetica,sans-Serif" font-size="10.00">Color.hpp</text>
</a>
</g>
</g>
<!-- Node20&#45;&gt;Node21 -->
<g id="edge30" class="edge">
<title>Node20&#45;&gt;Node21</title>
<path fill="none" stroke="midnightblue" d="M420.18,-113.78C423.16,-113.15 426.13,-112.54 429,-112 524.68,-93.98 638.3,-78.97 696.82,-71.71"/>
<polygon fill="midnightblue" stroke="midnightblue" points="697.59,-75.14 707.09,-70.44 696.74,-68.19 697.59,-75.14"/>
</g>
<!-- Node22&#45;&gt;Node21 -->
<g id="edge36" class="edge">
<title>Node22&#45;&gt;Node21</title>
<path fill="none" stroke="midnightblue" d="M746.85,-296.79C755.68,-287.42 768.68,-271.61 774,-255 793.5,-194.07 762.33,-118.71 745.56,-84.89"/>
<polygon fill="midnightblue" stroke="midnightblue" points="748.57,-83.09 740.89,-75.79 742.34,-86.29 748.57,-83.09"/>
</g>
<!-- Node23&#45;&gt;Node17 -->
<g id="edge38" class="edge">
<title>Node23&#45;&gt;Node17</title>
<path fill="none" stroke="midnightblue" d="M55.58,-291.29C45.34,-282.18 33.57,-269.38 28,-255 20.3,-235.12 30.56,-211.65 39.95,-196.11"/>
<polygon fill="midnightblue" stroke="midnightblue" points="42.99,-197.85 45.51,-187.56 37.13,-194.03 42.99,-197.85"/>
</g>
<!-- Node24&#45;&gt;Node7 -->
<g id="edge43" class="edge">
<title>Node24&#45;&gt;Node7</title>
<path fill="none" stroke="midnightblue" d="M311.03,-291.5C325.75,-281.56 345.8,-267.76 363,-255 380.78,-241.81 382.25,-234.01 402,-224 436.69,-206.43 479.06,-195.06 512.18,-188.14"/>
<polygon fill="midnightblue" stroke="midnightblue" points="513.03,-191.54 522.15,-186.14 511.65,-184.68 513.03,-191.54"/>
</g>
<!-- Node24&#45;&gt;Node16 -->
<g id="edge40" class="edge">
<title>Node24&#45;&gt;Node16</title>
<path fill="none" stroke="midnightblue" d="M290,-291.4C290,-283.64 290,-273.81 290,-264.86"/>
<polygon fill="midnightblue" stroke="midnightblue" points="293.5,-264.58 290,-254.58 286.5,-264.58 293.5,-264.58"/>
</g>
<!-- Node24&#45;&gt;Node17 -->
<g id="edge42" class="edge">
<title>Node24&#45;&gt;Node17</title>
<path fill="none" stroke="midnightblue" d="M209.95,-297.67C152.14,-290.27 80.88,-276.96 61,-255 47.03,-239.57 46.79,-214.56 48.7,-197.47"/>
<polygon fill="midnightblue" stroke="midnightblue" points="52.17,-197.97 50.15,-187.57 45.24,-196.96 52.17,-197.97"/>
</g>
<!-- Node25 -->
<g id="node25" class="node">
<title>Node25</title>
<g id="a_node25"><a xlink:href="EnemyName_8hpp.html" target="_top" xlink:title=" ">
<polygon fill="none" stroke="black" points="70,-230 70,-249 208,-249 208,-230 70,-230"/>
<text text-anchor="middle" x="139" y="-237" font-family="Helvetica,sans-Serif" font-size="10.00">../../Enums/EnemyName.hpp</text>
</a>
</g>
</g>
<!-- Node24&#45;&gt;Node25 -->
<g id="edge41" class="edge">
<title>Node24&#45;&gt;Node25</title>
<path fill="none" stroke="midnightblue" d="M257.24,-291.4C230.74,-279.99 193.78,-264.08 168.27,-253.1"/>
<polygon fill="midnightblue" stroke="midnightblue" points="169.33,-249.75 158.76,-249.01 166.56,-256.18 169.33,-249.75"/>
</g>
</g>
</svg>
        <g id="navigator" transform="translate(0 0)" fill="#404254">
                <rect fill="#f2f5e9" fill-opacity="0.5" stroke="#606060" stroke-width=".5" x="0" y="0" width="60" height="60"/>
                <use id="zoomplus" xlink:href="#zoomPlus" x="17" y="9" onmousedown="handleZoom(evt,'in')"/>
                <use id="zoomminus" xlink:href="#zoomMin" x="42" y="9" onmousedown="handleZoom(evt,'out')"/>
                <use id="reset" xlink:href="#resetDef" x="30" y="36" onmousedown="handleReset()"/>
                <g id="arrowUp" xlink:href="#dirArrow" transform="translate(30 24)" onmousedown="handlePan(0,-1)">
                  <use xlink:href="#rim" fill="#404040">
                        <set attributeName="fill" to="#808080" begin="arrowUp.mouseover" end="arrowUp.mouseout"/>
                  </use>
                  <path fill="none" stroke="white" stroke-width="1.5" d="M0,-3.0v7 M-2.5,-0.5L0,-3.0L2.5,-0.5"/>
                </g>
                <g id="arrowRight" xlink:href="#dirArrow" transform="rotate(90) translate(36 -43)" onmousedown="handlePan(1,0)">
                  <use xlink:href="#rim" fill="#404040">
                        <set attributeName="fill" to="#808080" begin="arrowRight.mouseover" end="arrowRight.mouseout"/>
                  </use>
                  <path fill="none" stroke="white" stroke-width="1.5" d="M0,-3.0v7 M-2.5,-0.5L0,-3.0L2.5,-0.5"/>
                </g>
                <g id="arrowDown" xlink:href="#dirArrow" transform="rotate(180) translate(-30 -48)" onmousedown="handlePan(0,1)">
                  <use xlink:href="#rim" fill="#404040">
                        <set attributeName="fill" to="#808080" begin="arrowDown.mouseover" end="arrowDown.mouseout"/>
                  </use>
                  <path fill="none" stroke="white" stroke-width="1.5" d="M0,-3.0v7 M-2.5,-0.5L0,-3.0L2.5,-0.5"/>
                </g>
                <g id="arrowLeft" xlink:href="#dirArrow" transform="rotate(270) translate(-36 17)" onmousedown="handlePan(-1,0)">
                  <use xlink:href="#rim" fill="#404040">
                        <set attributeName="fill" to="#808080" begin="arrowLeft.mouseover" end="arrowLeft.mouseout"/>
                  </use>
                  <path fill="none" stroke="white" stroke-width="1.5" d="M0,-3.0v7 M-2.5,-0.5L0,-3.0L2.5,-0.5"/>
                </g>
        </g>
        <svg viewBox="0 0 15 15" width="100%" height="30px" preserveAspectRatio="xMaxYMin meet">
         <g id="arrow_out" transform="scale(0.3 0.3)">
          <a xlink:href="LevelData_8cpp__incl_org.svg" target="_base">
           <rect id="button" ry="5" rx="5" y="6" x="6" height="38" width="38"
                fill="#f2f5e9" fill-opacity="0.5" stroke="#606060" stroke-width="1.0"/>
           <path id="arrow"
             d="M 11.500037,31.436501 C 11.940474,20.09759 22.043105,11.32322 32.158766,21.979434 L 37.068811,17.246167 C 37.068811,17.246167 37.088388,32 37.088388,32 L 22.160133,31.978069 C 22.160133,31.978069 26.997745,27.140456 26.997745,27.140456 C 18.528582,18.264221 13.291696,25.230495 11.500037,31.436501 z"
             style="fill:#404040;"/>
          </a>
         </g>
        </svg>
</svg>
