<?xml version="1.0" encoding="UTF-8" standalone="no"?>
<!DOCTYPE svg PUBLIC "-//W3C//DTD SVG 1.1//EN"
 "http://www.w3.org/Graphics/SVG/1.1/DTD/svg11.dtd">
<!-- Generated by graphviz version 2.44.0 ()
 -->
<!-- Title: src/Structs/LevelData.cpp Pages: 1 -->
<svg width="916pt" height="386pt"
 viewBox="0.00 0.00 915.68 386.00" xmlns="http://www.w3.org/2000/svg" xmlns:xlink="http://www.w3.org/1999/xlink">
<g id="graph0" class="graph" transform="scale(1 1) rotate(0) translate(4 382)">
<title>src/Structs/LevelData.cpp</title>
<!-- Node1 -->
<g id="node1" class="node">
<title>Node1</title>
<g id="a_node1"><a xlink:title=" ">
<polygon fill="#bfbfbf" stroke="black" points="413,-358.5 413,-377.5 543,-377.5 543,-358.5 413,-358.5"/>
<text text-anchor="middle" x="478" y="-365.5" font-family="Helvetica,sans-Serif" font-size="10.00">src/Structs/LevelData.cpp</text>
</a>
</g>
</g>
<!-- Node2 -->
<g id="node2" class="node">
<title>Node2</title>
<g id="a_node2"><a xlink:href="LevelData_8hpp.html" target="_top" xlink:title=" ">
<polygon fill="none" stroke="black" points="492.5,-297 492.5,-316 571.5,-316 571.5,-297 492.5,-297"/>
<text text-anchor="middle" x="532" y="-304" font-family="Helvetica,sans-Serif" font-size="10.00">LevelData.hpp</text>
</a>
</g>
</g>
<!-- Node1&#45;&gt;Node2 -->
<g id="edge1" class="edge">
<title>Node1&#45;&gt;Node2</title>
<path fill="none" stroke="midnightblue" d="M485.74,-358.48C494,-349.37 507.28,-334.74 517.49,-323.48"/>
<polygon fill="midnightblue" stroke="midnightblue" points="520.15,-325.77 524.28,-316.01 514.97,-321.06 520.15,-325.77"/>
</g>
<!-- Node22 -->
<g id="node22" class="node">
<title>Node22</title>
<g id="a_node22"><a xlink:href="EnemyValue_8hpp.html" target="_top" xlink:title=" ">
<polygon fill="none" stroke="black" points="378.5,-291.5 378.5,-321.5 473.5,-321.5 473.5,-291.5 378.5,-291.5"/>
<text text-anchor="start" x="386.5" y="-309.5" font-family="Helvetica,sans-Serif" font-size="10.00">../Scripts/Enemies</text>
<text text-anchor="middle" x="426" y="-298.5" font-family="Helvetica,sans-Serif" font-size="10.00">/EnemyValue.hpp</text>
</a>
</g>
</g>
<!-- Node1&#45;&gt;Node22 -->
<g id="edge35" class="edge">
<title>Node1&#45;&gt;Node22</title>
<path fill="none" stroke="midnightblue" d="M470.55,-358.48C463.9,-350.87 453.88,-339.4 445.02,-329.26"/>
<polygon fill="midnightblue" stroke="midnightblue" points="447.47,-326.75 438.26,-321.52 442.2,-331.36 447.47,-326.75"/>
</g>
<!-- Node23 -->
<g id="node23" class="node">
<title>Node23</title>
<g id="a_node23"><a xlink:href="EnemyTroopTruckBehaviour_8hpp.html" target="_top" xlink:title=" ">
<polygon fill="none" stroke="black" points="198,-291.5 198,-321.5 358,-321.5 358,-291.5 198,-291.5"/>
<text text-anchor="start" x="206" y="-309.5" font-family="Helvetica,sans-Serif" font-size="10.00">../Scripts/Enemies</text>
<text text-anchor="middle" x="278" y="-298.5" font-family="Helvetica,sans-Serif" font-size="10.00">/EnemyTroopTruckBehaviour.hpp</text>
</a>
</g>
</g>
<!-- Node1&#45;&gt;Node23 -->
<g id="edge37" class="edge">
<title>Node1&#45;&gt;Node23</title>
<path fill="none" stroke="midnightblue" d="M449.34,-358.48C419.6,-349.63 372.28,-335.55 334.9,-324.43"/>
<polygon fill="midnightblue" stroke="midnightblue" points="335.72,-321.02 325.14,-321.52 333.72,-327.73 335.72,-321.02"/>
</g>
<!-- Node25 -->
<g id="node25" class="node">
<title>Node25</title>
<g id="a_node25"><a xlink:href="PlayerData_8hpp.html" target="_top" xlink:title=" ">
<polygon fill="none" stroke="black" points="792,-297 792,-316 874,-316 874,-297 792,-297"/>
<text text-anchor="middle" x="833" y="-304" font-family="Helvetica,sans-Serif" font-size="10.00">PlayerData.hpp</text>
</a>
</g>
</g>
<!-- Node1&#45;&gt;Node25 -->
<g id="edge42" class="edge">
<title>Node1&#45;&gt;Node25</title>
<path fill="none" stroke="midnightblue" d="M528.86,-358.48C596.24,-347.18 714.43,-327.37 781.92,-316.06"/>
<polygon fill="midnightblue" stroke="midnightblue" points="782.62,-319.49 791.9,-314.39 781.46,-312.59 782.62,-319.49"/>
</g>
<!-- Node3 -->
<g id="node3" class="node">
<title>Node3</title>
<g id="a_node3"><a xlink:href="WaveData_8hpp.html" target="_top" xlink:title=" ">
<polygon fill="none" stroke="black" points="494,-230 494,-249 574,-249 574,-230 494,-230"/>
<text text-anchor="middle" x="534" y="-237" font-family="Helvetica,sans-Serif" font-size="10.00">WaveData.hpp</text>
</a>
</g>
</g>
<!-- Node2&#45;&gt;Node3 -->
<g id="edge2" class="edge">
<title>Node2&#45;&gt;Node3</title>
<path fill="none" stroke="midnightblue" d="M532.27,-296.73C532.56,-287.18 533.04,-271.62 533.42,-259.28"/>
<polygon fill="midnightblue" stroke="midnightblue" points="536.93,-259.23 533.73,-249.13 529.93,-259.01 536.93,-259.23"/>
</g>
<!-- Node6 -->
<g id="node6" class="node">
<title>Node6</title>
<g id="a_node6"><a xlink:title=" ">
<polygon fill="none" stroke="#bfbfbf" points="775.5,-168.5 775.5,-187.5 818.5,-187.5 818.5,-168.5 775.5,-168.5"/>
<text text-anchor="middle" x="797" y="-175.5" font-family="Helvetica,sans-Serif" font-size="10.00">queue</text>
</a>
</g>
</g>
<!-- Node2&#45;&gt;Node6 -->
<g id="edge34" class="edge">
<title>Node2&#45;&gt;Node6</title>
<path fill="none" stroke="midnightblue" d="M540.37,-296.93C558.93,-278.08 603.4,-233.91 622,-224 677.85,-194.24 700.78,-204.44 765.54,-188.21"/>
<polygon fill="midnightblue" stroke="midnightblue" points="766.63,-191.54 775.41,-185.61 764.84,-184.77 766.63,-191.54"/>
</g>
<!-- Node13 -->
<g id="node13" class="node">
<title>Node13</title>
<g id="a_node13"><a xlink:href="MapNode_8hpp.html" target="_top" xlink:title=" ">
<polygon fill="none" stroke="black" points="360.5,-230 360.5,-249 437.5,-249 437.5,-230 360.5,-230"/>
<text text-anchor="middle" x="399" y="-237" font-family="Helvetica,sans-Serif" font-size="10.00">MapNode.hpp</text>
</a>
</g>
</g>
<!-- Node2&#45;&gt;Node13 -->
<g id="edge14" class="edge">
<title>Node2&#45;&gt;Node13</title>
<path fill="none" stroke="midnightblue" d="M514.34,-296.87C491.68,-285.8 452.17,-266.49 425.8,-253.6"/>
<polygon fill="midnightblue" stroke="midnightblue" points="427.26,-250.41 416.73,-249.17 424.18,-256.7 427.26,-250.41"/>
</g>
<!-- Node15 -->
<g id="node15" class="node">
<title>Node15</title>
<g id="a_node15"><a xlink:href="LevelMode_8hpp.html" target="_top" xlink:title=" ">
<polygon fill="none" stroke="black" points="630.5,-230 630.5,-249 753.5,-249 753.5,-230 630.5,-230"/>
<text text-anchor="middle" x="692" y="-237" font-family="Helvetica,sans-Serif" font-size="10.00">../Enums/LevelMode.hpp</text>
</a>
</g>
</g>
<!-- Node2&#45;&gt;Node15 -->
<g id="edge19" class="edge">
<title>Node2&#45;&gt;Node15</title>
<path fill="none" stroke="midnightblue" d="M553.25,-296.87C580.94,-285.62 629.56,-265.87 661.27,-252.99"/>
<polygon fill="midnightblue" stroke="midnightblue" points="662.97,-256.07 670.92,-249.06 660.34,-249.58 662.97,-256.07"/>
</g>
<!-- Node16 -->
<g id="node16" class="node">
<title>Node16</title>
<g id="a_node16"><a xlink:href="HealthBehaviour_8hpp.html" target="_top" xlink:title=" ">
<polygon fill="none" stroke="black" points="214,-224.5 214,-254.5 342,-254.5 342,-224.5 214,-224.5"/>
<text text-anchor="start" x="222" y="-242.5" font-family="Helvetica,sans-Serif" font-size="10.00">../Scripts/Common/Health</text>
<text text-anchor="middle" x="278" y="-231.5" font-family="Helvetica,sans-Serif" font-size="10.00">Behaviour.hpp</text>
</a>
</g>
</g>
<!-- Node2&#45;&gt;Node16 -->
<g id="edge20" class="edge">
<title>Node2&#45;&gt;Node16</title>
<path fill="none" stroke="midnightblue" d="M504.08,-297C497.2,-294.97 489.85,-292.86 483,-291 438.32,-278.89 387.83,-266.44 348.14,-256.93"/>
<polygon fill="midnightblue" stroke="midnightblue" points="348.83,-253.5 338.29,-254.58 347.2,-260.31 348.83,-253.5"/>
</g>
<!-- Node4 -->
<g id="node4" class="node">
<title>Node4</title>
<g id="a_node4"><a xlink:title=" ">
<polygon fill="none" stroke="#bfbfbf" points="722.5,-168.5 722.5,-187.5 757.5,-187.5 757.5,-168.5 722.5,-168.5"/>
<text text-anchor="middle" x="740" y="-175.5" font-family="Helvetica,sans-Serif" font-size="10.00">map</text>
</a>
</g>
</g>
<!-- Node3&#45;&gt;Node4 -->
<g id="edge3" class="edge">
<title>Node3&#45;&gt;Node4</title>
<path fill="none" stroke="midnightblue" d="M563.51,-229.98C603.28,-218.49 673.52,-198.2 712.32,-187"/>
<polygon fill="midnightblue" stroke="midnightblue" points="713.74,-190.23 722.38,-184.09 711.8,-183.5 713.74,-190.23"/>
</g>
<!-- Node5 -->
<g id="node5" class="node">
<title>Node5</title>
<g id="a_node5"><a xlink:title=" ">
<polygon fill="none" stroke="#bfbfbf" points="318.5,-0.5 318.5,-19.5 369.5,-19.5 369.5,-0.5 318.5,-0.5"/>
<text text-anchor="middle" x="344" y="-7.5" font-family="Helvetica,sans-Serif" font-size="10.00">memory</text>
</a>
</g>
</g>
<!-- Node3&#45;&gt;Node5 -->
<g id="edge4" class="edge">
<title>Node3&#45;&gt;Node5</title>
<path fill="none" stroke="midnightblue" d="M561.59,-229.89C585.43,-221.6 620.05,-207.44 646,-188 694.76,-151.47 727.4,-97.73 683,-56 639.82,-15.42 457.87,-10.76 379.81,-10.68"/>
<polygon fill="midnightblue" stroke="midnightblue" points="379.51,-7.18 369.51,-10.7 379.52,-14.18 379.51,-7.18"/>
</g>
<!-- Node3&#45;&gt;Node6 -->
<g id="edge5" class="edge">
<title>Node3&#45;&gt;Node6</title>
<path fill="none" stroke="midnightblue" d="M564.47,-229.95C572.13,-227.91 580.35,-225.8 588,-224 663.92,-206.19 686.52,-207.54 765.52,-188.19"/>
<polygon fill="midnightblue" stroke="midnightblue" points="766.58,-191.54 775.44,-185.73 764.89,-184.74 766.58,-191.54"/>
</g>
<!-- Node7 -->
<g id="node7" class="node">
<title>Node7</title>
<g id="a_node7"><a xlink:href="GameObject_8hpp.html" target="_top" xlink:title=" ">
<polygon fill="none" stroke="black" points="547.5,-168.5 547.5,-187.5 636.5,-187.5 636.5,-168.5 547.5,-168.5"/>
<text text-anchor="middle" x="592" y="-175.5" font-family="Helvetica,sans-Serif" font-size="10.00">GameObject.hpp</text>
</a>
</g>
</g>
<!-- Node3&#45;&gt;Node7 -->
<g id="edge6" class="edge">
<title>Node3&#45;&gt;Node7</title>
<path fill="none" stroke="midnightblue" d="M542.31,-229.98C551.18,-220.87 565.45,-206.24 576.42,-194.98"/>
<polygon fill="midnightblue" stroke="midnightblue" points="579.23,-197.11 583.71,-187.51 574.22,-192.23 579.23,-197.11"/>
</g>
<!-- Node7&#45;&gt;Node5 -->
<g id="edge13" class="edge">
<title>Node7&#45;&gt;Node5</title>
<path fill="none" stroke="midnightblue" d="M579.02,-168.31C538.67,-141.3 415.21,-58.67 365.29,-25.25"/>
<polygon fill="midnightblue" stroke="midnightblue" points="367.11,-22.26 356.86,-19.61 363.22,-28.08 367.11,-22.26"/>
</g>
<!-- Node8 -->
<g id="node8" class="node">
<title>Node8</title>
<g id="a_node8"><a xlink:href="Component_8hpp.html" target="_top" xlink:title=" ">
<polygon fill="none" stroke="black" points="137,-56.5 137,-75.5 221,-75.5 221,-56.5 137,-56.5"/>
<text text-anchor="middle" x="179" y="-63.5" font-family="Helvetica,sans-Serif" font-size="10.00">Component.hpp</text>
</a>
</g>
</g>
<!-- Node7&#45;&gt;Node8 -->
<g id="edge7" class="edge">
<title>Node7&#45;&gt;Node8</title>
<path fill="none" stroke="midnightblue" d="M571.4,-168.39C550.17,-159.46 516.15,-145.02 487,-132 467.76,-123.4 464.13,-118.25 444,-112 354.95,-84.35 326.9,-91.83 231.13,-76.14"/>
<polygon fill="midnightblue" stroke="midnightblue" points="231.46,-72.65 221.02,-74.44 230.3,-79.55 231.46,-72.65"/>
</g>
<!-- Node9 -->
<g id="node9" class="node">
<title>Node9</title>
<g id="a_node9"><a xlink:href="Transform_8hpp.html" target="_top" xlink:title=" ">
<polygon fill="none" stroke="black" points="605.5,-112.5 605.5,-131.5 684.5,-131.5 684.5,-112.5 605.5,-112.5"/>
<text text-anchor="middle" x="645" y="-119.5" font-family="Helvetica,sans-Serif" font-size="10.00">Transform.hpp</text>
</a>
</g>
</g>
<!-- Node7&#45;&gt;Node9 -->
<g id="edge9" class="edge">
<title>Node7&#45;&gt;Node9</title>
<path fill="none" stroke="midnightblue" d="M600.75,-168.08C608.47,-160.22 619.9,-148.57 629.22,-139.08"/>
<polygon fill="midnightblue" stroke="midnightblue" points="631.9,-141.34 636.41,-131.75 626.91,-136.44 631.9,-141.34"/>
</g>
<!-- Node11 -->
<g id="node11" class="node">
<title>Node11</title>
<g id="a_node11"><a xlink:title=" ">
<polygon fill="none" stroke="#bfbfbf" points="529.5,-56.5 529.5,-75.5 570.5,-75.5 570.5,-56.5 529.5,-56.5"/>
<text text-anchor="middle" x="550" y="-63.5" font-family="Helvetica,sans-Serif" font-size="10.00">string</text>
</a>
</g>
</g>
<!-- Node7&#45;&gt;Node11 -->
<g id="edge11" class="edge">
<title>Node7&#45;&gt;Node11</title>
<path fill="none" stroke="midnightblue" d="M584.93,-168.25C578.27,-159.56 568.51,-145.61 563,-132 556.98,-117.15 553.67,-99.23 551.89,-85.97"/>
<polygon fill="midnightblue" stroke="midnightblue" points="555.33,-85.24 550.7,-75.71 548.38,-86.05 555.33,-85.24"/>
</g>
<!-- Node12 -->
<g id="node12" class="node">
<title>Node12</title>
<g id="a_node12"><a xlink:title=" ">
<polygon fill="none" stroke="#bfbfbf" points="391,-112.5 391,-131.5 435,-131.5 435,-112.5 391,-112.5"/>
<text text-anchor="middle" x="413" y="-119.5" font-family="Helvetica,sans-Serif" font-size="10.00">vector</text>
</a>
</g>
</g>
<!-- Node7&#45;&gt;Node12 -->
<g id="edge12" class="edge">
<title>Node7&#45;&gt;Node12</title>
<path fill="none" stroke="midnightblue" d="M563.64,-168.44C531.3,-158.69 478.56,-142.78 444.83,-132.6"/>
<polygon fill="midnightblue" stroke="midnightblue" points="445.61,-129.18 435.02,-129.64 443.59,-135.88 445.61,-129.18"/>
</g>
<!-- Node8&#45;&gt;Node5 -->
<g id="edge8" class="edge">
<title>Node8&#45;&gt;Node5</title>
<path fill="none" stroke="midnightblue" d="M205.14,-56.44C233.11,-47.29 277.61,-32.73 308.67,-22.56"/>
<polygon fill="midnightblue" stroke="midnightblue" points="309.83,-25.86 318.25,-19.43 307.66,-19.21 309.83,-25.86"/>
</g>
<!-- Node10 -->
<g id="node10" class="node">
<title>Node10</title>
<g id="a_node10"><a xlink:href="Point_8hpp.html" target="_top" xlink:title=" ">
<polygon fill="none" stroke="black" points="616.5,-56.5 616.5,-75.5 673.5,-75.5 673.5,-56.5 616.5,-56.5"/>
<text text-anchor="middle" x="645" y="-63.5" font-family="Helvetica,sans-Serif" font-size="10.00">Point.hpp</text>
</a>
</g>
</g>
<!-- Node9&#45;&gt;Node10 -->
<g id="edge10" class="edge">
<title>Node9&#45;&gt;Node10</title>
<path fill="none" stroke="midnightblue" d="M645,-112.08C645,-105.01 645,-94.86 645,-85.99"/>
<polygon fill="midnightblue" stroke="midnightblue" points="648.5,-85.75 645,-75.75 641.5,-85.75 648.5,-85.75"/>
</g>
<!-- Node13&#45;&gt;Node5 -->
<g id="edge16" class="edge">
<title>Node13&#45;&gt;Node5</title>
<path fill="none" stroke="midnightblue" d="M396.91,-229.86C388.86,-196.57 359.75,-76.15 348.49,-29.57"/>
<polygon fill="midnightblue" stroke="midnightblue" points="351.84,-28.55 346.09,-19.65 345.04,-30.19 351.84,-28.55"/>
</g>
<!-- Node13&#45;&gt;Node7 -->
<g id="edge17" class="edge">
<title>Node13&#45;&gt;Node7</title>
<path fill="none" stroke="midnightblue" d="M426.65,-229.98C460.19,-219.64 516.87,-202.16 554.37,-190.6"/>
<polygon fill="midnightblue" stroke="midnightblue" points="555.87,-193.8 564.4,-187.51 553.81,-187.11 555.87,-193.8"/>
</g>
<!-- Node13&#45;&gt;Node12 -->
<g id="edge15" class="edge">
<title>Node13&#45;&gt;Node12</title>
<path fill="none" stroke="midnightblue" d="M400.05,-229.82C402.3,-211.26 407.63,-167.34 410.7,-141.97"/>
<polygon fill="midnightblue" stroke="midnightblue" points="414.21,-142.13 411.94,-131.78 407.26,-141.29 414.21,-142.13"/>
</g>
<!-- Node14 -->
<g id="node14" class="node">
<title>Node14</title>
<g id="a_node14"><a xlink:href="TileType_8hpp.html" target="_top" xlink:title=" ">
<polygon fill="none" stroke="black" points="418,-168.5 418,-187.5 530,-187.5 530,-168.5 418,-168.5"/>
<text text-anchor="middle" x="474" y="-175.5" font-family="Helvetica,sans-Serif" font-size="10.00">../Enums/TileType.hpp</text>
</a>
</g>
</g>
<!-- Node13&#45;&gt;Node14 -->
<g id="edge18" class="edge">
<title>Node13&#45;&gt;Node14</title>
<path fill="none" stroke="midnightblue" d="M409.75,-229.98C421.55,-220.61 440.74,-205.38 455.08,-194.01"/>
<polygon fill="midnightblue" stroke="midnightblue" points="457.62,-196.47 463.27,-187.51 453.26,-190.98 457.62,-196.47"/>
</g>
<!-- Node16&#45;&gt;Node5 -->
<g id="edge25" class="edge">
<title>Node16&#45;&gt;Node5</title>
<path fill="none" stroke="midnightblue" d="M250.5,-224.34C194.52,-193.72 76.77,-119 128,-56 150.31,-28.57 252.76,-17.3 308.17,-13.15"/>
<polygon fill="midnightblue" stroke="midnightblue" points="308.54,-16.63 318.27,-12.43 308.04,-9.65 308.54,-16.63"/>
</g>
<!-- Node17 -->
<g id="node17" class="node">
<title>Node17</title>
<g id="a_node17"><a xlink:href="BehaviourScript_8hpp.html" target="_top" xlink:title=" ">
<polygon fill="none" stroke="black" points="0,-168.5 0,-187.5 104,-187.5 104,-168.5 0,-168.5"/>
<text text-anchor="middle" x="52" y="-175.5" font-family="Helvetica,sans-Serif" font-size="10.00">BehaviourScript.hpp</text>
</a>
</g>
</g>
<!-- Node16&#45;&gt;Node17 -->
<g id="edge21" class="edge">
<title>Node16&#45;&gt;Node17</title>
<path fill="none" stroke="midnightblue" d="M224.73,-224.47C184.89,-213.99 131.14,-199.84 94.25,-190.12"/>
<polygon fill="midnightblue" stroke="midnightblue" points="94.87,-186.67 84.31,-187.51 93.09,-193.44 94.87,-186.67"/>
</g>
<!-- Node19 -->
<g id="node19" class="node">
<title>Node19</title>
<g id="a_node19"><a xlink:href="Animator_8hpp.html" target="_top" xlink:title=" ">
<polygon fill="none" stroke="black" points="241,-168.5 241,-187.5 315,-187.5 315,-168.5 241,-168.5"/>
<text text-anchor="middle" x="278" y="-175.5" font-family="Helvetica,sans-Serif" font-size="10.00">Animator.hpp</text>
</a>
</g>
</g>
<!-- Node16&#45;&gt;Node19 -->
<g id="edge26" class="edge">
<title>Node16&#45;&gt;Node19</title>
<path fill="none" stroke="midnightblue" d="M278,-224.4C278,-216.47 278,-206.46 278,-197.86"/>
<polygon fill="midnightblue" stroke="midnightblue" points="281.5,-197.66 278,-187.66 274.5,-197.66 281.5,-197.66"/>
</g>
<!-- Node17&#45;&gt;Node8 -->
<g id="edge22" class="edge">
<title>Node17&#45;&gt;Node8</title>
<path fill="none" stroke="midnightblue" d="M43.64,-168.27C32.02,-155.05 13.83,-129.63 27,-112 49.76,-81.53 92.24,-70.84 126.52,-67.46"/>
<polygon fill="midnightblue" stroke="midnightblue" points="127.18,-70.92 136.87,-66.63 126.62,-63.94 127.18,-70.92"/>
</g>
<!-- Node18 -->
<g id="node18" class="node">
<title>Node18</title>
<g id="a_node18"><a xlink:href="Collider_8hpp.html" target="_top" xlink:title=" ">
<polygon fill="none" stroke="black" points="36.5,-112.5 36.5,-131.5 103.5,-131.5 103.5,-112.5 36.5,-112.5"/>
<text text-anchor="middle" x="70" y="-119.5" font-family="Helvetica,sans-Serif" font-size="10.00">Collider.hpp</text>
</a>
</g>
</g>
<!-- Node17&#45;&gt;Node18 -->
<g id="edge23" class="edge">
<title>Node17&#45;&gt;Node18</title>
<path fill="none" stroke="midnightblue" d="M54.97,-168.08C57.38,-160.85 60.86,-150.41 63.87,-141.4"/>
<polygon fill="midnightblue" stroke="midnightblue" points="67.24,-142.34 67.08,-131.75 60.6,-140.13 67.24,-142.34"/>
</g>
<!-- Node18&#45;&gt;Node8 -->
<g id="edge24" class="edge">
<title>Node18&#45;&gt;Node8</title>
<path fill="none" stroke="midnightblue" d="M87.51,-112.32C105.07,-103.62 132.33,-90.12 152.53,-80.11"/>
<polygon fill="midnightblue" stroke="midnightblue" points="154.12,-83.23 161.53,-75.65 151.02,-76.96 154.12,-83.23"/>
</g>
<!-- Node19&#45;&gt;Node5 -->
<g id="edge33" class="edge">
<title>Node19&#45;&gt;Node5</title>
<path fill="none" stroke="midnightblue" d="M284.27,-168.41C290.46,-159.61 299.86,-145.38 306,-132 321.94,-97.28 333.73,-54.04 339.67,-29.78"/>
<polygon fill="midnightblue" stroke="midnightblue" points="343.14,-30.32 342.05,-19.79 336.33,-28.7 343.14,-30.32"/>
</g>
<!-- Node19&#45;&gt;Node8 -->
<g id="edge27" class="edge">
<title>Node19&#45;&gt;Node8</title>
<path fill="none" stroke="midnightblue" d="M267.11,-168.25C256.59,-159.56 240.47,-145.6 228,-132 214.03,-116.76 200.03,-97.72 190.6,-84.2"/>
<polygon fill="midnightblue" stroke="midnightblue" points="193.39,-82.09 184.85,-75.83 187.62,-86.05 193.39,-82.09"/>
</g>
<!-- Node19&#45;&gt;Node12 -->
<g id="edge32" class="edge">
<title>Node19&#45;&gt;Node12</title>
<path fill="none" stroke="midnightblue" d="M299.39,-168.44C321.71,-159.52 356.9,-145.44 382.21,-135.32"/>
<polygon fill="midnightblue" stroke="midnightblue" points="383.72,-138.48 391.71,-131.52 381.12,-131.98 383.72,-138.48"/>
</g>
<!-- Node20 -->
<g id="node20" class="node">
<title>Node20</title>
<g id="a_node20"><a xlink:href="Sprite_8hpp.html" target="_top" xlink:title=" ">
<polygon fill="none" stroke="black" points="237,-112.5 237,-131.5 297,-131.5 297,-112.5 237,-112.5"/>
<text text-anchor="middle" x="267" y="-119.5" font-family="Helvetica,sans-Serif" font-size="10.00">Sprite.hpp</text>
</a>
</g>
</g>
<!-- Node19&#45;&gt;Node20 -->
<g id="edge28" class="edge">
<title>Node19&#45;&gt;Node20</title>
<path fill="none" stroke="midnightblue" d="M276.18,-168.08C274.73,-160.93 272.63,-150.64 270.81,-141.69"/>
<polygon fill="midnightblue" stroke="midnightblue" points="274.21,-140.85 268.78,-131.75 267.35,-142.25 274.21,-140.85"/>
</g>
<!-- Node20&#45;&gt;Node8 -->
<g id="edge29" class="edge">
<title>Node20&#45;&gt;Node8</title>
<path fill="none" stroke="midnightblue" d="M252.86,-112.32C239.13,-103.9 218.06,-90.97 201.94,-81.07"/>
<polygon fill="midnightblue" stroke="midnightblue" points="203.46,-77.9 193.1,-75.65 199.8,-83.87 203.46,-77.9"/>
</g>
<!-- Node20&#45;&gt;Node11 -->
<g id="edge31" class="edge">
<title>Node20&#45;&gt;Node11</title>
<path fill="none" stroke="midnightblue" d="M297.02,-115.27C351.16,-104.94 464.62,-83.29 519.27,-72.86"/>
<polygon fill="midnightblue" stroke="midnightblue" points="520.22,-76.25 529.39,-70.93 518.91,-69.37 520.22,-76.25"/>
</g>
<!-- Node21 -->
<g id="node21" class="node">
<title>Node21</title>
<g id="a_node21"><a xlink:href="Color_8hpp.html" target="_top" xlink:title=" ">
<polygon fill="none" stroke="black" points="239.5,-56.5 239.5,-75.5 296.5,-75.5 296.5,-56.5 239.5,-56.5"/>
<text text-anchor="middle" x="268" y="-63.5" font-family="Helvetica,sans-Serif" font-size="10.00">Color.hpp</text>
</a>
</g>
</g>
<!-- Node20&#45;&gt;Node21 -->
<g id="edge30" class="edge">
<title>Node20&#45;&gt;Node21</title>
<path fill="none" stroke="midnightblue" d="M267.17,-112.08C267.3,-105.01 267.48,-94.86 267.65,-85.99"/>
<polygon fill="midnightblue" stroke="midnightblue" points="271.15,-85.81 267.84,-75.75 264.15,-85.68 271.15,-85.81"/>
</g>
<!-- Node22&#45;&gt;Node17 -->
<g id="edge36" class="edge">
<title>Node22&#45;&gt;Node17</title>
<path fill="none" stroke="midnightblue" d="M378.36,-293.7C374.52,-292.77 370.7,-291.87 367,-291 295.18,-274.2 271.37,-287.18 205,-255 185.39,-245.49 185.82,-234.99 167,-224 142.97,-209.97 113.75,-198.59 90.77,-190.79"/>
<polygon fill="midnightblue" stroke="midnightblue" points="91.61,-187.39 81.02,-187.57 89.42,-194.03 91.61,-187.39"/>
</g>
<!-- Node23&#45;&gt;Node7 -->
<g id="edge41" class="edge">
<title>Node23&#45;&gt;Node7</title>
<path fill="none" stroke="midnightblue" d="M347.01,-291.42C378.62,-283.36 415.88,-271.49 447,-255 466.26,-244.79 466.32,-235.23 485,-224 507.52,-210.47 534.84,-199.05 556.25,-191.1"/>
<polygon fill="midnightblue" stroke="midnightblue" points="557.72,-194.29 565.93,-187.59 555.33,-187.71 557.72,-194.29"/>
</g>
<!-- Node23&#45;&gt;Node16 -->
<g id="edge38" class="edge">
<title>Node23&#45;&gt;Node16</title>
<path fill="none" stroke="midnightblue" d="M278,-291.4C278,-283.64 278,-273.81 278,-264.86"/>
<polygon fill="midnightblue" stroke="midnightblue" points="281.5,-264.58 278,-254.58 274.5,-264.58 281.5,-264.58"/>
</g>
<!-- Node23&#45;&gt;Node17 -->
<g id="edge40" class="edge">
<title>Node23&#45;&gt;Node17</title>
<path fill="none" stroke="midnightblue" d="M197.68,-301.32C127.89,-295.81 34.4,-283.24 11,-255 -4.59,-236.18 16.3,-210.51 33.54,-194.34"/>
<polygon fill="midnightblue" stroke="midnightblue" points="35.92,-196.91 41.05,-187.64 31.26,-191.68 35.92,-196.91"/>
</g>
<!-- Node24 -->
<g id="node24" class="node">
<title>Node24</title>
<g id="a_node24"><a xlink:href="EnemyName_8hpp.html" target="_top" xlink:title=" ">
<polygon fill="none" stroke="black" points="20,-230 20,-249 158,-249 158,-230 20,-230"/>
<text text-anchor="middle" x="89" y="-237" font-family="Helvetica,sans-Serif" font-size="10.00">../../Enums/EnemyName.hpp</text>
</a>
</g>
</g>
<!-- Node23&#45;&gt;Node24 -->
<g id="edge39" class="edge">
<title>Node23&#45;&gt;Node24</title>
<path fill="none" stroke="midnightblue" d="M236.99,-291.4C203.09,-279.74 155.51,-263.37 123.53,-252.38"/>
<polygon fill="midnightblue" stroke="midnightblue" points="124.33,-248.95 113.74,-249.01 122.05,-255.57 124.33,-248.95"/>
</g>
<!-- Node25&#45;&gt;Node11 -->
<g id="edge43" class="edge">
<title>Node25&#45;&gt;Node11</title>
<path fill="none" stroke="midnightblue" d="M853.8,-296.99C870.49,-288.91 892.76,-275.01 903,-255 909.28,-242.73 909.17,-236.32 903,-224 839.35,-97.05 718.09,-206.19 597,-132 579.05,-121.01 565.92,-100.34 558.17,-85.25"/>
<polygon fill="midnightblue" stroke="midnightblue" points="561.15,-83.39 553.67,-75.89 554.84,-86.42 561.15,-83.39"/>
</g>
<!-- Node26 -->
<g id="node26" class="node">
<title>Node26</title>
<g id="a_node26"><a xlink:href="HeroName_8hpp.html" target="_top" xlink:title=" ">
<polygon fill="none" stroke="black" points="772,-230 772,-249 894,-249 894,-230 772,-230"/>
<text text-anchor="middle" x="833" y="-237" font-family="Helvetica,sans-Serif" font-size="10.00">../Enums/HeroName.hpp</text>
</a>
</g>
</g>
<!-- Node25&#45;&gt;Node26 -->
<g id="edge44" class="edge">
<title>Node25&#45;&gt;Node26</title>
<path fill="none" stroke="midnightblue" d="M833,-296.73C833,-287.18 833,-271.62 833,-259.28"/>
<polygon fill="midnightblue" stroke="midnightblue" points="836.5,-259.13 833,-249.13 829.5,-259.13 836.5,-259.13"/>
</g>
</g>
</svg>
