<?xml version="1.0" encoding="UTF-8" standalone="no"?>
<!DOCTYPE svg PUBLIC "-//W3C//DTD SVG 1.1//EN"
 "http://www.w3.org/Graphics/SVG/1.1/DTD/svg11.dtd">
<!-- Generated by graphviz version 2.44.0 ()
 -->
<!-- Title: src/Structs/LevelWithTiles.hpp Pages: 1 -->
<svg width="1018pt" height="218pt"
 viewBox="0.00 0.00 1017.50 218.00" xmlns="http://www.w3.org/2000/svg" xmlns:xlink="http://www.w3.org/1999/xlink">
<g id="graph0" class="graph" transform="scale(1 1) rotate(0) translate(4 214)">
<title>src/Structs/LevelWithTiles.hpp</title>
<!-- Node1 -->
<g id="node1" class="node">
<title>Node1</title>
<g id="a_node1"><a xlink:title=" ">
<polygon fill="#bfbfbf" stroke="black" points="515,-190.5 515,-209.5 665,-209.5 665,-190.5 515,-190.5"/>
<text text-anchor="middle" x="590" y="-197.5" font-family="Helvetica,sans-Serif" font-size="10.00">src/Structs/LevelWithTiles.hpp</text>
</a>
</g>
</g>
<!-- Node2 -->
<g id="node2" class="node">
<title>Node2</title>
<g id="a_node2"><a xlink:href="LevelController_8hpp.html" target="_top" xlink:title=" ">
<polygon fill="none" stroke="black" points="192,-129 192,-148 358,-148 358,-129 192,-129"/>
<text text-anchor="middle" x="275" y="-136" font-family="Helvetica,sans-Serif" font-size="10.00">src/Controllers/LevelController.hpp</text>
</a>
</g>
</g>
<!-- Node1&#45;&gt;Node2 -->
<g id="edge1" class="edge">
<title>Node1&#45;&gt;Node2</title>
<path fill="none" stroke="midnightblue" d="M535.03,-188.62C474.03,-177.09 376.73,-158.72 320.05,-148.01"/>
<polygon fill="midnightblue" stroke="midnightblue" points="534.39,-192.06 544.87,-190.48 535.69,-185.18 534.39,-192.06"/>
</g>
<!-- Node7 -->
<g id="node7" class="node">
<title>Node7</title>
<g id="a_node7"><a xlink:href="LevelSelectionController_8hpp.html" target="_top" xlink:title=" ">
<polygon fill="none" stroke="black" points="567.5,-123.5 567.5,-153.5 714.5,-153.5 714.5,-123.5 567.5,-123.5"/>
<text text-anchor="start" x="575.5" y="-141.5" font-family="Helvetica,sans-Serif" font-size="10.00">src/Controllers/LevelSelection</text>
<text text-anchor="middle" x="641" y="-130.5" font-family="Helvetica,sans-Serif" font-size="10.00">Controller.hpp</text>
</a>
</g>
</g>
<!-- Node1&#45;&gt;Node7 -->
<g id="edge6" class="edge">
<title>Node1&#45;&gt;Node7</title>
<path fill="none" stroke="midnightblue" d="M603.88,-182.81C611.73,-173.65 621.45,-162.3 628.98,-153.52"/>
<polygon fill="midnightblue" stroke="midnightblue" points="601.16,-180.6 597.31,-190.48 606.47,-185.16 601.16,-180.6"/>
</g>
<!-- Node9 -->
<g id="node9" class="node">
<title>Node9</title>
<g id="a_node9"><a xlink:href="LevelScene_8hpp.html" target="_top" xlink:title=" ">
<polygon fill="none" stroke="black" points="520.5,-62 520.5,-81 659.5,-81 659.5,-62 520.5,-62"/>
<text text-anchor="middle" x="590" y="-69" font-family="Helvetica,sans-Serif" font-size="10.00">src/Scenes/LevelScene.hpp</text>
</a>
</g>
</g>
<!-- Node1&#45;&gt;Node9 -->
<g id="edge14" class="edge">
<title>Node1&#45;&gt;Node9</title>
<path fill="none" stroke="midnightblue" d="M574.55,-182.55C568.1,-174.57 561.34,-164.46 558,-154 553.81,-140.88 554.16,-136.23 558,-123 562.74,-106.65 574.54,-90.52 582.41,-81.04"/>
<polygon fill="midnightblue" stroke="midnightblue" points="572.06,-185.02 581.25,-190.29 577.35,-180.44 572.06,-185.02"/>
</g>
<!-- Node11 -->
<g id="node11" class="node">
<title>Node11</title>
<g id="a_node11"><a xlink:href="LevelManager_8hpp.html" target="_top" xlink:title=" ">
<polygon fill="none" stroke="black" points="732.5,-129 732.5,-148 899.5,-148 899.5,-129 732.5,-129"/>
<text text-anchor="middle" x="816" y="-136" font-family="Helvetica,sans-Serif" font-size="10.00">src/Persistence/LevelManager.hpp</text>
</a>
</g>
</g>
<!-- Node1&#45;&gt;Node11 -->
<g id="edge11" class="edge">
<title>Node1&#45;&gt;Node11</title>
<path fill="none" stroke="midnightblue" d="M632.18,-187.9C676.07,-176.34 743.85,-158.5 783.68,-148.01"/>
<polygon fill="midnightblue" stroke="midnightblue" points="631.16,-184.54 622.38,-190.48 632.94,-191.31 631.16,-184.54"/>
</g>
<!-- Node3 -->
<g id="node3" class="node">
<title>Node3</title>
<g id="a_node3"><a xlink:href="LevelController_8cpp.html" target="_top" xlink:title=" ">
<polygon fill="none" stroke="black" points="0,-62 0,-81 166,-81 166,-62 0,-62"/>
<text text-anchor="middle" x="83" y="-69" font-family="Helvetica,sans-Serif" font-size="10.00">src/Controllers/LevelController.cpp</text>
</a>
</g>
</g>
<!-- Node2&#45;&gt;Node3 -->
<g id="edge2" class="edge">
<title>Node2&#45;&gt;Node3</title>
<path fill="none" stroke="midnightblue" d="M239.85,-125.6C201.79,-112.71 142,-92.47 108.3,-81.06"/>
<polygon fill="midnightblue" stroke="midnightblue" points="238.91,-128.98 249.5,-128.87 241.15,-122.35 238.91,-128.98"/>
</g>
<!-- Node4 -->
<g id="node4" class="node">
<title>Node4</title>
<g id="a_node4"><a xlink:href="LevelScene_8cpp.html" target="_top" xlink:title=" ">
<polygon fill="none" stroke="black" points="244.5,-0.5 244.5,-19.5 383.5,-19.5 383.5,-0.5 244.5,-0.5"/>
<text text-anchor="middle" x="314" y="-7.5" font-family="Helvetica,sans-Serif" font-size="10.00">src/Scenes/LevelScene.cpp</text>
</a>
</g>
</g>
<!-- Node2&#45;&gt;Node4 -->
<g id="edge3" class="edge">
<title>Node2&#45;&gt;Node4</title>
<path fill="none" stroke="midnightblue" d="M248.54,-123.53C235.24,-114.94 220.41,-102.59 213,-87 207.09,-74.56 205.5,-67.56 213,-56 225.33,-37 247.76,-25.96 268.35,-19.57"/>
<polygon fill="midnightblue" stroke="midnightblue" points="247.02,-126.7 257.39,-128.87 250.64,-120.71 247.02,-126.7"/>
</g>
<!-- Node5 -->
<g id="node5" class="node">
<title>Node5</title>
<g id="a_node5"><a xlink:href="CheatManager_8cpp.html" target="_top" xlink:title=" ">
<polygon fill="none" stroke="black" points="222,-56.5 222,-86.5 328,-86.5 328,-56.5 222,-56.5"/>
<text text-anchor="start" x="230" y="-74.5" font-family="Helvetica,sans-Serif" font-size="10.00">src/Scripts/Common</text>
<text text-anchor="middle" x="275" y="-63.5" font-family="Helvetica,sans-Serif" font-size="10.00">/CheatManager.cpp</text>
</a>
</g>
</g>
<!-- Node2&#45;&gt;Node5 -->
<g id="edge4" class="edge">
<title>Node2&#45;&gt;Node5</title>
<path fill="none" stroke="midnightblue" d="M275,-118.41C275,-108.22 275,-95.9 275,-86.59"/>
<polygon fill="midnightblue" stroke="midnightblue" points="271.5,-118.73 275,-128.73 278.5,-118.73 271.5,-118.73"/>
</g>
<!-- Node6 -->
<g id="node6" class="node">
<title>Node6</title>
<g id="a_node6"><a xlink:href="EnemyMovementBehaviour_8cpp.html" target="_top" xlink:title=" ">
<polygon fill="none" stroke="black" points="346,-56.5 346,-86.5 502,-86.5 502,-56.5 346,-56.5"/>
<text text-anchor="start" x="354" y="-74.5" font-family="Helvetica,sans-Serif" font-size="10.00">src/Scripts/Enemies</text>
<text text-anchor="middle" x="424" y="-63.5" font-family="Helvetica,sans-Serif" font-size="10.00">/EnemyMovementBehaviour.cpp</text>
</a>
</g>
</g>
<!-- Node2&#45;&gt;Node6 -->
<g id="edge5" class="edge">
<title>Node2&#45;&gt;Node6</title>
<path fill="none" stroke="midnightblue" d="M304.19,-124.77C329.41,-113.77 365.79,-97.89 391.84,-86.53"/>
<polygon fill="midnightblue" stroke="midnightblue" points="302.55,-121.66 294.79,-128.87 305.35,-128.08 302.55,-121.66"/>
</g>
<!-- Node8 -->
<g id="node8" class="node">
<title>Node8</title>
<g id="a_node8"><a xlink:href="LevelSelectionController_8cpp.html" target="_top" xlink:title=" ">
<polygon fill="none" stroke="black" points="677.5,-56.5 677.5,-86.5 824.5,-86.5 824.5,-56.5 677.5,-56.5"/>
<text text-anchor="start" x="685.5" y="-74.5" font-family="Helvetica,sans-Serif" font-size="10.00">src/Controllers/LevelSelection</text>
<text text-anchor="middle" x="751" y="-63.5" font-family="Helvetica,sans-Serif" font-size="10.00">Controller.cpp</text>
</a>
</g>
</g>
<!-- Node7&#45;&gt;Node8 -->
<g id="edge7" class="edge">
<title>Node7&#45;&gt;Node8</title>
<path fill="none" stroke="midnightblue" d="M673.5,-118.3C690.71,-108.12 711.48,-95.85 727.18,-86.58"/>
<polygon fill="midnightblue" stroke="midnightblue" points="671.7,-115.3 664.87,-123.4 675.26,-121.32 671.7,-115.3"/>
</g>
<!-- Node7&#45;&gt;Node9 -->
<g id="edge8" class="edge">
<title>Node7&#45;&gt;Node9</title>
<path fill="none" stroke="midnightblue" d="M623.59,-115.32C614.4,-103.6 603.64,-89.88 596.82,-81.19"/>
<polygon fill="midnightblue" stroke="midnightblue" points="621.01,-117.69 629.93,-123.4 626.51,-113.37 621.01,-117.69"/>
</g>
<!-- Node9&#45;&gt;Node4 -->
<g id="edge9" class="edge">
<title>Node9&#45;&gt;Node4</title>
<path fill="none" stroke="midnightblue" d="M540.51,-59.83C486.98,-48.29 402.73,-30.13 353.47,-19.51"/>
<polygon fill="midnightblue" stroke="midnightblue" points="539.94,-63.29 550.46,-61.98 541.42,-56.45 539.94,-63.29"/>
</g>
<!-- Node10 -->
<g id="node10" class="node">
<title>Node10</title>
<g id="a_node10"><a xlink:href="MainScene_8cpp.html" target="_top" xlink:title=" ">
<polygon fill="none" stroke="black" points="522,-0.5 522,-19.5 658,-19.5 658,-0.5 522,-0.5"/>
<text text-anchor="middle" x="590" y="-7.5" font-family="Helvetica,sans-Serif" font-size="10.00">src/Scenes/MainScene.cpp</text>
</a>
</g>
</g>
<!-- Node9&#45;&gt;Node10 -->
<g id="edge10" class="edge">
<title>Node9&#45;&gt;Node10</title>
<path fill="none" stroke="midnightblue" d="M590,-51.82C590,-41 590,-27.9 590,-19.51"/>
<polygon fill="midnightblue" stroke="midnightblue" points="586.5,-51.98 590,-61.98 593.5,-51.98 586.5,-51.98"/>
</g>
<!-- Node11&#45;&gt;Node8 -->
<g id="edge12" class="edge">
<title>Node11&#45;&gt;Node8</title>
<path fill="none" stroke="midnightblue" d="M800.12,-121.62C789.41,-110.91 775.4,-96.9 765.09,-86.59"/>
<polygon fill="midnightblue" stroke="midnightblue" points="797.69,-124.14 807.23,-128.73 802.64,-119.19 797.69,-124.14"/>
</g>
<!-- Node12 -->
<g id="node12" class="node">
<title>Node12</title>
<g id="a_node12"><a xlink:href="LevelManager_8cpp.html" target="_top" xlink:title=" ">
<polygon fill="none" stroke="black" points="842.5,-62 842.5,-81 1009.5,-81 1009.5,-62 842.5,-62"/>
<text text-anchor="middle" x="926" y="-69" font-family="Helvetica,sans-Serif" font-size="10.00">src/Persistence/LevelManager.cpp</text>
</a>
</g>
</g>
<!-- Node11&#45;&gt;Node12 -->
<g id="edge13" class="edge">
<title>Node11&#45;&gt;Node12</title>
<path fill="none" stroke="midnightblue" d="M839.5,-123.62C861.29,-110.74 893.04,-91.98 911.4,-81.13"/>
<polygon fill="midnightblue" stroke="midnightblue" points="837.66,-120.63 830.84,-128.73 841.22,-126.66 837.66,-120.63"/>
</g>
</g>
</svg>
