<?xml version="1.0" encoding="UTF-8" standalone="no"?>
<!DOCTYPE svg PUBLIC "-//W3C//DTD SVG 1.1//EN"
 "http://www.w3.org/Graphics/SVG/1.1/DTD/svg11.dtd">
<!-- Generated by graphviz version 2.44.0 ()
 -->
<!-- Title: src/Structs/LevelWithTiles.hpp Pages: 1 -->
<svg width="1512pt" height="229pt"
 viewBox="0.00 0.00 1511.50 229.00" xmlns="http://www.w3.org/2000/svg" xmlns:xlink="http://www.w3.org/1999/xlink">
<g id="graph0" class="graph" transform="scale(1 1) rotate(0) translate(4 225)">
<title>src/Structs/LevelWithTiles.hpp</title>
<!-- Node1 -->
<g id="node1" class="node">
<title>Node1</title>
<g id="a_node1"><a xlink:title=" ">
<polygon fill="#bfbfbf" stroke="black" points="1009,-201.5 1009,-220.5 1159,-220.5 1159,-201.5 1009,-201.5"/>
<text text-anchor="middle" x="1084" y="-208.5" font-family="Helvetica,sans-Serif" font-size="10.00">src/Structs/LevelWithTiles.hpp</text>
</a>
</g>
</g>
<!-- Node2 -->
<g id="node2" class="node">
<title>Node2</title>
<g id="a_node2"><a xlink:href="LevelController_8hpp.html" target="_top" xlink:title=" ">
<polygon fill="none" stroke="black" points="429,-140 429,-159 595,-159 595,-140 429,-140"/>
<text text-anchor="middle" x="512" y="-147" font-family="Helvetica,sans-Serif" font-size="10.00">src/Controllers/LevelController.hpp</text>
</a>
</g>
</g>
<!-- Node1&#45;&gt;Node2 -->
<g id="edge1" class="edge">
<title>Node1&#45;&gt;Node2</title>
<path fill="none" stroke="midnightblue" d="M998.94,-201.15C889.81,-189.8 701.79,-170.24 594.11,-159.04"/>
<polygon fill="midnightblue" stroke="midnightblue" points="998.62,-204.64 1008.93,-202.19 999.34,-197.67 998.62,-204.64"/>
</g>
<!-- Node10 -->
<g id="node10" class="node">
<title>Node10</title>
<g id="a_node10"><a xlink:href="LevelSelectionController_8hpp.html" target="_top" xlink:title=" ">
<polygon fill="none" stroke="black" points="1061.5,-134.5 1061.5,-164.5 1208.5,-164.5 1208.5,-134.5 1061.5,-134.5"/>
<text text-anchor="start" x="1069.5" y="-152.5" font-family="Helvetica,sans-Serif" font-size="10.00">src/Controllers/LevelSelection</text>
<text text-anchor="middle" x="1135" y="-141.5" font-family="Helvetica,sans-Serif" font-size="10.00">Controller.hpp</text>
</a>
</g>
</g>
<!-- Node1&#45;&gt;Node10 -->
<g id="edge9" class="edge">
<title>Node1&#45;&gt;Node10</title>
<path fill="none" stroke="midnightblue" d="M1097.88,-193.81C1105.73,-184.65 1115.45,-173.3 1122.98,-164.52"/>
<polygon fill="midnightblue" stroke="midnightblue" points="1095.16,-191.6 1091.31,-201.48 1100.47,-196.16 1095.16,-191.6"/>
</g>
<!-- Node12 -->
<g id="node12" class="node">
<title>Node12</title>
<g id="a_node12"><a xlink:href="LevelScene_8hpp.html" target="_top" xlink:title=" ">
<polygon fill="none" stroke="black" points="1014.5,-73 1014.5,-92 1153.5,-92 1153.5,-73 1014.5,-73"/>
<text text-anchor="middle" x="1084" y="-80" font-family="Helvetica,sans-Serif" font-size="10.00">src/Scenes/LevelScene.hpp</text>
</a>
</g>
</g>
<!-- Node1&#45;&gt;Node12 -->
<g id="edge17" class="edge">
<title>Node1&#45;&gt;Node12</title>
<path fill="none" stroke="midnightblue" d="M1068.55,-193.55C1062.1,-185.57 1055.34,-175.46 1052,-165 1047.81,-151.88 1048.16,-147.23 1052,-134 1056.74,-117.65 1068.54,-101.52 1076.41,-92.04"/>
<polygon fill="midnightblue" stroke="midnightblue" points="1066.06,-196.02 1075.25,-201.29 1071.35,-191.44 1066.06,-196.02"/>
</g>
<!-- Node14 -->
<g id="node14" class="node">
<title>Node14</title>
<g id="a_node14"><a xlink:href="LevelManager_8hpp.html" target="_top" xlink:title=" ">
<polygon fill="none" stroke="black" points="1226.5,-140 1226.5,-159 1393.5,-159 1393.5,-140 1226.5,-140"/>
<text text-anchor="middle" x="1310" y="-147" font-family="Helvetica,sans-Serif" font-size="10.00">src/Persistence/LevelManager.hpp</text>
</a>
</g>
</g>
<!-- Node1&#45;&gt;Node14 -->
<g id="edge14" class="edge">
<title>Node1&#45;&gt;Node14</title>
<path fill="none" stroke="midnightblue" d="M1126.18,-198.9C1170.07,-187.34 1237.85,-169.5 1277.68,-159.01"/>
<polygon fill="midnightblue" stroke="midnightblue" points="1125.16,-195.54 1116.38,-201.48 1126.94,-202.31 1125.16,-195.54"/>
</g>
<!-- Node3 -->
<g id="node3" class="node">
<title>Node3</title>
<g id="a_node3"><a xlink:href="LevelController_8cpp.html" target="_top" xlink:title=" ">
<polygon fill="none" stroke="black" points="0,-73 0,-92 166,-92 166,-73 0,-73"/>
<text text-anchor="middle" x="83" y="-80" font-family="Helvetica,sans-Serif" font-size="10.00">src/Controllers/LevelController.cpp</text>
</a>
</g>
</g>
<!-- Node2&#45;&gt;Node3 -->
<g id="edge2" class="edge">
<title>Node2&#45;&gt;Node3</title>
<path fill="none" stroke="midnightblue" d="M445.53,-138.43C361.47,-125.69 218.23,-103.99 139.31,-92.03"/>
<polygon fill="midnightblue" stroke="midnightblue" points="445.06,-141.9 455.47,-139.94 446.11,-134.98 445.06,-141.9"/>
</g>
<!-- Node4 -->
<g id="node4" class="node">
<title>Node4</title>
<g id="a_node4"><a xlink:href="LevelScene_8cpp.html" target="_top" xlink:title=" ">
<polygon fill="none" stroke="black" points="492.5,-6 492.5,-25 631.5,-25 631.5,-6 492.5,-6"/>
<text text-anchor="middle" x="562" y="-13" font-family="Helvetica,sans-Serif" font-size="10.00">src/Scenes/LevelScene.cpp</text>
</a>
</g>
</g>
<!-- Node2&#45;&gt;Node4 -->
<g id="edge3" class="edge">
<title>Node2&#45;&gt;Node4</title>
<path fill="none" stroke="midnightblue" d="M418.56,-145.5C340.89,-140.81 239.02,-128.78 213,-98 204.11,-87.48 203.98,-77.42 213,-67 248.36,-26.15 400.86,-17.62 492.16,-16.27"/>
<polygon fill="midnightblue" stroke="midnightblue" points="418.68,-149.01 428.86,-146.09 419.08,-142.03 418.68,-149.01"/>
</g>
<!-- Node5 -->
<g id="node5" class="node">
<title>Node5</title>
<g id="a_node5"><a xlink:href="CheatManager_8cpp.html" target="_top" xlink:title=" ">
<polygon fill="none" stroke="black" points="222,-67.5 222,-97.5 328,-97.5 328,-67.5 222,-67.5"/>
<text text-anchor="start" x="230" y="-85.5" font-family="Helvetica,sans-Serif" font-size="10.00">src/Scripts/Common</text>
<text text-anchor="middle" x="275" y="-74.5" font-family="Helvetica,sans-Serif" font-size="10.00">/CheatManager.cpp</text>
</a>
</g>
</g>
<!-- Node2&#45;&gt;Node5 -->
<g id="edge4" class="edge">
<title>Node2&#45;&gt;Node5</title>
<path fill="none" stroke="midnightblue" d="M470.79,-137.2C430.62,-126.18 369.41,-109.39 326.15,-97.53"/>
<polygon fill="midnightblue" stroke="midnightblue" points="469.96,-140.6 480.53,-139.87 471.81,-133.85 469.96,-140.6"/>
</g>
<!-- Node6 -->
<g id="node6" class="node">
<title>Node6</title>
<g id="a_node6"><a xlink:href="EnemyMovementBehaviour_8cpp.html" target="_top" xlink:title=" ">
<polygon fill="none" stroke="black" points="346,-67.5 346,-97.5 502,-97.5 502,-67.5 346,-67.5"/>
<text text-anchor="start" x="354" y="-85.5" font-family="Helvetica,sans-Serif" font-size="10.00">src/Scripts/Enemies</text>
<text text-anchor="middle" x="424" y="-74.5" font-family="Helvetica,sans-Serif" font-size="10.00">/EnemyMovementBehaviour.cpp</text>
</a>
</g>
</g>
<!-- Node2&#45;&gt;Node6 -->
<g id="edge5" class="edge">
<title>Node2&#45;&gt;Node6</title>
<path fill="none" stroke="midnightblue" d="M491.75,-133.54C477.11,-122.73 457.44,-108.2 443.07,-97.59"/>
<polygon fill="midnightblue" stroke="midnightblue" points="490.01,-136.61 500.13,-139.73 494.17,-130.98 490.01,-136.61"/>
</g>
<!-- Node7 -->
<g id="node7" class="node">
<title>Node7</title>
<g id="a_node7"><a xlink:href="EnemyTroopTruckBehaviour_8cpp.html" target="_top" xlink:title=" ">
<polygon fill="none" stroke="black" points="520,-67.5 520,-97.5 680,-97.5 680,-67.5 520,-67.5"/>
<text text-anchor="start" x="528" y="-85.5" font-family="Helvetica,sans-Serif" font-size="10.00">src/Scripts/Enemies</text>
<text text-anchor="middle" x="600" y="-74.5" font-family="Helvetica,sans-Serif" font-size="10.00">/EnemyTroopTruckBehaviour.cpp</text>
</a>
</g>
</g>
<!-- Node2&#45;&gt;Node7 -->
<g id="edge6" class="edge">
<title>Node2&#45;&gt;Node7</title>
<path fill="none" stroke="midnightblue" d="M532.25,-133.54C546.89,-122.73 566.56,-108.2 580.93,-97.59"/>
<polygon fill="midnightblue" stroke="midnightblue" points="529.83,-130.98 523.87,-139.73 533.99,-136.61 529.83,-130.98"/>
</g>
<!-- Node8 -->
<g id="node8" class="node">
<title>Node8</title>
<g id="a_node8"><a xlink:href="UserAttackBehaviour_8cpp.html" target="_top" xlink:title=" ">
<polygon fill="none" stroke="black" points="698.5,-67.5 698.5,-97.5 829.5,-97.5 829.5,-67.5 698.5,-67.5"/>
<text text-anchor="start" x="706.5" y="-85.5" font-family="Helvetica,sans-Serif" font-size="10.00">src/Scripts/Heroes</text>
<text text-anchor="middle" x="764" y="-74.5" font-family="Helvetica,sans-Serif" font-size="10.00">/UserAttackBehaviour.cpp</text>
</a>
</g>
</g>
<!-- Node2&#45;&gt;Node8 -->
<g id="edge7" class="edge">
<title>Node2&#45;&gt;Node8</title>
<path fill="none" stroke="midnightblue" d="M555,-137.41C597.67,-126.4 663.2,-109.5 709.49,-97.56"/>
<polygon fill="midnightblue" stroke="midnightblue" points="554.01,-134.05 545.2,-139.94 555.76,-140.83 554.01,-134.05"/>
</g>
<!-- Node9 -->
<g id="node9" class="node">
<title>Node9</title>
<g id="a_node9"><a xlink:href="UserMovementBehaviour_8cpp.html" target="_top" xlink:title=" ">
<polygon fill="none" stroke="black" points="848,-67.5 848,-97.5 996,-97.5 996,-67.5 848,-67.5"/>
<text text-anchor="start" x="856" y="-85.5" font-family="Helvetica,sans-Serif" font-size="10.00">src/Scripts/Heroes</text>
<text text-anchor="middle" x="922" y="-74.5" font-family="Helvetica,sans-Serif" font-size="10.00">/UserMovementBehaviour.cpp</text>
</a>
</g>
</g>
<!-- Node2&#45;&gt;Node9 -->
<g id="edge8" class="edge">
<title>Node2&#45;&gt;Node9</title>
<path fill="none" stroke="midnightblue" d="M579.13,-138.45C645.08,-128.49 748.54,-112.65 838,-98 841.21,-97.47 844.49,-96.93 847.81,-96.38"/>
<polygon fill="midnightblue" stroke="midnightblue" points="578.24,-135.04 568.88,-139.99 579.29,-141.96 578.24,-135.04"/>
</g>
<!-- Node11 -->
<g id="node11" class="node">
<title>Node11</title>
<g id="a_node11"><a xlink:href="LevelSelectionController_8cpp.html" target="_top" xlink:title=" ">
<polygon fill="none" stroke="black" points="1171.5,-67.5 1171.5,-97.5 1318.5,-97.5 1318.5,-67.5 1171.5,-67.5"/>
<text text-anchor="start" x="1179.5" y="-85.5" font-family="Helvetica,sans-Serif" font-size="10.00">src/Controllers/LevelSelection</text>
<text text-anchor="middle" x="1245" y="-74.5" font-family="Helvetica,sans-Serif" font-size="10.00">Controller.cpp</text>
</a>
</g>
</g>
<!-- Node10&#45;&gt;Node11 -->
<g id="edge10" class="edge">
<title>Node10&#45;&gt;Node11</title>
<path fill="none" stroke="midnightblue" d="M1167.5,-129.3C1184.71,-119.12 1205.48,-106.85 1221.18,-97.58"/>
<polygon fill="midnightblue" stroke="midnightblue" points="1165.7,-126.3 1158.87,-134.4 1169.26,-132.32 1165.7,-126.3"/>
</g>
<!-- Node10&#45;&gt;Node12 -->
<g id="edge11" class="edge">
<title>Node10&#45;&gt;Node12</title>
<path fill="none" stroke="midnightblue" d="M1117.59,-126.32C1108.4,-114.6 1097.64,-100.88 1090.82,-92.19"/>
<polygon fill="midnightblue" stroke="midnightblue" points="1115.01,-128.69 1123.93,-134.4 1120.51,-124.37 1115.01,-128.69"/>
</g>
<!-- Node12&#45;&gt;Node4 -->
<g id="edge12" class="edge">
<title>Node12&#45;&gt;Node4</title>
<path fill="none" stroke="midnightblue" d="M1030.7,-71.21C1022.12,-69.7 1013.33,-68.24 1005,-67 873.5,-47.46 719.05,-31.41 631.63,-22.96"/>
<polygon fill="midnightblue" stroke="midnightblue" points="1030.16,-74.67 1040.63,-72.99 1031.4,-67.78 1030.16,-74.67"/>
</g>
<!-- Node13 -->
<g id="node13" class="node">
<title>Node13</title>
<g id="a_node13"><a xlink:href="LevelSelectionScene_8cpp.html" target="_top" xlink:title=" ">
<polygon fill="none" stroke="black" points="1017,-0.5 1017,-30.5 1151,-30.5 1151,-0.5 1017,-0.5"/>
<text text-anchor="start" x="1025" y="-18.5" font-family="Helvetica,sans-Serif" font-size="10.00">src/Scenes/LevelSelection</text>
<text text-anchor="middle" x="1084" y="-7.5" font-family="Helvetica,sans-Serif" font-size="10.00">Scene.cpp</text>
</a>
</g>
</g>
<!-- Node12&#45;&gt;Node13 -->
<g id="edge13" class="edge">
<title>Node12&#45;&gt;Node13</title>
<path fill="none" stroke="midnightblue" d="M1084,-62.41C1084,-52.22 1084,-39.9 1084,-30.59"/>
<polygon fill="midnightblue" stroke="midnightblue" points="1080.5,-62.73 1084,-72.73 1087.5,-62.73 1080.5,-62.73"/>
</g>
<!-- Node14&#45;&gt;Node11 -->
<g id="edge15" class="edge">
<title>Node14&#45;&gt;Node11</title>
<path fill="none" stroke="midnightblue" d="M1294.12,-132.62C1283.41,-121.91 1269.4,-107.9 1259.09,-97.59"/>
<polygon fill="midnightblue" stroke="midnightblue" points="1291.69,-135.14 1301.23,-139.73 1296.64,-130.19 1291.69,-135.14"/>
</g>
<!-- Node15 -->
<g id="node15" class="node">
<title>Node15</title>
<g id="a_node15"><a xlink:href="LevelManager_8cpp.html" target="_top" xlink:title=" ">
<polygon fill="none" stroke="black" points="1336.5,-73 1336.5,-92 1503.5,-92 1503.5,-73 1336.5,-73"/>
<text text-anchor="middle" x="1420" y="-80" font-family="Helvetica,sans-Serif" font-size="10.00">src/Persistence/LevelManager.cpp</text>
</a>
</g>
</g>
<!-- Node14&#45;&gt;Node15 -->
<g id="edge16" class="edge">
<title>Node14&#45;&gt;Node15</title>
<path fill="none" stroke="midnightblue" d="M1333.5,-134.62C1355.29,-121.74 1387.04,-102.98 1405.4,-92.13"/>
<polygon fill="midnightblue" stroke="midnightblue" points="1331.66,-131.63 1324.84,-139.73 1335.22,-137.66 1331.66,-131.63"/>
</g>
</g>
</svg>
