<?xml version="1.0" encoding="UTF-8" standalone="no"?>
<!DOCTYPE svg PUBLIC "-//W3C//DTD SVG 1.1//EN"
 "http://www.w3.org/Graphics/SVG/1.1/DTD/svg11.dtd">
<!-- Generated by graphviz version 2.44.0 ()
 -->
<!-- Title: src/Structs/LevelData.hpp Pages: 1 -->
<!--zoomable 319 -->
<svg id="main" version="1.1" xmlns="http://www.w3.org/2000/svg" xmlns:xlink="http://www.w3.org/1999/xlink" xml:space="preserve" onload="init(evt)">
<style type="text/css"><![CDATA[
.edge:hover path { stroke: red; }
.edge:hover polygon { stroke: red; fill: red; }
]]></style>
<script type="text/javascript"><![CDATA[
var edges = document.getElementsByTagName('g');
if (edges && edges.length) {
  for (var i=0;i<edges.length;i++) {
    if (edges[i].id.substr(0,4)=='edge') {
      edges[i].setAttribute('class','edge');
    }
  }
}
]]></script>
        <defs>
                <circle id="rim" cx="0" cy="0" r="7"/>
                <circle id="rim2" cx="0" cy="0" r="3.5"/>
                <g id="zoomPlus">
                        <use xlink:href="#rim" fill="#404040">
                                <set attributeName="fill" to="#808080" begin="zoomplus.mouseover" end="zoomplus.mouseout"/>
                        </use>
                        <path d="M-4,0h8M0,-4v8" fill="none" stroke="white" stroke-width="1.5" pointer-events="none"/>
                </g>
                <g id="zoomMin">
                        <use xlink:href="#rim" fill="#404040">
                                <set attributeName="fill" to="#808080" begin="zoomminus.mouseover" end="zoomminus.mouseout"/>
                        </use>
                        <path d="M-4,0h8" fill="none" stroke="white" stroke-width="1.5" pointer-events="none"/>
                </g>
                <g id="dirArrow">
                        <path fill="none" stroke="white" stroke-width="1.5" d="M0,-3.0v7 M-2.5,-0.5L0,-3.0L2.5,-0.5"/>
                </g>
               <g id="resetDef">
                       <use xlink:href="#rim2" fill="#404040">
                               <set attributeName="fill" to="#808080" begin="reset.mouseover" end="reset.mouseout"/>
                       </use>
               </g>
        </defs>

<script type="text/javascript">
var viewWidth = 875;
var viewHeight = 319;
var sectionId = 'dynsection-0';
</script>
<script xlink:href="svgpan.js"/>
<svg id="graph" class="graph">
<g id="viewport">
<title>src/Structs/LevelData.hpp</title>
<!-- Node1 -->
<g id="node1" class="node">
<title>Node1</title>
<g id="a_node1"><a xlink:title=" ">
<polygon fill="#bfbfbf" stroke="black" points="89.5,-291.5 89.5,-310.5 219.5,-310.5 219.5,-291.5 89.5,-291.5"/>
<text text-anchor="middle" x="154.5" y="-298.5" font-family="Helvetica,sans-Serif" font-size="10.00">src/Structs/LevelData.hpp</text>
</a>
</g>
</g>
<!-- Node2 -->
<g id="node2" class="node">
<title>Node2</title>
<g id="a_node2"><a xlink:href="WaveData_8hpp.html" target="_top" xlink:title=" ">
<polygon fill="none" stroke="black" points="54.5,-168.5 54.5,-187.5 134.5,-187.5 134.5,-168.5 54.5,-168.5"/>
<text text-anchor="middle" x="94.5" y="-175.5" font-family="Helvetica,sans-Serif" font-size="10.00">WaveData.hpp</text>
</a>
</g>
</g>
<!-- Node1&#45;&gt;Node2 -->
<g id="edge1" class="edge">
<title>Node1&#45;&gt;Node2</title>
<path fill="none" stroke="midnightblue" d="M150.18,-291.3C140.41,-271.59 116.42,-223.21 103.35,-196.84"/>
<polygon fill="midnightblue" stroke="midnightblue" points="106.35,-195.03 98.78,-187.62 100.08,-198.14 106.35,-195.03"/>
</g>
<!-- Node5 -->
<g id="node5" class="node">
<title>Node5</title>
<g id="a_node5"><a xlink:title=" ">
<polygon fill="none" stroke="#bfbfbf" points="0,-112.5 0,-131.5 43,-131.5 43,-112.5 0,-112.5"/>
<text text-anchor="middle" x="21.5" y="-119.5" font-family="Helvetica,sans-Serif" font-size="10.00">queue</text>
</a>
</g>
</g>
<!-- Node1&#45;&gt;Node5 -->
<g id="edge32" class="edge">
<title>Node1&#45;&gt;Node5</title>
<path fill="none" stroke="midnightblue" d="M143.36,-291.31C121.7,-273.88 73.58,-232.52 45.5,-188 36.37,-173.53 29.98,-155.09 26.1,-141.54"/>
<polygon fill="midnightblue" stroke="midnightblue" points="29.39,-140.27 23.43,-131.51 22.62,-142.08 29.39,-140.27"/>
</g>
<!-- Node12 -->
<g id="node12" class="node">
<title>Node12</title>
<g id="a_node12"><a xlink:href="MapNode_8hpp.html" target="_top" xlink:title=" ">
<polygon fill="none" stroke="black" points="638,-168.5 638,-187.5 715,-187.5 715,-168.5 638,-168.5"/>
<text text-anchor="middle" x="676.5" y="-175.5" font-family="Helvetica,sans-Serif" font-size="10.00">MapNode.hpp</text>
</a>
</g>
</g>
<!-- Node1&#45;&gt;Node12 -->
<g id="edge13" class="edge">
<title>Node1&#45;&gt;Node12</title>
<path fill="none" stroke="midnightblue" d="M191.21,-291.49C283.85,-270.02 527.05,-213.64 629.71,-189.85"/>
<polygon fill="midnightblue" stroke="midnightblue" points="630.53,-193.25 639.49,-187.58 628.95,-186.43 630.53,-193.25"/>
</g>
<!-- Node14 -->
<g id="node14" class="node">
<title>Node14</title>
<g id="a_node14"><a xlink:href="HealthBehaviour_8hpp.html" target="_top" xlink:title=" ">
<polygon fill="none" stroke="black" points="164.5,-224.5 164.5,-254.5 292.5,-254.5 292.5,-224.5 164.5,-224.5"/>
<text text-anchor="start" x="172.5" y="-242.5" font-family="Helvetica,sans-Serif" font-size="10.00">../Scripts/Common/Health</text>
<text text-anchor="middle" x="228.5" y="-231.5" font-family="Helvetica,sans-Serif" font-size="10.00">Behaviour.hpp</text>
</a>
</g>
</g>
<!-- Node1&#45;&gt;Node14 -->
<g id="edge18" class="edge">
<title>Node1&#45;&gt;Node14</title>
<path fill="none" stroke="midnightblue" d="M165.1,-291.48C174.94,-283.57 189.96,-271.48 202.92,-261.07"/>
<polygon fill="midnightblue" stroke="midnightblue" points="205.46,-263.52 211.06,-254.52 201.07,-258.06 205.46,-263.52"/>
</g>
<!-- Node3 -->
<g id="node3" class="node">
<title>Node3</title>
<g id="a_node3"><a xlink:title=" ">
<polygon fill="none" stroke="#bfbfbf" points="61,-112.5 61,-131.5 96,-131.5 96,-112.5 61,-112.5"/>
<text text-anchor="middle" x="78.5" y="-119.5" font-family="Helvetica,sans-Serif" font-size="10.00">map</text>
</a>
</g>
</g>
<!-- Node2&#45;&gt;Node3 -->
<g id="edge2" class="edge">
<title>Node2&#45;&gt;Node3</title>
<path fill="none" stroke="midnightblue" d="M91.86,-168.08C89.71,-160.85 86.62,-150.41 83.95,-141.4"/>
<polygon fill="midnightblue" stroke="midnightblue" points="87.29,-140.34 81.09,-131.75 80.58,-142.33 87.29,-140.34"/>
</g>
<!-- Node4 -->
<g id="node4" class="node">
<title>Node4</title>
<g id="a_node4"><a xlink:title=" ">
<polygon fill="none" stroke="#bfbfbf" points="296,-0.5 296,-19.5 347,-19.5 347,-0.5 296,-0.5"/>
<text text-anchor="middle" x="321.5" y="-7.5" font-family="Helvetica,sans-Serif" font-size="10.00">memory</text>
</a>
</g>
</g>
<!-- Node2&#45;&gt;Node4 -->
<g id="edge3" class="edge">
<title>Node2&#45;&gt;Node4</title>
<path fill="none" stroke="midnightblue" d="M97.32,-168.2C105.54,-143.03 130.07,-71.61 148.5,-56 187.35,-23.09 247.47,-13.88 285.63,-11.51"/>
<polygon fill="midnightblue" stroke="midnightblue" points="285.96,-15 295.77,-11.01 285.61,-8.01 285.96,-15"/>
</g>
<!-- Node2&#45;&gt;Node5 -->
<g id="edge4" class="edge">
<title>Node2&#45;&gt;Node5</title>
<path fill="none" stroke="midnightblue" d="M82.77,-168.32C71.66,-160.11 54.76,-147.6 41.52,-137.81"/>
<polygon fill="midnightblue" stroke="midnightblue" points="43.56,-134.97 33.44,-131.83 39.4,-140.59 43.56,-134.97"/>
</g>
<!-- Node6 -->
<g id="node6" class="node">
<title>Node6</title>
<g id="a_node6"><a xlink:href="GameObject_8hpp.html" target="_top" xlink:title=" ">
<polygon fill="none" stroke="black" points="485,-112.5 485,-131.5 574,-131.5 574,-112.5 485,-112.5"/>
<text text-anchor="middle" x="529.5" y="-119.5" font-family="Helvetica,sans-Serif" font-size="10.00">GameObject.hpp</text>
</a>
</g>
</g>
<!-- Node2&#45;&gt;Node6 -->
<g id="edge5" class="edge">
<title>Node2&#45;&gt;Node6</title>
<path fill="none" stroke="midnightblue" d="M134.75,-172.11C202.01,-163.92 341.52,-146.86 459.5,-132 464.34,-131.39 469.36,-130.75 474.4,-130.11"/>
<polygon fill="midnightblue" stroke="midnightblue" points="475.22,-133.54 484.69,-128.8 474.33,-126.59 475.22,-133.54"/>
</g>
<!-- Node6&#45;&gt;Node4 -->
<g id="edge12" class="edge">
<title>Node6&#45;&gt;Node4</title>
<path fill="none" stroke="midnightblue" d="M529.57,-112.46C529.2,-98.55 526.35,-71.07 510.5,-56 488.75,-35.32 405.92,-21.65 357.43,-15.23"/>
<polygon fill="midnightblue" stroke="midnightblue" points="357.72,-11.74 347.35,-13.94 356.82,-18.68 357.72,-11.74"/>
</g>
<!-- Node7 -->
<g id="node7" class="node">
<title>Node7</title>
<g id="a_node7"><a xlink:href="Component_8hpp.html" target="_top" xlink:title=" ">
<polygon fill="none" stroke="black" points="244.5,-56.5 244.5,-75.5 328.5,-75.5 328.5,-56.5 244.5,-56.5"/>
<text text-anchor="middle" x="286.5" y="-63.5" font-family="Helvetica,sans-Serif" font-size="10.00">Component.hpp</text>
</a>
</g>
</g>
<!-- Node6&#45;&gt;Node7 -->
<g id="edge6" class="edge">
<title>Node6&#45;&gt;Node7</title>
<path fill="none" stroke="midnightblue" d="M491,-112.44C448.69,-103.04 380.68,-87.93 334.83,-77.74"/>
<polygon fill="midnightblue" stroke="midnightblue" points="335.35,-74.27 324.82,-75.52 333.83,-81.1 335.35,-74.27"/>
</g>
<!-- Node8 -->
<g id="node8" class="node">
<title>Node8</title>
<g id="a_node8"><a xlink:href="Transform_8hpp.html" target="_top" xlink:title=" ">
<polygon fill="none" stroke="black" points="558,-56.5 558,-75.5 637,-75.5 637,-56.5 558,-56.5"/>
<text text-anchor="middle" x="597.5" y="-63.5" font-family="Helvetica,sans-Serif" font-size="10.00">Transform.hpp</text>
</a>
</g>
</g>
<!-- Node6&#45;&gt;Node8 -->
<g id="edge8" class="edge">
<title>Node6&#45;&gt;Node8</title>
<path fill="none" stroke="midnightblue" d="M540.43,-112.32C550.67,-104.18 566.22,-91.84 578.5,-82.09"/>
<polygon fill="midnightblue" stroke="midnightblue" points="580.72,-84.79 586.38,-75.83 576.37,-79.31 580.72,-84.79"/>
</g>
<!-- Node10 -->
<g id="node10" class="node">
<title>Node10</title>
<g id="a_node10"><a xlink:title=" ">
<polygon fill="none" stroke="#bfbfbf" points="460,-56.5 460,-75.5 501,-75.5 501,-56.5 460,-56.5"/>
<text text-anchor="middle" x="480.5" y="-63.5" font-family="Helvetica,sans-Serif" font-size="10.00">string</text>
</a>
</g>
</g>
<!-- Node6&#45;&gt;Node10 -->
<g id="edge10" class="edge">
<title>Node6&#45;&gt;Node10</title>
<path fill="none" stroke="midnightblue" d="M521.41,-112.08C514.34,-104.3 503.91,-92.8 495.35,-83.37"/>
<polygon fill="midnightblue" stroke="midnightblue" points="497.75,-80.8 488.44,-75.75 492.57,-85.51 497.75,-80.8"/>
</g>
<!-- Node11 -->
<g id="node11" class="node">
<title>Node11</title>
<g id="a_node11"><a xlink:title=" ">
<polygon fill="none" stroke="#bfbfbf" points="654.5,-56.5 654.5,-75.5 698.5,-75.5 698.5,-56.5 654.5,-56.5"/>
<text text-anchor="middle" x="676.5" y="-63.5" font-family="Helvetica,sans-Serif" font-size="10.00">vector</text>
</a>
</g>
</g>
<!-- Node6&#45;&gt;Node11 -->
<g id="edge11" class="edge">
<title>Node6&#45;&gt;Node11</title>
<path fill="none" stroke="midnightblue" d="M552.79,-112.44C577.6,-103.33 617.01,-88.85 644.67,-78.69"/>
<polygon fill="midnightblue" stroke="midnightblue" points="646.1,-81.9 654.28,-75.16 643.69,-75.33 646.1,-81.9"/>
</g>
<!-- Node7&#45;&gt;Node4 -->
<g id="edge7" class="edge">
<title>Node7&#45;&gt;Node4</title>
<path fill="none" stroke="midnightblue" d="M292.28,-56.08C297.17,-48.53 304.33,-37.49 310.33,-28.23"/>
<polygon fill="midnightblue" stroke="midnightblue" points="313.33,-30.05 315.83,-19.75 307.45,-26.24 313.33,-30.05"/>
</g>
<!-- Node9 -->
<g id="node9" class="node">
<title>Node9</title>
<g id="a_node9"><a xlink:href="Point_8hpp.html" target="_top" xlink:title=" ">
<polygon fill="none" stroke="black" points="569,-0.5 569,-19.5 626,-19.5 626,-0.5 569,-0.5"/>
<text text-anchor="middle" x="597.5" y="-7.5" font-family="Helvetica,sans-Serif" font-size="10.00">Point.hpp</text>
</a>
</g>
</g>
<!-- Node8&#45;&gt;Node9 -->
<g id="edge9" class="edge">
<title>Node8&#45;&gt;Node9</title>
<path fill="none" stroke="midnightblue" d="M597.5,-56.08C597.5,-49.01 597.5,-38.86 597.5,-29.99"/>
<polygon fill="midnightblue" stroke="midnightblue" points="601,-29.75 597.5,-19.75 594,-29.75 601,-29.75"/>
</g>
<!-- Node12&#45;&gt;Node4 -->
<g id="edge15" class="edge">
<title>Node12&#45;&gt;Node4</title>
<path fill="none" stroke="midnightblue" d="M683.22,-168.46C699.4,-146.82 737.06,-89.2 707.5,-56 684.39,-30.04 448.33,-16.71 357.16,-12.5"/>
<polygon fill="midnightblue" stroke="midnightblue" points="357.18,-9 347.03,-12.05 356.87,-15.99 357.18,-9"/>
</g>
<!-- Node12&#45;&gt;Node6 -->
<g id="edge16" class="edge">
<title>Node12&#45;&gt;Node6</title>
<path fill="none" stroke="midnightblue" d="M653.21,-168.44C628.69,-159.44 589.9,-145.19 562.3,-135.05"/>
<polygon fill="midnightblue" stroke="midnightblue" points="563.28,-131.68 552.68,-131.52 560.86,-138.25 563.28,-131.68"/>
</g>
<!-- Node12&#45;&gt;Node11 -->
<g id="edge14" class="edge">
<title>Node12&#45;&gt;Node11</title>
<path fill="none" stroke="midnightblue" d="M676.5,-168.37C676.5,-150.62 676.5,-109.67 676.5,-85.6"/>
<polygon fill="midnightblue" stroke="midnightblue" points="680,-85.59 676.5,-75.59 673,-85.59 680,-85.59"/>
</g>
<!-- Node13 -->
<g id="node13" class="node">
<title>Node13</title>
<g id="a_node13"><a xlink:href="TileType_8hpp.html" target="_top" xlink:title=" ">
<polygon fill="none" stroke="black" points="754.5,-112.5 754.5,-131.5 866.5,-131.5 866.5,-112.5 754.5,-112.5"/>
<text text-anchor="middle" x="810.5" y="-119.5" font-family="Helvetica,sans-Serif" font-size="10.00">../Enums/TileType.hpp</text>
</a>
</g>
</g>
<!-- Node12&#45;&gt;Node13 -->
<g id="edge17" class="edge">
<title>Node12&#45;&gt;Node13</title>
<path fill="none" stroke="midnightblue" d="M697.73,-168.44C719.88,-159.52 754.82,-145.44 779.94,-135.32"/>
<polygon fill="midnightblue" stroke="midnightblue" points="781.4,-138.5 789.37,-131.52 778.78,-132.01 781.4,-138.5"/>
</g>
<!-- Node14&#45;&gt;Node4 -->
<g id="edge23" class="edge">
<title>Node14&#45;&gt;Node4</title>
<path fill="none" stroke="midnightblue" d="M209.69,-224.37C199.23,-215.29 187.2,-202.49 181.5,-188 169.14,-156.57 168.86,-143.32 181.5,-112 199.8,-66.65 251.64,-38.08 286.84,-23.32"/>
<polygon fill="midnightblue" stroke="midnightblue" points="288.31,-26.5 296.28,-19.53 285.7,-20.01 288.31,-26.5"/>
</g>
<!-- Node15 -->
<g id="node15" class="node">
<title>Node15</title>
<g id="a_node15"><a xlink:href="BehaviourScript_8hpp.html" target="_top" xlink:title=" ">
<polygon fill="none" stroke="black" points="190.5,-168.5 190.5,-187.5 294.5,-187.5 294.5,-168.5 190.5,-168.5"/>
<text text-anchor="middle" x="242.5" y="-175.5" font-family="Helvetica,sans-Serif" font-size="10.00">BehaviourScript.hpp</text>
</a>
</g>
</g>
<!-- Node14&#45;&gt;Node15 -->
<g id="edge19" class="edge">
<title>Node14&#45;&gt;Node15</title>
<path fill="none" stroke="midnightblue" d="M231.82,-224.4C233.71,-216.38 236.09,-206.23 238.13,-197.57"/>
<polygon fill="midnightblue" stroke="midnightblue" points="241.58,-198.19 240.46,-187.66 234.77,-196.59 241.58,-198.19"/>
</g>
<!-- Node17 -->
<g id="node17" class="node">
<title>Node17</title>
<g id="a_node17"><a xlink:href="Animator_8hpp.html" target="_top" xlink:title=" ">
<polygon fill="none" stroke="black" points="325.5,-168.5 325.5,-187.5 399.5,-187.5 399.5,-168.5 325.5,-168.5"/>
<text text-anchor="middle" x="362.5" y="-175.5" font-family="Helvetica,sans-Serif" font-size="10.00">Animator.hpp</text>
</a>
</g>
</g>
<!-- Node14&#45;&gt;Node17 -->
<g id="edge24" class="edge">
<title>Node14&#45;&gt;Node17</title>
<path fill="none" stroke="midnightblue" d="M260.26,-224.4C282.54,-214.51 312.09,-201.38 333.69,-191.79"/>
<polygon fill="midnightblue" stroke="midnightblue" points="335.28,-194.91 343,-187.66 332.44,-188.52 335.28,-194.91"/>
</g>
<!-- Node15&#45;&gt;Node7 -->
<g id="edge20" class="edge">
<title>Node15&#45;&gt;Node7</title>
<path fill="none" stroke="midnightblue" d="M248.08,-168.33C253.6,-159.47 261.99,-145.19 267.5,-132 273.87,-116.74 278.98,-98.64 282.28,-85.41"/>
<polygon fill="midnightblue" stroke="midnightblue" points="285.7,-86.16 284.63,-75.62 278.9,-84.53 285.7,-86.16"/>
</g>
<!-- Node16 -->
<g id="node16" class="node">
<title>Node16</title>
<g id="a_node16"><a xlink:href="Collider_8hpp.html" target="_top" xlink:title=" ">
<polygon fill="none" stroke="black" points="191,-112.5 191,-131.5 258,-131.5 258,-112.5 191,-112.5"/>
<text text-anchor="middle" x="224.5" y="-119.5" font-family="Helvetica,sans-Serif" font-size="10.00">Collider.hpp</text>
</a>
</g>
</g>
<!-- Node15&#45;&gt;Node16 -->
<g id="edge21" class="edge">
<title>Node15&#45;&gt;Node16</title>
<path fill="none" stroke="midnightblue" d="M239.53,-168.08C237.12,-160.85 233.64,-150.41 230.63,-141.4"/>
<polygon fill="midnightblue" stroke="midnightblue" points="233.9,-140.13 227.42,-131.75 227.26,-142.34 233.9,-140.13"/>
</g>
<!-- Node16&#45;&gt;Node7 -->
<g id="edge22" class="edge">
<title>Node16&#45;&gt;Node7</title>
<path fill="none" stroke="midnightblue" d="M234.46,-112.32C243.63,-104.34 257.44,-92.31 268.53,-82.65"/>
<polygon fill="midnightblue" stroke="midnightblue" points="271.12,-85.04 276.36,-75.83 266.52,-79.76 271.12,-85.04"/>
</g>
<!-- Node17&#45;&gt;Node4 -->
<g id="edge31" class="edge">
<title>Node17&#45;&gt;Node4</title>
<path fill="none" stroke="midnightblue" d="M361.14,-168.39C357.9,-148.43 349.11,-97.52 337.5,-56 334.98,-47.01 331.59,-37.21 328.57,-29.07"/>
<polygon fill="midnightblue" stroke="midnightblue" points="331.76,-27.61 324.92,-19.51 325.22,-30.1 331.76,-27.61"/>
</g>
<!-- Node17&#45;&gt;Node7 -->
<g id="edge25" class="edge">
<title>Node17&#45;&gt;Node7</title>
<path fill="none" stroke="midnightblue" d="M356.54,-168.37C343.99,-150.22 314.69,-107.8 298.24,-83.99"/>
<polygon fill="midnightblue" stroke="midnightblue" points="301,-81.83 292.44,-75.59 295.24,-85.81 301,-81.83"/>
</g>
<!-- Node17&#45;&gt;Node11 -->
<g id="edge30" class="edge">
<title>Node17&#45;&gt;Node11</title>
<path fill="none" stroke="midnightblue" d="M399.86,-174.07C444.95,-169.48 522.33,-158.25 583.5,-132 612.43,-119.58 641.49,-97.33 659.24,-82.37"/>
<polygon fill="midnightblue" stroke="midnightblue" points="661.71,-84.86 666.99,-75.68 657.14,-79.56 661.71,-84.86"/>
</g>
<!-- Node18 -->
<g id="node18" class="node">
<title>Node18</title>
<g id="a_node18"><a xlink:href="Sprite_8hpp.html" target="_top" xlink:title=" ">
<polygon fill="none" stroke="black" points="390.5,-112.5 390.5,-131.5 450.5,-131.5 450.5,-112.5 390.5,-112.5"/>
<text text-anchor="middle" x="420.5" y="-119.5" font-family="Helvetica,sans-Serif" font-size="10.00">Sprite.hpp</text>
</a>
</g>
</g>
<!-- Node17&#45;&gt;Node18 -->
<g id="edge26" class="edge">
<title>Node17&#45;&gt;Node18</title>
<path fill="none" stroke="midnightblue" d="M371.82,-168.32C380.39,-160.34 393.31,-148.31 403.69,-138.65"/>
<polygon fill="midnightblue" stroke="midnightblue" points="406.08,-141.21 411.01,-131.83 401.31,-136.09 406.08,-141.21"/>
</g>
<!-- Node18&#45;&gt;Node7 -->
<g id="edge27" class="edge">
<title>Node18&#45;&gt;Node7</title>
<path fill="none" stroke="midnightblue" d="M399.27,-112.44C377.12,-103.52 342.18,-89.44 317.06,-79.32"/>
<polygon fill="midnightblue" stroke="midnightblue" points="318.22,-76.01 307.63,-75.52 315.6,-82.5 318.22,-76.01"/>
</g>
<!-- Node18&#45;&gt;Node10 -->
<g id="edge29" class="edge">
<title>Node18&#45;&gt;Node10</title>
<path fill="none" stroke="midnightblue" d="M430.14,-112.32C439.01,-104.34 452.37,-92.31 463.11,-82.65"/>
<polygon fill="midnightblue" stroke="midnightblue" points="465.59,-85.13 470.68,-75.83 460.91,-79.92 465.59,-85.13"/>
</g>
<!-- Node19 -->
<g id="node19" class="node">
<title>Node19</title>
<g id="a_node19"><a xlink:href="Color_8hpp.html" target="_top" xlink:title=" ">
<polygon fill="none" stroke="black" points="385,-56.5 385,-75.5 442,-75.5 442,-56.5 385,-56.5"/>
<text text-anchor="middle" x="413.5" y="-63.5" font-family="Helvetica,sans-Serif" font-size="10.00">Color.hpp</text>
</a>
</g>
</g>
<!-- Node18&#45;&gt;Node19 -->
<g id="edge28" class="edge">
<title>Node18&#45;&gt;Node19</title>
<path fill="none" stroke="midnightblue" d="M419.34,-112.08C418.42,-104.93 417.08,-94.64 415.92,-85.69"/>
<polygon fill="midnightblue" stroke="midnightblue" points="419.39,-85.22 414.63,-75.75 412.45,-86.12 419.39,-85.22"/>
</g>
</g>
</svg>
        <g id="navigator" transform="translate(0 0)" fill="#404254">
                <rect fill="#f2f5e9" fill-opacity="0.5" stroke="#606060" stroke-width=".5" x="0" y="0" width="60" height="60"/>
                <use id="zoomplus" xlink:href="#zoomPlus" x="17" y="9" onmousedown="handleZoom(evt,'in')"/>
                <use id="zoomminus" xlink:href="#zoomMin" x="42" y="9" onmousedown="handleZoom(evt,'out')"/>
                <use id="reset" xlink:href="#resetDef" x="30" y="36" onmousedown="handleReset()"/>
                <g id="arrowUp" xlink:href="#dirArrow" transform="translate(30 24)" onmousedown="handlePan(0,-1)">
                  <use xlink:href="#rim" fill="#404040">
                        <set attributeName="fill" to="#808080" begin="arrowUp.mouseover" end="arrowUp.mouseout"/>
                  </use>
                  <path fill="none" stroke="white" stroke-width="1.5" d="M0,-3.0v7 M-2.5,-0.5L0,-3.0L2.5,-0.5"/>
                </g>
                <g id="arrowRight" xlink:href="#dirArrow" transform="rotate(90) translate(36 -43)" onmousedown="handlePan(1,0)">
                  <use xlink:href="#rim" fill="#404040">
                        <set attributeName="fill" to="#808080" begin="arrowRight.mouseover" end="arrowRight.mouseout"/>
                  </use>
                  <path fill="none" stroke="white" stroke-width="1.5" d="M0,-3.0v7 M-2.5,-0.5L0,-3.0L2.5,-0.5"/>
                </g>
                <g id="arrowDown" xlink:href="#dirArrow" transform="rotate(180) translate(-30 -48)" onmousedown="handlePan(0,1)">
                  <use xlink:href="#rim" fill="#404040">
                        <set attributeName="fill" to="#808080" begin="arrowDown.mouseover" end="arrowDown.mouseout"/>
                  </use>
                  <path fill="none" stroke="white" stroke-width="1.5" d="M0,-3.0v7 M-2.5,-0.5L0,-3.0L2.5,-0.5"/>
                </g>
                <g id="arrowLeft" xlink:href="#dirArrow" transform="rotate(270) translate(-36 17)" onmousedown="handlePan(-1,0)">
                  <use xlink:href="#rim" fill="#404040">
                        <set attributeName="fill" to="#808080" begin="arrowLeft.mouseover" end="arrowLeft.mouseout"/>
                  </use>
                  <path fill="none" stroke="white" stroke-width="1.5" d="M0,-3.0v7 M-2.5,-0.5L0,-3.0L2.5,-0.5"/>
                </g>
        </g>
        <svg viewBox="0 0 15 15" width="100%" height="30px" preserveAspectRatio="xMaxYMin meet">
         <g id="arrow_out" transform="scale(0.3 0.3)">
          <a xlink:href="LevelData_8hpp__incl_org.svg" target="_base">
           <rect id="button" ry="5" rx="5" y="6" x="6" height="38" width="38"
                fill="#f2f5e9" fill-opacity="0.5" stroke="#606060" stroke-width="1.0"/>
           <path id="arrow"
             d="M 11.500037,31.436501 C 11.940474,20.09759 22.043105,11.32322 32.158766,21.979434 L 37.068811,17.246167 C 37.068811,17.246167 37.088388,32 37.088388,32 L 22.160133,31.978069 C 22.160133,31.978069 26.997745,27.140456 26.997745,27.140456 C 18.528582,18.264221 13.291696,25.230495 11.500037,31.436501 z"
             style="fill:#404040;"/>
          </a>
         </g>
        </svg>
</svg>
