<?xml version="1.0" encoding="UTF-8" standalone="no"?>
<!DOCTYPE svg PUBLIC "-//W3C//DTD SVG 1.1//EN"
 "http://www.w3.org/Graphics/SVG/1.1/DTD/svg11.dtd">
<!-- Generated by graphviz version 2.44.0 ()
 -->
<!-- Title: src/Persistence/LevelManager.cpp Pages: 1 -->
<svg width="566pt" height="308pt"
 viewBox="0.00 0.00 566.00 308.00" xmlns="http://www.w3.org/2000/svg" xmlns:xlink="http://www.w3.org/1999/xlink">
<g id="graph0" class="graph" transform="scale(1 1) rotate(0) translate(4 304)">
<title>src/Persistence/LevelManager.cpp</title>
<!-- Node1 -->
<g id="node1" class="node">
<title>Node1</title>
<g id="a_node1"><a xlink:title=" ">
<polygon fill="#bfbfbf" stroke="black" points="335.5,-280.5 335.5,-299.5 502.5,-299.5 502.5,-280.5 335.5,-280.5"/>
<text text-anchor="middle" x="419" y="-287.5" font-family="Helvetica,sans-Serif" font-size="10.00">src/Persistence/LevelManager.cpp</text>
</a>
</g>
</g>
<!-- Node2 -->
<g id="node2" class="node">
<title>Node2</title>
<g id="a_node2"><a xlink:href="LevelManager_8hpp.html" target="_top" xlink:title=" ">
<polygon fill="none" stroke="black" points="181,-224.5 181,-243.5 277,-243.5 277,-224.5 181,-224.5"/>
<text text-anchor="middle" x="229" y="-231.5" font-family="Helvetica,sans-Serif" font-size="10.00">LevelManager.hpp</text>
</a>
</g>
</g>
<!-- Node1&#45;&gt;Node2 -->
<g id="edge1" class="edge">
<title>Node1&#45;&gt;Node2</title>
<path fill="none" stroke="midnightblue" d="M388.89,-280.44C356.37,-271.2 304.42,-256.44 268.61,-246.26"/>
<polygon fill="midnightblue" stroke="midnightblue" points="269.54,-242.88 258.97,-243.52 267.63,-249.62 269.54,-242.88"/>
</g>
<!-- Node11 -->
<g id="node11" class="node">
<title>Node11</title>
<g id="a_node11"><a xlink:href="FileManager_8hpp.html" target="_top" xlink:title=" ">
<polygon fill="none" stroke="black" points="352,-168.5 352,-187.5 486,-187.5 486,-168.5 352,-168.5"/>
<text text-anchor="middle" x="419" y="-175.5" font-family="Helvetica,sans-Serif" font-size="10.00">Managers/FileManager.hpp</text>
</a>
</g>
</g>
<!-- Node1&#45;&gt;Node11 -->
<g id="edge16" class="edge">
<title>Node1&#45;&gt;Node11</title>
<path fill="none" stroke="midnightblue" d="M419,-280.37C419,-262.62 419,-221.67 419,-197.6"/>
<polygon fill="midnightblue" stroke="midnightblue" points="422.5,-197.59 419,-187.59 415.5,-197.59 422.5,-197.59"/>
</g>
<!-- Node13 -->
<g id="node13" class="node">
<title>Node13</title>
<g id="a_node13"><a xlink:href="JsonFacade_8hpp.html" target="_top" xlink:title=" ">
<polygon fill="none" stroke="black" points="470,-224.5 470,-243.5 558,-243.5 558,-224.5 470,-224.5"/>
<text text-anchor="middle" x="514" y="-231.5" font-family="Helvetica,sans-Serif" font-size="10.00">JsonFacade.hpp</text>
</a>
</g>
</g>
<!-- Node1&#45;&gt;Node13 -->
<g id="edge21" class="edge">
<title>Node1&#45;&gt;Node13</title>
<path fill="none" stroke="midnightblue" d="M434.26,-280.32C449.22,-271.82 472.25,-258.73 489.73,-248.8"/>
<polygon fill="midnightblue" stroke="midnightblue" points="491.81,-251.64 498.77,-243.65 488.35,-245.55 491.81,-251.64"/>
</g>
<!-- Node3 -->
<g id="node3" class="node">
<title>Node3</title>
<g id="a_node3"><a xlink:href="LevelWithTiles_8hpp.html" target="_top" xlink:title=" ">
<polygon fill="none" stroke="black" points="59.5,-168.5 59.5,-187.5 200.5,-187.5 200.5,-168.5 59.5,-168.5"/>
<text text-anchor="middle" x="130" y="-175.5" font-family="Helvetica,sans-Serif" font-size="10.00">../Structs/LevelWithTiles.hpp</text>
</a>
</g>
</g>
<!-- Node2&#45;&gt;Node3 -->
<g id="edge2" class="edge">
<title>Node2&#45;&gt;Node3</title>
<path fill="none" stroke="midnightblue" d="M213.09,-224.32C197.36,-215.74 173.06,-202.49 154.79,-192.52"/>
<polygon fill="midnightblue" stroke="midnightblue" points="156.32,-189.37 145.87,-187.65 152.97,-195.52 156.32,-189.37"/>
</g>
<!-- Node4 -->
<g id="node4" class="node">
<title>Node4</title>
<g id="a_node4"><a xlink:href="Level_8hpp.html" target="_top" xlink:title=" ">
<polygon fill="none" stroke="black" points="104.5,-112.5 104.5,-131.5 163.5,-131.5 163.5,-112.5 104.5,-112.5"/>
<text text-anchor="middle" x="134" y="-119.5" font-family="Helvetica,sans-Serif" font-size="10.00">Level.hpp</text>
</a>
</g>
</g>
<!-- Node2&#45;&gt;Node4 -->
<g id="edge13" class="edge">
<title>Node2&#45;&gt;Node4</title>
<path fill="none" stroke="midnightblue" d="M180.78,-227.53C133.4,-221.05 65.96,-208.47 50,-188 32.5,-165.56 66.62,-146.56 96.48,-135"/>
<polygon fill="midnightblue" stroke="midnightblue" points="97.78,-138.25 105.96,-131.52 95.36,-131.68 97.78,-138.25"/>
</g>
<!-- Node5 -->
<g id="node5" class="node">
<title>Node5</title>
<g id="a_node5"><a xlink:title=" ">
<polygon fill="none" stroke="#bfbfbf" points="322.5,-0.5 322.5,-19.5 363.5,-19.5 363.5,-0.5 322.5,-0.5"/>
<text text-anchor="middle" x="343" y="-7.5" font-family="Helvetica,sans-Serif" font-size="10.00">string</text>
</a>
</g>
</g>
<!-- Node2&#45;&gt;Node5 -->
<g id="edge14" class="edge">
<title>Node2&#45;&gt;Node5</title>
<path fill="none" stroke="midnightblue" d="M237.26,-224.25C252.62,-207.55 285.74,-169.47 305,-132 322.55,-97.85 333.82,-54.08 339.23,-29.64"/>
<polygon fill="midnightblue" stroke="midnightblue" points="342.71,-30.11 341.35,-19.6 335.86,-28.66 342.71,-30.11"/>
</g>
<!-- Node6 -->
<g id="node6" class="node">
<title>Node6</title>
<g id="a_node6"><a xlink:title=" ">
<polygon fill="none" stroke="#bfbfbf" points="252.5,-56.5 252.5,-75.5 287.5,-75.5 287.5,-56.5 252.5,-56.5"/>
<text text-anchor="middle" x="270" y="-63.5" font-family="Helvetica,sans-Serif" font-size="10.00">map</text>
</a>
</g>
</g>
<!-- Node2&#45;&gt;Node6 -->
<g id="edge15" class="edge">
<title>Node2&#45;&gt;Node6</title>
<path fill="none" stroke="midnightblue" d="M228.77,-224.22C228.49,-203.88 229.31,-152.24 243,-112 246.33,-102.2 252.02,-92.24 257.32,-84.19"/>
<polygon fill="midnightblue" stroke="midnightblue" points="260.36,-85.95 263.2,-75.74 254.61,-81.95 260.36,-85.95"/>
</g>
<!-- Node3&#45;&gt;Node4 -->
<g id="edge3" class="edge">
<title>Node3&#45;&gt;Node4</title>
<path fill="none" stroke="midnightblue" d="M130.66,-168.08C131.18,-161.01 131.94,-150.86 132.59,-141.99"/>
<polygon fill="midnightblue" stroke="midnightblue" points="136.1,-141.98 133.35,-131.75 129.12,-141.47 136.1,-141.98"/>
</g>
<!-- Node9 -->
<g id="node9" class="node">
<title>Node9</title>
<g id="a_node9"><a xlink:href="Tile_8hpp.html" target="_top" xlink:title=" ">
<polygon fill="none" stroke="black" points="0,-56.5 0,-75.5 50,-75.5 50,-56.5 0,-56.5"/>
<text text-anchor="middle" x="25" y="-63.5" font-family="Helvetica,sans-Serif" font-size="10.00">Tile.hpp</text>
</a>
</g>
</g>
<!-- Node3&#45;&gt;Node9 -->
<g id="edge10" class="edge">
<title>Node3&#45;&gt;Node9</title>
<path fill="none" stroke="midnightblue" d="M121.76,-168.37C104.2,-149.97 62.87,-106.67 40.32,-83.05"/>
<polygon fill="midnightblue" stroke="midnightblue" points="42.64,-80.41 33.2,-75.59 37.57,-85.24 42.64,-80.41"/>
</g>
<!-- Node10 -->
<g id="node10" class="node">
<title>Node10</title>
<g id="a_node10"><a xlink:title=" ">
<polygon fill="none" stroke="#bfbfbf" points="252,-112.5 252,-131.5 296,-131.5 296,-112.5 252,-112.5"/>
<text text-anchor="middle" x="274" y="-119.5" font-family="Helvetica,sans-Serif" font-size="10.00">vector</text>
</a>
</g>
</g>
<!-- Node3&#45;&gt;Node10 -->
<g id="edge12" class="edge">
<title>Node3&#45;&gt;Node10</title>
<path fill="none" stroke="midnightblue" d="M152.82,-168.44C176.97,-159.39 215.28,-145.02 242.35,-134.87"/>
<polygon fill="midnightblue" stroke="midnightblue" points="243.63,-138.13 251.76,-131.34 241.17,-131.57 243.63,-138.13"/>
</g>
<!-- Node4&#45;&gt;Node5 -->
<g id="edge4" class="edge">
<title>Node4&#45;&gt;Node5</title>
<path fill="none" stroke="midnightblue" d="M147.62,-112.31C168.15,-99.36 208.39,-74.55 244,-56 266.78,-44.14 293.3,-32.18 313.15,-23.57"/>
<polygon fill="midnightblue" stroke="midnightblue" points="314.79,-26.68 322.6,-19.51 312.03,-20.25 314.79,-26.68"/>
</g>
<!-- Node4&#45;&gt;Node6 -->
<g id="edge5" class="edge">
<title>Node4&#45;&gt;Node6</title>
<path fill="none" stroke="midnightblue" d="M155.55,-112.44C179.22,-103.04 217.28,-87.93 242.94,-77.74"/>
<polygon fill="midnightblue" stroke="midnightblue" points="244.44,-80.91 252.44,-73.97 241.86,-74.41 244.44,-80.91"/>
</g>
<!-- Node7 -->
<g id="node7" class="node">
<title>Node7</title>
<g id="a_node7"><a xlink:href="TileType_8hpp.html" target="_top" xlink:title=" ">
<polygon fill="none" stroke="black" points="22,-0.5 22,-19.5 134,-19.5 134,-0.5 22,-0.5"/>
<text text-anchor="middle" x="78" y="-7.5" font-family="Helvetica,sans-Serif" font-size="10.00">../Enums/TileType.hpp</text>
</a>
</g>
</g>
<!-- Node4&#45;&gt;Node7 -->
<g id="edge6" class="edge">
<title>Node4&#45;&gt;Node7</title>
<path fill="none" stroke="midnightblue" d="M125.46,-112.41C117.37,-103.84 105.39,-89.97 98,-76 90.24,-61.32 84.97,-43.16 81.79,-29.76"/>
<polygon fill="midnightblue" stroke="midnightblue" points="85.17,-28.84 79.61,-19.82 78.34,-30.34 85.17,-28.84"/>
</g>
<!-- Node8 -->
<g id="node8" class="node">
<title>Node8</title>
<g id="a_node8"><a xlink:href="TilesAmount_8hpp.html" target="_top" xlink:title=" ">
<polygon fill="none" stroke="black" points="106.5,-56.5 106.5,-75.5 195.5,-75.5 195.5,-56.5 106.5,-56.5"/>
<text text-anchor="middle" x="151" y="-63.5" font-family="Helvetica,sans-Serif" font-size="10.00">TilesAmount.hpp</text>
</a>
</g>
</g>
<!-- Node4&#45;&gt;Node8 -->
<g id="edge7" class="edge">
<title>Node4&#45;&gt;Node8</title>
<path fill="none" stroke="midnightblue" d="M136.81,-112.08C139.08,-104.85 142.37,-94.41 145.21,-85.4"/>
<polygon fill="midnightblue" stroke="midnightblue" points="148.58,-86.34 148.25,-75.75 141.9,-84.24 148.58,-86.34"/>
</g>
<!-- Node8&#45;&gt;Node5 -->
<g id="edge8" class="edge">
<title>Node8&#45;&gt;Node5</title>
<path fill="none" stroke="midnightblue" d="M181.42,-56.44C217.32,-46.35 276.65,-29.66 312.56,-19.56"/>
<polygon fill="midnightblue" stroke="midnightblue" points="313.78,-22.85 322.46,-16.78 311.89,-16.11 313.78,-22.85"/>
</g>
<!-- Node8&#45;&gt;Node7 -->
<g id="edge9" class="edge">
<title>Node8&#45;&gt;Node7</title>
<path fill="none" stroke="midnightblue" d="M139.27,-56.32C128.16,-48.11 111.26,-35.6 98.02,-25.81"/>
<polygon fill="midnightblue" stroke="midnightblue" points="100.06,-22.97 89.94,-19.83 95.9,-28.59 100.06,-22.97"/>
</g>
<!-- Node9&#45;&gt;Node7 -->
<g id="edge11" class="edge">
<title>Node9&#45;&gt;Node7</title>
<path fill="none" stroke="midnightblue" d="M33.75,-56.08C41.47,-48.22 52.9,-36.57 62.22,-27.08"/>
<polygon fill="midnightblue" stroke="midnightblue" points="64.9,-29.34 69.41,-19.75 59.91,-24.44 64.9,-29.34"/>
</g>
<!-- Node11&#45;&gt;Node5 -->
<g id="edge19" class="edge">
<title>Node11&#45;&gt;Node5</title>
<path fill="none" stroke="midnightblue" d="M410.25,-168.43C401.96,-159.88 389.66,-146.02 382,-132 363.55,-98.22 352.14,-54.32 346.74,-29.75"/>
<polygon fill="midnightblue" stroke="midnightblue" points="350.1,-28.73 344.62,-19.66 343.25,-30.16 350.1,-28.73"/>
</g>
<!-- Node11&#45;&gt;Node10 -->
<g id="edge20" class="edge">
<title>Node11&#45;&gt;Node10</title>
<path fill="none" stroke="midnightblue" d="M396.02,-168.44C371.7,-159.39 333.13,-145.02 305.87,-134.87"/>
<polygon fill="midnightblue" stroke="midnightblue" points="306.98,-131.55 296.39,-131.34 304.54,-138.11 306.98,-131.55"/>
</g>
<!-- Node12 -->
<g id="node12" class="node">
<title>Node12</title>
<g id="a_node12"><a xlink:href="libs_2spic-engine_2includes_2spic-api-headers_2Structs_2FolderFile_8hpp.html" target="_top" xlink:title=" ">
<polygon fill="none" stroke="black" points="390.5,-112.5 390.5,-131.5 509.5,-131.5 509.5,-112.5 390.5,-112.5"/>
<text text-anchor="middle" x="450" y="-119.5" font-family="Helvetica,sans-Serif" font-size="10.00">../Structs/FolderFile.hpp</text>
</a>
</g>
</g>
<!-- Node11&#45;&gt;Node12 -->
<g id="edge17" class="edge">
<title>Node11&#45;&gt;Node12</title>
<path fill="none" stroke="midnightblue" d="M424.12,-168.08C428.41,-160.61 434.66,-149.72 439.94,-140.52"/>
<polygon fill="midnightblue" stroke="midnightblue" points="443.03,-142.17 444.98,-131.75 436.96,-138.68 443.03,-142.17"/>
</g>
<!-- Node12&#45;&gt;Node5 -->
<g id="edge18" class="edge">
<title>Node12&#45;&gt;Node5</title>
<path fill="none" stroke="midnightblue" d="M441.6,-112.37C423.71,-93.97 381.59,-50.67 358.61,-27.05"/>
<polygon fill="midnightblue" stroke="midnightblue" points="360.84,-24.32 351.36,-19.59 355.82,-29.2 360.84,-24.32"/>
</g>
<!-- Node13&#45;&gt;Node5 -->
<g id="edge22" class="edge">
<title>Node13&#45;&gt;Node5</title>
<path fill="none" stroke="midnightblue" d="M517.3,-224.34C524.71,-203.38 540.39,-148.93 519,-112 487.59,-57.76 414.83,-30.13 373.36,-18.32"/>
<polygon fill="midnightblue" stroke="midnightblue" points="374.11,-14.89 363.54,-15.65 372.27,-21.65 374.11,-14.89"/>
</g>
</g>
</svg>
