<?xml version="1.0" encoding="UTF-8" standalone="no"?>
<!DOCTYPE svg PUBLIC "-//W3C//DTD SVG 1.1//EN"
 "http://www.w3.org/Graphics/SVG/1.1/DTD/svg11.dtd">
<!-- Generated by graphviz version 2.44.0 ()
 -->
<!-- Title: src/Scenes/MainScene.cpp Pages: 1 -->
<svg width="1768pt" height="386pt"
 viewBox="0.00 0.00 1768.16 386.00" xmlns="http://www.w3.org/2000/svg" xmlns:xlink="http://www.w3.org/1999/xlink">
<g id="graph0" class="graph" transform="scale(1 1) rotate(0) translate(4 382)">
<title>src/Scenes/MainScene.cpp</title>
<!-- Node1 -->
<g id="node1" class="node">
<title>Node1</title>
<g id="a_node1"><a xlink:title=" ">
<polygon fill="#bfbfbf" stroke="black" points="986.16,-358.5 986.16,-377.5 1122.16,-377.5 1122.16,-358.5 986.16,-358.5"/>
<text text-anchor="middle" x="1054.16" y="-365.5" font-family="Helvetica,sans-Serif" font-size="10.00">src/Scenes/MainScene.cpp</text>
</a>
</g>
</g>
<!-- Node2 -->
<g id="node2" class="node">
<title>Node2</title>
<g id="a_node2"><a xlink:href="MainScene_8hpp.html" target="_top" xlink:title=" ">
<polygon fill="none" stroke="black" points="804.66,-297 804.66,-316 887.66,-316 887.66,-297 804.66,-297"/>
<text text-anchor="middle" x="846.16" y="-304" font-family="Helvetica,sans-Serif" font-size="10.00">MainScene.hpp</text>
</a>
</g>
</g>
<!-- Node1&#45;&gt;Node2 -->
<g id="edge1" class="edge">
<title>Node1&#45;&gt;Node2</title>
<path fill="none" stroke="midnightblue" d="M1024.35,-358.48C987.9,-348.05 926.08,-330.36 885.68,-318.81"/>
<polygon fill="midnightblue" stroke="midnightblue" points="886.48,-315.39 875.9,-316.01 884.55,-322.12 886.48,-315.39"/>
</g>
<!-- Node9 -->
<g id="node9" class="node">
<title>Node9</title>
<g id="a_node9"><a xlink:href="CreditScene_8hpp.html" target="_top" xlink:title=" ">
<polygon fill="none" stroke="black" points="906.16,-297 906.16,-316 994.16,-316 994.16,-297 906.16,-297"/>
<text text-anchor="middle" x="950.16" y="-304" font-family="Helvetica,sans-Serif" font-size="10.00">CreditScene.hpp</text>
</a>
</g>
</g>
<!-- Node1&#45;&gt;Node9 -->
<g id="edge8" class="edge">
<title>Node1&#45;&gt;Node9</title>
<path fill="none" stroke="midnightblue" d="M1039.26,-358.48C1022.19,-348.71 993.99,-332.58 973.89,-321.08"/>
<polygon fill="midnightblue" stroke="midnightblue" points="975.45,-317.94 965.03,-316.01 971.97,-324.01 975.45,-317.94"/>
</g>
<!-- Node10 -->
<g id="node10" class="node">
<title>Node10</title>
<g id="a_node10"><a xlink:href="HelpScene_8hpp.html" target="_top" xlink:title=" ">
<polygon fill="none" stroke="black" points="1012.66,-297 1012.66,-316 1095.66,-316 1095.66,-297 1012.66,-297"/>
<text text-anchor="middle" x="1054.16" y="-304" font-family="Helvetica,sans-Serif" font-size="10.00">HelpScene.hpp</text>
</a>
</g>
</g>
<!-- Node1&#45;&gt;Node10 -->
<g id="edge10" class="edge">
<title>Node1&#45;&gt;Node10</title>
<path fill="none" stroke="midnightblue" d="M1054.16,-358.48C1054.16,-350.08 1054.16,-336.98 1054.16,-326.16"/>
<polygon fill="midnightblue" stroke="midnightblue" points="1057.66,-326.01 1054.16,-316.01 1050.66,-326.01 1057.66,-326.01"/>
</g>
<!-- Node11 -->
<g id="node11" class="node">
<title>Node11</title>
<g id="a_node11"><a xlink:href="LevelSelectionScene_8hpp.html" target="_top" xlink:title=" ">
<polygon fill="none" stroke="black" points="659.66,-297 659.66,-316 786.66,-316 786.66,-297 659.66,-297"/>
<text text-anchor="middle" x="723.16" y="-304" font-family="Helvetica,sans-Serif" font-size="10.00">LevelSelectionScene.hpp</text>
</a>
</g>
</g>
<!-- Node1&#45;&gt;Node11 -->
<g id="edge12" class="edge">
<title>Node1&#45;&gt;Node11</title>
<path fill="none" stroke="midnightblue" d="M1002.49,-358.44C950.16,-349.67 866.93,-335.46 795.16,-322 788.5,-320.75 781.52,-319.4 774.62,-318.04"/>
<polygon fill="midnightblue" stroke="midnightblue" points="775.11,-314.57 764.62,-316.05 773.74,-321.43 775.11,-314.57"/>
</g>
<!-- Node12 -->
<g id="node12" class="node">
<title>Node12</title>
<g id="a_node12"><a xlink:href="ButtonPrefabFactory_8hpp.html" target="_top" xlink:title=" ">
<polygon fill="none" stroke="black" points="1223.66,-291.5 1223.66,-321.5 1348.66,-321.5 1348.66,-291.5 1223.66,-291.5"/>
<text text-anchor="start" x="1231.66" y="-309.5" font-family="Helvetica,sans-Serif" font-size="10.00">../Factories/ButtonPrefab</text>
<text text-anchor="middle" x="1286.16" y="-298.5" font-family="Helvetica,sans-Serif" font-size="10.00">Factory.hpp</text>
</a>
</g>
</g>
<!-- Node1&#45;&gt;Node12 -->
<g id="edge14" class="edge">
<title>Node1&#45;&gt;Node12</title>
<path fill="none" stroke="midnightblue" d="M1087.4,-358.48C1122.27,-349.53 1177.96,-335.25 1221.53,-324.07"/>
<polygon fill="midnightblue" stroke="midnightblue" points="1222.66,-327.4 1231.48,-321.52 1220.92,-320.62 1222.66,-327.4"/>
</g>
<!-- Node20 -->
<g id="node20" class="node">
<title>Node20</title>
<g id="a_node20"><a xlink:href="HeroPrefabFactory_8hpp.html" target="_top" xlink:title=" ">
<polygon fill="none" stroke="black" points="1442.66,-297 1442.66,-316 1609.66,-316 1609.66,-297 1442.66,-297"/>
<text text-anchor="middle" x="1526.16" y="-304" font-family="Helvetica,sans-Serif" font-size="10.00">../Factories/HeroPrefabFactory.hpp</text>
</a>
</g>
</g>
<!-- Node1&#45;&gt;Node20 -->
<g id="edge28" class="edge">
<title>Node1&#45;&gt;Node20</title>
<path fill="none" stroke="midnightblue" d="M1121.78,-358.48C1208.27,-347.57 1357.7,-328.74 1448.68,-317.27"/>
<polygon fill="midnightblue" stroke="midnightblue" points="1449.17,-320.73 1458.66,-316.01 1448.3,-313.79 1449.17,-320.73"/>
</g>
<!-- Node22 -->
<g id="node22" class="node">
<title>Node22</title>
<g id="a_node22"><a xlink:href="RandomUtil_8hpp.html" target="_top" xlink:title=" ">
<polygon fill="none" stroke="black" points="1644.16,-297 1644.16,-316 1760.16,-316 1760.16,-297 1644.16,-297"/>
<text text-anchor="middle" x="1702.16" y="-304" font-family="Helvetica,sans-Serif" font-size="10.00">../Utils/RandomUtil.hpp</text>
</a>
</g>
</g>
<!-- Node1&#45;&gt;Node22 -->
<g id="edge31" class="edge">
<title>Node1&#45;&gt;Node22</title>
<path fill="none" stroke="midnightblue" d="M1122.2,-363.64C1228.56,-357.92 1440.51,-344.67 1619.16,-322 1628.43,-320.82 1638.24,-319.33 1647.75,-317.75"/>
<polygon fill="midnightblue" stroke="midnightblue" points="1648.64,-321.15 1657.9,-316.02 1647.46,-314.25 1648.64,-321.15"/>
</g>
<!-- Node24 -->
<g id="node24" class="node">
<title>Node24</title>
<g id="a_node24"><a xlink:href="UserAttackBehaviour_8hpp.html" target="_top" xlink:title=" ">
<polygon fill="none" stroke="black" points="194.16,-291.5 194.16,-321.5 336.16,-321.5 336.16,-291.5 194.16,-291.5"/>
<text text-anchor="start" x="202.16" y="-309.5" font-family="Helvetica,sans-Serif" font-size="10.00">../Scripts/Heroes/UserAttack</text>
<text text-anchor="middle" x="265.16" y="-298.5" font-family="Helvetica,sans-Serif" font-size="10.00">Behaviour.hpp</text>
</a>
</g>
</g>
<!-- Node1&#45;&gt;Node24 -->
<g id="edge33" class="edge">
<title>Node1&#45;&gt;Node24</title>
<path fill="none" stroke="midnightblue" d="M985.86,-361.85C840.71,-350.9 502.08,-325.37 346.26,-313.62"/>
<polygon fill="midnightblue" stroke="midnightblue" points="346.5,-310.12 336.26,-312.86 345.97,-317.1 346.5,-310.12"/>
</g>
<!-- Node33 -->
<g id="node33" class="node">
<title>Node33</title>
<g id="a_node33"><a xlink:href="UserMovementBehaviour_8hpp.html" target="_top" xlink:title=" ">
<polygon fill="none" stroke="black" points="482.66,-291.5 482.66,-321.5 641.66,-321.5 641.66,-291.5 482.66,-291.5"/>
<text text-anchor="start" x="490.66" y="-309.5" font-family="Helvetica,sans-Serif" font-size="10.00">../Scripts/Heroes/UserMovement</text>
<text text-anchor="middle" x="562.16" y="-298.5" font-family="Helvetica,sans-Serif" font-size="10.00">Behaviour.hpp</text>
</a>
</g>
</g>
<!-- Node1&#45;&gt;Node33 -->
<g id="edge53" class="edge">
<title>Node1&#45;&gt;Node33</title>
<path fill="none" stroke="midnightblue" d="M986.11,-360.52C907.83,-352.82 775.18,-339.01 651.76,-322.18"/>
<polygon fill="midnightblue" stroke="midnightblue" points="652.14,-318.7 641.75,-320.81 651.18,-325.63 652.14,-318.7"/>
</g>
<!-- Node35 -->
<g id="node35" class="node">
<title>Node35</title>
<g id="a_node35"><a xlink:href="AudioSourcePrefabFactory_8hpp.html" target="_top" xlink:title=" ">
<polygon fill="none" stroke="black" points="942.66,-168.5 942.66,-198.5 1065.66,-198.5 1065.66,-168.5 942.66,-168.5"/>
<text text-anchor="start" x="950.66" y="-186.5" font-family="Helvetica,sans-Serif" font-size="10.00">../Factories/AudioSource</text>
<text text-anchor="middle" x="1004.16" y="-175.5" font-family="Helvetica,sans-Serif" font-size="10.00">PrefabFactory.hpp</text>
</a>
</g>
</g>
<!-- Node1&#45;&gt;Node35 -->
<g id="edge61" class="edge">
<title>Node1&#45;&gt;Node35</title>
<path fill="none" stroke="midnightblue" d="M1069.89,-358.24C1082.05,-350.48 1097.97,-337.93 1105.16,-322 1110.82,-309.44 1110.26,-303.8 1105.16,-291 1090.72,-254.79 1057.47,-223.83 1033.05,-204.77"/>
<polygon fill="midnightblue" stroke="midnightblue" points="1034.91,-201.79 1024.83,-198.54 1030.68,-207.37 1034.91,-201.79"/>
</g>
<!-- Node38 -->
<g id="node38" class="node">
<title>Node38</title>
<g id="a_node38"><a xlink:href="Engine_8hpp.html" target="_top" xlink:title=" ">
<polygon fill="none" stroke="black" points="1150.16,-235.5 1150.16,-254.5 1214.16,-254.5 1214.16,-235.5 1150.16,-235.5"/>
<text text-anchor="middle" x="1182.16" y="-242.5" font-family="Helvetica,sans-Serif" font-size="10.00">Engine.hpp</text>
</a>
</g>
</g>
<!-- Node1&#45;&gt;Node38 -->
<g id="edge68" class="edge">
<title>Node1&#45;&gt;Node38</title>
<path fill="none" stroke="midnightblue" d="M1078.11,-358.36C1096.26,-350.9 1120.92,-338.68 1138.16,-322 1155.23,-305.48 1167.83,-280.9 1175.06,-264.2"/>
<polygon fill="midnightblue" stroke="midnightblue" points="1178.48,-265.11 1179.04,-254.53 1172,-262.45 1178.48,-265.11"/>
</g>
<!-- Node3 -->
<g id="node3" class="node">
<title>Node3</title>
<g id="a_node3"><a xlink:href="MenuScene_8hpp.html" target="_top" xlink:title=" ">
<polygon fill="none" stroke="black" points="805.16,-235.5 805.16,-254.5 891.16,-254.5 891.16,-235.5 805.16,-235.5"/>
<text text-anchor="middle" x="848.16" y="-242.5" font-family="Helvetica,sans-Serif" font-size="10.00">MenuScene.hpp</text>
</a>
</g>
</g>
<!-- Node2&#45;&gt;Node3 -->
<g id="edge2" class="edge">
<title>Node2&#45;&gt;Node3</title>
<path fill="none" stroke="midnightblue" d="M846.44,-296.98C846.72,-288.58 847.17,-275.48 847.53,-264.66"/>
<polygon fill="midnightblue" stroke="midnightblue" points="851.03,-264.62 847.87,-254.51 844.04,-264.39 851.03,-264.62"/>
</g>
<!-- Node4 -->
<g id="node4" class="node">
<title>Node4</title>
<g id="a_node4"><a xlink:href="Scene_8hpp.html" target="_top" xlink:title=" ">
<polygon fill="none" stroke="black" points="1377.16,-112.5 1377.16,-131.5 1439.16,-131.5 1439.16,-112.5 1377.16,-112.5"/>
<text text-anchor="middle" x="1408.16" y="-119.5" font-family="Helvetica,sans-Serif" font-size="10.00">Scene.hpp</text>
</a>
</g>
</g>
<!-- Node3&#45;&gt;Node4 -->
<g id="edge3" class="edge">
<title>Node3&#45;&gt;Node4</title>
<path fill="none" stroke="midnightblue" d="M891.44,-241.51C938.55,-237.43 1015.18,-226.77 1075.16,-199 1095.25,-189.7 1093.83,-176.78 1114.16,-168 1216.81,-123.68 1252.96,-150.97 1363.16,-132 1364.26,-131.81 1365.37,-131.62 1366.49,-131.41"/>
<polygon fill="midnightblue" stroke="midnightblue" points="1367.53,-134.78 1376.73,-129.51 1366.25,-127.9 1367.53,-134.78"/>
</g>
<!-- Node7 -->
<g id="node7" class="node">
<title>Node7</title>
<g id="a_node7"><a xlink:href="BackgroundName_8hpp.html" target="_top" xlink:title=" ">
<polygon fill="none" stroke="black" points="771.66,-174 771.66,-193 924.66,-193 924.66,-174 771.66,-174"/>
<text text-anchor="middle" x="848.16" y="-181" font-family="Helvetica,sans-Serif" font-size="10.00">../Enums/BackgroundName.hpp</text>
</a>
</g>
</g>
<!-- Node3&#45;&gt;Node7 -->
<g id="edge6" class="edge">
<title>Node3&#45;&gt;Node7</title>
<path fill="none" stroke="midnightblue" d="M848.16,-235.48C848.16,-227.08 848.16,-213.98 848.16,-203.16"/>
<polygon fill="midnightblue" stroke="midnightblue" points="851.66,-203.01 848.16,-193.01 844.66,-203.01 851.66,-203.01"/>
</g>
<!-- Node8 -->
<g id="node8" class="node">
<title>Node8</title>
<g id="a_node8"><a xlink:title=" ">
<polygon fill="none" stroke="#bfbfbf" points="858.66,-56.5 858.66,-75.5 899.66,-75.5 899.66,-56.5 858.66,-56.5"/>
<text text-anchor="middle" x="879.16" y="-63.5" font-family="Helvetica,sans-Serif" font-size="10.00">string</text>
</a>
</g>
</g>
<!-- Node3&#45;&gt;Node8 -->
<g id="edge7" class="edge">
<title>Node3&#45;&gt;Node8</title>
<path fill="none" stroke="midnightblue" d="M813.97,-235.49C795.16,-228.88 773.41,-217.6 762.16,-199 742.13,-165.92 740.27,-143.87 762.16,-112 781.38,-84 820.65,-73.42 848.38,-69.42"/>
<polygon fill="midnightblue" stroke="midnightblue" points="848.88,-72.88 858.37,-68.19 848.02,-65.94 848.88,-72.88"/>
</g>
<!-- Node5 -->
<g id="node5" class="node">
<title>Node5</title>
<g id="a_node5"><a xlink:title=" ">
<polygon fill="none" stroke="#bfbfbf" points="1204.16,-56.5 1204.16,-75.5 1248.16,-75.5 1248.16,-56.5 1204.16,-56.5"/>
<text text-anchor="middle" x="1226.16" y="-63.5" font-family="Helvetica,sans-Serif" font-size="10.00">vector</text>
</a>
</g>
</g>
<!-- Node4&#45;&gt;Node5 -->
<g id="edge4" class="edge">
<title>Node4&#45;&gt;Node5</title>
<path fill="none" stroke="midnightblue" d="M1379.32,-112.44C1346.34,-102.66 1292.51,-86.69 1258.24,-76.52"/>
<polygon fill="midnightblue" stroke="midnightblue" points="1258.86,-73.05 1248.28,-73.56 1256.87,-79.76 1258.86,-73.05"/>
</g>
<!-- Node6 -->
<g id="node6" class="node">
<title>Node6</title>
<g id="a_node6"><a xlink:title=" ">
<polygon fill="none" stroke="#bfbfbf" points="964.66,-0.5 964.66,-19.5 1015.66,-19.5 1015.66,-0.5 964.66,-0.5"/>
<text text-anchor="middle" x="990.16" y="-7.5" font-family="Helvetica,sans-Serif" font-size="10.00">memory</text>
</a>
</g>
</g>
<!-- Node4&#45;&gt;Node6 -->
<g id="edge5" class="edge">
<title>Node4&#45;&gt;Node6</title>
<path fill="none" stroke="midnightblue" d="M1404.99,-112.5C1399.16,-98.13 1385.25,-69.33 1363.16,-56 1306.84,-22.04 1107.79,-13.66 1025.83,-11.63"/>
<polygon fill="midnightblue" stroke="midnightblue" points="1025.82,-8.13 1015.74,-11.4 1025.66,-15.13 1025.82,-8.13"/>
</g>
<!-- Node9&#45;&gt;Node3 -->
<g id="edge9" class="edge">
<title>Node9&#45;&gt;Node3</title>
<path fill="none" stroke="midnightblue" d="M935.54,-296.98C918.8,-287.21 891.15,-271.08 871.44,-259.58"/>
<polygon fill="midnightblue" stroke="midnightblue" points="873.14,-256.52 862.74,-254.51 869.62,-262.57 873.14,-256.52"/>
</g>
<!-- Node10&#45;&gt;Node3 -->
<g id="edge11" class="edge">
<title>Node10&#45;&gt;Node3</title>
<path fill="none" stroke="midnightblue" d="M1024.64,-296.98C988.54,-286.55 927.31,-268.86 887.3,-257.31"/>
<polygon fill="midnightblue" stroke="midnightblue" points="888.19,-253.92 877.62,-254.51 886.25,-260.65 888.19,-253.92"/>
</g>
<!-- Node11&#45;&gt;Node3 -->
<g id="edge13" class="edge">
<title>Node11&#45;&gt;Node3</title>
<path fill="none" stroke="midnightblue" d="M741.07,-296.98C762.04,-286.99 797.01,-270.35 821.25,-258.81"/>
<polygon fill="midnightblue" stroke="midnightblue" points="822.75,-261.97 830.28,-254.51 819.75,-255.65 822.75,-261.97"/>
</g>
<!-- Node12&#45;&gt;Node6 -->
<g id="edge26" class="edge">
<title>Node12&#45;&gt;Node6</title>
<path fill="none" stroke="midnightblue" d="M1348.69,-295.13C1408.01,-281.3 1488.16,-250.42 1488.16,-184.5 1488.16,-184.5 1488.16,-184.5 1488.16,-121 1488.16,-26.33 1140.64,-13.06 1026.21,-11.26"/>
<polygon fill="midnightblue" stroke="midnightblue" points="1025.93,-7.76 1015.88,-11.12 1025.83,-14.76 1025.93,-7.76"/>
</g>
<!-- Node12&#45;&gt;Node8 -->
<g id="edge27" class="edge">
<title>Node12&#45;&gt;Node8</title>
<path fill="none" stroke="midnightblue" d="M1280.86,-291.33C1265.2,-250.31 1218.14,-133.04 1184.16,-112 1161.11,-97.73 983.51,-77.86 910.42,-70.19"/>
<polygon fill="midnightblue" stroke="midnightblue" points="910.34,-66.67 900.03,-69.11 909.61,-73.63 910.34,-66.67"/>
</g>
<!-- Node13 -->
<g id="node13" class="node">
<title>Node13</title>
<g id="a_node13"><a xlink:href="Button_8hpp.html" target="_top" xlink:title=" ">
<polygon fill="none" stroke="black" points="1275.66,-235.5 1275.66,-254.5 1338.66,-254.5 1338.66,-235.5 1275.66,-235.5"/>
<text text-anchor="middle" x="1307.16" y="-242.5" font-family="Helvetica,sans-Serif" font-size="10.00">Button.hpp</text>
</a>
</g>
</g>
<!-- Node12&#45;&gt;Node13 -->
<g id="edge15" class="edge">
<title>Node12&#45;&gt;Node13</title>
<path fill="none" stroke="midnightblue" d="M1291.13,-291.4C1294,-283.29 1297.62,-273.01 1300.7,-264.28"/>
<polygon fill="midnightblue" stroke="midnightblue" points="1304.07,-265.25 1304.1,-254.66 1297.47,-262.92 1304.07,-265.25"/>
</g>
<!-- Node14 -->
<g id="node14" class="node">
<title>Node14</title>
<g id="a_node14"><a xlink:href="UIObject_8hpp.html" target="_top" xlink:title=" ">
<polygon fill="none" stroke="black" points="1270.16,-174 1270.16,-193 1344.16,-193 1344.16,-174 1270.16,-174"/>
<text text-anchor="middle" x="1307.16" y="-181" font-family="Helvetica,sans-Serif" font-size="10.00">UIObject.hpp</text>
</a>
</g>
</g>
<!-- Node13&#45;&gt;Node14 -->
<g id="edge16" class="edge">
<title>Node13&#45;&gt;Node14</title>
<path fill="none" stroke="midnightblue" d="M1307.16,-235.48C1307.16,-227.08 1307.16,-213.98 1307.16,-203.16"/>
<polygon fill="midnightblue" stroke="midnightblue" points="1310.66,-203.01 1307.16,-193.01 1303.66,-203.01 1310.66,-203.01"/>
</g>
<!-- Node19 -->
<g id="node19" class="node">
<title>Node19</title>
<g id="a_node19"><a xlink:title=" ">
<polygon fill="none" stroke="#bfbfbf" points="1400.66,-174 1400.66,-193 1459.66,-193 1459.66,-174 1400.66,-174"/>
<text text-anchor="middle" x="1430.16" y="-181" font-family="Helvetica,sans-Serif" font-size="10.00">functional</text>
</a>
</g>
</g>
<!-- Node13&#45;&gt;Node19 -->
<g id="edge25" class="edge">
<title>Node13&#45;&gt;Node19</title>
<path fill="none" stroke="midnightblue" d="M1324.78,-235.48C1345.33,-225.53 1379.52,-208.99 1403.36,-197.46"/>
<polygon fill="midnightblue" stroke="midnightblue" points="1405.09,-200.51 1412.57,-193.01 1402.04,-194.21 1405.09,-200.51"/>
</g>
<!-- Node15 -->
<g id="node15" class="node">
<title>Node15</title>
<g id="a_node15"><a xlink:href="GameObject_8hpp.html" target="_top" xlink:title=" ">
<polygon fill="none" stroke="black" points="1231.66,-112.5 1231.66,-131.5 1320.66,-131.5 1320.66,-112.5 1231.66,-112.5"/>
<text text-anchor="middle" x="1276.16" y="-119.5" font-family="Helvetica,sans-Serif" font-size="10.00">GameObject.hpp</text>
</a>
</g>
</g>
<!-- Node14&#45;&gt;Node15 -->
<g id="edge17" class="edge">
<title>Node14&#45;&gt;Node15</title>
<path fill="none" stroke="midnightblue" d="M1302.71,-173.98C1298.2,-165.32 1291.08,-151.65 1285.35,-140.65"/>
<polygon fill="midnightblue" stroke="midnightblue" points="1288.31,-138.76 1280.59,-131.51 1282.11,-141.99 1288.31,-138.76"/>
</g>
<!-- Node15&#45;&gt;Node5 -->
<g id="edge23" class="edge">
<title>Node15&#45;&gt;Node5</title>
<path fill="none" stroke="midnightblue" d="M1267.9,-112.08C1260.69,-104.3 1250.05,-92.8 1241.31,-83.37"/>
<polygon fill="midnightblue" stroke="midnightblue" points="1243.62,-80.71 1234.26,-75.75 1238.48,-85.47 1243.62,-80.71"/>
</g>
<!-- Node15&#45;&gt;Node6 -->
<g id="edge24" class="edge">
<title>Node15&#45;&gt;Node6</title>
<path fill="none" stroke="midnightblue" d="M1276.34,-112.34C1276.12,-98.26 1273.5,-70.53 1257.16,-56 1223.54,-26.12 1091.01,-15.77 1026.21,-12.44"/>
<polygon fill="midnightblue" stroke="midnightblue" points="1026.21,-8.94 1016.05,-11.95 1025.87,-15.93 1026.21,-8.94"/>
</g>
<!-- Node15&#45;&gt;Node8 -->
<g id="edge22" class="edge">
<title>Node15&#45;&gt;Node8</title>
<path fill="none" stroke="midnightblue" d="M1231.39,-114.08C1226.59,-113.36 1221.77,-112.66 1217.16,-112 1104.06,-95.85 969.39,-78.47 909.95,-70.9"/>
<polygon fill="midnightblue" stroke="midnightblue" points="910.11,-67.39 899.75,-69.6 909.23,-74.34 910.11,-67.39"/>
</g>
<!-- Node16 -->
<g id="node16" class="node">
<title>Node16</title>
<g id="a_node16"><a xlink:href="Component_8hpp.html" target="_top" xlink:title=" ">
<polygon fill="none" stroke="black" points="517.16,-56.5 517.16,-75.5 601.16,-75.5 601.16,-56.5 517.16,-56.5"/>
<text text-anchor="middle" x="559.16" y="-63.5" font-family="Helvetica,sans-Serif" font-size="10.00">Component.hpp</text>
</a>
</g>
</g>
<!-- Node15&#45;&gt;Node16 -->
<g id="edge18" class="edge">
<title>Node15&#45;&gt;Node16</title>
<path fill="none" stroke="midnightblue" d="M1231.26,-116.29C1216.29,-114.81 1199.51,-113.23 1184.16,-112 932.72,-91.82 865.73,-105.88 611.69,-76.05"/>
<polygon fill="midnightblue" stroke="midnightblue" points="611.75,-72.53 601.4,-74.83 610.92,-79.48 611.75,-72.53"/>
</g>
<!-- Node17 -->
<g id="node17" class="node">
<title>Node17</title>
<g id="a_node17"><a xlink:href="Transform_8hpp.html" target="_top" xlink:title=" ">
<polygon fill="none" stroke="black" points="981.66,-56.5 981.66,-75.5 1060.66,-75.5 1060.66,-56.5 981.66,-56.5"/>
<text text-anchor="middle" x="1021.16" y="-63.5" font-family="Helvetica,sans-Serif" font-size="10.00">Transform.hpp</text>
</a>
</g>
</g>
<!-- Node15&#45;&gt;Node17 -->
<g id="edge20" class="edge">
<title>Node15&#45;&gt;Node17</title>
<path fill="none" stroke="midnightblue" d="M1235.75,-112.44C1191.04,-102.98 1118.97,-87.71 1070.84,-77.52"/>
<polygon fill="midnightblue" stroke="midnightblue" points="1071.46,-74.08 1060.95,-75.43 1070.01,-80.92 1071.46,-74.08"/>
</g>
<!-- Node16&#45;&gt;Node6 -->
<g id="edge19" class="edge">
<title>Node16&#45;&gt;Node6</title>
<path fill="none" stroke="midnightblue" d="M601.43,-57.35C604.38,-56.87 607.31,-56.42 610.16,-56 736.18,-37.43 886.6,-21.44 954.17,-14.57"/>
<polygon fill="midnightblue" stroke="midnightblue" points="954.69,-18.04 964.29,-13.55 953.99,-11.07 954.69,-18.04"/>
</g>
<!-- Node18 -->
<g id="node18" class="node">
<title>Node18</title>
<g id="a_node18"><a xlink:href="Point_8hpp.html" target="_top" xlink:title=" ">
<polygon fill="none" stroke="black" points="246.66,-0.5 246.66,-19.5 303.66,-19.5 303.66,-0.5 246.66,-0.5"/>
<text text-anchor="middle" x="275.16" y="-7.5" font-family="Helvetica,sans-Serif" font-size="10.00">Point.hpp</text>
</a>
</g>
</g>
<!-- Node17&#45;&gt;Node18 -->
<g id="edge21" class="edge">
<title>Node17&#45;&gt;Node18</title>
<path fill="none" stroke="midnightblue" d="M981.51,-61.72C960.09,-59.98 933.18,-57.82 909.16,-56 683.82,-38.95 413.29,-20.38 314.07,-13.64"/>
<polygon fill="midnightblue" stroke="midnightblue" points="314.13,-10.13 303.91,-12.95 313.65,-17.12 314.13,-10.13"/>
</g>
<!-- Node20&#45;&gt;Node15 -->
<g id="edge29" class="edge">
<title>Node20&#45;&gt;Node15</title>
<path fill="none" stroke="midnightblue" d="M1525.26,-296.83C1522.27,-272.47 1510.34,-202.94 1469.16,-168 1448.54,-150.51 1380.49,-137.53 1331.02,-130.12"/>
<polygon fill="midnightblue" stroke="midnightblue" points="1331.48,-126.65 1321.08,-128.67 1330.47,-133.58 1331.48,-126.65"/>
</g>
<!-- Node21 -->
<g id="node21" class="node">
<title>Node21</title>
<g id="a_node21"><a xlink:href="HeroName_8hpp.html" target="_top" xlink:title=" ">
<polygon fill="none" stroke="black" points="1554.16,-235.5 1554.16,-254.5 1676.16,-254.5 1676.16,-235.5 1554.16,-235.5"/>
<text text-anchor="middle" x="1615.16" y="-242.5" font-family="Helvetica,sans-Serif" font-size="10.00">../Enums/HeroName.hpp</text>
</a>
</g>
</g>
<!-- Node20&#45;&gt;Node21 -->
<g id="edge30" class="edge">
<title>Node20&#45;&gt;Node21</title>
<path fill="none" stroke="midnightblue" d="M1538.91,-296.98C1553.18,-287.43 1576.55,-271.81 1593.66,-260.37"/>
<polygon fill="midnightblue" stroke="midnightblue" points="1596.06,-262.98 1602.43,-254.51 1592.17,-257.16 1596.06,-262.98"/>
</g>
<!-- Node23 -->
<g id="node23" class="node">
<title>Node23</title>
<g id="a_node23"><a xlink:title=" ">
<polygon fill="none" stroke="#bfbfbf" points="1694.66,-235.5 1694.66,-254.5 1743.66,-254.5 1743.66,-235.5 1694.66,-235.5"/>
<text text-anchor="middle" x="1719.16" y="-242.5" font-family="Helvetica,sans-Serif" font-size="10.00">random</text>
</a>
</g>
</g>
<!-- Node22&#45;&gt;Node23 -->
<g id="edge32" class="edge">
<title>Node22&#45;&gt;Node23</title>
<path fill="none" stroke="midnightblue" d="M1704.59,-296.98C1707.02,-288.49 1710.81,-275.2 1713.92,-264.32"/>
<polygon fill="midnightblue" stroke="midnightblue" points="1717.34,-265.09 1716.72,-254.51 1710.61,-263.16 1717.34,-265.09"/>
</g>
<!-- Node24&#45;&gt;Node18 -->
<g id="edge38" class="edge">
<title>Node24&#45;&gt;Node18</title>
<path fill="none" stroke="midnightblue" d="M194.1,-299.1C130.95,-291.98 44.9,-278.3 20.16,-255 -3.47,-232.75 1.16,-216.95 1.16,-184.5 1.16,-184.5 1.16,-184.5 1.16,-121 1.16,-70.88 161.04,-33.15 236.54,-18.12"/>
<polygon fill="midnightblue" stroke="midnightblue" points="237.47,-21.5 246.61,-16.15 236.12,-14.63 237.47,-21.5"/>
</g>
<!-- Node25 -->
<g id="node25" class="node">
<title>Node25</title>
<g id="a_node25"><a xlink:href="BehaviourScript_8hpp.html" target="_top" xlink:title=" ">
<polygon fill="none" stroke="black" points="444.16,-174 444.16,-193 548.16,-193 548.16,-174 444.16,-174"/>
<text text-anchor="middle" x="496.16" y="-181" font-family="Helvetica,sans-Serif" font-size="10.00">BehaviourScript.hpp</text>
</a>
</g>
</g>
<!-- Node24&#45;&gt;Node25 -->
<g id="edge34" class="edge">
<title>Node24&#45;&gt;Node25</title>
<path fill="none" stroke="midnightblue" d="M254.64,-291.24C244.63,-275.8 232.91,-251.19 246.16,-235 269.41,-206.58 367.49,-193.79 433.67,-188.3"/>
<polygon fill="midnightblue" stroke="midnightblue" points="434.3,-191.76 444,-187.48 433.75,-184.78 434.3,-191.76"/>
</g>
<!-- Node27 -->
<g id="node27" class="node">
<title>Node27</title>
<g id="a_node27"><a xlink:href="HealthBehaviour_8hpp.html" target="_top" xlink:title=" ">
<polygon fill="none" stroke="black" points="445.16,-235.5 445.16,-254.5 601.16,-254.5 601.16,-235.5 445.16,-235.5"/>
<text text-anchor="middle" x="523.16" y="-242.5" font-family="Helvetica,sans-Serif" font-size="10.00">../Common/HealthBehaviour.hpp</text>
</a>
</g>
</g>
<!-- Node24&#45;&gt;Node27 -->
<g id="edge39" class="edge">
<title>Node24&#45;&gt;Node27</title>
<path fill="none" stroke="midnightblue" d="M325.97,-291.47C371.94,-280.87 434.12,-266.53 476.27,-256.81"/>
<polygon fill="midnightblue" stroke="midnightblue" points="477.31,-260.16 486.27,-254.51 475.74,-253.34 477.31,-260.16"/>
</g>
<!-- Node31 -->
<g id="node31" class="node">
<title>Node31</title>
<g id="a_node31"><a xlink:href="CoolDownBehaviour_8hpp.html" target="_top" xlink:title=" ">
<polygon fill="none" stroke="black" points="255.16,-235.5 255.16,-254.5 427.16,-254.5 427.16,-235.5 255.16,-235.5"/>
<text text-anchor="middle" x="341.16" y="-242.5" font-family="Helvetica,sans-Serif" font-size="10.00">../Common/CoolDownBehaviour.hpp</text>
</a>
</g>
</g>
<!-- Node24&#45;&gt;Node31 -->
<g id="edge50" class="edge">
<title>Node24&#45;&gt;Node31</title>
<path fill="none" stroke="midnightblue" d="M283.17,-291.4C294.89,-282.22 310.17,-270.26 322.1,-260.92"/>
<polygon fill="midnightblue" stroke="midnightblue" points="324.38,-263.58 330.1,-254.66 320.07,-258.07 324.38,-263.58"/>
</g>
<!-- Node32 -->
<g id="node32" class="node">
<title>Node32</title>
<g id="a_node32"><a xlink:href="LevelMode_8hpp.html" target="_top" xlink:title=" ">
<polygon fill="none" stroke="black" points="29.66,-235.5 29.66,-254.5 160.66,-254.5 160.66,-235.5 29.66,-235.5"/>
<text text-anchor="middle" x="95.16" y="-242.5" font-family="Helvetica,sans-Serif" font-size="10.00">../../Enums/LevelMode.hpp</text>
</a>
</g>
</g>
<!-- Node24&#45;&gt;Node32 -->
<g id="edge52" class="edge">
<title>Node24&#45;&gt;Node32</title>
<path fill="none" stroke="midnightblue" d="M224.87,-291.4C195.84,-281.24 157.07,-267.67 129.5,-258.02"/>
<polygon fill="midnightblue" stroke="midnightblue" points="130.49,-254.66 119.89,-254.66 128.17,-261.26 130.49,-254.66"/>
</g>
<!-- Node25&#45;&gt;Node16 -->
<g id="edge35" class="edge">
<title>Node25&#45;&gt;Node16</title>
<path fill="none" stroke="midnightblue" d="M491.17,-173.62C484.02,-159.6 472.9,-131.88 484.16,-112 492.5,-97.26 507.82,-86.82 522.44,-79.73"/>
<polygon fill="midnightblue" stroke="midnightblue" points="524.15,-82.8 531.87,-75.55 521.31,-76.4 524.15,-82.8"/>
</g>
<!-- Node26 -->
<g id="node26" class="node">
<title>Node26</title>
<g id="a_node26"><a xlink:href="Collider_8hpp.html" target="_top" xlink:title=" ">
<polygon fill="none" stroke="black" points="493.66,-112.5 493.66,-131.5 560.66,-131.5 560.66,-112.5 493.66,-112.5"/>
<text text-anchor="middle" x="527.16" y="-119.5" font-family="Helvetica,sans-Serif" font-size="10.00">Collider.hpp</text>
</a>
</g>
</g>
<!-- Node25&#45;&gt;Node26 -->
<g id="edge36" class="edge">
<title>Node25&#45;&gt;Node26</title>
<path fill="none" stroke="midnightblue" d="M500.6,-173.98C505.11,-165.32 512.23,-151.65 517.96,-140.65"/>
<polygon fill="midnightblue" stroke="midnightblue" points="521.21,-141.99 522.72,-131.51 515,-138.76 521.21,-141.99"/>
</g>
<!-- Node26&#45;&gt;Node16 -->
<g id="edge37" class="edge">
<title>Node26&#45;&gt;Node16</title>
<path fill="none" stroke="midnightblue" d="M532.44,-112.08C536.87,-104.61 543.32,-93.72 548.77,-84.52"/>
<polygon fill="midnightblue" stroke="midnightblue" points="551.88,-86.14 553.97,-75.75 545.86,-82.57 551.88,-86.14"/>
</g>
<!-- Node27&#45;&gt;Node6 -->
<g id="edge41" class="edge">
<title>Node27&#45;&gt;Node6</title>
<path fill="none" stroke="midnightblue" d="M487.3,-235.4C468.28,-228.81 446.53,-217.59 435.16,-199 405.45,-150.44 445.96,-85.43 488.16,-56 526.23,-29.44 846.05,-16 954.42,-12.17"/>
<polygon fill="midnightblue" stroke="midnightblue" points="954.65,-15.66 964.52,-11.82 954.41,-8.67 954.65,-15.66"/>
</g>
<!-- Node27&#45;&gt;Node25 -->
<g id="edge40" class="edge">
<title>Node27&#45;&gt;Node25</title>
<path fill="none" stroke="midnightblue" d="M519.29,-235.48C515.36,-226.82 509.16,-213.15 504.16,-202.15"/>
<polygon fill="midnightblue" stroke="midnightblue" points="507.34,-200.67 500.02,-193.01 500.96,-203.56 507.34,-200.67"/>
</g>
<!-- Node28 -->
<g id="node28" class="node">
<title>Node28</title>
<g id="a_node28"><a xlink:href="Animator_8hpp.html" target="_top" xlink:title=" ">
<polygon fill="none" stroke="black" points="598.16,-174 598.16,-193 672.16,-193 672.16,-174 598.16,-174"/>
<text text-anchor="middle" x="635.16" y="-181" font-family="Helvetica,sans-Serif" font-size="10.00">Animator.hpp</text>
</a>
</g>
</g>
<!-- Node27&#45;&gt;Node28 -->
<g id="edge42" class="edge">
<title>Node27&#45;&gt;Node28</title>
<path fill="none" stroke="midnightblue" d="M539.2,-235.48C557.75,-225.62 588.5,-209.29 610.18,-197.77"/>
<polygon fill="midnightblue" stroke="midnightblue" points="611.95,-200.79 619.14,-193.01 608.67,-194.61 611.95,-200.79"/>
</g>
<!-- Node28&#45;&gt;Node5 -->
<g id="edge48" class="edge">
<title>Node28&#45;&gt;Node5</title>
<path fill="none" stroke="midnightblue" d="M672.21,-177.61C719.23,-170.71 802.36,-156.19 870.16,-132 888.5,-125.45 890.59,-117.89 909.16,-112 1009.91,-80.01 1135.89,-70.72 1194.03,-68.05"/>
<polygon fill="midnightblue" stroke="midnightblue" points="1194.23,-71.55 1204.08,-67.63 1193.94,-64.55 1194.23,-71.55"/>
</g>
<!-- Node28&#45;&gt;Node6 -->
<g id="edge49" class="edge">
<title>Node28&#45;&gt;Node6</title>
<path fill="none" stroke="midnightblue" d="M597.98,-175.22C557.79,-166.51 497.64,-150.73 484.16,-132 467.61,-109.01 493.24,-66.86 508.16,-56 544.03,-29.87 848.9,-16.22 954.4,-12.25"/>
<polygon fill="midnightblue" stroke="midnightblue" points="954.68,-15.74 964.55,-11.87 954.42,-8.75 954.68,-15.74"/>
</g>
<!-- Node28&#45;&gt;Node16 -->
<g id="edge43" class="edge">
<title>Node28&#45;&gt;Node16</title>
<path fill="none" stroke="midnightblue" d="M629.44,-173.82C616.95,-154.84 587.02,-109.35 570.53,-84.29"/>
<polygon fill="midnightblue" stroke="midnightblue" points="573.36,-82.21 564.93,-75.78 567.51,-86.06 573.36,-82.21"/>
</g>
<!-- Node29 -->
<g id="node29" class="node">
<title>Node29</title>
<g id="a_node29"><a xlink:href="Sprite_8hpp.html" target="_top" xlink:title=" ">
<polygon fill="none" stroke="black" points="617.16,-112.5 617.16,-131.5 677.16,-131.5 677.16,-112.5 617.16,-112.5"/>
<text text-anchor="middle" x="647.16" y="-119.5" font-family="Helvetica,sans-Serif" font-size="10.00">Sprite.hpp</text>
</a>
</g>
</g>
<!-- Node28&#45;&gt;Node29 -->
<g id="edge44" class="edge">
<title>Node28&#45;&gt;Node29</title>
<path fill="none" stroke="midnightblue" d="M636.88,-173.98C638.59,-165.49 641.27,-152.2 643.46,-141.32"/>
<polygon fill="midnightblue" stroke="midnightblue" points="646.89,-142 645.44,-131.51 640.03,-140.62 646.89,-142"/>
</g>
<!-- Node29&#45;&gt;Node8 -->
<g id="edge47" class="edge">
<title>Node29&#45;&gt;Node8</title>
<path fill="none" stroke="midnightblue" d="M677.49,-113.94C721.83,-103.62 803.92,-84.51 848.47,-74.14"/>
<polygon fill="midnightblue" stroke="midnightblue" points="849.47,-77.5 858.42,-71.83 847.89,-70.68 849.47,-77.5"/>
</g>
<!-- Node29&#45;&gt;Node16 -->
<g id="edge45" class="edge">
<title>Node29&#45;&gt;Node16</title>
<path fill="none" stroke="midnightblue" d="M633.02,-112.32C619.29,-103.9 598.22,-90.97 582.09,-81.07"/>
<polygon fill="midnightblue" stroke="midnightblue" points="583.61,-77.9 573.26,-75.65 579.95,-83.87 583.61,-77.9"/>
</g>
<!-- Node30 -->
<g id="node30" class="node">
<title>Node30</title>
<g id="a_node30"><a xlink:href="Color_8hpp.html" target="_top" xlink:title=" ">
<polygon fill="none" stroke="black" points="619.66,-56.5 619.66,-75.5 676.66,-75.5 676.66,-56.5 619.66,-56.5"/>
<text text-anchor="middle" x="648.16" y="-63.5" font-family="Helvetica,sans-Serif" font-size="10.00">Color.hpp</text>
</a>
</g>
</g>
<!-- Node29&#45;&gt;Node30 -->
<g id="edge46" class="edge">
<title>Node29&#45;&gt;Node30</title>
<path fill="none" stroke="midnightblue" d="M647.32,-112.08C647.45,-105.01 647.64,-94.86 647.8,-85.99"/>
<polygon fill="midnightblue" stroke="midnightblue" points="651.31,-85.81 647.99,-75.75 644.31,-85.68 651.31,-85.81"/>
</g>
<!-- Node31&#45;&gt;Node25 -->
<g id="edge51" class="edge">
<title>Node31&#45;&gt;Node25</title>
<path fill="none" stroke="midnightblue" d="M363.36,-235.48C389.84,-225.31 434.27,-208.26 464.38,-196.7"/>
<polygon fill="midnightblue" stroke="midnightblue" points="465.91,-199.86 473.99,-193.01 463.4,-193.33 465.91,-199.86"/>
</g>
<!-- Node33&#45;&gt;Node6 -->
<g id="edge54" class="edge">
<title>Node33&#45;&gt;Node6</title>
<path fill="none" stroke="midnightblue" d="M601.99,-291.49C644.3,-273.75 705.16,-238.81 705.16,-184.5 705.16,-184.5 705.16,-184.5 705.16,-121 705.16,-68.13 878.02,-30.89 954.49,-17"/>
<polygon fill="midnightblue" stroke="midnightblue" points="955.38,-20.4 964.61,-15.2 954.15,-13.51 955.38,-20.4"/>
</g>
<!-- Node33&#45;&gt;Node25 -->
<g id="edge55" class="edge">
<title>Node33&#45;&gt;Node25</title>
<path fill="none" stroke="midnightblue" d="M583.14,-291.3C601.37,-277.15 623,-254.73 610.16,-235 597.51,-215.57 575.49,-203.56 554.16,-196.16"/>
<polygon fill="midnightblue" stroke="midnightblue" points="555.03,-192.76 544.44,-193.07 552.91,-199.44 555.03,-192.76"/>
</g>
<!-- Node33&#45;&gt;Node27 -->
<g id="edge60" class="edge">
<title>Node33&#45;&gt;Node27</title>
<path fill="none" stroke="midnightblue" d="M552.91,-291.4C547.36,-282.93 540.26,-272.1 534.39,-263.14"/>
<polygon fill="midnightblue" stroke="midnightblue" points="537.24,-261.1 528.83,-254.66 531.39,-264.94 537.24,-261.1"/>
</g>
<!-- Node33&#45;&gt;Node28 -->
<g id="edge59" class="edge">
<title>Node33&#45;&gt;Node28</title>
<path fill="none" stroke="midnightblue" d="M588.44,-291.46C601.98,-282.8 617.44,-270.4 626.16,-255 635.06,-239.25 636.72,-218.42 636.51,-203.49"/>
<polygon fill="midnightblue" stroke="midnightblue" points="640,-203.24 636.07,-193.4 633.01,-203.55 640,-203.24"/>
</g>
<!-- Node34 -->
<g id="node34" class="node">
<title>Node34</title>
<g id="a_node34"><a xlink:href="RigidBody_8hpp.html" target="_top" xlink:title=" ">
<polygon fill="none" stroke="black" points="236.16,-112.5 236.16,-131.5 314.16,-131.5 314.16,-112.5 236.16,-112.5"/>
<text text-anchor="middle" x="275.16" y="-119.5" font-family="Helvetica,sans-Serif" font-size="10.00">RigidBody.hpp</text>
</a>
</g>
</g>
<!-- Node33&#45;&gt;Node34 -->
<g id="edge56" class="edge">
<title>Node33&#45;&gt;Node34</title>
<path fill="none" stroke="midnightblue" d="M482.36,-298.11C393.83,-289.1 261.37,-272.83 246.16,-255 217.96,-221.94 245.73,-167.65 263.25,-140.13"/>
<polygon fill="midnightblue" stroke="midnightblue" points="266.3,-141.86 268.91,-131.6 260.47,-137.99 266.3,-141.86"/>
</g>
<!-- Node34&#45;&gt;Node16 -->
<g id="edge57" class="edge">
<title>Node34&#45;&gt;Node16</title>
<path fill="none" stroke="midnightblue" d="M314.35,-113.55C364.48,-104.02 451.48,-87.47 507.13,-76.89"/>
<polygon fill="midnightblue" stroke="midnightblue" points="507.96,-80.3 517.14,-74.99 506.66,-73.42 507.96,-80.3"/>
</g>
<!-- Node34&#45;&gt;Node18 -->
<g id="edge58" class="edge">
<title>Node34&#45;&gt;Node18</title>
<path fill="none" stroke="midnightblue" d="M275.16,-112.37C275.16,-94.62 275.16,-53.67 275.16,-29.6"/>
<polygon fill="midnightblue" stroke="midnightblue" points="278.66,-29.59 275.16,-19.59 271.66,-29.59 278.66,-29.59"/>
</g>
<!-- Node35&#45;&gt;Node6 -->
<g id="edge62" class="edge">
<title>Node35&#45;&gt;Node6</title>
<path fill="none" stroke="midnightblue" d="M1065.82,-168.97C1067.62,-168.64 1069.4,-168.31 1071.16,-168 1128.37,-157.85 1292,-175.83 1330.16,-132 1416.98,-32.28 1129.61,-14.74 1025.98,-11.66"/>
<polygon fill="midnightblue" stroke="midnightblue" points="1025.78,-8.15 1015.69,-11.38 1025.59,-15.15 1025.78,-8.15"/>
</g>
<!-- Node35&#45;&gt;Node15 -->
<g id="edge63" class="edge">
<title>Node35&#45;&gt;Node15</title>
<path fill="none" stroke="midnightblue" d="M1065.88,-169C1114.69,-158.32 1181.93,-143.61 1227.11,-133.73"/>
<polygon fill="midnightblue" stroke="midnightblue" points="1227.94,-137.13 1236.97,-131.57 1226.45,-130.29 1227.94,-137.13"/>
</g>
<!-- Node36 -->
<g id="node36" class="node">
<title>Node36</title>
<g id="a_node36"><a xlink:href="AudioSource_8hpp.html" target="_top" xlink:title=" ">
<polygon fill="none" stroke="black" points="771.16,-112.5 771.16,-131.5 861.16,-131.5 861.16,-112.5 771.16,-112.5"/>
<text text-anchor="middle" x="816.16" y="-119.5" font-family="Helvetica,sans-Serif" font-size="10.00">AudioSource.hpp</text>
</a>
</g>
</g>
<!-- Node35&#45;&gt;Node36 -->
<g id="edge64" class="edge">
<title>Node35&#45;&gt;Node36</title>
<path fill="none" stroke="midnightblue" d="M959.6,-168.4C927.12,-158.12 883.62,-144.35 853.07,-134.68"/>
<polygon fill="midnightblue" stroke="midnightblue" points="853.83,-131.25 843.24,-131.57 851.72,-137.93 853.83,-131.25"/>
</g>
<!-- Node37 -->
<g id="node37" class="node">
<title>Node37</title>
<g id="a_node37"><a xlink:href="AudioClipName_8hpp.html" target="_top" xlink:title=" ">
<polygon fill="none" stroke="black" points="917.66,-112.5 917.66,-131.5 1060.66,-131.5 1060.66,-112.5 917.66,-112.5"/>
<text text-anchor="middle" x="989.16" y="-119.5" font-family="Helvetica,sans-Serif" font-size="10.00">../Enums/AudioClipName.hpp</text>
</a>
</g>
</g>
<!-- Node35&#45;&gt;Node37 -->
<g id="edge67" class="edge">
<title>Node35&#45;&gt;Node37</title>
<path fill="none" stroke="midnightblue" d="M1000.6,-168.4C998.58,-160.38 996.02,-150.23 993.84,-141.57"/>
<polygon fill="midnightblue" stroke="midnightblue" points="997.18,-140.5 991.34,-131.66 990.39,-142.21 997.18,-140.5"/>
</g>
<!-- Node36&#45;&gt;Node8 -->
<g id="edge66" class="edge">
<title>Node36&#45;&gt;Node8</title>
<path fill="none" stroke="midnightblue" d="M826.28,-112.32C835.68,-104.26 849.9,-92.08 861.23,-82.37"/>
<polygon fill="midnightblue" stroke="midnightblue" points="863.54,-85 868.85,-75.83 858.98,-79.68 863.54,-85"/>
</g>
<!-- Node36&#45;&gt;Node16 -->
<g id="edge65" class="edge">
<title>Node36&#45;&gt;Node16</title>
<path fill="none" stroke="midnightblue" d="M775.43,-112.44C730.51,-103 658.16,-87.8 609.66,-77.61"/>
<polygon fill="midnightblue" stroke="midnightblue" points="610.19,-74.15 599.69,-75.52 608.75,-81 610.19,-74.15"/>
</g>
<!-- Node38&#45;&gt;Node4 -->
<g id="edge72" class="edge">
<title>Node38&#45;&gt;Node4</title>
<path fill="none" stroke="midnightblue" d="M1214.46,-241.97C1250.98,-238.3 1310.87,-227.98 1353.16,-199 1374.72,-184.22 1390.86,-158.1 1399.91,-140.67"/>
<polygon fill="midnightblue" stroke="midnightblue" points="1403.11,-142.08 1404.4,-131.56 1396.84,-138.98 1403.11,-142.08"/>
</g>
<!-- Node39 -->
<g id="node39" class="node">
<title>Node39</title>
<g id="a_node39"><a xlink:href="EngineConfig_8hpp.html" target="_top" xlink:title=" ">
<polygon fill="none" stroke="black" points="1122.66,-174 1122.66,-193 1213.66,-193 1213.66,-174 1122.66,-174"/>
<text text-anchor="middle" x="1168.16" y="-181" font-family="Helvetica,sans-Serif" font-size="10.00">EngineConfig.hpp</text>
</a>
</g>
</g>
<!-- Node38&#45;&gt;Node39 -->
<g id="edge69" class="edge">
<title>Node38&#45;&gt;Node39</title>
<path fill="none" stroke="midnightblue" d="M1180.15,-235.48C1178.15,-226.99 1175.03,-213.7 1172.47,-202.82"/>
<polygon fill="midnightblue" stroke="midnightblue" points="1175.86,-201.94 1170.16,-193.01 1169.04,-203.54 1175.86,-201.94"/>
</g>
<!-- Node40 -->
<g id="node40" class="node">
<title>Node40</title>
<g id="a_node40"><a xlink:href="WindowConfig_8hpp.html" target="_top" xlink:title=" ">
<polygon fill="none" stroke="black" points="1079.16,-112.5 1079.16,-131.5 1175.16,-131.5 1175.16,-112.5 1079.16,-112.5"/>
<text text-anchor="middle" x="1127.16" y="-119.5" font-family="Helvetica,sans-Serif" font-size="10.00">WindowConfig.hpp</text>
</a>
</g>
</g>
<!-- Node39&#45;&gt;Node40 -->
<g id="edge70" class="edge">
<title>Node39&#45;&gt;Node40</title>
<path fill="none" stroke="midnightblue" d="M1162.28,-173.98C1156.19,-165.14 1146.51,-151.09 1138.85,-139.98"/>
<polygon fill="midnightblue" stroke="midnightblue" points="1141.58,-137.76 1133.02,-131.51 1135.81,-141.73 1141.58,-137.76"/>
</g>
<!-- Node40&#45;&gt;Node8 -->
<g id="edge71" class="edge">
<title>Node40&#45;&gt;Node8</title>
<path fill="none" stroke="midnightblue" d="M1087.86,-112.44C1038.42,-101.68 954.57,-83.42 909.68,-73.65"/>
<polygon fill="midnightblue" stroke="midnightblue" points="910.18,-70.17 899.67,-71.47 908.69,-77.01 910.18,-70.17"/>
</g>
</g>
</svg>
