<?xml version="1.0" encoding="UTF-8" standalone="no"?>
<!DOCTYPE svg PUBLIC "-//W3C//DTD SVG 1.1//EN"
 "http://www.w3.org/Graphics/SVG/1.1/DTD/svg11.dtd">
<!-- Generated by graphviz version 2.44.0 ()
 -->
<!-- Title: src/Structs/MapNode.hpp Pages: 1 -->
<svg width="363pt" height="196pt"
 viewBox="0.00 0.00 362.94 196.00" xmlns="http://www.w3.org/2000/svg" xmlns:xlink="http://www.w3.org/1999/xlink">
<g id="graph0" class="graph" transform="scale(1 1) rotate(0) translate(4 192)">
<title>src/Structs/MapNode.hpp</title>
<!-- Node1 -->
<g id="node1" class="node">
<title>Node1</title>
<g id="a_node1"><a xlink:title=" ">
<polygon fill="#bfbfbf" stroke="black" points="9.44,-168.5 9.44,-187.5 137.44,-187.5 137.44,-168.5 9.44,-168.5"/>
<text text-anchor="middle" x="73.44" y="-175.5" font-family="Helvetica,sans-Serif" font-size="10.00">src/Structs/MapNode.hpp</text>
</a>
</g>
</g>
<!-- Node2 -->
<g id="node2" class="node">
<title>Node2</title>
<g id="a_node2"><a xlink:title=" ">
<polygon fill="none" stroke="#bfbfbf" points="15.44,-56.5 15.44,-75.5 59.44,-75.5 59.44,-56.5 15.44,-56.5"/>
<text text-anchor="middle" x="37.44" y="-63.5" font-family="Helvetica,sans-Serif" font-size="10.00">vector</text>
</a>
</g>
</g>
<!-- Node1&#45;&gt;Node2 -->
<g id="edge1" class="edge">
<title>Node1&#45;&gt;Node2</title>
<path fill="none" stroke="midnightblue" d="M69.98,-168.44C66.4,-159.44 60.73,-144.83 56.44,-132 51.25,-116.49 46.09,-98.65 42.46,-85.59"/>
<polygon fill="midnightblue" stroke="midnightblue" points="45.83,-84.62 39.81,-75.9 39.07,-86.47 45.83,-84.62"/>
</g>
<!-- Node3 -->
<g id="node3" class="node">
<title>Node3</title>
<g id="a_node3"><a xlink:title=" ">
<polygon fill="none" stroke="#bfbfbf" points="61.94,-0.5 61.94,-19.5 112.94,-19.5 112.94,-0.5 61.94,-0.5"/>
<text text-anchor="middle" x="87.44" y="-7.5" font-family="Helvetica,sans-Serif" font-size="10.00">memory</text>
</a>
</g>
</g>
<!-- Node1&#45;&gt;Node3 -->
<g id="edge2" class="edge">
<title>Node1&#45;&gt;Node3</title>
<path fill="none" stroke="midnightblue" d="M62.1,-168.4C37.23,-148.47 -18.04,-97.6 6.44,-56 16.33,-39.19 35.01,-28.21 51.94,-21.31"/>
<polygon fill="midnightblue" stroke="midnightblue" points="53.48,-24.47 61.63,-17.71 51.04,-17.91 53.48,-24.47"/>
</g>
<!-- Node4 -->
<g id="node4" class="node">
<title>Node4</title>
<g id="a_node4"><a xlink:href="GameObject_8hpp.html" target="_top" xlink:title=" ">
<polygon fill="none" stroke="black" points="65.94,-112.5 65.94,-131.5 154.94,-131.5 154.94,-112.5 65.94,-112.5"/>
<text text-anchor="middle" x="110.44" y="-119.5" font-family="Helvetica,sans-Serif" font-size="10.00">GameObject.hpp</text>
</a>
</g>
</g>
<!-- Node1&#45;&gt;Node4 -->
<g id="edge3" class="edge">
<title>Node1&#45;&gt;Node4</title>
<path fill="none" stroke="midnightblue" d="M79.55,-168.08C84.72,-160.53 92.28,-149.49 98.63,-140.23"/>
<polygon fill="midnightblue" stroke="midnightblue" points="101.68,-141.98 104.44,-131.75 95.9,-138.02 101.68,-141.98"/>
</g>
<!-- Node9 -->
<g id="node9" class="node">
<title>Node9</title>
<g id="a_node9"><a xlink:href="TileType_8hpp.html" target="_top" xlink:title=" ">
<polygon fill="none" stroke="black" points="172.44,-112.5 172.44,-131.5 284.44,-131.5 284.44,-112.5 172.44,-112.5"/>
<text text-anchor="middle" x="228.44" y="-119.5" font-family="Helvetica,sans-Serif" font-size="10.00">../Enums/TileType.hpp</text>
</a>
</g>
</g>
<!-- Node1&#45;&gt;Node9 -->
<g id="edge11" class="edge">
<title>Node1&#45;&gt;Node9</title>
<path fill="none" stroke="midnightblue" d="M98,-168.44C123.96,-159.4 165.11,-145.06 194.24,-134.92"/>
<polygon fill="midnightblue" stroke="midnightblue" points="195.7,-138.11 203.99,-131.52 193.4,-131.5 195.7,-138.11"/>
</g>
<!-- Node4&#45;&gt;Node2 -->
<g id="edge9" class="edge">
<title>Node4&#45;&gt;Node2</title>
<path fill="none" stroke="midnightblue" d="M98.71,-112.32C87.6,-104.11 70.7,-91.6 57.46,-81.81"/>
<polygon fill="midnightblue" stroke="midnightblue" points="59.5,-78.97 49.38,-75.83 55.34,-84.59 59.5,-78.97"/>
</g>
<!-- Node4&#45;&gt;Node3 -->
<g id="edge10" class="edge">
<title>Node4&#45;&gt;Node3</title>
<path fill="none" stroke="midnightblue" d="M108.63,-112.37C104.92,-94.62 96.36,-53.67 91.33,-29.6"/>
<polygon fill="midnightblue" stroke="midnightblue" points="94.71,-28.66 89.24,-19.59 87.86,-30.1 94.71,-28.66"/>
</g>
<!-- Node5 -->
<g id="node5" class="node">
<title>Node5</title>
<g id="a_node5"><a xlink:href="Component_8hpp.html" target="_top" xlink:title=" ">
<polygon fill="none" stroke="black" points="115.44,-56.5 115.44,-75.5 199.44,-75.5 199.44,-56.5 115.44,-56.5"/>
<text text-anchor="middle" x="157.44" y="-63.5" font-family="Helvetica,sans-Serif" font-size="10.00">Component.hpp</text>
</a>
</g>
</g>
<!-- Node4&#45;&gt;Node5 -->
<g id="edge4" class="edge">
<title>Node4&#45;&gt;Node5</title>
<path fill="none" stroke="midnightblue" d="M118.2,-112.08C124.98,-104.3 134.98,-92.8 143.19,-83.37"/>
<polygon fill="midnightblue" stroke="midnightblue" points="145.9,-85.59 149.82,-75.75 140.62,-81 145.9,-85.59"/>
</g>
<!-- Node6 -->
<g id="node6" class="node">
<title>Node6</title>
<g id="a_node6"><a xlink:href="Transform_8hpp.html" target="_top" xlink:title=" ">
<polygon fill="none" stroke="black" points="216.94,-56.5 216.94,-75.5 295.94,-75.5 295.94,-56.5 216.94,-56.5"/>
<text text-anchor="middle" x="256.44" y="-63.5" font-family="Helvetica,sans-Serif" font-size="10.00">Transform.hpp</text>
</a>
</g>
</g>
<!-- Node4&#45;&gt;Node6 -->
<g id="edge6" class="edge">
<title>Node4&#45;&gt;Node6</title>
<path fill="none" stroke="midnightblue" d="M133.57,-112.44C157.92,-103.44 196.45,-89.19 223.86,-79.05"/>
<polygon fill="midnightblue" stroke="midnightblue" points="225.25,-82.27 233.41,-75.52 222.82,-75.7 225.25,-82.27"/>
</g>
<!-- Node8 -->
<g id="node8" class="node">
<title>Node8</title>
<g id="a_node8"><a xlink:title=" ">
<polygon fill="none" stroke="#bfbfbf" points="313.94,-56.5 313.94,-75.5 354.94,-75.5 354.94,-56.5 313.94,-56.5"/>
<text text-anchor="middle" x="334.44" y="-63.5" font-family="Helvetica,sans-Serif" font-size="10.00">string</text>
</a>
</g>
</g>
<!-- Node4&#45;&gt;Node8 -->
<g id="edge8" class="edge">
<title>Node4&#45;&gt;Node8</title>
<path fill="none" stroke="midnightblue" d="M151.37,-112.48C188.89,-104.46 246.17,-91.71 304.2,-76.2"/>
<polygon fill="midnightblue" stroke="midnightblue" points="305.16,-79.56 313.9,-73.58 303.33,-72.81 305.16,-79.56"/>
</g>
<!-- Node5&#45;&gt;Node3 -->
<g id="edge5" class="edge">
<title>Node5&#45;&gt;Node3</title>
<path fill="none" stroke="midnightblue" d="M146.19,-56.32C135.64,-48.18 119.64,-35.84 107,-26.09"/>
<polygon fill="midnightblue" stroke="midnightblue" points="108.95,-23.17 98.89,-19.83 104.67,-28.71 108.95,-23.17"/>
</g>
<!-- Node7 -->
<g id="node7" class="node">
<title>Node7</title>
<g id="a_node7"><a xlink:href="Point_8hpp.html" target="_top" xlink:title=" ">
<polygon fill="none" stroke="black" points="227.94,-0.5 227.94,-19.5 284.94,-19.5 284.94,-0.5 227.94,-0.5"/>
<text text-anchor="middle" x="256.44" y="-7.5" font-family="Helvetica,sans-Serif" font-size="10.00">Point.hpp</text>
</a>
</g>
</g>
<!-- Node6&#45;&gt;Node7 -->
<g id="edge7" class="edge">
<title>Node6&#45;&gt;Node7</title>
<path fill="none" stroke="midnightblue" d="M256.44,-56.08C256.44,-49.01 256.44,-38.86 256.44,-29.99"/>
<polygon fill="midnightblue" stroke="midnightblue" points="259.94,-29.75 256.44,-19.75 252.94,-29.75 259.94,-29.75"/>
</g>
</g>
</svg>
