<?xml version="1.0" encoding="UTF-8" standalone="no"?>
<!DOCTYPE svg PUBLIC "-//W3C//DTD SVG 1.1//EN"
 "http://www.w3.org/Graphics/SVG/1.1/DTD/svg11.dtd">
<!-- Generated by graphviz version 2.44.0 ()
 -->
<!-- Title: src/Structs/MapNode.hpp Pages: 1 -->
<svg width="1437pt" height="285pt"
 viewBox="0.00 0.00 1436.50 285.00" xmlns="http://www.w3.org/2000/svg" xmlns:xlink="http://www.w3.org/1999/xlink">
<g id="graph0" class="graph" transform="scale(1 1) rotate(0) translate(4 281)">
<title>src/Structs/MapNode.hpp</title>
<!-- Node1 -->
<g id="node1" class="node">
<title>Node1</title>
<g id="a_node1"><a xlink:title=" ">
<polygon fill="#bfbfbf" stroke="black" points="632,-257.5 632,-276.5 760,-276.5 760,-257.5 632,-257.5"/>
<text text-anchor="middle" x="696" y="-264.5" font-family="Helvetica,sans-Serif" font-size="10.00">src/Structs/MapNode.hpp</text>
</a>
</g>
</g>
<!-- Node2 -->
<g id="node2" class="node">
<title>Node2</title>
<g id="a_node2"><a xlink:href="EnemyMovementBehaviour_8hpp.html" target="_top" xlink:title=" ">
<polygon fill="none" stroke="black" points="336,-67.5 336,-97.5 492,-97.5 492,-67.5 336,-67.5"/>
<text text-anchor="start" x="344" y="-85.5" font-family="Helvetica,sans-Serif" font-size="10.00">src/Scripts/Enemies</text>
<text text-anchor="middle" x="414" y="-74.5" font-family="Helvetica,sans-Serif" font-size="10.00">/EnemyMovementBehaviour.hpp</text>
</a>
</g>
</g>
<!-- Node1&#45;&gt;Node2 -->
<g id="edge1" class="edge">
<title>Node1&#45;&gt;Node2</title>
<path fill="none" stroke="midnightblue" d="M674.23,-251.91C621.76,-217.96 488.76,-131.88 436.03,-97.75"/>
<polygon fill="midnightblue" stroke="midnightblue" points="672.48,-254.95 682.78,-257.44 676.28,-249.07 672.48,-254.95"/>
</g>
<!-- Node7 -->
<g id="node7" class="node">
<title>Node7</title>
<g id="a_node7"><a xlink:href="LevelData_8hpp.html" target="_top" xlink:title=" ">
<polygon fill="none" stroke="black" points="918,-201.5 918,-220.5 1048,-220.5 1048,-201.5 918,-201.5"/>
<text text-anchor="middle" x="983" y="-208.5" font-family="Helvetica,sans-Serif" font-size="10.00">src/Structs/LevelData.hpp</text>
</a>
</g>
</g>
<!-- Node1&#45;&gt;Node7 -->
<g id="edge6" class="edge">
<title>Node1&#45;&gt;Node7</title>
<path fill="none" stroke="midnightblue" d="M751.61,-255.54C805.85,-245.33 887.34,-230 937.74,-220.52"/>
<polygon fill="midnightblue" stroke="midnightblue" points="750.66,-252.15 741.48,-257.44 751.95,-259.03 750.66,-252.15"/>
</g>
<!-- Node3 -->
<g id="node3" class="node">
<title>Node3</title>
<g id="a_node3"><a xlink:href="EnemyPrefabFactory_8cpp.html" target="_top" xlink:title=" ">
<polygon fill="none" stroke="black" points="182,-0.5 182,-30.5 316,-30.5 316,-0.5 182,-0.5"/>
<text text-anchor="start" x="190" y="-18.5" font-family="Helvetica,sans-Serif" font-size="10.00">src/Factories/EnemyPrefab</text>
<text text-anchor="middle" x="249" y="-7.5" font-family="Helvetica,sans-Serif" font-size="10.00">Factory.cpp</text>
</a>
</g>
</g>
<!-- Node2&#45;&gt;Node3 -->
<g id="edge2" class="edge">
<title>Node2&#45;&gt;Node3</title>
<path fill="none" stroke="midnightblue" d="M368.77,-63.68C342.31,-53.26 309.37,-40.28 284.73,-30.58"/>
<polygon fill="midnightblue" stroke="midnightblue" points="367.61,-66.99 378.2,-67.4 370.18,-60.47 367.61,-66.99"/>
</g>
<!-- Node4 -->
<g id="node4" class="node">
<title>Node4</title>
<g id="a_node4"><a xlink:href="EnemyMovementBehaviour_8cpp.html" target="_top" xlink:title=" ">
<polygon fill="none" stroke="black" points="512,-0.5 512,-30.5 668,-30.5 668,-0.5 512,-0.5"/>
<text text-anchor="start" x="520" y="-18.5" font-family="Helvetica,sans-Serif" font-size="10.00">src/Scripts/Enemies</text>
<text text-anchor="middle" x="590" y="-7.5" font-family="Helvetica,sans-Serif" font-size="10.00">/EnemyMovementBehaviour.cpp</text>
</a>
</g>
</g>
<!-- Node2&#45;&gt;Node4 -->
<g id="edge3" class="edge">
<title>Node2&#45;&gt;Node4</title>
<path fill="none" stroke="midnightblue" d="M461.88,-63.82C490.17,-53.37 525.49,-40.32 551.89,-30.58"/>
<polygon fill="midnightblue" stroke="midnightblue" points="460.36,-60.65 452.19,-67.4 462.78,-67.21 460.36,-60.65"/>
</g>
<!-- Node5 -->
<g id="node5" class="node">
<title>Node5</title>
<g id="a_node5"><a xlink:href="EnemySpeedBoostBehaviour_8cpp.html" target="_top" xlink:title=" ">
<polygon fill="none" stroke="black" points="0,-0.5 0,-30.5 164,-30.5 164,-0.5 0,-0.5"/>
<text text-anchor="start" x="8" y="-18.5" font-family="Helvetica,sans-Serif" font-size="10.00">src/Scripts/Enemies</text>
<text text-anchor="middle" x="82" y="-7.5" font-family="Helvetica,sans-Serif" font-size="10.00">/EnemySpeedBoostBehaviour.cpp</text>
</a>
</g>
</g>
<!-- Node2&#45;&gt;Node5 -->
<g id="edge4" class="edge">
<title>Node2&#45;&gt;Node5</title>
<path fill="none" stroke="midnightblue" d="M332.36,-65.52C277.66,-54.81 206.32,-40.84 153.79,-30.55"/>
<polygon fill="midnightblue" stroke="midnightblue" points="331.88,-68.99 342.37,-67.48 333.23,-62.12 331.88,-68.99"/>
</g>
<!-- Node6 -->
<g id="node6" class="node">
<title>Node6</title>
<g id="a_node6"><a xlink:href="EnemyTroopTruckBehaviour_8cpp.html" target="_top" xlink:title=" ">
<polygon fill="none" stroke="black" points="334,-0.5 334,-30.5 494,-30.5 494,-0.5 334,-0.5"/>
<text text-anchor="start" x="342" y="-18.5" font-family="Helvetica,sans-Serif" font-size="10.00">src/Scripts/Enemies</text>
<text text-anchor="middle" x="414" y="-7.5" font-family="Helvetica,sans-Serif" font-size="10.00">/EnemyTroopTruckBehaviour.cpp</text>
</a>
</g>
</g>
<!-- Node2&#45;&gt;Node6 -->
<g id="edge5" class="edge">
<title>Node2&#45;&gt;Node6</title>
<path fill="none" stroke="midnightblue" d="M414,-57.11C414,-48.15 414,-38.32 414,-30.58"/>
<polygon fill="midnightblue" stroke="midnightblue" points="410.5,-57.4 414,-67.4 417.5,-57.4 410.5,-57.4"/>
</g>
<!-- Node8 -->
<g id="node8" class="node">
<title>Node8</title>
<g id="a_node8"><a xlink:href="LevelController_8hpp.html" target="_top" xlink:title=" ">
<polygon fill="none" stroke="black" points="798,-73 798,-92 964,-92 964,-73 798,-73"/>
<text text-anchor="middle" x="881" y="-80" font-family="Helvetica,sans-Serif" font-size="10.00">src/Controllers/LevelController.hpp</text>
</a>
</g>
</g>
<!-- Node7&#45;&gt;Node8 -->
<g id="edge7" class="edge">
<title>Node7&#45;&gt;Node8</title>
<path fill="none" stroke="midnightblue" d="M952.99,-196.97C938.61,-189.43 922.13,-178.7 911,-165 892.74,-142.53 885,-107.92 882.26,-92.02"/>
<polygon fill="midnightblue" stroke="midnightblue" points="951.55,-200.16 962.06,-201.47 954.66,-193.89 951.55,-200.16"/>
</g>
<!-- Node13 -->
<g id="node13" class="node">
<title>Node13</title>
<g id="a_node13"><a xlink:href="GameLostBehaviour_8hpp.html" target="_top" xlink:title=" ">
<polygon fill="none" stroke="black" points="919.5,-134.5 919.5,-164.5 1046.5,-164.5 1046.5,-134.5 919.5,-134.5"/>
<text text-anchor="start" x="927.5" y="-152.5" font-family="Helvetica,sans-Serif" font-size="10.00">src/Scripts/Common</text>
<text text-anchor="middle" x="983" y="-141.5" font-family="Helvetica,sans-Serif" font-size="10.00">/GameLostBehaviour.hpp</text>
</a>
</g>
</g>
<!-- Node7&#45;&gt;Node13 -->
<g id="edge14" class="edge">
<title>Node7&#45;&gt;Node13</title>
<path fill="none" stroke="midnightblue" d="M983,-191.23C983,-182.59 983,-172.5 983,-164.52"/>
<polygon fill="midnightblue" stroke="midnightblue" points="979.5,-191.48 983,-201.48 986.5,-191.48 979.5,-191.48"/>
</g>
<!-- Node15 -->
<g id="node15" class="node">
<title>Node15</title>
<g id="a_node15"><a xlink:href="GameWonBehaviour_8hpp.html" target="_top" xlink:title=" ">
<polygon fill="none" stroke="black" points="1166.5,-67.5 1166.5,-97.5 1293.5,-97.5 1293.5,-67.5 1166.5,-67.5"/>
<text text-anchor="start" x="1174.5" y="-85.5" font-family="Helvetica,sans-Serif" font-size="10.00">src/Scripts/Common</text>
<text text-anchor="middle" x="1230" y="-74.5" font-family="Helvetica,sans-Serif" font-size="10.00">/GameWonBehaviour.hpp</text>
</a>
</g>
</g>
<!-- Node7&#45;&gt;Node15 -->
<g id="edge18" class="edge">
<title>Node7&#45;&gt;Node15</title>
<path fill="none" stroke="midnightblue" d="M1058.39,-202.81C1113.69,-196.07 1182.71,-184.11 1204,-165 1223.34,-147.64 1228.39,-115.93 1229.65,-97.6"/>
<polygon fill="midnightblue" stroke="midnightblue" points="1057.76,-199.36 1048.24,-204.01 1058.58,-206.31 1057.76,-199.36"/>
</g>
<!-- Node17 -->
<g id="node17" class="node">
<title>Node17</title>
<g id="a_node17"><a xlink:href="LevelData_8cpp.html" target="_top" xlink:title=" ">
<polygon fill="none" stroke="black" points="1065,-140 1065,-159 1195,-159 1195,-140 1065,-140"/>
<text text-anchor="middle" x="1130" y="-147" font-family="Helvetica,sans-Serif" font-size="10.00">src/Structs/LevelData.cpp</text>
</a>
</g>
</g>
<!-- Node7&#45;&gt;Node17 -->
<g id="edge22" class="edge">
<title>Node7&#45;&gt;Node17</title>
<path fill="none" stroke="midnightblue" d="M1013.56,-197.63C1042.12,-186.07 1084,-169.12 1108.98,-159.01"/>
<polygon fill="midnightblue" stroke="midnightblue" points="1012.02,-194.48 1004.06,-201.48 1014.64,-200.97 1012.02,-194.48"/>
</g>
<!-- Node8&#45;&gt;Node4 -->
<g id="edge11" class="edge">
<title>Node8&#45;&gt;Node4</title>
<path fill="none" stroke="midnightblue" d="M832.89,-70.75C783.67,-59.76 706.96,-42.63 652.94,-30.56"/>
<polygon fill="midnightblue" stroke="midnightblue" points="832.14,-74.17 842.66,-72.94 833.66,-67.34 832.14,-74.17"/>
</g>
<!-- Node8&#45;&gt;Node6 -->
<g id="edge12" class="edge">
<title>Node8&#45;&gt;Node6</title>
<path fill="none" stroke="midnightblue" d="M802.59,-71.69C726.08,-61.96 606.42,-46.33 503,-31 500.06,-30.56 497.06,-30.11 494.04,-29.65"/>
<polygon fill="midnightblue" stroke="midnightblue" points="802.27,-75.18 812.63,-72.97 803.15,-68.23 802.27,-75.18"/>
</g>
<!-- Node9 -->
<g id="node9" class="node">
<title>Node9</title>
<g id="a_node9"><a xlink:href="LevelController_8cpp.html" target="_top" xlink:title=" ">
<polygon fill="none" stroke="black" points="993,-6 993,-25 1159,-25 1159,-6 993,-6"/>
<text text-anchor="middle" x="1076" y="-13" font-family="Helvetica,sans-Serif" font-size="10.00">src/Controllers/LevelController.cpp</text>
</a>
</g>
</g>
<!-- Node8&#45;&gt;Node9 -->
<g id="edge8" class="edge">
<title>Node8&#45;&gt;Node9</title>
<path fill="none" stroke="midnightblue" d="M916.7,-69.6C955.36,-56.71 1016.08,-36.47 1050.31,-25.06"/>
<polygon fill="midnightblue" stroke="midnightblue" points="915.27,-66.39 906.89,-72.87 917.49,-73.03 915.27,-66.39"/>
</g>
<!-- Node10 -->
<g id="node10" class="node">
<title>Node10</title>
<g id="a_node10"><a xlink:href="LevelScene_8cpp.html" target="_top" xlink:title=" ">
<polygon fill="none" stroke="black" points="835.5,-6 835.5,-25 974.5,-25 974.5,-6 835.5,-6"/>
<text text-anchor="middle" x="905" y="-13" font-family="Helvetica,sans-Serif" font-size="10.00">src/Scenes/LevelScene.cpp</text>
</a>
</g>
</g>
<!-- Node8&#45;&gt;Node10 -->
<g id="edge9" class="edge">
<title>Node8&#45;&gt;Node10</title>
<path fill="none" stroke="midnightblue" d="M887.72,-63.29C892.33,-50.81 898.24,-34.81 901.81,-25.13"/>
<polygon fill="midnightblue" stroke="midnightblue" points="884.42,-62.14 884.24,-72.73 890.98,-64.57 884.42,-62.14"/>
</g>
<!-- Node11 -->
<g id="node11" class="node">
<title>Node11</title>
<g id="a_node11"><a xlink:href="CheatManager_8cpp.html" target="_top" xlink:title=" ">
<polygon fill="none" stroke="black" points="1177,-0.5 1177,-30.5 1283,-30.5 1283,-0.5 1177,-0.5"/>
<text text-anchor="start" x="1185" y="-18.5" font-family="Helvetica,sans-Serif" font-size="10.00">src/Scripts/Common</text>
<text text-anchor="middle" x="1230" y="-7.5" font-family="Helvetica,sans-Serif" font-size="10.00">/CheatManager.cpp</text>
</a>
</g>
</g>
<!-- Node8&#45;&gt;Node11 -->
<g id="edge10" class="edge">
<title>Node8&#45;&gt;Node11</title>
<path fill="none" stroke="midnightblue" d="M944.76,-71.33C1003.04,-61.78 1091.55,-46.65 1168,-31 1170.92,-30.4 1173.92,-29.77 1176.94,-29.11"/>
<polygon fill="midnightblue" stroke="midnightblue" points="943.9,-67.92 934.59,-72.98 945.03,-74.83 943.9,-67.92"/>
</g>
<!-- Node12 -->
<g id="node12" class="node">
<title>Node12</title>
<g id="a_node12"><a xlink:href="UserAttackBehaviour_8cpp.html" target="_top" xlink:title=" ">
<polygon fill="none" stroke="black" points="686.5,-0.5 686.5,-30.5 817.5,-30.5 817.5,-0.5 686.5,-0.5"/>
<text text-anchor="start" x="694.5" y="-18.5" font-family="Helvetica,sans-Serif" font-size="10.00">src/Scripts/Heroes</text>
<text text-anchor="middle" x="752" y="-7.5" font-family="Helvetica,sans-Serif" font-size="10.00">/UserAttackBehaviour.cpp</text>
</a>
</g>
</g>
<!-- Node8&#45;&gt;Node12 -->
<g id="edge13" class="edge">
<title>Node8&#45;&gt;Node12</title>
<path fill="none" stroke="midnightblue" d="M854.89,-68.34C833.17,-57.4 802.33,-41.86 780.09,-30.65"/>
<polygon fill="midnightblue" stroke="midnightblue" points="853.36,-71.49 863.87,-72.87 856.51,-65.24 853.36,-71.49"/>
</g>
<!-- Node13&#45;&gt;Node8 -->
<g id="edge15" class="edge">
<title>Node13&#45;&gt;Node8</title>
<path fill="none" stroke="midnightblue" d="M952.36,-128.97C933.02,-116.65 909,-101.35 894.35,-92.01"/>
<polygon fill="midnightblue" stroke="midnightblue" points="950.55,-131.97 960.87,-134.4 954.32,-126.07 950.55,-131.97"/>
</g>
<!-- Node13&#45;&gt;Node11 -->
<g id="edge16" class="edge">
<title>Node13&#45;&gt;Node11</title>
<path fill="none" stroke="midnightblue" d="M1041.76,-131.22C1066.41,-122.83 1094.89,-111.6 1119,-98 1138.29,-87.12 1140.26,-80.25 1158,-67 1175,-54.3 1194.77,-40.5 1209.28,-30.54"/>
<polygon fill="midnightblue" stroke="midnightblue" points="1040.55,-127.93 1032.17,-134.41 1042.76,-134.58 1040.55,-127.93"/>
</g>
<!-- Node14 -->
<g id="node14" class="node">
<title>Node14</title>
<g id="a_node14"><a xlink:href="GameLostBehaviour_8cpp.html" target="_top" xlink:title=" ">
<polygon fill="none" stroke="black" points="982.5,-67.5 982.5,-97.5 1109.5,-97.5 1109.5,-67.5 982.5,-67.5"/>
<text text-anchor="start" x="990.5" y="-85.5" font-family="Helvetica,sans-Serif" font-size="10.00">src/Scripts/Common</text>
<text text-anchor="middle" x="1046" y="-74.5" font-family="Helvetica,sans-Serif" font-size="10.00">/GameLostBehaviour.cpp</text>
</a>
</g>
</g>
<!-- Node13&#45;&gt;Node14 -->
<g id="edge17" class="edge">
<title>Node13&#45;&gt;Node14</title>
<path fill="none" stroke="midnightblue" d="M1003.81,-127.02C1013.2,-117.34 1024.02,-106.17 1032.36,-97.58"/>
<polygon fill="midnightblue" stroke="midnightblue" points="1001.12,-124.78 996.67,-134.4 1006.14,-129.65 1001.12,-124.78"/>
</g>
<!-- Node15&#45;&gt;Node9 -->
<g id="edge19" class="edge">
<title>Node15&#45;&gt;Node9</title>
<path fill="none" stroke="midnightblue" d="M1187.26,-63.46C1157.5,-50.9 1119.18,-34.72 1096.16,-25.01"/>
<polygon fill="midnightblue" stroke="midnightblue" points="1186.01,-66.73 1196.58,-67.4 1188.73,-60.28 1186.01,-66.73"/>
</g>
<!-- Node15&#45;&gt;Node11 -->
<g id="edge20" class="edge">
<title>Node15&#45;&gt;Node11</title>
<path fill="none" stroke="midnightblue" d="M1230,-57.11C1230,-48.15 1230,-38.32 1230,-30.58"/>
<polygon fill="midnightblue" stroke="midnightblue" points="1226.5,-57.4 1230,-67.4 1233.5,-57.4 1226.5,-57.4"/>
</g>
<!-- Node16 -->
<g id="node16" class="node">
<title>Node16</title>
<g id="a_node16"><a xlink:href="GameWonBehaviour_8cpp.html" target="_top" xlink:title=" ">
<polygon fill="none" stroke="black" points="1301.5,-0.5 1301.5,-30.5 1428.5,-30.5 1428.5,-0.5 1301.5,-0.5"/>
<text text-anchor="start" x="1309.5" y="-18.5" font-family="Helvetica,sans-Serif" font-size="10.00">src/Scripts/Common</text>
<text text-anchor="middle" x="1365" y="-7.5" font-family="Helvetica,sans-Serif" font-size="10.00">/GameWonBehaviour.cpp</text>
</a>
</g>
</g>
<!-- Node15&#45;&gt;Node16 -->
<g id="edge21" class="edge">
<title>Node15&#45;&gt;Node16</title>
<path fill="none" stroke="midnightblue" d="M1268.44,-62.99C1289.84,-52.69 1316.05,-40.07 1335.76,-30.58"/>
<polygon fill="midnightblue" stroke="midnightblue" points="1266.78,-59.9 1259.29,-67.4 1269.82,-66.21 1266.78,-59.9"/>
</g>
</g>
</svg>
