<?xml version="1.0" encoding="UTF-8" standalone="no"?>
<!DOCTYPE svg PUBLIC "-//W3C//DTD SVG 1.1//EN"
 "http://www.w3.org/Graphics/SVG/1.1/DTD/svg11.dtd">
<!-- Generated by graphviz version 2.44.0 ()
 -->
<!-- Title: src/Scenes/MenuScene.hpp Pages: 1 -->
<svg width="2259pt" height="162pt"
 viewBox="0.00 0.00 2258.50 162.00" xmlns="http://www.w3.org/2000/svg" xmlns:xlink="http://www.w3.org/1999/xlink">
<g id="graph0" class="graph" transform="scale(1 1) rotate(0) translate(4 158)">
<title>src/Scenes/MenuScene.hpp</title>
<!-- Node1 -->
<g id="node1" class="node">
<title>Node1</title>
<g id="a_node1"><a xlink:title=" ">
<polygon fill="#bfbfbf" stroke="black" points="871.5,-134.5 871.5,-153.5 1010.5,-153.5 1010.5,-134.5 871.5,-134.5"/>
<text text-anchor="middle" x="941" y="-141.5" font-family="Helvetica,sans-Serif" font-size="10.00">src/Scenes/MenuScene.hpp</text>
</a>
</g>
</g>
<!-- Node2 -->
<g id="node2" class="node">
<title>Node2</title>
<g id="a_node2"><a xlink:href="CreditScene_8hpp.html" target="_top" xlink:title=" ">
<polygon fill="none" stroke="black" points="90,-73 90,-92 230,-92 230,-73 90,-73"/>
<text text-anchor="middle" x="160" y="-80" font-family="Helvetica,sans-Serif" font-size="10.00">src/Scenes/CreditScene.hpp</text>
</a>
</g>
</g>
<!-- Node1&#45;&gt;Node2 -->
<g id="edge1" class="edge">
<title>Node1&#45;&gt;Node2</title>
<path fill="none" stroke="midnightblue" d="M861.2,-140.94C730.66,-136.88 463.51,-125.7 239,-98 226.68,-96.48 213.38,-94.26 201.27,-92.02"/>
<polygon fill="midnightblue" stroke="midnightblue" points="861.4,-144.44 871.5,-141.25 861.61,-137.45 861.4,-144.44"/>
</g>
<!-- Node5 -->
<g id="node5" class="node">
<title>Node5</title>
<g id="a_node5"><a xlink:href="GameOverScene_8hpp.html" target="_top" xlink:title=" ">
<polygon fill="none" stroke="black" points="1236,-73 1236,-92 1398,-92 1398,-73 1236,-73"/>
<text text-anchor="middle" x="1317" y="-80" font-family="Helvetica,sans-Serif" font-size="10.00">src/Scenes/GameOverScene.hpp</text>
</a>
</g>
</g>
<!-- Node1&#45;&gt;Node5 -->
<g id="edge4" class="edge">
<title>Node1&#45;&gt;Node5</title>
<path fill="none" stroke="midnightblue" d="M1004.82,-132.9C1077.51,-121.4 1195.01,-102.8 1263.23,-92.01"/>
<polygon fill="midnightblue" stroke="midnightblue" points="1004.2,-129.46 994.87,-134.48 1005.3,-136.37 1004.2,-129.46"/>
</g>
<!-- Node8 -->
<g id="node8" class="node">
<title>Node8</title>
<g id="a_node8"><a xlink:href="HelpScene_8hpp.html" target="_top" xlink:title=" ">
<polygon fill="none" stroke="black" points="720.5,-73 720.5,-92 855.5,-92 855.5,-73 720.5,-73"/>
<text text-anchor="middle" x="788" y="-80" font-family="Helvetica,sans-Serif" font-size="10.00">src/Scenes/HelpScene.hpp</text>
</a>
</g>
</g>
<!-- Node1&#45;&gt;Node8 -->
<g id="edge7" class="edge">
<title>Node1&#45;&gt;Node8</title>
<path fill="none" stroke="midnightblue" d="M909.58,-130.78C879.85,-119.22 835.99,-102.16 809.88,-92.01"/>
<polygon fill="midnightblue" stroke="midnightblue" points="908.49,-134.11 919.08,-134.48 911.03,-127.59 908.49,-134.11"/>
</g>
<!-- Node11 -->
<g id="node11" class="node">
<title>Node11</title>
<g id="a_node11"><a xlink:href="LevelSelectionScene_8hpp.html" target="_top" xlink:title=" ">
<polygon fill="none" stroke="black" points="874,-67.5 874,-97.5 1008,-97.5 1008,-67.5 874,-67.5"/>
<text text-anchor="start" x="882" y="-85.5" font-family="Helvetica,sans-Serif" font-size="10.00">src/Scenes/LevelSelection</text>
<text text-anchor="middle" x="941" y="-74.5" font-family="Helvetica,sans-Serif" font-size="10.00">Scene.hpp</text>
</a>
</g>
</g>
<!-- Node1&#45;&gt;Node11 -->
<g id="edge10" class="edge">
<title>Node1&#45;&gt;Node11</title>
<path fill="none" stroke="midnightblue" d="M941,-124.23C941,-115.59 941,-105.5 941,-97.52"/>
<polygon fill="midnightblue" stroke="midnightblue" points="937.5,-124.48 941,-134.48 944.5,-124.48 937.5,-124.48"/>
</g>
<!-- Node14 -->
<g id="node14" class="node">
<title>Node14</title>
<g id="a_node14"><a xlink:href="LoadingScene_8hpp.html" target="_top" xlink:title=" ">
<polygon fill="none" stroke="black" points="248.5,-73 248.5,-92 397.5,-92 397.5,-73 248.5,-73"/>
<text text-anchor="middle" x="323" y="-80" font-family="Helvetica,sans-Serif" font-size="10.00">src/Scenes/LoadingScene.hpp</text>
</a>
</g>
</g>
<!-- Node1&#45;&gt;Node14 -->
<g id="edge14" class="edge">
<title>Node1&#45;&gt;Node14</title>
<path fill="none" stroke="midnightblue" d="M861.08,-138.44C756.47,-131.97 567.53,-118.58 407,-98 394.38,-96.38 380.75,-94.21 368.23,-92.05"/>
<polygon fill="midnightblue" stroke="midnightblue" points="861.05,-141.94 871.25,-139.06 861.48,-134.96 861.05,-141.94"/>
</g>
<!-- Node16 -->
<g id="node16" class="node">
<title>Node16</title>
<g id="a_node16"><a xlink:href="MainScene_8hpp.html" target="_top" xlink:title=" ">
<polygon fill="none" stroke="black" points="566,-73 566,-92 702,-92 702,-73 566,-73"/>
<text text-anchor="middle" x="634" y="-80" font-family="Helvetica,sans-Serif" font-size="10.00">src/Scenes/MainScene.hpp</text>
</a>
</g>
</g>
<!-- Node1&#45;&gt;Node16 -->
<g id="edge17" class="edge">
<title>Node1&#45;&gt;Node16</title>
<path fill="none" stroke="midnightblue" d="M887.06,-132.55C827.58,-121.02 733.03,-102.69 677.9,-92.01"/>
<polygon fill="midnightblue" stroke="midnightblue" points="886.53,-136.01 897.01,-134.48 887.86,-129.14 886.53,-136.01"/>
</g>
<!-- Node18 -->
<g id="node18" class="node">
<title>Node18</title>
<g id="a_node18"><a xlink:href="MenuScene_8cpp.html" target="_top" xlink:title=" ">
<polygon fill="none" stroke="black" points="1416.5,-73 1416.5,-92 1555.5,-92 1555.5,-73 1416.5,-73"/>
<text text-anchor="middle" x="1486" y="-80" font-family="Helvetica,sans-Serif" font-size="10.00">src/Scenes/MenuScene.cpp</text>
</a>
</g>
</g>
<!-- Node1&#45;&gt;Node18 -->
<g id="edge20" class="edge">
<title>Node1&#45;&gt;Node18</title>
<path fill="none" stroke="midnightblue" d="M1020.87,-137.37C1113.88,-130.33 1272,-116.87 1407,-98 1418.74,-96.36 1431.39,-94.21 1443.06,-92.07"/>
<polygon fill="midnightblue" stroke="midnightblue" points="1020.4,-133.89 1010.69,-138.13 1020.93,-140.87 1020.4,-133.89"/>
</g>
<!-- Node19 -->
<g id="node19" class="node">
<title>Node19</title>
<g id="a_node19"><a xlink:href="PauseScene_8hpp.html" target="_top" xlink:title=" ">
<polygon fill="none" stroke="black" points="1635.5,-73 1635.5,-92 1778.5,-92 1778.5,-73 1635.5,-73"/>
<text text-anchor="middle" x="1707" y="-80" font-family="Helvetica,sans-Serif" font-size="10.00">src/Scenes/PauseScene.hpp</text>
</a>
</g>
</g>
<!-- Node1&#45;&gt;Node19 -->
<g id="edge21" class="edge">
<title>Node1&#45;&gt;Node19</title>
<path fill="none" stroke="midnightblue" d="M1020.74,-137.98C1139.29,-130.35 1369.01,-114.92 1564,-98 1587.24,-95.98 1612.59,-93.5 1635.39,-91.17"/>
<polygon fill="midnightblue" stroke="midnightblue" points="1020.41,-134.5 1010.66,-138.63 1020.86,-141.48 1020.41,-134.5"/>
</g>
<!-- Node22 -->
<g id="node22" class="node">
<title>Node22</title>
<g id="a_node22"><a xlink:href="SaveSelectionScene_8hpp.html" target="_top" xlink:title=" ">
<polygon fill="none" stroke="black" points="416,-67.5 416,-97.5 548,-97.5 548,-67.5 416,-67.5"/>
<text text-anchor="start" x="424" y="-85.5" font-family="Helvetica,sans-Serif" font-size="10.00">src/Scenes/SaveSelection</text>
<text text-anchor="middle" x="482" y="-74.5" font-family="Helvetica,sans-Serif" font-size="10.00">Scene.hpp</text>
</a>
</g>
</g>
<!-- Node1&#45;&gt;Node22 -->
<g id="edge24" class="edge">
<title>Node1&#45;&gt;Node22</title>
<path fill="none" stroke="midnightblue" d="M861.21,-135.4C783.37,-127.57 661.74,-114.24 557,-98 554.12,-97.55 551.18,-97.08 548.21,-96.58"/>
<polygon fill="midnightblue" stroke="midnightblue" points="861.12,-138.9 871.42,-136.42 861.82,-131.94 861.12,-138.9"/>
</g>
<!-- Node23 -->
<g id="node23" class="node">
<title>Node23</title>
<g id="a_node23"><a xlink:href="StatsScene_8hpp.html" target="_top" xlink:title=" ">
<polygon fill="none" stroke="black" points="1026,-73 1026,-92 1164,-92 1164,-73 1026,-73"/>
<text text-anchor="middle" x="1095" y="-80" font-family="Helvetica,sans-Serif" font-size="10.00">src/Scenes/StatsScene.hpp</text>
</a>
</g>
</g>
<!-- Node1&#45;&gt;Node23 -->
<g id="edge27" class="edge">
<title>Node1&#45;&gt;Node23</title>
<path fill="none" stroke="midnightblue" d="M972.62,-130.78C1002.55,-119.22 1046.69,-102.16 1072.98,-92.01"/>
<polygon fill="midnightblue" stroke="midnightblue" points="971.13,-127.61 963.06,-134.48 973.65,-134.14 971.13,-127.61"/>
</g>
<!-- Node25 -->
<g id="node25" class="node">
<title>Node25</title>
<g id="a_node25"><a xlink:href="VictoryScene_8hpp.html" target="_top" xlink:title=" ">
<polygon fill="none" stroke="black" points="1951.5,-73 1951.5,-92 2096.5,-92 2096.5,-73 1951.5,-73"/>
<text text-anchor="middle" x="2024" y="-80" font-family="Helvetica,sans-Serif" font-size="10.00">src/Scenes/VictoryScene.hpp</text>
</a>
</g>
</g>
<!-- Node1&#45;&gt;Node25 -->
<g id="edge30" class="edge">
<title>Node1&#45;&gt;Node25</title>
<path fill="none" stroke="midnightblue" d="M1020.69,-138.97C1170.71,-131.35 1505.29,-114.11 1787,-98 1842.15,-94.85 1904.5,-91.02 1951.4,-88.09"/>
<polygon fill="midnightblue" stroke="midnightblue" points="1020.46,-135.48 1010.65,-139.48 1020.81,-142.47 1020.46,-135.48"/>
</g>
<!-- Node3 -->
<g id="node3" class="node">
<title>Node3</title>
<g id="a_node3"><a xlink:href="CreditScene_8cpp.html" target="_top" xlink:title=" ">
<polygon fill="none" stroke="black" points="0,-6 0,-25 140,-25 140,-6 0,-6"/>
<text text-anchor="middle" x="70" y="-13" font-family="Helvetica,sans-Serif" font-size="10.00">src/Scenes/CreditScene.cpp</text>
</a>
</g>
</g>
<!-- Node2&#45;&gt;Node3 -->
<g id="edge2" class="edge">
<title>Node2&#45;&gt;Node3</title>
<path fill="none" stroke="midnightblue" d="M139.32,-66.57C121.56,-53.74 96.56,-35.69 81.95,-25.13"/>
<polygon fill="midnightblue" stroke="midnightblue" points="137.71,-69.72 147.86,-72.73 141.8,-64.04 137.71,-69.72"/>
</g>
<!-- Node4 -->
<g id="node4" class="node">
<title>Node4</title>
<g id="a_node4"><a xlink:href="LoadingScene_8cpp.html" target="_top" xlink:title=" ">
<polygon fill="none" stroke="black" points="248.5,-6 248.5,-25 397.5,-25 397.5,-6 248.5,-6"/>
<text text-anchor="middle" x="323" y="-13" font-family="Helvetica,sans-Serif" font-size="10.00">src/Scenes/LoadingScene.cpp</text>
</a>
</g>
</g>
<!-- Node2&#45;&gt;Node4 -->
<g id="edge3" class="edge">
<title>Node2&#45;&gt;Node4</title>
<path fill="none" stroke="midnightblue" d="M191.08,-69.1C223.45,-56.2 273.28,-36.33 301.52,-25.06"/>
<polygon fill="midnightblue" stroke="midnightblue" points="189.64,-65.91 181.65,-72.87 192.23,-72.42 189.64,-65.91"/>
</g>
<!-- Node6 -->
<g id="node6" class="node">
<title>Node6</title>
<g id="a_node6"><a xlink:href="GameOverScene_8cpp.html" target="_top" xlink:title=" ">
<polygon fill="none" stroke="black" points="1452,-6 1452,-25 1614,-25 1614,-6 1452,-6"/>
<text text-anchor="middle" x="1533" y="-13" font-family="Helvetica,sans-Serif" font-size="10.00">src/Scenes/GameOverScene.cpp</text>
</a>
</g>
</g>
<!-- Node5&#45;&gt;Node6 -->
<g id="edge5" class="edge">
<title>Node5&#45;&gt;Node6</title>
<path fill="none" stroke="midnightblue" d="M1355.45,-69.93C1398.22,-57.06 1466.31,-36.57 1504.54,-25.06"/>
<polygon fill="midnightblue" stroke="midnightblue" points="1354.25,-66.64 1345.68,-72.87 1356.27,-73.34 1354.25,-66.64"/>
</g>
<!-- Node7 -->
<g id="node7" class="node">
<title>Node7</title>
<g id="a_node7"><a xlink:href="GameLostBehaviour_8cpp.html" target="_top" xlink:title=" ">
<polygon fill="none" stroke="black" points="1306.5,-0.5 1306.5,-30.5 1433.5,-30.5 1433.5,-0.5 1306.5,-0.5"/>
<text text-anchor="start" x="1314.5" y="-18.5" font-family="Helvetica,sans-Serif" font-size="10.00">src/Scripts/Common</text>
<text text-anchor="middle" x="1370" y="-7.5" font-family="Helvetica,sans-Serif" font-size="10.00">/GameLostBehaviour.cpp</text>
</a>
</g>
</g>
<!-- Node5&#45;&gt;Node7 -->
<g id="edge6" class="edge">
<title>Node5&#45;&gt;Node7</title>
<path fill="none" stroke="midnightblue" d="M1330.72,-64.67C1339.35,-54.09 1350.35,-40.6 1358.51,-30.59"/>
<polygon fill="midnightblue" stroke="midnightblue" points="1327.75,-62.77 1324.15,-72.73 1333.18,-67.2 1327.75,-62.77"/>
</g>
<!-- Node9 -->
<g id="node9" class="node">
<title>Node9</title>
<g id="a_node9"><a xlink:href="HelpScene_8cpp.html" target="_top" xlink:title=" ">
<polygon fill="none" stroke="black" points="566.5,-6 566.5,-25 701.5,-25 701.5,-6 566.5,-6"/>
<text text-anchor="middle" x="634" y="-13" font-family="Helvetica,sans-Serif" font-size="10.00">src/Scenes/HelpScene.cpp</text>
</a>
</g>
</g>
<!-- Node8&#45;&gt;Node9 -->
<g id="edge8" class="edge">
<title>Node8&#45;&gt;Node9</title>
<path fill="none" stroke="midnightblue" d="M758.26,-68.95C727.77,-56.08 681.16,-36.4 654.53,-25.17"/>
<polygon fill="midnightblue" stroke="midnightblue" points="756.98,-72.2 767.55,-72.87 759.7,-65.76 756.98,-72.2"/>
</g>
<!-- Node10 -->
<g id="node10" class="node">
<title>Node10</title>
<g id="a_node10"><a xlink:href="MainScene_8cpp.html" target="_top" xlink:title=" ">
<polygon fill="none" stroke="black" points="720,-6 720,-25 856,-25 856,-6 720,-6"/>
<text text-anchor="middle" x="788" y="-13" font-family="Helvetica,sans-Serif" font-size="10.00">src/Scenes/MainScene.cpp</text>
</a>
</g>
</g>
<!-- Node8&#45;&gt;Node10 -->
<g id="edge9" class="edge">
<title>Node8&#45;&gt;Node10</title>
<path fill="none" stroke="midnightblue" d="M788,-62.54C788,-50.17 788,-34.62 788,-25.13"/>
<polygon fill="midnightblue" stroke="midnightblue" points="784.5,-62.73 788,-72.73 791.5,-62.73 784.5,-62.73"/>
</g>
<!-- Node11&#45;&gt;Node10 -->
<g id="edge12" class="edge">
<title>Node11&#45;&gt;Node10</title>
<path fill="none" stroke="midnightblue" d="M898.53,-63.46C868.97,-50.9 830.9,-34.72 808.02,-25.01"/>
<polygon fill="midnightblue" stroke="midnightblue" points="897.23,-66.71 907.8,-67.4 899.97,-60.26 897.23,-66.71"/>
</g>
<!-- Node12 -->
<g id="node12" class="node">
<title>Node12</title>
<g id="a_node12"><a xlink:href="LevelSelectionScene_8cpp.html" target="_top" xlink:title=" ">
<polygon fill="none" stroke="black" points="998,-0.5 998,-30.5 1132,-30.5 1132,-0.5 998,-0.5"/>
<text text-anchor="start" x="1006" y="-18.5" font-family="Helvetica,sans-Serif" font-size="10.00">src/Scenes/LevelSelection</text>
<text text-anchor="middle" x="1065" y="-7.5" font-family="Helvetica,sans-Serif" font-size="10.00">Scene.cpp</text>
</a>
</g>
</g>
<!-- Node11&#45;&gt;Node12 -->
<g id="edge11" class="edge">
<title>Node11&#45;&gt;Node12</title>
<path fill="none" stroke="midnightblue" d="M976.84,-62.71C996.39,-52.46 1020.2,-39.98 1038.15,-30.58"/>
<polygon fill="midnightblue" stroke="midnightblue" points="975.14,-59.65 967.91,-67.4 978.39,-65.85 975.14,-59.65"/>
</g>
<!-- Node13 -->
<g id="node13" class="node">
<title>Node13</title>
<g id="a_node13"><a xlink:href="CheatManager_8cpp.html" target="_top" xlink:title=" ">
<polygon fill="none" stroke="black" points="874,-0.5 874,-30.5 980,-30.5 980,-0.5 874,-0.5"/>
<text text-anchor="start" x="882" y="-18.5" font-family="Helvetica,sans-Serif" font-size="10.00">src/Scripts/Common</text>
<text text-anchor="middle" x="927" y="-7.5" font-family="Helvetica,sans-Serif" font-size="10.00">/CheatManager.cpp</text>
</a>
</g>
</g>
<!-- Node11&#45;&gt;Node13 -->
<g id="edge13" class="edge">
<title>Node11&#45;&gt;Node13</title>
<path fill="none" stroke="midnightblue" d="M935.81,-57.4C933.86,-48.37 931.72,-38.41 930.03,-30.58"/>
<polygon fill="midnightblue" stroke="midnightblue" points="932.44,-58.36 937.96,-67.4 939.28,-56.88 932.44,-58.36"/>
</g>
<!-- Node14&#45;&gt;Node4 -->
<g id="edge16" class="edge">
<title>Node14&#45;&gt;Node4</title>
<path fill="none" stroke="midnightblue" d="M323,-62.54C323,-50.17 323,-34.62 323,-25.13"/>
<polygon fill="midnightblue" stroke="midnightblue" points="319.5,-62.73 323,-72.73 326.5,-62.73 319.5,-62.73"/>
</g>
<!-- Node15 -->
<g id="node15" class="node">
<title>Node15</title>
<g id="a_node15"><a xlink:href="main_8cpp.html" target="_top" xlink:title=" ">
<polygon fill="none" stroke="black" points="158,-6 158,-25 230,-25 230,-6 158,-6"/>
<text text-anchor="middle" x="194" y="-13" font-family="Helvetica,sans-Serif" font-size="10.00">src/main.cpp</text>
</a>
</g>
</g>
<!-- Node14&#45;&gt;Node15 -->
<g id="edge15" class="edge">
<title>Node14&#45;&gt;Node15</title>
<path fill="none" stroke="midnightblue" d="M296.75,-68.27C271.2,-55.4 233.11,-36.21 211.2,-25.17"/>
<polygon fill="midnightblue" stroke="midnightblue" points="295.36,-71.49 305.87,-72.87 298.51,-65.24 295.36,-71.49"/>
</g>
<!-- Node16&#45;&gt;Node10 -->
<g id="edge18" class="edge">
<title>Node16&#45;&gt;Node10</title>
<path fill="none" stroke="midnightblue" d="M663.74,-68.95C694.23,-56.08 740.84,-36.4 767.47,-25.17"/>
<polygon fill="midnightblue" stroke="midnightblue" points="662.3,-65.76 654.45,-72.87 665.02,-72.2 662.3,-65.76"/>
</g>
<!-- Node17 -->
<g id="node17" class="node">
<title>Node17</title>
<g id="a_node17"><a xlink:href="SaveSelectionScene_8cpp.html" target="_top" xlink:title=" ">
<polygon fill="none" stroke="black" points="416,-0.5 416,-30.5 548,-30.5 548,-0.5 416,-0.5"/>
<text text-anchor="start" x="424" y="-18.5" font-family="Helvetica,sans-Serif" font-size="10.00">src/Scenes/SaveSelection</text>
<text text-anchor="middle" x="482" y="-7.5" font-family="Helvetica,sans-Serif" font-size="10.00">Scene.cpp</text>
</a>
</g>
</g>
<!-- Node16&#45;&gt;Node17 -->
<g id="edge19" class="edge">
<title>Node16&#45;&gt;Node17</title>
<path fill="none" stroke="midnightblue" d="M604.57,-68.91C578.83,-57.91 541.49,-41.94 514.8,-30.53"/>
<polygon fill="midnightblue" stroke="midnightblue" points="603.24,-72.15 613.82,-72.87 606,-65.72 603.24,-72.15"/>
</g>
<!-- Node20 -->
<g id="node20" class="node">
<title>Node20</title>
<g id="a_node20"><a xlink:href="PauseScene_8cpp.html" target="_top" xlink:title=" ">
<polygon fill="none" stroke="black" points="1799.5,-6 1799.5,-25 1942.5,-25 1942.5,-6 1799.5,-6"/>
<text text-anchor="middle" x="1871" y="-13" font-family="Helvetica,sans-Serif" font-size="10.00">src/Scenes/PauseScene.cpp</text>
</a>
</g>
</g>
<!-- Node19&#45;&gt;Node20 -->
<g id="edge22" class="edge">
<title>Node19&#45;&gt;Node20</title>
<path fill="none" stroke="midnightblue" d="M1738.28,-69.1C1770.84,-56.2 1820.97,-36.33 1849.39,-25.06"/>
<polygon fill="midnightblue" stroke="midnightblue" points="1736.78,-65.93 1728.78,-72.87 1739.36,-72.44 1736.78,-65.93"/>
</g>
<!-- Node21 -->
<g id="node21" class="node">
<title>Node21</title>
<g id="a_node21"><a xlink:href="PauseSceneBehaviour_8cpp.html" target="_top" xlink:title=" ">
<polygon fill="none" stroke="black" points="1632.5,-0.5 1632.5,-30.5 1781.5,-30.5 1781.5,-0.5 1632.5,-0.5"/>
<text text-anchor="start" x="1640.5" y="-18.5" font-family="Helvetica,sans-Serif" font-size="10.00">src/Scripts/Menu/PauseScene</text>
<text text-anchor="middle" x="1707" y="-7.5" font-family="Helvetica,sans-Serif" font-size="10.00">Behaviour.cpp</text>
</a>
</g>
</g>
<!-- Node19&#45;&gt;Node21 -->
<g id="edge23" class="edge">
<title>Node19&#45;&gt;Node21</title>
<path fill="none" stroke="midnightblue" d="M1707,-62.41C1707,-52.22 1707,-39.9 1707,-30.59"/>
<polygon fill="midnightblue" stroke="midnightblue" points="1703.5,-62.73 1707,-72.73 1710.5,-62.73 1703.5,-62.73"/>
</g>
<!-- Node22&#45;&gt;Node4 -->
<g id="edge25" class="edge">
<title>Node22&#45;&gt;Node4</title>
<path fill="none" stroke="midnightblue" d="M437.87,-63.46C407.15,-50.9 367.58,-34.72 343.81,-25.01"/>
<polygon fill="midnightblue" stroke="midnightblue" points="436.92,-66.85 447.5,-67.4 439.57,-60.37 436.92,-66.85"/>
</g>
<!-- Node22&#45;&gt;Node17 -->
<g id="edge26" class="edge">
<title>Node22&#45;&gt;Node17</title>
<path fill="none" stroke="midnightblue" d="M482,-57.11C482,-48.15 482,-38.32 482,-30.58"/>
<polygon fill="midnightblue" stroke="midnightblue" points="478.5,-57.4 482,-67.4 485.5,-57.4 478.5,-57.4"/>
</g>
<!-- Node23&#45;&gt;Node10 -->
<g id="edge28" class="edge">
<title>Node23&#45;&gt;Node10</title>
<path fill="none" stroke="midnightblue" d="M1044.48,-70.8C984.06,-58.01 884.15,-36.86 828.54,-25.08"/>
<polygon fill="midnightblue" stroke="midnightblue" points="1044.04,-74.29 1054.55,-72.94 1045.49,-67.44 1044.04,-74.29"/>
</g>
<!-- Node24 -->
<g id="node24" class="node">
<title>Node24</title>
<g id="a_node24"><a xlink:href="StatsScene_8cpp.html" target="_top" xlink:title=" ">
<polygon fill="none" stroke="black" points="1150,-6 1150,-25 1288,-25 1288,-6 1150,-6"/>
<text text-anchor="middle" x="1219" y="-13" font-family="Helvetica,sans-Serif" font-size="10.00">src/Scenes/StatsScene.cpp</text>
</a>
</g>
</g>
<!-- Node23&#45;&gt;Node24 -->
<g id="edge29" class="edge">
<title>Node23&#45;&gt;Node24</title>
<path fill="none" stroke="midnightblue" d="M1120.56,-68.1C1145.11,-55.23 1181.49,-36.16 1202.47,-25.17"/>
<polygon fill="midnightblue" stroke="midnightblue" points="1118.7,-65.13 1111.47,-72.87 1121.95,-71.33 1118.7,-65.13"/>
</g>
<!-- Node26 -->
<g id="node26" class="node">
<title>Node26</title>
<g id="a_node26"><a xlink:href="VictoryScene_8cpp.html" target="_top" xlink:title=" ">
<polygon fill="none" stroke="black" points="2105.5,-6 2105.5,-25 2250.5,-25 2250.5,-6 2105.5,-6"/>
<text text-anchor="middle" x="2178" y="-13" font-family="Helvetica,sans-Serif" font-size="10.00">src/Scenes/VictoryScene.cpp</text>
</a>
</g>
</g>
<!-- Node25&#45;&gt;Node26 -->
<g id="edge31" class="edge">
<title>Node25&#45;&gt;Node26</title>
<path fill="none" stroke="midnightblue" d="M2053.74,-68.95C2084.23,-56.08 2130.84,-36.4 2157.47,-25.17"/>
<polygon fill="midnightblue" stroke="midnightblue" points="2052.3,-65.76 2044.45,-72.87 2055.02,-72.2 2052.3,-65.76"/>
</g>
<!-- Node27 -->
<g id="node27" class="node">
<title>Node27</title>
<g id="a_node27"><a xlink:href="GameWonBehaviour_8cpp.html" target="_top" xlink:title=" ">
<polygon fill="none" stroke="black" points="1960.5,-0.5 1960.5,-30.5 2087.5,-30.5 2087.5,-0.5 1960.5,-0.5"/>
<text text-anchor="start" x="1968.5" y="-18.5" font-family="Helvetica,sans-Serif" font-size="10.00">src/Scripts/Common</text>
<text text-anchor="middle" x="2024" y="-7.5" font-family="Helvetica,sans-Serif" font-size="10.00">/GameWonBehaviour.cpp</text>
</a>
</g>
</g>
<!-- Node25&#45;&gt;Node27 -->
<g id="edge32" class="edge">
<title>Node25&#45;&gt;Node27</title>
<path fill="none" stroke="midnightblue" d="M2024,-62.41C2024,-52.22 2024,-39.9 2024,-30.59"/>
<polygon fill="midnightblue" stroke="midnightblue" points="2020.5,-62.73 2024,-72.73 2027.5,-62.73 2020.5,-62.73"/>
</g>
</g>
</svg>
