<?xml version="1.0" encoding="UTF-8" standalone="no"?>
<!DOCTYPE svg PUBLIC "-//W3C//DTD SVG 1.1//EN"
 "http://www.w3.org/Graphics/SVG/1.1/DTD/svg11.dtd">
<!-- Generated by graphviz version 2.44.0 ()
 -->
<!-- Title: src/Scenes/MenuScene.cpp Pages: 1 -->
<svg width="857pt" height="386pt"
 viewBox="0.00 0.00 856.50 386.00" xmlns="http://www.w3.org/2000/svg" xmlns:xlink="http://www.w3.org/1999/xlink">
<g id="graph0" class="graph" transform="scale(1 1) rotate(0) translate(4 382)">
<title>src/Scenes/MenuScene.cpp</title>
<!-- Node1 -->
<g id="node1" class="node">
<title>Node1</title>
<g id="a_node1"><a xlink:title=" ">
<polygon fill="#bfbfbf" stroke="black" points="398.5,-358.5 398.5,-377.5 537.5,-377.5 537.5,-358.5 398.5,-358.5"/>
<text text-anchor="middle" x="468" y="-365.5" font-family="Helvetica,sans-Serif" font-size="10.00">src/Scenes/MenuScene.cpp</text>
</a>
</g>
</g>
<!-- Node2 -->
<g id="node2" class="node">
<title>Node2</title>
<g id="a_node2"><a xlink:href="MenuScene_8hpp.html" target="_top" xlink:title=" ">
<polygon fill="none" stroke="black" points="232,-174 232,-193 318,-193 318,-174 232,-174"/>
<text text-anchor="middle" x="275" y="-181" font-family="Helvetica,sans-Serif" font-size="10.00">MenuScene.hpp</text>
</a>
</g>
</g>
<!-- Node1&#45;&gt;Node2 -->
<g id="edge1" class="edge">
<title>Node1&#45;&gt;Node2</title>
<path fill="none" stroke="midnightblue" d="M398.14,-363.86C365.62,-358.78 328.92,-347.26 305,-322 274.15,-289.42 272.12,-232.84 273.44,-203.44"/>
<polygon fill="midnightblue" stroke="midnightblue" points="276.94,-203.5 274.08,-193.3 269.96,-203.06 276.94,-203.5"/>
</g>
<!-- Node5 -->
<g id="node5" class="node">
<title>Node5</title>
<g id="a_node5"><a xlink:title=" ">
<polygon fill="none" stroke="#bfbfbf" points="98.5,-0.5 98.5,-19.5 149.5,-19.5 149.5,-0.5 98.5,-0.5"/>
<text text-anchor="middle" x="124" y="-7.5" font-family="Helvetica,sans-Serif" font-size="10.00">memory</text>
</a>
</g>
</g>
<!-- Node1&#45;&gt;Node5 -->
<g id="edge34" class="edge">
<title>Node1&#45;&gt;Node5</title>
<path fill="none" stroke="midnightblue" d="M398.44,-363.44C268.07,-354.85 0,-327.3 0,-246 0,-246 0,-246 0,-121 0,-72.26 54.27,-39.87 91.01,-23.52"/>
<polygon fill="midnightblue" stroke="midnightblue" points="92.56,-26.67 100.38,-19.52 89.81,-20.23 92.56,-26.67"/>
</g>
<!-- Node8 -->
<g id="node8" class="node">
<title>Node8</title>
<g id="a_node8"><a xlink:href="BackgroundPrefabFactory_8hpp.html" target="_top" xlink:title=" ">
<polygon fill="none" stroke="black" points="66,-168.5 66,-198.5 214,-198.5 214,-168.5 66,-168.5"/>
<text text-anchor="start" x="74" y="-186.5" font-family="Helvetica,sans-Serif" font-size="10.00">../Factories/BackgroundPrefab</text>
<text text-anchor="middle" x="140" y="-175.5" font-family="Helvetica,sans-Serif" font-size="10.00">Factory.hpp</text>
</a>
</g>
</g>
<!-- Node1&#45;&gt;Node8 -->
<g id="edge7" class="edge">
<title>Node1&#45;&gt;Node8</title>
<path fill="none" stroke="midnightblue" d="M398.5,-358.95C362.38,-352.63 318.49,-341.49 283,-322 229.19,-292.45 180.99,-237.39 156.67,-206.67"/>
<polygon fill="midnightblue" stroke="midnightblue" points="159.37,-204.43 150.46,-198.69 153.84,-208.73 159.37,-204.43"/>
</g>
<!-- Node13 -->
<g id="node13" class="node">
<title>Node13</title>
<g id="a_node13"><a xlink:href="ButtonPrefabFactory_8hpp.html" target="_top" xlink:title=" ">
<polygon fill="none" stroke="black" points="314.5,-291.5 314.5,-321.5 439.5,-321.5 439.5,-291.5 314.5,-291.5"/>
<text text-anchor="start" x="322.5" y="-309.5" font-family="Helvetica,sans-Serif" font-size="10.00">../Factories/ButtonPrefab</text>
<text text-anchor="middle" x="377" y="-298.5" font-family="Helvetica,sans-Serif" font-size="10.00">Factory.hpp</text>
</a>
</g>
</g>
<!-- Node1&#45;&gt;Node13 -->
<g id="edge18" class="edge">
<title>Node1&#45;&gt;Node13</title>
<path fill="none" stroke="midnightblue" d="M454.96,-358.48C442.52,-350.34 423.33,-337.79 407.1,-327.18"/>
<polygon fill="midnightblue" stroke="midnightblue" points="408.73,-324.07 398.45,-321.52 404.9,-329.92 408.73,-324.07"/>
</g>
<!-- Node17 -->
<g id="node17" class="node">
<title>Node17</title>
<g id="a_node17"><a xlink:href="Layer_8hpp.html" target="_top" xlink:title=" ">
<polygon fill="none" stroke="black" points="672.5,-297 672.5,-316 771.5,-316 771.5,-297 672.5,-297"/>
<text text-anchor="middle" x="722" y="-304" font-family="Helvetica,sans-Serif" font-size="10.00">../Enums/Layer.hpp</text>
</a>
</g>
</g>
<!-- Node1&#45;&gt;Node17 -->
<g id="edge25" class="edge">
<title>Node1&#45;&gt;Node17</title>
<path fill="none" stroke="midnightblue" d="M505.78,-358.45C545.1,-349.51 608.42,-335 663,-322 667.75,-320.87 672.72,-319.67 677.66,-318.47"/>
<polygon fill="midnightblue" stroke="midnightblue" points="678.82,-321.79 687.7,-316.02 677.16,-314.99 678.82,-321.79"/>
</g>
<!-- Node18 -->
<g id="node18" class="node">
<title>Node18</title>
<g id="a_node18"><a xlink:href="src_2Enums_2Font_8hpp.html" target="_top" xlink:title=" ">
<polygon fill="none" stroke="black" points="506.5,-235.5 506.5,-254.5 601.5,-254.5 601.5,-235.5 506.5,-235.5"/>
<text text-anchor="middle" x="554" y="-242.5" font-family="Helvetica,sans-Serif" font-size="10.00">../Enums/Font.hpp</text>
</a>
</g>
</g>
<!-- Node1&#45;&gt;Node18 -->
<g id="edge26" class="edge">
<title>Node1&#45;&gt;Node18</title>
<path fill="none" stroke="midnightblue" d="M468.2,-358.19C468.95,-343.1 472.31,-311.93 487,-291 496.55,-277.4 511.64,-266.74 525.08,-259.22"/>
<polygon fill="midnightblue" stroke="midnightblue" points="526.81,-262.26 534.03,-254.51 523.55,-256.06 526.81,-262.26"/>
</g>
<!-- Node19 -->
<g id="node19" class="node">
<title>Node19</title>
<g id="a_node19"><a xlink:href="Text_8hpp.html" target="_top" xlink:title=" ">
<polygon fill="none" stroke="black" points="496.5,-297 496.5,-316 549.5,-316 549.5,-297 496.5,-297"/>
<text text-anchor="middle" x="523" y="-304" font-family="Helvetica,sans-Serif" font-size="10.00">Text.hpp</text>
</a>
</g>
</g>
<!-- Node1&#45;&gt;Node19 -->
<g id="edge28" class="edge">
<title>Node1&#45;&gt;Node19</title>
<path fill="none" stroke="midnightblue" d="M475.88,-358.48C484.29,-349.37 497.82,-334.74 508.23,-323.48"/>
<polygon fill="midnightblue" stroke="midnightblue" points="510.92,-325.73 515.13,-316.01 505.78,-320.98 510.92,-325.73"/>
</g>
<!-- Node21 -->
<g id="node21" class="node">
<title>Node21</title>
<g id="a_node21"><a xlink:href="Constants_8hpp.html" target="_top" xlink:title=" ">
<polygon fill="none" stroke="black" points="568,-297 568,-316 654,-316 654,-297 568,-297"/>
<text text-anchor="middle" x="611" y="-304" font-family="Helvetica,sans-Serif" font-size="10.00">../Constants.hpp</text>
</a>
</g>
</g>
<!-- Node1&#45;&gt;Node21 -->
<g id="edge32" class="edge">
<title>Node1&#45;&gt;Node21</title>
<path fill="none" stroke="midnightblue" d="M488.49,-358.48C512.81,-348.36 553.55,-331.4 581.32,-319.85"/>
<polygon fill="midnightblue" stroke="midnightblue" points="582.66,-323.08 590.55,-316.01 579.97,-316.62 582.66,-323.08"/>
</g>
<!-- Node22 -->
<g id="node22" class="node">
<title>Node22</title>
<g id="a_node22"><a xlink:title=" ">
<polygon fill="none" stroke="#bfbfbf" points="789.5,-297 789.5,-316 848.5,-316 848.5,-297 789.5,-297"/>
<text text-anchor="middle" x="819" y="-304" font-family="Helvetica,sans-Serif" font-size="10.00">stdexcept</text>
</a>
</g>
</g>
<!-- Node1&#45;&gt;Node22 -->
<g id="edge35" class="edge">
<title>Node1&#45;&gt;Node22</title>
<path fill="none" stroke="midnightblue" d="M537.61,-361.24C601.39,-354.95 698.07,-342.89 780,-322 782.98,-321.24 786.05,-320.33 789.1,-319.34"/>
<polygon fill="midnightblue" stroke="midnightblue" points="790.34,-322.62 798.62,-316.01 788.02,-316.01 790.34,-322.62"/>
</g>
<!-- Node3 -->
<g id="node3" class="node">
<title>Node3</title>
<g id="a_node3"><a xlink:href="Scene_8hpp.html" target="_top" xlink:title=" ">
<polygon fill="none" stroke="black" points="276,-112.5 276,-131.5 338,-131.5 338,-112.5 276,-112.5"/>
<text text-anchor="middle" x="307" y="-119.5" font-family="Helvetica,sans-Serif" font-size="10.00">Scene.hpp</text>
</a>
</g>
</g>
<!-- Node2&#45;&gt;Node3 -->
<g id="edge2" class="edge">
<title>Node2&#45;&gt;Node3</title>
<path fill="none" stroke="midnightblue" d="M279.58,-173.98C284.24,-165.32 291.59,-151.65 297.51,-140.65"/>
<polygon fill="midnightblue" stroke="midnightblue" points="300.77,-141.97 302.42,-131.51 294.6,-138.66 300.77,-141.97"/>
</g>
<!-- Node6 -->
<g id="node6" class="node">
<title>Node6</title>
<g id="a_node6"><a xlink:href="BackgroundName_8hpp.html" target="_top" xlink:title=" ">
<polygon fill="none" stroke="black" points="104.5,-112.5 104.5,-131.5 257.5,-131.5 257.5,-112.5 104.5,-112.5"/>
<text text-anchor="middle" x="181" y="-119.5" font-family="Helvetica,sans-Serif" font-size="10.00">../Enums/BackgroundName.hpp</text>
</a>
</g>
</g>
<!-- Node2&#45;&gt;Node6 -->
<g id="edge5" class="edge">
<title>Node2&#45;&gt;Node6</title>
<path fill="none" stroke="midnightblue" d="M261.53,-173.98C246.32,-164.34 221.31,-148.52 203.2,-137.05"/>
<polygon fill="midnightblue" stroke="midnightblue" points="204.76,-133.9 194.44,-131.51 201.02,-139.81 204.76,-133.9"/>
</g>
<!-- Node7 -->
<g id="node7" class="node">
<title>Node7</title>
<g id="a_node7"><a xlink:title=" ">
<polygon fill="none" stroke="#bfbfbf" points="510.5,-56.5 510.5,-75.5 551.5,-75.5 551.5,-56.5 510.5,-56.5"/>
<text text-anchor="middle" x="531" y="-63.5" font-family="Helvetica,sans-Serif" font-size="10.00">string</text>
</a>
</g>
</g>
<!-- Node2&#45;&gt;Node7 -->
<g id="edge6" class="edge">
<title>Node2&#45;&gt;Node7</title>
<path fill="none" stroke="midnightblue" d="M305.65,-173.89C356.12,-159.7 451.33,-132.88 453,-132 477.2,-119.23 500.74,-98.04 515.51,-83.34"/>
<polygon fill="midnightblue" stroke="midnightblue" points="518.27,-85.53 522.77,-75.94 513.27,-80.63 518.27,-85.53"/>
</g>
<!-- Node4 -->
<g id="node4" class="node">
<title>Node4</title>
<g id="a_node4"><a xlink:title=" ">
<polygon fill="none" stroke="#bfbfbf" points="211,-56.5 211,-75.5 255,-75.5 255,-56.5 211,-56.5"/>
<text text-anchor="middle" x="233" y="-63.5" font-family="Helvetica,sans-Serif" font-size="10.00">vector</text>
</a>
</g>
</g>
<!-- Node3&#45;&gt;Node4 -->
<g id="edge3" class="edge">
<title>Node3&#45;&gt;Node4</title>
<path fill="none" stroke="midnightblue" d="M295.11,-112.32C283.85,-104.11 266.71,-91.6 253.29,-81.81"/>
<polygon fill="midnightblue" stroke="midnightblue" points="255.25,-78.9 245.11,-75.83 251.12,-84.56 255.25,-78.9"/>
</g>
<!-- Node3&#45;&gt;Node5 -->
<g id="edge4" class="edge">
<title>Node3&#45;&gt;Node5</title>
<path fill="none" stroke="midnightblue" d="M281.38,-112.4C259.48,-104.49 227.53,-91.65 202,-76 178.67,-61.7 154.95,-40.84 139.89,-26.63"/>
<polygon fill="midnightblue" stroke="midnightblue" points="142.11,-23.91 132.48,-19.51 137.26,-28.96 142.11,-23.91"/>
</g>
<!-- Node8&#45;&gt;Node5 -->
<g id="edge17" class="edge">
<title>Node8&#45;&gt;Node5</title>
<path fill="none" stroke="midnightblue" d="M121.98,-168.21C111.95,-159.07 100.43,-146.27 95,-132 81.48,-96.5 100.22,-52.67 113.28,-28.71"/>
<polygon fill="midnightblue" stroke="midnightblue" points="116.49,-30.15 118.42,-19.74 110.41,-26.67 116.49,-30.15"/>
</g>
<!-- Node8&#45;&gt;Node6 -->
<g id="edge8" class="edge">
<title>Node8&#45;&gt;Node6</title>
<path fill="none" stroke="midnightblue" d="M149.72,-168.4C155.55,-159.93 163.02,-149.1 169.19,-140.14"/>
<polygon fill="midnightblue" stroke="midnightblue" points="172.24,-141.88 175.03,-131.66 166.48,-137.91 172.24,-141.88"/>
</g>
<!-- Node9 -->
<g id="node9" class="node">
<title>Node9</title>
<g id="a_node9"><a xlink:href="GameObject_8hpp.html" target="_top" xlink:title=" ">
<polygon fill="none" stroke="black" points="355.5,-112.5 355.5,-131.5 444.5,-131.5 444.5,-112.5 355.5,-112.5"/>
<text text-anchor="middle" x="400" y="-119.5" font-family="Helvetica,sans-Serif" font-size="10.00">GameObject.hpp</text>
</a>
</g>
</g>
<!-- Node8&#45;&gt;Node9 -->
<g id="edge9" class="edge">
<title>Node8&#45;&gt;Node9</title>
<path fill="none" stroke="midnightblue" d="M201.29,-168.47C247.71,-157.85 310.54,-143.47 353.02,-133.75"/>
<polygon fill="midnightblue" stroke="midnightblue" points="353.86,-137.15 362.83,-131.51 352.3,-130.33 353.86,-137.15"/>
</g>
<!-- Node9&#45;&gt;Node4 -->
<g id="edge15" class="edge">
<title>Node9&#45;&gt;Node4</title>
<path fill="none" stroke="midnightblue" d="M373.54,-112.44C343.99,-102.89 296.2,-87.44 264.69,-77.25"/>
<polygon fill="midnightblue" stroke="midnightblue" points="265.66,-73.88 255.07,-74.14 263.51,-80.54 265.66,-73.88"/>
</g>
<!-- Node9&#45;&gt;Node5 -->
<g id="edge16" class="edge">
<title>Node9&#45;&gt;Node5</title>
<path fill="none" stroke="midnightblue" d="M398.04,-112.24C394.37,-98.01 385.05,-70.08 366,-56 333.74,-32.16 218.66,-19.09 159.57,-13.81"/>
<polygon fill="midnightblue" stroke="midnightblue" points="159.83,-10.32 149.56,-12.94 159.22,-17.29 159.83,-10.32"/>
</g>
<!-- Node9&#45;&gt;Node7 -->
<g id="edge14" class="edge">
<title>Node9&#45;&gt;Node7</title>
<path fill="none" stroke="midnightblue" d="M420.76,-112.44C442.32,-103.56 476.26,-89.56 500.79,-79.45"/>
<polygon fill="midnightblue" stroke="midnightblue" points="502.43,-82.56 510.34,-75.52 499.76,-76.09 502.43,-82.56"/>
</g>
<!-- Node10 -->
<g id="node10" class="node">
<title>Node10</title>
<g id="a_node10"><a xlink:href="Component_8hpp.html" target="_top" xlink:title=" ">
<polygon fill="none" stroke="black" points="273,-56.5 273,-75.5 357,-75.5 357,-56.5 273,-56.5"/>
<text text-anchor="middle" x="315" y="-63.5" font-family="Helvetica,sans-Serif" font-size="10.00">Component.hpp</text>
</a>
</g>
</g>
<!-- Node9&#45;&gt;Node10 -->
<g id="edge10" class="edge">
<title>Node9&#45;&gt;Node10</title>
<path fill="none" stroke="midnightblue" d="M386.34,-112.32C373.08,-103.9 352.73,-90.97 337.15,-81.07"/>
<polygon fill="midnightblue" stroke="midnightblue" points="338.94,-78.06 328.62,-75.65 335.19,-83.97 338.94,-78.06"/>
</g>
<!-- Node11 -->
<g id="node11" class="node">
<title>Node11</title>
<g id="a_node11"><a xlink:href="Transform_8hpp.html" target="_top" xlink:title=" ">
<polygon fill="none" stroke="black" points="413.5,-56.5 413.5,-75.5 492.5,-75.5 492.5,-56.5 413.5,-56.5"/>
<text text-anchor="middle" x="453" y="-63.5" font-family="Helvetica,sans-Serif" font-size="10.00">Transform.hpp</text>
</a>
</g>
</g>
<!-- Node9&#45;&gt;Node11 -->
<g id="edge12" class="edge">
<title>Node9&#45;&gt;Node11</title>
<path fill="none" stroke="midnightblue" d="M408.75,-112.08C416.47,-104.22 427.9,-92.57 437.22,-83.08"/>
<polygon fill="midnightblue" stroke="midnightblue" points="439.9,-85.34 444.41,-75.75 434.91,-80.44 439.9,-85.34"/>
</g>
<!-- Node10&#45;&gt;Node5 -->
<g id="edge11" class="edge">
<title>Node10&#45;&gt;Node5</title>
<path fill="none" stroke="midnightblue" d="M284.74,-56.44C250.75,-46.83 195.65,-31.26 159.61,-21.07"/>
<polygon fill="midnightblue" stroke="midnightblue" points="160.11,-17.57 149.54,-18.22 158.21,-24.31 160.11,-17.57"/>
</g>
<!-- Node12 -->
<g id="node12" class="node">
<title>Node12</title>
<g id="a_node12"><a xlink:href="Point_8hpp.html" target="_top" xlink:title=" ">
<polygon fill="none" stroke="black" points="424.5,-0.5 424.5,-19.5 481.5,-19.5 481.5,-0.5 424.5,-0.5"/>
<text text-anchor="middle" x="453" y="-7.5" font-family="Helvetica,sans-Serif" font-size="10.00">Point.hpp</text>
</a>
</g>
</g>
<!-- Node11&#45;&gt;Node12 -->
<g id="edge13" class="edge">
<title>Node11&#45;&gt;Node12</title>
<path fill="none" stroke="midnightblue" d="M453,-56.08C453,-49.01 453,-38.86 453,-29.99"/>
<polygon fill="midnightblue" stroke="midnightblue" points="456.5,-29.75 453,-19.75 449.5,-29.75 456.5,-29.75"/>
</g>
<!-- Node13&#45;&gt;Node5 -->
<g id="edge23" class="edge">
<title>Node13&#45;&gt;Node5</title>
<path fill="none" stroke="midnightblue" d="M314.43,-296.28C216.48,-280.06 38,-242.54 38,-184.5 38,-184.5 38,-184.5 38,-121 38,-79.58 76.31,-44.45 101.79,-25.67"/>
<polygon fill="midnightblue" stroke="midnightblue" points="104.05,-28.36 110.18,-19.72 100,-22.64 104.05,-28.36"/>
</g>
<!-- Node13&#45;&gt;Node7 -->
<g id="edge24" class="edge">
<title>Node13&#45;&gt;Node7</title>
<path fill="none" stroke="midnightblue" d="M400.17,-291.2C427.49,-273.11 472.31,-239.41 497,-199 519.13,-162.78 526.94,-112.51 529.63,-85.66"/>
<polygon fill="midnightblue" stroke="midnightblue" points="533.12,-85.97 530.5,-75.7 526.15,-85.36 533.12,-85.97"/>
</g>
<!-- Node14 -->
<g id="node14" class="node">
<title>Node14</title>
<g id="a_node14"><a xlink:href="Button_8hpp.html" target="_top" xlink:title=" ">
<polygon fill="none" stroke="black" points="345.5,-235.5 345.5,-254.5 408.5,-254.5 408.5,-235.5 345.5,-235.5"/>
<text text-anchor="middle" x="377" y="-242.5" font-family="Helvetica,sans-Serif" font-size="10.00">Button.hpp</text>
</a>
</g>
</g>
<!-- Node13&#45;&gt;Node14 -->
<g id="edge19" class="edge">
<title>Node13&#45;&gt;Node14</title>
<path fill="none" stroke="midnightblue" d="M377,-291.4C377,-283.47 377,-273.46 377,-264.86"/>
<polygon fill="midnightblue" stroke="midnightblue" points="380.5,-264.66 377,-254.66 373.5,-264.66 380.5,-264.66"/>
</g>
<!-- Node15 -->
<g id="node15" class="node">
<title>Node15</title>
<g id="a_node15"><a xlink:href="UIObject_8hpp.html" target="_top" xlink:title=" ">
<polygon fill="none" stroke="black" points="414,-174 414,-193 488,-193 488,-174 414,-174"/>
<text text-anchor="middle" x="451" y="-181" font-family="Helvetica,sans-Serif" font-size="10.00">UIObject.hpp</text>
</a>
</g>
</g>
<!-- Node14&#45;&gt;Node15 -->
<g id="edge20" class="edge">
<title>Node14&#45;&gt;Node15</title>
<path fill="none" stroke="midnightblue" d="M387.6,-235.48C399.25,-226.11 418.19,-210.88 432.33,-199.51"/>
<polygon fill="midnightblue" stroke="midnightblue" points="434.82,-202 440.42,-193.01 430.43,-196.55 434.82,-202"/>
</g>
<!-- Node16 -->
<g id="node16" class="node">
<title>Node16</title>
<g id="a_node16"><a xlink:title=" ">
<polygon fill="none" stroke="#bfbfbf" points="336.5,-174 336.5,-193 395.5,-193 395.5,-174 336.5,-174"/>
<text text-anchor="middle" x="366" y="-181" font-family="Helvetica,sans-Serif" font-size="10.00">functional</text>
</a>
</g>
</g>
<!-- Node14&#45;&gt;Node16 -->
<g id="edge22" class="edge">
<title>Node14&#45;&gt;Node16</title>
<path fill="none" stroke="midnightblue" d="M375.42,-235.48C373.87,-227.08 371.45,-213.98 369.45,-203.16"/>
<polygon fill="midnightblue" stroke="midnightblue" points="372.83,-202.21 367.57,-193.01 365.95,-203.48 372.83,-202.21"/>
</g>
<!-- Node15&#45;&gt;Node9 -->
<g id="edge21" class="edge">
<title>Node15&#45;&gt;Node9</title>
<path fill="none" stroke="midnightblue" d="M443.69,-173.98C435.97,-164.96 423.59,-150.52 413.98,-139.31"/>
<polygon fill="midnightblue" stroke="midnightblue" points="416.46,-136.82 407.29,-131.51 411.14,-141.38 416.46,-136.82"/>
</g>
<!-- Node18&#45;&gt;Node7 -->
<g id="edge27" class="edge">
<title>Node18&#45;&gt;Node7</title>
<path fill="none" stroke="midnightblue" d="M552.89,-235.46C549.38,-208.43 538.44,-124.24 533.48,-86.11"/>
<polygon fill="midnightblue" stroke="midnightblue" points="536.91,-85.33 532.15,-75.87 529.97,-86.24 536.91,-85.33"/>
</g>
<!-- Node19&#45;&gt;Node7 -->
<g id="edge31" class="edge">
<title>Node19&#45;&gt;Node7</title>
<path fill="none" stroke="midnightblue" d="M542.53,-296.96C565.81,-286.34 602.51,-268.02 610,-255 644.69,-194.76 579.68,-116.32 547.51,-83.05"/>
<polygon fill="midnightblue" stroke="midnightblue" points="549.65,-80.23 540.12,-75.6 544.68,-85.16 549.65,-80.23"/>
</g>
<!-- Node19&#45;&gt;Node15 -->
<g id="edge29" class="edge">
<title>Node19&#45;&gt;Node15</title>
<path fill="none" stroke="midnightblue" d="M517.82,-296.8C506.04,-277 477.05,-228.28 461.41,-201.99"/>
<polygon fill="midnightblue" stroke="midnightblue" points="464.25,-199.93 456.13,-193.12 458.24,-203.51 464.25,-199.93"/>
</g>
<!-- Node20 -->
<g id="node20" class="node">
<title>Node20</title>
<g id="a_node20"><a xlink:href="Color_8hpp.html" target="_top" xlink:title=" ">
<polygon fill="none" stroke="black" points="658.5,-235.5 658.5,-254.5 715.5,-254.5 715.5,-235.5 658.5,-235.5"/>
<text text-anchor="middle" x="687" y="-242.5" font-family="Helvetica,sans-Serif" font-size="10.00">Color.hpp</text>
</a>
</g>
</g>
<!-- Node19&#45;&gt;Node20 -->
<g id="edge30" class="edge">
<title>Node19&#45;&gt;Node20</title>
<path fill="none" stroke="midnightblue" d="M543.88,-296.91C548.82,-294.92 554.08,-292.85 559,-291 590.13,-279.26 625.88,-266.78 651.67,-257.94"/>
<polygon fill="midnightblue" stroke="midnightblue" points="653.05,-261.17 661.38,-254.63 650.78,-254.55 653.05,-261.17"/>
</g>
<!-- Node21&#45;&gt;Node20 -->
<g id="edge33" class="edge">
<title>Node21&#45;&gt;Node20</title>
<path fill="none" stroke="midnightblue" d="M621.89,-296.98C633.97,-287.52 653.67,-272.1 668.24,-260.69"/>
<polygon fill="midnightblue" stroke="midnightblue" points="670.41,-263.43 676.13,-254.51 666.1,-257.92 670.41,-263.43"/>
</g>
</g>
</svg>
