<?xml version="1.0" encoding="UTF-8" standalone="no"?>
<!DOCTYPE svg PUBLIC "-//W3C//DTD SVG 1.1//EN"
 "http://www.w3.org/Graphics/SVG/1.1/DTD/svg11.dtd">
<!-- Generated by graphviz version 2.44.0 ()
 -->
<!-- Title: src/Scenes/MenuScene.hpp Pages: 1 -->
<!--zoomable 162 -->
<svg id="main" version="1.1" xmlns="http://www.w3.org/2000/svg" xmlns:xlink="http://www.w3.org/1999/xlink" xml:space="preserve" onload="init(evt)">
<style type="text/css"><![CDATA[
.edge:hover path { stroke: red; }
.edge:hover polygon { stroke: red; fill: red; }
]]></style>
<script type="text/javascript"><![CDATA[
var edges = document.getElementsByTagName('g');
if (edges && edges.length) {
  for (var i=0;i<edges.length;i++) {
    if (edges[i].id.substr(0,4)=='edge') {
      edges[i].setAttribute('class','edge');
    }
  }
}
]]></script>
        <defs>
                <circle id="rim" cx="0" cy="0" r="7"/>
                <circle id="rim2" cx="0" cy="0" r="3.5"/>
                <g id="zoomPlus">
                        <use xlink:href="#rim" fill="#404040">
                                <set attributeName="fill" to="#808080" begin="zoomplus.mouseover" end="zoomplus.mouseout"/>
                        </use>
                        <path d="M-4,0h8M0,-4v8" fill="none" stroke="white" stroke-width="1.5" pointer-events="none"/>
                </g>
                <g id="zoomMin">
                        <use xlink:href="#rim" fill="#404040">
                                <set attributeName="fill" to="#808080" begin="zoomminus.mouseover" end="zoomminus.mouseout"/>
                        </use>
                        <path d="M-4,0h8" fill="none" stroke="white" stroke-width="1.5" pointer-events="none"/>
                </g>
                <g id="dirArrow">
                        <path fill="none" stroke="white" stroke-width="1.5" d="M0,-3.0v7 M-2.5,-0.5L0,-3.0L2.5,-0.5"/>
                </g>
               <g id="resetDef">
                       <use xlink:href="#rim2" fill="#404040">
                               <set attributeName="fill" to="#808080" begin="reset.mouseover" end="reset.mouseout"/>
                       </use>
               </g>
        </defs>

<script type="text/javascript">
var viewWidth = 1826;
var viewHeight = 162;
var sectionId = 'dynsection-1';
</script>
<script xlink:href="svgpan.js"/>
<svg id="graph" class="graph">
<g id="viewport">
<title>src/Scenes/MenuScene.hpp</title>
<!-- Node1 -->
<g id="node1" class="node">
<title>Node1</title>
<g id="a_node1"><a xlink:title=" ">
<polygon fill="#bfbfbf" stroke="black" points="750.5,-134.5 750.5,-153.5 889.5,-153.5 889.5,-134.5 750.5,-134.5"/>
<text text-anchor="middle" x="820" y="-141.5" font-family="Helvetica,sans-Serif" font-size="10.00">src/Scenes/MenuScene.hpp</text>
</a>
</g>
</g>
<!-- Node2 -->
<g id="node2" class="node">
<title>Node2</title>
<g id="a_node2"><a xlink:href="CreditScene_8hpp.html" target="_top" xlink:title=" ">
<polygon fill="none" stroke="black" points="129,-73 129,-92 269,-92 269,-73 129,-73"/>
<text text-anchor="middle" x="199" y="-80" font-family="Helvetica,sans-Serif" font-size="10.00">src/Scenes/CreditScene.hpp</text>
</a>
</g>
</g>
<!-- Node1&#45;&gt;Node2 -->
<g id="edge1" class="edge">
<title>Node1&#45;&gt;Node2</title>
<path fill="none" stroke="midnightblue" d="M740.17,-138.84C634.23,-132.76 441.5,-119.74 278,-98 265.97,-96.4 253,-94.21 241.11,-92.02"/>
<polygon fill="midnightblue" stroke="midnightblue" points="740.28,-142.35 750.46,-139.43 740.68,-135.37 740.28,-142.35"/>
</g>
<!-- Node5 -->
<g id="node5" class="node">
<title>Node5</title>
<g id="a_node5"><a xlink:href="GameOverScene_8hpp.html" target="_top" xlink:title=" ">
<polygon fill="none" stroke="black" points="913,-73 913,-92 1075,-92 1075,-73 913,-73"/>
<text text-anchor="middle" x="994" y="-80" font-family="Helvetica,sans-Serif" font-size="10.00">src/Scenes/GameOverScene.hpp</text>
</a>
</g>
</g>
<!-- Node1&#45;&gt;Node5 -->
<g id="edge4" class="edge">
<title>Node1&#45;&gt;Node5</title>
<path fill="none" stroke="midnightblue" d="M854.41,-131.23C888.24,-119.67 939.03,-102.3 969.12,-92.01"/>
<polygon fill="midnightblue" stroke="midnightblue" points="853.26,-127.93 844.93,-134.48 855.52,-134.55 853.26,-127.93"/>
</g>
<!-- Node8 -->
<g id="node8" class="node">
<title>Node8</title>
<g id="a_node8"><a xlink:href="HelpScene_8hpp.html" target="_top" xlink:title=" ">
<polygon fill="none" stroke="black" points="287.5,-73 287.5,-92 422.5,-92 422.5,-73 287.5,-73"/>
<text text-anchor="middle" x="355" y="-80" font-family="Helvetica,sans-Serif" font-size="10.00">src/Scenes/HelpScene.hpp</text>
</a>
</g>
</g>
<!-- Node1&#45;&gt;Node8 -->
<g id="edge7" class="edge">
<title>Node1&#45;&gt;Node8</title>
<path fill="none" stroke="midnightblue" d="M740.1,-135.4C661.5,-127.53 538.19,-114.14 432,-98 420.7,-96.28 408.53,-94.13 397.27,-92.02"/>
<polygon fill="midnightblue" stroke="midnightblue" points="740.12,-138.92 750.41,-136.43 740.81,-131.95 740.12,-138.92"/>
</g>
<!-- Node10 -->
<g id="node10" class="node">
<title>Node10</title>
<g id="a_node10"><a xlink:href="LoadingScene_8hpp.html" target="_top" xlink:title=" ">
<polygon fill="none" stroke="black" points="745.5,-73 745.5,-92 894.5,-92 894.5,-73 745.5,-73"/>
<text text-anchor="middle" x="820" y="-80" font-family="Helvetica,sans-Serif" font-size="10.00">src/Scenes/LoadingScene.hpp</text>
</a>
</g>
</g>
<!-- Node1&#45;&gt;Node10 -->
<g id="edge10" class="edge">
<title>Node1&#45;&gt;Node10</title>
<path fill="none" stroke="midnightblue" d="M820,-124.32C820,-113.5 820,-100.4 820,-92.01"/>
<polygon fill="midnightblue" stroke="midnightblue" points="816.5,-124.48 820,-134.48 823.5,-124.48 816.5,-124.48"/>
</g>
<!-- Node13 -->
<g id="node13" class="node">
<title>Node13</title>
<g id="a_node13"><a xlink:href="MainScene_8hpp.html" target="_top" xlink:title=" ">
<polygon fill="none" stroke="black" points="441,-73 441,-92 577,-92 577,-73 441,-73"/>
<text text-anchor="middle" x="509" y="-80" font-family="Helvetica,sans-Serif" font-size="10.00">src/Scenes/MainScene.hpp</text>
</a>
</g>
</g>
<!-- Node1&#45;&gt;Node13 -->
<g id="edge13" class="edge">
<title>Node1&#45;&gt;Node13</title>
<path fill="none" stroke="midnightblue" d="M765.36,-132.55C705.1,-121.02 609.32,-102.69 553.48,-92.01"/>
<polygon fill="midnightblue" stroke="midnightblue" points="764.96,-136.03 775.44,-134.48 766.28,-129.16 764.96,-136.03"/>
</g>
<!-- Node15 -->
<g id="node15" class="node">
<title>Node15</title>
<g id="a_node15"><a xlink:href="MenuScene_8cpp.html" target="_top" xlink:title=" ">
<polygon fill="none" stroke="black" points="1093.5,-73 1093.5,-92 1232.5,-92 1232.5,-73 1093.5,-73"/>
<text text-anchor="middle" x="1163" y="-80" font-family="Helvetica,sans-Serif" font-size="10.00">src/Scenes/MenuScene.cpp</text>
</a>
</g>
</g>
<!-- Node1&#45;&gt;Node15 -->
<g id="edge16" class="edge">
<title>Node1&#45;&gt;Node15</title>
<path fill="none" stroke="midnightblue" d="M881.15,-132.8C934.68,-123.82 1014.54,-110.29 1084,-98 1094.71,-96.1 1106.23,-94.02 1117.07,-92.03"/>
<polygon fill="midnightblue" stroke="midnightblue" points="880.42,-129.38 871.14,-134.48 881.58,-136.28 880.42,-129.38"/>
</g>
<!-- Node16 -->
<g id="node16" class="node">
<title>Node16</title>
<g id="a_node16"><a xlink:href="PauseScene_8hpp.html" target="_top" xlink:title=" ">
<polygon fill="none" stroke="black" points="1250.5,-73 1250.5,-92 1393.5,-92 1393.5,-73 1250.5,-73"/>
<text text-anchor="middle" x="1322" y="-80" font-family="Helvetica,sans-Serif" font-size="10.00">src/Scenes/PauseScene.hpp</text>
</a>
</g>
</g>
<!-- Node1&#45;&gt;Node16 -->
<g id="edge17" class="edge">
<title>Node1&#45;&gt;Node16</title>
<path fill="none" stroke="midnightblue" d="M899.92,-136.15C984.76,-128.49 1122.65,-114.9 1241,-98 1252.88,-96.3 1265.68,-94.16 1277.53,-92.04"/>
<polygon fill="midnightblue" stroke="midnightblue" points="899.49,-132.68 889.84,-137.06 900.11,-139.65 899.49,-132.68"/>
</g>
<!-- Node19 -->
<g id="node19" class="node">
<title>Node19</title>
<g id="a_node19"><a xlink:href="SaveSelectionScene_8hpp.html" target="_top" xlink:title=" ">
<polygon fill="none" stroke="black" points="595,-67.5 595,-97.5 727,-97.5 727,-67.5 595,-67.5"/>
<text text-anchor="start" x="603" y="-85.5" font-family="Helvetica,sans-Serif" font-size="10.00">src/Scenes/SaveSelection</text>
<text text-anchor="middle" x="661" y="-74.5" font-family="Helvetica,sans-Serif" font-size="10.00">Scene.hpp</text>
</a>
</g>
</g>
<!-- Node1&#45;&gt;Node19 -->
<g id="edge20" class="edge">
<title>Node1&#45;&gt;Node19</title>
<path fill="none" stroke="midnightblue" d="M787.53,-130.85C761.7,-121.18 725.53,-107.65 698.47,-97.52"/>
<polygon fill="midnightblue" stroke="midnightblue" points="786.63,-134.25 797.22,-134.48 789.08,-127.69 786.63,-134.25"/>
</g>
<!-- Node20 -->
<g id="node20" class="node">
<title>Node20</title>
<g id="a_node20"><a xlink:href="VictoryScene_8hpp.html" target="_top" xlink:title=" ">
<polygon fill="none" stroke="black" points="1527.5,-73 1527.5,-92 1672.5,-92 1672.5,-73 1527.5,-73"/>
<text text-anchor="middle" x="1600" y="-80" font-family="Helvetica,sans-Serif" font-size="10.00">src/Scenes/VictoryScene.hpp</text>
</a>
</g>
</g>
<!-- Node1&#45;&gt;Node20 -->
<g id="edge23" class="edge">
<title>Node1&#45;&gt;Node20</title>
<path fill="none" stroke="midnightblue" d="M899.76,-136.92C1051.81,-125.32 1381.01,-100.21 1527.34,-89.04"/>
<polygon fill="midnightblue" stroke="midnightblue" points="899.27,-133.44 889.56,-137.69 899.8,-140.42 899.27,-133.44"/>
</g>
<!-- Node3 -->
<g id="node3" class="node">
<title>Node3</title>
<g id="a_node3"><a xlink:href="CreditScene_8cpp.html" target="_top" xlink:title=" ">
<polygon fill="none" stroke="black" points="0,-6 0,-25 140,-25 140,-6 0,-6"/>
<text text-anchor="middle" x="70" y="-13" font-family="Helvetica,sans-Serif" font-size="10.00">src/Scenes/CreditScene.cpp</text>
</a>
</g>
</g>
<!-- Node2&#45;&gt;Node3 -->
<g id="edge2" class="edge">
<title>Node2&#45;&gt;Node3</title>
<path fill="none" stroke="midnightblue" d="M172.75,-68.27C147.2,-55.4 109.11,-36.21 87.2,-25.17"/>
<polygon fill="midnightblue" stroke="midnightblue" points="171.36,-71.49 181.87,-72.87 174.51,-65.24 171.36,-71.49"/>
</g>
<!-- Node4 -->
<g id="node4" class="node">
<title>Node4</title>
<g id="a_node4"><a xlink:href="MainScene_8cpp.html" target="_top" xlink:title=" ">
<polygon fill="none" stroke="black" points="158,-6 158,-25 294,-25 294,-6 158,-6"/>
<text text-anchor="middle" x="226" y="-13" font-family="Helvetica,sans-Serif" font-size="10.00">src/Scenes/MainScene.cpp</text>
</a>
</g>
</g>
<!-- Node2&#45;&gt;Node4 -->
<g id="edge3" class="edge">
<title>Node2&#45;&gt;Node4</title>
<path fill="none" stroke="midnightblue" d="M206.56,-63.29C211.75,-50.81 218.39,-34.81 222.42,-25.13"/>
<polygon fill="midnightblue" stroke="midnightblue" points="203.25,-62.16 202.64,-72.73 209.71,-64.84 203.25,-62.16"/>
</g>
<!-- Node6 -->
<g id="node6" class="node">
<title>Node6</title>
<g id="a_node6"><a xlink:href="GameOverScene_8cpp.html" target="_top" xlink:title=" ">
<polygon fill="none" stroke="black" points="874,-6 874,-25 1036,-25 1036,-6 874,-6"/>
<text text-anchor="middle" x="955" y="-13" font-family="Helvetica,sans-Serif" font-size="10.00">src/Scenes/GameOverScene.cpp</text>
</a>
</g>
</g>
<!-- Node5&#45;&gt;Node6 -->
<g id="edge5" class="edge">
<title>Node5&#45;&gt;Node6</title>
<path fill="none" stroke="midnightblue" d="M983.52,-64.03C975.97,-51.45 966.1,-35.01 960.18,-25.13"/>
<polygon fill="midnightblue" stroke="midnightblue" points="980.59,-65.96 988.74,-72.73 986.6,-62.36 980.59,-65.96"/>
</g>
<!-- Node7 -->
<g id="node7" class="node">
<title>Node7</title>
<g id="a_node7"><a xlink:href="GameLostBehaviour_8cpp.html" target="_top" xlink:title=" ">
<polygon fill="none" stroke="black" points="1054.5,-0.5 1054.5,-30.5 1181.5,-30.5 1181.5,-0.5 1054.5,-0.5"/>
<text text-anchor="start" x="1062.5" y="-18.5" font-family="Helvetica,sans-Serif" font-size="10.00">src/Scripts/Common</text>
<text text-anchor="middle" x="1118" y="-7.5" font-family="Helvetica,sans-Serif" font-size="10.00">/GameLostBehaviour.cpp</text>
</a>
</g>
</g>
<!-- Node5&#45;&gt;Node7 -->
<g id="edge6" class="edge">
<title>Node5&#45;&gt;Node7</title>
<path fill="none" stroke="midnightblue" d="M1019.38,-68.19C1040.24,-57.26 1069.72,-41.81 1091,-30.65"/>
<polygon fill="midnightblue" stroke="midnightblue" points="1017.7,-65.13 1010.47,-72.87 1020.95,-71.33 1017.7,-65.13"/>
</g>
<!-- Node8&#45;&gt;Node4 -->
<g id="edge9" class="edge">
<title>Node8&#45;&gt;Node4</title>
<path fill="none" stroke="midnightblue" d="M328.75,-68.27C303.2,-55.4 265.11,-36.21 243.2,-25.17"/>
<polygon fill="midnightblue" stroke="midnightblue" points="327.36,-71.49 337.87,-72.87 330.51,-65.24 327.36,-71.49"/>
</g>
<!-- Node9 -->
<g id="node9" class="node">
<title>Node9</title>
<g id="a_node9"><a xlink:href="HelpScene_8cpp.html" target="_top" xlink:title=" ">
<polygon fill="none" stroke="black" points="312.5,-6 312.5,-25 447.5,-25 447.5,-6 312.5,-6"/>
<text text-anchor="middle" x="380" y="-13" font-family="Helvetica,sans-Serif" font-size="10.00">src/Scenes/HelpScene.cpp</text>
</a>
</g>
</g>
<!-- Node8&#45;&gt;Node9 -->
<g id="edge8" class="edge">
<title>Node8&#45;&gt;Node9</title>
<path fill="none" stroke="midnightblue" d="M362,-63.29C366.8,-50.81 372.96,-34.81 376.68,-25.13"/>
<polygon fill="midnightblue" stroke="midnightblue" points="358.69,-62.14 358.37,-72.73 365.23,-64.66 358.69,-62.14"/>
</g>
<!-- Node11 -->
<g id="node11" class="node">
<title>Node11</title>
<g id="a_node11"><a xlink:href="main_8cpp.html" target="_top" xlink:title=" ">
<polygon fill="none" stroke="black" points="784,-6 784,-25 856,-25 856,-6 784,-6"/>
<text text-anchor="middle" x="820" y="-13" font-family="Helvetica,sans-Serif" font-size="10.00">src/main.cpp</text>
</a>
</g>
</g>
<!-- Node10&#45;&gt;Node11 -->
<g id="edge11" class="edge">
<title>Node10&#45;&gt;Node11</title>
<path fill="none" stroke="midnightblue" d="M820,-62.54C820,-50.17 820,-34.62 820,-25.13"/>
<polygon fill="midnightblue" stroke="midnightblue" points="816.5,-62.73 820,-72.73 823.5,-62.73 816.5,-62.73"/>
</g>
<!-- Node12 -->
<g id="node12" class="node">
<title>Node12</title>
<g id="a_node12"><a xlink:href="LoadingScene_8cpp.html" target="_top" xlink:title=" ">
<polygon fill="none" stroke="black" points="616.5,-6 616.5,-25 765.5,-25 765.5,-6 616.5,-6"/>
<text text-anchor="middle" x="691" y="-13" font-family="Helvetica,sans-Serif" font-size="10.00">src/Scenes/LoadingScene.cpp</text>
</a>
</g>
</g>
<!-- Node10&#45;&gt;Node12 -->
<g id="edge12" class="edge">
<title>Node10&#45;&gt;Node12</title>
<path fill="none" stroke="midnightblue" d="M793.75,-68.27C768.2,-55.4 730.11,-36.21 708.2,-25.17"/>
<polygon fill="midnightblue" stroke="midnightblue" points="792.36,-71.49 802.87,-72.87 795.51,-65.24 792.36,-71.49"/>
</g>
<!-- Node13&#45;&gt;Node4 -->
<g id="edge14" class="edge">
<title>Node13&#45;&gt;Node4</title>
<path fill="none" stroke="midnightblue" d="M461.73,-70.64C405.98,-57.84 314.42,-36.81 263.37,-25.08"/>
<polygon fill="midnightblue" stroke="midnightblue" points="461.18,-74.11 471.71,-72.94 462.75,-67.29 461.18,-74.11"/>
</g>
<!-- Node14 -->
<g id="node14" class="node">
<title>Node14</title>
<g id="a_node14"><a xlink:href="SaveSelectionScene_8cpp.html" target="_top" xlink:title=" ">
<polygon fill="none" stroke="black" points="466,-0.5 466,-30.5 598,-30.5 598,-0.5 466,-0.5"/>
<text text-anchor="start" x="474" y="-18.5" font-family="Helvetica,sans-Serif" font-size="10.00">src/Scenes/SaveSelection</text>
<text text-anchor="middle" x="532" y="-7.5" font-family="Helvetica,sans-Serif" font-size="10.00">Scene.cpp</text>
</a>
</g>
</g>
<!-- Node13&#45;&gt;Node14 -->
<g id="edge15" class="edge">
<title>Node13&#45;&gt;Node14</title>
<path fill="none" stroke="midnightblue" d="M515.52,-63.06C519.17,-52.75 523.65,-40.1 527.01,-30.59"/>
<polygon fill="midnightblue" stroke="midnightblue" points="512.14,-62.14 512.1,-72.73 518.74,-64.47 512.14,-62.14"/>
</g>
<!-- Node17 -->
<g id="node17" class="node">
<title>Node17</title>
<g id="a_node17"><a xlink:href="PauseScene_8cpp.html" target="_top" xlink:title=" ">
<polygon fill="none" stroke="black" points="1199.5,-6 1199.5,-25 1342.5,-25 1342.5,-6 1199.5,-6"/>
<text text-anchor="middle" x="1271" y="-13" font-family="Helvetica,sans-Serif" font-size="10.00">src/Scenes/PauseScene.cpp</text>
</a>
</g>
</g>
<!-- Node16&#45;&gt;Node17 -->
<g id="edge18" class="edge">
<title>Node16&#45;&gt;Node17</title>
<path fill="none" stroke="midnightblue" d="M1308.87,-64.77C1298.93,-52.1 1285.67,-35.2 1277.77,-25.13"/>
<polygon fill="midnightblue" stroke="midnightblue" points="1306.2,-67.03 1315.12,-72.73 1311.7,-62.71 1306.2,-67.03"/>
</g>
<!-- Node18 -->
<g id="node18" class="node">
<title>Node18</title>
<g id="a_node18"><a xlink:href="PauseSceneBehaviour_8cpp.html" target="_top" xlink:title=" ">
<polygon fill="none" stroke="black" points="1360.5,-0.5 1360.5,-30.5 1509.5,-30.5 1509.5,-0.5 1360.5,-0.5"/>
<text text-anchor="start" x="1368.5" y="-18.5" font-family="Helvetica,sans-Serif" font-size="10.00">src/Scripts/Menu/PauseScene</text>
<text text-anchor="middle" x="1435" y="-7.5" font-family="Helvetica,sans-Serif" font-size="10.00">Behaviour.cpp</text>
</a>
</g>
</g>
<!-- Node16&#45;&gt;Node18 -->
<g id="edge19" class="edge">
<title>Node16&#45;&gt;Node18</title>
<path fill="none" stroke="midnightblue" d="M1346.16,-67.6C1365.13,-56.69 1391.45,-41.55 1410.51,-30.59"/>
<polygon fill="midnightblue" stroke="midnightblue" points="1344.16,-64.71 1337.24,-72.73 1347.65,-70.78 1344.16,-64.71"/>
</g>
<!-- Node19&#45;&gt;Node12 -->
<g id="edge21" class="edge">
<title>Node19&#45;&gt;Node12</title>
<path fill="none" stroke="midnightblue" d="M671.71,-58.29C677.01,-46.8 683.09,-33.63 686.99,-25.19"/>
<polygon fill="midnightblue" stroke="midnightblue" points="668.52,-56.85 667.51,-67.4 674.88,-59.78 668.52,-56.85"/>
</g>
<!-- Node19&#45;&gt;Node14 -->
<g id="edge22" class="edge">
<title>Node19&#45;&gt;Node14</title>
<path fill="none" stroke="midnightblue" d="M623.99,-62.85C603.6,-52.58 578.69,-40.03 559.94,-30.58"/>
<polygon fill="midnightblue" stroke="midnightblue" points="622.5,-66.02 633.01,-67.4 625.65,-59.77 622.5,-66.02"/>
</g>
<!-- Node21 -->
<g id="node21" class="node">
<title>Node21</title>
<g id="a_node21"><a xlink:href="VictoryScene_8cpp.html" target="_top" xlink:title=" ">
<polygon fill="none" stroke="black" points="1527.5,-6 1527.5,-25 1672.5,-25 1672.5,-6 1527.5,-6"/>
<text text-anchor="middle" x="1600" y="-13" font-family="Helvetica,sans-Serif" font-size="10.00">src/Scenes/VictoryScene.cpp</text>
</a>
</g>
</g>
<!-- Node20&#45;&gt;Node21 -->
<g id="edge24" class="edge">
<title>Node20&#45;&gt;Node21</title>
<path fill="none" stroke="midnightblue" d="M1600,-62.54C1600,-50.17 1600,-34.62 1600,-25.13"/>
<polygon fill="midnightblue" stroke="midnightblue" points="1596.5,-62.73 1600,-72.73 1603.5,-62.73 1596.5,-62.73"/>
</g>
<!-- Node22 -->
<g id="node22" class="node">
<title>Node22</title>
<g id="a_node22"><a xlink:href="GameWonBehaviour_8cpp.html" target="_top" xlink:title=" ">
<polygon fill="none" stroke="black" points="1690.5,-0.5 1690.5,-30.5 1817.5,-30.5 1817.5,-0.5 1690.5,-0.5"/>
<text text-anchor="start" x="1698.5" y="-18.5" font-family="Helvetica,sans-Serif" font-size="10.00">src/Scripts/Common</text>
<text text-anchor="middle" x="1754" y="-7.5" font-family="Helvetica,sans-Serif" font-size="10.00">/GameWonBehaviour.cpp</text>
</a>
</g>
</g>
<!-- Node20&#45;&gt;Node22 -->
<g id="edge25" class="edge">
<title>Node20&#45;&gt;Node22</title>
<path fill="none" stroke="midnightblue" d="M1629.82,-68.91C1655.9,-57.91 1693.72,-41.94 1720.76,-30.53"/>
<polygon fill="midnightblue" stroke="midnightblue" points="1628.3,-65.76 1620.45,-72.87 1631.02,-72.2 1628.3,-65.76"/>
</g>
</g>
</svg>
        <g id="navigator" transform="translate(0 0)" fill="#404254">
                <rect fill="#f2f5e9" fill-opacity="0.5" stroke="#606060" stroke-width=".5" x="0" y="0" width="60" height="60"/>
                <use id="zoomplus" xlink:href="#zoomPlus" x="17" y="9" onmousedown="handleZoom(evt,'in')"/>
                <use id="zoomminus" xlink:href="#zoomMin" x="42" y="9" onmousedown="handleZoom(evt,'out')"/>
                <use id="reset" xlink:href="#resetDef" x="30" y="36" onmousedown="handleReset()"/>
                <g id="arrowUp" xlink:href="#dirArrow" transform="translate(30 24)" onmousedown="handlePan(0,-1)">
                  <use xlink:href="#rim" fill="#404040">
                        <set attributeName="fill" to="#808080" begin="arrowUp.mouseover" end="arrowUp.mouseout"/>
                  </use>
                  <path fill="none" stroke="white" stroke-width="1.5" d="M0,-3.0v7 M-2.5,-0.5L0,-3.0L2.5,-0.5"/>
                </g>
                <g id="arrowRight" xlink:href="#dirArrow" transform="rotate(90) translate(36 -43)" onmousedown="handlePan(1,0)">
                  <use xlink:href="#rim" fill="#404040">
                        <set attributeName="fill" to="#808080" begin="arrowRight.mouseover" end="arrowRight.mouseout"/>
                  </use>
                  <path fill="none" stroke="white" stroke-width="1.5" d="M0,-3.0v7 M-2.5,-0.5L0,-3.0L2.5,-0.5"/>
                </g>
                <g id="arrowDown" xlink:href="#dirArrow" transform="rotate(180) translate(-30 -48)" onmousedown="handlePan(0,1)">
                  <use xlink:href="#rim" fill="#404040">
                        <set attributeName="fill" to="#808080" begin="arrowDown.mouseover" end="arrowDown.mouseout"/>
                  </use>
                  <path fill="none" stroke="white" stroke-width="1.5" d="M0,-3.0v7 M-2.5,-0.5L0,-3.0L2.5,-0.5"/>
                </g>
                <g id="arrowLeft" xlink:href="#dirArrow" transform="rotate(270) translate(-36 17)" onmousedown="handlePan(-1,0)">
                  <use xlink:href="#rim" fill="#404040">
                        <set attributeName="fill" to="#808080" begin="arrowLeft.mouseover" end="arrowLeft.mouseout"/>
                  </use>
                  <path fill="none" stroke="white" stroke-width="1.5" d="M0,-3.0v7 M-2.5,-0.5L0,-3.0L2.5,-0.5"/>
                </g>
        </g>
        <svg viewBox="0 0 15 15" width="100%" height="30px" preserveAspectRatio="xMaxYMin meet">
         <g id="arrow_out" transform="scale(0.3 0.3)">
          <a xlink:href="MenuScene_8hpp__dep__incl_org.svg" target="_base">
           <rect id="button" ry="5" rx="5" y="6" x="6" height="38" width="38"
                fill="#f2f5e9" fill-opacity="0.5" stroke="#606060" stroke-width="1.0"/>
           <path id="arrow"
             d="M 11.500037,31.436501 C 11.940474,20.09759 22.043105,11.32322 32.158766,21.979434 L 37.068811,17.246167 C 37.068811,17.246167 37.088388,32 37.088388,32 L 22.160133,31.978069 C 22.160133,31.978069 26.997745,27.140456 26.997745,27.140456 C 18.528582,18.264221 13.291696,25.230495 11.500037,31.436501 z"
             style="fill:#404040;"/>
          </a>
         </g>
        </svg>
</svg>
