<?xml version="1.0" encoding="UTF-8" standalone="no"?>
<!DOCTYPE svg PUBLIC "-//W3C//DTD SVG 1.1//EN"
 "http://www.w3.org/Graphics/SVG/1.1/DTD/svg11.dtd">
<!-- Generated by graphviz version 2.44.0 ()
 -->
<!-- Title: src/Scenes/MenuScene.hpp Pages: 1 -->
<!--zoomable 151 -->
<svg id="main" version="1.1" xmlns="http://www.w3.org/2000/svg" xmlns:xlink="http://www.w3.org/1999/xlink" xml:space="preserve" onload="init(evt)">
<style type="text/css"><![CDATA[
.edge:hover path { stroke: red; }
.edge:hover polygon { stroke: red; fill: red; }
]]></style>
<script type="text/javascript"><![CDATA[
var edges = document.getElementsByTagName('g');
if (edges && edges.length) {
  for (var i=0;i<edges.length;i++) {
    if (edges[i].id.substr(0,4)=='edge') {
      edges[i].setAttribute('class','edge');
    }
  }
}
]]></script>
        <defs>
                <circle id="rim" cx="0" cy="0" r="7"/>
                <circle id="rim2" cx="0" cy="0" r="3.5"/>
                <g id="zoomPlus">
                        <use xlink:href="#rim" fill="#404040">
                                <set attributeName="fill" to="#808080" begin="zoomplus.mouseover" end="zoomplus.mouseout"/>
                        </use>
                        <path d="M-4,0h8M0,-4v8" fill="none" stroke="white" stroke-width="1.5" pointer-events="none"/>
                </g>
                <g id="zoomMin">
                        <use xlink:href="#rim" fill="#404040">
                                <set attributeName="fill" to="#808080" begin="zoomminus.mouseover" end="zoomminus.mouseout"/>
                        </use>
                        <path d="M-4,0h8" fill="none" stroke="white" stroke-width="1.5" pointer-events="none"/>
                </g>
                <g id="dirArrow">
                        <path fill="none" stroke="white" stroke-width="1.5" d="M0,-3.0v7 M-2.5,-0.5L0,-3.0L2.5,-0.5"/>
                </g>
               <g id="resetDef">
                       <use xlink:href="#rim2" fill="#404040">
                               <set attributeName="fill" to="#808080" begin="reset.mouseover" end="reset.mouseout"/>
                       </use>
               </g>
        </defs>

<script type="text/javascript">
var viewWidth = 1508;
var viewHeight = 151;
var sectionId = 'dynsection-1';
</script>
<script xlink:href="svgpan.js"/>
<svg id="graph" class="graph">
<g id="viewport">
<title>src/Scenes/MenuScene.hpp</title>
<!-- Node1 -->
<g id="node1" class="node">
<title>Node1</title>
<g id="a_node1"><a xlink:title=" ">
<polygon fill="#bfbfbf" stroke="black" points="599.5,-123.5 599.5,-142.5 738.5,-142.5 738.5,-123.5 599.5,-123.5"/>
<text text-anchor="middle" x="669" y="-130.5" font-family="Helvetica,sans-Serif" font-size="10.00">src/Scenes/MenuScene.hpp</text>
</a>
</g>
</g>
<!-- Node2 -->
<g id="node2" class="node">
<title>Node2</title>
<g id="a_node2"><a xlink:href="CreditScene_8hpp.html" target="_top" xlink:title=" ">
<polygon fill="none" stroke="black" points="122,-67.5 122,-86.5 262,-86.5 262,-67.5 122,-67.5"/>
<text text-anchor="middle" x="192" y="-74.5" font-family="Helvetica,sans-Serif" font-size="10.00">src/Scenes/CreditScene.hpp</text>
</a>
</g>
</g>
<!-- Node1&#45;&gt;Node2 -->
<g id="edge1" class="edge">
<title>Node1&#45;&gt;Node2</title>
<path fill="none" stroke="midnightblue" d="M589.21,-123C508.86,-113.93 381.32,-99.52 271,-87 268.12,-86.67 265.18,-86.34 262.21,-86"/>
<polygon fill="midnightblue" stroke="midnightblue" points="588.93,-126.49 599.26,-124.13 589.71,-119.53 588.93,-126.49"/>
</g>
<!-- Node5 -->
<g id="node5" class="node">
<title>Node5</title>
<g id="a_node5"><a xlink:href="GameOverScene_8hpp.html" target="_top" xlink:title=" ">
<polygon fill="none" stroke="black" points="588,-67.5 588,-86.5 750,-86.5 750,-67.5 588,-67.5"/>
<text text-anchor="middle" x="669" y="-74.5" font-family="Helvetica,sans-Serif" font-size="10.00">src/Scenes/GameOverScene.hpp</text>
</a>
</g>
</g>
<!-- Node1&#45;&gt;Node5 -->
<g id="edge4" class="edge">
<title>Node1&#45;&gt;Node5</title>
<path fill="none" stroke="midnightblue" d="M669,-112.8C669,-103.91 669,-93.78 669,-86.75"/>
<polygon fill="midnightblue" stroke="midnightblue" points="665.5,-113.08 669,-123.08 672.5,-113.08 665.5,-113.08"/>
</g>
<!-- Node8 -->
<g id="node8" class="node">
<title>Node8</title>
<g id="a_node8"><a xlink:href="HelpScene_8hpp.html" target="_top" xlink:title=" ">
<polygon fill="none" stroke="black" points="280.5,-67.5 280.5,-86.5 415.5,-86.5 415.5,-67.5 280.5,-67.5"/>
<text text-anchor="middle" x="348" y="-74.5" font-family="Helvetica,sans-Serif" font-size="10.00">src/Scenes/HelpScene.hpp</text>
</a>
</g>
</g>
<!-- Node1&#45;&gt;Node8 -->
<g id="edge7" class="edge">
<title>Node1&#45;&gt;Node8</title>
<path fill="none" stroke="midnightblue" d="M607.94,-121.73C547.28,-111.52 455.35,-96.06 398.63,-86.52"/>
<polygon fill="midnightblue" stroke="midnightblue" points="607.69,-125.24 618.14,-123.44 608.86,-118.33 607.69,-125.24"/>
</g>
<!-- Node10 -->
<g id="node10" class="node">
<title>Node10</title>
<g id="a_node10"><a xlink:href="MainScene_8hpp.html" target="_top" xlink:title=" ">
<polygon fill="none" stroke="black" points="434,-67.5 434,-86.5 570,-86.5 570,-67.5 434,-67.5"/>
<text text-anchor="middle" x="502" y="-74.5" font-family="Helvetica,sans-Serif" font-size="10.00">src/Scenes/MainScene.hpp</text>
</a>
</g>
</g>
<!-- Node1&#45;&gt;Node10 -->
<g id="edge10" class="edge">
<title>Node1&#45;&gt;Node10</title>
<path fill="none" stroke="midnightblue" d="M632.83,-120.3C601.36,-110.13 556.51,-95.62 528.34,-86.52"/>
<polygon fill="midnightblue" stroke="midnightblue" points="631.95,-123.7 642.54,-123.44 634.1,-117.04 631.95,-123.7"/>
</g>
<!-- Node12 -->
<g id="node12" class="node">
<title>Node12</title>
<g id="a_node12"><a xlink:href="MenuScene_8cpp.html" target="_top" xlink:title=" ">
<polygon fill="none" stroke="black" points="768.5,-67.5 768.5,-86.5 907.5,-86.5 907.5,-67.5 768.5,-67.5"/>
<text text-anchor="middle" x="838" y="-74.5" font-family="Helvetica,sans-Serif" font-size="10.00">src/Scenes/MenuScene.cpp</text>
</a>
</g>
</g>
<!-- Node1&#45;&gt;Node12 -->
<g id="edge13" class="edge">
<title>Node1&#45;&gt;Node12</title>
<path fill="none" stroke="midnightblue" d="M705.6,-120.3C737.45,-110.13 782.84,-95.62 811.35,-86.52"/>
<polygon fill="midnightblue" stroke="midnightblue" points="704.24,-117.07 695.78,-123.44 706.37,-123.73 704.24,-117.07"/>
</g>
<!-- Node13 -->
<g id="node13" class="node">
<title>Node13</title>
<g id="a_node13"><a xlink:href="PauseScene_8hpp.html" target="_top" xlink:title=" ">
<polygon fill="none" stroke="black" points="925.5,-67.5 925.5,-86.5 1068.5,-86.5 1068.5,-67.5 925.5,-67.5"/>
<text text-anchor="middle" x="997" y="-74.5" font-family="Helvetica,sans-Serif" font-size="10.00">src/Scenes/PauseScene.hpp</text>
</a>
</g>
</g>
<!-- Node1&#45;&gt;Node13 -->
<g id="edge14" class="edge">
<title>Node1&#45;&gt;Node13</title>
<path fill="none" stroke="midnightblue" d="M731.01,-121.79C792.99,-111.59 887.19,-96.08 945.27,-86.52"/>
<polygon fill="midnightblue" stroke="midnightblue" points="730.27,-118.37 720.97,-123.44 731.41,-125.27 730.27,-118.37"/>
</g>
<!-- Node16 -->
<g id="node16" class="node">
<title>Node16</title>
<g id="a_node16"><a xlink:href="VictoryScene_8hpp.html" target="_top" xlink:title=" ">
<polygon fill="none" stroke="black" points="1209.5,-67.5 1209.5,-86.5 1354.5,-86.5 1354.5,-67.5 1209.5,-67.5"/>
<text text-anchor="middle" x="1282" y="-74.5" font-family="Helvetica,sans-Serif" font-size="10.00">src/Scenes/VictoryScene.hpp</text>
</a>
</g>
</g>
<!-- Node1&#45;&gt;Node16 -->
<g id="edge17" class="edge">
<title>Node1&#45;&gt;Node16</title>
<path fill="none" stroke="midnightblue" d="M748.94,-124.96C868.98,-114.38 1093.98,-94.56 1209.5,-84.39"/>
<polygon fill="midnightblue" stroke="midnightblue" points="748.38,-121.49 738.72,-125.86 748.99,-128.47 748.38,-121.49"/>
</g>
<!-- Node3 -->
<g id="node3" class="node">
<title>Node3</title>
<g id="a_node3"><a xlink:href="CreditScene_8cpp.html" target="_top" xlink:title=" ">
<polygon fill="none" stroke="black" points="0,-6 0,-25 140,-25 140,-6 0,-6"/>
<text text-anchor="middle" x="70" y="-13" font-family="Helvetica,sans-Serif" font-size="10.00">src/Scenes/CreditScene.cpp</text>
</a>
</g>
</g>
<!-- Node2&#45;&gt;Node3 -->
<g id="edge2" class="edge">
<title>Node2&#45;&gt;Node3</title>
<path fill="none" stroke="midnightblue" d="M165.39,-63.02C141.73,-51.48 107.82,-34.94 87.45,-25.01"/>
<polygon fill="midnightblue" stroke="midnightblue" points="164,-66.24 174.52,-67.48 167.07,-59.95 164,-66.24"/>
</g>
<!-- Node4 -->
<g id="node4" class="node">
<title>Node4</title>
<g id="a_node4"><a xlink:href="MainScene_8cpp.html" target="_top" xlink:title=" ">
<polygon fill="none" stroke="black" points="158,-6 158,-25 294,-25 294,-6 158,-6"/>
<text text-anchor="middle" x="226" y="-13" font-family="Helvetica,sans-Serif" font-size="10.00">src/Scenes/MainScene.cpp</text>
</a>
</g>
</g>
<!-- Node2&#45;&gt;Node4 -->
<g id="edge3" class="edge">
<title>Node2&#45;&gt;Node4</title>
<path fill="none" stroke="midnightblue" d="M201.9,-58.67C208.22,-47.61 216.14,-33.75 221.14,-25.01"/>
<polygon fill="midnightblue" stroke="midnightblue" points="198.79,-57.06 196.87,-67.48 204.87,-60.53 198.79,-57.06"/>
</g>
<!-- Node6 -->
<g id="node6" class="node">
<title>Node6</title>
<g id="a_node6"><a xlink:href="GameOverScene_8cpp.html" target="_top" xlink:title=" ">
<polygon fill="none" stroke="black" points="556,-6 556,-25 718,-25 718,-6 556,-6"/>
<text text-anchor="middle" x="637" y="-13" font-family="Helvetica,sans-Serif" font-size="10.00">src/Scenes/GameOverScene.cpp</text>
</a>
</g>
</g>
<!-- Node5&#45;&gt;Node6 -->
<g id="edge5" class="edge">
<title>Node5&#45;&gt;Node6</title>
<path fill="none" stroke="midnightblue" d="M659.5,-58.33C653.58,-47.33 646.23,-33.66 641.58,-25.01"/>
<polygon fill="midnightblue" stroke="midnightblue" points="656.6,-60.33 664.42,-67.48 662.76,-57.01 656.6,-60.33"/>
</g>
<!-- Node7 -->
<g id="node7" class="node">
<title>Node7</title>
<g id="a_node7"><a xlink:href="GameLostBehaviour_8cpp.html" target="_top" xlink:title=" ">
<polygon fill="none" stroke="black" points="736.5,-0.5 736.5,-30.5 863.5,-30.5 863.5,-0.5 736.5,-0.5"/>
<text text-anchor="start" x="744.5" y="-18.5" font-family="Helvetica,sans-Serif" font-size="10.00">src/Scripts/Common</text>
<text text-anchor="middle" x="800" y="-7.5" font-family="Helvetica,sans-Serif" font-size="10.00">/GameLostBehaviour.cpp</text>
</a>
</g>
</g>
<!-- Node5&#45;&gt;Node7 -->
<g id="edge6" class="edge">
<title>Node5&#45;&gt;Node7</title>
<path fill="none" stroke="midnightblue" d="M696.89,-63.33C718.09,-53.7 747.23,-40.47 769.13,-30.52"/>
<polygon fill="midnightblue" stroke="midnightblue" points="695.43,-60.15 687.77,-67.48 698.32,-66.53 695.43,-60.15"/>
</g>
<!-- Node8&#45;&gt;Node4 -->
<g id="edge9" class="edge">
<title>Node8&#45;&gt;Node4</title>
<path fill="none" stroke="midnightblue" d="M321.39,-63.02C297.73,-51.48 263.82,-34.94 243.45,-25.01"/>
<polygon fill="midnightblue" stroke="midnightblue" points="320,-66.24 330.52,-67.48 323.07,-59.95 320,-66.24"/>
</g>
<!-- Node9 -->
<g id="node9" class="node">
<title>Node9</title>
<g id="a_node9"><a xlink:href="HelpScene_8cpp.html" target="_top" xlink:title=" ">
<polygon fill="none" stroke="black" points="312.5,-6 312.5,-25 447.5,-25 447.5,-6 312.5,-6"/>
<text text-anchor="middle" x="380" y="-13" font-family="Helvetica,sans-Serif" font-size="10.00">src/Scenes/HelpScene.cpp</text>
</a>
</g>
</g>
<!-- Node8&#45;&gt;Node9 -->
<g id="edge8" class="edge">
<title>Node8&#45;&gt;Node9</title>
<path fill="none" stroke="midnightblue" d="M357.5,-58.33C363.42,-47.33 370.77,-33.66 375.42,-25.01"/>
<polygon fill="midnightblue" stroke="midnightblue" points="354.24,-57.01 352.58,-67.48 360.4,-60.33 354.24,-57.01"/>
</g>
<!-- Node10&#45;&gt;Node4 -->
<g id="edge12" class="edge">
<title>Node10&#45;&gt;Node4</title>
<path fill="none" stroke="midnightblue" d="M452.51,-65.33C398.98,-53.79 314.73,-35.63 265.47,-25.01"/>
<polygon fill="midnightblue" stroke="midnightblue" points="451.94,-68.79 462.46,-67.48 453.42,-61.95 451.94,-68.79"/>
</g>
<!-- Node11 -->
<g id="node11" class="node">
<title>Node11</title>
<g id="a_node11"><a xlink:href="main_8cpp.html" target="_top" xlink:title=" ">
<polygon fill="none" stroke="black" points="466,-6 466,-25 538,-25 538,-6 466,-6"/>
<text text-anchor="middle" x="502" y="-13" font-family="Helvetica,sans-Serif" font-size="10.00">src/main.cpp</text>
</a>
</g>
</g>
<!-- Node10&#45;&gt;Node11 -->
<g id="edge11" class="edge">
<title>Node10&#45;&gt;Node11</title>
<path fill="none" stroke="midnightblue" d="M502,-57.32C502,-46.5 502,-33.4 502,-25.01"/>
<polygon fill="midnightblue" stroke="midnightblue" points="498.5,-57.48 502,-67.48 505.5,-57.48 498.5,-57.48"/>
</g>
<!-- Node14 -->
<g id="node14" class="node">
<title>Node14</title>
<g id="a_node14"><a xlink:href="PauseScene_8cpp.html" target="_top" xlink:title=" ">
<polygon fill="none" stroke="black" points="881.5,-6 881.5,-25 1024.5,-25 1024.5,-6 881.5,-6"/>
<text text-anchor="middle" x="953" y="-13" font-family="Helvetica,sans-Serif" font-size="10.00">src/Scenes/PauseScene.cpp</text>
</a>
</g>
</g>
<!-- Node13&#45;&gt;Node14 -->
<g id="edge15" class="edge">
<title>Node13&#45;&gt;Node14</title>
<path fill="none" stroke="midnightblue" d="M984.68,-59.34C976.42,-48.17 965.89,-33.93 959.29,-25.01"/>
<polygon fill="midnightblue" stroke="midnightblue" points="981.94,-61.52 990.7,-67.48 987.56,-57.35 981.94,-61.52"/>
</g>
<!-- Node15 -->
<g id="node15" class="node">
<title>Node15</title>
<g id="a_node15"><a xlink:href="PauseSceneBehaviour_8cpp.html" target="_top" xlink:title=" ">
<polygon fill="none" stroke="black" points="1042.5,-0.5 1042.5,-30.5 1191.5,-30.5 1191.5,-0.5 1042.5,-0.5"/>
<text text-anchor="start" x="1050.5" y="-18.5" font-family="Helvetica,sans-Serif" font-size="10.00">src/Scripts/Menu/PauseScene</text>
<text text-anchor="middle" x="1117" y="-7.5" font-family="Helvetica,sans-Serif" font-size="10.00">Behaviour.cpp</text>
</a>
</g>
</g>
<!-- Node13&#45;&gt;Node15 -->
<g id="edge16" class="edge">
<title>Node13&#45;&gt;Node15</title>
<path fill="none" stroke="midnightblue" d="M1023.34,-62.94C1042.69,-53.35 1068.93,-40.33 1088.72,-30.52"/>
<polygon fill="midnightblue" stroke="midnightblue" points="1021.6,-59.9 1014.19,-67.48 1024.71,-66.17 1021.6,-59.9"/>
</g>
<!-- Node17 -->
<g id="node17" class="node">
<title>Node17</title>
<g id="a_node17"><a xlink:href="VictoryScene_8cpp.html" target="_top" xlink:title=" ">
<polygon fill="none" stroke="black" points="1209.5,-6 1209.5,-25 1354.5,-25 1354.5,-6 1209.5,-6"/>
<text text-anchor="middle" x="1282" y="-13" font-family="Helvetica,sans-Serif" font-size="10.00">src/Scenes/VictoryScene.cpp</text>
</a>
</g>
</g>
<!-- Node16&#45;&gt;Node17 -->
<g id="edge18" class="edge">
<title>Node16&#45;&gt;Node17</title>
<path fill="none" stroke="midnightblue" d="M1282,-57.32C1282,-46.5 1282,-33.4 1282,-25.01"/>
<polygon fill="midnightblue" stroke="midnightblue" points="1278.5,-57.48 1282,-67.48 1285.5,-57.48 1278.5,-57.48"/>
</g>
<!-- Node18 -->
<g id="node18" class="node">
<title>Node18</title>
<g id="a_node18"><a xlink:href="GameWonBehaviour_8cpp.html" target="_top" xlink:title=" ">
<polygon fill="none" stroke="black" points="1372.5,-0.5 1372.5,-30.5 1499.5,-30.5 1499.5,-0.5 1372.5,-0.5"/>
<text text-anchor="start" x="1380.5" y="-18.5" font-family="Helvetica,sans-Serif" font-size="10.00">src/Scripts/Common</text>
<text text-anchor="middle" x="1436" y="-7.5" font-family="Helvetica,sans-Serif" font-size="10.00">/GameWonBehaviour.cpp</text>
</a>
</g>
</g>
<!-- Node16&#45;&gt;Node18 -->
<g id="edge19" class="edge">
<title>Node16&#45;&gt;Node18</title>
<path fill="none" stroke="midnightblue" d="M1313.45,-63.85C1338.47,-54.18 1373.5,-40.65 1399.71,-30.52"/>
<polygon fill="midnightblue" stroke="midnightblue" points="1312.13,-60.61 1304.06,-67.48 1314.65,-67.14 1312.13,-60.61"/>
</g>
</g>
</svg>
        <g id="navigator" transform="translate(0 0)" fill="#404254">
                <rect fill="#f2f5e9" fill-opacity="0.5" stroke="#606060" stroke-width=".5" x="0" y="0" width="60" height="60"/>
                <use id="zoomplus" xlink:href="#zoomPlus" x="17" y="9" onmousedown="handleZoom(evt,'in')"/>
                <use id="zoomminus" xlink:href="#zoomMin" x="42" y="9" onmousedown="handleZoom(evt,'out')"/>
                <use id="reset" xlink:href="#resetDef" x="30" y="36" onmousedown="handleReset()"/>
                <g id="arrowUp" xlink:href="#dirArrow" transform="translate(30 24)" onmousedown="handlePan(0,-1)">
                  <use xlink:href="#rim" fill="#404040">
                        <set attributeName="fill" to="#808080" begin="arrowUp.mouseover" end="arrowUp.mouseout"/>
                  </use>
                  <path fill="none" stroke="white" stroke-width="1.5" d="M0,-3.0v7 M-2.5,-0.5L0,-3.0L2.5,-0.5"/>
                </g>
                <g id="arrowRight" xlink:href="#dirArrow" transform="rotate(90) translate(36 -43)" onmousedown="handlePan(1,0)">
                  <use xlink:href="#rim" fill="#404040">
                        <set attributeName="fill" to="#808080" begin="arrowRight.mouseover" end="arrowRight.mouseout"/>
                  </use>
                  <path fill="none" stroke="white" stroke-width="1.5" d="M0,-3.0v7 M-2.5,-0.5L0,-3.0L2.5,-0.5"/>
                </g>
                <g id="arrowDown" xlink:href="#dirArrow" transform="rotate(180) translate(-30 -48)" onmousedown="handlePan(0,1)">
                  <use xlink:href="#rim" fill="#404040">
                        <set attributeName="fill" to="#808080" begin="arrowDown.mouseover" end="arrowDown.mouseout"/>
                  </use>
                  <path fill="none" stroke="white" stroke-width="1.5" d="M0,-3.0v7 M-2.5,-0.5L0,-3.0L2.5,-0.5"/>
                </g>
                <g id="arrowLeft" xlink:href="#dirArrow" transform="rotate(270) translate(-36 17)" onmousedown="handlePan(-1,0)">
                  <use xlink:href="#rim" fill="#404040">
                        <set attributeName="fill" to="#808080" begin="arrowLeft.mouseover" end="arrowLeft.mouseout"/>
                  </use>
                  <path fill="none" stroke="white" stroke-width="1.5" d="M0,-3.0v7 M-2.5,-0.5L0,-3.0L2.5,-0.5"/>
                </g>
        </g>
        <svg viewBox="0 0 15 15" width="100%" height="30px" preserveAspectRatio="xMaxYMin meet">
         <g id="arrow_out" transform="scale(0.3 0.3)">
          <a xlink:href="MenuScene_8hpp__dep__incl_org.svg" target="_base">
           <rect id="button" ry="5" rx="5" y="6" x="6" height="38" width="38"
                fill="#f2f5e9" fill-opacity="0.5" stroke="#606060" stroke-width="1.0"/>
           <path id="arrow"
             d="M 11.500037,31.436501 C 11.940474,20.09759 22.043105,11.32322 32.158766,21.979434 L 37.068811,17.246167 C 37.068811,17.246167 37.088388,32 37.088388,32 L 22.160133,31.978069 C 22.160133,31.978069 26.997745,27.140456 26.997745,27.140456 C 18.528582,18.264221 13.291696,25.230495 11.500037,31.436501 z"
             style="fill:#404040;"/>
          </a>
         </g>
        </svg>
</svg>
