<?xml version="1.0" encoding="UTF-8" standalone="no"?>
<!DOCTYPE svg PUBLIC "-//W3C//DTD SVG 1.1//EN"
 "http://www.w3.org/Graphics/SVG/1.1/DTD/svg11.dtd">
<!-- Generated by graphviz version 2.44.0 ()
 -->
<!-- Title: src/Scenes/MenuScene.cpp Pages: 1 -->
<svg width="884pt" height="386pt"
 viewBox="0.00 0.00 883.61 386.00" xmlns="http://www.w3.org/2000/svg" xmlns:xlink="http://www.w3.org/1999/xlink">
<g id="graph0" class="graph" transform="scale(1 1) rotate(0) translate(4 382)">
<title>src/Scenes/MenuScene.cpp</title>
<!-- Node1 -->
<g id="node1" class="node">
<title>Node1</title>
<g id="a_node1"><a xlink:title=" ">
<polygon fill="#bfbfbf" stroke="black" points="336.61,-358.5 336.61,-377.5 475.61,-377.5 475.61,-358.5 336.61,-358.5"/>
<text text-anchor="middle" x="406.11" y="-365.5" font-family="Helvetica,sans-Serif" font-size="10.00">src/Scenes/MenuScene.cpp</text>
</a>
</g>
</g>
<!-- Node2 -->
<g id="node2" class="node">
<title>Node2</title>
<g id="a_node2"><a xlink:href="MenuScene_8hpp.html" target="_top" xlink:title=" ">
<polygon fill="none" stroke="black" points="220.11,-174 220.11,-193 306.11,-193 306.11,-174 220.11,-174"/>
<text text-anchor="middle" x="263.11" y="-181" font-family="Helvetica,sans-Serif" font-size="10.00">MenuScene.hpp</text>
</a>
</g>
</g>
<!-- Node1&#45;&gt;Node2 -->
<g id="edge1" class="edge">
<title>Node1&#45;&gt;Node2</title>
<path fill="none" stroke="midnightblue" d="M399.21,-358.2C376.8,-329.59 305.75,-238.91 276.2,-201.2"/>
<polygon fill="midnightblue" stroke="midnightblue" points="278.86,-198.93 269.94,-193.21 273.35,-203.24 278.86,-198.93"/>
</g>
<!-- Node5 -->
<g id="node5" class="node">
<title>Node5</title>
<g id="a_node5"><a xlink:title=" ">
<polygon fill="none" stroke="#bfbfbf" points="564.61,-0.5 564.61,-19.5 615.61,-19.5 615.61,-0.5 564.61,-0.5"/>
<text text-anchor="middle" x="590.11" y="-7.5" font-family="Helvetica,sans-Serif" font-size="10.00">memory</text>
</a>
</g>
</g>
<!-- Node1&#45;&gt;Node5 -->
<g id="edge39" class="edge">
<title>Node1&#45;&gt;Node5</title>
<path fill="none" stroke="midnightblue" d="M336.21,-367.38C239.72,-366.48 72.36,-359.36 26.11,-322 -1.66,-299.57 0.11,-281.7 0.11,-246 0.11,-246 0.11,-246 0.11,-121 0.11,-77.89 32.58,-73.2 72.11,-56 159.05,-18.16 452.1,-12.12 554.46,-11.17"/>
<polygon fill="midnightblue" stroke="midnightblue" points="554.62,-14.67 564.59,-11.09 554.57,-7.67 554.62,-14.67"/>
</g>
<!-- Node8 -->
<g id="node8" class="node">
<title>Node8</title>
<g id="a_node8"><a xlink:href="BackgroundPrefabFactory_8hpp.html" target="_top" xlink:title=" ">
<polygon fill="none" stroke="black" points="324.11,-168.5 324.11,-198.5 472.11,-198.5 472.11,-168.5 324.11,-168.5"/>
<text text-anchor="start" x="332.11" y="-186.5" font-family="Helvetica,sans-Serif" font-size="10.00">../Factories/BackgroundPrefab</text>
<text text-anchor="middle" x="398.11" y="-175.5" font-family="Helvetica,sans-Serif" font-size="10.00">Factory.hpp</text>
</a>
</g>
</g>
<!-- Node1&#45;&gt;Node8 -->
<g id="edge7" class="edge">
<title>Node1&#45;&gt;Node8</title>
<path fill="none" stroke="midnightblue" d="M400.98,-358.41C396.05,-349.61 388.95,-335.38 386.11,-322 377.81,-282.89 385.43,-236.35 391.74,-208.68"/>
<polygon fill="midnightblue" stroke="midnightblue" points="395.2,-209.26 394.14,-198.72 388.39,-207.62 395.2,-209.26"/>
</g>
<!-- Node13 -->
<g id="node13" class="node">
<title>Node13</title>
<g id="a_node13"><a xlink:href="ButtonPrefabFactory_8hpp.html" target="_top" xlink:title=" ">
<polygon fill="none" stroke="black" points="35.61,-291.5 35.61,-321.5 160.61,-321.5 160.61,-291.5 35.61,-291.5"/>
<text text-anchor="start" x="43.61" y="-309.5" font-family="Helvetica,sans-Serif" font-size="10.00">../Factories/ButtonPrefab</text>
<text text-anchor="middle" x="98.11" y="-298.5" font-family="Helvetica,sans-Serif" font-size="10.00">Factory.hpp</text>
</a>
</g>
</g>
<!-- Node1&#45;&gt;Node13 -->
<g id="edge18" class="edge">
<title>Node1&#45;&gt;Node13</title>
<path fill="none" stroke="midnightblue" d="M361.98,-358.48C312.14,-348.85 230.25,-333.03 170.9,-321.56"/>
<polygon fill="midnightblue" stroke="midnightblue" points="171.32,-318.08 160.84,-319.62 169.99,-324.95 171.32,-318.08"/>
</g>
<!-- Node17 -->
<g id="node17" class="node">
<title>Node17</title>
<g id="a_node17"><a xlink:href="CameraPrefabFactory_8hpp.html" target="_top" xlink:title=" ">
<polygon fill="none" stroke="black" points="640.11,-291.5 640.11,-321.5 770.11,-321.5 770.11,-291.5 640.11,-291.5"/>
<text text-anchor="start" x="648.11" y="-309.5" font-family="Helvetica,sans-Serif" font-size="10.00">../Factories/CameraPrefab</text>
<text text-anchor="middle" x="705.11" y="-298.5" font-family="Helvetica,sans-Serif" font-size="10.00">Factory.hpp</text>
</a>
</g>
</g>
<!-- Node1&#45;&gt;Node17 -->
<g id="edge25" class="edge">
<title>Node1&#45;&gt;Node17</title>
<path fill="none" stroke="midnightblue" d="M448.95,-358.48C496.1,-349.09 572.77,-333.83 629.97,-322.45"/>
<polygon fill="midnightblue" stroke="midnightblue" points="630.92,-325.83 640.05,-320.45 629.56,-318.97 630.92,-325.83"/>
</g>
<!-- Node20 -->
<g id="node20" class="node">
<title>Node20</title>
<g id="a_node20"><a xlink:href="Layer_8hpp.html" target="_top" xlink:title=" ">
<polygon fill="none" stroke="black" points="395.61,-297 395.61,-316 494.61,-316 494.61,-297 395.61,-297"/>
<text text-anchor="middle" x="445.11" y="-304" font-family="Helvetica,sans-Serif" font-size="10.00">../Enums/Layer.hpp</text>
</a>
</g>
</g>
<!-- Node1&#45;&gt;Node20 -->
<g id="edge30" class="edge">
<title>Node1&#45;&gt;Node20</title>
<path fill="none" stroke="midnightblue" d="M411.7,-358.48C417.49,-349.64 426.7,-335.59 433.98,-324.48"/>
<polygon fill="midnightblue" stroke="midnightblue" points="436.98,-326.29 439.53,-316.01 431.12,-322.45 436.98,-326.29"/>
</g>
<!-- Node21 -->
<g id="node21" class="node">
<title>Node21</title>
<g id="a_node21"><a xlink:href="src_2Enums_2Font_8hpp.html" target="_top" xlink:title=" ">
<polygon fill="none" stroke="black" points="138.61,-112.5 138.61,-131.5 233.61,-131.5 233.61,-112.5 138.61,-112.5"/>
<text text-anchor="middle" x="186.11" y="-119.5" font-family="Helvetica,sans-Serif" font-size="10.00">../Enums/Font.hpp</text>
</a>
</g>
</g>
<!-- Node1&#45;&gt;Node21 -->
<g id="edge31" class="edge">
<title>Node1&#45;&gt;Node21</title>
<path fill="none" stroke="midnightblue" d="M391.06,-358.37C354.43,-336.58 260.12,-275.6 211.11,-199 199.67,-181.13 192.99,-157.53 189.45,-141.39"/>
<polygon fill="midnightblue" stroke="midnightblue" points="192.88,-140.7 187.49,-131.58 186.02,-142.07 192.88,-140.7"/>
</g>
<!-- Node22 -->
<g id="node22" class="node">
<title>Node22</title>
<g id="a_node22"><a xlink:href="Text_8hpp.html" target="_top" xlink:title=" ">
<polygon fill="none" stroke="black" points="496.61,-235.5 496.61,-254.5 549.61,-254.5 549.61,-235.5 496.61,-235.5"/>
<text text-anchor="middle" x="523.11" y="-242.5" font-family="Helvetica,sans-Serif" font-size="10.00">Text.hpp</text>
</a>
</g>
</g>
<!-- Node1&#45;&gt;Node22 -->
<g id="edge33" class="edge">
<title>Node1&#45;&gt;Node22</title>
<path fill="none" stroke="midnightblue" d="M442.22,-358.48C462.85,-351.82 487.62,-340.51 503.11,-322 516.63,-305.85 521.12,-281.54 522.55,-264.79"/>
<polygon fill="midnightblue" stroke="midnightblue" points="526.06,-264.77 523.13,-254.59 519.07,-264.37 526.06,-264.77"/>
</g>
<!-- Node23 -->
<g id="node23" class="node">
<title>Node23</title>
<g id="a_node23"><a xlink:href="Constants_8hpp.html" target="_top" xlink:title=" ">
<polygon fill="none" stroke="black" points="568.11,-235.5 568.11,-254.5 654.11,-254.5 654.11,-235.5 568.11,-235.5"/>
<text text-anchor="middle" x="611.11" y="-242.5" font-family="Helvetica,sans-Serif" font-size="10.00">../Constants.hpp</text>
</a>
</g>
</g>
<!-- Node1&#45;&gt;Node23 -->
<g id="edge37" class="edge">
<title>Node1&#45;&gt;Node23</title>
<path fill="none" stroke="midnightblue" d="M437.85,-358.44C462.67,-350.95 497.5,-338.65 525.11,-322 552.97,-305.2 580.28,-278.91 596.4,-262.08"/>
<polygon fill="midnightblue" stroke="midnightblue" points="599.08,-264.34 603.37,-254.65 593.98,-259.55 599.08,-264.34"/>
</g>
<!-- Node24 -->
<g id="node24" class="node">
<title>Node24</title>
<g id="a_node24"><a xlink:title=" ">
<polygon fill="none" stroke="#bfbfbf" points="788.61,-297 788.61,-316 847.61,-316 847.61,-297 788.61,-297"/>
<text text-anchor="middle" x="818.11" y="-304" font-family="Helvetica,sans-Serif" font-size="10.00">stdexcept</text>
</a>
</g>
</g>
<!-- Node1&#45;&gt;Node24 -->
<g id="edge40" class="edge">
<title>Node1&#45;&gt;Node24</title>
<path fill="none" stroke="midnightblue" d="M475.73,-363.51C551.31,-358.6 675.15,-347.22 779.11,-322 782.1,-321.27 785.18,-320.39 788.23,-319.41"/>
<polygon fill="midnightblue" stroke="midnightblue" points="789.46,-322.69 797.75,-316.1 787.15,-316.08 789.46,-322.69"/>
</g>
<!-- Node3 -->
<g id="node3" class="node">
<title>Node3</title>
<g id="a_node3"><a xlink:href="Scene_8hpp.html" target="_top" xlink:title=" ">
<polygon fill="none" stroke="black" points="500.11,-112.5 500.11,-131.5 562.11,-131.5 562.11,-112.5 500.11,-112.5"/>
<text text-anchor="middle" x="531.11" y="-119.5" font-family="Helvetica,sans-Serif" font-size="10.00">Scene.hpp</text>
</a>
</g>
</g>
<!-- Node2&#45;&gt;Node3 -->
<g id="edge2" class="edge">
<title>Node2&#45;&gt;Node3</title>
<path fill="none" stroke="midnightblue" d="M292.45,-173.95C299.82,-171.91 307.73,-169.79 315.11,-168 375.58,-153.29 446.3,-139.12 489.9,-130.74"/>
<polygon fill="midnightblue" stroke="midnightblue" points="490.68,-134.15 499.84,-128.84 489.37,-127.28 490.68,-134.15"/>
</g>
<!-- Node6 -->
<g id="node6" class="node">
<title>Node6</title>
<g id="a_node6"><a xlink:href="BackgroundName_8hpp.html" target="_top" xlink:title=" ">
<polygon fill="none" stroke="black" points="290.61,-112.5 290.61,-131.5 443.61,-131.5 443.61,-112.5 290.61,-112.5"/>
<text text-anchor="middle" x="367.11" y="-119.5" font-family="Helvetica,sans-Serif" font-size="10.00">../Enums/BackgroundName.hpp</text>
</a>
</g>
</g>
<!-- Node2&#45;&gt;Node6 -->
<g id="edge5" class="edge">
<title>Node2&#45;&gt;Node6</title>
<path fill="none" stroke="midnightblue" d="M278.01,-173.98C295.08,-164.21 323.27,-148.08 343.37,-136.58"/>
<polygon fill="midnightblue" stroke="midnightblue" points="345.3,-139.51 352.24,-131.51 341.82,-133.44 345.3,-139.51"/>
</g>
<!-- Node7 -->
<g id="node7" class="node">
<title>Node7</title>
<g id="a_node7"><a xlink:title=" ">
<polygon fill="none" stroke="#bfbfbf" points="241.61,-56.5 241.61,-75.5 282.61,-75.5 282.61,-56.5 241.61,-56.5"/>
<text text-anchor="middle" x="262.11" y="-63.5" font-family="Helvetica,sans-Serif" font-size="10.00">string</text>
</a>
</g>
</g>
<!-- Node2&#45;&gt;Node7 -->
<g id="edge6" class="edge">
<title>Node2&#45;&gt;Node7</title>
<path fill="none" stroke="midnightblue" d="M263.04,-173.82C262.87,-155.26 262.49,-111.34 262.27,-85.97"/>
<polygon fill="midnightblue" stroke="midnightblue" points="265.77,-85.75 262.19,-75.78 258.77,-85.81 265.77,-85.75"/>
</g>
<!-- Node4 -->
<g id="node4" class="node">
<title>Node4</title>
<g id="a_node4"><a xlink:title=" ">
<polygon fill="none" stroke="#bfbfbf" points="518.11,-56.5 518.11,-75.5 562.11,-75.5 562.11,-56.5 518.11,-56.5"/>
<text text-anchor="middle" x="540.11" y="-63.5" font-family="Helvetica,sans-Serif" font-size="10.00">vector</text>
</a>
</g>
</g>
<!-- Node3&#45;&gt;Node4 -->
<g id="edge3" class="edge">
<title>Node3&#45;&gt;Node4</title>
<path fill="none" stroke="midnightblue" d="M532.6,-112.08C533.79,-104.93 535.5,-94.64 537,-85.69"/>
<polygon fill="midnightblue" stroke="midnightblue" points="540.46,-86.19 538.65,-75.75 533.56,-85.04 540.46,-86.19"/>
</g>
<!-- Node3&#45;&gt;Node5 -->
<g id="edge4" class="edge">
<title>Node3&#45;&gt;Node5</title>
<path fill="none" stroke="midnightblue" d="M523.57,-112.1C513.53,-99.11 498.24,-74.48 509.11,-56 519,-39.19 537.68,-28.21 554.62,-21.31"/>
<polygon fill="midnightblue" stroke="midnightblue" points="556.15,-24.47 564.3,-17.71 553.71,-17.91 556.15,-24.47"/>
</g>
<!-- Node8&#45;&gt;Node5 -->
<g id="edge17" class="edge">
<title>Node8&#45;&gt;Node5</title>
<path fill="none" stroke="midnightblue" d="M472.36,-169.04C512.94,-160.15 557.63,-147.33 571.11,-132 596.19,-103.48 595.52,-55.87 592.83,-29.68"/>
<polygon fill="midnightblue" stroke="midnightblue" points="596.28,-29.09 591.58,-19.6 589.34,-29.95 596.28,-29.09"/>
</g>
<!-- Node8&#45;&gt;Node6 -->
<g id="edge8" class="edge">
<title>Node8&#45;&gt;Node6</title>
<path fill="none" stroke="midnightblue" d="M390.76,-168.4C386.45,-160.11 380.95,-149.55 376.34,-140.71"/>
<polygon fill="midnightblue" stroke="midnightblue" points="379.35,-138.91 371.62,-131.66 373.14,-142.14 379.35,-138.91"/>
</g>
<!-- Node9 -->
<g id="node9" class="node">
<title>Node9</title>
<g id="a_node9"><a xlink:href="GameObject_8hpp.html" target="_top" xlink:title=" ">
<polygon fill="none" stroke="black" points="618.61,-112.5 618.61,-131.5 707.61,-131.5 707.61,-112.5 618.61,-112.5"/>
<text text-anchor="middle" x="663.11" y="-119.5" font-family="Helvetica,sans-Serif" font-size="10.00">GameObject.hpp</text>
</a>
</g>
</g>
<!-- Node8&#45;&gt;Node9 -->
<g id="edge9" class="edge">
<title>Node8&#45;&gt;Node9</title>
<path fill="none" stroke="midnightblue" d="M460.58,-168.47C507.89,-157.85 571.93,-143.47 615.23,-133.75"/>
<polygon fill="midnightblue" stroke="midnightblue" points="616.23,-137.11 625.23,-131.51 614.7,-130.28 616.23,-137.11"/>
</g>
<!-- Node9&#45;&gt;Node4 -->
<g id="edge15" class="edge">
<title>Node9&#45;&gt;Node4</title>
<path fill="none" stroke="midnightblue" d="M643.62,-112.44C623.47,-103.6 591.79,-89.69 568.78,-79.59"/>
<polygon fill="midnightblue" stroke="midnightblue" points="570.07,-76.33 559.51,-75.52 567.26,-82.74 570.07,-76.33"/>
</g>
<!-- Node9&#45;&gt;Node5 -->
<g id="edge16" class="edge">
<title>Node9&#45;&gt;Node5</title>
<path fill="none" stroke="midnightblue" d="M657.38,-112.37C645.34,-94.22 617.19,-51.8 601.39,-27.99"/>
<polygon fill="midnightblue" stroke="midnightblue" points="604.26,-25.99 595.81,-19.59 598.43,-29.86 604.26,-25.99"/>
</g>
<!-- Node9&#45;&gt;Node7 -->
<g id="edge14" class="edge">
<title>Node9&#45;&gt;Node7</title>
<path fill="none" stroke="midnightblue" d="M618.28,-114.96C536.05,-103.89 363.11,-80.6 292.81,-71.13"/>
<polygon fill="midnightblue" stroke="midnightblue" points="293.2,-67.65 282.82,-69.79 292.26,-74.59 293.2,-67.65"/>
</g>
<!-- Node10 -->
<g id="node10" class="node">
<title>Node10</title>
<g id="a_node10"><a xlink:href="Component_8hpp.html" target="_top" xlink:title=" ">
<polygon fill="none" stroke="black" points="656.11,-56.5 656.11,-75.5 740.11,-75.5 740.11,-56.5 656.11,-56.5"/>
<text text-anchor="middle" x="698.11" y="-63.5" font-family="Helvetica,sans-Serif" font-size="10.00">Component.hpp</text>
</a>
</g>
</g>
<!-- Node9&#45;&gt;Node10 -->
<g id="edge10" class="edge">
<title>Node9&#45;&gt;Node10</title>
<path fill="none" stroke="midnightblue" d="M668.89,-112.08C673.78,-104.53 680.94,-93.49 686.94,-84.23"/>
<polygon fill="midnightblue" stroke="midnightblue" points="689.94,-86.05 692.44,-75.75 684.06,-82.24 689.94,-86.05"/>
</g>
<!-- Node11 -->
<g id="node11" class="node">
<title>Node11</title>
<g id="a_node11"><a xlink:href="Transform_8hpp.html" target="_top" xlink:title=" ">
<polygon fill="none" stroke="black" points="796.61,-56.5 796.61,-75.5 875.61,-75.5 875.61,-56.5 796.61,-56.5"/>
<text text-anchor="middle" x="836.11" y="-63.5" font-family="Helvetica,sans-Serif" font-size="10.00">Transform.hpp</text>
</a>
</g>
</g>
<!-- Node9&#45;&gt;Node11 -->
<g id="edge12" class="edge">
<title>Node9&#45;&gt;Node11</title>
<path fill="none" stroke="midnightblue" d="M690.52,-112.44C719.88,-103.28 766.63,-88.69 799.21,-78.52"/>
<polygon fill="midnightblue" stroke="midnightblue" points="800.32,-81.84 808.83,-75.52 798.24,-75.16 800.32,-81.84"/>
</g>
<!-- Node10&#45;&gt;Node5 -->
<g id="edge11" class="edge">
<title>Node10&#45;&gt;Node5</title>
<path fill="none" stroke="midnightblue" d="M680.76,-56.32C663.44,-47.66 636.6,-34.24 616.61,-24.25"/>
<polygon fill="midnightblue" stroke="midnightblue" points="617.93,-21 607.42,-19.65 614.8,-27.26 617.93,-21"/>
</g>
<!-- Node12 -->
<g id="node12" class="node">
<title>Node12</title>
<g id="a_node12"><a xlink:href="Point_8hpp.html" target="_top" xlink:title=" ">
<polygon fill="none" stroke="black" points="807.61,-0.5 807.61,-19.5 864.61,-19.5 864.61,-0.5 807.61,-0.5"/>
<text text-anchor="middle" x="836.11" y="-7.5" font-family="Helvetica,sans-Serif" font-size="10.00">Point.hpp</text>
</a>
</g>
</g>
<!-- Node11&#45;&gt;Node12 -->
<g id="edge13" class="edge">
<title>Node11&#45;&gt;Node12</title>
<path fill="none" stroke="midnightblue" d="M836.11,-56.08C836.11,-49.01 836.11,-38.86 836.11,-29.99"/>
<polygon fill="midnightblue" stroke="midnightblue" points="839.61,-29.75 836.11,-19.75 832.61,-29.75 839.61,-29.75"/>
</g>
<!-- Node13&#45;&gt;Node5 -->
<g id="edge23" class="edge">
<title>Node13&#45;&gt;Node5</title>
<path fill="none" stroke="midnightblue" d="M85.68,-291.36C68.1,-269.85 38.11,-226.94 38.11,-184.5 38.11,-184.5 38.11,-184.5 38.11,-121 38.11,-15.36 431.9,-9.7 554.27,-10.49"/>
<polygon fill="midnightblue" stroke="midnightblue" points="554.56,-13.99 564.59,-10.58 554.62,-6.99 554.56,-13.99"/>
</g>
<!-- Node13&#45;&gt;Node7 -->
<g id="edge24" class="edge">
<title>Node13&#45;&gt;Node7</title>
<path fill="none" stroke="midnightblue" d="M94.94,-291.26C87.68,-254.42 74.42,-155.83 129.11,-112 159.09,-87.97 202.58,-76.47 231.58,-71.18"/>
<polygon fill="midnightblue" stroke="midnightblue" points="232.27,-74.61 241.55,-69.5 231.11,-67.71 232.27,-74.61"/>
</g>
<!-- Node14 -->
<g id="node14" class="node">
<title>Node14</title>
<g id="a_node14"><a xlink:href="Button_8hpp.html" target="_top" xlink:title=" ">
<polygon fill="none" stroke="black" points="104.61,-235.5 104.61,-254.5 167.61,-254.5 167.61,-235.5 104.61,-235.5"/>
<text text-anchor="middle" x="136.11" y="-242.5" font-family="Helvetica,sans-Serif" font-size="10.00">Button.hpp</text>
</a>
</g>
</g>
<!-- Node13&#45;&gt;Node14 -->
<g id="edge19" class="edge">
<title>Node13&#45;&gt;Node14</title>
<path fill="none" stroke="midnightblue" d="M107.12,-291.4C112.52,-282.93 119.44,-272.1 125.16,-263.14"/>
<polygon fill="midnightblue" stroke="midnightblue" points="128.15,-264.97 130.58,-254.66 122.25,-261.2 128.15,-264.97"/>
</g>
<!-- Node15 -->
<g id="node15" class="node">
<title>Node15</title>
<g id="a_node15"><a xlink:href="UIObject_8hpp.html" target="_top" xlink:title=" ">
<polygon fill="none" stroke="black" points="490.11,-174 490.11,-193 564.11,-193 564.11,-174 490.11,-174"/>
<text text-anchor="middle" x="527.11" y="-181" font-family="Helvetica,sans-Serif" font-size="10.00">UIObject.hpp</text>
</a>
</g>
</g>
<!-- Node14&#45;&gt;Node15 -->
<g id="edge20" class="edge">
<title>Node14&#45;&gt;Node15</title>
<path fill="none" stroke="midnightblue" d="M167.83,-241.74C229,-236.96 367.28,-224.16 481.11,-199 484.96,-198.15 488.94,-197.12 492.88,-196.01"/>
<polygon fill="midnightblue" stroke="midnightblue" points="493.92,-199.36 502.5,-193.13 491.92,-192.65 493.92,-199.36"/>
</g>
<!-- Node16 -->
<g id="node16" class="node">
<title>Node16</title>
<g id="a_node16"><a xlink:title=" ">
<polygon fill="none" stroke="#bfbfbf" points="104.61,-174 104.61,-193 163.61,-193 163.61,-174 104.61,-174"/>
<text text-anchor="middle" x="134.11" y="-181" font-family="Helvetica,sans-Serif" font-size="10.00">functional</text>
</a>
</g>
</g>
<!-- Node14&#45;&gt;Node16 -->
<g id="edge22" class="edge">
<title>Node14&#45;&gt;Node16</title>
<path fill="none" stroke="midnightblue" d="M135.82,-235.48C135.54,-227.08 135.1,-213.98 134.74,-203.16"/>
<polygon fill="midnightblue" stroke="midnightblue" points="138.23,-202.89 134.4,-193.01 131.23,-203.12 138.23,-202.89"/>
</g>
<!-- Node15&#45;&gt;Node9 -->
<g id="edge21" class="edge">
<title>Node15&#45;&gt;Node9</title>
<path fill="none" stroke="midnightblue" d="M546.6,-173.98C569.52,-163.95 607.8,-147.2 634.19,-135.65"/>
<polygon fill="midnightblue" stroke="midnightblue" points="635.9,-138.72 643.66,-131.51 633.1,-132.31 635.9,-138.72"/>
</g>
<!-- Node17&#45;&gt;Node5 -->
<g id="edge29" class="edge">
<title>Node17&#45;&gt;Node5</title>
<path fill="none" stroke="midnightblue" d="M720.57,-291.39C730.07,-281.94 741.78,-268.75 749.11,-255 764.38,-226.37 768.11,-216.95 768.11,-184.5 768.11,-184.5 768.11,-184.5 768.11,-121 768.11,-90.9 770.48,-77.19 749.11,-56 716.29,-23.46 661.81,-14.05 625.93,-11.55"/>
<polygon fill="midnightblue" stroke="midnightblue" points="626.07,-8.05 615.89,-11 625.68,-15.04 626.07,-8.05"/>
</g>
<!-- Node18 -->
<g id="node18" class="node">
<title>Node18</title>
<g id="a_node18"><a xlink:href="Camera_8hpp.html" target="_top" xlink:title=" ">
<polygon fill="none" stroke="black" points="672.11,-235.5 672.11,-254.5 740.11,-254.5 740.11,-235.5 672.11,-235.5"/>
<text text-anchor="middle" x="706.11" y="-242.5" font-family="Helvetica,sans-Serif" font-size="10.00">Camera.hpp</text>
</a>
</g>
</g>
<!-- Node17&#45;&gt;Node18 -->
<g id="edge26" class="edge">
<title>Node17&#45;&gt;Node18</title>
<path fill="none" stroke="midnightblue" d="M705.35,-291.4C705.48,-283.47 705.65,-273.46 705.79,-264.86"/>
<polygon fill="midnightblue" stroke="midnightblue" points="709.3,-264.72 705.97,-254.66 702.3,-264.6 709.3,-264.72"/>
</g>
<!-- Node18&#45;&gt;Node9 -->
<g id="edge27" class="edge">
<title>Node18&#45;&gt;Node9</title>
<path fill="none" stroke="midnightblue" d="M704.47,-235.38C701.62,-221.08 695.17,-191.71 686.11,-168 682.55,-158.68 677.61,-148.75 673.22,-140.61"/>
<polygon fill="midnightblue" stroke="midnightblue" points="676.19,-138.74 668.27,-131.71 670.08,-142.15 676.19,-138.74"/>
</g>
<!-- Node19 -->
<g id="node19" class="node">
<title>Node19</title>
<g id="a_node19"><a xlink:href="Color_8hpp.html" target="_top" xlink:title=" ">
<polygon fill="none" stroke="black" points="620.61,-174 620.61,-193 677.61,-193 677.61,-174 620.61,-174"/>
<text text-anchor="middle" x="649.11" y="-181" font-family="Helvetica,sans-Serif" font-size="10.00">Color.hpp</text>
</a>
</g>
</g>
<!-- Node18&#45;&gt;Node19 -->
<g id="edge28" class="edge">
<title>Node18&#45;&gt;Node19</title>
<path fill="none" stroke="midnightblue" d="M697.94,-235.48C689.22,-226.37 675.21,-211.74 664.42,-200.48"/>
<polygon fill="midnightblue" stroke="midnightblue" points="666.71,-197.81 657.26,-193.01 661.65,-202.65 666.71,-197.81"/>
</g>
<!-- Node21&#45;&gt;Node7 -->
<g id="edge32" class="edge">
<title>Node21&#45;&gt;Node7</title>
<path fill="none" stroke="midnightblue" d="M198.32,-112.32C209.89,-104.11 227.49,-91.6 241.27,-81.81"/>
<polygon fill="midnightblue" stroke="midnightblue" points="243.55,-84.48 249.68,-75.83 239.5,-78.77 243.55,-84.48"/>
</g>
<!-- Node22&#45;&gt;Node7 -->
<g id="edge36" class="edge">
<title>Node22&#45;&gt;Node7</title>
<path fill="none" stroke="midnightblue" d="M538.06,-235.47C550.04,-227.7 565.98,-215 573.11,-199 578.72,-186.41 580.64,-179.54 573.11,-168 551.35,-134.68 527.06,-149.09 491.11,-132 473.52,-123.64 470.39,-118.74 452.11,-112 397.6,-91.9 330.92,-78.55 292.79,-71.91"/>
<polygon fill="midnightblue" stroke="midnightblue" points="293.28,-68.44 282.83,-70.22 292.1,-75.35 293.28,-68.44"/>
</g>
<!-- Node22&#45;&gt;Node15 -->
<g id="edge34" class="edge">
<title>Node22&#45;&gt;Node15</title>
<path fill="none" stroke="midnightblue" d="M523.68,-235.48C524.25,-227.08 525.13,-213.98 525.86,-203.16"/>
<polygon fill="midnightblue" stroke="midnightblue" points="529.36,-203.22 526.54,-193.01 522.38,-202.75 529.36,-203.22"/>
</g>
<!-- Node22&#45;&gt;Node19 -->
<g id="edge35" class="edge">
<title>Node22&#45;&gt;Node19</title>
<path fill="none" stroke="midnightblue" d="M541.16,-235.48C562.31,-225.49 597.55,-208.85 621.99,-197.31"/>
<polygon fill="midnightblue" stroke="midnightblue" points="623.54,-200.44 631.09,-193.01 620.55,-194.11 623.54,-200.44"/>
</g>
<!-- Node23&#45;&gt;Node19 -->
<g id="edge38" class="edge">
<title>Node23&#45;&gt;Node19</title>
<path fill="none" stroke="midnightblue" d="M616.56,-235.48C622.2,-226.64 631.17,-212.59 638.27,-201.48"/>
<polygon fill="midnightblue" stroke="midnightblue" points="641.24,-203.32 643.68,-193.01 635.34,-199.55 641.24,-203.32"/>
</g>
</g>
</svg>
