<?xml version="1.0" encoding="UTF-8" standalone="no"?>
<!DOCTYPE svg PUBLIC "-//W3C//DTD SVG 1.1//EN"
 "http://www.w3.org/Graphics/SVG/1.1/DTD/svg11.dtd">
<!-- Generated by graphviz version 2.44.0 ()
 -->
<!-- Title: src/Scripts/Menu/PauseSceneBehaviour.hpp Pages: 1 -->
<svg width="157pt" height="263pt"
 viewBox="0.00 0.00 157.00 263.00" xmlns="http://www.w3.org/2000/svg" xmlns:xlink="http://www.w3.org/1999/xlink">
<g id="graph0" class="graph" transform="scale(1 1) rotate(0) translate(4 259)">
<title>src/Scripts/Menu/PauseSceneBehaviour.hpp</title>
<!-- Node1 -->
<g id="node1" class="node">
<title>Node1</title>
<g id="a_node1"><a xlink:title=" ">
<polygon fill="#bfbfbf" stroke="black" points="0,-224.5 0,-254.5 149,-254.5 149,-224.5 0,-224.5"/>
<text text-anchor="start" x="8" y="-242.5" font-family="Helvetica,sans-Serif" font-size="10.00">src/Scripts/Menu/PauseScene</text>
<text text-anchor="middle" x="74.5" y="-231.5" font-family="Helvetica,sans-Serif" font-size="10.00">Behaviour.hpp</text>
</a>
</g>
</g>
<!-- Node2 -->
<g id="node2" class="node">
<title>Node2</title>
<g id="a_node2"><a xlink:href="BehaviourScript_8hpp.html" target="_top" xlink:title=" ">
<polygon fill="none" stroke="black" points="22.5,-168.5 22.5,-187.5 126.5,-187.5 126.5,-168.5 22.5,-168.5"/>
<text text-anchor="middle" x="74.5" y="-175.5" font-family="Helvetica,sans-Serif" font-size="10.00">BehaviourScript.hpp</text>
</a>
</g>
</g>
<!-- Node1&#45;&gt;Node2 -->
<g id="edge1" class="edge">
<title>Node1&#45;&gt;Node2</title>
<path fill="none" stroke="midnightblue" d="M74.5,-224.4C74.5,-216.47 74.5,-206.46 74.5,-197.86"/>
<polygon fill="midnightblue" stroke="midnightblue" points="78,-197.66 74.5,-187.66 71,-197.66 78,-197.66"/>
</g>
<!-- Node3 -->
<g id="node3" class="node">
<title>Node3</title>
<g id="a_node3"><a xlink:href="Component_8hpp.html" target="_top" xlink:title=" ">
<polygon fill="none" stroke="black" points="32.5,-56.5 32.5,-75.5 116.5,-75.5 116.5,-56.5 32.5,-56.5"/>
<text text-anchor="middle" x="74.5" y="-63.5" font-family="Helvetica,sans-Serif" font-size="10.00">Component.hpp</text>
</a>
</g>
</g>
<!-- Node2&#45;&gt;Node3 -->
<g id="edge2" class="edge">
<title>Node2&#45;&gt;Node3</title>
<path fill="none" stroke="midnightblue" d="M71.41,-168.17C68.45,-159.2 64.18,-144.83 62.5,-132 60.43,-116.18 64.15,-98.36 67.98,-85.39"/>
<polygon fill="midnightblue" stroke="midnightblue" points="71.34,-86.38 71.1,-75.79 64.68,-84.22 71.34,-86.38"/>
</g>
<!-- Node5 -->
<g id="node5" class="node">
<title>Node5</title>
<g id="a_node5"><a xlink:href="Collider_8hpp.html" target="_top" xlink:title=" ">
<polygon fill="none" stroke="black" points="72,-112.5 72,-131.5 139,-131.5 139,-112.5 72,-112.5"/>
<text text-anchor="middle" x="105.5" y="-119.5" font-family="Helvetica,sans-Serif" font-size="10.00">Collider.hpp</text>
</a>
</g>
</g>
<!-- Node2&#45;&gt;Node5 -->
<g id="edge4" class="edge">
<title>Node2&#45;&gt;Node5</title>
<path fill="none" stroke="midnightblue" d="M79.62,-168.08C83.91,-160.61 90.16,-149.72 95.44,-140.52"/>
<polygon fill="midnightblue" stroke="midnightblue" points="98.53,-142.17 100.48,-131.75 92.46,-138.68 98.53,-142.17"/>
</g>
<!-- Node4 -->
<g id="node4" class="node">
<title>Node4</title>
<g id="a_node4"><a xlink:title=" ">
<polygon fill="none" stroke="#bfbfbf" points="49,-0.5 49,-19.5 100,-19.5 100,-0.5 49,-0.5"/>
<text text-anchor="middle" x="74.5" y="-7.5" font-family="Helvetica,sans-Serif" font-size="10.00">memory</text>
</a>
</g>
</g>
<!-- Node3&#45;&gt;Node4 -->
<g id="edge3" class="edge">
<title>Node3&#45;&gt;Node4</title>
<path fill="none" stroke="midnightblue" d="M74.5,-56.08C74.5,-49.01 74.5,-38.86 74.5,-29.99"/>
<polygon fill="midnightblue" stroke="midnightblue" points="78,-29.75 74.5,-19.75 71,-29.75 78,-29.75"/>
</g>
<!-- Node5&#45;&gt;Node3 -->
<g id="edge5" class="edge">
<title>Node5&#45;&gt;Node3</title>
<path fill="none" stroke="midnightblue" d="M100.38,-112.08C96.09,-104.61 89.84,-93.72 84.56,-84.52"/>
<polygon fill="midnightblue" stroke="midnightblue" points="87.54,-82.68 79.52,-75.75 81.47,-86.17 87.54,-82.68"/>
</g>
</g>
</svg>
