<?xml version="1.0" encoding="UTF-8" standalone="no"?>
<!DOCTYPE svg PUBLIC "-//W3C//DTD SVG 1.1//EN"
 "http://www.w3.org/Graphics/SVG/1.1/DTD/svg11.dtd">
<!-- Generated by graphviz version 2.44.0 ()
 -->
<!-- Title: src/Structs/PlayerData.hpp Pages: 1 -->
<svg width="1079pt" height="162pt"
 viewBox="0.00 0.00 1079.00 162.00" xmlns="http://www.w3.org/2000/svg" xmlns:xlink="http://www.w3.org/1999/xlink">
<g id="graph0" class="graph" transform="scale(1 1) rotate(0) translate(4 158)">
<title>src/Structs/PlayerData.hpp</title>
<!-- Node1 -->
<g id="node1" class="node">
<title>Node1</title>
<g id="a_node1"><a xlink:title=" ">
<polygon fill="#bfbfbf" stroke="black" points="428,-134.5 428,-153.5 561,-153.5 561,-134.5 428,-134.5"/>
<text text-anchor="middle" x="494.5" y="-141.5" font-family="Helvetica,sans-Serif" font-size="10.00">src/Structs/PlayerData.hpp</text>
</a>
</g>
</g>
<!-- Node2 -->
<g id="node2" class="node">
<title>Node2</title>
<g id="a_node2"><a xlink:href="LevelSelectionController_8cpp.html" target="_top" xlink:title=" ">
<polygon fill="none" stroke="black" points="77,-67.5 77,-97.5 224,-97.5 224,-67.5 77,-67.5"/>
<text text-anchor="start" x="85" y="-85.5" font-family="Helvetica,sans-Serif" font-size="10.00">src/Controllers/LevelSelection</text>
<text text-anchor="middle" x="150.5" y="-74.5" font-family="Helvetica,sans-Serif" font-size="10.00">Controller.cpp</text>
</a>
</g>
</g>
<!-- Node1&#45;&gt;Node2 -->
<g id="edge1" class="edge">
<title>Node1&#45;&gt;Node2</title>
<path fill="none" stroke="midnightblue" d="M434.33,-132.75C381.22,-123.69 301.7,-110.06 232.5,-98 229.79,-97.53 227.04,-97.05 224.25,-96.56"/>
<polygon fill="midnightblue" stroke="midnightblue" points="433.81,-136.21 444.26,-134.45 434.99,-129.31 433.81,-136.21"/>
</g>
<!-- Node3 -->
<g id="node3" class="node">
<title>Node3</title>
<g id="a_node3"><a xlink:href="SaveGameManager_8hpp.html" target="_top" xlink:title=" ">
<polygon fill="none" stroke="black" points="242,-67.5 242,-97.5 379,-97.5 379,-67.5 242,-67.5"/>
<text text-anchor="start" x="250" y="-85.5" font-family="Helvetica,sans-Serif" font-size="10.00">src/Persistence/SaveGame</text>
<text text-anchor="middle" x="310.5" y="-74.5" font-family="Helvetica,sans-Serif" font-size="10.00">Manager.hpp</text>
</a>
</g>
</g>
<!-- Node1&#45;&gt;Node3 -->
<g id="edge2" class="edge">
<title>Node1&#45;&gt;Node3</title>
<path fill="none" stroke="midnightblue" d="M458.49,-131.36C428.51,-121.66 385.73,-107.83 353.87,-97.52"/>
<polygon fill="midnightblue" stroke="midnightblue" points="457.55,-134.73 468.14,-134.48 459.7,-128.07 457.55,-134.73"/>
</g>
<!-- Node6 -->
<g id="node6" class="node">
<title>Node6</title>
<g id="a_node6"><a xlink:href="CheatManager_8cpp.html" target="_top" xlink:title=" ">
<polygon fill="none" stroke="black" points="305.5,-0.5 305.5,-30.5 411.5,-30.5 411.5,-0.5 305.5,-0.5"/>
<text text-anchor="start" x="313.5" y="-18.5" font-family="Helvetica,sans-Serif" font-size="10.00">src/Scripts/Common</text>
<text text-anchor="middle" x="358.5" y="-7.5" font-family="Helvetica,sans-Serif" font-size="10.00">/CheatManager.cpp</text>
</a>
</g>
</g>
<!-- Node1&#45;&gt;Node6 -->
<g id="edge10" class="edge">
<title>Node1&#45;&gt;Node6</title>
<path fill="none" stroke="midnightblue" d="M477.76,-127.43C451.19,-102.71 399.72,-54.84 373.97,-30.89"/>
<polygon fill="midnightblue" stroke="midnightblue" points="475.45,-130.06 485.15,-134.31 480.21,-124.93 475.45,-130.06"/>
</g>
<!-- Node7 -->
<g id="node7" class="node">
<title>Node7</title>
<g id="a_node7"><a xlink:href="GameWonBehaviour_8cpp.html" target="_top" xlink:title=" ">
<polygon fill="none" stroke="black" points="430,-0.5 430,-30.5 557,-30.5 557,-0.5 430,-0.5"/>
<text text-anchor="start" x="438" y="-18.5" font-family="Helvetica,sans-Serif" font-size="10.00">src/Scripts/Common</text>
<text text-anchor="middle" x="493.5" y="-7.5" font-family="Helvetica,sans-Serif" font-size="10.00">/GameWonBehaviour.cpp</text>
</a>
</g>
</g>
<!-- Node1&#45;&gt;Node7 -->
<g id="edge11" class="edge">
<title>Node1&#45;&gt;Node7</title>
<path fill="none" stroke="midnightblue" d="M480.51,-126.37C474.65,-118.34 468.51,-108.24 465.5,-98 461.61,-84.78 462.05,-80.34 465.5,-67 468.91,-53.8 476.6,-40.37 483.06,-30.69"/>
<polygon fill="midnightblue" stroke="midnightblue" points="477.91,-128.73 486.83,-134.46 483.43,-124.42 477.91,-128.73"/>
</g>
<!-- Node8 -->
<g id="node8" class="node">
<title>Node8</title>
<g id="a_node8"><a xlink:href="LevelScene_8cpp.html" target="_top" xlink:title=" ">
<polygon fill="none" stroke="black" points="474,-73 474,-92 613,-92 613,-73 474,-73"/>
<text text-anchor="middle" x="543.5" y="-80" font-family="Helvetica,sans-Serif" font-size="10.00">src/Scenes/LevelScene.cpp</text>
</a>
</g>
</g>
<!-- Node1&#45;&gt;Node8 -->
<g id="edge7" class="edge">
<title>Node1&#45;&gt;Node8</title>
<path fill="none" stroke="midnightblue" d="M507.95,-126.67C517.19,-115.45 529.07,-101.02 536.49,-92.01"/>
<polygon fill="midnightblue" stroke="midnightblue" points="505.18,-124.53 501.52,-134.48 510.58,-128.98 505.18,-124.53"/>
</g>
<!-- Node9 -->
<g id="node9" class="node">
<title>Node9</title>
<g id="a_node9"><a xlink:href="LevelSelectionScene_8cpp.html" target="_top" xlink:title=" ">
<polygon fill="none" stroke="black" points="631.5,-67.5 631.5,-97.5 765.5,-97.5 765.5,-67.5 631.5,-67.5"/>
<text text-anchor="start" x="639.5" y="-85.5" font-family="Helvetica,sans-Serif" font-size="10.00">src/Scenes/LevelSelection</text>
<text text-anchor="middle" x="698.5" y="-74.5" font-family="Helvetica,sans-Serif" font-size="10.00">Scene.cpp</text>
</a>
</g>
</g>
<!-- Node1&#45;&gt;Node9 -->
<g id="edge8" class="edge">
<title>Node1&#45;&gt;Node9</title>
<path fill="none" stroke="midnightblue" d="M533.55,-131.61C566.83,-121.9 614.79,-107.92 650.42,-97.52"/>
<polygon fill="midnightblue" stroke="midnightblue" points="532.35,-128.32 523.73,-134.48 534.31,-135.04 532.35,-128.32"/>
</g>
<!-- Node10 -->
<g id="node10" class="node">
<title>Node10</title>
<g id="a_node10"><a xlink:href="MainScene_8cpp.html" target="_top" xlink:title=" ">
<polygon fill="none" stroke="black" points="783.5,-73 783.5,-92 919.5,-92 919.5,-73 783.5,-73"/>
<text text-anchor="middle" x="851.5" y="-80" font-family="Helvetica,sans-Serif" font-size="10.00">src/Scenes/MainScene.cpp</text>
</a>
</g>
</g>
<!-- Node1&#45;&gt;Node10 -->
<g id="edge9" class="edge">
<title>Node1&#45;&gt;Node10</title>
<path fill="none" stroke="midnightblue" d="M560.28,-132.94C617.08,-124.13 701.29,-110.77 774.5,-98 785.09,-96.15 796.47,-94.06 807.15,-92.06"/>
<polygon fill="midnightblue" stroke="midnightblue" points="559.7,-129.49 550.35,-134.47 560.77,-136.4 559.7,-129.49"/>
</g>
<!-- Node11 -->
<g id="node11" class="node">
<title>Node11</title>
<g id="a_node11"><a xlink:href="PlayerData_8cpp.html" target="_top" xlink:title=" ">
<polygon fill="none" stroke="black" points="938,-73 938,-92 1071,-92 1071,-73 938,-73"/>
<text text-anchor="middle" x="1004.5" y="-80" font-family="Helvetica,sans-Serif" font-size="10.00">src/Structs/PlayerData.cpp</text>
</a>
</g>
</g>
<!-- Node1&#45;&gt;Node11 -->
<g id="edge12" class="edge">
<title>Node1&#45;&gt;Node11</title>
<path fill="none" stroke="midnightblue" d="M571.31,-137.03C658.24,-129.8 803.96,-116.3 928.5,-98 939.8,-96.34 951.97,-94.18 963.19,-92.04"/>
<polygon fill="midnightblue" stroke="midnightblue" points="570.94,-133.55 561.26,-137.86 571.52,-140.52 570.94,-133.55"/>
</g>
<!-- Node4 -->
<g id="node4" class="node">
<title>Node4</title>
<g id="a_node4"><a xlink:href="SaveGameManager_8cpp.html" target="_top" xlink:title=" ">
<polygon fill="none" stroke="black" points="0,-0.5 0,-30.5 137,-30.5 137,-0.5 0,-0.5"/>
<text text-anchor="start" x="8" y="-18.5" font-family="Helvetica,sans-Serif" font-size="10.00">src/Persistence/SaveGame</text>
<text text-anchor="middle" x="68.5" y="-7.5" font-family="Helvetica,sans-Serif" font-size="10.00">Manager.cpp</text>
</a>
</g>
</g>
<!-- Node3&#45;&gt;Node4 -->
<g id="edge3" class="edge">
<title>Node3&#45;&gt;Node4</title>
<path fill="none" stroke="midnightblue" d="M248.51,-64.85C209.05,-54.25 158.51,-40.68 121.04,-30.61"/>
<polygon fill="midnightblue" stroke="midnightblue" points="247.72,-68.26 258.29,-67.48 249.54,-61.5 247.72,-68.26"/>
</g>
<!-- Node5 -->
<g id="node5" class="node">
<title>Node5</title>
<g id="a_node5"><a xlink:href="SaveSelectionScene_8cpp.html" target="_top" xlink:title=" ">
<polygon fill="none" stroke="black" points="155.5,-0.5 155.5,-30.5 287.5,-30.5 287.5,-0.5 155.5,-0.5"/>
<text text-anchor="start" x="163.5" y="-18.5" font-family="Helvetica,sans-Serif" font-size="10.00">src/Scenes/SaveSelection</text>
<text text-anchor="middle" x="221.5" y="-7.5" font-family="Helvetica,sans-Serif" font-size="10.00">Scene.cpp</text>
</a>
</g>
</g>
<!-- Node3&#45;&gt;Node5 -->
<g id="edge4" class="edge">
<title>Node3&#45;&gt;Node5</title>
<path fill="none" stroke="midnightblue" d="M283.05,-61.45C269.36,-51.45 253.13,-39.6 240.77,-30.58"/>
<polygon fill="midnightblue" stroke="midnightblue" points="281.05,-64.32 291.19,-67.4 285.18,-58.67 281.05,-64.32"/>
</g>
<!-- Node3&#45;&gt;Node6 -->
<g id="edge5" class="edge">
<title>Node3&#45;&gt;Node6</title>
<path fill="none" stroke="midnightblue" d="M327,-59.16C334,-49.68 341.94,-38.92 348.11,-30.58"/>
<polygon fill="midnightblue" stroke="midnightblue" points="324.04,-57.27 320.92,-67.4 329.67,-61.43 324.04,-57.27"/>
</g>
<!-- Node3&#45;&gt;Node7 -->
<g id="edge6" class="edge">
<title>Node3&#45;&gt;Node7</title>
<path fill="none" stroke="midnightblue" d="M359.9,-63.96C389.37,-53.48 426.31,-40.37 453.87,-30.58"/>
<polygon fill="midnightblue" stroke="midnightblue" points="358.46,-60.75 350.21,-67.4 360.8,-67.35 358.46,-60.75"/>
</g>
</g>
</svg>
