<?xml version="1.0" encoding="UTF-8" standalone="no"?>
<!DOCTYPE svg PUBLIC "-//W3C//DTD SVG 1.1//EN"
 "http://www.w3.org/Graphics/SVG/1.1/DTD/svg11.dtd">
<!-- Generated by graphviz version 2.44.0 ()
 -->
<!-- Title: libs/spic&#45;engine/src/Subsystems/RenderSubsystem.cpp Pages: 1 -->
<!--zoomable 431 -->
<svg id="main" version="1.1" xmlns="http://www.w3.org/2000/svg" xmlns:xlink="http://www.w3.org/1999/xlink" xml:space="preserve" onload="init(evt)">
<style type="text/css"><![CDATA[
.edge:hover path { stroke: red; }
.edge:hover polygon { stroke: red; fill: red; }
]]></style>
<script type="text/javascript"><![CDATA[
var edges = document.getElementsByTagName('g');
if (edges && edges.length) {
  for (var i=0;i<edges.length;i++) {
    if (edges[i].id.substr(0,4)=='edge') {
      edges[i].setAttribute('class','edge');
    }
  }
}
]]></script>
        <defs>
                <circle id="rim" cx="0" cy="0" r="7"/>
                <circle id="rim2" cx="0" cy="0" r="3.5"/>
                <g id="zoomPlus">
                        <use xlink:href="#rim" fill="#404040">
                                <set attributeName="fill" to="#808080" begin="zoomplus.mouseover" end="zoomplus.mouseout"/>
                        </use>
                        <path d="M-4,0h8M0,-4v8" fill="none" stroke="white" stroke-width="1.5" pointer-events="none"/>
                </g>
                <g id="zoomMin">
                        <use xlink:href="#rim" fill="#404040">
                                <set attributeName="fill" to="#808080" begin="zoomminus.mouseover" end="zoomminus.mouseout"/>
                        </use>
                        <path d="M-4,0h8" fill="none" stroke="white" stroke-width="1.5" pointer-events="none"/>
                </g>
                <g id="dirArrow">
                        <path fill="none" stroke="white" stroke-width="1.5" d="M0,-3.0v7 M-2.5,-0.5L0,-3.0L2.5,-0.5"/>
                </g>
               <g id="resetDef">
                       <use xlink:href="#rim2" fill="#404040">
                               <set attributeName="fill" to="#808080" begin="reset.mouseover" end="reset.mouseout"/>
                       </use>
               </g>
        </defs>

<script type="text/javascript">
var viewWidth = 1209;
var viewHeight = 431;
var sectionId = 'dynsection-0';
</script>
<script xlink:href="svgpan.js"/>
<svg id="graph" class="graph">
<g id="viewport">
<title>libs/spic&#45;engine/src/Subsystems/RenderSubsystem.cpp</title>
<!-- Node1 -->
<g id="node1" class="node">
<title>Node1</title>
<g id="a_node1"><a xlink:title=" ">
<polygon fill="#bfbfbf" stroke="black" points="816.5,-392.5 816.5,-422.5 990.5,-422.5 990.5,-392.5 816.5,-392.5"/>
<text text-anchor="start" x="824.5" y="-410.5" font-family="Helvetica,sans-Serif" font-size="10.00">libs/spic&#45;engine/src</text>
<text text-anchor="middle" x="903.5" y="-399.5" font-family="Helvetica,sans-Serif" font-size="10.00">/Subsystems/RenderSubsystem.cpp</text>
</a>
</g>
</g>
<!-- Node2 -->
<g id="node2" class="node">
<title>Node2</title>
<g id="a_node2"><a xlink:href="RenderSubsystem_8hpp.html" target="_top" xlink:title=" ">
<polygon fill="none" stroke="black" points="450.5,-336.5 450.5,-355.5 564.5,-355.5 564.5,-336.5 450.5,-336.5"/>
<text text-anchor="middle" x="507.5" y="-343.5" font-family="Helvetica,sans-Serif" font-size="10.00">RenderSubsystem.hpp</text>
</a>
</g>
</g>
<!-- Node1&#45;&gt;Node2 -->
<g id="edge1" class="edge">
<title>Node1&#45;&gt;Node2</title>
<path fill="none" stroke="midnightblue" d="M816.11,-393.37C743.1,-382.4 640.54,-366.99 574.06,-357"/>
<polygon fill="midnightblue" stroke="midnightblue" points="574.52,-353.53 564.11,-355.51 573.48,-360.45 574.52,-353.53"/>
</g>
<!-- Node6 -->
<g id="node6" class="node">
<title>Node6</title>
<g id="a_node6"><a xlink:href="Text_8hpp.html" target="_top" xlink:title=" ">
<polygon fill="none" stroke="black" points="649,-224.5 649,-243.5 702,-243.5 702,-224.5 649,-224.5"/>
<text text-anchor="middle" x="675.5" y="-231.5" font-family="Helvetica,sans-Serif" font-size="10.00">Text.hpp</text>
</a>
</g>
</g>
<!-- Node1&#45;&gt;Node6 -->
<g id="edge51" class="edge">
<title>Node1&#45;&gt;Node6</title>
<path fill="none" stroke="midnightblue" d="M884.84,-392.47C842.26,-360.43 738.24,-282.19 694.93,-249.61"/>
<polygon fill="midnightblue" stroke="midnightblue" points="696.98,-246.77 686.88,-243.56 692.77,-252.37 696.98,-246.77"/>
</g>
<!-- Node8 -->
<g id="node8" class="node">
<title>Node8</title>
<g id="a_node8"><a xlink:href="GameObject_8hpp.html" target="_top" xlink:title=" ">
<polygon fill="none" stroke="black" points="804,-112.5 804,-131.5 893,-131.5 893,-112.5 804,-112.5"/>
<text text-anchor="middle" x="848.5" y="-119.5" font-family="Helvetica,sans-Serif" font-size="10.00">GameObject.hpp</text>
</a>
</g>
</g>
<!-- Node1&#45;&gt;Node8 -->
<g id="edge46" class="edge">
<title>Node1&#45;&gt;Node8</title>
<path fill="none" stroke="midnightblue" d="M935.39,-392.41C970.64,-374.41 1022.5,-339.66 1022.5,-291 1022.5,-291 1022.5,-291 1022.5,-233 1022.5,-175.71 954.27,-147.03 903.26,-133.6"/>
<polygon fill="midnightblue" stroke="midnightblue" points="903.86,-130.15 893.31,-131.12 902.16,-136.94 903.86,-130.15"/>
</g>
<!-- Node18 -->
<g id="node18" class="node">
<title>Node18</title>
<g id="a_node18"><a xlink:title=" ">
<polygon fill="none" stroke="#bfbfbf" points="166,-112.5 166,-131.5 201,-131.5 201,-112.5 166,-112.5"/>
<text text-anchor="middle" x="183.5" y="-119.5" font-family="Helvetica,sans-Serif" font-size="10.00">map</text>
</a>
</g>
</g>
<!-- Node1&#45;&gt;Node18 -->
<g id="edge57" class="edge">
<title>Node1&#45;&gt;Node18</title>
<path fill="none" stroke="midnightblue" d="M816.17,-401.68C622.4,-389.82 173.5,-355.4 173.5,-291 173.5,-291 173.5,-291 173.5,-233 173.5,-200.82 177.8,-163.55 180.76,-141.7"/>
<polygon fill="midnightblue" stroke="midnightblue" points="184.26,-141.92 182.19,-131.53 177.33,-140.95 184.26,-141.92"/>
</g>
<!-- Node23 -->
<g id="node23" class="node">
<title>Node23</title>
<g id="a_node23"><a xlink:href="Camera_8hpp.html" target="_top" xlink:title=" ">
<polygon fill="none" stroke="black" points="888.5,-168.5 888.5,-187.5 956.5,-187.5 956.5,-168.5 888.5,-168.5"/>
<text text-anchor="middle" x="922.5" y="-175.5" font-family="Helvetica,sans-Serif" font-size="10.00">Camera.hpp</text>
</a>
</g>
</g>
<!-- Node1&#45;&gt;Node23 -->
<g id="edge36" class="edge">
<title>Node1&#45;&gt;Node23</title>
<path fill="none" stroke="midnightblue" d="M904.69,-392.27C907.98,-352.89 917.2,-242.49 920.92,-197.97"/>
<polygon fill="midnightblue" stroke="midnightblue" points="924.41,-198.18 921.75,-187.93 917.43,-197.6 924.41,-198.18"/>
</g>
<!-- Node24 -->
<g id="node24" class="node">
<title>Node24</title>
<g id="a_node24"><a xlink:href="Engine_8hpp.html" target="_top" xlink:title=" ">
<polygon fill="none" stroke="black" points="830.5,-224.5 830.5,-243.5 894.5,-243.5 894.5,-224.5 830.5,-224.5"/>
<text text-anchor="middle" x="862.5" y="-231.5" font-family="Helvetica,sans-Serif" font-size="10.00">Engine.hpp</text>
</a>
</g>
</g>
<!-- Node1&#45;&gt;Node24 -->
<g id="edge39" class="edge">
<title>Node1&#45;&gt;Node24</title>
<path fill="none" stroke="midnightblue" d="M900.14,-392.47C892.79,-361.7 875.25,-288.33 866.97,-253.7"/>
<polygon fill="midnightblue" stroke="midnightblue" points="870.28,-252.47 864.55,-243.56 863.47,-254.1 870.28,-252.47"/>
</g>
<!-- Node28 -->
<g id="node28" class="node">
<title>Node28</title>
<g id="a_node28"><a xlink:href="Sprite_8hpp.html" target="_top" xlink:title=" ">
<polygon fill="none" stroke="black" points="456.5,-168.5 456.5,-187.5 516.5,-187.5 516.5,-168.5 456.5,-168.5"/>
<text text-anchor="middle" x="486.5" y="-175.5" font-family="Helvetica,sans-Serif" font-size="10.00">Sprite.hpp</text>
</a>
</g>
</g>
<!-- Node1&#45;&gt;Node28 -->
<g id="edge47" class="edge">
<title>Node1&#45;&gt;Node28</title>
<path fill="none" stroke="midnightblue" d="M877.43,-392.37C858.78,-382.25 833.09,-368.3 810.5,-356 698.72,-295.12 565.4,-222.19 511.22,-192.53"/>
<polygon fill="midnightblue" stroke="midnightblue" points="512.79,-189.4 502.34,-187.67 509.43,-195.54 512.79,-189.4"/>
</g>
<!-- Node29 -->
<g id="node29" class="node">
<title>Node29</title>
<g id="a_node29"><a xlink:href="DebugLines_8hpp.html" target="_top" xlink:title=" ">
<polygon fill="none" stroke="black" points="1050.5,-168.5 1050.5,-187.5 1178.5,-187.5 1178.5,-168.5 1050.5,-168.5"/>
<text text-anchor="middle" x="1114.5" y="-175.5" font-family="Helvetica,sans-Serif" font-size="10.00">../Structs/DebugLines.hpp</text>
</a>
</g>
</g>
<!-- Node1&#45;&gt;Node29 -->
<g id="edge52" class="edge">
<title>Node1&#45;&gt;Node29</title>
<path fill="none" stroke="midnightblue" d="M970.15,-392.49C993.4,-384.88 1018.23,-373.34 1036.5,-356 1083.53,-311.36 1103.99,-233.36 1111.21,-197.72"/>
<polygon fill="midnightblue" stroke="midnightblue" points="1114.67,-198.21 1113.1,-187.73 1107.8,-196.91 1114.67,-198.21"/>
</g>
<!-- Node30 -->
<g id="node30" class="node">
<title>Node30</title>
<g id="a_node30"><a xlink:title=" ">
<polygon fill="none" stroke="#bfbfbf" points="1088.5,-336.5 1088.5,-355.5 1144.5,-355.5 1144.5,-336.5 1088.5,-336.5"/>
<text text-anchor="middle" x="1116.5" y="-343.5" font-family="Helvetica,sans-Serif" font-size="10.00">algorithm</text>
</a>
</g>
</g>
<!-- Node1&#45;&gt;Node30 -->
<g id="edge56" class="edge">
<title>Node1&#45;&gt;Node30</title>
<path fill="none" stroke="midnightblue" d="M953.71,-392.47C991.99,-381.78 1043.9,-367.28 1078.71,-357.56"/>
<polygon fill="midnightblue" stroke="midnightblue" points="1079.8,-360.89 1088.49,-354.82 1077.92,-354.14 1079.8,-360.89"/>
</g>
<!-- Node31 -->
<g id="node31" class="node">
<title>Node31</title>
<g id="a_node31"><a xlink:title=" ">
<polygon fill="none" stroke="#bfbfbf" points="1162.5,-336.5 1162.5,-355.5 1200.5,-355.5 1200.5,-336.5 1162.5,-336.5"/>
<text text-anchor="middle" x="1181.5" y="-343.5" font-family="Helvetica,sans-Serif" font-size="10.00">tuple</text>
</a>
</g>
</g>
<!-- Node1&#45;&gt;Node31 -->
<g id="edge58" class="edge">
<title>Node1&#45;&gt;Node31</title>
<path fill="none" stroke="midnightblue" d="M984.81,-392.45C1031.46,-383.83 1091.26,-371.85 1152.47,-356.05"/>
<polygon fill="midnightblue" stroke="midnightblue" points="1153.51,-359.4 1162.3,-353.48 1151.74,-352.62 1153.51,-359.4"/>
</g>
<!-- Node3 -->
<g id="node3" class="node">
<title>Node3</title>
<g id="a_node3"><a xlink:href="ISubsystem_8hpp.html" target="_top" xlink:title=" ">
<polygon fill="none" stroke="black" points="347.5,-280.5 347.5,-299.5 433.5,-299.5 433.5,-280.5 347.5,-280.5"/>
<text text-anchor="middle" x="390.5" y="-287.5" font-family="Helvetica,sans-Serif" font-size="10.00">ISubsystem.hpp</text>
</a>
</g>
</g>
<!-- Node2&#45;&gt;Node3 -->
<g id="edge2" class="edge">
<title>Node2&#45;&gt;Node3</title>
<path fill="none" stroke="midnightblue" d="M488.96,-336.44C469.88,-327.64 439.93,-313.81 418.06,-303.72"/>
<polygon fill="midnightblue" stroke="midnightblue" points="419.5,-300.53 408.95,-299.52 416.57,-306.88 419.5,-300.53"/>
</g>
<!-- Node4 -->
<g id="node4" class="node">
<title>Node4</title>
<g id="a_node4"><a xlink:href="Window_8hpp.html" target="_top" xlink:title=" ">
<polygon fill="none" stroke="black" points="452,-280.5 452,-299.5 563,-299.5 563,-280.5 452,-280.5"/>
<text text-anchor="middle" x="507.5" y="-287.5" font-family="Helvetica,sans-Serif" font-size="10.00">../Models/Window.hpp</text>
</a>
</g>
</g>
<!-- Node2&#45;&gt;Node4 -->
<g id="edge3" class="edge">
<title>Node2&#45;&gt;Node4</title>
<path fill="none" stroke="midnightblue" d="M507.5,-336.08C507.5,-329.01 507.5,-318.86 507.5,-309.99"/>
<polygon fill="midnightblue" stroke="midnightblue" points="511,-309.75 507.5,-299.75 504,-309.75 511,-309.75"/>
</g>
<!-- Node5 -->
<g id="node5" class="node">
<title>Node5</title>
<g id="a_node5"><a xlink:href="Color_8hpp.html" target="_top" xlink:title=" ">
<polygon fill="none" stroke="black" points="576,-112.5 576,-131.5 633,-131.5 633,-112.5 576,-112.5"/>
<text text-anchor="middle" x="604.5" y="-119.5" font-family="Helvetica,sans-Serif" font-size="10.00">Color.hpp</text>
</a>
</g>
</g>
<!-- Node4&#45;&gt;Node5 -->
<g id="edge4" class="edge">
<title>Node4&#45;&gt;Node5</title>
<path fill="none" stroke="midnightblue" d="M520.41,-280.38C531.8,-272.2 548.15,-258.95 558.5,-244 581.02,-211.47 594.32,-166.46 600.43,-141.52"/>
<polygon fill="midnightblue" stroke="midnightblue" points="603.88,-142.12 602.74,-131.59 597.07,-140.54 603.88,-142.12"/>
</g>
<!-- Node4&#45;&gt;Node6 -->
<g id="edge5" class="edge">
<title>Node4&#45;&gt;Node6</title>
<path fill="none" stroke="midnightblue" d="M534.12,-280.44C562.51,-271.32 607.64,-256.81 639.25,-246.65"/>
<polygon fill="midnightblue" stroke="midnightblue" points="640.56,-249.91 649,-243.52 638.41,-243.24 640.56,-249.91"/>
</g>
<!-- Node11 -->
<g id="node11" class="node">
<title>Node11</title>
<g id="a_node11"><a xlink:href="Transform_8hpp.html" target="_top" xlink:title=" ">
<polygon fill="none" stroke="black" points="741,-56.5 741,-75.5 820,-75.5 820,-56.5 741,-56.5"/>
<text text-anchor="middle" x="780.5" y="-63.5" font-family="Helvetica,sans-Serif" font-size="10.00">Transform.hpp</text>
</a>
</g>
</g>
<!-- Node4&#45;&gt;Node11 -->
<g id="edge17" class="edge">
<title>Node4&#45;&gt;Node11</title>
<path fill="none" stroke="midnightblue" d="M511.16,-280.45C514.95,-271.45 520.94,-256.85 525.5,-244 546.03,-186.1 521.07,-153.35 566.5,-112 590.16,-90.47 675.39,-77.78 730.89,-71.63"/>
<polygon fill="midnightblue" stroke="midnightblue" points="731.32,-75.1 740.89,-70.56 730.57,-68.14 731.32,-75.1"/>
</g>
<!-- Node15 -->
<g id="node15" class="node">
<title>Node15</title>
<g id="a_node15"><a xlink:href="FontManager_8hpp.html" target="_top" xlink:title=" ">
<polygon fill="none" stroke="black" points="0,-168.5 0,-187.5 145,-187.5 145,-168.5 0,-168.5"/>
<text text-anchor="middle" x="72.5" y="-175.5" font-family="Helvetica,sans-Serif" font-size="10.00">../Managers/FontManager.hpp</text>
</a>
</g>
</g>
<!-- Node4&#45;&gt;Node15 -->
<g id="edge18" class="edge">
<title>Node4&#45;&gt;Node15</title>
<path fill="none" stroke="midnightblue" d="M451.96,-281.25C384.62,-271.61 275.21,-255.06 235.5,-244 186.03,-230.22 131.04,-206.4 99.24,-191.75"/>
<polygon fill="midnightblue" stroke="midnightblue" points="100.7,-188.56 90.15,-187.51 97.74,-194.91 100.7,-188.56"/>
</g>
<!-- Node19 -->
<g id="node19" class="node">
<title>Node19</title>
<g id="a_node19"><a xlink:href="TextureManager_8hpp.html" target="_top" xlink:title=" ">
<polygon fill="none" stroke="black" points="274.5,-168.5 274.5,-187.5 432.5,-187.5 432.5,-168.5 274.5,-168.5"/>
<text text-anchor="middle" x="353.5" y="-175.5" font-family="Helvetica,sans-Serif" font-size="10.00">../Managers/TextureManager.hpp</text>
</a>
</g>
</g>
<!-- Node4&#45;&gt;Node19 -->
<g id="edge25" class="edge">
<title>Node4&#45;&gt;Node19</title>
<path fill="none" stroke="midnightblue" d="M492.85,-280.5C478.08,-271.78 454.77,-257.6 435.5,-244 412.62,-227.86 387.57,-207.59 371.25,-194.02"/>
<polygon fill="midnightblue" stroke="midnightblue" points="373.49,-191.32 363.57,-187.59 368.99,-196.69 373.49,-191.32"/>
</g>
<!-- Node21 -->
<g id="node21" class="node">
<title>Node21</title>
<g id="a_node21"><a xlink:title=" ">
<polygon fill="none" stroke="#bfbfbf" points="295.5,-56.5 295.5,-75.5 371.5,-75.5 371.5,-56.5 295.5,-56.5"/>
<text text-anchor="middle" x="333.5" y="-63.5" font-family="Helvetica,sans-Serif" font-size="10.00">SDL_render.h</text>
</a>
</g>
</g>
<!-- Node4&#45;&gt;Node21 -->
<g id="edge34" class="edge">
<title>Node4&#45;&gt;Node21</title>
<path fill="none" stroke="midnightblue" d="M475.64,-280.43C415.69,-263.6 289.92,-224.66 265.5,-188 241.16,-151.47 285.89,-105.66 313.72,-82.28"/>
<polygon fill="midnightblue" stroke="midnightblue" points="316.16,-84.8 321.71,-75.77 311.75,-79.37 316.16,-84.8"/>
</g>
<!-- Node22 -->
<g id="node22" class="node">
<title>Node22</title>
<g id="a_node22"><a xlink:title=" ">
<polygon fill="none" stroke="#bfbfbf" points="444.5,-224.5 444.5,-243.5 516.5,-243.5 516.5,-224.5 444.5,-224.5"/>
<text text-anchor="middle" x="480.5" y="-231.5" font-family="Helvetica,sans-Serif" font-size="10.00">SDL_video.h</text>
</a>
</g>
</g>
<!-- Node4&#45;&gt;Node22 -->
<g id="edge35" class="edge">
<title>Node4&#45;&gt;Node22</title>
<path fill="none" stroke="midnightblue" d="M503.04,-280.08C499.35,-272.69 493.98,-261.95 489.41,-252.81"/>
<polygon fill="midnightblue" stroke="midnightblue" points="492.48,-251.13 484.88,-243.75 486.22,-254.26 492.48,-251.13"/>
</g>
<!-- Node6&#45;&gt;Node5 -->
<g id="edge15" class="edge">
<title>Node6&#45;&gt;Node5</title>
<path fill="none" stroke="midnightblue" d="M669.42,-224.46C663.08,-215.48 652.89,-200.88 644.5,-188 634.13,-172.08 622.82,-153.59 614.88,-140.41"/>
<polygon fill="midnightblue" stroke="midnightblue" points="617.68,-138.28 609.54,-131.5 611.68,-141.88 617.68,-138.28"/>
</g>
<!-- Node7 -->
<g id="node7" class="node">
<title>Node7</title>
<g id="a_node7"><a xlink:href="UIObject_8hpp.html" target="_top" xlink:title=" ">
<polygon fill="none" stroke="black" points="796.5,-168.5 796.5,-187.5 870.5,-187.5 870.5,-168.5 796.5,-168.5"/>
<text text-anchor="middle" x="833.5" y="-175.5" font-family="Helvetica,sans-Serif" font-size="10.00">UIObject.hpp</text>
</a>
</g>
</g>
<!-- Node6&#45;&gt;Node7 -->
<g id="edge6" class="edge">
<title>Node6&#45;&gt;Node7</title>
<path fill="none" stroke="midnightblue" d="M700.54,-224.44C727.12,-215.36 769.31,-200.94 799.02,-190.78"/>
<polygon fill="midnightblue" stroke="midnightblue" points="800.25,-194.06 808.58,-187.52 797.99,-187.44 800.25,-194.06"/>
</g>
<!-- Node13 -->
<g id="node13" class="node">
<title>Node13</title>
<g id="a_node13"><a xlink:title=" ">
<polygon fill="none" stroke="#bfbfbf" points="439,-56.5 439,-75.5 480,-75.5 480,-56.5 439,-56.5"/>
<text text-anchor="middle" x="459.5" y="-63.5" font-family="Helvetica,sans-Serif" font-size="10.00">string</text>
</a>
</g>
</g>
<!-- Node6&#45;&gt;Node13 -->
<g id="edge16" class="edge">
<title>Node6&#45;&gt;Node13</title>
<path fill="none" stroke="midnightblue" d="M675.83,-224.19C676.16,-201.93 673.78,-142.97 641.5,-112 593.65,-66.09 559.72,-91.44 490.17,-75.84"/>
<polygon fill="midnightblue" stroke="midnightblue" points="490.66,-72.36 480.11,-73.36 488.98,-79.15 490.66,-72.36"/>
</g>
<!-- Node7&#45;&gt;Node8 -->
<g id="edge7" class="edge">
<title>Node7&#45;&gt;Node8</title>
<path fill="none" stroke="midnightblue" d="M835.98,-168.08C837.99,-160.85 840.89,-150.41 843.39,-141.4"/>
<polygon fill="midnightblue" stroke="midnightblue" points="846.76,-142.32 846.07,-131.75 840.02,-140.45 846.76,-142.32"/>
</g>
<!-- Node9 -->
<g id="node9" class="node">
<title>Node9</title>
<g id="a_node9"><a xlink:href="Component_8hpp.html" target="_top" xlink:title=" ">
<polygon fill="none" stroke="black" points="498.5,-56.5 498.5,-75.5 582.5,-75.5 582.5,-56.5 498.5,-56.5"/>
<text text-anchor="middle" x="540.5" y="-63.5" font-family="Helvetica,sans-Serif" font-size="10.00">Component.hpp</text>
</a>
</g>
</g>
<!-- Node8&#45;&gt;Node9 -->
<g id="edge8" class="edge">
<title>Node8&#45;&gt;Node9</title>
<path fill="none" stroke="midnightblue" d="M803.71,-113.15C747.72,-103.33 652.05,-86.56 592.77,-76.16"/>
<polygon fill="midnightblue" stroke="midnightblue" points="593.32,-72.71 582.86,-74.43 592.11,-79.6 593.32,-72.71"/>
</g>
<!-- Node10 -->
<g id="node10" class="node">
<title>Node10</title>
<g id="a_node10"><a xlink:title=" ">
<polygon fill="none" stroke="#bfbfbf" points="374,-0.5 374,-19.5 425,-19.5 425,-0.5 374,-0.5"/>
<text text-anchor="middle" x="399.5" y="-7.5" font-family="Helvetica,sans-Serif" font-size="10.00">memory</text>
</a>
</g>
</g>
<!-- Node8&#45;&gt;Node10 -->
<g id="edge14" class="edge">
<title>Node8&#45;&gt;Node10</title>
<path fill="none" stroke="midnightblue" d="M848.64,-112.21C848.33,-97.94 845.46,-69.95 828.5,-56 798.36,-31.21 532.91,-16.96 435.3,-12.52"/>
<polygon fill="midnightblue" stroke="midnightblue" points="435.2,-9.01 425.06,-12.06 434.89,-16 435.2,-9.01"/>
</g>
<!-- Node8&#45;&gt;Node11 -->
<g id="edge10" class="edge">
<title>Node8&#45;&gt;Node11</title>
<path fill="none" stroke="midnightblue" d="M837.57,-112.32C827.33,-104.18 811.78,-91.84 799.5,-82.09"/>
<polygon fill="midnightblue" stroke="midnightblue" points="801.63,-79.31 791.62,-75.83 797.28,-84.79 801.63,-79.31"/>
</g>
<!-- Node8&#45;&gt;Node13 -->
<g id="edge12" class="edge">
<title>Node8&#45;&gt;Node13</title>
<path fill="none" stroke="midnightblue" d="M803.74,-113.37C800.61,-112.89 797.51,-112.43 794.5,-112 662.53,-93.23 624.9,-103.22 489.93,-75.72"/>
<polygon fill="midnightblue" stroke="midnightblue" points="490.54,-72.27 480.04,-73.67 489.12,-79.13 490.54,-72.27"/>
</g>
<!-- Node14 -->
<g id="node14" class="node">
<title>Node14</title>
<g id="a_node14"><a xlink:title=" ">
<polygon fill="none" stroke="#bfbfbf" points="936.5,-56.5 936.5,-75.5 980.5,-75.5 980.5,-56.5 936.5,-56.5"/>
<text text-anchor="middle" x="958.5" y="-63.5" font-family="Helvetica,sans-Serif" font-size="10.00">vector</text>
</a>
</g>
</g>
<!-- Node8&#45;&gt;Node14 -->
<g id="edge13" class="edge">
<title>Node8&#45;&gt;Node14</title>
<path fill="none" stroke="midnightblue" d="M866.17,-112.32C883.89,-103.62 911.4,-90.12 931.79,-80.11"/>
<polygon fill="midnightblue" stroke="midnightblue" points="933.44,-83.2 940.87,-75.65 930.35,-76.92 933.44,-83.2"/>
</g>
<!-- Node9&#45;&gt;Node10 -->
<g id="edge9" class="edge">
<title>Node9&#45;&gt;Node10</title>
<path fill="none" stroke="midnightblue" d="M518.16,-56.44C494.75,-47.48 457.76,-33.31 431.31,-23.18"/>
<polygon fill="midnightblue" stroke="midnightblue" points="432.33,-19.82 421.74,-19.52 429.82,-26.36 432.33,-19.82"/>
</g>
<!-- Node12 -->
<g id="node12" class="node">
<title>Node12</title>
<g id="a_node12"><a xlink:href="Point_8hpp.html" target="_top" xlink:title=" ">
<polygon fill="none" stroke="black" points="908,-0.5 908,-19.5 965,-19.5 965,-0.5 908,-0.5"/>
<text text-anchor="middle" x="936.5" y="-7.5" font-family="Helvetica,sans-Serif" font-size="10.00">Point.hpp</text>
</a>
</g>
</g>
<!-- Node11&#45;&gt;Node12 -->
<g id="edge11" class="edge">
<title>Node11&#45;&gt;Node12</title>
<path fill="none" stroke="midnightblue" d="M805.22,-56.44C831.35,-47.4 872.76,-33.06 902.08,-22.92"/>
<polygon fill="midnightblue" stroke="midnightblue" points="903.59,-26.1 911.9,-19.52 901.3,-19.48 903.59,-26.1"/>
</g>
<!-- Node15&#45;&gt;Node10 -->
<g id="edge23" class="edge">
<title>Node15&#45;&gt;Node10</title>
<path fill="none" stroke="midnightblue" d="M49.05,-168.41C33.34,-161.28 13.88,-149.46 4.5,-132 -7.69,-109.31 15.63,-62.38 23.5,-56 75.22,-14.05 280.55,-10.32 363.98,-10.58"/>
<polygon fill="midnightblue" stroke="midnightblue" points="363.97,-14.08 373.99,-10.63 364.01,-7.08 363.97,-14.08"/>
</g>
<!-- Node15&#45;&gt;Node13 -->
<g id="edge24" class="edge">
<title>Node15&#45;&gt;Node13</title>
<path fill="none" stroke="midnightblue" d="M80.83,-168.1C94.9,-153.67 124.95,-125.45 156.5,-112 181.28,-101.44 356.61,-79.41 428.68,-70.68"/>
<polygon fill="midnightblue" stroke="midnightblue" points="429.42,-74.11 438.93,-69.44 428.58,-67.16 429.42,-74.11"/>
</g>
<!-- Node16 -->
<g id="node16" class="node">
<title>Node16</title>
<g id="a_node16"><a xlink:href="libs_2spic-engine_2src_2Models_2Font_8hpp.html" target="_top" xlink:title=" ">
<polygon fill="none" stroke="black" points="13.5,-112.5 13.5,-131.5 109.5,-131.5 109.5,-112.5 13.5,-112.5"/>
<text text-anchor="middle" x="61.5" y="-119.5" font-family="Helvetica,sans-Serif" font-size="10.00">../Models/Font.hpp</text>
</a>
</g>
</g>
<!-- Node15&#45;&gt;Node16 -->
<g id="edge19" class="edge">
<title>Node15&#45;&gt;Node16</title>
<path fill="none" stroke="midnightblue" d="M70.68,-168.08C69.23,-160.93 67.13,-150.64 65.31,-141.69"/>
<polygon fill="midnightblue" stroke="midnightblue" points="68.71,-140.85 63.28,-131.75 61.85,-142.25 68.71,-140.85"/>
</g>
<!-- Node15&#45;&gt;Node18 -->
<g id="edge22" class="edge">
<title>Node15&#45;&gt;Node18</title>
<path fill="none" stroke="midnightblue" d="M90.33,-168.32C108.22,-159.62 135.98,-146.12 156.55,-136.11"/>
<polygon fill="midnightblue" stroke="midnightblue" points="158.25,-139.18 165.71,-131.65 155.19,-132.88 158.25,-139.18"/>
</g>
<!-- Node16&#45;&gt;Node10 -->
<g id="edge21" class="edge">
<title>Node16&#45;&gt;Node10</title>
<path fill="none" stroke="midnightblue" d="M85.98,-112.47C122.4,-99.84 193.06,-75.54 253.5,-56 291.09,-43.85 334.36,-30.6 363.98,-21.65"/>
<polygon fill="midnightblue" stroke="midnightblue" points="365.29,-24.91 373.85,-18.67 363.27,-18.21 365.29,-24.91"/>
</g>
<!-- Node17 -->
<g id="node17" class="node">
<title>Node17</title>
<g id="a_node17"><a xlink:title=" ">
<polygon fill="none" stroke="#bfbfbf" points="32.5,-56.5 32.5,-75.5 90.5,-75.5 90.5,-56.5 32.5,-56.5"/>
<text text-anchor="middle" x="61.5" y="-63.5" font-family="Helvetica,sans-Serif" font-size="10.00">SDL_ttf.h</text>
</a>
</g>
</g>
<!-- Node16&#45;&gt;Node17 -->
<g id="edge20" class="edge">
<title>Node16&#45;&gt;Node17</title>
<path fill="none" stroke="midnightblue" d="M61.5,-112.08C61.5,-105.01 61.5,-94.86 61.5,-85.99"/>
<polygon fill="midnightblue" stroke="midnightblue" points="65,-85.75 61.5,-75.75 58,-85.75 65,-85.75"/>
</g>
<!-- Node19&#45;&gt;Node5 -->
<g id="edge30" class="edge">
<title>Node19&#45;&gt;Node5</title>
<path fill="none" stroke="midnightblue" d="M393.27,-168.44C440.56,-158.27 518.97,-141.4 565.79,-131.33"/>
<polygon fill="midnightblue" stroke="midnightblue" points="566.8,-134.69 575.84,-129.16 565.33,-127.85 566.8,-134.69"/>
</g>
<!-- Node19&#45;&gt;Node10 -->
<g id="edge32" class="edge">
<title>Node19&#45;&gt;Node10</title>
<path fill="none" stroke="midnightblue" d="M330.71,-168.47C315.17,-161.32 295.79,-149.44 286.5,-132 270.61,-102.19 267.54,-83.96 286.5,-56 303.66,-30.7 337.55,-19.62 363.76,-14.77"/>
<polygon fill="midnightblue" stroke="midnightblue" points="364.43,-18.21 373.74,-13.15 363.31,-11.3 364.43,-18.21"/>
</g>
<!-- Node19&#45;&gt;Node13 -->
<g id="edge33" class="edge">
<title>Node19&#45;&gt;Node13</title>
<path fill="none" stroke="midnightblue" d="M367.33,-168.43C380.15,-160.09 399.34,-146.56 413.5,-132 427.62,-117.49 440.64,-98.31 449.19,-84.55"/>
<polygon fill="midnightblue" stroke="midnightblue" points="452.41,-86 454.59,-75.63 446.42,-82.38 452.41,-86"/>
</g>
<!-- Node19&#45;&gt;Node18 -->
<g id="edge31" class="edge">
<title>Node19&#45;&gt;Node18</title>
<path fill="none" stroke="midnightblue" d="M326.56,-168.44C294.97,-158.41 242.87,-141.86 211.02,-131.74"/>
<polygon fill="midnightblue" stroke="midnightblue" points="212.04,-128.39 201.45,-128.7 209.92,-135.06 212.04,-128.39"/>
</g>
<!-- Node20 -->
<g id="node20" class="node">
<title>Node20</title>
<g id="a_node20"><a xlink:href="Texture_8hpp.html" target="_top" xlink:title=" ">
<polygon fill="none" stroke="black" points="296,-112.5 296,-131.5 405,-131.5 405,-112.5 296,-112.5"/>
<text text-anchor="middle" x="350.5" y="-119.5" font-family="Helvetica,sans-Serif" font-size="10.00">../Models/Texture.hpp</text>
</a>
</g>
</g>
<!-- Node19&#45;&gt;Node20 -->
<g id="edge26" class="edge">
<title>Node19&#45;&gt;Node20</title>
<path fill="none" stroke="midnightblue" d="M353,-168.08C352.61,-161.01 352.05,-150.86 351.55,-141.99"/>
<polygon fill="midnightblue" stroke="midnightblue" points="355.04,-141.54 350.99,-131.75 348.05,-141.93 355.04,-141.54"/>
</g>
<!-- Node20&#45;&gt;Node10 -->
<g id="edge28" class="edge">
<title>Node20&#45;&gt;Node10</title>
<path fill="none" stroke="midnightblue" d="M357.57,-112.18C364.27,-103.44 374.23,-89.45 380.5,-76 387.49,-61.01 392.53,-42.88 395.66,-29.58"/>
<polygon fill="midnightblue" stroke="midnightblue" points="399.1,-30.23 397.83,-19.71 392.26,-28.72 399.1,-30.23"/>
</g>
<!-- Node20&#45;&gt;Node13 -->
<g id="edge27" class="edge">
<title>Node20&#45;&gt;Node13</title>
<path fill="none" stroke="midnightblue" d="M368.01,-112.32C385.57,-103.62 412.83,-90.12 433.03,-80.11"/>
<polygon fill="midnightblue" stroke="midnightblue" points="434.62,-83.23 442.03,-75.65 431.52,-76.96 434.62,-83.23"/>
</g>
<!-- Node20&#45;&gt;Node21 -->
<g id="edge29" class="edge">
<title>Node20&#45;&gt;Node21</title>
<path fill="none" stroke="midnightblue" d="M347.69,-112.08C345.42,-104.85 342.13,-94.41 339.29,-85.4"/>
<polygon fill="midnightblue" stroke="midnightblue" points="342.6,-84.24 336.25,-75.75 335.92,-86.34 342.6,-84.24"/>
</g>
<!-- Node23&#45;&gt;Node5 -->
<g id="edge38" class="edge">
<title>Node23&#45;&gt;Node5</title>
<path fill="none" stroke="midnightblue" d="M888.26,-169.69C885.3,-169.1 882.35,-168.53 879.5,-168 795.45,-152.34 696.4,-136.85 643.11,-128.77"/>
<polygon fill="midnightblue" stroke="midnightblue" points="643.49,-125.29 633.08,-127.25 642.44,-132.21 643.49,-125.29"/>
</g>
<!-- Node23&#45;&gt;Node8 -->
<g id="edge37" class="edge">
<title>Node23&#45;&gt;Node8</title>
<path fill="none" stroke="midnightblue" d="M910.61,-168.32C899.35,-160.11 882.21,-147.6 868.79,-137.81"/>
<polygon fill="midnightblue" stroke="midnightblue" points="870.75,-134.9 860.61,-131.83 866.62,-140.56 870.75,-134.9"/>
</g>
<!-- Node25 -->
<g id="node25" class="node">
<title>Node25</title>
<g id="a_node25"><a xlink:href="EngineConfig_8hpp.html" target="_top" xlink:title=" ">
<polygon fill="none" stroke="black" points="687,-168.5 687,-187.5 778,-187.5 778,-168.5 687,-168.5"/>
<text text-anchor="middle" x="732.5" y="-175.5" font-family="Helvetica,sans-Serif" font-size="10.00">EngineConfig.hpp</text>
</a>
</g>
</g>
<!-- Node24&#45;&gt;Node25 -->
<g id="edge40" class="edge">
<title>Node24&#45;&gt;Node25</title>
<path fill="none" stroke="midnightblue" d="M841.9,-224.44C820.51,-215.56 786.82,-201.56 762.48,-191.45"/>
<polygon fill="midnightblue" stroke="midnightblue" points="763.58,-188.12 753,-187.52 760.89,-194.58 763.58,-188.12"/>
</g>
<!-- Node27 -->
<g id="node27" class="node">
<title>Node27</title>
<g id="a_node27"><a xlink:href="Scene_8hpp.html" target="_top" xlink:title=" ">
<polygon fill="none" stroke="black" points="927.5,-112.5 927.5,-131.5 989.5,-131.5 989.5,-112.5 927.5,-112.5"/>
<text text-anchor="middle" x="958.5" y="-119.5" font-family="Helvetica,sans-Serif" font-size="10.00">Scene.hpp</text>
</a>
</g>
</g>
<!-- Node24&#45;&gt;Node27 -->
<g id="edge43" class="edge">
<title>Node24&#45;&gt;Node27</title>
<path fill="none" stroke="midnightblue" d="M894.57,-228.42C918.59,-223.12 949.9,-211.84 965.5,-188 974.51,-174.23 971.07,-155.2 966.39,-141.29"/>
<polygon fill="midnightblue" stroke="midnightblue" points="969.6,-139.9 962.75,-131.82 963.07,-142.41 969.6,-139.9"/>
</g>
<!-- Node26 -->
<g id="node26" class="node">
<title>Node26</title>
<g id="a_node26"><a xlink:href="WindowConfig_8hpp.html" target="_top" xlink:title=" ">
<polygon fill="none" stroke="black" points="689.5,-112.5 689.5,-131.5 785.5,-131.5 785.5,-112.5 689.5,-112.5"/>
<text text-anchor="middle" x="737.5" y="-119.5" font-family="Helvetica,sans-Serif" font-size="10.00">WindowConfig.hpp</text>
</a>
</g>
</g>
<!-- Node25&#45;&gt;Node26 -->
<g id="edge41" class="edge">
<title>Node25&#45;&gt;Node26</title>
<path fill="none" stroke="midnightblue" d="M733.33,-168.08C733.98,-161.01 734.92,-150.86 735.74,-141.99"/>
<polygon fill="midnightblue" stroke="midnightblue" points="739.25,-142.03 736.69,-131.75 732.28,-141.39 739.25,-142.03"/>
</g>
<!-- Node26&#45;&gt;Node13 -->
<g id="edge42" class="edge">
<title>Node26&#45;&gt;Node13</title>
<path fill="none" stroke="midnightblue" d="M689.16,-113.87C641.09,-106.42 565.1,-93.65 490.16,-75.92"/>
<polygon fill="midnightblue" stroke="midnightblue" points="490.61,-72.43 480.07,-73.5 488.98,-79.24 490.61,-72.43"/>
</g>
<!-- Node27&#45;&gt;Node10 -->
<g id="edge45" class="edge">
<title>Node27&#45;&gt;Node10</title>
<path fill="none" stroke="midnightblue" d="M947.84,-112.43C929.18,-97.95 888.84,-68.98 849.5,-56 772.67,-30.65 527.9,-16.95 435.38,-12.57"/>
<polygon fill="midnightblue" stroke="midnightblue" points="435.28,-9.07 425.13,-12.1 434.96,-16.06 435.28,-9.07"/>
</g>
<!-- Node27&#45;&gt;Node14 -->
<g id="edge44" class="edge">
<title>Node27&#45;&gt;Node14</title>
<path fill="none" stroke="midnightblue" d="M958.5,-112.08C958.5,-105.01 958.5,-94.86 958.5,-85.99"/>
<polygon fill="midnightblue" stroke="midnightblue" points="962,-85.75 958.5,-75.75 955,-85.75 962,-85.75"/>
</g>
<!-- Node28&#45;&gt;Node5 -->
<g id="edge49" class="edge">
<title>Node28&#45;&gt;Node5</title>
<path fill="none" stroke="midnightblue" d="M505.2,-168.44C524.44,-159.64 554.65,-145.81 576.7,-135.72"/>
<polygon fill="midnightblue" stroke="midnightblue" points="578.25,-138.86 585.89,-131.52 575.34,-132.5 578.25,-138.86"/>
</g>
<!-- Node28&#45;&gt;Node9 -->
<g id="edge48" class="edge">
<title>Node28&#45;&gt;Node9</title>
<path fill="none" stroke="midnightblue" d="M490.74,-168.37C499.57,-150.38 520.1,-108.55 531.85,-84.63"/>
<polygon fill="midnightblue" stroke="midnightblue" points="535.02,-86.11 536.28,-75.59 528.73,-83.03 535.02,-86.11"/>
</g>
<!-- Node28&#45;&gt;Node13 -->
<g id="edge50" class="edge">
<title>Node28&#45;&gt;Node13</title>
<path fill="none" stroke="midnightblue" d="M484.38,-168.37C480.02,-150.62 469.97,-109.67 464.06,-85.6"/>
<polygon fill="midnightblue" stroke="midnightblue" points="467.39,-84.47 461.61,-75.59 460.59,-86.14 467.39,-84.47"/>
</g>
<!-- Node29&#45;&gt;Node5 -->
<g id="edge55" class="edge">
<title>Node29&#45;&gt;Node5</title>
<path fill="none" stroke="midnightblue" d="M1050.49,-170.66C965.8,-162.2 811.88,-146.59 680.5,-132 668.45,-130.66 655.33,-129.13 643.44,-127.72"/>
<polygon fill="midnightblue" stroke="midnightblue" points="643.7,-124.23 633.36,-126.52 642.87,-131.18 643.7,-124.23"/>
</g>
<!-- Node29&#45;&gt;Node12 -->
<g id="edge54" class="edge">
<title>Node29&#45;&gt;Node12</title>
<path fill="none" stroke="midnightblue" d="M1106.35,-168.45C1094.32,-155.89 1071.01,-131.8 1050.5,-112 1024.03,-86.44 1017.09,-80.36 989.5,-56 978.05,-45.89 964.97,-34.78 954.66,-26.12"/>
<polygon fill="midnightblue" stroke="midnightblue" points="956.68,-23.24 946.76,-19.51 952.18,-28.61 956.68,-23.24"/>
</g>
<!-- Node29&#45;&gt;Node14 -->
<g id="edge53" class="edge">
<title>Node29&#45;&gt;Node14</title>
<path fill="none" stroke="midnightblue" d="M1102.26,-168.37C1075.6,-149.57 1012.06,-104.77 979.11,-81.53"/>
<polygon fill="midnightblue" stroke="midnightblue" points="980.87,-78.49 970.68,-75.59 976.84,-84.21 980.87,-78.49"/>
</g>
</g>
</svg>
        <g id="navigator" transform="translate(0 0)" fill="#404254">
                <rect fill="#f2f5e9" fill-opacity="0.5" stroke="#606060" stroke-width=".5" x="0" y="0" width="60" height="60"/>
                <use id="zoomplus" xlink:href="#zoomPlus" x="17" y="9" onmousedown="handleZoom(evt,'in')"/>
                <use id="zoomminus" xlink:href="#zoomMin" x="42" y="9" onmousedown="handleZoom(evt,'out')"/>
                <use id="reset" xlink:href="#resetDef" x="30" y="36" onmousedown="handleReset()"/>
                <g id="arrowUp" xlink:href="#dirArrow" transform="translate(30 24)" onmousedown="handlePan(0,-1)">
                  <use xlink:href="#rim" fill="#404040">
                        <set attributeName="fill" to="#808080" begin="arrowUp.mouseover" end="arrowUp.mouseout"/>
                  </use>
                  <path fill="none" stroke="white" stroke-width="1.5" d="M0,-3.0v7 M-2.5,-0.5L0,-3.0L2.5,-0.5"/>
                </g>
                <g id="arrowRight" xlink:href="#dirArrow" transform="rotate(90) translate(36 -43)" onmousedown="handlePan(1,0)">
                  <use xlink:href="#rim" fill="#404040">
                        <set attributeName="fill" to="#808080" begin="arrowRight.mouseover" end="arrowRight.mouseout"/>
                  </use>
                  <path fill="none" stroke="white" stroke-width="1.5" d="M0,-3.0v7 M-2.5,-0.5L0,-3.0L2.5,-0.5"/>
                </g>
                <g id="arrowDown" xlink:href="#dirArrow" transform="rotate(180) translate(-30 -48)" onmousedown="handlePan(0,1)">
                  <use xlink:href="#rim" fill="#404040">
                        <set attributeName="fill" to="#808080" begin="arrowDown.mouseover" end="arrowDown.mouseout"/>
                  </use>
                  <path fill="none" stroke="white" stroke-width="1.5" d="M0,-3.0v7 M-2.5,-0.5L0,-3.0L2.5,-0.5"/>
                </g>
                <g id="arrowLeft" xlink:href="#dirArrow" transform="rotate(270) translate(-36 17)" onmousedown="handlePan(-1,0)">
                  <use xlink:href="#rim" fill="#404040">
                        <set attributeName="fill" to="#808080" begin="arrowLeft.mouseover" end="arrowLeft.mouseout"/>
                  </use>
                  <path fill="none" stroke="white" stroke-width="1.5" d="M0,-3.0v7 M-2.5,-0.5L0,-3.0L2.5,-0.5"/>
                </g>
        </g>
        <svg viewBox="0 0 15 15" width="100%" height="30px" preserveAspectRatio="xMaxYMin meet">
         <g id="arrow_out" transform="scale(0.3 0.3)">
          <a xlink:href="RenderSubsystem_8cpp__incl_org.svg" target="_base">
           <rect id="button" ry="5" rx="5" y="6" x="6" height="38" width="38"
                fill="#f2f5e9" fill-opacity="0.5" stroke="#606060" stroke-width="1.0"/>
           <path id="arrow"
             d="M 11.500037,31.436501 C 11.940474,20.09759 22.043105,11.32322 32.158766,21.979434 L 37.068811,17.246167 C 37.068811,17.246167 37.088388,32 37.088388,32 L 22.160133,31.978069 C 22.160133,31.978069 26.997745,27.140456 26.997745,27.140456 C 18.528582,18.264221 13.291696,25.230495 11.500037,31.436501 z"
             style="fill:#404040;"/>
          </a>
         </g>
        </svg>
</svg>
