<?xml version="1.0" encoding="UTF-8" standalone="no"?>
<!DOCTYPE svg PUBLIC "-//W3C//DTD SVG 1.1//EN"
 "http://www.w3.org/Graphics/SVG/1.1/DTD/svg11.dtd">
<!-- Generated by graphviz version 2.44.0 ()
 -->
<!-- Title: src/Scenes/SaveSelectionScene.cpp Pages: 1 -->
<!--zoomable 386 -->
<svg id="main" version="1.1" xmlns="http://www.w3.org/2000/svg" xmlns:xlink="http://www.w3.org/1999/xlink" xml:space="preserve" onload="init(evt)">
<style type="text/css"><![CDATA[
.edge:hover path { stroke: red; }
.edge:hover polygon { stroke: red; fill: red; }
]]></style>
<script type="text/javascript"><![CDATA[
var edges = document.getElementsByTagName('g');
if (edges && edges.length) {
  for (var i=0;i<edges.length;i++) {
    if (edges[i].id.substr(0,4)=='edge') {
      edges[i].setAttribute('class','edge');
    }
  }
}
]]></script>
        <defs>
                <circle id="rim" cx="0" cy="0" r="7"/>
                <circle id="rim2" cx="0" cy="0" r="3.5"/>
                <g id="zoomPlus">
                        <use xlink:href="#rim" fill="#404040">
                                <set attributeName="fill" to="#808080" begin="zoomplus.mouseover" end="zoomplus.mouseout"/>
                        </use>
                        <path d="M-4,0h8M0,-4v8" fill="none" stroke="white" stroke-width="1.5" pointer-events="none"/>
                </g>
                <g id="zoomMin">
                        <use xlink:href="#rim" fill="#404040">
                                <set attributeName="fill" to="#808080" begin="zoomminus.mouseover" end="zoomminus.mouseout"/>
                        </use>
                        <path d="M-4,0h8" fill="none" stroke="white" stroke-width="1.5" pointer-events="none"/>
                </g>
                <g id="dirArrow">
                        <path fill="none" stroke="white" stroke-width="1.5" d="M0,-3.0v7 M-2.5,-0.5L0,-3.0L2.5,-0.5"/>
                </g>
               <g id="resetDef">
                       <use xlink:href="#rim2" fill="#404040">
                               <set attributeName="fill" to="#808080" begin="reset.mouseover" end="reset.mouseout"/>
                       </use>
               </g>
        </defs>

<script type="text/javascript">
var viewWidth = 936;
var viewHeight = 386;
var sectionId = 'dynsection-0';
</script>
<script xlink:href="svgpan.js"/>
<svg id="graph" class="graph">
<g id="viewport">
<title>src/Scenes/SaveSelectionScene.cpp</title>
<!-- Node1 -->
<g id="node1" class="node">
<title>Node1</title>
<g id="a_node1"><a xlink:title=" ">
<polygon fill="#bfbfbf" stroke="black" points="374.5,-347.5 374.5,-377.5 506.5,-377.5 506.5,-347.5 374.5,-347.5"/>
<text text-anchor="start" x="382.5" y="-365.5" font-family="Helvetica,sans-Serif" font-size="10.00">src/Scenes/SaveSelection</text>
<text text-anchor="middle" x="440.5" y="-354.5" font-family="Helvetica,sans-Serif" font-size="10.00">Scene.cpp</text>
</a>
</g>
</g>
<!-- Node2 -->
<g id="node2" class="node">
<title>Node2</title>
<g id="a_node2"><a xlink:href="SaveSelectionScene_8hpp.html" target="_top" xlink:title=" ">
<polygon fill="none" stroke="black" points="287,-224.5 287,-243.5 412,-243.5 412,-224.5 287,-224.5"/>
<text text-anchor="middle" x="349.5" y="-231.5" font-family="Helvetica,sans-Serif" font-size="10.00">SaveSelectionScene.hpp</text>
</a>
</g>
</g>
<!-- Node1&#45;&gt;Node2 -->
<g id="edge1" class="edge">
<title>Node1&#45;&gt;Node2</title>
<path fill="none" stroke="midnightblue" d="M423.56,-347.17C412.94,-337.63 399.44,-324.42 389.5,-311 375.96,-292.72 364.35,-269.23 357.18,-253.24"/>
<polygon fill="midnightblue" stroke="midnightblue" points="360.33,-251.71 353.13,-243.94 353.92,-254.51 360.33,-251.71"/>
</g>
<!-- Node9 -->
<g id="node9" class="node">
<title>Node9</title>
<g id="a_node9"><a xlink:href="MainScene_8hpp.html" target="_top" xlink:title=" ">
<polygon fill="none" stroke="black" points="399,-286 399,-305 482,-305 482,-286 399,-286"/>
<text text-anchor="middle" x="440.5" y="-293" font-family="Helvetica,sans-Serif" font-size="10.00">MainScene.hpp</text>
</a>
</g>
</g>
<!-- Node1&#45;&gt;Node9 -->
<g id="edge9" class="edge">
<title>Node1&#45;&gt;Node9</title>
<path fill="none" stroke="midnightblue" d="M440.5,-347.4C440.5,-338.06 440.5,-325.71 440.5,-315.52"/>
<polygon fill="midnightblue" stroke="midnightblue" points="444,-315.19 440.5,-305.19 437,-315.19 444,-315.19"/>
</g>
<!-- Node10 -->
<g id="node10" class="node">
<title>Node10</title>
<g id="a_node10"><a xlink:href="ButtonPrefabFactory_8hpp.html" target="_top" xlink:title=" ">
<polygon fill="none" stroke="black" points="659,-280.5 659,-310.5 784,-310.5 784,-280.5 659,-280.5"/>
<text text-anchor="start" x="667" y="-298.5" font-family="Helvetica,sans-Serif" font-size="10.00">../Factories/ButtonPrefab</text>
<text text-anchor="middle" x="721.5" y="-287.5" font-family="Helvetica,sans-Serif" font-size="10.00">Factory.hpp</text>
</a>
</g>
</g>
<!-- Node1&#45;&gt;Node10 -->
<g id="edge11" class="edge">
<title>Node1&#45;&gt;Node10</title>
<path fill="none" stroke="midnightblue" d="M501.13,-347.48C545.02,-337.32 604.48,-323.57 650.58,-312.91"/>
<polygon fill="midnightblue" stroke="midnightblue" points="651.54,-316.27 660.5,-310.61 649.97,-309.45 651.54,-316.27"/>
</g>
<!-- Node18 -->
<g id="node18" class="node">
<title>Node18</title>
<g id="a_node18"><a xlink:href="SaveGameManager_8hpp.html" target="_top" xlink:title=" ">
<polygon fill="none" stroke="black" points="0,-168.5 0,-187.5 183,-187.5 183,-168.5 0,-168.5"/>
<text text-anchor="middle" x="91.5" y="-175.5" font-family="Helvetica,sans-Serif" font-size="10.00">../Persistence/SaveGameManager.hpp</text>
</a>
</g>
</g>
<!-- Node1&#45;&gt;Node18 -->
<g id="edge25" class="edge">
<title>Node1&#45;&gt;Node18</title>
<path fill="none" stroke="midnightblue" d="M413.69,-347.48C348.26,-313.27 181.05,-225.83 117,-192.33"/>
<polygon fill="midnightblue" stroke="midnightblue" points="118.46,-189.15 107.97,-187.62 115.21,-195.35 118.46,-189.15"/>
</g>
<!-- Node21 -->
<g id="node21" class="node">
<title>Node21</title>
<g id="a_node21"><a xlink:href="Engine_8hpp.html" target="_top" xlink:title=" ">
<polygon fill="none" stroke="black" points="505.5,-224.5 505.5,-243.5 569.5,-243.5 569.5,-224.5 505.5,-224.5"/>
<text text-anchor="middle" x="537.5" y="-231.5" font-family="Helvetica,sans-Serif" font-size="10.00">Engine.hpp</text>
</a>
</g>
</g>
<!-- Node1&#45;&gt;Node21 -->
<g id="edge30" class="edge">
<title>Node1&#45;&gt;Node21</title>
<path fill="none" stroke="midnightblue" d="M456.32,-347.3C466.66,-337.61 480.12,-324.18 490.5,-311 505.15,-292.4 519.03,-268.98 527.86,-253.08"/>
<polygon fill="midnightblue" stroke="midnightblue" points="531.17,-254.31 532.88,-243.85 525.03,-250.96 531.17,-254.31"/>
</g>
<!-- Node3 -->
<g id="node3" class="node">
<title>Node3</title>
<g id="a_node3"><a xlink:href="MenuScene_8hpp.html" target="_top" xlink:title=" ">
<polygon fill="none" stroke="black" points="387.5,-168.5 387.5,-187.5 473.5,-187.5 473.5,-168.5 387.5,-168.5"/>
<text text-anchor="middle" x="430.5" y="-175.5" font-family="Helvetica,sans-Serif" font-size="10.00">MenuScene.hpp</text>
</a>
</g>
</g>
<!-- Node2&#45;&gt;Node3 -->
<g id="edge2" class="edge">
<title>Node2&#45;&gt;Node3</title>
<path fill="none" stroke="midnightblue" d="M362.51,-224.32C375.03,-215.98 394.18,-203.21 408.97,-193.35"/>
<polygon fill="midnightblue" stroke="midnightblue" points="411.14,-196.11 417.52,-187.65 407.26,-190.29 411.14,-196.11"/>
</g>
<!-- Node8 -->
<g id="node8" class="node">
<title>Node8</title>
<g id="a_node8"><a xlink:title=" ">
<polygon fill="none" stroke="#bfbfbf" points="435,-56.5 435,-75.5 476,-75.5 476,-56.5 435,-56.5"/>
<text text-anchor="middle" x="455.5" y="-63.5" font-family="Helvetica,sans-Serif" font-size="10.00">string</text>
</a>
</g>
</g>
<!-- Node2&#45;&gt;Node8 -->
<g id="edge8" class="edge">
<title>Node2&#45;&gt;Node8</title>
<path fill="none" stroke="midnightblue" d="M334.98,-224.25C303.14,-203.98 232.47,-152.46 264.5,-112 284.15,-87.18 375.95,-74.68 424.77,-69.69"/>
<polygon fill="midnightblue" stroke="midnightblue" points="425.17,-73.17 434.78,-68.72 424.49,-66.2 425.17,-73.17"/>
</g>
<!-- Node4 -->
<g id="node4" class="node">
<title>Node4</title>
<g id="a_node4"><a xlink:href="Scene_8hpp.html" target="_top" xlink:title=" ">
<polygon fill="none" stroke="black" points="597.5,-112.5 597.5,-131.5 659.5,-131.5 659.5,-112.5 597.5,-112.5"/>
<text text-anchor="middle" x="628.5" y="-119.5" font-family="Helvetica,sans-Serif" font-size="10.00">Scene.hpp</text>
</a>
</g>
</g>
<!-- Node3&#45;&gt;Node4 -->
<g id="edge3" class="edge">
<title>Node3&#45;&gt;Node4</title>
<path fill="none" stroke="midnightblue" d="M461.87,-168.44C495.76,-159.2 549.9,-144.44 587.22,-134.26"/>
<polygon fill="midnightblue" stroke="midnightblue" points="588.55,-137.52 597.27,-131.52 586.7,-130.77 588.55,-137.52"/>
</g>
<!-- Node7 -->
<g id="node7" class="node">
<title>Node7</title>
<g id="a_node7"><a xlink:href="BackgroundName_8hpp.html" target="_top" xlink:title=" ">
<polygon fill="none" stroke="black" points="274,-112.5 274,-131.5 427,-131.5 427,-112.5 274,-112.5"/>
<text text-anchor="middle" x="350.5" y="-119.5" font-family="Helvetica,sans-Serif" font-size="10.00">../Enums/BackgroundName.hpp</text>
</a>
</g>
</g>
<!-- Node3&#45;&gt;Node7 -->
<g id="edge6" class="edge">
<title>Node3&#45;&gt;Node7</title>
<path fill="none" stroke="midnightblue" d="M417.65,-168.32C405.28,-159.98 386.37,-147.21 371.76,-137.35"/>
<polygon fill="midnightblue" stroke="midnightblue" points="373.57,-134.35 363.32,-131.65 369.65,-140.15 373.57,-134.35"/>
</g>
<!-- Node3&#45;&gt;Node8 -->
<g id="edge7" class="edge">
<title>Node3&#45;&gt;Node8</title>
<path fill="none" stroke="midnightblue" d="M432.46,-168.37C436.5,-150.62 445.8,-109.67 451.27,-85.6"/>
<polygon fill="midnightblue" stroke="midnightblue" points="454.74,-86.12 453.55,-75.59 447.92,-84.57 454.74,-86.12"/>
</g>
<!-- Node5 -->
<g id="node5" class="node">
<title>Node5</title>
<g id="a_node5"><a xlink:title=" ">
<polygon fill="none" stroke="#bfbfbf" points="618.5,-56.5 618.5,-75.5 662.5,-75.5 662.5,-56.5 618.5,-56.5"/>
<text text-anchor="middle" x="640.5" y="-63.5" font-family="Helvetica,sans-Serif" font-size="10.00">vector</text>
</a>
</g>
</g>
<!-- Node4&#45;&gt;Node5 -->
<g id="edge4" class="edge">
<title>Node4&#45;&gt;Node5</title>
<path fill="none" stroke="midnightblue" d="M630.48,-112.08C632.07,-104.93 634.36,-94.64 636.35,-85.69"/>
<polygon fill="midnightblue" stroke="midnightblue" points="639.8,-86.27 638.56,-75.75 632.97,-84.75 639.8,-86.27"/>
</g>
<!-- Node6 -->
<g id="node6" class="node">
<title>Node6</title>
<g id="a_node6"><a xlink:title=" ">
<polygon fill="none" stroke="#bfbfbf" points="700,-0.5 700,-19.5 751,-19.5 751,-0.5 700,-0.5"/>
<text text-anchor="middle" x="725.5" y="-7.5" font-family="Helvetica,sans-Serif" font-size="10.00">memory</text>
</a>
</g>
</g>
<!-- Node4&#45;&gt;Node6 -->
<g id="edge5" class="edge">
<title>Node4&#45;&gt;Node6</title>
<path fill="none" stroke="midnightblue" d="M621.62,-112.27C612.11,-99.06 597.41,-73.66 609.5,-56 627.28,-30.04 662.38,-19.05 689.34,-14.4"/>
<polygon fill="midnightblue" stroke="midnightblue" points="690.21,-17.81 699.58,-12.87 689.17,-10.89 690.21,-17.81"/>
</g>
<!-- Node9&#45;&gt;Node3 -->
<g id="edge10" class="edge">
<title>Node9&#45;&gt;Node3</title>
<path fill="none" stroke="midnightblue" d="M439.75,-285.82C438.14,-267.26 434.34,-223.34 432.14,-197.97"/>
<polygon fill="midnightblue" stroke="midnightblue" points="435.61,-197.44 431.26,-187.78 428.64,-198.05 435.61,-197.44"/>
</g>
<!-- Node10&#45;&gt;Node6 -->
<g id="edge23" class="edge">
<title>Node10&#45;&gt;Node6</title>
<path fill="none" stroke="midnightblue" d="M784.15,-286.14C844.75,-274.12 927.5,-245.53 927.5,-179 927.5,-179 927.5,-179 927.5,-121 927.5,-90.9 930.24,-76.82 908.5,-56 887.63,-36.01 808.43,-22.18 761.34,-15.53"/>
<polygon fill="midnightblue" stroke="midnightblue" points="761.63,-12.04 751.24,-14.14 760.67,-18.97 761.63,-12.04"/>
</g>
<!-- Node10&#45;&gt;Node8 -->
<g id="edge24" class="edge">
<title>Node10&#45;&gt;Node8</title>
<path fill="none" stroke="midnightblue" d="M719.31,-280.4C713.01,-241.74 693.71,-135.4 668.5,-112 642.33,-87.7 538.72,-74.76 486.27,-69.64"/>
<polygon fill="midnightblue" stroke="midnightblue" points="486.48,-66.15 476.2,-68.7 485.83,-73.12 486.48,-66.15"/>
</g>
<!-- Node11 -->
<g id="node11" class="node">
<title>Node11</title>
<g id="a_node11"><a xlink:href="Button_8hpp.html" target="_top" xlink:title=" ">
<polygon fill="none" stroke="black" points="725,-224.5 725,-243.5 788,-243.5 788,-224.5 725,-224.5"/>
<text text-anchor="middle" x="756.5" y="-231.5" font-family="Helvetica,sans-Serif" font-size="10.00">Button.hpp</text>
</a>
</g>
</g>
<!-- Node10&#45;&gt;Node11 -->
<g id="edge12" class="edge">
<title>Node10&#45;&gt;Node11</title>
<path fill="none" stroke="midnightblue" d="M729.79,-280.4C734.72,-272.02 741.01,-261.33 746.25,-252.42"/>
<polygon fill="midnightblue" stroke="midnightblue" points="749.35,-254.05 751.41,-243.66 743.32,-250.5 749.35,-254.05"/>
</g>
<!-- Node12 -->
<g id="node12" class="node">
<title>Node12</title>
<g id="a_node12"><a xlink:href="UIObject_8hpp.html" target="_top" xlink:title=" ">
<polygon fill="none" stroke="black" points="719.5,-168.5 719.5,-187.5 793.5,-187.5 793.5,-168.5 719.5,-168.5"/>
<text text-anchor="middle" x="756.5" y="-175.5" font-family="Helvetica,sans-Serif" font-size="10.00">UIObject.hpp</text>
</a>
</g>
</g>
<!-- Node11&#45;&gt;Node12 -->
<g id="edge13" class="edge">
<title>Node11&#45;&gt;Node12</title>
<path fill="none" stroke="midnightblue" d="M756.5,-224.08C756.5,-217.01 756.5,-206.86 756.5,-197.99"/>
<polygon fill="midnightblue" stroke="midnightblue" points="760,-197.75 756.5,-187.75 753,-197.75 760,-197.75"/>
</g>
<!-- Node17 -->
<g id="node17" class="node">
<title>Node17</title>
<g id="a_node17"><a xlink:title=" ">
<polygon fill="none" stroke="#bfbfbf" points="812,-168.5 812,-187.5 871,-187.5 871,-168.5 812,-168.5"/>
<text text-anchor="middle" x="841.5" y="-175.5" font-family="Helvetica,sans-Serif" font-size="10.00">functional</text>
</a>
</g>
</g>
<!-- Node11&#45;&gt;Node17 -->
<g id="edge22" class="edge">
<title>Node11&#45;&gt;Node17</title>
<path fill="none" stroke="midnightblue" d="M770.16,-224.32C783.42,-215.9 803.77,-202.97 819.35,-193.07"/>
<polygon fill="midnightblue" stroke="midnightblue" points="821.31,-195.97 827.88,-187.65 817.56,-190.06 821.31,-195.97"/>
</g>
<!-- Node13 -->
<g id="node13" class="node">
<title>Node13</title>
<g id="a_node13"><a xlink:href="GameObject_8hpp.html" target="_top" xlink:title=" ">
<polygon fill="none" stroke="black" points="716,-112.5 716,-131.5 805,-131.5 805,-112.5 716,-112.5"/>
<text text-anchor="middle" x="760.5" y="-119.5" font-family="Helvetica,sans-Serif" font-size="10.00">GameObject.hpp</text>
</a>
</g>
</g>
<!-- Node12&#45;&gt;Node13 -->
<g id="edge14" class="edge">
<title>Node12&#45;&gt;Node13</title>
<path fill="none" stroke="midnightblue" d="M757.16,-168.08C757.68,-161.01 758.44,-150.86 759.09,-141.99"/>
<polygon fill="midnightblue" stroke="midnightblue" points="762.6,-141.98 759.85,-131.75 755.62,-141.47 762.6,-141.98"/>
</g>
<!-- Node13&#45;&gt;Node5 -->
<g id="edge20" class="edge">
<title>Node13&#45;&gt;Node5</title>
<path fill="none" stroke="midnightblue" d="M741.49,-112.44C721.91,-103.64 691.19,-89.81 668.77,-79.72"/>
<polygon fill="midnightblue" stroke="midnightblue" points="669.98,-76.43 659.43,-75.52 667.11,-82.81 669.98,-76.43"/>
</g>
<!-- Node13&#45;&gt;Node6 -->
<g id="edge21" class="edge">
<title>Node13&#45;&gt;Node6</title>
<path fill="none" stroke="midnightblue" d="M744.77,-112.24C732.61,-104.48 716.69,-91.93 709.5,-76 702.64,-60.81 708.49,-42.23 714.96,-28.84"/>
<polygon fill="midnightblue" stroke="midnightblue" points="718.2,-30.21 719.83,-19.74 712.03,-26.91 718.2,-30.21"/>
</g>
<!-- Node13&#45;&gt;Node8 -->
<g id="edge19" class="edge">
<title>Node13&#45;&gt;Node8</title>
<path fill="none" stroke="midnightblue" d="M715.82,-113.09C653,-101.97 540.19,-81.99 486.08,-72.41"/>
<polygon fill="midnightblue" stroke="midnightblue" points="486.53,-68.94 476.08,-70.64 485.31,-75.83 486.53,-68.94"/>
</g>
<!-- Node14 -->
<g id="node14" class="node">
<title>Node14</title>
<g id="a_node14"><a xlink:href="Component_8hpp.html" target="_top" xlink:title=" ">
<polygon fill="none" stroke="black" points="718.5,-56.5 718.5,-75.5 802.5,-75.5 802.5,-56.5 718.5,-56.5"/>
<text text-anchor="middle" x="760.5" y="-63.5" font-family="Helvetica,sans-Serif" font-size="10.00">Component.hpp</text>
</a>
</g>
</g>
<!-- Node13&#45;&gt;Node14 -->
<g id="edge15" class="edge">
<title>Node13&#45;&gt;Node14</title>
<path fill="none" stroke="midnightblue" d="M760.5,-112.08C760.5,-105.01 760.5,-94.86 760.5,-85.99"/>
<polygon fill="midnightblue" stroke="midnightblue" points="764,-85.75 760.5,-75.75 757,-85.75 764,-85.75"/>
</g>
<!-- Node15 -->
<g id="node15" class="node">
<title>Node15</title>
<g id="a_node15"><a xlink:href="Transform_8hpp.html" target="_top" xlink:title=" ">
<polygon fill="none" stroke="black" points="820,-56.5 820,-75.5 899,-75.5 899,-56.5 820,-56.5"/>
<text text-anchor="middle" x="859.5" y="-63.5" font-family="Helvetica,sans-Serif" font-size="10.00">Transform.hpp</text>
</a>
</g>
</g>
<!-- Node13&#45;&gt;Node15 -->
<g id="edge17" class="edge">
<title>Node13&#45;&gt;Node15</title>
<path fill="none" stroke="midnightblue" d="M776.41,-112.32C792.14,-103.74 816.44,-90.49 834.71,-80.52"/>
<polygon fill="midnightblue" stroke="midnightblue" points="836.53,-83.52 843.63,-75.65 833.18,-77.37 836.53,-83.52"/>
</g>
<!-- Node14&#45;&gt;Node6 -->
<g id="edge16" class="edge">
<title>Node14&#45;&gt;Node6</title>
<path fill="none" stroke="midnightblue" d="M754.72,-56.08C749.83,-48.53 742.67,-37.49 736.67,-28.23"/>
<polygon fill="midnightblue" stroke="midnightblue" points="739.55,-26.24 731.17,-19.75 733.67,-30.05 739.55,-26.24"/>
</g>
<!-- Node16 -->
<g id="node16" class="node">
<title>Node16</title>
<g id="a_node16"><a xlink:href="Point_8hpp.html" target="_top" xlink:title=" ">
<polygon fill="none" stroke="black" points="831,-0.5 831,-19.5 888,-19.5 888,-0.5 831,-0.5"/>
<text text-anchor="middle" x="859.5" y="-7.5" font-family="Helvetica,sans-Serif" font-size="10.00">Point.hpp</text>
</a>
</g>
</g>
<!-- Node15&#45;&gt;Node16 -->
<g id="edge18" class="edge">
<title>Node15&#45;&gt;Node16</title>
<path fill="none" stroke="midnightblue" d="M859.5,-56.08C859.5,-49.01 859.5,-38.86 859.5,-29.99"/>
<polygon fill="midnightblue" stroke="midnightblue" points="863,-29.75 859.5,-19.75 856,-29.75 863,-29.75"/>
</g>
<!-- Node18&#45;&gt;Node8 -->
<g id="edge28" class="edge">
<title>Node18&#45;&gt;Node8</title>
<path fill="none" stroke="midnightblue" d="M73.24,-168.49C49.18,-156.17 11.97,-132.59 30.5,-112 56.81,-82.75 331.27,-71.08 424.62,-67.94"/>
<polygon fill="midnightblue" stroke="midnightblue" points="424.95,-71.43 434.83,-67.6 424.72,-64.43 424.95,-71.43"/>
</g>
<!-- Node19 -->
<g id="node19" class="node">
<title>Node19</title>
<g id="a_node19"><a xlink:href="PlayerData_8hpp.html" target="_top" xlink:title=" ">
<polygon fill="none" stroke="black" points="93.5,-112.5 93.5,-131.5 217.5,-131.5 217.5,-112.5 93.5,-112.5"/>
<text text-anchor="middle" x="155.5" y="-119.5" font-family="Helvetica,sans-Serif" font-size="10.00">../Structs/PlayerData.hpp</text>
</a>
</g>
</g>
<!-- Node18&#45;&gt;Node19 -->
<g id="edge26" class="edge">
<title>Node18&#45;&gt;Node19</title>
<path fill="none" stroke="midnightblue" d="M101.78,-168.32C111.34,-160.26 125.78,-148.08 137.28,-138.37"/>
<polygon fill="midnightblue" stroke="midnightblue" points="139.64,-140.96 145.03,-131.83 135.13,-135.61 139.64,-140.96"/>
</g>
<!-- Node20 -->
<g id="node20" class="node">
<title>Node20</title>
<g id="a_node20"><a xlink:title=" ">
<polygon fill="none" stroke="#bfbfbf" points="40,-112.5 40,-131.5 75,-131.5 75,-112.5 40,-112.5"/>
<text text-anchor="middle" x="57.5" y="-119.5" font-family="Helvetica,sans-Serif" font-size="10.00">map</text>
</a>
</g>
</g>
<!-- Node18&#45;&gt;Node20 -->
<g id="edge29" class="edge">
<title>Node18&#45;&gt;Node20</title>
<path fill="none" stroke="midnightblue" d="M85.89,-168.08C81.13,-160.53 74.18,-149.49 68.35,-140.23"/>
<polygon fill="midnightblue" stroke="midnightblue" points="71.3,-138.35 63.01,-131.75 65.38,-142.08 71.3,-138.35"/>
</g>
<!-- Node19&#45;&gt;Node8 -->
<g id="edge27" class="edge">
<title>Node19&#45;&gt;Node8</title>
<path fill="none" stroke="midnightblue" d="M203.04,-112.44C265.17,-101.26 372.25,-81.99 424.71,-72.54"/>
<polygon fill="midnightblue" stroke="midnightblue" points="425.52,-75.95 434.74,-70.74 424.28,-69.06 425.52,-75.95"/>
</g>
<!-- Node21&#45;&gt;Node4 -->
<g id="edge34" class="edge">
<title>Node21&#45;&gt;Node4</title>
<path fill="none" stroke="midnightblue" d="M550.94,-224.21C562.9,-215.91 580.33,-202.59 592.5,-188 604.49,-173.64 614.45,-154.68 620.83,-140.95"/>
<polygon fill="midnightblue" stroke="midnightblue" points="624.11,-142.19 624.99,-131.64 617.72,-139.34 624.11,-142.19"/>
</g>
<!-- Node22 -->
<g id="node22" class="node">
<title>Node22</title>
<g id="a_node22"><a xlink:href="EngineConfig_8hpp.html" target="_top" xlink:title=" ">
<polygon fill="none" stroke="black" points="492,-168.5 492,-187.5 583,-187.5 583,-168.5 492,-168.5"/>
<text text-anchor="middle" x="537.5" y="-175.5" font-family="Helvetica,sans-Serif" font-size="10.00">EngineConfig.hpp</text>
</a>
</g>
</g>
<!-- Node21&#45;&gt;Node22 -->
<g id="edge31" class="edge">
<title>Node21&#45;&gt;Node22</title>
<path fill="none" stroke="midnightblue" d="M537.5,-224.08C537.5,-217.01 537.5,-206.86 537.5,-197.99"/>
<polygon fill="midnightblue" stroke="midnightblue" points="541,-197.75 537.5,-187.75 534,-197.75 541,-197.75"/>
</g>
<!-- Node23 -->
<g id="node23" class="node">
<title>Node23</title>
<g id="a_node23"><a xlink:href="WindowConfig_8hpp.html" target="_top" xlink:title=" ">
<polygon fill="none" stroke="black" points="483.5,-112.5 483.5,-131.5 579.5,-131.5 579.5,-112.5 483.5,-112.5"/>
<text text-anchor="middle" x="531.5" y="-119.5" font-family="Helvetica,sans-Serif" font-size="10.00">WindowConfig.hpp</text>
</a>
</g>
</g>
<!-- Node22&#45;&gt;Node23 -->
<g id="edge32" class="edge">
<title>Node22&#45;&gt;Node23</title>
<path fill="none" stroke="midnightblue" d="M536.51,-168.08C535.71,-160.93 534.57,-150.64 533.58,-141.69"/>
<polygon fill="midnightblue" stroke="midnightblue" points="537.06,-141.3 532.47,-131.75 530.1,-142.08 537.06,-141.3"/>
</g>
<!-- Node23&#45;&gt;Node8 -->
<g id="edge33" class="edge">
<title>Node23&#45;&gt;Node8</title>
<path fill="none" stroke="midnightblue" d="M519.29,-112.32C507.72,-104.11 490.12,-91.6 476.34,-81.81"/>
<polygon fill="midnightblue" stroke="midnightblue" points="478.11,-78.77 467.93,-75.83 474.06,-84.48 478.11,-78.77"/>
</g>
</g>
</svg>
        <g id="navigator" transform="translate(0 0)" fill="#404254">
                <rect fill="#f2f5e9" fill-opacity="0.5" stroke="#606060" stroke-width=".5" x="0" y="0" width="60" height="60"/>
                <use id="zoomplus" xlink:href="#zoomPlus" x="17" y="9" onmousedown="handleZoom(evt,'in')"/>
                <use id="zoomminus" xlink:href="#zoomMin" x="42" y="9" onmousedown="handleZoom(evt,'out')"/>
                <use id="reset" xlink:href="#resetDef" x="30" y="36" onmousedown="handleReset()"/>
                <g id="arrowUp" xlink:href="#dirArrow" transform="translate(30 24)" onmousedown="handlePan(0,-1)">
                  <use xlink:href="#rim" fill="#404040">
                        <set attributeName="fill" to="#808080" begin="arrowUp.mouseover" end="arrowUp.mouseout"/>
                  </use>
                  <path fill="none" stroke="white" stroke-width="1.5" d="M0,-3.0v7 M-2.5,-0.5L0,-3.0L2.5,-0.5"/>
                </g>
                <g id="arrowRight" xlink:href="#dirArrow" transform="rotate(90) translate(36 -43)" onmousedown="handlePan(1,0)">
                  <use xlink:href="#rim" fill="#404040">
                        <set attributeName="fill" to="#808080" begin="arrowRight.mouseover" end="arrowRight.mouseout"/>
                  </use>
                  <path fill="none" stroke="white" stroke-width="1.5" d="M0,-3.0v7 M-2.5,-0.5L0,-3.0L2.5,-0.5"/>
                </g>
                <g id="arrowDown" xlink:href="#dirArrow" transform="rotate(180) translate(-30 -48)" onmousedown="handlePan(0,1)">
                  <use xlink:href="#rim" fill="#404040">
                        <set attributeName="fill" to="#808080" begin="arrowDown.mouseover" end="arrowDown.mouseout"/>
                  </use>
                  <path fill="none" stroke="white" stroke-width="1.5" d="M0,-3.0v7 M-2.5,-0.5L0,-3.0L2.5,-0.5"/>
                </g>
                <g id="arrowLeft" xlink:href="#dirArrow" transform="rotate(270) translate(-36 17)" onmousedown="handlePan(-1,0)">
                  <use xlink:href="#rim" fill="#404040">
                        <set attributeName="fill" to="#808080" begin="arrowLeft.mouseover" end="arrowLeft.mouseout"/>
                  </use>
                  <path fill="none" stroke="white" stroke-width="1.5" d="M0,-3.0v7 M-2.5,-0.5L0,-3.0L2.5,-0.5"/>
                </g>
        </g>
        <svg viewBox="0 0 15 15" width="100%" height="30px" preserveAspectRatio="xMaxYMin meet">
         <g id="arrow_out" transform="scale(0.3 0.3)">
          <a xlink:href="SaveSelectionScene_8cpp__incl_org.svg" target="_base">
           <rect id="button" ry="5" rx="5" y="6" x="6" height="38" width="38"
                fill="#f2f5e9" fill-opacity="0.5" stroke="#606060" stroke-width="1.0"/>
           <path id="arrow"
             d="M 11.500037,31.436501 C 11.940474,20.09759 22.043105,11.32322 32.158766,21.979434 L 37.068811,17.246167 C 37.068811,17.246167 37.088388,32 37.088388,32 L 22.160133,31.978069 C 22.160133,31.978069 26.997745,27.140456 26.997745,27.140456 C 18.528582,18.264221 13.291696,25.230495 11.500037,31.436501 z"
             style="fill:#404040;"/>
          </a>
         </g>
        </svg>
</svg>
