<?xml version="1.0" encoding="UTF-8" standalone="no"?>
<!DOCTYPE svg PUBLIC "-//W3C//DTD SVG 1.1//EN"
 "http://www.w3.org/Graphics/SVG/1.1/DTD/svg11.dtd">
<!-- Generated by graphviz version 2.44.0 ()
 -->
<!-- Title: src/Persistence/SaveGameManager.cpp Pages: 1 -->
<svg width="689pt" height="207pt"
 viewBox="0.00 0.00 688.50 207.00" xmlns="http://www.w3.org/2000/svg" xmlns:xlink="http://www.w3.org/1999/xlink">
<g id="graph0" class="graph" transform="scale(1 1) rotate(0) translate(4 203)">
<title>src/Persistence/SaveGameManager.cpp</title>
<!-- Node1 -->
<g id="node1" class="node">
<title>Node1</title>
<g id="a_node1"><a xlink:title=" ">
<polygon fill="#bfbfbf" stroke="black" points="330.5,-168.5 330.5,-198.5 467.5,-198.5 467.5,-168.5 330.5,-168.5"/>
<text text-anchor="start" x="338.5" y="-186.5" font-family="Helvetica,sans-Serif" font-size="10.00">src/Persistence/SaveGame</text>
<text text-anchor="middle" x="399" y="-175.5" font-family="Helvetica,sans-Serif" font-size="10.00">Manager.cpp</text>
</a>
</g>
</g>
<!-- Node2 -->
<g id="node2" class="node">
<title>Node2</title>
<g id="a_node2"><a xlink:href="SaveGameManager_8hpp.html" target="_top" xlink:title=" ">
<polygon fill="none" stroke="black" points="111.5,-112.5 111.5,-131.5 232.5,-131.5 232.5,-112.5 111.5,-112.5"/>
<text text-anchor="middle" x="172" y="-119.5" font-family="Helvetica,sans-Serif" font-size="10.00">SaveGameManager.hpp</text>
</a>
</g>
</g>
<!-- Node1&#45;&gt;Node2 -->
<g id="edge1" class="edge">
<title>Node1&#45;&gt;Node2</title>
<path fill="none" stroke="midnightblue" d="M345.49,-168.47C305.47,-157.99 251.49,-143.84 214.43,-134.12"/>
<polygon fill="midnightblue" stroke="midnightblue" points="215.01,-130.66 204.45,-131.51 213.24,-137.43 215.01,-130.66"/>
</g>
<!-- Node7 -->
<g id="node7" class="node">
<title>Node7</title>
<g id="a_node7"><a xlink:href="FileManager_8hpp.html" target="_top" xlink:title=" ">
<polygon fill="none" stroke="black" points="268,-112.5 268,-131.5 402,-131.5 402,-112.5 268,-112.5"/>
<text text-anchor="middle" x="335" y="-119.5" font-family="Helvetica,sans-Serif" font-size="10.00">Managers/FileManager.hpp</text>
</a>
</g>
</g>
<!-- Node1&#45;&gt;Node7 -->
<g id="edge7" class="edge">
<title>Node1&#45;&gt;Node7</title>
<path fill="none" stroke="midnightblue" d="M383.83,-168.4C374.25,-159.49 361.84,-147.95 351.93,-138.74"/>
<polygon fill="midnightblue" stroke="midnightblue" points="354.02,-135.9 344.31,-131.66 349.25,-141.03 354.02,-135.9"/>
</g>
<!-- Node10 -->
<g id="node10" class="node">
<title>Node10</title>
<g id="a_node10"><a xlink:href="JsonFacade_8hpp.html" target="_top" xlink:title=" ">
<polygon fill="none" stroke="black" points="430,-112.5 430,-131.5 518,-131.5 518,-112.5 430,-112.5"/>
<text text-anchor="middle" x="474" y="-119.5" font-family="Helvetica,sans-Serif" font-size="10.00">JsonFacade.hpp</text>
</a>
</g>
</g>
<!-- Node1&#45;&gt;Node10 -->
<g id="edge12" class="edge">
<title>Node1&#45;&gt;Node10</title>
<path fill="none" stroke="midnightblue" d="M416.77,-168.4C428.35,-159.22 443.42,-147.26 455.2,-137.92"/>
<polygon fill="midnightblue" stroke="midnightblue" points="457.43,-140.61 463.09,-131.66 453.08,-135.13 457.43,-140.61"/>
</g>
<!-- Node11 -->
<g id="node11" class="node">
<title>Node11</title>
<g id="a_node11"><a xlink:href="Debug_8hpp.html" target="_top" xlink:title=" ">
<polygon fill="none" stroke="black" points="542,-112.5 542,-131.5 604,-131.5 604,-112.5 542,-112.5"/>
<text text-anchor="middle" x="573" y="-119.5" font-family="Helvetica,sans-Serif" font-size="10.00">Debug.hpp</text>
</a>
</g>
</g>
<!-- Node1&#45;&gt;Node11 -->
<g id="edge14" class="edge">
<title>Node1&#45;&gt;Node11</title>
<path fill="none" stroke="midnightblue" d="M440.24,-168.4C470.17,-158.16 510.21,-144.47 538.47,-134.81"/>
<polygon fill="midnightblue" stroke="midnightblue" points="539.61,-138.12 547.94,-131.57 537.34,-131.49 539.61,-138.12"/>
</g>
<!-- Node3 -->
<g id="node3" class="node">
<title>Node3</title>
<g id="a_node3"><a xlink:href="PlayerData_8hpp.html" target="_top" xlink:title=" ">
<polygon fill="none" stroke="black" points="0,-56.5 0,-75.5 124,-75.5 124,-56.5 0,-56.5"/>
<text text-anchor="middle" x="62" y="-63.5" font-family="Helvetica,sans-Serif" font-size="10.00">../Structs/PlayerData.hpp</text>
</a>
</g>
</g>
<!-- Node2&#45;&gt;Node3 -->
<g id="edge2" class="edge">
<title>Node2&#45;&gt;Node3</title>
<path fill="none" stroke="midnightblue" d="M154.33,-112.32C136.61,-103.62 109.1,-90.12 88.71,-80.11"/>
<polygon fill="midnightblue" stroke="midnightblue" points="90.15,-76.92 79.63,-75.65 87.06,-83.2 90.15,-76.92"/>
</g>
<!-- Node4 -->
<g id="node4" class="node">
<title>Node4</title>
<g id="a_node4"><a xlink:title=" ">
<polygon fill="none" stroke="#bfbfbf" points="267.5,-0.5 267.5,-19.5 308.5,-19.5 308.5,-0.5 267.5,-0.5"/>
<text text-anchor="middle" x="288" y="-7.5" font-family="Helvetica,sans-Serif" font-size="10.00">string</text>
</a>
</g>
</g>
<!-- Node2&#45;&gt;Node4 -->
<g id="edge5" class="edge">
<title>Node2&#45;&gt;Node4</title>
<path fill="none" stroke="midnightblue" d="M168.88,-112.09C164.78,-98.64 159.37,-72.93 171,-56 190.23,-28 229.49,-17.42 257.22,-13.42"/>
<polygon fill="midnightblue" stroke="midnightblue" points="257.72,-16.88 267.22,-12.19 256.86,-9.94 257.72,-16.88"/>
</g>
<!-- Node6 -->
<g id="node6" class="node">
<title>Node6</title>
<g id="a_node6"><a xlink:title=" ">
<polygon fill="none" stroke="#bfbfbf" points="180.5,-56.5 180.5,-75.5 215.5,-75.5 215.5,-56.5 180.5,-56.5"/>
<text text-anchor="middle" x="198" y="-63.5" font-family="Helvetica,sans-Serif" font-size="10.00">map</text>
</a>
</g>
</g>
<!-- Node2&#45;&gt;Node6 -->
<g id="edge6" class="edge">
<title>Node2&#45;&gt;Node6</title>
<path fill="none" stroke="midnightblue" d="M176.29,-112.08C179.85,-104.69 185.02,-93.95 189.42,-84.81"/>
<polygon fill="midnightblue" stroke="midnightblue" points="192.6,-86.28 193.79,-75.75 186.29,-83.24 192.6,-86.28"/>
</g>
<!-- Node3&#45;&gt;Node4 -->
<g id="edge3" class="edge">
<title>Node3&#45;&gt;Node4</title>
<path fill="none" stroke="midnightblue" d="M97.81,-56.44C141.87,-45.92 215.92,-28.22 257.43,-18.3"/>
<polygon fill="midnightblue" stroke="midnightblue" points="258.33,-21.69 267.24,-15.96 256.7,-14.88 258.33,-21.69"/>
</g>
<!-- Node5 -->
<g id="node5" class="node">
<title>Node5</title>
<g id="a_node5"><a xlink:href="HeroName_8hpp.html" target="_top" xlink:title=" ">
<polygon fill="none" stroke="black" points="1,-0.5 1,-19.5 123,-19.5 123,-0.5 1,-0.5"/>
<text text-anchor="middle" x="62" y="-7.5" font-family="Helvetica,sans-Serif" font-size="10.00">../Enums/HeroName.hpp</text>
</a>
</g>
</g>
<!-- Node3&#45;&gt;Node5 -->
<g id="edge4" class="edge">
<title>Node3&#45;&gt;Node5</title>
<path fill="none" stroke="midnightblue" d="M62,-56.08C62,-49.01 62,-38.86 62,-29.99"/>
<polygon fill="midnightblue" stroke="midnightblue" points="65.5,-29.75 62,-19.75 58.5,-29.75 65.5,-29.75"/>
</g>
<!-- Node7&#45;&gt;Node4 -->
<g id="edge10" class="edge">
<title>Node7&#45;&gt;Node4</title>
<path fill="none" stroke="midnightblue" d="M309.5,-112.47C293.01,-105.48 272.86,-93.79 263,-76 254.35,-60.39 263.99,-41.16 273.71,-27.68"/>
<polygon fill="midnightblue" stroke="midnightblue" points="276.5,-29.79 279.91,-19.75 270.99,-25.47 276.5,-29.79"/>
</g>
<!-- Node8 -->
<g id="node8" class="node">
<title>Node8</title>
<g id="a_node8"><a xlink:href="libs_2spic-engine_2includes_2spic-api-headers_2Structs_2FolderFile_8hpp.html" target="_top" xlink:title=" ">
<polygon fill="none" stroke="black" points="272.5,-56.5 272.5,-75.5 391.5,-75.5 391.5,-56.5 272.5,-56.5"/>
<text text-anchor="middle" x="332" y="-63.5" font-family="Helvetica,sans-Serif" font-size="10.00">../Structs/FolderFile.hpp</text>
</a>
</g>
</g>
<!-- Node7&#45;&gt;Node8 -->
<g id="edge8" class="edge">
<title>Node7&#45;&gt;Node8</title>
<path fill="none" stroke="midnightblue" d="M334.5,-112.08C334.11,-105.01 333.55,-94.86 333.05,-85.99"/>
<polygon fill="midnightblue" stroke="midnightblue" points="336.54,-85.54 332.49,-75.75 329.55,-85.93 336.54,-85.54"/>
</g>
<!-- Node9 -->
<g id="node9" class="node">
<title>Node9</title>
<g id="a_node9"><a xlink:title=" ">
<polygon fill="none" stroke="#bfbfbf" points="410,-56.5 410,-75.5 454,-75.5 454,-56.5 410,-56.5"/>
<text text-anchor="middle" x="432" y="-63.5" font-family="Helvetica,sans-Serif" font-size="10.00">vector</text>
</a>
</g>
</g>
<!-- Node7&#45;&gt;Node9 -->
<g id="edge11" class="edge">
<title>Node7&#45;&gt;Node9</title>
<path fill="none" stroke="midnightblue" d="M350.58,-112.32C366,-103.74 389.81,-90.49 407.71,-80.52"/>
<polygon fill="midnightblue" stroke="midnightblue" points="409.42,-83.58 416.45,-75.65 406.01,-77.46 409.42,-83.58"/>
</g>
<!-- Node8&#45;&gt;Node4 -->
<g id="edge9" class="edge">
<title>Node8&#45;&gt;Node4</title>
<path fill="none" stroke="midnightblue" d="M324.73,-56.08C318.46,-48.38 309.21,-37.03 301.57,-27.65"/>
<polygon fill="midnightblue" stroke="midnightblue" points="304.16,-25.29 295.13,-19.75 298.73,-29.71 304.16,-25.29"/>
</g>
<!-- Node10&#45;&gt;Node4 -->
<g id="edge13" class="edge">
<title>Node10&#45;&gt;Node4</title>
<path fill="none" stroke="midnightblue" d="M475.26,-112.15C476.7,-98.3 477.25,-71.5 463,-56 443.69,-34.99 363.45,-21.12 318.63,-14.85"/>
<polygon fill="midnightblue" stroke="midnightblue" points="318.97,-11.36 308.59,-13.49 318.03,-18.3 318.97,-11.36"/>
</g>
<!-- Node11&#45;&gt;Node4 -->
<g id="edge17" class="edge">
<title>Node11&#45;&gt;Node4</title>
<path fill="none" stroke="midnightblue" d="M563.69,-112.41C548.04,-98.44 514.91,-70.86 482,-56 427.44,-31.37 357.95,-19.47 318.68,-14.35"/>
<polygon fill="midnightblue" stroke="midnightblue" points="319.03,-10.87 308.67,-13.11 318.16,-17.81 319.03,-10.87"/>
</g>
<!-- Node12 -->
<g id="node12" class="node">
<title>Node12</title>
<g id="a_node12"><a xlink:href="Point_8hpp.html" target="_top" xlink:title=" ">
<polygon fill="none" stroke="black" points="548.5,-56.5 548.5,-75.5 605.5,-75.5 605.5,-56.5 548.5,-56.5"/>
<text text-anchor="middle" x="577" y="-63.5" font-family="Helvetica,sans-Serif" font-size="10.00">Point.hpp</text>
</a>
</g>
</g>
<!-- Node11&#45;&gt;Node12 -->
<g id="edge15" class="edge">
<title>Node11&#45;&gt;Node12</title>
<path fill="none" stroke="midnightblue" d="M573.66,-112.08C574.18,-105.01 574.94,-94.86 575.59,-85.99"/>
<polygon fill="midnightblue" stroke="midnightblue" points="579.1,-85.98 576.35,-75.75 572.12,-85.47 579.1,-85.98"/>
</g>
<!-- Node13 -->
<g id="node13" class="node">
<title>Node13</title>
<g id="a_node13"><a xlink:href="Color_8hpp.html" target="_top" xlink:title=" ">
<polygon fill="none" stroke="black" points="623.5,-56.5 623.5,-75.5 680.5,-75.5 680.5,-56.5 623.5,-56.5"/>
<text text-anchor="middle" x="652" y="-63.5" font-family="Helvetica,sans-Serif" font-size="10.00">Color.hpp</text>
</a>
</g>
</g>
<!-- Node11&#45;&gt;Node13 -->
<g id="edge16" class="edge">
<title>Node11&#45;&gt;Node13</title>
<path fill="none" stroke="midnightblue" d="M585.69,-112.32C597.9,-103.98 616.58,-91.21 631,-81.35"/>
<polygon fill="midnightblue" stroke="midnightblue" points="633.06,-84.19 639.34,-75.65 629.11,-78.41 633.06,-84.19"/>
</g>
</g>
</svg>
