<?xml version="1.0" encoding="UTF-8" standalone="no"?>
<!DOCTYPE svg PUBLIC "-//W3C//DTD SVG 1.1//EN"
 "http://www.w3.org/Graphics/SVG/1.1/DTD/svg11.dtd">
<!-- Generated by graphviz version 2.44.0 ()
 -->
<!-- Title: src/Controllers/SaveGameController.cpp Pages: 1 -->
<svg width="424pt" height="319pt"
 viewBox="0.00 0.00 424.25 319.00" xmlns="http://www.w3.org/2000/svg" xmlns:xlink="http://www.w3.org/1999/xlink">
<g id="graph0" class="graph" transform="scale(1 1) rotate(0) translate(4 315)">
<title>src/Controllers/SaveGameController.cpp</title>
<!-- Node1 -->
<g id="node1" class="node">
<title>Node1</title>
<g id="a_node1"><a xlink:title=" ">
<polygon fill="#bfbfbf" stroke="black" points="129.75,-280.5 129.75,-310.5 260.75,-310.5 260.75,-280.5 129.75,-280.5"/>
<text text-anchor="start" x="137.75" y="-298.5" font-family="Helvetica,sans-Serif" font-size="10.00">src/Controllers/SaveGame</text>
<text text-anchor="middle" x="195.25" y="-287.5" font-family="Helvetica,sans-Serif" font-size="10.00">Controller.cpp</text>
</a>
</g>
</g>
<!-- Node2 -->
<g id="node2" class="node">
<title>Node2</title>
<g id="a_node2"><a xlink:href="SaveGameController_8hpp.html" target="_top" xlink:title=" ">
<polygon fill="none" stroke="black" points="218.75,-224.5 218.75,-243.5 343.75,-243.5 343.75,-224.5 218.75,-224.5"/>
<text text-anchor="middle" x="281.25" y="-231.5" font-family="Helvetica,sans-Serif" font-size="10.00">SaveGameController.hpp</text>
</a>
</g>
</g>
<!-- Node1&#45;&gt;Node2 -->
<g id="edge1" class="edge">
<title>Node1&#45;&gt;Node2</title>
<path fill="none" stroke="midnightblue" d="M215.63,-280.4C229.16,-271.04 246.86,-258.79 260.47,-249.38"/>
<polygon fill="midnightblue" stroke="midnightblue" points="262.51,-252.23 268.74,-243.66 258.52,-246.47 262.51,-252.23"/>
</g>
<!-- Node8 -->
<g id="node8" class="node">
<title>Node8</title>
<g id="a_node8"><a xlink:title=" ">
<polygon fill="none" stroke="#bfbfbf" points="61.75,-112.5 61.75,-131.5 102.75,-131.5 102.75,-112.5 61.75,-112.5"/>
<text text-anchor="middle" x="82.25" y="-119.5" font-family="Helvetica,sans-Serif" font-size="10.00">string</text>
</a>
</g>
</g>
<!-- Node1&#45;&gt;Node8 -->
<g id="edge16" class="edge">
<title>Node1&#45;&gt;Node8</title>
<path fill="none" stroke="midnightblue" d="M129.61,-285.34C81.9,-277.18 23.18,-263.49 8.25,-244 -19.27,-208.06 30.9,-161.33 61.37,-137.85"/>
<polygon fill="midnightblue" stroke="midnightblue" points="63.81,-140.4 69.73,-131.61 59.62,-134.79 63.81,-140.4"/>
</g>
<!-- Node10 -->
<g id="node10" class="node">
<title>Node10</title>
<g id="a_node10"><a xlink:href="SaveGameManager_8hpp.html" target="_top" xlink:title=" ">
<polygon fill="none" stroke="black" points="17.75,-224.5 17.75,-243.5 200.75,-243.5 200.75,-224.5 17.75,-224.5"/>
<text text-anchor="middle" x="109.25" y="-231.5" font-family="Helvetica,sans-Serif" font-size="10.00">../Persistence/SaveGameManager.hpp</text>
</a>
</g>
</g>
<!-- Node1&#45;&gt;Node10 -->
<g id="edge11" class="edge">
<title>Node1&#45;&gt;Node10</title>
<path fill="none" stroke="midnightblue" d="M174.87,-280.4C161.34,-271.04 143.64,-258.79 130.03,-249.38"/>
<polygon fill="midnightblue" stroke="midnightblue" points="131.98,-246.47 121.76,-243.66 128,-252.23 131.98,-246.47"/>
</g>
<!-- Node11 -->
<g id="node11" class="node">
<title>Node11</title>
<g id="a_node11"><a xlink:title=" ">
<polygon fill="none" stroke="#bfbfbf" points="362.25,-224.5 362.25,-243.5 416.25,-243.5 416.25,-224.5 362.25,-224.5"/>
<text text-anchor="middle" x="389.25" y="-231.5" font-family="Helvetica,sans-Serif" font-size="10.00">iostream</text>
</a>
</g>
</g>
<!-- Node1&#45;&gt;Node11 -->
<g id="edge15" class="edge">
<title>Node1&#45;&gt;Node11</title>
<path fill="none" stroke="midnightblue" d="M241.23,-280.4C275.2,-269.98 320.84,-255.98 352.42,-246.3"/>
<polygon fill="midnightblue" stroke="midnightblue" points="353.61,-249.59 362.15,-243.31 351.56,-242.9 353.61,-249.59"/>
</g>
<!-- Node3 -->
<g id="node3" class="node">
<title>Node3</title>
<g id="a_node3"><a xlink:href="BehaviourScript_8hpp.html" target="_top" xlink:title=" ">
<polygon fill="none" stroke="black" points="299.25,-168.5 299.25,-187.5 403.25,-187.5 403.25,-168.5 299.25,-168.5"/>
<text text-anchor="middle" x="351.25" y="-175.5" font-family="Helvetica,sans-Serif" font-size="10.00">BehaviourScript.hpp</text>
</a>
</g>
</g>
<!-- Node2&#45;&gt;Node3 -->
<g id="edge2" class="edge">
<title>Node2&#45;&gt;Node3</title>
<path fill="none" stroke="midnightblue" d="M292.5,-224.32C303.05,-216.18 319.05,-203.84 331.69,-194.09"/>
<polygon fill="midnightblue" stroke="midnightblue" points="334.02,-196.71 339.8,-187.83 329.74,-191.17 334.02,-196.71"/>
</g>
<!-- Node7 -->
<g id="node7" class="node">
<title>Node7</title>
<g id="a_node7"><a xlink:href="PlayerData_8hpp.html" target="_top" xlink:title=" ">
<polygon fill="none" stroke="black" points="65.25,-168.5 65.25,-187.5 189.25,-187.5 189.25,-168.5 65.25,-168.5"/>
<text text-anchor="middle" x="127.25" y="-175.5" font-family="Helvetica,sans-Serif" font-size="10.00">../Structs/PlayerData.hpp</text>
</a>
</g>
</g>
<!-- Node2&#45;&gt;Node7 -->
<g id="edge7" class="edge">
<title>Node2&#45;&gt;Node7</title>
<path fill="none" stroke="midnightblue" d="M256.85,-224.44C231.05,-215.4 190.17,-201.06 161.23,-190.92"/>
<polygon fill="midnightblue" stroke="midnightblue" points="162.13,-187.52 151.54,-187.52 159.82,-194.13 162.13,-187.52"/>
</g>
<!-- Node2&#45;&gt;Node8 -->
<g id="edge9" class="edge">
<title>Node2&#45;&gt;Node8</title>
<path fill="none" stroke="midnightblue" d="M279.86,-224.42C277.13,-210.46 269.76,-182.89 252.25,-168 212.57,-134.24 150.25,-125.49 113.1,-123.41"/>
<polygon fill="midnightblue" stroke="midnightblue" points="113.03,-119.91 102.89,-122.97 112.73,-126.9 113.03,-119.91"/>
</g>
<!-- Node9 -->
<g id="node9" class="node">
<title>Node9</title>
<g id="a_node9"><a xlink:title=" ">
<polygon fill="none" stroke="#bfbfbf" points="207.75,-168.5 207.75,-187.5 242.75,-187.5 242.75,-168.5 207.75,-168.5"/>
<text text-anchor="middle" x="225.25" y="-175.5" font-family="Helvetica,sans-Serif" font-size="10.00">map</text>
</a>
</g>
</g>
<!-- Node2&#45;&gt;Node9 -->
<g id="edge10" class="edge">
<title>Node2&#45;&gt;Node9</title>
<path fill="none" stroke="midnightblue" d="M272.25,-224.32C264.06,-216.42 251.75,-204.55 241.78,-194.94"/>
<polygon fill="midnightblue" stroke="midnightblue" points="244.04,-192.26 234.41,-187.83 239.18,-197.29 244.04,-192.26"/>
</g>
<!-- Node4 -->
<g id="node4" class="node">
<title>Node4</title>
<g id="a_node4"><a xlink:href="Component_8hpp.html" target="_top" xlink:title=" ">
<polygon fill="none" stroke="black" points="309.25,-56.5 309.25,-75.5 393.25,-75.5 393.25,-56.5 309.25,-56.5"/>
<text text-anchor="middle" x="351.25" y="-63.5" font-family="Helvetica,sans-Serif" font-size="10.00">Component.hpp</text>
</a>
</g>
</g>
<!-- Node3&#45;&gt;Node4 -->
<g id="edge3" class="edge">
<title>Node3&#45;&gt;Node4</title>
<path fill="none" stroke="midnightblue" d="M354.34,-168.17C357.3,-159.2 361.57,-144.83 363.25,-132 365.32,-116.18 361.6,-98.36 357.77,-85.39"/>
<polygon fill="midnightblue" stroke="midnightblue" points="361.07,-84.22 354.65,-75.79 354.41,-86.38 361.07,-84.22"/>
</g>
<!-- Node6 -->
<g id="node6" class="node">
<title>Node6</title>
<g id="a_node6"><a xlink:href="Collider_8hpp.html" target="_top" xlink:title=" ">
<polygon fill="none" stroke="black" points="286.75,-112.5 286.75,-131.5 353.75,-131.5 353.75,-112.5 286.75,-112.5"/>
<text text-anchor="middle" x="320.25" y="-119.5" font-family="Helvetica,sans-Serif" font-size="10.00">Collider.hpp</text>
</a>
</g>
</g>
<!-- Node3&#45;&gt;Node6 -->
<g id="edge5" class="edge">
<title>Node3&#45;&gt;Node6</title>
<path fill="none" stroke="midnightblue" d="M346.13,-168.08C341.84,-160.61 335.59,-149.72 330.31,-140.52"/>
<polygon fill="midnightblue" stroke="midnightblue" points="333.29,-138.68 325.27,-131.75 327.22,-142.17 333.29,-138.68"/>
</g>
<!-- Node5 -->
<g id="node5" class="node">
<title>Node5</title>
<g id="a_node5"><a xlink:title=" ">
<polygon fill="none" stroke="#bfbfbf" points="325.75,-0.5 325.75,-19.5 376.75,-19.5 376.75,-0.5 325.75,-0.5"/>
<text text-anchor="middle" x="351.25" y="-7.5" font-family="Helvetica,sans-Serif" font-size="10.00">memory</text>
</a>
</g>
</g>
<!-- Node4&#45;&gt;Node5 -->
<g id="edge4" class="edge">
<title>Node4&#45;&gt;Node5</title>
<path fill="none" stroke="midnightblue" d="M351.25,-56.08C351.25,-49.01 351.25,-38.86 351.25,-29.99"/>
<polygon fill="midnightblue" stroke="midnightblue" points="354.75,-29.75 351.25,-19.75 347.75,-29.75 354.75,-29.75"/>
</g>
<!-- Node6&#45;&gt;Node4 -->
<g id="edge6" class="edge">
<title>Node6&#45;&gt;Node4</title>
<path fill="none" stroke="midnightblue" d="M325.37,-112.08C329.66,-104.61 335.91,-93.72 341.19,-84.52"/>
<polygon fill="midnightblue" stroke="midnightblue" points="344.28,-86.17 346.23,-75.75 338.21,-82.68 344.28,-86.17"/>
</g>
<!-- Node7&#45;&gt;Node8 -->
<g id="edge8" class="edge">
<title>Node7&#45;&gt;Node8</title>
<path fill="none" stroke="midnightblue" d="M119.82,-168.08C113.4,-160.38 103.95,-149.03 96.13,-139.65"/>
<polygon fill="midnightblue" stroke="midnightblue" points="98.63,-137.19 89.54,-131.75 93.26,-141.67 98.63,-137.19"/>
</g>
<!-- Node10&#45;&gt;Node7 -->
<g id="edge12" class="edge">
<title>Node10&#45;&gt;Node7</title>
<path fill="none" stroke="midnightblue" d="M112.22,-224.08C114.63,-216.85 118.11,-206.41 121.12,-197.4"/>
<polygon fill="midnightblue" stroke="midnightblue" points="124.49,-198.34 124.33,-187.75 117.85,-196.13 124.49,-198.34"/>
</g>
<!-- Node10&#45;&gt;Node8 -->
<g id="edge13" class="edge">
<title>Node10&#45;&gt;Node8</title>
<path fill="none" stroke="midnightblue" d="M92.92,-224.39C80.3,-216.72 63.75,-204.21 56.25,-188 48.79,-171.87 58.34,-152.95 67.9,-139.7"/>
<polygon fill="midnightblue" stroke="midnightblue" points="70.89,-141.56 74.31,-131.54 65.38,-137.24 70.89,-141.56"/>
</g>
<!-- Node10&#45;&gt;Node9 -->
<g id="edge14" class="edge">
<title>Node10&#45;&gt;Node9</title>
<path fill="none" stroke="midnightblue" d="M127.63,-224.44C146.69,-215.57 176.68,-201.61 198.39,-191.5"/>
<polygon fill="midnightblue" stroke="midnightblue" points="200.13,-194.56 207.72,-187.16 197.17,-188.21 200.13,-194.56"/>
</g>
</g>
</svg>
