<?xml version="1.0" encoding="UTF-8" standalone="no"?>
<!DOCTYPE svg PUBLIC "-//W3C//DTD SVG 1.1//EN"
 "http://www.w3.org/Graphics/SVG/1.1/DTD/svg11.dtd">
<!-- Generated by graphviz version 2.44.0 ()
 -->
<!-- Title: src/Scenes/SaveSelectionScene.hpp Pages: 1 -->
<svg width="465pt" height="207pt"
 viewBox="0.00 0.00 465.00 207.00" xmlns="http://www.w3.org/2000/svg" xmlns:xlink="http://www.w3.org/1999/xlink">
<g id="graph0" class="graph" transform="scale(1 1) rotate(0) translate(4 203)">
<title>src/Scenes/SaveSelectionScene.hpp</title>
<!-- Node1 -->
<g id="node1" class="node">
<title>Node1</title>
<g id="a_node1"><a xlink:title=" ">
<polygon fill="#bfbfbf" stroke="black" points="219,-168.5 219,-198.5 351,-198.5 351,-168.5 219,-168.5"/>
<text text-anchor="start" x="227" y="-186.5" font-family="Helvetica,sans-Serif" font-size="10.00">src/Scenes/SaveSelection</text>
<text text-anchor="middle" x="285" y="-175.5" font-family="Helvetica,sans-Serif" font-size="10.00">Scene.hpp</text>
</a>
</g>
</g>
<!-- Node2 -->
<g id="node2" class="node">
<title>Node2</title>
<g id="a_node2"><a xlink:href="MenuScene_8hpp.html" target="_top" xlink:title=" ">
<polygon fill="none" stroke="black" points="160,-112.5 160,-131.5 246,-131.5 246,-112.5 160,-112.5"/>
<text text-anchor="middle" x="203" y="-119.5" font-family="Helvetica,sans-Serif" font-size="10.00">MenuScene.hpp</text>
</a>
</g>
</g>
<!-- Node1&#45;&gt;Node2 -->
<g id="edge1" class="edge">
<title>Node1&#45;&gt;Node2</title>
<path fill="none" stroke="midnightblue" d="M265.57,-168.4C252.79,-159.13 236.11,-147.03 223.19,-137.65"/>
<polygon fill="midnightblue" stroke="midnightblue" points="225.08,-134.7 214.93,-131.66 220.97,-140.36 225.08,-134.7"/>
</g>
<!-- Node7 -->
<g id="node7" class="node">
<title>Node7</title>
<g id="a_node7"><a xlink:title=" ">
<polygon fill="none" stroke="#bfbfbf" points="275.5,-56.5 275.5,-75.5 316.5,-75.5 316.5,-56.5 275.5,-56.5"/>
<text text-anchor="middle" x="296" y="-63.5" font-family="Helvetica,sans-Serif" font-size="10.00">string</text>
</a>
</g>
</g>
<!-- Node1&#45;&gt;Node7 -->
<g id="edge10" class="edge">
<title>Node1&#45;&gt;Node7</title>
<path fill="none" stroke="midnightblue" d="M286.35,-168.34C288.32,-147.62 292,-109.02 294.2,-85.9"/>
<polygon fill="midnightblue" stroke="midnightblue" points="297.71,-85.96 295.17,-75.67 290.74,-85.29 297.71,-85.96"/>
</g>
<!-- Node8 -->
<g id="node8" class="node">
<title>Node8</title>
<g id="a_node8"><a xlink:href="PlayerData_8hpp.html" target="_top" xlink:title=" ">
<polygon fill="none" stroke="black" points="313,-112.5 313,-131.5 437,-131.5 437,-112.5 313,-112.5"/>
<text text-anchor="middle" x="375" y="-119.5" font-family="Helvetica,sans-Serif" font-size="10.00">../Structs/PlayerData.hpp</text>
</a>
</g>
</g>
<!-- Node1&#45;&gt;Node8 -->
<g id="edge7" class="edge">
<title>Node1&#45;&gt;Node8</title>
<path fill="none" stroke="midnightblue" d="M306.33,-168.4C320.49,-159.04 339.01,-146.79 353.25,-137.38"/>
<polygon fill="midnightblue" stroke="midnightblue" points="355.49,-140.09 361.9,-131.66 351.63,-134.25 355.49,-140.09"/>
</g>
<!-- Node3 -->
<g id="node3" class="node">
<title>Node3</title>
<g id="a_node3"><a xlink:href="Scene_8hpp.html" target="_top" xlink:title=" ">
<polygon fill="none" stroke="black" points="24,-56.5 24,-75.5 86,-75.5 86,-56.5 24,-56.5"/>
<text text-anchor="middle" x="55" y="-63.5" font-family="Helvetica,sans-Serif" font-size="10.00">Scene.hpp</text>
</a>
</g>
</g>
<!-- Node2&#45;&gt;Node3 -->
<g id="edge2" class="edge">
<title>Node2&#45;&gt;Node3</title>
<path fill="none" stroke="midnightblue" d="M179.55,-112.44C154.87,-103.44 115.81,-89.19 88.02,-79.05"/>
<polygon fill="midnightblue" stroke="midnightblue" points="88.94,-75.66 78.34,-75.52 86.54,-82.23 88.94,-75.66"/>
</g>
<!-- Node6 -->
<g id="node6" class="node">
<title>Node6</title>
<g id="a_node6"><a xlink:href="BackgroundName_8hpp.html" target="_top" xlink:title=" ">
<polygon fill="none" stroke="black" points="104.5,-56.5 104.5,-75.5 257.5,-75.5 257.5,-56.5 104.5,-56.5"/>
<text text-anchor="middle" x="181" y="-63.5" font-family="Helvetica,sans-Serif" font-size="10.00">../Enums/BackgroundName.hpp</text>
</a>
</g>
</g>
<!-- Node2&#45;&gt;Node6 -->
<g id="edge5" class="edge">
<title>Node2&#45;&gt;Node6</title>
<path fill="none" stroke="midnightblue" d="M199.37,-112.08C196.39,-104.77 192.07,-94.18 188.38,-85.1"/>
<polygon fill="midnightblue" stroke="midnightblue" points="191.58,-83.69 184.57,-75.75 185.1,-86.33 191.58,-83.69"/>
</g>
<!-- Node2&#45;&gt;Node7 -->
<g id="edge6" class="edge">
<title>Node2&#45;&gt;Node7</title>
<path fill="none" stroke="midnightblue" d="M217.94,-112.32C232.59,-103.82 255.13,-90.73 272.24,-80.8"/>
<polygon fill="midnightblue" stroke="midnightblue" points="274.2,-83.7 281.1,-75.65 270.69,-77.65 274.2,-83.7"/>
</g>
<!-- Node4 -->
<g id="node4" class="node">
<title>Node4</title>
<g id="a_node4"><a xlink:title=" ">
<polygon fill="none" stroke="#bfbfbf" points="0,-0.5 0,-19.5 44,-19.5 44,-0.5 0,-0.5"/>
<text text-anchor="middle" x="22" y="-7.5" font-family="Helvetica,sans-Serif" font-size="10.00">vector</text>
</a>
</g>
</g>
<!-- Node3&#45;&gt;Node4 -->
<g id="edge3" class="edge">
<title>Node3&#45;&gt;Node4</title>
<path fill="none" stroke="midnightblue" d="M49.55,-56.08C44.99,-48.61 38.33,-37.72 32.71,-28.52"/>
<polygon fill="midnightblue" stroke="midnightblue" points="35.55,-26.46 27.35,-19.75 29.58,-30.11 35.55,-26.46"/>
</g>
<!-- Node5 -->
<g id="node5" class="node">
<title>Node5</title>
<g id="a_node5"><a xlink:title=" ">
<polygon fill="none" stroke="#bfbfbf" points="62.5,-0.5 62.5,-19.5 113.5,-19.5 113.5,-0.5 62.5,-0.5"/>
<text text-anchor="middle" x="88" y="-7.5" font-family="Helvetica,sans-Serif" font-size="10.00">memory</text>
</a>
</g>
</g>
<!-- Node3&#45;&gt;Node5 -->
<g id="edge4" class="edge">
<title>Node3&#45;&gt;Node5</title>
<path fill="none" stroke="midnightblue" d="M60.45,-56.08C65.01,-48.61 71.67,-37.72 77.29,-28.52"/>
<polygon fill="midnightblue" stroke="midnightblue" points="80.42,-30.11 82.65,-19.75 74.45,-26.46 80.42,-30.11"/>
</g>
<!-- Node8&#45;&gt;Node7 -->
<g id="edge8" class="edge">
<title>Node8&#45;&gt;Node7</title>
<path fill="none" stroke="midnightblue" d="M362.31,-112.32C350.1,-103.98 331.42,-91.21 317,-81.35"/>
<polygon fill="midnightblue" stroke="midnightblue" points="318.89,-78.41 308.66,-75.65 314.94,-84.19 318.89,-78.41"/>
</g>
<!-- Node9 -->
<g id="node9" class="node">
<title>Node9</title>
<g id="a_node9"><a xlink:href="HeroName_8hpp.html" target="_top" xlink:title=" ">
<polygon fill="none" stroke="black" points="335,-56.5 335,-75.5 457,-75.5 457,-56.5 335,-56.5"/>
<text text-anchor="middle" x="396" y="-63.5" font-family="Helvetica,sans-Serif" font-size="10.00">../Enums/HeroName.hpp</text>
</a>
</g>
</g>
<!-- Node8&#45;&gt;Node9 -->
<g id="edge9" class="edge">
<title>Node8&#45;&gt;Node9</title>
<path fill="none" stroke="midnightblue" d="M378.47,-112.08C381.31,-104.77 385.43,-94.18 388.96,-85.1"/>
<polygon fill="midnightblue" stroke="midnightblue" points="392.23,-86.34 392.6,-75.75 385.71,-83.8 392.23,-86.34"/>
</g>
</g>
</svg>
