<?xml version="1.0" encoding="UTF-8" standalone="no"?>
<!DOCTYPE svg PUBLIC "-//W3C//DTD SVG 1.1//EN"
 "http://www.w3.org/Graphics/SVG/1.1/DTD/svg11.dtd">
<!-- Generated by graphviz version 2.44.0 ()
 -->
<!-- Title: libs/spic&#45;engine/src/Exceptions/SDLException.cpp Pages: 1 -->
<svg width="205pt" height="207pt"
 viewBox="0.00 0.00 205.00 207.00" xmlns="http://www.w3.org/2000/svg" xmlns:xlink="http://www.w3.org/1999/xlink">
<g id="graph0" class="graph" transform="scale(1 1) rotate(0) translate(4 203)">
<title>libs/spic&#45;engine/src/Exceptions/SDLException.cpp</title>
<!-- Node1 -->
<g id="node1" class="node">
<title>Node1</title>
<g id="a_node1"><a xlink:title=" ">
<polygon fill="#bfbfbf" stroke="black" points="38.5,-168.5 38.5,-198.5 187.5,-198.5 187.5,-168.5 38.5,-168.5"/>
<text text-anchor="start" x="46.5" y="-186.5" font-family="Helvetica,sans-Serif" font-size="10.00">libs/spic&#45;engine/src</text>
<text text-anchor="middle" x="113" y="-175.5" font-family="Helvetica,sans-Serif" font-size="10.00">/Exceptions/SDLException.cpp</text>
</a>
</g>
</g>
<!-- Node2 -->
<g id="node2" class="node">
<title>Node2</title>
<g id="a_node2"><a xlink:href="SDLException_8hpp.html" target="_top" xlink:title=" ">
<polygon fill="none" stroke="black" points="15,-112.5 15,-131.5 111,-131.5 111,-112.5 15,-112.5"/>
<text text-anchor="middle" x="63" y="-119.5" font-family="Helvetica,sans-Serif" font-size="10.00">SDLException.hpp</text>
</a>
</g>
</g>
<!-- Node1&#45;&gt;Node2 -->
<g id="edge1" class="edge">
<title>Node1&#45;&gt;Node2</title>
<path fill="none" stroke="midnightblue" d="M101.15,-168.4C93.89,-159.75 84.55,-148.64 76.93,-139.58"/>
<polygon fill="midnightblue" stroke="midnightblue" points="79.39,-137.06 70.28,-131.66 74.03,-141.57 79.39,-137.06"/>
</g>
<!-- Node6 -->
<g id="node6" class="node">
<title>Node6</title>
<g id="a_node6"><a xlink:title=" ">
<polygon fill="none" stroke="#bfbfbf" points="129,-112.5 129,-131.5 197,-131.5 197,-112.5 129,-112.5"/>
<text text-anchor="middle" x="163" y="-119.5" font-family="Helvetica,sans-Serif" font-size="10.00">SDL_error.h</text>
</a>
</g>
</g>
<!-- Node1&#45;&gt;Node6 -->
<g id="edge5" class="edge">
<title>Node1&#45;&gt;Node6</title>
<path fill="none" stroke="midnightblue" d="M124.85,-168.4C132.11,-159.75 141.45,-148.64 149.07,-139.58"/>
<polygon fill="midnightblue" stroke="midnightblue" points="151.97,-141.57 155.72,-131.66 146.61,-137.06 151.97,-141.57"/>
</g>
<!-- Node3 -->
<g id="node3" class="node">
<title>Node3</title>
<g id="a_node3"><a xlink:href="EngineException_8hpp.html" target="_top" xlink:title=" ">
<polygon fill="none" stroke="black" points="10,-56.5 10,-75.5 116,-75.5 116,-56.5 10,-56.5"/>
<text text-anchor="middle" x="63" y="-63.5" font-family="Helvetica,sans-Serif" font-size="10.00">EngineException.hpp</text>
</a>
</g>
</g>
<!-- Node2&#45;&gt;Node3 -->
<g id="edge2" class="edge">
<title>Node2&#45;&gt;Node3</title>
<path fill="none" stroke="midnightblue" d="M63,-112.08C63,-105.01 63,-94.86 63,-85.99"/>
<polygon fill="midnightblue" stroke="midnightblue" points="66.5,-85.75 63,-75.75 59.5,-85.75 66.5,-85.75"/>
</g>
<!-- Node4 -->
<g id="node4" class="node">
<title>Node4</title>
<g id="a_node4"><a xlink:title=" ">
<polygon fill="none" stroke="#bfbfbf" points="0,-0.5 0,-19.5 58,-19.5 58,-0.5 0,-0.5"/>
<text text-anchor="middle" x="29" y="-7.5" font-family="Helvetica,sans-Serif" font-size="10.00">exception</text>
</a>
</g>
</g>
<!-- Node3&#45;&gt;Node4 -->
<g id="edge3" class="edge">
<title>Node3&#45;&gt;Node4</title>
<path fill="none" stroke="midnightblue" d="M57.39,-56.08C52.63,-48.53 45.68,-37.49 39.85,-28.23"/>
<polygon fill="midnightblue" stroke="midnightblue" points="42.8,-26.35 34.51,-19.75 36.88,-30.08 42.8,-26.35"/>
</g>
<!-- Node5 -->
<g id="node5" class="node">
<title>Node5</title>
<g id="a_node5"><a xlink:title=" ">
<polygon fill="none" stroke="#bfbfbf" points="76.5,-0.5 76.5,-19.5 117.5,-19.5 117.5,-0.5 76.5,-0.5"/>
<text text-anchor="middle" x="97" y="-7.5" font-family="Helvetica,sans-Serif" font-size="10.00">string</text>
</a>
</g>
</g>
<!-- Node3&#45;&gt;Node5 -->
<g id="edge4" class="edge">
<title>Node3&#45;&gt;Node5</title>
<path fill="none" stroke="midnightblue" d="M68.61,-56.08C73.37,-48.53 80.32,-37.49 86.15,-28.23"/>
<polygon fill="midnightblue" stroke="midnightblue" points="89.12,-30.08 91.49,-19.75 83.2,-26.35 89.12,-30.08"/>
</g>
</g>
</svg>
