<?xml version="1.0" encoding="UTF-8" standalone="no"?>
<!DOCTYPE svg PUBLIC "-//W3C//DTD SVG 1.1//EN"
 "http://www.w3.org/Graphics/SVG/1.1/DTD/svg11.dtd">
<!-- Generated by graphviz version 2.44.0 ()
 -->
<!-- Title: src/Scenes/StatsScene.cpp Pages: 1 -->
<svg width="714pt" height="308pt"
 viewBox="0.00 0.00 714.00 308.00" xmlns="http://www.w3.org/2000/svg" xmlns:xlink="http://www.w3.org/1999/xlink">
<g id="graph0" class="graph" transform="scale(1 1) rotate(0) translate(4 304)">
<title>src/Scenes/StatsScene.cpp</title>
<!-- Node1 -->
<g id="node1" class="node">
<title>Node1</title>
<g id="a_node1"><a xlink:title=" ">
<polygon fill="#bfbfbf" stroke="black" points="396,-280.5 396,-299.5 534,-299.5 534,-280.5 396,-280.5"/>
<text text-anchor="middle" x="465" y="-287.5" font-family="Helvetica,sans-Serif" font-size="10.00">src/Scenes/StatsScene.cpp</text>
</a>
</g>
</g>
<!-- Node2 -->
<g id="node2" class="node">
<title>Node2</title>
<g id="a_node2"><a xlink:href="StatsScene_8hpp.html" target="_top" xlink:title=" ">
<polygon fill="none" stroke="black" points="114,-224.5 114,-243.5 200,-243.5 200,-224.5 114,-224.5"/>
<text text-anchor="middle" x="157" y="-231.5" font-family="Helvetica,sans-Serif" font-size="10.00">StatsScene.hpp</text>
</a>
</g>
</g>
<!-- Node1&#45;&gt;Node2 -->
<g id="edge1" class="edge">
<title>Node1&#45;&gt;Node2</title>
<path fill="none" stroke="midnightblue" d="M416.2,-280.44C360.03,-270.6 268.1,-254.48 210.16,-244.32"/>
<polygon fill="midnightblue" stroke="midnightblue" points="210.56,-240.84 200.11,-242.56 209.35,-247.73 210.56,-240.84"/>
</g>
<!-- Node9 -->
<g id="node9" class="node">
<title>Node9</title>
<g id="a_node9"><a xlink:href="Constants_8hpp.html" target="_top" xlink:title=" ">
<polygon fill="none" stroke="black" points="478,-224.5 478,-243.5 564,-243.5 564,-224.5 478,-224.5"/>
<text text-anchor="middle" x="521" y="-231.5" font-family="Helvetica,sans-Serif" font-size="10.00">../Constants.hpp</text>
</a>
</g>
</g>
<!-- Node1&#45;&gt;Node9 -->
<g id="edge8" class="edge">
<title>Node1&#45;&gt;Node9</title>
<path fill="none" stroke="midnightblue" d="M474,-280.32C482.19,-272.42 494.51,-260.55 504.47,-250.94"/>
<polygon fill="midnightblue" stroke="midnightblue" points="507.07,-253.29 511.84,-243.83 502.21,-248.26 507.07,-253.29"/>
</g>
<!-- Node11 -->
<g id="node11" class="node">
<title>Node11</title>
<g id="a_node11"><a xlink:href="Layer_8hpp.html" target="_top" xlink:title=" ">
<polygon fill="none" stroke="black" points="360.5,-224.5 360.5,-243.5 459.5,-243.5 459.5,-224.5 360.5,-224.5"/>
<text text-anchor="middle" x="410" y="-231.5" font-family="Helvetica,sans-Serif" font-size="10.00">../Enums/Layer.hpp</text>
</a>
</g>
</g>
<!-- Node1&#45;&gt;Node11 -->
<g id="edge10" class="edge">
<title>Node1&#45;&gt;Node11</title>
<path fill="none" stroke="midnightblue" d="M455.92,-280.08C447.83,-272.14 435.8,-260.34 426.09,-250.8"/>
<polygon fill="midnightblue" stroke="midnightblue" points="428.5,-248.26 418.91,-243.75 423.6,-253.25 428.5,-248.26"/>
</g>
<!-- Node12 -->
<g id="node12" class="node">
<title>Node12</title>
<g id="a_node12"><a xlink:href="PlayerData_8hpp.html" target="_top" xlink:title=" ">
<polygon fill="none" stroke="black" points="218,-224.5 218,-243.5 342,-243.5 342,-224.5 218,-224.5"/>
<text text-anchor="middle" x="280" y="-231.5" font-family="Helvetica,sans-Serif" font-size="10.00">../Structs/PlayerData.hpp</text>
</a>
</g>
</g>
<!-- Node1&#45;&gt;Node12 -->
<g id="edge11" class="edge">
<title>Node1&#45;&gt;Node12</title>
<path fill="none" stroke="midnightblue" d="M435.69,-280.44C404.16,-271.24 353.87,-256.56 319.01,-246.39"/>
<polygon fill="midnightblue" stroke="midnightblue" points="319.76,-242.96 309.18,-243.52 317.8,-249.68 319.76,-242.96"/>
</g>
<!-- Node14 -->
<g id="node14" class="node">
<title>Node14</title>
<g id="a_node14"><a xlink:href="Text_8hpp.html" target="_top" xlink:title=" ">
<polygon fill="none" stroke="black" points="582.5,-224.5 582.5,-243.5 635.5,-243.5 635.5,-224.5 582.5,-224.5"/>
<text text-anchor="middle" x="609" y="-231.5" font-family="Helvetica,sans-Serif" font-size="10.00">Text.hpp</text>
</a>
</g>
</g>
<!-- Node1&#45;&gt;Node14 -->
<g id="edge14" class="edge">
<title>Node1&#45;&gt;Node14</title>
<path fill="none" stroke="midnightblue" d="M487.82,-280.44C511.83,-271.44 549.83,-257.19 576.87,-247.05"/>
<polygon fill="midnightblue" stroke="midnightblue" points="578.16,-250.3 586.29,-243.52 575.7,-243.75 578.16,-250.3"/>
</g>
<!-- Node20 -->
<g id="node20" class="node">
<title>Node20</title>
<g id="a_node20"><a xlink:title=" ">
<polygon fill="none" stroke="#bfbfbf" points="654,-224.5 654,-243.5 706,-243.5 706,-224.5 654,-224.5"/>
<text text-anchor="middle" x="680" y="-231.5" font-family="Helvetica,sans-Serif" font-size="10.00">sstream</text>
</a>
</g>
</g>
<!-- Node1&#45;&gt;Node20 -->
<g id="edge26" class="edge">
<title>Node1&#45;&gt;Node20</title>
<path fill="none" stroke="midnightblue" d="M499.07,-280.44C538.61,-270.51 603.54,-254.21 643.92,-244.06"/>
<polygon fill="midnightblue" stroke="midnightblue" points="645.02,-247.39 653.87,-241.56 643.32,-240.6 645.02,-247.39"/>
</g>
<!-- Node3 -->
<g id="node3" class="node">
<title>Node3</title>
<g id="a_node3"><a xlink:href="MenuScene_8hpp.html" target="_top" xlink:title=" ">
<polygon fill="none" stroke="black" points="114,-168.5 114,-187.5 200,-187.5 200,-168.5 114,-168.5"/>
<text text-anchor="middle" x="157" y="-175.5" font-family="Helvetica,sans-Serif" font-size="10.00">MenuScene.hpp</text>
</a>
</g>
</g>
<!-- Node2&#45;&gt;Node3 -->
<g id="edge2" class="edge">
<title>Node2&#45;&gt;Node3</title>
<path fill="none" stroke="midnightblue" d="M157,-224.08C157,-217.01 157,-206.86 157,-197.99"/>
<polygon fill="midnightblue" stroke="midnightblue" points="160.5,-197.75 157,-187.75 153.5,-197.75 160.5,-197.75"/>
</g>
<!-- Node4 -->
<g id="node4" class="node">
<title>Node4</title>
<g id="a_node4"><a xlink:href="Scene_8hpp.html" target="_top" xlink:title=" ">
<polygon fill="none" stroke="black" points="0,-112.5 0,-131.5 62,-131.5 62,-112.5 0,-112.5"/>
<text text-anchor="middle" x="31" y="-119.5" font-family="Helvetica,sans-Serif" font-size="10.00">Scene.hpp</text>
</a>
</g>
</g>
<!-- Node3&#45;&gt;Node4 -->
<g id="edge3" class="edge">
<title>Node3&#45;&gt;Node4</title>
<path fill="none" stroke="midnightblue" d="M137.03,-168.44C116.39,-159.6 83.94,-145.69 60.37,-135.59"/>
<polygon fill="midnightblue" stroke="midnightblue" points="61.44,-132.24 50.87,-131.52 58.68,-138.67 61.44,-132.24"/>
</g>
<!-- Node7 -->
<g id="node7" class="node">
<title>Node7</title>
<g id="a_node7"><a xlink:href="BackgroundName_8hpp.html" target="_top" xlink:title=" ">
<polygon fill="none" stroke="black" points="80.5,-112.5 80.5,-131.5 233.5,-131.5 233.5,-112.5 80.5,-112.5"/>
<text text-anchor="middle" x="157" y="-119.5" font-family="Helvetica,sans-Serif" font-size="10.00">../Enums/BackgroundName.hpp</text>
</a>
</g>
</g>
<!-- Node3&#45;&gt;Node7 -->
<g id="edge6" class="edge">
<title>Node3&#45;&gt;Node7</title>
<path fill="none" stroke="midnightblue" d="M157,-168.08C157,-161.01 157,-150.86 157,-141.99"/>
<polygon fill="midnightblue" stroke="midnightblue" points="160.5,-141.75 157,-131.75 153.5,-141.75 160.5,-141.75"/>
</g>
<!-- Node8 -->
<g id="node8" class="node">
<title>Node8</title>
<g id="a_node8"><a xlink:title=" ">
<polygon fill="none" stroke="#bfbfbf" points="349.5,-56.5 349.5,-75.5 390.5,-75.5 390.5,-56.5 349.5,-56.5"/>
<text text-anchor="middle" x="370" y="-63.5" font-family="Helvetica,sans-Serif" font-size="10.00">string</text>
</a>
</g>
</g>
<!-- Node3&#45;&gt;Node8 -->
<g id="edge7" class="edge">
<title>Node3&#45;&gt;Node8</title>
<path fill="none" stroke="midnightblue" d="M173.71,-168.37C210.81,-149.21 300.22,-103.04 344.41,-80.22"/>
<polygon fill="midnightblue" stroke="midnightblue" points="346.08,-83.29 353.36,-75.59 342.87,-77.07 346.08,-83.29"/>
</g>
<!-- Node5 -->
<g id="node5" class="node">
<title>Node5</title>
<g id="a_node5"><a xlink:title=" ">
<polygon fill="none" stroke="#bfbfbf" points="248,-56.5 248,-75.5 292,-75.5 292,-56.5 248,-56.5"/>
<text text-anchor="middle" x="270" y="-63.5" font-family="Helvetica,sans-Serif" font-size="10.00">vector</text>
</a>
</g>
</g>
<!-- Node4&#45;&gt;Node5 -->
<g id="edge4" class="edge">
<title>Node4&#45;&gt;Node5</title>
<path fill="none" stroke="midnightblue" d="M62.25,-113.94C107.79,-103.65 191.98,-84.63 237.97,-74.24"/>
<polygon fill="midnightblue" stroke="midnightblue" points="239,-77.59 247.98,-71.97 237.46,-70.76 239,-77.59"/>
</g>
<!-- Node6 -->
<g id="node6" class="node">
<title>Node6</title>
<g id="a_node6"><a xlink:title=" ">
<polygon fill="none" stroke="#bfbfbf" points="468.5,-0.5 468.5,-19.5 519.5,-19.5 519.5,-0.5 468.5,-0.5"/>
<text text-anchor="middle" x="494" y="-7.5" font-family="Helvetica,sans-Serif" font-size="10.00">memory</text>
</a>
</g>
</g>
<!-- Node4&#45;&gt;Node6 -->
<g id="edge5" class="edge">
<title>Node4&#45;&gt;Node6</title>
<path fill="none" stroke="midnightblue" d="M54.74,-112.48C93.08,-98.98 171.18,-72.51 239,-56 316.32,-37.18 408.63,-22.87 458.23,-15.83"/>
<polygon fill="midnightblue" stroke="midnightblue" points="459.02,-19.26 468.44,-14.4 458.05,-12.32 459.02,-19.26"/>
</g>
<!-- Node10 -->
<g id="node10" class="node">
<title>Node10</title>
<g id="a_node10"><a xlink:href="Color_8hpp.html" target="_top" xlink:title=" ">
<polygon fill="none" stroke="black" points="463.5,-168.5 463.5,-187.5 520.5,-187.5 520.5,-168.5 463.5,-168.5"/>
<text text-anchor="middle" x="492" y="-175.5" font-family="Helvetica,sans-Serif" font-size="10.00">Color.hpp</text>
</a>
</g>
</g>
<!-- Node9&#45;&gt;Node10 -->
<g id="edge9" class="edge">
<title>Node9&#45;&gt;Node10</title>
<path fill="none" stroke="midnightblue" d="M516.21,-224.08C512.24,-216.69 506.47,-205.95 501.57,-196.81"/>
<polygon fill="midnightblue" stroke="midnightblue" points="504.51,-194.91 496.7,-187.75 498.35,-198.22 504.51,-194.91"/>
</g>
<!-- Node12&#45;&gt;Node8 -->
<g id="edge12" class="edge">
<title>Node12&#45;&gt;Node8</title>
<path fill="none" stroke="midnightblue" d="M284.55,-224.13C291.01,-211.59 303.25,-187.96 314,-168 329.86,-138.55 348.83,-104.6 360.12,-84.51"/>
<polygon fill="midnightblue" stroke="midnightblue" points="363.28,-86.04 365.13,-75.61 357.18,-82.6 363.28,-86.04"/>
</g>
<!-- Node13 -->
<g id="node13" class="node">
<title>Node13</title>
<g id="a_node13"><a xlink:href="HeroName_8hpp.html" target="_top" xlink:title=" ">
<polygon fill="none" stroke="black" points="323,-168.5 323,-187.5 445,-187.5 445,-168.5 323,-168.5"/>
<text text-anchor="middle" x="384" y="-175.5" font-family="Helvetica,sans-Serif" font-size="10.00">../Enums/HeroName.hpp</text>
</a>
</g>
</g>
<!-- Node12&#45;&gt;Node13 -->
<g id="edge13" class="edge">
<title>Node12&#45;&gt;Node13</title>
<path fill="none" stroke="midnightblue" d="M296.71,-224.32C313.31,-215.7 339,-202.36 358.22,-192.39"/>
<polygon fill="midnightblue" stroke="midnightblue" points="360.07,-195.37 367.33,-187.65 356.84,-189.16 360.07,-195.37"/>
</g>
<!-- Node14&#45;&gt;Node8 -->
<g id="edge25" class="edge">
<title>Node14&#45;&gt;Node8</title>
<path fill="none" stroke="midnightblue" d="M598.95,-224.19C584.07,-211.31 555.14,-186.82 529,-168 482.58,-134.57 425.37,-99.68 393.78,-80.92"/>
<polygon fill="midnightblue" stroke="midnightblue" points="395.23,-77.71 384.84,-75.64 391.67,-83.74 395.23,-77.71"/>
</g>
<!-- Node14&#45;&gt;Node10 -->
<g id="edge24" class="edge">
<title>Node14&#45;&gt;Node10</title>
<path fill="none" stroke="midnightblue" d="M590.46,-224.44C571.38,-215.64 541.43,-201.81 519.56,-191.72"/>
<polygon fill="midnightblue" stroke="midnightblue" points="521,-188.53 510.45,-187.52 518.07,-194.88 521,-188.53"/>
</g>
<!-- Node15 -->
<g id="node15" class="node">
<title>Node15</title>
<g id="a_node15"><a xlink:href="UIObject_8hpp.html" target="_top" xlink:title=" ">
<polygon fill="none" stroke="black" points="577,-168.5 577,-187.5 651,-187.5 651,-168.5 577,-168.5"/>
<text text-anchor="middle" x="614" y="-175.5" font-family="Helvetica,sans-Serif" font-size="10.00">UIObject.hpp</text>
</a>
</g>
</g>
<!-- Node14&#45;&gt;Node15 -->
<g id="edge15" class="edge">
<title>Node14&#45;&gt;Node15</title>
<path fill="none" stroke="midnightblue" d="M609.83,-224.08C610.48,-217.01 611.42,-206.86 612.24,-197.99"/>
<polygon fill="midnightblue" stroke="midnightblue" points="615.75,-198.03 613.19,-187.75 608.78,-197.39 615.75,-198.03"/>
</g>
<!-- Node16 -->
<g id="node16" class="node">
<title>Node16</title>
<g id="a_node16"><a xlink:href="GameObject_8hpp.html" target="_top" xlink:title=" ">
<polygon fill="none" stroke="black" points="569.5,-112.5 569.5,-131.5 658.5,-131.5 658.5,-112.5 569.5,-112.5"/>
<text text-anchor="middle" x="614" y="-119.5" font-family="Helvetica,sans-Serif" font-size="10.00">GameObject.hpp</text>
</a>
</g>
</g>
<!-- Node15&#45;&gt;Node16 -->
<g id="edge16" class="edge">
<title>Node15&#45;&gt;Node16</title>
<path fill="none" stroke="midnightblue" d="M614,-168.08C614,-161.01 614,-150.86 614,-141.99"/>
<polygon fill="midnightblue" stroke="midnightblue" points="617.5,-141.75 614,-131.75 610.5,-141.75 617.5,-141.75"/>
</g>
<!-- Node16&#45;&gt;Node5 -->
<g id="edge22" class="edge">
<title>Node16&#45;&gt;Node5</title>
<path fill="none" stroke="midnightblue" d="M569.38,-114C498.92,-102.94 363.58,-81.69 301.96,-72.02"/>
<polygon fill="midnightblue" stroke="midnightblue" points="302.46,-68.55 292.04,-70.46 301.37,-75.47 302.46,-68.55"/>
</g>
<!-- Node16&#45;&gt;Node6 -->
<g id="edge23" class="edge">
<title>Node16&#45;&gt;Node6</title>
<path fill="none" stroke="midnightblue" d="M575.62,-112.38C554.42,-105.75 529.17,-94.5 513,-76 501.77,-63.14 497.17,-43.96 495.29,-29.77"/>
<polygon fill="midnightblue" stroke="midnightblue" points="498.75,-29.27 494.29,-19.67 491.79,-29.96 498.75,-29.27"/>
</g>
<!-- Node16&#45;&gt;Node8 -->
<g id="edge21" class="edge">
<title>Node16&#45;&gt;Node8</title>
<path fill="none" stroke="midnightblue" d="M575.34,-112.44C526.94,-101.73 445.04,-83.61 400.71,-73.8"/>
<polygon fill="midnightblue" stroke="midnightblue" points="401.33,-70.35 390.81,-71.6 399.81,-77.18 401.33,-70.35"/>
</g>
<!-- Node17 -->
<g id="node17" class="node">
<title>Node17</title>
<g id="a_node17"><a xlink:href="Component_8hpp.html" target="_top" xlink:title=" ">
<polygon fill="none" stroke="black" points="522,-56.5 522,-75.5 606,-75.5 606,-56.5 522,-56.5"/>
<text text-anchor="middle" x="564" y="-63.5" font-family="Helvetica,sans-Serif" font-size="10.00">Component.hpp</text>
</a>
</g>
</g>
<!-- Node16&#45;&gt;Node17 -->
<g id="edge17" class="edge">
<title>Node16&#45;&gt;Node17</title>
<path fill="none" stroke="midnightblue" d="M605.74,-112.08C598.54,-104.3 587.89,-92.8 579.15,-83.37"/>
<polygon fill="midnightblue" stroke="midnightblue" points="581.47,-80.71 572.1,-75.75 576.33,-85.47 581.47,-80.71"/>
</g>
<!-- Node18 -->
<g id="node18" class="node">
<title>Node18</title>
<g id="a_node18"><a xlink:href="Transform_8hpp.html" target="_top" xlink:title=" ">
<polygon fill="none" stroke="black" points="623.5,-56.5 623.5,-75.5 702.5,-75.5 702.5,-56.5 623.5,-56.5"/>
<text text-anchor="middle" x="663" y="-63.5" font-family="Helvetica,sans-Serif" font-size="10.00">Transform.hpp</text>
</a>
</g>
</g>
<!-- Node16&#45;&gt;Node18 -->
<g id="edge19" class="edge">
<title>Node16&#45;&gt;Node18</title>
<path fill="none" stroke="midnightblue" d="M622.09,-112.08C629.16,-104.3 639.59,-92.8 648.15,-83.37"/>
<polygon fill="midnightblue" stroke="midnightblue" points="650.93,-85.51 655.06,-75.75 645.75,-80.8 650.93,-85.51"/>
</g>
<!-- Node17&#45;&gt;Node6 -->
<g id="edge18" class="edge">
<title>Node17&#45;&gt;Node6</title>
<path fill="none" stroke="midnightblue" d="M552.75,-56.32C542.2,-48.18 526.2,-35.84 513.56,-26.09"/>
<polygon fill="midnightblue" stroke="midnightblue" points="515.51,-23.17 505.45,-19.83 511.23,-28.71 515.51,-23.17"/>
</g>
<!-- Node19 -->
<g id="node19" class="node">
<title>Node19</title>
<g id="a_node19"><a xlink:href="Point_8hpp.html" target="_top" xlink:title=" ">
<polygon fill="none" stroke="black" points="634.5,-0.5 634.5,-19.5 691.5,-19.5 691.5,-0.5 634.5,-0.5"/>
<text text-anchor="middle" x="663" y="-7.5" font-family="Helvetica,sans-Serif" font-size="10.00">Point.hpp</text>
</a>
</g>
</g>
<!-- Node18&#45;&gt;Node19 -->
<g id="edge20" class="edge">
<title>Node18&#45;&gt;Node19</title>
<path fill="none" stroke="midnightblue" d="M663,-56.08C663,-49.01 663,-38.86 663,-29.99"/>
<polygon fill="midnightblue" stroke="midnightblue" points="666.5,-29.75 663,-19.75 659.5,-29.75 666.5,-29.75"/>
</g>
</g>
</svg>
