<?xml version="1.0" encoding="UTF-8" standalone="no"?>
<!DOCTYPE svg PUBLIC "-//W3C//DTD SVG 1.1//EN"
 "http://www.w3.org/Graphics/SVG/1.1/DTD/svg11.dtd">
<!-- Generated by graphviz version 2.44.0 ()
 -->
<!-- Title: libs/spic&#45;engine/src/Subsystems/Subsystems.hpp Pages: 1 -->
<!--zoomable 431 -->
<svg id="main" version="1.1" xmlns="http://www.w3.org/2000/svg" xmlns:xlink="http://www.w3.org/1999/xlink" xml:space="preserve" onload="init(evt)">
<style type="text/css"><![CDATA[
.edge:hover path { stroke: red; }
.edge:hover polygon { stroke: red; fill: red; }
]]></style>
<script type="text/javascript"><![CDATA[
var edges = document.getElementsByTagName('g');
if (edges && edges.length) {
  for (var i=0;i<edges.length;i++) {
    if (edges[i].id.substr(0,4)=='edge') {
      edges[i].setAttribute('class','edge');
    }
  }
}
]]></script>
        <defs>
                <circle id="rim" cx="0" cy="0" r="7"/>
                <circle id="rim2" cx="0" cy="0" r="3.5"/>
                <g id="zoomPlus">
                        <use xlink:href="#rim" fill="#404040">
                                <set attributeName="fill" to="#808080" begin="zoomplus.mouseover" end="zoomplus.mouseout"/>
                        </use>
                        <path d="M-4,0h8M0,-4v8" fill="none" stroke="white" stroke-width="1.5" pointer-events="none"/>
                </g>
                <g id="zoomMin">
                        <use xlink:href="#rim" fill="#404040">
                                <set attributeName="fill" to="#808080" begin="zoomminus.mouseover" end="zoomminus.mouseout"/>
                        </use>
                        <path d="M-4,0h8" fill="none" stroke="white" stroke-width="1.5" pointer-events="none"/>
                </g>
                <g id="dirArrow">
                        <path fill="none" stroke="white" stroke-width="1.5" d="M0,-3.0v7 M-2.5,-0.5L0,-3.0L2.5,-0.5"/>
                </g>
               <g id="resetDef">
                       <use xlink:href="#rim2" fill="#404040">
                               <set attributeName="fill" to="#808080" begin="reset.mouseover" end="reset.mouseout"/>
                       </use>
               </g>
        </defs>

<script type="text/javascript">
var viewWidth = 1442;
var viewHeight = 431;
var sectionId = 'dynsection-0';
</script>
<script xlink:href="svgpan.js"/>
<svg id="graph" class="graph">
<g id="viewport">
<title>libs/spic&#45;engine/src/Subsystems/Subsystems.hpp</title>
<!-- Node1 -->
<g id="node1" class="node">
<title>Node1</title>
<g id="a_node1"><a xlink:title=" ">
<polygon fill="#bfbfbf" stroke="black" points="429,-392.5 429,-422.5 578,-422.5 578,-392.5 429,-392.5"/>
<text text-anchor="start" x="437" y="-410.5" font-family="Helvetica,sans-Serif" font-size="10.00">libs/spic&#45;engine/src</text>
<text text-anchor="middle" x="503.5" y="-399.5" font-family="Helvetica,sans-Serif" font-size="10.00">/Subsystems/Subsystems.hpp</text>
</a>
</g>
</g>
<!-- Node2 -->
<g id="node2" class="node">
<title>Node2</title>
<g id="a_node2"><a xlink:href="ISubsystem_8hpp.html" target="_top" xlink:title=" ">
<polygon fill="none" stroke="black" points="460.5,-280.5 460.5,-299.5 546.5,-299.5 546.5,-280.5 460.5,-280.5"/>
<text text-anchor="middle" x="503.5" y="-287.5" font-family="Helvetica,sans-Serif" font-size="10.00">ISubsystem.hpp</text>
</a>
</g>
</g>
<!-- Node1&#45;&gt;Node2 -->
<g id="edge1" class="edge">
<title>Node1&#45;&gt;Node2</title>
<path fill="none" stroke="midnightblue" d="M472.01,-392.44C447.97,-379.55 420.94,-359.01 433.5,-336 441.32,-321.68 455.86,-311.24 469.68,-304.04"/>
<polygon fill="midnightblue" stroke="midnightblue" points="471.52,-307.03 479.03,-299.56 468.5,-300.72 471.52,-307.03"/>
</g>
<!-- Node3 -->
<g id="node3" class="node">
<title>Node3</title>
<g id="a_node3"><a xlink:href="AnimatorSubsystem_8hpp.html" target="_top" xlink:title=" ">
<polygon fill="none" stroke="black" points="442.5,-336.5 442.5,-355.5 564.5,-355.5 564.5,-336.5 442.5,-336.5"/>
<text text-anchor="middle" x="503.5" y="-343.5" font-family="Helvetica,sans-Serif" font-size="10.00">AnimatorSubsystem.hpp</text>
</a>
</g>
</g>
<!-- Node1&#45;&gt;Node3 -->
<g id="edge2" class="edge">
<title>Node1&#45;&gt;Node3</title>
<path fill="none" stroke="midnightblue" d="M503.5,-392.4C503.5,-384.47 503.5,-374.46 503.5,-365.86"/>
<polygon fill="midnightblue" stroke="midnightblue" points="507,-365.66 503.5,-355.66 500,-365.66 507,-365.66"/>
</g>
<!-- Node4 -->
<g id="node4" class="node">
<title>Node4</title>
<g id="a_node4"><a xlink:href="BehaviourScriptSubsystem_8hpp.html" target="_top" xlink:title=" ">
<polygon fill="none" stroke="black" points="582.5,-336.5 582.5,-355.5 734.5,-355.5 734.5,-336.5 582.5,-336.5"/>
<text text-anchor="middle" x="658.5" y="-343.5" font-family="Helvetica,sans-Serif" font-size="10.00">BehaviourScriptSubsystem.hpp</text>
</a>
</g>
</g>
<!-- Node1&#45;&gt;Node4 -->
<g id="edge4" class="edge">
<title>Node1&#45;&gt;Node4</title>
<path fill="none" stroke="midnightblue" d="M540.23,-392.4C566.47,-382.33 601.43,-368.91 626.52,-359.28"/>
<polygon fill="midnightblue" stroke="midnightblue" points="627.86,-362.51 635.95,-355.66 625.36,-355.97 627.86,-362.51"/>
</g>
<!-- Node5 -->
<g id="node5" class="node">
<title>Node5</title>
<g id="a_node5"><a xlink:href="InputSubsystem_8hpp.html" target="_top" xlink:title=" ">
<polygon fill="none" stroke="black" points="0,-336.5 0,-355.5 105,-355.5 105,-336.5 0,-336.5"/>
<text text-anchor="middle" x="52.5" y="-343.5" font-family="Helvetica,sans-Serif" font-size="10.00">InputSubsystem.hpp</text>
</a>
</g>
</g>
<!-- Node1&#45;&gt;Node5 -->
<g id="edge6" class="edge">
<title>Node1&#45;&gt;Node5</title>
<path fill="none" stroke="midnightblue" d="M428.68,-397.21C352.36,-387.65 230.22,-372.09 115.11,-356.2"/>
<polygon fill="midnightblue" stroke="midnightblue" points="115.45,-352.72 105.06,-354.82 114.49,-359.65 115.45,-352.72"/>
</g>
<!-- Node6 -->
<g id="node6" class="node">
<title>Node6</title>
<g id="a_node6"><a xlink:href="RenderSubsystem_8hpp.html" target="_top" xlink:title=" ">
<polygon fill="none" stroke="black" points="752.5,-336.5 752.5,-355.5 866.5,-355.5 866.5,-336.5 752.5,-336.5"/>
<text text-anchor="middle" x="809.5" y="-343.5" font-family="Helvetica,sans-Serif" font-size="10.00">RenderSubsystem.hpp</text>
</a>
</g>
</g>
<!-- Node1&#45;&gt;Node6 -->
<g id="edge8" class="edge">
<title>Node1&#45;&gt;Node6</title>
<path fill="none" stroke="midnightblue" d="M575.63,-392.47C630.84,-381.74 705.77,-367.17 755.79,-357.44"/>
<polygon fill="midnightblue" stroke="midnightblue" points="756.6,-360.85 765.75,-355.51 755.27,-353.98 756.6,-360.85"/>
</g>
<!-- Node26 -->
<g id="node26" class="node">
<title>Node26</title>
<g id="a_node26"><a xlink:href="PhysicsSubsystem_8hpp.html" target="_top" xlink:title=" ">
<polygon fill="none" stroke="black" points="1066.5,-336.5 1066.5,-355.5 1184.5,-355.5 1184.5,-336.5 1066.5,-336.5"/>
<text text-anchor="middle" x="1125.5" y="-343.5" font-family="Helvetica,sans-Serif" font-size="10.00">PhysicsSubsystem.hpp</text>
</a>
</g>
</g>
<!-- Node1&#45;&gt;Node26 -->
<g id="edge43" class="edge">
<title>Node1&#45;&gt;Node26</title>
<path fill="none" stroke="midnightblue" d="M578.22,-399.35C699.76,-387.73 938.51,-364.89 1056.36,-353.61"/>
<polygon fill="midnightblue" stroke="midnightblue" points="1056.72,-357.1 1066.34,-352.66 1056.06,-350.13 1056.72,-357.1"/>
</g>
<!-- Node32 -->
<g id="node32" class="node">
<title>Node32</title>
<g id="a_node32"><a xlink:href="FpsCounterSubsystem_8hpp.html" target="_top" xlink:title=" ">
<polygon fill="none" stroke="black" points="884.5,-336.5 884.5,-355.5 1018.5,-355.5 1018.5,-336.5 884.5,-336.5"/>
<text text-anchor="middle" x="951.5" y="-343.5" font-family="Helvetica,sans-Serif" font-size="10.00">FpsCounterSubsystem.hpp</text>
</a>
</g>
</g>
<!-- Node1&#45;&gt;Node32 -->
<g id="edge61" class="edge">
<title>Node1&#45;&gt;Node32</title>
<path fill="none" stroke="midnightblue" d="M578.23,-396.57C661.28,-385.54 794.56,-367.84 877.37,-356.85"/>
<polygon fill="midnightblue" stroke="midnightblue" points="878,-360.29 887.46,-355.51 877.08,-353.35 878,-360.29"/>
</g>
<!-- Node33 -->
<g id="node33" class="node">
<title>Node33</title>
<g id="a_node33"><a xlink:href="GameSpeedSubsystem_8hpp.html" target="_top" xlink:title=" ">
<polygon fill="none" stroke="black" points="123,-336.5 123,-355.5 260,-355.5 260,-336.5 123,-336.5"/>
<text text-anchor="middle" x="191.5" y="-343.5" font-family="Helvetica,sans-Serif" font-size="10.00">GameSpeedSubsystem.hpp</text>
</a>
</g>
</g>
<!-- Node1&#45;&gt;Node33 -->
<g id="edge64" class="edge">
<title>Node1&#45;&gt;Node33</title>
<path fill="none" stroke="midnightblue" d="M429.96,-392.47C373.54,-381.72 296.94,-367.11 245.95,-357.38"/>
<polygon fill="midnightblue" stroke="midnightblue" points="246.58,-353.94 236.1,-355.51 245.27,-360.82 246.58,-353.94"/>
</g>
<!-- Node34 -->
<g id="node34" class="node">
<title>Node34</title>
<g id="a_node34"><a xlink:href="AudioSubsystem_8hpp.html" target="_top" xlink:title=" ">
<polygon fill="none" stroke="black" points="278.5,-336.5 278.5,-355.5 386.5,-355.5 386.5,-336.5 278.5,-336.5"/>
<text text-anchor="middle" x="332.5" y="-343.5" font-family="Helvetica,sans-Serif" font-size="10.00">AudioSubsystem.hpp</text>
</a>
</g>
</g>
<!-- Node1&#45;&gt;Node34 -->
<g id="edge66" class="edge">
<title>Node1&#45;&gt;Node34</title>
<path fill="none" stroke="midnightblue" d="M462.98,-392.4C433.77,-382.24 394.78,-368.67 367.05,-359.02"/>
<polygon fill="midnightblue" stroke="midnightblue" points="367.98,-355.64 357.38,-355.66 365.68,-362.25 367.98,-355.64"/>
</g>
<!-- Node3&#45;&gt;Node2 -->
<g id="edge3" class="edge">
<title>Node3&#45;&gt;Node2</title>
<path fill="none" stroke="midnightblue" d="M503.5,-336.08C503.5,-329.01 503.5,-318.86 503.5,-309.99"/>
<polygon fill="midnightblue" stroke="midnightblue" points="507,-309.75 503.5,-299.75 500,-309.75 507,-309.75"/>
</g>
<!-- Node4&#45;&gt;Node2 -->
<g id="edge5" class="edge">
<title>Node4&#45;&gt;Node2</title>
<path fill="none" stroke="midnightblue" d="M633.94,-336.44C607.98,-327.4 566.83,-313.06 537.7,-302.92"/>
<polygon fill="midnightblue" stroke="midnightblue" points="538.54,-299.5 527.95,-299.52 536.24,-306.11 538.54,-299.5"/>
</g>
<!-- Node5&#45;&gt;Node2 -->
<g id="edge7" class="edge">
<title>Node5&#45;&gt;Node2</title>
<path fill="none" stroke="midnightblue" d="M105.06,-337.14C107.91,-336.74 110.74,-336.36 113.5,-336 233.71,-320.2 375.16,-304.63 450.3,-296.6"/>
<polygon fill="midnightblue" stroke="midnightblue" points="450.88,-300.06 460.45,-295.52 450.14,-293.1 450.88,-300.06"/>
</g>
<!-- Node6&#45;&gt;Node2 -->
<g id="edge9" class="edge">
<title>Node6&#45;&gt;Node2</title>
<path fill="none" stroke="midnightblue" d="M761.01,-336.44C705.37,-326.62 614.4,-310.57 556.81,-300.41"/>
<polygon fill="midnightblue" stroke="midnightblue" points="557.27,-296.93 546.81,-298.64 556.05,-303.83 557.27,-296.93"/>
</g>
<!-- Node7 -->
<g id="node7" class="node">
<title>Node7</title>
<g id="a_node7"><a xlink:href="Window_8hpp.html" target="_top" xlink:title=" ">
<polygon fill="none" stroke="black" points="608,-280.5 608,-299.5 719,-299.5 719,-280.5 608,-280.5"/>
<text text-anchor="middle" x="663.5" y="-287.5" font-family="Helvetica,sans-Serif" font-size="10.00">../Models/Window.hpp</text>
</a>
</g>
</g>
<!-- Node6&#45;&gt;Node7 -->
<g id="edge10" class="edge">
<title>Node6&#45;&gt;Node7</title>
<path fill="none" stroke="midnightblue" d="M786.37,-336.44C762.02,-327.44 723.49,-313.19 696.08,-303.05"/>
<polygon fill="midnightblue" stroke="midnightblue" points="697.12,-299.7 686.53,-299.52 694.69,-306.27 697.12,-299.7"/>
</g>
<!-- Node8 -->
<g id="node8" class="node">
<title>Node8</title>
<g id="a_node8"><a xlink:href="Color_8hpp.html" target="_top" xlink:title=" ">
<polygon fill="none" stroke="black" points="308,-112.5 308,-131.5 365,-131.5 365,-112.5 308,-112.5"/>
<text text-anchor="middle" x="336.5" y="-119.5" font-family="Helvetica,sans-Serif" font-size="10.00">Color.hpp</text>
</a>
</g>
</g>
<!-- Node7&#45;&gt;Node8 -->
<g id="edge11" class="edge">
<title>Node7&#45;&gt;Node8</title>
<path fill="none" stroke="midnightblue" d="M607.72,-283.03C531.06,-274.38 400.66,-257.87 383.5,-244 351.91,-218.46 341.5,-168.9 338.11,-141.81"/>
<polygon fill="midnightblue" stroke="midnightblue" points="341.58,-141.28 337.05,-131.7 334.62,-142.02 341.58,-141.28"/>
</g>
<!-- Node9 -->
<g id="node9" class="node">
<title>Node9</title>
<g id="a_node9"><a xlink:href="Text_8hpp.html" target="_top" xlink:title=" ">
<polygon fill="none" stroke="black" points="393,-224.5 393,-243.5 446,-243.5 446,-224.5 393,-224.5"/>
<text text-anchor="middle" x="419.5" y="-231.5" font-family="Helvetica,sans-Serif" font-size="10.00">Text.hpp</text>
</a>
</g>
</g>
<!-- Node7&#45;&gt;Node9 -->
<g id="edge12" class="edge">
<title>Node7&#45;&gt;Node9</title>
<path fill="none" stroke="midnightblue" d="M624.84,-280.44C578.59,-270.21 501.72,-253.2 456.31,-243.15"/>
<polygon fill="midnightblue" stroke="midnightblue" points="456.82,-239.67 446.3,-240.93 455.31,-246.51 456.82,-239.67"/>
</g>
<!-- Node14 -->
<g id="node14" class="node">
<title>Node14</title>
<g id="a_node14"><a xlink:href="Transform_8hpp.html" target="_top" xlink:title=" ">
<polygon fill="none" stroke="black" points="946,-56.5 946,-75.5 1025,-75.5 1025,-56.5 946,-56.5"/>
<text text-anchor="middle" x="985.5" y="-63.5" font-family="Helvetica,sans-Serif" font-size="10.00">Transform.hpp</text>
</a>
</g>
</g>
<!-- Node7&#45;&gt;Node14 -->
<g id="edge24" class="edge">
<title>Node7&#45;&gt;Node14</title>
<path fill="none" stroke="midnightblue" d="M714.66,-280.45C797.04,-265.51 953.16,-232.03 985.5,-188 990.76,-180.84 986.7,-176.81 985.5,-168 983.26,-151.55 977.74,-148.45 975.5,-132 974.3,-123.19 974.53,-120.84 975.5,-112 976.47,-103.14 978.49,-93.47 980.46,-85.38"/>
<polygon fill="midnightblue" stroke="midnightblue" points="983.89,-86.09 983.02,-75.53 977.12,-84.33 983.89,-86.09"/>
</g>
<!-- Node18 -->
<g id="node18" class="node">
<title>Node18</title>
<g id="a_node18"><a xlink:href="FontManager_8hpp.html" target="_top" xlink:title=" ">
<polygon fill="none" stroke="black" points="693,-168.5 693,-187.5 838,-187.5 838,-168.5 693,-168.5"/>
<text text-anchor="middle" x="765.5" y="-175.5" font-family="Helvetica,sans-Serif" font-size="10.00">../Managers/FontManager.hpp</text>
</a>
</g>
</g>
<!-- Node7&#45;&gt;Node18 -->
<g id="edge25" class="edge">
<title>Node7&#45;&gt;Node18</title>
<path fill="none" stroke="midnightblue" d="M663.94,-280.46C665.04,-267.05 668.91,-240.83 682.5,-224 694.38,-209.29 712.4,-198.7 728.63,-191.5"/>
<polygon fill="midnightblue" stroke="midnightblue" points="730.01,-194.71 737.91,-187.65 727.33,-188.25 730.01,-194.71"/>
</g>
<!-- Node22 -->
<g id="node22" class="node">
<title>Node22</title>
<g id="a_node22"><a xlink:href="TextureManager_8hpp.html" target="_top" xlink:title=" ">
<polygon fill="none" stroke="black" points="421.5,-168.5 421.5,-187.5 579.5,-187.5 579.5,-168.5 421.5,-168.5"/>
<text text-anchor="middle" x="500.5" y="-175.5" font-family="Helvetica,sans-Serif" font-size="10.00">../Managers/TextureManager.hpp</text>
</a>
</g>
</g>
<!-- Node7&#45;&gt;Node22 -->
<g id="edge32" class="edge">
<title>Node7&#45;&gt;Node22</title>
<path fill="none" stroke="midnightblue" d="M649.72,-280.36C635.53,-271.41 612.82,-256.95 593.5,-244 568.19,-227.03 539.51,-206.84 520.78,-193.51"/>
<polygon fill="midnightblue" stroke="midnightblue" points="522.61,-190.52 512.44,-187.56 518.55,-196.22 522.61,-190.52"/>
</g>
<!-- Node24 -->
<g id="node24" class="node">
<title>Node24</title>
<g id="a_node24"><a xlink:title=" ">
<polygon fill="none" stroke="#bfbfbf" points="559.5,-56.5 559.5,-75.5 635.5,-75.5 635.5,-56.5 559.5,-56.5"/>
<text text-anchor="middle" x="597.5" y="-63.5" font-family="Helvetica,sans-Serif" font-size="10.00">SDL_render.h</text>
</a>
</g>
</g>
<!-- Node7&#45;&gt;Node24 -->
<g id="edge41" class="edge">
<title>Node7&#45;&gt;Node24</title>
<path fill="none" stroke="midnightblue" d="M660.91,-280.3C651.18,-247.56 616.64,-131.38 603.05,-85.67"/>
<polygon fill="midnightblue" stroke="midnightblue" points="606.35,-84.47 600.14,-75.88 599.64,-86.47 606.35,-84.47"/>
</g>
<!-- Node25 -->
<g id="node25" class="node">
<title>Node25</title>
<g id="a_node25"><a xlink:title=" ">
<polygon fill="none" stroke="#bfbfbf" points="691.5,-224.5 691.5,-243.5 763.5,-243.5 763.5,-224.5 691.5,-224.5"/>
<text text-anchor="middle" x="727.5" y="-231.5" font-family="Helvetica,sans-Serif" font-size="10.00">SDL_video.h</text>
</a>
</g>
</g>
<!-- Node7&#45;&gt;Node25 -->
<g id="edge42" class="edge">
<title>Node7&#45;&gt;Node25</title>
<path fill="none" stroke="midnightblue" d="M673.78,-280.32C683.34,-272.26 697.78,-260.08 709.28,-250.37"/>
<polygon fill="midnightblue" stroke="midnightblue" points="711.64,-252.96 717.03,-243.83 707.13,-247.61 711.64,-252.96"/>
</g>
<!-- Node9&#45;&gt;Node8 -->
<g id="edge22" class="edge">
<title>Node9&#45;&gt;Node8</title>
<path fill="none" stroke="midnightblue" d="M411.14,-224.35C402.77,-215.52 389.7,-201.26 379.5,-188 367.55,-172.46 355.36,-153.7 347.02,-140.33"/>
<polygon fill="midnightblue" stroke="midnightblue" points="349.92,-138.36 341.69,-131.68 343.96,-142.03 349.92,-138.36"/>
</g>
<!-- Node10 -->
<g id="node10" class="node">
<title>Node10</title>
<g id="a_node10"><a xlink:href="UIObject_8hpp.html" target="_top" xlink:title=" ">
<polygon fill="none" stroke="black" points="902.5,-168.5 902.5,-187.5 976.5,-187.5 976.5,-168.5 902.5,-168.5"/>
<text text-anchor="middle" x="939.5" y="-175.5" font-family="Helvetica,sans-Serif" font-size="10.00">UIObject.hpp</text>
</a>
</g>
</g>
<!-- Node9&#45;&gt;Node10 -->
<g id="edge13" class="edge">
<title>Node9&#45;&gt;Node10</title>
<path fill="none" stroke="midnightblue" d="M446,-230.25C529.12,-221.62 785.5,-194.99 892.17,-183.91"/>
<polygon fill="midnightblue" stroke="midnightblue" points="892.74,-187.38 902.32,-182.86 892.01,-180.41 892.74,-187.38"/>
</g>
<!-- Node16 -->
<g id="node16" class="node">
<title>Node16</title>
<g id="a_node16"><a xlink:title=" ">
<polygon fill="none" stroke="#bfbfbf" points="500,-56.5 500,-75.5 541,-75.5 541,-56.5 500,-56.5"/>
<text text-anchor="middle" x="520.5" y="-63.5" font-family="Helvetica,sans-Serif" font-size="10.00">string</text>
</a>
</g>
</g>
<!-- Node9&#45;&gt;Node16 -->
<g id="edge23" class="edge">
<title>Node9&#45;&gt;Node16</title>
<path fill="none" stroke="midnightblue" d="M417.76,-224.42C416.03,-215.4 413.49,-200.77 412.5,-188 409.67,-151.46 418.79,-138.11 444.5,-112 457.69,-98.61 475.67,-87.73 490.83,-80.02"/>
<polygon fill="midnightblue" stroke="midnightblue" points="492.37,-83.16 499.84,-75.64 489.31,-76.86 492.37,-83.16"/>
</g>
<!-- Node11 -->
<g id="node11" class="node">
<title>Node11</title>
<g id="a_node11"><a xlink:href="GameObject_8hpp.html" target="_top" xlink:title=" ">
<polygon fill="none" stroke="black" points="984,-112.5 984,-131.5 1073,-131.5 1073,-112.5 984,-112.5"/>
<text text-anchor="middle" x="1028.5" y="-119.5" font-family="Helvetica,sans-Serif" font-size="10.00">GameObject.hpp</text>
</a>
</g>
</g>
<!-- Node10&#45;&gt;Node11 -->
<g id="edge14" class="edge">
<title>Node10&#45;&gt;Node11</title>
<path fill="none" stroke="midnightblue" d="M953.8,-168.32C967.68,-159.9 988.99,-146.97 1005.3,-137.07"/>
<polygon fill="midnightblue" stroke="midnightblue" points="1007.5,-139.83 1014.24,-131.65 1003.87,-133.85 1007.5,-139.83"/>
</g>
<!-- Node12 -->
<g id="node12" class="node">
<title>Node12</title>
<g id="a_node12"><a xlink:href="Component_8hpp.html" target="_top" xlink:title=" ">
<polygon fill="none" stroke="black" points="1089.5,-56.5 1089.5,-75.5 1173.5,-75.5 1173.5,-56.5 1089.5,-56.5"/>
<text text-anchor="middle" x="1131.5" y="-63.5" font-family="Helvetica,sans-Serif" font-size="10.00">Component.hpp</text>
</a>
</g>
</g>
<!-- Node11&#45;&gt;Node12 -->
<g id="edge15" class="edge">
<title>Node11&#45;&gt;Node12</title>
<path fill="none" stroke="midnightblue" d="M1045.05,-112.32C1061.49,-103.7 1086.93,-90.36 1105.97,-80.39"/>
<polygon fill="midnightblue" stroke="midnightblue" points="1107.76,-83.4 1114.99,-75.65 1104.51,-77.2 1107.76,-83.4"/>
</g>
<!-- Node13 -->
<g id="node13" class="node">
<title>Node13</title>
<g id="a_node13"><a xlink:title=" ">
<polygon fill="none" stroke="#bfbfbf" points="854,-0.5 854,-19.5 905,-19.5 905,-0.5 854,-0.5"/>
<text text-anchor="middle" x="879.5" y="-7.5" font-family="Helvetica,sans-Serif" font-size="10.00">memory</text>
</a>
</g>
</g>
<!-- Node11&#45;&gt;Node13 -->
<g id="edge21" class="edge">
<title>Node11&#45;&gt;Node13</title>
<path fill="none" stroke="midnightblue" d="M1032.63,-112.42C1038.44,-98.96 1047.02,-72.67 1034.5,-56 1020.15,-36.89 956.13,-23.27 914.99,-16.31"/>
<polygon fill="midnightblue" stroke="midnightblue" points="915.5,-12.85 905.06,-14.68 914.36,-19.75 915.5,-12.85"/>
</g>
<!-- Node11&#45;&gt;Node14 -->
<g id="edge17" class="edge">
<title>Node11&#45;&gt;Node14</title>
<path fill="none" stroke="midnightblue" d="M1021.4,-112.08C1015.26,-104.38 1006.23,-93.03 998.76,-83.65"/>
<polygon fill="midnightblue" stroke="midnightblue" points="1001.44,-81.39 992.47,-75.75 995.96,-85.75 1001.44,-81.39"/>
</g>
<!-- Node11&#45;&gt;Node16 -->
<g id="edge19" class="edge">
<title>Node11&#45;&gt;Node16</title>
<path fill="none" stroke="midnightblue" d="M983.94,-117.94C885.23,-110.97 649.76,-93.34 550.98,-75.62"/>
<polygon fill="midnightblue" stroke="midnightblue" points="551.5,-72.16 541.02,-73.74 550.2,-79.03 551.5,-72.16"/>
</g>
<!-- Node17 -->
<g id="node17" class="node">
<title>Node17</title>
<g id="a_node17"><a xlink:title=" ">
<polygon fill="none" stroke="#bfbfbf" points="1241.5,-56.5 1241.5,-75.5 1285.5,-75.5 1285.5,-56.5 1241.5,-56.5"/>
<text text-anchor="middle" x="1263.5" y="-63.5" font-family="Helvetica,sans-Serif" font-size="10.00">vector</text>
</a>
</g>
</g>
<!-- Node11&#45;&gt;Node17 -->
<g id="edge20" class="edge">
<title>Node11&#45;&gt;Node17</title>
<path fill="none" stroke="midnightblue" d="M1065.74,-112.44C1111.41,-101.95 1188.08,-84.33 1231.31,-74.4"/>
<polygon fill="midnightblue" stroke="midnightblue" points="1232.33,-77.75 1241.29,-72.1 1230.76,-70.93 1232.33,-77.75"/>
</g>
<!-- Node12&#45;&gt;Node13 -->
<g id="edge16" class="edge">
<title>Node12&#45;&gt;Node13</title>
<path fill="none" stroke="midnightblue" d="M1091.57,-56.44C1042.93,-46.02 961.5,-28.57 914.97,-18.6"/>
<polygon fill="midnightblue" stroke="midnightblue" points="915.55,-15.15 905.04,-16.47 914.09,-21.99 915.55,-15.15"/>
</g>
<!-- Node15 -->
<g id="node15" class="node">
<title>Node15</title>
<g id="a_node15"><a xlink:href="Point_8hpp.html" target="_top" xlink:title=" ">
<polygon fill="none" stroke="black" points="1125,-0.5 1125,-19.5 1182,-19.5 1182,-0.5 1125,-0.5"/>
<text text-anchor="middle" x="1153.5" y="-7.5" font-family="Helvetica,sans-Serif" font-size="10.00">Point.hpp</text>
</a>
</g>
</g>
<!-- Node14&#45;&gt;Node15 -->
<g id="edge18" class="edge">
<title>Node14&#45;&gt;Node15</title>
<path fill="none" stroke="midnightblue" d="M1012.12,-56.44C1040.51,-47.32 1085.64,-32.81 1117.25,-22.65"/>
<polygon fill="midnightblue" stroke="midnightblue" points="1118.56,-25.91 1127,-19.52 1116.41,-19.24 1118.56,-25.91"/>
</g>
<!-- Node18&#45;&gt;Node13 -->
<g id="edge30" class="edge">
<title>Node18&#45;&gt;Node13</title>
<path fill="none" stroke="midnightblue" d="M764.32,-168.35C761.88,-146.95 758.52,-90.74 784.5,-56 798.87,-36.78 823.54,-25.44 844.14,-18.94"/>
<polygon fill="midnightblue" stroke="midnightblue" points="845.23,-22.27 853.86,-16.13 843.28,-15.55 845.23,-22.27"/>
</g>
<!-- Node18&#45;&gt;Node16 -->
<g id="edge31" class="edge">
<title>Node18&#45;&gt;Node16</title>
<path fill="none" stroke="midnightblue" d="M746.28,-168.37C703.34,-149.09 599.46,-102.45 548.99,-79.79"/>
<polygon fill="midnightblue" stroke="midnightblue" points="550.19,-76.49 539.64,-75.59 547.32,-82.88 550.19,-76.49"/>
</g>
<!-- Node19 -->
<g id="node19" class="node">
<title>Node19</title>
<g id="a_node19"><a xlink:href="libs_2spic-engine_2src_2Models_2Font_8hpp.html" target="_top" xlink:title=" ">
<polygon fill="none" stroke="black" points="793.5,-112.5 793.5,-131.5 889.5,-131.5 889.5,-112.5 793.5,-112.5"/>
<text text-anchor="middle" x="841.5" y="-119.5" font-family="Helvetica,sans-Serif" font-size="10.00">../Models/Font.hpp</text>
</a>
</g>
</g>
<!-- Node18&#45;&gt;Node19 -->
<g id="edge26" class="edge">
<title>Node18&#45;&gt;Node19</title>
<path fill="none" stroke="midnightblue" d="M777.71,-168.32C789.28,-160.11 806.88,-147.6 820.66,-137.81"/>
<polygon fill="midnightblue" stroke="midnightblue" points="822.94,-140.48 829.07,-131.83 818.89,-134.77 822.94,-140.48"/>
</g>
<!-- Node21 -->
<g id="node21" class="node">
<title>Node21</title>
<g id="a_node21"><a xlink:title=" ">
<polygon fill="none" stroke="#bfbfbf" points="702,-112.5 702,-131.5 737,-131.5 737,-112.5 702,-112.5"/>
<text text-anchor="middle" x="719.5" y="-119.5" font-family="Helvetica,sans-Serif" font-size="10.00">map</text>
</a>
</g>
</g>
<!-- Node18&#45;&gt;Node21 -->
<g id="edge29" class="edge">
<title>Node18&#45;&gt;Node21</title>
<path fill="none" stroke="midnightblue" d="M757.9,-168.08C751.27,-160.3 741.48,-148.8 733.44,-139.37"/>
<polygon fill="midnightblue" stroke="midnightblue" points="736.1,-137.09 726.95,-131.75 730.77,-141.63 736.1,-137.09"/>
</g>
<!-- Node19&#45;&gt;Node13 -->
<g id="edge28" class="edge">
<title>Node19&#45;&gt;Node13</title>
<path fill="none" stroke="midnightblue" d="M845.44,-112.49C849.51,-103.53 855.89,-88.94 860.5,-76 866.04,-60.42 871.23,-42.35 874.78,-29.22"/>
<polygon fill="midnightblue" stroke="midnightblue" points="878.17,-30.08 877.35,-19.51 871.4,-28.29 878.17,-30.08"/>
</g>
<!-- Node20 -->
<g id="node20" class="node">
<title>Node20</title>
<g id="a_node20"><a xlink:title=" ">
<polygon fill="none" stroke="#bfbfbf" points="793.5,-56.5 793.5,-75.5 851.5,-75.5 851.5,-56.5 793.5,-56.5"/>
<text text-anchor="middle" x="822.5" y="-63.5" font-family="Helvetica,sans-Serif" font-size="10.00">SDL_ttf.h</text>
</a>
</g>
</g>
<!-- Node19&#45;&gt;Node20 -->
<g id="edge27" class="edge">
<title>Node19&#45;&gt;Node20</title>
<path fill="none" stroke="midnightblue" d="M838.36,-112.08C835.82,-104.85 832.14,-94.41 828.97,-85.4"/>
<polygon fill="midnightblue" stroke="midnightblue" points="832.2,-84.02 825.58,-75.75 825.6,-86.35 832.2,-84.02"/>
</g>
<!-- Node22&#45;&gt;Node8 -->
<g id="edge37" class="edge">
<title>Node22&#45;&gt;Node8</title>
<path fill="none" stroke="midnightblue" d="M474.51,-168.44C446.8,-159.32 402.75,-144.81 371.88,-134.65"/>
<polygon fill="midnightblue" stroke="midnightblue" points="372.96,-131.32 362.36,-131.52 370.77,-137.97 372.96,-131.32"/>
</g>
<!-- Node22&#45;&gt;Node13 -->
<g id="edge39" class="edge">
<title>Node22&#45;&gt;Node13</title>
<path fill="none" stroke="midnightblue" d="M518.99,-168.42C562.47,-148.3 674.68,-96.71 769.5,-56 795.97,-44.64 826.29,-32.28 848.38,-23.4"/>
<polygon fill="midnightblue" stroke="midnightblue" points="849.93,-26.55 857.91,-19.58 847.33,-20.05 849.93,-26.55"/>
</g>
<!-- Node22&#45;&gt;Node16 -->
<g id="edge40" class="edge">
<title>Node22&#45;&gt;Node16</title>
<path fill="none" stroke="midnightblue" d="M485.39,-168.37C466.63,-156.47 438.49,-133.99 450.5,-112 459.02,-96.4 475.52,-85.4 490.36,-78.18"/>
<polygon fill="midnightblue" stroke="midnightblue" points="492.07,-81.25 499.78,-73.97 489.22,-74.86 492.07,-81.25"/>
</g>
<!-- Node22&#45;&gt;Node21 -->
<g id="edge38" class="edge">
<title>Node22&#45;&gt;Node21</title>
<path fill="none" stroke="midnightblue" d="M537.86,-168.45C575.68,-159.69 635.8,-145.49 687.5,-132 688.97,-131.62 690.47,-131.22 691.98,-130.81"/>
<polygon fill="midnightblue" stroke="midnightblue" points="693.22,-134.1 701.93,-128.07 691.36,-127.35 693.22,-134.1"/>
</g>
<!-- Node23 -->
<g id="node23" class="node">
<title>Node23</title>
<g id="a_node23"><a xlink:href="Texture_8hpp.html" target="_top" xlink:title=" ">
<polygon fill="none" stroke="black" points="460,-112.5 460,-131.5 569,-131.5 569,-112.5 460,-112.5"/>
<text text-anchor="middle" x="514.5" y="-119.5" font-family="Helvetica,sans-Serif" font-size="10.00">../Models/Texture.hpp</text>
</a>
</g>
</g>
<!-- Node22&#45;&gt;Node23 -->
<g id="edge33" class="edge">
<title>Node22&#45;&gt;Node23</title>
<path fill="none" stroke="midnightblue" d="M502.81,-168.08C504.67,-160.93 507.34,-150.64 509.65,-141.69"/>
<polygon fill="midnightblue" stroke="midnightblue" points="513.11,-142.31 512.23,-131.75 506.33,-140.55 513.11,-142.31"/>
</g>
<!-- Node23&#45;&gt;Node13 -->
<g id="edge35" class="edge">
<title>Node23&#45;&gt;Node13</title>
<path fill="none" stroke="midnightblue" d="M506.38,-112.39C494.62,-98.87 475.78,-72.53 490.5,-56 513.8,-29.85 751.69,-16.64 843.57,-12.48"/>
<polygon fill="midnightblue" stroke="midnightblue" points="843.93,-15.97 853.77,-12.03 843.62,-8.98 843.93,-15.97"/>
</g>
<!-- Node23&#45;&gt;Node16 -->
<g id="edge34" class="edge">
<title>Node23&#45;&gt;Node16</title>
<path fill="none" stroke="midnightblue" d="M515.49,-112.08C516.29,-104.93 517.43,-94.64 518.42,-85.69"/>
<polygon fill="midnightblue" stroke="midnightblue" points="521.9,-86.08 519.53,-75.75 514.94,-85.3 521.9,-86.08"/>
</g>
<!-- Node23&#45;&gt;Node24 -->
<g id="edge36" class="edge">
<title>Node23&#45;&gt;Node24</title>
<path fill="none" stroke="midnightblue" d="M527.84,-112.32C540.66,-103.98 560.28,-91.21 575.44,-81.35"/>
<polygon fill="midnightblue" stroke="midnightblue" points="577.72,-84.04 584.2,-75.65 573.91,-78.17 577.72,-84.04"/>
</g>
<!-- Node26&#45;&gt;Node2 -->
<g id="edge51" class="edge">
<title>Node26&#45;&gt;Node2</title>
<path fill="none" stroke="midnightblue" d="M1066.43,-339.5C1053.6,-338.33 1040.09,-337.11 1027.5,-336 836.9,-319.25 789.08,-317.02 598.5,-300 584.96,-298.79 570.33,-297.43 556.71,-296.14"/>
<polygon fill="midnightblue" stroke="midnightblue" points="556.81,-292.64 546.53,-295.17 556.15,-299.61 556.81,-292.64"/>
</g>
<!-- Node26&#45;&gt;Node11 -->
<g id="edge50" class="edge">
<title>Node26&#45;&gt;Node11</title>
<path fill="none" stroke="midnightblue" d="M1121.7,-336.3C1107.33,-303.42 1056.2,-186.39 1036.4,-141.09"/>
<polygon fill="midnightblue" stroke="midnightblue" points="1039.59,-139.65 1032.38,-131.88 1033.18,-142.45 1039.59,-139.65"/>
</g>
<!-- Node26&#45;&gt;Node13 -->
<g id="edge45" class="edge">
<title>Node26&#45;&gt;Node13</title>
<path fill="none" stroke="midnightblue" d="M1099.05,-336.5C1048.16,-318.53 937.73,-271.34 893.5,-188 889.33,-180.15 892.89,-176.87 893.5,-168 895.22,-143.07 900.82,-136.88 898.5,-112 895.79,-82.91 888.77,-49.7 884.07,-29.55"/>
<polygon fill="midnightblue" stroke="midnightblue" points="887.41,-28.48 881.67,-19.57 880.6,-30.11 887.41,-28.48"/>
</g>
<!-- Node26&#45;&gt;Node17 -->
<g id="edge49" class="edge">
<title>Node26&#45;&gt;Node17</title>
<path fill="none" stroke="midnightblue" d="M1183.07,-336.49C1272.22,-321.67 1433.5,-287.59 1433.5,-235 1433.5,-235 1433.5,-235 1433.5,-177 1433.5,-112.02 1344.86,-83.53 1295.59,-72.71"/>
<polygon fill="midnightblue" stroke="midnightblue" points="1296.23,-69.27 1285.72,-70.66 1294.81,-76.12 1296.23,-69.27"/>
</g>
<!-- Node27 -->
<g id="node27" class="node">
<title>Node27</title>
<g id="a_node27"><a xlink:title=" ">
<polygon fill="none" stroke="#bfbfbf" points="1289.5,-168.5 1289.5,-187.5 1367.5,-187.5 1367.5,-168.5 1289.5,-168.5"/>
<text text-anchor="middle" x="1328.5" y="-175.5" font-family="Helvetica,sans-Serif" font-size="10.00">box2d/box2d.h</text>
</a>
</g>
</g>
<!-- Node26&#45;&gt;Node27 -->
<g id="edge44" class="edge">
<title>Node26&#45;&gt;Node27</title>
<path fill="none" stroke="midnightblue" d="M1138.43,-336.39C1163.28,-319.63 1219.12,-281.02 1262.5,-244 1280.73,-228.44 1300.11,-208.96 1313.12,-195.4"/>
<polygon fill="midnightblue" stroke="midnightblue" points="1315.98,-197.48 1320.32,-187.82 1310.9,-192.66 1315.98,-197.48"/>
</g>
<!-- Node28 -->
<g id="node28" class="node">
<title>Node28</title>
<g id="a_node28"><a xlink:href="RigidBody_8hpp.html" target="_top" xlink:title=" ">
<polygon fill="none" stroke="black" points="1291.5,-112.5 1291.5,-131.5 1369.5,-131.5 1369.5,-112.5 1291.5,-112.5"/>
<text text-anchor="middle" x="1330.5" y="-119.5" font-family="Helvetica,sans-Serif" font-size="10.00">RigidBody.hpp</text>
</a>
</g>
</g>
<!-- Node26&#45;&gt;Node28 -->
<g id="edge46" class="edge">
<title>Node26&#45;&gt;Node28</title>
<path fill="none" stroke="midnightblue" d="M1157.53,-336.5C1214.44,-319.41 1331.41,-274.91 1376.5,-188 1386.1,-169.5 1368.45,-150.25 1352.31,-137.55"/>
<polygon fill="midnightblue" stroke="midnightblue" points="1354.28,-134.66 1344.16,-131.54 1350.13,-140.3 1354.28,-134.66"/>
</g>
<!-- Node29 -->
<g id="node29" class="node">
<title>Node29</title>
<g id="a_node29"><a xlink:href="ContactListener_8hpp.html" target="_top" xlink:title=" ">
<polygon fill="none" stroke="black" points="1098,-224.5 1098,-243.5 1253,-243.5 1253,-224.5 1098,-224.5"/>
<text text-anchor="middle" x="1175.5" y="-231.5" font-family="Helvetica,sans-Serif" font-size="10.00">../Listeners/ContactListener.hpp</text>
</a>
</g>
</g>
<!-- Node26&#45;&gt;Node29 -->
<g id="edge52" class="edge">
<title>Node26&#45;&gt;Node29</title>
<path fill="none" stroke="midnightblue" d="M1129.42,-336.37C1137.57,-318.46 1156.44,-276.92 1167.34,-252.95"/>
<polygon fill="midnightblue" stroke="midnightblue" points="1170.64,-254.14 1171.59,-243.59 1164.27,-251.25 1170.64,-254.14"/>
</g>
<!-- Node28&#45;&gt;Node12 -->
<g id="edge47" class="edge">
<title>Node28&#45;&gt;Node12</title>
<path fill="none" stroke="midnightblue" d="M1298.97,-112.44C1264.91,-103.2 1210.49,-88.44 1172.98,-78.26"/>
<polygon fill="midnightblue" stroke="midnightblue" points="1173.45,-74.76 1162.88,-75.52 1171.62,-81.51 1173.45,-74.76"/>
</g>
<!-- Node28&#45;&gt;Node15 -->
<g id="edge48" class="edge">
<title>Node28&#45;&gt;Node15</title>
<path fill="none" stroke="midnightblue" d="M1328.06,-112.49C1323.65,-98.63 1313.05,-71.22 1294.5,-56 1265.14,-31.92 1222.68,-20.64 1192.04,-15.41"/>
<polygon fill="midnightblue" stroke="midnightblue" points="1192.56,-11.95 1182.14,-13.86 1191.47,-18.87 1192.56,-11.95"/>
</g>
<!-- Node29&#45;&gt;Node12 -->
<g id="edge54" class="edge">
<title>Node29&#45;&gt;Node12</title>
<path fill="none" stroke="midnightblue" d="M1158.3,-224.39C1145.25,-216.79 1128.27,-204.39 1120.5,-188 1104.61,-154.46 1115.76,-109.86 1124.29,-85.25"/>
<polygon fill="midnightblue" stroke="midnightblue" points="1127.62,-86.33 1127.8,-75.74 1121.05,-83.91 1127.62,-86.33"/>
</g>
<!-- Node29&#45;&gt;Node17 -->
<g id="edge60" class="edge">
<title>Node29&#45;&gt;Node17</title>
<path fill="none" stroke="midnightblue" d="M1196.44,-224.42C1211.69,-217.05 1231.52,-204.93 1242.5,-188 1262.93,-156.51 1265.19,-111.11 1264.61,-85.82"/>
<polygon fill="midnightblue" stroke="midnightblue" points="1268.11,-85.59 1264.2,-75.74 1261.11,-85.88 1268.11,-85.59"/>
</g>
<!-- Node29&#45;&gt;Node21 -->
<g id="edge55" class="edge">
<title>Node29&#45;&gt;Node21</title>
<path fill="none" stroke="midnightblue" d="M1097.91,-231.52C966.31,-228.21 710.84,-217.95 683.5,-188 670.07,-173.29 685.94,-152.68 700.65,-138.63"/>
<polygon fill="midnightblue" stroke="midnightblue" points="703.4,-140.87 708.51,-131.59 698.72,-135.66 703.4,-140.87"/>
</g>
<!-- Node29&#45;&gt;Node27 -->
<g id="edge53" class="edge">
<title>Node29&#45;&gt;Node27</title>
<path fill="none" stroke="midnightblue" d="M1199.74,-224.44C1225.37,-215.4 1265.99,-201.06 1294.74,-190.92"/>
<polygon fill="midnightblue" stroke="midnightblue" points="1296.11,-194.15 1304.37,-187.52 1293.78,-187.54 1296.11,-194.15"/>
</g>
<!-- Node30 -->
<g id="node30" class="node">
<title>Node30</title>
<g id="a_node30"><a xlink:href="BehaviourScript_8hpp.html" target="_top" xlink:title=" ">
<polygon fill="none" stroke="black" points="1129.5,-168.5 1129.5,-187.5 1233.5,-187.5 1233.5,-168.5 1129.5,-168.5"/>
<text text-anchor="middle" x="1181.5" y="-175.5" font-family="Helvetica,sans-Serif" font-size="10.00">BehaviourScript.hpp</text>
</a>
</g>
</g>
<!-- Node29&#45;&gt;Node30 -->
<g id="edge56" class="edge">
<title>Node29&#45;&gt;Node30</title>
<path fill="none" stroke="midnightblue" d="M1176.49,-224.08C1177.29,-216.93 1178.43,-206.64 1179.42,-197.69"/>
<polygon fill="midnightblue" stroke="midnightblue" points="1182.9,-198.08 1180.53,-187.75 1175.94,-197.3 1182.9,-198.08"/>
</g>
<!-- Node30&#45;&gt;Node12 -->
<g id="edge57" class="edge">
<title>Node30&#45;&gt;Node12</title>
<path fill="none" stroke="midnightblue" d="M1177.16,-168.43C1172.63,-159.42 1165.38,-144.8 1159.5,-132 1152.29,-116.32 1144.57,-98.28 1139.06,-85.19"/>
<polygon fill="midnightblue" stroke="midnightblue" points="1142.26,-83.77 1135.17,-75.89 1135.8,-86.47 1142.26,-83.77"/>
</g>
<!-- Node31 -->
<g id="node31" class="node">
<title>Node31</title>
<g id="a_node31"><a xlink:href="Collider_8hpp.html" target="_top" xlink:title=" ">
<polygon fill="none" stroke="black" points="1168,-112.5 1168,-131.5 1235,-131.5 1235,-112.5 1168,-112.5"/>
<text text-anchor="middle" x="1201.5" y="-119.5" font-family="Helvetica,sans-Serif" font-size="10.00">Collider.hpp</text>
</a>
</g>
</g>
<!-- Node30&#45;&gt;Node31 -->
<g id="edge58" class="edge">
<title>Node30&#45;&gt;Node31</title>
<path fill="none" stroke="midnightblue" d="M1184.8,-168.08C1187.48,-160.85 1191.35,-150.41 1194.69,-141.4"/>
<polygon fill="midnightblue" stroke="midnightblue" points="1198.07,-142.34 1198.26,-131.75 1191.5,-139.91 1198.07,-142.34"/>
</g>
<!-- Node31&#45;&gt;Node12 -->
<g id="edge59" class="edge">
<title>Node31&#45;&gt;Node12</title>
<path fill="none" stroke="midnightblue" d="M1190.25,-112.32C1179.7,-104.18 1163.7,-91.84 1151.06,-82.09"/>
<polygon fill="midnightblue" stroke="midnightblue" points="1153.01,-79.17 1142.95,-75.83 1148.73,-84.71 1153.01,-79.17"/>
</g>
<!-- Node32&#45;&gt;Node2 -->
<g id="edge62" class="edge">
<title>Node32&#45;&gt;Node2</title>
<path fill="none" stroke="midnightblue" d="M884.43,-336.92C795.01,-326.14 638.54,-307.28 556.74,-297.42"/>
<polygon fill="midnightblue" stroke="midnightblue" points="557.02,-293.93 546.67,-296.2 556.18,-300.88 557.02,-293.93"/>
</g>
<!-- Node32&#45;&gt;Node7 -->
<g id="edge63" class="edge">
<title>Node32&#45;&gt;Node7</title>
<path fill="none" stroke="midnightblue" d="M905.87,-336.44C855.2,-326.94 773.43,-311.61 719.07,-301.42"/>
<polygon fill="midnightblue" stroke="midnightblue" points="719.39,-297.92 708.92,-299.52 718.1,-304.8 719.39,-297.92"/>
</g>
<!-- Node33&#45;&gt;Node2 -->
<g id="edge65" class="edge">
<title>Node33&#45;&gt;Node2</title>
<path fill="none" stroke="midnightblue" d="M240.94,-336.44C297.99,-326.57 391.48,-310.39 450.15,-300.23"/>
<polygon fill="midnightblue" stroke="midnightblue" points="451.07,-303.63 460.32,-298.47 449.87,-296.73 451.07,-303.63"/>
</g>
<!-- Node34&#45;&gt;Node2 -->
<g id="edge67" class="edge">
<title>Node34&#45;&gt;Node2</title>
<path fill="none" stroke="midnightblue" d="M359.6,-336.44C388.49,-327.32 434.42,-312.81 466.61,-302.65"/>
<polygon fill="midnightblue" stroke="midnightblue" points="468.05,-305.87 476.53,-299.52 465.94,-299.19 468.05,-305.87"/>
</g>
</g>
</svg>
        <g id="navigator" transform="translate(0 0)" fill="#404254">
                <rect fill="#f2f5e9" fill-opacity="0.5" stroke="#606060" stroke-width=".5" x="0" y="0" width="60" height="60"/>
                <use id="zoomplus" xlink:href="#zoomPlus" x="17" y="9" onmousedown="handleZoom(evt,'in')"/>
                <use id="zoomminus" xlink:href="#zoomMin" x="42" y="9" onmousedown="handleZoom(evt,'out')"/>
                <use id="reset" xlink:href="#resetDef" x="30" y="36" onmousedown="handleReset()"/>
                <g id="arrowUp" xlink:href="#dirArrow" transform="translate(30 24)" onmousedown="handlePan(0,-1)">
                  <use xlink:href="#rim" fill="#404040">
                        <set attributeName="fill" to="#808080" begin="arrowUp.mouseover" end="arrowUp.mouseout"/>
                  </use>
                  <path fill="none" stroke="white" stroke-width="1.5" d="M0,-3.0v7 M-2.5,-0.5L0,-3.0L2.5,-0.5"/>
                </g>
                <g id="arrowRight" xlink:href="#dirArrow" transform="rotate(90) translate(36 -43)" onmousedown="handlePan(1,0)">
                  <use xlink:href="#rim" fill="#404040">
                        <set attributeName="fill" to="#808080" begin="arrowRight.mouseover" end="arrowRight.mouseout"/>
                  </use>
                  <path fill="none" stroke="white" stroke-width="1.5" d="M0,-3.0v7 M-2.5,-0.5L0,-3.0L2.5,-0.5"/>
                </g>
                <g id="arrowDown" xlink:href="#dirArrow" transform="rotate(180) translate(-30 -48)" onmousedown="handlePan(0,1)">
                  <use xlink:href="#rim" fill="#404040">
                        <set attributeName="fill" to="#808080" begin="arrowDown.mouseover" end="arrowDown.mouseout"/>
                  </use>
                  <path fill="none" stroke="white" stroke-width="1.5" d="M0,-3.0v7 M-2.5,-0.5L0,-3.0L2.5,-0.5"/>
                </g>
                <g id="arrowLeft" xlink:href="#dirArrow" transform="rotate(270) translate(-36 17)" onmousedown="handlePan(-1,0)">
                  <use xlink:href="#rim" fill="#404040">
                        <set attributeName="fill" to="#808080" begin="arrowLeft.mouseover" end="arrowLeft.mouseout"/>
                  </use>
                  <path fill="none" stroke="white" stroke-width="1.5" d="M0,-3.0v7 M-2.5,-0.5L0,-3.0L2.5,-0.5"/>
                </g>
        </g>
        <svg viewBox="0 0 15 15" width="100%" height="30px" preserveAspectRatio="xMaxYMin meet">
         <g id="arrow_out" transform="scale(0.3 0.3)">
          <a xlink:href="Subsystems_8hpp__incl_org.svg" target="_base">
           <rect id="button" ry="5" rx="5" y="6" x="6" height="38" width="38"
                fill="#f2f5e9" fill-opacity="0.5" stroke="#606060" stroke-width="1.0"/>
           <path id="arrow"
             d="M 11.500037,31.436501 C 11.940474,20.09759 22.043105,11.32322 32.158766,21.979434 L 37.068811,17.246167 C 37.068811,17.246167 37.088388,32 37.088388,32 L 22.160133,31.978069 C 22.160133,31.978069 26.997745,27.140456 26.997745,27.140456 C 18.528582,18.264221 13.291696,25.230495 11.500037,31.436501 z"
             style="fill:#404040;"/>
          </a>
         </g>
        </svg>
</svg>
