<?xml version="1.0" encoding="UTF-8" standalone="no"?>
<!DOCTYPE svg PUBLIC "-//W3C//DTD SVG 1.1//EN"
 "http://www.w3.org/Graphics/SVG/1.1/DTD/svg11.dtd">
<!-- Generated by graphviz version 2.44.0 ()
 -->
<!-- Title: libs/spic&#45;engine/src/Managers/TextureManager.cpp Pages: 1 -->
<svg width="693pt" height="207pt"
 viewBox="0.00 0.00 693.00 207.00" xmlns="http://www.w3.org/2000/svg" xmlns:xlink="http://www.w3.org/1999/xlink">
<g id="graph0" class="graph" transform="scale(1 1) rotate(0) translate(4 203)">
<title>libs/spic&#45;engine/src/Managers/TextureManager.cpp</title>
<!-- Node1 -->
<g id="node1" class="node">
<title>Node1</title>
<g id="a_node1"><a xlink:title=" ">
<polygon fill="#bfbfbf" stroke="black" points="370,-168.5 370,-198.5 523,-198.5 523,-168.5 370,-168.5"/>
<text text-anchor="start" x="378" y="-186.5" font-family="Helvetica,sans-Serif" font-size="10.00">libs/spic&#45;engine/src</text>
<text text-anchor="middle" x="446.5" y="-175.5" font-family="Helvetica,sans-Serif" font-size="10.00">/Managers/TextureManager.cpp</text>
</a>
</g>
</g>
<!-- Node2 -->
<g id="node2" class="node">
<title>Node2</title>
<g id="a_node2"><a xlink:href="TextureManager_8hpp.html" target="_top" xlink:title=" ">
<polygon fill="none" stroke="black" points="140.5,-112.5 140.5,-131.5 244.5,-131.5 244.5,-112.5 140.5,-112.5"/>
<text text-anchor="middle" x="192.5" y="-119.5" font-family="Helvetica,sans-Serif" font-size="10.00">TextureManager.hpp</text>
</a>
</g>
</g>
<!-- Node1&#45;&gt;Node2 -->
<g id="edge1" class="edge">
<title>Node1&#45;&gt;Node2</title>
<path fill="none" stroke="midnightblue" d="M386.63,-168.47C341.37,-157.87 280.16,-143.53 238.66,-133.81"/>
<polygon fill="midnightblue" stroke="midnightblue" points="239.35,-130.38 228.81,-131.51 237.75,-137.19 239.35,-130.38"/>
</g>
<!-- Node9 -->
<g id="node9" class="node">
<title>Node9</title>
<g id="a_node9"><a xlink:title=" ">
<polygon fill="none" stroke="#bfbfbf" points="263,-112.5 263,-131.5 338,-131.5 338,-112.5 263,-112.5"/>
<text text-anchor="middle" x="300.5" y="-119.5" font-family="Helvetica,sans-Serif" font-size="10.00">SDL_image.h</text>
</a>
</g>
</g>
<!-- Node1&#45;&gt;Node9 -->
<g id="edge10" class="edge">
<title>Node1&#45;&gt;Node9</title>
<path fill="none" stroke="midnightblue" d="M411.9,-168.4C387.4,-158.42 354.84,-145.15 331.25,-135.53"/>
<polygon fill="midnightblue" stroke="midnightblue" points="332.33,-132.19 321.74,-131.66 329.68,-138.67 332.33,-132.19"/>
</g>
<!-- Node10 -->
<g id="node10" class="node">
<title>Node10</title>
<g id="a_node10"><a xlink:href="SDLImageException_8hpp.html" target="_top" xlink:title=" ">
<polygon fill="none" stroke="black" points="356,-112.5 356,-131.5 537,-131.5 537,-112.5 356,-112.5"/>
<text text-anchor="middle" x="446.5" y="-119.5" font-family="Helvetica,sans-Serif" font-size="10.00">../Exceptions/SDLImageException.hpp</text>
</a>
</g>
</g>
<!-- Node1&#45;&gt;Node10 -->
<g id="edge11" class="edge">
<title>Node1&#45;&gt;Node10</title>
<path fill="none" stroke="midnightblue" d="M446.5,-168.4C446.5,-160.47 446.5,-150.46 446.5,-141.86"/>
<polygon fill="midnightblue" stroke="midnightblue" points="450,-141.66 446.5,-131.66 443,-141.66 450,-141.66"/>
</g>
<!-- Node13 -->
<g id="node13" class="node">
<title>Node13</title>
<g id="a_node13"><a xlink:title=" ">
<polygon fill="none" stroke="#bfbfbf" points="555.5,-112.5 555.5,-131.5 607.5,-131.5 607.5,-112.5 555.5,-112.5"/>
<text text-anchor="middle" x="581.5" y="-119.5" font-family="Helvetica,sans-Serif" font-size="10.00">sstream</text>
</a>
</g>
</g>
<!-- Node1&#45;&gt;Node13 -->
<g id="edge15" class="edge">
<title>Node1&#45;&gt;Node13</title>
<path fill="none" stroke="midnightblue" d="M478.49,-168.4C500.94,-158.51 530.71,-145.38 552.48,-135.79"/>
<polygon fill="midnightblue" stroke="midnightblue" points="554.12,-138.89 561.86,-131.66 551.29,-132.49 554.12,-138.89"/>
</g>
<!-- Node14 -->
<g id="node14" class="node">
<title>Node14</title>
<g id="a_node14"><a xlink:title=" ">
<polygon fill="none" stroke="#bfbfbf" points="626,-112.5 626,-131.5 685,-131.5 685,-112.5 626,-112.5"/>
<text text-anchor="middle" x="655.5" y="-119.5" font-family="Helvetica,sans-Serif" font-size="10.00">stdexcept</text>
</a>
</g>
</g>
<!-- Node1&#45;&gt;Node14 -->
<g id="edge16" class="edge">
<title>Node1&#45;&gt;Node14</title>
<path fill="none" stroke="midnightblue" d="M495.77,-168.47C532.56,-158 582.18,-143.87 616.3,-134.16"/>
<polygon fill="midnightblue" stroke="midnightblue" points="617.26,-137.52 625.92,-131.42 615.35,-130.79 617.26,-137.52"/>
</g>
<!-- Node3 -->
<g id="node3" class="node">
<title>Node3</title>
<g id="a_node3"><a xlink:href="Texture_8hpp.html" target="_top" xlink:title=" ">
<polygon fill="none" stroke="black" points="53,-56.5 53,-75.5 162,-75.5 162,-56.5 53,-56.5"/>
<text text-anchor="middle" x="107.5" y="-63.5" font-family="Helvetica,sans-Serif" font-size="10.00">../Models/Texture.hpp</text>
</a>
</g>
</g>
<!-- Node2&#45;&gt;Node3 -->
<g id="edge2" class="edge">
<title>Node2&#45;&gt;Node3</title>
<path fill="none" stroke="midnightblue" d="M178.84,-112.32C165.58,-103.9 145.23,-90.97 129.65,-81.07"/>
<polygon fill="midnightblue" stroke="midnightblue" points="131.44,-78.06 121.12,-75.65 127.69,-83.97 131.44,-78.06"/>
</g>
<!-- Node4 -->
<g id="node4" class="node">
<title>Node4</title>
<g id="a_node4"><a xlink:title=" ">
<polygon fill="none" stroke="#bfbfbf" points="298,-0.5 298,-19.5 339,-19.5 339,-0.5 298,-0.5"/>
<text text-anchor="middle" x="318.5" y="-7.5" font-family="Helvetica,sans-Serif" font-size="10.00">string</text>
</a>
</g>
</g>
<!-- Node2&#45;&gt;Node4 -->
<g id="edge9" class="edge">
<title>Node2&#45;&gt;Node4</title>
<path fill="none" stroke="midnightblue" d="M234.71,-112.47C256.82,-105.97 282.73,-94.8 299.5,-76 310.86,-63.26 315.45,-44.07 317.29,-29.83"/>
<polygon fill="midnightblue" stroke="midnightblue" points="320.79,-29.99 318.25,-19.7 313.82,-29.33 320.79,-29.99"/>
</g>
<!-- Node5 -->
<g id="node5" class="node">
<title>Node5</title>
<g id="a_node5"><a xlink:title=" ">
<polygon fill="none" stroke="#bfbfbf" points="0,-0.5 0,-19.5 51,-19.5 51,-0.5 0,-0.5"/>
<text text-anchor="middle" x="25.5" y="-7.5" font-family="Helvetica,sans-Serif" font-size="10.00">memory</text>
</a>
</g>
</g>
<!-- Node2&#45;&gt;Node5 -->
<g id="edge8" class="edge">
<title>Node2&#45;&gt;Node5</title>
<path fill="none" stroke="midnightblue" d="M140.48,-117.73C108.44,-113.01 68.81,-101.9 43.5,-76 31.62,-63.84 27.42,-44.57 26.02,-30.16"/>
<polygon fill="midnightblue" stroke="midnightblue" points="29.5,-29.65 25.4,-19.88 22.51,-30.07 29.5,-29.65"/>
</g>
<!-- Node7 -->
<g id="node7" class="node">
<title>Node7</title>
<g id="a_node7"><a xlink:href="Color_8hpp.html" target="_top" xlink:title=" ">
<polygon fill="none" stroke="black" points="180,-56.5 180,-75.5 237,-75.5 237,-56.5 180,-56.5"/>
<text text-anchor="middle" x="208.5" y="-63.5" font-family="Helvetica,sans-Serif" font-size="10.00">Color.hpp</text>
</a>
</g>
</g>
<!-- Node2&#45;&gt;Node7 -->
<g id="edge6" class="edge">
<title>Node2&#45;&gt;Node7</title>
<path fill="none" stroke="midnightblue" d="M195.14,-112.08C197.29,-104.85 200.38,-94.41 203.05,-85.4"/>
<polygon fill="midnightblue" stroke="midnightblue" points="206.42,-86.33 205.91,-75.75 199.71,-84.34 206.42,-86.33"/>
</g>
<!-- Node8 -->
<g id="node8" class="node">
<title>Node8</title>
<g id="a_node8"><a xlink:title=" ">
<polygon fill="none" stroke="#bfbfbf" points="255,-56.5 255,-75.5 290,-75.5 290,-56.5 255,-56.5"/>
<text text-anchor="middle" x="272.5" y="-63.5" font-family="Helvetica,sans-Serif" font-size="10.00">map</text>
</a>
</g>
</g>
<!-- Node2&#45;&gt;Node8 -->
<g id="edge7" class="edge">
<title>Node2&#45;&gt;Node8</title>
<path fill="none" stroke="midnightblue" d="M205.35,-112.32C217.72,-103.98 236.63,-91.21 251.24,-81.35"/>
<polygon fill="midnightblue" stroke="midnightblue" points="253.35,-84.15 259.68,-75.65 249.43,-78.35 253.35,-84.15"/>
</g>
<!-- Node3&#45;&gt;Node4 -->
<g id="edge3" class="edge">
<title>Node3&#45;&gt;Node4</title>
<path fill="none" stroke="midnightblue" d="M140.93,-56.44C181.47,-46.07 249.19,-28.74 288.24,-18.74"/>
<polygon fill="midnightblue" stroke="midnightblue" points="289.16,-22.12 297.98,-16.25 287.43,-15.34 289.16,-22.12"/>
</g>
<!-- Node3&#45;&gt;Node5 -->
<g id="edge4" class="edge">
<title>Node3&#45;&gt;Node5</title>
<path fill="none" stroke="midnightblue" d="M94.33,-56.32C81.65,-47.98 62.27,-35.21 47.29,-25.35"/>
<polygon fill="midnightblue" stroke="midnightblue" points="48.92,-22.23 38.64,-19.65 45.07,-28.08 48.92,-22.23"/>
</g>
<!-- Node6 -->
<g id="node6" class="node">
<title>Node6</title>
<g id="a_node6"><a xlink:title=" ">
<polygon fill="none" stroke="#bfbfbf" points="69.5,-0.5 69.5,-19.5 145.5,-19.5 145.5,-0.5 69.5,-0.5"/>
<text text-anchor="middle" x="107.5" y="-7.5" font-family="Helvetica,sans-Serif" font-size="10.00">SDL_render.h</text>
</a>
</g>
</g>
<!-- Node3&#45;&gt;Node6 -->
<g id="edge5" class="edge">
<title>Node3&#45;&gt;Node6</title>
<path fill="none" stroke="midnightblue" d="M107.5,-56.08C107.5,-49.01 107.5,-38.86 107.5,-29.99"/>
<polygon fill="midnightblue" stroke="midnightblue" points="111,-29.75 107.5,-19.75 104,-29.75 111,-29.75"/>
</g>
<!-- Node11 -->
<g id="node11" class="node">
<title>Node11</title>
<g id="a_node11"><a xlink:href="EngineException_8hpp.html" target="_top" xlink:title=" ">
<polygon fill="none" stroke="black" points="377.5,-56.5 377.5,-75.5 483.5,-75.5 483.5,-56.5 377.5,-56.5"/>
<text text-anchor="middle" x="430.5" y="-63.5" font-family="Helvetica,sans-Serif" font-size="10.00">EngineException.hpp</text>
</a>
</g>
</g>
<!-- Node10&#45;&gt;Node11 -->
<g id="edge12" class="edge">
<title>Node10&#45;&gt;Node11</title>
<path fill="none" stroke="midnightblue" d="M443.86,-112.08C441.71,-104.85 438.62,-94.41 435.95,-85.4"/>
<polygon fill="midnightblue" stroke="midnightblue" points="439.29,-84.34 433.09,-75.75 432.58,-86.33 439.29,-84.34"/>
</g>
<!-- Node11&#45;&gt;Node4 -->
<g id="edge14" class="edge">
<title>Node11&#45;&gt;Node4</title>
<path fill="none" stroke="midnightblue" d="M412.51,-56.32C394.46,-47.62 366.45,-34.12 345.7,-24.11"/>
<polygon fill="midnightblue" stroke="midnightblue" points="346.98,-20.84 336.45,-19.65 343.94,-27.15 346.98,-20.84"/>
</g>
<!-- Node12 -->
<g id="node12" class="node">
<title>Node12</title>
<g id="a_node12"><a xlink:title=" ">
<polygon fill="none" stroke="#bfbfbf" points="401.5,-0.5 401.5,-19.5 459.5,-19.5 459.5,-0.5 401.5,-0.5"/>
<text text-anchor="middle" x="430.5" y="-7.5" font-family="Helvetica,sans-Serif" font-size="10.00">exception</text>
</a>
</g>
</g>
<!-- Node11&#45;&gt;Node12 -->
<g id="edge13" class="edge">
<title>Node11&#45;&gt;Node12</title>
<path fill="none" stroke="midnightblue" d="M430.5,-56.08C430.5,-49.01 430.5,-38.86 430.5,-29.99"/>
<polygon fill="midnightblue" stroke="midnightblue" points="434,-29.75 430.5,-19.75 427,-29.75 434,-29.75"/>
</g>
</g>
</svg>
