<?xml version="1.0" encoding="UTF-8" standalone="no"?>
<!DOCTYPE svg PUBLIC "-//W3C//DTD SVG 1.1//EN"
 "http://www.w3.org/Graphics/SVG/1.1/DTD/svg11.dtd">
<!-- Generated by graphviz version 2.44.0 ()
 -->
<!-- Title: libs/spic&#45;engine/includes/spic&#45;api&#45;headers/Text.hpp Pages: 1 -->
<svg width="2125pt" height="307pt"
 viewBox="0.00 0.00 2125.00 307.00" xmlns="http://www.w3.org/2000/svg" xmlns:xlink="http://www.w3.org/1999/xlink">
<g id="graph0" class="graph" transform="scale(1 1) rotate(0) translate(4 303)">
<title>libs/spic&#45;engine/includes/spic&#45;api&#45;headers/Text.hpp</title>
<!-- Node1 -->
<g id="node1" class="node">
<title>Node1</title>
<g id="a_node1"><a xlink:title=" ">
<polygon fill="#bfbfbf" stroke="black" points="967.5,-268.5 967.5,-298.5 1098.5,-298.5 1098.5,-268.5 967.5,-268.5"/>
<text text-anchor="start" x="975.5" y="-286.5" font-family="Helvetica,sans-Serif" font-size="10.00">libs/spic&#45;engine/includes</text>
<text text-anchor="middle" x="1033" y="-275.5" font-family="Helvetica,sans-Serif" font-size="10.00">/spic&#45;api&#45;headers/Text.hpp</text>
</a>
</g>
</g>
<!-- Node2 -->
<g id="node2" class="node">
<title>Node2</title>
<g id="a_node2"><a xlink:href="ButtonPrefabFactory_8cpp.html" target="_top" xlink:title=" ">
<polygon fill="none" stroke="black" points="0,-201.5 0,-231.5 134,-231.5 134,-201.5 0,-201.5"/>
<text text-anchor="start" x="8" y="-219.5" font-family="Helvetica,sans-Serif" font-size="10.00">src/Factories/ButtonPrefab</text>
<text text-anchor="middle" x="67" y="-208.5" font-family="Helvetica,sans-Serif" font-size="10.00">Factory.cpp</text>
</a>
</g>
</g>
<!-- Node1&#45;&gt;Node2 -->
<g id="edge1" class="edge">
<title>Node1&#45;&gt;Node2</title>
<path fill="none" stroke="midnightblue" d="M957.13,-281.56C803.1,-278.92 442.93,-268.96 143,-232 140.07,-231.64 137.08,-231.23 134.06,-230.79"/>
<polygon fill="midnightblue" stroke="midnightblue" points="957.36,-285.07 967.42,-281.73 957.47,-278.07 957.36,-285.07"/>
</g>
<!-- Node3 -->
<g id="node3" class="node">
<title>Node3</title>
<g id="a_node3"><a xlink:href="CreditScene_8cpp.html" target="_top" xlink:title=" ">
<polygon fill="none" stroke="black" points="152,-207 152,-226 292,-226 292,-207 152,-207"/>
<text text-anchor="middle" x="222" y="-214" font-family="Helvetica,sans-Serif" font-size="10.00">src/Scenes/CreditScene.cpp</text>
</a>
</g>
</g>
<!-- Node1&#45;&gt;Node3 -->
<g id="edge2" class="edge">
<title>Node1&#45;&gt;Node3</title>
<path fill="none" stroke="midnightblue" d="M957.04,-280.08C823.77,-275.2 539.35,-262 301,-232 288.82,-230.47 275.69,-228.28 263.68,-226.06"/>
<polygon fill="midnightblue" stroke="midnightblue" points="957.02,-283.58 967.14,-280.44 957.28,-276.59 957.02,-283.58"/>
</g>
<!-- Node4 -->
<g id="node4" class="node">
<title>Node4</title>
<g id="a_node4"><a xlink:href="GameOverScene_8cpp.html" target="_top" xlink:title=" ">
<polygon fill="none" stroke="black" points="310,-207 310,-226 472,-226 472,-207 310,-207"/>
<text text-anchor="middle" x="391" y="-214" font-family="Helvetica,sans-Serif" font-size="10.00">src/Scenes/GameOverScene.cpp</text>
</a>
</g>
</g>
<!-- Node1&#45;&gt;Node4 -->
<g id="edge3" class="edge">
<title>Node1&#45;&gt;Node4</title>
<path fill="none" stroke="midnightblue" d="M957.4,-277.23C850.9,-269.44 650.73,-253.41 481,-232 467.65,-230.32 453.25,-228.15 439.96,-226.01"/>
<polygon fill="midnightblue" stroke="midnightblue" points="957.19,-280.73 967.41,-277.96 957.69,-273.74 957.19,-280.73"/>
</g>
<!-- Node5 -->
<g id="node5" class="node">
<title>Node5</title>
<g id="a_node5"><a xlink:href="HelpScene_8cpp.html" target="_top" xlink:title=" ">
<polygon fill="none" stroke="black" points="490.5,-207 490.5,-226 625.5,-226 625.5,-207 490.5,-207"/>
<text text-anchor="middle" x="558" y="-214" font-family="Helvetica,sans-Serif" font-size="10.00">src/Scenes/HelpScene.cpp</text>
</a>
</g>
</g>
<!-- Node1&#45;&gt;Node5 -->
<g id="edge4" class="edge">
<title>Node1&#45;&gt;Node5</title>
<path fill="none" stroke="midnightblue" d="M957.32,-274.26C877.11,-265.22 746.84,-249.61 635,-232 623.85,-230.24 611.83,-228.1 600.69,-226.01"/>
<polygon fill="midnightblue" stroke="midnightblue" points="957,-277.75 967.33,-275.39 957.79,-270.79 957,-277.75"/>
</g>
<!-- Node6 -->
<g id="node6" class="node">
<title>Node6</title>
<g id="a_node6"><a xlink:href="LevelSelectionScene_8cpp.html" target="_top" xlink:title=" ">
<polygon fill="none" stroke="black" points="644,-201.5 644,-231.5 778,-231.5 778,-201.5 644,-201.5"/>
<text text-anchor="start" x="652" y="-219.5" font-family="Helvetica,sans-Serif" font-size="10.00">src/Scenes/LevelSelection</text>
<text text-anchor="middle" x="711" y="-208.5" font-family="Helvetica,sans-Serif" font-size="10.00">Scene.cpp</text>
</a>
</g>
</g>
<!-- Node1&#45;&gt;Node6 -->
<g id="edge5" class="edge">
<title>Node1&#45;&gt;Node6</title>
<path fill="none" stroke="midnightblue" d="M957.52,-267.26C903.16,-256.29 830.46,-241.62 778.12,-231.05"/>
<polygon fill="midnightblue" stroke="midnightblue" points="956.96,-270.72 967.45,-269.27 958.34,-263.86 956.96,-270.72"/>
</g>
<!-- Node7 -->
<g id="node7" class="node">
<title>Node7</title>
<g id="a_node7"><a xlink:href="LoadingScene_8cpp.html" target="_top" xlink:title=" ">
<polygon fill="none" stroke="black" points="796.5,-207 796.5,-226 945.5,-226 945.5,-207 796.5,-207"/>
<text text-anchor="middle" x="871" y="-214" font-family="Helvetica,sans-Serif" font-size="10.00">src/Scenes/LoadingScene.cpp</text>
</a>
</g>
</g>
<!-- Node1&#45;&gt;Node7 -->
<g id="edge6" class="edge">
<title>Node1&#45;&gt;Node7</title>
<path fill="none" stroke="midnightblue" d="M988.44,-264.62C957.08,-252.04 916.52,-235.77 892.2,-226.01"/>
<polygon fill="midnightblue" stroke="midnightblue" points="987.26,-267.92 997.85,-268.4 989.87,-261.42 987.26,-267.92"/>
</g>
<!-- Node8 -->
<g id="node8" class="node">
<title>Node8</title>
<g id="a_node8"><a xlink:href="MenuScene_8cpp.html" target="_top" xlink:title=" ">
<polygon fill="none" stroke="black" points="963.5,-207 963.5,-226 1102.5,-226 1102.5,-207 963.5,-207"/>
<text text-anchor="middle" x="1033" y="-214" font-family="Helvetica,sans-Serif" font-size="10.00">src/Scenes/MenuScene.cpp</text>
</a>
</g>
</g>
<!-- Node1&#45;&gt;Node8 -->
<g id="edge7" class="edge">
<title>Node1&#45;&gt;Node8</title>
<path fill="none" stroke="midnightblue" d="M1033,-258.25C1033,-247.02 1033,-234.38 1033,-226.19"/>
<polygon fill="midnightblue" stroke="midnightblue" points="1029.5,-258.4 1033,-268.4 1036.5,-258.4 1029.5,-258.4"/>
</g>
<!-- Node9 -->
<g id="node9" class="node">
<title>Node9</title>
<g id="a_node9"><a xlink:href="PauseScene_8cpp.html" target="_top" xlink:title=" ">
<polygon fill="none" stroke="black" points="1120.5,-207 1120.5,-226 1263.5,-226 1263.5,-207 1120.5,-207"/>
<text text-anchor="middle" x="1192" y="-214" font-family="Helvetica,sans-Serif" font-size="10.00">src/Scenes/PauseScene.cpp</text>
</a>
</g>
</g>
<!-- Node1&#45;&gt;Node9 -->
<g id="edge8" class="edge">
<title>Node1&#45;&gt;Node9</title>
<path fill="none" stroke="midnightblue" d="M1077.13,-264.46C1107.85,-251.9 1147.42,-235.72 1171.19,-226.01"/>
<polygon fill="midnightblue" stroke="midnightblue" points="1075.43,-261.37 1067.5,-268.4 1078.08,-267.85 1075.43,-261.37"/>
</g>
<!-- Node10 -->
<g id="node10" class="node">
<title>Node10</title>
<g id="a_node10"><a xlink:href="VictoryScene_8cpp.html" target="_top" xlink:title=" ">
<polygon fill="none" stroke="black" points="1281.5,-207 1281.5,-226 1426.5,-226 1426.5,-207 1281.5,-207"/>
<text text-anchor="middle" x="1354" y="-214" font-family="Helvetica,sans-Serif" font-size="10.00">src/Scenes/VictoryScene.cpp</text>
</a>
</g>
</g>
<!-- Node1&#45;&gt;Node10 -->
<g id="edge9" class="edge">
<title>Node1&#45;&gt;Node10</title>
<path fill="none" stroke="midnightblue" d="M1108.69,-267.17C1172.11,-254.33 1260.31,-236.47 1311.85,-226.03"/>
<polygon fill="midnightblue" stroke="midnightblue" points="1107.84,-263.77 1098.73,-269.19 1109.23,-270.64 1107.84,-263.77"/>
</g>
<!-- Node11 -->
<g id="node11" class="node">
<title>Node11</title>
<g id="a_node11"><a xlink:href="Text_8cpp.html" target="_top" xlink:title=" ">
<polygon fill="none" stroke="black" points="1444.5,-201.5 1444.5,-231.5 1545.5,-231.5 1545.5,-201.5 1444.5,-201.5"/>
<text text-anchor="start" x="1452.5" y="-219.5" font-family="Helvetica,sans-Serif" font-size="10.00">libs/spic&#45;engine/src</text>
<text text-anchor="middle" x="1495" y="-208.5" font-family="Helvetica,sans-Serif" font-size="10.00">/Api/Text.cpp</text>
</a>
</g>
</g>
<!-- Node1&#45;&gt;Node11 -->
<g id="edge10" class="edge">
<title>Node1&#45;&gt;Node11</title>
<path fill="none" stroke="midnightblue" d="M1108.92,-275.53C1190.04,-267.48 1322.2,-252.65 1435,-232 1438.06,-231.44 1441.19,-230.82 1444.35,-230.16"/>
<polygon fill="midnightblue" stroke="midnightblue" points="1108.41,-272.06 1098.8,-276.52 1109.09,-279.03 1108.41,-272.06"/>
</g>
<!-- Node12 -->
<g id="node12" class="node">
<title>Node12</title>
<g id="a_node12"><a xlink:href="Window_8hpp.html" target="_top" xlink:title=" ">
<polygon fill="none" stroke="black" points="1563.5,-201.5 1563.5,-231.5 1670.5,-231.5 1670.5,-201.5 1563.5,-201.5"/>
<text text-anchor="start" x="1571.5" y="-219.5" font-family="Helvetica,sans-Serif" font-size="10.00">libs/spic&#45;engine/src</text>
<text text-anchor="middle" x="1617" y="-208.5" font-family="Helvetica,sans-Serif" font-size="10.00">/Models/Window.hpp</text>
</a>
</g>
</g>
<!-- Node1&#45;&gt;Node12 -->
<g id="edge11" class="edge">
<title>Node1&#45;&gt;Node12</title>
<path fill="none" stroke="midnightblue" d="M1108.92,-278.23C1210.71,-271.81 1396.83,-257.59 1554,-232 1557.1,-231.49 1560.28,-230.93 1563.48,-230.32"/>
<polygon fill="midnightblue" stroke="midnightblue" points="1108.5,-274.75 1098.74,-278.87 1108.94,-281.74 1108.5,-274.75"/>
</g>
<!-- Node22 -->
<g id="node22" class="node">
<title>Node22</title>
<g id="a_node22"><a xlink:href="RenderSubsystem_8cpp.html" target="_top" xlink:title=" ">
<polygon fill="none" stroke="black" points="1746,-67.5 1746,-97.5 1920,-97.5 1920,-67.5 1746,-67.5"/>
<text text-anchor="start" x="1754" y="-85.5" font-family="Helvetica,sans-Serif" font-size="10.00">libs/spic&#45;engine/src</text>
<text text-anchor="middle" x="1833" y="-74.5" font-family="Helvetica,sans-Serif" font-size="10.00">/Subsystems/RenderSubsystem.cpp</text>
</a>
</g>
</g>
<!-- Node1&#45;&gt;Node22 -->
<g id="edge25" class="edge">
<title>Node1&#45;&gt;Node22</title>
<path fill="none" stroke="midnightblue" d="M1108.77,-280.19C1255.57,-275.13 1573.57,-261.11 1679,-232 1743.57,-214.18 1772.43,-217.52 1814,-165 1829.51,-145.41 1832.76,-115.35 1833.22,-97.74"/>
<polygon fill="midnightblue" stroke="midnightblue" points="1108.38,-276.71 1098.5,-280.54 1108.62,-283.7 1108.38,-276.71"/>
</g>
<!-- Node23 -->
<g id="node23" class="node">
<title>Node23</title>
<g id="a_node23"><a xlink:href="Api_8hpp.html" target="_top" xlink:title=" ">
<polygon fill="none" stroke="black" points="1881,-201.5 1881,-231.5 2007,-231.5 2007,-201.5 1881,-201.5"/>
<text text-anchor="start" x="1889" y="-219.5" font-family="Helvetica,sans-Serif" font-size="10.00">libs/spic&#45;engine/includes</text>
<text text-anchor="middle" x="1944" y="-208.5" font-family="Helvetica,sans-Serif" font-size="10.00">/spic&#45;api&#45;headers/Api.hpp</text>
</a>
</g>
</g>
<!-- Node1&#45;&gt;Node23 -->
<g id="edge26" class="edge">
<title>Node1&#45;&gt;Node23</title>
<path fill="none" stroke="midnightblue" d="M1108.63,-279.99C1252.66,-274.73 1576.11,-260.6 1847,-232 1858.01,-230.84 1869.68,-229.33 1880.97,-227.73"/>
<polygon fill="midnightblue" stroke="midnightblue" points="1108.44,-276.5 1098.58,-280.36 1108.7,-283.49 1108.44,-276.5"/>
</g>
<!-- Node13 -->
<g id="node13" class="node">
<title>Node13</title>
<g id="a_node13"><a xlink:href="TimeManager_8hpp.html" target="_top" xlink:title=" ">
<polygon fill="none" stroke="black" points="1133.5,-134.5 1133.5,-164.5 1276.5,-164.5 1276.5,-134.5 1133.5,-134.5"/>
<text text-anchor="start" x="1141.5" y="-152.5" font-family="Helvetica,sans-Serif" font-size="10.00">libs/spic&#45;engine/src</text>
<text text-anchor="middle" x="1205" y="-141.5" font-family="Helvetica,sans-Serif" font-size="10.00">/Managers/TimeManager.hpp</text>
</a>
</g>
</g>
<!-- Node12&#45;&gt;Node13 -->
<g id="edge12" class="edge">
<title>Node12&#45;&gt;Node13</title>
<path fill="none" stroke="midnightblue" d="M1553.52,-201.03C1433.61,-179.66 1401.01,-183.27 1285,-165 1282.21,-164.56 1279.37,-164.1 1276.5,-163.63"/>
<polygon fill="midnightblue" stroke="midnightblue" points="1552.99,-204.49 1563.45,-202.82 1554.23,-197.6 1552.99,-204.49"/>
</g>
<!-- Node18 -->
<g id="node18" class="node">
<title>Node18</title>
<g id="a_node18"><a xlink:href="Window_8cpp.html" target="_top" xlink:title=" ">
<polygon fill="none" stroke="black" points="1294.5,-134.5 1294.5,-164.5 1401.5,-164.5 1401.5,-134.5 1294.5,-134.5"/>
<text text-anchor="start" x="1302.5" y="-152.5" font-family="Helvetica,sans-Serif" font-size="10.00">libs/spic&#45;engine/src</text>
<text text-anchor="middle" x="1348" y="-141.5" font-family="Helvetica,sans-Serif" font-size="10.00">/Models/Window.cpp</text>
</a>
</g>
</g>
<!-- Node12&#45;&gt;Node18 -->
<g id="edge17" class="edge">
<title>Node12&#45;&gt;Node18</title>
<path fill="none" stroke="midnightblue" d="M1553.31,-200.11C1507.13,-188.95 1445.38,-174.03 1401.7,-163.47"/>
<polygon fill="midnightblue" stroke="midnightblue" points="1552.67,-203.56 1563.21,-202.5 1554.31,-196.75 1552.67,-203.56"/>
</g>
<!-- Node19 -->
<g id="node19" class="node">
<title>Node19</title>
<g id="a_node19"><a xlink:href="FpsCounterSubsystem_8hpp.html" target="_top" xlink:title=" ">
<polygon fill="none" stroke="black" points="1419,-134.5 1419,-164.5 1613,-164.5 1613,-134.5 1419,-134.5"/>
<text text-anchor="start" x="1427" y="-152.5" font-family="Helvetica,sans-Serif" font-size="10.00">libs/spic&#45;engine/src</text>
<text text-anchor="middle" x="1516" y="-141.5" font-family="Helvetica,sans-Serif" font-size="10.00">/Subsystems/FpsCounterSubsystem.hpp</text>
</a>
</g>
</g>
<!-- Node12&#45;&gt;Node19 -->
<g id="edge18" class="edge">
<title>Node12&#45;&gt;Node19</title>
<path fill="none" stroke="midnightblue" d="M1586.29,-195.73C1570.66,-185.68 1552.03,-173.68 1537.87,-164.58"/>
<polygon fill="midnightblue" stroke="midnightblue" points="1584.78,-198.93 1595.08,-201.4 1588.57,-193.04 1584.78,-198.93"/>
</g>
<!-- Node21 -->
<g id="node21" class="node">
<title>Node21</title>
<g id="a_node21"><a xlink:href="RenderSubsystem_8hpp.html" target="_top" xlink:title=" ">
<polygon fill="none" stroke="black" points="1631,-134.5 1631,-164.5 1805,-164.5 1805,-134.5 1631,-134.5"/>
<text text-anchor="start" x="1639" y="-152.5" font-family="Helvetica,sans-Serif" font-size="10.00">libs/spic&#45;engine/src</text>
<text text-anchor="middle" x="1718" y="-141.5" font-family="Helvetica,sans-Serif" font-size="10.00">/Subsystems/RenderSubsystem.hpp</text>
</a>
</g>
</g>
<!-- Node12&#45;&gt;Node21 -->
<g id="edge22" class="edge">
<title>Node12&#45;&gt;Node21</title>
<path fill="none" stroke="midnightblue" d="M1647.71,-195.73C1663.34,-185.68 1681.97,-173.68 1696.13,-164.58"/>
<polygon fill="midnightblue" stroke="midnightblue" points="1645.43,-193.04 1638.92,-201.4 1649.22,-198.93 1645.43,-193.04"/>
</g>
<!-- Node14 -->
<g id="node14" class="node">
<title>Node14</title>
<g id="a_node14"><a xlink:href="Engine_8cpp.html" target="_top" xlink:title=" ">
<polygon fill="none" stroke="black" points="1304.5,-0.5 1304.5,-30.5 1405.5,-30.5 1405.5,-0.5 1304.5,-0.5"/>
<text text-anchor="start" x="1312.5" y="-18.5" font-family="Helvetica,sans-Serif" font-size="10.00">libs/spic&#45;engine/src</text>
<text text-anchor="middle" x="1355" y="-7.5" font-family="Helvetica,sans-Serif" font-size="10.00">/Api/Engine.cpp</text>
</a>
</g>
</g>
<!-- Node13&#45;&gt;Node14 -->
<g id="edge13" class="edge">
<title>Node13&#45;&gt;Node14</title>
<path fill="none" stroke="midnightblue" d="M1136.73,-131.34C1094.73,-117.49 1053.12,-95.61 1077,-67 1105.41,-32.97 1232.29,-21.82 1304.42,-18.2"/>
<polygon fill="midnightblue" stroke="midnightblue" points="1135.94,-134.76 1146.53,-134.43 1138.04,-128.08 1135.94,-134.76"/>
</g>
<!-- Node15 -->
<g id="node15" class="node">
<title>Node15</title>
<g id="a_node15"><a xlink:href="src_2Api_2Time_8cpp.html" target="_top" xlink:title=" ">
<polygon fill="none" stroke="black" points="1086.5,-67.5 1086.5,-97.5 1187.5,-97.5 1187.5,-67.5 1086.5,-67.5"/>
<text text-anchor="start" x="1094.5" y="-85.5" font-family="Helvetica,sans-Serif" font-size="10.00">libs/spic&#45;engine/src</text>
<text text-anchor="middle" x="1137" y="-74.5" font-family="Helvetica,sans-Serif" font-size="10.00">/Api/Time.cpp</text>
</a>
</g>
</g>
<!-- Node13&#45;&gt;Node15 -->
<g id="edge14" class="edge">
<title>Node13&#45;&gt;Node15</title>
<path fill="none" stroke="midnightblue" d="M1182.83,-127.31C1172.63,-117.56 1160.81,-106.26 1151.73,-97.58"/>
<polygon fill="midnightblue" stroke="midnightblue" points="1180.6,-130.02 1190.25,-134.4 1185.43,-124.96 1180.6,-130.02"/>
</g>
<!-- Node16 -->
<g id="node16" class="node">
<title>Node16</title>
<g id="a_node16"><a xlink:href="TimeManager_8cpp.html" target="_top" xlink:title=" ">
<polygon fill="none" stroke="black" points="1205.5,-67.5 1205.5,-97.5 1348.5,-97.5 1348.5,-67.5 1205.5,-67.5"/>
<text text-anchor="start" x="1213.5" y="-85.5" font-family="Helvetica,sans-Serif" font-size="10.00">libs/spic&#45;engine/src</text>
<text text-anchor="middle" x="1277" y="-74.5" font-family="Helvetica,sans-Serif" font-size="10.00">/Managers/TimeManager.cpp</text>
</a>
</g>
</g>
<!-- Node13&#45;&gt;Node16 -->
<g id="edge15" class="edge">
<title>Node13&#45;&gt;Node16</title>
<path fill="none" stroke="midnightblue" d="M1228.15,-127.6C1239.02,-117.78 1251.7,-106.34 1261.41,-97.58"/>
<polygon fill="midnightblue" stroke="midnightblue" points="1225.7,-125.1 1220.62,-134.4 1230.39,-130.29 1225.7,-125.1"/>
</g>
<!-- Node17 -->
<g id="node17" class="node">
<title>Node17</title>
<g id="a_node17"><a xlink:href="FpsCounterSubsystem_8cpp.html" target="_top" xlink:title=" ">
<polygon fill="none" stroke="black" points="1367,-67.5 1367,-97.5 1561,-97.5 1561,-67.5 1367,-67.5"/>
<text text-anchor="start" x="1375" y="-85.5" font-family="Helvetica,sans-Serif" font-size="10.00">libs/spic&#45;engine/src</text>
<text text-anchor="middle" x="1464" y="-74.5" font-family="Helvetica,sans-Serif" font-size="10.00">/Subsystems/FpsCounterSubsystem.cpp</text>
</a>
</g>
</g>
<!-- Node13&#45;&gt;Node17 -->
<g id="edge16" class="edge">
<title>Node13&#45;&gt;Node17</title>
<path fill="none" stroke="midnightblue" d="M1270.81,-131.98C1313.11,-121.37 1367.49,-107.72 1407.77,-97.61"/>
<polygon fill="midnightblue" stroke="midnightblue" points="1269.73,-128.65 1260.88,-134.48 1271.43,-135.44 1269.73,-128.65"/>
</g>
<!-- Node19&#45;&gt;Node17 -->
<g id="edge19" class="edge">
<title>Node19&#45;&gt;Node17</title>
<path fill="none" stroke="midnightblue" d="M1498.36,-126.45C1490.72,-116.9 1482,-106 1475.26,-97.58"/>
<polygon fill="midnightblue" stroke="midnightblue" points="1495.74,-128.77 1504.72,-134.4 1501.2,-124.4 1495.74,-128.77"/>
</g>
<!-- Node20 -->
<g id="node20" class="node">
<title>Node20</title>
<g id="a_node20"><a xlink:href="Subsystems_8hpp.html" target="_top" xlink:title=" ">
<polygon fill="none" stroke="black" points="1578.5,-67.5 1578.5,-97.5 1727.5,-97.5 1727.5,-67.5 1578.5,-67.5"/>
<text text-anchor="start" x="1586.5" y="-85.5" font-family="Helvetica,sans-Serif" font-size="10.00">libs/spic&#45;engine/src</text>
<text text-anchor="middle" x="1653" y="-74.5" font-family="Helvetica,sans-Serif" font-size="10.00">/Subsystems/Subsystems.hpp</text>
</a>
</g>
</g>
<!-- Node19&#45;&gt;Node20 -->
<g id="edge20" class="edge">
<title>Node19&#45;&gt;Node20</title>
<path fill="none" stroke="midnightblue" d="M1555.01,-129.99C1576.72,-119.69 1603.33,-107.07 1623.33,-97.58"/>
<polygon fill="midnightblue" stroke="midnightblue" points="1553.26,-126.95 1545.73,-134.4 1556.26,-133.27 1553.26,-126.95"/>
</g>
<!-- Node20&#45;&gt;Node14 -->
<g id="edge21" class="edge">
<title>Node20&#45;&gt;Node14</title>
<path fill="none" stroke="midnightblue" d="M1578.86,-65.33C1524.95,-53.57 1453.39,-37.96 1405.85,-27.59"/>
<polygon fill="midnightblue" stroke="midnightblue" points="1578.19,-68.76 1588.71,-67.48 1579.68,-61.93 1578.19,-68.76"/>
</g>
<!-- Node21&#45;&gt;Node20 -->
<g id="edge24" class="edge">
<title>Node21&#45;&gt;Node20</title>
<path fill="none" stroke="midnightblue" d="M1696.81,-127.31C1687.06,-117.56 1675.76,-106.26 1667.08,-97.58"/>
<polygon fill="midnightblue" stroke="midnightblue" points="1694.35,-129.8 1703.9,-134.4 1699.3,-124.85 1694.35,-129.8"/>
</g>
<!-- Node21&#45;&gt;Node22 -->
<g id="edge23" class="edge">
<title>Node21&#45;&gt;Node22</title>
<path fill="none" stroke="midnightblue" d="M1751.98,-129.3C1769.97,-119.12 1791.68,-106.85 1808.1,-97.58"/>
<polygon fill="midnightblue" stroke="midnightblue" points="1749.94,-126.43 1742.95,-134.4 1753.38,-132.52 1749.94,-126.43"/>
</g>
<!-- Node24 -->
<g id="node24" class="node">
<title>Node24</title>
<g id="a_node24"><a xlink:href="LevelController_8cpp.html" target="_top" xlink:title=" ">
<polygon fill="none" stroke="black" points="1861,-140 1861,-159 2027,-159 2027,-140 1861,-140"/>
<text text-anchor="middle" x="1944" y="-147" font-family="Helvetica,sans-Serif" font-size="10.00">src/Controllers/LevelController.cpp</text>
</a>
</g>
</g>
<!-- Node23&#45;&gt;Node24 -->
<g id="edge27" class="edge">
<title>Node23&#45;&gt;Node24</title>
<path fill="none" stroke="midnightblue" d="M1944,-191.25C1944,-180.02 1944,-167.38 1944,-159.19"/>
<polygon fill="midnightblue" stroke="midnightblue" points="1940.5,-191.4 1944,-201.4 1947.5,-191.4 1940.5,-191.4"/>
</g>
<!-- Node25 -->
<g id="node25" class="node">
<title>Node25</title>
<g id="a_node25"><a xlink:href="main_8cpp.html" target="_top" xlink:title=" ">
<polygon fill="none" stroke="black" points="2045,-140 2045,-159 2117,-159 2117,-140 2045,-140"/>
<text text-anchor="middle" x="2081" y="-147" font-family="Helvetica,sans-Serif" font-size="10.00">src/main.cpp</text>
</a>
</g>
</g>
<!-- Node23&#45;&gt;Node25 -->
<g id="edge28" class="edge">
<title>Node23&#45;&gt;Node25</title>
<path fill="none" stroke="midnightblue" d="M1983.06,-196.97C2009.38,-184.48 2042.86,-168.6 2063.07,-159.01"/>
<polygon fill="midnightblue" stroke="midnightblue" points="1981.26,-193.95 1973.73,-201.4 1984.26,-200.27 1981.26,-193.95"/>
</g>
</g>
</svg>
