<?xml version="1.0" encoding="UTF-8" standalone="no"?>
<!DOCTYPE svg PUBLIC "-//W3C//DTD SVG 1.1//EN"
 "http://www.w3.org/Graphics/SVG/1.1/DTD/svg11.dtd">
<!-- Generated by graphviz version 2.44.0 ()
 -->
<!-- Title: libs/spic&#45;engine/src/Managers/TextureManager.hpp Pages: 1 -->
<!--zoomable 307 -->
<svg id="main" version="1.1" xmlns="http://www.w3.org/2000/svg" xmlns:xlink="http://www.w3.org/1999/xlink" xml:space="preserve" onload="init(evt)">
<style type="text/css"><![CDATA[
.edge:hover path { stroke: red; }
.edge:hover polygon { stroke: red; fill: red; }
]]></style>
<script type="text/javascript"><![CDATA[
var edges = document.getElementsByTagName('g');
if (edges && edges.length) {
  for (var i=0;i<edges.length;i++) {
    if (edges[i].id.substr(0,4)=='edge') {
      edges[i].setAttribute('class','edge');
    }
  }
}
]]></script>
        <defs>
                <circle id="rim" cx="0" cy="0" r="7"/>
                <circle id="rim2" cx="0" cy="0" r="3.5"/>
                <g id="zoomPlus">
                        <use xlink:href="#rim" fill="#404040">
                                <set attributeName="fill" to="#808080" begin="zoomplus.mouseover" end="zoomplus.mouseout"/>
                        </use>
                        <path d="M-4,0h8M0,-4v8" fill="none" stroke="white" stroke-width="1.5" pointer-events="none"/>
                </g>
                <g id="zoomMin">
                        <use xlink:href="#rim" fill="#404040">
                                <set attributeName="fill" to="#808080" begin="zoomminus.mouseover" end="zoomminus.mouseout"/>
                        </use>
                        <path d="M-4,0h8" fill="none" stroke="white" stroke-width="1.5" pointer-events="none"/>
                </g>
                <g id="dirArrow">
                        <path fill="none" stroke="white" stroke-width="1.5" d="M0,-3.0v7 M-2.5,-0.5L0,-3.0L2.5,-0.5"/>
                </g>
               <g id="resetDef">
                       <use xlink:href="#rim2" fill="#404040">
                               <set attributeName="fill" to="#808080" begin="reset.mouseover" end="reset.mouseout"/>
                       </use>
               </g>
        </defs>

<script type="text/javascript">
var viewWidth = 859;
var viewHeight = 307;
var sectionId = 'dynsection-1';
</script>
<script xlink:href="svgpan.js"/>
<svg id="graph" class="graph">
<g id="viewport">
<title>libs/spic&#45;engine/src/Managers/TextureManager.hpp</title>
<!-- Node1 -->
<g id="node1" class="node">
<title>Node1</title>
<g id="a_node1"><a xlink:title=" ">
<polygon fill="#bfbfbf" stroke="black" points="222.06,-268.5 222.06,-298.5 375.06,-298.5 375.06,-268.5 222.06,-268.5"/>
<text text-anchor="start" x="230.06" y="-286.5" font-family="Helvetica,sans-Serif" font-size="10.00">libs/spic&#45;engine/src</text>
<text text-anchor="middle" x="298.56" y="-275.5" font-family="Helvetica,sans-Serif" font-size="10.00">/Managers/TextureManager.hpp</text>
</a>
</g>
</g>
<!-- Node2 -->
<g id="node2" class="node">
<title>Node2</title>
<g id="a_node2"><a xlink:href="TextureManager_8cpp.html" target="_top" xlink:title=" ">
<polygon fill="none" stroke="black" points="148.06,-201.5 148.06,-231.5 301.06,-231.5 301.06,-201.5 148.06,-201.5"/>
<text text-anchor="start" x="156.06" y="-219.5" font-family="Helvetica,sans-Serif" font-size="10.00">libs/spic&#45;engine/src</text>
<text text-anchor="middle" x="224.56" y="-208.5" font-family="Helvetica,sans-Serif" font-size="10.00">/Managers/TextureManager.cpp</text>
</a>
</g>
</g>
<!-- Node1&#45;&gt;Node2 -->
<g id="edge1" class="edge">
<title>Node1&#45;&gt;Node2</title>
<path fill="none" stroke="midnightblue" d="M274.76,-261.6C263.59,-251.78 250.56,-240.34 240.58,-231.58"/>
<polygon fill="midnightblue" stroke="midnightblue" points="272.68,-264.43 282.5,-268.4 277.3,-259.17 272.68,-264.43"/>
</g>
<!-- Node3 -->
<g id="node3" class="node">
<title>Node3</title>
<g id="a_node3"><a xlink:href="Window_8hpp.html" target="_top" xlink:title=" ">
<polygon fill="none" stroke="black" points="319.06,-201.5 319.06,-231.5 426.06,-231.5 426.06,-201.5 319.06,-201.5"/>
<text text-anchor="start" x="327.06" y="-219.5" font-family="Helvetica,sans-Serif" font-size="10.00">libs/spic&#45;engine/src</text>
<text text-anchor="middle" x="372.56" y="-208.5" font-family="Helvetica,sans-Serif" font-size="10.00">/Models/Window.hpp</text>
</a>
</g>
</g>
<!-- Node1&#45;&gt;Node3 -->
<g id="edge2" class="edge">
<title>Node1&#45;&gt;Node3</title>
<path fill="none" stroke="midnightblue" d="M322.35,-261.6C333.53,-251.78 346.55,-240.34 356.53,-231.58"/>
<polygon fill="midnightblue" stroke="midnightblue" points="319.82,-259.17 314.61,-268.4 324.44,-264.43 319.82,-259.17"/>
</g>
<!-- Node4 -->
<g id="node4" class="node">
<title>Node4</title>
<g id="a_node4"><a xlink:href="TimeManager_8hpp.html" target="_top" xlink:title=" ">
<polygon fill="none" stroke="black" points="74.06,-134.5 74.06,-164.5 217.06,-164.5 217.06,-134.5 74.06,-134.5"/>
<text text-anchor="start" x="82.06" y="-152.5" font-family="Helvetica,sans-Serif" font-size="10.00">libs/spic&#45;engine/src</text>
<text text-anchor="middle" x="145.56" y="-141.5" font-family="Helvetica,sans-Serif" font-size="10.00">/Managers/TimeManager.hpp</text>
</a>
</g>
</g>
<!-- Node3&#45;&gt;Node4 -->
<g id="edge3" class="edge">
<title>Node3&#45;&gt;Node4</title>
<path fill="none" stroke="midnightblue" d="M313.94,-198.71C277,-188.14 229.84,-174.63 194.84,-164.61"/>
<polygon fill="midnightblue" stroke="midnightblue" points="313,-202.09 323.58,-201.48 314.93,-195.36 313,-202.09"/>
</g>
<!-- Node9 -->
<g id="node9" class="node">
<title>Node9</title>
<g id="a_node9"><a xlink:href="Window_8cpp.html" target="_top" xlink:title=" ">
<polygon fill="none" stroke="black" points="235.06,-134.5 235.06,-164.5 342.06,-164.5 342.06,-134.5 235.06,-134.5"/>
<text text-anchor="start" x="243.06" y="-152.5" font-family="Helvetica,sans-Serif" font-size="10.00">libs/spic&#45;engine/src</text>
<text text-anchor="middle" x="288.56" y="-141.5" font-family="Helvetica,sans-Serif" font-size="10.00">/Models/Window.cpp</text>
</a>
</g>
</g>
<!-- Node3&#45;&gt;Node9 -->
<g id="edge8" class="edge">
<title>Node3&#45;&gt;Node9</title>
<path fill="none" stroke="midnightblue" d="M346.28,-195.17C333.44,-185.23 318.3,-173.51 306.75,-164.58"/>
<polygon fill="midnightblue" stroke="midnightblue" points="344.28,-198.04 354.33,-201.4 348.56,-192.51 344.28,-198.04"/>
</g>
<!-- Node10 -->
<g id="node10" class="node">
<title>Node10</title>
<g id="a_node10"><a xlink:href="FpsCounterSubsystem_8hpp.html" target="_top" xlink:title=" ">
<polygon fill="none" stroke="black" points="359.56,-134.5 359.56,-164.5 553.56,-164.5 553.56,-134.5 359.56,-134.5"/>
<text text-anchor="start" x="367.56" y="-152.5" font-family="Helvetica,sans-Serif" font-size="10.00">libs/spic&#45;engine/src</text>
<text text-anchor="middle" x="456.56" y="-141.5" font-family="Helvetica,sans-Serif" font-size="10.00">/Subsystems/FpsCounterSubsystem.hpp</text>
</a>
</g>
</g>
<!-- Node3&#45;&gt;Node10 -->
<g id="edge9" class="edge">
<title>Node3&#45;&gt;Node10</title>
<path fill="none" stroke="midnightblue" d="M398.83,-195.17C411.68,-185.23 426.81,-173.51 438.37,-164.58"/>
<polygon fill="midnightblue" stroke="midnightblue" points="396.55,-192.51 390.78,-201.4 400.83,-198.04 396.55,-192.51"/>
</g>
<!-- Node12 -->
<g id="node12" class="node">
<title>Node12</title>
<g id="a_node12"><a xlink:href="RenderSubsystem_8hpp.html" target="_top" xlink:title=" ">
<polygon fill="none" stroke="black" points="571.56,-134.5 571.56,-164.5 745.56,-164.5 745.56,-134.5 571.56,-134.5"/>
<text text-anchor="start" x="579.56" y="-152.5" font-family="Helvetica,sans-Serif" font-size="10.00">libs/spic&#45;engine/src</text>
<text text-anchor="middle" x="658.56" y="-141.5" font-family="Helvetica,sans-Serif" font-size="10.00">/Subsystems/RenderSubsystem.hpp</text>
</a>
</g>
</g>
<!-- Node3&#45;&gt;Node12 -->
<g id="edge13" class="edge">
<title>Node3&#45;&gt;Node12</title>
<path fill="none" stroke="midnightblue" d="M436.29,-201.01C484.18,-190.13 549.41,-175.31 596.81,-164.53"/>
<polygon fill="midnightblue" stroke="midnightblue" points="435.33,-197.64 426.35,-203.27 436.88,-204.47 435.33,-197.64"/>
</g>
<!-- Node5 -->
<g id="node5" class="node">
<title>Node5</title>
<g id="a_node5"><a xlink:href="Engine_8cpp.html" target="_top" xlink:title=" ">
<polygon fill="none" stroke="black" points="235.06,-0.5 235.06,-30.5 336.06,-30.5 336.06,-0.5 235.06,-0.5"/>
<text text-anchor="start" x="243.06" y="-18.5" font-family="Helvetica,sans-Serif" font-size="10.00">libs/spic&#45;engine/src</text>
<text text-anchor="middle" x="285.56" y="-7.5" font-family="Helvetica,sans-Serif" font-size="10.00">/Api/Engine.cpp</text>
</a>
</g>
</g>
<!-- Node4&#45;&gt;Node5 -->
<g id="edge4" class="edge">
<title>Node4&#45;&gt;Node5</title>
<path fill="none" stroke="midnightblue" d="M69.72,-131.54C25.47,-118.11 -17.19,-96.65 7.56,-67 35.96,-32.97 162.84,-21.82 234.98,-18.2"/>
<polygon fill="midnightblue" stroke="midnightblue" points="68.88,-134.94 79.46,-134.37 70.83,-128.22 68.88,-134.94"/>
</g>
<!-- Node6 -->
<g id="node6" class="node">
<title>Node6</title>
<g id="a_node6"><a xlink:href="src_2Api_2Time_8cpp.html" target="_top" xlink:title=" ">
<polygon fill="none" stroke="black" points="17.06,-67.5 17.06,-97.5 118.06,-97.5 118.06,-67.5 17.06,-67.5"/>
<text text-anchor="start" x="25.06" y="-85.5" font-family="Helvetica,sans-Serif" font-size="10.00">libs/spic&#45;engine/src</text>
<text text-anchor="middle" x="67.56" y="-74.5" font-family="Helvetica,sans-Serif" font-size="10.00">/Api/Time.cpp</text>
</a>
</g>
</g>
<!-- Node4&#45;&gt;Node6 -->
<g id="edge5" class="edge">
<title>Node4&#45;&gt;Node6</title>
<path fill="none" stroke="midnightblue" d="M120.82,-127.88C108.96,-118.01 95.07,-106.43 84.45,-97.58"/>
<polygon fill="midnightblue" stroke="midnightblue" points="118.71,-130.68 128.63,-134.4 123.19,-125.31 118.71,-130.68"/>
</g>
<!-- Node7 -->
<g id="node7" class="node">
<title>Node7</title>
<g id="a_node7"><a xlink:href="TimeManager_8cpp.html" target="_top" xlink:title=" ">
<polygon fill="none" stroke="black" points="136.06,-67.5 136.06,-97.5 279.06,-97.5 279.06,-67.5 136.06,-67.5"/>
<text text-anchor="start" x="144.06" y="-85.5" font-family="Helvetica,sans-Serif" font-size="10.00">libs/spic&#45;engine/src</text>
<text text-anchor="middle" x="207.56" y="-74.5" font-family="Helvetica,sans-Serif" font-size="10.00">/Managers/TimeManager.cpp</text>
</a>
</g>
</g>
<!-- Node4&#45;&gt;Node7 -->
<g id="edge6" class="edge">
<title>Node4&#45;&gt;Node7</title>
<path fill="none" stroke="midnightblue" d="M166.04,-127.02C175.28,-117.34 185.93,-106.17 194.13,-97.58"/>
<polygon fill="midnightblue" stroke="midnightblue" points="163.38,-124.74 159.01,-134.4 168.44,-129.58 163.38,-124.74"/>
</g>
<!-- Node8 -->
<g id="node8" class="node">
<title>Node8</title>
<g id="a_node8"><a xlink:href="FpsCounterSubsystem_8cpp.html" target="_top" xlink:title=" ">
<polygon fill="none" stroke="black" points="297.56,-67.5 297.56,-97.5 491.56,-97.5 491.56,-67.5 297.56,-67.5"/>
<text text-anchor="start" x="305.56" y="-85.5" font-family="Helvetica,sans-Serif" font-size="10.00">libs/spic&#45;engine/src</text>
<text text-anchor="middle" x="394.56" y="-74.5" font-family="Helvetica,sans-Serif" font-size="10.00">/Subsystems/FpsCounterSubsystem.cpp</text>
</a>
</g>
</g>
<!-- Node4&#45;&gt;Node8 -->
<g id="edge7" class="edge">
<title>Node4&#45;&gt;Node8</title>
<path fill="none" stroke="midnightblue" d="M209.08,-131.92C249.72,-121.31 301.86,-107.7 340.5,-97.61"/>
<polygon fill="midnightblue" stroke="midnightblue" points="208.07,-128.56 199.28,-134.48 209.84,-135.34 208.07,-128.56"/>
</g>
<!-- Node10&#45;&gt;Node8 -->
<g id="edge10" class="edge">
<title>Node10&#45;&gt;Node8</title>
<path fill="none" stroke="midnightblue" d="M436.07,-127.02C426.83,-117.34 416.18,-106.17 407.98,-97.58"/>
<polygon fill="midnightblue" stroke="midnightblue" points="433.67,-129.58 443.1,-134.4 438.73,-124.74 433.67,-129.58"/>
</g>
<!-- Node11 -->
<g id="node11" class="node">
<title>Node11</title>
<g id="a_node11"><a xlink:href="Subsystems_8hpp.html" target="_top" xlink:title=" ">
<polygon fill="none" stroke="black" points="509.06,-67.5 509.06,-97.5 658.06,-97.5 658.06,-67.5 509.06,-67.5"/>
<text text-anchor="start" x="517.06" y="-85.5" font-family="Helvetica,sans-Serif" font-size="10.00">libs/spic&#45;engine/src</text>
<text text-anchor="middle" x="583.56" y="-74.5" font-family="Helvetica,sans-Serif" font-size="10.00">/Subsystems/Subsystems.hpp</text>
</a>
</g>
</g>
<!-- Node10&#45;&gt;Node11 -->
<g id="edge11" class="edge">
<title>Node10&#45;&gt;Node11</title>
<path fill="none" stroke="midnightblue" d="M493.26,-129.71C513.29,-119.46 537.68,-106.98 556.05,-97.58"/>
<polygon fill="midnightblue" stroke="midnightblue" points="491.42,-126.72 484.11,-134.4 494.61,-132.96 491.42,-126.72"/>
</g>
<!-- Node11&#45;&gt;Node5 -->
<g id="edge12" class="edge">
<title>Node11&#45;&gt;Node5</title>
<path fill="none" stroke="midnightblue" d="M509.41,-65.33C455.51,-53.57 383.95,-37.96 336.4,-27.59"/>
<polygon fill="midnightblue" stroke="midnightblue" points="508.75,-68.76 519.26,-67.48 510.24,-61.93 508.75,-68.76"/>
</g>
<!-- Node12&#45;&gt;Node11 -->
<g id="edge15" class="edge">
<title>Node12&#45;&gt;Node11</title>
<path fill="none" stroke="midnightblue" d="M634.44,-127.6C623.11,-117.78 609.92,-106.34 599.8,-97.58"/>
<polygon fill="midnightblue" stroke="midnightblue" points="632.43,-130.49 642.28,-134.4 637.02,-125.2 632.43,-130.49"/>
</g>
<!-- Node13 -->
<g id="node13" class="node">
<title>Node13</title>
<g id="a_node13"><a xlink:href="RenderSubsystem_8cpp.html" target="_top" xlink:title=" ">
<polygon fill="none" stroke="black" points="676.56,-67.5 676.56,-97.5 850.56,-97.5 850.56,-67.5 676.56,-67.5"/>
<text text-anchor="start" x="684.56" y="-85.5" font-family="Helvetica,sans-Serif" font-size="10.00">libs/spic&#45;engine/src</text>
<text text-anchor="middle" x="763.56" y="-74.5" font-family="Helvetica,sans-Serif" font-size="10.00">/Subsystems/RenderSubsystem.cpp</text>
</a>
</g>
</g>
<!-- Node12&#45;&gt;Node13 -->
<g id="edge14" class="edge">
<title>Node12&#45;&gt;Node13</title>
<path fill="none" stroke="midnightblue" d="M690.03,-129.02C706.37,-118.9 725.97,-106.77 740.82,-97.58"/>
<polygon fill="midnightblue" stroke="midnightblue" points="688,-126.16 681.34,-134.4 691.68,-132.11 688,-126.16"/>
</g>
</g>
</svg>
        <g id="navigator" transform="translate(0 0)" fill="#404254">
                <rect fill="#f2f5e9" fill-opacity="0.5" stroke="#606060" stroke-width=".5" x="0" y="0" width="60" height="60"/>
                <use id="zoomplus" xlink:href="#zoomPlus" x="17" y="9" onmousedown="handleZoom(evt,'in')"/>
                <use id="zoomminus" xlink:href="#zoomMin" x="42" y="9" onmousedown="handleZoom(evt,'out')"/>
                <use id="reset" xlink:href="#resetDef" x="30" y="36" onmousedown="handleReset()"/>
                <g id="arrowUp" xlink:href="#dirArrow" transform="translate(30 24)" onmousedown="handlePan(0,-1)">
                  <use xlink:href="#rim" fill="#404040">
                        <set attributeName="fill" to="#808080" begin="arrowUp.mouseover" end="arrowUp.mouseout"/>
                  </use>
                  <path fill="none" stroke="white" stroke-width="1.5" d="M0,-3.0v7 M-2.5,-0.5L0,-3.0L2.5,-0.5"/>
                </g>
                <g id="arrowRight" xlink:href="#dirArrow" transform="rotate(90) translate(36 -43)" onmousedown="handlePan(1,0)">
                  <use xlink:href="#rim" fill="#404040">
                        <set attributeName="fill" to="#808080" begin="arrowRight.mouseover" end="arrowRight.mouseout"/>
                  </use>
                  <path fill="none" stroke="white" stroke-width="1.5" d="M0,-3.0v7 M-2.5,-0.5L0,-3.0L2.5,-0.5"/>
                </g>
                <g id="arrowDown" xlink:href="#dirArrow" transform="rotate(180) translate(-30 -48)" onmousedown="handlePan(0,1)">
                  <use xlink:href="#rim" fill="#404040">
                        <set attributeName="fill" to="#808080" begin="arrowDown.mouseover" end="arrowDown.mouseout"/>
                  </use>
                  <path fill="none" stroke="white" stroke-width="1.5" d="M0,-3.0v7 M-2.5,-0.5L0,-3.0L2.5,-0.5"/>
                </g>
                <g id="arrowLeft" xlink:href="#dirArrow" transform="rotate(270) translate(-36 17)" onmousedown="handlePan(-1,0)">
                  <use xlink:href="#rim" fill="#404040">
                        <set attributeName="fill" to="#808080" begin="arrowLeft.mouseover" end="arrowLeft.mouseout"/>
                  </use>
                  <path fill="none" stroke="white" stroke-width="1.5" d="M0,-3.0v7 M-2.5,-0.5L0,-3.0L2.5,-0.5"/>
                </g>
        </g>
        <svg viewBox="0 0 15 15" width="100%" height="30px" preserveAspectRatio="xMaxYMin meet">
         <g id="arrow_out" transform="scale(0.3 0.3)">
          <a xlink:href="TextureManager_8hpp__dep__incl_org.svg" target="_base">
           <rect id="button" ry="5" rx="5" y="6" x="6" height="38" width="38"
                fill="#f2f5e9" fill-opacity="0.5" stroke="#606060" stroke-width="1.0"/>
           <path id="arrow"
             d="M 11.500037,31.436501 C 11.940474,20.09759 22.043105,11.32322 32.158766,21.979434 L 37.068811,17.246167 C 37.068811,17.246167 37.088388,32 37.088388,32 L 22.160133,31.978069 C 22.160133,31.978069 26.997745,27.140456 26.997745,27.140456 C 18.528582,18.264221 13.291696,25.230495 11.500037,31.436501 z"
             style="fill:#404040;"/>
          </a>
         </g>
        </svg>
</svg>
