<?xml version="1.0" encoding="UTF-8" standalone="no"?>
<!DOCTYPE svg PUBLIC "-//W3C//DTD SVG 1.1//EN"
 "http://www.w3.org/Graphics/SVG/1.1/DTD/svg11.dtd">
<!-- Generated by graphviz version 2.44.0 ()
 -->
<!-- Title: libs/spic&#45;engine/includes/spic&#45;api&#45;headers/Text.hpp Pages: 1 -->
<svg width="2686pt" height="307pt"
 viewBox="0.00 0.00 2686.00 307.00" xmlns="http://www.w3.org/2000/svg" xmlns:xlink="http://www.w3.org/1999/xlink">
<g id="graph0" class="graph" transform="scale(1 1) rotate(0) translate(4 303)">
<title>libs/spic&#45;engine/includes/spic&#45;api&#45;headers/Text.hpp</title>
<!-- Node1 -->
<g id="node1" class="node">
<title>Node1</title>
<g id="a_node1"><a xlink:title=" ">
<polygon fill="#bfbfbf" stroke="black" points="1149.5,-268.5 1149.5,-298.5 1280.5,-298.5 1280.5,-268.5 1149.5,-268.5"/>
<text text-anchor="start" x="1157.5" y="-286.5" font-family="Helvetica,sans-Serif" font-size="10.00">libs/spic&#45;engine/includes</text>
<text text-anchor="middle" x="1215" y="-275.5" font-family="Helvetica,sans-Serif" font-size="10.00">/spic&#45;api&#45;headers/Text.hpp</text>
</a>
</g>
</g>
<!-- Node2 -->
<g id="node2" class="node">
<title>Node2</title>
<g id="a_node2"><a xlink:href="HUDController_8cpp.html" target="_top" xlink:title=" ">
<polygon fill="none" stroke="black" points="0,-73 0,-92 164,-92 164,-73 0,-73"/>
<text text-anchor="middle" x="82" y="-80" font-family="Helvetica,sans-Serif" font-size="10.00">src/Controllers/HUDController.cpp</text>
</a>
</g>
</g>
<!-- Node1&#45;&gt;Node2 -->
<g id="edge1" class="edge">
<title>Node1&#45;&gt;Node2</title>
<path fill="none" stroke="midnightblue" d="M1139.41,-281.99C890.45,-279.97 109.87,-270.54 73,-232 35.32,-192.62 65.87,-117.27 77.77,-92"/>
<polygon fill="midnightblue" stroke="midnightblue" points="1139.43,-285.5 1149.45,-282.08 1139.48,-278.5 1139.43,-285.5"/>
</g>
<!-- Node3 -->
<g id="node3" class="node">
<title>Node3</title>
<g id="a_node3"><a xlink:href="HUDController_8hpp.html" target="_top" xlink:title=" ">
<polygon fill="none" stroke="black" points="82,-207 82,-226 246,-226 246,-207 82,-207"/>
<text text-anchor="middle" x="164" y="-214" font-family="Helvetica,sans-Serif" font-size="10.00">src/Controllers/HUDController.hpp</text>
</a>
</g>
</g>
<!-- Node1&#45;&gt;Node3 -->
<g id="edge2" class="edge">
<title>Node1&#45;&gt;Node3</title>
<path fill="none" stroke="midnightblue" d="M1138.96,-281.22C976.34,-277.89 582.86,-266.65 255,-232 240.84,-230.5 225.53,-228.3 211.57,-226.05"/>
<polygon fill="midnightblue" stroke="midnightblue" points="1139.27,-284.73 1149.34,-281.43 1139.41,-277.73 1139.27,-284.73"/>
</g>
<!-- Node12 -->
<g id="node12" class="node">
<title>Node12</title>
<g id="a_node12"><a xlink:href="ButtonPrefabFactory_8cpp.html" target="_top" xlink:title=" ">
<polygon fill="none" stroke="black" points="264,-201.5 264,-231.5 398,-231.5 398,-201.5 264,-201.5"/>
<text text-anchor="start" x="272" y="-219.5" font-family="Helvetica,sans-Serif" font-size="10.00">src/Factories/ButtonPrefab</text>
<text text-anchor="middle" x="331" y="-208.5" font-family="Helvetica,sans-Serif" font-size="10.00">Factory.cpp</text>
</a>
</g>
</g>
<!-- Node1&#45;&gt;Node12 -->
<g id="edge13" class="edge">
<title>Node1&#45;&gt;Node12</title>
<path fill="none" stroke="midnightblue" d="M1139.26,-280.95C995.83,-277.31 674.93,-265.8 407,-232 404.07,-231.63 401.08,-231.22 398.06,-230.77"/>
<polygon fill="midnightblue" stroke="midnightblue" points="1139.19,-284.45 1149.28,-281.2 1139.37,-277.45 1139.19,-284.45"/>
</g>
<!-- Node13 -->
<g id="node13" class="node">
<title>Node13</title>
<g id="a_node13"><a xlink:href="CreditScene_8cpp.html" target="_top" xlink:title=" ">
<polygon fill="none" stroke="black" points="416,-207 416,-226 556,-226 556,-207 416,-207"/>
<text text-anchor="middle" x="486" y="-214" font-family="Helvetica,sans-Serif" font-size="10.00">src/Scenes/CreditScene.cpp</text>
</a>
</g>
</g>
<!-- Node1&#45;&gt;Node13 -->
<g id="edge14" class="edge">
<title>Node1&#45;&gt;Node13</title>
<path fill="none" stroke="midnightblue" d="M1138.95,-279.16C1017.31,-273.24 771.67,-258.92 565,-232 552.97,-230.43 539.99,-228.26 528.1,-226.07"/>
<polygon fill="midnightblue" stroke="midnightblue" points="1139.1,-282.67 1149.26,-279.66 1139.44,-275.68 1139.1,-282.67"/>
</g>
<!-- Node14 -->
<g id="node14" class="node">
<title>Node14</title>
<g id="a_node14"><a xlink:href="GameOverScene_8cpp.html" target="_top" xlink:title=" ">
<polygon fill="none" stroke="black" points="574,-207 574,-226 736,-226 736,-207 574,-207"/>
<text text-anchor="middle" x="655" y="-214" font-family="Helvetica,sans-Serif" font-size="10.00">src/Scenes/GameOverScene.cpp</text>
</a>
</g>
</g>
<!-- Node1&#45;&gt;Node14 -->
<g id="edge15" class="edge">
<title>Node1&#45;&gt;Node14</title>
<path fill="none" stroke="midnightblue" d="M1139.32,-275.61C1046.31,-266.85 883.77,-250.62 745,-232 731.98,-230.25 717.94,-228.11 704.92,-226.02"/>
<polygon fill="midnightblue" stroke="midnightblue" points="1139.2,-279.11 1149.48,-276.56 1139.85,-272.14 1139.2,-279.11"/>
</g>
<!-- Node15 -->
<g id="node15" class="node">
<title>Node15</title>
<g id="a_node15"><a xlink:href="HelpScene_8cpp.html" target="_top" xlink:title=" ">
<polygon fill="none" stroke="black" points="754.5,-207 754.5,-226 889.5,-226 889.5,-207 754.5,-207"/>
<text text-anchor="middle" x="822" y="-214" font-family="Helvetica,sans-Serif" font-size="10.00">src/Scenes/HelpScene.cpp</text>
</a>
</g>
</g>
<!-- Node1&#45;&gt;Node15 -->
<g id="edge16" class="edge">
<title>Node1&#45;&gt;Node15</title>
<path fill="none" stroke="midnightblue" d="M1139.23,-270.99C1075.15,-261.12 980.96,-246.26 899,-232 888.41,-230.16 877.03,-228.07 866.34,-226.07"/>
<polygon fill="midnightblue" stroke="midnightblue" points="1138.83,-274.47 1149.25,-272.53 1139.89,-267.55 1138.83,-274.47"/>
</g>
<!-- Node16 -->
<g id="node16" class="node">
<title>Node16</title>
<g id="a_node16"><a xlink:href="LevelSelectionScene_8cpp.html" target="_top" xlink:title=" ">
<polygon fill="none" stroke="black" points="908,-201.5 908,-231.5 1042,-231.5 1042,-201.5 908,-201.5"/>
<text text-anchor="start" x="916" y="-219.5" font-family="Helvetica,sans-Serif" font-size="10.00">src/Scenes/LevelSelection</text>
<text text-anchor="middle" x="975" y="-208.5" font-family="Helvetica,sans-Serif" font-size="10.00">Scene.cpp</text>
</a>
</g>
</g>
<!-- Node1&#45;&gt;Node16 -->
<g id="edge17" class="edge">
<title>Node1&#45;&gt;Node16</title>
<path fill="none" stroke="midnightblue" d="M1153.52,-265.85C1114.39,-255.25 1064.27,-241.68 1027.1,-231.61"/>
<polygon fill="midnightblue" stroke="midnightblue" points="1152.65,-269.24 1163.22,-268.48 1154.48,-262.48 1152.65,-269.24"/>
</g>
<!-- Node17 -->
<g id="node17" class="node">
<title>Node17</title>
<g id="a_node17"><a xlink:href="LoadingScene_8cpp.html" target="_top" xlink:title=" ">
<polygon fill="none" stroke="black" points="1060.5,-207 1060.5,-226 1209.5,-226 1209.5,-207 1060.5,-207"/>
<text text-anchor="middle" x="1135" y="-214" font-family="Helvetica,sans-Serif" font-size="10.00">src/Scenes/LoadingScene.cpp</text>
</a>
</g>
</g>
<!-- Node1&#45;&gt;Node17 -->
<g id="edge18" class="edge">
<title>Node1&#45;&gt;Node17</title>
<path fill="none" stroke="midnightblue" d="M1189.78,-262.01C1174.93,-249.94 1156.91,-235.3 1145.7,-226.19"/>
<polygon fill="midnightblue" stroke="midnightblue" points="1187.67,-264.81 1197.64,-268.4 1192.09,-259.37 1187.67,-264.81"/>
</g>
<!-- Node18 -->
<g id="node18" class="node">
<title>Node18</title>
<g id="a_node18"><a xlink:href="MainScene_8hpp.html" target="_top" xlink:title=" ">
<polygon fill="none" stroke="black" points="1228,-207 1228,-226 1364,-226 1364,-207 1228,-207"/>
<text text-anchor="middle" x="1296" y="-214" font-family="Helvetica,sans-Serif" font-size="10.00">src/Scenes/MainScene.hpp</text>
</a>
</g>
</g>
<!-- Node1&#45;&gt;Node18 -->
<g id="edge19" class="edge">
<title>Node1&#45;&gt;Node18</title>
<path fill="none" stroke="midnightblue" d="M1240.54,-262.01C1255.57,-249.94 1273.81,-235.3 1285.17,-226.19"/>
<polygon fill="midnightblue" stroke="midnightblue" points="1238.18,-259.41 1232.58,-268.4 1242.57,-264.87 1238.18,-259.41"/>
</g>
<!-- Node21 -->
<g id="node21" class="node">
<title>Node21</title>
<g id="a_node21"><a xlink:href="MenuScene_8cpp.html" target="_top" xlink:title=" ">
<polygon fill="none" stroke="black" points="1382.5,-207 1382.5,-226 1521.5,-226 1521.5,-207 1382.5,-207"/>
<text text-anchor="middle" x="1452" y="-214" font-family="Helvetica,sans-Serif" font-size="10.00">src/Scenes/MenuScene.cpp</text>
</a>
</g>
</g>
<!-- Node1&#45;&gt;Node21 -->
<g id="edge22" class="edge">
<title>Node1&#45;&gt;Node21</title>
<path fill="none" stroke="midnightblue" d="M1275.78,-265.83C1322.16,-253.11 1384.16,-236.11 1420.9,-226.03"/>
<polygon fill="midnightblue" stroke="midnightblue" points="1274.85,-262.46 1266.13,-268.48 1276.7,-269.21 1274.85,-262.46"/>
</g>
<!-- Node22 -->
<g id="node22" class="node">
<title>Node22</title>
<g id="a_node22"><a xlink:href="PauseScene_8cpp.html" target="_top" xlink:title=" ">
<polygon fill="none" stroke="black" points="1539.5,-207 1539.5,-226 1682.5,-226 1682.5,-207 1539.5,-207"/>
<text text-anchor="middle" x="1611" y="-214" font-family="Helvetica,sans-Serif" font-size="10.00">src/Scenes/PauseScene.cpp</text>
</a>
</g>
</g>
<!-- Node1&#45;&gt;Node22 -->
<g id="edge23" class="edge">
<title>Node1&#45;&gt;Node22</title>
<path fill="none" stroke="midnightblue" d="M1290.5,-270.79C1354.35,-260.79 1448.23,-245.87 1530,-232 1541.13,-230.11 1553.1,-228.01 1564.34,-226"/>
<polygon fill="midnightblue" stroke="midnightblue" points="1289.85,-267.35 1280.52,-272.35 1290.94,-274.26 1289.85,-267.35"/>
</g>
<!-- Node23 -->
<g id="node23" class="node">
<title>Node23</title>
<g id="a_node23"><a xlink:href="VictoryScene_8cpp.html" target="_top" xlink:title=" ">
<polygon fill="none" stroke="black" points="1700.5,-207 1700.5,-226 1845.5,-226 1845.5,-207 1700.5,-207"/>
<text text-anchor="middle" x="1773" y="-214" font-family="Helvetica,sans-Serif" font-size="10.00">src/Scenes/VictoryScene.cpp</text>
</a>
</g>
</g>
<!-- Node1&#45;&gt;Node23 -->
<g id="edge24" class="edge">
<title>Node1&#45;&gt;Node23</title>
<path fill="none" stroke="midnightblue" d="M1290.62,-276.11C1384.68,-267.78 1550.08,-251.91 1691,-232 1703.02,-230.3 1715.99,-228.16 1727.98,-226.04"/>
<polygon fill="midnightblue" stroke="midnightblue" points="1290.28,-272.62 1280.62,-276.99 1290.89,-279.6 1290.28,-272.62"/>
</g>
<!-- Node24 -->
<g id="node24" class="node">
<title>Node24</title>
<g id="a_node24"><a xlink:href="Text_8cpp.html" target="_top" xlink:title=" ">
<polygon fill="none" stroke="black" points="1863.5,-201.5 1863.5,-231.5 1964.5,-231.5 1964.5,-201.5 1863.5,-201.5"/>
<text text-anchor="start" x="1871.5" y="-219.5" font-family="Helvetica,sans-Serif" font-size="10.00">libs/spic&#45;engine/src</text>
<text text-anchor="middle" x="1914" y="-208.5" font-family="Helvetica,sans-Serif" font-size="10.00">/Api/Text.cpp</text>
</a>
</g>
</g>
<!-- Node1&#45;&gt;Node24 -->
<g id="edge25" class="edge">
<title>Node1&#45;&gt;Node24</title>
<path fill="none" stroke="midnightblue" d="M1290.91,-280.38C1411.07,-276.16 1652.18,-264.15 1854,-232 1857.07,-231.51 1860.21,-230.95 1863.37,-230.33"/>
<polygon fill="midnightblue" stroke="midnightblue" points="1290.59,-276.89 1280.72,-280.73 1290.83,-283.89 1290.59,-276.89"/>
</g>
<!-- Node25 -->
<g id="node25" class="node">
<title>Node25</title>
<g id="a_node25"><a xlink:href="Window_8hpp.html" target="_top" xlink:title=" ">
<polygon fill="none" stroke="black" points="2127.5,-201.5 2127.5,-231.5 2234.5,-231.5 2234.5,-201.5 2127.5,-201.5"/>
<text text-anchor="start" x="2135.5" y="-219.5" font-family="Helvetica,sans-Serif" font-size="10.00">libs/spic&#45;engine/src</text>
<text text-anchor="middle" x="2181" y="-208.5" font-family="Helvetica,sans-Serif" font-size="10.00">/Models/Window.hpp</text>
</a>
</g>
</g>
<!-- Node1&#45;&gt;Node25 -->
<g id="edge26" class="edge">
<title>Node1&#45;&gt;Node25</title>
<path fill="none" stroke="midnightblue" d="M1290.94,-282.6C1446.78,-281.86 1813.69,-275.21 2118,-232 2121,-231.57 2124.07,-231.08 2127.16,-230.53"/>
<polygon fill="midnightblue" stroke="midnightblue" points="1290.52,-279.11 1280.53,-282.65 1290.55,-286.11 1290.52,-279.11"/>
</g>
<!-- Node35 -->
<g id="node35" class="node">
<title>Node35</title>
<g id="a_node35"><a xlink:href="RenderSubsystem_8cpp.html" target="_top" xlink:title=" ">
<polygon fill="none" stroke="black" points="2504,-67.5 2504,-97.5 2678,-97.5 2678,-67.5 2504,-67.5"/>
<text text-anchor="start" x="2512" y="-85.5" font-family="Helvetica,sans-Serif" font-size="10.00">libs/spic&#45;engine/src</text>
<text text-anchor="middle" x="2591" y="-74.5" font-family="Helvetica,sans-Serif" font-size="10.00">/Subsystems/RenderSubsystem.cpp</text>
</a>
</g>
</g>
<!-- Node1&#45;&gt;Node35 -->
<g id="edge40" class="edge">
<title>Node1&#45;&gt;Node35</title>
<path fill="none" stroke="midnightblue" d="M1290.68,-282.7C1461.31,-282.3 1888.78,-276.51 2243,-232 2391.06,-213.4 2465.01,-269.02 2572,-165 2590.13,-147.38 2592.39,-116.06 2591.98,-97.8"/>
<polygon fill="midnightblue" stroke="midnightblue" points="1290.54,-279.2 1280.55,-282.72 1290.55,-286.2 1290.54,-279.2"/>
</g>
<!-- Node36 -->
<g id="node36" class="node">
<title>Node36</title>
<g id="a_node36"><a xlink:href="Api_8hpp.html" target="_top" xlink:title=" ">
<polygon fill="none" stroke="black" points="1983,-201.5 1983,-231.5 2109,-231.5 2109,-201.5 1983,-201.5"/>
<text text-anchor="start" x="1991" y="-219.5" font-family="Helvetica,sans-Serif" font-size="10.00">libs/spic&#45;engine/includes</text>
<text text-anchor="middle" x="2046" y="-208.5" font-family="Helvetica,sans-Serif" font-size="10.00">/spic&#45;api&#45;headers/Api.hpp</text>
</a>
</g>
</g>
<!-- Node1&#45;&gt;Node36 -->
<g id="edge41" class="edge">
<title>Node1&#45;&gt;Node36</title>
<path fill="none" stroke="midnightblue" d="M1291.05,-280.69C1427.97,-276.71 1724.82,-264.77 1973,-232 1976.2,-231.58 1979.48,-231.1 1982.78,-230.58"/>
<polygon fill="midnightblue" stroke="midnightblue" points="1290.58,-277.2 1280.68,-280.99 1290.78,-284.2 1290.58,-277.2"/>
</g>
<!-- Node3&#45;&gt;Node2 -->
<g id="edge3" class="edge">
<title>Node3&#45;&gt;Node2</title>
<path fill="none" stroke="midnightblue" d="M153.31,-198.29C135.54,-169.69 100.58,-113.41 87.29,-92.02"/>
<polygon fill="midnightblue" stroke="midnightblue" points="150.37,-200.19 158.62,-206.84 156.32,-196.5 150.37,-200.19"/>
</g>
<!-- Node4 -->
<g id="node4" class="node">
<title>Node4</title>
<g id="a_node4"><a xlink:href="LevelController_8hpp.html" target="_top" xlink:title=" ">
<polygon fill="none" stroke="black" points="517,-140 517,-159 683,-159 683,-140 517,-140"/>
<text text-anchor="middle" x="600" y="-147" font-family="Helvetica,sans-Serif" font-size="10.00">src/Controllers/LevelController.hpp</text>
</a>
</g>
</g>
<!-- Node3&#45;&gt;Node4 -->
<g id="edge4" class="edge">
<title>Node3&#45;&gt;Node4</title>
<path fill="none" stroke="midnightblue" d="M227,-205.36C236.38,-203.88 245.94,-202.38 255,-201 354.93,-185.73 471.3,-168.89 540.13,-159.03"/>
<polygon fill="midnightblue" stroke="midnightblue" points="226.24,-201.93 216.91,-206.95 227.34,-208.85 226.24,-201.93"/>
</g>
<!-- Node4&#45;&gt;Node2 -->
<g id="edge5" class="edge">
<title>Node4&#45;&gt;Node2</title>
<path fill="none" stroke="midnightblue" d="M509.55,-138.87C423.03,-129.41 288.93,-114.09 173,-98 160.16,-96.22 146.34,-94.11 133.44,-92.07"/>
<polygon fill="midnightblue" stroke="midnightblue" points="509.28,-142.36 519.6,-139.97 510.04,-135.41 509.28,-142.36"/>
</g>
<!-- Node5 -->
<g id="node5" class="node">
<title>Node5</title>
<g id="a_node5"><a xlink:href="LevelController_8cpp.html" target="_top" xlink:title=" ">
<polygon fill="none" stroke="black" points="1437,-73 1437,-92 1603,-92 1603,-73 1437,-73"/>
<text text-anchor="middle" x="1520" y="-80" font-family="Helvetica,sans-Serif" font-size="10.00">src/Controllers/LevelController.cpp</text>
</a>
</g>
</g>
<!-- Node4&#45;&gt;Node5 -->
<g id="edge6" class="edge">
<title>Node4&#45;&gt;Node5</title>
<path fill="none" stroke="midnightblue" d="M693.51,-141.89C873.5,-129.18 1265.48,-101.48 1436.92,-89.37"/>
<polygon fill="midnightblue" stroke="midnightblue" points="692.99,-138.42 683.27,-142.62 693.49,-145.4 692.99,-138.42"/>
</g>
<!-- Node6 -->
<g id="node6" class="node">
<title>Node6</title>
<g id="a_node6"><a xlink:href="LevelScene_8cpp.html" target="_top" xlink:title=" ">
<polygon fill="none" stroke="black" points="850.5,-73 850.5,-92 989.5,-92 989.5,-73 850.5,-73"/>
<text text-anchor="middle" x="920" y="-80" font-family="Helvetica,sans-Serif" font-size="10.00">src/Scenes/LevelScene.cpp</text>
</a>
</g>
</g>
<!-- Node4&#45;&gt;Node6 -->
<g id="edge7" class="edge">
<title>Node4&#45;&gt;Node6</title>
<path fill="none" stroke="midnightblue" d="M652.29,-137.88C715.31,-125.08 819.97,-103.82 878,-92.03"/>
<polygon fill="midnightblue" stroke="midnightblue" points="651.27,-134.51 642.16,-139.94 652.66,-141.37 651.27,-134.51"/>
</g>
<!-- Node7 -->
<g id="node7" class="node">
<title>Node7</title>
<g id="a_node7"><a xlink:href="CheatManager_8cpp.html" target="_top" xlink:title=" ">
<polygon fill="none" stroke="black" points="1008,-67.5 1008,-97.5 1114,-97.5 1114,-67.5 1008,-67.5"/>
<text text-anchor="start" x="1016" y="-85.5" font-family="Helvetica,sans-Serif" font-size="10.00">src/Scripts/Common</text>
<text text-anchor="middle" x="1061" y="-74.5" font-family="Helvetica,sans-Serif" font-size="10.00">/CheatManager.cpp</text>
</a>
</g>
</g>
<!-- Node4&#45;&gt;Node7 -->
<g id="edge8" class="edge">
<title>Node4&#45;&gt;Node7</title>
<path fill="none" stroke="midnightblue" d="M693.23,-139.34C774.15,-130.75 894.26,-116.47 998,-98 1001.2,-97.43 1004.49,-96.8 1007.8,-96.14"/>
<polygon fill="midnightblue" stroke="midnightblue" points="692.65,-135.88 683.07,-140.41 693.38,-142.84 692.65,-135.88"/>
</g>
<!-- Node8 -->
<g id="node8" class="node">
<title>Node8</title>
<g id="a_node8"><a xlink:href="EnemyMovementBehaviour_8cpp.html" target="_top" xlink:title=" ">
<polygon fill="none" stroke="black" points="182,-67.5 182,-97.5 338,-97.5 338,-67.5 182,-67.5"/>
<text text-anchor="start" x="190" y="-85.5" font-family="Helvetica,sans-Serif" font-size="10.00">src/Scripts/Enemies</text>
<text text-anchor="middle" x="260" y="-74.5" font-family="Helvetica,sans-Serif" font-size="10.00">/EnemyMovementBehaviour.cpp</text>
</a>
</g>
</g>
<!-- Node4&#45;&gt;Node8 -->
<g id="edge9" class="edge">
<title>Node4&#45;&gt;Node8</title>
<path fill="none" stroke="midnightblue" d="M545.23,-138.03C487.78,-127.05 397.18,-109.73 333.54,-97.56"/>
<polygon fill="midnightblue" stroke="midnightblue" points="544.72,-141.5 555.2,-139.94 546.04,-134.62 544.72,-141.5"/>
</g>
<!-- Node9 -->
<g id="node9" class="node">
<title>Node9</title>
<g id="a_node9"><a xlink:href="EnemyTroopTruckBehaviour_8cpp.html" target="_top" xlink:title=" ">
<polygon fill="none" stroke="black" points="356,-67.5 356,-97.5 516,-97.5 516,-67.5 356,-67.5"/>
<text text-anchor="start" x="364" y="-85.5" font-family="Helvetica,sans-Serif" font-size="10.00">src/Scripts/Enemies</text>
<text text-anchor="middle" x="436" y="-74.5" font-family="Helvetica,sans-Serif" font-size="10.00">/EnemyTroopTruckBehaviour.cpp</text>
</a>
</g>
</g>
<!-- Node4&#45;&gt;Node9 -->
<g id="edge10" class="edge">
<title>Node4&#45;&gt;Node9</title>
<path fill="none" stroke="midnightblue" d="M568.61,-136.06C540.83,-125.05 500.32,-108.99 471.39,-97.53"/>
<polygon fill="midnightblue" stroke="midnightblue" points="567.64,-139.44 578.22,-139.87 570.22,-132.93 567.64,-139.44"/>
</g>
<!-- Node10 -->
<g id="node10" class="node">
<title>Node10</title>
<g id="a_node10"><a xlink:href="UserAttackBehaviour_8cpp.html" target="_top" xlink:title=" ">
<polygon fill="none" stroke="black" points="534.5,-67.5 534.5,-97.5 665.5,-97.5 665.5,-67.5 534.5,-67.5"/>
<text text-anchor="start" x="542.5" y="-85.5" font-family="Helvetica,sans-Serif" font-size="10.00">src/Scripts/Heroes</text>
<text text-anchor="middle" x="600" y="-74.5" font-family="Helvetica,sans-Serif" font-size="10.00">/UserAttackBehaviour.cpp</text>
</a>
</g>
</g>
<!-- Node4&#45;&gt;Node10 -->
<g id="edge11" class="edge">
<title>Node4&#45;&gt;Node10</title>
<path fill="none" stroke="midnightblue" d="M600,-129.41C600,-119.22 600,-106.9 600,-97.59"/>
<polygon fill="midnightblue" stroke="midnightblue" points="596.5,-129.73 600,-139.73 603.5,-129.73 596.5,-129.73"/>
</g>
<!-- Node11 -->
<g id="node11" class="node">
<title>Node11</title>
<g id="a_node11"><a xlink:href="UserMovementBehaviour_8cpp.html" target="_top" xlink:title=" ">
<polygon fill="none" stroke="black" points="684,-67.5 684,-97.5 832,-97.5 832,-67.5 684,-67.5"/>
<text text-anchor="start" x="692" y="-85.5" font-family="Helvetica,sans-Serif" font-size="10.00">src/Scripts/Heroes</text>
<text text-anchor="middle" x="758" y="-74.5" font-family="Helvetica,sans-Serif" font-size="10.00">/UserMovementBehaviour.cpp</text>
</a>
</g>
</g>
<!-- Node4&#45;&gt;Node11 -->
<g id="edge12" class="edge">
<title>Node4&#45;&gt;Node11</title>
<path fill="none" stroke="midnightblue" d="M630.24,-136.06C657.01,-125.05 696.03,-108.99 723.9,-97.53"/>
<polygon fill="midnightblue" stroke="midnightblue" points="628.9,-132.83 620.98,-139.87 631.56,-139.3 628.9,-132.83"/>
</g>
<!-- Node19 -->
<g id="node19" class="node">
<title>Node19</title>
<g id="a_node19"><a xlink:href="MainScene_8cpp.html" target="_top" xlink:title=" ">
<polygon fill="none" stroke="black" points="1152,-140 1152,-159 1288,-159 1288,-140 1152,-140"/>
<text text-anchor="middle" x="1220" y="-147" font-family="Helvetica,sans-Serif" font-size="10.00">src/Scenes/MainScene.cpp</text>
</a>
</g>
</g>
<!-- Node18&#45;&gt;Node19 -->
<g id="edge20" class="edge">
<title>Node18&#45;&gt;Node19</title>
<path fill="none" stroke="midnightblue" d="M1278.13,-200.21C1263.15,-187.41 1242.32,-169.59 1230.09,-159.13"/>
<polygon fill="midnightblue" stroke="midnightblue" points="1275.88,-202.89 1285.75,-206.73 1280.43,-197.57 1275.88,-202.89"/>
</g>
<!-- Node20 -->
<g id="node20" class="node">
<title>Node20</title>
<g id="a_node20"><a xlink:href="SaveSelectionScene_8cpp.html" target="_top" xlink:title=" ">
<polygon fill="none" stroke="black" points="1306,-134.5 1306,-164.5 1438,-164.5 1438,-134.5 1306,-134.5"/>
<text text-anchor="start" x="1314" y="-152.5" font-family="Helvetica,sans-Serif" font-size="10.00">src/Scenes/SaveSelection</text>
<text text-anchor="middle" x="1372" y="-141.5" font-family="Helvetica,sans-Serif" font-size="10.00">Scene.cpp</text>
</a>
</g>
</g>
<!-- Node18&#45;&gt;Node20 -->
<g id="edge21" class="edge">
<title>Node18&#45;&gt;Node20</title>
<path fill="none" stroke="midnightblue" d="M1314.21,-199.93C1326.78,-189.18 1343.35,-175 1355.53,-164.59"/>
<polygon fill="midnightblue" stroke="midnightblue" points="1311.57,-197.57 1306.25,-206.73 1316.12,-202.89 1311.57,-197.57"/>
</g>
<!-- Node26 -->
<g id="node26" class="node">
<title>Node26</title>
<g id="a_node26"><a xlink:href="TimeManager_8hpp.html" target="_top" xlink:title=" ">
<polygon fill="none" stroke="black" points="2015.5,-134.5 2015.5,-164.5 2158.5,-164.5 2158.5,-134.5 2015.5,-134.5"/>
<text text-anchor="start" x="2023.5" y="-152.5" font-family="Helvetica,sans-Serif" font-size="10.00">libs/spic&#45;engine/src</text>
<text text-anchor="middle" x="2087" y="-141.5" font-family="Helvetica,sans-Serif" font-size="10.00">/Managers/TimeManager.hpp</text>
</a>
</g>
</g>
<!-- Node25&#45;&gt;Node26 -->
<g id="edge27" class="edge">
<title>Node25&#45;&gt;Node26</title>
<path fill="none" stroke="midnightblue" d="M2152.01,-195.45C2137.55,-185.45 2120.41,-173.6 2107.36,-164.58"/>
<polygon fill="midnightblue" stroke="midnightblue" points="2150.39,-198.59 2160.6,-201.4 2154.37,-192.83 2150.39,-198.59"/>
</g>
<!-- Node31 -->
<g id="node31" class="node">
<title>Node31</title>
<g id="a_node31"><a xlink:href="Window_8cpp.html" target="_top" xlink:title=" ">
<polygon fill="none" stroke="black" points="1890.5,-134.5 1890.5,-164.5 1997.5,-164.5 1997.5,-134.5 1890.5,-134.5"/>
<text text-anchor="start" x="1898.5" y="-152.5" font-family="Helvetica,sans-Serif" font-size="10.00">libs/spic&#45;engine/src</text>
<text text-anchor="middle" x="1944" y="-141.5" font-family="Helvetica,sans-Serif" font-size="10.00">/Models/Window.cpp</text>
</a>
</g>
</g>
<!-- Node25&#45;&gt;Node31 -->
<g id="edge32" class="edge">
<title>Node25&#45;&gt;Node31</title>
<path fill="none" stroke="midnightblue" d="M2119.8,-198.71C2081.23,-188.14 2032,-174.63 1995.45,-164.61"/>
<polygon fill="midnightblue" stroke="midnightblue" points="2119.3,-202.21 2129.87,-201.48 2121.15,-195.46 2119.3,-202.21"/>
</g>
<!-- Node32 -->
<g id="node32" class="node">
<title>Node32</title>
<g id="a_node32"><a xlink:href="FpsCounterSubsystem_8hpp.html" target="_top" xlink:title=" ">
<polygon fill="none" stroke="black" points="2177,-134.5 2177,-164.5 2371,-164.5 2371,-134.5 2177,-134.5"/>
<text text-anchor="start" x="2185" y="-152.5" font-family="Helvetica,sans-Serif" font-size="10.00">libs/spic&#45;engine/src</text>
<text text-anchor="middle" x="2274" y="-141.5" font-family="Helvetica,sans-Serif" font-size="10.00">/Subsystems/FpsCounterSubsystem.hpp</text>
</a>
</g>
</g>
<!-- Node25&#45;&gt;Node32 -->
<g id="edge33" class="edge">
<title>Node25&#45;&gt;Node32</title>
<path fill="none" stroke="midnightblue" d="M2209.69,-195.45C2223.99,-185.45 2240.95,-173.6 2253.86,-164.58"/>
<polygon fill="midnightblue" stroke="midnightblue" points="2207.37,-192.8 2201.18,-201.4 2211.38,-198.54 2207.37,-192.8"/>
</g>
<!-- Node34 -->
<g id="node34" class="node">
<title>Node34</title>
<g id="a_node34"><a xlink:href="RenderSubsystem_8hpp.html" target="_top" xlink:title=" ">
<polygon fill="none" stroke="black" points="2389,-134.5 2389,-164.5 2563,-164.5 2563,-134.5 2389,-134.5"/>
<text text-anchor="start" x="2397" y="-152.5" font-family="Helvetica,sans-Serif" font-size="10.00">libs/spic&#45;engine/src</text>
<text text-anchor="middle" x="2476" y="-141.5" font-family="Helvetica,sans-Serif" font-size="10.00">/Subsystems/RenderSubsystem.hpp</text>
</a>
</g>
</g>
<!-- Node25&#45;&gt;Node34 -->
<g id="edge37" class="edge">
<title>Node25&#45;&gt;Node34</title>
<path fill="none" stroke="midnightblue" d="M2244.73,-201.46C2294.31,-190.53 2362.78,-175.45 2412.34,-164.53"/>
<polygon fill="midnightblue" stroke="midnightblue" points="2243.78,-198.08 2234.76,-203.65 2245.28,-204.92 2243.78,-198.08"/>
</g>
<!-- Node27 -->
<g id="node27" class="node">
<title>Node27</title>
<g id="a_node27"><a xlink:href="Engine_8cpp.html" target="_top" xlink:title=" ">
<polygon fill="none" stroke="black" points="2203.5,-0.5 2203.5,-30.5 2304.5,-30.5 2304.5,-0.5 2203.5,-0.5"/>
<text text-anchor="start" x="2211.5" y="-18.5" font-family="Helvetica,sans-Serif" font-size="10.00">libs/spic&#45;engine/src</text>
<text text-anchor="middle" x="2254" y="-7.5" font-family="Helvetica,sans-Serif" font-size="10.00">/Api/Engine.cpp</text>
</a>
</g>
</g>
<!-- Node26&#45;&gt;Node27 -->
<g id="edge28" class="edge">
<title>Node26&#45;&gt;Node27</title>
<path fill="none" stroke="midnightblue" d="M2090,-124.46C2093.43,-106.48 2100.69,-82.44 2116,-67 2139.26,-43.53 2174.3,-30.89 2203.25,-24.12"/>
<polygon fill="midnightblue" stroke="midnightblue" points="2086.52,-124.05 2088.36,-134.48 2093.43,-125.18 2086.52,-124.05"/>
</g>
<!-- Node28 -->
<g id="node28" class="node">
<title>Node28</title>
<g id="a_node28"><a xlink:href="src_2Api_2Time_8cpp.html" target="_top" xlink:title=" ">
<polygon fill="none" stroke="black" points="1806.5,-67.5 1806.5,-97.5 1907.5,-97.5 1907.5,-67.5 1806.5,-67.5"/>
<text text-anchor="start" x="1814.5" y="-85.5" font-family="Helvetica,sans-Serif" font-size="10.00">libs/spic&#45;engine/src</text>
<text text-anchor="middle" x="1857" y="-74.5" font-family="Helvetica,sans-Serif" font-size="10.00">/Api/Time.cpp</text>
</a>
</g>
</g>
<!-- Node26&#45;&gt;Node28 -->
<g id="edge29" class="edge">
<title>Node26&#45;&gt;Node28</title>
<path fill="none" stroke="midnightblue" d="M2027.61,-131.71C1990.18,-121.14 1942.4,-107.63 1906.93,-97.61"/>
<polygon fill="midnightblue" stroke="midnightblue" points="2026.8,-135.12 2037.38,-134.48 2028.71,-128.39 2026.8,-135.12"/>
</g>
<!-- Node29 -->
<g id="node29" class="node">
<title>Node29</title>
<g id="a_node29"><a xlink:href="TimeManager_8cpp.html" target="_top" xlink:title=" ">
<polygon fill="none" stroke="black" points="1925.5,-67.5 1925.5,-97.5 2068.5,-97.5 2068.5,-67.5 1925.5,-67.5"/>
<text text-anchor="start" x="1933.5" y="-85.5" font-family="Helvetica,sans-Serif" font-size="10.00">libs/spic&#45;engine/src</text>
<text text-anchor="middle" x="1997" y="-74.5" font-family="Helvetica,sans-Serif" font-size="10.00">/Managers/TimeManager.cpp</text>
</a>
</g>
</g>
<!-- Node26&#45;&gt;Node29 -->
<g id="edge30" class="edge">
<title>Node26&#45;&gt;Node29</title>
<path fill="none" stroke="midnightblue" d="M2059.24,-128.45C2045.39,-118.45 2028.98,-106.6 2016.49,-97.58"/>
<polygon fill="midnightblue" stroke="midnightblue" points="2057.32,-131.38 2067.47,-134.4 2061.41,-125.7 2057.32,-131.38"/>
</g>
<!-- Node30 -->
<g id="node30" class="node">
<title>Node30</title>
<g id="a_node30"><a xlink:href="FpsCounterSubsystem_8cpp.html" target="_top" xlink:title=" ">
<polygon fill="none" stroke="black" points="2125,-67.5 2125,-97.5 2319,-97.5 2319,-67.5 2125,-67.5"/>
<text text-anchor="start" x="2133" y="-85.5" font-family="Helvetica,sans-Serif" font-size="10.00">libs/spic&#45;engine/src</text>
<text text-anchor="middle" x="2222" y="-74.5" font-family="Helvetica,sans-Serif" font-size="10.00">/Subsystems/FpsCounterSubsystem.cpp</text>
</a>
</g>
</g>
<!-- Node26&#45;&gt;Node30 -->
<g id="edge31" class="edge">
<title>Node26&#45;&gt;Node30</title>
<path fill="none" stroke="midnightblue" d="M2125.44,-129.99C2146.84,-119.69 2173.05,-107.07 2192.76,-97.58"/>
<polygon fill="midnightblue" stroke="midnightblue" points="2123.78,-126.9 2116.29,-134.4 2126.82,-133.21 2123.78,-126.9"/>
</g>
<!-- Node32&#45;&gt;Node30 -->
<g id="edge34" class="edge">
<title>Node32&#45;&gt;Node30</title>
<path fill="none" stroke="midnightblue" d="M2256.36,-126.45C2248.72,-116.9 2240,-106 2233.26,-97.58"/>
<polygon fill="midnightblue" stroke="midnightblue" points="2253.74,-128.77 2262.72,-134.4 2259.2,-124.4 2253.74,-128.77"/>
</g>
<!-- Node33 -->
<g id="node33" class="node">
<title>Node33</title>
<g id="a_node33"><a xlink:href="Subsystems_8hpp.html" target="_top" xlink:title=" ">
<polygon fill="none" stroke="black" points="2336.5,-67.5 2336.5,-97.5 2485.5,-97.5 2485.5,-67.5 2336.5,-67.5"/>
<text text-anchor="start" x="2344.5" y="-85.5" font-family="Helvetica,sans-Serif" font-size="10.00">libs/spic&#45;engine/src</text>
<text text-anchor="middle" x="2411" y="-74.5" font-family="Helvetica,sans-Serif" font-size="10.00">/Subsystems/Subsystems.hpp</text>
</a>
</g>
</g>
<!-- Node32&#45;&gt;Node33 -->
<g id="edge35" class="edge">
<title>Node32&#45;&gt;Node33</title>
<path fill="none" stroke="midnightblue" d="M2313.01,-129.99C2334.72,-119.69 2361.33,-107.07 2381.33,-97.58"/>
<polygon fill="midnightblue" stroke="midnightblue" points="2311.26,-126.95 2303.73,-134.4 2314.26,-133.27 2311.26,-126.95"/>
</g>
<!-- Node33&#45;&gt;Node27 -->
<g id="edge36" class="edge">
<title>Node33&#45;&gt;Node27</title>
<path fill="none" stroke="midnightblue" d="M2367.63,-63.54C2342.51,-53.14 2311.34,-40.24 2288,-30.58"/>
<polygon fill="midnightblue" stroke="midnightblue" points="2366.36,-66.8 2376.93,-67.4 2369.03,-60.34 2366.36,-66.8"/>
</g>
<!-- Node34&#45;&gt;Node33 -->
<g id="edge39" class="edge">
<title>Node34&#45;&gt;Node33</title>
<path fill="none" stroke="midnightblue" d="M2454.81,-127.31C2445.06,-117.56 2433.76,-106.26 2425.08,-97.58"/>
<polygon fill="midnightblue" stroke="midnightblue" points="2452.35,-129.8 2461.9,-134.4 2457.3,-124.85 2452.35,-129.8"/>
</g>
<!-- Node34&#45;&gt;Node35 -->
<g id="edge38" class="edge">
<title>Node34&#45;&gt;Node35</title>
<path fill="none" stroke="midnightblue" d="M2509.98,-129.3C2527.97,-119.12 2549.68,-106.85 2566.1,-97.58"/>
<polygon fill="midnightblue" stroke="midnightblue" points="2507.94,-126.43 2500.95,-134.4 2511.38,-132.52 2507.94,-126.43"/>
</g>
<!-- Node36&#45;&gt;Node5 -->
<g id="edge42" class="edge">
<title>Node36&#45;&gt;Node5</title>
<path fill="none" stroke="midnightblue" d="M1972.64,-200.95C1890.42,-184.93 1867.97,-184.14 1791,-165 1699.7,-142.3 1593.35,-107.95 1545.55,-92.09"/>
<polygon fill="midnightblue" stroke="midnightblue" points="1972.21,-204.43 1982.69,-202.92 1973.56,-197.56 1972.21,-204.43"/>
</g>
<!-- Node37 -->
<g id="node37" class="node">
<title>Node37</title>
<g id="a_node37"><a xlink:href="main_8cpp.html" target="_top" xlink:title=" ">
<polygon fill="none" stroke="black" points="1800,-140 1800,-159 1872,-159 1872,-140 1800,-140"/>
<text text-anchor="middle" x="1836" y="-147" font-family="Helvetica,sans-Serif" font-size="10.00">src/main.cpp</text>
</a>
</g>
</g>
<!-- Node36&#45;&gt;Node37 -->
<g id="edge43" class="edge">
<title>Node36&#45;&gt;Node37</title>
<path fill="none" stroke="midnightblue" d="M1989.75,-198.51C1957.82,-188.81 1917.13,-176.35 1881,-165 1875.05,-163.13 1868.66,-161.09 1862.63,-159.15"/>
<polygon fill="midnightblue" stroke="midnightblue" points="1988.77,-201.87 1999.36,-201.42 1990.81,-195.17 1988.77,-201.87"/>
</g>
</g>
</svg>
