<?xml version="1.0" encoding="UTF-8" standalone="no"?>
<!DOCTYPE svg PUBLIC "-//W3C//DTD SVG 1.1//EN"
 "http://www.w3.org/Graphics/SVG/1.1/DTD/svg11.dtd">
<!-- Generated by graphviz version 2.44.0 ()
 -->
<!-- Title: libs/spic&#45;engine/includes/spic&#45;api&#45;headers/Text.hpp Pages: 1 -->
<svg width="2843pt" height="307pt"
 viewBox="0.00 0.00 2843.00 307.00" xmlns="http://www.w3.org/2000/svg" xmlns:xlink="http://www.w3.org/1999/xlink">
<g id="graph0" class="graph" transform="scale(1 1) rotate(0) translate(4 303)">
<title>libs/spic&#45;engine/includes/spic&#45;api&#45;headers/Text.hpp</title>
<!-- Node1 -->
<g id="node1" class="node">
<title>Node1</title>
<g id="a_node1"><a xlink:title=" ">
<polygon fill="#bfbfbf" stroke="black" points="1230.5,-268.5 1230.5,-298.5 1361.5,-298.5 1361.5,-268.5 1230.5,-268.5"/>
<text text-anchor="start" x="1238.5" y="-286.5" font-family="Helvetica,sans-Serif" font-size="10.00">libs/spic&#45;engine/includes</text>
<text text-anchor="middle" x="1296" y="-275.5" font-family="Helvetica,sans-Serif" font-size="10.00">/spic&#45;api&#45;headers/Text.hpp</text>
</a>
</g>
</g>
<!-- Node2 -->
<g id="node2" class="node">
<title>Node2</title>
<g id="a_node2"><a xlink:href="HUDController_8cpp.html" target="_top" xlink:title=" ">
<polygon fill="none" stroke="black" points="0,-73 0,-92 164,-92 164,-73 0,-73"/>
<text text-anchor="middle" x="82" y="-80" font-family="Helvetica,sans-Serif" font-size="10.00">src/Controllers/HUDController.cpp</text>
</a>
</g>
</g>
<!-- Node1&#45;&gt;Node2 -->
<g id="edge1" class="edge">
<title>Node1&#45;&gt;Node2</title>
<path fill="none" stroke="midnightblue" d="M1219.97,-282.23C958.89,-280.91 112.79,-273.47 73,-232 35.27,-192.68 65.85,-117.29 77.77,-92.01"/>
<polygon fill="midnightblue" stroke="midnightblue" points="1220.1,-285.73 1230.12,-282.27 1220.14,-278.73 1220.1,-285.73"/>
</g>
<!-- Node3 -->
<g id="node3" class="node">
<title>Node3</title>
<g id="a_node3"><a xlink:href="HUDController_8hpp.html" target="_top" xlink:title=" ">
<polygon fill="none" stroke="black" points="82,-207 82,-226 246,-226 246,-207 82,-207"/>
<text text-anchor="middle" x="164" y="-214" font-family="Helvetica,sans-Serif" font-size="10.00">src/Controllers/HUDController.hpp</text>
</a>
</g>
</g>
<!-- Node1&#45;&gt;Node3 -->
<g id="edge2" class="edge">
<title>Node1&#45;&gt;Node3</title>
<path fill="none" stroke="midnightblue" d="M1220.13,-281.66C1048.02,-279.14 615.03,-269.3 255,-232 240.68,-230.52 225.18,-228.28 211.1,-226.01"/>
<polygon fill="midnightblue" stroke="midnightblue" points="1220.29,-285.17 1230.34,-281.81 1220.39,-278.17 1220.29,-285.17"/>
</g>
<!-- Node13 -->
<g id="node13" class="node">
<title>Node13</title>
<g id="a_node13"><a xlink:href="ButtonPrefabFactory_8cpp.html" target="_top" xlink:title=" ">
<polygon fill="none" stroke="black" points="264,-201.5 264,-231.5 398,-231.5 398,-201.5 264,-201.5"/>
<text text-anchor="start" x="272" y="-219.5" font-family="Helvetica,sans-Serif" font-size="10.00">src/Factories/ButtonPrefab</text>
<text text-anchor="middle" x="331" y="-208.5" font-family="Helvetica,sans-Serif" font-size="10.00">Factory.cpp</text>
</a>
</g>
</g>
<!-- Node1&#45;&gt;Node13 -->
<g id="edge14" class="edge">
<title>Node1&#45;&gt;Node13</title>
<path fill="none" stroke="midnightblue" d="M1220.21,-281.56C1066.36,-278.9 706.59,-268.93 407,-232 404.07,-231.64 401.08,-231.23 398.06,-230.79"/>
<polygon fill="midnightblue" stroke="midnightblue" points="1220.43,-285.06 1230.49,-281.73 1220.55,-278.06 1220.43,-285.06"/>
</g>
<!-- Node14 -->
<g id="node14" class="node">
<title>Node14</title>
<g id="a_node14"><a xlink:href="CreditScene_8cpp.html" target="_top" xlink:title=" ">
<polygon fill="none" stroke="black" points="416,-207 416,-226 556,-226 556,-207 416,-207"/>
<text text-anchor="middle" x="486" y="-214" font-family="Helvetica,sans-Serif" font-size="10.00">src/Scenes/CreditScene.cpp</text>
</a>
</g>
</g>
<!-- Node1&#45;&gt;Node14 -->
<g id="edge15" class="edge">
<title>Node1&#45;&gt;Node14</title>
<path fill="none" stroke="midnightblue" d="M1220.14,-280.07C1087.06,-275.19 803.03,-261.97 565,-232 552.83,-230.47 539.69,-228.27 527.68,-226.06"/>
<polygon fill="midnightblue" stroke="midnightblue" points="1220.11,-283.57 1230.23,-280.44 1220.37,-276.58 1220.11,-283.57"/>
</g>
<!-- Node15 -->
<g id="node15" class="node">
<title>Node15</title>
<g id="a_node15"><a xlink:href="GameOverScene_8cpp.html" target="_top" xlink:title=" ">
<polygon fill="none" stroke="black" points="574,-207 574,-226 736,-226 736,-207 574,-207"/>
<text text-anchor="middle" x="655" y="-214" font-family="Helvetica,sans-Serif" font-size="10.00">src/Scenes/GameOverScene.cpp</text>
</a>
</g>
</g>
<!-- Node1&#45;&gt;Node15 -->
<g id="edge16" class="edge">
<title>Node1&#45;&gt;Node15</title>
<path fill="none" stroke="midnightblue" d="M1220.11,-277.19C1113.69,-269.38 914.19,-253.36 745,-232 731.65,-230.32 717.25,-228.15 703.96,-226.01"/>
<polygon fill="midnightblue" stroke="midnightblue" points="1219.88,-280.69 1230.11,-277.92 1220.39,-273.7 1219.88,-280.69"/>
</g>
<!-- Node16 -->
<g id="node16" class="node">
<title>Node16</title>
<g id="a_node16"><a xlink:href="HelpScene_8cpp.html" target="_top" xlink:title=" ">
<polygon fill="none" stroke="black" points="754.5,-207 754.5,-226 889.5,-226 889.5,-207 754.5,-207"/>
<text text-anchor="middle" x="822" y="-214" font-family="Helvetica,sans-Serif" font-size="10.00">src/Scenes/HelpScene.cpp</text>
</a>
</g>
</g>
<!-- Node1&#45;&gt;Node16 -->
<g id="edge17" class="edge">
<title>Node1&#45;&gt;Node16</title>
<path fill="none" stroke="midnightblue" d="M1220.51,-274.25C1140.51,-265.2 1010.56,-249.58 899,-232 887.85,-230.24 875.83,-228.1 864.69,-226.01"/>
<polygon fill="midnightblue" stroke="midnightblue" points="1220.17,-277.74 1230.5,-275.38 1220.95,-270.78 1220.17,-277.74"/>
</g>
<!-- Node17 -->
<g id="node17" class="node">
<title>Node17</title>
<g id="a_node17"><a xlink:href="LevelSelectionScene_8cpp.html" target="_top" xlink:title=" ">
<polygon fill="none" stroke="black" points="908,-201.5 908,-231.5 1042,-231.5 1042,-201.5 908,-201.5"/>
<text text-anchor="start" x="916" y="-219.5" font-family="Helvetica,sans-Serif" font-size="10.00">src/Scenes/LevelSelection</text>
<text text-anchor="middle" x="975" y="-208.5" font-family="Helvetica,sans-Serif" font-size="10.00">Scene.cpp</text>
</a>
</g>
</g>
<!-- Node1&#45;&gt;Node17 -->
<g id="edge18" class="edge">
<title>Node1&#45;&gt;Node17</title>
<path fill="none" stroke="midnightblue" d="M1220.38,-267.19C1166.27,-256.23 1094.08,-241.61 1042.03,-231.07"/>
<polygon fill="midnightblue" stroke="midnightblue" points="1219.77,-270.64 1230.27,-269.19 1221.16,-263.77 1219.77,-270.64"/>
</g>
<!-- Node18 -->
<g id="node18" class="node">
<title>Node18</title>
<g id="a_node18"><a xlink:href="LoadingScene_8cpp.html" target="_top" xlink:title=" ">
<polygon fill="none" stroke="black" points="1060.5,-207 1060.5,-226 1209.5,-226 1209.5,-207 1060.5,-207"/>
<text text-anchor="middle" x="1135" y="-214" font-family="Helvetica,sans-Serif" font-size="10.00">src/Scenes/LoadingScene.cpp</text>
</a>
</g>
</g>
<!-- Node1&#45;&gt;Node18 -->
<g id="edge19" class="edge">
<title>Node1&#45;&gt;Node18</title>
<path fill="none" stroke="midnightblue" d="M1251.72,-264.62C1220.55,-252.04 1180.24,-235.77 1156.07,-226.01"/>
<polygon fill="midnightblue" stroke="midnightblue" points="1250.48,-267.9 1261.07,-268.4 1253.1,-261.41 1250.48,-267.9"/>
</g>
<!-- Node19 -->
<g id="node19" class="node">
<title>Node19</title>
<g id="a_node19"><a xlink:href="MainScene_8hpp.html" target="_top" xlink:title=" ">
<polygon fill="none" stroke="black" points="1228,-207 1228,-226 1364,-226 1364,-207 1228,-207"/>
<text text-anchor="middle" x="1296" y="-214" font-family="Helvetica,sans-Serif" font-size="10.00">src/Scenes/MainScene.hpp</text>
</a>
</g>
</g>
<!-- Node1&#45;&gt;Node19 -->
<g id="edge20" class="edge">
<title>Node1&#45;&gt;Node19</title>
<path fill="none" stroke="midnightblue" d="M1296,-258.25C1296,-247.02 1296,-234.38 1296,-226.19"/>
<polygon fill="midnightblue" stroke="midnightblue" points="1292.5,-258.4 1296,-268.4 1299.5,-258.4 1292.5,-258.4"/>
</g>
<!-- Node22 -->
<g id="node22" class="node">
<title>Node22</title>
<g id="a_node22"><a xlink:href="MenuScene_8cpp.html" target="_top" xlink:title=" ">
<polygon fill="none" stroke="black" points="1382.5,-207 1382.5,-226 1521.5,-226 1521.5,-207 1382.5,-207"/>
<text text-anchor="middle" x="1452" y="-214" font-family="Helvetica,sans-Serif" font-size="10.00">src/Scenes/MenuScene.cpp</text>
</a>
</g>
</g>
<!-- Node1&#45;&gt;Node22 -->
<g id="edge23" class="edge">
<title>Node1&#45;&gt;Node22</title>
<path fill="none" stroke="midnightblue" d="M1339.3,-264.46C1369.44,-251.9 1408.26,-235.72 1431.58,-226.01"/>
<polygon fill="midnightblue" stroke="midnightblue" points="1337.73,-261.32 1329.85,-268.4 1340.43,-267.78 1337.73,-261.32"/>
</g>
<!-- Node23 -->
<g id="node23" class="node">
<title>Node23</title>
<g id="a_node23"><a xlink:href="PauseScene_8cpp.html" target="_top" xlink:title=" ">
<polygon fill="none" stroke="black" points="1539.5,-207 1539.5,-226 1682.5,-226 1682.5,-207 1539.5,-207"/>
<text text-anchor="middle" x="1611" y="-214" font-family="Helvetica,sans-Serif" font-size="10.00">src/Scenes/PauseScene.cpp</text>
</a>
</g>
</g>
<!-- Node1&#45;&gt;Node23 -->
<g id="edge24" class="edge">
<title>Node1&#45;&gt;Node23</title>
<path fill="none" stroke="midnightblue" d="M1371.79,-266.86C1433.84,-254.06 1519.3,-236.42 1569.5,-226.06"/>
<polygon fill="midnightblue" stroke="midnightblue" points="1370.74,-263.5 1361.65,-268.95 1372.15,-270.36 1370.74,-263.5"/>
</g>
<!-- Node24 -->
<g id="node24" class="node">
<title>Node24</title>
<g id="a_node24"><a xlink:href="StatsScene_8cpp.html" target="_top" xlink:title=" ">
<polygon fill="none" stroke="black" points="1701,-207 1701,-226 1839,-226 1839,-207 1701,-207"/>
<text text-anchor="middle" x="1770" y="-214" font-family="Helvetica,sans-Serif" font-size="10.00">src/Scenes/StatsScene.cpp</text>
</a>
</g>
</g>
<!-- Node1&#45;&gt;Node24 -->
<g id="edge25" class="edge">
<title>Node1&#45;&gt;Node24</title>
<path fill="none" stroke="midnightblue" d="M1371.44,-274.09C1451.06,-264.93 1580.12,-249.25 1691,-232 1702.3,-230.24 1714.46,-228.12 1725.78,-226.05"/>
<polygon fill="midnightblue" stroke="midnightblue" points="1371.04,-270.61 1361.5,-275.23 1371.84,-277.57 1371.04,-270.61"/>
</g>
<!-- Node25 -->
<g id="node25" class="node">
<title>Node25</title>
<g id="a_node25"><a xlink:href="VictoryScene_8cpp.html" target="_top" xlink:title=" ">
<polygon fill="none" stroke="black" points="1857.5,-207 1857.5,-226 2002.5,-226 2002.5,-207 1857.5,-207"/>
<text text-anchor="middle" x="1930" y="-214" font-family="Helvetica,sans-Serif" font-size="10.00">src/Scenes/VictoryScene.cpp</text>
</a>
</g>
</g>
<!-- Node1&#45;&gt;Node25 -->
<g id="edge26" class="edge">
<title>Node1&#45;&gt;Node25</title>
<path fill="none" stroke="midnightblue" d="M1371.64,-277.6C1478.2,-270.23 1678.44,-254.71 1848,-232 1860.32,-230.35 1873.62,-228.17 1885.85,-226.01"/>
<polygon fill="midnightblue" stroke="midnightblue" points="1371.37,-274.11 1361.63,-278.28 1371.84,-281.09 1371.37,-274.11"/>
</g>
<!-- Node26 -->
<g id="node26" class="node">
<title>Node26</title>
<g id="a_node26"><a xlink:href="Text_8cpp.html" target="_top" xlink:title=" ">
<polygon fill="none" stroke="black" points="2020.5,-201.5 2020.5,-231.5 2121.5,-231.5 2121.5,-201.5 2020.5,-201.5"/>
<text text-anchor="start" x="2028.5" y="-219.5" font-family="Helvetica,sans-Serif" font-size="10.00">libs/spic&#45;engine/src</text>
<text text-anchor="middle" x="2071" y="-208.5" font-family="Helvetica,sans-Serif" font-size="10.00">/Api/Text.cpp</text>
</a>
</g>
</g>
<!-- Node1&#45;&gt;Node26 -->
<g id="edge27" class="edge">
<title>Node1&#45;&gt;Node26</title>
<path fill="none" stroke="midnightblue" d="M1372.3,-281.27C1503.56,-278.24 1780.22,-267.78 2011,-232 2014.07,-231.52 2017.22,-230.97 2020.38,-230.36"/>
<polygon fill="midnightblue" stroke="midnightblue" points="1371.88,-277.78 1361.96,-281.51 1372.04,-284.78 1371.88,-277.78"/>
</g>
<!-- Node27 -->
<g id="node27" class="node">
<title>Node27</title>
<g id="a_node27"><a xlink:href="Window_8hpp.html" target="_top" xlink:title=" ">
<polygon fill="none" stroke="black" points="2284.5,-201.5 2284.5,-231.5 2391.5,-231.5 2391.5,-201.5 2284.5,-201.5"/>
<text text-anchor="start" x="2292.5" y="-219.5" font-family="Helvetica,sans-Serif" font-size="10.00">libs/spic&#45;engine/src</text>
<text text-anchor="middle" x="2338" y="-208.5" font-family="Helvetica,sans-Serif" font-size="10.00">/Models/Window.hpp</text>
</a>
</g>
</g>
<!-- Node1&#45;&gt;Node27 -->
<g id="edge28" class="edge">
<title>Node1&#45;&gt;Node27</title>
<path fill="none" stroke="midnightblue" d="M1371.73,-283.08C1536.72,-283.36 1940.68,-278.73 2275,-232 2278,-231.58 2281.07,-231.09 2284.16,-230.54"/>
<polygon fill="midnightblue" stroke="midnightblue" points="1371.69,-279.58 1361.68,-283.06 1371.67,-286.58 1371.69,-279.58"/>
</g>
<!-- Node37 -->
<g id="node37" class="node">
<title>Node37</title>
<g id="a_node37"><a xlink:href="RenderSubsystem_8cpp.html" target="_top" xlink:title=" ">
<polygon fill="none" stroke="black" points="2661,-67.5 2661,-97.5 2835,-97.5 2835,-67.5 2661,-67.5"/>
<text text-anchor="start" x="2669" y="-85.5" font-family="Helvetica,sans-Serif" font-size="10.00">libs/spic&#45;engine/src</text>
<text text-anchor="middle" x="2748" y="-74.5" font-family="Helvetica,sans-Serif" font-size="10.00">/Subsystems/RenderSubsystem.cpp</text>
</a>
</g>
</g>
<!-- Node1&#45;&gt;Node37 -->
<g id="edge42" class="edge">
<title>Node1&#45;&gt;Node37</title>
<path fill="none" stroke="midnightblue" d="M1371.75,-283.07C1551.14,-283.55 2015.69,-279.63 2400,-232 2548.09,-213.65 2622.01,-269.02 2729,-165 2747.13,-147.38 2749.39,-116.06 2748.98,-97.8"/>
<polygon fill="midnightblue" stroke="midnightblue" points="1371.64,-279.57 1361.63,-283.04 1371.62,-286.57 1371.64,-279.57"/>
</g>
<!-- Node38 -->
<g id="node38" class="node">
<title>Node38</title>
<g id="a_node38"><a xlink:href="Api_8hpp.html" target="_top" xlink:title=" ">
<polygon fill="none" stroke="black" points="2140,-201.5 2140,-231.5 2266,-231.5 2266,-201.5 2140,-201.5"/>
<text text-anchor="start" x="2148" y="-219.5" font-family="Helvetica,sans-Serif" font-size="10.00">libs/spic&#45;engine/includes</text>
<text text-anchor="middle" x="2203" y="-208.5" font-family="Helvetica,sans-Serif" font-size="10.00">/spic&#45;api&#45;headers/Api.hpp</text>
</a>
</g>
</g>
<!-- Node1&#45;&gt;Node38 -->
<g id="edge43" class="edge">
<title>Node1&#45;&gt;Node38</title>
<path fill="none" stroke="midnightblue" d="M1371.96,-281.34C1518.92,-278.34 1852.17,-267.84 2130,-232 2133.2,-231.59 2136.48,-231.12 2139.78,-230.6"/>
<polygon fill="midnightblue" stroke="midnightblue" points="1371.63,-277.85 1361.7,-281.55 1371.77,-284.85 1371.63,-277.85"/>
</g>
<!-- Node3&#45;&gt;Node2 -->
<g id="edge3" class="edge">
<title>Node3&#45;&gt;Node2</title>
<path fill="none" stroke="midnightblue" d="M153.31,-198.29C135.54,-169.69 100.58,-113.41 87.29,-92.02"/>
<polygon fill="midnightblue" stroke="midnightblue" points="150.37,-200.19 158.62,-206.84 156.32,-196.5 150.37,-200.19"/>
</g>
<!-- Node4 -->
<g id="node4" class="node">
<title>Node4</title>
<g id="a_node4"><a xlink:href="LevelController_8hpp.html" target="_top" xlink:title=" ">
<polygon fill="none" stroke="black" points="517,-140 517,-159 683,-159 683,-140 517,-140"/>
<text text-anchor="middle" x="600" y="-147" font-family="Helvetica,sans-Serif" font-size="10.00">src/Controllers/LevelController.hpp</text>
</a>
</g>
</g>
<!-- Node3&#45;&gt;Node4 -->
<g id="edge4" class="edge">
<title>Node3&#45;&gt;Node4</title>
<path fill="none" stroke="midnightblue" d="M227,-205.36C236.38,-203.88 245.94,-202.38 255,-201 354.93,-185.73 471.3,-168.89 540.13,-159.03"/>
<polygon fill="midnightblue" stroke="midnightblue" points="226.24,-201.93 216.91,-206.95 227.34,-208.85 226.24,-201.93"/>
</g>
<!-- Node4&#45;&gt;Node2 -->
<g id="edge5" class="edge">
<title>Node4&#45;&gt;Node2</title>
<path fill="none" stroke="midnightblue" d="M509.55,-138.87C423.03,-129.41 288.93,-114.09 173,-98 160.16,-96.22 146.34,-94.11 133.44,-92.07"/>
<polygon fill="midnightblue" stroke="midnightblue" points="509.28,-142.36 519.6,-139.97 510.04,-135.41 509.28,-142.36"/>
</g>
<!-- Node5 -->
<g id="node5" class="node">
<title>Node5</title>
<g id="a_node5"><a xlink:href="LevelController_8cpp.html" target="_top" xlink:title=" ">
<polygon fill="none" stroke="black" points="1580,-73 1580,-92 1746,-92 1746,-73 1580,-73"/>
<text text-anchor="middle" x="1663" y="-80" font-family="Helvetica,sans-Serif" font-size="10.00">src/Controllers/LevelController.cpp</text>
</a>
</g>
</g>
<!-- Node4&#45;&gt;Node5 -->
<g id="edge6" class="edge">
<title>Node4&#45;&gt;Node5</title>
<path fill="none" stroke="midnightblue" d="M693.55,-142.78C898.63,-130.24 1384.95,-100.5 1579.98,-88.58"/>
<polygon fill="midnightblue" stroke="midnightblue" points="693.18,-139.3 683.41,-143.4 693.61,-146.28 693.18,-139.3"/>
</g>
<!-- Node6 -->
<g id="node6" class="node">
<title>Node6</title>
<g id="a_node6"><a xlink:href="LevelScene_8cpp.html" target="_top" xlink:title=" ">
<polygon fill="none" stroke="black" points="1102.5,-73 1102.5,-92 1241.5,-92 1241.5,-73 1102.5,-73"/>
<text text-anchor="middle" x="1172" y="-80" font-family="Helvetica,sans-Serif" font-size="10.00">src/Scenes/LevelScene.cpp</text>
</a>
</g>
</g>
<!-- Node4&#45;&gt;Node6 -->
<g id="edge7" class="edge">
<title>Node4&#45;&gt;Node6</title>
<path fill="none" stroke="midnightblue" d="M693.12,-141.18C792.45,-132.86 954.25,-117.81 1093,-98 1104.73,-96.32 1117.38,-94.16 1129.05,-92.02"/>
<polygon fill="midnightblue" stroke="midnightblue" points="692.79,-137.7 683.11,-142.01 693.37,-144.67 692.79,-137.7"/>
</g>
<!-- Node7 -->
<g id="node7" class="node">
<title>Node7</title>
<g id="a_node7"><a xlink:href="CheatManager_8cpp.html" target="_top" xlink:title=" ">
<polygon fill="none" stroke="black" points="182,-67.5 182,-97.5 288,-97.5 288,-67.5 182,-67.5"/>
<text text-anchor="start" x="190" y="-85.5" font-family="Helvetica,sans-Serif" font-size="10.00">src/Scripts/Common</text>
<text text-anchor="middle" x="235" y="-74.5" font-family="Helvetica,sans-Serif" font-size="10.00">/CheatManager.cpp</text>
</a>
</g>
</g>
<!-- Node4&#45;&gt;Node7 -->
<g id="edge8" class="edge">
<title>Node4&#45;&gt;Node7</title>
<path fill="none" stroke="midnightblue" d="M532.01,-138.45C470.45,-129.05 377.37,-114.08 297,-98 294.07,-97.41 291.07,-96.79 288.05,-96.14"/>
<polygon fill="midnightblue" stroke="midnightblue" points="531.58,-141.93 541.99,-139.97 532.63,-135.01 531.58,-141.93"/>
</g>
<!-- Node8 -->
<g id="node8" class="node">
<title>Node8</title>
<g id="a_node8"><a xlink:href="HealthBehaviour_8cpp.html" target="_top" xlink:title=" ">
<polygon fill="none" stroke="black" points="306,-67.5 306,-97.5 416,-97.5 416,-67.5 306,-67.5"/>
<text text-anchor="start" x="314" y="-85.5" font-family="Helvetica,sans-Serif" font-size="10.00">src/Scripts/Common</text>
<text text-anchor="middle" x="361" y="-74.5" font-family="Helvetica,sans-Serif" font-size="10.00">/HealthBehaviour.cpp</text>
</a>
</g>
</g>
<!-- Node4&#45;&gt;Node8 -->
<g id="edge9" class="edge">
<title>Node4&#45;&gt;Node8</title>
<path fill="none" stroke="midnightblue" d="M558.44,-137.2C517.93,-126.18 456.21,-109.39 412.58,-97.53"/>
<polygon fill="midnightblue" stroke="midnightblue" points="557.69,-140.62 568.26,-139.87 559.53,-133.87 557.69,-140.62"/>
</g>
<!-- Node9 -->
<g id="node9" class="node">
<title>Node9</title>
<g id="a_node9"><a xlink:href="EnemyMovementBehaviour_8cpp.html" target="_top" xlink:title=" ">
<polygon fill="none" stroke="black" points="434,-67.5 434,-97.5 590,-97.5 590,-67.5 434,-67.5"/>
<text text-anchor="start" x="442" y="-85.5" font-family="Helvetica,sans-Serif" font-size="10.00">src/Scripts/Enemies</text>
<text text-anchor="middle" x="512" y="-74.5" font-family="Helvetica,sans-Serif" font-size="10.00">/EnemyMovementBehaviour.cpp</text>
</a>
</g>
</g>
<!-- Node4&#45;&gt;Node9 -->
<g id="edge10" class="edge">
<title>Node4&#45;&gt;Node9</title>
<path fill="none" stroke="midnightblue" d="M579.75,-133.54C565.11,-122.73 545.44,-108.2 531.07,-97.59"/>
<polygon fill="midnightblue" stroke="midnightblue" points="578.01,-136.61 588.13,-139.73 582.17,-130.98 578.01,-136.61"/>
</g>
<!-- Node10 -->
<g id="node10" class="node">
<title>Node10</title>
<g id="a_node10"><a xlink:href="EnemyTroopTruckBehaviour_8cpp.html" target="_top" xlink:title=" ">
<polygon fill="none" stroke="black" points="608,-67.5 608,-97.5 768,-97.5 768,-67.5 608,-67.5"/>
<text text-anchor="start" x="616" y="-85.5" font-family="Helvetica,sans-Serif" font-size="10.00">src/Scripts/Enemies</text>
<text text-anchor="middle" x="688" y="-74.5" font-family="Helvetica,sans-Serif" font-size="10.00">/EnemyTroopTruckBehaviour.cpp</text>
</a>
</g>
</g>
<!-- Node4&#45;&gt;Node10 -->
<g id="edge11" class="edge">
<title>Node4&#45;&gt;Node10</title>
<path fill="none" stroke="midnightblue" d="M620.25,-133.54C634.89,-122.73 654.56,-108.2 668.93,-97.59"/>
<polygon fill="midnightblue" stroke="midnightblue" points="617.83,-130.98 611.87,-139.73 621.99,-136.61 617.83,-130.98"/>
</g>
<!-- Node11 -->
<g id="node11" class="node">
<title>Node11</title>
<g id="a_node11"><a xlink:href="UserAttackBehaviour_8cpp.html" target="_top" xlink:title=" ">
<polygon fill="none" stroke="black" points="786.5,-67.5 786.5,-97.5 917.5,-97.5 917.5,-67.5 786.5,-67.5"/>
<text text-anchor="start" x="794.5" y="-85.5" font-family="Helvetica,sans-Serif" font-size="10.00">src/Scripts/Heroes</text>
<text text-anchor="middle" x="852" y="-74.5" font-family="Helvetica,sans-Serif" font-size="10.00">/UserAttackBehaviour.cpp</text>
</a>
</g>
</g>
<!-- Node4&#45;&gt;Node11 -->
<g id="edge12" class="edge">
<title>Node4&#45;&gt;Node11</title>
<path fill="none" stroke="midnightblue" d="M643,-137.41C685.67,-126.4 751.2,-109.5 797.49,-97.56"/>
<polygon fill="midnightblue" stroke="midnightblue" points="642.01,-134.05 633.2,-139.94 643.76,-140.83 642.01,-134.05"/>
</g>
<!-- Node12 -->
<g id="node12" class="node">
<title>Node12</title>
<g id="a_node12"><a xlink:href="UserMovementBehaviour_8cpp.html" target="_top" xlink:title=" ">
<polygon fill="none" stroke="black" points="936,-67.5 936,-97.5 1084,-97.5 1084,-67.5 936,-67.5"/>
<text text-anchor="start" x="944" y="-85.5" font-family="Helvetica,sans-Serif" font-size="10.00">src/Scripts/Heroes</text>
<text text-anchor="middle" x="1010" y="-74.5" font-family="Helvetica,sans-Serif" font-size="10.00">/UserMovementBehaviour.cpp</text>
</a>
</g>
</g>
<!-- Node4&#45;&gt;Node12 -->
<g id="edge13" class="edge">
<title>Node4&#45;&gt;Node12</title>
<path fill="none" stroke="midnightblue" d="M667.13,-138.45C733.08,-128.49 836.54,-112.65 926,-98 929.21,-97.47 932.49,-96.93 935.81,-96.38"/>
<polygon fill="midnightblue" stroke="midnightblue" points="666.24,-135.04 656.88,-139.99 667.29,-141.96 666.24,-135.04"/>
</g>
<!-- Node20 -->
<g id="node20" class="node">
<title>Node20</title>
<g id="a_node20"><a xlink:href="MainScene_8cpp.html" target="_top" xlink:title=" ">
<polygon fill="none" stroke="black" points="1152,-140 1152,-159 1288,-159 1288,-140 1152,-140"/>
<text text-anchor="middle" x="1220" y="-147" font-family="Helvetica,sans-Serif" font-size="10.00">src/Scenes/MainScene.cpp</text>
</a>
</g>
</g>
<!-- Node19&#45;&gt;Node20 -->
<g id="edge21" class="edge">
<title>Node19&#45;&gt;Node20</title>
<path fill="none" stroke="midnightblue" d="M1278.13,-200.21C1263.15,-187.41 1242.32,-169.59 1230.09,-159.13"/>
<polygon fill="midnightblue" stroke="midnightblue" points="1275.88,-202.89 1285.75,-206.73 1280.43,-197.57 1275.88,-202.89"/>
</g>
<!-- Node21 -->
<g id="node21" class="node">
<title>Node21</title>
<g id="a_node21"><a xlink:href="SaveSelectionScene_8cpp.html" target="_top" xlink:title=" ">
<polygon fill="none" stroke="black" points="1306,-134.5 1306,-164.5 1438,-164.5 1438,-134.5 1306,-134.5"/>
<text text-anchor="start" x="1314" y="-152.5" font-family="Helvetica,sans-Serif" font-size="10.00">src/Scenes/SaveSelection</text>
<text text-anchor="middle" x="1372" y="-141.5" font-family="Helvetica,sans-Serif" font-size="10.00">Scene.cpp</text>
</a>
</g>
</g>
<!-- Node19&#45;&gt;Node21 -->
<g id="edge22" class="edge">
<title>Node19&#45;&gt;Node21</title>
<path fill="none" stroke="midnightblue" d="M1314.21,-199.93C1326.78,-189.18 1343.35,-175 1355.53,-164.59"/>
<polygon fill="midnightblue" stroke="midnightblue" points="1311.57,-197.57 1306.25,-206.73 1316.12,-202.89 1311.57,-197.57"/>
</g>
<!-- Node28 -->
<g id="node28" class="node">
<title>Node28</title>
<g id="a_node28"><a xlink:href="TimeManager_8hpp.html" target="_top" xlink:title=" ">
<polygon fill="none" stroke="black" points="2172.5,-134.5 2172.5,-164.5 2315.5,-164.5 2315.5,-134.5 2172.5,-134.5"/>
<text text-anchor="start" x="2180.5" y="-152.5" font-family="Helvetica,sans-Serif" font-size="10.00">libs/spic&#45;engine/src</text>
<text text-anchor="middle" x="2244" y="-141.5" font-family="Helvetica,sans-Serif" font-size="10.00">/Managers/TimeManager.hpp</text>
</a>
</g>
</g>
<!-- Node27&#45;&gt;Node28 -->
<g id="edge29" class="edge">
<title>Node27&#45;&gt;Node28</title>
<path fill="none" stroke="midnightblue" d="M2309.01,-195.45C2294.55,-185.45 2277.41,-173.6 2264.36,-164.58"/>
<polygon fill="midnightblue" stroke="midnightblue" points="2307.39,-198.59 2317.6,-201.4 2311.37,-192.83 2307.39,-198.59"/>
</g>
<!-- Node33 -->
<g id="node33" class="node">
<title>Node33</title>
<g id="a_node33"><a xlink:href="Window_8cpp.html" target="_top" xlink:title=" ">
<polygon fill="none" stroke="black" points="2047.5,-134.5 2047.5,-164.5 2154.5,-164.5 2154.5,-134.5 2047.5,-134.5"/>
<text text-anchor="start" x="2055.5" y="-152.5" font-family="Helvetica,sans-Serif" font-size="10.00">libs/spic&#45;engine/src</text>
<text text-anchor="middle" x="2101" y="-141.5" font-family="Helvetica,sans-Serif" font-size="10.00">/Models/Window.cpp</text>
</a>
</g>
</g>
<!-- Node27&#45;&gt;Node33 -->
<g id="edge34" class="edge">
<title>Node27&#45;&gt;Node33</title>
<path fill="none" stroke="midnightblue" d="M2276.8,-198.71C2238.23,-188.14 2189,-174.63 2152.45,-164.61"/>
<polygon fill="midnightblue" stroke="midnightblue" points="2276.3,-202.21 2286.87,-201.48 2278.15,-195.46 2276.3,-202.21"/>
</g>
<!-- Node34 -->
<g id="node34" class="node">
<title>Node34</title>
<g id="a_node34"><a xlink:href="FpsCounterSubsystem_8hpp.html" target="_top" xlink:title=" ">
<polygon fill="none" stroke="black" points="2334,-134.5 2334,-164.5 2528,-164.5 2528,-134.5 2334,-134.5"/>
<text text-anchor="start" x="2342" y="-152.5" font-family="Helvetica,sans-Serif" font-size="10.00">libs/spic&#45;engine/src</text>
<text text-anchor="middle" x="2431" y="-141.5" font-family="Helvetica,sans-Serif" font-size="10.00">/Subsystems/FpsCounterSubsystem.hpp</text>
</a>
</g>
</g>
<!-- Node27&#45;&gt;Node34 -->
<g id="edge35" class="edge">
<title>Node27&#45;&gt;Node34</title>
<path fill="none" stroke="midnightblue" d="M2366.69,-195.45C2380.99,-185.45 2397.95,-173.6 2410.86,-164.58"/>
<polygon fill="midnightblue" stroke="midnightblue" points="2364.37,-192.8 2358.18,-201.4 2368.38,-198.54 2364.37,-192.8"/>
</g>
<!-- Node36 -->
<g id="node36" class="node">
<title>Node36</title>
<g id="a_node36"><a xlink:href="RenderSubsystem_8hpp.html" target="_top" xlink:title=" ">
<polygon fill="none" stroke="black" points="2546,-134.5 2546,-164.5 2720,-164.5 2720,-134.5 2546,-134.5"/>
<text text-anchor="start" x="2554" y="-152.5" font-family="Helvetica,sans-Serif" font-size="10.00">libs/spic&#45;engine/src</text>
<text text-anchor="middle" x="2633" y="-141.5" font-family="Helvetica,sans-Serif" font-size="10.00">/Subsystems/RenderSubsystem.hpp</text>
</a>
</g>
</g>
<!-- Node27&#45;&gt;Node36 -->
<g id="edge39" class="edge">
<title>Node27&#45;&gt;Node36</title>
<path fill="none" stroke="midnightblue" d="M2401.73,-201.46C2451.31,-190.53 2519.78,-175.45 2569.34,-164.53"/>
<polygon fill="midnightblue" stroke="midnightblue" points="2400.78,-198.08 2391.76,-203.65 2402.28,-204.92 2400.78,-198.08"/>
</g>
<!-- Node29 -->
<g id="node29" class="node">
<title>Node29</title>
<g id="a_node29"><a xlink:href="Engine_8cpp.html" target="_top" xlink:title=" ">
<polygon fill="none" stroke="black" points="2360.5,-0.5 2360.5,-30.5 2461.5,-30.5 2461.5,-0.5 2360.5,-0.5"/>
<text text-anchor="start" x="2368.5" y="-18.5" font-family="Helvetica,sans-Serif" font-size="10.00">libs/spic&#45;engine/src</text>
<text text-anchor="middle" x="2411" y="-7.5" font-family="Helvetica,sans-Serif" font-size="10.00">/Api/Engine.cpp</text>
</a>
</g>
</g>
<!-- Node28&#45;&gt;Node29 -->
<g id="edge30" class="edge">
<title>Node28&#45;&gt;Node29</title>
<path fill="none" stroke="midnightblue" d="M2247,-124.46C2250.43,-106.48 2257.69,-82.44 2273,-67 2296.26,-43.53 2331.3,-30.89 2360.25,-24.12"/>
<polygon fill="midnightblue" stroke="midnightblue" points="2243.52,-124.05 2245.36,-134.48 2250.43,-125.18 2243.52,-124.05"/>
</g>
<!-- Node30 -->
<g id="node30" class="node">
<title>Node30</title>
<g id="a_node30"><a xlink:href="src_2Api_2Time_8cpp.html" target="_top" xlink:title=" ">
<polygon fill="none" stroke="black" points="2124.5,-67.5 2124.5,-97.5 2225.5,-97.5 2225.5,-67.5 2124.5,-67.5"/>
<text text-anchor="start" x="2132.5" y="-85.5" font-family="Helvetica,sans-Serif" font-size="10.00">libs/spic&#45;engine/src</text>
<text text-anchor="middle" x="2175" y="-74.5" font-family="Helvetica,sans-Serif" font-size="10.00">/Api/Time.cpp</text>
</a>
</g>
</g>
<!-- Node28&#45;&gt;Node30 -->
<g id="edge31" class="edge">
<title>Node28&#45;&gt;Node30</title>
<path fill="none" stroke="midnightblue" d="M2221.51,-127.31C2211.16,-117.56 2199.16,-106.26 2189.94,-97.58"/>
<polygon fill="midnightblue" stroke="midnightblue" points="2219.35,-130.09 2229.03,-134.4 2224.15,-124.99 2219.35,-130.09"/>
</g>
<!-- Node31 -->
<g id="node31" class="node">
<title>Node31</title>
<g id="a_node31"><a xlink:href="TimeManager_8cpp.html" target="_top" xlink:title=" ">
<polygon fill="none" stroke="black" points="1963.5,-67.5 1963.5,-97.5 2106.5,-97.5 2106.5,-67.5 1963.5,-67.5"/>
<text text-anchor="start" x="1971.5" y="-85.5" font-family="Helvetica,sans-Serif" font-size="10.00">libs/spic&#45;engine/src</text>
<text text-anchor="middle" x="2035" y="-74.5" font-family="Helvetica,sans-Serif" font-size="10.00">/Managers/TimeManager.cpp</text>
</a>
</g>
</g>
<!-- Node28&#45;&gt;Node31 -->
<g id="edge32" class="edge">
<title>Node28&#45;&gt;Node31</title>
<path fill="none" stroke="midnightblue" d="M2189.16,-131.44C2155.28,-120.91 2112.33,-107.55 2080.37,-97.61"/>
<polygon fill="midnightblue" stroke="midnightblue" points="2188.32,-134.85 2198.91,-134.48 2190.4,-128.16 2188.32,-134.85"/>
</g>
<!-- Node32 -->
<g id="node32" class="node">
<title>Node32</title>
<g id="a_node32"><a xlink:href="FpsCounterSubsystem_8cpp.html" target="_top" xlink:title=" ">
<polygon fill="none" stroke="black" points="2282,-67.5 2282,-97.5 2476,-97.5 2476,-67.5 2282,-67.5"/>
<text text-anchor="start" x="2290" y="-85.5" font-family="Helvetica,sans-Serif" font-size="10.00">libs/spic&#45;engine/src</text>
<text text-anchor="middle" x="2379" y="-74.5" font-family="Helvetica,sans-Serif" font-size="10.00">/Subsystems/FpsCounterSubsystem.cpp</text>
</a>
</g>
</g>
<!-- Node28&#45;&gt;Node32 -->
<g id="edge33" class="edge">
<title>Node28&#45;&gt;Node32</title>
<path fill="none" stroke="midnightblue" d="M2282.44,-129.99C2303.84,-119.69 2330.05,-107.07 2349.76,-97.58"/>
<polygon fill="midnightblue" stroke="midnightblue" points="2280.78,-126.9 2273.29,-134.4 2283.82,-133.21 2280.78,-126.9"/>
</g>
<!-- Node34&#45;&gt;Node32 -->
<g id="edge36" class="edge">
<title>Node34&#45;&gt;Node32</title>
<path fill="none" stroke="midnightblue" d="M2413.36,-126.45C2405.72,-116.9 2397,-106 2390.26,-97.58"/>
<polygon fill="midnightblue" stroke="midnightblue" points="2410.74,-128.77 2419.72,-134.4 2416.2,-124.4 2410.74,-128.77"/>
</g>
<!-- Node35 -->
<g id="node35" class="node">
<title>Node35</title>
<g id="a_node35"><a xlink:href="Subsystems_8hpp.html" target="_top" xlink:title=" ">
<polygon fill="none" stroke="black" points="2493.5,-67.5 2493.5,-97.5 2642.5,-97.5 2642.5,-67.5 2493.5,-67.5"/>
<text text-anchor="start" x="2501.5" y="-85.5" font-family="Helvetica,sans-Serif" font-size="10.00">libs/spic&#45;engine/src</text>
<text text-anchor="middle" x="2568" y="-74.5" font-family="Helvetica,sans-Serif" font-size="10.00">/Subsystems/Subsystems.hpp</text>
</a>
</g>
</g>
<!-- Node34&#45;&gt;Node35 -->
<g id="edge37" class="edge">
<title>Node34&#45;&gt;Node35</title>
<path fill="none" stroke="midnightblue" d="M2470.01,-129.99C2491.72,-119.69 2518.33,-107.07 2538.33,-97.58"/>
<polygon fill="midnightblue" stroke="midnightblue" points="2468.26,-126.95 2460.73,-134.4 2471.26,-133.27 2468.26,-126.95"/>
</g>
<!-- Node35&#45;&gt;Node29 -->
<g id="edge38" class="edge">
<title>Node35&#45;&gt;Node29</title>
<path fill="none" stroke="midnightblue" d="M2524.63,-63.54C2499.51,-53.14 2468.34,-40.24 2445,-30.58"/>
<polygon fill="midnightblue" stroke="midnightblue" points="2523.36,-66.8 2533.93,-67.4 2526.03,-60.34 2523.36,-66.8"/>
</g>
<!-- Node36&#45;&gt;Node35 -->
<g id="edge41" class="edge">
<title>Node36&#45;&gt;Node35</title>
<path fill="none" stroke="midnightblue" d="M2611.81,-127.31C2602.06,-117.56 2590.76,-106.26 2582.08,-97.58"/>
<polygon fill="midnightblue" stroke="midnightblue" points="2609.35,-129.8 2618.9,-134.4 2614.3,-124.85 2609.35,-129.8"/>
</g>
<!-- Node36&#45;&gt;Node37 -->
<g id="edge40" class="edge">
<title>Node36&#45;&gt;Node37</title>
<path fill="none" stroke="midnightblue" d="M2666.98,-129.3C2684.97,-119.12 2706.68,-106.85 2723.1,-97.58"/>
<polygon fill="midnightblue" stroke="midnightblue" points="2664.94,-126.43 2657.95,-134.4 2668.38,-132.52 2664.94,-126.43"/>
</g>
<!-- Node38&#45;&gt;Node5 -->
<g id="edge44" class="edge">
<title>Node38&#45;&gt;Node5</title>
<path fill="none" stroke="midnightblue" d="M2129.64,-200.94C2047.43,-184.89 2025.1,-183.62 1948,-165 1852.2,-141.87 1740.25,-107.74 1689.92,-92.01"/>
<polygon fill="midnightblue" stroke="midnightblue" points="2129.2,-204.43 2139.69,-202.92 2130.56,-197.56 2129.2,-204.43"/>
</g>
<!-- Node39 -->
<g id="node39" class="node">
<title>Node39</title>
<g id="a_node39"><a xlink:href="main_8cpp.html" target="_top" xlink:title=" ">
<polygon fill="none" stroke="black" points="1957,-140 1957,-159 2029,-159 2029,-140 1957,-140"/>
<text text-anchor="middle" x="1993" y="-147" font-family="Helvetica,sans-Serif" font-size="10.00">src/main.cpp</text>
</a>
</g>
</g>
<!-- Node38&#45;&gt;Node39 -->
<g id="edge45" class="edge">
<title>Node38&#45;&gt;Node39</title>
<path fill="none" stroke="midnightblue" d="M2146.75,-198.51C2114.82,-188.81 2074.13,-176.35 2038,-165 2032.05,-163.13 2025.66,-161.09 2019.63,-159.15"/>
<polygon fill="midnightblue" stroke="midnightblue" points="2145.77,-201.87 2156.36,-201.42 2147.81,-195.17 2145.77,-201.87"/>
</g>
</g>
</svg>
