<?xml version="1.0" encoding="UTF-8" standalone="no"?>
<!DOCTYPE svg PUBLIC "-//W3C//DTD SVG 1.1//EN"
 "http://www.w3.org/Graphics/SVG/1.1/DTD/svg11.dtd">
<!-- Generated by graphviz version 2.44.0 ()
 -->
<!-- Title: src/Structs/Tile.hpp Pages: 1 -->
<svg width="1511pt" height="285pt"
 viewBox="0.00 0.00 1510.50 285.00" xmlns="http://www.w3.org/2000/svg" xmlns:xlink="http://www.w3.org/1999/xlink">
<g id="graph0" class="graph" transform="scale(1 1) rotate(0) translate(4 281)">
<title>src/Structs/Tile.hpp</title>
<!-- Node1 -->
<g id="node1" class="node">
<title>Node1</title>
<g id="a_node1"><a xlink:title=" ">
<polygon fill="#bfbfbf" stroke="black" points="184,-257.5 184,-276.5 285,-276.5 285,-257.5 184,-257.5"/>
<text text-anchor="middle" x="234.5" y="-264.5" font-family="Helvetica,sans-Serif" font-size="10.00">src/Structs/Tile.hpp</text>
</a>
</g>
</g>
<!-- Node2 -->
<g id="node2" class="node">
<title>Node2</title>
<g id="a_node2"><a xlink:href="LevelSelectionController_8hpp.html" target="_top" xlink:title=" ">
<polygon fill="none" stroke="black" points="58,-134.5 58,-164.5 205,-164.5 205,-134.5 58,-134.5"/>
<text text-anchor="start" x="66" y="-152.5" font-family="Helvetica,sans-Serif" font-size="10.00">src/Controllers/LevelSelection</text>
<text text-anchor="middle" x="131.5" y="-141.5" font-family="Helvetica,sans-Serif" font-size="10.00">Controller.hpp</text>
</a>
</g>
</g>
<!-- Node1&#45;&gt;Node2 -->
<g id="edge1" class="edge">
<title>Node1&#45;&gt;Node2</title>
<path fill="none" stroke="midnightblue" d="M196.69,-253.55C180.33,-246.41 162.28,-235.84 150.5,-221 137.49,-204.62 133.36,-180.07 132.07,-164.68"/>
<polygon fill="midnightblue" stroke="midnightblue" points="195.48,-256.84 206.06,-257.38 198.12,-250.36 195.48,-256.84"/>
</g>
<!-- Node7 -->
<g id="node7" class="node">
<title>Node7</title>
<g id="a_node7"><a xlink:href="LevelWithTiles_8hpp.html" target="_top" xlink:title=" ">
<polygon fill="none" stroke="black" points="159.5,-201.5 159.5,-220.5 309.5,-220.5 309.5,-201.5 159.5,-201.5"/>
<text text-anchor="middle" x="234.5" y="-208.5" font-family="Helvetica,sans-Serif" font-size="10.00">src/Structs/LevelWithTiles.hpp</text>
</a>
</g>
</g>
<!-- Node1&#45;&gt;Node7 -->
<g id="edge6" class="edge">
<title>Node1&#45;&gt;Node7</title>
<path fill="none" stroke="midnightblue" d="M234.5,-246.8C234.5,-237.91 234.5,-227.78 234.5,-220.75"/>
<polygon fill="midnightblue" stroke="midnightblue" points="231,-247.08 234.5,-257.08 238,-247.08 231,-247.08"/>
</g>
<!-- Node17 -->
<g id="node17" class="node">
<title>Node17</title>
<g id="a_node17"><a xlink:href="Tile_8cpp.html" target="_top" xlink:title=" ">
<polygon fill="none" stroke="black" points="328,-201.5 328,-220.5 429,-220.5 429,-201.5 328,-201.5"/>
<text text-anchor="middle" x="378.5" y="-208.5" font-family="Helvetica,sans-Serif" font-size="10.00">src/Structs/Tile.cpp</text>
</a>
</g>
</g>
<!-- Node1&#45;&gt;Node17 -->
<g id="edge20" class="edge">
<title>Node1&#45;&gt;Node17</title>
<path fill="none" stroke="midnightblue" d="M266.75,-253.91C293.82,-243.75 331.82,-229.51 355.79,-220.52"/>
<polygon fill="midnightblue" stroke="midnightblue" points="265.45,-250.66 257.32,-257.44 267.91,-257.21 265.45,-250.66"/>
</g>
<!-- Node3 -->
<g id="node3" class="node">
<title>Node3</title>
<g id="a_node3"><a xlink:href="LevelSelectionController_8cpp.html" target="_top" xlink:title=" ">
<polygon fill="none" stroke="black" points="157,-67.5 157,-97.5 304,-97.5 304,-67.5 157,-67.5"/>
<text text-anchor="start" x="165" y="-85.5" font-family="Helvetica,sans-Serif" font-size="10.00">src/Controllers/LevelSelection</text>
<text text-anchor="middle" x="230.5" y="-74.5" font-family="Helvetica,sans-Serif" font-size="10.00">Controller.cpp</text>
</a>
</g>
</g>
<!-- Node2&#45;&gt;Node3 -->
<g id="edge2" class="edge">
<title>Node2&#45;&gt;Node3</title>
<path fill="none" stroke="midnightblue" d="M161.61,-128.73C176.92,-118.68 195.19,-106.68 209.06,-97.58"/>
<polygon fill="midnightblue" stroke="midnightblue" points="159.42,-125.98 152.98,-134.4 163.26,-131.83 159.42,-125.98"/>
</g>
<!-- Node4 -->
<g id="node4" class="node">
<title>Node4</title>
<g id="a_node4"><a xlink:href="LevelScene_8hpp.html" target="_top" xlink:title=" ">
<polygon fill="none" stroke="black" points="0,-73 0,-92 139,-92 139,-73 0,-73"/>
<text text-anchor="middle" x="69.5" y="-80" font-family="Helvetica,sans-Serif" font-size="10.00">src/Scenes/LevelScene.hpp</text>
</a>
</g>
</g>
<!-- Node2&#45;&gt;Node4 -->
<g id="edge3" class="edge">
<title>Node2&#45;&gt;Node4</title>
<path fill="none" stroke="midnightblue" d="M110.99,-127C99.67,-115.13 86.24,-101.05 77.79,-92.19"/>
<polygon fill="midnightblue" stroke="midnightblue" points="108.61,-129.58 118.05,-134.4 113.68,-124.74 108.61,-129.58"/>
</g>
<!-- Node5 -->
<g id="node5" class="node">
<title>Node5</title>
<g id="a_node5"><a xlink:href="LevelScene_8cpp.html" target="_top" xlink:title=" ">
<polygon fill="none" stroke="black" points="301,-6 301,-25 440,-25 440,-6 301,-6"/>
<text text-anchor="middle" x="370.5" y="-13" font-family="Helvetica,sans-Serif" font-size="10.00">src/Scenes/LevelScene.cpp</text>
</a>
</g>
</g>
<!-- Node4&#45;&gt;Node5 -->
<g id="edge4" class="edge">
<title>Node4&#45;&gt;Node5</title>
<path fill="none" stroke="midnightblue" d="M119.04,-70.8C178.27,-58.01 276.23,-36.86 330.75,-25.08"/>
<polygon fill="midnightblue" stroke="midnightblue" points="118.2,-67.4 109.16,-72.94 119.67,-74.25 118.2,-67.4"/>
</g>
<!-- Node6 -->
<g id="node6" class="node">
<title>Node6</title>
<g id="a_node6"><a xlink:href="LevelSelectionScene_8cpp.html" target="_top" xlink:title=" ">
<polygon fill="none" stroke="black" points="2.5,-0.5 2.5,-30.5 136.5,-30.5 136.5,-0.5 2.5,-0.5"/>
<text text-anchor="start" x="10.5" y="-18.5" font-family="Helvetica,sans-Serif" font-size="10.00">src/Scenes/LevelSelection</text>
<text text-anchor="middle" x="69.5" y="-7.5" font-family="Helvetica,sans-Serif" font-size="10.00">Scene.cpp</text>
</a>
</g>
</g>
<!-- Node4&#45;&gt;Node6 -->
<g id="edge5" class="edge">
<title>Node4&#45;&gt;Node6</title>
<path fill="none" stroke="midnightblue" d="M69.5,-62.41C69.5,-52.22 69.5,-39.9 69.5,-30.59"/>
<polygon fill="midnightblue" stroke="midnightblue" points="66,-62.73 69.5,-72.73 73,-62.73 66,-62.73"/>
</g>
<!-- Node7&#45;&gt;Node2 -->
<g id="edge15" class="edge">
<title>Node7&#45;&gt;Node2</title>
<path fill="none" stroke="midnightblue" d="M210.74,-196.28C194.26,-186.75 172.37,-174.11 155.78,-164.52"/>
<polygon fill="midnightblue" stroke="midnightblue" points="209.33,-199.5 219.74,-201.48 212.83,-193.44 209.33,-199.5"/>
</g>
<!-- Node7&#45;&gt;Node4 -->
<g id="edge19" class="edge">
<title>Node7&#45;&gt;Node4</title>
<path fill="none" stroke="midnightblue" d="M234.02,-190.88C232.59,-173.9 227.93,-149.44 213.5,-134 198.58,-118.03 143.07,-101.67 105.49,-92.05"/>
<polygon fill="midnightblue" stroke="midnightblue" points="230.55,-191.44 234.57,-201.24 237.54,-191.07 230.55,-191.44"/>
</g>
<!-- Node8 -->
<g id="node8" class="node">
<title>Node8</title>
<g id="a_node8"><a xlink:href="LevelController_8hpp.html" target="_top" xlink:title=" ">
<polygon fill="none" stroke="black" points="772.5,-140 772.5,-159 938.5,-159 938.5,-140 772.5,-140"/>
<text text-anchor="middle" x="855.5" y="-147" font-family="Helvetica,sans-Serif" font-size="10.00">src/Controllers/LevelController.hpp</text>
</a>
</g>
</g>
<!-- Node7&#45;&gt;Node8 -->
<g id="edge7" class="edge">
<title>Node7&#45;&gt;Node8</title>
<path fill="none" stroke="midnightblue" d="M320.04,-200.86C486.65,-184.15 668.79,-167.38 772.21,-157.99"/>
<polygon fill="midnightblue" stroke="midnightblue" points="319.2,-197.42 309.6,-201.9 319.9,-204.39 319.2,-197.42"/>
</g>
<!-- Node15 -->
<g id="node15" class="node">
<title>Node15</title>
<g id="a_node15"><a xlink:href="LevelManager_8hpp.html" target="_top" xlink:title=" ">
<polygon fill="none" stroke="black" points="261,-140 261,-159 428,-159 428,-140 261,-140"/>
<text text-anchor="middle" x="344.5" y="-147" font-family="Helvetica,sans-Serif" font-size="10.00">src/Persistence/LevelManager.hpp</text>
</a>
</g>
</g>
<!-- Node7&#45;&gt;Node15 -->
<g id="edge16" class="edge">
<title>Node7&#45;&gt;Node15</title>
<path fill="none" stroke="midnightblue" d="M259.07,-196.71C280.37,-185.19 310.57,-168.86 328.77,-159.01"/>
<polygon fill="midnightblue" stroke="midnightblue" points="257.39,-193.64 250.26,-201.48 260.72,-199.8 257.39,-193.64"/>
</g>
<!-- Node8&#45;&gt;Node5 -->
<g id="edge9" class="edge">
<title>Node8&#45;&gt;Node5</title>
<path fill="none" stroke="midnightblue" d="M761.89,-146.56C696.06,-142.19 607.27,-130.08 535.5,-98 515.6,-89.1 516.29,-78.04 497.5,-67 465.59,-48.24 425.41,-33.59 398.89,-25.01"/>
<polygon fill="midnightblue" stroke="midnightblue" points="762.06,-150.08 772.25,-147.2 762.49,-143.09 762.06,-150.08"/>
</g>
<!-- Node9 -->
<g id="node9" class="node">
<title>Node9</title>
<g id="a_node9"><a xlink:href="LevelController_8cpp.html" target="_top" xlink:title=" ">
<polygon fill="none" stroke="black" points="544.5,-73 544.5,-92 710.5,-92 710.5,-73 544.5,-73"/>
<text text-anchor="middle" x="627.5" y="-80" font-family="Helvetica,sans-Serif" font-size="10.00">src/Controllers/LevelController.cpp</text>
</a>
</g>
</g>
<!-- Node8&#45;&gt;Node9 -->
<g id="edge8" class="edge">
<title>Node8&#45;&gt;Node9</title>
<path fill="none" stroke="midnightblue" d="M815.48,-137.09C770.38,-124.23 698.07,-103.62 657.54,-92.06"/>
<polygon fill="midnightblue" stroke="midnightblue" points="814.65,-140.49 825.22,-139.87 816.57,-133.76 814.65,-140.49"/>
</g>
<!-- Node10 -->
<g id="node10" class="node">
<title>Node10</title>
<g id="a_node10"><a xlink:href="CheatManager_8cpp.html" target="_top" xlink:title=" ">
<polygon fill="none" stroke="black" points="728.5,-67.5 728.5,-97.5 834.5,-97.5 834.5,-67.5 728.5,-67.5"/>
<text text-anchor="start" x="736.5" y="-85.5" font-family="Helvetica,sans-Serif" font-size="10.00">src/Scripts/Common</text>
<text text-anchor="middle" x="781.5" y="-74.5" font-family="Helvetica,sans-Serif" font-size="10.00">/CheatManager.cpp</text>
</a>
</g>
</g>
<!-- Node8&#45;&gt;Node10 -->
<g id="edge10" class="edge">
<title>Node8&#45;&gt;Node10</title>
<path fill="none" stroke="midnightblue" d="M837.77,-132.93C825.53,-122.18 809.4,-108 797.54,-97.59"/>
<polygon fill="midnightblue" stroke="midnightblue" points="835.7,-135.76 845.52,-139.73 840.32,-130.5 835.7,-135.76"/>
</g>
<!-- Node11 -->
<g id="node11" class="node">
<title>Node11</title>
<g id="a_node11"><a xlink:href="EnemyMovementBehaviour_8cpp.html" target="_top" xlink:title=" ">
<polygon fill="none" stroke="black" points="852.5,-67.5 852.5,-97.5 1008.5,-97.5 1008.5,-67.5 852.5,-67.5"/>
<text text-anchor="start" x="860.5" y="-85.5" font-family="Helvetica,sans-Serif" font-size="10.00">src/Scripts/Enemies</text>
<text text-anchor="middle" x="930.5" y="-74.5" font-family="Helvetica,sans-Serif" font-size="10.00">/EnemyMovementBehaviour.cpp</text>
</a>
</g>
</g>
<!-- Node8&#45;&gt;Node11 -->
<g id="edge11" class="edge">
<title>Node8&#45;&gt;Node11</title>
<path fill="none" stroke="midnightblue" d="M873.47,-132.93C885.87,-122.18 902.23,-108 914.24,-97.59"/>
<polygon fill="midnightblue" stroke="midnightblue" points="870.88,-130.54 865.61,-139.73 875.46,-135.83 870.88,-130.54"/>
</g>
<!-- Node12 -->
<g id="node12" class="node">
<title>Node12</title>
<g id="a_node12"><a xlink:href="EnemyTroopTruckBehaviour_8cpp.html" target="_top" xlink:title=" ">
<polygon fill="none" stroke="black" points="1026.5,-67.5 1026.5,-97.5 1186.5,-97.5 1186.5,-67.5 1026.5,-67.5"/>
<text text-anchor="start" x="1034.5" y="-85.5" font-family="Helvetica,sans-Serif" font-size="10.00">src/Scripts/Enemies</text>
<text text-anchor="middle" x="1106.5" y="-74.5" font-family="Helvetica,sans-Serif" font-size="10.00">/EnemyTroopTruckBehaviour.cpp</text>
</a>
</g>
</g>
<!-- Node8&#45;&gt;Node12 -->
<g id="edge12" class="edge">
<title>Node8&#45;&gt;Node12</title>
<path fill="none" stroke="midnightblue" d="M898.33,-137.41C940.83,-126.4 1006.1,-109.5 1052.21,-97.56"/>
<polygon fill="midnightblue" stroke="midnightblue" points="897.38,-134.04 888.57,-139.94 899.13,-140.82 897.38,-134.04"/>
</g>
<!-- Node13 -->
<g id="node13" class="node">
<title>Node13</title>
<g id="a_node13"><a xlink:href="UserAttackBehaviour_8cpp.html" target="_top" xlink:title=" ">
<polygon fill="none" stroke="black" points="1205,-67.5 1205,-97.5 1336,-97.5 1336,-67.5 1205,-67.5"/>
<text text-anchor="start" x="1213" y="-85.5" font-family="Helvetica,sans-Serif" font-size="10.00">src/Scripts/Heroes</text>
<text text-anchor="middle" x="1270.5" y="-74.5" font-family="Helvetica,sans-Serif" font-size="10.00">/UserAttackBehaviour.cpp</text>
</a>
</g>
</g>
<!-- Node8&#45;&gt;Node13 -->
<g id="edge13" class="edge">
<title>Node8&#45;&gt;Node13</title>
<path fill="none" stroke="midnightblue" d="M928.93,-138.53C997.89,-128.95 1103.88,-113.65 1195.5,-98 1198.51,-97.49 1201.58,-96.95 1204.68,-96.39"/>
<polygon fill="midnightblue" stroke="midnightblue" points="928.03,-135.12 918.61,-139.96 928.99,-142.06 928.03,-135.12"/>
</g>
<!-- Node14 -->
<g id="node14" class="node">
<title>Node14</title>
<g id="a_node14"><a xlink:href="UserMovementBehaviour_8cpp.html" target="_top" xlink:title=" ">
<polygon fill="none" stroke="black" points="1354.5,-67.5 1354.5,-97.5 1502.5,-97.5 1502.5,-67.5 1354.5,-67.5"/>
<text text-anchor="start" x="1362.5" y="-85.5" font-family="Helvetica,sans-Serif" font-size="10.00">src/Scripts/Heroes</text>
<text text-anchor="middle" x="1428.5" y="-74.5" font-family="Helvetica,sans-Serif" font-size="10.00">/UserMovementBehaviour.cpp</text>
</a>
</g>
</g>
<!-- Node8&#45;&gt;Node14 -->
<g id="edge14" class="edge">
<title>Node8&#45;&gt;Node14</title>
<path fill="none" stroke="midnightblue" d="M948.76,-140.85C1047.52,-132.29 1207.85,-117.09 1345.5,-98 1348.4,-97.6 1351.35,-97.17 1354.33,-96.72"/>
<polygon fill="midnightblue" stroke="midnightblue" points="948.17,-137.39 938.51,-141.74 948.77,-144.36 948.17,-137.39"/>
</g>
<!-- Node15&#45;&gt;Node3 -->
<g id="edge17" class="edge">
<title>Node15&#45;&gt;Node3</title>
<path fill="none" stroke="midnightblue" d="M320.39,-134.75C301.23,-123.83 274.53,-108.6 255.21,-97.59"/>
<polygon fill="midnightblue" stroke="midnightblue" points="318.7,-137.82 329.13,-139.73 322.17,-131.74 318.7,-137.82"/>
</g>
<!-- Node16 -->
<g id="node16" class="node">
<title>Node16</title>
<g id="a_node16"><a xlink:href="LevelManager_8cpp.html" target="_top" xlink:title=" ">
<polygon fill="none" stroke="black" points="322,-73 322,-92 489,-92 489,-73 322,-73"/>
<text text-anchor="middle" x="405.5" y="-80" font-family="Helvetica,sans-Serif" font-size="10.00">src/Persistence/LevelManager.cpp</text>
</a>
</g>
</g>
<!-- Node15&#45;&gt;Node16 -->
<g id="edge18" class="edge">
<title>Node15&#45;&gt;Node16</title>
<path fill="none" stroke="midnightblue" d="M359.86,-132.13C371.79,-119.42 387.86,-102.3 397.4,-92.13"/>
<polygon fill="midnightblue" stroke="midnightblue" points="357.02,-130.05 352.73,-139.73 362.12,-134.84 357.02,-130.05"/>
</g>
</g>
</svg>
