<?xml version="1.0" encoding="UTF-8" standalone="no"?>
<!DOCTYPE svg PUBLIC "-//W3C//DTD SVG 1.1//EN"
 "http://www.w3.org/Graphics/SVG/1.1/DTD/svg11.dtd">
<!-- Generated by graphviz version 2.44.0 ()
 -->
<!-- Title: src/Enums/TileType.hpp Pages: 1 -->
<svg width="1839pt" height="408pt"
 viewBox="0.00 0.00 1839.00 408.00" xmlns="http://www.w3.org/2000/svg" xmlns:xlink="http://www.w3.org/1999/xlink">
<g id="graph0" class="graph" transform="scale(1 1) rotate(0) translate(4 404)">
<title>src/Enums/TileType.hpp</title>
<!-- Node1 -->
<g id="node1" class="node">
<title>Node1</title>
<g id="a_node1"><a xlink:title=" ">
<polygon fill="#bfbfbf" stroke="black" points="590,-380.5 590,-399.5 711,-399.5 711,-380.5 590,-380.5"/>
<text text-anchor="middle" x="650.5" y="-387.5" font-family="Helvetica,sans-Serif" font-size="10.00">src/Enums/TileType.hpp</text>
</a>
</g>
</g>
<!-- Node2 -->
<g id="node2" class="node">
<title>Node2</title>
<g id="a_node2"><a xlink:href="Level_8hpp.html" target="_top" xlink:title=" ">
<polygon fill="none" stroke="black" points="459.5,-268.5 459.5,-287.5 569.5,-287.5 569.5,-268.5 459.5,-268.5"/>
<text text-anchor="middle" x="514.5" y="-275.5" font-family="Helvetica,sans-Serif" font-size="10.00">src/Structs/Level.hpp</text>
</a>
</g>
</g>
<!-- Node1&#45;&gt;Node2 -->
<g id="edge1" class="edge">
<title>Node1&#45;&gt;Node2</title>
<path fill="none" stroke="midnightblue" d="M638.1,-371.92C627.36,-357.92 610.86,-338.17 593.5,-324 574.79,-308.73 550.22,-295.64 533.49,-287.58"/>
<polygon fill="midnightblue" stroke="midnightblue" points="635.48,-374.26 644.27,-380.17 641.08,-370.07 635.48,-374.26"/>
</g>
<!-- Node17 -->
<g id="node17" class="node">
<title>Node17</title>
<g id="a_node17"><a xlink:href="MapNode_8hpp.html" target="_top" xlink:title=" ">
<polygon fill="none" stroke="black" points="791.5,-324.5 791.5,-343.5 919.5,-343.5 919.5,-324.5 791.5,-324.5"/>
<text text-anchor="middle" x="855.5" y="-331.5" font-family="Helvetica,sans-Serif" font-size="10.00">src/Structs/MapNode.hpp</text>
</a>
</g>
</g>
<!-- Node1&#45;&gt;Node17 -->
<g id="edge21" class="edge">
<title>Node1&#45;&gt;Node17</title>
<path fill="none" stroke="midnightblue" d="M692.91,-377.83C731.61,-367.63 787.99,-352.78 823.17,-343.52"/>
<polygon fill="midnightblue" stroke="midnightblue" points="691.76,-374.51 682.98,-380.44 693.54,-381.28 691.76,-374.51"/>
</g>
<!-- Node27 -->
<g id="node27" class="node">
<title>Node27</title>
<g id="a_node27"><a xlink:href="Tile_8hpp.html" target="_top" xlink:title=" ">
<polygon fill="none" stroke="black" points="594,-268.5 594,-287.5 695,-287.5 695,-268.5 594,-268.5"/>
<text text-anchor="middle" x="644.5" y="-275.5" font-family="Helvetica,sans-Serif" font-size="10.00">src/Structs/Tile.hpp</text>
</a>
</g>
</g>
<!-- Node1&#45;&gt;Node27 -->
<g id="edge38" class="edge">
<title>Node1&#45;&gt;Node27</title>
<path fill="none" stroke="midnightblue" d="M649.48,-370.35C648.17,-346.25 645.93,-305.31 644.97,-287.59"/>
<polygon fill="midnightblue" stroke="midnightblue" points="645.99,-370.57 650.03,-380.37 652.98,-370.19 645.99,-370.57"/>
</g>
<!-- Node29 -->
<g id="node29" class="node">
<title>Node29</title>
<g id="a_node29"><a xlink:href="TilesAmount_8hpp.html" target="_top" xlink:title=" ">
<polygon fill="none" stroke="black" points="444.5,-324.5 444.5,-343.5 584.5,-343.5 584.5,-324.5 444.5,-324.5"/>
<text text-anchor="middle" x="514.5" y="-331.5" font-family="Helvetica,sans-Serif" font-size="10.00">src/Structs/TilesAmount.hpp</text>
</a>
</g>
</g>
<!-- Node1&#45;&gt;Node29 -->
<g id="edge42" class="edge">
<title>Node1&#45;&gt;Node29</title>
<path fill="none" stroke="midnightblue" d="M619.37,-376.64C593.84,-366.5 558.39,-352.43 535.95,-343.52"/>
<polygon fill="midnightblue" stroke="midnightblue" points="618.36,-380.01 628.95,-380.44 620.95,-373.5 618.36,-380.01"/>
</g>
<!-- Node30 -->
<g id="node30" class="node">
<title>Node30</title>
<g id="a_node30"><a xlink:href="TileUtil_8hpp.html" target="_top" xlink:title=" ">
<polygon fill="none" stroke="black" points="1645,-324.5 1645,-343.5 1750,-343.5 1750,-324.5 1645,-324.5"/>
<text text-anchor="middle" x="1697.5" y="-331.5" font-family="Helvetica,sans-Serif" font-size="10.00">src/Utils/TileUtil.hpp</text>
</a>
</g>
</g>
<!-- Node1&#45;&gt;Node30 -->
<g id="edge44" class="edge">
<title>Node1&#45;&gt;Node30</title>
<path fill="none" stroke="midnightblue" d="M721.57,-385.33C919.09,-375.15 1471.44,-346.66 1644.77,-337.72"/>
<polygon fill="midnightblue" stroke="midnightblue" points="721.12,-381.85 711.32,-385.86 721.48,-388.84 721.12,-381.85"/>
</g>
<!-- Node3 -->
<g id="node3" class="node">
<title>Node3</title>
<g id="a_node3"><a xlink:href="LevelSelectionController_8hpp.html" target="_top" xlink:title=" ">
<polygon fill="none" stroke="black" points="353,-134.5 353,-164.5 500,-164.5 500,-134.5 353,-134.5"/>
<text text-anchor="start" x="361" y="-152.5" font-family="Helvetica,sans-Serif" font-size="10.00">src/Controllers/LevelSelection</text>
<text text-anchor="middle" x="426.5" y="-141.5" font-family="Helvetica,sans-Serif" font-size="10.00">Controller.hpp</text>
</a>
</g>
</g>
<!-- Node2&#45;&gt;Node3 -->
<g id="edge2" class="edge">
<title>Node2&#45;&gt;Node3</title>
<path fill="none" stroke="midnightblue" d="M483.54,-263.87C469.61,-256.46 454.16,-245.87 444.5,-232 430.34,-211.67 427.06,-182.13 426.45,-164.76"/>
<polygon fill="midnightblue" stroke="midnightblue" points="482.34,-267.19 492.86,-268.5 485.46,-260.92 482.34,-267.19"/>
</g>
<!-- Node8 -->
<g id="node8" class="node">
<title>Node8</title>
<g id="a_node8"><a xlink:href="LevelManager_8hpp.html" target="_top" xlink:title=" ">
<polygon fill="none" stroke="black" points="168,-140 168,-159 335,-159 335,-140 168,-140"/>
<text text-anchor="middle" x="251.5" y="-147" font-family="Helvetica,sans-Serif" font-size="10.00">src/Persistence/LevelManager.hpp</text>
</a>
</g>
</g>
<!-- Node2&#45;&gt;Node8 -->
<g id="edge7" class="edge">
<title>Node2&#45;&gt;Node8</title>
<path fill="none" stroke="midnightblue" d="M487.14,-263.84C433.19,-237.89 314.46,-180.78 269.36,-159.09"/>
<polygon fill="midnightblue" stroke="midnightblue" points="485.89,-267.12 496.42,-268.31 488.93,-260.82 485.89,-267.12"/>
</g>
<!-- Node10 -->
<g id="node10" class="node">
<title>Node10</title>
<g id="a_node10"><a xlink:href="LevelWithTiles_8hpp.html" target="_top" xlink:title=" ">
<polygon fill="none" stroke="black" points="453.5,-207 453.5,-226 603.5,-226 603.5,-207 453.5,-207"/>
<text text-anchor="middle" x="528.5" y="-214" font-family="Helvetica,sans-Serif" font-size="10.00">src/Structs/LevelWithTiles.hpp</text>
</a>
</g>
</g>
<!-- Node2&#45;&gt;Node10 -->
<g id="edge10" class="edge">
<title>Node2&#45;&gt;Node10</title>
<path fill="none" stroke="midnightblue" d="M518.82,-258.66C521.38,-247.77 524.5,-234.49 526.5,-226.01"/>
<polygon fill="midnightblue" stroke="midnightblue" points="515.39,-257.94 516.51,-268.48 522.2,-259.54 515.39,-257.94"/>
</g>
<!-- Node4 -->
<g id="node4" class="node">
<title>Node4</title>
<g id="a_node4"><a xlink:href="LevelSelectionController_8cpp.html" target="_top" xlink:title=" ">
<polygon fill="none" stroke="black" points="185,-67.5 185,-97.5 332,-97.5 332,-67.5 185,-67.5"/>
<text text-anchor="start" x="193" y="-85.5" font-family="Helvetica,sans-Serif" font-size="10.00">src/Controllers/LevelSelection</text>
<text text-anchor="middle" x="258.5" y="-74.5" font-family="Helvetica,sans-Serif" font-size="10.00">Controller.cpp</text>
</a>
</g>
</g>
<!-- Node3&#45;&gt;Node4 -->
<g id="edge3" class="edge">
<title>Node3&#45;&gt;Node4</title>
<path fill="none" stroke="midnightblue" d="M380.45,-130.68C353.5,-120.26 319.96,-107.28 294.88,-97.58"/>
<polygon fill="midnightblue" stroke="midnightblue" points="379.46,-134.05 390.05,-134.4 381.98,-127.52 379.46,-134.05"/>
</g>
<!-- Node5 -->
<g id="node5" class="node">
<title>Node5</title>
<g id="a_node5"><a xlink:href="LevelScene_8hpp.html" target="_top" xlink:title=" ">
<polygon fill="none" stroke="black" points="350,-73 350,-92 489,-92 489,-73 350,-73"/>
<text text-anchor="middle" x="419.5" y="-80" font-family="Helvetica,sans-Serif" font-size="10.00">src/Scenes/LevelScene.hpp</text>
</a>
</g>
</g>
<!-- Node3&#45;&gt;Node5 -->
<g id="edge4" class="edge">
<title>Node3&#45;&gt;Node5</title>
<path fill="none" stroke="midnightblue" d="M423.89,-124.25C422.68,-113.02 421.32,-100.38 420.44,-92.19"/>
<polygon fill="midnightblue" stroke="midnightblue" points="420.43,-124.83 424.98,-134.4 427.39,-124.08 420.43,-124.83"/>
</g>
<!-- Node6 -->
<g id="node6" class="node">
<title>Node6</title>
<g id="a_node6"><a xlink:href="LevelScene_8cpp.html" target="_top" xlink:title=" ">
<polygon fill="none" stroke="black" points="819,-6 819,-25 958,-25 958,-6 819,-6"/>
<text text-anchor="middle" x="888.5" y="-13" font-family="Helvetica,sans-Serif" font-size="10.00">src/Scenes/LevelScene.cpp</text>
</a>
</g>
</g>
<!-- Node5&#45;&gt;Node6 -->
<g id="edge5" class="edge">
<title>Node5&#45;&gt;Node6</title>
<path fill="none" stroke="midnightblue" d="M473.71,-71.16C482,-69.69 490.47,-68.26 498.5,-67 610.3,-49.51 740.82,-33.5 818.95,-24.38"/>
<polygon fill="midnightblue" stroke="midnightblue" points="472.94,-67.74 463.72,-72.96 474.18,-74.63 472.94,-67.74"/>
</g>
<!-- Node7 -->
<g id="node7" class="node">
<title>Node7</title>
<g id="a_node7"><a xlink:href="LevelSelectionScene_8cpp.html" target="_top" xlink:title=" ">
<polygon fill="none" stroke="black" points="352.5,-0.5 352.5,-30.5 486.5,-30.5 486.5,-0.5 352.5,-0.5"/>
<text text-anchor="start" x="360.5" y="-18.5" font-family="Helvetica,sans-Serif" font-size="10.00">src/Scenes/LevelSelection</text>
<text text-anchor="middle" x="419.5" y="-7.5" font-family="Helvetica,sans-Serif" font-size="10.00">Scene.cpp</text>
</a>
</g>
</g>
<!-- Node5&#45;&gt;Node7 -->
<g id="edge6" class="edge">
<title>Node5&#45;&gt;Node7</title>
<path fill="none" stroke="midnightblue" d="M419.5,-62.41C419.5,-52.22 419.5,-39.9 419.5,-30.59"/>
<polygon fill="midnightblue" stroke="midnightblue" points="416,-62.73 419.5,-72.73 423,-62.73 416,-62.73"/>
</g>
<!-- Node8&#45;&gt;Node4 -->
<g id="edge8" class="edge">
<title>Node8&#45;&gt;Node4</title>
<path fill="none" stroke="midnightblue" d="M253.52,-129.74C254.62,-119.49 255.97,-107 256.98,-97.59"/>
<polygon fill="midnightblue" stroke="midnightblue" points="250.03,-129.42 252.44,-139.73 256.99,-130.17 250.03,-129.42"/>
</g>
<!-- Node9 -->
<g id="node9" class="node">
<title>Node9</title>
<g id="a_node9"><a xlink:href="LevelManager_8cpp.html" target="_top" xlink:title=" ">
<polygon fill="none" stroke="black" points="0,-73 0,-92 167,-92 167,-73 0,-73"/>
<text text-anchor="middle" x="83.5" y="-80" font-family="Helvetica,sans-Serif" font-size="10.00">src/Persistence/LevelManager.cpp</text>
</a>
</g>
</g>
<!-- Node8&#45;&gt;Node9 -->
<g id="edge9" class="edge">
<title>Node8&#45;&gt;Node9</title>
<path fill="none" stroke="midnightblue" d="M219.46,-136.1C186.11,-123.2 134.75,-103.33 105.63,-92.06"/>
<polygon fill="midnightblue" stroke="midnightblue" points="218.6,-139.52 229.19,-139.87 221.13,-133 218.6,-139.52"/>
</g>
<!-- Node10&#45;&gt;Node3 -->
<g id="edge18" class="edge">
<title>Node10&#45;&gt;Node3</title>
<path fill="none" stroke="midnightblue" d="M505.99,-201.15C488.92,-190.27 465.58,-175.4 448.61,-164.59"/>
<polygon fill="midnightblue" stroke="midnightblue" points="504.43,-204.31 514.74,-206.73 508.19,-198.41 504.43,-204.31"/>
</g>
<!-- Node10&#45;&gt;Node5 -->
<g id="edge20" class="edge">
<title>Node10&#45;&gt;Node5</title>
<path fill="none" stroke="midnightblue" d="M528.04,-196.72C526.72,-178.93 522.34,-152.3 508.5,-134 492.85,-113.31 466.1,-99.8 446.01,-92"/>
<polygon fill="midnightblue" stroke="midnightblue" points="524.56,-197.13 528.54,-206.95 531.55,-196.79 524.56,-197.13"/>
</g>
<!-- Node10&#45;&gt;Node8 -->
<g id="edge19" class="edge">
<title>Node10&#45;&gt;Node8</title>
<path fill="none" stroke="midnightblue" d="M482.24,-204.64C427.66,-191.84 338.05,-170.81 288.08,-159.08"/>
<polygon fill="midnightblue" stroke="midnightblue" points="481.47,-208.06 492,-206.94 483.07,-201.24 481.47,-208.06"/>
</g>
<!-- Node11 -->
<g id="node11" class="node">
<title>Node11</title>
<g id="a_node11"><a xlink:href="LevelController_8hpp.html" target="_top" xlink:title=" ">
<polygon fill="none" stroke="black" points="1128.5,-140 1128.5,-159 1294.5,-159 1294.5,-140 1128.5,-140"/>
<text text-anchor="middle" x="1211.5" y="-147" font-family="Helvetica,sans-Serif" font-size="10.00">src/Controllers/LevelController.hpp</text>
</a>
</g>
</g>
<!-- Node10&#45;&gt;Node11 -->
<g id="edge11" class="edge">
<title>Node10&#45;&gt;Node11</title>
<path fill="none" stroke="midnightblue" d="M608.4,-205.76C622.75,-204.1 637.56,-202.45 651.5,-201 820.68,-183.4 1019,-166.36 1128.41,-157.28"/>
<polygon fill="midnightblue" stroke="midnightblue" points="607.59,-202.33 598.07,-206.96 608.4,-209.28 607.59,-202.33"/>
</g>
<!-- Node11&#45;&gt;Node6 -->
<g id="edge13" class="edge">
<title>Node11&#45;&gt;Node6</title>
<path fill="none" stroke="midnightblue" d="M1210.64,-129.77C1208.72,-110.99 1202.75,-82.68 1184.5,-67 1151.39,-38.54 1034.89,-25.71 958.3,-20.23"/>
<polygon fill="midnightblue" stroke="midnightblue" points="1207.15,-130.07 1211.38,-139.79 1214.13,-129.56 1207.15,-130.07"/>
</g>
<!-- Node12 -->
<g id="node12" class="node">
<title>Node12</title>
<g id="a_node12"><a xlink:href="LevelController_8cpp.html" target="_top" xlink:title=" ">
<polygon fill="none" stroke="black" points="1651.5,-73 1651.5,-92 1817.5,-92 1817.5,-73 1651.5,-73"/>
<text text-anchor="middle" x="1734.5" y="-80" font-family="Helvetica,sans-Serif" font-size="10.00">src/Controllers/LevelController.cpp</text>
</a>
</g>
</g>
<!-- Node11&#45;&gt;Node12 -->
<g id="edge12" class="edge">
<title>Node11&#45;&gt;Node12</title>
<path fill="none" stroke="midnightblue" d="M1297.38,-138.85C1403.48,-126.85 1577.88,-106.87 1642.5,-98 1655.48,-96.22 1669.45,-94.11 1682.49,-92.07"/>
<polygon fill="midnightblue" stroke="midnightblue" points="1296.87,-135.38 1287.33,-139.98 1297.66,-142.34 1296.87,-135.38"/>
</g>
<!-- Node13 -->
<g id="node13" class="node">
<title>Node13</title>
<g id="a_node13"><a xlink:href="CheatManager_8cpp.html" target="_top" xlink:title=" ">
<polygon fill="none" stroke="black" points="1381.5,-67.5 1381.5,-97.5 1487.5,-97.5 1487.5,-67.5 1381.5,-67.5"/>
<text text-anchor="start" x="1389.5" y="-85.5" font-family="Helvetica,sans-Serif" font-size="10.00">src/Scripts/Common</text>
<text text-anchor="middle" x="1434.5" y="-74.5" font-family="Helvetica,sans-Serif" font-size="10.00">/CheatManager.cpp</text>
</a>
</g>
</g>
<!-- Node11&#45;&gt;Node13 -->
<g id="edge14" class="edge">
<title>Node11&#45;&gt;Node13</title>
<path fill="none" stroke="midnightblue" d="M1250.76,-137.06C1288.57,-126.04 1345.83,-109.34 1386.37,-97.53"/>
<polygon fill="midnightblue" stroke="midnightblue" points="1249.73,-133.71 1241.11,-139.87 1251.69,-140.43 1249.73,-133.71"/>
</g>
<!-- Node14 -->
<g id="node14" class="node">
<title>Node14</title>
<g id="a_node14"><a xlink:href="EnemyMovementBehaviour_8cpp.html" target="_top" xlink:title=" ">
<polygon fill="none" stroke="black" points="1019.5,-67.5 1019.5,-97.5 1175.5,-97.5 1175.5,-67.5 1019.5,-67.5"/>
<text text-anchor="start" x="1027.5" y="-85.5" font-family="Helvetica,sans-Serif" font-size="10.00">src/Scripts/Enemies</text>
<text text-anchor="middle" x="1097.5" y="-74.5" font-family="Helvetica,sans-Serif" font-size="10.00">/EnemyMovementBehaviour.cpp</text>
</a>
</g>
</g>
<!-- Node11&#45;&gt;Node14 -->
<g id="edge15" class="edge">
<title>Node11&#45;&gt;Node14</title>
<path fill="none" stroke="midnightblue" d="M1187.39,-134.75C1168.23,-123.83 1141.53,-108.6 1122.21,-97.59"/>
<polygon fill="midnightblue" stroke="midnightblue" points="1185.7,-137.82 1196.13,-139.73 1189.17,-131.74 1185.7,-137.82"/>
</g>
<!-- Node15 -->
<g id="node15" class="node">
<title>Node15</title>
<g id="a_node15"><a xlink:href="EnemyTroopTruckBehaviour_8cpp.html" target="_top" xlink:title=" ">
<polygon fill="none" stroke="black" points="841.5,-67.5 841.5,-97.5 1001.5,-97.5 1001.5,-67.5 841.5,-67.5"/>
<text text-anchor="start" x="849.5" y="-85.5" font-family="Helvetica,sans-Serif" font-size="10.00">src/Scripts/Enemies</text>
<text text-anchor="middle" x="921.5" y="-74.5" font-family="Helvetica,sans-Serif" font-size="10.00">/EnemyTroopTruckBehaviour.cpp</text>
</a>
</g>
</g>
<!-- Node11&#45;&gt;Node15 -->
<g id="edge16" class="edge">
<title>Node11&#45;&gt;Node15</title>
<path fill="none" stroke="midnightblue" d="M1163.25,-137.69C1114.19,-126.69 1037.95,-109.6 984.23,-97.56"/>
<polygon fill="midnightblue" stroke="midnightblue" points="1162.77,-141.16 1173.29,-139.94 1164.3,-134.33 1162.77,-141.16"/>
</g>
<!-- Node16 -->
<g id="node16" class="node">
<title>Node16</title>
<g id="a_node16"><a xlink:href="UserAttackBehaviour_8cpp.html" target="_top" xlink:title=" ">
<polygon fill="none" stroke="black" points="1232,-67.5 1232,-97.5 1363,-97.5 1363,-67.5 1232,-67.5"/>
<text text-anchor="start" x="1240" y="-85.5" font-family="Helvetica,sans-Serif" font-size="10.00">src/Scripts/Heroes</text>
<text text-anchor="middle" x="1297.5" y="-74.5" font-family="Helvetica,sans-Serif" font-size="10.00">/UserAttackBehaviour.cpp</text>
</a>
</g>
</g>
<!-- Node11&#45;&gt;Node16 -->
<g id="edge17" class="edge">
<title>Node11&#45;&gt;Node16</title>
<path fill="none" stroke="midnightblue" d="M1231.29,-133.54C1245.6,-122.73 1264.82,-108.2 1278.86,-97.59"/>
<polygon fill="midnightblue" stroke="midnightblue" points="1228.97,-130.91 1223.1,-139.73 1233.19,-136.5 1228.97,-130.91"/>
</g>
<!-- Node18 -->
<g id="node18" class="node">
<title>Node18</title>
<g id="a_node18"><a xlink:href="EnemyMovementBehaviour_8hpp.html" target="_top" xlink:title=" ">
<polygon fill="none" stroke="black" points="777.5,-134.5 777.5,-164.5 933.5,-164.5 933.5,-134.5 777.5,-134.5"/>
<text text-anchor="start" x="785.5" y="-152.5" font-family="Helvetica,sans-Serif" font-size="10.00">src/Scripts/Enemies</text>
<text text-anchor="middle" x="855.5" y="-141.5" font-family="Helvetica,sans-Serif" font-size="10.00">/EnemyMovementBehaviour.hpp</text>
</a>
</g>
</g>
<!-- Node17&#45;&gt;Node18 -->
<g id="edge22" class="edge">
<title>Node17&#45;&gt;Node18</title>
<path fill="none" stroke="midnightblue" d="M855.5,-313.88C855.5,-277.09 855.5,-197.21 855.5,-164.69"/>
<polygon fill="midnightblue" stroke="midnightblue" points="852,-314.2 855.5,-324.2 859,-314.2 852,-314.2"/>
</g>
<!-- Node21 -->
<g id="node21" class="node">
<title>Node21</title>
<g id="a_node21"><a xlink:href="LevelData_8hpp.html" target="_top" xlink:title=" ">
<polygon fill="none" stroke="black" points="1243.5,-268.5 1243.5,-287.5 1373.5,-287.5 1373.5,-268.5 1243.5,-268.5"/>
<text text-anchor="middle" x="1308.5" y="-275.5" font-family="Helvetica,sans-Serif" font-size="10.00">src/Structs/LevelData.hpp</text>
</a>
</g>
</g>
<!-- Node17&#45;&gt;Node21 -->
<g id="edge27" class="edge">
<title>Node17&#45;&gt;Node21</title>
<path fill="none" stroke="midnightblue" d="M930.01,-324.12C1017.2,-313.72 1160.18,-296.68 1243.2,-286.78"/>
<polygon fill="midnightblue" stroke="midnightblue" points="929.44,-320.66 919.92,-325.32 930.27,-327.61 929.44,-320.66"/>
</g>
<!-- Node18&#45;&gt;Node14 -->
<g id="edge24" class="edge">
<title>Node18&#45;&gt;Node14</title>
<path fill="none" stroke="midnightblue" d="M917.49,-131.85C956.95,-121.25 1007.49,-107.68 1044.96,-97.61"/>
<polygon fill="midnightblue" stroke="midnightblue" points="916.46,-128.5 907.71,-134.48 918.28,-135.26 916.46,-128.5"/>
</g>
<!-- Node18&#45;&gt;Node15 -->
<g id="edge26" class="edge">
<title>Node18&#45;&gt;Node15</title>
<path fill="none" stroke="midnightblue" d="M877.01,-127.31C886.91,-117.56 898.39,-106.26 907.21,-97.58"/>
<polygon fill="midnightblue" stroke="midnightblue" points="874.49,-124.89 869.82,-134.4 879.4,-129.87 874.49,-124.89"/>
</g>
<!-- Node19 -->
<g id="node19" class="node">
<title>Node19</title>
<g id="a_node19"><a xlink:href="EnemyPrefabFactory_8cpp.html" target="_top" xlink:title=" ">
<polygon fill="none" stroke="black" points="689.5,-67.5 689.5,-97.5 823.5,-97.5 823.5,-67.5 689.5,-67.5"/>
<text text-anchor="start" x="697.5" y="-85.5" font-family="Helvetica,sans-Serif" font-size="10.00">src/Factories/EnemyPrefab</text>
<text text-anchor="middle" x="756.5" y="-74.5" font-family="Helvetica,sans-Serif" font-size="10.00">Factory.cpp</text>
</a>
</g>
</g>
<!-- Node18&#45;&gt;Node19 -->
<g id="edge23" class="edge">
<title>Node18&#45;&gt;Node19</title>
<path fill="none" stroke="midnightblue" d="M825.39,-128.73C810.08,-118.68 791.81,-106.68 777.94,-97.58"/>
<polygon fill="midnightblue" stroke="midnightblue" points="823.74,-131.83 834.02,-134.4 827.58,-125.98 823.74,-131.83"/>
</g>
<!-- Node20 -->
<g id="node20" class="node">
<title>Node20</title>
<g id="a_node20"><a xlink:href="EnemySpeedBoostBehaviour_8cpp.html" target="_top" xlink:title=" ">
<polygon fill="none" stroke="black" points="507.5,-67.5 507.5,-97.5 671.5,-97.5 671.5,-67.5 507.5,-67.5"/>
<text text-anchor="start" x="515.5" y="-85.5" font-family="Helvetica,sans-Serif" font-size="10.00">src/Scripts/Enemies</text>
<text text-anchor="middle" x="589.5" y="-74.5" font-family="Helvetica,sans-Serif" font-size="10.00">/EnemySpeedBoostBehaviour.cpp</text>
</a>
</g>
</g>
<!-- Node18&#45;&gt;Node20 -->
<g id="edge25" class="edge">
<title>Node18&#45;&gt;Node20</title>
<path fill="none" stroke="midnightblue" d="M788.19,-132.05C744.7,-121.43 688.7,-107.74 647.25,-97.61"/>
<polygon fill="midnightblue" stroke="midnightblue" points="787.56,-135.5 798.11,-134.48 789.23,-128.7 787.56,-135.5"/>
</g>
<!-- Node21&#45;&gt;Node11 -->
<g id="edge28" class="edge">
<title>Node21&#45;&gt;Node11</title>
<path fill="none" stroke="midnightblue" d="M1277.57,-263.92C1263.25,-256.46 1247.11,-245.81 1236.5,-232 1219.19,-209.46 1213.78,-174.89 1212.16,-159.01"/>
<polygon fill="midnightblue" stroke="midnightblue" points="1276.12,-267.1 1286.64,-268.36 1279.2,-260.82 1276.12,-267.1"/>
</g>
<!-- Node22 -->
<g id="node22" class="node">
<title>Node22</title>
<g id="a_node22"><a xlink:href="GameLostBehaviour_8hpp.html" target="_top" xlink:title=" ">
<polygon fill="none" stroke="black" points="1245,-201.5 1245,-231.5 1372,-231.5 1372,-201.5 1245,-201.5"/>
<text text-anchor="start" x="1253" y="-219.5" font-family="Helvetica,sans-Serif" font-size="10.00">src/Scripts/Common</text>
<text text-anchor="middle" x="1308.5" y="-208.5" font-family="Helvetica,sans-Serif" font-size="10.00">/GameLostBehaviour.hpp</text>
</a>
</g>
</g>
<!-- Node21&#45;&gt;Node22 -->
<g id="edge29" class="edge">
<title>Node21&#45;&gt;Node22</title>
<path fill="none" stroke="midnightblue" d="M1308.5,-258.23C1308.5,-249.59 1308.5,-239.5 1308.5,-231.52"/>
<polygon fill="midnightblue" stroke="midnightblue" points="1305,-258.48 1308.5,-268.48 1312,-258.48 1305,-258.48"/>
</g>
<!-- Node24 -->
<g id="node24" class="node">
<title>Node24</title>
<g id="a_node24"><a xlink:href="GameWonBehaviour_8hpp.html" target="_top" xlink:title=" ">
<polygon fill="none" stroke="black" points="1497,-134.5 1497,-164.5 1624,-164.5 1624,-134.5 1497,-134.5"/>
<text text-anchor="start" x="1505" y="-152.5" font-family="Helvetica,sans-Serif" font-size="10.00">src/Scripts/Common</text>
<text text-anchor="middle" x="1560.5" y="-141.5" font-family="Helvetica,sans-Serif" font-size="10.00">/GameWonBehaviour.hpp</text>
</a>
</g>
</g>
<!-- Node21&#45;&gt;Node24 -->
<g id="edge33" class="edge">
<title>Node21&#45;&gt;Node24</title>
<path fill="none" stroke="midnightblue" d="M1383.87,-269.45C1438.97,-262.52 1507.73,-250.49 1529.5,-232 1549.69,-214.85 1556.76,-183.06 1559.22,-164.66"/>
<polygon fill="midnightblue" stroke="midnightblue" points="1383.26,-266 1373.76,-270.69 1384.11,-272.95 1383.26,-266"/>
</g>
<!-- Node26 -->
<g id="node26" class="node">
<title>Node26</title>
<g id="a_node26"><a xlink:href="LevelData_8cpp.html" target="_top" xlink:title=" ">
<polygon fill="none" stroke="black" points="1390.5,-207 1390.5,-226 1520.5,-226 1520.5,-207 1390.5,-207"/>
<text text-anchor="middle" x="1455.5" y="-214" font-family="Helvetica,sans-Serif" font-size="10.00">src/Structs/LevelData.cpp</text>
</a>
</g>
</g>
<!-- Node21&#45;&gt;Node26 -->
<g id="edge37" class="edge">
<title>Node21&#45;&gt;Node26</title>
<path fill="none" stroke="midnightblue" d="M1339.06,-264.63C1367.62,-253.07 1409.5,-236.12 1434.48,-226.01"/>
<polygon fill="midnightblue" stroke="midnightblue" points="1337.52,-261.48 1329.56,-268.48 1340.14,-267.97 1337.52,-261.48"/>
</g>
<!-- Node22&#45;&gt;Node11 -->
<g id="edge30" class="edge">
<title>Node22&#45;&gt;Node11</title>
<path fill="none" stroke="midnightblue" d="M1278.86,-195.64C1260.56,-183.37 1238.01,-168.26 1224.2,-159.01"/>
<polygon fill="midnightblue" stroke="midnightblue" points="1277.2,-198.74 1287.45,-201.4 1281.09,-192.92 1277.2,-198.74"/>
</g>
<!-- Node22&#45;&gt;Node13 -->
<g id="edge31" class="edge">
<title>Node22&#45;&gt;Node13</title>
<path fill="none" stroke="midnightblue" d="M1314.02,-191.2C1319.03,-173.64 1327.9,-150.24 1342.5,-134 1356.99,-117.87 1377.89,-105.83 1396.11,-97.55"/>
<polygon fill="midnightblue" stroke="midnightblue" points="1310.53,-190.71 1311.39,-201.27 1317.3,-192.48 1310.53,-190.71"/>
</g>
<!-- Node23 -->
<g id="node23" class="node">
<title>Node23</title>
<g id="a_node23"><a xlink:href="GameLostBehaviour_8cpp.html" target="_top" xlink:title=" ">
<polygon fill="none" stroke="black" points="1351,-134.5 1351,-164.5 1478,-164.5 1478,-134.5 1351,-134.5"/>
<text text-anchor="start" x="1359" y="-152.5" font-family="Helvetica,sans-Serif" font-size="10.00">src/Scripts/Common</text>
<text text-anchor="middle" x="1414.5" y="-141.5" font-family="Helvetica,sans-Serif" font-size="10.00">/GameLostBehaviour.cpp</text>
</a>
</g>
</g>
<!-- Node22&#45;&gt;Node23 -->
<g id="edge32" class="edge">
<title>Node22&#45;&gt;Node23</title>
<path fill="none" stroke="midnightblue" d="M1340.28,-196.02C1356.77,-185.9 1376.55,-173.77 1391.54,-164.58"/>
<polygon fill="midnightblue" stroke="midnightblue" points="1338.2,-193.18 1331.5,-201.4 1341.85,-199.15 1338.2,-193.18"/>
</g>
<!-- Node24&#45;&gt;Node12 -->
<g id="edge34" class="edge">
<title>Node24&#45;&gt;Node12</title>
<path fill="none" stroke="midnightblue" d="M1607.92,-130.78C1641.66,-118.18 1685.49,-101.81 1711.73,-92.01"/>
<polygon fill="midnightblue" stroke="midnightblue" points="1606.4,-127.62 1598.26,-134.4 1608.85,-134.18 1606.4,-127.62"/>
</g>
<!-- Node24&#45;&gt;Node13 -->
<g id="edge35" class="edge">
<title>Node24&#45;&gt;Node13</title>
<path fill="none" stroke="midnightblue" d="M1524.08,-129.71C1504.21,-119.46 1480.02,-106.98 1461.79,-97.58"/>
<polygon fill="midnightblue" stroke="midnightblue" points="1522.67,-132.92 1533.16,-134.4 1525.88,-126.7 1522.67,-132.92"/>
</g>
<!-- Node25 -->
<g id="node25" class="node">
<title>Node25</title>
<g id="a_node25"><a xlink:href="GameWonBehaviour_8cpp.html" target="_top" xlink:title=" ">
<polygon fill="none" stroke="black" points="1506,-67.5 1506,-97.5 1633,-97.5 1633,-67.5 1506,-67.5"/>
<text text-anchor="start" x="1514" y="-85.5" font-family="Helvetica,sans-Serif" font-size="10.00">src/Scripts/Common</text>
<text text-anchor="middle" x="1569.5" y="-74.5" font-family="Helvetica,sans-Serif" font-size="10.00">/GameWonBehaviour.cpp</text>
</a>
</g>
</g>
<!-- Node24&#45;&gt;Node25 -->
<g id="edge36" class="edge">
<title>Node24&#45;&gt;Node25</title>
<path fill="none" stroke="midnightblue" d="M1563.84,-124.4C1565.09,-115.37 1566.47,-105.41 1567.55,-97.58"/>
<polygon fill="midnightblue" stroke="midnightblue" points="1560.36,-124.01 1562.45,-134.4 1567.29,-124.97 1560.36,-124.01"/>
</g>
<!-- Node27&#45;&gt;Node3 -->
<g id="edge39" class="edge">
<title>Node27&#45;&gt;Node3</title>
<path fill="none" stroke="midnightblue" d="M641.41,-258.23C637.59,-240.93 629.38,-215.77 612.5,-201 581.65,-174.01 537.73,-161.29 500.32,-155.36"/>
<polygon fill="midnightblue" stroke="midnightblue" points="638.02,-259.11 643.34,-268.27 644.89,-257.79 638.02,-259.11"/>
</g>
<!-- Node27&#45;&gt;Node10 -->
<g id="edge40" class="edge">
<title>Node27&#45;&gt;Node10</title>
<path fill="none" stroke="midnightblue" d="M618.9,-263.87C596.41,-252.33 564.37,-235.9 545.09,-226.01"/>
<polygon fill="midnightblue" stroke="midnightblue" points="617.38,-267.03 627.88,-268.48 620.58,-260.8 617.38,-267.03"/>
</g>
<!-- Node28 -->
<g id="node28" class="node">
<title>Node28</title>
<g id="a_node28"><a xlink:href="Tile_8cpp.html" target="_top" xlink:title=" ">
<polygon fill="none" stroke="black" points="660,-207 660,-226 761,-226 761,-207 660,-207"/>
<text text-anchor="middle" x="710.5" y="-214" font-family="Helvetica,sans-Serif" font-size="10.00">src/Structs/Tile.cpp</text>
</a>
</g>
</g>
<!-- Node27&#45;&gt;Node28 -->
<g id="edge41" class="edge">
<title>Node27&#45;&gt;Node28</title>
<path fill="none" stroke="midnightblue" d="M661.53,-261.65C674.11,-250.31 690.78,-235.28 701.06,-226.01"/>
<polygon fill="midnightblue" stroke="midnightblue" points="659.04,-259.18 653.96,-268.48 663.73,-264.38 659.04,-259.18"/>
</g>
<!-- Node29&#45;&gt;Node2 -->
<g id="edge43" class="edge">
<title>Node29&#45;&gt;Node2</title>
<path fill="none" stroke="midnightblue" d="M514.5,-313.8C514.5,-304.91 514.5,-294.78 514.5,-287.75"/>
<polygon fill="midnightblue" stroke="midnightblue" points="511,-314.08 514.5,-324.08 518,-314.08 511,-314.08"/>
</g>
<!-- Node30&#45;&gt;Node12 -->
<g id="edge45" class="edge">
<title>Node30&#45;&gt;Node12</title>
<path fill="none" stroke="midnightblue" d="M1700.27,-314.34C1707.71,-264.14 1727.96,-127.6 1733.23,-92.05"/>
<polygon fill="midnightblue" stroke="midnightblue" points="1696.78,-314.01 1698.77,-324.41 1703.7,-315.03 1696.78,-314.01"/>
</g>
<!-- Node31 -->
<g id="node31" class="node">
<title>Node31</title>
<g id="a_node31"><a xlink:href="TileUtil_8cpp.html" target="_top" xlink:title=" ">
<polygon fill="none" stroke="black" points="1726,-268.5 1726,-287.5 1831,-287.5 1831,-268.5 1726,-268.5"/>
<text text-anchor="middle" x="1778.5" y="-275.5" font-family="Helvetica,sans-Serif" font-size="10.00">src/Utils/TileUtil.cpp</text>
</a>
</g>
</g>
<!-- Node30&#45;&gt;Node31 -->
<g id="edge46" class="edge">
<title>Node30&#45;&gt;Node31</title>
<path fill="none" stroke="midnightblue" d="M1719.07,-318.62C1733.86,-308.76 1753.01,-295.99 1765.52,-287.65"/>
<polygon fill="midnightblue" stroke="midnightblue" points="1716.89,-315.86 1710.51,-324.32 1720.78,-321.69 1716.89,-315.86"/>
</g>
</g>
</svg>
