<?xml version="1.0" encoding="UTF-8" standalone="no"?>
<!DOCTYPE svg PUBLIC "-//W3C//DTD SVG 1.1//EN"
 "http://www.w3.org/Graphics/SVG/1.1/DTD/svg11.dtd">
<!-- Generated by graphviz version 2.44.0 ()
 -->
<!-- Title: src/Enums/TileType.hpp Pages: 1 -->
<svg width="1309pt" height="341pt"
 viewBox="0.00 0.00 1309.00 341.00" xmlns="http://www.w3.org/2000/svg" xmlns:xlink="http://www.w3.org/1999/xlink">
<g id="graph0" class="graph" transform="scale(1 1) rotate(0) translate(4 337)">
<title>src/Enums/TileType.hpp</title>
<!-- Node1 -->
<g id="node1" class="node">
<title>Node1</title>
<g id="a_node1"><a xlink:title=" ">
<polygon fill="#bfbfbf" stroke="black" points="520,-313.5 520,-332.5 641,-332.5 641,-313.5 520,-313.5"/>
<text text-anchor="middle" x="580.5" y="-320.5" font-family="Helvetica,sans-Serif" font-size="10.00">src/Enums/TileType.hpp</text>
</a>
</g>
</g>
<!-- Node2 -->
<g id="node2" class="node">
<title>Node2</title>
<g id="a_node2"><a xlink:href="Level_8hpp.html" target="_top" xlink:title=" ">
<polygon fill="none" stroke="black" points="247.5,-257.5 247.5,-276.5 357.5,-276.5 357.5,-257.5 247.5,-257.5"/>
<text text-anchor="middle" x="302.5" y="-264.5" font-family="Helvetica,sans-Serif" font-size="10.00">src/Structs/Level.hpp</text>
</a>
</g>
</g>
<!-- Node1&#45;&gt;Node2 -->
<g id="edge1" class="edge">
<title>Node1&#45;&gt;Node2</title>
<path fill="none" stroke="midnightblue" d="M526.31,-311.47C473.77,-301.27 395.06,-285.98 346.34,-276.52"/>
<polygon fill="midnightblue" stroke="midnightblue" points="525.97,-314.97 536.45,-313.44 527.3,-308.1 525.97,-314.97"/>
</g>
<!-- Node15 -->
<g id="node15" class="node">
<title>Node15</title>
<g id="a_node15"><a xlink:href="MapNode_8hpp.html" target="_top" xlink:title=" ">
<polygon fill="none" stroke="black" points="598.5,-257.5 598.5,-276.5 726.5,-276.5 726.5,-257.5 598.5,-257.5"/>
<text text-anchor="middle" x="662.5" y="-264.5" font-family="Helvetica,sans-Serif" font-size="10.00">src/Structs/MapNode.hpp</text>
</a>
</g>
</g>
<!-- Node1&#45;&gt;Node15 -->
<g id="edge19" class="edge">
<title>Node1&#45;&gt;Node15</title>
<path fill="none" stroke="midnightblue" d="M602.33,-307.62C617.31,-297.76 636.7,-284.99 649.36,-276.65"/>
<polygon fill="midnightblue" stroke="midnightblue" points="600.1,-304.9 593.67,-313.32 603.95,-310.75 600.1,-304.9"/>
</g>
<!-- Node24 -->
<g id="node24" class="node">
<title>Node24</title>
<g id="a_node24"><a xlink:href="Tile_8hpp.html" target="_top" xlink:title=" ">
<polygon fill="none" stroke="black" points="417,-257.5 417,-276.5 518,-276.5 518,-257.5 417,-257.5"/>
<text text-anchor="middle" x="467.5" y="-264.5" font-family="Helvetica,sans-Serif" font-size="10.00">src/Structs/Tile.hpp</text>
</a>
</g>
</g>
<!-- Node1&#45;&gt;Node24 -->
<g id="edge34" class="edge">
<title>Node1&#45;&gt;Node24</title>
<path fill="none" stroke="midnightblue" d="M553.5,-309.1C532.39,-299.01 503.64,-285.27 485.32,-276.52"/>
<polygon fill="midnightblue" stroke="midnightblue" points="552.06,-312.29 562.59,-313.44 555.08,-305.97 552.06,-312.29"/>
</g>
<!-- Node26 -->
<g id="node26" class="node">
<title>Node26</title>
<g id="a_node26"><a xlink:href="TileUtil_8hpp.html" target="_top" xlink:title=" ">
<polygon fill="none" stroke="black" points="1086,-257.5 1086,-276.5 1191,-276.5 1191,-257.5 1086,-257.5"/>
<text text-anchor="middle" x="1138.5" y="-264.5" font-family="Helvetica,sans-Serif" font-size="10.00">src/Utils/TileUtil.hpp</text>
</a>
</g>
</g>
<!-- Node1&#45;&gt;Node26 -->
<g id="edge38" class="edge">
<title>Node1&#45;&gt;Node26</title>
<path fill="none" stroke="midnightblue" d="M650.99,-315.18C764.47,-304.2 985.14,-282.84 1085.96,-273.08"/>
<polygon fill="midnightblue" stroke="midnightblue" points="650.63,-311.7 641.01,-316.14 651.3,-318.66 650.63,-311.7"/>
</g>
<!-- Node3 -->
<g id="node3" class="node">
<title>Node3</title>
<g id="a_node3"><a xlink:href="LevelSelectionController_8hpp.html" target="_top" xlink:title=" ">
<polygon fill="none" stroke="black" points="260,-123.5 260,-153.5 407,-153.5 407,-123.5 260,-123.5"/>
<text text-anchor="start" x="268" y="-141.5" font-family="Helvetica,sans-Serif" font-size="10.00">src/Controllers/LevelSelection</text>
<text text-anchor="middle" x="333.5" y="-130.5" font-family="Helvetica,sans-Serif" font-size="10.00">Controller.hpp</text>
</a>
</g>
</g>
<!-- Node2&#45;&gt;Node3 -->
<g id="edge2" class="edge">
<title>Node2&#45;&gt;Node3</title>
<path fill="none" stroke="midnightblue" d="M277.78,-251.9C266.97,-244.28 255.42,-233.79 249.5,-221 243.71,-208.5 242.72,-201.99 249.5,-190 258.97,-173.26 276.44,-161.46 293.01,-153.5"/>
<polygon fill="midnightblue" stroke="midnightblue" points="275.88,-254.84 286.17,-257.39 279.71,-248.98 275.88,-254.84"/>
</g>
<!-- Node8 -->
<g id="node8" class="node">
<title>Node8</title>
<g id="a_node8"><a xlink:href="LevelManager_8hpp.html" target="_top" xlink:title=" ">
<polygon fill="none" stroke="black" points="75,-129 75,-148 242,-148 242,-129 75,-129"/>
<text text-anchor="middle" x="158.5" y="-136" font-family="Helvetica,sans-Serif" font-size="10.00">src/Persistence/LevelManager.hpp</text>
</a>
</g>
</g>
<!-- Node2&#45;&gt;Node8 -->
<g id="edge7" class="edge">
<title>Node2&#45;&gt;Node8</title>
<path fill="none" stroke="midnightblue" d="M281.02,-251.28C269.07,-242.81 254.11,-231.75 241.5,-221 212.61,-196.37 181.39,-163.96 166.84,-148.48"/>
<polygon fill="midnightblue" stroke="midnightblue" points="279.28,-254.33 289.48,-257.2 283.3,-248.6 279.28,-254.33"/>
</g>
<!-- Node10 -->
<g id="node10" class="node">
<title>Node10</title>
<g id="a_node10"><a xlink:href="LevelWithTiles_8hpp.html" target="_top" xlink:title=" ">
<polygon fill="none" stroke="black" points="258.5,-196 258.5,-215 408.5,-215 408.5,-196 258.5,-196"/>
<text text-anchor="middle" x="333.5" y="-203" font-family="Helvetica,sans-Serif" font-size="10.00">src/Structs/LevelWithTiles.hpp</text>
</a>
</g>
</g>
<!-- Node2&#45;&gt;Node10 -->
<g id="edge10" class="edge">
<title>Node2&#45;&gt;Node10</title>
<path fill="none" stroke="midnightblue" d="M311.7,-248.33C317.44,-237.33 324.56,-223.66 329.07,-215.01"/>
<polygon fill="midnightblue" stroke="midnightblue" points="308.46,-246.99 306.94,-257.48 314.67,-250.22 308.46,-246.99"/>
</g>
<!-- Node4 -->
<g id="node4" class="node">
<title>Node4</title>
<g id="a_node4"><a xlink:href="LevelSelectionController_8cpp.html" target="_top" xlink:title=" ">
<polygon fill="none" stroke="black" points="185,-56.5 185,-86.5 332,-86.5 332,-56.5 185,-56.5"/>
<text text-anchor="start" x="193" y="-74.5" font-family="Helvetica,sans-Serif" font-size="10.00">src/Controllers/LevelSelection</text>
<text text-anchor="middle" x="258.5" y="-63.5" font-family="Helvetica,sans-Serif" font-size="10.00">Controller.cpp</text>
</a>
</g>
</g>
<!-- Node3&#45;&gt;Node4 -->
<g id="edge3" class="edge">
<title>Node3&#45;&gt;Node4</title>
<path fill="none" stroke="midnightblue" d="M309.38,-116.6C298.06,-106.78 284.86,-95.34 274.74,-86.58"/>
<polygon fill="midnightblue" stroke="midnightblue" points="307.38,-119.49 317.23,-123.4 311.96,-114.2 307.38,-119.49"/>
</g>
<!-- Node5 -->
<g id="node5" class="node">
<title>Node5</title>
<g id="a_node5"><a xlink:href="LevelScene_8hpp.html" target="_top" xlink:title=" ">
<polygon fill="none" stroke="black" points="350,-62 350,-81 489,-81 489,-62 350,-62"/>
<text text-anchor="middle" x="419.5" y="-69" font-family="Helvetica,sans-Serif" font-size="10.00">src/Scenes/LevelScene.hpp</text>
</a>
</g>
</g>
<!-- Node3&#45;&gt;Node5 -->
<g id="edge4" class="edge">
<title>Node3&#45;&gt;Node5</title>
<path fill="none" stroke="midnightblue" d="M360.17,-117.34C376.22,-105.21 395.83,-90.39 408,-81.19"/>
<polygon fill="midnightblue" stroke="midnightblue" points="358.03,-114.57 352.16,-123.4 362.25,-120.16 358.03,-114.57"/>
</g>
<!-- Node6 -->
<g id="node6" class="node">
<title>Node6</title>
<g id="a_node6"><a xlink:href="LevelScene_8cpp.html" target="_top" xlink:title=" ">
<polygon fill="none" stroke="black" points="564,-0.5 564,-19.5 703,-19.5 703,-0.5 564,-0.5"/>
<text text-anchor="middle" x="633.5" y="-7.5" font-family="Helvetica,sans-Serif" font-size="10.00">src/Scenes/LevelScene.cpp</text>
</a>
</g>
</g>
<!-- Node5&#45;&gt;Node6 -->
<g id="edge5" class="edge">
<title>Node5&#45;&gt;Node6</title>
<path fill="none" stroke="midnightblue" d="M459.96,-59.25C501.54,-47.69 565.34,-29.95 602.9,-19.51"/>
<polygon fill="midnightblue" stroke="midnightblue" points="458.86,-55.92 450.16,-61.98 460.73,-62.67 458.86,-55.92"/>
</g>
<!-- Node7 -->
<g id="node7" class="node">
<title>Node7</title>
<g id="a_node7"><a xlink:href="MainScene_8cpp.html" target="_top" xlink:title=" ">
<polygon fill="none" stroke="black" points="351.5,-0.5 351.5,-19.5 487.5,-19.5 487.5,-0.5 351.5,-0.5"/>
<text text-anchor="middle" x="419.5" y="-7.5" font-family="Helvetica,sans-Serif" font-size="10.00">src/Scenes/MainScene.cpp</text>
</a>
</g>
</g>
<!-- Node5&#45;&gt;Node7 -->
<g id="edge6" class="edge">
<title>Node5&#45;&gt;Node7</title>
<path fill="none" stroke="midnightblue" d="M419.5,-51.82C419.5,-41 419.5,-27.9 419.5,-19.51"/>
<polygon fill="midnightblue" stroke="midnightblue" points="416,-51.98 419.5,-61.98 423,-51.98 416,-51.98"/>
</g>
<!-- Node8&#45;&gt;Node4 -->
<g id="edge8" class="edge">
<title>Node8&#45;&gt;Node4</title>
<path fill="none" stroke="midnightblue" d="M180.57,-123.15C197.31,-112.27 220.19,-97.4 236.82,-86.59"/>
<polygon fill="midnightblue" stroke="midnightblue" points="178.46,-120.35 171.99,-128.73 182.28,-126.22 178.46,-120.35"/>
</g>
<!-- Node9 -->
<g id="node9" class="node">
<title>Node9</title>
<g id="a_node9"><a xlink:href="LevelManager_8cpp.html" target="_top" xlink:title=" ">
<polygon fill="none" stroke="black" points="0,-62 0,-81 167,-81 167,-62 0,-62"/>
<text text-anchor="middle" x="83.5" y="-69" font-family="Helvetica,sans-Serif" font-size="10.00">src/Persistence/LevelManager.cpp</text>
</a>
</g>
</g>
<!-- Node8&#45;&gt;Node9 -->
<g id="edge9" class="edge">
<title>Node8&#45;&gt;Node9</title>
<path fill="none" stroke="midnightblue" d="M140.45,-121.86C125.71,-109.08 105.41,-91.49 93.45,-81.13"/>
<polygon fill="midnightblue" stroke="midnightblue" points="138.54,-124.83 148.39,-128.73 143.12,-119.54 138.54,-124.83"/>
</g>
<!-- Node10&#45;&gt;Node3 -->
<g id="edge16" class="edge">
<title>Node10&#45;&gt;Node3</title>
<path fill="none" stroke="midnightblue" d="M333.5,-185.41C333.5,-175.22 333.5,-162.9 333.5,-153.59"/>
<polygon fill="midnightblue" stroke="midnightblue" points="330,-185.73 333.5,-195.73 337,-185.73 330,-185.73"/>
</g>
<!-- Node10&#45;&gt;Node5 -->
<g id="edge18" class="edge">
<title>Node10&#45;&gt;Node5</title>
<path fill="none" stroke="midnightblue" d="M369.57,-191.97C386.91,-183.95 406.13,-171.68 416.5,-154 430.18,-130.67 425.12,-96.79 421.66,-81.08"/>
<polygon fill="midnightblue" stroke="midnightblue" points="368.01,-188.83 360.2,-195.99 370.77,-195.26 368.01,-188.83"/>
</g>
<!-- Node10&#45;&gt;Node8 -->
<g id="edge17" class="edge">
<title>Node10&#45;&gt;Node8</title>
<path fill="none" stroke="midnightblue" d="M300.57,-192.27C265.84,-179.37 212.01,-159.38 181.56,-148.06"/>
<polygon fill="midnightblue" stroke="midnightblue" points="299.67,-195.67 310.26,-195.87 302.11,-189.11 299.67,-195.67"/>
</g>
<!-- Node11 -->
<g id="node11" class="node">
<title>Node11</title>
<g id="a_node11"><a xlink:href="LevelController_8hpp.html" target="_top" xlink:title=" ">
<polygon fill="none" stroke="black" points="670.5,-129 670.5,-148 836.5,-148 836.5,-129 670.5,-129"/>
<text text-anchor="middle" x="753.5" y="-136" font-family="Helvetica,sans-Serif" font-size="10.00">src/Controllers/LevelController.hpp</text>
</a>
</g>
</g>
<!-- Node10&#45;&gt;Node11 -->
<g id="edge11" class="edge">
<title>Node10&#45;&gt;Node11</title>
<path fill="none" stroke="midnightblue" d="M399.52,-194.41C465.76,-184.26 570.72,-168.14 661.5,-154 673.8,-152.08 687.03,-150.01 699.51,-148.04"/>
<polygon fill="midnightblue" stroke="midnightblue" points="398.58,-191.01 389.22,-195.98 399.64,-197.93 398.58,-191.01"/>
</g>
<!-- Node11&#45;&gt;Node6 -->
<g id="edge13" class="edge">
<title>Node11&#45;&gt;Node6</title>
<path fill="none" stroke="midnightblue" d="M738.16,-121.33C712.5,-94.28 661.73,-40.76 641.81,-19.76"/>
<polygon fill="midnightblue" stroke="midnightblue" points="735.83,-123.96 745.25,-128.81 740.91,-119.14 735.83,-123.96"/>
</g>
<!-- Node12 -->
<g id="node12" class="node">
<title>Node12</title>
<g id="a_node12"><a xlink:href="LevelController_8cpp.html" target="_top" xlink:title=" ">
<polygon fill="none" stroke="black" points="989.5,-62 989.5,-81 1155.5,-81 1155.5,-62 989.5,-62"/>
<text text-anchor="middle" x="1072.5" y="-69" font-family="Helvetica,sans-Serif" font-size="10.00">src/Controllers/LevelController.cpp</text>
</a>
</g>
</g>
<!-- Node11&#45;&gt;Node12 -->
<g id="edge12" class="edge">
<title>Node11&#45;&gt;Node12</title>
<path fill="none" stroke="midnightblue" d="M805.62,-126.88C868.45,-114.08 972.78,-92.82 1030.63,-81.03"/>
<polygon fill="midnightblue" stroke="midnightblue" points="804.63,-123.51 795.53,-128.94 806.03,-130.37 804.63,-123.51"/>
</g>
<!-- Node13 -->
<g id="node13" class="node">
<title>Node13</title>
<g id="a_node13"><a xlink:href="CheatManager_8cpp.html" target="_top" xlink:title=" ">
<polygon fill="none" stroke="black" points="865.5,-56.5 865.5,-86.5 971.5,-86.5 971.5,-56.5 865.5,-56.5"/>
<text text-anchor="start" x="873.5" y="-74.5" font-family="Helvetica,sans-Serif" font-size="10.00">src/Scripts/Common</text>
<text text-anchor="middle" x="918.5" y="-63.5" font-family="Helvetica,sans-Serif" font-size="10.00">/CheatManager.cpp</text>
</a>
</g>
</g>
<!-- Node11&#45;&gt;Node13 -->
<g id="edge14" class="edge">
<title>Node11&#45;&gt;Node13</title>
<path fill="none" stroke="midnightblue" d="M784.72,-125.2C812.68,-114.19 853.66,-98.04 882.89,-86.53"/>
<polygon fill="midnightblue" stroke="midnightblue" points="783.43,-121.95 775.41,-128.87 786,-128.46 783.43,-121.95"/>
</g>
<!-- Node14 -->
<g id="node14" class="node">
<title>Node14</title>
<g id="a_node14"><a xlink:href="EnemyMovementBehaviour_8cpp.html" target="_top" xlink:title=" ">
<polygon fill="none" stroke="black" points="507.5,-56.5 507.5,-86.5 663.5,-86.5 663.5,-56.5 507.5,-56.5"/>
<text text-anchor="start" x="515.5" y="-74.5" font-family="Helvetica,sans-Serif" font-size="10.00">src/Scripts/Enemies</text>
<text text-anchor="middle" x="585.5" y="-63.5" font-family="Helvetica,sans-Serif" font-size="10.00">/EnemyMovementBehaviour.cpp</text>
</a>
</g>
</g>
<!-- Node11&#45;&gt;Node14 -->
<g id="edge15" class="edge">
<title>Node11&#45;&gt;Node14</title>
<path fill="none" stroke="midnightblue" d="M721.72,-125.2C693.25,-114.19 651.52,-98.04 621.76,-86.53"/>
<polygon fill="midnightblue" stroke="midnightblue" points="720.6,-128.52 731.19,-128.87 723.13,-122 720.6,-128.52"/>
</g>
<!-- Node16 -->
<g id="node16" class="node">
<title>Node16</title>
<g id="a_node16"><a xlink:href="EnemyMovementBehaviour_8hpp.html" target="_top" xlink:title=" ">
<polygon fill="none" stroke="black" points="584.5,-190.5 584.5,-220.5 740.5,-220.5 740.5,-190.5 584.5,-190.5"/>
<text text-anchor="start" x="592.5" y="-208.5" font-family="Helvetica,sans-Serif" font-size="10.00">src/Scripts/Enemies</text>
<text text-anchor="middle" x="662.5" y="-197.5" font-family="Helvetica,sans-Serif" font-size="10.00">/EnemyMovementBehaviour.hpp</text>
</a>
</g>
</g>
<!-- Node15&#45;&gt;Node16 -->
<g id="edge20" class="edge">
<title>Node15&#45;&gt;Node16</title>
<path fill="none" stroke="midnightblue" d="M662.5,-247.23C662.5,-238.59 662.5,-228.5 662.5,-220.52"/>
<polygon fill="midnightblue" stroke="midnightblue" points="659,-247.48 662.5,-257.48 666,-247.48 659,-247.48"/>
</g>
<!-- Node18 -->
<g id="node18" class="node">
<title>Node18</title>
<g id="a_node18"><a xlink:href="LevelData_8hpp.html" target="_top" xlink:title=" ">
<polygon fill="none" stroke="black" points="853.5,-196 853.5,-215 983.5,-215 983.5,-196 853.5,-196"/>
<text text-anchor="middle" x="918.5" y="-203" font-family="Helvetica,sans-Serif" font-size="10.00">src/Structs/LevelData.hpp</text>
</a>
</g>
</g>
<!-- Node15&#45;&gt;Node18 -->
<g id="edge23" class="edge">
<title>Node15&#45;&gt;Node18</title>
<path fill="none" stroke="midnightblue" d="M709.03,-255.19C758.7,-243.64 836.39,-225.58 881.89,-215.01"/>
<polygon fill="midnightblue" stroke="midnightblue" points="708.13,-251.8 699.18,-257.48 709.71,-258.62 708.13,-251.8"/>
</g>
<!-- Node16&#45;&gt;Node14 -->
<g id="edge22" class="edge">
<title>Node16&#45;&gt;Node14</title>
<path fill="none" stroke="midnightblue" d="M585.37,-187.93C552.36,-179.12 519.16,-167.36 509.5,-154 501.43,-142.83 502.99,-135.14 509.5,-123 518.26,-106.66 534.89,-94.71 550.36,-86.55"/>
<polygon fill="midnightblue" stroke="midnightblue" points="584.56,-191.33 595.12,-190.45 586.31,-184.55 584.56,-191.33"/>
</g>
<!-- Node17 -->
<g id="node17" class="node">
<title>Node17</title>
<g id="a_node17"><a xlink:href="EnemyPrefabFactory_8cpp.html" target="_top" xlink:title=" ">
<polygon fill="none" stroke="black" points="518.5,-123.5 518.5,-153.5 652.5,-153.5 652.5,-123.5 518.5,-123.5"/>
<text text-anchor="start" x="526.5" y="-141.5" font-family="Helvetica,sans-Serif" font-size="10.00">src/Factories/EnemyPrefab</text>
<text text-anchor="middle" x="585.5" y="-130.5" font-family="Helvetica,sans-Serif" font-size="10.00">Factory.cpp</text>
</a>
</g>
</g>
<!-- Node16&#45;&gt;Node17 -->
<g id="edge21" class="edge">
<title>Node16&#45;&gt;Node17</title>
<path fill="none" stroke="midnightblue" d="M638.08,-183.88C626.38,-174.01 612.66,-162.43 602.18,-153.58"/>
<polygon fill="midnightblue" stroke="midnightblue" points="635.89,-186.62 645.79,-190.4 640.41,-181.27 635.89,-186.62"/>
</g>
<!-- Node18&#45;&gt;Node11 -->
<g id="edge24" class="edge">
<title>Node18&#45;&gt;Node11</title>
<path fill="none" stroke="midnightblue" d="M887.03,-192.1C854.27,-179.2 803.83,-159.33 775.24,-148.06"/>
<polygon fill="midnightblue" stroke="midnightblue" points="886,-195.46 896.59,-195.87 888.57,-188.95 886,-195.46"/>
</g>
<!-- Node19 -->
<g id="node19" class="node">
<title>Node19</title>
<g id="a_node19"><a xlink:href="GameLostBehaviour_8hpp.html" target="_top" xlink:title=" ">
<polygon fill="none" stroke="black" points="1000,-123.5 1000,-153.5 1127,-153.5 1127,-123.5 1000,-123.5"/>
<text text-anchor="start" x="1008" y="-141.5" font-family="Helvetica,sans-Serif" font-size="10.00">src/Scripts/Common</text>
<text text-anchor="middle" x="1063.5" y="-130.5" font-family="Helvetica,sans-Serif" font-size="10.00">/GameLostBehaviour.hpp</text>
</a>
</g>
</g>
<!-- Node18&#45;&gt;Node19 -->
<g id="edge25" class="edge">
<title>Node18&#45;&gt;Node19</title>
<path fill="none" stroke="midnightblue" d="M946.9,-191.77C971.45,-180.77 1006.86,-164.89 1032.21,-153.53"/>
<polygon fill="midnightblue" stroke="midnightblue" points="945.45,-188.58 937.75,-195.87 948.31,-194.97 945.45,-188.58"/>
</g>
<!-- Node21 -->
<g id="node21" class="node">
<title>Node21</title>
<g id="a_node21"><a xlink:href="GameWonBehaviour_8hpp.html" target="_top" xlink:title=" ">
<polygon fill="none" stroke="black" points="855,-123.5 855,-153.5 982,-153.5 982,-123.5 855,-123.5"/>
<text text-anchor="start" x="863" y="-141.5" font-family="Helvetica,sans-Serif" font-size="10.00">src/Scripts/Common</text>
<text text-anchor="middle" x="918.5" y="-130.5" font-family="Helvetica,sans-Serif" font-size="10.00">/GameWonBehaviour.hpp</text>
</a>
</g>
</g>
<!-- Node18&#45;&gt;Node21 -->
<g id="edge29" class="edge">
<title>Node18&#45;&gt;Node21</title>
<path fill="none" stroke="midnightblue" d="M918.5,-185.41C918.5,-175.22 918.5,-162.9 918.5,-153.59"/>
<polygon fill="midnightblue" stroke="midnightblue" points="915,-185.73 918.5,-195.73 922,-185.73 915,-185.73"/>
</g>
<!-- Node23 -->
<g id="node23" class="node">
<title>Node23</title>
<g id="a_node23"><a xlink:href="LevelData_8cpp.html" target="_top" xlink:title=" ">
<polygon fill="none" stroke="black" points="1145.5,-129 1145.5,-148 1275.5,-148 1275.5,-129 1145.5,-129"/>
<text text-anchor="middle" x="1210.5" y="-136" font-family="Helvetica,sans-Serif" font-size="10.00">src/Structs/LevelData.cpp</text>
</a>
</g>
</g>
<!-- Node18&#45;&gt;Node23 -->
<g id="edge33" class="edge">
<title>Node18&#45;&gt;Node23</title>
<path fill="none" stroke="midnightblue" d="M966.91,-193.72C1024.41,-180.92 1119.16,-159.83 1171.94,-148.08"/>
<polygon fill="midnightblue" stroke="midnightblue" points="965.97,-190.35 956.97,-195.94 967.5,-197.18 965.97,-190.35"/>
</g>
<!-- Node19&#45;&gt;Node12 -->
<g id="edge26" class="edge">
<title>Node19&#45;&gt;Node12</title>
<path fill="none" stroke="midnightblue" d="M1066.86,-113.25C1068.41,-102.02 1070.16,-89.38 1071.3,-81.19"/>
<polygon fill="midnightblue" stroke="midnightblue" points="1063.36,-113.01 1065.45,-123.4 1070.29,-113.97 1063.36,-113.01"/>
</g>
<!-- Node19&#45;&gt;Node13 -->
<g id="edge27" class="edge">
<title>Node19&#45;&gt;Node13</title>
<path fill="none" stroke="midnightblue" d="M1022.83,-119.27C999.74,-108.92 971.26,-96.15 949.9,-86.58"/>
<polygon fill="midnightblue" stroke="midnightblue" points="1021.48,-122.5 1032.04,-123.4 1024.34,-116.11 1021.48,-122.5"/>
</g>
<!-- Node20 -->
<g id="node20" class="node">
<title>Node20</title>
<g id="a_node20"><a xlink:href="GameLostBehaviour_8cpp.html" target="_top" xlink:title=" ">
<polygon fill="none" stroke="black" points="1174,-56.5 1174,-86.5 1301,-86.5 1301,-56.5 1174,-56.5"/>
<text text-anchor="start" x="1182" y="-74.5" font-family="Helvetica,sans-Serif" font-size="10.00">src/Scripts/Common</text>
<text text-anchor="middle" x="1237.5" y="-63.5" font-family="Helvetica,sans-Serif" font-size="10.00">/GameLostBehaviour.cpp</text>
</a>
</g>
</g>
<!-- Node19&#45;&gt;Node20 -->
<g id="edge28" class="edge">
<title>Node19&#45;&gt;Node20</title>
<path fill="none" stroke="midnightblue" d="M1110.83,-119.82C1138.8,-109.37 1173.73,-96.32 1199.82,-86.58"/>
<polygon fill="midnightblue" stroke="midnightblue" points="1109.4,-116.62 1101.26,-123.4 1111.85,-123.18 1109.4,-116.62"/>
</g>
<!-- Node21&#45;&gt;Node12 -->
<g id="edge30" class="edge">
<title>Node21&#45;&gt;Node12</title>
<path fill="none" stroke="midnightblue" d="M961.24,-119.46C991,-106.9 1029.32,-90.72 1052.34,-81.01"/>
<polygon fill="midnightblue" stroke="midnightblue" points="959.77,-116.28 951.92,-123.4 962.49,-122.73 959.77,-116.28"/>
</g>
<!-- Node21&#45;&gt;Node13 -->
<g id="edge31" class="edge">
<title>Node21&#45;&gt;Node13</title>
<path fill="none" stroke="midnightblue" d="M918.5,-113.11C918.5,-104.15 918.5,-94.32 918.5,-86.58"/>
<polygon fill="midnightblue" stroke="midnightblue" points="915,-113.4 918.5,-123.4 922,-113.4 915,-113.4"/>
</g>
<!-- Node22 -->
<g id="node22" class="node">
<title>Node22</title>
<g id="a_node22"><a xlink:href="GameWonBehaviour_8cpp.html" target="_top" xlink:title=" ">
<polygon fill="none" stroke="black" points="720,-56.5 720,-86.5 847,-86.5 847,-56.5 720,-56.5"/>
<text text-anchor="start" x="728" y="-74.5" font-family="Helvetica,sans-Serif" font-size="10.00">src/Scripts/Common</text>
<text text-anchor="middle" x="783.5" y="-63.5" font-family="Helvetica,sans-Serif" font-size="10.00">/GameWonBehaviour.cpp</text>
</a>
</g>
</g>
<!-- Node21&#45;&gt;Node22 -->
<g id="edge32" class="edge">
<title>Node21&#45;&gt;Node22</title>
<path fill="none" stroke="midnightblue" d="M880.06,-118.99C858.66,-108.69 832.45,-96.07 812.74,-86.58"/>
<polygon fill="midnightblue" stroke="midnightblue" points="878.68,-122.21 889.21,-123.4 881.72,-115.9 878.68,-122.21"/>
</g>
<!-- Node24&#45;&gt;Node3 -->
<g id="edge35" class="edge">
<title>Node24&#45;&gt;Node3</title>
<path fill="none" stroke="midnightblue" d="M458.66,-247.98C449.89,-231.46 435.24,-207.03 417.5,-190 401.91,-175.03 381.12,-162.49 364.12,-153.64"/>
<polygon fill="midnightblue" stroke="midnightblue" points="455.66,-249.8 463.32,-257.11 461.89,-246.62 455.66,-249.8"/>
</g>
<!-- Node24&#45;&gt;Node10 -->
<g id="edge36" class="edge">
<title>Node24&#45;&gt;Node10</title>
<path fill="none" stroke="midnightblue" d="M438.96,-253.33C412.95,-241.78 375.24,-225.03 352.66,-215.01"/>
<polygon fill="midnightblue" stroke="midnightblue" points="437.74,-256.62 448.3,-257.48 440.58,-250.22 437.74,-256.62"/>
</g>
<!-- Node25 -->
<g id="node25" class="node">
<title>Node25</title>
<g id="a_node25"><a xlink:href="Tile_8cpp.html" target="_top" xlink:title=" ">
<polygon fill="none" stroke="black" points="465,-196 465,-215 566,-215 566,-196 465,-196"/>
<text text-anchor="middle" x="515.5" y="-203" font-family="Helvetica,sans-Serif" font-size="10.00">src/Structs/Tile.cpp</text>
</a>
</g>
</g>
<!-- Node24&#45;&gt;Node25 -->
<g id="edge37" class="edge">
<title>Node24&#45;&gt;Node25</title>
<path fill="none" stroke="midnightblue" d="M480.67,-249.67C489.72,-238.45 501.37,-224.02 508.64,-215.01"/>
<polygon fill="midnightblue" stroke="midnightblue" points="477.93,-247.49 474.38,-257.48 483.38,-251.89 477.93,-247.49"/>
</g>
<!-- Node26&#45;&gt;Node12 -->
<g id="edge39" class="edge">
<title>Node26&#45;&gt;Node12</title>
<path fill="none" stroke="midnightblue" d="M1169.65,-253.5C1224.02,-229.89 1326.61,-176.32 1284.5,-123 1274.39,-110.2 1181.65,-91.72 1122.22,-81.03"/>
<polygon fill="midnightblue" stroke="midnightblue" points="1168.26,-250.29 1160.42,-257.42 1170.99,-256.73 1168.26,-250.29"/>
</g>
<!-- Node27 -->
<g id="node27" class="node">
<title>Node27</title>
<g id="a_node27"><a xlink:href="TileUtil_8cpp.html" target="_top" xlink:title=" ">
<polygon fill="none" stroke="black" points="1086,-196 1086,-215 1191,-215 1191,-196 1086,-196"/>
<text text-anchor="middle" x="1138.5" y="-203" font-family="Helvetica,sans-Serif" font-size="10.00">src/Utils/TileUtil.cpp</text>
</a>
</g>
</g>
<!-- Node26&#45;&gt;Node27 -->
<g id="edge40" class="edge">
<title>Node26&#45;&gt;Node27</title>
<path fill="none" stroke="midnightblue" d="M1138.5,-247.32C1138.5,-236.5 1138.5,-223.4 1138.5,-215.01"/>
<polygon fill="midnightblue" stroke="midnightblue" points="1135,-247.48 1138.5,-257.48 1142,-247.48 1135,-247.48"/>
</g>
</g>
</svg>
