<?xml version="1.0" encoding="UTF-8" standalone="no"?>
<!DOCTYPE svg PUBLIC "-//W3C//DTD SVG 1.1//EN"
 "http://www.w3.org/Graphics/SVG/1.1/DTD/svg11.dtd">
<!-- Generated by graphviz version 2.44.0 ()
 -->
<!-- Title: libs/spic&#45;engine/includes/spic&#45;api&#45;headers/Time.hpp Pages: 1 -->
<svg width="1720pt" height="162pt"
 viewBox="0.00 0.00 1720.00 162.00" xmlns="http://www.w3.org/2000/svg" xmlns:xlink="http://www.w3.org/1999/xlink">
<g id="graph0" class="graph" transform="scale(1 1) rotate(0) translate(4 158)">
<title>libs/spic&#45;engine/includes/spic&#45;api&#45;headers/Time.hpp</title>
<!-- Node1 -->
<g id="node1" class="node">
<title>Node1</title>
<g id="a_node1"><a xlink:title=" ">
<polygon fill="#bfbfbf" stroke="black" points="686,-123.5 686,-153.5 820,-153.5 820,-123.5 686,-123.5"/>
<text text-anchor="start" x="694" y="-141.5" font-family="Helvetica,sans-Serif" font-size="10.00">libs/spic&#45;engine/includes</text>
<text text-anchor="middle" x="753" y="-130.5" font-family="Helvetica,sans-Serif" font-size="10.00">/spic&#45;api&#45;headers/Time.hpp</text>
</a>
</g>
</g>
<!-- Node2 -->
<g id="node2" class="node">
<title>Node2</title>
<g id="a_node2"><a xlink:href="BulletBehaviour_8cpp.html" target="_top" xlink:title=" ">
<polygon fill="none" stroke="black" points="0,-56.5 0,-86.5 106,-86.5 106,-56.5 0,-56.5"/>
<text text-anchor="start" x="8" y="-74.5" font-family="Helvetica,sans-Serif" font-size="10.00">src/Scripts/Common</text>
<text text-anchor="middle" x="53" y="-63.5" font-family="Helvetica,sans-Serif" font-size="10.00">/BulletBehaviour.cpp</text>
</a>
</g>
</g>
<!-- Node1&#45;&gt;Node2 -->
<g id="edge1" class="edge">
<title>Node1&#45;&gt;Node2</title>
<path fill="none" stroke="midnightblue" d="M675.32,-135.13C554.75,-130.59 315.56,-118.21 115,-87 112.16,-86.56 109.26,-86.06 106.33,-85.51"/>
<polygon fill="midnightblue" stroke="midnightblue" points="675.44,-138.63 685.56,-135.5 675.69,-131.64 675.44,-138.63"/>
</g>
<!-- Node3 -->
<g id="node3" class="node">
<title>Node3</title>
<g id="a_node3"><a xlink:href="CoolDownBehaviour_8cpp.html" target="_top" xlink:title=" ">
<polygon fill="none" stroke="black" points="124.5,-56.5 124.5,-86.5 249.5,-86.5 249.5,-56.5 124.5,-56.5"/>
<text text-anchor="start" x="132.5" y="-74.5" font-family="Helvetica,sans-Serif" font-size="10.00">src/Scripts/Common</text>
<text text-anchor="middle" x="187" y="-63.5" font-family="Helvetica,sans-Serif" font-size="10.00">/CoolDownBehaviour.cpp</text>
</a>
</g>
</g>
<!-- Node1&#45;&gt;Node3 -->
<g id="edge2" class="edge">
<title>Node1&#45;&gt;Node3</title>
<path fill="none" stroke="midnightblue" d="M675.8,-132.02C578.16,-124.55 405.01,-109.45 258,-87 255.26,-86.58 252.47,-86.13 249.66,-85.65"/>
<polygon fill="midnightblue" stroke="midnightblue" points="675.64,-135.52 685.88,-132.79 676.17,-128.54 675.64,-135.52"/>
</g>
<!-- Node4 -->
<g id="node4" class="node">
<title>Node4</title>
<g id="a_node4"><a xlink:href="GameLostBehaviour_8cpp.html" target="_top" xlink:title=" ">
<polygon fill="none" stroke="black" points="267.5,-56.5 267.5,-86.5 394.5,-86.5 394.5,-56.5 267.5,-56.5"/>
<text text-anchor="start" x="275.5" y="-74.5" font-family="Helvetica,sans-Serif" font-size="10.00">src/Scripts/Common</text>
<text text-anchor="middle" x="331" y="-63.5" font-family="Helvetica,sans-Serif" font-size="10.00">/GameLostBehaviour.cpp</text>
</a>
</g>
</g>
<!-- Node1&#45;&gt;Node4 -->
<g id="edge3" class="edge">
<title>Node1&#45;&gt;Node4</title>
<path fill="none" stroke="midnightblue" d="M675.75,-127.5C604.91,-118.06 497.17,-102.98 404,-87 400.94,-86.48 397.82,-85.92 394.66,-85.35"/>
<polygon fill="midnightblue" stroke="midnightblue" points="675.56,-131.01 685.93,-128.86 676.48,-124.07 675.56,-131.01"/>
</g>
<!-- Node5 -->
<g id="node5" class="node">
<title>Node5</title>
<g id="a_node5"><a xlink:href="HealthBehaviour_8cpp.html" target="_top" xlink:title=" ">
<polygon fill="none" stroke="black" points="413,-56.5 413,-86.5 523,-86.5 523,-56.5 413,-56.5"/>
<text text-anchor="start" x="421" y="-74.5" font-family="Helvetica,sans-Serif" font-size="10.00">src/Scripts/Common</text>
<text text-anchor="middle" x="468" y="-63.5" font-family="Helvetica,sans-Serif" font-size="10.00">/HealthBehaviour.cpp</text>
</a>
</g>
</g>
<!-- Node1&#45;&gt;Node5 -->
<g id="edge4" class="edge">
<title>Node1&#45;&gt;Node5</title>
<path fill="none" stroke="midnightblue" d="M681.59,-121.21C632.5,-110.02 568.27,-95.37 523.11,-85.07"/>
<polygon fill="midnightblue" stroke="midnightblue" points="680.98,-124.66 691.51,-123.48 682.54,-117.84 680.98,-124.66"/>
</g>
<!-- Node6 -->
<g id="node6" class="node">
<title>Node6</title>
<g id="a_node6"><a xlink:href="AirstrikeAbilityBehaviour_8cpp.html" target="_top" xlink:title=" ">
<polygon fill="none" stroke="black" points="541.5,-56.5 541.5,-86.5 684.5,-86.5 684.5,-56.5 541.5,-56.5"/>
<text text-anchor="start" x="549.5" y="-74.5" font-family="Helvetica,sans-Serif" font-size="10.00">src/Scripts/Heroes</text>
<text text-anchor="middle" x="613" y="-63.5" font-family="Helvetica,sans-Serif" font-size="10.00">/AirstrikeAbilityBehaviour.cpp</text>
</a>
</g>
</g>
<!-- Node1&#45;&gt;Node6 -->
<g id="edge5" class="edge">
<title>Node1&#45;&gt;Node6</title>
<path fill="none" stroke="midnightblue" d="M713.43,-119.13C691.19,-108.8 663.85,-96.11 643.32,-86.58"/>
<polygon fill="midnightblue" stroke="midnightblue" points="712.08,-122.36 722.62,-123.4 715.03,-116.01 712.08,-122.36"/>
</g>
<!-- Node7 -->
<g id="node7" class="node">
<title>Node7</title>
<g id="a_node7"><a xlink:href="src_2Api_2Time_8cpp.html" target="_top" xlink:title=" ">
<polygon fill="none" stroke="black" points="702.5,-56.5 702.5,-86.5 803.5,-86.5 803.5,-56.5 702.5,-56.5"/>
<text text-anchor="start" x="710.5" y="-74.5" font-family="Helvetica,sans-Serif" font-size="10.00">libs/spic&#45;engine/src</text>
<text text-anchor="middle" x="753" y="-63.5" font-family="Helvetica,sans-Serif" font-size="10.00">/Api/Time.cpp</text>
</a>
</g>
</g>
<!-- Node1&#45;&gt;Node7 -->
<g id="edge6" class="edge">
<title>Node1&#45;&gt;Node7</title>
<path fill="none" stroke="midnightblue" d="M753,-113.11C753,-104.15 753,-94.32 753,-86.58"/>
<polygon fill="midnightblue" stroke="midnightblue" points="749.5,-113.4 753,-123.4 756.5,-113.4 749.5,-113.4"/>
</g>
<!-- Node8 -->
<g id="node8" class="node">
<title>Node8</title>
<g id="a_node8"><a xlink:href="AnimatorSubsystem_8cpp.html" target="_top" xlink:title=" ">
<polygon fill="none" stroke="black" points="822,-56.5 822,-86.5 1004,-86.5 1004,-56.5 822,-56.5"/>
<text text-anchor="start" x="830" y="-74.5" font-family="Helvetica,sans-Serif" font-size="10.00">libs/spic&#45;engine/src</text>
<text text-anchor="middle" x="913" y="-63.5" font-family="Helvetica,sans-Serif" font-size="10.00">/Subsystems/AnimatorSubsystem.cpp</text>
</a>
</g>
</g>
<!-- Node1&#45;&gt;Node8 -->
<g id="edge7" class="edge">
<title>Node1&#45;&gt;Node8</title>
<path fill="none" stroke="midnightblue" d="M797.2,-119.54C822.8,-109.14 854.57,-96.24 878.35,-86.58"/>
<polygon fill="midnightblue" stroke="midnightblue" points="795.66,-116.39 787.72,-123.4 798.3,-122.87 795.66,-116.39"/>
</g>
<!-- Node9 -->
<g id="node9" class="node">
<title>Node9</title>
<g id="a_node9"><a xlink:href="GameSpeedSubsystem_8cpp.html" target="_top" xlink:title=" ">
<polygon fill="none" stroke="black" points="1022.5,-56.5 1022.5,-86.5 1219.5,-86.5 1219.5,-56.5 1022.5,-56.5"/>
<text text-anchor="start" x="1030.5" y="-74.5" font-family="Helvetica,sans-Serif" font-size="10.00">libs/spic&#45;engine/src</text>
<text text-anchor="middle" x="1121" y="-63.5" font-family="Helvetica,sans-Serif" font-size="10.00">/Subsystems/GameSpeedSubsystem.cpp</text>
</a>
</g>
</g>
<!-- Node1&#45;&gt;Node9 -->
<g id="edge8" class="edge">
<title>Node1&#45;&gt;Node9</title>
<path fill="none" stroke="midnightblue" d="M830.19,-123.87C892.21,-112.91 978.99,-97.58 1041.59,-86.53"/>
<polygon fill="midnightblue" stroke="midnightblue" points="829.31,-120.47 820.07,-125.65 830.53,-127.36 829.31,-120.47"/>
</g>
<!-- Node10 -->
<g id="node10" class="node">
<title>Node10</title>
<g id="a_node10"><a xlink:href="PhysicsSubsystem_8cpp.html" target="_top" xlink:title=" ">
<polygon fill="none" stroke="black" points="1238,-56.5 1238,-86.5 1416,-86.5 1416,-56.5 1238,-56.5"/>
<text text-anchor="start" x="1246" y="-74.5" font-family="Helvetica,sans-Serif" font-size="10.00">libs/spic&#45;engine/src</text>
<text text-anchor="middle" x="1327" y="-63.5" font-family="Helvetica,sans-Serif" font-size="10.00">/Subsystems/PhysicsSubsystem.cpp</text>
</a>
</g>
</g>
<!-- Node1&#45;&gt;Node10 -->
<g id="edge9" class="edge">
<title>Node1&#45;&gt;Node10</title>
<path fill="none" stroke="midnightblue" d="M830.36,-130.22C924.46,-121.15 1088.09,-104.68 1228,-87 1231.27,-86.59 1234.61,-86.15 1237.97,-85.71"/>
<polygon fill="midnightblue" stroke="midnightblue" points="829.97,-126.74 820.35,-131.18 830.64,-133.71 829.97,-126.74"/>
</g>
<!-- Node11 -->
<g id="node11" class="node">
<title>Node11</title>
<g id="a_node11"><a xlink:href="Api_8hpp.html" target="_top" xlink:title=" ">
<polygon fill="none" stroke="black" points="1434,-56.5 1434,-86.5 1560,-86.5 1560,-56.5 1434,-56.5"/>
<text text-anchor="start" x="1442" y="-74.5" font-family="Helvetica,sans-Serif" font-size="10.00">libs/spic&#45;engine/includes</text>
<text text-anchor="middle" x="1497" y="-63.5" font-family="Helvetica,sans-Serif" font-size="10.00">/spic&#45;api&#45;headers/Api.hpp</text>
</a>
</g>
</g>
<!-- Node1&#45;&gt;Node11 -->
<g id="edge10" class="edge">
<title>Node1&#45;&gt;Node11</title>
<path fill="none" stroke="midnightblue" d="M830.32,-134.8C955.66,-129.73 1210.81,-116.5 1425,-87 1427.91,-86.6 1430.87,-86.15 1433.86,-85.68"/>
<polygon fill="midnightblue" stroke="midnightblue" points="829.91,-131.31 820.06,-135.21 830.19,-138.31 829.91,-131.31"/>
</g>
<!-- Node14 -->
<g id="node14" class="node">
<title>Node14</title>
<g id="a_node14"><a xlink:href="includes_2spic-api-headers_2Time_8cpp.html" target="_top" xlink:title=" ">
<polygon fill="none" stroke="black" points="1578,-56.5 1578,-86.5 1712,-86.5 1712,-56.5 1578,-56.5"/>
<text text-anchor="start" x="1586" y="-74.5" font-family="Helvetica,sans-Serif" font-size="10.00">libs/spic&#45;engine/includes</text>
<text text-anchor="middle" x="1645" y="-63.5" font-family="Helvetica,sans-Serif" font-size="10.00">/spic&#45;api&#45;headers/Time.cpp</text>
</a>
</g>
</g>
<!-- Node1&#45;&gt;Node14 -->
<g id="edge13" class="edge">
<title>Node1&#45;&gt;Node14</title>
<path fill="none" stroke="midnightblue" d="M830.32,-135.98C975.57,-132.39 1298.93,-120.98 1569,-87 1571.93,-86.63 1574.92,-86.22 1577.94,-85.77"/>
<polygon fill="midnightblue" stroke="midnightblue" points="830.08,-132.48 820.17,-136.22 830.25,-139.48 830.08,-132.48"/>
</g>
<!-- Node12 -->
<g id="node12" class="node">
<title>Node12</title>
<g id="a_node12"><a xlink:href="LevelController_8cpp.html" target="_top" xlink:title=" ">
<polygon fill="none" stroke="black" points="1345,-0.5 1345,-19.5 1511,-19.5 1511,-0.5 1345,-0.5"/>
<text text-anchor="middle" x="1428" y="-7.5" font-family="Helvetica,sans-Serif" font-size="10.00">src/Controllers/LevelController.cpp</text>
</a>
</g>
</g>
<!-- Node11&#45;&gt;Node12 -->
<g id="edge11" class="edge">
<title>Node11&#45;&gt;Node12</title>
<path fill="none" stroke="midnightblue" d="M1472.76,-49.6C1460.84,-39.32 1447.11,-27.48 1438.04,-19.66"/>
<polygon fill="midnightblue" stroke="midnightblue" points="1470.79,-52.52 1480.65,-56.4 1475.36,-47.22 1470.79,-52.52"/>
</g>
<!-- Node13 -->
<g id="node13" class="node">
<title>Node13</title>
<g id="a_node13"><a xlink:href="main_8cpp.html" target="_top" xlink:title=" ">
<polygon fill="none" stroke="black" points="1529,-0.5 1529,-19.5 1601,-19.5 1601,-0.5 1529,-0.5"/>
<text text-anchor="middle" x="1565" y="-7.5" font-family="Helvetica,sans-Serif" font-size="10.00">src/main.cpp</text>
</a>
</g>
</g>
<!-- Node11&#45;&gt;Node13 -->
<g id="edge12" class="edge">
<title>Node11&#45;&gt;Node13</title>
<path fill="none" stroke="midnightblue" d="M1520.89,-49.6C1532.64,-39.32 1546.16,-27.48 1555.11,-19.66"/>
<polygon fill="midnightblue" stroke="midnightblue" points="1518.34,-47.18 1513.12,-56.4 1522.95,-52.45 1518.34,-47.18"/>
</g>
</g>
</svg>
