<?xml version="1.0" encoding="UTF-8" standalone="no"?>
<!DOCTYPE svg PUBLIC "-//W3C//DTD SVG 1.1//EN"
 "http://www.w3.org/Graphics/SVG/1.1/DTD/svg11.dtd">
<!-- Generated by graphviz version 2.44.0 ()
 -->
<!-- Title: src/Factories/TowerPrefabFactory.hpp Pages: 1 -->
<svg width="659pt" height="386pt"
 viewBox="0.00 0.00 658.50 386.00" xmlns="http://www.w3.org/2000/svg" xmlns:xlink="http://www.w3.org/1999/xlink">
<g id="graph0" class="graph" transform="scale(1 1) rotate(0) translate(4 382)">
<title>src/Factories/TowerPrefabFactory.hpp</title>
<!-- Node1 -->
<g id="node1" class="node">
<title>Node1</title>
<g id="a_node1"><a xlink:title=" ">
<polygon fill="#bfbfbf" stroke="black" points="340,-347.5 340,-377.5 472,-377.5 472,-347.5 340,-347.5"/>
<text text-anchor="start" x="348" y="-365.5" font-family="Helvetica,sans-Serif" font-size="10.00">src/Factories/TowerPrefab</text>
<text text-anchor="middle" x="406" y="-354.5" font-family="Helvetica,sans-Serif" font-size="10.00">Factory.hpp</text>
</a>
</g>
</g>
<!-- Node2 -->
<g id="node2" class="node">
<title>Node2</title>
<g id="a_node2"><a xlink:href="TowerName_8hpp.html" target="_top" xlink:title=" ">
<polygon fill="none" stroke="black" points="104,-286 104,-305 232,-305 232,-286 104,-286"/>
<text text-anchor="middle" x="168" y="-293" font-family="Helvetica,sans-Serif" font-size="10.00">../Enums/TowerName.hpp</text>
</a>
</g>
</g>
<!-- Node1&#45;&gt;Node2 -->
<g id="edge1" class="edge">
<title>Node1&#45;&gt;Node2</title>
<path fill="none" stroke="midnightblue" d="M354.65,-347.48C311.06,-335.57 249.34,-318.72 209,-307.7"/>
<polygon fill="midnightblue" stroke="midnightblue" points="209.8,-304.29 199.23,-305.03 207.95,-311.04 209.8,-304.29"/>
</g>
<!-- Node3 -->
<g id="node3" class="node">
<title>Node3</title>
<g id="a_node3"><a xlink:href="AttackBehaviour_8hpp.html" target="_top" xlink:title=" ">
<polygon fill="none" stroke="black" points="250,-280.5 250,-310.5 378,-310.5 378,-280.5 250,-280.5"/>
<text text-anchor="start" x="258" y="-298.5" font-family="Helvetica,sans-Serif" font-size="10.00">../Scripts/Common/Attack</text>
<text text-anchor="middle" x="314" y="-287.5" font-family="Helvetica,sans-Serif" font-size="10.00">Behaviour.hpp</text>
</a>
</g>
</g>
<!-- Node1&#45;&gt;Node3 -->
<g id="edge2" class="edge">
<title>Node1&#45;&gt;Node3</title>
<path fill="none" stroke="midnightblue" d="M386.04,-347.4C373.26,-338.37 356.48,-326.51 342.33,-316.52"/>
<polygon fill="midnightblue" stroke="midnightblue" points="344.11,-313.49 333.92,-310.58 340.07,-319.21 344.11,-313.49"/>
</g>
<!-- Node16 -->
<g id="node16" class="node">
<title>Node16</title>
<g id="a_node16"><a xlink:href="AnimatorUtil_8hpp.html" target="_top" xlink:title=" ">
<polygon fill="none" stroke="black" points="308.5,-168.5 308.5,-187.5 427.5,-187.5 427.5,-168.5 308.5,-168.5"/>
<text text-anchor="middle" x="368" y="-175.5" font-family="Helvetica,sans-Serif" font-size="10.00">../Utils/AnimatorUtil.hpp</text>
</a>
</g>
</g>
<!-- Node1&#45;&gt;Node16 -->
<g id="edge21" class="edge">
<title>Node1&#45;&gt;Node16</title>
<path fill="none" stroke="midnightblue" d="M414.51,-347.37C428.92,-321.44 454.56,-265.16 433,-224 425.72,-210.11 411.99,-199.65 399.02,-192.33"/>
<polygon fill="midnightblue" stroke="midnightblue" points="400.3,-189.05 389.81,-187.55 397.07,-195.27 400.3,-189.05"/>
</g>
<!-- Node17 -->
<g id="node17" class="node">
<title>Node17</title>
<g id="a_node17"><a xlink:href="GameObject_8hpp.html" target="_top" xlink:title=" ">
<polygon fill="none" stroke="black" points="445.5,-168.5 445.5,-187.5 534.5,-187.5 534.5,-168.5 445.5,-168.5"/>
<text text-anchor="middle" x="490" y="-175.5" font-family="Helvetica,sans-Serif" font-size="10.00">GameObject.hpp</text>
</a>
</g>
</g>
<!-- Node1&#45;&gt;Node17 -->
<g id="edge26" class="edge">
<title>Node1&#45;&gt;Node17</title>
<path fill="none" stroke="midnightblue" d="M420.92,-347.23C430.13,-337.72 441.56,-324.52 449,-311 469.66,-273.48 481.44,-224.11 486.68,-197.65"/>
<polygon fill="midnightblue" stroke="midnightblue" points="490.12,-198.29 488.53,-187.82 483.24,-197 490.12,-198.29"/>
</g>
<!-- Node4 -->
<g id="node4" class="node">
<title>Node4</title>
<g id="a_node4"><a xlink:href="BehaviourScript_8hpp.html" target="_top" xlink:title=" ">
<polygon fill="none" stroke="black" points="0,-168.5 0,-187.5 104,-187.5 104,-168.5 0,-168.5"/>
<text text-anchor="middle" x="52" y="-175.5" font-family="Helvetica,sans-Serif" font-size="10.00">BehaviourScript.hpp</text>
</a>
</g>
</g>
<!-- Node3&#45;&gt;Node4 -->
<g id="edge3" class="edge">
<title>Node3&#45;&gt;Node4</title>
<path fill="none" stroke="midnightblue" d="M249.78,-281.57C178.35,-267.12 72.67,-245.55 71,-244 58.32,-232.29 53.94,-212.65 52.5,-198.01"/>
<polygon fill="midnightblue" stroke="midnightblue" points="55.97,-197.37 51.88,-187.59 48.98,-197.78 55.97,-197.37"/>
</g>
<!-- Node8 -->
<g id="node8" class="node">
<title>Node8</title>
<g id="a_node8"><a xlink:href="CoolDownBehaviour_8hpp.html" target="_top" xlink:title=" ">
<polygon fill="none" stroke="black" points="80,-224.5 80,-243.5 202,-243.5 202,-224.5 80,-224.5"/>
<text text-anchor="middle" x="141" y="-231.5" font-family="Helvetica,sans-Serif" font-size="10.00">CoolDownBehaviour.hpp</text>
</a>
</g>
</g>
<!-- Node3&#45;&gt;Node8 -->
<g id="edge8" class="edge">
<title>Node3&#45;&gt;Node8</title>
<path fill="none" stroke="midnightblue" d="M273,-280.4C243.37,-270.21 203.77,-256.59 175.7,-246.93"/>
<polygon fill="midnightblue" stroke="midnightblue" points="176.52,-243.51 165.92,-243.57 174.24,-250.13 176.52,-243.51"/>
</g>
<!-- Node9 -->
<g id="node9" class="node">
<title>Node9</title>
<g id="a_node9"><a xlink:href="BulletType_8hpp.html" target="_top" xlink:title=" ">
<polygon fill="none" stroke="black" points="296,-224.5 296,-243.5 424,-243.5 424,-224.5 296,-224.5"/>
<text text-anchor="middle" x="360" y="-231.5" font-family="Helvetica,sans-Serif" font-size="10.00">../../Enums/BulletType.hpp</text>
</a>
</g>
</g>
<!-- Node3&#45;&gt;Node9 -->
<g id="edge10" class="edge">
<title>Node3&#45;&gt;Node9</title>
<path fill="none" stroke="midnightblue" d="M324.9,-280.4C331.59,-271.75 340.18,-260.64 347.18,-251.58"/>
<polygon fill="midnightblue" stroke="midnightblue" points="349.96,-253.71 353.31,-243.66 344.42,-249.43 349.96,-253.71"/>
</g>
<!-- Node10 -->
<g id="node10" class="node">
<title>Node10</title>
<g id="a_node10"><a xlink:href="Animator_8hpp.html" target="_top" xlink:title=" ">
<polygon fill="none" stroke="black" points="166,-168.5 166,-187.5 240,-187.5 240,-168.5 166,-168.5"/>
<text text-anchor="middle" x="203" y="-175.5" font-family="Helvetica,sans-Serif" font-size="10.00">Animator.hpp</text>
</a>
</g>
</g>
<!-- Node3&#45;&gt;Node10 -->
<g id="edge11" class="edge">
<title>Node3&#45;&gt;Node10</title>
<path fill="none" stroke="midnightblue" d="M295.29,-280.39C283,-270.74 266.87,-257.32 254,-244 239.42,-228.91 224.86,-209.85 215.05,-196.28"/>
<polygon fill="midnightblue" stroke="midnightblue" points="217.72,-194 209.07,-187.88 212.01,-198.05 217.72,-194"/>
</g>
<!-- Node13 -->
<g id="node13" class="node">
<title>Node13</title>
<g id="a_node13"><a xlink:title=" ">
<polygon fill="none" stroke="#bfbfbf" points="302.5,-56.5 302.5,-75.5 343.5,-75.5 343.5,-56.5 302.5,-56.5"/>
<text text-anchor="middle" x="323" y="-63.5" font-family="Helvetica,sans-Serif" font-size="10.00">string</text>
</a>
</g>
</g>
<!-- Node3&#45;&gt;Node13 -->
<g id="edge20" class="edge">
<title>Node3&#45;&gt;Node13</title>
<path fill="none" stroke="midnightblue" d="M303.93,-280.26C297.7,-270.55 290.29,-257.12 287,-244 272.74,-187.09 267.58,-167.36 287,-112 290.79,-101.21 298.37,-91.08 305.6,-83.18"/>
<polygon fill="midnightblue" stroke="midnightblue" points="308.33,-85.4 312.84,-75.81 303.33,-80.49 308.33,-85.4"/>
</g>
<!-- Node15 -->
<g id="node15" class="node">
<title>Node15</title>
<g id="a_node15"><a xlink:href="Point_8hpp.html" target="_top" xlink:title=" ">
<polygon fill="none" stroke="black" points="593.5,-56.5 593.5,-75.5 650.5,-75.5 650.5,-56.5 593.5,-56.5"/>
<text text-anchor="middle" x="622" y="-63.5" font-family="Helvetica,sans-Serif" font-size="10.00">Point.hpp</text>
</a>
</g>
</g>
<!-- Node3&#45;&gt;Node15 -->
<g id="edge19" class="edge">
<title>Node3&#45;&gt;Node15</title>
<path fill="none" stroke="midnightblue" d="M378.01,-283.93C455.96,-267.16 583.8,-226.13 637,-132 645.35,-117.23 639.23,-98.09 632.47,-84.41"/>
<polygon fill="midnightblue" stroke="midnightblue" points="635.5,-82.65 627.64,-75.55 629.36,-86.01 635.5,-82.65"/>
</g>
<!-- Node5 -->
<g id="node5" class="node">
<title>Node5</title>
<g id="a_node5"><a xlink:href="Component_8hpp.html" target="_top" xlink:title=" ">
<polygon fill="none" stroke="black" points="40,-56.5 40,-75.5 124,-75.5 124,-56.5 40,-56.5"/>
<text text-anchor="middle" x="82" y="-63.5" font-family="Helvetica,sans-Serif" font-size="10.00">Component.hpp</text>
</a>
</g>
</g>
<!-- Node4&#45;&gt;Node5 -->
<g id="edge4" class="edge">
<title>Node4&#45;&gt;Node5</title>
<path fill="none" stroke="midnightblue" d="M39.19,-168.43C22.63,-156.24 -2.74,-133.03 9,-112 17.16,-97.39 32.22,-86.94 46.55,-79.8"/>
<polygon fill="midnightblue" stroke="midnightblue" points="48.15,-82.92 55.79,-75.59 45.24,-76.56 48.15,-82.92"/>
</g>
<!-- Node7 -->
<g id="node7" class="node">
<title>Node7</title>
<g id="a_node7"><a xlink:href="Collider_8hpp.html" target="_top" xlink:title=" ">
<polygon fill="none" stroke="black" points="18.5,-112.5 18.5,-131.5 85.5,-131.5 85.5,-112.5 18.5,-112.5"/>
<text text-anchor="middle" x="52" y="-119.5" font-family="Helvetica,sans-Serif" font-size="10.00">Collider.hpp</text>
</a>
</g>
</g>
<!-- Node4&#45;&gt;Node7 -->
<g id="edge6" class="edge">
<title>Node4&#45;&gt;Node7</title>
<path fill="none" stroke="midnightblue" d="M52,-168.08C52,-161.01 52,-150.86 52,-141.99"/>
<polygon fill="midnightblue" stroke="midnightblue" points="55.5,-141.75 52,-131.75 48.5,-141.75 55.5,-141.75"/>
</g>
<!-- Node6 -->
<g id="node6" class="node">
<title>Node6</title>
<g id="a_node6"><a xlink:title=" ">
<polygon fill="none" stroke="#bfbfbf" points="291.5,-0.5 291.5,-19.5 342.5,-19.5 342.5,-0.5 291.5,-0.5"/>
<text text-anchor="middle" x="317" y="-7.5" font-family="Helvetica,sans-Serif" font-size="10.00">memory</text>
</a>
</g>
</g>
<!-- Node5&#45;&gt;Node6 -->
<g id="edge5" class="edge">
<title>Node5&#45;&gt;Node6</title>
<path fill="none" stroke="midnightblue" d="M119.24,-56.44C163.69,-46.23 237.5,-29.27 281.27,-19.21"/>
<polygon fill="midnightblue" stroke="midnightblue" points="282.23,-22.58 291.19,-16.93 280.66,-15.76 282.23,-22.58"/>
</g>
<!-- Node7&#45;&gt;Node5 -->
<g id="edge7" class="edge">
<title>Node7&#45;&gt;Node5</title>
<path fill="none" stroke="midnightblue" d="M56.95,-112.08C61.1,-104.61 67.15,-93.72 72.27,-84.52"/>
<polygon fill="midnightblue" stroke="midnightblue" points="75.34,-86.19 77.14,-75.75 69.22,-82.79 75.34,-86.19"/>
</g>
<!-- Node8&#45;&gt;Node4 -->
<g id="edge9" class="edge">
<title>Node8&#45;&gt;Node4</title>
<path fill="none" stroke="midnightblue" d="M126.7,-224.32C112.82,-215.9 91.51,-202.97 75.2,-193.07"/>
<polygon fill="midnightblue" stroke="midnightblue" points="76.63,-189.85 66.26,-187.65 73,-195.83 76.63,-189.85"/>
</g>
<!-- Node10&#45;&gt;Node5 -->
<g id="edge12" class="edge">
<title>Node10&#45;&gt;Node5</title>
<path fill="none" stroke="midnightblue" d="M188.54,-168.48C174.84,-160.07 154.02,-146.41 138,-132 121.47,-117.13 105.17,-97.49 94.46,-83.71"/>
<polygon fill="midnightblue" stroke="midnightblue" points="97.13,-81.44 88.28,-75.61 91.56,-85.68 97.13,-81.44"/>
</g>
<!-- Node10&#45;&gt;Node6 -->
<g id="edge18" class="edge">
<title>Node10&#45;&gt;Node6</title>
<path fill="none" stroke="midnightblue" d="M194.25,-168.29C186.44,-159.84 175.55,-146.25 171,-132 165.79,-115.68 161.39,-71.22 173,-56 198.09,-23.12 247.02,-13.68 280.83,-11.27"/>
<polygon fill="midnightblue" stroke="midnightblue" points="281.43,-14.75 291.23,-10.72 281.05,-7.76 281.43,-14.75"/>
</g>
<!-- Node11 -->
<g id="node11" class="node">
<title>Node11</title>
<g id="a_node11"><a xlink:href="Sprite_8hpp.html" target="_top" xlink:title=" ">
<polygon fill="none" stroke="black" points="180,-112.5 180,-131.5 240,-131.5 240,-112.5 180,-112.5"/>
<text text-anchor="middle" x="210" y="-119.5" font-family="Helvetica,sans-Serif" font-size="10.00">Sprite.hpp</text>
</a>
</g>
</g>
<!-- Node10&#45;&gt;Node11 -->
<g id="edge13" class="edge">
<title>Node10&#45;&gt;Node11</title>
<path fill="none" stroke="midnightblue" d="M204.16,-168.08C205.08,-160.93 206.42,-150.64 207.58,-141.69"/>
<polygon fill="midnightblue" stroke="midnightblue" points="211.05,-142.12 208.87,-131.75 204.11,-141.22 211.05,-142.12"/>
</g>
<!-- Node14 -->
<g id="node14" class="node">
<title>Node14</title>
<g id="a_node14"><a xlink:title=" ">
<polygon fill="none" stroke="#bfbfbf" points="296,-112.5 296,-131.5 340,-131.5 340,-112.5 296,-112.5"/>
<text text-anchor="middle" x="318" y="-119.5" font-family="Helvetica,sans-Serif" font-size="10.00">vector</text>
</a>
</g>
</g>
<!-- Node10&#45;&gt;Node14 -->
<g id="edge17" class="edge">
<title>Node10&#45;&gt;Node14</title>
<path fill="none" stroke="midnightblue" d="M221.22,-168.44C239.9,-159.68 269.16,-145.94 290.62,-135.86"/>
<polygon fill="midnightblue" stroke="midnightblue" points="292.3,-138.93 299.86,-131.52 289.32,-132.6 292.3,-138.93"/>
</g>
<!-- Node11&#45;&gt;Node5 -->
<g id="edge14" class="edge">
<title>Node11&#45;&gt;Node5</title>
<path fill="none" stroke="midnightblue" d="M189.72,-112.44C168.65,-103.56 135.48,-89.56 111.51,-79.45"/>
<polygon fill="midnightblue" stroke="midnightblue" points="112.76,-76.18 102.19,-75.52 110.04,-82.63 112.76,-76.18"/>
</g>
<!-- Node12 -->
<g id="node12" class="node">
<title>Node12</title>
<g id="a_node12"><a xlink:href="Color_8hpp.html" target="_top" xlink:title=" ">
<polygon fill="none" stroke="black" points="181.5,-56.5 181.5,-75.5 238.5,-75.5 238.5,-56.5 181.5,-56.5"/>
<text text-anchor="middle" x="210" y="-63.5" font-family="Helvetica,sans-Serif" font-size="10.00">Color.hpp</text>
</a>
</g>
</g>
<!-- Node11&#45;&gt;Node12 -->
<g id="edge15" class="edge">
<title>Node11&#45;&gt;Node12</title>
<path fill="none" stroke="midnightblue" d="M210,-112.08C210,-105.01 210,-94.86 210,-85.99"/>
<polygon fill="midnightblue" stroke="midnightblue" points="213.5,-85.75 210,-75.75 206.5,-85.75 213.5,-85.75"/>
</g>
<!-- Node11&#45;&gt;Node13 -->
<g id="edge16" class="edge">
<title>Node11&#45;&gt;Node13</title>
<path fill="none" stroke="midnightblue" d="M227.91,-112.44C246.25,-103.68 275.01,-89.94 296.09,-79.86"/>
<polygon fill="midnightblue" stroke="midnightblue" points="297.67,-82.99 305.18,-75.52 294.65,-76.67 297.67,-82.99"/>
</g>
<!-- Node16&#45;&gt;Node6 -->
<g id="edge23" class="edge">
<title>Node16&#45;&gt;Node6</title>
<path fill="none" stroke="midnightblue" d="M368.77,-168.26C370.21,-147.57 371.65,-94.48 353,-56 347.95,-45.58 340.1,-35.38 333.02,-27.33"/>
<polygon fill="midnightblue" stroke="midnightblue" points="335.43,-24.78 326.07,-19.81 330.29,-29.53 335.43,-24.78"/>
</g>
<!-- Node16&#45;&gt;Node11 -->
<g id="edge22" class="edge">
<title>Node16&#45;&gt;Node11</title>
<path fill="none" stroke="midnightblue" d="M342.96,-168.44C316.38,-159.36 274.19,-144.94 244.48,-134.78"/>
<polygon fill="midnightblue" stroke="midnightblue" points="245.51,-131.44 234.92,-131.52 243.25,-138.06 245.51,-131.44"/>
</g>
<!-- Node16&#45;&gt;Node13 -->
<g id="edge24" class="edge">
<title>Node16&#45;&gt;Node13</title>
<path fill="none" stroke="midnightblue" d="M366.17,-168.36C363.33,-155.69 357.32,-131.46 349,-112 344.92,-102.46 339.26,-92.41 334.26,-84.23"/>
<polygon fill="midnightblue" stroke="midnightblue" points="337.13,-82.22 328.83,-75.64 331.21,-85.96 337.13,-82.22"/>
</g>
<!-- Node16&#45;&gt;Node14 -->
<g id="edge25" class="edge">
<title>Node16&#45;&gt;Node14</title>
<path fill="none" stroke="midnightblue" d="M359.74,-168.08C352.54,-160.3 341.89,-148.8 333.15,-139.37"/>
<polygon fill="midnightblue" stroke="midnightblue" points="335.47,-136.71 326.1,-131.75 330.33,-141.47 335.47,-136.71"/>
</g>
<!-- Node17&#45;&gt;Node5 -->
<g id="edge27" class="edge">
<title>Node17&#45;&gt;Node5</title>
<path fill="none" stroke="midnightblue" d="M474.88,-168.4C449.63,-154.4 396.91,-126.79 349,-112 276.42,-89.59 189.09,-77.54 134.55,-71.7"/>
<polygon fill="midnightblue" stroke="midnightblue" points="134.73,-68.2 124.42,-70.65 134.01,-75.17 134.73,-68.2"/>
</g>
<!-- Node17&#45;&gt;Node6 -->
<g id="edge32" class="edge">
<title>Node17&#45;&gt;Node6</title>
<path fill="none" stroke="midnightblue" d="M481.81,-168.24C462.73,-147.95 413.64,-96.39 370,-56 358.93,-45.75 346.03,-34.78 335.73,-26.24"/>
<polygon fill="midnightblue" stroke="midnightblue" points="337.74,-23.36 327.79,-19.7 333.29,-28.76 337.74,-23.36"/>
</g>
<!-- Node17&#45;&gt;Node13 -->
<g id="edge30" class="edge">
<title>Node17&#45;&gt;Node13</title>
<path fill="none" stroke="midnightblue" d="M482.12,-168.06C469.87,-154.58 445.06,-128.83 420,-112 399.04,-97.92 372.97,-86.1 353.13,-78.11"/>
<polygon fill="midnightblue" stroke="midnightblue" points="354.26,-74.79 343.67,-74.4 351.7,-81.31 354.26,-74.79"/>
</g>
<!-- Node17&#45;&gt;Node14 -->
<g id="edge31" class="edge">
<title>Node17&#45;&gt;Node14</title>
<path fill="none" stroke="midnightblue" d="M462.75,-168.44C432.15,-158.84 382.54,-143.26 350.09,-133.07"/>
<polygon fill="midnightblue" stroke="midnightblue" points="350.79,-129.63 340.2,-129.97 348.7,-136.31 350.79,-129.63"/>
</g>
<!-- Node18 -->
<g id="node18" class="node">
<title>Node18</title>
<g id="a_node18"><a xlink:href="Transform_8hpp.html" target="_top" xlink:title=" ">
<polygon fill="none" stroke="black" points="548.5,-112.5 548.5,-131.5 627.5,-131.5 627.5,-112.5 548.5,-112.5"/>
<text text-anchor="middle" x="588" y="-119.5" font-family="Helvetica,sans-Serif" font-size="10.00">Transform.hpp</text>
</a>
</g>
</g>
<!-- Node17&#45;&gt;Node18 -->
<g id="edge28" class="edge">
<title>Node17&#45;&gt;Node18</title>
<path fill="none" stroke="midnightblue" d="M505.75,-168.32C521.32,-159.74 545.38,-146.49 563.46,-136.52"/>
<polygon fill="midnightblue" stroke="midnightblue" points="565.22,-139.55 572.29,-131.65 561.85,-133.42 565.22,-139.55"/>
</g>
<!-- Node18&#45;&gt;Node15 -->
<g id="edge29" class="edge">
<title>Node18&#45;&gt;Node15</title>
<path fill="none" stroke="midnightblue" d="M593.61,-112.08C598.37,-104.53 605.32,-93.49 611.15,-84.23"/>
<polygon fill="midnightblue" stroke="midnightblue" points="614.12,-86.08 616.49,-75.75 608.2,-82.35 614.12,-86.08"/>
</g>
</g>
</svg>
