<?xml version="1.0" encoding="UTF-8" standalone="no"?>
<!DOCTYPE svg PUBLIC "-//W3C//DTD SVG 1.1//EN"
 "http://www.w3.org/Graphics/SVG/1.1/DTD/svg11.dtd">
<!-- Generated by graphviz version 2.44.0 ()
 -->
<!-- Title: libs/spic&#45;engine/includes/spic&#45;api&#45;headers/UIObject.hpp Pages: 1 -->
<svg width="3248pt" height="441pt"
 viewBox="0.00 0.00 3248.45 441.00" xmlns="http://www.w3.org/2000/svg" xmlns:xlink="http://www.w3.org/1999/xlink">
<g id="graph0" class="graph" transform="scale(1 1) rotate(0) translate(4 437)">
<title>libs/spic&#45;engine/includes/spic&#45;api&#45;headers/UIObject.hpp</title>
<!-- Node1 -->
<g id="node1" class="node">
<title>Node1</title>
<g id="a_node1"><a xlink:title=" ">
<polygon fill="#bfbfbf" stroke="black" points="1070,-402.5 1070,-432.5 1221,-432.5 1221,-402.5 1070,-402.5"/>
<text text-anchor="start" x="1078" y="-420.5" font-family="Helvetica,sans-Serif" font-size="10.00">libs/spic&#45;engine/includes</text>
<text text-anchor="middle" x="1145.5" y="-409.5" font-family="Helvetica,sans-Serif" font-size="10.00">/spic&#45;api&#45;headers/UIObject.hpp</text>
</a>
</g>
</g>
<!-- Node2 -->
<g id="node2" class="node">
<title>Node2</title>
<g id="a_node2"><a xlink:href="UIObject_8cpp.html" target="_top" xlink:title=" ">
<polygon fill="none" stroke="black" points="974,-335.5 974,-365.5 1075,-365.5 1075,-335.5 974,-335.5"/>
<text text-anchor="start" x="982" y="-353.5" font-family="Helvetica,sans-Serif" font-size="10.00">libs/spic&#45;engine/src</text>
<text text-anchor="middle" x="1024.5" y="-342.5" font-family="Helvetica,sans-Serif" font-size="10.00">/Api/UIObject.cpp</text>
</a>
</g>
</g>
<!-- Node1&#45;&gt;Node2 -->
<g id="edge1" class="edge">
<title>Node1&#45;&gt;Node2</title>
<path fill="none" stroke="midnightblue" d="M1110.27,-397.57C1091.24,-387.35 1068.13,-374.94 1050.7,-365.58"/>
<polygon fill="midnightblue" stroke="midnightblue" points="1108.78,-400.75 1119.24,-402.4 1112.09,-394.58 1108.78,-400.75"/>
</g>
<!-- Node3 -->
<g id="node3" class="node">
<title>Node3</title>
<g id="a_node3"><a xlink:href="Api_8hpp.html" target="_top" xlink:title=" ">
<polygon fill="none" stroke="black" points="579.5,-201.5 579.5,-231.5 705.5,-231.5 705.5,-201.5 579.5,-201.5"/>
<text text-anchor="start" x="587.5" y="-219.5" font-family="Helvetica,sans-Serif" font-size="10.00">libs/spic&#45;engine/includes</text>
<text text-anchor="middle" x="642.5" y="-208.5" font-family="Helvetica,sans-Serif" font-size="10.00">/spic&#45;api&#45;headers/Api.hpp</text>
</a>
</g>
</g>
<!-- Node1&#45;&gt;Node3 -->
<g id="edge2" class="edge">
<title>Node1&#45;&gt;Node3</title>
<path fill="none" stroke="midnightblue" d="M1133.6,-393.43C1122.9,-374.94 1105.51,-349.75 1083.5,-335 1051.78,-313.74 817.82,-257.89 704.15,-231.58"/>
<polygon fill="midnightblue" stroke="midnightblue" points="1130.66,-395.34 1138.57,-402.39 1136.78,-391.95 1130.66,-395.34"/>
</g>
<!-- Node6 -->
<g id="node6" class="node">
<title>Node6</title>
<g id="a_node6"><a xlink:href="Button_8hpp.html" target="_top" xlink:title=" ">
<polygon fill="none" stroke="black" points="2168.5,-335.5 2168.5,-365.5 2308.5,-365.5 2308.5,-335.5 2168.5,-335.5"/>
<text text-anchor="start" x="2176.5" y="-353.5" font-family="Helvetica,sans-Serif" font-size="10.00">libs/spic&#45;engine/includes</text>
<text text-anchor="middle" x="2238.5" y="-342.5" font-family="Helvetica,sans-Serif" font-size="10.00">/spic&#45;api&#45;headers/Button.hpp</text>
</a>
</g>
</g>
<!-- Node1&#45;&gt;Node6 -->
<g id="edge5" class="edge">
<title>Node1&#45;&gt;Node6</title>
<path fill="none" stroke="midnightblue" d="M1231.08,-411.41C1440.55,-398.95 1975.86,-367.12 2168.28,-355.68"/>
<polygon fill="midnightblue" stroke="midnightblue" points="1230.83,-407.92 1221.06,-412.01 1231.25,-414.91 1230.83,-407.92"/>
</g>
<!-- Node25 -->
<g id="node25" class="node">
<title>Node25</title>
<g id="a_node25"><a xlink:href="Text_8hpp.html" target="_top" xlink:title=" ">
<polygon fill="none" stroke="black" points="1170,-268.5 1170,-298.5 1301,-298.5 1301,-268.5 1170,-268.5"/>
<text text-anchor="start" x="1178" y="-286.5" font-family="Helvetica,sans-Serif" font-size="10.00">libs/spic&#45;engine/includes</text>
<text text-anchor="middle" x="1235.5" y="-275.5" font-family="Helvetica,sans-Serif" font-size="10.00">/spic&#45;api&#45;headers/Text.hpp</text>
</a>
</g>
</g>
<!-- Node1&#45;&gt;Node25 -->
<g id="edge30" class="edge">
<title>Node1&#45;&gt;Node25</title>
<path fill="none" stroke="midnightblue" d="M1160.95,-393.83C1179.61,-366.47 1210.42,-321.28 1225.94,-298.52"/>
<polygon fill="midnightblue" stroke="midnightblue" points="1157.87,-392.14 1155.13,-402.37 1163.66,-396.08 1157.87,-392.14"/>
</g>
<!-- Node4 -->
<g id="node4" class="node">
<title>Node4</title>
<g id="a_node4"><a xlink:href="LevelController_8cpp.html" target="_top" xlink:title=" ">
<polygon fill="none" stroke="black" points="2059.5,-140 2059.5,-159 2225.5,-159 2225.5,-140 2059.5,-140"/>
<text text-anchor="middle" x="2142.5" y="-147" font-family="Helvetica,sans-Serif" font-size="10.00">src/Controllers/LevelController.cpp</text>
</a>
</g>
</g>
<!-- Node3&#45;&gt;Node4 -->
<g id="edge3" class="edge">
<title>Node3&#45;&gt;Node4</title>
<path fill="none" stroke="midnightblue" d="M715.82,-201.01C997.38,-169.72 1798.27,-155.56 2059.24,-151.66"/>
<polygon fill="midnightblue" stroke="midnightblue" points="715.16,-197.57 705.62,-202.18 715.96,-204.52 715.16,-197.57"/>
</g>
<!-- Node5 -->
<g id="node5" class="node">
<title>Node5</title>
<g id="a_node5"><a xlink:href="main_8cpp.html" target="_top" xlink:title=" ">
<polygon fill="none" stroke="black" points="67.5,-140 67.5,-159 139.5,-159 139.5,-140 67.5,-140"/>
<text text-anchor="middle" x="103.5" y="-147" font-family="Helvetica,sans-Serif" font-size="10.00">src/main.cpp</text>
</a>
</g>
</g>
<!-- Node3&#45;&gt;Node5 -->
<g id="edge4" class="edge">
<title>Node3&#45;&gt;Node5</title>
<path fill="none" stroke="midnightblue" d="M569.46,-212.82C472.41,-208.18 296,-195.94 148.5,-165 141.43,-163.52 133.9,-161.34 127.07,-159.12"/>
<polygon fill="midnightblue" stroke="midnightblue" points="569.31,-216.32 579.47,-213.29 569.64,-209.33 569.31,-216.32"/>
</g>
<!-- Node6&#45;&gt;Node3 -->
<g id="edge29" class="edge">
<title>Node6&#45;&gt;Node3</title>
<path fill="none" stroke="midnightblue" d="M2158.08,-348.37C1923.99,-344.72 1253.7,-331.52 1160.5,-299 1138.26,-291.24 1139.58,-276.23 1117.5,-268 949.01,-205.18 892.47,-257.79 714.5,-232 711.6,-231.58 708.64,-231.12 705.65,-230.62"/>
<polygon fill="midnightblue" stroke="midnightblue" points="2158.17,-351.87 2168.22,-348.53 2158.28,-344.87 2158.17,-351.87"/>
</g>
<!-- Node7 -->
<g id="node7" class="node">
<title>Node7</title>
<g id="a_node7"><a xlink:href="LevelController_8hpp.html" target="_top" xlink:title=" ">
<polygon fill="none" stroke="black" points="2838.5,-274 2838.5,-293 3004.5,-293 3004.5,-274 2838.5,-274"/>
<text text-anchor="middle" x="2921.5" y="-281" font-family="Helvetica,sans-Serif" font-size="10.00">src/Controllers/LevelController.hpp</text>
</a>
</g>
</g>
<!-- Node6&#45;&gt;Node7 -->
<g id="edge6" class="edge">
<title>Node6&#45;&gt;Node7</title>
<path fill="none" stroke="midnightblue" d="M2319.03,-341.84C2449.57,-329.41 2706.1,-305 2838.33,-292.42"/>
<polygon fill="midnightblue" stroke="midnightblue" points="2318.32,-338.39 2308.7,-342.82 2318.99,-345.36 2318.32,-338.39"/>
</g>
<!-- Node12 -->
<g id="node12" class="node">
<title>Node12</title>
<g id="a_node12"><a xlink:href="ButtonPrefabFactory_8hpp.html" target="_top" xlink:title=" ">
<polygon fill="none" stroke="black" points="1728.5,-268.5 1728.5,-298.5 1862.5,-298.5 1862.5,-268.5 1728.5,-268.5"/>
<text text-anchor="start" x="1736.5" y="-286.5" font-family="Helvetica,sans-Serif" font-size="10.00">src/Factories/ButtonPrefab</text>
<text text-anchor="middle" x="1795.5" y="-275.5" font-family="Helvetica,sans-Serif" font-size="10.00">Factory.hpp</text>
</a>
</g>
</g>
<!-- Node6&#45;&gt;Node12 -->
<g id="edge12" class="edge">
<title>Node6&#45;&gt;Node12</title>
<path fill="none" stroke="midnightblue" d="M2158.24,-337.72C2073.72,-325.32 1942.12,-306.01 1862.83,-294.38"/>
<polygon fill="midnightblue" stroke="midnightblue" points="2157.9,-341.21 2168.31,-339.2 2158.92,-334.29 2157.9,-341.21"/>
</g>
<!-- Node21 -->
<g id="node21" class="node">
<title>Node21</title>
<g id="a_node21"><a xlink:href="LevelScene_8hpp.html" target="_top" xlink:title=" ">
<polygon fill="none" stroke="black" points="2169,-274 2169,-293 2308,-293 2308,-274 2169,-274"/>
<text text-anchor="middle" x="2238.5" y="-281" font-family="Helvetica,sans-Serif" font-size="10.00">src/Scenes/LevelScene.hpp</text>
</a>
</g>
</g>
<!-- Node6&#45;&gt;Node21 -->
<g id="edge22" class="edge">
<title>Node6&#45;&gt;Node21</title>
<path fill="none" stroke="midnightblue" d="M2238.5,-325.25C2238.5,-314.02 2238.5,-301.38 2238.5,-293.19"/>
<polygon fill="midnightblue" stroke="midnightblue" points="2235,-325.4 2238.5,-335.4 2242,-325.4 2235,-325.4"/>
</g>
<!-- Node22 -->
<g id="node22" class="node">
<title>Node22</title>
<g id="a_node22"><a xlink:href="Button_8cpp.html" target="_top" xlink:title=" ">
<polygon fill="none" stroke="black" points="2325,-201.5 2325,-231.5 2426,-231.5 2426,-201.5 2325,-201.5"/>
<text text-anchor="start" x="2333" y="-219.5" font-family="Helvetica,sans-Serif" font-size="10.00">libs/spic&#45;engine/src</text>
<text text-anchor="middle" x="2375.5" y="-208.5" font-family="Helvetica,sans-Serif" font-size="10.00">/Api/Button.cpp</text>
</a>
</g>
</g>
<!-- Node6&#45;&gt;Node22 -->
<g id="edge25" class="edge">
<title>Node6&#45;&gt;Node22</title>
<path fill="none" stroke="midnightblue" d="M2274.43,-330.08C2288.41,-321.58 2304.02,-310.84 2316.5,-299 2338.16,-278.44 2357.21,-248.98 2367.47,-231.69"/>
<polygon fill="midnightblue" stroke="midnightblue" points="2272.37,-327.24 2265.53,-335.33 2275.92,-333.27 2272.37,-327.24"/>
</g>
<!-- Node23 -->
<g id="node23" class="node">
<title>Node23</title>
<g id="a_node23"><a xlink:href="ButtonMouseListener_8hpp.html" target="_top" xlink:title=" ">
<polygon fill="none" stroke="black" points="2364.5,-268.5 2364.5,-298.5 2538.5,-298.5 2538.5,-268.5 2364.5,-268.5"/>
<text text-anchor="start" x="2372.5" y="-286.5" font-family="Helvetica,sans-Serif" font-size="10.00">libs/spic&#45;engine/src</text>
<text text-anchor="middle" x="2451.5" y="-275.5" font-family="Helvetica,sans-Serif" font-size="10.00">/Listeners/ButtonMouseListener.hpp</text>
</a>
</g>
</g>
<!-- Node6&#45;&gt;Node23 -->
<g id="edge26" class="edge">
<title>Node6&#45;&gt;Node23</title>
<path fill="none" stroke="midnightblue" d="M2294.39,-332.44C2328.92,-321.91 2372.69,-308.55 2405.26,-298.61"/>
<polygon fill="midnightblue" stroke="midnightblue" points="2293,-329.21 2284.46,-335.48 2295.04,-335.9 2293,-329.21"/>
</g>
<!-- Node7&#45;&gt;Node4 -->
<g id="edge7" class="edge">
<title>Node7&#45;&gt;Node4</title>
<path fill="none" stroke="midnightblue" d="M3015.07,-280.29C3096.54,-276.15 3205.83,-264.51 3233.5,-232 3242.43,-221.51 3243.01,-210.97 3233.5,-201 3198.84,-164.7 2475.08,-153.9 2225.91,-151.25"/>
<polygon fill="midnightblue" stroke="midnightblue" points="3014.59,-276.81 3004.77,-280.78 3014.93,-283.8 3014.59,-276.81"/>
</g>
<!-- Node8 -->
<g id="node8" class="node">
<title>Node8</title>
<g id="a_node8"><a xlink:href="LevelScene_8cpp.html" target="_top" xlink:title=" ">
<polygon fill="none" stroke="black" points="2637,-207 2637,-226 2776,-226 2776,-207 2637,-207"/>
<text text-anchor="middle" x="2706.5" y="-214" font-family="Helvetica,sans-Serif" font-size="10.00">src/Scenes/LevelScene.cpp</text>
</a>
</g>
</g>
<!-- Node7&#45;&gt;Node8 -->
<g id="edge8" class="edge">
<title>Node7&#45;&gt;Node8</title>
<path fill="none" stroke="midnightblue" d="M2883.23,-270.93C2840.66,-258.06 2772.89,-237.57 2734.83,-226.06"/>
<polygon fill="midnightblue" stroke="midnightblue" points="2882.36,-274.32 2892.95,-273.87 2884.39,-267.62 2882.36,-274.32"/>
</g>
<!-- Node9 -->
<g id="node9" class="node">
<title>Node9</title>
<g id="a_node9"><a xlink:href="CheatManager_8cpp.html" target="_top" xlink:title=" ">
<polygon fill="none" stroke="black" points="2794.5,-201.5 2794.5,-231.5 2900.5,-231.5 2900.5,-201.5 2794.5,-201.5"/>
<text text-anchor="start" x="2802.5" y="-219.5" font-family="Helvetica,sans-Serif" font-size="10.00">src/Scripts/Common</text>
<text text-anchor="middle" x="2847.5" y="-208.5" font-family="Helvetica,sans-Serif" font-size="10.00">/CheatManager.cpp</text>
</a>
</g>
</g>
<!-- Node7&#45;&gt;Node9 -->
<g id="edge9" class="edge">
<title>Node7&#45;&gt;Node9</title>
<path fill="none" stroke="midnightblue" d="M2903.77,-266.93C2891.53,-256.18 2875.4,-242 2863.54,-231.59"/>
<polygon fill="midnightblue" stroke="midnightblue" points="2901.7,-269.76 2911.52,-273.73 2906.32,-264.5 2901.7,-269.76"/>
</g>
<!-- Node10 -->
<g id="node10" class="node">
<title>Node10</title>
<g id="a_node10"><a xlink:href="EnemyMovementBehaviour_8cpp.html" target="_top" xlink:title=" ">
<polygon fill="none" stroke="black" points="2918.5,-201.5 2918.5,-231.5 3074.5,-231.5 3074.5,-201.5 2918.5,-201.5"/>
<text text-anchor="start" x="2926.5" y="-219.5" font-family="Helvetica,sans-Serif" font-size="10.00">src/Scripts/Enemies</text>
<text text-anchor="middle" x="2996.5" y="-208.5" font-family="Helvetica,sans-Serif" font-size="10.00">/EnemyMovementBehaviour.cpp</text>
</a>
</g>
</g>
<!-- Node7&#45;&gt;Node10 -->
<g id="edge10" class="edge">
<title>Node7&#45;&gt;Node10</title>
<path fill="none" stroke="midnightblue" d="M2939.47,-266.93C2951.87,-256.18 2968.23,-242 2980.24,-231.59"/>
<polygon fill="midnightblue" stroke="midnightblue" points="2936.88,-264.54 2931.61,-273.73 2941.46,-269.83 2936.88,-264.54"/>
</g>
<!-- Node11 -->
<g id="node11" class="node">
<title>Node11</title>
<g id="a_node11"><a xlink:href="UserAttackBehaviour_8cpp.html" target="_top" xlink:title=" ">
<polygon fill="none" stroke="black" points="3093,-201.5 3093,-231.5 3224,-231.5 3224,-201.5 3093,-201.5"/>
<text text-anchor="start" x="3101" y="-219.5" font-family="Helvetica,sans-Serif" font-size="10.00">src/Scripts/Heroes</text>
<text text-anchor="middle" x="3158.5" y="-208.5" font-family="Helvetica,sans-Serif" font-size="10.00">/UserAttackBehaviour.cpp</text>
</a>
</g>
</g>
<!-- Node7&#45;&gt;Node11 -->
<g id="edge11" class="edge">
<title>Node7&#45;&gt;Node11</title>
<path fill="none" stroke="midnightblue" d="M2962.71,-271.2C3002.88,-260.18 3064.09,-243.39 3107.35,-231.53"/>
<polygon fill="midnightblue" stroke="midnightblue" points="2961.69,-267.85 2952.97,-273.87 2963.54,-274.6 2961.69,-267.85"/>
</g>
<!-- Node12&#45;&gt;Node4 -->
<g id="edge13" class="edge">
<title>Node12&#45;&gt;Node4</title>
<path fill="none" stroke="midnightblue" d="M1872.72,-280.23C1957.7,-276.11 2086.99,-264.54 2122.5,-232 2143.34,-212.91 2144.08,-175.95 2143.22,-159.17"/>
<polygon fill="midnightblue" stroke="midnightblue" points="1872.42,-276.74 1862.59,-280.7 1872.74,-283.74 1872.42,-276.74"/>
</g>
<!-- Node13 -->
<g id="node13" class="node">
<title>Node13</title>
<g id="a_node13"><a xlink:href="ButtonPrefabFactory_8cpp.html" target="_top" xlink:title=" ">
<polygon fill="none" stroke="black" points="1488.5,-201.5 1488.5,-231.5 1622.5,-231.5 1622.5,-201.5 1488.5,-201.5"/>
<text text-anchor="start" x="1496.5" y="-219.5" font-family="Helvetica,sans-Serif" font-size="10.00">src/Factories/ButtonPrefab</text>
<text text-anchor="middle" x="1555.5" y="-208.5" font-family="Helvetica,sans-Serif" font-size="10.00">Factory.cpp</text>
</a>
</g>
</g>
<!-- Node12&#45;&gt;Node13 -->
<g id="edge14" class="edge">
<title>Node12&#45;&gt;Node13</title>
<path fill="none" stroke="midnightblue" d="M1734.02,-265.85C1694.89,-255.25 1644.77,-241.68 1607.6,-231.61"/>
<polygon fill="midnightblue" stroke="midnightblue" points="1733.15,-269.24 1743.72,-268.48 1734.98,-262.48 1733.15,-269.24"/>
</g>
<!-- Node14 -->
<g id="node14" class="node">
<title>Node14</title>
<g id="a_node14"><a xlink:href="CreditScene_8cpp.html" target="_top" xlink:title=" ">
<polygon fill="none" stroke="black" points="1640.5,-207 1640.5,-226 1780.5,-226 1780.5,-207 1640.5,-207"/>
<text text-anchor="middle" x="1710.5" y="-214" font-family="Helvetica,sans-Serif" font-size="10.00">src/Scenes/CreditScene.cpp</text>
</a>
</g>
</g>
<!-- Node12&#45;&gt;Node14 -->
<g id="edge15" class="edge">
<title>Node12&#45;&gt;Node14</title>
<path fill="none" stroke="midnightblue" d="M1768.7,-262.01C1752.92,-249.94 1733.78,-235.3 1721.87,-226.19"/>
<polygon fill="midnightblue" stroke="midnightblue" points="1766.99,-265.1 1777.06,-268.4 1771.24,-259.54 1766.99,-265.1"/>
</g>
<!-- Node15 -->
<g id="node15" class="node">
<title>Node15</title>
<g id="a_node15"><a xlink:href="GameOverScene_8cpp.html" target="_top" xlink:title=" ">
<polygon fill="none" stroke="black" points="1798.5,-207 1798.5,-226 1960.5,-226 1960.5,-207 1798.5,-207"/>
<text text-anchor="middle" x="1879.5" y="-214" font-family="Helvetica,sans-Serif" font-size="10.00">src/Scenes/GameOverScene.cpp</text>
</a>
</g>
</g>
<!-- Node12&#45;&gt;Node15 -->
<g id="edge16" class="edge">
<title>Node12&#45;&gt;Node15</title>
<path fill="none" stroke="midnightblue" d="M1821.98,-262.01C1837.58,-249.94 1856.49,-235.3 1868.26,-226.19"/>
<polygon fill="midnightblue" stroke="midnightblue" points="1819.49,-259.51 1813.73,-268.4 1823.78,-265.04 1819.49,-259.51"/>
</g>
<!-- Node16 -->
<g id="node16" class="node">
<title>Node16</title>
<g id="a_node16"><a xlink:href="HelpScene_8cpp.html" target="_top" xlink:title=" ">
<polygon fill="none" stroke="black" points="1979,-207 1979,-226 2114,-226 2114,-207 1979,-207"/>
<text text-anchor="middle" x="2046.5" y="-214" font-family="Helvetica,sans-Serif" font-size="10.00">src/Scenes/HelpScene.cpp</text>
</a>
</g>
</g>
<!-- Node12&#45;&gt;Node16 -->
<g id="edge17" class="edge">
<title>Node12&#45;&gt;Node16</title>
<path fill="none" stroke="midnightblue" d="M1859.56,-265.91C1908.72,-253.18 1974.57,-236.13 2013.57,-226.03"/>
<polygon fill="midnightblue" stroke="midnightblue" points="1858.46,-262.58 1849.65,-268.48 1860.21,-269.36 1858.46,-262.58"/>
</g>
<!-- Node17 -->
<g id="node17" class="node">
<title>Node17</title>
<g id="a_node17"><a xlink:href="MainScene_8cpp.html" target="_top" xlink:title=" ">
<polygon fill="none" stroke="black" points="2170.5,-207 2170.5,-226 2306.5,-226 2306.5,-207 2170.5,-207"/>
<text text-anchor="middle" x="2238.5" y="-214" font-family="Helvetica,sans-Serif" font-size="10.00">src/Scenes/MainScene.cpp</text>
</a>
</g>
</g>
<!-- Node12&#45;&gt;Node17 -->
<g id="edge18" class="edge">
<title>Node12&#45;&gt;Node17</title>
<path fill="none" stroke="midnightblue" d="M1872.86,-272.5C1946.04,-262.84 2058.89,-247.45 2156.5,-232 2167.92,-230.19 2180.21,-228.1 2191.72,-226.07"/>
<polygon fill="midnightblue" stroke="midnightblue" points="1872.26,-269.05 1862.81,-273.82 1873.18,-275.99 1872.26,-269.05"/>
</g>
<!-- Node18 -->
<g id="node18" class="node">
<title>Node18</title>
<g id="a_node18"><a xlink:href="MenuScene_8cpp.html" target="_top" xlink:title=" ">
<polygon fill="none" stroke="black" points="1007,-207 1007,-226 1146,-226 1146,-207 1007,-207"/>
<text text-anchor="middle" x="1076.5" y="-214" font-family="Helvetica,sans-Serif" font-size="10.00">src/Scenes/MenuScene.cpp</text>
</a>
</g>
</g>
<!-- Node12&#45;&gt;Node18 -->
<g id="edge19" class="edge">
<title>Node12&#45;&gt;Node18</title>
<path fill="none" stroke="midnightblue" d="M1718.1,-279.03C1597.34,-273.04 1356.94,-258.72 1154.5,-232 1142.62,-230.43 1129.81,-228.26 1118.07,-226.06"/>
<polygon fill="midnightblue" stroke="midnightblue" points="1718.19,-282.54 1728.35,-279.54 1718.54,-275.55 1718.19,-282.54"/>
</g>
<!-- Node19 -->
<g id="node19" class="node">
<title>Node19</title>
<g id="a_node19"><a xlink:href="PauseScene_8cpp.html" target="_top" xlink:title=" ">
<polygon fill="none" stroke="black" points="1164,-207 1164,-226 1307,-226 1307,-207 1164,-207"/>
<text text-anchor="middle" x="1235.5" y="-214" font-family="Helvetica,sans-Serif" font-size="10.00">src/Scenes/PauseScene.cpp</text>
</a>
</g>
</g>
<!-- Node12&#45;&gt;Node19 -->
<g id="edge20" class="edge">
<title>Node12&#45;&gt;Node19</title>
<path fill="none" stroke="midnightblue" d="M1718.03,-276.14C1622.96,-267.92 1456.96,-252.23 1315.5,-232 1303.76,-230.32 1291.11,-228.18 1279.42,-226.07"/>
<polygon fill="midnightblue" stroke="midnightblue" points="1717.87,-279.64 1728.13,-277.01 1718.47,-272.66 1717.87,-279.64"/>
</g>
<!-- Node20 -->
<g id="node20" class="node">
<title>Node20</title>
<g id="a_node20"><a xlink:href="VictoryScene_8cpp.html" target="_top" xlink:title=" ">
<polygon fill="none" stroke="black" points="1325,-207 1325,-226 1470,-226 1470,-207 1325,-207"/>
<text text-anchor="middle" x="1397.5" y="-214" font-family="Helvetica,sans-Serif" font-size="10.00">src/Scenes/VictoryScene.cpp</text>
</a>
</g>
</g>
<!-- Node12&#45;&gt;Node20 -->
<g id="edge21" class="edge">
<title>Node12&#45;&gt;Node20</title>
<path fill="none" stroke="midnightblue" d="M1718.24,-270.52C1654.23,-260.5 1560.89,-245.7 1479.5,-232 1468.38,-230.13 1456.42,-228.05 1445.17,-226.07"/>
<polygon fill="midnightblue" stroke="midnightblue" points="1717.83,-274 1728.26,-272.08 1718.92,-267.08 1717.83,-274"/>
</g>
<!-- Node21&#45;&gt;Node8 -->
<g id="edge23" class="edge">
<title>Node21&#45;&gt;Node8</title>
<path fill="none" stroke="midnightblue" d="M2317.71,-272.72C2413.64,-260.78 2569.58,-241.07 2627.5,-232 2638.8,-230.23 2650.96,-228.11 2662.28,-226.04"/>
<polygon fill="midnightblue" stroke="midnightblue" points="2317.25,-269.25 2307.76,-273.95 2318.11,-276.19 2317.25,-269.25"/>
</g>
<!-- Node21&#45;&gt;Node17 -->
<g id="edge24" class="edge">
<title>Node21&#45;&gt;Node17</title>
<path fill="none" stroke="midnightblue" d="M2238.5,-263.54C2238.5,-251.17 2238.5,-235.62 2238.5,-226.13"/>
<polygon fill="midnightblue" stroke="midnightblue" points="2235,-263.73 2238.5,-273.73 2242,-263.73 2235,-263.73"/>
</g>
<!-- Node23&#45;&gt;Node22 -->
<g id="edge27" class="edge">
<title>Node23&#45;&gt;Node22</title>
<path fill="none" stroke="midnightblue" d="M2427.39,-261.88C2415.84,-252.01 2402.31,-240.43 2391.96,-231.58"/>
<polygon fill="midnightblue" stroke="midnightblue" points="2425.13,-264.56 2435.01,-268.4 2429.68,-259.24 2425.13,-264.56"/>
</g>
<!-- Node24 -->
<g id="node24" class="node">
<title>Node24</title>
<g id="a_node24"><a xlink:href="ButtonMouseListener_8cpp.html" target="_top" xlink:title=" ">
<polygon fill="none" stroke="black" points="2444.5,-201.5 2444.5,-231.5 2618.5,-231.5 2618.5,-201.5 2444.5,-201.5"/>
<text text-anchor="start" x="2452.5" y="-219.5" font-family="Helvetica,sans-Serif" font-size="10.00">libs/spic&#45;engine/src</text>
<text text-anchor="middle" x="2531.5" y="-208.5" font-family="Helvetica,sans-Serif" font-size="10.00">/Listeners/ButtonMouseListener.cpp</text>
</a>
</g>
</g>
<!-- Node23&#45;&gt;Node24 -->
<g id="edge28" class="edge">
<title>Node23&#45;&gt;Node24</title>
<path fill="none" stroke="midnightblue" d="M2476.87,-261.88C2489.03,-252.01 2503.28,-240.43 2514.18,-231.58"/>
<polygon fill="midnightblue" stroke="midnightblue" points="2474.41,-259.37 2468.86,-268.4 2478.83,-264.81 2474.41,-259.37"/>
</g>
<!-- Node25&#45;&gt;Node3 -->
<g id="edge54" class="edge">
<title>Node25&#45;&gt;Node3</title>
<path fill="none" stroke="midnightblue" d="M1159.43,-268.53C1158.11,-268.35 1156.8,-268.17 1155.5,-268 960.52,-242.43 909.23,-259.46 714.5,-232 711.6,-231.59 708.63,-231.14 705.64,-230.65"/>
<polygon fill="midnightblue" stroke="midnightblue" points="1159.26,-272.04 1169.66,-270.04 1160.28,-265.12 1159.26,-272.04"/>
</g>
<!-- Node25&#45;&gt;Node13 -->
<g id="edge31" class="edge">
<title>Node25&#45;&gt;Node13</title>
<path fill="none" stroke="midnightblue" d="M1310.87,-267.19C1364.72,-256.25 1436.53,-241.67 1488.41,-231.13"/>
<polygon fill="midnightblue" stroke="midnightblue" points="1310.13,-263.77 1301.03,-269.19 1311.53,-270.63 1310.13,-263.77"/>
</g>
<!-- Node25&#45;&gt;Node14 -->
<g id="edge32" class="edge">
<title>Node25&#45;&gt;Node14</title>
<path fill="none" stroke="midnightblue" d="M1311.13,-274.1C1390.95,-264.94 1520.34,-249.28 1631.5,-232 1642.8,-230.24 1654.96,-228.13 1666.28,-226.06"/>
<polygon fill="midnightblue" stroke="midnightblue" points="1310.71,-270.63 1301.17,-275.24 1311.5,-277.58 1310.71,-270.63"/>
</g>
<!-- Node25&#45;&gt;Node15 -->
<g id="edge33" class="edge">
<title>Node25&#45;&gt;Node15</title>
<path fill="none" stroke="midnightblue" d="M1311.37,-277.25C1418.26,-269.47 1619.16,-253.46 1789.5,-232 1802.85,-230.32 1817.25,-228.16 1830.54,-226.02"/>
<polygon fill="midnightblue" stroke="midnightblue" points="1311.05,-273.76 1301.32,-277.97 1311.55,-280.74 1311.05,-273.76"/>
</g>
<!-- Node25&#45;&gt;Node16 -->
<g id="edge34" class="edge">
<title>Node25&#45;&gt;Node16</title>
<path fill="none" stroke="midnightblue" d="M1311.17,-280.22C1444.6,-275.56 1730.26,-262.65 1969.5,-232 1981.37,-230.48 1994.18,-228.29 2005.88,-226.07"/>
<polygon fill="midnightblue" stroke="midnightblue" points="1310.92,-276.73 1301.05,-280.57 1311.17,-283.73 1310.92,-276.73"/>
</g>
<!-- Node25&#45;&gt;Node18 -->
<g id="edge35" class="edge">
<title>Node25&#45;&gt;Node18</title>
<path fill="none" stroke="midnightblue" d="M1191.37,-264.46C1160.65,-251.9 1121.08,-235.72 1097.31,-226.01"/>
<polygon fill="midnightblue" stroke="midnightblue" points="1190.42,-267.85 1201,-268.4 1193.07,-261.37 1190.42,-267.85"/>
</g>
<!-- Node25&#45;&gt;Node19 -->
<g id="edge36" class="edge">
<title>Node25&#45;&gt;Node19</title>
<path fill="none" stroke="midnightblue" d="M1235.5,-258.25C1235.5,-247.02 1235.5,-234.38 1235.5,-226.19"/>
<polygon fill="midnightblue" stroke="midnightblue" points="1232,-258.4 1235.5,-268.4 1239,-258.4 1232,-258.4"/>
</g>
<!-- Node25&#45;&gt;Node20 -->
<g id="edge37" class="edge">
<title>Node25&#45;&gt;Node20</title>
<path fill="none" stroke="midnightblue" d="M1280.06,-264.62C1311.42,-252.04 1351.98,-235.77 1376.3,-226.01"/>
<polygon fill="midnightblue" stroke="midnightblue" points="1278.63,-261.42 1270.65,-268.4 1281.24,-267.92 1278.63,-261.42"/>
</g>
<!-- Node26 -->
<g id="node26" class="node">
<title>Node26</title>
<g id="a_node26"><a xlink:href="Text_8cpp.html" target="_top" xlink:title=" ">
<polygon fill="none" stroke="black" points="888,-201.5 888,-231.5 989,-231.5 989,-201.5 888,-201.5"/>
<text text-anchor="start" x="896" y="-219.5" font-family="Helvetica,sans-Serif" font-size="10.00">libs/spic&#45;engine/src</text>
<text text-anchor="middle" x="938.5" y="-208.5" font-family="Helvetica,sans-Serif" font-size="10.00">/Api/Text.cpp</text>
</a>
</g>
</g>
<!-- Node25&#45;&gt;Node26 -->
<g id="edge38" class="edge">
<title>Node25&#45;&gt;Node26</title>
<path fill="none" stroke="midnightblue" d="M1159.9,-267.1C1113.05,-257.4 1051.68,-244.4 997.5,-232 994.72,-231.36 991.88,-230.7 989.01,-230.02"/>
<polygon fill="midnightblue" stroke="midnightblue" points="1159.47,-270.59 1169.97,-269.18 1160.88,-263.73 1159.47,-270.59"/>
</g>
<!-- Node27 -->
<g id="node27" class="node">
<title>Node27</title>
<g id="a_node27"><a xlink:href="Window_8hpp.html" target="_top" xlink:title=" ">
<polygon fill="none" stroke="black" points="724,-201.5 724,-231.5 831,-231.5 831,-201.5 724,-201.5"/>
<text text-anchor="start" x="732" y="-219.5" font-family="Helvetica,sans-Serif" font-size="10.00">libs/spic&#45;engine/src</text>
<text text-anchor="middle" x="777.5" y="-208.5" font-family="Helvetica,sans-Serif" font-size="10.00">/Models/Window.hpp</text>
</a>
</g>
</g>
<!-- Node25&#45;&gt;Node27 -->
<g id="edge39" class="edge">
<title>Node25&#45;&gt;Node27</title>
<path fill="none" stroke="midnightblue" d="M1159.42,-268.59C1158.1,-268.39 1156.8,-268.19 1155.5,-268 1018.3,-247.62 982.37,-254.49 845.5,-232 840.85,-231.24 836.05,-230.37 831.23,-229.45"/>
<polygon fill="midnightblue" stroke="midnightblue" points="1159.21,-272.1 1169.63,-270.22 1160.31,-265.19 1159.21,-272.1"/>
</g>
<!-- Node37 -->
<g id="node37" class="node">
<title>Node37</title>
<g id="a_node37"><a xlink:href="RenderSubsystem_8cpp.html" target="_top" xlink:title=" ">
<polygon fill="none" stroke="black" points="735.5,-67.5 735.5,-97.5 909.5,-97.5 909.5,-67.5 735.5,-67.5"/>
<text text-anchor="start" x="743.5" y="-85.5" font-family="Helvetica,sans-Serif" font-size="10.00">libs/spic&#45;engine/src</text>
<text text-anchor="middle" x="822.5" y="-74.5" font-family="Helvetica,sans-Serif" font-size="10.00">/Subsystems/RenderSubsystem.cpp</text>
</a>
</g>
</g>
<!-- Node25&#45;&gt;Node37 -->
<g id="edge53" class="edge">
<title>Node25&#45;&gt;Node37</title>
<path fill="none" stroke="midnightblue" d="M1159.77,-268.98C1157.66,-268.65 1155.57,-268.32 1153.5,-268 1092.58,-258.63 926.8,-270.28 878.5,-232 872.93,-227.58 839.91,-133.67 827.35,-97.51"/>
<polygon fill="midnightblue" stroke="midnightblue" points="1159.32,-272.45 1169.75,-270.61 1160.44,-265.55 1159.32,-272.45"/>
</g>
<!-- Node28 -->
<g id="node28" class="node">
<title>Node28</title>
<g id="a_node28"><a xlink:href="TimeManager_8hpp.html" target="_top" xlink:title=" ">
<polygon fill="none" stroke="black" points="158,-134.5 158,-164.5 301,-164.5 301,-134.5 158,-134.5"/>
<text text-anchor="start" x="166" y="-152.5" font-family="Helvetica,sans-Serif" font-size="10.00">libs/spic&#45;engine/src</text>
<text text-anchor="middle" x="229.5" y="-141.5" font-family="Helvetica,sans-Serif" font-size="10.00">/Managers/TimeManager.hpp</text>
</a>
</g>
</g>
<!-- Node27&#45;&gt;Node28 -->
<g id="edge40" class="edge">
<title>Node27&#45;&gt;Node28</title>
<path fill="none" stroke="midnightblue" d="M713.95,-201.08C534.71,-173.29 485.95,-188.47 310.5,-165 307.53,-164.6 304.5,-164.17 301.44,-163.72"/>
<polygon fill="midnightblue" stroke="midnightblue" points="713.56,-204.56 723.98,-202.66 714.65,-197.64 713.56,-204.56"/>
</g>
<!-- Node33 -->
<g id="node33" class="node">
<title>Node33</title>
<g id="a_node33"><a xlink:href="Window_8cpp.html" target="_top" xlink:title=" ">
<polygon fill="none" stroke="black" points="724,-134.5 724,-164.5 831,-164.5 831,-134.5 724,-134.5"/>
<text text-anchor="start" x="732" y="-152.5" font-family="Helvetica,sans-Serif" font-size="10.00">libs/spic&#45;engine/src</text>
<text text-anchor="middle" x="777.5" y="-141.5" font-family="Helvetica,sans-Serif" font-size="10.00">/Models/Window.cpp</text>
</a>
</g>
</g>
<!-- Node27&#45;&gt;Node33 -->
<g id="edge45" class="edge">
<title>Node27&#45;&gt;Node33</title>
<path fill="none" stroke="midnightblue" d="M777.5,-191.11C777.5,-182.15 777.5,-172.32 777.5,-164.58"/>
<polygon fill="midnightblue" stroke="midnightblue" points="774,-191.4 777.5,-201.4 781,-191.4 774,-191.4"/>
</g>
<!-- Node34 -->
<g id="node34" class="node">
<title>Node34</title>
<g id="a_node34"><a xlink:href="FpsCounterSubsystem_8hpp.html" target="_top" xlink:title=" ">
<polygon fill="none" stroke="black" points="319.5,-134.5 319.5,-164.5 513.5,-164.5 513.5,-134.5 319.5,-134.5"/>
<text text-anchor="start" x="327.5" y="-152.5" font-family="Helvetica,sans-Serif" font-size="10.00">libs/spic&#45;engine/src</text>
<text text-anchor="middle" x="416.5" y="-141.5" font-family="Helvetica,sans-Serif" font-size="10.00">/Subsystems/FpsCounterSubsystem.hpp</text>
</a>
</g>
</g>
<!-- Node27&#45;&gt;Node34 -->
<g id="edge46" class="edge">
<title>Node27&#45;&gt;Node34</title>
<path fill="none" stroke="midnightblue" d="M713.81,-200.93C638.7,-186.08 564.3,-173.59 507.72,-164.54"/>
<polygon fill="midnightblue" stroke="midnightblue" points="713.44,-204.43 723.93,-202.95 714.81,-197.56 713.44,-204.43"/>
</g>
<!-- Node36 -->
<g id="node36" class="node">
<title>Node36</title>
<g id="a_node36"><a xlink:href="RenderSubsystem_8hpp.html" target="_top" xlink:title=" ">
<polygon fill="none" stroke="black" points="531.5,-134.5 531.5,-164.5 705.5,-164.5 705.5,-134.5 531.5,-134.5"/>
<text text-anchor="start" x="539.5" y="-152.5" font-family="Helvetica,sans-Serif" font-size="10.00">libs/spic&#45;engine/src</text>
<text text-anchor="middle" x="618.5" y="-141.5" font-family="Helvetica,sans-Serif" font-size="10.00">/Subsystems/RenderSubsystem.hpp</text>
</a>
</g>
</g>
<!-- Node27&#45;&gt;Node36 -->
<g id="edge50" class="edge">
<title>Node27&#45;&gt;Node36</title>
<path fill="none" stroke="midnightblue" d="M733.58,-197.54C708.13,-187.14 676.57,-174.24 652.93,-164.58"/>
<polygon fill="midnightblue" stroke="midnightblue" points="732.42,-200.85 743,-201.4 735.07,-194.37 732.42,-200.85"/>
</g>
<!-- Node29 -->
<g id="node29" class="node">
<title>Node29</title>
<g id="a_node29"><a xlink:href="Engine_8cpp.html" target="_top" xlink:title=" ">
<polygon fill="none" stroke="black" points="338,-0.5 338,-30.5 439,-30.5 439,-0.5 338,-0.5"/>
<text text-anchor="start" x="346" y="-18.5" font-family="Helvetica,sans-Serif" font-size="10.00">libs/spic&#45;engine/src</text>
<text text-anchor="middle" x="388.5" y="-7.5" font-family="Helvetica,sans-Serif" font-size="10.00">/Api/Engine.cpp</text>
</a>
</g>
</g>
<!-- Node28&#45;&gt;Node29 -->
<g id="edge41" class="edge">
<title>Node28&#45;&gt;Node29</title>
<path fill="none" stroke="midnightblue" d="M206.75,-126.81C191.4,-109.52 176.31,-85.26 190.5,-67 208.4,-43.96 285.05,-29.68 337.56,-22.41"/>
<polygon fill="midnightblue" stroke="midnightblue" points="204.31,-129.33 213.71,-134.22 209.41,-124.53 204.31,-129.33"/>
</g>
<!-- Node30 -->
<g id="node30" class="node">
<title>Node30</title>
<g id="a_node30"><a xlink:href="src_2Api_2Time_8cpp.html" target="_top" xlink:title=" ">
<polygon fill="none" stroke="black" points="200,-67.5 200,-97.5 301,-97.5 301,-67.5 200,-67.5"/>
<text text-anchor="start" x="208" y="-85.5" font-family="Helvetica,sans-Serif" font-size="10.00">libs/spic&#45;engine/src</text>
<text text-anchor="middle" x="250.5" y="-74.5" font-family="Helvetica,sans-Serif" font-size="10.00">/Api/Time.cpp</text>
</a>
</g>
</g>
<!-- Node28&#45;&gt;Node30 -->
<g id="edge42" class="edge">
<title>Node28&#45;&gt;Node30</title>
<path fill="none" stroke="midnightblue" d="M237.19,-124.7C240.13,-115.59 243.39,-105.49 245.95,-97.58"/>
<polygon fill="midnightblue" stroke="midnightblue" points="233.8,-123.8 234.06,-134.4 240.46,-125.96 233.8,-123.8"/>
</g>
<!-- Node31 -->
<g id="node31" class="node">
<title>Node31</title>
<g id="a_node31"><a xlink:href="TimeManager_8cpp.html" target="_top" xlink:title=" ">
<polygon fill="none" stroke="black" points="0,-67.5 0,-97.5 143,-97.5 143,-67.5 0,-67.5"/>
<text text-anchor="start" x="8" y="-85.5" font-family="Helvetica,sans-Serif" font-size="10.00">libs/spic&#45;engine/src</text>
<text text-anchor="middle" x="71.5" y="-74.5" font-family="Helvetica,sans-Serif" font-size="10.00">/Managers/TimeManager.cpp</text>
</a>
</g>
</g>
<!-- Node28&#45;&gt;Node31 -->
<g id="edge43" class="edge">
<title>Node28&#45;&gt;Node31</title>
<path fill="none" stroke="midnightblue" d="M185.85,-130.54C160.57,-120.14 129.2,-107.24 105.72,-97.58"/>
<polygon fill="midnightblue" stroke="midnightblue" points="184.64,-133.83 195.22,-134.4 187.3,-127.35 184.64,-133.83"/>
</g>
<!-- Node32 -->
<g id="node32" class="node">
<title>Node32</title>
<g id="a_node32"><a xlink:href="FpsCounterSubsystem_8cpp.html" target="_top" xlink:title=" ">
<polygon fill="none" stroke="black" points="319.5,-67.5 319.5,-97.5 513.5,-97.5 513.5,-67.5 319.5,-67.5"/>
<text text-anchor="start" x="327.5" y="-85.5" font-family="Helvetica,sans-Serif" font-size="10.00">libs/spic&#45;engine/src</text>
<text text-anchor="middle" x="416.5" y="-74.5" font-family="Helvetica,sans-Serif" font-size="10.00">/Subsystems/FpsCounterSubsystem.cpp</text>
</a>
</g>
</g>
<!-- Node28&#45;&gt;Node32 -->
<g id="edge44" class="edge">
<title>Node28&#45;&gt;Node32</title>
<path fill="none" stroke="midnightblue" d="M279.58,-131.09C309.77,-120.6 347.72,-107.41 376,-97.58"/>
<polygon fill="midnightblue" stroke="midnightblue" points="278.37,-127.81 270.08,-134.4 280.67,-134.42 278.37,-127.81"/>
</g>
<!-- Node34&#45;&gt;Node32 -->
<g id="edge47" class="edge">
<title>Node34&#45;&gt;Node32</title>
<path fill="none" stroke="midnightblue" d="M416.5,-124.11C416.5,-115.15 416.5,-105.32 416.5,-97.58"/>
<polygon fill="midnightblue" stroke="midnightblue" points="413,-124.4 416.5,-134.4 420,-124.4 413,-124.4"/>
</g>
<!-- Node35 -->
<g id="node35" class="node">
<title>Node35</title>
<g id="a_node35"><a xlink:href="Subsystems_8hpp.html" target="_top" xlink:title=" ">
<polygon fill="none" stroke="black" points="531,-67.5 531,-97.5 680,-97.5 680,-67.5 531,-67.5"/>
<text text-anchor="start" x="539" y="-85.5" font-family="Helvetica,sans-Serif" font-size="10.00">libs/spic&#45;engine/src</text>
<text text-anchor="middle" x="605.5" y="-74.5" font-family="Helvetica,sans-Serif" font-size="10.00">/Subsystems/Subsystems.hpp</text>
</a>
</g>
</g>
<!-- Node34&#45;&gt;Node35 -->
<g id="edge48" class="edge">
<title>Node34&#45;&gt;Node35</title>
<path fill="none" stroke="midnightblue" d="M467.12,-131.09C497.63,-120.6 535.98,-107.41 564.57,-97.58"/>
<polygon fill="midnightblue" stroke="midnightblue" points="465.83,-127.83 457.51,-134.4 468.1,-134.45 465.83,-127.83"/>
</g>
<!-- Node35&#45;&gt;Node29 -->
<g id="edge49" class="edge">
<title>Node35&#45;&gt;Node29</title>
<path fill="none" stroke="midnightblue" d="M549.01,-64.58C513.77,-54.02 468.93,-40.59 435.61,-30.61"/>
<polygon fill="midnightblue" stroke="midnightblue" points="548.1,-67.96 558.68,-67.48 550.11,-61.25 548.1,-67.96"/>
</g>
<!-- Node36&#45;&gt;Node35 -->
<g id="edge52" class="edge">
<title>Node36&#45;&gt;Node35</title>
<path fill="none" stroke="midnightblue" d="M613.68,-124.4C611.87,-115.37 609.88,-105.41 608.32,-97.58"/>
<polygon fill="midnightblue" stroke="midnightblue" points="610.29,-125.28 615.68,-134.4 617.15,-123.9 610.29,-125.28"/>
</g>
<!-- Node36&#45;&gt;Node37 -->
<g id="edge51" class="edge">
<title>Node36&#45;&gt;Node37</title>
<path fill="none" stroke="midnightblue" d="M672.46,-131.31C705.46,-120.79 747.16,-107.51 778.21,-97.61"/>
<polygon fill="midnightblue" stroke="midnightblue" points="670.98,-128.11 662.51,-134.48 673.1,-134.77 670.98,-128.11"/>
</g>
</g>
</svg>
