<?xml version="1.0" encoding="UTF-8" standalone="no"?>
<!DOCTYPE svg PUBLIC "-//W3C//DTD SVG 1.1//EN"
 "http://www.w3.org/Graphics/SVG/1.1/DTD/svg11.dtd">
<!-- Generated by graphviz version 2.44.0 ()
 -->
<!-- Title: libs/spic&#45;engine/src/Subsystems/UpdateBehaviourScriptSubsystem.cpp Pages: 1 -->
<svg width="256pt" height="386pt"
 viewBox="0.00 0.00 256.00 386.00" xmlns="http://www.w3.org/2000/svg" xmlns:xlink="http://www.w3.org/1999/xlink">
<g id="graph0" class="graph" transform="scale(1 1) rotate(0) translate(4 382)">
<title>libs/spic&#45;engine/src/Subsystems/UpdateBehaviourScriptSubsystem.cpp</title>
<!-- Node1 -->
<g id="node1" class="node">
<title>Node1</title>
<g id="a_node1"><a xlink:title=" ">
<polygon fill="#bfbfbf" stroke="black" points="80,-336.5 80,-377.5 232,-377.5 232,-336.5 80,-336.5"/>
<text text-anchor="start" x="88" y="-365.5" font-family="Helvetica,sans-Serif" font-size="10.00">libs/spic&#45;engine/src</text>
<text text-anchor="start" x="88" y="-354.5" font-family="Helvetica,sans-Serif" font-size="10.00">/Subsystems/UpdateBehaviour</text>
<text text-anchor="middle" x="156" y="-343.5" font-family="Helvetica,sans-Serif" font-size="10.00">ScriptSubsystem.cpp</text>
</a>
</g>
</g>
<!-- Node2 -->
<g id="node2" class="node">
<title>Node2</title>
<g id="a_node2"><a xlink:href="UpdateBehaviourScriptSubsystem_8hpp.html" target="_top" xlink:title=" ">
<polygon fill="none" stroke="black" points="64,-280.5 64,-299.5 248,-299.5 248,-280.5 64,-280.5"/>
<text text-anchor="middle" x="156" y="-287.5" font-family="Helvetica,sans-Serif" font-size="10.00">UpdateBehaviourScriptSubsystem.hpp</text>
</a>
</g>
</g>
<!-- Node1&#45;&gt;Node2 -->
<g id="edge1" class="edge">
<title>Node1&#45;&gt;Node2</title>
<path fill="none" stroke="midnightblue" d="M156,-336.5C156,-328.07 156,-318.24 156,-309.87"/>
<polygon fill="midnightblue" stroke="midnightblue" points="159.5,-309.65 156,-299.65 152.5,-309.65 159.5,-309.65"/>
</g>
<!-- Node3 -->
<g id="node3" class="node">
<title>Node3</title>
<g id="a_node3"><a xlink:href="BehaviourScriptSubsystem_8hpp.html" target="_top" xlink:title=" ">
<polygon fill="none" stroke="black" points="80,-224.5 80,-243.5 232,-243.5 232,-224.5 80,-224.5"/>
<text text-anchor="middle" x="156" y="-231.5" font-family="Helvetica,sans-Serif" font-size="10.00">BehaviourScriptSubsystem.hpp</text>
</a>
</g>
</g>
<!-- Node2&#45;&gt;Node3 -->
<g id="edge2" class="edge">
<title>Node2&#45;&gt;Node3</title>
<path fill="none" stroke="midnightblue" d="M156,-280.08C156,-273.01 156,-262.86 156,-253.99"/>
<polygon fill="midnightblue" stroke="midnightblue" points="159.5,-253.75 156,-243.75 152.5,-253.75 159.5,-253.75"/>
</g>
<!-- Node4 -->
<g id="node4" class="node">
<title>Node4</title>
<g id="a_node4"><a xlink:href="ISubsystem_8hpp.html" target="_top" xlink:title=" ">
<polygon fill="none" stroke="black" points="0,-168.5 0,-187.5 86,-187.5 86,-168.5 0,-168.5"/>
<text text-anchor="middle" x="43" y="-175.5" font-family="Helvetica,sans-Serif" font-size="10.00">ISubsystem.hpp</text>
</a>
</g>
</g>
<!-- Node3&#45;&gt;Node4 -->
<g id="edge3" class="edge">
<title>Node3&#45;&gt;Node4</title>
<path fill="none" stroke="midnightblue" d="M138.09,-224.44C119.75,-215.68 90.99,-201.94 69.91,-191.86"/>
<polygon fill="midnightblue" stroke="midnightblue" points="71.35,-188.67 60.82,-187.52 68.33,-194.99 71.35,-188.67"/>
</g>
<!-- Node5 -->
<g id="node5" class="node">
<title>Node5</title>
<g id="a_node5"><a xlink:href="BehaviourScript_8hpp.html" target="_top" xlink:title=" ">
<polygon fill="none" stroke="black" points="104,-168.5 104,-187.5 208,-187.5 208,-168.5 104,-168.5"/>
<text text-anchor="middle" x="156" y="-175.5" font-family="Helvetica,sans-Serif" font-size="10.00">BehaviourScript.hpp</text>
</a>
</g>
</g>
<!-- Node3&#45;&gt;Node5 -->
<g id="edge4" class="edge">
<title>Node3&#45;&gt;Node5</title>
<path fill="none" stroke="midnightblue" d="M156,-224.08C156,-217.01 156,-206.86 156,-197.99"/>
<polygon fill="midnightblue" stroke="midnightblue" points="159.5,-197.75 156,-187.75 152.5,-197.75 159.5,-197.75"/>
</g>
<!-- Node7 -->
<g id="node7" class="node">
<title>Node7</title>
<g id="a_node7"><a xlink:title=" ">
<polygon fill="none" stroke="#bfbfbf" points="175.5,-0.5 175.5,-19.5 226.5,-19.5 226.5,-0.5 175.5,-0.5"/>
<text text-anchor="middle" x="201" y="-7.5" font-family="Helvetica,sans-Serif" font-size="10.00">memory</text>
</a>
</g>
</g>
<!-- Node3&#45;&gt;Node7 -->
<g id="edge9" class="edge">
<title>Node3&#45;&gt;Node7</title>
<path fill="none" stroke="midnightblue" d="M175.91,-224.41C190.22,-217.04 208.46,-204.92 217,-188 243.6,-135.31 221.51,-62.53 208.65,-29.11"/>
<polygon fill="midnightblue" stroke="midnightblue" points="211.85,-27.68 204.87,-19.71 205.35,-30.3 211.85,-27.68"/>
</g>
<!-- Node6 -->
<g id="node6" class="node">
<title>Node6</title>
<g id="a_node6"><a xlink:href="Component_8hpp.html" target="_top" xlink:title=" ">
<polygon fill="none" stroke="black" points="124,-56.5 124,-75.5 208,-75.5 208,-56.5 124,-56.5"/>
<text text-anchor="middle" x="166" y="-63.5" font-family="Helvetica,sans-Serif" font-size="10.00">Component.hpp</text>
</a>
</g>
</g>
<!-- Node5&#45;&gt;Node6 -->
<g id="edge5" class="edge">
<title>Node5&#45;&gt;Node6</title>
<path fill="none" stroke="midnightblue" d="M147.42,-168.31C136.34,-155.98 119.31,-132.61 127,-112 131.17,-100.81 139.52,-90.56 147.42,-82.68"/>
<polygon fill="midnightblue" stroke="midnightblue" points="150.06,-85 155.01,-75.63 145.3,-79.87 150.06,-85"/>
</g>
<!-- Node8 -->
<g id="node8" class="node">
<title>Node8</title>
<g id="a_node8"><a xlink:href="Collider_8hpp.html" target="_top" xlink:title=" ">
<polygon fill="none" stroke="black" points="136.5,-112.5 136.5,-131.5 203.5,-131.5 203.5,-112.5 136.5,-112.5"/>
<text text-anchor="middle" x="170" y="-119.5" font-family="Helvetica,sans-Serif" font-size="10.00">Collider.hpp</text>
</a>
</g>
</g>
<!-- Node5&#45;&gt;Node8 -->
<g id="edge7" class="edge">
<title>Node5&#45;&gt;Node8</title>
<path fill="none" stroke="midnightblue" d="M158.31,-168.08C160.17,-160.93 162.84,-150.64 165.15,-141.69"/>
<polygon fill="midnightblue" stroke="midnightblue" points="168.61,-142.31 167.73,-131.75 161.83,-140.55 168.61,-142.31"/>
</g>
<!-- Node6&#45;&gt;Node7 -->
<g id="edge6" class="edge">
<title>Node6&#45;&gt;Node7</title>
<path fill="none" stroke="midnightblue" d="M171.78,-56.08C176.67,-48.53 183.83,-37.49 189.83,-28.23"/>
<polygon fill="midnightblue" stroke="midnightblue" points="192.83,-30.05 195.33,-19.75 186.95,-26.24 192.83,-30.05"/>
</g>
<!-- Node8&#45;&gt;Node6 -->
<g id="edge8" class="edge">
<title>Node8&#45;&gt;Node6</title>
<path fill="none" stroke="midnightblue" d="M169.34,-112.08C168.82,-105.01 168.06,-94.86 167.41,-85.99"/>
<polygon fill="midnightblue" stroke="midnightblue" points="170.88,-85.47 166.65,-75.75 163.9,-85.98 170.88,-85.47"/>
</g>
</g>
</svg>
