<?xml version="1.0" encoding="UTF-8" standalone="no"?>
<!DOCTYPE svg PUBLIC "-//W3C//DTD SVG 1.1//EN"
 "http://www.w3.org/Graphics/SVG/1.1/DTD/svg11.dtd">
<!-- Generated by graphviz version 2.44.0 ()
 -->
<!-- Title: src/Scripts/Heroes/UserAttackBehaviour.hpp Pages: 1 -->
<svg width="617pt" height="319pt"
 viewBox="0.00 0.00 616.50 319.00" xmlns="http://www.w3.org/2000/svg" xmlns:xlink="http://www.w3.org/1999/xlink">
<g id="graph0" class="graph" transform="scale(1 1) rotate(0) translate(4 315)">
<title>src/Scripts/Heroes/UserAttackBehaviour.hpp</title>
<!-- Node1 -->
<g id="node1" class="node">
<title>Node1</title>
<g id="a_node1"><a xlink:title=" ">
<polygon fill="#bfbfbf" stroke="black" points="308.5,-280.5 308.5,-310.5 439.5,-310.5 439.5,-280.5 308.5,-280.5"/>
<text text-anchor="start" x="316.5" y="-298.5" font-family="Helvetica,sans-Serif" font-size="10.00">src/Scripts/Heroes</text>
<text text-anchor="middle" x="374" y="-287.5" font-family="Helvetica,sans-Serif" font-size="10.00">/UserAttackBehaviour.hpp</text>
</a>
</g>
</g>
<!-- Node2 -->
<g id="node2" class="node">
<title>Node2</title>
<g id="a_node2"><a xlink:href="BehaviourScript_8hpp.html" target="_top" xlink:title=" ">
<polygon fill="none" stroke="black" points="208,-168.5 208,-187.5 312,-187.5 312,-168.5 208,-168.5"/>
<text text-anchor="middle" x="260" y="-175.5" font-family="Helvetica,sans-Serif" font-size="10.00">BehaviourScript.hpp</text>
</a>
</g>
</g>
<!-- Node1&#45;&gt;Node2 -->
<g id="edge1" class="edge">
<title>Node1&#45;&gt;Node2</title>
<path fill="none" stroke="midnightblue" d="M373.61,-280.47C372.47,-265 368.49,-240.15 355,-224 342.07,-208.52 322.59,-198.02 304.64,-191.08"/>
<polygon fill="midnightblue" stroke="midnightblue" points="305.46,-187.66 294.87,-187.58 303.11,-194.25 305.46,-187.66"/>
</g>
<!-- Node6 -->
<g id="node6" class="node">
<title>Node6</title>
<g id="a_node6"><a xlink:href="Point_8hpp.html" target="_top" xlink:title=" ">
<polygon fill="none" stroke="black" points="402.5,-224.5 402.5,-243.5 459.5,-243.5 459.5,-224.5 402.5,-224.5"/>
<text text-anchor="middle" x="431" y="-231.5" font-family="Helvetica,sans-Serif" font-size="10.00">Point.hpp</text>
</a>
</g>
</g>
<!-- Node1&#45;&gt;Node6 -->
<g id="edge6" class="edge">
<title>Node1&#45;&gt;Node6</title>
<path fill="none" stroke="midnightblue" d="M387.51,-280.4C395.96,-271.58 406.88,-260.18 415.66,-251.02"/>
<polygon fill="midnightblue" stroke="midnightblue" points="418.32,-253.3 422.71,-243.66 413.26,-248.46 418.32,-253.3"/>
</g>
<!-- Node7 -->
<g id="node7" class="node">
<title>Node7</title>
<g id="a_node7"><a xlink:href="HealthBehaviour_8hpp.html" target="_top" xlink:title=" ">
<polygon fill="none" stroke="black" points="0,-224.5 0,-243.5 156,-243.5 156,-224.5 0,-224.5"/>
<text text-anchor="middle" x="78" y="-231.5" font-family="Helvetica,sans-Serif" font-size="10.00">../Common/HealthBehaviour.hpp</text>
</a>
</g>
</g>
<!-- Node1&#45;&gt;Node7 -->
<g id="edge7" class="edge">
<title>Node1&#45;&gt;Node7</title>
<path fill="none" stroke="midnightblue" d="M308.31,-281.3C254.77,-270.53 180.16,-255.54 130.53,-245.56"/>
<polygon fill="midnightblue" stroke="midnightblue" points="131.14,-242.11 120.65,-243.57 129.76,-248.97 131.14,-242.11"/>
</g>
<!-- Node13 -->
<g id="node13" class="node">
<title>Node13</title>
<g id="a_node13"><a xlink:href="CoolDownBehaviour_8hpp.html" target="_top" xlink:title=" ">
<polygon fill="none" stroke="black" points="174,-224.5 174,-243.5 346,-243.5 346,-224.5 174,-224.5"/>
<text text-anchor="middle" x="260" y="-231.5" font-family="Helvetica,sans-Serif" font-size="10.00">../Common/CoolDownBehaviour.hpp</text>
</a>
</g>
</g>
<!-- Node1&#45;&gt;Node13 -->
<g id="edge18" class="edge">
<title>Node1&#45;&gt;Node13</title>
<path fill="none" stroke="midnightblue" d="M346.98,-280.4C328.37,-270.68 303.79,-257.86 285.51,-248.31"/>
<polygon fill="midnightblue" stroke="midnightblue" points="287.07,-245.18 276.59,-243.66 283.83,-251.39 287.07,-245.18"/>
</g>
<!-- Node14 -->
<g id="node14" class="node">
<title>Node14</title>
<g id="a_node14"><a xlink:href="LevelMode_8hpp.html" target="_top" xlink:title=" ">
<polygon fill="none" stroke="black" points="477.5,-224.5 477.5,-243.5 608.5,-243.5 608.5,-224.5 477.5,-224.5"/>
<text text-anchor="middle" x="543" y="-231.5" font-family="Helvetica,sans-Serif" font-size="10.00">../../Enums/LevelMode.hpp</text>
</a>
</g>
</g>
<!-- Node1&#45;&gt;Node14 -->
<g id="edge20" class="edge">
<title>Node1&#45;&gt;Node14</title>
<path fill="none" stroke="midnightblue" d="M414.05,-280.4C442.91,-270.24 481.45,-256.67 508.85,-247.02"/>
<polygon fill="midnightblue" stroke="midnightblue" points="510.14,-250.28 518.41,-243.66 507.81,-243.68 510.14,-250.28"/>
</g>
<!-- Node3 -->
<g id="node3" class="node">
<title>Node3</title>
<g id="a_node3"><a xlink:href="Component_8hpp.html" target="_top" xlink:title=" ">
<polygon fill="none" stroke="black" points="195,-56.5 195,-75.5 279,-75.5 279,-56.5 195,-56.5"/>
<text text-anchor="middle" x="237" y="-63.5" font-family="Helvetica,sans-Serif" font-size="10.00">Component.hpp</text>
</a>
</g>
</g>
<!-- Node2&#45;&gt;Node3 -->
<g id="edge2" class="edge">
<title>Node2&#45;&gt;Node3</title>
<path fill="none" stroke="midnightblue" d="M258.2,-168.37C254.48,-150.62 245.92,-109.67 240.89,-85.6"/>
<polygon fill="midnightblue" stroke="midnightblue" points="244.27,-84.66 238.8,-75.59 237.42,-86.1 244.27,-84.66"/>
</g>
<!-- Node5 -->
<g id="node5" class="node">
<title>Node5</title>
<g id="a_node5"><a xlink:href="Collider_8hpp.html" target="_top" xlink:title=" ">
<polygon fill="none" stroke="black" points="276.5,-112.5 276.5,-131.5 343.5,-131.5 343.5,-112.5 276.5,-112.5"/>
<text text-anchor="middle" x="310" y="-119.5" font-family="Helvetica,sans-Serif" font-size="10.00">Collider.hpp</text>
</a>
</g>
</g>
<!-- Node2&#45;&gt;Node5 -->
<g id="edge4" class="edge">
<title>Node2&#45;&gt;Node5</title>
<path fill="none" stroke="midnightblue" d="M268.26,-168.08C275.46,-160.3 286.11,-148.8 294.85,-139.37"/>
<polygon fill="midnightblue" stroke="midnightblue" points="297.67,-141.47 301.9,-131.75 292.53,-136.71 297.67,-141.47"/>
</g>
<!-- Node4 -->
<g id="node4" class="node">
<title>Node4</title>
<g id="a_node4"><a xlink:title=" ">
<polygon fill="none" stroke="#bfbfbf" points="6.5,-0.5 6.5,-19.5 57.5,-19.5 57.5,-0.5 6.5,-0.5"/>
<text text-anchor="middle" x="32" y="-7.5" font-family="Helvetica,sans-Serif" font-size="10.00">memory</text>
</a>
</g>
</g>
<!-- Node3&#45;&gt;Node4 -->
<g id="edge3" class="edge">
<title>Node3&#45;&gt;Node4</title>
<path fill="none" stroke="midnightblue" d="M204.52,-56.44C167.1,-46.59 105.85,-30.45 67.29,-20.3"/>
<polygon fill="midnightblue" stroke="midnightblue" points="68.09,-16.89 57.53,-17.73 66.31,-23.66 68.09,-16.89"/>
</g>
<!-- Node5&#45;&gt;Node3 -->
<g id="edge5" class="edge">
<title>Node5&#45;&gt;Node3</title>
<path fill="none" stroke="midnightblue" d="M298.27,-112.32C287.16,-104.11 270.26,-91.6 257.02,-81.81"/>
<polygon fill="midnightblue" stroke="midnightblue" points="259.06,-78.97 248.94,-75.83 254.9,-84.59 259.06,-78.97"/>
</g>
<!-- Node7&#45;&gt;Node2 -->
<g id="edge8" class="edge">
<title>Node7&#45;&gt;Node2</title>
<path fill="none" stroke="midnightblue" d="M106.84,-224.44C137.86,-215.24 187.33,-200.56 221.62,-190.39"/>
<polygon fill="midnightblue" stroke="midnightblue" points="222.71,-193.72 231.3,-187.52 220.71,-187.01 222.71,-193.72"/>
</g>
<!-- Node7&#45;&gt;Node4 -->
<g id="edge9" class="edge">
<title>Node7&#45;&gt;Node4</title>
<path fill="none" stroke="midnightblue" d="M69.12,-224.24C61.12,-215.77 49.75,-202.15 44,-188 22.03,-133.88 26.02,-62.81 29.57,-29.6"/>
<polygon fill="midnightblue" stroke="midnightblue" points="33.06,-29.87 30.76,-19.53 26.11,-29.05 33.06,-29.87"/>
</g>
<!-- Node8 -->
<g id="node8" class="node">
<title>Node8</title>
<g id="a_node8"><a xlink:href="Animator_8hpp.html" target="_top" xlink:title=" ">
<polygon fill="none" stroke="black" points="53,-168.5 53,-187.5 127,-187.5 127,-168.5 53,-168.5"/>
<text text-anchor="middle" x="90" y="-175.5" font-family="Helvetica,sans-Serif" font-size="10.00">Animator.hpp</text>
</a>
</g>
</g>
<!-- Node7&#45;&gt;Node8 -->
<g id="edge10" class="edge">
<title>Node7&#45;&gt;Node8</title>
<path fill="none" stroke="midnightblue" d="M79.98,-224.08C81.57,-216.93 83.86,-206.64 85.85,-197.69"/>
<polygon fill="midnightblue" stroke="midnightblue" points="89.3,-198.27 88.06,-187.75 82.47,-196.75 89.3,-198.27"/>
</g>
<!-- Node8&#45;&gt;Node3 -->
<g id="edge11" class="edge">
<title>Node8&#45;&gt;Node3</title>
<path fill="none" stroke="midnightblue" d="M119.71,-168.46C141.15,-161.24 169.93,-149.29 191,-132 206.98,-118.89 219.98,-98.93 228.04,-84.58"/>
<polygon fill="midnightblue" stroke="midnightblue" points="231.16,-86.17 232.8,-75.7 224.99,-82.86 231.16,-86.17"/>
</g>
<!-- Node8&#45;&gt;Node4 -->
<g id="edge17" class="edge">
<title>Node8&#45;&gt;Node4</title>
<path fill="none" stroke="midnightblue" d="M79.91,-168.46C70.79,-160.14 57.8,-146.63 51,-132 35.38,-98.37 32.22,-54.41 31.8,-29.8"/>
<polygon fill="midnightblue" stroke="midnightblue" points="35.3,-29.67 31.76,-19.68 28.3,-29.69 35.3,-29.67"/>
</g>
<!-- Node9 -->
<g id="node9" class="node">
<title>Node9</title>
<g id="a_node9"><a xlink:href="Sprite_8hpp.html" target="_top" xlink:title=" ">
<polygon fill="none" stroke="black" points="60,-112.5 60,-131.5 120,-131.5 120,-112.5 60,-112.5"/>
<text text-anchor="middle" x="90" y="-119.5" font-family="Helvetica,sans-Serif" font-size="10.00">Sprite.hpp</text>
</a>
</g>
</g>
<!-- Node8&#45;&gt;Node9 -->
<g id="edge12" class="edge">
<title>Node8&#45;&gt;Node9</title>
<path fill="none" stroke="midnightblue" d="M90,-168.08C90,-161.01 90,-150.86 90,-141.99"/>
<polygon fill="midnightblue" stroke="midnightblue" points="93.5,-141.75 90,-131.75 86.5,-141.75 93.5,-141.75"/>
</g>
<!-- Node12 -->
<g id="node12" class="node">
<title>Node12</title>
<g id="a_node12"><a xlink:title=" ">
<polygon fill="none" stroke="#bfbfbf" points="138,-112.5 138,-131.5 182,-131.5 182,-112.5 138,-112.5"/>
<text text-anchor="middle" x="160" y="-119.5" font-family="Helvetica,sans-Serif" font-size="10.00">vector</text>
</a>
</g>
</g>
<!-- Node8&#45;&gt;Node12 -->
<g id="edge16" class="edge">
<title>Node8&#45;&gt;Node12</title>
<path fill="none" stroke="midnightblue" d="M101.25,-168.32C111.8,-160.18 127.8,-147.84 140.44,-138.09"/>
<polygon fill="midnightblue" stroke="midnightblue" points="142.77,-140.71 148.55,-131.83 138.49,-135.17 142.77,-140.71"/>
</g>
<!-- Node9&#45;&gt;Node3 -->
<g id="edge13" class="edge">
<title>Node9&#45;&gt;Node3</title>
<path fill="none" stroke="midnightblue" d="M113.29,-112.44C137.81,-103.44 176.6,-89.19 204.2,-79.05"/>
<polygon fill="midnightblue" stroke="midnightblue" points="205.64,-82.25 213.82,-75.52 203.22,-75.68 205.64,-82.25"/>
</g>
<!-- Node10 -->
<g id="node10" class="node">
<title>Node10</title>
<g id="a_node10"><a xlink:href="Color_8hpp.html" target="_top" xlink:title=" ">
<polygon fill="none" stroke="black" points="119.5,-56.5 119.5,-75.5 176.5,-75.5 176.5,-56.5 119.5,-56.5"/>
<text text-anchor="middle" x="148" y="-63.5" font-family="Helvetica,sans-Serif" font-size="10.00">Color.hpp</text>
</a>
</g>
</g>
<!-- Node9&#45;&gt;Node10 -->
<g id="edge14" class="edge">
<title>Node9&#45;&gt;Node10</title>
<path fill="none" stroke="midnightblue" d="M99.32,-112.32C107.89,-104.34 120.81,-92.31 131.19,-82.65"/>
<polygon fill="midnightblue" stroke="midnightblue" points="133.58,-85.21 138.51,-75.83 128.81,-80.09 133.58,-85.21"/>
</g>
<!-- Node11 -->
<g id="node11" class="node">
<title>Node11</title>
<g id="a_node11"><a xlink:title=" ">
<polygon fill="none" stroke="#bfbfbf" points="60.5,-56.5 60.5,-75.5 101.5,-75.5 101.5,-56.5 60.5,-56.5"/>
<text text-anchor="middle" x="81" y="-63.5" font-family="Helvetica,sans-Serif" font-size="10.00">string</text>
</a>
</g>
</g>
<!-- Node9&#45;&gt;Node11 -->
<g id="edge15" class="edge">
<title>Node9&#45;&gt;Node11</title>
<path fill="none" stroke="midnightblue" d="M88.51,-112.08C87.32,-104.93 85.61,-94.64 84.12,-85.69"/>
<polygon fill="midnightblue" stroke="midnightblue" points="87.55,-85.04 82.46,-75.75 80.65,-86.19 87.55,-85.04"/>
</g>
<!-- Node13&#45;&gt;Node2 -->
<g id="edge19" class="edge">
<title>Node13&#45;&gt;Node2</title>
<path fill="none" stroke="midnightblue" d="M260,-224.08C260,-217.01 260,-206.86 260,-197.99"/>
<polygon fill="midnightblue" stroke="midnightblue" points="263.5,-197.75 260,-187.75 256.5,-197.75 263.5,-197.75"/>
</g>
</g>
</svg>
