<?xml version="1.0" encoding="UTF-8" standalone="no"?>
<!DOCTYPE svg PUBLIC "-//W3C//DTD SVG 1.1//EN"
 "http://www.w3.org/Graphics/SVG/1.1/DTD/svg11.dtd">
<!-- Generated by graphviz version 2.44.0 ()
 -->
<!-- Title: src/Scenes/VictoryScene.cpp Pages: 1 -->
<!--zoomable 386 -->
<svg id="main" version="1.1" xmlns="http://www.w3.org/2000/svg" xmlns:xlink="http://www.w3.org/1999/xlink" xml:space="preserve" onload="init(evt)">
<style type="text/css"><![CDATA[
.edge:hover path { stroke: red; }
.edge:hover polygon { stroke: red; fill: red; }
]]></style>
<script type="text/javascript"><![CDATA[
var edges = document.getElementsByTagName('g');
if (edges && edges.length) {
  for (var i=0;i<edges.length;i++) {
    if (edges[i].id.substr(0,4)=='edge') {
      edges[i].setAttribute('class','edge');
    }
  }
}
]]></script>
        <defs>
                <circle id="rim" cx="0" cy="0" r="7"/>
                <circle id="rim2" cx="0" cy="0" r="3.5"/>
                <g id="zoomPlus">
                        <use xlink:href="#rim" fill="#404040">
                                <set attributeName="fill" to="#808080" begin="zoomplus.mouseover" end="zoomplus.mouseout"/>
                        </use>
                        <path d="M-4,0h8M0,-4v8" fill="none" stroke="white" stroke-width="1.5" pointer-events="none"/>
                </g>
                <g id="zoomMin">
                        <use xlink:href="#rim" fill="#404040">
                                <set attributeName="fill" to="#808080" begin="zoomminus.mouseover" end="zoomminus.mouseout"/>
                        </use>
                        <path d="M-4,0h8" fill="none" stroke="white" stroke-width="1.5" pointer-events="none"/>
                </g>
                <g id="dirArrow">
                        <path fill="none" stroke="white" stroke-width="1.5" d="M0,-3.0v7 M-2.5,-0.5L0,-3.0L2.5,-0.5"/>
                </g>
               <g id="resetDef">
                       <use xlink:href="#rim2" fill="#404040">
                               <set attributeName="fill" to="#808080" begin="reset.mouseover" end="reset.mouseout"/>
                       </use>
               </g>
        </defs>

<script type="text/javascript">
var viewWidth = 1568;
var viewHeight = 386;
var sectionId = 'dynsection-0';
</script>
<script xlink:href="svgpan.js"/>
<svg id="graph" class="graph">
<g id="viewport">
<title>src/Scenes/VictoryScene.cpp</title>
<!-- Node1 -->
<g id="node1" class="node">
<title>Node1</title>
<g id="a_node1"><a xlink:title=" ">
<polygon fill="#bfbfbf" stroke="black" points="793,-358.5 793,-377.5 938,-377.5 938,-358.5 793,-358.5"/>
<text text-anchor="middle" x="865.5" y="-365.5" font-family="Helvetica,sans-Serif" font-size="10.00">src/Scenes/VictoryScene.cpp</text>
</a>
</g>
</g>
<!-- Node2 -->
<g id="node2" class="node">
<title>Node2</title>
<g id="a_node2"><a xlink:href="VictoryScene_8hpp.html" target="_top" xlink:title=" ">
<polygon fill="none" stroke="black" points="287.5,-297 287.5,-316 379.5,-316 379.5,-297 287.5,-297"/>
<text text-anchor="middle" x="333.5" y="-304" font-family="Helvetica,sans-Serif" font-size="10.00">VictoryScene.hpp</text>
</a>
</g>
</g>
<!-- Node1&#45;&gt;Node2 -->
<g id="edge1" class="edge">
<title>Node1&#45;&gt;Node2</title>
<path fill="none" stroke="midnightblue" d="M792.72,-362.17C701.8,-355.6 541.61,-342.31 405.5,-322 397.96,-320.87 390.01,-319.48 382.26,-318.01"/>
<polygon fill="midnightblue" stroke="midnightblue" points="382.72,-314.54 372.23,-316.05 381.38,-321.41 382.72,-314.54"/>
</g>
<!-- Node9 -->
<g id="node9" class="node">
<title>Node9</title>
<g id="a_node9"><a xlink:href="BoxCollider_8hpp.html" target="_top" xlink:title=" ">
<polygon fill="none" stroke="black" points="1337,-235.5 1337,-254.5 1420,-254.5 1420,-235.5 1337,-235.5"/>
<text text-anchor="middle" x="1378.5" y="-242.5" font-family="Helvetica,sans-Serif" font-size="10.00">BoxCollider.hpp</text>
</a>
</g>
</g>
<!-- Node1&#45;&gt;Node9 -->
<g id="edge8" class="edge">
<title>Node1&#45;&gt;Node9</title>
<path fill="none" stroke="midnightblue" d="M938.34,-363.32C1038.3,-357.52 1212.35,-344.53 1271.5,-322 1307.46,-308.3 1342.54,-279.6 1362.25,-261.66"/>
<polygon fill="midnightblue" stroke="midnightblue" points="1364.79,-264.08 1369.72,-254.7 1360.01,-258.96 1364.79,-264.08"/>
</g>
<!-- Node12 -->
<g id="node12" class="node">
<title>Node12</title>
<g id="a_node12"><a xlink:href="CircleCollider_8hpp.html" target="_top" xlink:title=" ">
<polygon fill="none" stroke="black" points="1467.5,-297 1467.5,-316 1559.5,-316 1559.5,-297 1467.5,-297"/>
<text text-anchor="middle" x="1513.5" y="-304" font-family="Helvetica,sans-Serif" font-size="10.00">CircleCollider.hpp</text>
</a>
</g>
</g>
<!-- Node1&#45;&gt;Node12 -->
<g id="edge12" class="edge">
<title>Node1&#45;&gt;Node12</title>
<path fill="none" stroke="midnightblue" d="M938.17,-365.4C1049.99,-362.05 1270.69,-351.93 1455.5,-322 1461.34,-321.05 1467.46,-319.81 1473.44,-318.45"/>
<polygon fill="midnightblue" stroke="midnightblue" points="1474.39,-321.82 1483.3,-316.08 1472.76,-315.01 1474.39,-321.82"/>
</g>
<!-- Node13 -->
<g id="node13" class="node">
<title>Node13</title>
<g id="a_node13"><a xlink:href="Color_8hpp.html" target="_top" xlink:title=" ">
<polygon fill="none" stroke="black" points="507,-235.5 507,-254.5 564,-254.5 564,-235.5 507,-235.5"/>
<text text-anchor="middle" x="535.5" y="-242.5" font-family="Helvetica,sans-Serif" font-size="10.00">Color.hpp</text>
</a>
</g>
</g>
<!-- Node1&#45;&gt;Node13 -->
<g id="edge14" class="edge">
<title>Node1&#45;&gt;Node13</title>
<path fill="none" stroke="midnightblue" d="M792.82,-366.07C710.8,-363.44 584.37,-354.12 550.5,-322 535.13,-307.42 533,-282.02 533.63,-264.62"/>
<polygon fill="midnightblue" stroke="midnightblue" points="537.13,-264.76 534.33,-254.54 530.14,-264.28 537.13,-264.76"/>
</g>
<!-- Node14 -->
<g id="node14" class="node">
<title>Node14</title>
<g id="a_node14"><a xlink:href="Engine_8hpp.html" target="_top" xlink:title=" ">
<polygon fill="none" stroke="black" points="386.5,-235.5 386.5,-254.5 450.5,-254.5 450.5,-235.5 386.5,-235.5"/>
<text text-anchor="middle" x="418.5" y="-242.5" font-family="Helvetica,sans-Serif" font-size="10.00">Engine.hpp</text>
</a>
</g>
</g>
<!-- Node1&#45;&gt;Node14 -->
<g id="edge15" class="edge">
<title>Node1&#45;&gt;Node14</title>
<path fill="none" stroke="midnightblue" d="M792.56,-363.67C678.18,-357.8 466.88,-344.09 440.5,-322 423.91,-308.11 419.41,-282.54 418.4,-264.93"/>
<polygon fill="midnightblue" stroke="midnightblue" points="421.89,-264.61 418.15,-254.7 414.89,-264.78 421.89,-264.61"/>
</g>
<!-- Node17 -->
<g id="node17" class="node">
<title>Node17</title>
<g id="a_node17"><a xlink:href="RigidBody_8hpp.html" target="_top" xlink:title=" ">
<polygon fill="none" stroke="black" points="972.5,-112.5 972.5,-131.5 1050.5,-131.5 1050.5,-112.5 972.5,-112.5"/>
<text text-anchor="middle" x="1011.5" y="-119.5" font-family="Helvetica,sans-Serif" font-size="10.00">RigidBody.hpp</text>
</a>
</g>
</g>
<!-- Node1&#45;&gt;Node17 -->
<g id="edge20" class="edge">
<title>Node1&#45;&gt;Node17</title>
<path fill="none" stroke="midnightblue" d="M925.96,-358.43C967.9,-351.1 1018.48,-339.02 1031.5,-322 1073.15,-267.55 1038.66,-178.72 1020.7,-140.93"/>
<polygon fill="midnightblue" stroke="midnightblue" points="1023.71,-139.12 1016.15,-131.69 1017.43,-142.21 1023.71,-139.12"/>
</g>
<!-- Node19 -->
<g id="node19" class="node">
<title>Node19</title>
<g id="a_node19"><a xlink:href="Sprite_8hpp.html" target="_top" xlink:title=" ">
<polygon fill="none" stroke="black" points="806.5,-297 806.5,-316 866.5,-316 866.5,-297 806.5,-297"/>
<text text-anchor="middle" x="836.5" y="-304" font-family="Helvetica,sans-Serif" font-size="10.00">Sprite.hpp</text>
</a>
</g>
</g>
<!-- Node1&#45;&gt;Node19 -->
<g id="edge23" class="edge">
<title>Node1&#45;&gt;Node19</title>
<path fill="none" stroke="midnightblue" d="M861.35,-358.48C857.12,-349.82 850.46,-336.15 845.1,-325.15"/>
<polygon fill="midnightblue" stroke="midnightblue" points="848.17,-323.46 840.65,-316.01 841.88,-326.53 848.17,-323.46"/>
</g>
<!-- Node20 -->
<g id="node20" class="node">
<title>Node20</title>
<g id="a_node20"><a xlink:href="Text_8hpp.html" target="_top" xlink:title=" ">
<polygon fill="none" stroke="black" points="450,-297 450,-316 503,-316 503,-297 450,-297"/>
<text text-anchor="middle" x="476.5" y="-304" font-family="Helvetica,sans-Serif" font-size="10.00">Text.hpp</text>
</a>
</g>
</g>
<!-- Node1&#45;&gt;Node20 -->
<g id="edge27" class="edge">
<title>Node1&#45;&gt;Node20</title>
<path fill="none" stroke="midnightblue" d="M792.71,-362.09C721.74,-356.25 611.12,-344.34 517.5,-322 514.27,-321.23 510.94,-320.29 507.63,-319.28"/>
<polygon fill="midnightblue" stroke="midnightblue" points="508.54,-315.89 497.95,-316.05 506.33,-322.53 508.54,-315.89"/>
</g>
<!-- Node24 -->
<g id="node24" class="node">
<title>Node24</title>
<g id="a_node24"><a xlink:href="src_2Enums_2Font_8hpp.html" target="_top" xlink:title=" ">
<polygon fill="none" stroke="black" points="0,-235.5 0,-254.5 95,-254.5 95,-235.5 0,-235.5"/>
<text text-anchor="middle" x="47.5" y="-242.5" font-family="Helvetica,sans-Serif" font-size="10.00">../Enums/Font.hpp</text>
</a>
</g>
</g>
<!-- Node1&#45;&gt;Node24 -->
<g id="edge38" class="edge">
<title>Node1&#45;&gt;Node24</title>
<path fill="none" stroke="midnightblue" d="M792.9,-367.03C681.25,-365.83 461.17,-358.49 278.5,-322 204.18,-307.15 120.5,-275.76 77.13,-258.32"/>
<polygon fill="midnightblue" stroke="midnightblue" points="78.34,-255.03 67.76,-254.52 75.71,-261.52 78.34,-255.03"/>
</g>
<!-- Node25 -->
<g id="node25" class="node">
<title>Node25</title>
<g id="a_node25"><a xlink:href="Layer_8hpp.html" target="_top" xlink:title=" ">
<polygon fill="none" stroke="black" points="923,-297 923,-316 1022,-316 1022,-297 923,-297"/>
<text text-anchor="middle" x="972.5" y="-304" font-family="Helvetica,sans-Serif" font-size="10.00">../Enums/Layer.hpp</text>
</a>
</g>
</g>
<!-- Node1&#45;&gt;Node25 -->
<g id="edge40" class="edge">
<title>Node1&#45;&gt;Node25</title>
<path fill="none" stroke="midnightblue" d="M880.83,-358.48C898.47,-348.67 927.66,-332.43 948.36,-320.92"/>
<polygon fill="midnightblue" stroke="midnightblue" points="950.16,-323.93 957.2,-316.01 946.76,-317.81 950.16,-323.93"/>
</g>
<!-- Node26 -->
<g id="node26" class="node">
<title>Node26</title>
<g id="a_node26"><a xlink:href="AudioSourcePrefabFactory_8hpp.html" target="_top" xlink:title=" ">
<polygon fill="none" stroke="black" points="1079,-168.5 1079,-198.5 1202,-198.5 1202,-168.5 1079,-168.5"/>
<text text-anchor="start" x="1087" y="-186.5" font-family="Helvetica,sans-Serif" font-size="10.00">../Factories/AudioSource</text>
<text text-anchor="middle" x="1140.5" y="-175.5" font-family="Helvetica,sans-Serif" font-size="10.00">PrefabFactory.hpp</text>
</a>
</g>
</g>
<!-- Node1&#45;&gt;Node26 -->
<g id="edge41" class="edge">
<title>Node1&#45;&gt;Node26</title>
<path fill="none" stroke="midnightblue" d="M938.29,-364.87C978.88,-360.39 1028.39,-349.12 1064.5,-322 1102.71,-293.31 1124.22,-239.49 1133.98,-208.37"/>
<polygon fill="midnightblue" stroke="midnightblue" points="1137.35,-209.34 1136.86,-198.76 1130.64,-207.34 1137.35,-209.34"/>
</g>
<!-- Node29 -->
<g id="node29" class="node">
<title>Node29</title>
<g id="a_node29"><a xlink:href="ButtonPrefabFactory_8hpp.html" target="_top" xlink:title=" ">
<polygon fill="none" stroke="black" points="664,-291.5 664,-321.5 789,-321.5 789,-291.5 664,-291.5"/>
<text text-anchor="start" x="672" y="-309.5" font-family="Helvetica,sans-Serif" font-size="10.00">../Factories/ButtonPrefab</text>
<text text-anchor="middle" x="726.5" y="-298.5" font-family="Helvetica,sans-Serif" font-size="10.00">Factory.hpp</text>
</a>
</g>
</g>
<!-- Node1&#45;&gt;Node29 -->
<g id="edge48" class="edge">
<title>Node1&#45;&gt;Node29</title>
<path fill="none" stroke="midnightblue" d="M845.58,-358.48C825.62,-349.93 794.25,-336.5 768.72,-325.57"/>
<polygon fill="midnightblue" stroke="midnightblue" points="769.83,-322.24 759.26,-321.52 767.08,-328.68 769.83,-322.24"/>
</g>
<!-- Node32 -->
<g id="node32" class="node">
<title>Node32</title>
<g id="a_node32"><a xlink:href="ConfettiBehaviour_8hpp.html" target="_top" xlink:title=" ">
<polygon fill="none" stroke="black" points="1143,-291.5 1143,-321.5 1262,-321.5 1262,-291.5 1143,-291.5"/>
<text text-anchor="start" x="1151" y="-309.5" font-family="Helvetica,sans-Serif" font-size="10.00">../Scripts/Menu/Confetti</text>
<text text-anchor="middle" x="1202.5" y="-298.5" font-family="Helvetica,sans-Serif" font-size="10.00">Behaviour.hpp</text>
</a>
</g>
</g>
<!-- Node1&#45;&gt;Node32 -->
<g id="edge54" class="edge">
<title>Node1&#45;&gt;Node32</title>
<path fill="none" stroke="midnightblue" d="M913.78,-358.48C971.14,-348.35 1067.27,-331.38 1132.71,-319.82"/>
<polygon fill="midnightblue" stroke="midnightblue" points="1133.7,-323.2 1142.94,-318.02 1132.49,-316.31 1133.7,-323.2"/>
</g>
<!-- Node34 -->
<g id="node34" class="node">
<title>Node34</title>
<g id="a_node34"><a xlink:href="RandomUtil_8hpp.html" target="_top" xlink:title=" ">
<polygon fill="none" stroke="black" points="1337,-297 1337,-316 1446,-316 1446,-297 1337,-297"/>
<text text-anchor="middle" x="1391.5" y="-304" font-family="Helvetica,sans-Serif" font-size="10.00">Utils/RandomUtil.hpp</text>
</a>
</g>
</g>
<!-- Node1&#45;&gt;Node34 -->
<g id="edge58" class="edge">
<title>Node1&#45;&gt;Node34</title>
<path fill="none" stroke="midnightblue" d="M938,-361.82C1027.32,-354.97 1183.56,-341.44 1316.5,-322 1324.52,-320.83 1332.99,-319.39 1341.24,-317.87"/>
<polygon fill="midnightblue" stroke="midnightblue" points="1341.96,-321.3 1351.14,-316.01 1340.66,-314.42 1341.96,-321.3"/>
</g>
<!-- Node36 -->
<g id="node36" class="node">
<title>Node36</title>
<g id="a_node36"><a xlink:href="GameObjectUtil_8hpp.html" target="_top" xlink:title=" ">
<polygon fill="none" stroke="black" points="738.5,-174 738.5,-193 866.5,-193 866.5,-174 738.5,-174"/>
<text text-anchor="middle" x="802.5" y="-181" font-family="Helvetica,sans-Serif" font-size="10.00">Utils/GameObjectUtil.hpp</text>
</a>
</g>
</g>
<!-- Node1&#45;&gt;Node36 -->
<g id="edge60" class="edge">
<title>Node1&#45;&gt;Node36</title>
<path fill="none" stroke="midnightblue" d="M868.98,-358.36C874.23,-344.05 882.83,-314.64 875.5,-291 864.3,-254.84 836.11,-220.04 818.22,-200.55"/>
<polygon fill="midnightblue" stroke="midnightblue" points="820.67,-198.04 811.26,-193.17 815.57,-202.84 820.67,-198.04"/>
</g>
<!-- Node37 -->
<g id="node37" class="node">
<title>Node37</title>
<g id="a_node37"><a xlink:href="Constants_8hpp.html" target="_top" xlink:title=" ">
<polygon fill="none" stroke="black" points="559.5,-297 559.5,-316 645.5,-316 645.5,-297 559.5,-297"/>
<text text-anchor="middle" x="602.5" y="-304" font-family="Helvetica,sans-Serif" font-size="10.00">../Constants.hpp</text>
</a>
</g>
</g>
<!-- Node1&#45;&gt;Node37 -->
<g id="edge63" class="edge">
<title>Node1&#45;&gt;Node37</title>
<path fill="none" stroke="midnightblue" d="M821.68,-358.48C778.87,-349.96 711.97,-336.13 654.5,-322 650.35,-320.98 646.04,-319.86 641.74,-318.72"/>
<polygon fill="midnightblue" stroke="midnightblue" points="642.41,-315.27 631.84,-316.02 640.57,-322.03 642.41,-315.27"/>
</g>
<!-- Node3 -->
<g id="node3" class="node">
<title>Node3</title>
<g id="a_node3"><a xlink:href="MenuScene_8hpp.html" target="_top" xlink:title=" ">
<polygon fill="none" stroke="black" points="240.5,-174 240.5,-193 326.5,-193 326.5,-174 240.5,-174"/>
<text text-anchor="middle" x="283.5" y="-181" font-family="Helvetica,sans-Serif" font-size="10.00">MenuScene.hpp</text>
</a>
</g>
</g>
<!-- Node2&#45;&gt;Node3 -->
<g id="edge2" class="edge">
<title>Node2&#45;&gt;Node3</title>
<path fill="none" stroke="midnightblue" d="M329.9,-296.8C321.8,-277.18 301.95,-229.14 291.02,-202.69"/>
<polygon fill="midnightblue" stroke="midnightblue" points="294.12,-201.03 287.06,-193.12 287.65,-203.7 294.12,-201.03"/>
</g>
<!-- Node4 -->
<g id="node4" class="node">
<title>Node4</title>
<g id="a_node4"><a xlink:href="Scene_8hpp.html" target="_top" xlink:title=" ">
<polygon fill="none" stroke="black" points="568.5,-112.5 568.5,-131.5 630.5,-131.5 630.5,-112.5 568.5,-112.5"/>
<text text-anchor="middle" x="599.5" y="-119.5" font-family="Helvetica,sans-Serif" font-size="10.00">Scene.hpp</text>
</a>
</g>
</g>
<!-- Node3&#45;&gt;Node4 -->
<g id="edge3" class="edge">
<title>Node3&#45;&gt;Node4</title>
<path fill="none" stroke="midnightblue" d="M326.78,-174.35C387.81,-162.86 498.42,-142.03 558.31,-130.76"/>
<polygon fill="midnightblue" stroke="midnightblue" points="558.99,-134.19 568.17,-128.9 557.7,-127.31 558.99,-134.19"/>
</g>
<!-- Node7 -->
<g id="node7" class="node">
<title>Node7</title>
<g id="a_node7"><a xlink:href="BackgroundName_8hpp.html" target="_top" xlink:title=" ">
<polygon fill="none" stroke="black" points="152,-112.5 152,-131.5 305,-131.5 305,-112.5 152,-112.5"/>
<text text-anchor="middle" x="228.5" y="-119.5" font-family="Helvetica,sans-Serif" font-size="10.00">../Enums/BackgroundName.hpp</text>
</a>
</g>
</g>
<!-- Node3&#45;&gt;Node7 -->
<g id="edge6" class="edge">
<title>Node3&#45;&gt;Node7</title>
<path fill="none" stroke="midnightblue" d="M275.62,-173.98C267.21,-164.87 253.68,-150.24 243.27,-138.98"/>
<polygon fill="midnightblue" stroke="midnightblue" points="245.72,-136.48 236.37,-131.51 240.58,-141.23 245.72,-136.48"/>
</g>
<!-- Node8 -->
<g id="node8" class="node">
<title>Node8</title>
<g id="a_node8"><a xlink:title=" ">
<polygon fill="none" stroke="#bfbfbf" points="389,-56.5 389,-75.5 430,-75.5 430,-56.5 389,-56.5"/>
<text text-anchor="middle" x="409.5" y="-63.5" font-family="Helvetica,sans-Serif" font-size="10.00">string</text>
</a>
</g>
</g>
<!-- Node3&#45;&gt;Node8 -->
<g id="edge7" class="edge">
<title>Node3&#45;&gt;Node8</title>
<path fill="none" stroke="midnightblue" d="M292.48,-173.68C306.28,-160.18 333.59,-133.71 357.5,-112 368.55,-101.97 381.2,-91 391.27,-82.41"/>
<polygon fill="midnightblue" stroke="midnightblue" points="393.66,-84.97 399.01,-75.82 389.13,-79.63 393.66,-84.97"/>
</g>
<!-- Node5 -->
<g id="node5" class="node">
<title>Node5</title>
<g id="a_node5"><a xlink:title=" ">
<polygon fill="none" stroke="#bfbfbf" points="591.5,-56.5 591.5,-75.5 635.5,-75.5 635.5,-56.5 591.5,-56.5"/>
<text text-anchor="middle" x="613.5" y="-63.5" font-family="Helvetica,sans-Serif" font-size="10.00">vector</text>
</a>
</g>
</g>
<!-- Node4&#45;&gt;Node5 -->
<g id="edge4" class="edge">
<title>Node4&#45;&gt;Node5</title>
<path fill="none" stroke="midnightblue" d="M601.81,-112.08C603.67,-104.93 606.34,-94.64 608.65,-85.69"/>
<polygon fill="midnightblue" stroke="midnightblue" points="612.11,-86.31 611.23,-75.75 605.33,-84.55 612.11,-86.31"/>
</g>
<!-- Node6 -->
<g id="node6" class="node">
<title>Node6</title>
<g id="a_node6"><a xlink:title=" ">
<polygon fill="none" stroke="#bfbfbf" points="811,-0.5 811,-19.5 862,-19.5 862,-0.5 811,-0.5"/>
<text text-anchor="middle" x="836.5" y="-7.5" font-family="Helvetica,sans-Serif" font-size="10.00">memory</text>
</a>
</g>
</g>
<!-- Node4&#45;&gt;Node6 -->
<g id="edge5" class="edge">
<title>Node4&#45;&gt;Node6</title>
<path fill="none" stroke="midnightblue" d="M592.95,-112.37C583.53,-98.83 568.71,-72.45 582.5,-56 583.38,-54.95 731,-29.27 800.76,-17.18"/>
<polygon fill="midnightblue" stroke="midnightblue" points="801.6,-20.59 810.86,-15.43 800.4,-13.69 801.6,-20.59"/>
</g>
<!-- Node10 -->
<g id="node10" class="node">
<title>Node10</title>
<g id="a_node10"><a xlink:href="Collider_8hpp.html" target="_top" xlink:title=" ">
<polygon fill="none" stroke="black" points="1345,-174 1345,-193 1412,-193 1412,-174 1345,-174"/>
<text text-anchor="middle" x="1378.5" y="-181" font-family="Helvetica,sans-Serif" font-size="10.00">Collider.hpp</text>
</a>
</g>
</g>
<!-- Node9&#45;&gt;Node10 -->
<g id="edge9" class="edge">
<title>Node9&#45;&gt;Node10</title>
<path fill="none" stroke="midnightblue" d="M1378.5,-235.48C1378.5,-227.08 1378.5,-213.98 1378.5,-203.16"/>
<polygon fill="midnightblue" stroke="midnightblue" points="1382,-203.01 1378.5,-193.01 1375,-203.01 1382,-203.01"/>
</g>
<!-- Node11 -->
<g id="node11" class="node">
<title>Node11</title>
<g id="a_node11"><a xlink:href="Component_8hpp.html" target="_top" xlink:title=" ">
<polygon fill="none" stroke="black" points="969.5,-56.5 969.5,-75.5 1053.5,-75.5 1053.5,-56.5 969.5,-56.5"/>
<text text-anchor="middle" x="1011.5" y="-63.5" font-family="Helvetica,sans-Serif" font-size="10.00">Component.hpp</text>
</a>
</g>
</g>
<!-- Node10&#45;&gt;Node11 -->
<g id="edge10" class="edge">
<title>Node10&#45;&gt;Node11</title>
<path fill="none" stroke="midnightblue" d="M1375.34,-173.82C1369.26,-158.5 1354.39,-126.86 1330.5,-112 1287.04,-84.96 1142.66,-73.58 1063.88,-69.29"/>
<polygon fill="midnightblue" stroke="midnightblue" points="1063.85,-65.79 1053.68,-68.76 1063.49,-72.78 1063.85,-65.79"/>
</g>
<!-- Node11&#45;&gt;Node6 -->
<g id="edge11" class="edge">
<title>Node11&#45;&gt;Node6</title>
<path fill="none" stroke="midnightblue" d="M983.77,-56.44C953.46,-47.09 904.83,-32.08 871.81,-21.9"/>
<polygon fill="midnightblue" stroke="midnightblue" points="872.69,-18.51 862.11,-18.9 870.63,-25.19 872.69,-18.51"/>
</g>
<!-- Node12&#45;&gt;Node10 -->
<g id="edge13" class="edge">
<title>Node12&#45;&gt;Node10</title>
<path fill="none" stroke="midnightblue" d="M1513.77,-296.58C1513.74,-282 1511.61,-252.89 1496.5,-235 1477.65,-212.69 1447.16,-199.98 1421.89,-192.9"/>
<polygon fill="midnightblue" stroke="midnightblue" points="1422.71,-189.49 1412.15,-190.36 1420.95,-196.27 1422.71,-189.49"/>
</g>
<!-- Node14&#45;&gt;Node4 -->
<g id="edge19" class="edge">
<title>Node14&#45;&gt;Node4</title>
<path fill="none" stroke="midnightblue" d="M431.23,-235.49C461.79,-215.06 539.61,-163.04 577.75,-137.54"/>
<polygon fill="midnightblue" stroke="midnightblue" points="580.18,-140.13 586.54,-131.66 576.29,-134.31 580.18,-140.13"/>
</g>
<!-- Node15 -->
<g id="node15" class="node">
<title>Node15</title>
<g id="a_node15"><a xlink:href="EngineConfig_8hpp.html" target="_top" xlink:title=" ">
<polygon fill="none" stroke="black" points="383,-174 383,-193 474,-193 474,-174 383,-174"/>
<text text-anchor="middle" x="428.5" y="-181" font-family="Helvetica,sans-Serif" font-size="10.00">EngineConfig.hpp</text>
</a>
</g>
</g>
<!-- Node14&#45;&gt;Node15 -->
<g id="edge16" class="edge">
<title>Node14&#45;&gt;Node15</title>
<path fill="none" stroke="midnightblue" d="M419.93,-235.48C421.34,-227.08 423.55,-213.98 425.36,-203.16"/>
<polygon fill="midnightblue" stroke="midnightblue" points="428.86,-203.45 427.07,-193.01 421.96,-202.29 428.86,-203.45"/>
</g>
<!-- Node16 -->
<g id="node16" class="node">
<title>Node16</title>
<g id="a_node16"><a xlink:href="WindowConfig_8hpp.html" target="_top" xlink:title=" ">
<polygon fill="none" stroke="black" points="399.5,-112.5 399.5,-131.5 495.5,-131.5 495.5,-112.5 399.5,-112.5"/>
<text text-anchor="middle" x="447.5" y="-119.5" font-family="Helvetica,sans-Serif" font-size="10.00">WindowConfig.hpp</text>
</a>
</g>
</g>
<!-- Node15&#45;&gt;Node16 -->
<g id="edge17" class="edge">
<title>Node15&#45;&gt;Node16</title>
<path fill="none" stroke="midnightblue" d="M431.22,-173.98C433.93,-165.49 438.17,-152.2 441.65,-141.32"/>
<polygon fill="midnightblue" stroke="midnightblue" points="445.07,-142.1 444.78,-131.51 438.41,-139.97 445.07,-142.1"/>
</g>
<!-- Node16&#45;&gt;Node8 -->
<g id="edge18" class="edge">
<title>Node16&#45;&gt;Node8</title>
<path fill="none" stroke="midnightblue" d="M441.23,-112.08C435.86,-104.46 427.98,-93.26 421.42,-83.94"/>
<polygon fill="midnightblue" stroke="midnightblue" points="424.28,-81.91 415.66,-75.75 418.55,-85.94 424.28,-81.91"/>
</g>
<!-- Node17&#45;&gt;Node11 -->
<g id="edge21" class="edge">
<title>Node17&#45;&gt;Node11</title>
<path fill="none" stroke="midnightblue" d="M1011.5,-112.08C1011.5,-105.01 1011.5,-94.86 1011.5,-85.99"/>
<polygon fill="midnightblue" stroke="midnightblue" points="1015,-85.75 1011.5,-75.75 1008,-85.75 1015,-85.75"/>
</g>
<!-- Node18 -->
<g id="node18" class="node">
<title>Node18</title>
<g id="a_node18"><a xlink:href="Point_8hpp.html" target="_top" xlink:title=" ">
<polygon fill="none" stroke="black" points="719,-0.5 719,-19.5 776,-19.5 776,-0.5 719,-0.5"/>
<text text-anchor="middle" x="747.5" y="-7.5" font-family="Helvetica,sans-Serif" font-size="10.00">Point.hpp</text>
</a>
</g>
</g>
<!-- Node17&#45;&gt;Node18 -->
<g id="edge22" class="edge">
<title>Node17&#45;&gt;Node18</title>
<path fill="none" stroke="midnightblue" d="M990.78,-112.37C944.33,-93.01 831.65,-46.06 777.52,-23.51"/>
<polygon fill="midnightblue" stroke="midnightblue" points="778.7,-20.21 768.12,-19.59 776,-26.67 778.7,-20.21"/>
</g>
<!-- Node19&#45;&gt;Node8 -->
<g id="edge26" class="edge">
<title>Node19&#45;&gt;Node8</title>
<path fill="none" stroke="midnightblue" d="M814.79,-296.91C809.2,-294.85 803.16,-292.74 797.5,-291 732.77,-271.17 711.91,-281.21 649.5,-255 606.06,-236.76 592.93,-232.19 559.5,-199 527.04,-166.77 538.75,-142.33 504.5,-112 485.8,-95.44 459.94,-83.72 439.92,-76.41"/>
<polygon fill="midnightblue" stroke="midnightblue" points="440.93,-73.05 430.34,-73.07 438.63,-79.66 440.93,-73.05"/>
</g>
<!-- Node19&#45;&gt;Node11 -->
<g id="edge24" class="edge">
<title>Node19&#45;&gt;Node11</title>
<path fill="none" stroke="midnightblue" d="M866.5,-298.94C951.29,-280.13 1188.07,-225.65 1211.5,-199 1237.2,-169.77 1245.97,-142.27 1221.5,-112 1202.03,-87.91 1119.36,-76.13 1063.74,-70.84"/>
<polygon fill="midnightblue" stroke="midnightblue" points="1063.97,-67.34 1053.69,-69.92 1063.33,-74.31 1063.97,-67.34"/>
</g>
<!-- Node19&#45;&gt;Node13 -->
<g id="edge25" class="edge">
<title>Node19&#45;&gt;Node13</title>
<path fill="none" stroke="midnightblue" d="M815.69,-296.92C809.88,-294.75 803.5,-292.59 797.5,-291 702.16,-265.69 675.46,-273.11 578.5,-255 577.05,-254.73 575.57,-254.45 574.08,-254.16"/>
<polygon fill="midnightblue" stroke="midnightblue" points="574.64,-250.7 564.15,-252.18 573.27,-257.57 574.64,-250.7"/>
</g>
<!-- Node20&#45;&gt;Node8 -->
<g id="edge37" class="edge">
<title>Node20&#45;&gt;Node8</title>
<path fill="none" stroke="midnightblue" d="M449.88,-301.98C381.81,-291.3 202.52,-252.3 142.5,-132 138.53,-124.05 136.76,-118.79 142.5,-112 172.41,-76.63 314.53,-69.05 378.35,-67.43"/>
<polygon fill="midnightblue" stroke="midnightblue" points="378.68,-70.93 388.6,-67.21 378.53,-63.93 378.68,-70.93"/>
</g>
<!-- Node20&#45;&gt;Node13 -->
<g id="edge36" class="edge">
<title>Node20&#45;&gt;Node13</title>
<path fill="none" stroke="midnightblue" d="M484.95,-296.98C494.07,-287.78 508.77,-272.96 519.98,-261.66"/>
<polygon fill="midnightblue" stroke="midnightblue" points="522.51,-264.07 527.06,-254.51 517.54,-259.15 522.51,-264.07"/>
</g>
<!-- Node21 -->
<g id="node21" class="node">
<title>Node21</title>
<g id="a_node21"><a xlink:href="UIObject_8hpp.html" target="_top" xlink:title=" ">
<polygon fill="none" stroke="black" points="568.5,-174 568.5,-193 642.5,-193 642.5,-174 568.5,-174"/>
<text text-anchor="middle" x="605.5" y="-181" font-family="Helvetica,sans-Serif" font-size="10.00">UIObject.hpp</text>
</a>
</g>
</g>
<!-- Node20&#45;&gt;Node21 -->
<g id="edge28" class="edge">
<title>Node20&#45;&gt;Node21</title>
<path fill="none" stroke="midnightblue" d="M476.87,-296.6C477.93,-282.06 481.99,-252.99 497.5,-235 513.67,-216.24 538.33,-203.98 560,-196.25"/>
<polygon fill="midnightblue" stroke="midnightblue" points="561.33,-199.5 569.7,-193.01 559.11,-192.86 561.33,-199.5"/>
</g>
<!-- Node22 -->
<g id="node22" class="node">
<title>Node22</title>
<g id="a_node22"><a xlink:href="GameObject_8hpp.html" target="_top" xlink:title=" ">
<polygon fill="none" stroke="black" points="665,-112.5 665,-131.5 754,-131.5 754,-112.5 665,-112.5"/>
<text text-anchor="middle" x="709.5" y="-119.5" font-family="Helvetica,sans-Serif" font-size="10.00">GameObject.hpp</text>
</a>
</g>
</g>
<!-- Node21&#45;&gt;Node22 -->
<g id="edge29" class="edge">
<title>Node21&#45;&gt;Node22</title>
<path fill="none" stroke="midnightblue" d="M620.4,-173.98C637.47,-164.21 665.66,-148.08 685.76,-136.58"/>
<polygon fill="midnightblue" stroke="midnightblue" points="687.69,-139.51 694.63,-131.51 684.21,-133.44 687.69,-139.51"/>
</g>
<!-- Node22&#45;&gt;Node5 -->
<g id="edge34" class="edge">
<title>Node22&#45;&gt;Node5</title>
<path fill="none" stroke="midnightblue" d="M694.08,-112.32C678.96,-103.82 655.68,-90.73 638.03,-80.8"/>
<polygon fill="midnightblue" stroke="midnightblue" points="639.32,-77.51 628.89,-75.65 635.89,-83.61 639.32,-77.51"/>
</g>
<!-- Node22&#45;&gt;Node6 -->
<g id="edge35" class="edge">
<title>Node22&#45;&gt;Node6</title>
<path fill="none" stroke="midnightblue" d="M719.69,-112.17C734.11,-99.66 761.32,-76.08 784.5,-56 795.92,-46.11 808.76,-35 818.82,-26.29"/>
<polygon fill="midnightblue" stroke="midnightblue" points="821.26,-28.81 826.53,-19.62 816.68,-23.52 821.26,-28.81"/>
</g>
<!-- Node22&#45;&gt;Node8 -->
<g id="edge33" class="edge">
<title>Node22&#45;&gt;Node8</title>
<path fill="none" stroke="midnightblue" d="M664.91,-112.97C603.24,-101.87 493.51,-82.12 440.23,-72.53"/>
<polygon fill="midnightblue" stroke="midnightblue" points="440.82,-69.08 430.35,-70.75 439.58,-75.97 440.82,-69.08"/>
</g>
<!-- Node22&#45;&gt;Node11 -->
<g id="edge30" class="edge">
<title>Node22&#45;&gt;Node11</title>
<path fill="none" stroke="midnightblue" d="M754.06,-113.03C808.7,-103.26 901.17,-86.73 959.14,-76.36"/>
<polygon fill="midnightblue" stroke="midnightblue" points="959.97,-79.77 969.2,-74.56 958.74,-72.88 959.97,-79.77"/>
</g>
<!-- Node23 -->
<g id="node23" class="node">
<title>Node23</title>
<g id="a_node23"><a xlink:href="Transform_8hpp.html" target="_top" xlink:title=" ">
<polygon fill="none" stroke="black" points="653,-56.5 653,-75.5 732,-75.5 732,-56.5 653,-56.5"/>
<text text-anchor="middle" x="692.5" y="-63.5" font-family="Helvetica,sans-Serif" font-size="10.00">Transform.hpp</text>
</a>
</g>
</g>
<!-- Node22&#45;&gt;Node23 -->
<g id="edge31" class="edge">
<title>Node22&#45;&gt;Node23</title>
<path fill="none" stroke="midnightblue" d="M706.69,-112.08C704.42,-104.85 701.13,-94.41 698.29,-85.4"/>
<polygon fill="midnightblue" stroke="midnightblue" points="701.6,-84.24 695.25,-75.75 694.92,-86.34 701.6,-84.24"/>
</g>
<!-- Node23&#45;&gt;Node18 -->
<g id="edge32" class="edge">
<title>Node23&#45;&gt;Node18</title>
<path fill="none" stroke="midnightblue" d="M701.58,-56.08C709.67,-48.14 721.7,-36.34 731.41,-26.8"/>
<polygon fill="midnightblue" stroke="midnightblue" points="733.9,-29.25 738.59,-19.75 729,-24.26 733.9,-29.25"/>
</g>
<!-- Node24&#45;&gt;Node8 -->
<g id="edge39" class="edge">
<title>Node24&#45;&gt;Node8</title>
<path fill="none" stroke="midnightblue" d="M48.71,-235.48C52.59,-211.59 67.07,-143.61 109.5,-112 151.69,-80.57 310.78,-70.79 378.58,-68.01"/>
<polygon fill="midnightblue" stroke="midnightblue" points="378.79,-71.5 388.65,-67.62 378.52,-64.51 378.79,-71.5"/>
</g>
<!-- Node26&#45;&gt;Node6 -->
<g id="edge42" class="edge">
<title>Node26&#45;&gt;Node6</title>
<path fill="none" stroke="midnightblue" d="M1177.85,-168.5C1206.25,-155.65 1237.87,-135.13 1221.5,-112 1180.68,-54.35 959.53,-24.37 872.09,-14.63"/>
<polygon fill="midnightblue" stroke="midnightblue" points="872.44,-11.14 862.12,-13.54 871.68,-18.1 872.44,-11.14"/>
</g>
<!-- Node26&#45;&gt;Node22 -->
<g id="edge43" class="edge">
<title>Node26&#45;&gt;Node22</title>
<path fill="none" stroke="midnightblue" d="M1078.75,-173.98C994.37,-162.33 844.38,-141.62 763.98,-130.52"/>
<polygon fill="midnightblue" stroke="midnightblue" points="764.44,-127.05 754.06,-129.15 763.49,-133.99 764.44,-127.05"/>
</g>
<!-- Node27 -->
<g id="node27" class="node">
<title>Node27</title>
<g id="a_node27"><a xlink:href="AudioSource_8hpp.html" target="_top" xlink:title=" ">
<polygon fill="none" stroke="black" points="864.5,-112.5 864.5,-131.5 954.5,-131.5 954.5,-112.5 864.5,-112.5"/>
<text text-anchor="middle" x="909.5" y="-119.5" font-family="Helvetica,sans-Serif" font-size="10.00">AudioSource.hpp</text>
</a>
</g>
</g>
<!-- Node26&#45;&gt;Node27 -->
<g id="edge44" class="edge">
<title>Node26&#45;&gt;Node27</title>
<path fill="none" stroke="midnightblue" d="M1086.05,-168.47C1045.33,-157.99 990.4,-143.84 952.68,-134.12"/>
<polygon fill="midnightblue" stroke="midnightblue" points="953.08,-130.61 942.52,-131.51 951.34,-137.39 953.08,-130.61"/>
</g>
<!-- Node28 -->
<g id="node28" class="node">
<title>Node28</title>
<g id="a_node28"><a xlink:href="AudioClipName_8hpp.html" target="_top" xlink:title=" ">
<polygon fill="none" stroke="black" points="1069,-112.5 1069,-131.5 1212,-131.5 1212,-112.5 1069,-112.5"/>
<text text-anchor="middle" x="1140.5" y="-119.5" font-family="Helvetica,sans-Serif" font-size="10.00">../Enums/AudioClipName.hpp</text>
</a>
</g>
</g>
<!-- Node26&#45;&gt;Node28 -->
<g id="edge47" class="edge">
<title>Node26&#45;&gt;Node28</title>
<path fill="none" stroke="midnightblue" d="M1140.5,-168.4C1140.5,-160.47 1140.5,-150.46 1140.5,-141.86"/>
<polygon fill="midnightblue" stroke="midnightblue" points="1144,-141.66 1140.5,-131.66 1137,-141.66 1144,-141.66"/>
</g>
<!-- Node27&#45;&gt;Node8 -->
<g id="edge46" class="edge">
<title>Node27&#45;&gt;Node8</title>
<path fill="none" stroke="midnightblue" d="M864.25,-116.11C763.97,-105.28 525.22,-79.5 440.21,-70.32"/>
<polygon fill="midnightblue" stroke="midnightblue" points="440.48,-66.83 430.17,-69.23 439.73,-73.79 440.48,-66.83"/>
</g>
<!-- Node27&#45;&gt;Node11 -->
<g id="edge45" class="edge">
<title>Node27&#45;&gt;Node11</title>
<path fill="none" stroke="midnightblue" d="M925.89,-112.32C942.17,-103.7 967.37,-90.36 986.22,-80.39"/>
<polygon fill="midnightblue" stroke="midnightblue" points="987.95,-83.43 995.15,-75.65 984.68,-77.24 987.95,-83.43"/>
</g>
<!-- Node29&#45;&gt;Node6 -->
<g id="edge52" class="edge">
<title>Node29&#45;&gt;Node6</title>
<path fill="none" stroke="midnightblue" d="M762.48,-291.5C798.53,-275.29 851.94,-244.81 875.5,-199 889.72,-171.37 865.61,-161.38 855.5,-132 849.12,-113.45 842.07,-58.79 838.62,-29.7"/>
<polygon fill="midnightblue" stroke="midnightblue" points="842.08,-29.14 837.45,-19.61 835.13,-29.95 842.08,-29.14"/>
</g>
<!-- Node29&#45;&gt;Node8 -->
<g id="edge53" class="edge">
<title>Node29&#45;&gt;Node8</title>
<path fill="none" stroke="midnightblue" d="M663.72,-292.59C660.61,-292.03 657.52,-291.5 654.5,-291 593.26,-280.87 420.1,-300.15 377.5,-255 332.44,-207.26 376.38,-120.69 398.48,-84.08"/>
<polygon fill="midnightblue" stroke="midnightblue" points="401.49,-85.87 403.81,-75.53 395.55,-82.17 401.49,-85.87"/>
</g>
<!-- Node30 -->
<g id="node30" class="node">
<title>Node30</title>
<g id="a_node30"><a xlink:href="Button_8hpp.html" target="_top" xlink:title=" ">
<polygon fill="none" stroke="black" points="659,-235.5 659,-254.5 722,-254.5 722,-235.5 659,-235.5"/>
<text text-anchor="middle" x="690.5" y="-242.5" font-family="Helvetica,sans-Serif" font-size="10.00">Button.hpp</text>
</a>
</g>
</g>
<!-- Node29&#45;&gt;Node30 -->
<g id="edge49" class="edge">
<title>Node29&#45;&gt;Node30</title>
<path fill="none" stroke="midnightblue" d="M717.97,-291.4C712.9,-283.02 706.43,-272.33 701.04,-263.42"/>
<polygon fill="midnightblue" stroke="midnightblue" points="703.91,-261.4 695.74,-254.66 697.92,-265.03 703.91,-261.4"/>
</g>
<!-- Node30&#45;&gt;Node21 -->
<g id="edge50" class="edge">
<title>Node30&#45;&gt;Node21</title>
<path fill="none" stroke="midnightblue" d="M678.32,-235.48C664.69,-225.93 642.37,-210.31 626.03,-198.87"/>
<polygon fill="midnightblue" stroke="midnightblue" points="627.86,-195.88 617.66,-193.01 623.84,-201.61 627.86,-195.88"/>
</g>
<!-- Node31 -->
<g id="node31" class="node">
<title>Node31</title>
<g id="a_node31"><a xlink:title=" ">
<polygon fill="none" stroke="#bfbfbf" points="661,-174 661,-193 720,-193 720,-174 661,-174"/>
<text text-anchor="middle" x="690.5" y="-181" font-family="Helvetica,sans-Serif" font-size="10.00">functional</text>
</a>
</g>
</g>
<!-- Node30&#45;&gt;Node31 -->
<g id="edge51" class="edge">
<title>Node30&#45;&gt;Node31</title>
<path fill="none" stroke="midnightblue" d="M690.5,-235.48C690.5,-227.08 690.5,-213.98 690.5,-203.16"/>
<polygon fill="midnightblue" stroke="midnightblue" points="694,-203.01 690.5,-193.01 687,-203.01 694,-203.01"/>
</g>
<!-- Node33 -->
<g id="node33" class="node">
<title>Node33</title>
<g id="a_node33"><a xlink:href="BehaviourScript_8hpp.html" target="_top" xlink:title=" ">
<polygon fill="none" stroke="black" points="1214.5,-235.5 1214.5,-254.5 1318.5,-254.5 1318.5,-235.5 1214.5,-235.5"/>
<text text-anchor="middle" x="1266.5" y="-242.5" font-family="Helvetica,sans-Serif" font-size="10.00">BehaviourScript.hpp</text>
</a>
</g>
</g>
<!-- Node32&#45;&gt;Node33 -->
<g id="edge55" class="edge">
<title>Node32&#45;&gt;Node33</title>
<path fill="none" stroke="midnightblue" d="M1217.67,-291.4C1227.25,-282.49 1239.66,-270.95 1249.57,-261.74"/>
<polygon fill="midnightblue" stroke="midnightblue" points="1252.25,-264.03 1257.19,-254.66 1247.48,-258.9 1252.25,-264.03"/>
</g>
<!-- Node33&#45;&gt;Node10 -->
<g id="edge57" class="edge">
<title>Node33&#45;&gt;Node10</title>
<path fill="none" stroke="midnightblue" d="M1282.55,-235.48C1301.09,-225.62 1331.84,-209.29 1353.52,-197.77"/>
<polygon fill="midnightblue" stroke="midnightblue" points="1355.29,-200.79 1362.48,-193.01 1352.01,-194.61 1355.29,-200.79"/>
</g>
<!-- Node33&#45;&gt;Node11 -->
<g id="edge56" class="edge">
<title>Node33&#45;&gt;Node11</title>
<path fill="none" stroke="midnightblue" d="M1272.44,-235.39C1287.51,-212.39 1323.87,-148.79 1292.5,-112 1263.7,-78.23 1136.92,-69.69 1063.87,-67.61"/>
<polygon fill="midnightblue" stroke="midnightblue" points="1063.59,-64.1 1053.5,-67.35 1063.41,-71.1 1063.59,-64.1"/>
</g>
<!-- Node35 -->
<g id="node35" class="node">
<title>Node35</title>
<g id="a_node35"><a xlink:title=" ">
<polygon fill="none" stroke="#bfbfbf" points="1438,-235.5 1438,-254.5 1487,-254.5 1487,-235.5 1438,-235.5"/>
<text text-anchor="middle" x="1462.5" y="-242.5" font-family="Helvetica,sans-Serif" font-size="10.00">random</text>
</a>
</g>
</g>
<!-- Node34&#45;&gt;Node35 -->
<g id="edge59" class="edge">
<title>Node34&#45;&gt;Node35</title>
<path fill="none" stroke="midnightblue" d="M1401.67,-296.98C1412.85,-287.61 1431.02,-272.38 1444.59,-261.01"/>
<polygon fill="midnightblue" stroke="midnightblue" points="1446.93,-263.61 1452.35,-254.51 1442.43,-258.25 1446.93,-263.61"/>
</g>
<!-- Node36&#45;&gt;Node6 -->
<g id="edge61" class="edge">
<title>Node36&#45;&gt;Node6</title>
<path fill="none" stroke="midnightblue" d="M804.23,-173.76C809.53,-147.04 825.59,-66.02 832.86,-29.36"/>
<polygon fill="midnightblue" stroke="midnightblue" points="836.3,-30.01 834.81,-19.52 829.43,-28.65 836.3,-30.01"/>
</g>
<!-- Node36&#45;&gt;Node22 -->
<g id="edge62" class="edge">
<title>Node36&#45;&gt;Node22</title>
<path fill="none" stroke="midnightblue" d="M789.18,-173.98C774.12,-164.34 749.38,-148.52 731.46,-137.05"/>
<polygon fill="midnightblue" stroke="midnightblue" points="733.11,-133.95 722.8,-131.51 729.34,-139.85 733.11,-133.95"/>
</g>
<!-- Node37&#45;&gt;Node13 -->
<g id="edge64" class="edge">
<title>Node37&#45;&gt;Node13</title>
<path fill="none" stroke="midnightblue" d="M592.9,-296.98C582.45,-287.7 565.53,-272.67 552.76,-261.33"/>
<polygon fill="midnightblue" stroke="midnightblue" points="554.88,-258.53 545.08,-254.51 550.23,-263.77 554.88,-258.53"/>
</g>
</g>
</svg>
        <g id="navigator" transform="translate(0 0)" fill="#404254">
                <rect fill="#f2f5e9" fill-opacity="0.5" stroke="#606060" stroke-width=".5" x="0" y="0" width="60" height="60"/>
                <use id="zoomplus" xlink:href="#zoomPlus" x="17" y="9" onmousedown="handleZoom(evt,'in')"/>
                <use id="zoomminus" xlink:href="#zoomMin" x="42" y="9" onmousedown="handleZoom(evt,'out')"/>
                <use id="reset" xlink:href="#resetDef" x="30" y="36" onmousedown="handleReset()"/>
                <g id="arrowUp" xlink:href="#dirArrow" transform="translate(30 24)" onmousedown="handlePan(0,-1)">
                  <use xlink:href="#rim" fill="#404040">
                        <set attributeName="fill" to="#808080" begin="arrowUp.mouseover" end="arrowUp.mouseout"/>
                  </use>
                  <path fill="none" stroke="white" stroke-width="1.5" d="M0,-3.0v7 M-2.5,-0.5L0,-3.0L2.5,-0.5"/>
                </g>
                <g id="arrowRight" xlink:href="#dirArrow" transform="rotate(90) translate(36 -43)" onmousedown="handlePan(1,0)">
                  <use xlink:href="#rim" fill="#404040">
                        <set attributeName="fill" to="#808080" begin="arrowRight.mouseover" end="arrowRight.mouseout"/>
                  </use>
                  <path fill="none" stroke="white" stroke-width="1.5" d="M0,-3.0v7 M-2.5,-0.5L0,-3.0L2.5,-0.5"/>
                </g>
                <g id="arrowDown" xlink:href="#dirArrow" transform="rotate(180) translate(-30 -48)" onmousedown="handlePan(0,1)">
                  <use xlink:href="#rim" fill="#404040">
                        <set attributeName="fill" to="#808080" begin="arrowDown.mouseover" end="arrowDown.mouseout"/>
                  </use>
                  <path fill="none" stroke="white" stroke-width="1.5" d="M0,-3.0v7 M-2.5,-0.5L0,-3.0L2.5,-0.5"/>
                </g>
                <g id="arrowLeft" xlink:href="#dirArrow" transform="rotate(270) translate(-36 17)" onmousedown="handlePan(-1,0)">
                  <use xlink:href="#rim" fill="#404040">
                        <set attributeName="fill" to="#808080" begin="arrowLeft.mouseover" end="arrowLeft.mouseout"/>
                  </use>
                  <path fill="none" stroke="white" stroke-width="1.5" d="M0,-3.0v7 M-2.5,-0.5L0,-3.0L2.5,-0.5"/>
                </g>
        </g>
        <svg viewBox="0 0 15 15" width="100%" height="30px" preserveAspectRatio="xMaxYMin meet">
         <g id="arrow_out" transform="scale(0.3 0.3)">
          <a xlink:href="VictoryScene_8cpp__incl_org.svg" target="_base">
           <rect id="button" ry="5" rx="5" y="6" x="6" height="38" width="38"
                fill="#f2f5e9" fill-opacity="0.5" stroke="#606060" stroke-width="1.0"/>
           <path id="arrow"
             d="M 11.500037,31.436501 C 11.940474,20.09759 22.043105,11.32322 32.158766,21.979434 L 37.068811,17.246167 C 37.068811,17.246167 37.088388,32 37.088388,32 L 22.160133,31.978069 C 22.160133,31.978069 26.997745,27.140456 26.997745,27.140456 C 18.528582,18.264221 13.291696,25.230495 11.500037,31.436501 z"
             style="fill:#404040;"/>
          </a>
         </g>
        </svg>
</svg>
