<?xml version="1.0" encoding="UTF-8" standalone="no"?>
<!DOCTYPE svg PUBLIC "-//W3C//DTD SVG 1.1//EN"
 "http://www.w3.org/Graphics/SVG/1.1/DTD/svg11.dtd">
<!-- Generated by graphviz version 2.44.0 ()
 -->
<!-- Title: src/Scenes/VictoryScene.cpp Pages: 1 -->
<svg width="1571pt" height="386pt"
 viewBox="0.00 0.00 1570.50 386.00" xmlns="http://www.w3.org/2000/svg" xmlns:xlink="http://www.w3.org/1999/xlink">
<g id="graph0" class="graph" transform="scale(1 1) rotate(0) translate(4 382)">
<title>src/Scenes/VictoryScene.cpp</title>
<!-- Node1 -->
<g id="node1" class="node">
<title>Node1</title>
<g id="a_node1"><a xlink:title=" ">
<polygon fill="#bfbfbf" stroke="black" points="795,-358.5 795,-377.5 940,-377.5 940,-358.5 795,-358.5"/>
<text text-anchor="middle" x="867.5" y="-365.5" font-family="Helvetica,sans-Serif" font-size="10.00">src/Scenes/VictoryScene.cpp</text>
</a>
</g>
</g>
<!-- Node2 -->
<g id="node2" class="node">
<title>Node2</title>
<g id="a_node2"><a xlink:href="VictoryScene_8hpp.html" target="_top" xlink:title=" ">
<polygon fill="none" stroke="black" points="289.5,-297 289.5,-316 381.5,-316 381.5,-297 289.5,-297"/>
<text text-anchor="middle" x="335.5" y="-304" font-family="Helvetica,sans-Serif" font-size="10.00">VictoryScene.hpp</text>
</a>
</g>
</g>
<!-- Node1&#45;&gt;Node2 -->
<g id="edge1" class="edge">
<title>Node1&#45;&gt;Node2</title>
<path fill="none" stroke="midnightblue" d="M794.72,-362.17C703.8,-355.6 543.61,-342.31 407.5,-322 399.96,-320.87 392.01,-319.48 384.26,-318.01"/>
<polygon fill="midnightblue" stroke="midnightblue" points="384.72,-314.54 374.23,-316.05 383.38,-321.41 384.72,-314.54"/>
</g>
<!-- Node9 -->
<g id="node9" class="node">
<title>Node9</title>
<g id="a_node9"><a xlink:href="BoxCollider_8hpp.html" target="_top" xlink:title=" ">
<polygon fill="none" stroke="black" points="1339,-235.5 1339,-254.5 1422,-254.5 1422,-235.5 1339,-235.5"/>
<text text-anchor="middle" x="1380.5" y="-242.5" font-family="Helvetica,sans-Serif" font-size="10.00">BoxCollider.hpp</text>
</a>
</g>
</g>
<!-- Node1&#45;&gt;Node9 -->
<g id="edge8" class="edge">
<title>Node1&#45;&gt;Node9</title>
<path fill="none" stroke="midnightblue" d="M940.22,-363.69C1041.55,-358.29 1219.54,-345.74 1279.5,-322 1288.71,-318.36 1335.13,-282.08 1361.72,-260.99"/>
<polygon fill="midnightblue" stroke="midnightblue" points="1363.93,-263.7 1369.58,-254.74 1359.57,-258.22 1363.93,-263.7"/>
</g>
<!-- Node12 -->
<g id="node12" class="node">
<title>Node12</title>
<g id="a_node12"><a xlink:href="CircleCollider_8hpp.html" target="_top" xlink:title=" ">
<polygon fill="none" stroke="black" points="1470.5,-297 1470.5,-316 1562.5,-316 1562.5,-297 1470.5,-297"/>
<text text-anchor="middle" x="1516.5" y="-304" font-family="Helvetica,sans-Serif" font-size="10.00">CircleCollider.hpp</text>
</a>
</g>
</g>
<!-- Node1&#45;&gt;Node12 -->
<g id="edge12" class="edge">
<title>Node1&#45;&gt;Node12</title>
<path fill="none" stroke="midnightblue" d="M940.29,-365.41C1052.3,-362.07 1273.37,-351.97 1458.5,-322 1464.41,-321.04 1470.6,-319.78 1476.64,-318.4"/>
<polygon fill="midnightblue" stroke="midnightblue" points="1477.7,-321.75 1486.6,-316 1476.06,-314.94 1477.7,-321.75"/>
</g>
<!-- Node13 -->
<g id="node13" class="node">
<title>Node13</title>
<g id="a_node13"><a xlink:href="Color_8hpp.html" target="_top" xlink:title=" ">
<polygon fill="none" stroke="black" points="509,-235.5 509,-254.5 566,-254.5 566,-235.5 509,-235.5"/>
<text text-anchor="middle" x="537.5" y="-242.5" font-family="Helvetica,sans-Serif" font-size="10.00">Color.hpp</text>
</a>
</g>
</g>
<!-- Node1&#45;&gt;Node13 -->
<g id="edge14" class="edge">
<title>Node1&#45;&gt;Node13</title>
<path fill="none" stroke="midnightblue" d="M794.82,-366.07C712.8,-363.44 586.37,-354.12 552.5,-322 537.13,-307.42 535,-282.02 535.63,-264.62"/>
<polygon fill="midnightblue" stroke="midnightblue" points="539.13,-264.76 536.33,-254.54 532.14,-264.28 539.13,-264.76"/>
</g>
<!-- Node14 -->
<g id="node14" class="node">
<title>Node14</title>
<g id="a_node14"><a xlink:href="Engine_8hpp.html" target="_top" xlink:title=" ">
<polygon fill="none" stroke="black" points="388.5,-235.5 388.5,-254.5 452.5,-254.5 452.5,-235.5 388.5,-235.5"/>
<text text-anchor="middle" x="420.5" y="-242.5" font-family="Helvetica,sans-Serif" font-size="10.00">Engine.hpp</text>
</a>
</g>
</g>
<!-- Node1&#45;&gt;Node14 -->
<g id="edge15" class="edge">
<title>Node1&#45;&gt;Node14</title>
<path fill="none" stroke="midnightblue" d="M794.56,-363.67C680.18,-357.8 468.88,-344.09 442.5,-322 425.91,-308.11 421.41,-282.54 420.4,-264.93"/>
<polygon fill="midnightblue" stroke="midnightblue" points="423.89,-264.61 420.15,-254.7 416.89,-264.78 423.89,-264.61"/>
</g>
<!-- Node17 -->
<g id="node17" class="node">
<title>Node17</title>
<g id="a_node17"><a xlink:href="RigidBody_8hpp.html" target="_top" xlink:title=" ">
<polygon fill="none" stroke="black" points="974.5,-112.5 974.5,-131.5 1052.5,-131.5 1052.5,-112.5 974.5,-112.5"/>
<text text-anchor="middle" x="1013.5" y="-119.5" font-family="Helvetica,sans-Serif" font-size="10.00">RigidBody.hpp</text>
</a>
</g>
</g>
<!-- Node1&#45;&gt;Node17 -->
<g id="edge20" class="edge">
<title>Node1&#45;&gt;Node17</title>
<path fill="none" stroke="midnightblue" d="M927.96,-358.43C969.9,-351.1 1020.48,-339.02 1033.5,-322 1075.15,-267.55 1040.66,-178.72 1022.7,-140.93"/>
<polygon fill="midnightblue" stroke="midnightblue" points="1025.71,-139.12 1018.15,-131.69 1019.43,-142.21 1025.71,-139.12"/>
</g>
<!-- Node19 -->
<g id="node19" class="node">
<title>Node19</title>
<g id="a_node19"><a xlink:href="Sprite_8hpp.html" target="_top" xlink:title=" ">
<polygon fill="none" stroke="black" points="808.5,-297 808.5,-316 868.5,-316 868.5,-297 808.5,-297"/>
<text text-anchor="middle" x="838.5" y="-304" font-family="Helvetica,sans-Serif" font-size="10.00">Sprite.hpp</text>
</a>
</g>
</g>
<!-- Node1&#45;&gt;Node19 -->
<g id="edge23" class="edge">
<title>Node1&#45;&gt;Node19</title>
<path fill="none" stroke="midnightblue" d="M863.35,-358.48C859.12,-349.82 852.46,-336.15 847.1,-325.15"/>
<polygon fill="midnightblue" stroke="midnightblue" points="850.17,-323.46 842.65,-316.01 843.88,-326.53 850.17,-323.46"/>
</g>
<!-- Node20 -->
<g id="node20" class="node">
<title>Node20</title>
<g id="a_node20"><a xlink:href="Text_8hpp.html" target="_top" xlink:title=" ">
<polygon fill="none" stroke="black" points="452,-297 452,-316 505,-316 505,-297 452,-297"/>
<text text-anchor="middle" x="478.5" y="-304" font-family="Helvetica,sans-Serif" font-size="10.00">Text.hpp</text>
</a>
</g>
</g>
<!-- Node1&#45;&gt;Node20 -->
<g id="edge27" class="edge">
<title>Node1&#45;&gt;Node20</title>
<path fill="none" stroke="midnightblue" d="M794.71,-362.09C723.74,-356.25 613.12,-344.34 519.5,-322 516.27,-321.23 512.94,-320.29 509.63,-319.28"/>
<polygon fill="midnightblue" stroke="midnightblue" points="510.54,-315.89 499.95,-316.05 508.33,-322.53 510.54,-315.89"/>
</g>
<!-- Node24 -->
<g id="node24" class="node">
<title>Node24</title>
<g id="a_node24"><a xlink:href="src_2Enums_2Font_8hpp.html" target="_top" xlink:title=" ">
<polygon fill="none" stroke="black" points="0,-235.5 0,-254.5 95,-254.5 95,-235.5 0,-235.5"/>
<text text-anchor="middle" x="47.5" y="-242.5" font-family="Helvetica,sans-Serif" font-size="10.00">../Enums/Font.hpp</text>
</a>
</g>
</g>
<!-- Node1&#45;&gt;Node24 -->
<g id="edge38" class="edge">
<title>Node1&#45;&gt;Node24</title>
<path fill="none" stroke="midnightblue" d="M794.91,-366.98C683.28,-365.7 463.21,-358.26 280.5,-322 205.58,-307.13 121.16,-275.74 77.4,-258.32"/>
<polygon fill="midnightblue" stroke="midnightblue" points="78.53,-255 67.94,-254.51 75.91,-261.49 78.53,-255"/>
</g>
<!-- Node25 -->
<g id="node25" class="node">
<title>Node25</title>
<g id="a_node25"><a xlink:href="Layer_8hpp.html" target="_top" xlink:title=" ">
<polygon fill="none" stroke="black" points="925,-297 925,-316 1024,-316 1024,-297 925,-297"/>
<text text-anchor="middle" x="974.5" y="-304" font-family="Helvetica,sans-Serif" font-size="10.00">../Enums/Layer.hpp</text>
</a>
</g>
</g>
<!-- Node1&#45;&gt;Node25 -->
<g id="edge40" class="edge">
<title>Node1&#45;&gt;Node25</title>
<path fill="none" stroke="midnightblue" d="M882.83,-358.48C900.47,-348.67 929.66,-332.43 950.36,-320.92"/>
<polygon fill="midnightblue" stroke="midnightblue" points="952.16,-323.93 959.2,-316.01 948.76,-317.81 952.16,-323.93"/>
</g>
<!-- Node26 -->
<g id="node26" class="node">
<title>Node26</title>
<g id="a_node26"><a xlink:href="AudioSourcePrefabFactory_8hpp.html" target="_top" xlink:title=" ">
<polygon fill="none" stroke="black" points="1081,-168.5 1081,-198.5 1204,-198.5 1204,-168.5 1081,-168.5"/>
<text text-anchor="start" x="1089" y="-186.5" font-family="Helvetica,sans-Serif" font-size="10.00">../Factories/AudioSource</text>
<text text-anchor="middle" x="1142.5" y="-175.5" font-family="Helvetica,sans-Serif" font-size="10.00">PrefabFactory.hpp</text>
</a>
</g>
</g>
<!-- Node1&#45;&gt;Node26 -->
<g id="edge41" class="edge">
<title>Node1&#45;&gt;Node26</title>
<path fill="none" stroke="midnightblue" d="M940.29,-364.87C980.88,-360.39 1030.39,-349.12 1066.5,-322 1104.71,-293.31 1126.22,-239.49 1135.98,-208.37"/>
<polygon fill="midnightblue" stroke="midnightblue" points="1139.35,-209.34 1138.86,-198.76 1132.64,-207.34 1139.35,-209.34"/>
</g>
<!-- Node29 -->
<g id="node29" class="node">
<title>Node29</title>
<g id="a_node29"><a xlink:href="ButtonPrefabFactory_8hpp.html" target="_top" xlink:title=" ">
<polygon fill="none" stroke="black" points="666,-291.5 666,-321.5 791,-321.5 791,-291.5 666,-291.5"/>
<text text-anchor="start" x="674" y="-309.5" font-family="Helvetica,sans-Serif" font-size="10.00">../Factories/ButtonPrefab</text>
<text text-anchor="middle" x="728.5" y="-298.5" font-family="Helvetica,sans-Serif" font-size="10.00">Factory.hpp</text>
</a>
</g>
</g>
<!-- Node1&#45;&gt;Node29 -->
<g id="edge48" class="edge">
<title>Node1&#45;&gt;Node29</title>
<path fill="none" stroke="midnightblue" d="M847.58,-358.48C827.62,-349.93 796.25,-336.5 770.72,-325.57"/>
<polygon fill="midnightblue" stroke="midnightblue" points="771.83,-322.24 761.26,-321.52 769.08,-328.68 771.83,-322.24"/>
</g>
<!-- Node32 -->
<g id="node32" class="node">
<title>Node32</title>
<g id="a_node32"><a xlink:href="ConfettiBehaviour_8hpp.html" target="_top" xlink:title=" ">
<polygon fill="none" stroke="black" points="1151,-291.5 1151,-321.5 1270,-321.5 1270,-291.5 1151,-291.5"/>
<text text-anchor="start" x="1159" y="-309.5" font-family="Helvetica,sans-Serif" font-size="10.00">../Scripts/Menu/Confetti</text>
<text text-anchor="middle" x="1210.5" y="-298.5" font-family="Helvetica,sans-Serif" font-size="10.00">Behaviour.hpp</text>
</a>
</g>
</g>
<!-- Node1&#45;&gt;Node32 -->
<g id="edge54" class="edge">
<title>Node1&#45;&gt;Node32</title>
<path fill="none" stroke="midnightblue" d="M916.64,-358.48C975.4,-348.28 1074.15,-331.15 1140.78,-319.59"/>
<polygon fill="midnightblue" stroke="midnightblue" points="1141.53,-323.02 1150.78,-317.86 1140.33,-316.12 1141.53,-323.02"/>
</g>
<!-- Node34 -->
<g id="node34" class="node">
<title>Node34</title>
<g id="a_node34"><a xlink:href="RandomUtil_8hpp.html" target="_top" xlink:title=" ">
<polygon fill="none" stroke="black" points="1333.5,-297 1333.5,-316 1449.5,-316 1449.5,-297 1333.5,-297"/>
<text text-anchor="middle" x="1391.5" y="-304" font-family="Helvetica,sans-Serif" font-size="10.00">../Utils/RandomUtil.hpp</text>
</a>
</g>
</g>
<!-- Node1&#45;&gt;Node34 -->
<g id="edge58" class="edge">
<title>Node1&#45;&gt;Node34</title>
<path fill="none" stroke="midnightblue" d="M940.12,-361.62C1028.75,-354.6 1183.07,-340.95 1314.5,-322 1322.64,-320.83 1331.22,-319.4 1339.59,-317.9"/>
<polygon fill="midnightblue" stroke="midnightblue" points="1340.44,-321.31 1349.65,-316.06 1339.18,-314.42 1340.44,-321.31"/>
</g>
<!-- Node36 -->
<g id="node36" class="node">
<title>Node36</title>
<g id="a_node36"><a xlink:href="GameObjectUtil_8hpp.html" target="_top" xlink:title=" ">
<polygon fill="none" stroke="black" points="738,-174 738,-193 873,-193 873,-174 738,-174"/>
<text text-anchor="middle" x="805.5" y="-181" font-family="Helvetica,sans-Serif" font-size="10.00">../Utils/GameObjectUtil.hpp</text>
</a>
</g>
</g>
<!-- Node1&#45;&gt;Node36 -->
<g id="edge60" class="edge">
<title>Node1&#45;&gt;Node36</title>
<path fill="none" stroke="midnightblue" d="M870.96,-358.37C876.19,-344.06 884.75,-314.67 877.5,-291 866.46,-254.96 838.65,-220.13 821.01,-200.59"/>
<polygon fill="midnightblue" stroke="midnightblue" points="823.51,-198.14 814.14,-193.19 818.38,-202.9 823.51,-198.14"/>
</g>
<!-- Node37 -->
<g id="node37" class="node">
<title>Node37</title>
<g id="a_node37"><a xlink:href="Constants_8hpp.html" target="_top" xlink:title=" ">
<polygon fill="none" stroke="black" points="561.5,-297 561.5,-316 647.5,-316 647.5,-297 561.5,-297"/>
<text text-anchor="middle" x="604.5" y="-304" font-family="Helvetica,sans-Serif" font-size="10.00">../Constants.hpp</text>
</a>
</g>
</g>
<!-- Node1&#45;&gt;Node37 -->
<g id="edge63" class="edge">
<title>Node1&#45;&gt;Node37</title>
<path fill="none" stroke="midnightblue" d="M823.68,-358.48C780.87,-349.96 713.97,-336.13 656.5,-322 652.35,-320.98 648.04,-319.86 643.74,-318.72"/>
<polygon fill="midnightblue" stroke="midnightblue" points="644.41,-315.27 633.84,-316.02 642.57,-322.03 644.41,-315.27"/>
</g>
<!-- Node3 -->
<g id="node3" class="node">
<title>Node3</title>
<g id="a_node3"><a xlink:href="MenuScene_8hpp.html" target="_top" xlink:title=" ">
<polygon fill="none" stroke="black" points="240.5,-174 240.5,-193 326.5,-193 326.5,-174 240.5,-174"/>
<text text-anchor="middle" x="283.5" y="-181" font-family="Helvetica,sans-Serif" font-size="10.00">MenuScene.hpp</text>
</a>
</g>
</g>
<!-- Node2&#45;&gt;Node3 -->
<g id="edge2" class="edge">
<title>Node2&#45;&gt;Node3</title>
<path fill="none" stroke="midnightblue" d="M331.76,-296.8C323.29,-277.09 302.5,-228.71 291.17,-202.34"/>
<polygon fill="midnightblue" stroke="midnightblue" points="294.37,-200.93 287.21,-193.12 287.94,-203.69 294.37,-200.93"/>
</g>
<!-- Node4 -->
<g id="node4" class="node">
<title>Node4</title>
<g id="a_node4"><a xlink:href="Scene_8hpp.html" target="_top" xlink:title=" ">
<polygon fill="none" stroke="black" points="568.5,-112.5 568.5,-131.5 630.5,-131.5 630.5,-112.5 568.5,-112.5"/>
<text text-anchor="middle" x="599.5" y="-119.5" font-family="Helvetica,sans-Serif" font-size="10.00">Scene.hpp</text>
</a>
</g>
</g>
<!-- Node3&#45;&gt;Node4 -->
<g id="edge3" class="edge">
<title>Node3&#45;&gt;Node4</title>
<path fill="none" stroke="midnightblue" d="M326.78,-174.35C387.81,-162.86 498.42,-142.03 558.31,-130.76"/>
<polygon fill="midnightblue" stroke="midnightblue" points="558.99,-134.19 568.17,-128.9 557.7,-127.31 558.99,-134.19"/>
</g>
<!-- Node7 -->
<g id="node7" class="node">
<title>Node7</title>
<g id="a_node7"><a xlink:href="BackgroundName_8hpp.html" target="_top" xlink:title=" ">
<polygon fill="none" stroke="black" points="152,-112.5 152,-131.5 305,-131.5 305,-112.5 152,-112.5"/>
<text text-anchor="middle" x="228.5" y="-119.5" font-family="Helvetica,sans-Serif" font-size="10.00">../Enums/BackgroundName.hpp</text>
</a>
</g>
</g>
<!-- Node3&#45;&gt;Node7 -->
<g id="edge6" class="edge">
<title>Node3&#45;&gt;Node7</title>
<path fill="none" stroke="midnightblue" d="M275.62,-173.98C267.21,-164.87 253.68,-150.24 243.27,-138.98"/>
<polygon fill="midnightblue" stroke="midnightblue" points="245.72,-136.48 236.37,-131.51 240.58,-141.23 245.72,-136.48"/>
</g>
<!-- Node8 -->
<g id="node8" class="node">
<title>Node8</title>
<g id="a_node8"><a xlink:title=" ">
<polygon fill="none" stroke="#bfbfbf" points="389,-56.5 389,-75.5 430,-75.5 430,-56.5 389,-56.5"/>
<text text-anchor="middle" x="409.5" y="-63.5" font-family="Helvetica,sans-Serif" font-size="10.00">string</text>
</a>
</g>
</g>
<!-- Node3&#45;&gt;Node8 -->
<g id="edge7" class="edge">
<title>Node3&#45;&gt;Node8</title>
<path fill="none" stroke="midnightblue" d="M292.48,-173.68C306.28,-160.18 333.59,-133.71 357.5,-112 368.55,-101.97 381.2,-91 391.27,-82.41"/>
<polygon fill="midnightblue" stroke="midnightblue" points="393.66,-84.97 399.01,-75.82 389.13,-79.63 393.66,-84.97"/>
</g>
<!-- Node5 -->
<g id="node5" class="node">
<title>Node5</title>
<g id="a_node5"><a xlink:title=" ">
<polygon fill="none" stroke="#bfbfbf" points="593.5,-56.5 593.5,-75.5 637.5,-75.5 637.5,-56.5 593.5,-56.5"/>
<text text-anchor="middle" x="615.5" y="-63.5" font-family="Helvetica,sans-Serif" font-size="10.00">vector</text>
</a>
</g>
</g>
<!-- Node4&#45;&gt;Node5 -->
<g id="edge4" class="edge">
<title>Node4&#45;&gt;Node5</title>
<path fill="none" stroke="midnightblue" d="M602.14,-112.08C604.29,-104.85 607.38,-94.41 610.05,-85.4"/>
<polygon fill="midnightblue" stroke="midnightblue" points="613.42,-86.33 612.91,-75.75 606.71,-84.34 613.42,-86.33"/>
</g>
<!-- Node6 -->
<g id="node6" class="node">
<title>Node6</title>
<g id="a_node6"><a xlink:title=" ">
<polygon fill="none" stroke="#bfbfbf" points="813,-0.5 813,-19.5 864,-19.5 864,-0.5 813,-0.5"/>
<text text-anchor="middle" x="838.5" y="-7.5" font-family="Helvetica,sans-Serif" font-size="10.00">memory</text>
</a>
</g>
</g>
<!-- Node4&#45;&gt;Node6 -->
<g id="edge5" class="edge">
<title>Node4&#45;&gt;Node6</title>
<path fill="none" stroke="midnightblue" d="M593.36,-112.34C584.55,-98.76 570.81,-72.33 584.5,-56 585.38,-54.95 733,-29.27 802.76,-17.18"/>
<polygon fill="midnightblue" stroke="midnightblue" points="803.6,-20.59 812.86,-15.43 802.4,-13.69 803.6,-20.59"/>
</g>
<!-- Node10 -->
<g id="node10" class="node">
<title>Node10</title>
<g id="a_node10"><a xlink:href="Collider_8hpp.html" target="_top" xlink:title=" ">
<polygon fill="none" stroke="black" points="1347,-174 1347,-193 1414,-193 1414,-174 1347,-174"/>
<text text-anchor="middle" x="1380.5" y="-181" font-family="Helvetica,sans-Serif" font-size="10.00">Collider.hpp</text>
</a>
</g>
</g>
<!-- Node9&#45;&gt;Node10 -->
<g id="edge9" class="edge">
<title>Node9&#45;&gt;Node10</title>
<path fill="none" stroke="midnightblue" d="M1380.5,-235.48C1380.5,-227.08 1380.5,-213.98 1380.5,-203.16"/>
<polygon fill="midnightblue" stroke="midnightblue" points="1384,-203.01 1380.5,-193.01 1377,-203.01 1384,-203.01"/>
</g>
<!-- Node11 -->
<g id="node11" class="node">
<title>Node11</title>
<g id="a_node11"><a xlink:href="Component_8hpp.html" target="_top" xlink:title=" ">
<polygon fill="none" stroke="black" points="971.5,-56.5 971.5,-75.5 1055.5,-75.5 1055.5,-56.5 971.5,-56.5"/>
<text text-anchor="middle" x="1013.5" y="-63.5" font-family="Helvetica,sans-Serif" font-size="10.00">Component.hpp</text>
</a>
</g>
</g>
<!-- Node10&#45;&gt;Node11 -->
<g id="edge10" class="edge">
<title>Node10&#45;&gt;Node11</title>
<path fill="none" stroke="midnightblue" d="M1377.34,-173.82C1371.26,-158.5 1356.39,-126.86 1332.5,-112 1289.04,-84.96 1144.66,-73.58 1065.88,-69.29"/>
<polygon fill="midnightblue" stroke="midnightblue" points="1065.85,-65.79 1055.68,-68.76 1065.49,-72.78 1065.85,-65.79"/>
</g>
<!-- Node11&#45;&gt;Node6 -->
<g id="edge11" class="edge">
<title>Node11&#45;&gt;Node6</title>
<path fill="none" stroke="midnightblue" d="M985.77,-56.44C955.46,-47.09 906.83,-32.08 873.81,-21.9"/>
<polygon fill="midnightblue" stroke="midnightblue" points="874.69,-18.51 864.11,-18.9 872.63,-25.19 874.69,-18.51"/>
</g>
<!-- Node12&#45;&gt;Node10 -->
<g id="edge13" class="edge">
<title>Node12&#45;&gt;Node10</title>
<path fill="none" stroke="midnightblue" d="M1516.63,-296.57C1516.36,-281.98 1513.78,-252.85 1498.5,-235 1479.5,-212.81 1449.01,-200.11 1423.79,-192.99"/>
<polygon fill="midnightblue" stroke="midnightblue" points="1424.62,-189.59 1414.06,-190.44 1422.85,-196.36 1424.62,-189.59"/>
</g>
<!-- Node14&#45;&gt;Node4 -->
<g id="edge19" class="edge">
<title>Node14&#45;&gt;Node4</title>
<path fill="none" stroke="midnightblue" d="M433.09,-235.49C463.31,-215.06 540.27,-163.04 577.99,-137.54"/>
<polygon fill="midnightblue" stroke="midnightblue" points="580.36,-140.16 586.69,-131.66 576.44,-134.36 580.36,-140.16"/>
</g>
<!-- Node15 -->
<g id="node15" class="node">
<title>Node15</title>
<g id="a_node15"><a xlink:href="EngineConfig_8hpp.html" target="_top" xlink:title=" ">
<polygon fill="none" stroke="black" points="383,-174 383,-193 474,-193 474,-174 383,-174"/>
<text text-anchor="middle" x="428.5" y="-181" font-family="Helvetica,sans-Serif" font-size="10.00">EngineConfig.hpp</text>
</a>
</g>
</g>
<!-- Node14&#45;&gt;Node15 -->
<g id="edge16" class="edge">
<title>Node14&#45;&gt;Node15</title>
<path fill="none" stroke="midnightblue" d="M421.65,-235.48C422.77,-227.08 424.54,-213.98 425.99,-203.16"/>
<polygon fill="midnightblue" stroke="midnightblue" points="429.49,-203.39 427.36,-193.01 422.55,-202.45 429.49,-203.39"/>
</g>
<!-- Node16 -->
<g id="node16" class="node">
<title>Node16</title>
<g id="a_node16"><a xlink:href="WindowConfig_8hpp.html" target="_top" xlink:title=" ">
<polygon fill="none" stroke="black" points="399.5,-112.5 399.5,-131.5 495.5,-131.5 495.5,-112.5 399.5,-112.5"/>
<text text-anchor="middle" x="447.5" y="-119.5" font-family="Helvetica,sans-Serif" font-size="10.00">WindowConfig.hpp</text>
</a>
</g>
</g>
<!-- Node15&#45;&gt;Node16 -->
<g id="edge17" class="edge">
<title>Node15&#45;&gt;Node16</title>
<path fill="none" stroke="midnightblue" d="M431.22,-173.98C433.93,-165.49 438.17,-152.2 441.65,-141.32"/>
<polygon fill="midnightblue" stroke="midnightblue" points="445.07,-142.1 444.78,-131.51 438.41,-139.97 445.07,-142.1"/>
</g>
<!-- Node16&#45;&gt;Node8 -->
<g id="edge18" class="edge">
<title>Node16&#45;&gt;Node8</title>
<path fill="none" stroke="midnightblue" d="M441.23,-112.08C435.86,-104.46 427.98,-93.26 421.42,-83.94"/>
<polygon fill="midnightblue" stroke="midnightblue" points="424.28,-81.91 415.66,-75.75 418.55,-85.94 424.28,-81.91"/>
</g>
<!-- Node17&#45;&gt;Node11 -->
<g id="edge21" class="edge">
<title>Node17&#45;&gt;Node11</title>
<path fill="none" stroke="midnightblue" d="M1013.5,-112.08C1013.5,-105.01 1013.5,-94.86 1013.5,-85.99"/>
<polygon fill="midnightblue" stroke="midnightblue" points="1017,-85.75 1013.5,-75.75 1010,-85.75 1017,-85.75"/>
</g>
<!-- Node18 -->
<g id="node18" class="node">
<title>Node18</title>
<g id="a_node18"><a xlink:href="Point_8hpp.html" target="_top" xlink:title=" ">
<polygon fill="none" stroke="black" points="721,-0.5 721,-19.5 778,-19.5 778,-0.5 721,-0.5"/>
<text text-anchor="middle" x="749.5" y="-7.5" font-family="Helvetica,sans-Serif" font-size="10.00">Point.hpp</text>
</a>
</g>
</g>
<!-- Node17&#45;&gt;Node18 -->
<g id="edge22" class="edge">
<title>Node17&#45;&gt;Node18</title>
<path fill="none" stroke="midnightblue" d="M992.78,-112.37C946.33,-93.01 833.65,-46.06 779.52,-23.51"/>
<polygon fill="midnightblue" stroke="midnightblue" points="780.7,-20.21 770.12,-19.59 778,-26.67 780.7,-20.21"/>
</g>
<!-- Node19&#45;&gt;Node8 -->
<g id="edge26" class="edge">
<title>Node19&#45;&gt;Node8</title>
<path fill="none" stroke="midnightblue" d="M816.79,-296.9C811.2,-294.83 805.17,-292.73 799.5,-291 733.92,-271.02 712.75,-281.45 649.5,-255 606.04,-236.82 592.93,-232.19 559.5,-199 527.04,-166.77 538.75,-142.33 504.5,-112 485.8,-95.44 459.94,-83.72 439.92,-76.41"/>
<polygon fill="midnightblue" stroke="midnightblue" points="440.93,-73.05 430.34,-73.07 438.63,-79.66 440.93,-73.05"/>
</g>
<!-- Node19&#45;&gt;Node11 -->
<g id="edge24" class="edge">
<title>Node19&#45;&gt;Node11</title>
<path fill="none" stroke="midnightblue" d="M868.5,-298.94C953.29,-280.13 1190.07,-225.65 1213.5,-199 1239.2,-169.77 1247.97,-142.27 1223.5,-112 1204.03,-87.91 1121.36,-76.13 1065.74,-70.84"/>
<polygon fill="midnightblue" stroke="midnightblue" points="1065.97,-67.34 1055.69,-69.92 1065.33,-74.31 1065.97,-67.34"/>
</g>
<!-- Node19&#45;&gt;Node13 -->
<g id="edge25" class="edge">
<title>Node19&#45;&gt;Node13</title>
<path fill="none" stroke="midnightblue" d="M817.69,-296.92C811.88,-294.75 805.5,-292.59 799.5,-291 704.16,-265.69 677.46,-273.11 580.5,-255 579.05,-254.73 577.57,-254.45 576.08,-254.16"/>
<polygon fill="midnightblue" stroke="midnightblue" points="576.64,-250.7 566.15,-252.18 575.27,-257.57 576.64,-250.7"/>
</g>
<!-- Node20&#45;&gt;Node8 -->
<g id="edge37" class="edge">
<title>Node20&#45;&gt;Node8</title>
<path fill="none" stroke="midnightblue" d="M451.96,-302.08C383.65,-291.62 202.87,-253.02 142.5,-132 138.53,-124.05 136.76,-118.79 142.5,-112 172.41,-76.63 314.53,-69.05 378.35,-67.43"/>
<polygon fill="midnightblue" stroke="midnightblue" points="378.68,-70.93 388.6,-67.21 378.53,-63.93 378.68,-70.93"/>
</g>
<!-- Node20&#45;&gt;Node13 -->
<g id="edge36" class="edge">
<title>Node20&#45;&gt;Node13</title>
<path fill="none" stroke="midnightblue" d="M486.95,-296.98C496.07,-287.78 510.77,-272.96 521.98,-261.66"/>
<polygon fill="midnightblue" stroke="midnightblue" points="524.51,-264.07 529.06,-254.51 519.54,-259.15 524.51,-264.07"/>
</g>
<!-- Node21 -->
<g id="node21" class="node">
<title>Node21</title>
<g id="a_node21"><a xlink:href="UIObject_8hpp.html" target="_top" xlink:title=" ">
<polygon fill="none" stroke="black" points="568.5,-174 568.5,-193 642.5,-193 642.5,-174 568.5,-174"/>
<text text-anchor="middle" x="605.5" y="-181" font-family="Helvetica,sans-Serif" font-size="10.00">UIObject.hpp</text>
</a>
</g>
</g>
<!-- Node20&#45;&gt;Node21 -->
<g id="edge28" class="edge">
<title>Node20&#45;&gt;Node21</title>
<path fill="none" stroke="midnightblue" d="M478.89,-296.62C479.97,-282.09 484.06,-253.05 499.5,-235 515.48,-216.33 539.91,-204.05 561.29,-196.27"/>
<polygon fill="midnightblue" stroke="midnightblue" points="562.52,-199.55 570.86,-193.01 560.27,-192.93 562.52,-199.55"/>
</g>
<!-- Node22 -->
<g id="node22" class="node">
<title>Node22</title>
<g id="a_node22"><a xlink:href="GameObject_8hpp.html" target="_top" xlink:title=" ">
<polygon fill="none" stroke="black" points="667,-112.5 667,-131.5 756,-131.5 756,-112.5 667,-112.5"/>
<text text-anchor="middle" x="711.5" y="-119.5" font-family="Helvetica,sans-Serif" font-size="10.00">GameObject.hpp</text>
</a>
</g>
</g>
<!-- Node21&#45;&gt;Node22 -->
<g id="edge29" class="edge">
<title>Node21&#45;&gt;Node22</title>
<path fill="none" stroke="midnightblue" d="M620.69,-173.98C638.16,-164.17 667.08,-147.93 687.58,-136.42"/>
<polygon fill="midnightblue" stroke="midnightblue" points="689.33,-139.46 696.34,-131.51 685.91,-133.35 689.33,-139.46"/>
</g>
<!-- Node22&#45;&gt;Node5 -->
<g id="edge34" class="edge">
<title>Node22&#45;&gt;Node5</title>
<path fill="none" stroke="midnightblue" d="M696.08,-112.32C680.96,-103.82 657.68,-90.73 640.03,-80.8"/>
<polygon fill="midnightblue" stroke="midnightblue" points="641.32,-77.51 630.89,-75.65 637.89,-83.61 641.32,-77.51"/>
</g>
<!-- Node22&#45;&gt;Node6 -->
<g id="edge35" class="edge">
<title>Node22&#45;&gt;Node6</title>
<path fill="none" stroke="midnightblue" d="M721.69,-112.17C736.11,-99.66 763.32,-76.08 786.5,-56 797.92,-46.11 810.76,-35 820.82,-26.29"/>
<polygon fill="midnightblue" stroke="midnightblue" points="823.26,-28.81 828.53,-19.62 818.68,-23.52 823.26,-28.81"/>
</g>
<!-- Node22&#45;&gt;Node8 -->
<g id="edge33" class="edge">
<title>Node22&#45;&gt;Node8</title>
<path fill="none" stroke="midnightblue" d="M666.94,-113.03C604.8,-101.92 493.72,-82.06 440.11,-72.47"/>
<polygon fill="midnightblue" stroke="midnightblue" points="440.64,-69.01 430.18,-70.7 439.41,-75.9 440.64,-69.01"/>
</g>
<!-- Node22&#45;&gt;Node11 -->
<g id="edge30" class="edge">
<title>Node22&#45;&gt;Node11</title>
<path fill="none" stroke="midnightblue" d="M756.06,-113.03C810.7,-103.26 903.17,-86.73 961.14,-76.36"/>
<polygon fill="midnightblue" stroke="midnightblue" points="961.97,-79.77 971.2,-74.56 960.74,-72.88 961.97,-79.77"/>
</g>
<!-- Node23 -->
<g id="node23" class="node">
<title>Node23</title>
<g id="a_node23"><a xlink:href="Transform_8hpp.html" target="_top" xlink:title=" ">
<polygon fill="none" stroke="black" points="655,-56.5 655,-75.5 734,-75.5 734,-56.5 655,-56.5"/>
<text text-anchor="middle" x="694.5" y="-63.5" font-family="Helvetica,sans-Serif" font-size="10.00">Transform.hpp</text>
</a>
</g>
</g>
<!-- Node22&#45;&gt;Node23 -->
<g id="edge31" class="edge">
<title>Node22&#45;&gt;Node23</title>
<path fill="none" stroke="midnightblue" d="M708.69,-112.08C706.42,-104.85 703.13,-94.41 700.29,-85.4"/>
<polygon fill="midnightblue" stroke="midnightblue" points="703.6,-84.24 697.25,-75.75 696.92,-86.34 703.6,-84.24"/>
</g>
<!-- Node23&#45;&gt;Node18 -->
<g id="edge32" class="edge">
<title>Node23&#45;&gt;Node18</title>
<path fill="none" stroke="midnightblue" d="M703.58,-56.08C711.67,-48.14 723.7,-36.34 733.41,-26.8"/>
<polygon fill="midnightblue" stroke="midnightblue" points="735.9,-29.25 740.59,-19.75 731,-24.26 735.9,-29.25"/>
</g>
<!-- Node24&#45;&gt;Node8 -->
<g id="edge39" class="edge">
<title>Node24&#45;&gt;Node8</title>
<path fill="none" stroke="midnightblue" d="M48.71,-235.48C52.59,-211.59 67.07,-143.61 109.5,-112 151.69,-80.57 310.78,-70.79 378.58,-68.01"/>
<polygon fill="midnightblue" stroke="midnightblue" points="378.79,-71.5 388.65,-67.62 378.52,-64.51 378.79,-71.5"/>
</g>
<!-- Node26&#45;&gt;Node6 -->
<g id="edge42" class="edge">
<title>Node26&#45;&gt;Node6</title>
<path fill="none" stroke="midnightblue" d="M1179.85,-168.5C1208.25,-155.65 1239.87,-135.13 1223.5,-112 1182.68,-54.35 961.53,-24.37 874.09,-14.63"/>
<polygon fill="midnightblue" stroke="midnightblue" points="874.44,-11.14 864.12,-13.54 873.68,-18.1 874.44,-11.14"/>
</g>
<!-- Node26&#45;&gt;Node22 -->
<g id="edge43" class="edge">
<title>Node26&#45;&gt;Node22</title>
<path fill="none" stroke="midnightblue" d="M1080.75,-173.98C996.37,-162.33 846.38,-141.62 765.98,-130.52"/>
<polygon fill="midnightblue" stroke="midnightblue" points="766.44,-127.05 756.06,-129.15 765.49,-133.99 766.44,-127.05"/>
</g>
<!-- Node27 -->
<g id="node27" class="node">
<title>Node27</title>
<g id="a_node27"><a xlink:href="AudioSource_8hpp.html" target="_top" xlink:title=" ">
<polygon fill="none" stroke="black" points="866.5,-112.5 866.5,-131.5 956.5,-131.5 956.5,-112.5 866.5,-112.5"/>
<text text-anchor="middle" x="911.5" y="-119.5" font-family="Helvetica,sans-Serif" font-size="10.00">AudioSource.hpp</text>
</a>
</g>
</g>
<!-- Node26&#45;&gt;Node27 -->
<g id="edge44" class="edge">
<title>Node26&#45;&gt;Node27</title>
<path fill="none" stroke="midnightblue" d="M1088.05,-168.47C1047.33,-157.99 992.4,-143.84 954.68,-134.12"/>
<polygon fill="midnightblue" stroke="midnightblue" points="955.08,-130.61 944.52,-131.51 953.34,-137.39 955.08,-130.61"/>
</g>
<!-- Node28 -->
<g id="node28" class="node">
<title>Node28</title>
<g id="a_node28"><a xlink:href="AudioClipName_8hpp.html" target="_top" xlink:title=" ">
<polygon fill="none" stroke="black" points="1071,-112.5 1071,-131.5 1214,-131.5 1214,-112.5 1071,-112.5"/>
<text text-anchor="middle" x="1142.5" y="-119.5" font-family="Helvetica,sans-Serif" font-size="10.00">../Enums/AudioClipName.hpp</text>
</a>
</g>
</g>
<!-- Node26&#45;&gt;Node28 -->
<g id="edge47" class="edge">
<title>Node26&#45;&gt;Node28</title>
<path fill="none" stroke="midnightblue" d="M1142.5,-168.4C1142.5,-160.47 1142.5,-150.46 1142.5,-141.86"/>
<polygon fill="midnightblue" stroke="midnightblue" points="1146,-141.66 1142.5,-131.66 1139,-141.66 1146,-141.66"/>
</g>
<!-- Node27&#45;&gt;Node8 -->
<g id="edge46" class="edge">
<title>Node27&#45;&gt;Node8</title>
<path fill="none" stroke="midnightblue" d="M866.07,-116.11C765.38,-105.28 525.68,-79.5 440.33,-70.32"/>
<polygon fill="midnightblue" stroke="midnightblue" points="440.57,-66.82 430.25,-69.23 439.82,-73.78 440.57,-66.82"/>
</g>
<!-- Node27&#45;&gt;Node11 -->
<g id="edge45" class="edge">
<title>Node27&#45;&gt;Node11</title>
<path fill="none" stroke="midnightblue" d="M927.89,-112.32C944.17,-103.7 969.37,-90.36 988.22,-80.39"/>
<polygon fill="midnightblue" stroke="midnightblue" points="989.95,-83.43 997.15,-75.65 986.68,-77.24 989.95,-83.43"/>
</g>
<!-- Node29&#45;&gt;Node6 -->
<g id="edge52" class="edge">
<title>Node29&#45;&gt;Node6</title>
<path fill="none" stroke="midnightblue" d="M766.11,-291.47C803.08,-275.4 857.38,-245.19 881.5,-199 887.88,-186.79 885.49,-181.19 881.5,-168 875.93,-149.6 864.49,-149.92 857.5,-132 850.37,-113.72 843.65,-58.94 840.45,-29.76"/>
<polygon fill="midnightblue" stroke="midnightblue" points="843.91,-29.22 839.37,-19.64 836.95,-29.96 843.91,-29.22"/>
</g>
<!-- Node29&#45;&gt;Node8 -->
<g id="edge53" class="edge">
<title>Node29&#45;&gt;Node8</title>
<path fill="none" stroke="midnightblue" d="M665.72,-292.59C662.61,-292.03 659.52,-291.5 656.5,-291 595.26,-280.87 422.9,-299.38 379.5,-255 333.68,-208.14 376.84,-121.09 398.63,-84.21"/>
<polygon fill="midnightblue" stroke="midnightblue" points="401.66,-85.96 403.88,-75.6 395.68,-82.32 401.66,-85.96"/>
</g>
<!-- Node30 -->
<g id="node30" class="node">
<title>Node30</title>
<g id="a_node30"><a xlink:href="Button_8hpp.html" target="_top" xlink:title=" ">
<polygon fill="none" stroke="black" points="659,-235.5 659,-254.5 722,-254.5 722,-235.5 659,-235.5"/>
<text text-anchor="middle" x="690.5" y="-242.5" font-family="Helvetica,sans-Serif" font-size="10.00">Button.hpp</text>
</a>
</g>
</g>
<!-- Node29&#45;&gt;Node30 -->
<g id="edge49" class="edge">
<title>Node29&#45;&gt;Node30</title>
<path fill="none" stroke="midnightblue" d="M719.49,-291.4C714.09,-282.93 707.17,-272.1 701.45,-263.14"/>
<polygon fill="midnightblue" stroke="midnightblue" points="704.36,-261.2 696.03,-254.66 698.46,-264.97 704.36,-261.2"/>
</g>
<!-- Node30&#45;&gt;Node21 -->
<g id="edge50" class="edge">
<title>Node30&#45;&gt;Node21</title>
<path fill="none" stroke="midnightblue" d="M678.32,-235.48C664.69,-225.93 642.37,-210.31 626.03,-198.87"/>
<polygon fill="midnightblue" stroke="midnightblue" points="627.86,-195.88 617.66,-193.01 623.84,-201.61 627.86,-195.88"/>
</g>
<!-- Node31 -->
<g id="node31" class="node">
<title>Node31</title>
<g id="a_node31"><a xlink:title=" ">
<polygon fill="none" stroke="#bfbfbf" points="661,-174 661,-193 720,-193 720,-174 661,-174"/>
<text text-anchor="middle" x="690.5" y="-181" font-family="Helvetica,sans-Serif" font-size="10.00">functional</text>
</a>
</g>
</g>
<!-- Node30&#45;&gt;Node31 -->
<g id="edge51" class="edge">
<title>Node30&#45;&gt;Node31</title>
<path fill="none" stroke="midnightblue" d="M690.5,-235.48C690.5,-227.08 690.5,-213.98 690.5,-203.16"/>
<polygon fill="midnightblue" stroke="midnightblue" points="694,-203.01 690.5,-193.01 687,-203.01 694,-203.01"/>
</g>
<!-- Node33 -->
<g id="node33" class="node">
<title>Node33</title>
<g id="a_node33"><a xlink:href="BehaviourScript_8hpp.html" target="_top" xlink:title=" ">
<polygon fill="none" stroke="black" points="1216.5,-235.5 1216.5,-254.5 1320.5,-254.5 1320.5,-235.5 1216.5,-235.5"/>
<text text-anchor="middle" x="1268.5" y="-242.5" font-family="Helvetica,sans-Serif" font-size="10.00">BehaviourScript.hpp</text>
</a>
</g>
</g>
<!-- Node32&#45;&gt;Node33 -->
<g id="edge55" class="edge">
<title>Node32&#45;&gt;Node33</title>
<path fill="none" stroke="midnightblue" d="M1224.25,-291.4C1232.85,-282.58 1243.95,-271.18 1252.89,-262.02"/>
<polygon fill="midnightblue" stroke="midnightblue" points="1255.59,-264.26 1260.06,-254.66 1250.57,-259.38 1255.59,-264.26"/>
</g>
<!-- Node33&#45;&gt;Node10 -->
<g id="edge57" class="edge">
<title>Node33&#45;&gt;Node10</title>
<path fill="none" stroke="midnightblue" d="M1284.55,-235.48C1303.09,-225.62 1333.84,-209.29 1355.52,-197.77"/>
<polygon fill="midnightblue" stroke="midnightblue" points="1357.29,-200.79 1364.48,-193.01 1354.01,-194.61 1357.29,-200.79"/>
</g>
<!-- Node33&#45;&gt;Node11 -->
<g id="edge56" class="edge">
<title>Node33&#45;&gt;Node11</title>
<path fill="none" stroke="midnightblue" d="M1274.44,-235.39C1289.51,-212.39 1325.87,-148.79 1294.5,-112 1265.7,-78.23 1138.92,-69.69 1065.87,-67.61"/>
<polygon fill="midnightblue" stroke="midnightblue" points="1065.59,-64.1 1055.5,-67.35 1065.41,-71.1 1065.59,-64.1"/>
</g>
<!-- Node35 -->
<g id="node35" class="node">
<title>Node35</title>
<g id="a_node35"><a xlink:title=" ">
<polygon fill="none" stroke="#bfbfbf" points="1440,-235.5 1440,-254.5 1489,-254.5 1489,-235.5 1440,-235.5"/>
<text text-anchor="middle" x="1464.5" y="-242.5" font-family="Helvetica,sans-Serif" font-size="10.00">random</text>
</a>
</g>
</g>
<!-- Node34&#45;&gt;Node35 -->
<g id="edge59" class="edge">
<title>Node34&#45;&gt;Node35</title>
<path fill="none" stroke="midnightblue" d="M1401.96,-296.98C1413.45,-287.61 1432.13,-272.38 1446.09,-261.01"/>
<polygon fill="midnightblue" stroke="midnightblue" points="1448.52,-263.54 1454.06,-254.51 1444.1,-258.11 1448.52,-263.54"/>
</g>
<!-- Node36&#45;&gt;Node6 -->
<g id="edge61" class="edge">
<title>Node36&#45;&gt;Node6</title>
<path fill="none" stroke="midnightblue" d="M807.18,-173.76C812.32,-147.04 827.91,-66.02 834.97,-29.36"/>
<polygon fill="midnightblue" stroke="midnightblue" points="838.41,-30 836.86,-19.52 831.53,-28.68 838.41,-30"/>
</g>
<!-- Node36&#45;&gt;Node22 -->
<g id="edge62" class="edge">
<title>Node36&#45;&gt;Node22</title>
<path fill="none" stroke="midnightblue" d="M792.03,-173.98C776.82,-164.34 751.81,-148.52 733.7,-137.05"/>
<polygon fill="midnightblue" stroke="midnightblue" points="735.26,-133.9 724.94,-131.51 731.52,-139.81 735.26,-133.9"/>
</g>
<!-- Node37&#45;&gt;Node13 -->
<g id="edge64" class="edge">
<title>Node37&#45;&gt;Node13</title>
<path fill="none" stroke="midnightblue" d="M594.9,-296.98C584.45,-287.7 567.53,-272.67 554.76,-261.33"/>
<polygon fill="midnightblue" stroke="midnightblue" points="556.88,-258.53 547.08,-254.51 552.23,-263.77 556.88,-258.53"/>
</g>
</g>
</svg>
