<?xml version="1.0" encoding="UTF-8" standalone="no"?>
<!DOCTYPE svg PUBLIC "-//W3C//DTD SVG 1.1//EN"
 "http://www.w3.org/Graphics/SVG/1.1/DTD/svg11.dtd">
<!-- Generated by graphviz version 2.44.0 ()
 -->
<!-- Title: src/Scenes/VictoryScene.hpp Pages: 1 -->
<svg width="298pt" height="95pt"
 viewBox="0.00 0.00 298.00 95.00" xmlns="http://www.w3.org/2000/svg" xmlns:xlink="http://www.w3.org/1999/xlink">
<g id="graph0" class="graph" transform="scale(1 1) rotate(0) translate(4 91)">
<title>src/Scenes/VictoryScene.hpp</title>
<!-- Node1 -->
<g id="node1" class="node">
<title>Node1</title>
<g id="a_node1"><a xlink:title=" ">
<polygon fill="#bfbfbf" stroke="black" points="77,-67.5 77,-86.5 222,-86.5 222,-67.5 77,-67.5"/>
<text text-anchor="middle" x="149.5" y="-74.5" font-family="Helvetica,sans-Serif" font-size="10.00">src/Scenes/VictoryScene.hpp</text>
</a>
</g>
</g>
<!-- Node2 -->
<g id="node2" class="node">
<title>Node2</title>
<g id="a_node2"><a xlink:href="VictoryScene_8cpp.html" target="_top" xlink:title=" ">
<polygon fill="none" stroke="black" points="0,-6 0,-25 145,-25 145,-6 0,-6"/>
<text text-anchor="middle" x="72.5" y="-13" font-family="Helvetica,sans-Serif" font-size="10.00">src/Scenes/VictoryScene.cpp</text>
</a>
</g>
</g>
<!-- Node1&#45;&gt;Node2 -->
<g id="edge1" class="edge">
<title>Node1&#45;&gt;Node2</title>
<path fill="none" stroke="midnightblue" d="M130.47,-61.29C115.7,-49.88 95.74,-34.46 83.51,-25.01"/>
<polygon fill="midnightblue" stroke="midnightblue" points="128.41,-64.13 138.47,-67.48 132.69,-58.59 128.41,-64.13"/>
</g>
<!-- Node3 -->
<g id="node3" class="node">
<title>Node3</title>
<g id="a_node3"><a xlink:href="GameWonBehaviour_8cpp.html" target="_top" xlink:title=" ">
<polygon fill="none" stroke="black" points="163,-0.5 163,-30.5 290,-30.5 290,-0.5 163,-0.5"/>
<text text-anchor="start" x="171" y="-18.5" font-family="Helvetica,sans-Serif" font-size="10.00">src/Scripts/Common</text>
<text text-anchor="middle" x="226.5" y="-7.5" font-family="Helvetica,sans-Serif" font-size="10.00">/GameWonBehaviour.cpp</text>
</a>
</g>
</g>
<!-- Node1&#45;&gt;Node3 -->
<g id="edge2" class="edge">
<title>Node1&#45;&gt;Node3</title>
<path fill="none" stroke="midnightblue" d="M168.66,-61.2C180.8,-51.81 196.41,-39.75 208.35,-30.52"/>
<polygon fill="midnightblue" stroke="midnightblue" points="166.31,-58.59 160.53,-67.48 170.59,-64.13 166.31,-58.59"/>
</g>
</g>
</svg>
