<?xml version="1.0" encoding="UTF-8" standalone="no"?>
<!DOCTYPE svg PUBLIC "-//W3C//DTD SVG 1.1//EN"
 "http://www.w3.org/Graphics/SVG/1.1/DTD/svg11.dtd">
<!-- Generated by graphviz version 2.44.0 ()
 -->
<!-- Title: src/Structs/WaveData.hpp Pages: 1 -->
<!--zoomable 229 -->
<svg id="main" version="1.1" xmlns="http://www.w3.org/2000/svg" xmlns:xlink="http://www.w3.org/1999/xlink" xml:space="preserve" onload="init(evt)">
<style type="text/css"><![CDATA[
.edge:hover path { stroke: red; }
.edge:hover polygon { stroke: red; fill: red; }
]]></style>
<script type="text/javascript"><![CDATA[
var edges = document.getElementsByTagName('g');
if (edges && edges.length) {
  for (var i=0;i<edges.length;i++) {
    if (edges[i].id.substr(0,4)=='edge') {
      edges[i].setAttribute('class','edge');
    }
  }
}
]]></script>
        <defs>
                <circle id="rim" cx="0" cy="0" r="7"/>
                <circle id="rim2" cx="0" cy="0" r="3.5"/>
                <g id="zoomPlus">
                        <use xlink:href="#rim" fill="#404040">
                                <set attributeName="fill" to="#808080" begin="zoomplus.mouseover" end="zoomplus.mouseout"/>
                        </use>
                        <path d="M-4,0h8M0,-4v8" fill="none" stroke="white" stroke-width="1.5" pointer-events="none"/>
                </g>
                <g id="zoomMin">
                        <use xlink:href="#rim" fill="#404040">
                                <set attributeName="fill" to="#808080" begin="zoomminus.mouseover" end="zoomminus.mouseout"/>
                        </use>
                        <path d="M-4,0h8" fill="none" stroke="white" stroke-width="1.5" pointer-events="none"/>
                </g>
                <g id="dirArrow">
                        <path fill="none" stroke="white" stroke-width="1.5" d="M0,-3.0v7 M-2.5,-0.5L0,-3.0L2.5,-0.5"/>
                </g>
               <g id="resetDef">
                       <use xlink:href="#rim2" fill="#404040">
                               <set attributeName="fill" to="#808080" begin="reset.mouseover" end="reset.mouseout"/>
                       </use>
               </g>
        </defs>

<script type="text/javascript">
var viewWidth = 1069;
var viewHeight = 229;
var sectionId = 'dynsection-1';
</script>
<script xlink:href="svgpan.js"/>
<svg id="graph" class="graph">
<g id="viewport">
<title>src/Structs/WaveData.hpp</title>
<!-- Node1 -->
<g id="node1" class="node">
<title>Node1</title>
<g id="a_node1"><a xlink:title=" ">
<polygon fill="#bfbfbf" stroke="black" points="422,-201.5 422,-220.5 553,-220.5 553,-201.5 422,-201.5"/>
<text text-anchor="middle" x="487.5" y="-208.5" font-family="Helvetica,sans-Serif" font-size="10.00">src/Structs/WaveData.hpp</text>
</a>
</g>
</g>
<!-- Node2 -->
<g id="node2" class="node">
<title>Node2</title>
<g id="a_node2"><a xlink:href="WavePrefabFactory_8hpp.html" target="_top" xlink:title=" ">
<polygon fill="none" stroke="black" points="106.5,-134.5 106.5,-164.5 236.5,-164.5 236.5,-134.5 106.5,-134.5"/>
<text text-anchor="start" x="114.5" y="-152.5" font-family="Helvetica,sans-Serif" font-size="10.00">src/Factories/WavePrefab</text>
<text text-anchor="middle" x="171.5" y="-141.5" font-family="Helvetica,sans-Serif" font-size="10.00">Factory.hpp</text>
</a>
</g>
</g>
<!-- Node1&#45;&gt;Node2 -->
<g id="edge1" class="edge">
<title>Node1&#45;&gt;Node2</title>
<path fill="none" stroke="midnightblue" d="M432.06,-199.56C377.56,-189.3 294.38,-173.64 236.73,-162.78"/>
<polygon fill="midnightblue" stroke="midnightblue" points="431.75,-203.06 442.22,-201.48 433.05,-196.19 431.75,-203.06"/>
</g>
<!-- Node5 -->
<g id="node5" class="node">
<title>Node5</title>
<g id="a_node5"><a xlink:href="LevelData_8hpp.html" target="_top" xlink:title=" ">
<polygon fill="none" stroke="black" points="422.5,-140 422.5,-159 552.5,-159 552.5,-140 422.5,-140"/>
<text text-anchor="middle" x="487.5" y="-147" font-family="Helvetica,sans-Serif" font-size="10.00">src/Structs/LevelData.hpp</text>
</a>
</g>
</g>
<!-- Node1&#45;&gt;Node5 -->
<g id="edge4" class="edge">
<title>Node1&#45;&gt;Node5</title>
<path fill="none" stroke="midnightblue" d="M487.5,-191.32C487.5,-180.5 487.5,-167.4 487.5,-159.01"/>
<polygon fill="midnightblue" stroke="midnightblue" points="484,-191.48 487.5,-201.48 491,-191.48 484,-191.48"/>
</g>
<!-- Node16 -->
<g id="node16" class="node">
<title>Node16</title>
<g id="a_node16"><a xlink:href="WaveData_8cpp.html" target="_top" xlink:title=" ">
<polygon fill="none" stroke="black" points="571,-140 571,-159 702,-159 702,-140 571,-140"/>
<text text-anchor="middle" x="636.5" y="-147" font-family="Helvetica,sans-Serif" font-size="10.00">src/Structs/WaveData.cpp</text>
</a>
</g>
</g>
<!-- Node1&#45;&gt;Node16 -->
<g id="edge20" class="edge">
<title>Node1&#45;&gt;Node16</title>
<path fill="none" stroke="midnightblue" d="M518.47,-197.63C547.42,-186.07 589.87,-169.12 615.19,-159.01"/>
<polygon fill="midnightblue" stroke="midnightblue" points="516.84,-194.52 508.85,-201.48 519.43,-201.02 516.84,-194.52"/>
</g>
<!-- Node3 -->
<g id="node3" class="node">
<title>Node3</title>
<g id="a_node3"><a xlink:href="WavePrefabFactory_8cpp.html" target="_top" xlink:title=" ">
<polygon fill="none" stroke="black" points="13.5,-67.5 13.5,-97.5 143.5,-97.5 143.5,-67.5 13.5,-67.5"/>
<text text-anchor="start" x="21.5" y="-85.5" font-family="Helvetica,sans-Serif" font-size="10.00">src/Factories/WavePrefab</text>
<text text-anchor="middle" x="78.5" y="-74.5" font-family="Helvetica,sans-Serif" font-size="10.00">Factory.cpp</text>
</a>
</g>
</g>
<!-- Node2&#45;&gt;Node3 -->
<g id="edge2" class="edge">
<title>Node2&#45;&gt;Node3</title>
<path fill="none" stroke="midnightblue" d="M142.81,-128.45C128.51,-118.45 111.55,-106.6 98.64,-97.58"/>
<polygon fill="midnightblue" stroke="midnightblue" points="141.12,-131.54 151.32,-134.4 145.13,-125.8 141.12,-131.54"/>
</g>
<!-- Node4 -->
<g id="node4" class="node">
<title>Node4</title>
<g id="a_node4"><a xlink:href="LevelScene_8cpp.html" target="_top" xlink:title=" ">
<polygon fill="none" stroke="black" points="0,-6 0,-25 139,-25 139,-6 0,-6"/>
<text text-anchor="middle" x="69.5" y="-13" font-family="Helvetica,sans-Serif" font-size="10.00">src/Scenes/LevelScene.cpp</text>
</a>
</g>
</g>
<!-- Node2&#45;&gt;Node4 -->
<g id="edge3" class="edge">
<title>Node2&#45;&gt;Node4</title>
<path fill="none" stroke="midnightblue" d="M170.72,-124.02C169.06,-106.66 164.52,-83.6 152.5,-67 137.86,-46.78 112.41,-33.06 93.54,-25.08"/>
<polygon fill="midnightblue" stroke="midnightblue" points="167.26,-124.74 171.44,-134.47 174.24,-124.26 167.26,-124.74"/>
</g>
<!-- Node6 -->
<g id="node6" class="node">
<title>Node6</title>
<g id="a_node6"><a xlink:href="LevelController_8hpp.html" target="_top" xlink:title=" ">
<polygon fill="none" stroke="black" points="238.5,-73 238.5,-92 404.5,-92 404.5,-73 238.5,-73"/>
<text text-anchor="middle" x="321.5" y="-80" font-family="Helvetica,sans-Serif" font-size="10.00">src/Controllers/LevelController.hpp</text>
</a>
</g>
</g>
<!-- Node5&#45;&gt;Node6 -->
<g id="edge5" class="edge">
<title>Node5&#45;&gt;Node6</title>
<path fill="none" stroke="midnightblue" d="M455.84,-136.1C422.88,-123.2 372.14,-103.33 343.37,-92.06"/>
<polygon fill="midnightblue" stroke="midnightblue" points="454.87,-139.48 465.46,-139.87 457.42,-132.96 454.87,-139.48"/>
</g>
<!-- Node11 -->
<g id="node11" class="node">
<title>Node11</title>
<g id="a_node11"><a xlink:href="GameLostBehaviour_8hpp.html" target="_top" xlink:title=" ">
<polygon fill="none" stroke="black" points="571,-67.5 571,-97.5 698,-97.5 698,-67.5 571,-67.5"/>
<text text-anchor="start" x="579" y="-85.5" font-family="Helvetica,sans-Serif" font-size="10.00">src/Scripts/Common</text>
<text text-anchor="middle" x="634.5" y="-74.5" font-family="Helvetica,sans-Serif" font-size="10.00">/GameLostBehaviour.hpp</text>
</a>
</g>
</g>
<!-- Node5&#45;&gt;Node11 -->
<g id="edge11" class="edge">
<title>Node5&#45;&gt;Node11</title>
<path fill="none" stroke="midnightblue" d="M516.3,-135.77C541.18,-124.77 577.08,-108.89 602.77,-97.53"/>
<polygon fill="midnightblue" stroke="midnightblue" points="514.75,-132.62 507.02,-139.87 517.58,-139.03 514.75,-132.62"/>
</g>
<!-- Node13 -->
<g id="node13" class="node">
<title>Node13</title>
<g id="a_node13"><a xlink:href="GameWonBehaviour_8hpp.html" target="_top" xlink:title=" ">
<polygon fill="none" stroke="black" points="716,-67.5 716,-97.5 843,-97.5 843,-67.5 716,-67.5"/>
<text text-anchor="start" x="724" y="-85.5" font-family="Helvetica,sans-Serif" font-size="10.00">src/Scripts/Common</text>
<text text-anchor="middle" x="779.5" y="-74.5" font-family="Helvetica,sans-Serif" font-size="10.00">/GameWonBehaviour.hpp</text>
</a>
</g>
</g>
<!-- Node5&#45;&gt;Node13 -->
<g id="edge15" class="edge">
<title>Node5&#45;&gt;Node13</title>
<path fill="none" stroke="midnightblue" d="M535.77,-137.75C585.16,-126.76 662.14,-109.63 716.34,-97.56"/>
<polygon fill="midnightblue" stroke="midnightblue" points="534.97,-134.35 525.97,-139.94 536.5,-141.18 534.97,-134.35"/>
</g>
<!-- Node15 -->
<g id="node15" class="node">
<title>Node15</title>
<g id="a_node15"><a xlink:href="LevelData_8cpp.html" target="_top" xlink:title=" ">
<polygon fill="none" stroke="black" points="422.5,-73 422.5,-92 552.5,-92 552.5,-73 422.5,-73"/>
<text text-anchor="middle" x="487.5" y="-80" font-family="Helvetica,sans-Serif" font-size="10.00">src/Structs/LevelData.cpp</text>
</a>
</g>
</g>
<!-- Node5&#45;&gt;Node15 -->
<g id="edge19" class="edge">
<title>Node5&#45;&gt;Node15</title>
<path fill="none" stroke="midnightblue" d="M487.5,-129.54C487.5,-117.17 487.5,-101.62 487.5,-92.13"/>
<polygon fill="midnightblue" stroke="midnightblue" points="484,-129.73 487.5,-139.73 491,-129.73 484,-129.73"/>
</g>
<!-- Node6&#45;&gt;Node4 -->
<g id="edge7" class="edge">
<title>Node6&#45;&gt;Node4</title>
<path fill="none" stroke="midnightblue" d="M278.48,-70.4C228.75,-57.58 147.95,-36.74 102.78,-25.08"/>
<polygon fill="midnightblue" stroke="midnightblue" points="277.74,-73.83 288.3,-72.94 279.49,-67.05 277.74,-73.83"/>
</g>
<!-- Node7 -->
<g id="node7" class="node">
<title>Node7</title>
<g id="a_node7"><a xlink:href="LevelController_8cpp.html" target="_top" xlink:title=" ">
<polygon fill="none" stroke="black" points="480.5,-6 480.5,-25 646.5,-25 646.5,-6 480.5,-6"/>
<text text-anchor="middle" x="563.5" y="-13" font-family="Helvetica,sans-Serif" font-size="10.00">src/Controllers/LevelController.cpp</text>
</a>
</g>
</g>
<!-- Node6&#45;&gt;Node7 -->
<g id="edge6" class="edge">
<title>Node6&#45;&gt;Node7</title>
<path fill="none" stroke="midnightblue" d="M363.11,-70.32C410.9,-57.49 488.25,-36.71 531.54,-25.08"/>
<polygon fill="midnightblue" stroke="midnightblue" points="362.14,-66.96 353.39,-72.94 363.95,-73.72 362.14,-66.96"/>
</g>
<!-- Node8 -->
<g id="node8" class="node">
<title>Node8</title>
<g id="a_node8"><a xlink:href="CheatManager_8cpp.html" target="_top" xlink:title=" ">
<polygon fill="none" stroke="black" points="664.5,-0.5 664.5,-30.5 770.5,-30.5 770.5,-0.5 664.5,-0.5"/>
<text text-anchor="start" x="672.5" y="-18.5" font-family="Helvetica,sans-Serif" font-size="10.00">src/Scripts/Common</text>
<text text-anchor="middle" x="717.5" y="-7.5" font-family="Helvetica,sans-Serif" font-size="10.00">/CheatManager.cpp</text>
</a>
</g>
</g>
<!-- Node6&#45;&gt;Node8 -->
<g id="edge8" class="edge">
<title>Node6&#45;&gt;Node8</title>
<path fill="none" stroke="midnightblue" d="M384.89,-71.44C394.47,-69.94 404.25,-68.42 413.5,-67 520.99,-50.54 548.69,-51.4 655.5,-31 658.43,-30.44 661.43,-29.84 664.46,-29.21"/>
<polygon fill="midnightblue" stroke="midnightblue" points="384.34,-67.98 375,-72.99 385.42,-74.89 384.34,-67.98"/>
</g>
<!-- Node9 -->
<g id="node9" class="node">
<title>Node9</title>
<g id="a_node9"><a xlink:href="EnemyMovementBehaviour_8cpp.html" target="_top" xlink:title=" ">
<polygon fill="none" stroke="black" points="306.5,-0.5 306.5,-30.5 462.5,-30.5 462.5,-0.5 306.5,-0.5"/>
<text text-anchor="start" x="314.5" y="-18.5" font-family="Helvetica,sans-Serif" font-size="10.00">src/Scripts/Enemies</text>
<text text-anchor="middle" x="384.5" y="-7.5" font-family="Helvetica,sans-Serif" font-size="10.00">/EnemyMovementBehaviour.cpp</text>
</a>
</g>
</g>
<!-- Node6&#45;&gt;Node9 -->
<g id="edge9" class="edge">
<title>Node6&#45;&gt;Node9</title>
<path fill="none" stroke="midnightblue" d="M337.2,-65.3C347.54,-54.63 360.95,-40.8 370.84,-30.59"/>
<polygon fill="midnightblue" stroke="midnightblue" points="334.44,-63.12 330,-72.73 339.47,-67.99 334.44,-63.12"/>
</g>
<!-- Node10 -->
<g id="node10" class="node">
<title>Node10</title>
<g id="a_node10"><a xlink:href="UserAttackBehaviour_8cpp.html" target="_top" xlink:title=" ">
<polygon fill="none" stroke="black" points="157,-0.5 157,-30.5 288,-30.5 288,-0.5 157,-0.5"/>
<text text-anchor="start" x="165" y="-18.5" font-family="Helvetica,sans-Serif" font-size="10.00">src/Scripts/Heroes</text>
<text text-anchor="middle" x="222.5" y="-7.5" font-family="Helvetica,sans-Serif" font-size="10.00">/UserAttackBehaviour.cpp</text>
</a>
</g>
</g>
<!-- Node6&#45;&gt;Node10 -->
<g id="edge10" class="edge">
<title>Node6&#45;&gt;Node10</title>
<path fill="none" stroke="midnightblue" d="M299.65,-67.15C283.08,-56.27 260.43,-41.4 243.96,-30.59"/>
<polygon fill="midnightblue" stroke="midnightblue" points="297.87,-70.17 308.15,-72.73 301.71,-64.32 297.87,-70.17"/>
</g>
<!-- Node11&#45;&gt;Node7 -->
<g id="edge12" class="edge">
<title>Node11&#45;&gt;Node7</title>
<path fill="none" stroke="midnightblue" d="M611.38,-60.34C598.35,-48.4 582.76,-34.14 573,-25.19"/>
<polygon fill="midnightblue" stroke="midnightblue" points="609.35,-63.22 619.09,-67.4 614.08,-58.06 609.35,-63.22"/>
</g>
<!-- Node11&#45;&gt;Node8 -->
<g id="edge13" class="edge">
<title>Node11&#45;&gt;Node8</title>
<path fill="none" stroke="midnightblue" d="M660.46,-61.17C673.15,-51.23 688.11,-39.51 699.53,-30.58"/>
<polygon fill="midnightblue" stroke="midnightblue" points="658.22,-58.47 652.51,-67.4 662.54,-63.99 658.22,-58.47"/>
</g>
<!-- Node12 -->
<g id="node12" class="node">
<title>Node12</title>
<g id="a_node12"><a xlink:href="GameLostBehaviour_8cpp.html" target="_top" xlink:title=" ">
<polygon fill="none" stroke="black" points="789,-0.5 789,-30.5 916,-30.5 916,-0.5 789,-0.5"/>
<text text-anchor="start" x="797" y="-18.5" font-family="Helvetica,sans-Serif" font-size="10.00">src/Scripts/Common</text>
<text text-anchor="middle" x="852.5" y="-7.5" font-family="Helvetica,sans-Serif" font-size="10.00">/GameLostBehaviour.cpp</text>
</a>
</g>
</g>
<!-- Node11&#45;&gt;Node12 -->
<g id="edge14" class="edge">
<title>Node11&#45;&gt;Node12</title>
<path fill="none" stroke="midnightblue" d="M691.25,-64.58C726.66,-54.02 771.7,-40.59 805.17,-30.61"/>
<polygon fill="midnightblue" stroke="midnightblue" points="690.12,-61.26 681.53,-67.48 692.12,-67.97 690.12,-61.26"/>
</g>
<!-- Node13&#45;&gt;Node7 -->
<g id="edge16" class="edge">
<title>Node13&#45;&gt;Node7</title>
<path fill="none" stroke="midnightblue" d="M723.31,-64.59C681.12,-51.9 625.12,-35.04 591.84,-25.03"/>
<polygon fill="midnightblue" stroke="midnightblue" points="722.31,-67.95 732.9,-67.48 724.33,-61.24 722.31,-67.95"/>
</g>
<!-- Node13&#45;&gt;Node8 -->
<g id="edge17" class="edge">
<title>Node13&#45;&gt;Node8</title>
<path fill="none" stroke="midnightblue" d="M759.02,-60.02C749.78,-50.34 739.13,-39.17 730.93,-30.58"/>
<polygon fill="midnightblue" stroke="midnightblue" points="756.61,-62.58 766.05,-67.4 761.68,-57.74 756.61,-62.58"/>
</g>
<!-- Node14 -->
<g id="node14" class="node">
<title>Node14</title>
<g id="a_node14"><a xlink:href="GameWonBehaviour_8cpp.html" target="_top" xlink:title=" ">
<polygon fill="none" stroke="black" points="934,-0.5 934,-30.5 1061,-30.5 1061,-0.5 934,-0.5"/>
<text text-anchor="start" x="942" y="-18.5" font-family="Helvetica,sans-Serif" font-size="10.00">src/Scripts/Common</text>
<text text-anchor="middle" x="997.5" y="-7.5" font-family="Helvetica,sans-Serif" font-size="10.00">/GameWonBehaviour.cpp</text>
</a>
</g>
</g>
<!-- Node13&#45;&gt;Node14 -->
<g id="edge18" class="edge">
<title>Node13&#45;&gt;Node14</title>
<path fill="none" stroke="midnightblue" d="M836.25,-64.58C871.66,-54.02 916.7,-40.59 950.17,-30.61"/>
<polygon fill="midnightblue" stroke="midnightblue" points="835.12,-61.26 826.53,-67.48 837.12,-67.97 835.12,-61.26"/>
</g>
</g>
</svg>
        <g id="navigator" transform="translate(0 0)" fill="#404254">
                <rect fill="#f2f5e9" fill-opacity="0.5" stroke="#606060" stroke-width=".5" x="0" y="0" width="60" height="60"/>
                <use id="zoomplus" xlink:href="#zoomPlus" x="17" y="9" onmousedown="handleZoom(evt,'in')"/>
                <use id="zoomminus" xlink:href="#zoomMin" x="42" y="9" onmousedown="handleZoom(evt,'out')"/>
                <use id="reset" xlink:href="#resetDef" x="30" y="36" onmousedown="handleReset()"/>
                <g id="arrowUp" xlink:href="#dirArrow" transform="translate(30 24)" onmousedown="handlePan(0,-1)">
                  <use xlink:href="#rim" fill="#404040">
                        <set attributeName="fill" to="#808080" begin="arrowUp.mouseover" end="arrowUp.mouseout"/>
                  </use>
                  <path fill="none" stroke="white" stroke-width="1.5" d="M0,-3.0v7 M-2.5,-0.5L0,-3.0L2.5,-0.5"/>
                </g>
                <g id="arrowRight" xlink:href="#dirArrow" transform="rotate(90) translate(36 -43)" onmousedown="handlePan(1,0)">
                  <use xlink:href="#rim" fill="#404040">
                        <set attributeName="fill" to="#808080" begin="arrowRight.mouseover" end="arrowRight.mouseout"/>
                  </use>
                  <path fill="none" stroke="white" stroke-width="1.5" d="M0,-3.0v7 M-2.5,-0.5L0,-3.0L2.5,-0.5"/>
                </g>
                <g id="arrowDown" xlink:href="#dirArrow" transform="rotate(180) translate(-30 -48)" onmousedown="handlePan(0,1)">
                  <use xlink:href="#rim" fill="#404040">
                        <set attributeName="fill" to="#808080" begin="arrowDown.mouseover" end="arrowDown.mouseout"/>
                  </use>
                  <path fill="none" stroke="white" stroke-width="1.5" d="M0,-3.0v7 M-2.5,-0.5L0,-3.0L2.5,-0.5"/>
                </g>
                <g id="arrowLeft" xlink:href="#dirArrow" transform="rotate(270) translate(-36 17)" onmousedown="handlePan(-1,0)">
                  <use xlink:href="#rim" fill="#404040">
                        <set attributeName="fill" to="#808080" begin="arrowLeft.mouseover" end="arrowLeft.mouseout"/>
                  </use>
                  <path fill="none" stroke="white" stroke-width="1.5" d="M0,-3.0v7 M-2.5,-0.5L0,-3.0L2.5,-0.5"/>
                </g>
        </g>
        <svg viewBox="0 0 15 15" width="100%" height="30px" preserveAspectRatio="xMaxYMin meet">
         <g id="arrow_out" transform="scale(0.3 0.3)">
          <a xlink:href="WaveData_8hpp__dep__incl_org.svg" target="_base">
           <rect id="button" ry="5" rx="5" y="6" x="6" height="38" width="38"
                fill="#f2f5e9" fill-opacity="0.5" stroke="#606060" stroke-width="1.0"/>
           <path id="arrow"
             d="M 11.500037,31.436501 C 11.940474,20.09759 22.043105,11.32322 32.158766,21.979434 L 37.068811,17.246167 C 37.068811,17.246167 37.088388,32 37.088388,32 L 22.160133,31.978069 C 22.160133,31.978069 26.997745,27.140456 26.997745,27.140456 C 18.528582,18.264221 13.291696,25.230495 11.500037,31.436501 z"
             style="fill:#404040;"/>
          </a>
         </g>
        </svg>
</svg>
