<?xml version="1.0" encoding="UTF-8" standalone="no"?>
<!DOCTYPE svg PUBLIC "-//W3C//DTD SVG 1.1//EN"
 "http://www.w3.org/Graphics/SVG/1.1/DTD/svg11.dtd">
<!-- Generated by graphviz version 2.44.0 ()
 -->
<!-- Title: src/Structs/WaveData.hpp Pages: 1 -->
<!--zoomable 363 -->
<svg id="main" version="1.1" xmlns="http://www.w3.org/2000/svg" xmlns:xlink="http://www.w3.org/1999/xlink" xml:space="preserve" onload="init(evt)">
<style type="text/css"><![CDATA[
.edge:hover path { stroke: red; }
.edge:hover polygon { stroke: red; fill: red; }
]]></style>
<script type="text/javascript"><![CDATA[
var edges = document.getElementsByTagName('g');
if (edges && edges.length) {
  for (var i=0;i<edges.length;i++) {
    if (edges[i].id.substr(0,4)=='edge') {
      edges[i].setAttribute('class','edge');
    }
  }
}
]]></script>
        <defs>
                <circle id="rim" cx="0" cy="0" r="7"/>
                <circle id="rim2" cx="0" cy="0" r="3.5"/>
                <g id="zoomPlus">
                        <use xlink:href="#rim" fill="#404040">
                                <set attributeName="fill" to="#808080" begin="zoomplus.mouseover" end="zoomplus.mouseout"/>
                        </use>
                        <path d="M-4,0h8M0,-4v8" fill="none" stroke="white" stroke-width="1.5" pointer-events="none"/>
                </g>
                <g id="zoomMin">
                        <use xlink:href="#rim" fill="#404040">
                                <set attributeName="fill" to="#808080" begin="zoomminus.mouseover" end="zoomminus.mouseout"/>
                        </use>
                        <path d="M-4,0h8" fill="none" stroke="white" stroke-width="1.5" pointer-events="none"/>
                </g>
                <g id="dirArrow">
                        <path fill="none" stroke="white" stroke-width="1.5" d="M0,-3.0v7 M-2.5,-0.5L0,-3.0L2.5,-0.5"/>
                </g>
               <g id="resetDef">
                       <use xlink:href="#rim2" fill="#404040">
                               <set attributeName="fill" to="#808080" begin="reset.mouseover" end="reset.mouseout"/>
                       </use>
               </g>
        </defs>

<script type="text/javascript">
var viewWidth = 1579;
var viewHeight = 363;
var sectionId = 'dynsection-1';
</script>
<script xlink:href="svgpan.js"/>
<svg id="graph" class="graph">
<g id="viewport">
<title>src/Structs/WaveData.hpp</title>
<!-- Node1 -->
<g id="node1" class="node">
<title>Node1</title>
<g id="a_node1"><a xlink:title=" ">
<polygon fill="#bfbfbf" stroke="black" points="721,-335.5 721,-354.5 852,-354.5 852,-335.5 721,-335.5"/>
<text text-anchor="middle" x="786.5" y="-342.5" font-family="Helvetica,sans-Serif" font-size="10.00">src/Structs/WaveData.hpp</text>
</a>
</g>
</g>
<!-- Node2 -->
<g id="node2" class="node">
<title>Node2</title>
<g id="a_node2"><a xlink:href="WavePrefabFactory_8hpp.html" target="_top" xlink:title=" ">
<polygon fill="none" stroke="black" points="296.5,-268.5 296.5,-298.5 426.5,-298.5 426.5,-268.5 296.5,-268.5"/>
<text text-anchor="start" x="304.5" y="-286.5" font-family="Helvetica,sans-Serif" font-size="10.00">src/Factories/WavePrefab</text>
<text text-anchor="middle" x="361.5" y="-275.5" font-family="Helvetica,sans-Serif" font-size="10.00">Factory.hpp</text>
</a>
</g>
</g>
<!-- Node1&#45;&gt;Node2 -->
<g id="edge1" class="edge">
<title>Node1&#45;&gt;Node2</title>
<path fill="none" stroke="midnightblue" d="M715.56,-334.07C635.08,-322.8 504.89,-304.57 426.81,-293.64"/>
<polygon fill="midnightblue" stroke="midnightblue" points="715.22,-337.55 725.61,-335.48 716.19,-330.62 715.22,-337.55"/>
</g>
<!-- Node5 -->
<g id="node5" class="node">
<title>Node5</title>
<g id="a_node5"><a xlink:href="LevelData_8hpp.html" target="_top" xlink:title=" ">
<polygon fill="none" stroke="black" points="721.5,-274 721.5,-293 851.5,-293 851.5,-274 721.5,-274"/>
<text text-anchor="middle" x="786.5" y="-281" font-family="Helvetica,sans-Serif" font-size="10.00">src/Structs/LevelData.hpp</text>
</a>
</g>
</g>
<!-- Node1&#45;&gt;Node5 -->
<g id="edge4" class="edge">
<title>Node1&#45;&gt;Node5</title>
<path fill="none" stroke="midnightblue" d="M786.5,-325.32C786.5,-314.5 786.5,-301.4 786.5,-293.01"/>
<polygon fill="midnightblue" stroke="midnightblue" points="783,-325.48 786.5,-335.48 790,-325.48 783,-325.48"/>
</g>
<!-- Node21 -->
<g id="node21" class="node">
<title>Node21</title>
<g id="a_node21"><a xlink:href="WaveData_8cpp.html" target="_top" xlink:title=" ">
<polygon fill="none" stroke="black" points="870,-274 870,-293 1001,-293 1001,-274 870,-274"/>
<text text-anchor="middle" x="935.5" y="-281" font-family="Helvetica,sans-Serif" font-size="10.00">src/Structs/WaveData.cpp</text>
</a>
</g>
</g>
<!-- Node1&#45;&gt;Node21 -->
<g id="edge28" class="edge">
<title>Node1&#45;&gt;Node21</title>
<path fill="none" stroke="midnightblue" d="M817.47,-331.63C846.42,-320.07 888.87,-303.12 914.19,-293.01"/>
<polygon fill="midnightblue" stroke="midnightblue" points="815.84,-328.52 807.85,-335.48 818.43,-335.02 815.84,-328.52"/>
</g>
<!-- Node3 -->
<g id="node3" class="node">
<title>Node3</title>
<g id="a_node3"><a xlink:href="WavePrefabFactory_8cpp.html" target="_top" xlink:title=" ">
<polygon fill="none" stroke="black" points="203.5,-201.5 203.5,-231.5 333.5,-231.5 333.5,-201.5 203.5,-201.5"/>
<text text-anchor="start" x="211.5" y="-219.5" font-family="Helvetica,sans-Serif" font-size="10.00">src/Factories/WavePrefab</text>
<text text-anchor="middle" x="268.5" y="-208.5" font-family="Helvetica,sans-Serif" font-size="10.00">Factory.cpp</text>
</a>
</g>
</g>
<!-- Node2&#45;&gt;Node3 -->
<g id="edge2" class="edge">
<title>Node2&#45;&gt;Node3</title>
<path fill="none" stroke="midnightblue" d="M332.81,-262.45C318.51,-252.45 301.55,-240.6 288.64,-231.58"/>
<polygon fill="midnightblue" stroke="midnightblue" points="331.12,-265.54 341.32,-268.4 335.13,-259.8 331.12,-265.54"/>
</g>
<!-- Node4 -->
<g id="node4" class="node">
<title>Node4</title>
<g id="a_node4"><a xlink:href="LevelScene_8cpp.html" target="_top" xlink:title=" ">
<polygon fill="none" stroke="black" points="0,-6 0,-25 139,-25 139,-6 0,-6"/>
<text text-anchor="middle" x="69.5" y="-13" font-family="Helvetica,sans-Serif" font-size="10.00">src/Scenes/LevelScene.cpp</text>
</a>
</g>
</g>
<!-- Node2&#45;&gt;Node4 -->
<g id="edge3" class="edge">
<title>Node2&#45;&gt;Node4</title>
<path fill="none" stroke="midnightblue" d="M360.45,-257.89C358.65,-240.65 354.05,-217.79 342.5,-201 277.15,-106.05 145.54,-46.26 92.47,-25.11"/>
<polygon fill="midnightblue" stroke="midnightblue" points="356.99,-258.59 361.27,-268.28 363.97,-258.04 356.99,-258.59"/>
</g>
<!-- Node6 -->
<g id="node6" class="node">
<title>Node6</title>
<g id="a_node6"><a xlink:href="HUDController_8hpp.html" target="_top" xlink:title=" ">
<polygon fill="none" stroke="black" points="548.5,-140 548.5,-159 712.5,-159 712.5,-140 548.5,-140"/>
<text text-anchor="middle" x="630.5" y="-147" font-family="Helvetica,sans-Serif" font-size="10.00">src/Controllers/HUDController.hpp</text>
</a>
</g>
</g>
<!-- Node5&#45;&gt;Node6 -->
<g id="edge5" class="edge">
<title>Node5&#45;&gt;Node6</title>
<path fill="none" stroke="midnightblue" d="M768.42,-267.31C756.5,-257.3 740.56,-243.88 726.5,-232 695.11,-205.47 658.05,-173.95 640.58,-159.08"/>
<polygon fill="midnightblue" stroke="midnightblue" points="766.39,-270.18 776.3,-273.94 770.89,-264.82 766.39,-270.18"/>
</g>
<!-- Node8 -->
<g id="node8" class="node">
<title>Node8</title>
<g id="a_node8"><a xlink:href="LevelController_8hpp.html" target="_top" xlink:title=" ">
<polygon fill="none" stroke="black" points="638.5,-73 638.5,-92 804.5,-92 804.5,-73 638.5,-73"/>
<text text-anchor="middle" x="721.5" y="-80" font-family="Helvetica,sans-Serif" font-size="10.00">src/Controllers/LevelController.hpp</text>
</a>
</g>
</g>
<!-- Node5&#45;&gt;Node8 -->
<g id="edge17" class="edge">
<title>Node5&#45;&gt;Node8</title>
<path fill="none" stroke="midnightblue" d="M775.82,-265.05C770.36,-255.54 763.94,-243.42 759.5,-232 739.54,-180.66 727.01,-115.25 722.95,-92.1"/>
<polygon fill="midnightblue" stroke="midnightblue" points="772.94,-267.05 781.05,-273.87 778.96,-263.48 772.94,-267.05"/>
</g>
<!-- Node16 -->
<g id="node16" class="node">
<title>Node16</title>
<g id="a_node16"><a xlink:href="GameLostBehaviour_8hpp.html" target="_top" xlink:title=" ">
<polygon fill="none" stroke="black" points="769,-201.5 769,-231.5 896,-231.5 896,-201.5 769,-201.5"/>
<text text-anchor="start" x="777" y="-219.5" font-family="Helvetica,sans-Serif" font-size="10.00">src/Scripts/Common</text>
<text text-anchor="middle" x="832.5" y="-208.5" font-family="Helvetica,sans-Serif" font-size="10.00">/GameLostBehaviour.hpp</text>
</a>
</g>
</g>
<!-- Node5&#45;&gt;Node16 -->
<g id="edge18" class="edge">
<title>Node5&#45;&gt;Node16</title>
<path fill="none" stroke="midnightblue" d="M798.63,-265.35C806.09,-254.82 815.51,-241.5 822.53,-231.59"/>
<polygon fill="midnightblue" stroke="midnightblue" points="795.62,-263.55 792.7,-273.73 801.34,-267.59 795.62,-263.55"/>
</g>
<!-- Node18 -->
<g id="node18" class="node">
<title>Node18</title>
<g id="a_node18"><a xlink:href="GameWonBehaviour_8hpp.html" target="_top" xlink:title=" ">
<polygon fill="none" stroke="black" points="1232,-67.5 1232,-97.5 1359,-97.5 1359,-67.5 1232,-67.5"/>
<text text-anchor="start" x="1240" y="-85.5" font-family="Helvetica,sans-Serif" font-size="10.00">src/Scripts/Common</text>
<text text-anchor="middle" x="1295.5" y="-74.5" font-family="Helvetica,sans-Serif" font-size="10.00">/GameWonBehaviour.hpp</text>
</a>
</g>
</g>
<!-- Node5&#45;&gt;Node18 -->
<g id="edge23" class="edge">
<title>Node5&#45;&gt;Node18</title>
<path fill="none" stroke="midnightblue" d="M817.71,-270.3C907.24,-235.3 1164.51,-134.71 1259.61,-97.53"/>
<polygon fill="midnightblue" stroke="midnightblue" points="816.41,-267.05 808.37,-273.95 818.96,-273.57 816.41,-267.05"/>
</g>
<!-- Node20 -->
<g id="node20" class="node">
<title>Node20</title>
<g id="a_node20"><a xlink:href="LevelData_8cpp.html" target="_top" xlink:title=" ">
<polygon fill="none" stroke="black" points="1044.5,-207 1044.5,-226 1174.5,-226 1174.5,-207 1044.5,-207"/>
<text text-anchor="middle" x="1109.5" y="-214" font-family="Helvetica,sans-Serif" font-size="10.00">src/Structs/LevelData.cpp</text>
</a>
</g>
</g>
<!-- Node5&#45;&gt;Node20 -->
<g id="edge27" class="edge">
<title>Node5&#45;&gt;Node20</title>
<path fill="none" stroke="midnightblue" d="M838.88,-271.96C902.46,-259.16 1008.41,-237.84 1067.1,-226.03"/>
<polygon fill="midnightblue" stroke="midnightblue" points="838.17,-268.53 829.06,-273.94 839.55,-275.39 838.17,-268.53"/>
</g>
<!-- Node7 -->
<g id="node7" class="node">
<title>Node7</title>
<g id="a_node7"><a xlink:href="HUDController_8cpp.html" target="_top" xlink:title=" ">
<polygon fill="none" stroke="black" points="157.5,-6 157.5,-25 321.5,-25 321.5,-6 157.5,-6"/>
<text text-anchor="middle" x="239.5" y="-13" font-family="Helvetica,sans-Serif" font-size="10.00">src/Controllers/HUDController.cpp</text>
</a>
</g>
</g>
<!-- Node6&#45;&gt;Node7 -->
<g id="edge6" class="edge">
<title>Node6&#45;&gt;Node7</title>
<path fill="none" stroke="midnightblue" d="M595.34,-136.63C517.55,-110.37 332.43,-47.87 264.8,-25.04"/>
<polygon fill="midnightblue" stroke="midnightblue" points="594.55,-140.06 605.15,-139.94 596.79,-133.43 594.55,-140.06"/>
</g>
<!-- Node6&#45;&gt;Node8 -->
<g id="edge7" class="edge">
<title>Node6&#45;&gt;Node8</title>
<path fill="none" stroke="midnightblue" d="M650.91,-133.92C668.9,-121.07 694.51,-102.78 709.42,-92.13"/>
<polygon fill="midnightblue" stroke="midnightblue" points="648.88,-131.07 642.77,-139.73 652.94,-136.77 648.88,-131.07"/>
</g>
<!-- Node8&#45;&gt;Node4 -->
<g id="edge10" class="edge">
<title>Node8&#45;&gt;Node4</title>
<path fill="none" stroke="midnightblue" d="M628.14,-75.97C514.48,-68.61 316.85,-53.82 148.5,-31 136.62,-29.39 123.8,-27.22 112.02,-25.06"/>
<polygon fill="midnightblue" stroke="midnightblue" points="627.99,-79.46 638.2,-76.61 628.44,-72.48 627.99,-79.46"/>
</g>
<!-- Node8&#45;&gt;Node7 -->
<g id="edge8" class="edge">
<title>Node8&#45;&gt;Node7</title>
<path fill="none" stroke="midnightblue" d="M640.03,-71.69C560.87,-61.99 437.31,-46.4 330.5,-31 317.83,-29.17 304.2,-27.07 291.43,-25.05"/>
<polygon fill="midnightblue" stroke="midnightblue" points="640.07,-75.22 650.42,-72.96 640.92,-68.27 640.07,-75.22"/>
</g>
<!-- Node9 -->
<g id="node9" class="node">
<title>Node9</title>
<g id="a_node9"><a xlink:href="LevelController_8cpp.html" target="_top" xlink:title=" ">
<polygon fill="none" stroke="black" points="1135.5,-6 1135.5,-25 1301.5,-25 1301.5,-6 1135.5,-6"/>
<text text-anchor="middle" x="1218.5" y="-13" font-family="Helvetica,sans-Serif" font-size="10.00">src/Controllers/LevelController.cpp</text>
</a>
</g>
</g>
<!-- Node8&#45;&gt;Node9 -->
<g id="edge9" class="edge">
<title>Node8&#45;&gt;Node9</title>
<path fill="none" stroke="midnightblue" d="M786.48,-71.49C797.17,-69.93 808.14,-68.38 818.5,-67 955.12,-48.81 989.96,-49.73 1126.5,-31 1139.48,-29.22 1153.45,-27.11 1166.49,-25.07"/>
<polygon fill="midnightblue" stroke="midnightblue" points="785.73,-68.07 776.35,-72.99 786.75,-74.99 785.73,-68.07"/>
</g>
<!-- Node10 -->
<g id="node10" class="node">
<title>Node10</title>
<g id="a_node10"><a xlink:href="CheatManager_8cpp.html" target="_top" xlink:title=" ">
<polygon fill="none" stroke="black" points="1319.5,-0.5 1319.5,-30.5 1425.5,-30.5 1425.5,-0.5 1319.5,-0.5"/>
<text text-anchor="start" x="1327.5" y="-18.5" font-family="Helvetica,sans-Serif" font-size="10.00">src/Scripts/Common</text>
<text text-anchor="middle" x="1372.5" y="-7.5" font-family="Helvetica,sans-Serif" font-size="10.00">/CheatManager.cpp</text>
</a>
</g>
</g>
<!-- Node8&#45;&gt;Node10 -->
<g id="edge11" class="edge">
<title>Node8&#45;&gt;Node10</title>
<path fill="none" stroke="midnightblue" d="M783.56,-71.51C795.15,-69.85 807.18,-68.26 818.5,-67 1036.41,-42.78 1093.76,-64.07 1310.5,-31 1313.34,-30.57 1316.24,-30.07 1319.17,-29.53"/>
<polygon fill="midnightblue" stroke="midnightblue" points="782.89,-68.07 773.51,-72.99 783.91,-75 782.89,-68.07"/>
</g>
<!-- Node11 -->
<g id="node11" class="node">
<title>Node11</title>
<g id="a_node11"><a xlink:href="HealthBehaviour_8cpp.html" target="_top" xlink:title=" ">
<polygon fill="none" stroke="black" points="339.5,-0.5 339.5,-30.5 449.5,-30.5 449.5,-0.5 339.5,-0.5"/>
<text text-anchor="start" x="347.5" y="-18.5" font-family="Helvetica,sans-Serif" font-size="10.00">src/Scripts/Common</text>
<text text-anchor="middle" x="394.5" y="-7.5" font-family="Helvetica,sans-Serif" font-size="10.00">/HealthBehaviour.cpp</text>
</a>
</g>
</g>
<!-- Node8&#45;&gt;Node11 -->
<g id="edge12" class="edge">
<title>Node8&#45;&gt;Node11</title>
<path fill="none" stroke="midnightblue" d="M664.42,-71.1C611.08,-61.25 529.26,-45.8 458.5,-31 455.6,-30.39 452.63,-29.76 449.63,-29.11"/>
<polygon fill="midnightblue" stroke="midnightblue" points="663.9,-74.57 674.37,-72.94 665.17,-67.68 663.9,-74.57"/>
</g>
<!-- Node12 -->
<g id="node12" class="node">
<title>Node12</title>
<g id="a_node12"><a xlink:href="EnemyMovementBehaviour_8cpp.html" target="_top" xlink:title=" ">
<polygon fill="none" stroke="black" points="467.5,-0.5 467.5,-30.5 623.5,-30.5 623.5,-0.5 467.5,-0.5"/>
<text text-anchor="start" x="475.5" y="-18.5" font-family="Helvetica,sans-Serif" font-size="10.00">src/Scripts/Enemies</text>
<text text-anchor="middle" x="545.5" y="-7.5" font-family="Helvetica,sans-Serif" font-size="10.00">/EnemyMovementBehaviour.cpp</text>
</a>
</g>
</g>
<!-- Node8&#45;&gt;Node12 -->
<g id="edge13" class="edge">
<title>Node8&#45;&gt;Node12</title>
<path fill="none" stroke="midnightblue" d="M688.59,-69.35C658.76,-58.33 614.8,-42.09 583.48,-30.53"/>
<polygon fill="midnightblue" stroke="midnightblue" points="687.54,-72.69 698.13,-72.87 689.96,-66.12 687.54,-72.69"/>
</g>
<!-- Node13 -->
<g id="node13" class="node">
<title>Node13</title>
<g id="a_node13"><a xlink:href="EnemyTroopTruckBehaviour_8cpp.html" target="_top" xlink:title=" ">
<polygon fill="none" stroke="black" points="641.5,-0.5 641.5,-30.5 801.5,-30.5 801.5,-0.5 641.5,-0.5"/>
<text text-anchor="start" x="649.5" y="-18.5" font-family="Helvetica,sans-Serif" font-size="10.00">src/Scripts/Enemies</text>
<text text-anchor="middle" x="721.5" y="-7.5" font-family="Helvetica,sans-Serif" font-size="10.00">/EnemyTroopTruckBehaviour.cpp</text>
</a>
</g>
</g>
<!-- Node8&#45;&gt;Node13 -->
<g id="edge14" class="edge">
<title>Node8&#45;&gt;Node13</title>
<path fill="none" stroke="midnightblue" d="M721.5,-62.41C721.5,-52.22 721.5,-39.9 721.5,-30.59"/>
<polygon fill="midnightblue" stroke="midnightblue" points="718,-62.73 721.5,-72.73 725,-62.73 718,-62.73"/>
</g>
<!-- Node14 -->
<g id="node14" class="node">
<title>Node14</title>
<g id="a_node14"><a xlink:href="UserAttackBehaviour_8cpp.html" target="_top" xlink:title=" ">
<polygon fill="none" stroke="black" points="820,-0.5 820,-30.5 951,-30.5 951,-0.5 820,-0.5"/>
<text text-anchor="start" x="828" y="-18.5" font-family="Helvetica,sans-Serif" font-size="10.00">src/Scripts/Heroes</text>
<text text-anchor="middle" x="885.5" y="-7.5" font-family="Helvetica,sans-Serif" font-size="10.00">/UserAttackBehaviour.cpp</text>
</a>
</g>
</g>
<!-- Node8&#45;&gt;Node14 -->
<g id="edge15" class="edge">
<title>Node8&#45;&gt;Node14</title>
<path fill="none" stroke="midnightblue" d="M752.89,-69.06C780.67,-58.05 821.18,-41.99 850.11,-30.53"/>
<polygon fill="midnightblue" stroke="midnightblue" points="751.28,-65.93 743.28,-72.87 753.86,-72.44 751.28,-65.93"/>
</g>
<!-- Node15 -->
<g id="node15" class="node">
<title>Node15</title>
<g id="a_node15"><a xlink:href="UserMovementBehaviour_8cpp.html" target="_top" xlink:title=" ">
<polygon fill="none" stroke="black" points="969.5,-0.5 969.5,-30.5 1117.5,-30.5 1117.5,-0.5 969.5,-0.5"/>
<text text-anchor="start" x="977.5" y="-18.5" font-family="Helvetica,sans-Serif" font-size="10.00">src/Scripts/Heroes</text>
<text text-anchor="middle" x="1043.5" y="-7.5" font-family="Helvetica,sans-Serif" font-size="10.00">/UserMovementBehaviour.cpp</text>
</a>
</g>
</g>
<!-- Node8&#45;&gt;Node15 -->
<g id="edge16" class="edge">
<title>Node8&#45;&gt;Node15</title>
<path fill="none" stroke="midnightblue" d="M774.05,-70.89C828.49,-59.9 913.83,-42.68 973.85,-30.56"/>
<polygon fill="midnightblue" stroke="midnightblue" points="773.04,-67.53 763.93,-72.94 774.42,-74.39 773.04,-67.53"/>
</g>
<!-- Node16&#45;&gt;Node6 -->
<g id="edge19" class="edge">
<title>Node16&#45;&gt;Node6</title>
<path fill="none" stroke="midnightblue" d="M778.95,-198.27C739.59,-185.6 687.79,-168.93 656.94,-159.01"/>
<polygon fill="midnightblue" stroke="midnightblue" points="778.08,-201.66 788.67,-201.4 780.22,-195 778.08,-201.66"/>
</g>
<!-- Node16&#45;&gt;Node8 -->
<g id="edge20" class="edge">
<title>Node16&#45;&gt;Node8</title>
<path fill="none" stroke="midnightblue" d="M814.12,-193.64C789.19,-164 745.83,-112.43 728.73,-92.1"/>
<polygon fill="midnightblue" stroke="midnightblue" points="811.51,-195.97 820.62,-201.37 816.86,-191.47 811.51,-195.97"/>
</g>
<!-- Node16&#45;&gt;Node10 -->
<g id="edge21" class="edge">
<title>Node16&#45;&gt;Node10</title>
<path fill="none" stroke="midnightblue" d="M831.69,-191.1C832.45,-172.94 836.57,-148.81 851.5,-134 999.95,13.22 1106.71,-77.7 1310.5,-31 1313.41,-30.33 1316.39,-29.65 1319.41,-28.95"/>
<polygon fill="midnightblue" stroke="midnightblue" points="828.18,-191.21 831.57,-201.25 835.18,-191.29 828.18,-191.21"/>
</g>
<!-- Node17 -->
<g id="node17" class="node">
<title>Node17</title>
<g id="a_node17"><a xlink:href="GameLostBehaviour_8cpp.html" target="_top" xlink:title=" ">
<polygon fill="none" stroke="black" points="861,-134.5 861,-164.5 988,-164.5 988,-134.5 861,-134.5"/>
<text text-anchor="start" x="869" y="-152.5" font-family="Helvetica,sans-Serif" font-size="10.00">src/Scripts/Common</text>
<text text-anchor="middle" x="924.5" y="-141.5" font-family="Helvetica,sans-Serif" font-size="10.00">/GameLostBehaviour.cpp</text>
</a>
</g>
</g>
<!-- Node16&#45;&gt;Node17 -->
<g id="edge22" class="edge">
<title>Node16&#45;&gt;Node17</title>
<path fill="none" stroke="midnightblue" d="M860.88,-195.45C875.03,-185.45 891.81,-173.6 904.58,-164.58"/>
<polygon fill="midnightblue" stroke="midnightblue" points="858.61,-192.77 852.46,-201.4 862.65,-198.48 858.61,-192.77"/>
</g>
<!-- Node18&#45;&gt;Node9 -->
<g id="edge24" class="edge">
<title>Node18&#45;&gt;Node9</title>
<path fill="none" stroke="midnightblue" d="M1270.83,-60.67C1256.61,-48.67 1239.49,-34.22 1228.8,-25.19"/>
<polygon fill="midnightblue" stroke="midnightblue" points="1268.89,-63.62 1278.79,-67.4 1273.41,-58.27 1268.89,-63.62"/>
</g>
<!-- Node18&#45;&gt;Node10 -->
<g id="edge25" class="edge">
<title>Node18&#45;&gt;Node10</title>
<path fill="none" stroke="midnightblue" d="M1319.92,-60.88C1331.62,-51.01 1345.34,-39.43 1355.82,-30.58"/>
<polygon fill="midnightblue" stroke="midnightblue" points="1317.59,-58.27 1312.21,-67.4 1322.11,-63.62 1317.59,-58.27"/>
</g>
<!-- Node19 -->
<g id="node19" class="node">
<title>Node19</title>
<g id="a_node19"><a xlink:href="GameWonBehaviour_8cpp.html" target="_top" xlink:title=" ">
<polygon fill="none" stroke="black" points="1444,-0.5 1444,-30.5 1571,-30.5 1571,-0.5 1444,-0.5"/>
<text text-anchor="start" x="1452" y="-18.5" font-family="Helvetica,sans-Serif" font-size="10.00">src/Scripts/Common</text>
<text text-anchor="middle" x="1507.5" y="-7.5" font-family="Helvetica,sans-Serif" font-size="10.00">/GameWonBehaviour.cpp</text>
</a>
</g>
</g>
<!-- Node18&#45;&gt;Node19 -->
<g id="edge26" class="edge">
<title>Node18&#45;&gt;Node19</title>
<path fill="none" stroke="midnightblue" d="M1351.13,-64.44C1385.49,-53.91 1429.06,-40.55 1461.48,-30.61"/>
<polygon fill="midnightblue" stroke="midnightblue" points="1349.77,-61.2 1341.24,-67.48 1351.83,-67.89 1349.77,-61.2"/>
</g>
</g>
</svg>
        <g id="navigator" transform="translate(0 0)" fill="#404254">
                <rect fill="#f2f5e9" fill-opacity="0.5" stroke="#606060" stroke-width=".5" x="0" y="0" width="60" height="60"/>
                <use id="zoomplus" xlink:href="#zoomPlus" x="17" y="9" onmousedown="handleZoom(evt,'in')"/>
                <use id="zoomminus" xlink:href="#zoomMin" x="42" y="9" onmousedown="handleZoom(evt,'out')"/>
                <use id="reset" xlink:href="#resetDef" x="30" y="36" onmousedown="handleReset()"/>
                <g id="arrowUp" xlink:href="#dirArrow" transform="translate(30 24)" onmousedown="handlePan(0,-1)">
                  <use xlink:href="#rim" fill="#404040">
                        <set attributeName="fill" to="#808080" begin="arrowUp.mouseover" end="arrowUp.mouseout"/>
                  </use>
                  <path fill="none" stroke="white" stroke-width="1.5" d="M0,-3.0v7 M-2.5,-0.5L0,-3.0L2.5,-0.5"/>
                </g>
                <g id="arrowRight" xlink:href="#dirArrow" transform="rotate(90) translate(36 -43)" onmousedown="handlePan(1,0)">
                  <use xlink:href="#rim" fill="#404040">
                        <set attributeName="fill" to="#808080" begin="arrowRight.mouseover" end="arrowRight.mouseout"/>
                  </use>
                  <path fill="none" stroke="white" stroke-width="1.5" d="M0,-3.0v7 M-2.5,-0.5L0,-3.0L2.5,-0.5"/>
                </g>
                <g id="arrowDown" xlink:href="#dirArrow" transform="rotate(180) translate(-30 -48)" onmousedown="handlePan(0,1)">
                  <use xlink:href="#rim" fill="#404040">
                        <set attributeName="fill" to="#808080" begin="arrowDown.mouseover" end="arrowDown.mouseout"/>
                  </use>
                  <path fill="none" stroke="white" stroke-width="1.5" d="M0,-3.0v7 M-2.5,-0.5L0,-3.0L2.5,-0.5"/>
                </g>
                <g id="arrowLeft" xlink:href="#dirArrow" transform="rotate(270) translate(-36 17)" onmousedown="handlePan(-1,0)">
                  <use xlink:href="#rim" fill="#404040">
                        <set attributeName="fill" to="#808080" begin="arrowLeft.mouseover" end="arrowLeft.mouseout"/>
                  </use>
                  <path fill="none" stroke="white" stroke-width="1.5" d="M0,-3.0v7 M-2.5,-0.5L0,-3.0L2.5,-0.5"/>
                </g>
        </g>
        <svg viewBox="0 0 15 15" width="100%" height="30px" preserveAspectRatio="xMaxYMin meet">
         <g id="arrow_out" transform="scale(0.3 0.3)">
          <a xlink:href="WaveData_8hpp__dep__incl_org.svg" target="_base">
           <rect id="button" ry="5" rx="5" y="6" x="6" height="38" width="38"
                fill="#f2f5e9" fill-opacity="0.5" stroke="#606060" stroke-width="1.0"/>
           <path id="arrow"
             d="M 11.500037,31.436501 C 11.940474,20.09759 22.043105,11.32322 32.158766,21.979434 L 37.068811,17.246167 C 37.068811,17.246167 37.088388,32 37.088388,32 L 22.160133,31.978069 C 22.160133,31.978069 26.997745,27.140456 26.997745,27.140456 C 18.528582,18.264221 13.291696,25.230495 11.500037,31.436501 z"
             style="fill:#404040;"/>
          </a>
         </g>
        </svg>
</svg>
