<?xml version="1.0" encoding="UTF-8" standalone="no"?>
<!DOCTYPE svg PUBLIC "-//W3C//DTD SVG 1.1//EN"
 "http://www.w3.org/Graphics/SVG/1.1/DTD/svg11.dtd">
<!-- Generated by graphviz version 2.44.0 ()
 -->
<!-- Title: libs/spic&#45;engine/includes/spic&#45;api&#45;headers/WindowConfig.hpp Pages: 1 -->
<svg width="3899pt" height="296pt"
 viewBox="0.00 0.00 3899.00 296.00" xmlns="http://www.w3.org/2000/svg" xmlns:xlink="http://www.w3.org/1999/xlink">
<g id="graph0" class="graph" transform="scale(1 1) rotate(0) translate(4 292)">
<title>libs/spic&#45;engine/includes/spic&#45;api&#45;headers/WindowConfig.hpp</title>
<!-- Node1 -->
<g id="node1" class="node">
<title>Node1</title>
<g id="a_node1"><a xlink:title=" ">
<polygon fill="#bfbfbf" stroke="black" points="120.5,-257.5 120.5,-287.5 293.5,-287.5 293.5,-257.5 120.5,-257.5"/>
<text text-anchor="start" x="128.5" y="-275.5" font-family="Helvetica,sans-Serif" font-size="10.00">libs/spic&#45;engine/includes</text>
<text text-anchor="middle" x="207" y="-264.5" font-family="Helvetica,sans-Serif" font-size="10.00">/spic&#45;api&#45;headers/WindowConfig.hpp</text>
</a>
</g>
</g>
<!-- Node2 -->
<g id="node2" class="node">
<title>Node2</title>
<g id="a_node2"><a xlink:href="Api_8hpp.html" target="_top" xlink:title=" ">
<polygon fill="none" stroke="black" points="88,-56.5 88,-86.5 214,-86.5 214,-56.5 88,-56.5"/>
<text text-anchor="start" x="96" y="-74.5" font-family="Helvetica,sans-Serif" font-size="10.00">libs/spic&#45;engine/includes</text>
<text text-anchor="middle" x="151" y="-63.5" font-family="Helvetica,sans-Serif" font-size="10.00">/spic&#45;api&#45;headers/Api.hpp</text>
</a>
</g>
</g>
<!-- Node1&#45;&gt;Node2 -->
<g id="edge1" class="edge">
<title>Node1&#45;&gt;Node2</title>
<path fill="none" stroke="midnightblue" d="M187.11,-249.47C180.62,-241.11 174.05,-231.14 170,-221 151.4,-174.41 150.05,-113.67 150.51,-86.59"/>
<polygon fill="midnightblue" stroke="midnightblue" points="184.43,-251.72 193.48,-257.24 189.85,-247.29 184.43,-251.72"/>
</g>
<!-- Node5 -->
<g id="node5" class="node">
<title>Node5</title>
<g id="a_node5"><a xlink:href="EngineConfig_8hpp.html" target="_top" xlink:title=" ">
<polygon fill="none" stroke="black" points="179,-190.5 179,-220.5 347,-220.5 347,-190.5 179,-190.5"/>
<text text-anchor="start" x="187" y="-208.5" font-family="Helvetica,sans-Serif" font-size="10.00">libs/spic&#45;engine/includes</text>
<text text-anchor="middle" x="263" y="-197.5" font-family="Helvetica,sans-Serif" font-size="10.00">/spic&#45;api&#45;headers/EngineConfig.hpp</text>
</a>
</g>
</g>
<!-- Node1&#45;&gt;Node5 -->
<g id="edge4" class="edge">
<title>Node1&#45;&gt;Node5</title>
<path fill="none" stroke="midnightblue" d="M225.75,-249.74C234.04,-240.12 243.54,-229.09 250.87,-220.58"/>
<polygon fill="midnightblue" stroke="midnightblue" points="223.03,-247.54 219.15,-257.4 228.33,-252.1 223.03,-247.54"/>
</g>
<!-- Node3 -->
<g id="node3" class="node">
<title>Node3</title>
<g id="a_node3"><a xlink:href="LevelController_8cpp.html" target="_top" xlink:title=" ">
<polygon fill="none" stroke="black" points="0,-0.5 0,-19.5 166,-19.5 166,-0.5 0,-0.5"/>
<text text-anchor="middle" x="83" y="-7.5" font-family="Helvetica,sans-Serif" font-size="10.00">src/Controllers/LevelController.cpp</text>
</a>
</g>
</g>
<!-- Node2&#45;&gt;Node3 -->
<g id="edge2" class="edge">
<title>Node2&#45;&gt;Node3</title>
<path fill="none" stroke="midnightblue" d="M127.11,-49.6C115.36,-39.32 101.84,-27.48 92.89,-19.66"/>
<polygon fill="midnightblue" stroke="midnightblue" points="125.05,-52.45 134.88,-56.4 129.66,-47.18 125.05,-52.45"/>
</g>
<!-- Node4 -->
<g id="node4" class="node">
<title>Node4</title>
<g id="a_node4"><a xlink:href="main_8cpp.html" target="_top" xlink:title=" ">
<polygon fill="none" stroke="black" points="184,-0.5 184,-19.5 256,-19.5 256,-0.5 184,-0.5"/>
<text text-anchor="middle" x="220" y="-7.5" font-family="Helvetica,sans-Serif" font-size="10.00">src/main.cpp</text>
</a>
</g>
</g>
<!-- Node2&#45;&gt;Node4 -->
<g id="edge3" class="edge">
<title>Node2&#45;&gt;Node4</title>
<path fill="none" stroke="midnightblue" d="M175.24,-49.6C187.16,-39.32 200.89,-27.48 209.96,-19.66"/>
<polygon fill="midnightblue" stroke="midnightblue" points="172.64,-47.22 167.35,-56.4 177.21,-52.52 172.64,-47.22"/>
</g>
<!-- Node5&#45;&gt;Node2 -->
<g id="edge5" class="edge">
<title>Node5&#45;&gt;Node2</title>
<path fill="none" stroke="midnightblue" d="M244.37,-182.54C221.21,-155.25 182.38,-109.48 162.9,-86.52"/>
<polygon fill="midnightblue" stroke="midnightblue" points="241.88,-185.01 251.01,-190.37 247.21,-180.48 241.88,-185.01"/>
</g>
<!-- Node6 -->
<g id="node6" class="node">
<title>Node6</title>
<g id="a_node6"><a xlink:href="Engine_8hpp.html" target="_top" xlink:title=" ">
<polygon fill="none" stroke="black" points="1805.5,-123.5 1805.5,-153.5 1946.5,-153.5 1946.5,-123.5 1805.5,-123.5"/>
<text text-anchor="start" x="1813.5" y="-141.5" font-family="Helvetica,sans-Serif" font-size="10.00">libs/spic&#45;engine/includes</text>
<text text-anchor="middle" x="1876" y="-130.5" font-family="Helvetica,sans-Serif" font-size="10.00">/spic&#45;api&#45;headers/Engine.hpp</text>
</a>
</g>
</g>
<!-- Node5&#45;&gt;Node6 -->
<g id="edge6" class="edge">
<title>Node5&#45;&gt;Node6</title>
<path fill="none" stroke="midnightblue" d="M357.37,-200.7C651.43,-188.85 1546.86,-152.76 1805.41,-142.34"/>
<polygon fill="midnightblue" stroke="midnightblue" points="357.02,-197.21 347.17,-201.11 357.3,-204.2 357.02,-197.21"/>
</g>
<!-- Node6&#45;&gt;Node2 -->
<g id="edge30" class="edge">
<title>Node6&#45;&gt;Node2</title>
<path fill="none" stroke="midnightblue" d="M1794.91,-136.83C1506.72,-134.16 532.75,-122.66 223,-87 220.09,-86.66 217.12,-86.27 214.12,-85.84"/>
<polygon fill="midnightblue" stroke="midnightblue" points="1795.24,-140.33 1805.27,-136.92 1795.31,-133.33 1795.24,-140.33"/>
</g>
<!-- Node7 -->
<g id="node7" class="node">
<title>Node7</title>
<g id="a_node7"><a xlink:href="BulletFactory_8cpp.html" target="_top" xlink:title=" ">
<polygon fill="none" stroke="black" points="232,-62 232,-81 384,-81 384,-62 232,-62"/>
<text text-anchor="middle" x="308" y="-69" font-family="Helvetica,sans-Serif" font-size="10.00">src/Factories/BulletFactory.cpp</text>
</a>
</g>
</g>
<!-- Node6&#45;&gt;Node7 -->
<g id="edge7" class="edge">
<title>Node6&#45;&gt;Node7</title>
<path fill="none" stroke="midnightblue" d="M1795.21,-136.19C1527.15,-131.61 668.49,-115.06 393,-87 379.3,-85.6 364.47,-83.34 351.09,-81.01"/>
<polygon fill="midnightblue" stroke="midnightblue" points="1795.2,-139.69 1805.26,-136.36 1795.32,-132.69 1795.2,-139.69"/>
</g>
<!-- Node8 -->
<g id="node8" class="node">
<title>Node8</title>
<g id="a_node8"><a xlink:href="ButtonPrefabFactory_8cpp.html" target="_top" xlink:title=" ">
<polygon fill="none" stroke="black" points="402,-56.5 402,-86.5 536,-86.5 536,-56.5 402,-56.5"/>
<text text-anchor="start" x="410" y="-74.5" font-family="Helvetica,sans-Serif" font-size="10.00">src/Factories/ButtonPrefab</text>
<text text-anchor="middle" x="469" y="-63.5" font-family="Helvetica,sans-Serif" font-size="10.00">Factory.cpp</text>
</a>
</g>
</g>
<!-- Node6&#45;&gt;Node8 -->
<g id="edge8" class="edge">
<title>Node6&#45;&gt;Node8</title>
<path fill="none" stroke="midnightblue" d="M1795.1,-136.03C1545.44,-131.24 789.18,-114.77 545,-87 542.06,-86.67 539.07,-86.28 536.05,-85.86"/>
<polygon fill="midnightblue" stroke="midnightblue" points="1795.13,-139.53 1805.19,-136.22 1795.26,-132.53 1795.13,-139.53"/>
</g>
<!-- Node9 -->
<g id="node9" class="node">
<title>Node9</title>
<g id="a_node9"><a xlink:href="GameOverScene_8cpp.html" target="_top" xlink:title=" ">
<polygon fill="none" stroke="black" points="554,-62 554,-81 716,-81 716,-62 554,-62"/>
<text text-anchor="middle" x="635" y="-69" font-family="Helvetica,sans-Serif" font-size="10.00">src/Scenes/GameOverScene.cpp</text>
</a>
</g>
</g>
<!-- Node6&#45;&gt;Node9 -->
<g id="edge9" class="edge">
<title>Node6&#45;&gt;Node9</title>
<path fill="none" stroke="midnightblue" d="M1795.32,-137.17C1607.25,-135.7 1125.3,-127.89 725,-87 710.83,-85.55 695.5,-83.33 681.58,-81.06"/>
<polygon fill="midnightblue" stroke="midnightblue" points="1795.37,-140.67 1805.4,-137.24 1795.42,-133.67 1795.37,-140.67"/>
</g>
<!-- Node10 -->
<g id="node10" class="node">
<title>Node10</title>
<g id="a_node10"><a xlink:href="LevelSelectionScene_8cpp.html" target="_top" xlink:title=" ">
<polygon fill="none" stroke="black" points="734,-56.5 734,-86.5 868,-86.5 868,-56.5 734,-56.5"/>
<text text-anchor="start" x="742" y="-74.5" font-family="Helvetica,sans-Serif" font-size="10.00">src/Scenes/LevelSelection</text>
<text text-anchor="middle" x="801" y="-63.5" font-family="Helvetica,sans-Serif" font-size="10.00">Scene.cpp</text>
</a>
</g>
</g>
<!-- Node6&#45;&gt;Node10 -->
<g id="edge10" class="edge">
<title>Node6&#45;&gt;Node10</title>
<path fill="none" stroke="midnightblue" d="M1795.33,-137.19C1625.05,-135.7 1216.63,-127.79 877,-87 874.07,-86.65 871.07,-86.25 868.06,-85.81"/>
<polygon fill="midnightblue" stroke="midnightblue" points="1795.44,-140.69 1805.47,-137.27 1795.5,-133.69 1795.44,-140.69"/>
</g>
<!-- Node11 -->
<g id="node11" class="node">
<title>Node11</title>
<g id="a_node11"><a xlink:href="LoadingScene_8cpp.html" target="_top" xlink:title=" ">
<polygon fill="none" stroke="black" points="886.5,-62 886.5,-81 1035.5,-81 1035.5,-62 886.5,-62"/>
<text text-anchor="middle" x="961" y="-69" font-family="Helvetica,sans-Serif" font-size="10.00">src/Scenes/LoadingScene.cpp</text>
</a>
</g>
</g>
<!-- Node6&#45;&gt;Node11 -->
<g id="edge11" class="edge">
<title>Node6&#45;&gt;Node11</title>
<path fill="none" stroke="midnightblue" d="M1795.04,-135.54C1646.13,-131.28 1318.92,-118.87 1045,-87 1031.92,-85.48 1017.78,-83.26 1004.9,-81.02"/>
<polygon fill="midnightblue" stroke="midnightblue" points="1795.36,-139.05 1805.45,-135.84 1795.56,-132.06 1795.36,-139.05"/>
</g>
<!-- Node12 -->
<g id="node12" class="node">
<title>Node12</title>
<g id="a_node12"><a xlink:href="MainScene_8cpp.html" target="_top" xlink:title=" ">
<polygon fill="none" stroke="black" points="1054,-62 1054,-81 1190,-81 1190,-62 1054,-62"/>
<text text-anchor="middle" x="1122" y="-69" font-family="Helvetica,sans-Serif" font-size="10.00">src/Scenes/MainScene.cpp</text>
</a>
</g>
</g>
<!-- Node6&#45;&gt;Node12 -->
<g id="edge12" class="edge">
<title>Node6&#45;&gt;Node12</title>
<path fill="none" stroke="midnightblue" d="M1795.01,-134.38C1667.71,-128.83 1413.19,-115.07 1199,-87 1187.13,-85.44 1174.32,-83.25 1162.62,-81.03"/>
<polygon fill="midnightblue" stroke="midnightblue" points="1794.93,-137.88 1805.07,-134.82 1795.23,-130.89 1794.93,-137.88"/>
</g>
<!-- Node13 -->
<g id="node13" class="node">
<title>Node13</title>
<g id="a_node13"><a xlink:href="PauseScene_8cpp.html" target="_top" xlink:title=" ">
<polygon fill="none" stroke="black" points="1208.5,-62 1208.5,-81 1351.5,-81 1351.5,-62 1208.5,-62"/>
<text text-anchor="middle" x="1280" y="-69" font-family="Helvetica,sans-Serif" font-size="10.00">src/Scenes/PauseScene.cpp</text>
</a>
</g>
</g>
<!-- Node6&#45;&gt;Node13 -->
<g id="edge13" class="edge">
<title>Node6&#45;&gt;Node13</title>
<path fill="none" stroke="midnightblue" d="M1795.21,-131.57C1693.61,-123.66 1513.93,-108.15 1361,-87 1348.97,-85.34 1336,-83.18 1324.04,-81.04"/>
<polygon fill="midnightblue" stroke="midnightblue" points="1795.16,-135.08 1805.4,-132.36 1795.7,-128.1 1795.16,-135.08"/>
</g>
<!-- Node14 -->
<g id="node14" class="node">
<title>Node14</title>
<g id="a_node14"><a xlink:href="SaveSelectionScene_8cpp.html" target="_top" xlink:title=" ">
<polygon fill="none" stroke="black" points="1370,-56.5 1370,-86.5 1502,-86.5 1502,-56.5 1370,-56.5"/>
<text text-anchor="start" x="1378" y="-74.5" font-family="Helvetica,sans-Serif" font-size="10.00">src/Scenes/SaveSelection</text>
<text text-anchor="middle" x="1436" y="-63.5" font-family="Helvetica,sans-Serif" font-size="10.00">Scene.cpp</text>
</a>
</g>
</g>
<!-- Node6&#45;&gt;Node14 -->
<g id="edge14" class="edge">
<title>Node6&#45;&gt;Node14</title>
<path fill="none" stroke="midnightblue" d="M1794.98,-127.55C1720.89,-118.16 1608.35,-103.13 1511,-87 1508.12,-86.52 1505.18,-86.02 1502.22,-85.5"/>
<polygon fill="midnightblue" stroke="midnightblue" points="1794.82,-131.06 1805.18,-128.84 1795.69,-124.12 1794.82,-131.06"/>
</g>
<!-- Node15 -->
<g id="node15" class="node">
<title>Node15</title>
<g id="a_node15"><a xlink:href="VictoryScene_8cpp.html" target="_top" xlink:title=" ">
<polygon fill="none" stroke="black" points="1520.5,-62 1520.5,-81 1665.5,-81 1665.5,-62 1520.5,-62"/>
<text text-anchor="middle" x="1593" y="-69" font-family="Helvetica,sans-Serif" font-size="10.00">src/Scenes/VictoryScene.cpp</text>
</a>
</g>
</g>
<!-- Node6&#45;&gt;Node15 -->
<g id="edge15" class="edge">
<title>Node6&#45;&gt;Node15</title>
<path fill="none" stroke="midnightblue" d="M1805.16,-121.23C1749.59,-108.47 1674.47,-91.21 1630.13,-81.03"/>
<polygon fill="midnightblue" stroke="midnightblue" points="1804.41,-124.65 1814.94,-123.48 1805.98,-117.83 1804.41,-124.65"/>
</g>
<!-- Node16 -->
<g id="node16" class="node">
<title>Node16</title>
<g id="a_node16"><a xlink:href="AttackBehaviour_8cpp.html" target="_top" xlink:title=" ">
<polygon fill="none" stroke="black" points="1684,-56.5 1684,-86.5 1794,-86.5 1794,-56.5 1684,-56.5"/>
<text text-anchor="start" x="1692" y="-74.5" font-family="Helvetica,sans-Serif" font-size="10.00">src/Scripts/Common</text>
<text text-anchor="middle" x="1739" y="-63.5" font-family="Helvetica,sans-Serif" font-size="10.00">/AttackBehaviour.cpp</text>
</a>
</g>
</g>
<!-- Node6&#45;&gt;Node16 -->
<g id="edge16" class="edge">
<title>Node6&#45;&gt;Node16</title>
<path fill="none" stroke="midnightblue" d="M1836.99,-118.99C1815.28,-108.69 1788.67,-96.07 1768.67,-86.58"/>
<polygon fill="midnightblue" stroke="midnightblue" points="1835.74,-122.27 1846.27,-123.4 1838.74,-115.95 1835.74,-122.27"/>
</g>
<!-- Node17 -->
<g id="node17" class="node">
<title>Node17</title>
<g id="a_node17"><a xlink:href="GameLostBehaviour_8cpp.html" target="_top" xlink:title=" ">
<polygon fill="none" stroke="black" points="1812.5,-56.5 1812.5,-86.5 1939.5,-86.5 1939.5,-56.5 1812.5,-56.5"/>
<text text-anchor="start" x="1820.5" y="-74.5" font-family="Helvetica,sans-Serif" font-size="10.00">src/Scripts/Common</text>
<text text-anchor="middle" x="1876" y="-63.5" font-family="Helvetica,sans-Serif" font-size="10.00">/GameLostBehaviour.cpp</text>
</a>
</g>
</g>
<!-- Node6&#45;&gt;Node17 -->
<g id="edge17" class="edge">
<title>Node6&#45;&gt;Node17</title>
<path fill="none" stroke="midnightblue" d="M1876,-113.11C1876,-104.15 1876,-94.32 1876,-86.58"/>
<polygon fill="midnightblue" stroke="midnightblue" points="1872.5,-113.4 1876,-123.4 1879.5,-113.4 1872.5,-113.4"/>
</g>
<!-- Node18 -->
<g id="node18" class="node">
<title>Node18</title>
<g id="a_node18"><a xlink:href="GameWonBehaviour_8cpp.html" target="_top" xlink:title=" ">
<polygon fill="none" stroke="black" points="1957.5,-56.5 1957.5,-86.5 2084.5,-86.5 2084.5,-56.5 1957.5,-56.5"/>
<text text-anchor="start" x="1965.5" y="-74.5" font-family="Helvetica,sans-Serif" font-size="10.00">src/Scripts/Common</text>
<text text-anchor="middle" x="2021" y="-63.5" font-family="Helvetica,sans-Serif" font-size="10.00">/GameWonBehaviour.cpp</text>
</a>
</g>
</g>
<!-- Node6&#45;&gt;Node18 -->
<g id="edge18" class="edge">
<title>Node6&#45;&gt;Node18</title>
<path fill="none" stroke="midnightblue" d="M1916.67,-119.27C1939.76,-108.92 1968.24,-96.15 1989.6,-86.58"/>
<polygon fill="midnightblue" stroke="midnightblue" points="1915.16,-116.11 1907.46,-123.4 1918.02,-122.5 1915.16,-116.11"/>
</g>
<!-- Node19 -->
<g id="node19" class="node">
<title>Node19</title>
<g id="a_node19"><a xlink:href="EnemyMedicBehaviour_8cpp.html" target="_top" xlink:title=" ">
<polygon fill="none" stroke="black" points="2102.5,-56.5 2102.5,-86.5 2239.5,-86.5 2239.5,-56.5 2102.5,-56.5"/>
<text text-anchor="start" x="2110.5" y="-74.5" font-family="Helvetica,sans-Serif" font-size="10.00">src/Scripts/Enemies</text>
<text text-anchor="middle" x="2171" y="-63.5" font-family="Helvetica,sans-Serif" font-size="10.00">/EnemyMedicBehaviour.cpp</text>
</a>
</g>
</g>
<!-- Node6&#45;&gt;Node19 -->
<g id="edge19" class="edge">
<title>Node6&#45;&gt;Node19</title>
<path fill="none" stroke="midnightblue" d="M1949.45,-121.32C1997.94,-110.63 2060.83,-96.77 2107.21,-86.55"/>
<polygon fill="midnightblue" stroke="midnightblue" points="1948.66,-117.91 1939.65,-123.48 1950.17,-124.74 1948.66,-117.91"/>
</g>
<!-- Node20 -->
<g id="node20" class="node">
<title>Node20</title>
<g id="a_node20"><a xlink:href="EnemySpeedBoostBehaviour_8cpp.html" target="_top" xlink:title=" ">
<polygon fill="none" stroke="black" points="2258,-56.5 2258,-86.5 2422,-86.5 2422,-56.5 2258,-56.5"/>
<text text-anchor="start" x="2266" y="-74.5" font-family="Helvetica,sans-Serif" font-size="10.00">src/Scripts/Enemies</text>
<text text-anchor="middle" x="2340" y="-63.5" font-family="Helvetica,sans-Serif" font-size="10.00">/EnemySpeedBoostBehaviour.cpp</text>
</a>
</g>
</g>
<!-- Node6&#45;&gt;Node20 -->
<g id="edge20" class="edge">
<title>Node6&#45;&gt;Node20</title>
<path fill="none" stroke="midnightblue" d="M1956.47,-127.16C2032.06,-117.31 2148.3,-101.84 2249,-87 2251.85,-86.58 2254.75,-86.15 2257.67,-85.71"/>
<polygon fill="midnightblue" stroke="midnightblue" points="1956,-123.69 1946.54,-128.45 1956.9,-130.63 1956,-123.69"/>
</g>
<!-- Node21 -->
<g id="node21" class="node">
<title>Node21</title>
<g id="a_node21"><a xlink:href="EnemyTroopTruckBehaviour_8cpp.html" target="_top" xlink:title=" ">
<polygon fill="none" stroke="black" points="2440,-56.5 2440,-86.5 2600,-86.5 2600,-56.5 2440,-56.5"/>
<text text-anchor="start" x="2448" y="-74.5" font-family="Helvetica,sans-Serif" font-size="10.00">src/Scripts/Enemies</text>
<text text-anchor="middle" x="2520" y="-63.5" font-family="Helvetica,sans-Serif" font-size="10.00">/EnemyTroopTruckBehaviour.cpp</text>
</a>
</g>
</g>
<!-- Node6&#45;&gt;Node21 -->
<g id="edge21" class="edge">
<title>Node6&#45;&gt;Node21</title>
<path fill="none" stroke="midnightblue" d="M1956.89,-131.94C2065.12,-124.09 2262.93,-108.31 2431,-87 2433.95,-86.63 2436.95,-86.23 2439.99,-85.81"/>
<polygon fill="midnightblue" stroke="midnightblue" points="1956.42,-128.47 1946.7,-132.68 1956.93,-135.45 1956.42,-128.47"/>
</g>
<!-- Node22 -->
<g id="node22" class="node">
<title>Node22</title>
<g id="a_node22"><a xlink:href="UserAttackBehaviour_8cpp.html" target="_top" xlink:title=" ">
<polygon fill="none" stroke="black" points="2618.5,-56.5 2618.5,-86.5 2749.5,-86.5 2749.5,-56.5 2618.5,-56.5"/>
<text text-anchor="start" x="2626.5" y="-74.5" font-family="Helvetica,sans-Serif" font-size="10.00">src/Scripts/Heroes</text>
<text text-anchor="middle" x="2684" y="-63.5" font-family="Helvetica,sans-Serif" font-size="10.00">/UserAttackBehaviour.cpp</text>
</a>
</g>
</g>
<!-- Node6&#45;&gt;Node22 -->
<g id="edge22" class="edge">
<title>Node6&#45;&gt;Node22</title>
<path fill="none" stroke="midnightblue" d="M1956.81,-135.16C2092.21,-130.52 2373.24,-117.79 2609,-87 2612.02,-86.6 2615.11,-86.16 2618.22,-85.69"/>
<polygon fill="midnightblue" stroke="midnightblue" points="1956.41,-131.67 1946.53,-135.51 1956.64,-138.67 1956.41,-131.67"/>
</g>
<!-- Node23 -->
<g id="node23" class="node">
<title>Node23</title>
<g id="a_node23"><a xlink:href="CloseSceneBehaviour_8cpp.html" target="_top" xlink:title=" ">
<polygon fill="none" stroke="black" points="2768,-56.5 2768,-86.5 2914,-86.5 2914,-56.5 2768,-56.5"/>
<text text-anchor="start" x="2776" y="-74.5" font-family="Helvetica,sans-Serif" font-size="10.00">src/Scripts/Menu/CloseScene</text>
<text text-anchor="middle" x="2841" y="-63.5" font-family="Helvetica,sans-Serif" font-size="10.00">Behaviour.cpp</text>
</a>
</g>
</g>
<!-- Node6&#45;&gt;Node23 -->
<g id="edge23" class="edge">
<title>Node6&#45;&gt;Node23</title>
<path fill="none" stroke="midnightblue" d="M1957.07,-136.06C2112.91,-132.57 2464.92,-121.29 2759,-87 2761.87,-86.67 2764.8,-86.29 2767.75,-85.89"/>
<polygon fill="midnightblue" stroke="midnightblue" points="1956.56,-132.57 1946.64,-136.28 1956.71,-139.56 1956.56,-132.57"/>
</g>
<!-- Node24 -->
<g id="node24" class="node">
<title>Node24</title>
<g id="a_node24"><a xlink:href="PauseSceneBehaviour_8cpp.html" target="_top" xlink:title=" ">
<polygon fill="none" stroke="black" points="2932.5,-56.5 2932.5,-86.5 3081.5,-86.5 3081.5,-56.5 2932.5,-56.5"/>
<text text-anchor="start" x="2940.5" y="-74.5" font-family="Helvetica,sans-Serif" font-size="10.00">src/Scripts/Menu/PauseScene</text>
<text text-anchor="middle" x="3007" y="-63.5" font-family="Helvetica,sans-Serif" font-size="10.00">Behaviour.cpp</text>
</a>
</g>
</g>
<!-- Node6&#45;&gt;Node24 -->
<g id="edge24" class="edge">
<title>Node6&#45;&gt;Node24</title>
<path fill="none" stroke="midnightblue" d="M1956.92,-136.97C2133.08,-135.09 2564.29,-126.46 2923,-87 2926.09,-86.66 2929.24,-86.28 2932.41,-85.86"/>
<polygon fill="midnightblue" stroke="midnightblue" points="1956.66,-133.48 1946.7,-137.08 1956.74,-140.48 1956.66,-133.48"/>
</g>
<!-- Node25 -->
<g id="node25" class="node">
<title>Node25</title>
<g id="a_node25"><a xlink:href="Engine_8cpp.html" target="_top" xlink:title=" ">
<polygon fill="none" stroke="black" points="3099.5,-56.5 3099.5,-86.5 3200.5,-86.5 3200.5,-56.5 3099.5,-56.5"/>
<text text-anchor="start" x="3107.5" y="-74.5" font-family="Helvetica,sans-Serif" font-size="10.00">libs/spic&#45;engine/src</text>
<text text-anchor="middle" x="3150" y="-63.5" font-family="Helvetica,sans-Serif" font-size="10.00">/Api/Engine.cpp</text>
</a>
</g>
</g>
<!-- Node6&#45;&gt;Node25 -->
<g id="edge25" class="edge">
<title>Node6&#45;&gt;Node25</title>
<path fill="none" stroke="midnightblue" d="M1957.08,-136.24C2192.14,-132.25 2871.14,-118.27 3091,-87 3093.72,-86.61 3096.49,-86.16 3099.28,-85.65"/>
<polygon fill="midnightblue" stroke="midnightblue" points="1956.83,-132.74 1946.89,-136.41 1956.95,-139.74 1956.83,-132.74"/>
</g>
<!-- Node26 -->
<g id="node26" class="node">
<title>Node26</title>
<g id="a_node26"><a xlink:href="GameObject_8cpp.html" target="_top" xlink:title=" ">
<polygon fill="none" stroke="black" points="3219,-56.5 3219,-86.5 3329,-86.5 3329,-56.5 3219,-56.5"/>
<text text-anchor="start" x="3227" y="-74.5" font-family="Helvetica,sans-Serif" font-size="10.00">libs/spic&#45;engine/src</text>
<text text-anchor="middle" x="3274" y="-63.5" font-family="Helvetica,sans-Serif" font-size="10.00">/Api/GameObject.cpp</text>
</a>
</g>
</g>
<!-- Node6&#45;&gt;Node26 -->
<g id="edge26" class="edge">
<title>Node6&#45;&gt;Node26</title>
<path fill="none" stroke="midnightblue" d="M1956.69,-136.4C2206.59,-132.69 2965.64,-119.03 3210,-87 3212.94,-86.62 3215.94,-86.16 3218.96,-85.65"/>
<polygon fill="midnightblue" stroke="midnightblue" points="1956.54,-132.9 1946.59,-136.55 1956.64,-139.9 1956.54,-132.9"/>
</g>
<!-- Node27 -->
<g id="node27" class="node">
<title>Node27</title>
<g id="a_node27"><a xlink:href="AudioSubsystem_8cpp.html" target="_top" xlink:title=" ">
<polygon fill="none" stroke="black" points="3347,-56.5 3347,-86.5 3515,-86.5 3515,-56.5 3347,-56.5"/>
<text text-anchor="start" x="3355" y="-74.5" font-family="Helvetica,sans-Serif" font-size="10.00">libs/spic&#45;engine/src</text>
<text text-anchor="middle" x="3431" y="-63.5" font-family="Helvetica,sans-Serif" font-size="10.00">/Subsystems/AudioSubsystem.cpp</text>
</a>
</g>
</g>
<!-- Node6&#45;&gt;Node27 -->
<g id="edge27" class="edge">
<title>Node6&#45;&gt;Node27</title>
<path fill="none" stroke="midnightblue" d="M1956.79,-138.11C2178.21,-139.04 2813.16,-136.8 3338,-87 3340.93,-86.72 3343.9,-86.41 3346.91,-86.07"/>
<polygon fill="midnightblue" stroke="midnightblue" points="1956.58,-134.61 1946.56,-138.06 1956.55,-141.61 1956.58,-134.61"/>
</g>
<!-- Node28 -->
<g id="node28" class="node">
<title>Node28</title>
<g id="a_node28"><a xlink:href="InputSubsystem_8cpp.html" target="_top" xlink:title=" ">
<polygon fill="none" stroke="black" points="3533.5,-56.5 3533.5,-86.5 3698.5,-86.5 3698.5,-56.5 3533.5,-56.5"/>
<text text-anchor="start" x="3541.5" y="-74.5" font-family="Helvetica,sans-Serif" font-size="10.00">libs/spic&#45;engine/src</text>
<text text-anchor="middle" x="3616" y="-63.5" font-family="Helvetica,sans-Serif" font-size="10.00">/Subsystems/InputSubsystem.cpp</text>
</a>
</g>
</g>
<!-- Node6&#45;&gt;Node28 -->
<g id="edge28" class="edge">
<title>Node6&#45;&gt;Node28</title>
<path fill="none" stroke="midnightblue" d="M1957.29,-136.36C2245.06,-132.13 3214.68,-116 3524,-87 3527.06,-86.71 3530.17,-86.39 3533.31,-86.03"/>
<polygon fill="midnightblue" stroke="midnightblue" points="1956.89,-132.87 1946.94,-136.51 1956.99,-139.87 1956.89,-132.87"/>
</g>
<!-- Node29 -->
<g id="node29" class="node">
<title>Node29</title>
<g id="a_node29"><a xlink:href="RenderSubsystem_8cpp.html" target="_top" xlink:title=" ">
<polygon fill="none" stroke="black" points="3717,-56.5 3717,-86.5 3891,-86.5 3891,-56.5 3717,-56.5"/>
<text text-anchor="start" x="3725" y="-74.5" font-family="Helvetica,sans-Serif" font-size="10.00">libs/spic&#45;engine/src</text>
<text text-anchor="middle" x="3804" y="-63.5" font-family="Helvetica,sans-Serif" font-size="10.00">/Subsystems/RenderSubsystem.cpp</text>
</a>
</g>
</g>
<!-- Node6&#45;&gt;Node29 -->
<g id="edge29" class="edge">
<title>Node6&#45;&gt;Node29</title>
<path fill="none" stroke="midnightblue" d="M1956.9,-136.59C2264.38,-132.92 3360.56,-117.91 3708,-87 3710.94,-86.74 3713.92,-86.45 3716.94,-86.13"/>
<polygon fill="midnightblue" stroke="midnightblue" points="1956.69,-133.09 1946.73,-136.71 1956.77,-140.09 1956.69,-133.09"/>
</g>
</g>
</svg>
