<?xml version="1.0" encoding="UTF-8" standalone="no"?>
<!DOCTYPE svg PUBLIC "-//W3C//DTD SVG 1.1//EN"
 "http://www.w3.org/Graphics/SVG/1.1/DTD/svg11.dtd">
<!-- Generated by graphviz version 2.44.0 ()
 -->
<!-- Title: libs/spic&#45;engine/src/Utils/ZoneUtil.hpp Pages: 1 -->
<svg width="128pt" height="95pt"
 viewBox="0.00 0.00 127.50 95.00" xmlns="http://www.w3.org/2000/svg" xmlns:xlink="http://www.w3.org/1999/xlink">
<g id="graph0" class="graph" transform="scale(1 1) rotate(0) translate(4 91)">
<title>libs/spic&#45;engine/src/Utils/ZoneUtil.hpp</title>
<!-- Node1 -->
<g id="node1" class="node">
<title>Node1</title>
<g id="a_node1"><a xlink:title=" ">
<polygon fill="#bfbfbf" stroke="black" points="12,-56.5 12,-86.5 113,-86.5 113,-56.5 12,-56.5"/>
<text text-anchor="start" x="20" y="-74.5" font-family="Helvetica,sans-Serif" font-size="10.00">libs/spic&#45;engine/src</text>
<text text-anchor="middle" x="62.5" y="-63.5" font-family="Helvetica,sans-Serif" font-size="10.00">/Utils/ZoneUtil.hpp</text>
</a>
</g>
</g>
<!-- Node2 -->
<g id="node2" class="node">
<title>Node2</title>
<g id="a_node2"><a xlink:href="Point_8hpp.html" target="_top" xlink:title=" ">
<polygon fill="none" stroke="black" points="0,-0.5 0,-19.5 57,-19.5 57,-0.5 0,-0.5"/>
<text text-anchor="middle" x="28.5" y="-7.5" font-family="Helvetica,sans-Serif" font-size="10.00">Point.hpp</text>
</a>
</g>
</g>
<!-- Node1&#45;&gt;Node2 -->
<g id="edge1" class="edge">
<title>Node1&#45;&gt;Node2</title>
<path fill="none" stroke="midnightblue" d="M54.44,-56.4C49.65,-48.02 43.54,-37.33 38.46,-28.42"/>
<polygon fill="midnightblue" stroke="midnightblue" points="41.45,-26.6 33.45,-19.66 35.37,-30.08 41.45,-26.6"/>
</g>
<!-- Node3 -->
<g id="node3" class="node">
<title>Node3</title>
<g id="a_node3"><a xlink:title=" ">
<polygon fill="none" stroke="#bfbfbf" points="75.5,-0.5 75.5,-19.5 119.5,-19.5 119.5,-0.5 75.5,-0.5"/>
<text text-anchor="middle" x="97.5" y="-7.5" font-family="Helvetica,sans-Serif" font-size="10.00">vector</text>
</a>
</g>
</g>
<!-- Node1&#45;&gt;Node3 -->
<g id="edge2" class="edge">
<title>Node1&#45;&gt;Node3</title>
<path fill="none" stroke="midnightblue" d="M70.79,-56.4C75.72,-48.02 82.01,-37.33 87.25,-28.42"/>
<polygon fill="midnightblue" stroke="midnightblue" points="90.35,-30.05 92.41,-19.66 84.32,-26.5 90.35,-30.05"/>
</g>
</g>
</svg>
